<?xml version="1.0" encoding="utf-8" standalone="no"?>
<!DOCTYPE svg PUBLIC "-//W3C//DTD SVG 1.1//EN"
  "http://www.w3.org/Graphics/SVG/1.1/DTD/svg11.dtd">
<!-- Created with matplotlib (https://matplotlib.org/) -->
<svg height="345.6pt" version="1.1" viewBox="0 0 460.8 345.6" width="460.8pt" xmlns="http://www.w3.org/2000/svg" xmlns:xlink="http://www.w3.org/1999/xlink">
 <metadata>
  <rdf:RDF xmlns:cc="http://creativecommons.org/ns#" xmlns:dc="http://purl.org/dc/elements/1.1/" xmlns:rdf="http://www.w3.org/1999/02/22-rdf-syntax-ns#">
   <cc:Work>
    <dc:type rdf:resource="http://purl.org/dc/dcmitype/StillImage"/>
    <dc:date>2021-06-10T08:56:21.872466</dc:date>
    <dc:format>image/svg+xml</dc:format>
    <dc:creator>
     <cc:Agent>
      <dc:title>Matplotlib v3.3.1, https://matplotlib.org/</dc:title>
     </cc:Agent>
    </dc:creator>
   </cc:Work>
  </rdf:RDF>
 </metadata>
 <defs>
  <style type="text/css">*{stroke-linecap:butt;stroke-linejoin:round;}</style>
 </defs>
 <g id="figure_1">
  <g id="patch_1">
   <path d="M 0 345.6 
L 460.8 345.6 
L 460.8 0 
L 0 0 
z
" style="fill:#ffffff;"/>
  </g>
  <g id="axes_1">
   <g id="patch_2">
    <path d="M 47.72 303.64 
L 450 303.64 
L 450 14.76 
L 47.72 14.76 
z
" style="fill:#ffffff;"/>
   </g>
   <g id="PolyCollection_1">
    <path clip-path="url(#p95d2d30b56)" d="M 66.005455 40.802604 
L 66.005455 41.979646 
L 68.459878 88.835256 
L 70.914301 97.781353 
L 73.368725 104.679396 
L 75.823148 137.331326 
L 78.277572 187.413644 
L 80.731995 210.747209 
L 83.186419 217.046819 
L 85.640842 220.342012 
L 88.095265 217.943777 
L 90.549689 232.784613 
L 93.004112 247.040387 
L 95.458536 248.401217 
L 97.912959 244.612147 
L 100.367383 252.706133 
L 102.821806 249.178948 
L 105.276229 261.045668 
L 107.730653 252.918326 
L 110.185076 258.530559 
L 112.6395 259.887104 
L 115.093923 254.603387 
L 117.548347 251.628373 
L 120.00277 273.554631 
L 122.457193 254.628374 
L 124.911617 260.513619 
L 127.36604 268.696328 
L 129.820464 267.360066 
L 132.274887 263.336193 
L 134.729311 266.840207 
L 137.183734 274.884038 
L 139.638157 271.540501 
L 142.092581 275.373504 
L 144.547004 278.649971 
L 147.001428 269.765859 
L 149.455851 278.424915 
L 151.910275 275.442379 
L 154.364698 279.617393 
L 156.819121 275.108966 
L 159.273545 272.163921 
L 161.727968 273.810945 
L 164.182392 280.528634 
L 166.636815 275.20428 
L 169.091239 281.171338 
L 171.545662 275.302152 
L 174.000085 285.473329 
L 176.454509 278.549751 
L 178.908932 280.372394 
L 181.363356 280.046105 
L 183.817779 278.381856 
L 186.272203 282.357637 
L 188.726626 280.808635 
L 191.181049 283.514675 
L 193.635473 278.759053 
L 196.089896 284.210639 
L 198.54432 288.87576 
L 200.998743 283.989354 
L 203.453167 281.284608 
L 205.90759 288.672529 
L 208.362013 286.928243 
L 210.816437 280.494637 
L 213.27086 288.957053 
L 215.725284 284.022315 
L 218.179707 279.623706 
L 220.634131 284.198743 
L 223.088554 283.593715 
L 225.542977 293.320146 
L 227.997401 290.608574 
L 230.451824 288.021026 
L 232.906248 290.415334 
L 235.360671 286.410395 
L 237.815095 281.789816 
L 240.269518 290.624992 
L 242.723941 290.648159 
L 245.178365 283.061849 
L 247.632788 289.251348 
L 250.087212 287.381949 
L 252.541635 293.429749 
L 254.996059 292.593902 
L 257.450482 290.986944 
L 259.904905 292.699345 
L 262.359329 291.820514 
L 264.813752 292.286056 
L 267.268176 290.71529 
L 269.722599 291.551953 
L 272.177023 288.34608 
L 274.631446 294.023946 
L 277.085869 292.325256 
L 279.540293 289.062324 
L 281.994716 293.844748 
L 284.44914 290.704628 
L 286.903563 293.892858 
L 289.357987 292.171733 
L 291.81241 296.149879 
L 294.266833 293.350941 
L 296.721257 294.501036 
L 299.17568 296.101413 
L 301.630104 295.814309 
L 304.084527 295.777691 
L 306.538951 297.33294 
L 308.993374 296.47463 
L 311.447797 298.976097 
L 313.902221 299.010856 
L 316.356644 298.374279 
L 318.811068 297.417501 
L 321.265491 300.308499 
L 323.719915 300.549981 
L 326.174338 300.84698 
L 328.628761 298.837703 
L 331.083185 301.91931 
L 333.537608 301.929774 
L 335.992032 301.439175 
L 338.446455 302.125021 
L 340.900879 303.263883 
L 343.355302 301.355604 
L 345.809725 302.820925 
L 348.264149 302.384463 
L 350.718572 303.299534 
L 353.172996 302.206533 
L 355.627419 303.078695 
L 358.081843 302.751963 
L 360.536266 302.242961 
L 362.990689 302.533382 
L 365.445113 303.214266 
L 367.899536 302.86998 
L 370.35396 302.754907 
L 372.808383 303.150657 
L 375.262807 303.476913 
L 377.71723 303.549472 
L 380.171653 303.540276 
L 382.626077 303.502376 
L 385.0805 303.489701 
L 387.534924 303.540081 
L 389.989347 303.545249 
L 392.443771 303.601142 
L 394.898194 303.645018 
L 397.352617 303.580732 
L 399.807041 303.591333 
L 402.261464 303.538841 
L 404.715888 303.541157 
L 407.170311 303.546406 
L 409.624735 303.570919 
L 412.079158 303.543187 
L 414.533581 303.616341 
L 416.988005 303.604025 
L 419.442428 303.568074 
L 421.896852 303.56903 
L 424.351275 303.553094 
L 426.805699 303.551858 
L 429.260122 303.596247 
L 431.714545 303.544533 
L 431.714545 303.512843 
L 431.714545 303.512843 
L 429.260122 303.378766 
L 426.805699 303.50521 
L 424.351275 303.488589 
L 421.896852 303.462184 
L 419.442428 303.393914 
L 416.988005 303.376521 
L 414.533581 303.285501 
L 412.079158 303.532416 
L 409.624735 303.415313 
L 407.170311 303.182334 
L 404.715888 303.353191 
L 402.261464 303.445737 
L 399.807041 303.402965 
L 397.352617 303.044686 
L 394.898194 302.131074 
L 392.443771 303.312997 
L 389.989347 302.921924 
L 387.534924 303.446216 
L 385.0805 302.766506 
L 382.626077 303.056262 
L 380.171653 303.257405 
L 377.71723 303.250347 
L 375.262807 302.087378 
L 372.808383 301.070131 
L 370.35396 302.554206 
L 367.899536 300.146818 
L 365.445113 302.226557 
L 362.990689 301.308763 
L 360.536266 299.910054 
L 358.081843 301.709764 
L 355.627419 300.158854 
L 353.172996 299.842454 
L 350.718572 297.444697 
L 348.264149 298.602911 
L 345.809725 300.282798 
L 343.355302 297.341924 
L 340.900879 299.229426 
L 338.446455 298.405865 
L 335.992032 298.717916 
L 333.537608 299.965464 
L 331.083185 298.496616 
L 328.628761 295.098524 
L 326.174338 295.403249 
L 323.719915 296.390005 
L 321.265491 296.126511 
L 318.811068 293.012106 
L 316.356644 295.690307 
L 313.902221 295.632055 
L 311.447797 295.720414 
L 308.993374 291.156453 
L 306.538951 293.488799 
L 304.084527 294.022812 
L 301.630104 294.508097 
L 299.17568 288.426466 
L 296.721257 291.279409 
L 294.266833 289.611231 
L 291.81241 290.54319 
L 289.357987 287.371274 
L 286.903563 290.81275 
L 284.44914 286.017284 
L 281.994716 287.40502 
L 279.540293 282.615473 
L 277.085869 287.561924 
L 274.631446 288.9749 
L 272.177023 285.66194 
L 269.722599 286.351998 
L 267.268176 283.797706 
L 264.813752 287.536239 
L 262.359329 283.637548 
L 259.904905 289.1626 
L 257.450482 283.607864 
L 254.996059 289.084672 
L 252.541635 287.554836 
L 250.087212 280.38017 
L 247.632788 282.079455 
L 245.178365 277.455701 
L 242.723941 284.115914 
L 240.269518 284.720227 
L 237.815095 276.329805 
L 235.360671 282.451951 
L 232.906248 286.013185 
L 230.451824 285.428418 
L 227.997401 282.175091 
L 225.542977 287.681366 
L 223.088554 275.293242 
L 220.634131 278.874718 
L 218.179707 274.399686 
L 215.725284 279.271191 
L 213.27086 287.40376 
L 210.816437 275.994392 
L 208.362013 282.300844 
L 205.90759 281.306969 
L 203.453167 274.538642 
L 200.998743 278.463466 
L 198.54432 284.342354 
L 196.089896 279.534242 
L 193.635473 277.983873 
L 191.181049 275.456916 
L 188.726626 274.56324 
L 186.272203 273.685659 
L 183.817779 272.132095 
L 181.363356 274.287607 
L 178.908932 267.788765 
L 176.454509 274.136442 
L 174.000085 278.90912 
L 171.545662 268.802274 
L 169.091239 279.058461 
L 166.636815 270.073722 
L 164.182392 273.618887 
L 161.727968 270.767425 
L 159.273545 270.084226 
L 156.819121 269.723303 
L 154.364698 270.185643 
L 151.910275 271.477499 
L 149.455851 275.801596 
L 147.001428 264.086712 
L 144.547004 266.977846 
L 142.092581 272.607105 
L 139.638157 266.859674 
L 137.183734 270.856623 
L 134.729311 260.083759 
L 132.274887 254.334585 
L 129.820464 263.07334 
L 127.36604 262.053041 
L 124.911617 257.913213 
L 122.457193 251.453351 
L 120.00277 267.807693 
L 117.548347 243.372096 
L 115.093923 246.242388 
L 112.6395 250.663234 
L 110.185076 251.827944 
L 107.730653 242.815627 
L 105.276229 252.077507 
L 102.821806 244.523818 
L 100.367383 246.99992 
L 97.912959 240.322659 
L 95.458536 239.523949 
L 93.004112 239.271113 
L 90.549689 229.107499 
L 88.095265 207.206411 
L 85.640842 211.533663 
L 83.186419 203.7476 
L 80.731995 196.235134 
L 78.277572 167.886262 
L 75.823148 104.154374 
L 73.368725 81.783691 
L 70.914301 94.143372 
L 68.459878 70.635606 
L 66.005455 40.802604 
z
" style="fill:#1f77b4;fill-opacity:0.25;"/>
   </g>
   <g id="PolyCollection_2">
    <path clip-path="url(#p95d2d30b56)" d="M 66.005455 36.832237 
L 66.005455 38.818287 
L 68.459878 44.019255 
L 70.914301 61.155595 
L 73.368725 60.254545 
L 75.823148 78.974245 
L 78.277572 101.083243 
L 80.731995 122.632499 
L 83.186419 138.05408 
L 85.640842 160.531485 
L 88.095265 148.35221 
L 90.549689 185.659848 
L 93.004112 187.028041 
L 95.458536 207.510964 
L 97.912959 204.129064 
L 100.367383 221.058722 
L 102.821806 222.673955 
L 105.276229 231.331424 
L 107.730653 222.91541 
L 110.185076 239.024539 
L 112.6395 231.856929 
L 115.093923 231.2286 
L 117.548347 234.88939 
L 120.00277 239.059914 
L 122.457193 232.985714 
L 124.911617 243.141566 
L 127.36604 249.057804 
L 129.820464 240.508908 
L 132.274887 241.194557 
L 134.729311 246.515859 
L 137.183734 253.562578 
L 139.638157 247.831707 
L 142.092581 256.491392 
L 144.547004 258.051082 
L 147.001428 256.519369 
L 149.455851 263.890964 
L 151.910275 261.1793 
L 154.364698 261.240486 
L 156.819121 250.660763 
L 159.273545 250.428419 
L 161.727968 250.86028 
L 164.182392 255.539062 
L 166.636815 254.975836 
L 169.091239 257.032646 
L 171.545662 257.317982 
L 174.000085 264.249857 
L 176.454509 266.019769 
L 178.908932 251.996785 
L 181.363356 264.713736 
L 183.817779 255.402145 
L 186.272203 257.825602 
L 188.726626 262.60397 
L 191.181049 257.11845 
L 193.635473 262.862177 
L 196.089896 271.438924 
L 198.54432 274.702905 
L 200.998743 270.436941 
L 203.453167 261.657257 
L 205.90759 271.654171 
L 208.362013 272.740134 
L 210.816437 265.206034 
L 213.27086 271.957131 
L 215.725284 262.522307 
L 218.179707 259.497071 
L 220.634131 264.855219 
L 223.088554 266.880695 
L 225.542977 282.348562 
L 227.997401 273.159177 
L 230.451824 265.882862 
L 232.906248 272.735805 
L 235.360671 264.636058 
L 237.815095 263.822833 
L 240.269518 273.281869 
L 242.723941 276.25022 
L 245.178365 268.213356 
L 247.632788 274.892339 
L 250.087212 270.482353 
L 252.541635 276.755163 
L 254.996059 275.233439 
L 257.450482 268.962938 
L 259.904905 276.564981 
L 262.359329 278.344689 
L 264.813752 281.719696 
L 267.268176 278.887478 
L 269.722599 276.308262 
L 272.177023 277.170818 
L 274.631446 284.123423 
L 277.085869 282.307449 
L 279.540293 275.481572 
L 281.994716 281.049624 
L 284.44914 268.233123 
L 286.903563 280.454622 
L 289.357987 280.568774 
L 291.81241 290.758296 
L 294.266833 284.941707 
L 296.721257 282.737141 
L 299.17568 277.073604 
L 301.630104 289.789854 
L 304.084527 284.177765 
L 306.538951 282.252099 
L 308.993374 292.664894 
L 311.447797 289.334543 
L 313.902221 289.500472 
L 316.356644 289.708984 
L 318.811068 288.625397 
L 321.265491 292.570057 
L 323.719915 294.259152 
L 326.174338 294.664057 
L 328.628761 292.40784 
L 331.083185 291.199912 
L 333.537608 295.208739 
L 335.992032 295.268574 
L 338.446455 294.922592 
L 340.900879 298.60871 
L 343.355302 291.9547 
L 345.809725 291.071163 
L 348.264149 294.610964 
L 350.718572 293.725623 
L 353.172996 298.383661 
L 355.627419 296.893346 
L 358.081843 297.561719 
L 360.536266 298.293275 
L 362.990689 301.15007 
L 365.445113 301.179789 
L 367.899536 301.648038 
L 370.35396 301.858466 
L 372.808383 300.838382 
L 375.262807 302.362159 
L 377.71723 302.563565 
L 380.171653 302.7654 
L 382.626077 300.667218 
L 385.0805 302.053359 
L 387.534924 301.933632 
L 389.989347 302.295259 
L 392.443771 302.364018 
L 394.898194 302.92874 
L 397.352617 301.684326 
L 399.807041 303.183648 
L 402.261464 302.9415 
L 404.715888 303.133157 
L 407.170311 303.157964 
L 409.624735 303.241626 
L 412.079158 303.374291 
L 414.533581 303.377664 
L 416.988005 303.602789 
L 419.442428 303.138103 
L 421.896852 303.173556 
L 424.351275 303.263052 
L 426.805699 303.410684 
L 429.260122 303.441296 
L 431.714545 303.086032 
L 431.714545 302.089432 
L 431.714545 302.089432 
L 429.260122 303.142335 
L 426.805699 303.093736 
L 424.351275 301.347753 
L 421.896852 302.405148 
L 419.442428 302.675898 
L 416.988005 302.562791 
L 414.533581 303.073904 
L 412.079158 303.086711 
L 409.624735 301.399682 
L 407.170311 302.336813 
L 404.715888 302.174282 
L 402.261464 301.835132 
L 399.807041 302.73967 
L 397.352617 300.27897 
L 394.898194 301.038415 
L 392.443771 299.649 
L 389.989347 301.595903 
L 387.534924 299.318749 
L 385.0805 299.27378 
L 382.626077 298.274334 
L 380.171653 302.130423 
L 377.71723 301.396713 
L 375.262807 299.78345 
L 372.808383 297.706454 
L 370.35396 299.499001 
L 367.899536 299.533463 
L 365.445113 297.414063 
L 362.990689 297.731534 
L 360.536266 290.033207 
L 358.081843 295.887869 
L 355.627419 294.757795 
L 353.172996 295.22955 
L 350.718572 286.432382 
L 348.264149 291.028426 
L 345.809725 287.371617 
L 343.355302 284.428681 
L 340.900879 294.744961 
L 338.446455 292.83544 
L 335.992032 291.081731 
L 333.537608 292.357458 
L 331.083185 288.915777 
L 328.628761 289.180459 
L 326.174338 291.226411 
L 323.719915 291.329458 
L 321.265491 289.08877 
L 318.811068 280.143853 
L 316.356644 286.663112 
L 313.902221 287.133986 
L 311.447797 287.556636 
L 308.993374 286.878112 
L 306.538951 278.733753 
L 304.084527 278.190423 
L 301.630104 284.116607 
L 299.17568 272.785854 
L 296.721257 277.329034 
L 294.266833 275.739467 
L 291.81241 285.055224 
L 289.357987 272.924253 
L 286.903563 278.917564 
L 284.44914 257.607543 
L 281.994716 273.323584 
L 279.540293 271.156196 
L 277.085869 276.765701 
L 274.631446 279.198294 
L 272.177023 274.274095 
L 269.722599 268.174192 
L 267.268176 270.458541 
L 264.813752 278.047443 
L 262.359329 272.829399 
L 259.904905 272.256314 
L 257.450482 260.7257 
L 254.996059 268.329338 
L 252.541635 266.170046 
L 250.087212 265.649662 
L 247.632788 266.881864 
L 245.178365 262.253903 
L 242.723941 270.46654 
L 240.269518 262.443909 
L 237.815095 254.637851 
L 235.360671 258.902596 
L 232.906248 265.308912 
L 230.451824 263.376969 
L 227.997401 268.919704 
L 225.542977 275.483307 
L 223.088554 262.525833 
L 220.634131 256.990778 
L 218.179707 254.449864 
L 215.725284 256.931403 
L 213.27086 266.476897 
L 210.816437 258.479316 
L 208.362013 264.351053 
L 205.90759 264.522982 
L 203.453167 253.474537 
L 200.998743 264.092693 
L 198.54432 269.598998 
L 196.089896 264.512542 
L 193.635473 255.722636 
L 191.181049 253.962253 
L 188.726626 259.501567 
L 186.272203 249.677955 
L 183.817779 251.063248 
L 181.363356 257.425655 
L 178.908932 246.276152 
L 176.454509 254.302838 
L 174.000085 258.690724 
L 171.545662 250.129153 
L 169.091239 251.926594 
L 166.636815 248.747454 
L 164.182392 252.13376 
L 161.727968 244.715692 
L 159.273545 243.804712 
L 156.819121 244.215577 
L 154.364698 254.703783 
L 151.910275 254.618272 
L 149.455851 256.962008 
L 147.001428 252.044919 
L 144.547004 250.60348 
L 142.092581 250.380239 
L 139.638157 242.079509 
L 137.183734 245.703385 
L 134.729311 239.739219 
L 132.274887 234.125961 
L 129.820464 230.749235 
L 127.36604 243.493955 
L 124.911617 231.761431 
L 122.457193 224.708611 
L 120.00277 232.55933 
L 117.548347 226.122541 
L 115.093923 225.946644 
L 112.6395 221.188234 
L 110.185076 237.785517 
L 107.730653 213.631996 
L 105.276229 223.383826 
L 102.821806 216.446289 
L 100.367383 213.322084 
L 97.912959 198.745767 
L 95.458536 199.83248 
L 93.004112 180.594403 
L 90.549689 178.509577 
L 88.095265 137.277965 
L 85.640842 153.354765 
L 83.186419 127.851008 
L 80.731995 107.839651 
L 78.277572 94.67817 
L 75.823148 68.038667 
L 73.368725 56.74193 
L 70.914301 47.35503 
L 68.459878 43.00592 
L 66.005455 36.832237 
z
" style="fill:#ff7f0e;fill-opacity:0.25;"/>
   </g>
   <g id="PolyCollection_3">
    <path clip-path="url(#p95d2d30b56)" d="M 66.005455 37.439204 
L 66.005455 38.933521 
L 68.459878 46.676098 
L 70.914301 66.128134 
L 73.368725 61.859198 
L 75.823148 78.659008 
L 78.277572 102.841512 
L 80.731995 120.226863 
L 83.186419 141.955506 
L 85.640842 162.474093 
L 88.095265 151.745507 
L 90.549689 183.991422 
L 93.004112 187.107856 
L 95.458536 210.012536 
L 97.912959 206.016916 
L 100.367383 220.383447 
L 102.821806 222.086056 
L 105.276229 231.379451 
L 107.730653 215.589365 
L 110.185076 234.184088 
L 112.6395 230.202142 
L 115.093923 236.05175 
L 117.548347 228.952534 
L 120.00277 237.267824 
L 122.457193 230.644472 
L 124.911617 241.408679 
L 127.36604 249.645083 
L 129.820464 235.355211 
L 132.274887 243.163475 
L 134.729311 243.781184 
L 137.183734 252.316528 
L 139.638157 247.2143 
L 142.092581 253.156624 
L 144.547004 258.949512 
L 147.001428 259.027689 
L 149.455851 261.534395 
L 151.910275 260.13211 
L 154.364698 256.999508 
L 156.819121 253.047117 
L 159.273545 252.055389 
L 161.727968 254.055427 
L 164.182392 251.251406 
L 166.636815 254.148266 
L 169.091239 257.646977 
L 171.545662 257.151429 
L 174.000085 263.264652 
L 176.454509 264.081571 
L 178.908932 251.713127 
L 181.363356 265.939911 
L 183.817779 255.31661 
L 186.272203 257.132247 
L 188.726626 267.465782 
L 191.181049 259.458323 
L 193.635473 260.722404 
L 196.089896 268.90999 
L 198.54432 271.875166 
L 200.998743 272.45942 
L 203.453167 259.974622 
L 205.90759 270.884024 
L 208.362013 272.985158 
L 210.816437 263.914521 
L 213.27086 273.484331 
L 215.725284 267.977018 
L 218.179707 264.014287 
L 220.634131 262.782136 
L 223.088554 269.678522 
L 225.542977 280.492113 
L 227.997401 270.972675 
L 230.451824 271.00779 
L 232.906248 272.251795 
L 235.360671 264.532862 
L 237.815095 262.845103 
L 240.269518 271.656793 
L 242.723941 278.895083 
L 245.178365 264.269241 
L 247.632788 275.14195 
L 250.087212 271.920466 
L 252.541635 275.15461 
L 254.996059 272.18955 
L 257.450482 268.9497 
L 259.904905 279.217463 
L 262.359329 279.783459 
L 264.813752 278.010422 
L 267.268176 274.205049 
L 269.722599 276.173736 
L 272.177023 279.141702 
L 274.631446 283.490465 
L 277.085869 283.27087 
L 279.540293 278.13573 
L 281.994716 276.179798 
L 284.44914 264.007586 
L 286.903563 285.349548 
L 289.357987 279.395144 
L 291.81241 290.902596 
L 294.266833 281.065058 
L 296.721257 279.226488 
L 299.17568 280.789304 
L 301.630104 285.192842 
L 304.084527 285.762781 
L 306.538951 284.469998 
L 308.993374 290.278434 
L 311.447797 291.377679 
L 313.902221 290.864602 
L 316.356644 289.37819 
L 318.811068 287.70555 
L 321.265491 292.57776 
L 323.719915 293.521829 
L 326.174338 294.330898 
L 328.628761 295.085332 
L 331.083185 289.867235 
L 333.537608 295.976236 
L 335.992032 292.666319 
L 338.446455 295.345975 
L 340.900879 297.27898 
L 343.355302 290.192822 
L 345.809725 295.331405 
L 348.264149 294.574081 
L 350.718572 293.335732 
L 353.172996 297.465712 
L 355.627419 295.959639 
L 358.081843 295.149508 
L 360.536266 301.166775 
L 362.990689 300.257675 
L 365.445113 300.890203 
L 367.899536 300.774487 
L 370.35396 301.169612 
L 372.808383 301.313184 
L 375.262807 302.675441 
L 377.71723 302.575124 
L 380.171653 302.417474 
L 382.626077 301.132998 
L 385.0805 302.05905 
L 387.534924 302.736199 
L 389.989347 302.463538 
L 392.443771 303.305247 
L 394.898194 303.119304 
L 397.352617 301.437825 
L 399.807041 302.949116 
L 402.261464 303.273646 
L 404.715888 303.06202 
L 407.170311 303.100135 
L 409.624735 303.064048 
L 412.079158 303.509253 
L 414.533581 303.757458 
L 416.988005 303.79828 
L 419.442428 303.404558 
L 421.896852 303.21413 
L 424.351275 303.244875 
L 426.805699 303.380354 
L 429.260122 303.446552 
L 431.714545 303.115901 
L 431.714545 302.902629 
L 431.714545 302.902629 
L 429.260122 302.973676 
L 426.805699 302.532033 
L 424.351275 302.431069 
L 421.896852 302.758293 
L 419.442428 302.671628 
L 416.988005 301.502855 
L 414.533581 302.257854 
L 412.079158 302.237659 
L 409.624735 301.565446 
L 407.170311 302.188173 
L 404.715888 302.280594 
L 402.261464 301.542305 
L 399.807041 301.564713 
L 397.352617 299.781055 
L 394.898194 302.210791 
L 392.443771 301.067968 
L 389.989347 300.95509 
L 387.534924 301.10577 
L 385.0805 300.708963 
L 382.626077 298.324109 
L 380.171653 301.031129 
L 377.71723 301.52903 
L 375.262807 300.97769 
L 372.808383 299.793557 
L 370.35396 297.942616 
L 367.899536 300.120673 
L 365.445113 297.979412 
L 362.990689 296.474256 
L 360.536266 294.680037 
L 358.081843 292.28974 
L 355.627419 294.464326 
L 353.172996 293.073917 
L 350.718572 289.691325 
L 348.264149 292.078081 
L 345.809725 291.334863 
L 343.355302 284.847719 
L 340.900879 294.942021 
L 338.446455 291.732173 
L 335.992032 286.002148 
L 333.537608 293.827088 
L 331.083185 284.400326 
L 328.628761 289.019383 
L 326.174338 290.242118 
L 323.719915 288.207525 
L 321.265491 285.45314 
L 318.811068 283.137203 
L 316.356644 286.156042 
L 313.902221 285.682403 
L 311.447797 287.025605 
L 308.993374 288.068428 
L 306.538951 279.16204 
L 304.084527 278.721227 
L 301.630104 282.179966 
L 299.17568 274.853396 
L 296.721257 271.479298 
L 294.266833 277.314103 
L 291.81241 283.331112 
L 289.357987 273.623939 
L 286.903563 279.851017 
L 284.44914 257.262908 
L 281.994716 272.280397 
L 279.540293 274.426336 
L 277.085869 277.709339 
L 274.631446 279.368593 
L 272.177023 267.800745 
L 269.722599 272.737834 
L 267.268176 268.505758 
L 264.813752 275.03123 
L 262.359329 271.870215 
L 259.904905 276.555008 
L 257.450482 263.514894 
L 254.996059 269.313828 
L 252.541635 268.357387 
L 250.087212 262.868709 
L 247.632788 268.375689 
L 245.178365 259.03244 
L 242.723941 272.008179 
L 240.269518 265.366688 
L 237.815095 259.328141 
L 235.360671 261.172391 
L 232.906248 265.973472 
L 230.451824 260.599191 
L 227.997401 267.145391 
L 225.542977 279.004201 
L 223.088554 265.25735 
L 220.634131 259.549089 
L 218.179707 256.838685 
L 215.725284 257.400988 
L 213.27086 265.384146 
L 210.816437 252.582682 
L 208.362013 266.097722 
L 205.90759 268.373764 
L 203.453167 254.762218 
L 200.998743 267.080477 
L 198.54432 265.475562 
L 196.089896 261.952223 
L 193.635473 252.547468 
L 191.181049 252.446139 
L 188.726626 254.888011 
L 186.272203 252.346075 
L 183.817779 247.740902 
L 181.363356 258.354796 
L 178.908932 246.751645 
L 176.454509 254.221132 
L 174.000085 260.646385 
L 171.545662 251.728821 
L 169.091239 252.677673 
L 166.636815 248.649706 
L 164.182392 245.667407 
L 161.727968 249.29548 
L 159.273545 243.114346 
L 156.819121 248.83682 
L 154.364698 250.458911 
L 151.910275 253.972805 
L 149.455851 254.026205 
L 147.001428 251.511364 
L 144.547004 253.372473 
L 142.092581 244.64237 
L 139.638157 239.085915 
L 137.183734 249.172457 
L 134.729311 237.745741 
L 132.274887 233.150069 
L 129.820464 229.696527 
L 127.36604 243.92227 
L 124.911617 238.741553 
L 122.457193 225.537747 
L 120.00277 229.679688 
L 117.548347 225.040516 
L 115.093923 229.180538 
L 112.6395 222.007976 
L 110.185076 228.294812 
L 107.730653 211.321185 
L 105.276229 222.162224 
L 102.821806 215.454375 
L 100.367383 214.809834 
L 97.912959 199.182496 
L 95.458536 198.098245 
L 93.004112 182.320088 
L 90.549689 180.719653 
L 88.095265 138.804656 
L 85.640842 150.870507 
L 83.186419 131.352132 
L 80.731995 109.523087 
L 78.277572 96.124663 
L 75.823148 73.31903 
L 73.368725 59.289927 
L 70.914301 53.847416 
L 68.459878 44.050352 
L 66.005455 37.439204 
z
" style="fill:#2ca02c;fill-opacity:0.25;"/>
   </g>
   <g id="PolyCollection_4">
    <path clip-path="url(#p95d2d30b56)" d="M 66.005455 36.526642 
L 66.005455 37.498933 
L 68.459878 49.583032 
L 70.914301 73.786772 
L 73.368725 77.783285 
L 75.823148 85.514536 
L 78.277572 113.63136 
L 80.731995 132.990154 
L 83.186419 151.715353 
L 85.640842 169.824848 
L 88.095265 161.810175 
L 90.549689 196.690587 
L 93.004112 188.089156 
L 95.458536 213.859124 
L 97.912959 205.663951 
L 100.367383 223.420568 
L 102.821806 224.642052 
L 105.276229 229.450321 
L 107.730653 220.304201 
L 110.185076 236.686158 
L 112.6395 234.884366 
L 115.093923 233.637247 
L 117.548347 227.966258 
L 120.00277 235.655661 
L 122.457193 228.851486 
L 124.911617 246.364111 
L 127.36604 249.484783 
L 129.820464 238.696196 
L 132.274887 239.486493 
L 134.729311 243.225261 
L 137.183734 255.419615 
L 139.638157 249.277946 
L 142.092581 254.139713 
L 144.547004 257.780859 
L 147.001428 256.238329 
L 149.455851 260.937321 
L 151.910275 258.161499 
L 154.364698 260.007616 
L 156.819121 257.643701 
L 159.273545 252.815105 
L 161.727968 254.830438 
L 164.182392 256.928134 
L 166.636815 254.099628 
L 169.091239 261.920414 
L 171.545662 258.564564 
L 174.000085 266.261448 
L 176.454509 261.534584 
L 178.908932 257.033282 
L 181.363356 265.398006 
L 183.817779 255.543534 
L 186.272203 257.481832 
L 188.726626 265.775505 
L 191.181049 260.817547 
L 193.635473 261.016474 
L 196.089896 268.581768 
L 198.54432 274.171731 
L 200.998743 268.936486 
L 203.453167 263.378558 
L 205.90759 272.465895 
L 208.362013 269.274125 
L 210.816437 263.836842 
L 213.27086 275.049766 
L 215.725284 263.315171 
L 218.179707 266.710378 
L 220.634131 266.80346 
L 223.088554 269.348131 
L 225.542977 280.495942 
L 227.997401 267.612931 
L 230.451824 268.31638 
L 232.906248 275.45014 
L 235.360671 266.408403 
L 237.815095 264.169035 
L 240.269518 270.584711 
L 242.723941 274.782864 
L 245.178365 265.90089 
L 247.632788 273.322536 
L 250.087212 269.617418 
L 252.541635 276.771118 
L 254.996059 273.929527 
L 257.450482 264.958005 
L 259.904905 277.557003 
L 262.359329 280.407981 
L 264.813752 281.902292 
L 267.268176 274.288493 
L 269.722599 280.835037 
L 272.177023 275.868926 
L 274.631446 287.476984 
L 277.085869 280.470285 
L 279.540293 275.114601 
L 281.994716 277.444257 
L 284.44914 267.145029 
L 286.903563 286.478519 
L 289.357987 279.303074 
L 291.81241 288.541329 
L 294.266833 280.20742 
L 296.721257 279.76588 
L 299.17568 279.668609 
L 301.630104 290.480741 
L 304.084527 285.408158 
L 306.538951 284.77908 
L 308.993374 292.682137 
L 311.447797 290.691642 
L 313.902221 289.547262 
L 316.356644 291.290528 
L 318.811068 286.77464 
L 321.265491 292.758673 
L 323.719915 292.440913 
L 326.174338 294.84072 
L 328.628761 293.598485 
L 331.083185 293.688176 
L 333.537608 298.361935 
L 335.992032 291.55727 
L 338.446455 295.929308 
L 340.900879 299.53798 
L 343.355302 292.305744 
L 345.809725 294.579179 
L 348.264149 297.557637 
L 350.718572 294.066286 
L 353.172996 296.469466 
L 355.627419 297.646349 
L 358.081843 295.416569 
L 360.536266 297.191674 
L 362.990689 299.349732 
L 365.445113 301.134384 
L 367.899536 301.217276 
L 370.35396 301.213551 
L 372.808383 301.467333 
L 375.262807 302.030165 
L 377.71723 303.19247 
L 380.171653 302.030049 
L 382.626077 302.217501 
L 385.0805 302.106966 
L 387.534924 301.842788 
L 389.989347 302.79737 
L 392.443771 301.987198 
L 394.898194 303.059197 
L 397.352617 302.054653 
L 399.807041 303.434418 
L 402.261464 303.338158 
L 404.715888 303.359449 
L 407.170311 303.258378 
L 409.624735 302.790099 
L 412.079158 303.556567 
L 414.533581 303.205941 
L 416.988005 303.494261 
L 419.442428 303.354272 
L 421.896852 303.377349 
L 424.351275 303.483005 
L 426.805699 303.453983 
L 429.260122 303.248203 
L 431.714545 303.180727 
L 431.714545 301.205184 
L 431.714545 301.205184 
L 429.260122 302.622396 
L 426.805699 303.255892 
L 424.351275 301.513319 
L 421.896852 302.40659 
L 419.442428 302.867024 
L 416.988005 302.855131 
L 414.533581 302.919879 
L 412.079158 302.683154 
L 409.624735 301.217785 
L 407.170311 301.960814 
L 404.715888 301.981402 
L 402.261464 301.041053 
L 399.807041 302.792345 
L 397.352617 298.490691 
L 394.898194 302.2545 
L 392.443771 300.843937 
L 389.989347 301.130995 
L 387.534924 300.06056 
L 385.0805 299.432461 
L 382.626077 298.596552 
L 380.171653 300.630058 
L 377.71723 300.627988 
L 375.262807 300.58692 
L 372.808383 297.514419 
L 370.35396 298.949535 
L 367.899536 298.17142 
L 365.445113 298.28746 
L 362.990689 297.194596 
L 360.536266 294.295843 
L 358.081843 291.859055 
L 355.627419 293.68883 
L 353.172996 293.871277 
L 350.718572 290.475698 
L 348.264149 293.652002 
L 345.809725 291.410027 
L 343.355302 286.295017 
L 340.900879 296.165662 
L 338.446455 292.292793 
L 335.992032 284.687878 
L 333.537608 294.224398 
L 331.083185 291.068211 
L 328.628761 289.764282 
L 326.174338 292.843963 
L 323.719915 287.846862 
L 321.265491 289.38256 
L 318.811068 282.019999 
L 316.356644 285.468059 
L 313.902221 286.497588 
L 311.447797 286.033091 
L 308.993374 287.103483 
L 306.538951 279.851625 
L 304.084527 279.504656 
L 301.630104 283.434184 
L 299.17568 275.455009 
L 296.721257 275.120766 
L 294.266833 278.645685 
L 291.81241 283.599127 
L 289.357987 273.174359 
L 286.903563 279.946401 
L 284.44914 262.15994 
L 281.994716 270.434793 
L 279.540293 271.105646 
L 277.085869 277.807316 
L 274.631446 278.203167 
L 272.177023 269.521919 
L 269.722599 272.753907 
L 267.268176 267.643692 
L 264.813752 278.654753 
L 262.359329 275.251645 
L 259.904905 273.842772 
L 257.450482 259.325417 
L 254.996059 268.538665 
L 252.541635 270.024632 
L 250.087212 264.968639 
L 247.632788 268.575796 
L 245.178365 259.668951 
L 242.723941 271.696923 
L 240.269518 267.465648 
L 237.815095 257.812375 
L 235.360671 257.931441 
L 232.906248 268.140848 
L 230.451824 261.259413 
L 227.997401 263.068731 
L 225.542977 276.619369 
L 223.088554 263.127747 
L 220.634131 256.904458 
L 218.179707 256.55745 
L 215.725284 255.010101 
L 213.27086 269.421402 
L 210.816437 257.37723 
L 208.362013 267.331835 
L 205.90759 265.686023 
L 203.453167 256.154142 
L 200.998743 262.512514 
L 198.54432 269.458752 
L 196.089896 263.724844 
L 193.635473 255.672563 
L 191.181049 254.867181 
L 188.726626 262.243045 
L 186.272203 251.319427 
L 183.817779 248.518288 
L 181.363356 261.762931 
L 178.908932 252.478893 
L 176.454509 253.563357 
L 174.000085 259.556649 
L 171.545662 256.601083 
L 169.091239 254.542936 
L 166.636815 247.784309 
L 164.182392 251.06065 
L 161.727968 245.970199 
L 159.273545 250.987176 
L 156.819121 245.458949 
L 154.364698 254.221427 
L 151.910275 252.388838 
L 149.455851 258.629232 
L 147.001428 251.11853 
L 144.547004 255.161766 
L 142.092581 245.374506 
L 139.638157 240.836389 
L 137.183734 244.387997 
L 134.729311 238.707901 
L 132.274887 230.32725 
L 129.820464 232.291123 
L 127.36604 242.062667 
L 124.911617 242.113989 
L 122.457193 224.193677 
L 120.00277 234.067808 
L 117.548347 221.806436 
L 115.093923 227.645509 
L 112.6395 228.768109 
L 110.185076 233.894923 
L 107.730653 215.317886 
L 105.276229 224.813554 
L 102.821806 216.441673 
L 100.367383 212.7206 
L 97.912959 200.505918 
L 95.458536 207.838045 
L 93.004112 180.706863 
L 90.549689 183.276963 
L 88.095265 148.103975 
L 85.640842 155.661739 
L 83.186419 139.872972 
L 80.731995 118.922308 
L 78.277572 100.320465 
L 75.823148 71.970277 
L 73.368725 60.33754 
L 70.914301 57.247466 
L 68.459878 41.233693 
L 66.005455 36.526642 
z
" style="fill:#d62728;fill-opacity:0.25;"/>
   </g>
   <g id="matplotlib.axis_1">
    <g id="xtick_1">
     <g id="line2d_1">
      <defs>
       <path d="M 0 0 
L 0 3.5 
" id="med73a4a286" style="stroke:#000000;stroke-width:0.8;"/>
      </defs>
      <g>
       <use style="stroke:#000000;stroke-width:0.8;" x="66.005455" xlink:href="#med73a4a286" y="303.64"/>
      </g>
     </g>
     <g id="text_1">
      <!-- 0 -->
      <g transform="translate(62.824205 318.238437)scale(0.1 -0.1)">
       <defs>
        <path d="M 31.78125 66.40625 
Q 24.171875 66.40625 20.328125 58.90625 
Q 16.5 51.421875 16.5 36.375 
Q 16.5 21.390625 20.328125 13.890625 
Q 24.171875 6.390625 31.78125 6.390625 
Q 39.453125 6.390625 43.28125 13.890625 
Q 47.125 21.390625 47.125 36.375 
Q 47.125 51.421875 43.28125 58.90625 
Q 39.453125 66.40625 31.78125 66.40625 
z
M 31.78125 74.21875 
Q 44.046875 74.21875 50.515625 64.515625 
Q 56.984375 54.828125 56.984375 36.375 
Q 56.984375 17.96875 50.515625 8.265625 
Q 44.046875 -1.421875 31.78125 -1.421875 
Q 19.53125 -1.421875 13.0625 8.265625 
Q 6.59375 17.96875 6.59375 36.375 
Q 6.59375 54.828125 13.0625 64.515625 
Q 19.53125 74.21875 31.78125 74.21875 
z
" id="DejaVuSans-48"/>
       </defs>
       <use xlink:href="#DejaVuSans-48"/>
      </g>
     </g>
    </g>
    <g id="xtick_2">
     <g id="line2d_2">
      <g>
       <use style="stroke:#000000;stroke-width:0.8;" x="115.093923" xlink:href="#med73a4a286" y="303.64"/>
      </g>
     </g>
     <g id="text_2">
      <!-- 20 -->
      <g transform="translate(108.731423 318.238437)scale(0.1 -0.1)">
       <defs>
        <path d="M 19.1875 8.296875 
L 53.609375 8.296875 
L 53.609375 0 
L 7.328125 0 
L 7.328125 8.296875 
Q 12.9375 14.109375 22.625 23.890625 
Q 32.328125 33.6875 34.8125 36.53125 
Q 39.546875 41.84375 41.421875 45.53125 
Q 43.3125 49.21875 43.3125 52.78125 
Q 43.3125 58.59375 39.234375 62.25 
Q 35.15625 65.921875 28.609375 65.921875 
Q 23.96875 65.921875 18.8125 64.3125 
Q 13.671875 62.703125 7.8125 59.421875 
L 7.8125 69.390625 
Q 13.765625 71.78125 18.9375 73 
Q 24.125 74.21875 28.421875 74.21875 
Q 39.75 74.21875 46.484375 68.546875 
Q 53.21875 62.890625 53.21875 53.421875 
Q 53.21875 48.921875 51.53125 44.890625 
Q 49.859375 40.875 45.40625 35.40625 
Q 44.1875 33.984375 37.640625 27.21875 
Q 31.109375 20.453125 19.1875 8.296875 
z
" id="DejaVuSans-50"/>
       </defs>
       <use xlink:href="#DejaVuSans-50"/>
       <use x="63.623047" xlink:href="#DejaVuSans-48"/>
      </g>
     </g>
    </g>
    <g id="xtick_3">
     <g id="line2d_3">
      <g>
       <use style="stroke:#000000;stroke-width:0.8;" x="164.182392" xlink:href="#med73a4a286" y="303.64"/>
      </g>
     </g>
     <g id="text_3">
      <!-- 40 -->
      <g transform="translate(157.819892 318.238437)scale(0.1 -0.1)">
       <defs>
        <path d="M 37.796875 64.3125 
L 12.890625 25.390625 
L 37.796875 25.390625 
z
M 35.203125 72.90625 
L 47.609375 72.90625 
L 47.609375 25.390625 
L 58.015625 25.390625 
L 58.015625 17.1875 
L 47.609375 17.1875 
L 47.609375 0 
L 37.796875 0 
L 37.796875 17.1875 
L 4.890625 17.1875 
L 4.890625 26.703125 
z
" id="DejaVuSans-52"/>
       </defs>
       <use xlink:href="#DejaVuSans-52"/>
       <use x="63.623047" xlink:href="#DejaVuSans-48"/>
      </g>
     </g>
    </g>
    <g id="xtick_4">
     <g id="line2d_4">
      <g>
       <use style="stroke:#000000;stroke-width:0.8;" x="213.27086" xlink:href="#med73a4a286" y="303.64"/>
      </g>
     </g>
     <g id="text_4">
      <!-- 60 -->
      <g transform="translate(206.90836 318.238437)scale(0.1 -0.1)">
       <defs>
        <path d="M 33.015625 40.375 
Q 26.375 40.375 22.484375 35.828125 
Q 18.609375 31.296875 18.609375 23.390625 
Q 18.609375 15.53125 22.484375 10.953125 
Q 26.375 6.390625 33.015625 6.390625 
Q 39.65625 6.390625 43.53125 10.953125 
Q 47.40625 15.53125 47.40625 23.390625 
Q 47.40625 31.296875 43.53125 35.828125 
Q 39.65625 40.375 33.015625 40.375 
z
M 52.59375 71.296875 
L 52.59375 62.3125 
Q 48.875 64.0625 45.09375 64.984375 
Q 41.3125 65.921875 37.59375 65.921875 
Q 27.828125 65.921875 22.671875 59.328125 
Q 17.53125 52.734375 16.796875 39.40625 
Q 19.671875 43.65625 24.015625 45.921875 
Q 28.375 48.1875 33.59375 48.1875 
Q 44.578125 48.1875 50.953125 41.515625 
Q 57.328125 34.859375 57.328125 23.390625 
Q 57.328125 12.15625 50.6875 5.359375 
Q 44.046875 -1.421875 33.015625 -1.421875 
Q 20.359375 -1.421875 13.671875 8.265625 
Q 6.984375 17.96875 6.984375 36.375 
Q 6.984375 53.65625 15.1875 63.9375 
Q 23.390625 74.21875 37.203125 74.21875 
Q 40.921875 74.21875 44.703125 73.484375 
Q 48.484375 72.75 52.59375 71.296875 
z
" id="DejaVuSans-54"/>
       </defs>
       <use xlink:href="#DejaVuSans-54"/>
       <use x="63.623047" xlink:href="#DejaVuSans-48"/>
      </g>
     </g>
    </g>
    <g id="xtick_5">
     <g id="line2d_5">
      <g>
       <use style="stroke:#000000;stroke-width:0.8;" x="262.359329" xlink:href="#med73a4a286" y="303.64"/>
      </g>
     </g>
     <g id="text_5">
      <!-- 80 -->
      <g transform="translate(255.996829 318.238437)scale(0.1 -0.1)">
       <defs>
        <path d="M 31.78125 34.625 
Q 24.75 34.625 20.71875 30.859375 
Q 16.703125 27.09375 16.703125 20.515625 
Q 16.703125 13.921875 20.71875 10.15625 
Q 24.75 6.390625 31.78125 6.390625 
Q 38.8125 6.390625 42.859375 10.171875 
Q 46.921875 13.96875 46.921875 20.515625 
Q 46.921875 27.09375 42.890625 30.859375 
Q 38.875 34.625 31.78125 34.625 
z
M 21.921875 38.8125 
Q 15.578125 40.375 12.03125 44.71875 
Q 8.5 49.078125 8.5 55.328125 
Q 8.5 64.0625 14.71875 69.140625 
Q 20.953125 74.21875 31.78125 74.21875 
Q 42.671875 74.21875 48.875 69.140625 
Q 55.078125 64.0625 55.078125 55.328125 
Q 55.078125 49.078125 51.53125 44.71875 
Q 48 40.375 41.703125 38.8125 
Q 48.828125 37.15625 52.796875 32.3125 
Q 56.78125 27.484375 56.78125 20.515625 
Q 56.78125 9.90625 50.3125 4.234375 
Q 43.84375 -1.421875 31.78125 -1.421875 
Q 19.734375 -1.421875 13.25 4.234375 
Q 6.78125 9.90625 6.78125 20.515625 
Q 6.78125 27.484375 10.78125 32.3125 
Q 14.796875 37.15625 21.921875 38.8125 
z
M 18.3125 54.390625 
Q 18.3125 48.734375 21.84375 45.5625 
Q 25.390625 42.390625 31.78125 42.390625 
Q 38.140625 42.390625 41.71875 45.5625 
Q 45.3125 48.734375 45.3125 54.390625 
Q 45.3125 60.0625 41.71875 63.234375 
Q 38.140625 66.40625 31.78125 66.40625 
Q 25.390625 66.40625 21.84375 63.234375 
Q 18.3125 60.0625 18.3125 54.390625 
z
" id="DejaVuSans-56"/>
       </defs>
       <use xlink:href="#DejaVuSans-56"/>
       <use x="63.623047" xlink:href="#DejaVuSans-48"/>
      </g>
     </g>
    </g>
    <g id="xtick_6">
     <g id="line2d_6">
      <g>
       <use style="stroke:#000000;stroke-width:0.8;" x="311.447797" xlink:href="#med73a4a286" y="303.64"/>
      </g>
     </g>
     <g id="text_6">
      <!-- 100 -->
      <g transform="translate(301.904047 318.238437)scale(0.1 -0.1)">
       <defs>
        <path d="M 12.40625 8.296875 
L 28.515625 8.296875 
L 28.515625 63.921875 
L 10.984375 60.40625 
L 10.984375 69.390625 
L 28.421875 72.90625 
L 38.28125 72.90625 
L 38.28125 8.296875 
L 54.390625 8.296875 
L 54.390625 0 
L 12.40625 0 
z
" id="DejaVuSans-49"/>
       </defs>
       <use xlink:href="#DejaVuSans-49"/>
       <use x="63.623047" xlink:href="#DejaVuSans-48"/>
       <use x="127.246094" xlink:href="#DejaVuSans-48"/>
      </g>
     </g>
    </g>
    <g id="xtick_7">
     <g id="line2d_7">
      <g>
       <use style="stroke:#000000;stroke-width:0.8;" x="360.536266" xlink:href="#med73a4a286" y="303.64"/>
      </g>
     </g>
     <g id="text_7">
      <!-- 120 -->
      <g transform="translate(350.992516 318.238437)scale(0.1 -0.1)">
       <use xlink:href="#DejaVuSans-49"/>
       <use x="63.623047" xlink:href="#DejaVuSans-50"/>
       <use x="127.246094" xlink:href="#DejaVuSans-48"/>
      </g>
     </g>
    </g>
    <g id="xtick_8">
     <g id="line2d_8">
      <g>
       <use style="stroke:#000000;stroke-width:0.8;" x="409.624735" xlink:href="#med73a4a286" y="303.64"/>
      </g>
     </g>
     <g id="text_8">
      <!-- 140 -->
      <g transform="translate(400.080985 318.238437)scale(0.1 -0.1)">
       <use xlink:href="#DejaVuSans-49"/>
       <use x="63.623047" xlink:href="#DejaVuSans-52"/>
       <use x="127.246094" xlink:href="#DejaVuSans-48"/>
      </g>
     </g>
    </g>
    <g id="text_9">
     <!-- Epochs -->
     <g transform="translate(230.944375 331.916562)scale(0.1 -0.1)">
      <defs>
       <path d="M 9.8125 72.90625 
L 55.90625 72.90625 
L 55.90625 64.59375 
L 19.671875 64.59375 
L 19.671875 43.015625 
L 54.390625 43.015625 
L 54.390625 34.71875 
L 19.671875 34.71875 
L 19.671875 8.296875 
L 56.78125 8.296875 
L 56.78125 0 
L 9.8125 0 
z
" id="DejaVuSans-69"/>
       <path d="M 18.109375 8.203125 
L 18.109375 -20.796875 
L 9.078125 -20.796875 
L 9.078125 54.6875 
L 18.109375 54.6875 
L 18.109375 46.390625 
Q 20.953125 51.265625 25.265625 53.625 
Q 29.59375 56 35.59375 56 
Q 45.5625 56 51.78125 48.09375 
Q 58.015625 40.1875 58.015625 27.296875 
Q 58.015625 14.40625 51.78125 6.484375 
Q 45.5625 -1.421875 35.59375 -1.421875 
Q 29.59375 -1.421875 25.265625 0.953125 
Q 20.953125 3.328125 18.109375 8.203125 
z
M 48.6875 27.296875 
Q 48.6875 37.203125 44.609375 42.84375 
Q 40.53125 48.484375 33.40625 48.484375 
Q 26.265625 48.484375 22.1875 42.84375 
Q 18.109375 37.203125 18.109375 27.296875 
Q 18.109375 17.390625 22.1875 11.75 
Q 26.265625 6.109375 33.40625 6.109375 
Q 40.53125 6.109375 44.609375 11.75 
Q 48.6875 17.390625 48.6875 27.296875 
z
" id="DejaVuSans-112"/>
       <path d="M 30.609375 48.390625 
Q 23.390625 48.390625 19.1875 42.75 
Q 14.984375 37.109375 14.984375 27.296875 
Q 14.984375 17.484375 19.15625 11.84375 
Q 23.34375 6.203125 30.609375 6.203125 
Q 37.796875 6.203125 41.984375 11.859375 
Q 46.1875 17.53125 46.1875 27.296875 
Q 46.1875 37.015625 41.984375 42.703125 
Q 37.796875 48.390625 30.609375 48.390625 
z
M 30.609375 56 
Q 42.328125 56 49.015625 48.375 
Q 55.71875 40.765625 55.71875 27.296875 
Q 55.71875 13.875 49.015625 6.21875 
Q 42.328125 -1.421875 30.609375 -1.421875 
Q 18.84375 -1.421875 12.171875 6.21875 
Q 5.515625 13.875 5.515625 27.296875 
Q 5.515625 40.765625 12.171875 48.375 
Q 18.84375 56 30.609375 56 
z
" id="DejaVuSans-111"/>
       <path d="M 48.78125 52.59375 
L 48.78125 44.1875 
Q 44.96875 46.296875 41.140625 47.34375 
Q 37.3125 48.390625 33.40625 48.390625 
Q 24.65625 48.390625 19.8125 42.84375 
Q 14.984375 37.3125 14.984375 27.296875 
Q 14.984375 17.28125 19.8125 11.734375 
Q 24.65625 6.203125 33.40625 6.203125 
Q 37.3125 6.203125 41.140625 7.25 
Q 44.96875 8.296875 48.78125 10.40625 
L 48.78125 2.09375 
Q 45.015625 0.34375 40.984375 -0.53125 
Q 36.96875 -1.421875 32.421875 -1.421875 
Q 20.0625 -1.421875 12.78125 6.34375 
Q 5.515625 14.109375 5.515625 27.296875 
Q 5.515625 40.671875 12.859375 48.328125 
Q 20.21875 56 33.015625 56 
Q 37.15625 56 41.109375 55.140625 
Q 45.0625 54.296875 48.78125 52.59375 
z
" id="DejaVuSans-99"/>
       <path d="M 54.890625 33.015625 
L 54.890625 0 
L 45.90625 0 
L 45.90625 32.71875 
Q 45.90625 40.484375 42.875 44.328125 
Q 39.84375 48.1875 33.796875 48.1875 
Q 26.515625 48.1875 22.3125 43.546875 
Q 18.109375 38.921875 18.109375 30.90625 
L 18.109375 0 
L 9.078125 0 
L 9.078125 75.984375 
L 18.109375 75.984375 
L 18.109375 46.1875 
Q 21.34375 51.125 25.703125 53.5625 
Q 30.078125 56 35.796875 56 
Q 45.21875 56 50.046875 50.171875 
Q 54.890625 44.34375 54.890625 33.015625 
z
" id="DejaVuSans-104"/>
       <path d="M 44.28125 53.078125 
L 44.28125 44.578125 
Q 40.484375 46.53125 36.375 47.5 
Q 32.28125 48.484375 27.875 48.484375 
Q 21.1875 48.484375 17.84375 46.4375 
Q 14.5 44.390625 14.5 40.28125 
Q 14.5 37.15625 16.890625 35.375 
Q 19.28125 33.59375 26.515625 31.984375 
L 29.59375 31.296875 
Q 39.15625 29.25 43.1875 25.515625 
Q 47.21875 21.78125 47.21875 15.09375 
Q 47.21875 7.46875 41.1875 3.015625 
Q 35.15625 -1.421875 24.609375 -1.421875 
Q 20.21875 -1.421875 15.453125 -0.5625 
Q 10.6875 0.296875 5.421875 2 
L 5.421875 11.28125 
Q 10.40625 8.6875 15.234375 7.390625 
Q 20.0625 6.109375 24.8125 6.109375 
Q 31.15625 6.109375 34.5625 8.28125 
Q 37.984375 10.453125 37.984375 14.40625 
Q 37.984375 18.0625 35.515625 20.015625 
Q 33.0625 21.96875 24.703125 23.78125 
L 21.578125 24.515625 
Q 13.234375 26.265625 9.515625 29.90625 
Q 5.8125 33.546875 5.8125 39.890625 
Q 5.8125 47.609375 11.28125 51.796875 
Q 16.75 56 26.8125 56 
Q 31.78125 56 36.171875 55.265625 
Q 40.578125 54.546875 44.28125 53.078125 
z
" id="DejaVuSans-115"/>
      </defs>
      <use xlink:href="#DejaVuSans-69"/>
      <use x="63.183594" xlink:href="#DejaVuSans-112"/>
      <use x="126.660156" xlink:href="#DejaVuSans-111"/>
      <use x="187.841797" xlink:href="#DejaVuSans-99"/>
      <use x="242.822266" xlink:href="#DejaVuSans-104"/>
      <use x="306.201172" xlink:href="#DejaVuSans-115"/>
     </g>
    </g>
   </g>
   <g id="matplotlib.axis_2">
    <g id="ytick_1">
     <g id="line2d_9">
      <defs>
       <path d="M 0 0 
L -3.5 0 
" id="mbaada59209" style="stroke:#000000;stroke-width:0.8;"/>
      </defs>
      <g>
       <use style="stroke:#000000;stroke-width:0.8;" x="47.72" xlink:href="#mbaada59209" y="303.64"/>
      </g>
     </g>
     <g id="text_10">
      <!-- 0.0 -->
      <g transform="translate(24.816875 307.439219)scale(0.1 -0.1)">
       <defs>
        <path d="M 10.6875 12.40625 
L 21 12.40625 
L 21 0 
L 10.6875 0 
z
" id="DejaVuSans-46"/>
       </defs>
       <use xlink:href="#DejaVuSans-48"/>
       <use x="63.623047" xlink:href="#DejaVuSans-46"/>
       <use x="95.410156" xlink:href="#DejaVuSans-48"/>
      </g>
     </g>
    </g>
    <g id="ytick_2">
     <g id="line2d_10">
      <g>
       <use style="stroke:#000000;stroke-width:0.8;" x="47.72" xlink:href="#mbaada59209" y="245.864"/>
      </g>
     </g>
     <g id="text_11">
      <!-- 0.5 -->
      <g transform="translate(24.816875 249.663219)scale(0.1 -0.1)">
       <defs>
        <path d="M 10.796875 72.90625 
L 49.515625 72.90625 
L 49.515625 64.59375 
L 19.828125 64.59375 
L 19.828125 46.734375 
Q 21.96875 47.46875 24.109375 47.828125 
Q 26.265625 48.1875 28.421875 48.1875 
Q 40.625 48.1875 47.75 41.5 
Q 54.890625 34.8125 54.890625 23.390625 
Q 54.890625 11.625 47.5625 5.09375 
Q 40.234375 -1.421875 26.90625 -1.421875 
Q 22.3125 -1.421875 17.546875 -0.640625 
Q 12.796875 0.140625 7.71875 1.703125 
L 7.71875 11.625 
Q 12.109375 9.234375 16.796875 8.0625 
Q 21.484375 6.890625 26.703125 6.890625 
Q 35.15625 6.890625 40.078125 11.328125 
Q 45.015625 15.765625 45.015625 23.390625 
Q 45.015625 31 40.078125 35.4375 
Q 35.15625 39.890625 26.703125 39.890625 
Q 22.75 39.890625 18.8125 39.015625 
Q 14.890625 38.140625 10.796875 36.28125 
z
" id="DejaVuSans-53"/>
       </defs>
       <use xlink:href="#DejaVuSans-48"/>
       <use x="63.623047" xlink:href="#DejaVuSans-46"/>
       <use x="95.410156" xlink:href="#DejaVuSans-53"/>
      </g>
     </g>
    </g>
    <g id="ytick_3">
     <g id="line2d_11">
      <g>
       <use style="stroke:#000000;stroke-width:0.8;" x="47.72" xlink:href="#mbaada59209" y="188.088"/>
      </g>
     </g>
     <g id="text_12">
      <!-- 1.0 -->
      <g transform="translate(24.816875 191.887219)scale(0.1 -0.1)">
       <use xlink:href="#DejaVuSans-49"/>
       <use x="63.623047" xlink:href="#DejaVuSans-46"/>
       <use x="95.410156" xlink:href="#DejaVuSans-48"/>
      </g>
     </g>
    </g>
    <g id="ytick_4">
     <g id="line2d_12">
      <g>
       <use style="stroke:#000000;stroke-width:0.8;" x="47.72" xlink:href="#mbaada59209" y="130.312"/>
      </g>
     </g>
     <g id="text_13">
      <!-- 1.5 -->
      <g transform="translate(24.816875 134.111219)scale(0.1 -0.1)">
       <use xlink:href="#DejaVuSans-49"/>
       <use x="63.623047" xlink:href="#DejaVuSans-46"/>
       <use x="95.410156" xlink:href="#DejaVuSans-53"/>
      </g>
     </g>
    </g>
    <g id="ytick_5">
     <g id="line2d_13">
      <g>
       <use style="stroke:#000000;stroke-width:0.8;" x="47.72" xlink:href="#mbaada59209" y="72.536"/>
      </g>
     </g>
     <g id="text_14">
      <!-- 2.0 -->
      <g transform="translate(24.816875 76.335219)scale(0.1 -0.1)">
       <use xlink:href="#DejaVuSans-50"/>
       <use x="63.623047" xlink:href="#DejaVuSans-46"/>
       <use x="95.410156" xlink:href="#DejaVuSans-48"/>
      </g>
     </g>
    </g>
    <g id="ytick_6">
     <g id="line2d_14">
      <g>
       <use style="stroke:#000000;stroke-width:0.8;" x="47.72" xlink:href="#mbaada59209" y="14.76"/>
      </g>
     </g>
     <g id="text_15">
      <!-- 2.5 -->
      <g transform="translate(24.816875 18.559219)scale(0.1 -0.1)">
       <use xlink:href="#DejaVuSans-50"/>
       <use x="63.623047" xlink:href="#DejaVuSans-46"/>
       <use x="95.410156" xlink:href="#DejaVuSans-53"/>
      </g>
     </g>
    </g>
    <g id="text_16">
     <!-- Loss -->
     <g transform="translate(18.737188 170.167187)rotate(-90)scale(0.1 -0.1)">
      <defs>
       <path d="M 9.8125 72.90625 
L 19.671875 72.90625 
L 19.671875 8.296875 
L 55.171875 8.296875 
L 55.171875 0 
L 9.8125 0 
z
" id="DejaVuSans-76"/>
      </defs>
      <use xlink:href="#DejaVuSans-76"/>
      <use x="53.962891" xlink:href="#DejaVuSans-111"/>
      <use x="115.144531" xlink:href="#DejaVuSans-115"/>
      <use x="167.244141" xlink:href="#DejaVuSans-115"/>
     </g>
    </g>
   </g>
   <g id="line2d_15">
    <path clip-path="url(#p95d2d30b56)" d="M 66.005455 41.391125 
L 68.459878 79.735431 
L 70.914301 95.962362 
L 73.368725 93.231544 
L 75.823148 120.74285 
L 78.277572 177.649953 
L 80.731995 203.491172 
L 83.186419 210.397209 
L 85.640842 215.937837 
L 88.095265 212.575094 
L 90.549689 230.946056 
L 93.004112 243.15575 
L 95.458536 243.962583 
L 97.912959 242.467403 
L 100.367383 249.853027 
L 102.821806 246.851383 
L 105.276229 256.561587 
L 107.730653 247.866977 
L 110.185076 255.179252 
L 112.6395 255.275169 
L 115.093923 250.422887 
L 117.548347 247.500234 
L 120.00277 270.681162 
L 122.457193 253.040863 
L 127.36604 265.374684 
L 129.820464 265.216703 
L 132.274887 258.835389 
L 134.729311 263.461983 
L 137.183734 272.87033 
L 139.638157 269.200087 
L 142.092581 273.990305 
L 144.547004 272.813909 
L 147.001428 266.926286 
L 149.455851 277.113255 
L 151.910275 273.459939 
L 154.364698 274.901518 
L 156.819121 272.416134 
L 159.273545 271.124073 
L 161.727968 272.289185 
L 164.182392 277.07376 
L 166.636815 272.639001 
L 169.091239 280.114899 
L 171.545662 272.052213 
L 174.000085 282.191224 
L 176.454509 276.343097 
L 178.908932 274.08058 
L 181.363356 277.166856 
L 183.817779 275.256976 
L 186.272203 278.021648 
L 188.726626 277.685937 
L 191.181049 279.485795 
L 193.635473 278.371463 
L 196.089896 281.872441 
L 198.54432 286.609057 
L 200.998743 281.22641 
L 203.453167 277.911625 
L 205.90759 284.989749 
L 208.362013 284.614544 
L 210.816437 278.244514 
L 213.27086 288.180406 
L 215.725284 281.646753 
L 218.179707 277.011696 
L 220.634131 281.53673 
L 223.088554 279.443479 
L 225.542977 290.500756 
L 227.997401 286.391833 
L 230.451824 286.724722 
L 232.906248 288.214259 
L 235.360671 284.431173 
L 237.815095 279.05981 
L 240.269518 287.672609 
L 242.723941 287.382037 
L 245.178365 280.258775 
L 247.632788 285.665401 
L 250.087212 283.881059 
L 252.541635 290.492293 
L 254.996059 290.839287 
L 257.450482 287.297404 
L 259.904905 290.930973 
L 262.359329 287.729031 
L 264.813752 289.911147 
L 267.268176 287.256498 
L 269.722599 288.951975 
L 272.177023 287.00401 
L 274.631446 291.499423 
L 277.085869 289.94359 
L 279.540293 285.838898 
L 281.994716 290.624884 
L 284.44914 288.360956 
L 286.903563 292.352804 
L 289.357987 289.771503 
L 291.81241 293.346534 
L 294.266833 291.481086 
L 296.721257 292.890222 
L 299.17568 292.263939 
L 301.630104 295.161203 
L 304.084527 294.900252 
L 306.538951 295.41087 
L 308.993374 293.815541 
L 311.447797 297.348256 
L 313.902221 297.321455 
L 316.356644 297.032293 
L 318.811068 295.214804 
L 321.265491 298.217505 
L 323.719915 298.469993 
L 326.174338 298.125114 
L 328.628761 296.968113 
L 331.083185 300.207963 
L 333.537608 300.947619 
L 335.992032 300.078545 
L 338.446455 300.265443 
L 340.900879 301.246655 
L 343.355302 299.348764 
L 345.809725 301.551862 
L 348.264149 300.493687 
L 350.718572 300.372116 
L 358.081843 302.230864 
L 360.536266 301.076507 
L 365.445113 302.720412 
L 367.899536 301.508399 
L 370.35396 302.654557 
L 372.808383 302.110394 
L 377.71723 303.399909 
L 380.171653 303.398841 
L 385.0805 303.128104 
L 387.534924 303.493149 
L 389.989347 303.233586 
L 392.443771 303.45707 
L 394.898194 302.888046 
L 397.352617 303.312709 
L 399.807041 303.497149 
L 404.715888 303.447174 
L 407.170311 303.36437 
L 412.079158 303.537801 
L 414.533581 303.450921 
L 424.351275 303.520842 
L 431.714545 303.528688 
L 431.714545 303.528688 
" style="fill:none;stroke:#1f77b4;stroke-linecap:square;stroke-width:1.5;"/>
   </g>
   <g id="line2d_16">
    <path clip-path="url(#p95d2d30b56)" d="M 66.005455 37.825263 
L 68.459878 43.512587 
L 70.914301 54.255312 
L 73.368725 58.498237 
L 75.823148 73.506456 
L 78.277572 97.880706 
L 83.186419 132.952544 
L 85.640842 156.943125 
L 88.095265 142.815087 
L 90.549689 182.084712 
L 93.004112 183.811222 
L 95.458536 203.671722 
L 97.912959 201.437416 
L 100.367383 217.190403 
L 102.821806 219.560122 
L 105.276229 227.357625 
L 107.730653 218.273703 
L 110.185076 238.405028 
L 112.6395 226.522581 
L 115.093923 228.587622 
L 117.548347 230.505966 
L 120.00277 235.809622 
L 122.457193 228.847162 
L 127.36604 246.27588 
L 129.820464 235.629072 
L 132.274887 237.660259 
L 134.729311 243.127539 
L 137.183734 249.632981 
L 139.638157 244.955608 
L 142.092581 253.435816 
L 144.547004 254.327281 
L 147.001428 254.282144 
L 149.455851 260.426486 
L 151.910275 257.898786 
L 154.364698 257.972134 
L 156.819121 247.43817 
L 159.273545 247.116566 
L 161.727968 247.787986 
L 164.182392 253.836411 
L 166.636815 251.861645 
L 169.091239 254.47962 
L 171.545662 253.723567 
L 174.000085 261.470291 
L 176.454509 260.161303 
L 178.908932 249.136469 
L 181.363356 261.069695 
L 183.817779 253.232697 
L 186.272203 253.751778 
L 188.726626 261.052769 
L 191.181049 255.540352 
L 193.635473 259.292406 
L 196.089896 267.975733 
L 198.54432 272.150952 
L 200.998743 267.264817 
L 203.453167 257.565897 
L 205.90759 268.088577 
L 208.362013 268.545594 
L 210.816437 261.842675 
L 213.27086 269.217014 
L 215.725284 259.726855 
L 218.179707 256.973467 
L 223.088554 264.703264 
L 225.542977 278.915934 
L 227.997401 271.039441 
L 230.451824 264.629916 
L 232.906248 269.022359 
L 235.360671 261.769327 
L 237.815095 259.230342 
L 240.269518 267.862889 
L 242.723941 273.35838 
L 245.178365 265.23363 
L 247.632788 270.887102 
L 250.087212 268.066008 
L 252.541635 271.462605 
L 254.996059 271.781388 
L 257.450482 264.844319 
L 259.904905 274.410648 
L 262.359329 275.587044 
L 264.813752 279.88357 
L 267.268176 274.673009 
L 269.722599 272.241227 
L 272.177023 275.722456 
L 274.631446 281.660859 
L 277.085869 279.536575 
L 279.540293 273.318884 
L 281.994716 277.186604 
L 284.44914 262.920333 
L 286.903563 279.686093 
L 289.357987 276.746513 
L 291.81241 287.90676 
L 294.266833 280.340587 
L 296.721257 280.033087 
L 299.17568 274.929729 
L 301.630104 286.95323 
L 304.084527 281.184094 
L 306.538951 280.492926 
L 308.993374 289.771503 
L 311.447797 288.445589 
L 316.356644 288.186048 
L 318.811068 284.384625 
L 321.265491 290.829413 
L 323.719915 292.794305 
L 326.174338 292.945234 
L 328.628761 290.79415 
L 331.083185 290.057844 
L 333.537608 293.783098 
L 335.992032 293.175153 
L 338.446455 293.879016 
L 340.900879 296.676835 
L 343.355302 288.191691 
L 345.809725 289.22139 
L 348.264149 292.819695 
L 350.718572 290.079002 
L 353.172996 296.806606 
L 355.627419 295.82557 
L 358.081843 296.724794 
L 360.536266 294.163241 
L 362.990689 299.440802 
L 365.445113 299.296926 
L 367.899536 300.59075 
L 370.35396 300.678733 
L 372.808383 299.272418 
L 375.262807 301.072805 
L 377.71723 301.980139 
L 380.171653 302.447912 
L 382.626077 299.470776 
L 385.0805 300.66357 
L 387.534924 300.62619 
L 389.989347 301.945581 
L 392.443771 301.006509 
L 394.898194 301.983577 
L 397.352617 300.981648 
L 399.807041 302.961659 
L 402.261464 302.388316 
L 404.715888 302.653719 
L 407.170311 302.747388 
L 409.624735 302.320654 
L 412.079158 303.230501 
L 414.533581 303.225784 
L 421.896852 302.789352 
L 424.351275 302.305402 
L 426.805699 303.25221 
L 429.260122 303.291815 
L 431.714545 302.587732 
L 431.714545 302.587732 
" style="fill:none;stroke:#ff7f0e;stroke-linecap:square;stroke-width:1.5;"/>
   </g>
   <g id="line2d_17">
    <path clip-path="url(#p95d2d30b56)" d="M 66.005455 38.186362 
L 68.459878 45.363225 
L 70.914301 59.987775 
L 73.368725 60.574562 
L 75.823148 75.989019 
L 78.277572 99.483087 
L 80.731995 114.874975 
L 83.186419 136.653819 
L 85.640842 156.6723 
L 88.095265 145.275081 
L 90.549689 182.355537 
L 93.004112 184.713972 
L 95.458536 204.055391 
L 97.912959 202.599706 
L 100.367383 217.596641 
L 102.821806 218.770216 
L 105.276229 226.770837 
L 107.730653 213.455275 
L 110.185076 231.23945 
L 112.6395 226.105059 
L 115.093923 232.616144 
L 117.548347 226.996525 
L 120.00277 233.473756 
L 122.457193 228.091109 
L 124.911617 240.075116 
L 127.36604 246.783677 
L 129.820464 232.525869 
L 132.274887 238.156772 
L 134.729311 240.763462 
L 137.183734 250.744492 
L 139.638157 243.150108 
L 142.092581 248.899497 
L 144.547004 256.160992 
L 147.001428 255.269527 
L 149.455851 257.7803 
L 151.910275 257.052458 
L 154.364698 253.729209 
L 156.819121 250.941969 
L 159.273545 247.584867 
L 161.727968 251.675453 
L 164.182392 248.459406 
L 166.636815 251.398986 
L 169.091239 255.162325 
L 171.545662 254.440125 
L 174.000085 261.955519 
L 176.454509 259.151352 
L 178.908932 249.232386 
L 181.363356 262.147353 
L 183.817779 251.528756 
L 186.272203 254.739161 
L 188.726626 261.176897 
L 191.181049 255.952231 
L 193.635473 256.634936 
L 196.089896 265.431106 
L 198.54432 268.675364 
L 200.998743 269.769948 
L 203.453167 257.36842 
L 205.90759 269.628894 
L 208.362013 269.54144 
L 210.816437 258.248602 
L 213.27086 269.434238 
L 215.725284 262.689003 
L 218.179707 260.426486 
L 220.634131 261.165613 
L 223.088554 267.467936 
L 225.542977 279.748157 
L 227.997401 269.059033 
L 230.451824 265.803491 
L 232.906248 269.112634 
L 235.360671 262.852627 
L 237.815095 261.086622 
L 240.269518 268.511741 
L 242.723941 275.451631 
L 245.178365 261.650841 
L 247.632788 271.75882 
L 250.087212 267.394588 
L 252.541635 271.755998 
L 254.996059 270.751689 
L 257.450482 266.232297 
L 259.904905 277.886235 
L 262.359329 275.826837 
L 264.813752 276.520826 
L 267.268176 271.355403 
L 269.722599 274.455785 
L 272.177023 273.471223 
L 274.631446 281.429529 
L 277.085869 280.490105 
L 279.540293 276.281033 
L 281.994716 274.230098 
L 284.44914 260.635247 
L 286.903563 282.600283 
L 289.357987 276.509541 
L 291.81241 287.116854 
L 294.266833 279.18958 
L 296.721257 275.352893 
L 299.17568 277.82135 
L 301.630104 283.686404 
L 304.084527 282.242004 
L 306.538951 281.816019 
L 308.993374 289.173431 
L 311.447797 289.201642 
L 313.902221 288.273502 
L 316.356644 287.767116 
L 318.811068 285.421377 
L 321.265491 289.01545 
L 323.719915 290.864677 
L 326.174338 292.286508 
L 328.628761 292.052357 
L 331.083185 287.13378 
L 333.537608 294.901662 
L 335.992032 289.334234 
L 338.446455 293.539074 
L 340.900879 296.110501 
L 343.355302 287.52027 
L 345.809725 293.333134 
L 348.264149 293.326081 
L 350.718572 291.513529 
L 353.172996 295.269815 
L 355.627419 295.211982 
L 358.081843 293.719624 
L 360.536266 297.923406 
L 362.990689 298.365965 
L 367.899536 300.44758 
L 370.35396 299.556114 
L 372.808383 300.553371 
L 375.262807 301.826566 
L 377.71723 302.052077 
L 380.171653 301.724301 
L 382.626077 299.728554 
L 385.0805 301.384007 
L 387.534924 301.920984 
L 389.989347 301.709314 
L 394.898194 302.665048 
L 397.352617 300.60944 
L 399.807041 302.256915 
L 402.261464 302.407975 
L 404.715888 302.671307 
L 407.170311 302.644154 
L 409.624735 302.314747 
L 412.079158 302.873456 
L 414.533581 303.007656 
L 416.988005 302.650567 
L 419.442428 303.038093 
L 426.805699 302.956193 
L 429.260122 303.210114 
L 431.714545 303.009265 
L 431.714545 303.009265 
" style="fill:none;stroke:#2ca02c;stroke-linecap:square;stroke-width:1.5;"/>
   </g>
   <g id="line2d_18">
    <path clip-path="url(#p95d2d30b56)" d="M 66.005455 37.012787 
L 68.459878 45.408362 
L 70.914301 65.517119 
L 73.368725 69.060412 
L 75.823148 78.742406 
L 78.277572 106.975912 
L 83.186419 145.794162 
L 85.640842 162.743294 
L 88.095265 154.957075 
L 90.549689 189.983775 
L 93.004112 184.398009 
L 95.458536 210.848584 
L 97.912959 203.084934 
L 100.367383 218.070584 
L 102.821806 220.541862 
L 105.276229 227.131937 
L 107.730653 217.811044 
L 110.185076 235.290541 
L 112.6395 231.826237 
L 115.093923 230.641378 
L 117.548347 224.886347 
L 120.00277 234.861734 
L 122.457193 226.522581 
L 124.911617 244.23905 
L 127.36604 245.773725 
L 129.820464 235.493659 
L 132.274887 234.906872 
L 134.729311 240.966581 
L 137.183734 249.903806 
L 139.638157 245.057167 
L 142.092581 249.757109 
L 144.547004 256.471312 
L 147.001428 253.67843 
L 149.455851 259.783277 
L 151.910275 255.275169 
L 154.364698 257.114522 
L 156.819121 251.551325 
L 159.273545 251.901141 
L 161.727968 250.400319 
L 164.182392 253.994392 
L 166.636815 250.941969 
L 169.091239 258.231675 
L 171.545662 257.582823 
L 174.000085 262.909048 
L 176.454509 257.54897 
L 178.908932 254.756087 
L 181.363356 263.580469 
L 183.817779 252.030911 
L 186.272203 254.40063 
L 188.726626 264.009275 
L 191.181049 257.842364 
L 193.635473 258.344519 
L 196.089896 266.153306 
L 198.54432 271.815241 
L 203.453167 259.76635 
L 205.90759 269.075959 
L 208.362013 268.30298 
L 210.816437 260.607036 
L 213.27086 272.235584 
L 215.725284 259.162636 
L 218.179707 261.633914 
L 220.634131 261.853959 
L 223.088554 266.237939 
L 225.542977 278.557655 
L 227.997401 265.340831 
L 230.451824 264.787897 
L 232.906248 271.795494 
L 235.360671 262.169922 
L 237.815095 260.990705 
L 240.269518 269.02518 
L 242.723941 273.239894 
L 245.178365 262.78492 
L 247.632788 270.949166 
L 250.087212 267.293028 
L 252.541635 273.397875 
L 254.996059 271.234096 
L 257.450482 262.141711 
L 259.904905 275.699887 
L 262.359329 277.829813 
L 264.813752 280.278523 
L 267.268176 270.966092 
L 269.722599 276.794472 
L 272.177023 272.695423 
L 274.631446 282.840076 
L 277.085869 279.138801 
L 279.540293 273.110123 
L 281.994716 273.939525 
L 284.44914 264.652484 
L 286.903563 283.21246 
L 289.357987 276.238716 
L 291.81241 286.070228 
L 294.266833 279.426552 
L 296.721257 277.443323 
L 299.17568 277.561809 
L 301.630104 286.957462 
L 304.084527 282.456407 
L 306.538951 282.315352 
L 308.993374 289.89281 
L 311.447797 288.362367 
L 313.902221 288.022425 
L 316.356644 288.379293 
L 318.811068 284.39732 
L 321.265491 291.070617 
L 323.719915 290.143888 
L 326.174338 293.842341 
L 328.628761 291.681384 
L 331.083185 292.378194 
L 333.537608 296.293167 
L 335.992032 288.122574 
L 338.446455 294.111051 
L 340.900879 297.851821 
L 343.355302 289.30038 
L 345.809725 292.994603 
L 348.264149 295.60482 
L 350.718572 292.270992 
L 353.172996 295.170371 
L 355.627419 295.667589 
L 358.081843 293.637812 
L 360.536266 295.743759 
L 362.990689 298.272164 
L 365.445113 299.710922 
L 367.899536 299.694348 
L 370.35396 300.081543 
L 372.808383 299.490876 
L 375.262807 301.308542 
L 377.71723 301.910229 
L 380.171653 301.330053 
L 382.626077 300.407027 
L 385.0805 300.769713 
L 387.534924 300.951674 
L 389.989347 301.964182 
L 392.443771 301.415568 
L 394.898194 302.656849 
L 397.352617 300.272672 
L 399.807041 303.113381 
L 402.261464 302.189605 
L 404.715888 302.670425 
L 407.170311 302.609596 
L 409.624735 302.003942 
L 412.079158 303.119861 
L 414.533581 303.06291 
L 416.988005 303.174696 
L 419.442428 303.110648 
L 421.896852 302.891969 
L 424.351275 302.498162 
L 426.805699 303.354937 
L 429.260122 302.9353 
L 431.714545 302.192955 
L 431.714545 302.192955 
" style="fill:none;stroke:#d62728;stroke-linecap:square;stroke-width:1.5;"/>
   </g>
   <g id="patch_3">
    <path d="M 47.72 303.64 
L 47.72 14.76 
" style="fill:none;stroke:#000000;stroke-linecap:square;stroke-linejoin:miter;stroke-width:0.8;"/>
   </g>
   <g id="patch_4">
    <path d="M 450 303.64 
L 450 14.76 
" style="fill:none;stroke:#000000;stroke-linecap:square;stroke-linejoin:miter;stroke-width:0.8;"/>
   </g>
   <g id="patch_5">
    <path d="M 47.72 303.64 
L 450 303.64 
" style="fill:none;stroke:#000000;stroke-linecap:square;stroke-linejoin:miter;stroke-width:0.8;"/>
   </g>
   <g id="patch_6">
    <path d="M 47.72 14.76 
L 450 14.76 
" style="fill:none;stroke:#000000;stroke-linecap:square;stroke-linejoin:miter;stroke-width:0.8;"/>
   </g>
   <g id="legend_1">
    <g id="patch_7">
     <path d="M 321.514063 81.4725 
L 443 81.4725 
Q 445 81.4725 445 79.4725 
L 445 21.76 
Q 445 19.76 443 19.76 
L 321.514063 19.76 
Q 319.514063 19.76 319.514063 21.76 
L 319.514063 79.4725 
Q 319.514063 81.4725 321.514063 81.4725 
z
" style="fill:#ffffff;opacity:0.8;stroke:#cccccc;stroke-linejoin:miter;"/>
    </g>
    <g id="line2d_19">
     <path d="M 323.514063 27.858437 
L 343.514063 27.858437 
" style="fill:none;stroke:#1f77b4;stroke-linecap:square;stroke-width:1.5;"/>
    </g>
    <g id="line2d_20"/>
    <g id="text_17">
     <!-- AllReduce SGD -->
     <g transform="translate(351.514063 31.358437)scale(0.1 -0.1)">
      <defs>
       <path d="M 34.1875 63.1875 
L 20.796875 26.90625 
L 47.609375 26.90625 
z
M 28.609375 72.90625 
L 39.796875 72.90625 
L 67.578125 0 
L 57.328125 0 
L 50.6875 18.703125 
L 17.828125 18.703125 
L 11.1875 0 
L 0.78125 0 
z
" id="DejaVuSans-65"/>
       <path d="M 9.421875 75.984375 
L 18.40625 75.984375 
L 18.40625 0 
L 9.421875 0 
z
" id="DejaVuSans-108"/>
       <path d="M 44.390625 34.1875 
Q 47.5625 33.109375 50.5625 29.59375 
Q 53.5625 26.078125 56.59375 19.921875 
L 66.609375 0 
L 56 0 
L 46.6875 18.703125 
Q 43.0625 26.03125 39.671875 28.421875 
Q 36.28125 30.8125 30.421875 30.8125 
L 19.671875 30.8125 
L 19.671875 0 
L 9.8125 0 
L 9.8125 72.90625 
L 32.078125 72.90625 
Q 44.578125 72.90625 50.734375 67.671875 
Q 56.890625 62.453125 56.890625 51.90625 
Q 56.890625 45.015625 53.6875 40.46875 
Q 50.484375 35.9375 44.390625 34.1875 
z
M 19.671875 64.796875 
L 19.671875 38.921875 
L 32.078125 38.921875 
Q 39.203125 38.921875 42.84375 42.21875 
Q 46.484375 45.515625 46.484375 51.90625 
Q 46.484375 58.296875 42.84375 61.546875 
Q 39.203125 64.796875 32.078125 64.796875 
z
" id="DejaVuSans-82"/>
       <path d="M 56.203125 29.59375 
L 56.203125 25.203125 
L 14.890625 25.203125 
Q 15.484375 15.921875 20.484375 11.0625 
Q 25.484375 6.203125 34.421875 6.203125 
Q 39.59375 6.203125 44.453125 7.46875 
Q 49.3125 8.734375 54.109375 11.28125 
L 54.109375 2.78125 
Q 49.265625 0.734375 44.1875 -0.34375 
Q 39.109375 -1.421875 33.890625 -1.421875 
Q 20.796875 -1.421875 13.15625 6.1875 
Q 5.515625 13.8125 5.515625 26.8125 
Q 5.515625 40.234375 12.765625 48.109375 
Q 20.015625 56 32.328125 56 
Q 43.359375 56 49.78125 48.890625 
Q 56.203125 41.796875 56.203125 29.59375 
z
M 47.21875 32.234375 
Q 47.125 39.59375 43.09375 43.984375 
Q 39.0625 48.390625 32.421875 48.390625 
Q 24.90625 48.390625 20.390625 44.140625 
Q 15.875 39.890625 15.1875 32.171875 
z
" id="DejaVuSans-101"/>
       <path d="M 45.40625 46.390625 
L 45.40625 75.984375 
L 54.390625 75.984375 
L 54.390625 0 
L 45.40625 0 
L 45.40625 8.203125 
Q 42.578125 3.328125 38.25 0.953125 
Q 33.9375 -1.421875 27.875 -1.421875 
Q 17.96875 -1.421875 11.734375 6.484375 
Q 5.515625 14.40625 5.515625 27.296875 
Q 5.515625 40.1875 11.734375 48.09375 
Q 17.96875 56 27.875 56 
Q 33.9375 56 38.25 53.625 
Q 42.578125 51.265625 45.40625 46.390625 
z
M 14.796875 27.296875 
Q 14.796875 17.390625 18.875 11.75 
Q 22.953125 6.109375 30.078125 6.109375 
Q 37.203125 6.109375 41.296875 11.75 
Q 45.40625 17.390625 45.40625 27.296875 
Q 45.40625 37.203125 41.296875 42.84375 
Q 37.203125 48.484375 30.078125 48.484375 
Q 22.953125 48.484375 18.875 42.84375 
Q 14.796875 37.203125 14.796875 27.296875 
z
" id="DejaVuSans-100"/>
       <path d="M 8.5 21.578125 
L 8.5 54.6875 
L 17.484375 54.6875 
L 17.484375 21.921875 
Q 17.484375 14.15625 20.5 10.265625 
Q 23.53125 6.390625 29.59375 6.390625 
Q 36.859375 6.390625 41.078125 11.03125 
Q 45.3125 15.671875 45.3125 23.6875 
L 45.3125 54.6875 
L 54.296875 54.6875 
L 54.296875 0 
L 45.3125 0 
L 45.3125 8.40625 
Q 42.046875 3.421875 37.71875 1 
Q 33.40625 -1.421875 27.6875 -1.421875 
Q 18.265625 -1.421875 13.375 4.4375 
Q 8.5 10.296875 8.5 21.578125 
z
M 31.109375 56 
z
" id="DejaVuSans-117"/>
       <path id="DejaVuSans-32"/>
       <path d="M 53.515625 70.515625 
L 53.515625 60.890625 
Q 47.90625 63.578125 42.921875 64.890625 
Q 37.9375 66.21875 33.296875 66.21875 
Q 25.25 66.21875 20.875 63.09375 
Q 16.5 59.96875 16.5 54.203125 
Q 16.5 49.359375 19.40625 46.890625 
Q 22.3125 44.4375 30.421875 42.921875 
L 36.375 41.703125 
Q 47.40625 39.59375 52.65625 34.296875 
Q 57.90625 29 57.90625 20.125 
Q 57.90625 9.515625 50.796875 4.046875 
Q 43.703125 -1.421875 29.984375 -1.421875 
Q 24.8125 -1.421875 18.96875 -0.25 
Q 13.140625 0.921875 6.890625 3.21875 
L 6.890625 13.375 
Q 12.890625 10.015625 18.65625 8.296875 
Q 24.421875 6.59375 29.984375 6.59375 
Q 38.421875 6.59375 43.015625 9.90625 
Q 47.609375 13.234375 47.609375 19.390625 
Q 47.609375 24.75 44.3125 27.78125 
Q 41.015625 30.8125 33.5 32.328125 
L 27.484375 33.5 
Q 16.453125 35.6875 11.515625 40.375 
Q 6.59375 45.0625 6.59375 53.421875 
Q 6.59375 63.09375 13.40625 68.65625 
Q 20.21875 74.21875 32.171875 74.21875 
Q 37.3125 74.21875 42.625 73.28125 
Q 47.953125 72.359375 53.515625 70.515625 
z
" id="DejaVuSans-83"/>
       <path d="M 59.515625 10.40625 
L 59.515625 29.984375 
L 43.40625 29.984375 
L 43.40625 38.09375 
L 69.28125 38.09375 
L 69.28125 6.78125 
Q 63.578125 2.734375 56.6875 0.65625 
Q 49.8125 -1.421875 42 -1.421875 
Q 24.90625 -1.421875 15.25 8.5625 
Q 5.609375 18.5625 5.609375 36.375 
Q 5.609375 54.25 15.25 64.234375 
Q 24.90625 74.21875 42 74.21875 
Q 49.125 74.21875 55.546875 72.453125 
Q 61.96875 70.703125 67.390625 67.28125 
L 67.390625 56.78125 
Q 61.921875 61.421875 55.765625 63.765625 
Q 49.609375 66.109375 42.828125 66.109375 
Q 29.4375 66.109375 22.71875 58.640625 
Q 16.015625 51.171875 16.015625 36.375 
Q 16.015625 21.625 22.71875 14.15625 
Q 29.4375 6.6875 42.828125 6.6875 
Q 48.046875 6.6875 52.140625 7.59375 
Q 56.25 8.5 59.515625 10.40625 
z
" id="DejaVuSans-71"/>
       <path d="M 19.671875 64.796875 
L 19.671875 8.109375 
L 31.59375 8.109375 
Q 46.6875 8.109375 53.6875 14.9375 
Q 60.6875 21.78125 60.6875 36.53125 
Q 60.6875 51.171875 53.6875 57.984375 
Q 46.6875 64.796875 31.59375 64.796875 
z
M 9.8125 72.90625 
L 30.078125 72.90625 
Q 51.265625 72.90625 61.171875 64.09375 
Q 71.09375 55.28125 71.09375 36.53125 
Q 71.09375 17.671875 61.125 8.828125 
Q 51.171875 0 30.078125 0 
L 9.8125 0 
z
" id="DejaVuSans-68"/>
      </defs>
      <use xlink:href="#DejaVuSans-65"/>
      <use x="68.408203" xlink:href="#DejaVuSans-108"/>
      <use x="96.191406" xlink:href="#DejaVuSans-108"/>
      <use x="123.974609" xlink:href="#DejaVuSans-82"/>
      <use x="188.957031" xlink:href="#DejaVuSans-101"/>
      <use x="250.480469" xlink:href="#DejaVuSans-100"/>
      <use x="313.957031" xlink:href="#DejaVuSans-117"/>
      <use x="377.335938" xlink:href="#DejaVuSans-99"/>
      <use x="432.316406" xlink:href="#DejaVuSans-101"/>
      <use x="493.839844" xlink:href="#DejaVuSans-32"/>
      <use x="525.626953" xlink:href="#DejaVuSans-83"/>
      <use x="589.103516" xlink:href="#DejaVuSans-71"/>
      <use x="666.59375" xlink:href="#DejaVuSans-68"/>
     </g>
    </g>
    <g id="line2d_21">
     <path d="M 323.514063 42.536563 
L 343.514063 42.536563 
" style="fill:none;stroke:#ff7f0e;stroke-linecap:square;stroke-width:1.5;"/>
    </g>
    <g id="line2d_22"/>
    <g id="text_18">
     <!-- GRandK-MN 8 bits -->
     <g transform="translate(351.514063 46.036563)scale(0.1 -0.1)">
      <defs>
       <path d="M 34.28125 27.484375 
Q 23.390625 27.484375 19.1875 25 
Q 14.984375 22.515625 14.984375 16.5 
Q 14.984375 11.71875 18.140625 8.90625 
Q 21.296875 6.109375 26.703125 6.109375 
Q 34.1875 6.109375 38.703125 11.40625 
Q 43.21875 16.703125 43.21875 25.484375 
L 43.21875 27.484375 
z
M 52.203125 31.203125 
L 52.203125 0 
L 43.21875 0 
L 43.21875 8.296875 
Q 40.140625 3.328125 35.546875 0.953125 
Q 30.953125 -1.421875 24.3125 -1.421875 
Q 15.921875 -1.421875 10.953125 3.296875 
Q 6 8.015625 6 15.921875 
Q 6 25.140625 12.171875 29.828125 
Q 18.359375 34.515625 30.609375 34.515625 
L 43.21875 34.515625 
L 43.21875 35.40625 
Q 43.21875 41.609375 39.140625 45 
Q 35.0625 48.390625 27.6875 48.390625 
Q 23 48.390625 18.546875 47.265625 
Q 14.109375 46.140625 10.015625 43.890625 
L 10.015625 52.203125 
Q 14.9375 54.109375 19.578125 55.046875 
Q 24.21875 56 28.609375 56 
Q 40.484375 56 46.34375 49.84375 
Q 52.203125 43.703125 52.203125 31.203125 
z
" id="DejaVuSans-97"/>
       <path d="M 54.890625 33.015625 
L 54.890625 0 
L 45.90625 0 
L 45.90625 32.71875 
Q 45.90625 40.484375 42.875 44.328125 
Q 39.84375 48.1875 33.796875 48.1875 
Q 26.515625 48.1875 22.3125 43.546875 
Q 18.109375 38.921875 18.109375 30.90625 
L 18.109375 0 
L 9.078125 0 
L 9.078125 54.6875 
L 18.109375 54.6875 
L 18.109375 46.1875 
Q 21.34375 51.125 25.703125 53.5625 
Q 30.078125 56 35.796875 56 
Q 45.21875 56 50.046875 50.171875 
Q 54.890625 44.34375 54.890625 33.015625 
z
" id="DejaVuSans-110"/>
       <path d="M 9.8125 72.90625 
L 19.671875 72.90625 
L 19.671875 42.09375 
L 52.390625 72.90625 
L 65.09375 72.90625 
L 28.90625 38.921875 
L 67.671875 0 
L 54.6875 0 
L 19.671875 35.109375 
L 19.671875 0 
L 9.8125 0 
z
" id="DejaVuSans-75"/>
       <path d="M 4.890625 31.390625 
L 31.203125 31.390625 
L 31.203125 23.390625 
L 4.890625 23.390625 
z
" id="DejaVuSans-45"/>
       <path d="M 9.8125 72.90625 
L 24.515625 72.90625 
L 43.109375 23.296875 
L 61.8125 72.90625 
L 76.515625 72.90625 
L 76.515625 0 
L 66.890625 0 
L 66.890625 64.015625 
L 48.09375 14.015625 
L 38.1875 14.015625 
L 19.390625 64.015625 
L 19.390625 0 
L 9.8125 0 
z
" id="DejaVuSans-77"/>
       <path d="M 9.8125 72.90625 
L 23.09375 72.90625 
L 55.421875 11.921875 
L 55.421875 72.90625 
L 64.984375 72.90625 
L 64.984375 0 
L 51.703125 0 
L 19.390625 60.984375 
L 19.390625 0 
L 9.8125 0 
z
" id="DejaVuSans-78"/>
       <path d="M 48.6875 27.296875 
Q 48.6875 37.203125 44.609375 42.84375 
Q 40.53125 48.484375 33.40625 48.484375 
Q 26.265625 48.484375 22.1875 42.84375 
Q 18.109375 37.203125 18.109375 27.296875 
Q 18.109375 17.390625 22.1875 11.75 
Q 26.265625 6.109375 33.40625 6.109375 
Q 40.53125 6.109375 44.609375 11.75 
Q 48.6875 17.390625 48.6875 27.296875 
z
M 18.109375 46.390625 
Q 20.953125 51.265625 25.265625 53.625 
Q 29.59375 56 35.59375 56 
Q 45.5625 56 51.78125 48.09375 
Q 58.015625 40.1875 58.015625 27.296875 
Q 58.015625 14.40625 51.78125 6.484375 
Q 45.5625 -1.421875 35.59375 -1.421875 
Q 29.59375 -1.421875 25.265625 0.953125 
Q 20.953125 3.328125 18.109375 8.203125 
L 18.109375 0 
L 9.078125 0 
L 9.078125 75.984375 
L 18.109375 75.984375 
z
" id="DejaVuSans-98"/>
       <path d="M 9.421875 54.6875 
L 18.40625 54.6875 
L 18.40625 0 
L 9.421875 0 
z
M 9.421875 75.984375 
L 18.40625 75.984375 
L 18.40625 64.59375 
L 9.421875 64.59375 
z
" id="DejaVuSans-105"/>
       <path d="M 18.3125 70.21875 
L 18.3125 54.6875 
L 36.8125 54.6875 
L 36.8125 47.703125 
L 18.3125 47.703125 
L 18.3125 18.015625 
Q 18.3125 11.328125 20.140625 9.421875 
Q 21.96875 7.515625 27.59375 7.515625 
L 36.8125 7.515625 
L 36.8125 0 
L 27.59375 0 
Q 17.1875 0 13.234375 3.875 
Q 9.28125 7.765625 9.28125 18.015625 
L 9.28125 47.703125 
L 2.6875 47.703125 
L 2.6875 54.6875 
L 9.28125 54.6875 
L 9.28125 70.21875 
z
" id="DejaVuSans-116"/>
      </defs>
      <use xlink:href="#DejaVuSans-71"/>
      <use x="77.490234" xlink:href="#DejaVuSans-82"/>
      <use x="144.722656" xlink:href="#DejaVuSans-97"/>
      <use x="206.001953" xlink:href="#DejaVuSans-110"/>
      <use x="269.380859" xlink:href="#DejaVuSans-100"/>
      <use x="332.857422" xlink:href="#DejaVuSans-75"/>
      <use x="387.933594" xlink:href="#DejaVuSans-45"/>
      <use x="424.017578" xlink:href="#DejaVuSans-77"/>
      <use x="510.296875" xlink:href="#DejaVuSans-78"/>
      <use x="585.101562" xlink:href="#DejaVuSans-32"/>
      <use x="616.888672" xlink:href="#DejaVuSans-56"/>
      <use x="680.511719" xlink:href="#DejaVuSans-32"/>
      <use x="712.298828" xlink:href="#DejaVuSans-98"/>
      <use x="775.775391" xlink:href="#DejaVuSans-105"/>
      <use x="803.558594" xlink:href="#DejaVuSans-116"/>
      <use x="842.767578" xlink:href="#DejaVuSans-115"/>
     </g>
    </g>
    <g id="line2d_23">
     <path d="M 323.514063 57.214687 
L 343.514063 57.214687 
" style="fill:none;stroke:#2ca02c;stroke-linecap:square;stroke-width:1.5;"/>
    </g>
    <g id="line2d_24"/>
    <g id="text_19">
     <!-- GRandK-MN 4 bits -->
     <g transform="translate(351.514063 60.714687)scale(0.1 -0.1)">
      <use xlink:href="#DejaVuSans-71"/>
      <use x="77.490234" xlink:href="#DejaVuSans-82"/>
      <use x="144.722656" xlink:href="#DejaVuSans-97"/>
      <use x="206.001953" xlink:href="#DejaVuSans-110"/>
      <use x="269.380859" xlink:href="#DejaVuSans-100"/>
      <use x="332.857422" xlink:href="#DejaVuSans-75"/>
      <use x="387.933594" xlink:href="#DejaVuSans-45"/>
      <use x="424.017578" xlink:href="#DejaVuSans-77"/>
      <use x="510.296875" xlink:href="#DejaVuSans-78"/>
      <use x="585.101562" xlink:href="#DejaVuSans-32"/>
      <use x="616.888672" xlink:href="#DejaVuSans-52"/>
      <use x="680.511719" xlink:href="#DejaVuSans-32"/>
      <use x="712.298828" xlink:href="#DejaVuSans-98"/>
      <use x="775.775391" xlink:href="#DejaVuSans-105"/>
      <use x="803.558594" xlink:href="#DejaVuSans-116"/>
      <use x="842.767578" xlink:href="#DejaVuSans-115"/>
     </g>
    </g>
    <g id="line2d_25">
     <path d="M 323.514063 71.892812 
L 343.514063 71.892812 
" style="fill:none;stroke:#d62728;stroke-linecap:square;stroke-width:1.5;"/>
    </g>
    <g id="line2d_26"/>
    <g id="text_20">
     <!-- GRandK-MN 2 bits -->
     <g transform="translate(351.514063 75.392812)scale(0.1 -0.1)">
      <use xlink:href="#DejaVuSans-71"/>
      <use x="77.490234" xlink:href="#DejaVuSans-82"/>
      <use x="144.722656" xlink:href="#DejaVuSans-97"/>
      <use x="206.001953" xlink:href="#DejaVuSans-110"/>
      <use x="269.380859" xlink:href="#DejaVuSans-100"/>
      <use x="332.857422" xlink:href="#DejaVuSans-75"/>
      <use x="387.933594" xlink:href="#DejaVuSans-45"/>
      <use x="424.017578" xlink:href="#DejaVuSans-77"/>
      <use x="510.296875" xlink:href="#DejaVuSans-78"/>
      <use x="585.101562" xlink:href="#DejaVuSans-32"/>
      <use x="616.888672" xlink:href="#DejaVuSans-50"/>
      <use x="680.511719" xlink:href="#DejaVuSans-32"/>
      <use x="712.298828" xlink:href="#DejaVuSans-98"/>
      <use x="775.775391" xlink:href="#DejaVuSans-105"/>
      <use x="803.558594" xlink:href="#DejaVuSans-116"/>
      <use x="842.767578" xlink:href="#DejaVuSans-115"/>
     </g>
    </g>
   </g>
  </g>
 </g>
 <defs>
  <clipPath id="p95d2d30b56">
   <rect height="288.88" width="402.28" x="47.72" y="14.76"/>
  </clipPath>
 </defs>
</svg>
