<?xml version="1.0" encoding="utf-8" standalone="no"?>
<!DOCTYPE svg PUBLIC "-//W3C//DTD SVG 1.1//EN"
  "http://www.w3.org/Graphics/SVG/1.1/DTD/svg11.dtd">
<!-- Created with matplotlib (https://matplotlib.org/) -->
<svg height="345.6pt" version="1.1" viewBox="0 0 460.8 345.6" width="460.8pt" xmlns="http://www.w3.org/2000/svg" xmlns:xlink="http://www.w3.org/1999/xlink">
 <metadata>
  <rdf:RDF xmlns:cc="http://creativecommons.org/ns#" xmlns:dc="http://purl.org/dc/elements/1.1/" xmlns:rdf="http://www.w3.org/1999/02/22-rdf-syntax-ns#">
   <cc:Work>
    <dc:type rdf:resource="http://purl.org/dc/dcmitype/StillImage"/>
    <dc:date>2021-06-10T08:56:22.623595</dc:date>
    <dc:format>image/svg+xml</dc:format>
    <dc:creator>
     <cc:Agent>
      <dc:title>Matplotlib v3.3.1, https://matplotlib.org/</dc:title>
     </cc:Agent>
    </dc:creator>
   </cc:Work>
  </rdf:RDF>
 </metadata>
 <defs>
  <style type="text/css">*{stroke-linecap:butt;stroke-linejoin:round;}</style>
 </defs>
 <g id="figure_1">
  <g id="patch_1">
   <path d="M 0 345.6 
L 460.8 345.6 
L 460.8 0 
L 0 0 
z
" style="fill:#ffffff;"/>
  </g>
  <g id="axes_1">
   <g id="patch_2">
    <path d="M 47.72 303.64 
L 449.572485 303.64 
L 449.572485 14.76 
L 47.72 14.76 
z
" style="fill:#ffffff;"/>
   </g>
   <g id="PolyCollection_1">
    <path clip-path="url(#pc366a6451c)" d="M 66.257875 40.802604 
L 66.257875 41.979646 
L 68.686207 88.835256 
L 71.193738 97.781353 
L 73.660521 104.679396 
L 76.136305 137.331326 
L 78.638835 187.413644 
L 81.11563 210.747209 
L 83.53519 217.046819 
L 85.931469 220.342012 
L 88.36744 217.943777 
L 90.748509 232.784613 
L 93.142885 247.040387 
L 95.587982 248.401217 
L 98.027289 244.612147 
L 100.49099 252.706133 
L 103.020082 249.178948 
L 105.496774 261.045668 
L 107.912205 252.918326 
L 110.34338 258.530559 
L 112.740898 259.887104 
L 115.241946 254.603387 
L 117.71764 251.628373 
L 120.109204 273.554631 
L 122.580665 254.628374 
L 125.004736 260.513619 
L 127.478663 268.696328 
L 129.92256 267.360066 
L 132.374352 263.336193 
L 134.781538 266.840207 
L 137.201755 274.884038 
L 139.634824 271.540501 
L 142.049192 275.373504 
L 144.502092 278.649971 
L 146.958047 269.765859 
L 149.37012 278.424915 
L 151.8564 275.442379 
L 154.312092 279.617393 
L 156.785641 275.108966 
L 159.254562 272.163921 
L 161.709509 273.810945 
L 164.259114 280.528634 
L 166.707401 275.20428 
L 169.148071 281.171338 
L 171.638408 275.302152 
L 174.066652 285.473329 
L 176.513415 278.549751 
L 178.926164 280.372394 
L 181.396546 280.046105 
L 183.800189 278.381856 
L 186.172627 282.357637 
L 188.61031 280.808635 
L 191.073414 283.514675 
L 193.487634 278.759053 
L 195.954862 284.210639 
L 198.354174 288.87576 
L 200.816164 283.989354 
L 203.213065 281.284608 
L 205.624966 288.672529 
L 208.066013 286.928243 
L 210.498762 280.494637 
L 212.99008 288.957053 
L 215.447265 284.022315 
L 217.863193 279.623706 
L 220.328469 284.198743 
L 222.794876 283.593715 
L 225.295129 293.320146 
L 227.730799 290.608574 
L 230.176359 288.021026 
L 232.602929 290.415334 
L 235.052404 286.410395 
L 237.495634 281.789816 
L 239.934346 290.624992 
L 242.35478 290.648159 
L 244.841702 283.061849 
L 247.277206 289.251348 
L 249.692435 287.381949 
L 252.109976 293.429749 
L 254.540515 292.593902 
L 257.001072 290.986944 
L 259.463754 292.699345 
L 261.964298 291.820514 
L 264.462164 292.286056 
L 266.911177 290.71529 
L 269.3394 291.551953 
L 271.84849 288.34608 
L 274.310195 294.023946 
L 276.755844 292.325256 
L 279.120965 289.062324 
L 281.567649 293.844748 
L 284.061968 290.704628 
L 286.519563 293.892858 
L 288.983495 292.171733 
L 291.485957 296.149879 
L 293.915432 293.350941 
L 296.329792 294.501036 
L 298.734585 296.101413 
L 301.14149 295.814309 
L 303.584608 295.777691 
L 306.101374 297.33294 
L 308.542915 296.47463 
L 310.981123 298.976097 
L 313.465307 299.010856 
L 315.933734 298.374279 
L 318.385656 297.417501 
L 320.826083 300.308499 
L 323.295013 300.549981 
L 325.811636 300.84698 
L 328.33034 298.837703 
L 330.812283 301.91931 
L 333.244442 301.929774 
L 335.679667 301.439175 
L 338.130558 302.125021 
L 340.597181 303.263883 
L 343.087708 301.355604 
L 345.513799 302.820925 
L 347.945538 302.384463 
L 350.399809 303.299534 
L 352.792165 302.206533 
L 355.299021 303.078695 
L 357.781308 302.751963 
L 360.249176 302.242961 
L 362.723882 302.533382 
L 365.197929 303.214266 
L 367.586951 302.86998 
L 370.012738 302.754907 
L 372.468081 303.150657 
L 374.912034 303.476913 
L 377.362929 303.549472 
L 379.766795 303.540276 
L 382.19544 303.502376 
L 384.651552 303.489701 
L 387.142803 303.540081 
L 389.596529 303.545249 
L 392.094862 303.601142 
L 394.53946 303.645018 
L 397.02802 303.580732 
L 399.50652 303.591333 
L 401.956512 303.538841 
L 404.41805 303.541157 
L 406.815283 303.546406 
L 409.350562 303.570919 
L 411.774751 303.543187 
L 414.184258 303.616341 
L 416.621576 303.604025 
L 419.043783 303.568074 
L 421.463779 303.56903 
L 423.955267 303.553094 
L 426.449202 303.551858 
L 428.914483 303.596247 
L 431.306463 303.544533 
L 431.306463 303.512843 
L 431.306463 303.512843 
L 428.914483 303.378766 
L 426.449202 303.50521 
L 423.955267 303.488589 
L 421.463779 303.462184 
L 419.043783 303.393914 
L 416.621576 303.376521 
L 414.184258 303.285501 
L 411.774751 303.532416 
L 409.350562 303.415313 
L 406.815283 303.182334 
L 404.41805 303.353191 
L 401.956512 303.445737 
L 399.50652 303.402965 
L 397.02802 303.044686 
L 394.53946 302.131074 
L 392.094862 303.312997 
L 389.596529 302.921924 
L 387.142803 303.446216 
L 384.651552 302.766506 
L 382.19544 303.056262 
L 379.766795 303.257405 
L 377.362929 303.250347 
L 374.912034 302.087378 
L 372.468081 301.070131 
L 370.012738 302.554206 
L 367.586951 300.146818 
L 365.197929 302.226557 
L 362.723882 301.308763 
L 360.249176 299.910054 
L 357.781308 301.709764 
L 355.299021 300.158854 
L 352.792165 299.842454 
L 350.399809 297.444697 
L 347.945538 298.602911 
L 345.513799 300.282798 
L 343.087708 297.341924 
L 340.597181 299.229426 
L 338.130558 298.405865 
L 335.679667 298.717916 
L 333.244442 299.965464 
L 330.812283 298.496616 
L 328.33034 295.098524 
L 325.811636 295.403249 
L 323.295013 296.390005 
L 320.826083 296.126511 
L 318.385656 293.012106 
L 315.933734 295.690307 
L 313.465307 295.632055 
L 310.981123 295.720414 
L 308.542915 291.156453 
L 306.101374 293.488799 
L 303.584608 294.022812 
L 301.14149 294.508097 
L 298.734585 288.426466 
L 296.329792 291.279409 
L 293.915432 289.611231 
L 291.485957 290.54319 
L 288.983495 287.371274 
L 286.519563 290.81275 
L 284.061968 286.017284 
L 281.567649 287.40502 
L 279.120965 282.615473 
L 276.755844 287.561924 
L 274.310195 288.9749 
L 271.84849 285.66194 
L 269.3394 286.351998 
L 266.911177 283.797706 
L 264.462164 287.536239 
L 261.964298 283.637548 
L 259.463754 289.1626 
L 257.001072 283.607864 
L 254.540515 289.084672 
L 252.109976 287.554836 
L 249.692435 280.38017 
L 247.277206 282.079455 
L 244.841702 277.455701 
L 242.35478 284.115914 
L 239.934346 284.720227 
L 237.495634 276.329805 
L 235.052404 282.451951 
L 232.602929 286.013185 
L 230.176359 285.428418 
L 227.730799 282.175091 
L 225.295129 287.681366 
L 222.794876 275.293242 
L 220.328469 278.874718 
L 217.863193 274.399686 
L 215.447265 279.271191 
L 212.99008 287.40376 
L 210.498762 275.994392 
L 208.066013 282.300844 
L 205.624966 281.306969 
L 203.213065 274.538642 
L 200.816164 278.463466 
L 198.354174 284.342354 
L 195.954862 279.534242 
L 193.487634 277.983873 
L 191.073414 275.456916 
L 188.61031 274.56324 
L 186.172627 273.685659 
L 183.800189 272.132095 
L 181.396546 274.287607 
L 178.926164 267.788765 
L 176.513415 274.136442 
L 174.066652 278.90912 
L 171.638408 268.802274 
L 169.148071 279.058461 
L 166.707401 270.073722 
L 164.259114 273.618887 
L 161.709509 270.767425 
L 159.254562 270.084226 
L 156.785641 269.723303 
L 154.312092 270.185643 
L 151.8564 271.477499 
L 149.37012 275.801596 
L 146.958047 264.086712 
L 144.502092 266.977846 
L 142.049192 272.607105 
L 139.634824 266.859674 
L 137.201755 270.856623 
L 134.781538 260.083759 
L 132.374352 254.334585 
L 129.92256 263.07334 
L 127.478663 262.053041 
L 125.004736 257.913213 
L 122.580665 251.453351 
L 120.109204 267.807693 
L 117.71764 243.372096 
L 115.241946 246.242388 
L 112.740898 250.663234 
L 110.34338 251.827944 
L 107.912205 242.815627 
L 105.496774 252.077507 
L 103.020082 244.523818 
L 100.49099 246.99992 
L 98.027289 240.322659 
L 95.587982 239.523949 
L 93.142885 239.271113 
L 90.748509 229.107499 
L 88.36744 207.206411 
L 85.931469 211.533663 
L 83.53519 203.7476 
L 81.11563 196.235134 
L 78.638835 167.886262 
L 76.136305 104.154374 
L 73.660521 81.783691 
L 71.193738 94.143372 
L 68.686207 70.635606 
L 66.257875 40.802604 
z
" style="fill:#1f77b4;fill-opacity:0.25;"/>
   </g>
   <g id="PolyCollection_2">
    <path clip-path="url(#pc366a6451c)" d="M 65.986022 36.832237 
L 65.986022 38.818287 
L 68.043816 44.019255 
L 70.182067 61.155595 
L 72.257406 60.254545 
L 74.325983 78.974245 
L 76.389413 101.083243 
L 78.534274 122.632499 
L 80.764277 138.05408 
L 82.854164 160.531485 
L 84.998729 148.35221 
L 87.108914 185.659848 
L 89.244811 187.028041 
L 91.29362 207.510964 
L 93.318939 204.129064 
L 95.412732 221.058722 
L 97.602897 222.673955 
L 99.688611 231.331424 
L 101.782237 222.91541 
L 103.856976 239.024539 
L 105.926057 231.856929 
L 107.970463 231.2286 
L 110.010372 234.88939 
L 112.272979 239.059914 
L 114.330217 232.985714 
L 116.382747 243.141566 
L 118.41323 249.057804 
L 120.535705 240.508908 
L 122.68455 241.194557 
L 124.737076 246.515859 
L 126.839878 253.562578 
L 129.064891 247.831707 
L 131.195767 256.491392 
L 133.319397 258.051082 
L 135.384158 256.519369 
L 137.474605 263.890964 
L 139.54669 261.1793 
L 141.591972 261.240486 
L 143.791606 250.660763 
L 145.91825 250.428419 
L 148.012781 250.86028 
L 150.120021 255.539062 
L 152.224229 254.975836 
L 154.331666 257.032646 
L 156.347671 257.317982 
L 158.422105 264.249857 
L 160.671692 266.019769 
L 162.791197 251.996785 
L 164.80999 264.713736 
L 166.865408 255.402145 
L 168.958104 257.825602 
L 171.101819 262.60397 
L 173.119875 257.11845 
L 175.296762 262.862177 
L 177.453355 271.438924 
L 179.532385 274.702905 
L 181.586941 270.436941 
L 183.593609 261.657257 
L 185.666775 271.654171 
L 187.806964 272.740134 
L 189.898213 265.206034 
L 192.086659 271.957131 
L 194.160907 262.522307 
L 196.198216 259.497071 
L 198.260352 264.855219 
L 200.349244 266.880695 
L 202.38975 282.348562 
L 204.455914 273.159177 
L 206.688025 265.882862 
L 208.814044 272.735805 
L 210.878129 264.636058 
L 212.955919 263.822833 
L 214.996924 273.281869 
L 217.079317 276.25022 
L 219.139929 268.213356 
L 221.296255 274.892339 
L 223.495023 270.482353 
L 225.645361 276.755163 
L 227.768229 275.233439 
L 229.88308 268.962938 
L 231.986715 276.564981 
L 234.113634 278.344689 
L 236.183163 281.719696 
L 238.225317 278.887478 
L 240.405083 276.308262 
L 242.5157 277.170818 
L 244.542319 284.123423 
L 246.581463 282.307449 
L 248.525645 275.481572 
L 250.618059 281.049624 
L 252.681825 268.233123 
L 254.788073 280.454622 
L 256.858816 280.568774 
L 258.861298 290.758296 
L 260.904915 284.941707 
L 262.966668 282.737141 
L 265.12544 277.073604 
L 267.122183 289.789854 
L 269.176508 284.177765 
L 271.358906 282.252099 
L 273.522718 292.664894 
L 275.581278 289.334543 
L 277.736369 289.500472 
L 279.849953 289.708984 
L 281.855342 288.625397 
L 283.995757 292.570057 
L 286.226951 294.259152 
L 288.293205 294.664057 
L 290.295717 292.40784 
L 292.33788 291.199912 
L 294.464007 295.208739 
L 296.574559 295.268574 
L 298.679394 294.922592 
L 300.783808 298.60871 
L 302.880697 291.9547 
L 304.904339 291.071163 
L 307.012221 294.610964 
L 309.096077 293.725623 
L 311.233497 298.383661 
L 313.295909 296.893346 
L 315.4128 297.561719 
L 317.695958 298.293275 
L 319.920024 301.15007 
L 321.967075 301.179789 
L 323.997443 301.648038 
L 326.048119 301.858466 
L 328.085107 300.838382 
L 330.107975 302.362159 
L 332.17646 302.563565 
L 334.369783 302.7654 
L 336.451302 300.667218 
L 338.485426 302.053359 
L 340.564555 301.933632 
L 342.674068 302.295259 
L 344.735819 302.364018 
L 346.837636 302.92874 
L 349.079802 301.684326 
L 351.152292 303.183648 
L 353.215948 302.9415 
L 355.29911 303.133157 
L 357.403178 303.157964 
L 359.50417 303.241626 
L 361.609104 303.374291 
L 363.682217 303.377664 
L 365.843373 303.602789 
L 367.906517 303.138103 
L 369.95012 303.173556 
L 372.048101 303.263052 
L 374.08089 303.410684 
L 376.213759 303.441296 
L 378.362126 303.086032 
L 378.362126 302.089432 
L 378.362126 302.089432 
L 376.213759 303.142335 
L 374.08089 303.093736 
L 372.048101 301.347753 
L 369.95012 302.405148 
L 367.906517 302.675898 
L 365.843373 302.562791 
L 363.682217 303.073904 
L 361.609104 303.086711 
L 359.50417 301.399682 
L 357.403178 302.336813 
L 355.29911 302.174282 
L 353.215948 301.835132 
L 351.152292 302.73967 
L 349.079802 300.27897 
L 346.837636 301.038415 
L 344.735819 299.649 
L 342.674068 301.595903 
L 340.564555 299.318749 
L 338.485426 299.27378 
L 336.451302 298.274334 
L 334.369783 302.130423 
L 332.17646 301.396713 
L 330.107975 299.78345 
L 328.085107 297.706454 
L 326.048119 299.499001 
L 323.997443 299.533463 
L 321.967075 297.414063 
L 319.920024 297.731534 
L 317.695958 290.033207 
L 315.4128 295.887869 
L 313.295909 294.757795 
L 311.233497 295.22955 
L 309.096077 286.432382 
L 307.012221 291.028426 
L 304.904339 287.371617 
L 302.880697 284.428681 
L 300.783808 294.744961 
L 298.679394 292.83544 
L 296.574559 291.081731 
L 294.464007 292.357458 
L 292.33788 288.915777 
L 290.295717 289.180459 
L 288.293205 291.226411 
L 286.226951 291.329458 
L 283.995757 289.08877 
L 281.855342 280.143853 
L 279.849953 286.663112 
L 277.736369 287.133986 
L 275.581278 287.556636 
L 273.522718 286.878112 
L 271.358906 278.733753 
L 269.176508 278.190423 
L 267.122183 284.116607 
L 265.12544 272.785854 
L 262.966668 277.329034 
L 260.904915 275.739467 
L 258.861298 285.055224 
L 256.858816 272.924253 
L 254.788073 278.917564 
L 252.681825 257.607543 
L 250.618059 273.323584 
L 248.525645 271.156196 
L 246.581463 276.765701 
L 244.542319 279.198294 
L 242.5157 274.274095 
L 240.405083 268.174192 
L 238.225317 270.458541 
L 236.183163 278.047443 
L 234.113634 272.829399 
L 231.986715 272.256314 
L 229.88308 260.7257 
L 227.768229 268.329338 
L 225.645361 266.170046 
L 223.495023 265.649662 
L 221.296255 266.881864 
L 219.139929 262.253903 
L 217.079317 270.46654 
L 214.996924 262.443909 
L 212.955919 254.637851 
L 210.878129 258.902596 
L 208.814044 265.308912 
L 206.688025 263.376969 
L 204.455914 268.919704 
L 202.38975 275.483307 
L 200.349244 262.525833 
L 198.260352 256.990778 
L 196.198216 254.449864 
L 194.160907 256.931403 
L 192.086659 266.476897 
L 189.898213 258.479316 
L 187.806964 264.351053 
L 185.666775 264.522982 
L 183.593609 253.474537 
L 181.586941 264.092693 
L 179.532385 269.598998 
L 177.453355 264.512542 
L 175.296762 255.722636 
L 173.119875 253.962253 
L 171.101819 259.501567 
L 168.958104 249.677955 
L 166.865408 251.063248 
L 164.80999 257.425655 
L 162.791197 246.276152 
L 160.671692 254.302838 
L 158.422105 258.690724 
L 156.347671 250.129153 
L 154.331666 251.926594 
L 152.224229 248.747454 
L 150.120021 252.13376 
L 148.012781 244.715692 
L 145.91825 243.804712 
L 143.791606 244.215577 
L 141.591972 254.703783 
L 139.54669 254.618272 
L 137.474605 256.962008 
L 135.384158 252.044919 
L 133.319397 250.60348 
L 131.195767 250.380239 
L 129.064891 242.079509 
L 126.839878 245.703385 
L 124.737076 239.739219 
L 122.68455 234.125961 
L 120.535705 230.749235 
L 118.41323 243.493955 
L 116.382747 231.761431 
L 114.330217 224.708611 
L 112.272979 232.55933 
L 110.010372 226.122541 
L 107.970463 225.946644 
L 105.926057 221.188234 
L 103.856976 237.785517 
L 101.782237 213.631996 
L 99.688611 223.383826 
L 97.602897 216.446289 
L 95.412732 213.322084 
L 93.318939 198.745767 
L 91.29362 199.83248 
L 89.244811 180.594403 
L 87.108914 178.509577 
L 84.998729 137.277965 
L 82.854164 153.354765 
L 80.764277 127.851008 
L 78.534274 107.839651 
L 76.389413 94.67817 
L 74.325983 68.038667 
L 72.257406 56.74193 
L 70.182067 47.35503 
L 68.043816 43.00592 
L 65.986022 36.832237 
z
" style="fill:#ff7f0e;fill-opacity:0.25;"/>
   </g>
   <g id="PolyCollection_3">
    <path clip-path="url(#pc366a6451c)" d="M 66.010851 37.439204 
L 66.010851 38.933521 
L 68.075373 46.676098 
L 70.164068 66.128134 
L 72.192903 61.859198 
L 74.234051 78.659008 
L 76.319826 102.841512 
L 78.45275 120.226863 
L 80.742422 141.955506 
L 82.82573 162.474093 
L 84.977137 151.745507 
L 87.022254 183.991422 
L 89.133825 187.107856 
L 91.249606 210.012536 
L 93.303844 206.016916 
L 95.424377 220.383447 
L 97.644189 222.086056 
L 99.727424 231.379451 
L 101.796933 215.589365 
L 103.867614 234.184088 
L 105.887548 230.202142 
L 107.951135 236.05175 
L 110.065207 228.952534 
L 112.277333 237.267824 
L 114.352466 230.644472 
L 116.420212 241.408679 
L 118.566506 249.645083 
L 120.651229 235.355211 
L 122.683555 243.163475 
L 124.788458 243.781184 
L 126.871079 252.316528 
L 129.163195 247.2143 
L 131.209839 253.156624 
L 133.382504 258.949512 
L 135.461751 259.027689 
L 137.524411 261.534395 
L 139.531906 260.13211 
L 141.596835 256.999508 
L 143.772125 253.047117 
L 145.79389 252.055389 
L 147.84355 254.055427 
L 149.842432 251.251406 
L 151.867919 254.148266 
L 153.951835 257.646977 
L 156.079875 257.151429 
L 158.210489 263.264652 
L 160.435309 264.081571 
L 162.478123 251.713127 
L 164.573222 265.939911 
L 166.658463 255.31661 
L 168.755773 257.132247 
L 170.923569 267.465782 
L 172.942868 259.458323 
L 175.188297 260.722404 
L 177.334759 268.90999 
L 179.47991 271.875166 
L 181.572073 272.45942 
L 183.706215 259.974622 
L 185.726607 270.884024 
L 187.819116 272.985158 
L 189.921094 263.914521 
L 192.169846 273.484331 
L 194.276404 267.977018 
L 196.383636 264.014287 
L 198.442678 262.782136 
L 200.456081 269.678522 
L 202.508229 280.492113 
L 204.579652 270.972675 
L 206.731802 271.00779 
L 208.858079 272.251795 
L 210.935773 264.532862 
L 212.995677 262.845103 
L 215.099696 271.656793 
L 217.136258 278.895083 
L 219.261846 264.269241 
L 221.365341 275.14195 
L 223.612451 271.920466 
L 225.683886 275.15461 
L 227.726721 272.18955 
L 229.786172 268.9497 
L 231.913685 279.217463 
L 234.01291 279.783459 
L 236.147651 278.010422 
L 238.206435 274.205049 
L 240.436341 276.173736 
L 242.471257 279.141702 
L 244.525731 283.490465 
L 246.714437 283.27087 
L 248.835397 278.13573 
L 250.914728 276.179798 
L 253.035243 264.007586 
L 255.241201 285.349548 
L 257.309201 279.395144 
L 259.376105 290.902596 
L 261.489979 281.065058 
L 263.609303 279.226488 
L 265.646016 280.789304 
L 267.655984 285.192842 
L 269.68251 285.762781 
L 271.903811 284.469998 
L 274.021767 290.278434 
L 276.081113 291.377679 
L 278.135456 290.864602 
L 280.206913 289.37819 
L 282.277248 287.70555 
L 284.379248 292.57776 
L 286.583858 293.521829 
L 288.681158 294.330898 
L 290.838085 295.085332 
L 292.991123 289.867235 
L 295.084605 295.976236 
L 297.094708 292.666319 
L 299.124437 295.345975 
L 301.263104 297.27898 
L 303.463737 290.192822 
L 305.552526 295.331405 
L 307.589909 294.574081 
L 309.625017 293.335732 
L 311.703403 297.465712 
L 313.81212 295.959639 
L 315.924135 295.149508 
L 318.08312 301.166775 
L 320.189341 300.257675 
L 322.282978 300.890203 
L 324.299528 300.774487 
L 326.294188 301.169612 
L 328.352052 301.313184 
L 330.363991 302.675441 
L 332.397608 302.575124 
L 334.642377 302.417474 
L 336.708106 301.132998 
L 338.806662 302.05905 
L 340.825198 302.736199 
L 342.830221 302.463538 
L 344.845992 303.305247 
L 346.967316 303.119304 
L 349.101638 301.437825 
L 351.200565 302.949116 
L 353.222492 303.273646 
L 355.290051 303.06202 
L 357.372395 303.100135 
L 359.515408 303.064048 
L 361.566795 303.509253 
L 363.649028 303.757458 
L 365.88648 303.79828 
L 368.05198 303.404558 
L 370.170551 303.21413 
L 372.301968 303.244875 
L 374.362862 303.380354 
L 376.453027 303.446552 
L 378.546098 303.115901 
L 378.546098 302.902629 
L 378.546098 302.902629 
L 376.453027 302.973676 
L 374.362862 302.532033 
L 372.301968 302.431069 
L 370.170551 302.758293 
L 368.05198 302.671628 
L 365.88648 301.502855 
L 363.649028 302.257854 
L 361.566795 302.237659 
L 359.515408 301.565446 
L 357.372395 302.188173 
L 355.290051 302.280594 
L 353.222492 301.542305 
L 351.200565 301.564713 
L 349.101638 299.781055 
L 346.967316 302.210791 
L 344.845992 301.067968 
L 342.830221 300.95509 
L 340.825198 301.10577 
L 338.806662 300.708963 
L 336.708106 298.324109 
L 334.642377 301.031129 
L 332.397608 301.52903 
L 330.363991 300.97769 
L 328.352052 299.793557 
L 326.294188 297.942616 
L 324.299528 300.120673 
L 322.282978 297.979412 
L 320.189341 296.474256 
L 318.08312 294.680037 
L 315.924135 292.28974 
L 313.81212 294.464326 
L 311.703403 293.073917 
L 309.625017 289.691325 
L 307.589909 292.078081 
L 305.552526 291.334863 
L 303.463737 284.847719 
L 301.263104 294.942021 
L 299.124437 291.732173 
L 297.094708 286.002148 
L 295.084605 293.827088 
L 292.991123 284.400326 
L 290.838085 289.019383 
L 288.681158 290.242118 
L 286.583858 288.207525 
L 284.379248 285.45314 
L 282.277248 283.137203 
L 280.206913 286.156042 
L 278.135456 285.682403 
L 276.081113 287.025605 
L 274.021767 288.068428 
L 271.903811 279.16204 
L 269.68251 278.721227 
L 267.655984 282.179966 
L 265.646016 274.853396 
L 263.609303 271.479298 
L 261.489979 277.314103 
L 259.376105 283.331112 
L 257.309201 273.623939 
L 255.241201 279.851017 
L 253.035243 257.262908 
L 250.914728 272.280397 
L 248.835397 274.426336 
L 246.714437 277.709339 
L 244.525731 279.368593 
L 242.471257 267.800745 
L 240.436341 272.737834 
L 238.206435 268.505758 
L 236.147651 275.03123 
L 234.01291 271.870215 
L 231.913685 276.555008 
L 229.786172 263.514894 
L 227.726721 269.313828 
L 225.683886 268.357387 
L 223.612451 262.868709 
L 221.365341 268.375689 
L 219.261846 259.03244 
L 217.136258 272.008179 
L 215.099696 265.366688 
L 212.995677 259.328141 
L 210.935773 261.172391 
L 208.858079 265.973472 
L 206.731802 260.599191 
L 204.579652 267.145391 
L 202.508229 279.004201 
L 200.456081 265.25735 
L 198.442678 259.549089 
L 196.383636 256.838685 
L 194.276404 257.400988 
L 192.169846 265.384146 
L 189.921094 252.582682 
L 187.819116 266.097722 
L 185.726607 268.373764 
L 183.706215 254.762218 
L 181.572073 267.080477 
L 179.47991 265.475562 
L 177.334759 261.952223 
L 175.188297 252.547468 
L 172.942868 252.446139 
L 170.923569 254.888011 
L 168.755773 252.346075 
L 166.658463 247.740902 
L 164.573222 258.354796 
L 162.478123 246.751645 
L 160.435309 254.221132 
L 158.210489 260.646385 
L 156.079875 251.728821 
L 153.951835 252.677673 
L 151.867919 248.649706 
L 149.842432 245.667407 
L 147.84355 249.29548 
L 145.79389 243.114346 
L 143.772125 248.83682 
L 141.596835 250.458911 
L 139.531906 253.972805 
L 137.524411 254.026205 
L 135.461751 251.511364 
L 133.382504 253.372473 
L 131.209839 244.64237 
L 129.163195 239.085915 
L 126.871079 249.172457 
L 124.788458 237.745741 
L 122.683555 233.150069 
L 120.651229 229.696527 
L 118.566506 243.92227 
L 116.420212 238.741553 
L 114.352466 225.537747 
L 112.277333 229.679688 
L 110.065207 225.040516 
L 107.951135 229.180538 
L 105.887548 222.007976 
L 103.867614 228.294812 
L 101.796933 211.321185 
L 99.727424 222.162224 
L 97.644189 215.454375 
L 95.424377 214.809834 
L 93.303844 199.182496 
L 91.249606 198.098245 
L 89.133825 182.320088 
L 87.022254 180.719653 
L 84.977137 138.804656 
L 82.82573 150.870507 
L 80.742422 131.352132 
L 78.45275 109.523087 
L 76.319826 96.124663 
L 74.234051 73.31903 
L 72.192903 59.289927 
L 70.164068 53.847416 
L 68.075373 44.050352 
L 66.010851 37.439204 
z
" style="fill:#2ca02c;fill-opacity:0.25;"/>
   </g>
   <g id="PolyCollection_4">
    <path clip-path="url(#pc366a6451c)" d="M 65.986977 36.526642 
L 65.986977 37.498933 
L 68.033203 49.583032 
L 70.107751 73.786772 
L 72.155315 77.783285 
L 74.257172 85.514536 
L 76.304386 113.63136 
L 78.271107 132.990154 
L 80.423265 151.715353 
L 82.591431 169.824848 
L 84.620594 161.810175 
L 86.655096 196.690587 
L 88.738084 188.089156 
L 90.781657 213.859124 
L 92.81151 205.663951 
L 94.831795 223.420568 
L 97.033077 224.642052 
L 99.075607 229.450321 
L 101.090031 220.304201 
L 103.210202 236.686158 
L 105.220209 234.884366 
L 107.174902 233.637247 
L 109.217139 227.966258 
L 111.425841 235.655661 
L 113.493308 228.851486 
L 115.566511 246.364111 
L 117.627628 249.484783 
L 119.751447 238.696196 
L 121.811977 239.486493 
L 123.826644 243.225261 
L 125.885948 255.419615 
L 128.135343 249.277946 
L 130.189095 254.139713 
L 132.193011 257.780859 
L 134.295778 256.238329 
L 136.417107 260.937321 
L 138.497193 258.161499 
L 140.525874 260.007616 
L 142.758339 257.643701 
L 144.888796 252.815105 
L 146.945295 254.830438 
L 149.003361 256.928134 
L 151.115844 254.099628 
L 153.153813 261.920414 
L 155.204927 258.564564 
L 157.310789 266.261448 
L 159.539882 261.534584 
L 161.606276 257.033282 
L 163.701391 265.398006 
L 165.834719 255.543534 
L 167.910649 257.481832 
L 170.029177 265.775505 
L 172.108062 260.817547 
L 174.346073 261.016474 
L 176.473996 268.581768 
L 178.607464 274.171731 
L 180.677961 268.936486 
L 182.700397 263.378558 
L 184.740356 272.465895 
L 186.823416 269.274125 
L 188.959507 263.836842 
L 191.176285 275.049766 
L 193.203198 263.315171 
L 195.307788 266.710378 
L 197.386987 266.80346 
L 199.425785 269.348131 
L 201.470301 280.495942 
L 203.502305 267.612931 
L 205.692536 268.31638 
L 207.79506 275.45014 
L 209.837852 266.408403 
L 211.884496 264.169035 
L 213.945704 270.584711 
L 216.085096 274.782864 
L 218.174392 265.90089 
L 220.185086 273.322536 
L 222.362032 269.617418 
L 224.33961 276.771118 
L 226.336226 273.929527 
L 228.407497 264.958005 
L 230.548989 277.557003 
L 232.57527 280.407981 
L 234.688982 281.902292 
L 236.766196 274.288493 
L 238.931918 280.835037 
L 241.032811 275.868926 
L 243.100956 287.476984 
L 245.170237 280.470285 
L 247.22932 275.114601 
L 249.315474 277.444257 
L 251.395057 267.145029 
L 253.581539 286.478519 
L 255.59932 279.303074 
L 257.783263 288.541329 
L 259.785372 280.20742 
L 261.835928 279.76588 
L 263.93027 279.668609 
L 266.045482 290.480741 
L 268.080137 285.408158 
L 270.266806 284.77908 
L 272.292692 292.682137 
L 274.314395 290.691642 
L 276.438825 289.547262 
L 278.533166 291.290528 
L 280.687783 286.77464 
L 282.753357 292.758673 
L 284.99116 292.440913 
L 287.099952 294.84072 
L 289.186089 293.598485 
L 291.294998 293.688176 
L 293.371756 298.361935 
L 295.414623 291.55727 
L 297.491142 295.929308 
L 299.598645 299.53798 
L 301.75325 292.305744 
L 303.845062 294.579179 
L 305.961609 297.557637 
L 308.060536 294.066286 
L 310.115809 296.469466 
L 312.161031 297.646349 
L 314.194786 295.416569 
L 316.336677 297.191674 
L 318.363092 299.349732 
L 320.378263 301.134384 
L 322.469008 301.217276 
L 324.554922 301.213551 
L 326.591902 301.467333 
L 328.711404 302.030165 
L 330.768793 303.19247 
L 332.969411 302.030049 
L 335.054252 302.217501 
L 337.075659 302.106966 
L 339.08132 301.842788 
L 341.168982 302.79737 
L 343.27289 301.987198 
L 345.419678 303.059197 
L 347.617806 302.054653 
L 349.632691 303.434418 
L 351.602755 303.338158 
L 353.583952 303.359449 
L 355.540046 303.258378 
L 357.642717 302.790099 
L 359.643459 303.556567 
L 361.743137 303.205941 
L 363.914545 303.494261 
L 365.936693 303.354272 
L 367.974956 303.377349 
L 370.006792 303.483005 
L 372.069763 303.453983 
L 374.11708 303.248203 
L 376.145855 303.180727 
L 376.145855 301.205184 
L 376.145855 301.205184 
L 374.11708 302.622396 
L 372.069763 303.255892 
L 370.006792 301.513319 
L 367.974956 302.40659 
L 365.936693 302.867024 
L 363.914545 302.855131 
L 361.743137 302.919879 
L 359.643459 302.683154 
L 357.642717 301.217785 
L 355.540046 301.960814 
L 353.583952 301.981402 
L 351.602755 301.041053 
L 349.632691 302.792345 
L 347.617806 298.490691 
L 345.419678 302.2545 
L 343.27289 300.843937 
L 341.168982 301.130995 
L 339.08132 300.06056 
L 337.075659 299.432461 
L 335.054252 298.596552 
L 332.969411 300.630058 
L 330.768793 300.627988 
L 328.711404 300.58692 
L 326.591902 297.514419 
L 324.554922 298.949535 
L 322.469008 298.17142 
L 320.378263 298.28746 
L 318.363092 297.194596 
L 316.336677 294.295843 
L 314.194786 291.859055 
L 312.161031 293.68883 
L 310.115809 293.871277 
L 308.060536 290.475698 
L 305.961609 293.652002 
L 303.845062 291.410027 
L 301.75325 286.295017 
L 299.598645 296.165662 
L 297.491142 292.292793 
L 295.414623 284.687878 
L 293.371756 294.224398 
L 291.294998 291.068211 
L 289.186089 289.764282 
L 287.099952 292.843963 
L 284.99116 287.846862 
L 282.753357 289.38256 
L 280.687783 282.019999 
L 278.533166 285.468059 
L 276.438825 286.497588 
L 274.314395 286.033091 
L 272.292692 287.103483 
L 270.266806 279.851625 
L 268.080137 279.504656 
L 266.045482 283.434184 
L 263.93027 275.455009 
L 261.835928 275.120766 
L 259.785372 278.645685 
L 257.783263 283.599127 
L 255.59932 273.174359 
L 253.581539 279.946401 
L 251.395057 262.15994 
L 249.315474 270.434793 
L 247.22932 271.105646 
L 245.170237 277.807316 
L 243.100956 278.203167 
L 241.032811 269.521919 
L 238.931918 272.753907 
L 236.766196 267.643692 
L 234.688982 278.654753 
L 232.57527 275.251645 
L 230.548989 273.842772 
L 228.407497 259.325417 
L 226.336226 268.538665 
L 224.33961 270.024632 
L 222.362032 264.968639 
L 220.185086 268.575796 
L 218.174392 259.668951 
L 216.085096 271.696923 
L 213.945704 267.465648 
L 211.884496 257.812375 
L 209.837852 257.931441 
L 207.79506 268.140848 
L 205.692536 261.259413 
L 203.502305 263.068731 
L 201.470301 276.619369 
L 199.425785 263.127747 
L 197.386987 256.904458 
L 195.307788 256.55745 
L 193.203198 255.010101 
L 191.176285 269.421402 
L 188.959507 257.37723 
L 186.823416 267.331835 
L 184.740356 265.686023 
L 182.700397 256.154142 
L 180.677961 262.512514 
L 178.607464 269.458752 
L 176.473996 263.724844 
L 174.346073 255.672563 
L 172.108062 254.867181 
L 170.029177 262.243045 
L 167.910649 251.319427 
L 165.834719 248.518288 
L 163.701391 261.762931 
L 161.606276 252.478893 
L 159.539882 253.563357 
L 157.310789 259.556649 
L 155.204927 256.601083 
L 153.153813 254.542936 
L 151.115844 247.784309 
L 149.003361 251.06065 
L 146.945295 245.970199 
L 144.888796 250.987176 
L 142.758339 245.458949 
L 140.525874 254.221427 
L 138.497193 252.388838 
L 136.417107 258.629232 
L 134.295778 251.11853 
L 132.193011 255.161766 
L 130.189095 245.374506 
L 128.135343 240.836389 
L 125.885948 244.387997 
L 123.826644 238.707901 
L 121.811977 230.32725 
L 119.751447 232.291123 
L 117.627628 242.062667 
L 115.566511 242.113989 
L 113.493308 224.193677 
L 111.425841 234.067808 
L 109.217139 221.806436 
L 107.174902 227.645509 
L 105.220209 228.768109 
L 103.210202 233.894923 
L 101.090031 215.317886 
L 99.075607 224.813554 
L 97.033077 216.441673 
L 94.831795 212.7206 
L 92.81151 200.505918 
L 90.781657 207.838045 
L 88.738084 180.706863 
L 86.655096 183.276963 
L 84.620594 148.103975 
L 82.591431 155.661739 
L 80.423265 139.872972 
L 78.271107 118.922308 
L 76.304386 100.320465 
L 74.257172 71.970277 
L 72.155315 60.33754 
L 70.107751 57.247466 
L 68.033203 41.233693 
L 65.986977 36.526642 
z
" style="fill:#d62728;fill-opacity:0.25;"/>
   </g>
   <g id="matplotlib.axis_1">
    <g id="xtick_1">
     <g id="line2d_1">
      <defs>
       <path d="M 0 0 
L 0 3.5 
" id="m035f6bf96c" style="stroke:#000000;stroke-width:0.8;"/>
      </defs>
      <g>
       <use style="stroke:#000000;stroke-width:0.8;" x="63.414905" xlink:href="#m035f6bf96c" y="303.64"/>
      </g>
     </g>
     <g id="text_1">
      <!-- 0 -->
      <g transform="translate(60.233655 318.238437)scale(0.1 -0.1)">
       <defs>
        <path d="M 31.78125 66.40625 
Q 24.171875 66.40625 20.328125 58.90625 
Q 16.5 51.421875 16.5 36.375 
Q 16.5 21.390625 20.328125 13.890625 
Q 24.171875 6.390625 31.78125 6.390625 
Q 39.453125 6.390625 43.28125 13.890625 
Q 47.125 21.390625 47.125 36.375 
Q 47.125 51.421875 43.28125 58.90625 
Q 39.453125 66.40625 31.78125 66.40625 
z
M 31.78125 74.21875 
Q 44.046875 74.21875 50.515625 64.515625 
Q 56.984375 54.828125 56.984375 36.375 
Q 56.984375 17.96875 50.515625 8.265625 
Q 44.046875 -1.421875 31.78125 -1.421875 
Q 19.53125 -1.421875 13.0625 8.265625 
Q 6.59375 17.96875 6.59375 36.375 
Q 6.59375 54.828125 13.0625 64.515625 
Q 19.53125 74.21875 31.78125 74.21875 
z
" id="DejaVuSans-48"/>
       </defs>
       <use xlink:href="#DejaVuSans-48"/>
      </g>
     </g>
    </g>
    <g id="xtick_2">
     <g id="line2d_2">
      <g>
       <use style="stroke:#000000;stroke-width:0.8;" x="109.972452" xlink:href="#m035f6bf96c" y="303.64"/>
      </g>
     </g>
     <g id="text_2">
      <!-- 250 -->
      <g transform="translate(100.428702 318.238437)scale(0.1 -0.1)">
       <defs>
        <path d="M 19.1875 8.296875 
L 53.609375 8.296875 
L 53.609375 0 
L 7.328125 0 
L 7.328125 8.296875 
Q 12.9375 14.109375 22.625 23.890625 
Q 32.328125 33.6875 34.8125 36.53125 
Q 39.546875 41.84375 41.421875 45.53125 
Q 43.3125 49.21875 43.3125 52.78125 
Q 43.3125 58.59375 39.234375 62.25 
Q 35.15625 65.921875 28.609375 65.921875 
Q 23.96875 65.921875 18.8125 64.3125 
Q 13.671875 62.703125 7.8125 59.421875 
L 7.8125 69.390625 
Q 13.765625 71.78125 18.9375 73 
Q 24.125 74.21875 28.421875 74.21875 
Q 39.75 74.21875 46.484375 68.546875 
Q 53.21875 62.890625 53.21875 53.421875 
Q 53.21875 48.921875 51.53125 44.890625 
Q 49.859375 40.875 45.40625 35.40625 
Q 44.1875 33.984375 37.640625 27.21875 
Q 31.109375 20.453125 19.1875 8.296875 
z
" id="DejaVuSans-50"/>
        <path d="M 10.796875 72.90625 
L 49.515625 72.90625 
L 49.515625 64.59375 
L 19.828125 64.59375 
L 19.828125 46.734375 
Q 21.96875 47.46875 24.109375 47.828125 
Q 26.265625 48.1875 28.421875 48.1875 
Q 40.625 48.1875 47.75 41.5 
Q 54.890625 34.8125 54.890625 23.390625 
Q 54.890625 11.625 47.5625 5.09375 
Q 40.234375 -1.421875 26.90625 -1.421875 
Q 22.3125 -1.421875 17.546875 -0.640625 
Q 12.796875 0.140625 7.71875 1.703125 
L 7.71875 11.625 
Q 12.109375 9.234375 16.796875 8.0625 
Q 21.484375 6.890625 26.703125 6.890625 
Q 35.15625 6.890625 40.078125 11.328125 
Q 45.015625 15.765625 45.015625 23.390625 
Q 45.015625 31 40.078125 35.4375 
Q 35.15625 39.890625 26.703125 39.890625 
Q 22.75 39.890625 18.8125 39.015625 
Q 14.890625 38.140625 10.796875 36.28125 
z
" id="DejaVuSans-53"/>
       </defs>
       <use xlink:href="#DejaVuSans-50"/>
       <use x="63.623047" xlink:href="#DejaVuSans-53"/>
       <use x="127.246094" xlink:href="#DejaVuSans-48"/>
      </g>
     </g>
    </g>
    <g id="xtick_3">
     <g id="line2d_3">
      <g>
       <use style="stroke:#000000;stroke-width:0.8;" x="156.53" xlink:href="#m035f6bf96c" y="303.64"/>
      </g>
     </g>
     <g id="text_3">
      <!-- 500 -->
      <g transform="translate(146.98625 318.238437)scale(0.1 -0.1)">
       <use xlink:href="#DejaVuSans-53"/>
       <use x="63.623047" xlink:href="#DejaVuSans-48"/>
       <use x="127.246094" xlink:href="#DejaVuSans-48"/>
      </g>
     </g>
    </g>
    <g id="xtick_4">
     <g id="line2d_4">
      <g>
       <use style="stroke:#000000;stroke-width:0.8;" x="203.087548" xlink:href="#m035f6bf96c" y="303.64"/>
      </g>
     </g>
     <g id="text_4">
      <!-- 750 -->
      <g transform="translate(193.543798 318.238437)scale(0.1 -0.1)">
       <defs>
        <path d="M 8.203125 72.90625 
L 55.078125 72.90625 
L 55.078125 68.703125 
L 28.609375 0 
L 18.3125 0 
L 43.21875 64.59375 
L 8.203125 64.59375 
z
" id="DejaVuSans-55"/>
       </defs>
       <use xlink:href="#DejaVuSans-55"/>
       <use x="63.623047" xlink:href="#DejaVuSans-53"/>
       <use x="127.246094" xlink:href="#DejaVuSans-48"/>
      </g>
     </g>
    </g>
    <g id="xtick_5">
     <g id="line2d_5">
      <g>
       <use style="stroke:#000000;stroke-width:0.8;" x="249.645096" xlink:href="#m035f6bf96c" y="303.64"/>
      </g>
     </g>
     <g id="text_5">
      <!-- 1000 -->
      <g transform="translate(236.920096 318.238437)scale(0.1 -0.1)">
       <defs>
        <path d="M 12.40625 8.296875 
L 28.515625 8.296875 
L 28.515625 63.921875 
L 10.984375 60.40625 
L 10.984375 69.390625 
L 28.421875 72.90625 
L 38.28125 72.90625 
L 38.28125 8.296875 
L 54.390625 8.296875 
L 54.390625 0 
L 12.40625 0 
z
" id="DejaVuSans-49"/>
       </defs>
       <use xlink:href="#DejaVuSans-49"/>
       <use x="63.623047" xlink:href="#DejaVuSans-48"/>
       <use x="127.246094" xlink:href="#DejaVuSans-48"/>
       <use x="190.869141" xlink:href="#DejaVuSans-48"/>
      </g>
     </g>
    </g>
    <g id="xtick_6">
     <g id="line2d_6">
      <g>
       <use style="stroke:#000000;stroke-width:0.8;" x="296.202644" xlink:href="#m035f6bf96c" y="303.64"/>
      </g>
     </g>
     <g id="text_6">
      <!-- 1250 -->
      <g transform="translate(283.477644 318.238437)scale(0.1 -0.1)">
       <use xlink:href="#DejaVuSans-49"/>
       <use x="63.623047" xlink:href="#DejaVuSans-50"/>
       <use x="127.246094" xlink:href="#DejaVuSans-53"/>
       <use x="190.869141" xlink:href="#DejaVuSans-48"/>
      </g>
     </g>
    </g>
    <g id="xtick_7">
     <g id="line2d_7">
      <g>
       <use style="stroke:#000000;stroke-width:0.8;" x="342.760191" xlink:href="#m035f6bf96c" y="303.64"/>
      </g>
     </g>
     <g id="text_7">
      <!-- 1500 -->
      <g transform="translate(330.035191 318.238437)scale(0.1 -0.1)">
       <use xlink:href="#DejaVuSans-49"/>
       <use x="63.623047" xlink:href="#DejaVuSans-53"/>
       <use x="127.246094" xlink:href="#DejaVuSans-48"/>
       <use x="190.869141" xlink:href="#DejaVuSans-48"/>
      </g>
     </g>
    </g>
    <g id="xtick_8">
     <g id="line2d_8">
      <g>
       <use style="stroke:#000000;stroke-width:0.8;" x="389.317739" xlink:href="#m035f6bf96c" y="303.64"/>
      </g>
     </g>
     <g id="text_8">
      <!-- 1750 -->
      <g transform="translate(376.592739 318.238437)scale(0.1 -0.1)">
       <use xlink:href="#DejaVuSans-49"/>
       <use x="63.623047" xlink:href="#DejaVuSans-55"/>
       <use x="127.246094" xlink:href="#DejaVuSans-53"/>
       <use x="190.869141" xlink:href="#DejaVuSans-48"/>
      </g>
     </g>
    </g>
    <g id="xtick_9">
     <g id="line2d_9">
      <g>
       <use style="stroke:#000000;stroke-width:0.8;" x="435.875287" xlink:href="#m035f6bf96c" y="303.64"/>
      </g>
     </g>
     <g id="text_9">
      <!-- 2000 -->
      <g transform="translate(423.150287 318.238437)scale(0.1 -0.1)">
       <use xlink:href="#DejaVuSans-50"/>
       <use x="63.623047" xlink:href="#DejaVuSans-48"/>
       <use x="127.246094" xlink:href="#DejaVuSans-48"/>
       <use x="190.869141" xlink:href="#DejaVuSans-48"/>
      </g>
     </g>
    </g>
    <g id="text_10">
     <!-- Time -->
     <g transform="translate(236.412649 331.916562)scale(0.1 -0.1)">
      <defs>
       <path d="M -0.296875 72.90625 
L 61.375 72.90625 
L 61.375 64.59375 
L 35.5 64.59375 
L 35.5 0 
L 25.59375 0 
L 25.59375 64.59375 
L -0.296875 64.59375 
z
" id="DejaVuSans-84"/>
       <path d="M 9.421875 54.6875 
L 18.40625 54.6875 
L 18.40625 0 
L 9.421875 0 
z
M 9.421875 75.984375 
L 18.40625 75.984375 
L 18.40625 64.59375 
L 9.421875 64.59375 
z
" id="DejaVuSans-105"/>
       <path d="M 52 44.1875 
Q 55.375 50.25 60.0625 53.125 
Q 64.75 56 71.09375 56 
Q 79.640625 56 84.28125 50.015625 
Q 88.921875 44.046875 88.921875 33.015625 
L 88.921875 0 
L 79.890625 0 
L 79.890625 32.71875 
Q 79.890625 40.578125 77.09375 44.375 
Q 74.3125 48.1875 68.609375 48.1875 
Q 61.625 48.1875 57.5625 43.546875 
Q 53.515625 38.921875 53.515625 30.90625 
L 53.515625 0 
L 44.484375 0 
L 44.484375 32.71875 
Q 44.484375 40.625 41.703125 44.40625 
Q 38.921875 48.1875 33.109375 48.1875 
Q 26.21875 48.1875 22.15625 43.53125 
Q 18.109375 38.875 18.109375 30.90625 
L 18.109375 0 
L 9.078125 0 
L 9.078125 54.6875 
L 18.109375 54.6875 
L 18.109375 46.1875 
Q 21.1875 51.21875 25.484375 53.609375 
Q 29.78125 56 35.6875 56 
Q 41.65625 56 45.828125 52.96875 
Q 50 49.953125 52 44.1875 
z
" id="DejaVuSans-109"/>
       <path d="M 56.203125 29.59375 
L 56.203125 25.203125 
L 14.890625 25.203125 
Q 15.484375 15.921875 20.484375 11.0625 
Q 25.484375 6.203125 34.421875 6.203125 
Q 39.59375 6.203125 44.453125 7.46875 
Q 49.3125 8.734375 54.109375 11.28125 
L 54.109375 2.78125 
Q 49.265625 0.734375 44.1875 -0.34375 
Q 39.109375 -1.421875 33.890625 -1.421875 
Q 20.796875 -1.421875 13.15625 6.1875 
Q 5.515625 13.8125 5.515625 26.8125 
Q 5.515625 40.234375 12.765625 48.109375 
Q 20.015625 56 32.328125 56 
Q 43.359375 56 49.78125 48.890625 
Q 56.203125 41.796875 56.203125 29.59375 
z
M 47.21875 32.234375 
Q 47.125 39.59375 43.09375 43.984375 
Q 39.0625 48.390625 32.421875 48.390625 
Q 24.90625 48.390625 20.390625 44.140625 
Q 15.875 39.890625 15.1875 32.171875 
z
" id="DejaVuSans-101"/>
      </defs>
      <use xlink:href="#DejaVuSans-84"/>
      <use x="57.958984" xlink:href="#DejaVuSans-105"/>
      <use x="85.742188" xlink:href="#DejaVuSans-109"/>
      <use x="183.154297" xlink:href="#DejaVuSans-101"/>
     </g>
    </g>
   </g>
   <g id="matplotlib.axis_2">
    <g id="ytick_1">
     <g id="line2d_10">
      <defs>
       <path d="M 0 0 
L -3.5 0 
" id="m6691fd37bf" style="stroke:#000000;stroke-width:0.8;"/>
      </defs>
      <g>
       <use style="stroke:#000000;stroke-width:0.8;" x="47.72" xlink:href="#m6691fd37bf" y="303.64"/>
      </g>
     </g>
     <g id="text_11">
      <!-- 0.0 -->
      <g transform="translate(24.816875 307.439219)scale(0.1 -0.1)">
       <defs>
        <path d="M 10.6875 12.40625 
L 21 12.40625 
L 21 0 
L 10.6875 0 
z
" id="DejaVuSans-46"/>
       </defs>
       <use xlink:href="#DejaVuSans-48"/>
       <use x="63.623047" xlink:href="#DejaVuSans-46"/>
       <use x="95.410156" xlink:href="#DejaVuSans-48"/>
      </g>
     </g>
    </g>
    <g id="ytick_2">
     <g id="line2d_11">
      <g>
       <use style="stroke:#000000;stroke-width:0.8;" x="47.72" xlink:href="#m6691fd37bf" y="245.864"/>
      </g>
     </g>
     <g id="text_12">
      <!-- 0.5 -->
      <g transform="translate(24.816875 249.663219)scale(0.1 -0.1)">
       <use xlink:href="#DejaVuSans-48"/>
       <use x="63.623047" xlink:href="#DejaVuSans-46"/>
       <use x="95.410156" xlink:href="#DejaVuSans-53"/>
      </g>
     </g>
    </g>
    <g id="ytick_3">
     <g id="line2d_12">
      <g>
       <use style="stroke:#000000;stroke-width:0.8;" x="47.72" xlink:href="#m6691fd37bf" y="188.088"/>
      </g>
     </g>
     <g id="text_13">
      <!-- 1.0 -->
      <g transform="translate(24.816875 191.887219)scale(0.1 -0.1)">
       <use xlink:href="#DejaVuSans-49"/>
       <use x="63.623047" xlink:href="#DejaVuSans-46"/>
       <use x="95.410156" xlink:href="#DejaVuSans-48"/>
      </g>
     </g>
    </g>
    <g id="ytick_4">
     <g id="line2d_13">
      <g>
       <use style="stroke:#000000;stroke-width:0.8;" x="47.72" xlink:href="#m6691fd37bf" y="130.312"/>
      </g>
     </g>
     <g id="text_14">
      <!-- 1.5 -->
      <g transform="translate(24.816875 134.111219)scale(0.1 -0.1)">
       <use xlink:href="#DejaVuSans-49"/>
       <use x="63.623047" xlink:href="#DejaVuSans-46"/>
       <use x="95.410156" xlink:href="#DejaVuSans-53"/>
      </g>
     </g>
    </g>
    <g id="ytick_5">
     <g id="line2d_14">
      <g>
       <use style="stroke:#000000;stroke-width:0.8;" x="47.72" xlink:href="#m6691fd37bf" y="72.536"/>
      </g>
     </g>
     <g id="text_15">
      <!-- 2.0 -->
      <g transform="translate(24.816875 76.335219)scale(0.1 -0.1)">
       <use xlink:href="#DejaVuSans-50"/>
       <use x="63.623047" xlink:href="#DejaVuSans-46"/>
       <use x="95.410156" xlink:href="#DejaVuSans-48"/>
      </g>
     </g>
    </g>
    <g id="ytick_6">
     <g id="line2d_15">
      <g>
       <use style="stroke:#000000;stroke-width:0.8;" x="47.72" xlink:href="#m6691fd37bf" y="14.76"/>
      </g>
     </g>
     <g id="text_16">
      <!-- 2.5 -->
      <g transform="translate(24.816875 18.559219)scale(0.1 -0.1)">
       <use xlink:href="#DejaVuSans-50"/>
       <use x="63.623047" xlink:href="#DejaVuSans-46"/>
       <use x="95.410156" xlink:href="#DejaVuSans-53"/>
      </g>
     </g>
    </g>
    <g id="text_17">
     <!-- Loss -->
     <g transform="translate(18.737188 170.167187)rotate(-90)scale(0.1 -0.1)">
      <defs>
       <path d="M 9.8125 72.90625 
L 19.671875 72.90625 
L 19.671875 8.296875 
L 55.171875 8.296875 
L 55.171875 0 
L 9.8125 0 
z
" id="DejaVuSans-76"/>
       <path d="M 30.609375 48.390625 
Q 23.390625 48.390625 19.1875 42.75 
Q 14.984375 37.109375 14.984375 27.296875 
Q 14.984375 17.484375 19.15625 11.84375 
Q 23.34375 6.203125 30.609375 6.203125 
Q 37.796875 6.203125 41.984375 11.859375 
Q 46.1875 17.53125 46.1875 27.296875 
Q 46.1875 37.015625 41.984375 42.703125 
Q 37.796875 48.390625 30.609375 48.390625 
z
M 30.609375 56 
Q 42.328125 56 49.015625 48.375 
Q 55.71875 40.765625 55.71875 27.296875 
Q 55.71875 13.875 49.015625 6.21875 
Q 42.328125 -1.421875 30.609375 -1.421875 
Q 18.84375 -1.421875 12.171875 6.21875 
Q 5.515625 13.875 5.515625 27.296875 
Q 5.515625 40.765625 12.171875 48.375 
Q 18.84375 56 30.609375 56 
z
" id="DejaVuSans-111"/>
       <path d="M 44.28125 53.078125 
L 44.28125 44.578125 
Q 40.484375 46.53125 36.375 47.5 
Q 32.28125 48.484375 27.875 48.484375 
Q 21.1875 48.484375 17.84375 46.4375 
Q 14.5 44.390625 14.5 40.28125 
Q 14.5 37.15625 16.890625 35.375 
Q 19.28125 33.59375 26.515625 31.984375 
L 29.59375 31.296875 
Q 39.15625 29.25 43.1875 25.515625 
Q 47.21875 21.78125 47.21875 15.09375 
Q 47.21875 7.46875 41.1875 3.015625 
Q 35.15625 -1.421875 24.609375 -1.421875 
Q 20.21875 -1.421875 15.453125 -0.5625 
Q 10.6875 0.296875 5.421875 2 
L 5.421875 11.28125 
Q 10.40625 8.6875 15.234375 7.390625 
Q 20.0625 6.109375 24.8125 6.109375 
Q 31.15625 6.109375 34.5625 8.28125 
Q 37.984375 10.453125 37.984375 14.40625 
Q 37.984375 18.0625 35.515625 20.015625 
Q 33.0625 21.96875 24.703125 23.78125 
L 21.578125 24.515625 
Q 13.234375 26.265625 9.515625 29.90625 
Q 5.8125 33.546875 5.8125 39.890625 
Q 5.8125 47.609375 11.28125 51.796875 
Q 16.75 56 26.8125 56 
Q 31.78125 56 36.171875 55.265625 
Q 40.578125 54.546875 44.28125 53.078125 
z
" id="DejaVuSans-115"/>
      </defs>
      <use xlink:href="#DejaVuSans-76"/>
      <use x="53.962891" xlink:href="#DejaVuSans-111"/>
      <use x="115.144531" xlink:href="#DejaVuSans-115"/>
      <use x="167.244141" xlink:href="#DejaVuSans-115"/>
     </g>
    </g>
   </g>
   <g id="line2d_16">
    <path clip-path="url(#pc366a6451c)" d="M 66.257875 41.391125 
L 68.686207 79.735431 
L 71.193738 95.962362 
L 73.660521 93.231544 
L 76.136305 120.74285 
L 78.638835 177.649953 
L 81.11563 203.491172 
L 83.53519 210.397209 
L 85.931469 215.937837 
L 88.36744 212.575094 
L 90.748509 230.946056 
L 93.142885 243.15575 
L 95.587982 243.962583 
L 98.027289 242.467403 
L 100.49099 249.853027 
L 103.020082 246.851383 
L 105.496774 256.561587 
L 107.912205 247.866977 
L 110.34338 255.179252 
L 112.740898 255.275169 
L 115.241946 250.422887 
L 117.71764 247.500234 
L 120.109204 270.681162 
L 122.580665 253.040863 
L 127.478663 265.374684 
L 129.92256 265.216703 
L 132.374352 258.835389 
L 134.781538 263.461983 
L 137.201755 272.87033 
L 139.634824 269.200087 
L 142.049192 273.990305 
L 144.502092 272.813909 
L 146.958047 266.926286 
L 149.37012 277.113255 
L 151.8564 273.459939 
L 154.312092 274.901518 
L 156.785641 272.416134 
L 159.254562 271.124073 
L 161.709509 272.289185 
L 164.259114 277.07376 
L 166.707401 272.639001 
L 169.148071 280.114899 
L 171.638408 272.052213 
L 174.066652 282.191224 
L 176.513415 276.343097 
L 178.926164 274.08058 
L 181.396546 277.166856 
L 183.800189 275.256976 
L 186.172627 278.021648 
L 188.61031 277.685937 
L 191.073414 279.485795 
L 193.487634 278.371463 
L 195.954862 281.872441 
L 198.354174 286.609057 
L 200.816164 281.22641 
L 203.213065 277.911625 
L 205.624966 284.989749 
L 208.066013 284.614544 
L 210.498762 278.244514 
L 212.99008 288.180406 
L 215.447265 281.646753 
L 217.863193 277.011696 
L 220.328469 281.53673 
L 222.794876 279.443479 
L 225.295129 290.500756 
L 227.730799 286.391833 
L 230.176359 286.724722 
L 232.602929 288.214259 
L 235.052404 284.431173 
L 237.495634 279.05981 
L 239.934346 287.672609 
L 242.35478 287.382037 
L 244.841702 280.258775 
L 247.277206 285.665401 
L 249.692435 283.881059 
L 252.109976 290.492293 
L 254.540515 290.839287 
L 257.001072 287.297404 
L 259.463754 290.930973 
L 261.964298 287.729031 
L 264.462164 289.911147 
L 266.911177 287.256498 
L 269.3394 288.951975 
L 271.84849 287.00401 
L 274.310195 291.499423 
L 276.755844 289.94359 
L 279.120965 285.838898 
L 281.567649 290.624884 
L 284.061968 288.360956 
L 286.519563 292.352804 
L 288.983495 289.771503 
L 291.485957 293.346534 
L 293.915432 291.481086 
L 296.329792 292.890222 
L 298.734585 292.263939 
L 301.14149 295.161203 
L 303.584608 294.900252 
L 306.101374 295.41087 
L 308.542915 293.815541 
L 310.981123 297.348256 
L 313.465307 297.321455 
L 315.933734 297.032293 
L 318.385656 295.214804 
L 320.826083 298.217505 
L 323.295013 298.469993 
L 325.811636 298.125114 
L 328.33034 296.968113 
L 330.812283 300.207963 
L 333.244442 300.947619 
L 335.679667 300.078545 
L 338.130558 300.265443 
L 340.597181 301.246655 
L 343.087708 299.348764 
L 345.513799 301.551862 
L 347.945538 300.493687 
L 350.399809 300.372116 
L 355.299021 301.618774 
L 357.781308 302.230864 
L 360.249176 301.076507 
L 365.197929 302.720412 
L 367.586951 301.508399 
L 370.012738 302.654557 
L 372.468081 302.110394 
L 377.362929 303.399909 
L 379.766795 303.398841 
L 384.651552 303.128104 
L 387.142803 303.493149 
L 389.596529 303.233586 
L 392.094862 303.45707 
L 394.53946 302.888046 
L 397.02802 303.312709 
L 399.50652 303.497149 
L 404.41805 303.447174 
L 406.815283 303.36437 
L 411.774751 303.537801 
L 414.184258 303.450921 
L 423.955267 303.520842 
L 431.306463 303.528688 
L 431.306463 303.528688 
" style="fill:none;stroke:#1f77b4;stroke-linecap:square;stroke-width:1.5;"/>
   </g>
   <g id="line2d_17">
    <path clip-path="url(#pc366a6451c)" d="M 65.986022 37.825263 
L 68.043816 43.512587 
L 70.182067 54.255312 
L 72.257406 58.498237 
L 74.325983 73.506456 
L 76.389413 97.880706 
L 80.764277 132.952544 
L 82.854164 156.943125 
L 84.998729 142.815087 
L 87.108914 182.084712 
L 89.244811 183.811222 
L 91.29362 203.671722 
L 93.318939 201.437416 
L 95.412732 217.190403 
L 97.602897 219.560122 
L 99.688611 227.357625 
L 101.782237 218.273703 
L 103.856976 238.405028 
L 105.926057 226.522581 
L 110.010372 230.505966 
L 112.272979 235.809622 
L 114.330217 228.847162 
L 118.41323 246.27588 
L 120.535705 235.629072 
L 122.68455 237.660259 
L 124.737076 243.127539 
L 126.839878 249.632981 
L 129.064891 244.955608 
L 131.195767 253.435816 
L 133.319397 254.327281 
L 135.384158 254.282144 
L 137.474605 260.426486 
L 139.54669 257.898786 
L 141.591972 257.972134 
L 143.791606 247.43817 
L 145.91825 247.116566 
L 148.012781 247.787986 
L 150.120021 253.836411 
L 152.224229 251.861645 
L 154.331666 254.47962 
L 156.347671 253.723567 
L 158.422105 261.470291 
L 160.671692 260.161303 
L 162.791197 249.136469 
L 164.80999 261.069695 
L 166.865408 253.232697 
L 168.958104 253.751778 
L 171.101819 261.052769 
L 173.119875 255.540352 
L 175.296762 259.292406 
L 177.453355 267.975733 
L 179.532385 272.150952 
L 181.586941 267.264817 
L 183.593609 257.565897 
L 185.666775 268.088577 
L 187.806964 268.545594 
L 189.898213 261.842675 
L 192.086659 269.217014 
L 194.160907 259.726855 
L 196.198216 256.973467 
L 200.349244 264.703264 
L 202.38975 278.915934 
L 204.455914 271.039441 
L 206.688025 264.629916 
L 208.814044 269.022359 
L 210.878129 261.769327 
L 212.955919 259.230342 
L 214.996924 267.862889 
L 217.079317 273.35838 
L 219.139929 265.23363 
L 221.296255 270.887102 
L 223.495023 268.066008 
L 225.645361 271.462605 
L 227.768229 271.781388 
L 229.88308 264.844319 
L 231.986715 274.410648 
L 234.113634 275.587044 
L 236.183163 279.88357 
L 238.225317 274.673009 
L 240.405083 272.241227 
L 242.5157 275.722456 
L 244.542319 281.660859 
L 246.581463 279.536575 
L 248.525645 273.318884 
L 250.618059 277.186604 
L 252.681825 262.920333 
L 254.788073 279.686093 
L 256.858816 276.746513 
L 258.861298 287.90676 
L 260.904915 280.340587 
L 262.966668 280.033087 
L 265.12544 274.929729 
L 267.122183 286.95323 
L 269.176508 281.184094 
L 271.358906 280.492926 
L 273.522718 289.771503 
L 275.581278 288.445589 
L 279.849953 288.186048 
L 281.855342 284.384625 
L 283.995757 290.829413 
L 286.226951 292.794305 
L 288.293205 292.945234 
L 290.295717 290.79415 
L 292.33788 290.057844 
L 294.464007 293.783098 
L 296.574559 293.175153 
L 298.679394 293.879016 
L 300.783808 296.676835 
L 302.880697 288.191691 
L 304.904339 289.22139 
L 307.012221 292.819695 
L 309.096077 290.079002 
L 311.233497 296.806606 
L 313.295909 295.82557 
L 315.4128 296.724794 
L 317.695958 294.163241 
L 319.920024 299.440802 
L 321.967075 299.296926 
L 323.997443 300.59075 
L 326.048119 300.678733 
L 328.085107 299.272418 
L 330.107975 301.072805 
L 332.17646 301.980139 
L 334.369783 302.447912 
L 336.451302 299.470776 
L 338.485426 300.66357 
L 340.564555 300.62619 
L 342.674068 301.945581 
L 344.735819 301.006509 
L 346.837636 301.983577 
L 349.079802 300.981648 
L 351.152292 302.961659 
L 353.215948 302.388316 
L 355.29911 302.653719 
L 357.403178 302.747388 
L 359.50417 302.320654 
L 361.609104 303.230501 
L 363.682217 303.225784 
L 369.95012 302.789352 
L 372.048101 302.305402 
L 374.08089 303.25221 
L 376.213759 303.291815 
L 378.362126 302.587732 
L 378.362126 302.587732 
" style="fill:none;stroke:#ff7f0e;stroke-linecap:square;stroke-width:1.5;"/>
   </g>
   <g id="line2d_18">
    <path clip-path="url(#pc366a6451c)" d="M 66.010851 38.186362 
L 68.075373 45.363225 
L 70.164068 59.987775 
L 72.192903 60.574562 
L 74.234051 75.989019 
L 76.319826 99.483087 
L 78.45275 114.874975 
L 82.82573 156.6723 
L 84.977137 145.275081 
L 87.022254 182.355537 
L 89.133825 184.713972 
L 91.249606 204.055391 
L 93.303844 202.599706 
L 95.424377 217.596641 
L 97.644189 218.770216 
L 99.727424 226.770837 
L 101.796933 213.455275 
L 103.867614 231.23945 
L 105.887548 226.105059 
L 107.951135 232.616144 
L 110.065207 226.996525 
L 112.277333 233.473756 
L 114.352466 228.091109 
L 116.420212 240.075116 
L 118.566506 246.783677 
L 120.651229 232.525869 
L 122.683555 238.156772 
L 124.788458 240.763462 
L 126.871079 250.744492 
L 129.163195 243.150108 
L 131.209839 248.899497 
L 133.382504 256.160992 
L 135.461751 255.269527 
L 137.524411 257.7803 
L 139.531906 257.052458 
L 141.596835 253.729209 
L 143.772125 250.941969 
L 145.79389 247.584867 
L 147.84355 251.675453 
L 149.842432 248.459406 
L 151.867919 251.398986 
L 153.951835 255.162325 
L 156.079875 254.440125 
L 158.210489 261.955519 
L 160.435309 259.151352 
L 162.478123 249.232386 
L 164.573222 262.147353 
L 166.658463 251.528756 
L 168.755773 254.739161 
L 170.923569 261.176897 
L 172.942868 255.952231 
L 175.188297 256.634936 
L 177.334759 265.431106 
L 179.47991 268.675364 
L 181.572073 269.769948 
L 183.706215 257.36842 
L 185.726607 269.628894 
L 187.819116 269.54144 
L 189.921094 258.248602 
L 192.169846 269.434238 
L 194.276404 262.689003 
L 196.383636 260.426486 
L 198.442678 261.165613 
L 200.456081 267.467936 
L 202.508229 279.748157 
L 204.579652 269.059033 
L 206.731802 265.803491 
L 208.858079 269.112634 
L 210.935773 262.852627 
L 212.995677 261.086622 
L 217.136258 275.451631 
L 219.261846 261.650841 
L 221.365341 271.75882 
L 223.612451 267.394588 
L 225.683886 271.755998 
L 227.726721 270.751689 
L 229.786172 266.232297 
L 231.913685 277.886235 
L 234.01291 275.826837 
L 236.147651 276.520826 
L 238.206435 271.355403 
L 240.436341 274.455785 
L 242.471257 273.471223 
L 244.525731 281.429529 
L 246.714437 280.490105 
L 248.835397 276.281033 
L 250.914728 274.230098 
L 253.035243 260.635247 
L 255.241201 282.600283 
L 257.309201 276.509541 
L 259.376105 287.116854 
L 261.489979 279.18958 
L 263.609303 275.352893 
L 265.646016 277.82135 
L 267.655984 283.686404 
L 269.68251 282.242004 
L 271.903811 281.816019 
L 274.021767 289.173431 
L 276.081113 289.201642 
L 278.135456 288.273502 
L 280.206913 287.767116 
L 282.277248 285.421377 
L 284.379248 289.01545 
L 286.583858 290.864677 
L 288.681158 292.286508 
L 290.838085 292.052357 
L 292.991123 287.13378 
L 295.084605 294.901662 
L 297.094708 289.334234 
L 299.124437 293.539074 
L 301.263104 296.110501 
L 303.463737 287.52027 
L 305.552526 293.333134 
L 307.589909 293.326081 
L 309.625017 291.513529 
L 311.703403 295.269815 
L 313.81212 295.211982 
L 315.924135 293.719624 
L 318.08312 297.923406 
L 320.189341 298.365965 
L 324.299528 300.44758 
L 326.294188 299.556114 
L 328.352052 300.553371 
L 330.363991 301.826566 
L 332.397608 302.052077 
L 334.642377 301.724301 
L 336.708106 299.728554 
L 338.806662 301.384007 
L 340.825198 301.920984 
L 342.830221 301.709314 
L 346.967316 302.665048 
L 349.101638 300.60944 
L 351.200565 302.256915 
L 357.372395 302.644154 
L 359.515408 302.314747 
L 361.566795 302.873456 
L 363.649028 303.007656 
L 365.88648 302.650567 
L 368.05198 303.038093 
L 374.362862 302.956193 
L 376.453027 303.210114 
L 378.546098 303.009265 
L 378.546098 303.009265 
" style="fill:none;stroke:#2ca02c;stroke-linecap:square;stroke-width:1.5;"/>
   </g>
   <g id="line2d_19">
    <path clip-path="url(#pc366a6451c)" d="M 65.986977 37.012787 
L 68.033203 45.408362 
L 70.107751 65.517119 
L 72.155315 69.060412 
L 74.257172 78.742406 
L 76.304386 106.975912 
L 80.423265 145.794162 
L 82.591431 162.743294 
L 84.620594 154.957075 
L 86.655096 189.983775 
L 88.738084 184.398009 
L 90.781657 210.848584 
L 92.81151 203.084934 
L 94.831795 218.070584 
L 97.033077 220.541862 
L 99.075607 227.131937 
L 101.090031 217.811044 
L 103.210202 235.290541 
L 105.220209 231.826237 
L 107.174902 230.641378 
L 109.217139 224.886347 
L 111.425841 234.861734 
L 113.493308 226.522581 
L 115.566511 244.23905 
L 117.627628 245.773725 
L 119.751447 235.493659 
L 121.811977 234.906872 
L 123.826644 240.966581 
L 125.885948 249.903806 
L 128.135343 245.057167 
L 130.189095 249.757109 
L 132.193011 256.471312 
L 134.295778 253.67843 
L 136.417107 259.783277 
L 138.497193 255.275169 
L 140.525874 257.114522 
L 142.758339 251.551325 
L 144.888796 251.901141 
L 146.945295 250.400319 
L 149.003361 253.994392 
L 151.115844 250.941969 
L 153.153813 258.231675 
L 155.204927 257.582823 
L 157.310789 262.909048 
L 159.539882 257.54897 
L 161.606276 254.756087 
L 163.701391 263.580469 
L 165.834719 252.030911 
L 167.910649 254.40063 
L 170.029177 264.009275 
L 172.108062 257.842364 
L 174.346073 258.344519 
L 176.473996 266.153306 
L 178.607464 271.815241 
L 182.700397 259.76635 
L 184.740356 269.075959 
L 186.823416 268.30298 
L 188.959507 260.607036 
L 191.176285 272.235584 
L 193.203198 259.162636 
L 195.307788 261.633914 
L 197.386987 261.853959 
L 199.425785 266.237939 
L 201.470301 278.557655 
L 203.502305 265.340831 
L 205.692536 264.787897 
L 207.79506 271.795494 
L 209.837852 262.169922 
L 211.884496 260.990705 
L 213.945704 269.02518 
L 216.085096 273.239894 
L 218.174392 262.78492 
L 220.185086 270.949166 
L 222.362032 267.293028 
L 224.33961 273.397875 
L 226.336226 271.234096 
L 228.407497 262.141711 
L 230.548989 275.699887 
L 232.57527 277.829813 
L 234.688982 280.278523 
L 236.766196 270.966092 
L 238.931918 276.794472 
L 241.032811 272.695423 
L 243.100956 282.840076 
L 245.170237 279.138801 
L 247.22932 273.110123 
L 249.315474 273.939525 
L 251.395057 264.652484 
L 253.581539 283.21246 
L 255.59932 276.238716 
L 257.783263 286.070228 
L 259.785372 279.426552 
L 261.835928 277.443323 
L 263.93027 277.561809 
L 266.045482 286.957462 
L 268.080137 282.456407 
L 270.266806 282.315352 
L 272.292692 289.89281 
L 274.314395 288.362367 
L 276.438825 288.022425 
L 278.533166 288.379293 
L 280.687783 284.39732 
L 282.753357 291.070617 
L 284.99116 290.143888 
L 287.099952 293.842341 
L 289.186089 291.681384 
L 291.294998 292.378194 
L 293.371756 296.293167 
L 295.414623 288.122574 
L 297.491142 294.111051 
L 299.598645 297.851821 
L 301.75325 289.30038 
L 303.845062 292.994603 
L 305.961609 295.60482 
L 308.060536 292.270992 
L 310.115809 295.170371 
L 312.161031 295.667589 
L 314.194786 293.637812 
L 316.336677 295.743759 
L 318.363092 298.272164 
L 320.378263 299.710922 
L 322.469008 299.694348 
L 324.554922 300.081543 
L 326.591902 299.490876 
L 328.711404 301.308542 
L 330.768793 301.910229 
L 332.969411 301.330053 
L 335.054252 300.407027 
L 337.075659 300.769713 
L 339.08132 300.951674 
L 341.168982 301.964182 
L 343.27289 301.415568 
L 345.419678 302.656849 
L 347.617806 300.272672 
L 349.632691 303.113381 
L 351.602755 302.189605 
L 353.583952 302.670425 
L 355.540046 302.609596 
L 357.642717 302.003942 
L 359.643459 303.119861 
L 361.743137 303.06291 
L 363.914545 303.174696 
L 365.936693 303.110648 
L 367.974956 302.891969 
L 370.006792 302.498162 
L 372.069763 303.354937 
L 374.11708 302.9353 
L 376.145855 302.192955 
L 376.145855 302.192955 
" style="fill:none;stroke:#d62728;stroke-linecap:square;stroke-width:1.5;"/>
   </g>
   <g id="patch_3">
    <path d="M 47.72 303.64 
L 47.72 14.76 
" style="fill:none;stroke:#000000;stroke-linecap:square;stroke-linejoin:miter;stroke-width:0.8;"/>
   </g>
   <g id="patch_4">
    <path d="M 449.572485 303.64 
L 449.572485 14.76 
" style="fill:none;stroke:#000000;stroke-linecap:square;stroke-linejoin:miter;stroke-width:0.8;"/>
   </g>
   <g id="patch_5">
    <path d="M 47.72 303.64 
L 449.572485 303.64 
" style="fill:none;stroke:#000000;stroke-linecap:square;stroke-linejoin:miter;stroke-width:0.8;"/>
   </g>
   <g id="patch_6">
    <path d="M 47.72 14.76 
L 449.572485 14.76 
" style="fill:none;stroke:#000000;stroke-linecap:square;stroke-linejoin:miter;stroke-width:0.8;"/>
   </g>
   <g id="legend_1">
    <g id="patch_7">
     <path d="M 321.086547 81.4725 
L 442.572485 81.4725 
Q 444.572485 81.4725 444.572485 79.4725 
L 444.572485 21.76 
Q 444.572485 19.76 442.572485 19.76 
L 321.086547 19.76 
Q 319.086547 19.76 319.086547 21.76 
L 319.086547 79.4725 
Q 319.086547 81.4725 321.086547 81.4725 
z
" style="fill:#ffffff;opacity:0.8;stroke:#cccccc;stroke-linejoin:miter;"/>
    </g>
    <g id="line2d_20">
     <path d="M 323.086547 27.858437 
L 343.086547 27.858437 
" style="fill:none;stroke:#1f77b4;stroke-linecap:square;stroke-width:1.5;"/>
    </g>
    <g id="line2d_21"/>
    <g id="text_18">
     <!-- AllReduce SGD -->
     <g transform="translate(351.086547 31.358437)scale(0.1 -0.1)">
      <defs>
       <path d="M 34.1875 63.1875 
L 20.796875 26.90625 
L 47.609375 26.90625 
z
M 28.609375 72.90625 
L 39.796875 72.90625 
L 67.578125 0 
L 57.328125 0 
L 50.6875 18.703125 
L 17.828125 18.703125 
L 11.1875 0 
L 0.78125 0 
z
" id="DejaVuSans-65"/>
       <path d="M 9.421875 75.984375 
L 18.40625 75.984375 
L 18.40625 0 
L 9.421875 0 
z
" id="DejaVuSans-108"/>
       <path d="M 44.390625 34.1875 
Q 47.5625 33.109375 50.5625 29.59375 
Q 53.5625 26.078125 56.59375 19.921875 
L 66.609375 0 
L 56 0 
L 46.6875 18.703125 
Q 43.0625 26.03125 39.671875 28.421875 
Q 36.28125 30.8125 30.421875 30.8125 
L 19.671875 30.8125 
L 19.671875 0 
L 9.8125 0 
L 9.8125 72.90625 
L 32.078125 72.90625 
Q 44.578125 72.90625 50.734375 67.671875 
Q 56.890625 62.453125 56.890625 51.90625 
Q 56.890625 45.015625 53.6875 40.46875 
Q 50.484375 35.9375 44.390625 34.1875 
z
M 19.671875 64.796875 
L 19.671875 38.921875 
L 32.078125 38.921875 
Q 39.203125 38.921875 42.84375 42.21875 
Q 46.484375 45.515625 46.484375 51.90625 
Q 46.484375 58.296875 42.84375 61.546875 
Q 39.203125 64.796875 32.078125 64.796875 
z
" id="DejaVuSans-82"/>
       <path d="M 45.40625 46.390625 
L 45.40625 75.984375 
L 54.390625 75.984375 
L 54.390625 0 
L 45.40625 0 
L 45.40625 8.203125 
Q 42.578125 3.328125 38.25 0.953125 
Q 33.9375 -1.421875 27.875 -1.421875 
Q 17.96875 -1.421875 11.734375 6.484375 
Q 5.515625 14.40625 5.515625 27.296875 
Q 5.515625 40.1875 11.734375 48.09375 
Q 17.96875 56 27.875 56 
Q 33.9375 56 38.25 53.625 
Q 42.578125 51.265625 45.40625 46.390625 
z
M 14.796875 27.296875 
Q 14.796875 17.390625 18.875 11.75 
Q 22.953125 6.109375 30.078125 6.109375 
Q 37.203125 6.109375 41.296875 11.75 
Q 45.40625 17.390625 45.40625 27.296875 
Q 45.40625 37.203125 41.296875 42.84375 
Q 37.203125 48.484375 30.078125 48.484375 
Q 22.953125 48.484375 18.875 42.84375 
Q 14.796875 37.203125 14.796875 27.296875 
z
" id="DejaVuSans-100"/>
       <path d="M 8.5 21.578125 
L 8.5 54.6875 
L 17.484375 54.6875 
L 17.484375 21.921875 
Q 17.484375 14.15625 20.5 10.265625 
Q 23.53125 6.390625 29.59375 6.390625 
Q 36.859375 6.390625 41.078125 11.03125 
Q 45.3125 15.671875 45.3125 23.6875 
L 45.3125 54.6875 
L 54.296875 54.6875 
L 54.296875 0 
L 45.3125 0 
L 45.3125 8.40625 
Q 42.046875 3.421875 37.71875 1 
Q 33.40625 -1.421875 27.6875 -1.421875 
Q 18.265625 -1.421875 13.375 4.4375 
Q 8.5 10.296875 8.5 21.578125 
z
M 31.109375 56 
z
" id="DejaVuSans-117"/>
       <path d="M 48.78125 52.59375 
L 48.78125 44.1875 
Q 44.96875 46.296875 41.140625 47.34375 
Q 37.3125 48.390625 33.40625 48.390625 
Q 24.65625 48.390625 19.8125 42.84375 
Q 14.984375 37.3125 14.984375 27.296875 
Q 14.984375 17.28125 19.8125 11.734375 
Q 24.65625 6.203125 33.40625 6.203125 
Q 37.3125 6.203125 41.140625 7.25 
Q 44.96875 8.296875 48.78125 10.40625 
L 48.78125 2.09375 
Q 45.015625 0.34375 40.984375 -0.53125 
Q 36.96875 -1.421875 32.421875 -1.421875 
Q 20.0625 -1.421875 12.78125 6.34375 
Q 5.515625 14.109375 5.515625 27.296875 
Q 5.515625 40.671875 12.859375 48.328125 
Q 20.21875 56 33.015625 56 
Q 37.15625 56 41.109375 55.140625 
Q 45.0625 54.296875 48.78125 52.59375 
z
" id="DejaVuSans-99"/>
       <path id="DejaVuSans-32"/>
       <path d="M 53.515625 70.515625 
L 53.515625 60.890625 
Q 47.90625 63.578125 42.921875 64.890625 
Q 37.9375 66.21875 33.296875 66.21875 
Q 25.25 66.21875 20.875 63.09375 
Q 16.5 59.96875 16.5 54.203125 
Q 16.5 49.359375 19.40625 46.890625 
Q 22.3125 44.4375 30.421875 42.921875 
L 36.375 41.703125 
Q 47.40625 39.59375 52.65625 34.296875 
Q 57.90625 29 57.90625 20.125 
Q 57.90625 9.515625 50.796875 4.046875 
Q 43.703125 -1.421875 29.984375 -1.421875 
Q 24.8125 -1.421875 18.96875 -0.25 
Q 13.140625 0.921875 6.890625 3.21875 
L 6.890625 13.375 
Q 12.890625 10.015625 18.65625 8.296875 
Q 24.421875 6.59375 29.984375 6.59375 
Q 38.421875 6.59375 43.015625 9.90625 
Q 47.609375 13.234375 47.609375 19.390625 
Q 47.609375 24.75 44.3125 27.78125 
Q 41.015625 30.8125 33.5 32.328125 
L 27.484375 33.5 
Q 16.453125 35.6875 11.515625 40.375 
Q 6.59375 45.0625 6.59375 53.421875 
Q 6.59375 63.09375 13.40625 68.65625 
Q 20.21875 74.21875 32.171875 74.21875 
Q 37.3125 74.21875 42.625 73.28125 
Q 47.953125 72.359375 53.515625 70.515625 
z
" id="DejaVuSans-83"/>
       <path d="M 59.515625 10.40625 
L 59.515625 29.984375 
L 43.40625 29.984375 
L 43.40625 38.09375 
L 69.28125 38.09375 
L 69.28125 6.78125 
Q 63.578125 2.734375 56.6875 0.65625 
Q 49.8125 -1.421875 42 -1.421875 
Q 24.90625 -1.421875 15.25 8.5625 
Q 5.609375 18.5625 5.609375 36.375 
Q 5.609375 54.25 15.25 64.234375 
Q 24.90625 74.21875 42 74.21875 
Q 49.125 74.21875 55.546875 72.453125 
Q 61.96875 70.703125 67.390625 67.28125 
L 67.390625 56.78125 
Q 61.921875 61.421875 55.765625 63.765625 
Q 49.609375 66.109375 42.828125 66.109375 
Q 29.4375 66.109375 22.71875 58.640625 
Q 16.015625 51.171875 16.015625 36.375 
Q 16.015625 21.625 22.71875 14.15625 
Q 29.4375 6.6875 42.828125 6.6875 
Q 48.046875 6.6875 52.140625 7.59375 
Q 56.25 8.5 59.515625 10.40625 
z
" id="DejaVuSans-71"/>
       <path d="M 19.671875 64.796875 
L 19.671875 8.109375 
L 31.59375 8.109375 
Q 46.6875 8.109375 53.6875 14.9375 
Q 60.6875 21.78125 60.6875 36.53125 
Q 60.6875 51.171875 53.6875 57.984375 
Q 46.6875 64.796875 31.59375 64.796875 
z
M 9.8125 72.90625 
L 30.078125 72.90625 
Q 51.265625 72.90625 61.171875 64.09375 
Q 71.09375 55.28125 71.09375 36.53125 
Q 71.09375 17.671875 61.125 8.828125 
Q 51.171875 0 30.078125 0 
L 9.8125 0 
z
" id="DejaVuSans-68"/>
      </defs>
      <use xlink:href="#DejaVuSans-65"/>
      <use x="68.408203" xlink:href="#DejaVuSans-108"/>
      <use x="96.191406" xlink:href="#DejaVuSans-108"/>
      <use x="123.974609" xlink:href="#DejaVuSans-82"/>
      <use x="188.957031" xlink:href="#DejaVuSans-101"/>
      <use x="250.480469" xlink:href="#DejaVuSans-100"/>
      <use x="313.957031" xlink:href="#DejaVuSans-117"/>
      <use x="377.335938" xlink:href="#DejaVuSans-99"/>
      <use x="432.316406" xlink:href="#DejaVuSans-101"/>
      <use x="493.839844" xlink:href="#DejaVuSans-32"/>
      <use x="525.626953" xlink:href="#DejaVuSans-83"/>
      <use x="589.103516" xlink:href="#DejaVuSans-71"/>
      <use x="666.59375" xlink:href="#DejaVuSans-68"/>
     </g>
    </g>
    <g id="line2d_22">
     <path d="M 323.086547 42.536563 
L 343.086547 42.536563 
" style="fill:none;stroke:#ff7f0e;stroke-linecap:square;stroke-width:1.5;"/>
    </g>
    <g id="line2d_23"/>
    <g id="text_19">
     <!-- GRandK-MN 8 bits -->
     <g transform="translate(351.086547 46.036563)scale(0.1 -0.1)">
      <defs>
       <path d="M 34.28125 27.484375 
Q 23.390625 27.484375 19.1875 25 
Q 14.984375 22.515625 14.984375 16.5 
Q 14.984375 11.71875 18.140625 8.90625 
Q 21.296875 6.109375 26.703125 6.109375 
Q 34.1875 6.109375 38.703125 11.40625 
Q 43.21875 16.703125 43.21875 25.484375 
L 43.21875 27.484375 
z
M 52.203125 31.203125 
L 52.203125 0 
L 43.21875 0 
L 43.21875 8.296875 
Q 40.140625 3.328125 35.546875 0.953125 
Q 30.953125 -1.421875 24.3125 -1.421875 
Q 15.921875 -1.421875 10.953125 3.296875 
Q 6 8.015625 6 15.921875 
Q 6 25.140625 12.171875 29.828125 
Q 18.359375 34.515625 30.609375 34.515625 
L 43.21875 34.515625 
L 43.21875 35.40625 
Q 43.21875 41.609375 39.140625 45 
Q 35.0625 48.390625 27.6875 48.390625 
Q 23 48.390625 18.546875 47.265625 
Q 14.109375 46.140625 10.015625 43.890625 
L 10.015625 52.203125 
Q 14.9375 54.109375 19.578125 55.046875 
Q 24.21875 56 28.609375 56 
Q 40.484375 56 46.34375 49.84375 
Q 52.203125 43.703125 52.203125 31.203125 
z
" id="DejaVuSans-97"/>
       <path d="M 54.890625 33.015625 
L 54.890625 0 
L 45.90625 0 
L 45.90625 32.71875 
Q 45.90625 40.484375 42.875 44.328125 
Q 39.84375 48.1875 33.796875 48.1875 
Q 26.515625 48.1875 22.3125 43.546875 
Q 18.109375 38.921875 18.109375 30.90625 
L 18.109375 0 
L 9.078125 0 
L 9.078125 54.6875 
L 18.109375 54.6875 
L 18.109375 46.1875 
Q 21.34375 51.125 25.703125 53.5625 
Q 30.078125 56 35.796875 56 
Q 45.21875 56 50.046875 50.171875 
Q 54.890625 44.34375 54.890625 33.015625 
z
" id="DejaVuSans-110"/>
       <path d="M 9.8125 72.90625 
L 19.671875 72.90625 
L 19.671875 42.09375 
L 52.390625 72.90625 
L 65.09375 72.90625 
L 28.90625 38.921875 
L 67.671875 0 
L 54.6875 0 
L 19.671875 35.109375 
L 19.671875 0 
L 9.8125 0 
z
" id="DejaVuSans-75"/>
       <path d="M 4.890625 31.390625 
L 31.203125 31.390625 
L 31.203125 23.390625 
L 4.890625 23.390625 
z
" id="DejaVuSans-45"/>
       <path d="M 9.8125 72.90625 
L 24.515625 72.90625 
L 43.109375 23.296875 
L 61.8125 72.90625 
L 76.515625 72.90625 
L 76.515625 0 
L 66.890625 0 
L 66.890625 64.015625 
L 48.09375 14.015625 
L 38.1875 14.015625 
L 19.390625 64.015625 
L 19.390625 0 
L 9.8125 0 
z
" id="DejaVuSans-77"/>
       <path d="M 9.8125 72.90625 
L 23.09375 72.90625 
L 55.421875 11.921875 
L 55.421875 72.90625 
L 64.984375 72.90625 
L 64.984375 0 
L 51.703125 0 
L 19.390625 60.984375 
L 19.390625 0 
L 9.8125 0 
z
" id="DejaVuSans-78"/>
       <path d="M 31.78125 34.625 
Q 24.75 34.625 20.71875 30.859375 
Q 16.703125 27.09375 16.703125 20.515625 
Q 16.703125 13.921875 20.71875 10.15625 
Q 24.75 6.390625 31.78125 6.390625 
Q 38.8125 6.390625 42.859375 10.171875 
Q 46.921875 13.96875 46.921875 20.515625 
Q 46.921875 27.09375 42.890625 30.859375 
Q 38.875 34.625 31.78125 34.625 
z
M 21.921875 38.8125 
Q 15.578125 40.375 12.03125 44.71875 
Q 8.5 49.078125 8.5 55.328125 
Q 8.5 64.0625 14.71875 69.140625 
Q 20.953125 74.21875 31.78125 74.21875 
Q 42.671875 74.21875 48.875 69.140625 
Q 55.078125 64.0625 55.078125 55.328125 
Q 55.078125 49.078125 51.53125 44.71875 
Q 48 40.375 41.703125 38.8125 
Q 48.828125 37.15625 52.796875 32.3125 
Q 56.78125 27.484375 56.78125 20.515625 
Q 56.78125 9.90625 50.3125 4.234375 
Q 43.84375 -1.421875 31.78125 -1.421875 
Q 19.734375 -1.421875 13.25 4.234375 
Q 6.78125 9.90625 6.78125 20.515625 
Q 6.78125 27.484375 10.78125 32.3125 
Q 14.796875 37.15625 21.921875 38.8125 
z
M 18.3125 54.390625 
Q 18.3125 48.734375 21.84375 45.5625 
Q 25.390625 42.390625 31.78125 42.390625 
Q 38.140625 42.390625 41.71875 45.5625 
Q 45.3125 48.734375 45.3125 54.390625 
Q 45.3125 60.0625 41.71875 63.234375 
Q 38.140625 66.40625 31.78125 66.40625 
Q 25.390625 66.40625 21.84375 63.234375 
Q 18.3125 60.0625 18.3125 54.390625 
z
" id="DejaVuSans-56"/>
       <path d="M 48.6875 27.296875 
Q 48.6875 37.203125 44.609375 42.84375 
Q 40.53125 48.484375 33.40625 48.484375 
Q 26.265625 48.484375 22.1875 42.84375 
Q 18.109375 37.203125 18.109375 27.296875 
Q 18.109375 17.390625 22.1875 11.75 
Q 26.265625 6.109375 33.40625 6.109375 
Q 40.53125 6.109375 44.609375 11.75 
Q 48.6875 17.390625 48.6875 27.296875 
z
M 18.109375 46.390625 
Q 20.953125 51.265625 25.265625 53.625 
Q 29.59375 56 35.59375 56 
Q 45.5625 56 51.78125 48.09375 
Q 58.015625 40.1875 58.015625 27.296875 
Q 58.015625 14.40625 51.78125 6.484375 
Q 45.5625 -1.421875 35.59375 -1.421875 
Q 29.59375 -1.421875 25.265625 0.953125 
Q 20.953125 3.328125 18.109375 8.203125 
L 18.109375 0 
L 9.078125 0 
L 9.078125 75.984375 
L 18.109375 75.984375 
z
" id="DejaVuSans-98"/>
       <path d="M 18.3125 70.21875 
L 18.3125 54.6875 
L 36.8125 54.6875 
L 36.8125 47.703125 
L 18.3125 47.703125 
L 18.3125 18.015625 
Q 18.3125 11.328125 20.140625 9.421875 
Q 21.96875 7.515625 27.59375 7.515625 
L 36.8125 7.515625 
L 36.8125 0 
L 27.59375 0 
Q 17.1875 0 13.234375 3.875 
Q 9.28125 7.765625 9.28125 18.015625 
L 9.28125 47.703125 
L 2.6875 47.703125 
L 2.6875 54.6875 
L 9.28125 54.6875 
L 9.28125 70.21875 
z
" id="DejaVuSans-116"/>
      </defs>
      <use xlink:href="#DejaVuSans-71"/>
      <use x="77.490234" xlink:href="#DejaVuSans-82"/>
      <use x="144.722656" xlink:href="#DejaVuSans-97"/>
      <use x="206.001953" xlink:href="#DejaVuSans-110"/>
      <use x="269.380859" xlink:href="#DejaVuSans-100"/>
      <use x="332.857422" xlink:href="#DejaVuSans-75"/>
      <use x="387.933594" xlink:href="#DejaVuSans-45"/>
      <use x="424.017578" xlink:href="#DejaVuSans-77"/>
      <use x="510.296875" xlink:href="#DejaVuSans-78"/>
      <use x="585.101562" xlink:href="#DejaVuSans-32"/>
      <use x="616.888672" xlink:href="#DejaVuSans-56"/>
      <use x="680.511719" xlink:href="#DejaVuSans-32"/>
      <use x="712.298828" xlink:href="#DejaVuSans-98"/>
      <use x="775.775391" xlink:href="#DejaVuSans-105"/>
      <use x="803.558594" xlink:href="#DejaVuSans-116"/>
      <use x="842.767578" xlink:href="#DejaVuSans-115"/>
     </g>
    </g>
    <g id="line2d_24">
     <path d="M 323.086547 57.214687 
L 343.086547 57.214687 
" style="fill:none;stroke:#2ca02c;stroke-linecap:square;stroke-width:1.5;"/>
    </g>
    <g id="line2d_25"/>
    <g id="text_20">
     <!-- GRandK-MN 4 bits -->
     <g transform="translate(351.086547 60.714687)scale(0.1 -0.1)">
      <defs>
       <path d="M 37.796875 64.3125 
L 12.890625 25.390625 
L 37.796875 25.390625 
z
M 35.203125 72.90625 
L 47.609375 72.90625 
L 47.609375 25.390625 
L 58.015625 25.390625 
L 58.015625 17.1875 
L 47.609375 17.1875 
L 47.609375 0 
L 37.796875 0 
L 37.796875 17.1875 
L 4.890625 17.1875 
L 4.890625 26.703125 
z
" id="DejaVuSans-52"/>
      </defs>
      <use xlink:href="#DejaVuSans-71"/>
      <use x="77.490234" xlink:href="#DejaVuSans-82"/>
      <use x="144.722656" xlink:href="#DejaVuSans-97"/>
      <use x="206.001953" xlink:href="#DejaVuSans-110"/>
      <use x="269.380859" xlink:href="#DejaVuSans-100"/>
      <use x="332.857422" xlink:href="#DejaVuSans-75"/>
      <use x="387.933594" xlink:href="#DejaVuSans-45"/>
      <use x="424.017578" xlink:href="#DejaVuSans-77"/>
      <use x="510.296875" xlink:href="#DejaVuSans-78"/>
      <use x="585.101562" xlink:href="#DejaVuSans-32"/>
      <use x="616.888672" xlink:href="#DejaVuSans-52"/>
      <use x="680.511719" xlink:href="#DejaVuSans-32"/>
      <use x="712.298828" xlink:href="#DejaVuSans-98"/>
      <use x="775.775391" xlink:href="#DejaVuSans-105"/>
      <use x="803.558594" xlink:href="#DejaVuSans-116"/>
      <use x="842.767578" xlink:href="#DejaVuSans-115"/>
     </g>
    </g>
    <g id="line2d_26">
     <path d="M 323.086547 71.892812 
L 343.086547 71.892812 
" style="fill:none;stroke:#d62728;stroke-linecap:square;stroke-width:1.5;"/>
    </g>
    <g id="line2d_27"/>
    <g id="text_21">
     <!-- GRandK-MN 2 bits -->
     <g transform="translate(351.086547 75.392812)scale(0.1 -0.1)">
      <use xlink:href="#DejaVuSans-71"/>
      <use x="77.490234" xlink:href="#DejaVuSans-82"/>
      <use x="144.722656" xlink:href="#DejaVuSans-97"/>
      <use x="206.001953" xlink:href="#DejaVuSans-110"/>
      <use x="269.380859" xlink:href="#DejaVuSans-100"/>
      <use x="332.857422" xlink:href="#DejaVuSans-75"/>
      <use x="387.933594" xlink:href="#DejaVuSans-45"/>
      <use x="424.017578" xlink:href="#DejaVuSans-77"/>
      <use x="510.296875" xlink:href="#DejaVuSans-78"/>
      <use x="585.101562" xlink:href="#DejaVuSans-32"/>
      <use x="616.888672" xlink:href="#DejaVuSans-50"/>
      <use x="680.511719" xlink:href="#DejaVuSans-32"/>
      <use x="712.298828" xlink:href="#DejaVuSans-98"/>
      <use x="775.775391" xlink:href="#DejaVuSans-105"/>
      <use x="803.558594" xlink:href="#DejaVuSans-116"/>
      <use x="842.767578" xlink:href="#DejaVuSans-115"/>
     </g>
    </g>
   </g>
  </g>
 </g>
 <defs>
  <clipPath id="pc366a6451c">
   <rect height="288.88" width="401.852485" x="47.72" y="14.76"/>
  </clipPath>
 </defs>
</svg>
