<?xml version="1.0" encoding="utf-8" standalone="no"?>
<!DOCTYPE svg PUBLIC "-//W3C//DTD SVG 1.1//EN"
  "http://www.w3.org/Graphics/SVG/1.1/DTD/svg11.dtd">
<!-- Created with matplotlib (https://matplotlib.org/) -->
<svg height="345.6pt" version="1.1" viewBox="0 0 460.8 345.6" width="460.8pt" xmlns="http://www.w3.org/2000/svg" xmlns:xlink="http://www.w3.org/1999/xlink">
 <metadata>
  <rdf:RDF xmlns:cc="http://creativecommons.org/ns#" xmlns:dc="http://purl.org/dc/elements/1.1/" xmlns:rdf="http://www.w3.org/1999/02/22-rdf-syntax-ns#">
   <cc:Work>
    <dc:type rdf:resource="http://purl.org/dc/dcmitype/StillImage"/>
    <dc:date>2021-06-10T08:56:22.256837</dc:date>
    <dc:format>image/svg+xml</dc:format>
    <dc:creator>
     <cc:Agent>
      <dc:title>Matplotlib v3.3.1, https://matplotlib.org/</dc:title>
     </cc:Agent>
    </dc:creator>
   </cc:Work>
  </rdf:RDF>
 </metadata>
 <defs>
  <style type="text/css">*{stroke-linecap:butt;stroke-linejoin:round;}</style>
 </defs>
 <g id="figure_1">
  <g id="patch_1">
   <path d="M 0 345.6 
L 460.8 345.6 
L 460.8 0 
L 0 0 
z
" style="fill:#ffffff;"/>
  </g>
  <g id="axes_1">
   <g id="patch_2">
    <path d="M 47.72 303.64 
L 450 303.64 
L 450 14.76 
L 47.72 14.76 
z
" style="fill:#ffffff;"/>
   </g>
   <g id="PolyCollection_1">
    <path clip-path="url(#pc4d5b1f76e)" d="M 66.09407 36.705705 
L 66.09407 52.756895 
L 68.562692 76.283789 
L 71.029721 90.849332 
L 73.485219 99.001384 
L 75.931124 117.993606 
L 78.391623 148.26022 
L 80.849123 162.338697 
L 83.31044 172.467608 
L 85.778969 184.658613 
L 88.224985 170.8425 
L 90.676611 200.999982 
L 93.122825 202.858666 
L 95.572865 220.928591 
L 98.032608 221.339344 
L 100.457898 230.577193 
L 102.921419 231.147217 
L 105.36453 245.418758 
L 107.813466 231.678067 
L 110.281629 243.289598 
L 112.73132 243.592336 
L 115.174076 236.957601 
L 117.62355 241.358429 
L 120.093313 254.780084 
L 122.534402 248.134076 
L 124.983239 258.897849 
L 127.418151 256.025969 
L 129.8815 259.807077 
L 132.326069 259.305021 
L 134.773884 263.207871 
L 137.241025 263.50163 
L 139.692988 258.679798 
L 142.149267 263.775357 
L 144.586718 272.363457 
L 147.044919 265.177781 
L 149.502591 281.592939 
L 151.939539 271.593068 
L 154.377051 271.587978 
L 156.85722 265.659388 
L 159.293004 265.452992 
L 161.749073 272.205149 
L 164.195413 270.638349 
L 166.646444 271.025714 
L 169.086978 271.140167 
L 171.521833 271.583867 
L 173.992887 277.745464 
L 176.452571 269.124544 
L 178.905606 267.908454 
L 181.356326 279.132672 
L 183.823416 273.333675 
L 186.293818 275.891027 
L 188.733302 274.514894 
L 191.183631 279.095973 
L 193.627372 274.650874 
L 196.085307 281.540878 
L 198.540468 282.243853 
L 200.993963 282.664729 
L 203.445989 275.066041 
L 205.922147 285.556254 
L 208.355277 284.387465 
L 210.804683 278.18504 
L 213.251214 281.411013 
L 215.700893 277.190988 
L 218.147813 279.965614 
L 220.618874 280.05521 
L 223.05917 280.085236 
L 225.528577 287.704561 
L 227.979589 285.91601 
L 230.416059 285.551135 
L 232.871955 282.550617 
L 235.30756 278.432467 
L 237.765483 276.022231 
L 240.213459 283.48046 
L 242.673645 287.658729 
L 245.120342 280.738932 
L 247.571098 285.628669 
L 250.025526 284.425706 
L 252.482719 287.984519 
L 254.927082 288.821359 
L 257.366515 287.306359 
L 259.832272 289.651866 
L 262.281092 290.041378 
L 264.741539 294.595242 
L 267.17943 290.568084 
L 269.624853 289.770772 
L 272.070867 284.134268 
L 274.529383 292.474904 
L 276.992091 290.828825 
L 279.475586 292.027236 
L 281.930576 291.910754 
L 284.393145 287.12802 
L 286.82739 297.155058 
L 289.292224 291.08559 
L 291.765915 297.171884 
L 294.218759 292.860705 
L 296.683607 293.573299 
L 299.134807 296.578327 
L 301.590828 295.532302 
L 304.053775 295.547367 
L 306.507116 292.226036 
L 308.972046 296.219477 
L 311.43209 300.365351 
L 313.891857 297.329727 
L 316.328459 298.5765 
L 318.783594 298.329908 
L 321.235794 297.779101 
L 323.699618 299.484721 
L 326.160166 298.570961 
L 328.603305 299.875423 
L 331.060196 300.576075 
L 333.513732 301.134841 
L 335.99807 298.359225 
L 338.443951 300.016902 
L 340.890311 302.261894 
L 343.336702 302.039859 
L 345.793372 301.852002 
L 348.220408 302.291347 
L 350.682072 302.670829 
L 353.132495 302.802904 
L 355.595814 302.619212 
L 358.047703 302.916903 
L 360.494282 302.844699 
L 362.954801 302.683768 
L 365.406438 303.472301 
L 367.883028 303.832087 
L 370.34405 303.492126 
L 372.796665 303.427211 
L 375.233106 303.584801 
L 377.678843 303.451279 
L 380.131983 303.549949 
L 382.600425 303.523129 
L 385.03365 303.556815 
L 387.488748 303.457428 
L 389.931526 303.527084 
L 392.383037 303.529021 
L 394.832546 303.512329 
L 397.30769 303.598676 
L 399.754469 303.589367 
L 402.220331 303.59475 
L 404.696837 303.569425 
L 407.14528 303.472827 
L 409.593338 303.514348 
L 412.048779 303.647131 
L 414.521532 303.53199 
L 416.972902 303.576429 
L 419.42365 303.574956 
L 421.885146 303.558061 
L 424.34751 303.489432 
L 426.807288 303.547601 
L 429.265093 303.569633 
L 431.714545 303.555699 
L 431.714545 303.387776 
L 431.714545 303.387776 
L 429.265093 303.31235 
L 426.807288 303.483812 
L 424.34751 303.384022 
L 421.885146 303.51115 
L 419.42365 303.527932 
L 416.972902 303.515483 
L 414.521532 303.337387 
L 412.048779 303.164457 
L 409.593338 303.303544 
L 407.14528 303.124028 
L 404.696837 303.424895 
L 402.220331 303.330872 
L 399.754469 303.407763 
L 397.30769 302.871802 
L 394.832546 303.426495 
L 392.383037 303.463801 
L 389.931526 303.343901 
L 387.488748 303.138721 
L 385.03365 303.3227 
L 382.600425 302.921255 
L 380.131983 303.260361 
L 377.678843 303.347857 
L 375.233106 303.064993 
L 372.796665 303.182074 
L 370.34405 302.937006 
L 367.883028 302.184504 
L 365.406438 302.658809 
L 362.954801 301.881105 
L 360.494282 302.022737 
L 358.047703 301.149871 
L 355.595814 301.539776 
L 353.132495 299.232683 
L 350.682072 301.424509 
L 348.220408 299.419813 
L 345.793372 298.859434 
L 343.336702 300.302874 
L 340.890311 301.15356 
L 338.443951 298.567782 
L 335.99807 296.163789 
L 333.513732 299.703896 
L 331.060196 299.08274 
L 328.603305 297.807216 
L 326.160166 296.454207 
L 323.699618 296.13852 
L 321.235794 293.424896 
L 318.783594 294.302973 
L 316.328459 295.296252 
L 313.891857 294.386299 
L 311.43209 297.134623 
L 308.972046 290.813533 
L 306.507116 290.267835 
L 304.053775 288.091867 
L 301.590828 288.673972 
L 299.134807 293.055731 
L 296.683607 288.759769 
L 294.218759 289.777041 
L 291.765915 291.683552 
L 289.292224 285.952285 
L 286.82739 291.340689 
L 284.393145 279.957037 
L 281.930576 287.722527 
L 279.475586 288.048957 
L 276.992091 285.469923 
L 274.529383 288.159866 
L 272.070867 282.347074 
L 269.624853 280.019713 
L 267.17943 286.18486 
L 264.741539 292.990702 
L 262.281092 284.584461 
L 259.832272 284.818813 
L 257.366515 285.087996 
L 254.927082 285.49134 
L 252.482719 285.594695 
L 250.025526 279.426377 
L 247.571098 282.020606 
L 245.120342 269.662176 
L 242.673645 280.678893 
L 240.213459 277.62952 
L 237.765483 270.688886 
L 235.30756 272.939097 
L 232.871955 280.663898 
L 230.416059 279.372963 
L 227.979589 280.074462 
L 225.528577 283.877319 
L 223.05917 276.178104 
L 220.618874 269.488286 
L 218.147813 274.125484 
L 215.700893 272.493562 
L 213.251214 273.848019 
L 210.804683 270.991713 
L 208.355277 276.147012 
L 205.922147 278.521516 
L 203.445989 267.644765 
L 200.993963 279.438276 
L 198.540468 277.088838 
L 196.085307 278.124702 
L 193.627372 269.876717 
L 191.183631 272.06683 
L 188.733302 268.568296 
L 186.293818 271.846968 
L 183.823416 268.790344 
L 181.356326 273.485815 
L 178.905606 261.20468 
L 176.452571 264.863441 
L 173.992887 274.455502 
L 171.521833 267.109702 
L 169.086978 267.39542 
L 166.646444 268.186936 
L 164.195413 264.861741 
L 161.749073 264.32182 
L 159.293004 262.565558 
L 156.85722 259.176969 
L 154.377051 265.604769 
L 151.939539 265.159588 
L 149.502591 272.52637 
L 147.044919 258.462431 
L 144.586718 264.581033 
L 142.149267 251.20974 
L 139.692988 255.56053 
L 137.241025 260.567389 
L 134.773884 250.829338 
L 132.326069 247.814867 
L 129.8815 247.143545 
L 127.418151 251.940246 
L 124.983239 250.287079 
L 122.534402 240.242465 
L 120.093313 243.583129 
L 117.62355 232.134021 
L 115.174076 225.769555 
L 112.73132 235.011936 
L 110.281629 235.235684 
L 107.813466 224.594427 
L 105.36453 236.345138 
L 102.921419 215.804383 
L 100.457898 209.671488 
L 98.032608 204.623318 
L 95.572865 200.407478 
L 93.122825 191.891415 
L 90.676611 183.07508 
L 88.224985 147.5575 
L 85.778969 154.4595 
L 83.31044 140.470755 
L 80.849123 132.228703 
L 78.391623 115.07203 
L 75.931124 94.017307 
L 73.485219 79.382091 
L 71.029721 75.572705 
L 68.562692 50.372111 
L 66.09407 36.705705 
z
" style="fill:#1f77b4;fill-opacity:0.25;"/>
   </g>
   <g id="PolyCollection_2">
    <path clip-path="url(#pc4d5b1f76e)" d="M 66.037104 49.895865 
L 66.037104 54.191285 
L 68.34907 88.645211 
L 70.678061 105.935613 
L 72.981661 105.174897 
L 75.285459 119.869435 
L 77.579847 147.034418 
L 79.923636 161.483319 
L 82.254789 167.981517 
L 84.569668 168.553212 
L 86.878997 160.709805 
L 89.211206 185.643514 
L 91.55992 190.908873 
L 93.893096 199.297911 
L 96.225752 196.484142 
L 98.581167 214.885756 
L 100.900897 215.670251 
L 103.20283 226.079963 
L 105.542366 213.908089 
L 107.865716 228.330833 
L 110.176979 226.952045 
L 112.514311 221.304882 
L 114.841363 226.082573 
L 117.18672 233.771415 
L 119.491289 230.809763 
L 121.864187 231.245085 
L 124.191264 243.800823 
L 126.503357 234.750919 
L 128.838569 242.673805 
L 131.134312 245.226148 
L 133.465404 249.41939 
L 135.786729 245.599446 
L 138.106684 247.414324 
L 140.459389 256.499492 
L 142.777684 251.509865 
L 145.069829 260.023538 
L 147.394481 259.343063 
L 149.774769 258.849516 
L 152.080856 246.39054 
L 154.412128 245.143544 
L 156.712746 252.834896 
L 159.076444 250.992161 
L 161.416991 249.826053 
L 163.744123 252.962024 
L 166.110518 255.280666 
L 168.45399 262.479905 
L 170.789254 255.626932 
L 173.146799 257.174926 
L 175.503069 260.086797 
L 177.895065 262.104732 
L 180.192583 256.289901 
L 182.564679 258.810383 
L 184.906571 258.267544 
L 187.21788 258.775391 
L 189.539131 268.474747 
L 191.855058 267.775011 
L 194.178839 269.768623 
L 196.501174 258.766996 
L 198.845217 271.981914 
L 201.201214 270.929626 
L 203.530519 261.388463 
L 205.908425 272.495349 
L 208.258757 258.467508 
L 210.616805 262.607393 
L 212.934511 267.866148 
L 215.285062 264.891998 
L 217.631229 277.638493 
L 219.932304 270.884929 
L 222.29236 269.808931 
L 224.627508 271.435056 
L 226.995717 262.975613 
L 229.327344 258.224915 
L 231.666647 270.514825 
L 234.031779 276.429767 
L 236.390099 265.042922 
L 238.718044 269.779457 
L 241.081939 268.870938 
L 243.412952 277.746732 
L 245.731445 273.960084 
L 248.086894 273.275763 
L 250.418147 276.217295 
L 252.761716 277.716204 
L 255.09547 280.411057 
L 257.453935 274.752221 
L 259.803019 274.961439 
L 262.184564 270.322467 
L 264.511562 278.618925 
L 266.81185 277.665951 
L 269.159901 277.755959 
L 271.487731 277.625438 
L 273.8263 267.416841 
L 276.165637 284.214434 
L 278.483101 278.242744 
L 280.848751 287.271842 
L 283.190142 282.025088 
L 285.510763 282.328471 
L 287.826132 273.655305 
L 290.20055 281.463352 
L 292.53597 284.998284 
L 294.879875 283.258181 
L 297.206804 287.498279 
L 299.56879 292.083387 
L 301.910501 288.397552 
L 304.263662 288.773828 
L 306.576266 289.198043 
L 308.891849 288.966943 
L 311.217386 291.671665 
L 313.55282 289.86118 
L 315.867569 290.546567 
L 318.216162 292.461152 
L 320.580367 294.443661 
L 322.929922 292.888918 
L 325.252694 294.681016 
L 327.558339 297.372148 
L 329.896834 290.379555 
L 332.225728 293.975026 
L 334.537055 296.945058 
L 336.874453 295.426686 
L 339.201033 298.643487 
L 341.581653 296.709339 
L 343.907646 295.703826 
L 346.287182 298.04105 
L 348.627283 299.215733 
L 350.973841 300.710367 
L 353.330326 301.488917 
L 355.663964 298.61611 
L 358.019985 302.172032 
L 360.361872 302.142132 
L 362.692675 302.142107 
L 365.032632 302.751707 
L 367.346074 302.709565 
L 369.661417 302.336184 
L 372.01248 302.289287 
L 374.413874 302.236375 
L 376.747749 302.225346 
L 379.073369 302.919489 
L 381.399362 302.353842 
L 383.73061 303.454496 
L 386.079387 302.243916 
L 388.422794 303.221296 
L 390.763982 303.26144 
L 393.092167 302.959778 
L 395.433048 303.476789 
L 397.800001 303.076884 
L 400.134585 303.069967 
L 402.511813 303.29743 
L 404.843465 303.374735 
L 407.196315 302.932388 
L 409.52506 303.416145 
L 411.87478 302.982381 
L 414.210701 303.219721 
L 414.210701 302.213785 
L 414.210701 302.213785 
L 411.87478 302.419299 
L 409.52506 302.915174 
L 407.196315 302.712611 
L 404.843465 303.019265 
L 402.511813 302.451421 
L 400.134585 302.870366 
L 397.800001 302.657686 
L 395.433048 302.249053 
L 393.092167 302.412105 
L 390.763982 300.974424 
L 388.422794 301.778026 
L 386.079387 301.153201 
L 383.73061 302.986757 
L 381.399362 301.460797 
L 379.073369 301.411763 
L 376.747749 300.996511 
L 374.413874 300.192049 
L 372.01248 300.837005 
L 369.661417 301.379364 
L 367.346074 301.917549 
L 365.032632 301.705965 
L 362.692675 300.646712 
L 360.361872 298.502656 
L 358.019985 300.363241 
L 355.663964 296.251077 
L 353.330326 299.282114 
L 350.973841 299.213631 
L 348.627283 294.494806 
L 346.287182 294.656717 
L 343.907646 290.900378 
L 341.581653 294.402973 
L 339.201033 294.646709 
L 336.874453 289.188646 
L 334.537055 294.222265 
L 332.225728 290.671339 
L 329.896834 288.286091 
L 327.558339 293.130808 
L 325.252694 293.469147 
L 322.929922 289.478003 
L 320.580367 292.369304 
L 318.216162 289.248455 
L 315.867569 286.276905 
L 313.55282 286.970755 
L 311.217386 285.704741 
L 308.891849 285.515021 
L 306.576266 286.683184 
L 304.263662 283.140941 
L 301.910501 284.132215 
L 299.56879 288.748859 
L 297.206804 283.846629 
L 294.879875 279.50496 
L 292.53597 279.852466 
L 290.20055 278.822868 
L 287.826132 268.288164 
L 285.510763 279.701186 
L 283.190142 275.423112 
L 280.848751 284.49623 
L 278.483101 273.410929 
L 276.165637 282.836769 
L 273.8263 262.158952 
L 271.487731 271.545673 
L 269.159901 272.532305 
L 266.81185 274.501162 
L 264.511562 277.407444 
L 262.184564 264.049186 
L 259.803019 272.612933 
L 257.453935 269.465049 
L 255.09547 273.002979 
L 252.761716 270.563441 
L 250.418147 270.285061 
L 248.086894 261.609329 
L 245.731445 271.06402 
L 243.412952 271.32282 
L 241.081939 264.857506 
L 238.718044 263.757152 
L 236.390099 261.50866 
L 234.031779 271.838594 
L 231.666647 264.928843 
L 229.327344 251.874047 
L 226.995717 259.073503 
L 224.627508 267.540622 
L 222.29236 265.149509 
L 219.932304 267.853777 
L 217.631229 273.535594 
L 215.285062 259.402709 
L 212.934511 258.143783 
L 210.616805 260.434748 
L 208.258757 252.150536 
L 205.908425 268.940323 
L 203.530519 256.846534 
L 201.201214 263.013221 
L 198.845217 265.007714 
L 196.501174 254.175629 
L 194.178839 264.749727 
L 191.855058 261.597664 
L 189.539131 261.078478 
L 187.21788 253.87384 
L 184.906571 253.828753 
L 182.564679 254.346646 
L 180.192583 245.797155 
L 177.895065 255.385496 
L 175.503069 251.670968 
L 173.146799 252.134131 
L 170.789254 252.485981 
L 168.45399 254.739498 
L 166.110518 250.23684 
L 163.744123 249.192739 
L 161.416991 245.321113 
L 159.076444 242.812164 
L 156.712746 242.944195 
L 154.412128 235.740172 
L 152.080856 238.273442 
L 149.774769 250.448256 
L 147.394481 251.579659 
L 145.069829 252.287162 
L 142.777684 243.716291 
L 140.459389 249.514527 
L 138.106684 242.632304 
L 135.786729 238.105363 
L 133.465404 242.286041 
L 131.134312 239.753796 
L 128.838569 233.052951 
L 126.503357 229.601187 
L 124.191264 233.821709 
L 121.864187 226.787771 
L 119.491289 221.987143 
L 117.18672 224.870797 
L 114.841363 216.784083 
L 112.514311 212.286018 
L 110.176979 221.331112 
L 107.865716 224.533779 
L 105.542366 207.179724 
L 103.20283 220.036593 
L 100.900897 208.983424 
L 98.581167 197.874188 
L 96.225752 183.686527 
L 93.893096 190.825577 
L 91.55992 183.39392 
L 89.211206 179.880036 
L 86.878997 151.416083 
L 84.569668 158.513188 
L 82.254789 155.654433 
L 79.923636 149.649544 
L 77.579847 139.09227 
L 75.285459 110.377028 
L 72.981661 100.96814 
L 70.678061 92.3535 
L 68.34907 70.058314 
L 66.037104 49.895865 
z
" style="fill:#ff7f0e;fill-opacity:0.25;"/>
   </g>
   <g id="PolyCollection_3">
    <path clip-path="url(#pc4d5b1f76e)" d="M 66.006968 47.00226 
L 66.006968 62.32084 
L 68.352006 100.160001 
L 70.701582 110.487552 
L 73.017115 114.056532 
L 75.341737 128.964354 
L 77.678049 158.182934 
L 80.012724 171.157004 
L 82.348766 170.644135 
L 84.676067 180.625297 
L 87.010808 163.074238 
L 89.35434 193.869509 
L 91.704503 192.281617 
L 94.080835 201.994143 
L 96.410851 198.685747 
L 98.739099 208.771404 
L 101.073594 214.037615 
L 103.393509 226.927899 
L 105.703499 212.112183 
L 108.023499 228.837992 
L 110.356824 226.268145 
L 112.659681 218.206143 
L 115.002483 230.361175 
L 117.301943 233.067403 
L 119.636877 232.065915 
L 121.982143 236.516038 
L 124.317693 244.195999 
L 126.628734 241.317869 
L 128.959443 240.48037 
L 131.294285 248.014925 
L 133.624703 246.633074 
L 135.978245 248.04099 
L 138.285795 248.979898 
L 140.600179 256.7404 
L 142.94514 254.554648 
L 145.252434 264.272693 
L 147.588767 260.360528 
L 149.954831 254.695687 
L 152.25837 245.224986 
L 154.564596 245.96087 
L 156.861482 250.026722 
L 159.198032 248.354265 
L 161.511416 252.564349 
L 163.824843 251.814717 
L 166.123546 256.937648 
L 168.440991 262.351683 
L 170.767664 256.694913 
L 173.093231 257.322748 
L 175.42074 259.413184 
L 177.785149 262.577394 
L 180.093816 255.749638 
L 182.422166 265.776961 
L 184.748831 259.878829 
L 187.057425 260.205581 
L 189.360092 269.213582 
L 191.684143 270.788894 
L 194.03801 272.109916 
L 196.374197 261.470514 
L 198.683663 273.923187 
L 201.007844 269.768863 
L 203.355783 263.194667 
L 205.707216 272.953976 
L 208.040175 261.684791 
L 210.33225 264.267333 
L 212.651561 269.150475 
L 214.954289 264.581923 
L 217.284041 276.827343 
L 219.616454 271.051624 
L 221.962262 265.638335 
L 224.308805 271.105626 
L 226.60924 264.076274 
L 228.927715 261.120451 
L 231.272271 272.954385 
L 233.647781 275.137938 
L 235.974338 263.610872 
L 238.333954 272.275905 
L 240.651678 269.740875 
L 242.970731 273.713789 
L 245.303707 275.066638 
L 247.630167 271.887087 
L 249.983879 276.55181 
L 252.293396 278.431968 
L 254.607528 280.61934 
L 256.942294 277.132977 
L 259.25449 276.916896 
L 261.605125 271.535342 
L 263.907509 280.163863 
L 266.205413 278.108038 
L 268.537305 280.062066 
L 270.844749 277.667694 
L 273.16846 269.814711 
L 275.473413 284.913852 
L 277.816532 278.676455 
L 280.156945 286.470049 
L 282.496801 281.138145 
L 284.811307 281.711767 
L 287.132747 279.591112 
L 289.466412 283.176533 
L 291.792132 287.075792 
L 294.124423 283.340193 
L 296.434419 289.925996 
L 298.775735 291.444726 
L 301.085877 286.514091 
L 303.412961 286.403369 
L 305.750543 287.862751 
L 308.070823 289.093329 
L 310.420544 289.377772 
L 312.742541 291.914709 
L 315.095113 290.737549 
L 317.446327 295.302109 
L 319.744651 295.060866 
L 322.069646 293.534347 
L 324.418542 294.708941 
L 326.751079 298.026093 
L 329.061471 290.537747 
L 331.362161 295.486792 
L 333.705891 297.619635 
L 336.015289 295.600009 
L 338.328734 297.729946 
L 340.663399 299.324889 
L 342.993687 294.489428 
L 345.355256 297.841813 
L 347.660088 298.697357 
L 349.984453 301.073269 
L 352.301905 300.904277 
L 354.620447 299.922323 
L 356.935675 301.363343 
L 359.259053 302.282945 
L 361.6002 302.345223 
L 363.937789 302.463931 
L 366.268684 302.864051 
L 368.593605 302.551489 
L 370.936663 302.466261 
L 373.324942 302.612991 
L 375.637758 302.605579 
L 377.988449 303.094453 
L 380.302144 302.588721 
L 382.603299 303.334199 
L 384.925359 303.241158 
L 387.230717 302.832905 
L 389.583507 302.53327 
L 391.900836 302.386165 
L 394.231669 303.275239 
L 396.531105 303.218706 
L 398.859838 303.320898 
L 401.204164 303.329108 
L 403.542317 303.267513 
L 405.856851 303.018147 
L 408.193058 303.323039 
L 410.50298 303.017129 
L 412.845431 302.783241 
L 412.845431 302.349907 
L 412.845431 302.349907 
L 410.50298 302.544825 
L 408.193058 302.799255 
L 405.856851 302.880928 
L 403.542317 302.837237 
L 401.204164 302.618366 
L 398.859838 302.942538 
L 396.531105 302.575547 
L 394.231669 302.683431 
L 391.900836 301.494594 
L 389.583507 300.972459 
L 387.230717 301.494467 
L 384.925359 300.71436 
L 382.603299 302.964148 
L 380.302144 302.251032 
L 377.988449 302.220655 
L 375.637758 301.030626 
L 373.324942 300.988831 
L 370.936663 300.464318 
L 368.593605 301.713115 
L 366.268684 302.382469 
L 363.937789 301.059078 
L 361.6002 300.949277 
L 359.259053 300.554537 
L 356.935675 298.315573 
L 354.620447 296.223526 
L 352.301905 298.955542 
L 349.984453 299.350768 
L 347.660088 294.927138 
L 345.355256 295.820768 
L 342.993687 289.014394 
L 340.663399 296.725747 
L 338.328734 293.847846 
L 336.015289 292.956392 
L 333.705891 291.673071 
L 331.362161 292.175323 
L 329.061471 287.493153 
L 326.751079 293.977684 
L 324.418542 292.597715 
L 322.069646 287.639251 
L 319.744651 290.886023 
L 317.446327 291.85503 
L 315.095113 285.27909 
L 312.742541 288.325107 
L 310.420544 286.159281 
L 308.070823 286.322417 
L 305.750543 282.551196 
L 303.412961 284.095211 
L 301.085877 281.868669 
L 298.775735 284.755285 
L 296.434419 285.675942 
L 294.124423 278.311437 
L 291.792132 281.335178 
L 289.466412 277.346659 
L 287.132747 269.179403 
L 284.811307 276.137029 
L 282.496801 279.362478 
L 280.156945 284.519401 
L 277.816532 273.727629 
L 275.473413 278.774607 
L 273.16846 266.249598 
L 270.844749 270.233924 
L 268.537305 272.686192 
L 266.205413 273.895451 
L 263.907509 275.010535 
L 261.605125 267.214649 
L 259.25449 271.103209 
L 256.942294 273.144002 
L 254.607528 277.240739 
L 252.293396 272.014278 
L 249.983879 268.410229 
L 247.630167 264.933275 
L 245.303707 269.003935 
L 242.970731 269.764355 
L 240.651678 267.011782 
L 238.333954 268.223164 
L 235.974338 260.153468 
L 233.647781 267.967821 
L 231.272271 266.777346 
L 228.927715 257.204821 
L 226.60924 259.62036 
L 224.308805 265.771159 
L 221.962262 261.838565 
L 219.616454 263.793973 
L 217.284041 271.632852 
L 214.954289 260.626818 
L 212.651561 262.332378 
L 210.33225 258.470129 
L 208.040175 255.162227 
L 205.707216 266.111977 
L 203.355783 254.690514 
L 201.007844 267.863975 
L 198.683663 269.701654 
L 196.374197 258.333011 
L 194.03801 269.280619 
L 191.684143 267.080916 
L 189.360092 265.970546 
L 187.057425 253.910619 
L 184.748831 254.384068 
L 182.422166 256.554264 
L 180.093816 250.535206 
L 177.785149 258.038606 
L 175.42074 252.536416 
L 173.093231 249.526315 
L 170.767664 255.751199 
L 168.440991 258.907526 
L 166.123546 249.053802 
L 163.824843 246.875743 
L 161.511416 245.516754 
L 159.198032 243.655844 
L 156.861482 243.224668 
L 154.564596 240.914849 
L 152.25837 237.633495 
L 149.954831 250.6187 
L 147.588767 256.260804 
L 145.252434 255.722666 
L 142.94514 243.503886 
L 140.600179 250.988844 
L 138.285795 239.814165 
L 135.978245 244.838016 
L 133.624703 242.341539 
L 131.294285 239.774828 
L 128.959443 235.946017 
L 126.628734 235.695306 
L 124.317693 236.033222 
L 121.982143 229.190193 
L 119.636877 219.30916 
L 117.301943 220.993354 
L 115.002483 220.336838 
L 112.659681 207.779088 
L 110.356824 216.25998 
L 108.023499 220.099658 
L 105.703499 199.451617 
L 103.393509 220.836176 
L 101.073594 197.007104 
L 98.739099 198.504334 
L 96.410851 187.64619 
L 94.080835 193.162175 
L 91.704503 182.088883 
L 89.35434 172.692203 
L 87.010808 151.534212 
L 84.676067 160.38859 
L 82.348766 153.172365 
L 80.012724 143.361171 
L 77.678049 151.956903 
L 75.341737 116.222621 
L 73.017115 110.051231 
L 70.701582 107.30096 
L 68.352006 89.914087 
L 66.006968 47.00226 
z
" style="fill:#2ca02c;fill-opacity:0.25;"/>
   </g>
   <g id="PolyCollection_4">
    <path clip-path="url(#pc4d5b1f76e)" d="M 66.005455 36.349228 
L 66.005455 52.932822 
L 68.301726 90.853323 
L 70.60403 113.491764 
L 72.907162 111.879544 
L 75.221317 127.106527 
L 77.549027 158.743871 
L 79.870795 169.932338 
L 82.185106 172.558225 
L 84.492269 174.934431 
L 86.803765 164.130296 
L 89.125155 193.878736 
L 91.432797 193.377039 
L 93.768618 204.27486 
L 96.096024 199.464437 
L 98.409066 209.687422 
L 100.721943 219.599858 
L 103.048847 224.381155 
L 105.380041 218.02757 
L 107.674312 231.864402 
L 110.002228 233.314236 
L 112.326106 220.454508 
L 114.610764 227.687013 
L 116.956487 230.065606 
L 119.270703 228.826798 
L 121.647156 234.953662 
L 123.965053 244.89044 
L 126.304484 239.957985 
L 128.650337 239.291361 
L 130.971628 247.135082 
L 133.333364 244.85533 
L 135.621156 242.797614 
L 137.944734 249.390161 
L 140.225469 255.232719 
L 142.562677 249.817616 
L 144.864143 257.917873 
L 147.178767 262.581462 
L 149.564195 260.391621 
L 151.85386 243.258755 
L 154.195641 247.0498 
L 156.518944 248.895851 
L 158.831203 251.890711 
L 161.150515 251.083695 
L 163.488065 249.39934 
L 165.827334 258.66407 
L 168.1592 264.147066 
L 170.470584 256.067934 
L 172.79965 255.899104 
L 175.145139 262.961634 
L 177.520338 259.706943 
L 179.813979 258.103675 
L 182.18165 259.370575 
L 184.498007 259.198097 
L 186.823996 264.182482 
L 189.179536 266.727817 
L 191.496094 270.957426 
L 193.81646 269.453686 
L 196.127527 256.497259 
L 198.408361 271.547464 
L 200.711926 272.077709 
L 203.004623 263.341011 
L 205.38439 271.314599 
L 207.70969 263.329073 
L 210.035909 259.838573 
L 212.368533 265.857078 
L 214.697227 266.715808 
L 217.028134 277.167922 
L 219.367276 268.409643 
L 221.715509 269.335381 
L 224.016261 273.252903 
L 226.349698 261.802581 
L 228.647016 262.038672 
L 230.974354 271.680969 
L 233.357995 278.015491 
L 235.656319 263.831356 
L 238.003685 271.417701 
L 240.350957 270.829076 
L 242.671418 277.551938 
L 244.992811 273.405313 
L 247.304996 270.3685 
L 249.599727 275.92938 
L 251.913084 276.25802 
L 254.215438 278.105245 
L 256.523435 274.040547 
L 258.837467 277.85989 
L 261.203798 275.225867 
L 263.531405 282.10097 
L 265.851917 277.842315 
L 268.177601 280.147266 
L 270.520118 277.790845 
L 272.824084 269.138836 
L 275.144295 284.350191 
L 277.456741 278.599171 
L 279.769963 289.541441 
L 282.084094 279.686759 
L 284.417013 284.473155 
L 286.796851 276.114829 
L 289.148098 283.412486 
L 291.483249 284.967259 
L 293.799999 284.590465 
L 296.12413 288.398807 
L 298.431566 293.213359 
L 300.747342 288.977621 
L 303.054714 291.024879 
L 305.397342 287.371531 
L 307.730673 290.48494 
L 310.043402 288.979908 
L 312.391787 290.072512 
L 314.703274 291.263021 
L 317.075016 293.181434 
L 319.407134 295.983294 
L 321.691183 294.21072 
L 324.016944 296.788798 
L 326.324918 297.234251 
L 328.617657 292.059544 
L 330.911569 294.343591 
L 333.232497 296.024323 
L 335.557924 294.945249 
L 337.902614 298.786917 
L 340.227217 297.293811 
L 342.528645 295.753856 
L 344.902655 299.935819 
L 347.208325 296.181739 
L 349.510686 299.633068 
L 351.842467 300.90944 
L 354.161491 298.81466 
L 356.51669 301.446709 
L 358.825568 301.524656 
L 361.140257 302.775354 
L 363.450794 302.848182 
L 365.798886 302.841963 
L 368.12702 303.220537 
L 370.435375 302.376997 
L 372.831837 301.932223 
L 375.180748 302.810305 
L 377.52886 302.901537 
L 379.849886 303.155121 
L 382.195641 303.46625 
L 384.528962 302.740349 
L 386.866835 302.954981 
L 389.206862 302.768111 
L 391.515398 302.752372 
L 393.803348 303.390903 
L 396.122857 303.165437 
L 398.442176 303.485831 
L 400.837277 303.284136 
L 403.166098 303.381276 
L 405.536756 302.884961 
L 407.881172 303.299862 
L 410.198973 303.295856 
L 412.523805 303.069655 
L 412.523805 302.514692 
L 412.523805 302.514692 
L 410.198973 302.913363 
L 407.881172 302.858136 
L 405.536756 302.680519 
L 403.166098 302.782541 
L 400.837277 302.91609 
L 398.442176 303.154046 
L 396.122857 302.871166 
L 393.803348 302.95699 
L 391.515398 300.468867 
L 389.206862 301.542159 
L 386.866835 302.439294 
L 384.528962 301.312496 
L 382.195641 303.229739 
L 379.849886 301.781255 
L 377.52886 302.294556 
L 375.180748 301.571903 
L 372.831837 300.898913 
L 370.435375 300.109435 
L 368.12702 301.398467 
L 365.798886 301.511505 
L 363.450794 301.613986 
L 361.140257 302.565497 
L 358.825568 300.789514 
L 356.51669 299.810961 
L 354.161491 296.066633 
L 351.842467 298.135082 
L 349.510686 297.467015 
L 347.208325 291.308288 
L 344.902655 297.559923 
L 342.528645 291.826446 
L 340.227217 294.970918 
L 337.902614 294.42993 
L 335.557924 291.495332 
L 333.232497 292.644921 
L 330.911569 290.788001 
L 328.617657 289.114055 
L 326.324918 293.054302 
L 324.016944 295.822925 
L 321.691183 288.819158 
L 319.407134 292.422178 
L 317.075016 287.791867 
L 314.703274 285.958225 
L 312.391787 287.930177 
L 310.043402 286.05499 
L 307.730673 285.61351 
L 305.397342 283.691267 
L 303.054714 286.323316 
L 300.747342 278.471357 
L 298.431566 288.047694 
L 296.12413 284.712105 
L 293.799999 280.717302 
L 291.483249 280.509774 
L 289.148098 279.26038 
L 286.796851 271.651377 
L 284.417013 278.487462 
L 282.084094 274.443834 
L 279.769963 285.648618 
L 277.456741 273.455098 
L 275.144295 279.360838 
L 272.824084 263.337043 
L 270.520118 268.982337 
L 268.177601 272.335809 
L 265.851917 273.86778 
L 263.531405 275.595486 
L 261.203798 266.898151 
L 258.837467 272.197045 
L 256.523435 270.19365 
L 254.215438 275.184662 
L 251.913084 274.645242 
L 249.599727 271.859395 
L 247.304996 262.998844 
L 244.992811 269.237787 
L 242.671418 271.579678 
L 240.350957 264.716152 
L 238.003685 266.79064 
L 235.656319 259.109226 
L 233.357995 271.28539 
L 230.974354 267.497828 
L 228.647016 257.200635 
L 226.349698 256.218013 
L 224.016261 268.600291 
L 221.715509 263.163065 
L 219.367276 265.984579 
L 217.028134 273.329103 
L 214.697227 260.321001 
L 212.368533 260.513953 
L 210.035909 254.322764 
L 207.70969 255.312162 
L 205.38439 268.371994 
L 203.004623 258.042327 
L 200.711926 266.378888 
L 198.408361 267.326655 
L 196.127527 250.566206 
L 193.81646 265.741727 
L 191.496094 258.968183 
L 189.179536 263.039811 
L 186.823996 257.821496 
L 184.498007 252.999759 
L 182.18165 255.964338 
L 179.813979 252.040425 
L 177.520338 255.390998 
L 175.145139 256.492075 
L 172.79965 250.938674 
L 170.470584 252.891307 
L 168.1592 260.102503 
L 165.827334 253.861033 
L 163.488065 242.04655 
L 161.150515 247.527774 
L 158.831203 245.705164 
L 156.518944 246.262599 
L 154.195641 241.631419 
L 151.85386 239.735138 
L 149.564195 250.542385 
L 147.178767 252.550332 
L 144.864143 254.246131 
L 142.562677 241.007634 
L 140.225469 251.345518 
L 137.944734 244.76398 
L 135.621156 239.744904 
L 133.333364 241.501307 
L 130.971628 238.081834 
L 128.650337 235.352096 
L 126.304484 232.090065 
L 123.965053 237.663363 
L 121.647156 225.245794 
L 119.270703 224.376346 
L 116.956487 226.274594 
L 114.610764 220.8444 
L 112.326106 216.047761 
L 110.002228 224.876602 
L 107.674312 221.316173 
L 105.380041 203.331068 
L 103.048847 220.516689 
L 100.721943 207.017299 
L 98.409066 200.770509 
L 96.096024 187.702545 
L 93.768618 195.37264 
L 91.432797 184.785011 
L 89.125155 176.000582 
L 86.803765 151.471179 
L 84.492269 164.138544 
L 82.185106 162.271825 
L 79.870795 156.456999 
L 77.549027 141.285167 
L 75.221317 120.653285 
L 72.907162 101.214669 
L 70.60403 102.400974 
L 68.301726 85.76979 
L 66.005455 36.349228 
z
" style="fill:#d62728;fill-opacity:0.25;"/>
   </g>
   <g id="matplotlib.axis_1">
    <g id="xtick_1">
     <g id="line2d_1">
      <defs>
       <path d="M 0 0 
L 0 3.5 
" id="m893c1c42ca" style="stroke:#000000;stroke-width:0.8;"/>
      </defs>
      <g>
       <use style="stroke:#000000;stroke-width:0.8;" x="63.532739" xlink:href="#m893c1c42ca" y="303.64"/>
      </g>
     </g>
     <g id="text_1">
      <!-- 0 -->
      <g transform="translate(60.351489 318.238437)scale(0.1 -0.1)">
       <defs>
        <path d="M 31.78125 66.40625 
Q 24.171875 66.40625 20.328125 58.90625 
Q 16.5 51.421875 16.5 36.375 
Q 16.5 21.390625 20.328125 13.890625 
Q 24.171875 6.390625 31.78125 6.390625 
Q 39.453125 6.390625 43.28125 13.890625 
Q 47.125 21.390625 47.125 36.375 
Q 47.125 51.421875 43.28125 58.90625 
Q 39.453125 66.40625 31.78125 66.40625 
z
M 31.78125 74.21875 
Q 44.046875 74.21875 50.515625 64.515625 
Q 56.984375 54.828125 56.984375 36.375 
Q 56.984375 17.96875 50.515625 8.265625 
Q 44.046875 -1.421875 31.78125 -1.421875 
Q 19.53125 -1.421875 13.0625 8.265625 
Q 6.59375 17.96875 6.59375 36.375 
Q 6.59375 54.828125 13.0625 64.515625 
Q 19.53125 74.21875 31.78125 74.21875 
z
" id="DejaVuSans-48"/>
       </defs>
       <use xlink:href="#DejaVuSans-48"/>
      </g>
     </g>
    </g>
    <g id="xtick_2">
     <g id="line2d_2">
      <g>
       <use style="stroke:#000000;stroke-width:0.8;" x="108.277574" xlink:href="#m893c1c42ca" y="303.64"/>
      </g>
     </g>
     <g id="text_2">
      <!-- 1000 -->
      <g transform="translate(95.552574 318.238437)scale(0.1 -0.1)">
       <defs>
        <path d="M 12.40625 8.296875 
L 28.515625 8.296875 
L 28.515625 63.921875 
L 10.984375 60.40625 
L 10.984375 69.390625 
L 28.421875 72.90625 
L 38.28125 72.90625 
L 38.28125 8.296875 
L 54.390625 8.296875 
L 54.390625 0 
L 12.40625 0 
z
" id="DejaVuSans-49"/>
       </defs>
       <use xlink:href="#DejaVuSans-49"/>
       <use x="63.623047" xlink:href="#DejaVuSans-48"/>
       <use x="127.246094" xlink:href="#DejaVuSans-48"/>
       <use x="190.869141" xlink:href="#DejaVuSans-48"/>
      </g>
     </g>
    </g>
    <g id="xtick_3">
     <g id="line2d_3">
      <g>
       <use style="stroke:#000000;stroke-width:0.8;" x="153.022409" xlink:href="#m893c1c42ca" y="303.64"/>
      </g>
     </g>
     <g id="text_3">
      <!-- 2000 -->
      <g transform="translate(140.297409 318.238437)scale(0.1 -0.1)">
       <defs>
        <path d="M 19.1875 8.296875 
L 53.609375 8.296875 
L 53.609375 0 
L 7.328125 0 
L 7.328125 8.296875 
Q 12.9375 14.109375 22.625 23.890625 
Q 32.328125 33.6875 34.8125 36.53125 
Q 39.546875 41.84375 41.421875 45.53125 
Q 43.3125 49.21875 43.3125 52.78125 
Q 43.3125 58.59375 39.234375 62.25 
Q 35.15625 65.921875 28.609375 65.921875 
Q 23.96875 65.921875 18.8125 64.3125 
Q 13.671875 62.703125 7.8125 59.421875 
L 7.8125 69.390625 
Q 13.765625 71.78125 18.9375 73 
Q 24.125 74.21875 28.421875 74.21875 
Q 39.75 74.21875 46.484375 68.546875 
Q 53.21875 62.890625 53.21875 53.421875 
Q 53.21875 48.921875 51.53125 44.890625 
Q 49.859375 40.875 45.40625 35.40625 
Q 44.1875 33.984375 37.640625 27.21875 
Q 31.109375 20.453125 19.1875 8.296875 
z
" id="DejaVuSans-50"/>
       </defs>
       <use xlink:href="#DejaVuSans-50"/>
       <use x="63.623047" xlink:href="#DejaVuSans-48"/>
       <use x="127.246094" xlink:href="#DejaVuSans-48"/>
       <use x="190.869141" xlink:href="#DejaVuSans-48"/>
      </g>
     </g>
    </g>
    <g id="xtick_4">
     <g id="line2d_4">
      <g>
       <use style="stroke:#000000;stroke-width:0.8;" x="197.767244" xlink:href="#m893c1c42ca" y="303.64"/>
      </g>
     </g>
     <g id="text_4">
      <!-- 3000 -->
      <g transform="translate(185.042244 318.238437)scale(0.1 -0.1)">
       <defs>
        <path d="M 40.578125 39.3125 
Q 47.65625 37.796875 51.625 33 
Q 55.609375 28.21875 55.609375 21.1875 
Q 55.609375 10.40625 48.1875 4.484375 
Q 40.765625 -1.421875 27.09375 -1.421875 
Q 22.515625 -1.421875 17.65625 -0.515625 
Q 12.796875 0.390625 7.625 2.203125 
L 7.625 11.71875 
Q 11.71875 9.328125 16.59375 8.109375 
Q 21.484375 6.890625 26.8125 6.890625 
Q 36.078125 6.890625 40.9375 10.546875 
Q 45.796875 14.203125 45.796875 21.1875 
Q 45.796875 27.640625 41.28125 31.265625 
Q 36.765625 34.90625 28.71875 34.90625 
L 20.21875 34.90625 
L 20.21875 43.015625 
L 29.109375 43.015625 
Q 36.375 43.015625 40.234375 45.921875 
Q 44.09375 48.828125 44.09375 54.296875 
Q 44.09375 59.90625 40.109375 62.90625 
Q 36.140625 65.921875 28.71875 65.921875 
Q 24.65625 65.921875 20.015625 65.03125 
Q 15.375 64.15625 9.8125 62.3125 
L 9.8125 71.09375 
Q 15.4375 72.65625 20.34375 73.4375 
Q 25.25 74.21875 29.59375 74.21875 
Q 40.828125 74.21875 47.359375 69.109375 
Q 53.90625 64.015625 53.90625 55.328125 
Q 53.90625 49.265625 50.4375 45.09375 
Q 46.96875 40.921875 40.578125 39.3125 
z
" id="DejaVuSans-51"/>
       </defs>
       <use xlink:href="#DejaVuSans-51"/>
       <use x="63.623047" xlink:href="#DejaVuSans-48"/>
       <use x="127.246094" xlink:href="#DejaVuSans-48"/>
       <use x="190.869141" xlink:href="#DejaVuSans-48"/>
      </g>
     </g>
    </g>
    <g id="xtick_5">
     <g id="line2d_5">
      <g>
       <use style="stroke:#000000;stroke-width:0.8;" x="242.512079" xlink:href="#m893c1c42ca" y="303.64"/>
      </g>
     </g>
     <g id="text_5">
      <!-- 4000 -->
      <g transform="translate(229.787079 318.238437)scale(0.1 -0.1)">
       <defs>
        <path d="M 37.796875 64.3125 
L 12.890625 25.390625 
L 37.796875 25.390625 
z
M 35.203125 72.90625 
L 47.609375 72.90625 
L 47.609375 25.390625 
L 58.015625 25.390625 
L 58.015625 17.1875 
L 47.609375 17.1875 
L 47.609375 0 
L 37.796875 0 
L 37.796875 17.1875 
L 4.890625 17.1875 
L 4.890625 26.703125 
z
" id="DejaVuSans-52"/>
       </defs>
       <use xlink:href="#DejaVuSans-52"/>
       <use x="63.623047" xlink:href="#DejaVuSans-48"/>
       <use x="127.246094" xlink:href="#DejaVuSans-48"/>
       <use x="190.869141" xlink:href="#DejaVuSans-48"/>
      </g>
     </g>
    </g>
    <g id="xtick_6">
     <g id="line2d_6">
      <g>
       <use style="stroke:#000000;stroke-width:0.8;" x="287.256914" xlink:href="#m893c1c42ca" y="303.64"/>
      </g>
     </g>
     <g id="text_6">
      <!-- 5000 -->
      <g transform="translate(274.531914 318.238437)scale(0.1 -0.1)">
       <defs>
        <path d="M 10.796875 72.90625 
L 49.515625 72.90625 
L 49.515625 64.59375 
L 19.828125 64.59375 
L 19.828125 46.734375 
Q 21.96875 47.46875 24.109375 47.828125 
Q 26.265625 48.1875 28.421875 48.1875 
Q 40.625 48.1875 47.75 41.5 
Q 54.890625 34.8125 54.890625 23.390625 
Q 54.890625 11.625 47.5625 5.09375 
Q 40.234375 -1.421875 26.90625 -1.421875 
Q 22.3125 -1.421875 17.546875 -0.640625 
Q 12.796875 0.140625 7.71875 1.703125 
L 7.71875 11.625 
Q 12.109375 9.234375 16.796875 8.0625 
Q 21.484375 6.890625 26.703125 6.890625 
Q 35.15625 6.890625 40.078125 11.328125 
Q 45.015625 15.765625 45.015625 23.390625 
Q 45.015625 31 40.078125 35.4375 
Q 35.15625 39.890625 26.703125 39.890625 
Q 22.75 39.890625 18.8125 39.015625 
Q 14.890625 38.140625 10.796875 36.28125 
z
" id="DejaVuSans-53"/>
       </defs>
       <use xlink:href="#DejaVuSans-53"/>
       <use x="63.623047" xlink:href="#DejaVuSans-48"/>
       <use x="127.246094" xlink:href="#DejaVuSans-48"/>
       <use x="190.869141" xlink:href="#DejaVuSans-48"/>
      </g>
     </g>
    </g>
    <g id="xtick_7">
     <g id="line2d_7">
      <g>
       <use style="stroke:#000000;stroke-width:0.8;" x="332.001749" xlink:href="#m893c1c42ca" y="303.64"/>
      </g>
     </g>
     <g id="text_7">
      <!-- 6000 -->
      <g transform="translate(319.276749 318.238437)scale(0.1 -0.1)">
       <defs>
        <path d="M 33.015625 40.375 
Q 26.375 40.375 22.484375 35.828125 
Q 18.609375 31.296875 18.609375 23.390625 
Q 18.609375 15.53125 22.484375 10.953125 
Q 26.375 6.390625 33.015625 6.390625 
Q 39.65625 6.390625 43.53125 10.953125 
Q 47.40625 15.53125 47.40625 23.390625 
Q 47.40625 31.296875 43.53125 35.828125 
Q 39.65625 40.375 33.015625 40.375 
z
M 52.59375 71.296875 
L 52.59375 62.3125 
Q 48.875 64.0625 45.09375 64.984375 
Q 41.3125 65.921875 37.59375 65.921875 
Q 27.828125 65.921875 22.671875 59.328125 
Q 17.53125 52.734375 16.796875 39.40625 
Q 19.671875 43.65625 24.015625 45.921875 
Q 28.375 48.1875 33.59375 48.1875 
Q 44.578125 48.1875 50.953125 41.515625 
Q 57.328125 34.859375 57.328125 23.390625 
Q 57.328125 12.15625 50.6875 5.359375 
Q 44.046875 -1.421875 33.015625 -1.421875 
Q 20.359375 -1.421875 13.671875 8.265625 
Q 6.984375 17.96875 6.984375 36.375 
Q 6.984375 53.65625 15.1875 63.9375 
Q 23.390625 74.21875 37.203125 74.21875 
Q 40.921875 74.21875 44.703125 73.484375 
Q 48.484375 72.75 52.59375 71.296875 
z
" id="DejaVuSans-54"/>
       </defs>
       <use xlink:href="#DejaVuSans-54"/>
       <use x="63.623047" xlink:href="#DejaVuSans-48"/>
       <use x="127.246094" xlink:href="#DejaVuSans-48"/>
       <use x="190.869141" xlink:href="#DejaVuSans-48"/>
      </g>
     </g>
    </g>
    <g id="xtick_8">
     <g id="line2d_8">
      <g>
       <use style="stroke:#000000;stroke-width:0.8;" x="376.746584" xlink:href="#m893c1c42ca" y="303.64"/>
      </g>
     </g>
     <g id="text_8">
      <!-- 7000 -->
      <g transform="translate(364.021584 318.238437)scale(0.1 -0.1)">
       <defs>
        <path d="M 8.203125 72.90625 
L 55.078125 72.90625 
L 55.078125 68.703125 
L 28.609375 0 
L 18.3125 0 
L 43.21875 64.59375 
L 8.203125 64.59375 
z
" id="DejaVuSans-55"/>
       </defs>
       <use xlink:href="#DejaVuSans-55"/>
       <use x="63.623047" xlink:href="#DejaVuSans-48"/>
       <use x="127.246094" xlink:href="#DejaVuSans-48"/>
       <use x="190.869141" xlink:href="#DejaVuSans-48"/>
      </g>
     </g>
    </g>
    <g id="xtick_9">
     <g id="line2d_9">
      <g>
       <use style="stroke:#000000;stroke-width:0.8;" x="421.491419" xlink:href="#m893c1c42ca" y="303.64"/>
      </g>
     </g>
     <g id="text_9">
      <!-- 8000 -->
      <g transform="translate(408.766419 318.238437)scale(0.1 -0.1)">
       <defs>
        <path d="M 31.78125 34.625 
Q 24.75 34.625 20.71875 30.859375 
Q 16.703125 27.09375 16.703125 20.515625 
Q 16.703125 13.921875 20.71875 10.15625 
Q 24.75 6.390625 31.78125 6.390625 
Q 38.8125 6.390625 42.859375 10.171875 
Q 46.921875 13.96875 46.921875 20.515625 
Q 46.921875 27.09375 42.890625 30.859375 
Q 38.875 34.625 31.78125 34.625 
z
M 21.921875 38.8125 
Q 15.578125 40.375 12.03125 44.71875 
Q 8.5 49.078125 8.5 55.328125 
Q 8.5 64.0625 14.71875 69.140625 
Q 20.953125 74.21875 31.78125 74.21875 
Q 42.671875 74.21875 48.875 69.140625 
Q 55.078125 64.0625 55.078125 55.328125 
Q 55.078125 49.078125 51.53125 44.71875 
Q 48 40.375 41.703125 38.8125 
Q 48.828125 37.15625 52.796875 32.3125 
Q 56.78125 27.484375 56.78125 20.515625 
Q 56.78125 9.90625 50.3125 4.234375 
Q 43.84375 -1.421875 31.78125 -1.421875 
Q 19.734375 -1.421875 13.25 4.234375 
Q 6.78125 9.90625 6.78125 20.515625 
Q 6.78125 27.484375 10.78125 32.3125 
Q 14.796875 37.15625 21.921875 38.8125 
z
M 18.3125 54.390625 
Q 18.3125 48.734375 21.84375 45.5625 
Q 25.390625 42.390625 31.78125 42.390625 
Q 38.140625 42.390625 41.71875 45.5625 
Q 45.3125 48.734375 45.3125 54.390625 
Q 45.3125 60.0625 41.71875 63.234375 
Q 38.140625 66.40625 31.78125 66.40625 
Q 25.390625 66.40625 21.84375 63.234375 
Q 18.3125 60.0625 18.3125 54.390625 
z
" id="DejaVuSans-56"/>
       </defs>
       <use xlink:href="#DejaVuSans-56"/>
       <use x="63.623047" xlink:href="#DejaVuSans-48"/>
       <use x="127.246094" xlink:href="#DejaVuSans-48"/>
       <use x="190.869141" xlink:href="#DejaVuSans-48"/>
      </g>
     </g>
    </g>
    <g id="text_10">
     <!-- Time -->
     <g transform="translate(236.626406 331.916562)scale(0.1 -0.1)">
      <defs>
       <path d="M -0.296875 72.90625 
L 61.375 72.90625 
L 61.375 64.59375 
L 35.5 64.59375 
L 35.5 0 
L 25.59375 0 
L 25.59375 64.59375 
L -0.296875 64.59375 
z
" id="DejaVuSans-84"/>
       <path d="M 9.421875 54.6875 
L 18.40625 54.6875 
L 18.40625 0 
L 9.421875 0 
z
M 9.421875 75.984375 
L 18.40625 75.984375 
L 18.40625 64.59375 
L 9.421875 64.59375 
z
" id="DejaVuSans-105"/>
       <path d="M 52 44.1875 
Q 55.375 50.25 60.0625 53.125 
Q 64.75 56 71.09375 56 
Q 79.640625 56 84.28125 50.015625 
Q 88.921875 44.046875 88.921875 33.015625 
L 88.921875 0 
L 79.890625 0 
L 79.890625 32.71875 
Q 79.890625 40.578125 77.09375 44.375 
Q 74.3125 48.1875 68.609375 48.1875 
Q 61.625 48.1875 57.5625 43.546875 
Q 53.515625 38.921875 53.515625 30.90625 
L 53.515625 0 
L 44.484375 0 
L 44.484375 32.71875 
Q 44.484375 40.625 41.703125 44.40625 
Q 38.921875 48.1875 33.109375 48.1875 
Q 26.21875 48.1875 22.15625 43.53125 
Q 18.109375 38.875 18.109375 30.90625 
L 18.109375 0 
L 9.078125 0 
L 9.078125 54.6875 
L 18.109375 54.6875 
L 18.109375 46.1875 
Q 21.1875 51.21875 25.484375 53.609375 
Q 29.78125 56 35.6875 56 
Q 41.65625 56 45.828125 52.96875 
Q 50 49.953125 52 44.1875 
z
" id="DejaVuSans-109"/>
       <path d="M 56.203125 29.59375 
L 56.203125 25.203125 
L 14.890625 25.203125 
Q 15.484375 15.921875 20.484375 11.0625 
Q 25.484375 6.203125 34.421875 6.203125 
Q 39.59375 6.203125 44.453125 7.46875 
Q 49.3125 8.734375 54.109375 11.28125 
L 54.109375 2.78125 
Q 49.265625 0.734375 44.1875 -0.34375 
Q 39.109375 -1.421875 33.890625 -1.421875 
Q 20.796875 -1.421875 13.15625 6.1875 
Q 5.515625 13.8125 5.515625 26.8125 
Q 5.515625 40.234375 12.765625 48.109375 
Q 20.015625 56 32.328125 56 
Q 43.359375 56 49.78125 48.890625 
Q 56.203125 41.796875 56.203125 29.59375 
z
M 47.21875 32.234375 
Q 47.125 39.59375 43.09375 43.984375 
Q 39.0625 48.390625 32.421875 48.390625 
Q 24.90625 48.390625 20.390625 44.140625 
Q 15.875 39.890625 15.1875 32.171875 
z
" id="DejaVuSans-101"/>
      </defs>
      <use xlink:href="#DejaVuSans-84"/>
      <use x="57.958984" xlink:href="#DejaVuSans-105"/>
      <use x="85.742188" xlink:href="#DejaVuSans-109"/>
      <use x="183.154297" xlink:href="#DejaVuSans-101"/>
     </g>
    </g>
   </g>
   <g id="matplotlib.axis_2">
    <g id="ytick_1">
     <g id="line2d_10">
      <defs>
       <path d="M 0 0 
L -3.5 0 
" id="mf6ca8d9697" style="stroke:#000000;stroke-width:0.8;"/>
      </defs>
      <g>
       <use style="stroke:#000000;stroke-width:0.8;" x="47.72" xlink:href="#mf6ca8d9697" y="303.64"/>
      </g>
     </g>
     <g id="text_11">
      <!-- 0.0 -->
      <g transform="translate(24.816875 307.439219)scale(0.1 -0.1)">
       <defs>
        <path d="M 10.6875 12.40625 
L 21 12.40625 
L 21 0 
L 10.6875 0 
z
" id="DejaVuSans-46"/>
       </defs>
       <use xlink:href="#DejaVuSans-48"/>
       <use x="63.623047" xlink:href="#DejaVuSans-46"/>
       <use x="95.410156" xlink:href="#DejaVuSans-48"/>
      </g>
     </g>
    </g>
    <g id="ytick_2">
     <g id="line2d_11">
      <g>
       <use style="stroke:#000000;stroke-width:0.8;" x="47.72" xlink:href="#mf6ca8d9697" y="245.864"/>
      </g>
     </g>
     <g id="text_12">
      <!-- 0.5 -->
      <g transform="translate(24.816875 249.663219)scale(0.1 -0.1)">
       <use xlink:href="#DejaVuSans-48"/>
       <use x="63.623047" xlink:href="#DejaVuSans-46"/>
       <use x="95.410156" xlink:href="#DejaVuSans-53"/>
      </g>
     </g>
    </g>
    <g id="ytick_3">
     <g id="line2d_12">
      <g>
       <use style="stroke:#000000;stroke-width:0.8;" x="47.72" xlink:href="#mf6ca8d9697" y="188.088"/>
      </g>
     </g>
     <g id="text_13">
      <!-- 1.0 -->
      <g transform="translate(24.816875 191.887219)scale(0.1 -0.1)">
       <use xlink:href="#DejaVuSans-49"/>
       <use x="63.623047" xlink:href="#DejaVuSans-46"/>
       <use x="95.410156" xlink:href="#DejaVuSans-48"/>
      </g>
     </g>
    </g>
    <g id="ytick_4">
     <g id="line2d_13">
      <g>
       <use style="stroke:#000000;stroke-width:0.8;" x="47.72" xlink:href="#mf6ca8d9697" y="130.312"/>
      </g>
     </g>
     <g id="text_14">
      <!-- 1.5 -->
      <g transform="translate(24.816875 134.111219)scale(0.1 -0.1)">
       <use xlink:href="#DejaVuSans-49"/>
       <use x="63.623047" xlink:href="#DejaVuSans-46"/>
       <use x="95.410156" xlink:href="#DejaVuSans-53"/>
      </g>
     </g>
    </g>
    <g id="ytick_5">
     <g id="line2d_14">
      <g>
       <use style="stroke:#000000;stroke-width:0.8;" x="47.72" xlink:href="#mf6ca8d9697" y="72.536"/>
      </g>
     </g>
     <g id="text_15">
      <!-- 2.0 -->
      <g transform="translate(24.816875 76.335219)scale(0.1 -0.1)">
       <use xlink:href="#DejaVuSans-50"/>
       <use x="63.623047" xlink:href="#DejaVuSans-46"/>
       <use x="95.410156" xlink:href="#DejaVuSans-48"/>
      </g>
     </g>
    </g>
    <g id="ytick_6">
     <g id="line2d_15">
      <g>
       <use style="stroke:#000000;stroke-width:0.8;" x="47.72" xlink:href="#mf6ca8d9697" y="14.76"/>
      </g>
     </g>
     <g id="text_16">
      <!-- 2.5 -->
      <g transform="translate(24.816875 18.559219)scale(0.1 -0.1)">
       <use xlink:href="#DejaVuSans-50"/>
       <use x="63.623047" xlink:href="#DejaVuSans-46"/>
       <use x="95.410156" xlink:href="#DejaVuSans-53"/>
      </g>
     </g>
    </g>
    <g id="text_17">
     <!-- Loss -->
     <g transform="translate(18.737188 170.167187)rotate(-90)scale(0.1 -0.1)">
      <defs>
       <path d="M 9.8125 72.90625 
L 19.671875 72.90625 
L 19.671875 8.296875 
L 55.171875 8.296875 
L 55.171875 0 
L 9.8125 0 
z
" id="DejaVuSans-76"/>
       <path d="M 30.609375 48.390625 
Q 23.390625 48.390625 19.1875 42.75 
Q 14.984375 37.109375 14.984375 27.296875 
Q 14.984375 17.484375 19.15625 11.84375 
Q 23.34375 6.203125 30.609375 6.203125 
Q 37.796875 6.203125 41.984375 11.859375 
Q 46.1875 17.53125 46.1875 27.296875 
Q 46.1875 37.015625 41.984375 42.703125 
Q 37.796875 48.390625 30.609375 48.390625 
z
M 30.609375 56 
Q 42.328125 56 49.015625 48.375 
Q 55.71875 40.765625 55.71875 27.296875 
Q 55.71875 13.875 49.015625 6.21875 
Q 42.328125 -1.421875 30.609375 -1.421875 
Q 18.84375 -1.421875 12.171875 6.21875 
Q 5.515625 13.875 5.515625 27.296875 
Q 5.515625 40.765625 12.171875 48.375 
Q 18.84375 56 30.609375 56 
z
" id="DejaVuSans-111"/>
       <path d="M 44.28125 53.078125 
L 44.28125 44.578125 
Q 40.484375 46.53125 36.375 47.5 
Q 32.28125 48.484375 27.875 48.484375 
Q 21.1875 48.484375 17.84375 46.4375 
Q 14.5 44.390625 14.5 40.28125 
Q 14.5 37.15625 16.890625 35.375 
Q 19.28125 33.59375 26.515625 31.984375 
L 29.59375 31.296875 
Q 39.15625 29.25 43.1875 25.515625 
Q 47.21875 21.78125 47.21875 15.09375 
Q 47.21875 7.46875 41.1875 3.015625 
Q 35.15625 -1.421875 24.609375 -1.421875 
Q 20.21875 -1.421875 15.453125 -0.5625 
Q 10.6875 0.296875 5.421875 2 
L 5.421875 11.28125 
Q 10.40625 8.6875 15.234375 7.390625 
Q 20.0625 6.109375 24.8125 6.109375 
Q 31.15625 6.109375 34.5625 8.28125 
Q 37.984375 10.453125 37.984375 14.40625 
Q 37.984375 18.0625 35.515625 20.015625 
Q 33.0625 21.96875 24.703125 23.78125 
L 21.578125 24.515625 
Q 13.234375 26.265625 9.515625 29.90625 
Q 5.8125 33.546875 5.8125 39.890625 
Q 5.8125 47.609375 11.28125 51.796875 
Q 16.75 56 26.8125 56 
Q 31.78125 56 36.171875 55.265625 
Q 40.578125 54.546875 44.28125 53.078125 
z
" id="DejaVuSans-115"/>
      </defs>
      <use xlink:href="#DejaVuSans-76"/>
      <use x="53.962891" xlink:href="#DejaVuSans-111"/>
      <use x="115.144531" xlink:href="#DejaVuSans-115"/>
      <use x="167.244141" xlink:href="#DejaVuSans-115"/>
     </g>
    </g>
   </g>
   <g id="line2d_16">
    <path clip-path="url(#pc4d5b1f76e)" d="M 66.09407 44.7313 
L 68.562692 63.32795 
L 71.029721 83.211019 
L 73.485219 89.191737 
L 75.931124 106.005456 
L 78.391623 131.666125 
L 80.849123 147.2837 
L 83.31044 156.469181 
L 85.778969 169.559056 
L 88.224985 159.2 
L 90.676611 192.037531 
L 93.122825 197.375041 
L 95.572865 210.668034 
L 98.032608 212.981331 
L 100.457898 220.124341 
L 102.921419 223.4758 
L 105.36453 240.881948 
L 107.813466 228.136247 
L 110.281629 239.262641 
L 112.73132 239.302136 
L 115.174076 231.363578 
L 117.62355 236.746225 
L 120.093313 249.181606 
L 122.534402 244.18827 
L 124.983239 254.592464 
L 129.8815 253.475311 
L 132.326069 253.559944 
L 134.773884 257.018605 
L 137.241025 262.034509 
L 139.692988 257.120164 
L 142.149267 257.492548 
L 144.586718 268.472245 
L 147.044919 261.820106 
L 149.502591 277.059655 
L 151.939539 268.376328 
L 154.377051 268.596373 
L 156.85722 262.418178 
L 159.293004 264.009275 
L 161.749073 268.263484 
L 164.195413 267.750045 
L 166.646444 269.606325 
L 169.086978 269.267794 
L 171.521833 269.346784 
L 173.992887 276.100483 
L 176.452571 266.993992 
L 178.905606 264.556567 
L 181.356326 276.309244 
L 183.823416 271.062009 
L 186.293818 273.868998 
L 188.733302 271.541595 
L 191.183631 275.581402 
L 193.627372 272.263795 
L 196.085307 279.83279 
L 198.540468 279.666345 
L 200.993963 281.051502 
L 203.445989 271.355403 
L 205.922147 282.038885 
L 208.355277 280.267238 
L 210.804683 274.588377 
L 213.251214 277.629516 
L 215.700893 274.842275 
L 218.147813 277.045549 
L 220.618874 274.771748 
L 223.05917 278.13167 
L 225.528577 285.79094 
L 227.979589 282.995236 
L 230.416059 282.462049 
L 232.871955 281.607258 
L 235.30756 275.685782 
L 237.765483 273.355559 
L 240.213459 280.55499 
L 242.673645 284.168811 
L 245.120342 275.200554 
L 247.571098 283.824637 
L 250.025526 281.926041 
L 252.482719 286.789607 
L 254.927082 287.156349 
L 257.366515 286.197177 
L 259.832272 287.23534 
L 262.281092 287.31292 
L 264.741539 293.792972 
L 267.17943 288.376472 
L 269.624853 284.895243 
L 272.070867 283.240671 
L 274.529383 290.317385 
L 276.992091 288.149374 
L 279.475586 290.038096 
L 281.930576 289.816641 
L 284.393145 283.542528 
L 286.82739 294.247874 
L 289.292224 288.518937 
L 291.765915 294.427718 
L 294.218759 291.318873 
L 296.683607 291.166534 
L 299.134807 294.817029 
L 301.590828 292.103137 
L 304.053775 291.819617 
L 306.507116 291.246935 
L 308.972046 293.516505 
L 311.43209 298.749987 
L 313.891857 295.858013 
L 316.328459 296.936376 
L 321.235794 295.601999 
L 323.699618 297.81162 
L 326.160166 297.512584 
L 328.603305 298.84132 
L 331.060196 299.829408 
L 333.513732 300.419369 
L 335.99807 297.261507 
L 338.443951 299.292342 
L 340.890311 301.707727 
L 343.336702 301.171367 
L 345.793372 300.355718 
L 348.220408 300.85558 
L 350.682072 302.047669 
L 353.132495 301.017793 
L 355.595814 302.079494 
L 358.047703 302.033387 
L 360.494282 302.433718 
L 362.954801 302.282437 
L 365.406438 303.065555 
L 367.883028 303.008295 
L 370.34405 303.214566 
L 377.678843 303.399568 
L 380.131983 303.405155 
L 382.600425 303.222192 
L 385.03365 303.439757 
L 387.488748 303.298075 
L 392.383037 303.496411 
L 394.832546 303.469412 
L 397.30769 303.235239 
L 399.754469 303.498565 
L 412.048779 303.405794 
L 421.885146 303.534606 
L 424.34751 303.436727 
L 426.807288 303.515707 
L 431.714545 303.471737 
L 431.714545 303.471737 
" style="fill:none;stroke:#1f77b4;stroke-linecap:square;stroke-width:1.5;"/>
   </g>
   <g id="line2d_17">
    <path clip-path="url(#pc4d5b1f76e)" d="M 66.037104 52.043575 
L 68.34907 79.351762 
L 70.678061 99.144556 
L 72.981661 103.071519 
L 75.285459 115.123231 
L 77.579847 143.063344 
L 79.923636 155.566431 
L 82.254789 161.817975 
L 84.569668 163.5332 
L 86.878997 156.062944 
L 89.211206 182.761775 
L 91.55992 187.151397 
L 93.893096 195.061744 
L 96.225752 190.085334 
L 98.581167 206.379972 
L 100.900897 212.326837 
L 103.20283 223.058278 
L 105.542366 210.543906 
L 107.865716 226.432306 
L 110.176979 224.141578 
L 112.514311 216.79545 
L 114.841363 221.433328 
L 117.18672 229.321106 
L 119.491289 226.398453 
L 121.864187 229.016428 
L 124.191264 238.811266 
L 126.503357 232.176053 
L 128.838569 237.863378 
L 131.134312 242.489972 
L 133.465404 245.852716 
L 135.786729 241.852405 
L 138.106684 245.023314 
L 140.459389 253.007009 
L 142.777684 247.613078 
L 145.069829 256.15535 
L 149.774769 254.648886 
L 152.080856 242.331991 
L 154.412128 240.441858 
L 156.712746 247.889545 
L 159.076444 246.902162 
L 161.416991 247.573583 
L 163.744123 251.077381 
L 166.110518 252.758753 
L 168.45399 258.609702 
L 170.789254 254.056456 
L 173.146799 254.654528 
L 175.503069 255.878883 
L 177.895065 258.745114 
L 180.192583 251.043528 
L 182.564679 256.578514 
L 184.906571 256.048148 
L 187.21788 256.324616 
L 189.539131 264.776612 
L 191.855058 264.686337 
L 194.178839 267.259175 
L 196.501174 256.471312 
L 198.845217 268.494814 
L 201.201214 266.971423 
L 203.530519 259.117498 
L 205.908425 270.717836 
L 208.258757 255.309022 
L 210.616805 261.52107 
L 212.934511 263.004966 
L 215.285062 262.147353 
L 217.631229 275.587044 
L 219.932304 269.369353 
L 222.29236 267.47922 
L 224.627508 269.487839 
L 226.995717 261.024558 
L 229.327344 255.049481 
L 231.666647 267.721834 
L 234.031779 274.13418 
L 236.390099 263.275791 
L 238.718044 266.768305 
L 241.081939 266.864222 
L 243.412952 274.534776 
L 245.731445 272.512052 
L 248.086894 267.442546 
L 250.418147 273.251178 
L 252.761716 274.139823 
L 255.09547 276.707018 
L 257.453935 272.108635 
L 259.803019 273.787186 
L 262.184564 267.185827 
L 264.511562 278.013184 
L 266.81185 276.083556 
L 269.159901 275.144132 
L 271.487731 274.585555 
L 273.8263 264.787897 
L 276.165637 283.525602 
L 278.483101 275.826837 
L 280.848751 285.884036 
L 283.190142 278.7241 
L 285.510763 281.014828 
L 287.826132 270.971734 
L 290.20055 280.14311 
L 292.53597 282.425375 
L 294.879875 281.38157 
L 297.206804 285.672454 
L 299.56879 290.416123 
L 301.910501 286.264884 
L 304.263662 285.957384 
L 306.576266 287.940613 
L 308.891849 287.240982 
L 311.217386 288.688203 
L 313.55282 288.415968 
L 315.867569 288.411736 
L 320.580367 293.406482 
L 322.929922 291.183461 
L 325.252694 294.075082 
L 327.558339 295.251478 
L 329.896834 289.332823 
L 332.225728 292.323182 
L 334.537055 295.583662 
L 336.874453 292.307666 
L 339.201033 296.645098 
L 341.581653 295.556156 
L 343.907646 293.302102 
L 346.287182 296.348883 
L 348.627283 296.85527 
L 350.973841 299.961999 
L 353.330326 300.385516 
L 355.663964 297.433594 
L 358.019985 301.267636 
L 360.361872 300.322394 
L 362.692675 301.394409 
L 365.032632 302.228836 
L 367.346074 302.313557 
L 369.661417 301.857774 
L 374.413874 301.214212 
L 376.747749 301.610928 
L 379.073369 302.165626 
L 381.399362 301.907319 
L 383.73061 303.220627 
L 386.079387 301.698559 
L 388.422794 302.499661 
L 390.763982 302.117932 
L 393.092167 302.685941 
L 395.433048 302.862921 
L 402.511813 302.874426 
L 404.843465 303.197 
L 407.196315 302.8225 
L 409.52506 303.16566 
L 411.87478 302.70084 
L 414.210701 302.716753 
L 414.210701 302.716753 
" style="fill:none;stroke:#ff7f0e;stroke-linecap:square;stroke-width:1.5;"/>
   </g>
   <g id="line2d_18">
    <path clip-path="url(#pc4d5b1f76e)" d="M 66.006968 54.66155 
L 68.352006 95.037044 
L 70.701582 108.894256 
L 73.017115 112.053881 
L 75.341737 122.593487 
L 77.678049 155.069919 
L 80.012724 157.259087 
L 82.348766 161.90825 
L 84.676067 170.506944 
L 87.010808 157.304225 
L 89.35434 183.280856 
L 91.704503 187.18525 
L 94.080835 197.578159 
L 96.410851 193.165969 
L 98.739099 203.637869 
L 101.073594 205.522359 
L 103.393509 223.882037 
L 105.703499 205.7819 
L 108.023499 224.468825 
L 110.356824 221.264062 
L 112.659681 212.992616 
L 115.002483 225.349006 
L 117.301943 227.030378 
L 119.636877 225.687537 
L 124.317693 240.114611 
L 126.628734 238.506587 
L 128.959443 238.213194 
L 131.294285 243.894877 
L 133.624703 244.487306 
L 135.978245 246.439503 
L 138.285795 244.397031 
L 140.600179 253.864622 
L 142.94514 249.029267 
L 145.252434 259.99768 
L 147.588767 258.310666 
L 149.954831 252.657194 
L 152.25837 241.429241 
L 154.564596 243.437859 
L 156.861482 246.625695 
L 159.198032 246.005055 
L 161.511416 249.040552 
L 163.824843 249.34523 
L 166.123546 252.995725 
L 168.440991 260.629605 
L 170.767664 256.223056 
L 173.093231 253.424531 
L 175.42074 255.9748 
L 177.785149 260.308 
L 180.093816 253.142422 
L 182.422166 261.165613 
L 184.748831 257.131448 
L 187.057425 257.0581 
L 189.360092 267.592064 
L 191.684143 268.934905 
L 194.03801 270.695267 
L 196.374197 259.901762 
L 198.683663 271.81242 
L 201.007844 268.816419 
L 203.355783 258.942591 
L 205.707216 269.532977 
L 208.040175 258.423509 
L 210.33225 261.368731 
L 212.651561 265.741427 
L 214.954289 262.60437 
L 217.284041 274.230098 
L 219.616454 267.422798 
L 221.962262 263.73845 
L 224.308805 268.438392 
L 226.60924 261.848317 
L 228.927715 259.162636 
L 231.272271 269.865866 
L 233.647781 271.55288 
L 235.974338 261.88217 
L 238.333954 270.249534 
L 240.651678 268.376328 
L 242.970731 271.739072 
L 245.303707 272.035287 
L 247.630167 268.410181 
L 249.983879 272.48102 
L 252.293396 275.223123 
L 254.607528 278.93004 
L 256.942294 275.13849 
L 259.25449 274.010052 
L 261.605125 269.374995 
L 263.907509 277.587199 
L 266.205413 276.001745 
L 268.537305 276.374129 
L 270.844749 273.950809 
L 273.16846 268.032155 
L 275.473413 281.84423 
L 277.816532 276.202042 
L 280.156945 285.494725 
L 282.496801 280.250312 
L 284.811307 278.924398 
L 287.132747 274.385258 
L 289.466412 280.261596 
L 291.792132 284.205485 
L 294.124423 280.825815 
L 296.434419 287.800969 
L 298.775735 288.100005 
L 301.085877 284.19138 
L 303.412961 285.24929 
L 305.750543 285.206973 
L 308.070823 287.707873 
L 310.420544 287.768527 
L 312.742541 290.119908 
L 315.095113 288.00832 
L 317.446327 293.578569 
L 319.744651 292.973445 
L 322.069646 290.586799 
L 324.418542 293.653328 
L 326.751079 296.001889 
L 329.061471 289.01545 
L 331.362161 293.831057 
L 333.705891 294.646353 
L 336.015289 294.2782 
L 338.328734 295.788896 
L 340.663399 298.025318 
L 342.993687 291.751911 
L 345.355256 296.83129 
L 347.660088 296.812248 
L 349.984453 300.212018 
L 352.301905 299.929909 
L 354.620447 298.072924 
L 356.935675 299.839458 
L 359.259053 301.418741 
L 361.6002 301.64725 
L 363.937789 301.761504 
L 366.268684 302.62326 
L 368.593605 302.132302 
L 370.936663 301.465289 
L 373.324942 301.800911 
L 375.637758 301.818102 
L 377.988449 302.657554 
L 380.302144 302.419877 
L 382.603299 303.149174 
L 384.925359 301.977759 
L 387.230717 302.163686 
L 389.583507 301.752865 
L 391.900836 301.940379 
L 394.231669 302.979335 
L 396.531105 302.897127 
L 398.859838 303.131718 
L 401.204164 302.973737 
L 403.542317 303.052375 
L 405.856851 302.949537 
L 408.193058 303.061147 
L 412.845431 302.566574 
L 412.845431 302.566574 
" style="fill:none;stroke:#2ca02c;stroke-linecap:square;stroke-width:1.5;"/>
   </g>
   <g id="line2d_19">
    <path clip-path="url(#pc4d5b1f76e)" d="M 66.005455 44.641025 
L 68.301726 88.311556 
L 70.60403 107.946369 
L 72.907162 106.547106 
L 75.221317 123.879906 
L 77.549027 150.014519 
L 79.870795 163.194669 
L 82.185106 167.415025 
L 84.492269 169.536487 
L 86.803765 157.800737 
L 89.125155 184.939659 
L 91.432797 189.081025 
L 93.768618 199.82375 
L 96.096024 193.583491 
L 98.409066 205.228966 
L 100.721943 213.308578 
L 103.048847 222.448922 
L 105.380041 210.679319 
L 107.674312 226.590287 
L 110.002228 229.095419 
L 112.326106 218.251134 
L 114.610764 224.265706 
L 116.956487 228.1701 
L 119.270703 226.601572 
L 121.647156 230.099728 
L 123.965053 241.276902 
L 126.304484 236.024025 
L 128.650337 237.321728 
L 130.971628 242.608458 
L 133.333364 243.178319 
L 135.621156 241.271259 
L 137.944734 247.07707 
L 140.225469 253.289119 
L 142.562677 245.412625 
L 144.864143 256.082002 
L 147.178767 257.565897 
L 149.564195 255.467003 
L 151.85386 241.496947 
L 154.195641 244.340609 
L 156.518944 247.579225 
L 158.831203 248.797937 
L 161.150515 249.305734 
L 163.488065 245.722945 
L 165.827334 256.262552 
L 168.1592 262.124784 
L 170.470584 254.47962 
L 172.79965 253.418889 
L 175.145139 259.726855 
L 177.520338 257.54897 
L 179.813979 255.07205 
L 182.18165 257.667456 
L 184.498007 256.098928 
L 186.823996 261.001989 
L 189.179536 264.883814 
L 191.496094 264.962805 
L 193.81646 267.597706 
L 196.127527 253.531733 
L 198.408361 269.437059 
L 200.711926 269.228298 
L 203.004623 260.691669 
L 205.38439 269.843297 
L 207.70969 259.320617 
L 210.035909 257.080669 
L 212.368533 263.185516 
L 214.697227 263.518405 
L 217.028134 275.248513 
L 219.367276 267.197111 
L 221.715509 266.249223 
L 224.016261 270.926597 
L 226.349698 259.010297 
L 228.647016 259.619653 
L 230.974354 269.589398 
L 233.357995 274.650441 
L 235.656319 261.470291 
L 238.003685 269.10417 
L 240.350957 267.772614 
L 242.671418 274.565808 
L 244.992811 271.32155 
L 247.304996 266.683672 
L 249.599727 273.894387 
L 251.913084 275.451631 
L 254.215438 276.644954 
L 256.523435 272.117098 
L 258.837467 275.028467 
L 261.203798 271.062009 
L 263.531405 278.848228 
L 265.851917 275.855048 
L 268.177601 276.241537 
L 270.520118 273.386591 
L 272.824084 266.237939 
L 275.144295 281.855514 
L 277.456741 276.027134 
L 279.769963 287.595029 
L 282.084094 277.065297 
L 284.417013 281.480309 
L 286.796851 273.883103 
L 289.148098 281.336433 
L 291.483249 282.738516 
L 293.799999 282.653884 
L 298.431566 290.630526 
L 300.747342 283.724489 
L 303.054714 288.674098 
L 305.397342 285.531399 
L 307.730673 288.049225 
L 310.043402 287.517449 
L 312.391787 289.001345 
L 314.703274 288.610623 
L 317.075016 290.48665 
L 319.407134 294.202736 
L 321.691183 291.514939 
L 324.016944 296.305862 
L 326.324918 295.144276 
L 328.617657 290.586799 
L 330.911569 292.565796 
L 333.232497 294.334622 
L 335.557924 293.22029 
L 337.902614 296.608424 
L 340.227217 296.132364 
L 342.528645 293.790151 
L 344.902655 298.747871 
L 347.208325 293.745014 
L 349.510686 298.550042 
L 351.842467 299.522261 
L 354.161491 297.440646 
L 356.51669 300.628835 
L 358.825568 301.157085 
L 361.140257 302.670425 
L 363.450794 302.231084 
L 365.798886 302.176734 
L 368.12702 302.309502 
L 370.435375 301.243216 
L 372.831837 301.415568 
L 375.180748 302.191104 
L 377.52886 302.598047 
L 379.849886 302.468188 
L 382.195641 303.347995 
L 384.528962 302.026423 
L 386.866835 302.697138 
L 391.515398 301.61062 
L 393.803348 303.173946 
L 396.122857 303.018301 
L 398.442176 303.319938 
L 400.837277 303.100113 
L 403.166098 303.081908 
L 405.536756 302.78274 
L 407.881172 303.078999 
L 410.198973 303.104609 
L 412.523805 302.792173 
L 412.523805 302.792173 
" style="fill:none;stroke:#d62728;stroke-linecap:square;stroke-width:1.5;"/>
   </g>
   <g id="patch_3">
    <path d="M 47.72 303.64 
L 47.72 14.76 
" style="fill:none;stroke:#000000;stroke-linecap:square;stroke-linejoin:miter;stroke-width:0.8;"/>
   </g>
   <g id="patch_4">
    <path d="M 450 303.64 
L 450 14.76 
" style="fill:none;stroke:#000000;stroke-linecap:square;stroke-linejoin:miter;stroke-width:0.8;"/>
   </g>
   <g id="patch_5">
    <path d="M 47.72 303.64 
L 450 303.64 
" style="fill:none;stroke:#000000;stroke-linecap:square;stroke-linejoin:miter;stroke-width:0.8;"/>
   </g>
   <g id="patch_6">
    <path d="M 47.72 14.76 
L 450 14.76 
" style="fill:none;stroke:#000000;stroke-linecap:square;stroke-linejoin:miter;stroke-width:0.8;"/>
   </g>
   <g id="legend_1">
    <g id="patch_7">
     <path d="M 321.514063 81.4725 
L 443 81.4725 
Q 445 81.4725 445 79.4725 
L 445 21.76 
Q 445 19.76 443 19.76 
L 321.514063 19.76 
Q 319.514063 19.76 319.514063 21.76 
L 319.514063 79.4725 
Q 319.514063 81.4725 321.514063 81.4725 
z
" style="fill:#ffffff;opacity:0.8;stroke:#cccccc;stroke-linejoin:miter;"/>
    </g>
    <g id="line2d_20">
     <path d="M 323.514063 27.858437 
L 343.514063 27.858437 
" style="fill:none;stroke:#1f77b4;stroke-linecap:square;stroke-width:1.5;"/>
    </g>
    <g id="line2d_21"/>
    <g id="text_18">
     <!-- AllReduce SGD -->
     <g transform="translate(351.514063 31.358437)scale(0.1 -0.1)">
      <defs>
       <path d="M 34.1875 63.1875 
L 20.796875 26.90625 
L 47.609375 26.90625 
z
M 28.609375 72.90625 
L 39.796875 72.90625 
L 67.578125 0 
L 57.328125 0 
L 50.6875 18.703125 
L 17.828125 18.703125 
L 11.1875 0 
L 0.78125 0 
z
" id="DejaVuSans-65"/>
       <path d="M 9.421875 75.984375 
L 18.40625 75.984375 
L 18.40625 0 
L 9.421875 0 
z
" id="DejaVuSans-108"/>
       <path d="M 44.390625 34.1875 
Q 47.5625 33.109375 50.5625 29.59375 
Q 53.5625 26.078125 56.59375 19.921875 
L 66.609375 0 
L 56 0 
L 46.6875 18.703125 
Q 43.0625 26.03125 39.671875 28.421875 
Q 36.28125 30.8125 30.421875 30.8125 
L 19.671875 30.8125 
L 19.671875 0 
L 9.8125 0 
L 9.8125 72.90625 
L 32.078125 72.90625 
Q 44.578125 72.90625 50.734375 67.671875 
Q 56.890625 62.453125 56.890625 51.90625 
Q 56.890625 45.015625 53.6875 40.46875 
Q 50.484375 35.9375 44.390625 34.1875 
z
M 19.671875 64.796875 
L 19.671875 38.921875 
L 32.078125 38.921875 
Q 39.203125 38.921875 42.84375 42.21875 
Q 46.484375 45.515625 46.484375 51.90625 
Q 46.484375 58.296875 42.84375 61.546875 
Q 39.203125 64.796875 32.078125 64.796875 
z
" id="DejaVuSans-82"/>
       <path d="M 45.40625 46.390625 
L 45.40625 75.984375 
L 54.390625 75.984375 
L 54.390625 0 
L 45.40625 0 
L 45.40625 8.203125 
Q 42.578125 3.328125 38.25 0.953125 
Q 33.9375 -1.421875 27.875 -1.421875 
Q 17.96875 -1.421875 11.734375 6.484375 
Q 5.515625 14.40625 5.515625 27.296875 
Q 5.515625 40.1875 11.734375 48.09375 
Q 17.96875 56 27.875 56 
Q 33.9375 56 38.25 53.625 
Q 42.578125 51.265625 45.40625 46.390625 
z
M 14.796875 27.296875 
Q 14.796875 17.390625 18.875 11.75 
Q 22.953125 6.109375 30.078125 6.109375 
Q 37.203125 6.109375 41.296875 11.75 
Q 45.40625 17.390625 45.40625 27.296875 
Q 45.40625 37.203125 41.296875 42.84375 
Q 37.203125 48.484375 30.078125 48.484375 
Q 22.953125 48.484375 18.875 42.84375 
Q 14.796875 37.203125 14.796875 27.296875 
z
" id="DejaVuSans-100"/>
       <path d="M 8.5 21.578125 
L 8.5 54.6875 
L 17.484375 54.6875 
L 17.484375 21.921875 
Q 17.484375 14.15625 20.5 10.265625 
Q 23.53125 6.390625 29.59375 6.390625 
Q 36.859375 6.390625 41.078125 11.03125 
Q 45.3125 15.671875 45.3125 23.6875 
L 45.3125 54.6875 
L 54.296875 54.6875 
L 54.296875 0 
L 45.3125 0 
L 45.3125 8.40625 
Q 42.046875 3.421875 37.71875 1 
Q 33.40625 -1.421875 27.6875 -1.421875 
Q 18.265625 -1.421875 13.375 4.4375 
Q 8.5 10.296875 8.5 21.578125 
z
M 31.109375 56 
z
" id="DejaVuSans-117"/>
       <path d="M 48.78125 52.59375 
L 48.78125 44.1875 
Q 44.96875 46.296875 41.140625 47.34375 
Q 37.3125 48.390625 33.40625 48.390625 
Q 24.65625 48.390625 19.8125 42.84375 
Q 14.984375 37.3125 14.984375 27.296875 
Q 14.984375 17.28125 19.8125 11.734375 
Q 24.65625 6.203125 33.40625 6.203125 
Q 37.3125 6.203125 41.140625 7.25 
Q 44.96875 8.296875 48.78125 10.40625 
L 48.78125 2.09375 
Q 45.015625 0.34375 40.984375 -0.53125 
Q 36.96875 -1.421875 32.421875 -1.421875 
Q 20.0625 -1.421875 12.78125 6.34375 
Q 5.515625 14.109375 5.515625 27.296875 
Q 5.515625 40.671875 12.859375 48.328125 
Q 20.21875 56 33.015625 56 
Q 37.15625 56 41.109375 55.140625 
Q 45.0625 54.296875 48.78125 52.59375 
z
" id="DejaVuSans-99"/>
       <path id="DejaVuSans-32"/>
       <path d="M 53.515625 70.515625 
L 53.515625 60.890625 
Q 47.90625 63.578125 42.921875 64.890625 
Q 37.9375 66.21875 33.296875 66.21875 
Q 25.25 66.21875 20.875 63.09375 
Q 16.5 59.96875 16.5 54.203125 
Q 16.5 49.359375 19.40625 46.890625 
Q 22.3125 44.4375 30.421875 42.921875 
L 36.375 41.703125 
Q 47.40625 39.59375 52.65625 34.296875 
Q 57.90625 29 57.90625 20.125 
Q 57.90625 9.515625 50.796875 4.046875 
Q 43.703125 -1.421875 29.984375 -1.421875 
Q 24.8125 -1.421875 18.96875 -0.25 
Q 13.140625 0.921875 6.890625 3.21875 
L 6.890625 13.375 
Q 12.890625 10.015625 18.65625 8.296875 
Q 24.421875 6.59375 29.984375 6.59375 
Q 38.421875 6.59375 43.015625 9.90625 
Q 47.609375 13.234375 47.609375 19.390625 
Q 47.609375 24.75 44.3125 27.78125 
Q 41.015625 30.8125 33.5 32.328125 
L 27.484375 33.5 
Q 16.453125 35.6875 11.515625 40.375 
Q 6.59375 45.0625 6.59375 53.421875 
Q 6.59375 63.09375 13.40625 68.65625 
Q 20.21875 74.21875 32.171875 74.21875 
Q 37.3125 74.21875 42.625 73.28125 
Q 47.953125 72.359375 53.515625 70.515625 
z
" id="DejaVuSans-83"/>
       <path d="M 59.515625 10.40625 
L 59.515625 29.984375 
L 43.40625 29.984375 
L 43.40625 38.09375 
L 69.28125 38.09375 
L 69.28125 6.78125 
Q 63.578125 2.734375 56.6875 0.65625 
Q 49.8125 -1.421875 42 -1.421875 
Q 24.90625 -1.421875 15.25 8.5625 
Q 5.609375 18.5625 5.609375 36.375 
Q 5.609375 54.25 15.25 64.234375 
Q 24.90625 74.21875 42 74.21875 
Q 49.125 74.21875 55.546875 72.453125 
Q 61.96875 70.703125 67.390625 67.28125 
L 67.390625 56.78125 
Q 61.921875 61.421875 55.765625 63.765625 
Q 49.609375 66.109375 42.828125 66.109375 
Q 29.4375 66.109375 22.71875 58.640625 
Q 16.015625 51.171875 16.015625 36.375 
Q 16.015625 21.625 22.71875 14.15625 
Q 29.4375 6.6875 42.828125 6.6875 
Q 48.046875 6.6875 52.140625 7.59375 
Q 56.25 8.5 59.515625 10.40625 
z
" id="DejaVuSans-71"/>
       <path d="M 19.671875 64.796875 
L 19.671875 8.109375 
L 31.59375 8.109375 
Q 46.6875 8.109375 53.6875 14.9375 
Q 60.6875 21.78125 60.6875 36.53125 
Q 60.6875 51.171875 53.6875 57.984375 
Q 46.6875 64.796875 31.59375 64.796875 
z
M 9.8125 72.90625 
L 30.078125 72.90625 
Q 51.265625 72.90625 61.171875 64.09375 
Q 71.09375 55.28125 71.09375 36.53125 
Q 71.09375 17.671875 61.125 8.828125 
Q 51.171875 0 30.078125 0 
L 9.8125 0 
z
" id="DejaVuSans-68"/>
      </defs>
      <use xlink:href="#DejaVuSans-65"/>
      <use x="68.408203" xlink:href="#DejaVuSans-108"/>
      <use x="96.191406" xlink:href="#DejaVuSans-108"/>
      <use x="123.974609" xlink:href="#DejaVuSans-82"/>
      <use x="188.957031" xlink:href="#DejaVuSans-101"/>
      <use x="250.480469" xlink:href="#DejaVuSans-100"/>
      <use x="313.957031" xlink:href="#DejaVuSans-117"/>
      <use x="377.335938" xlink:href="#DejaVuSans-99"/>
      <use x="432.316406" xlink:href="#DejaVuSans-101"/>
      <use x="493.839844" xlink:href="#DejaVuSans-32"/>
      <use x="525.626953" xlink:href="#DejaVuSans-83"/>
      <use x="589.103516" xlink:href="#DejaVuSans-71"/>
      <use x="666.59375" xlink:href="#DejaVuSans-68"/>
     </g>
    </g>
    <g id="line2d_22">
     <path d="M 323.514063 42.536563 
L 343.514063 42.536563 
" style="fill:none;stroke:#ff7f0e;stroke-linecap:square;stroke-width:1.5;"/>
    </g>
    <g id="line2d_23"/>
    <g id="text_19">
     <!-- GRandK-MN 8 bits -->
     <g transform="translate(351.514063 46.036563)scale(0.1 -0.1)">
      <defs>
       <path d="M 34.28125 27.484375 
Q 23.390625 27.484375 19.1875 25 
Q 14.984375 22.515625 14.984375 16.5 
Q 14.984375 11.71875 18.140625 8.90625 
Q 21.296875 6.109375 26.703125 6.109375 
Q 34.1875 6.109375 38.703125 11.40625 
Q 43.21875 16.703125 43.21875 25.484375 
L 43.21875 27.484375 
z
M 52.203125 31.203125 
L 52.203125 0 
L 43.21875 0 
L 43.21875 8.296875 
Q 40.140625 3.328125 35.546875 0.953125 
Q 30.953125 -1.421875 24.3125 -1.421875 
Q 15.921875 -1.421875 10.953125 3.296875 
Q 6 8.015625 6 15.921875 
Q 6 25.140625 12.171875 29.828125 
Q 18.359375 34.515625 30.609375 34.515625 
L 43.21875 34.515625 
L 43.21875 35.40625 
Q 43.21875 41.609375 39.140625 45 
Q 35.0625 48.390625 27.6875 48.390625 
Q 23 48.390625 18.546875 47.265625 
Q 14.109375 46.140625 10.015625 43.890625 
L 10.015625 52.203125 
Q 14.9375 54.109375 19.578125 55.046875 
Q 24.21875 56 28.609375 56 
Q 40.484375 56 46.34375 49.84375 
Q 52.203125 43.703125 52.203125 31.203125 
z
" id="DejaVuSans-97"/>
       <path d="M 54.890625 33.015625 
L 54.890625 0 
L 45.90625 0 
L 45.90625 32.71875 
Q 45.90625 40.484375 42.875 44.328125 
Q 39.84375 48.1875 33.796875 48.1875 
Q 26.515625 48.1875 22.3125 43.546875 
Q 18.109375 38.921875 18.109375 30.90625 
L 18.109375 0 
L 9.078125 0 
L 9.078125 54.6875 
L 18.109375 54.6875 
L 18.109375 46.1875 
Q 21.34375 51.125 25.703125 53.5625 
Q 30.078125 56 35.796875 56 
Q 45.21875 56 50.046875 50.171875 
Q 54.890625 44.34375 54.890625 33.015625 
z
" id="DejaVuSans-110"/>
       <path d="M 9.8125 72.90625 
L 19.671875 72.90625 
L 19.671875 42.09375 
L 52.390625 72.90625 
L 65.09375 72.90625 
L 28.90625 38.921875 
L 67.671875 0 
L 54.6875 0 
L 19.671875 35.109375 
L 19.671875 0 
L 9.8125 0 
z
" id="DejaVuSans-75"/>
       <path d="M 4.890625 31.390625 
L 31.203125 31.390625 
L 31.203125 23.390625 
L 4.890625 23.390625 
z
" id="DejaVuSans-45"/>
       <path d="M 9.8125 72.90625 
L 24.515625 72.90625 
L 43.109375 23.296875 
L 61.8125 72.90625 
L 76.515625 72.90625 
L 76.515625 0 
L 66.890625 0 
L 66.890625 64.015625 
L 48.09375 14.015625 
L 38.1875 14.015625 
L 19.390625 64.015625 
L 19.390625 0 
L 9.8125 0 
z
" id="DejaVuSans-77"/>
       <path d="M 9.8125 72.90625 
L 23.09375 72.90625 
L 55.421875 11.921875 
L 55.421875 72.90625 
L 64.984375 72.90625 
L 64.984375 0 
L 51.703125 0 
L 19.390625 60.984375 
L 19.390625 0 
L 9.8125 0 
z
" id="DejaVuSans-78"/>
       <path d="M 48.6875 27.296875 
Q 48.6875 37.203125 44.609375 42.84375 
Q 40.53125 48.484375 33.40625 48.484375 
Q 26.265625 48.484375 22.1875 42.84375 
Q 18.109375 37.203125 18.109375 27.296875 
Q 18.109375 17.390625 22.1875 11.75 
Q 26.265625 6.109375 33.40625 6.109375 
Q 40.53125 6.109375 44.609375 11.75 
Q 48.6875 17.390625 48.6875 27.296875 
z
M 18.109375 46.390625 
Q 20.953125 51.265625 25.265625 53.625 
Q 29.59375 56 35.59375 56 
Q 45.5625 56 51.78125 48.09375 
Q 58.015625 40.1875 58.015625 27.296875 
Q 58.015625 14.40625 51.78125 6.484375 
Q 45.5625 -1.421875 35.59375 -1.421875 
Q 29.59375 -1.421875 25.265625 0.953125 
Q 20.953125 3.328125 18.109375 8.203125 
L 18.109375 0 
L 9.078125 0 
L 9.078125 75.984375 
L 18.109375 75.984375 
z
" id="DejaVuSans-98"/>
       <path d="M 18.3125 70.21875 
L 18.3125 54.6875 
L 36.8125 54.6875 
L 36.8125 47.703125 
L 18.3125 47.703125 
L 18.3125 18.015625 
Q 18.3125 11.328125 20.140625 9.421875 
Q 21.96875 7.515625 27.59375 7.515625 
L 36.8125 7.515625 
L 36.8125 0 
L 27.59375 0 
Q 17.1875 0 13.234375 3.875 
Q 9.28125 7.765625 9.28125 18.015625 
L 9.28125 47.703125 
L 2.6875 47.703125 
L 2.6875 54.6875 
L 9.28125 54.6875 
L 9.28125 70.21875 
z
" id="DejaVuSans-116"/>
      </defs>
      <use xlink:href="#DejaVuSans-71"/>
      <use x="77.490234" xlink:href="#DejaVuSans-82"/>
      <use x="144.722656" xlink:href="#DejaVuSans-97"/>
      <use x="206.001953" xlink:href="#DejaVuSans-110"/>
      <use x="269.380859" xlink:href="#DejaVuSans-100"/>
      <use x="332.857422" xlink:href="#DejaVuSans-75"/>
      <use x="387.933594" xlink:href="#DejaVuSans-45"/>
      <use x="424.017578" xlink:href="#DejaVuSans-77"/>
      <use x="510.296875" xlink:href="#DejaVuSans-78"/>
      <use x="585.101562" xlink:href="#DejaVuSans-32"/>
      <use x="616.888672" xlink:href="#DejaVuSans-56"/>
      <use x="680.511719" xlink:href="#DejaVuSans-32"/>
      <use x="712.298828" xlink:href="#DejaVuSans-98"/>
      <use x="775.775391" xlink:href="#DejaVuSans-105"/>
      <use x="803.558594" xlink:href="#DejaVuSans-116"/>
      <use x="842.767578" xlink:href="#DejaVuSans-115"/>
     </g>
    </g>
    <g id="line2d_24">
     <path d="M 323.514063 57.214687 
L 343.514063 57.214687 
" style="fill:none;stroke:#2ca02c;stroke-linecap:square;stroke-width:1.5;"/>
    </g>
    <g id="line2d_25"/>
    <g id="text_20">
     <!-- GRandK-MN 4 bits -->
     <g transform="translate(351.514063 60.714687)scale(0.1 -0.1)">
      <use xlink:href="#DejaVuSans-71"/>
      <use x="77.490234" xlink:href="#DejaVuSans-82"/>
      <use x="144.722656" xlink:href="#DejaVuSans-97"/>
      <use x="206.001953" xlink:href="#DejaVuSans-110"/>
      <use x="269.380859" xlink:href="#DejaVuSans-100"/>
      <use x="332.857422" xlink:href="#DejaVuSans-75"/>
      <use x="387.933594" xlink:href="#DejaVuSans-45"/>
      <use x="424.017578" xlink:href="#DejaVuSans-77"/>
      <use x="510.296875" xlink:href="#DejaVuSans-78"/>
      <use x="585.101562" xlink:href="#DejaVuSans-32"/>
      <use x="616.888672" xlink:href="#DejaVuSans-52"/>
      <use x="680.511719" xlink:href="#DejaVuSans-32"/>
      <use x="712.298828" xlink:href="#DejaVuSans-98"/>
      <use x="775.775391" xlink:href="#DejaVuSans-105"/>
      <use x="803.558594" xlink:href="#DejaVuSans-116"/>
      <use x="842.767578" xlink:href="#DejaVuSans-115"/>
     </g>
    </g>
    <g id="line2d_26">
     <path d="M 323.514063 71.892812 
L 343.514063 71.892812 
" style="fill:none;stroke:#d62728;stroke-linecap:square;stroke-width:1.5;"/>
    </g>
    <g id="line2d_27"/>
    <g id="text_21">
     <!-- GRandK-MN 2 bits -->
     <g transform="translate(351.514063 75.392812)scale(0.1 -0.1)">
      <use xlink:href="#DejaVuSans-71"/>
      <use x="77.490234" xlink:href="#DejaVuSans-82"/>
      <use x="144.722656" xlink:href="#DejaVuSans-97"/>
      <use x="206.001953" xlink:href="#DejaVuSans-110"/>
      <use x="269.380859" xlink:href="#DejaVuSans-100"/>
      <use x="332.857422" xlink:href="#DejaVuSans-75"/>
      <use x="387.933594" xlink:href="#DejaVuSans-45"/>
      <use x="424.017578" xlink:href="#DejaVuSans-77"/>
      <use x="510.296875" xlink:href="#DejaVuSans-78"/>
      <use x="585.101562" xlink:href="#DejaVuSans-32"/>
      <use x="616.888672" xlink:href="#DejaVuSans-50"/>
      <use x="680.511719" xlink:href="#DejaVuSans-32"/>
      <use x="712.298828" xlink:href="#DejaVuSans-98"/>
      <use x="775.775391" xlink:href="#DejaVuSans-105"/>
      <use x="803.558594" xlink:href="#DejaVuSans-116"/>
      <use x="842.767578" xlink:href="#DejaVuSans-115"/>
     </g>
    </g>
   </g>
  </g>
 </g>
 <defs>
  <clipPath id="pc4d5b1f76e">
   <rect height="288.88" width="402.28" x="47.72" y="14.76"/>
  </clipPath>
 </defs>
</svg>
