<?xml version="1.0" encoding="utf-8" standalone="no"?>
<!DOCTYPE svg PUBLIC "-//W3C//DTD SVG 1.1//EN"
  "http://www.w3.org/Graphics/SVG/1.1/DTD/svg11.dtd">
<!-- Created with matplotlib (https://matplotlib.org/) -->
<svg height="345.6pt" version="1.1" viewBox="0 0 460.8 345.6" width="460.8pt" xmlns="http://www.w3.org/2000/svg" xmlns:xlink="http://www.w3.org/1999/xlink">
 <metadata>
  <rdf:RDF xmlns:cc="http://creativecommons.org/ns#" xmlns:dc="http://purl.org/dc/elements/1.1/" xmlns:rdf="http://www.w3.org/1999/02/22-rdf-syntax-ns#">
   <cc:Work>
    <dc:type rdf:resource="http://purl.org/dc/dcmitype/StillImage"/>
    <dc:date>2021-06-10T08:56:21.227579</dc:date>
    <dc:format>image/svg+xml</dc:format>
    <dc:creator>
     <cc:Agent>
      <dc:title>Matplotlib v3.3.1, https://matplotlib.org/</dc:title>
     </cc:Agent>
    </dc:creator>
   </cc:Work>
  </rdf:RDF>
 </metadata>
 <defs>
  <style type="text/css">*{stroke-linecap:butt;stroke-linejoin:round;}</style>
 </defs>
 <g id="figure_1">
  <g id="patch_1">
   <path d="M 0 345.6 
L 460.8 345.6 
L 460.8 0 
L 0 0 
z
" style="fill:#ffffff;"/>
  </g>
  <g id="axes_1">
   <g id="patch_2">
    <path d="M 47.72 303.64 
L 450 303.64 
L 450 14.76 
L 47.72 14.76 
z
" style="fill:#ffffff;"/>
   </g>
   <g id="PolyCollection_1">
    <path clip-path="url(#p6553e94627)" d="M 66.005455 36.705705 
L 66.005455 52.756895 
L 68.459878 76.283789 
L 70.914301 90.849332 
L 73.368725 99.001384 
L 75.823148 117.993606 
L 78.277572 148.26022 
L 80.731995 162.338697 
L 83.186419 172.467608 
L 85.640842 184.658613 
L 88.095265 170.8425 
L 90.549689 200.999982 
L 93.004112 202.858666 
L 95.458536 220.928591 
L 97.912959 221.339344 
L 100.367383 230.577193 
L 102.821806 231.147217 
L 105.276229 245.418758 
L 107.730653 231.678067 
L 110.185076 243.289598 
L 112.6395 243.592336 
L 115.093923 236.957601 
L 117.548347 241.358429 
L 120.00277 254.780084 
L 122.457193 248.134076 
L 124.911617 258.897849 
L 127.36604 256.025969 
L 129.820464 259.807077 
L 132.274887 259.305021 
L 134.729311 263.207871 
L 137.183734 263.50163 
L 139.638157 258.679798 
L 142.092581 263.775357 
L 144.547004 272.363457 
L 147.001428 265.177781 
L 149.455851 281.592939 
L 151.910275 271.593068 
L 154.364698 271.587978 
L 156.819121 265.659388 
L 159.273545 265.452992 
L 161.727968 272.205149 
L 164.182392 270.638349 
L 166.636815 271.025714 
L 169.091239 271.140167 
L 171.545662 271.583867 
L 174.000085 277.745464 
L 176.454509 269.124544 
L 178.908932 267.908454 
L 181.363356 279.132672 
L 183.817779 273.333675 
L 186.272203 275.891027 
L 188.726626 274.514894 
L 191.181049 279.095973 
L 193.635473 274.650874 
L 196.089896 281.540878 
L 198.54432 282.243853 
L 200.998743 282.664729 
L 203.453167 275.066041 
L 205.90759 285.556254 
L 208.362013 284.387465 
L 210.816437 278.18504 
L 213.27086 281.411013 
L 215.725284 277.190988 
L 218.179707 279.965614 
L 220.634131 280.05521 
L 223.088554 280.085236 
L 225.542977 287.704561 
L 227.997401 285.91601 
L 230.451824 285.551135 
L 232.906248 282.550617 
L 235.360671 278.432467 
L 237.815095 276.022231 
L 240.269518 283.48046 
L 242.723941 287.658729 
L 245.178365 280.738932 
L 247.632788 285.628669 
L 250.087212 284.425706 
L 252.541635 287.984519 
L 254.996059 288.821359 
L 257.450482 287.306359 
L 259.904905 289.651866 
L 262.359329 290.041378 
L 264.813752 294.595242 
L 267.268176 290.568084 
L 269.722599 289.770772 
L 272.177023 284.134268 
L 274.631446 292.474904 
L 277.085869 290.828825 
L 279.540293 292.027236 
L 281.994716 291.910754 
L 284.44914 287.12802 
L 286.903563 297.155058 
L 289.357987 291.08559 
L 291.81241 297.171884 
L 294.266833 292.860705 
L 296.721257 293.573299 
L 299.17568 296.578327 
L 301.630104 295.532302 
L 304.084527 295.547367 
L 306.538951 292.226036 
L 308.993374 296.219477 
L 311.447797 300.365351 
L 313.902221 297.329727 
L 316.356644 298.5765 
L 318.811068 298.329908 
L 321.265491 297.779101 
L 323.719915 299.484721 
L 326.174338 298.570961 
L 328.628761 299.875423 
L 331.083185 300.576075 
L 333.537608 301.134841 
L 335.992032 298.359225 
L 338.446455 300.016902 
L 340.900879 302.261894 
L 343.355302 302.039859 
L 345.809725 301.852002 
L 348.264149 302.291347 
L 350.718572 302.670829 
L 353.172996 302.802904 
L 355.627419 302.619212 
L 358.081843 302.916903 
L 360.536266 302.844699 
L 362.990689 302.683768 
L 365.445113 303.472301 
L 367.899536 303.832087 
L 370.35396 303.492126 
L 372.808383 303.427211 
L 375.262807 303.584801 
L 377.71723 303.451279 
L 380.171653 303.549949 
L 382.626077 303.523129 
L 385.0805 303.556815 
L 387.534924 303.457428 
L 389.989347 303.527084 
L 392.443771 303.529021 
L 394.898194 303.512329 
L 397.352617 303.598676 
L 399.807041 303.589367 
L 402.261464 303.59475 
L 404.715888 303.569425 
L 407.170311 303.472827 
L 409.624735 303.514348 
L 412.079158 303.647131 
L 414.533581 303.53199 
L 416.988005 303.576429 
L 419.442428 303.574956 
L 421.896852 303.558061 
L 424.351275 303.489432 
L 426.805699 303.547601 
L 429.260122 303.569633 
L 431.714545 303.555699 
L 431.714545 303.387776 
L 431.714545 303.387776 
L 429.260122 303.31235 
L 426.805699 303.483812 
L 424.351275 303.384022 
L 421.896852 303.51115 
L 419.442428 303.527932 
L 416.988005 303.515483 
L 414.533581 303.337387 
L 412.079158 303.164457 
L 409.624735 303.303544 
L 407.170311 303.124028 
L 404.715888 303.424895 
L 402.261464 303.330872 
L 399.807041 303.407763 
L 397.352617 302.871802 
L 394.898194 303.426495 
L 392.443771 303.463801 
L 389.989347 303.343901 
L 387.534924 303.138721 
L 385.0805 303.3227 
L 382.626077 302.921255 
L 380.171653 303.260361 
L 377.71723 303.347857 
L 375.262807 303.064993 
L 372.808383 303.182074 
L 370.35396 302.937006 
L 367.899536 302.184504 
L 365.445113 302.658809 
L 362.990689 301.881105 
L 360.536266 302.022737 
L 358.081843 301.149871 
L 355.627419 301.539776 
L 353.172996 299.232683 
L 350.718572 301.424509 
L 348.264149 299.419813 
L 345.809725 298.859434 
L 343.355302 300.302874 
L 340.900879 301.15356 
L 338.446455 298.567782 
L 335.992032 296.163789 
L 333.537608 299.703896 
L 331.083185 299.08274 
L 328.628761 297.807216 
L 326.174338 296.454207 
L 323.719915 296.13852 
L 321.265491 293.424896 
L 318.811068 294.302973 
L 316.356644 295.296252 
L 313.902221 294.386299 
L 311.447797 297.134623 
L 308.993374 290.813533 
L 306.538951 290.267835 
L 304.084527 288.091867 
L 301.630104 288.673972 
L 299.17568 293.055731 
L 296.721257 288.759769 
L 294.266833 289.777041 
L 291.81241 291.683552 
L 289.357987 285.952285 
L 286.903563 291.340689 
L 284.44914 279.957037 
L 281.994716 287.722527 
L 279.540293 288.048957 
L 277.085869 285.469923 
L 274.631446 288.159866 
L 272.177023 282.347074 
L 269.722599 280.019713 
L 267.268176 286.18486 
L 264.813752 292.990702 
L 262.359329 284.584461 
L 259.904905 284.818813 
L 257.450482 285.087996 
L 254.996059 285.49134 
L 252.541635 285.594695 
L 250.087212 279.426377 
L 247.632788 282.020606 
L 245.178365 269.662176 
L 242.723941 280.678893 
L 240.269518 277.62952 
L 237.815095 270.688886 
L 235.360671 272.939097 
L 232.906248 280.663898 
L 230.451824 279.372963 
L 227.997401 280.074462 
L 225.542977 283.877319 
L 223.088554 276.178104 
L 220.634131 269.488286 
L 218.179707 274.125484 
L 215.725284 272.493562 
L 213.27086 273.848019 
L 210.816437 270.991713 
L 208.362013 276.147012 
L 205.90759 278.521516 
L 203.453167 267.644765 
L 200.998743 279.438276 
L 198.54432 277.088838 
L 196.089896 278.124702 
L 193.635473 269.876717 
L 191.181049 272.06683 
L 188.726626 268.568296 
L 186.272203 271.846968 
L 183.817779 268.790344 
L 181.363356 273.485815 
L 178.908932 261.20468 
L 176.454509 264.863441 
L 174.000085 274.455502 
L 171.545662 267.109702 
L 169.091239 267.39542 
L 166.636815 268.186936 
L 164.182392 264.861741 
L 161.727968 264.32182 
L 159.273545 262.565558 
L 156.819121 259.176969 
L 154.364698 265.604769 
L 151.910275 265.159588 
L 149.455851 272.52637 
L 147.001428 258.462431 
L 144.547004 264.581033 
L 142.092581 251.20974 
L 139.638157 255.56053 
L 137.183734 260.567389 
L 134.729311 250.829338 
L 132.274887 247.814867 
L 129.820464 247.143545 
L 127.36604 251.940246 
L 124.911617 250.287079 
L 122.457193 240.242465 
L 120.00277 243.583129 
L 117.548347 232.134021 
L 115.093923 225.769555 
L 112.6395 235.011936 
L 110.185076 235.235684 
L 107.730653 224.594427 
L 105.276229 236.345138 
L 102.821806 215.804383 
L 100.367383 209.671488 
L 97.912959 204.623318 
L 95.458536 200.407478 
L 93.004112 191.891415 
L 90.549689 183.07508 
L 88.095265 147.5575 
L 85.640842 154.4595 
L 83.186419 140.470755 
L 80.731995 132.228703 
L 78.277572 115.07203 
L 75.823148 94.017307 
L 73.368725 79.382091 
L 70.914301 75.572705 
L 68.459878 50.372111 
L 66.005455 36.705705 
z
" style="fill:#1f77b4;fill-opacity:0.25;"/>
   </g>
   <g id="PolyCollection_2">
    <path clip-path="url(#p6553e94627)" d="M 66.005455 49.895865 
L 66.005455 54.191285 
L 68.459878 88.645211 
L 70.914301 105.935613 
L 73.368725 105.174897 
L 75.823148 119.869435 
L 78.277572 147.034418 
L 80.731995 161.483319 
L 83.186419 167.981517 
L 85.640842 168.553212 
L 88.095265 160.709805 
L 90.549689 185.643514 
L 93.004112 190.908873 
L 95.458536 199.297911 
L 97.912959 196.484142 
L 100.367383 214.885756 
L 102.821806 215.670251 
L 105.276229 226.079963 
L 107.730653 213.908089 
L 110.185076 228.330833 
L 112.6395 226.952045 
L 115.093923 221.304882 
L 117.548347 226.082573 
L 120.00277 233.771415 
L 122.457193 230.809763 
L 124.911617 231.245085 
L 127.36604 243.800823 
L 129.820464 234.750919 
L 132.274887 242.673805 
L 134.729311 245.226148 
L 137.183734 249.41939 
L 139.638157 245.599446 
L 142.092581 247.414324 
L 144.547004 256.499492 
L 147.001428 251.509865 
L 149.455851 260.023538 
L 151.910275 259.343063 
L 154.364698 258.849516 
L 156.819121 246.39054 
L 159.273545 245.143544 
L 161.727968 252.834896 
L 164.182392 250.992161 
L 166.636815 249.826053 
L 169.091239 252.962024 
L 171.545662 255.280666 
L 174.000085 262.479905 
L 176.454509 255.626932 
L 178.908932 257.174926 
L 181.363356 260.086797 
L 183.817779 262.104732 
L 186.272203 256.289901 
L 188.726626 258.810383 
L 191.181049 258.267544 
L 193.635473 258.775391 
L 196.089896 268.474747 
L 198.54432 267.775011 
L 200.998743 269.768623 
L 203.453167 258.766996 
L 205.90759 271.981914 
L 208.362013 270.929626 
L 210.816437 261.388463 
L 213.27086 272.495349 
L 215.725284 258.467508 
L 218.179707 262.607393 
L 220.634131 267.866148 
L 223.088554 264.891998 
L 225.542977 277.638493 
L 227.997401 270.884929 
L 230.451824 269.808931 
L 232.906248 271.435056 
L 235.360671 262.975613 
L 237.815095 258.224915 
L 240.269518 270.514825 
L 242.723941 276.429767 
L 245.178365 265.042922 
L 247.632788 269.779457 
L 250.087212 268.870938 
L 252.541635 277.746732 
L 254.996059 273.960084 
L 257.450482 273.275763 
L 259.904905 276.217295 
L 262.359329 277.716204 
L 264.813752 280.411057 
L 267.268176 274.752221 
L 269.722599 274.961439 
L 272.177023 270.322467 
L 274.631446 278.618925 
L 277.085869 277.665951 
L 279.540293 277.755959 
L 281.994716 277.625438 
L 284.44914 267.416841 
L 286.903563 284.214434 
L 289.357987 278.242744 
L 291.81241 287.271842 
L 294.266833 282.025088 
L 296.721257 282.328471 
L 299.17568 273.655305 
L 301.630104 281.463352 
L 304.084527 284.998284 
L 306.538951 283.258181 
L 308.993374 287.498279 
L 311.447797 292.083387 
L 313.902221 288.397552 
L 316.356644 288.773828 
L 318.811068 289.198043 
L 321.265491 288.966943 
L 323.719915 291.671665 
L 326.174338 289.86118 
L 328.628761 290.546567 
L 331.083185 292.461152 
L 333.537608 294.443661 
L 335.992032 292.888918 
L 338.446455 294.681016 
L 340.900879 297.372148 
L 343.355302 290.379555 
L 345.809725 293.975026 
L 348.264149 296.945058 
L 350.718572 295.426686 
L 353.172996 298.643487 
L 355.627419 296.709339 
L 358.081843 295.703826 
L 360.536266 298.04105 
L 362.990689 299.215733 
L 365.445113 300.710367 
L 367.899536 301.488917 
L 370.35396 298.61611 
L 372.808383 302.172032 
L 375.262807 302.142132 
L 377.71723 302.142107 
L 380.171653 302.751707 
L 382.626077 302.709565 
L 385.0805 302.336184 
L 387.534924 302.289287 
L 389.989347 302.236375 
L 392.443771 302.225346 
L 394.898194 302.919489 
L 397.352617 302.353842 
L 399.807041 303.454496 
L 402.261464 302.243916 
L 404.715888 303.221296 
L 407.170311 303.26144 
L 409.624735 302.959778 
L 412.079158 303.476789 
L 414.533581 303.076884 
L 416.988005 303.069967 
L 419.442428 303.29743 
L 421.896852 303.374735 
L 424.351275 302.932388 
L 426.805699 303.416145 
L 429.260122 302.982381 
L 431.714545 303.219721 
L 431.714545 302.213785 
L 431.714545 302.213785 
L 429.260122 302.419299 
L 426.805699 302.915174 
L 424.351275 302.712611 
L 421.896852 303.019265 
L 419.442428 302.451421 
L 416.988005 302.870366 
L 414.533581 302.657686 
L 412.079158 302.249053 
L 409.624735 302.412105 
L 407.170311 300.974424 
L 404.715888 301.778026 
L 402.261464 301.153201 
L 399.807041 302.986757 
L 397.352617 301.460797 
L 394.898194 301.411763 
L 392.443771 300.996511 
L 389.989347 300.192049 
L 387.534924 300.837005 
L 385.0805 301.379364 
L 382.626077 301.917549 
L 380.171653 301.705965 
L 377.71723 300.646712 
L 375.262807 298.502656 
L 372.808383 300.363241 
L 370.35396 296.251077 
L 367.899536 299.282114 
L 365.445113 299.213631 
L 362.990689 294.494806 
L 360.536266 294.656717 
L 358.081843 290.900378 
L 355.627419 294.402973 
L 353.172996 294.646709 
L 350.718572 289.188646 
L 348.264149 294.222265 
L 345.809725 290.671339 
L 343.355302 288.286091 
L 340.900879 293.130808 
L 338.446455 293.469147 
L 335.992032 289.478003 
L 333.537608 292.369304 
L 331.083185 289.248455 
L 328.628761 286.276905 
L 326.174338 286.970755 
L 323.719915 285.704741 
L 321.265491 285.515021 
L 318.811068 286.683184 
L 316.356644 283.140941 
L 313.902221 284.132215 
L 311.447797 288.748859 
L 308.993374 283.846629 
L 306.538951 279.50496 
L 304.084527 279.852466 
L 301.630104 278.822868 
L 299.17568 268.288164 
L 296.721257 279.701186 
L 294.266833 275.423112 
L 291.81241 284.49623 
L 289.357987 273.410929 
L 286.903563 282.836769 
L 284.44914 262.158952 
L 281.994716 271.545673 
L 279.540293 272.532305 
L 277.085869 274.501162 
L 274.631446 277.407444 
L 272.177023 264.049186 
L 269.722599 272.612933 
L 267.268176 269.465049 
L 264.813752 273.002979 
L 262.359329 270.563441 
L 259.904905 270.285061 
L 257.450482 261.609329 
L 254.996059 271.06402 
L 252.541635 271.32282 
L 250.087212 264.857506 
L 247.632788 263.757152 
L 245.178365 261.50866 
L 242.723941 271.838594 
L 240.269518 264.928843 
L 237.815095 251.874047 
L 235.360671 259.073503 
L 232.906248 267.540622 
L 230.451824 265.149509 
L 227.997401 267.853777 
L 225.542977 273.535594 
L 223.088554 259.402709 
L 220.634131 258.143783 
L 218.179707 260.434748 
L 215.725284 252.150536 
L 213.27086 268.940323 
L 210.816437 256.846534 
L 208.362013 263.013221 
L 205.90759 265.007714 
L 203.453167 254.175629 
L 200.998743 264.749727 
L 198.54432 261.597664 
L 196.089896 261.078478 
L 193.635473 253.87384 
L 191.181049 253.828753 
L 188.726626 254.346646 
L 186.272203 245.797155 
L 183.817779 255.385496 
L 181.363356 251.670968 
L 178.908932 252.134131 
L 176.454509 252.485981 
L 174.000085 254.739498 
L 171.545662 250.23684 
L 169.091239 249.192739 
L 166.636815 245.321113 
L 164.182392 242.812164 
L 161.727968 242.944195 
L 159.273545 235.740172 
L 156.819121 238.273442 
L 154.364698 250.448256 
L 151.910275 251.579659 
L 149.455851 252.287162 
L 147.001428 243.716291 
L 144.547004 249.514527 
L 142.092581 242.632304 
L 139.638157 238.105363 
L 137.183734 242.286041 
L 134.729311 239.753796 
L 132.274887 233.052951 
L 129.820464 229.601187 
L 127.36604 233.821709 
L 124.911617 226.787771 
L 122.457193 221.987143 
L 120.00277 224.870797 
L 117.548347 216.784083 
L 115.093923 212.286018 
L 112.6395 221.331112 
L 110.185076 224.533779 
L 107.730653 207.179724 
L 105.276229 220.036593 
L 102.821806 208.983424 
L 100.367383 197.874188 
L 97.912959 183.686527 
L 95.458536 190.825577 
L 93.004112 183.39392 
L 90.549689 179.880036 
L 88.095265 151.416083 
L 85.640842 158.513188 
L 83.186419 155.654433 
L 80.731995 149.649544 
L 78.277572 139.09227 
L 75.823148 110.377028 
L 73.368725 100.96814 
L 70.914301 92.3535 
L 68.459878 70.058314 
L 66.005455 49.895865 
z
" style="fill:#ff7f0e;fill-opacity:0.25;"/>
   </g>
   <g id="PolyCollection_3">
    <path clip-path="url(#p6553e94627)" d="M 66.005455 47.00226 
L 66.005455 62.32084 
L 68.459878 100.160001 
L 70.914301 110.487552 
L 73.368725 114.056532 
L 75.823148 128.964354 
L 78.277572 158.182934 
L 80.731995 171.157004 
L 83.186419 170.644135 
L 85.640842 180.625297 
L 88.095265 163.074238 
L 90.549689 193.869509 
L 93.004112 192.281617 
L 95.458536 201.994143 
L 97.912959 198.685747 
L 100.367383 208.771404 
L 102.821806 214.037615 
L 105.276229 226.927899 
L 107.730653 212.112183 
L 110.185076 228.837992 
L 112.6395 226.268145 
L 115.093923 218.206143 
L 117.548347 230.361175 
L 120.00277 233.067403 
L 122.457193 232.065915 
L 124.911617 236.516038 
L 127.36604 244.195999 
L 129.820464 241.317869 
L 132.274887 240.48037 
L 134.729311 248.014925 
L 137.183734 246.633074 
L 139.638157 248.04099 
L 142.092581 248.979898 
L 144.547004 256.7404 
L 147.001428 254.554648 
L 149.455851 264.272693 
L 151.910275 260.360528 
L 154.364698 254.695687 
L 156.819121 245.224986 
L 159.273545 245.96087 
L 161.727968 250.026722 
L 164.182392 248.354265 
L 166.636815 252.564349 
L 169.091239 251.814717 
L 171.545662 256.937648 
L 174.000085 262.351683 
L 176.454509 256.694913 
L 178.908932 257.322748 
L 181.363356 259.413184 
L 183.817779 262.577394 
L 186.272203 255.749638 
L 188.726626 265.776961 
L 191.181049 259.878829 
L 193.635473 260.205581 
L 196.089896 269.213582 
L 198.54432 270.788894 
L 200.998743 272.109916 
L 203.453167 261.470514 
L 205.90759 273.923187 
L 208.362013 269.768863 
L 210.816437 263.194667 
L 213.27086 272.953976 
L 215.725284 261.684791 
L 218.179707 264.267333 
L 220.634131 269.150475 
L 223.088554 264.581923 
L 225.542977 276.827343 
L 227.997401 271.051624 
L 230.451824 265.638335 
L 232.906248 271.105626 
L 235.360671 264.076274 
L 237.815095 261.120451 
L 240.269518 272.954385 
L 242.723941 275.137938 
L 245.178365 263.610872 
L 247.632788 272.275905 
L 250.087212 269.740875 
L 252.541635 273.713789 
L 254.996059 275.066638 
L 257.450482 271.887087 
L 259.904905 276.55181 
L 262.359329 278.431968 
L 264.813752 280.61934 
L 267.268176 277.132977 
L 269.722599 276.916896 
L 272.177023 271.535342 
L 274.631446 280.163863 
L 277.085869 278.108038 
L 279.540293 280.062066 
L 281.994716 277.667694 
L 284.44914 269.814711 
L 286.903563 284.913852 
L 289.357987 278.676455 
L 291.81241 286.470049 
L 294.266833 281.138145 
L 296.721257 281.711767 
L 299.17568 279.591112 
L 301.630104 283.176533 
L 304.084527 287.075792 
L 306.538951 283.340193 
L 308.993374 289.925996 
L 311.447797 291.444726 
L 313.902221 286.514091 
L 316.356644 286.403369 
L 318.811068 287.862751 
L 321.265491 289.093329 
L 323.719915 289.377772 
L 326.174338 291.914709 
L 328.628761 290.737549 
L 331.083185 295.302109 
L 333.537608 295.060866 
L 335.992032 293.534347 
L 338.446455 294.708941 
L 340.900879 298.026093 
L 343.355302 290.537747 
L 345.809725 295.486792 
L 348.264149 297.619635 
L 350.718572 295.600009 
L 353.172996 297.729946 
L 355.627419 299.324889 
L 358.081843 294.489428 
L 360.536266 297.841813 
L 362.990689 298.697357 
L 365.445113 301.073269 
L 367.899536 300.904277 
L 370.35396 299.922323 
L 372.808383 301.363343 
L 375.262807 302.282945 
L 377.71723 302.345223 
L 380.171653 302.463931 
L 382.626077 302.864051 
L 385.0805 302.551489 
L 387.534924 302.466261 
L 389.989347 302.612991 
L 392.443771 302.605579 
L 394.898194 303.094453 
L 397.352617 302.588721 
L 399.807041 303.334199 
L 402.261464 303.241158 
L 404.715888 302.832905 
L 407.170311 302.53327 
L 409.624735 302.386165 
L 412.079158 303.275239 
L 414.533581 303.218706 
L 416.988005 303.320898 
L 419.442428 303.329108 
L 421.896852 303.267513 
L 424.351275 303.018147 
L 426.805699 303.323039 
L 429.260122 303.017129 
L 431.714545 302.783241 
L 431.714545 302.349907 
L 431.714545 302.349907 
L 429.260122 302.544825 
L 426.805699 302.799255 
L 424.351275 302.880928 
L 421.896852 302.837237 
L 419.442428 302.618366 
L 416.988005 302.942538 
L 414.533581 302.575547 
L 412.079158 302.683431 
L 409.624735 301.494594 
L 407.170311 300.972459 
L 404.715888 301.494467 
L 402.261464 300.71436 
L 399.807041 302.964148 
L 397.352617 302.251032 
L 394.898194 302.220655 
L 392.443771 301.030626 
L 389.989347 300.988831 
L 387.534924 300.464318 
L 385.0805 301.713115 
L 382.626077 302.382469 
L 380.171653 301.059078 
L 377.71723 300.949277 
L 375.262807 300.554537 
L 372.808383 298.315573 
L 370.35396 296.223526 
L 367.899536 298.955542 
L 365.445113 299.350768 
L 362.990689 294.927138 
L 360.536266 295.820768 
L 358.081843 289.014394 
L 355.627419 296.725747 
L 353.172996 293.847846 
L 350.718572 292.956392 
L 348.264149 291.673071 
L 345.809725 292.175323 
L 343.355302 287.493153 
L 340.900879 293.977684 
L 338.446455 292.597715 
L 335.992032 287.639251 
L 333.537608 290.886023 
L 331.083185 291.85503 
L 328.628761 285.27909 
L 326.174338 288.325107 
L 323.719915 286.159281 
L 321.265491 286.322417 
L 318.811068 282.551196 
L 316.356644 284.095211 
L 313.902221 281.868669 
L 311.447797 284.755285 
L 308.993374 285.675942 
L 306.538951 278.311437 
L 304.084527 281.335178 
L 301.630104 277.346659 
L 299.17568 269.179403 
L 296.721257 276.137029 
L 294.266833 279.362478 
L 291.81241 284.519401 
L 289.357987 273.727629 
L 286.903563 278.774607 
L 284.44914 266.249598 
L 281.994716 270.233924 
L 279.540293 272.686192 
L 277.085869 273.895451 
L 274.631446 275.010535 
L 272.177023 267.214649 
L 269.722599 271.103209 
L 267.268176 273.144002 
L 264.813752 277.240739 
L 262.359329 272.014278 
L 259.904905 268.410229 
L 257.450482 264.933275 
L 254.996059 269.003935 
L 252.541635 269.764355 
L 250.087212 267.011782 
L 247.632788 268.223164 
L 245.178365 260.153468 
L 242.723941 267.967821 
L 240.269518 266.777346 
L 237.815095 257.204821 
L 235.360671 259.62036 
L 232.906248 265.771159 
L 230.451824 261.838565 
L 227.997401 263.793973 
L 225.542977 271.632852 
L 223.088554 260.626818 
L 220.634131 262.332378 
L 218.179707 258.470129 
L 215.725284 255.162227 
L 213.27086 266.111977 
L 210.816437 254.690514 
L 208.362013 267.863975 
L 205.90759 269.701654 
L 203.453167 258.333011 
L 200.998743 269.280619 
L 198.54432 267.080916 
L 196.089896 265.970546 
L 193.635473 253.910619 
L 191.181049 254.384068 
L 188.726626 256.554264 
L 186.272203 250.535206 
L 183.817779 258.038606 
L 181.363356 252.536416 
L 178.908932 249.526315 
L 176.454509 255.751199 
L 174.000085 258.907526 
L 171.545662 249.053802 
L 169.091239 246.875743 
L 166.636815 245.516754 
L 164.182392 243.655844 
L 161.727968 243.224668 
L 159.273545 240.914849 
L 156.819121 237.633495 
L 154.364698 250.6187 
L 151.910275 256.260804 
L 149.455851 255.722666 
L 147.001428 243.503886 
L 144.547004 250.988844 
L 142.092581 239.814165 
L 139.638157 244.838016 
L 137.183734 242.341539 
L 134.729311 239.774828 
L 132.274887 235.946017 
L 129.820464 235.695306 
L 127.36604 236.033222 
L 124.911617 229.190193 
L 122.457193 219.30916 
L 120.00277 220.993354 
L 117.548347 220.336838 
L 115.093923 207.779088 
L 112.6395 216.25998 
L 110.185076 220.099658 
L 107.730653 199.451617 
L 105.276229 220.836176 
L 102.821806 197.007104 
L 100.367383 198.504334 
L 97.912959 187.64619 
L 95.458536 193.162175 
L 93.004112 182.088883 
L 90.549689 172.692203 
L 88.095265 151.534212 
L 85.640842 160.38859 
L 83.186419 153.172365 
L 80.731995 143.361171 
L 78.277572 151.956903 
L 75.823148 116.222621 
L 73.368725 110.051231 
L 70.914301 107.30096 
L 68.459878 89.914087 
L 66.005455 47.00226 
z
" style="fill:#2ca02c;fill-opacity:0.25;"/>
   </g>
   <g id="PolyCollection_4">
    <path clip-path="url(#p6553e94627)" d="M 66.005455 36.349228 
L 66.005455 52.932822 
L 68.459878 90.853323 
L 70.914301 113.491764 
L 73.368725 111.879544 
L 75.823148 127.106527 
L 78.277572 158.743871 
L 80.731995 169.932338 
L 83.186419 172.558225 
L 85.640842 174.934431 
L 88.095265 164.130296 
L 90.549689 193.878736 
L 93.004112 193.377039 
L 95.458536 204.27486 
L 97.912959 199.464437 
L 100.367383 209.687422 
L 102.821806 219.599858 
L 105.276229 224.381155 
L 107.730653 218.02757 
L 110.185076 231.864402 
L 112.6395 233.314236 
L 115.093923 220.454508 
L 117.548347 227.687013 
L 120.00277 230.065606 
L 122.457193 228.826798 
L 124.911617 234.953662 
L 127.36604 244.89044 
L 129.820464 239.957985 
L 132.274887 239.291361 
L 134.729311 247.135082 
L 137.183734 244.85533 
L 139.638157 242.797614 
L 142.092581 249.390161 
L 144.547004 255.232719 
L 147.001428 249.817616 
L 149.455851 257.917873 
L 151.910275 262.581462 
L 154.364698 260.391621 
L 156.819121 243.258755 
L 159.273545 247.0498 
L 161.727968 248.895851 
L 164.182392 251.890711 
L 166.636815 251.083695 
L 169.091239 249.39934 
L 171.545662 258.66407 
L 174.000085 264.147066 
L 176.454509 256.067934 
L 178.908932 255.899104 
L 181.363356 262.961634 
L 183.817779 259.706943 
L 186.272203 258.103675 
L 188.726626 259.370575 
L 191.181049 259.198097 
L 193.635473 264.182482 
L 196.089896 266.727817 
L 198.54432 270.957426 
L 200.998743 269.453686 
L 203.453167 256.497259 
L 205.90759 271.547464 
L 208.362013 272.077709 
L 210.816437 263.341011 
L 213.27086 271.314599 
L 215.725284 263.329073 
L 218.179707 259.838573 
L 220.634131 265.857078 
L 223.088554 266.715808 
L 225.542977 277.167922 
L 227.997401 268.409643 
L 230.451824 269.335381 
L 232.906248 273.252903 
L 235.360671 261.802581 
L 237.815095 262.038672 
L 240.269518 271.680969 
L 242.723941 278.015491 
L 245.178365 263.831356 
L 247.632788 271.417701 
L 250.087212 270.829076 
L 252.541635 277.551938 
L 254.996059 273.405313 
L 257.450482 270.3685 
L 259.904905 275.92938 
L 262.359329 276.25802 
L 264.813752 278.105245 
L 267.268176 274.040547 
L 269.722599 277.85989 
L 272.177023 275.225867 
L 274.631446 282.10097 
L 277.085869 277.842315 
L 279.540293 280.147266 
L 281.994716 277.790845 
L 284.44914 269.138836 
L 286.903563 284.350191 
L 289.357987 278.599171 
L 291.81241 289.541441 
L 294.266833 279.686759 
L 296.721257 284.473155 
L 299.17568 276.114829 
L 301.630104 283.412486 
L 304.084527 284.967259 
L 306.538951 284.590465 
L 308.993374 288.398807 
L 311.447797 293.213359 
L 313.902221 288.977621 
L 316.356644 291.024879 
L 318.811068 287.371531 
L 321.265491 290.48494 
L 323.719915 288.979908 
L 326.174338 290.072512 
L 328.628761 291.263021 
L 331.083185 293.181434 
L 333.537608 295.983294 
L 335.992032 294.21072 
L 338.446455 296.788798 
L 340.900879 297.234251 
L 343.355302 292.059544 
L 345.809725 294.343591 
L 348.264149 296.024323 
L 350.718572 294.945249 
L 353.172996 298.786917 
L 355.627419 297.293811 
L 358.081843 295.753856 
L 360.536266 299.935819 
L 362.990689 296.181739 
L 365.445113 299.633068 
L 367.899536 300.90944 
L 370.35396 298.81466 
L 372.808383 301.446709 
L 375.262807 301.524656 
L 377.71723 302.775354 
L 380.171653 302.848182 
L 382.626077 302.841963 
L 385.0805 303.220537 
L 387.534924 302.376997 
L 389.989347 301.932223 
L 392.443771 302.810305 
L 394.898194 302.901537 
L 397.352617 303.155121 
L 399.807041 303.46625 
L 402.261464 302.740349 
L 404.715888 302.954981 
L 407.170311 302.768111 
L 409.624735 302.752372 
L 412.079158 303.390903 
L 414.533581 303.165437 
L 416.988005 303.485831 
L 419.442428 303.284136 
L 421.896852 303.381276 
L 424.351275 302.884961 
L 426.805699 303.299862 
L 429.260122 303.295856 
L 431.714545 303.069655 
L 431.714545 302.514692 
L 431.714545 302.514692 
L 429.260122 302.913363 
L 426.805699 302.858136 
L 424.351275 302.680519 
L 421.896852 302.782541 
L 419.442428 302.91609 
L 416.988005 303.154046 
L 414.533581 302.871166 
L 412.079158 302.95699 
L 409.624735 300.468867 
L 407.170311 301.542159 
L 404.715888 302.439294 
L 402.261464 301.312496 
L 399.807041 303.229739 
L 397.352617 301.781255 
L 394.898194 302.294556 
L 392.443771 301.571903 
L 389.989347 300.898913 
L 387.534924 300.109435 
L 385.0805 301.398467 
L 382.626077 301.511505 
L 380.171653 301.613986 
L 377.71723 302.565497 
L 375.262807 300.789514 
L 372.808383 299.810961 
L 370.35396 296.066633 
L 367.899536 298.135082 
L 365.445113 297.467015 
L 362.990689 291.308288 
L 360.536266 297.559923 
L 358.081843 291.826446 
L 355.627419 294.970918 
L 353.172996 294.42993 
L 350.718572 291.495332 
L 348.264149 292.644921 
L 345.809725 290.788001 
L 343.355302 289.114055 
L 340.900879 293.054302 
L 338.446455 295.822925 
L 335.992032 288.819158 
L 333.537608 292.422178 
L 331.083185 287.791867 
L 328.628761 285.958225 
L 326.174338 287.930177 
L 323.719915 286.05499 
L 321.265491 285.61351 
L 318.811068 283.691267 
L 316.356644 286.323316 
L 313.902221 278.471357 
L 311.447797 288.047694 
L 308.993374 284.712105 
L 306.538951 280.717302 
L 304.084527 280.509774 
L 301.630104 279.26038 
L 299.17568 271.651377 
L 296.721257 278.487462 
L 294.266833 274.443834 
L 291.81241 285.648618 
L 289.357987 273.455098 
L 286.903563 279.360838 
L 284.44914 263.337043 
L 281.994716 268.982337 
L 279.540293 272.335809 
L 277.085869 273.86778 
L 274.631446 275.595486 
L 272.177023 266.898151 
L 269.722599 272.197045 
L 267.268176 270.19365 
L 264.813752 275.184662 
L 262.359329 274.645242 
L 259.904905 271.859395 
L 257.450482 262.998844 
L 254.996059 269.237787 
L 252.541635 271.579678 
L 250.087212 264.716152 
L 247.632788 266.79064 
L 245.178365 259.109226 
L 242.723941 271.28539 
L 240.269518 267.497828 
L 237.815095 257.200635 
L 235.360671 256.218013 
L 232.906248 268.600291 
L 230.451824 263.163065 
L 227.997401 265.984579 
L 225.542977 273.329103 
L 223.088554 260.321001 
L 220.634131 260.513953 
L 218.179707 254.322764 
L 215.725284 255.312162 
L 213.27086 268.371994 
L 210.816437 258.042327 
L 208.362013 266.378888 
L 205.90759 267.326655 
L 203.453167 250.566206 
L 200.998743 265.741727 
L 198.54432 258.968183 
L 196.089896 263.039811 
L 193.635473 257.821496 
L 191.181049 252.999759 
L 188.726626 255.964338 
L 186.272203 252.040425 
L 183.817779 255.390998 
L 181.363356 256.492075 
L 178.908932 250.938674 
L 176.454509 252.891307 
L 174.000085 260.102503 
L 171.545662 253.861033 
L 169.091239 242.04655 
L 166.636815 247.527774 
L 164.182392 245.705164 
L 161.727968 246.262599 
L 159.273545 241.631419 
L 156.819121 239.735138 
L 154.364698 250.542385 
L 151.910275 252.550332 
L 149.455851 254.246131 
L 147.001428 241.007634 
L 144.547004 251.345518 
L 142.092581 244.76398 
L 139.638157 239.744904 
L 137.183734 241.501307 
L 134.729311 238.081834 
L 132.274887 235.352096 
L 129.820464 232.090065 
L 127.36604 237.663363 
L 124.911617 225.245794 
L 122.457193 224.376346 
L 120.00277 226.274594 
L 117.548347 220.8444 
L 115.093923 216.047761 
L 112.6395 224.876602 
L 110.185076 221.316173 
L 107.730653 203.331068 
L 105.276229 220.516689 
L 102.821806 207.017299 
L 100.367383 200.770509 
L 97.912959 187.702545 
L 95.458536 195.37264 
L 93.004112 184.785011 
L 90.549689 176.000582 
L 88.095265 151.471179 
L 85.640842 164.138544 
L 83.186419 162.271825 
L 80.731995 156.456999 
L 78.277572 141.285167 
L 75.823148 120.653285 
L 73.368725 101.214669 
L 70.914301 102.400974 
L 68.459878 85.76979 
L 66.005455 36.349228 
z
" style="fill:#d62728;fill-opacity:0.25;"/>
   </g>
   <g id="matplotlib.axis_1">
    <g id="xtick_1">
     <g id="line2d_1">
      <defs>
       <path d="M 0 0 
L 0 3.5 
" id="m4cf6af9789" style="stroke:#000000;stroke-width:0.8;"/>
      </defs>
      <g>
       <use style="stroke:#000000;stroke-width:0.8;" x="66.005455" xlink:href="#m4cf6af9789" y="303.64"/>
      </g>
     </g>
     <g id="text_1">
      <!-- 0 -->
      <g transform="translate(62.824205 318.238437)scale(0.1 -0.1)">
       <defs>
        <path d="M 31.78125 66.40625 
Q 24.171875 66.40625 20.328125 58.90625 
Q 16.5 51.421875 16.5 36.375 
Q 16.5 21.390625 20.328125 13.890625 
Q 24.171875 6.390625 31.78125 6.390625 
Q 39.453125 6.390625 43.28125 13.890625 
Q 47.125 21.390625 47.125 36.375 
Q 47.125 51.421875 43.28125 58.90625 
Q 39.453125 66.40625 31.78125 66.40625 
z
M 31.78125 74.21875 
Q 44.046875 74.21875 50.515625 64.515625 
Q 56.984375 54.828125 56.984375 36.375 
Q 56.984375 17.96875 50.515625 8.265625 
Q 44.046875 -1.421875 31.78125 -1.421875 
Q 19.53125 -1.421875 13.0625 8.265625 
Q 6.59375 17.96875 6.59375 36.375 
Q 6.59375 54.828125 13.0625 64.515625 
Q 19.53125 74.21875 31.78125 74.21875 
z
" id="DejaVuSans-48"/>
       </defs>
       <use xlink:href="#DejaVuSans-48"/>
      </g>
     </g>
    </g>
    <g id="xtick_2">
     <g id="line2d_2">
      <g>
       <use style="stroke:#000000;stroke-width:0.8;" x="115.093923" xlink:href="#m4cf6af9789" y="303.64"/>
      </g>
     </g>
     <g id="text_2">
      <!-- 20 -->
      <g transform="translate(108.731423 318.238437)scale(0.1 -0.1)">
       <defs>
        <path d="M 19.1875 8.296875 
L 53.609375 8.296875 
L 53.609375 0 
L 7.328125 0 
L 7.328125 8.296875 
Q 12.9375 14.109375 22.625 23.890625 
Q 32.328125 33.6875 34.8125 36.53125 
Q 39.546875 41.84375 41.421875 45.53125 
Q 43.3125 49.21875 43.3125 52.78125 
Q 43.3125 58.59375 39.234375 62.25 
Q 35.15625 65.921875 28.609375 65.921875 
Q 23.96875 65.921875 18.8125 64.3125 
Q 13.671875 62.703125 7.8125 59.421875 
L 7.8125 69.390625 
Q 13.765625 71.78125 18.9375 73 
Q 24.125 74.21875 28.421875 74.21875 
Q 39.75 74.21875 46.484375 68.546875 
Q 53.21875 62.890625 53.21875 53.421875 
Q 53.21875 48.921875 51.53125 44.890625 
Q 49.859375 40.875 45.40625 35.40625 
Q 44.1875 33.984375 37.640625 27.21875 
Q 31.109375 20.453125 19.1875 8.296875 
z
" id="DejaVuSans-50"/>
       </defs>
       <use xlink:href="#DejaVuSans-50"/>
       <use x="63.623047" xlink:href="#DejaVuSans-48"/>
      </g>
     </g>
    </g>
    <g id="xtick_3">
     <g id="line2d_3">
      <g>
       <use style="stroke:#000000;stroke-width:0.8;" x="164.182392" xlink:href="#m4cf6af9789" y="303.64"/>
      </g>
     </g>
     <g id="text_3">
      <!-- 40 -->
      <g transform="translate(157.819892 318.238437)scale(0.1 -0.1)">
       <defs>
        <path d="M 37.796875 64.3125 
L 12.890625 25.390625 
L 37.796875 25.390625 
z
M 35.203125 72.90625 
L 47.609375 72.90625 
L 47.609375 25.390625 
L 58.015625 25.390625 
L 58.015625 17.1875 
L 47.609375 17.1875 
L 47.609375 0 
L 37.796875 0 
L 37.796875 17.1875 
L 4.890625 17.1875 
L 4.890625 26.703125 
z
" id="DejaVuSans-52"/>
       </defs>
       <use xlink:href="#DejaVuSans-52"/>
       <use x="63.623047" xlink:href="#DejaVuSans-48"/>
      </g>
     </g>
    </g>
    <g id="xtick_4">
     <g id="line2d_4">
      <g>
       <use style="stroke:#000000;stroke-width:0.8;" x="213.27086" xlink:href="#m4cf6af9789" y="303.64"/>
      </g>
     </g>
     <g id="text_4">
      <!-- 60 -->
      <g transform="translate(206.90836 318.238437)scale(0.1 -0.1)">
       <defs>
        <path d="M 33.015625 40.375 
Q 26.375 40.375 22.484375 35.828125 
Q 18.609375 31.296875 18.609375 23.390625 
Q 18.609375 15.53125 22.484375 10.953125 
Q 26.375 6.390625 33.015625 6.390625 
Q 39.65625 6.390625 43.53125 10.953125 
Q 47.40625 15.53125 47.40625 23.390625 
Q 47.40625 31.296875 43.53125 35.828125 
Q 39.65625 40.375 33.015625 40.375 
z
M 52.59375 71.296875 
L 52.59375 62.3125 
Q 48.875 64.0625 45.09375 64.984375 
Q 41.3125 65.921875 37.59375 65.921875 
Q 27.828125 65.921875 22.671875 59.328125 
Q 17.53125 52.734375 16.796875 39.40625 
Q 19.671875 43.65625 24.015625 45.921875 
Q 28.375 48.1875 33.59375 48.1875 
Q 44.578125 48.1875 50.953125 41.515625 
Q 57.328125 34.859375 57.328125 23.390625 
Q 57.328125 12.15625 50.6875 5.359375 
Q 44.046875 -1.421875 33.015625 -1.421875 
Q 20.359375 -1.421875 13.671875 8.265625 
Q 6.984375 17.96875 6.984375 36.375 
Q 6.984375 53.65625 15.1875 63.9375 
Q 23.390625 74.21875 37.203125 74.21875 
Q 40.921875 74.21875 44.703125 73.484375 
Q 48.484375 72.75 52.59375 71.296875 
z
" id="DejaVuSans-54"/>
       </defs>
       <use xlink:href="#DejaVuSans-54"/>
       <use x="63.623047" xlink:href="#DejaVuSans-48"/>
      </g>
     </g>
    </g>
    <g id="xtick_5">
     <g id="line2d_5">
      <g>
       <use style="stroke:#000000;stroke-width:0.8;" x="262.359329" xlink:href="#m4cf6af9789" y="303.64"/>
      </g>
     </g>
     <g id="text_5">
      <!-- 80 -->
      <g transform="translate(255.996829 318.238437)scale(0.1 -0.1)">
       <defs>
        <path d="M 31.78125 34.625 
Q 24.75 34.625 20.71875 30.859375 
Q 16.703125 27.09375 16.703125 20.515625 
Q 16.703125 13.921875 20.71875 10.15625 
Q 24.75 6.390625 31.78125 6.390625 
Q 38.8125 6.390625 42.859375 10.171875 
Q 46.921875 13.96875 46.921875 20.515625 
Q 46.921875 27.09375 42.890625 30.859375 
Q 38.875 34.625 31.78125 34.625 
z
M 21.921875 38.8125 
Q 15.578125 40.375 12.03125 44.71875 
Q 8.5 49.078125 8.5 55.328125 
Q 8.5 64.0625 14.71875 69.140625 
Q 20.953125 74.21875 31.78125 74.21875 
Q 42.671875 74.21875 48.875 69.140625 
Q 55.078125 64.0625 55.078125 55.328125 
Q 55.078125 49.078125 51.53125 44.71875 
Q 48 40.375 41.703125 38.8125 
Q 48.828125 37.15625 52.796875 32.3125 
Q 56.78125 27.484375 56.78125 20.515625 
Q 56.78125 9.90625 50.3125 4.234375 
Q 43.84375 -1.421875 31.78125 -1.421875 
Q 19.734375 -1.421875 13.25 4.234375 
Q 6.78125 9.90625 6.78125 20.515625 
Q 6.78125 27.484375 10.78125 32.3125 
Q 14.796875 37.15625 21.921875 38.8125 
z
M 18.3125 54.390625 
Q 18.3125 48.734375 21.84375 45.5625 
Q 25.390625 42.390625 31.78125 42.390625 
Q 38.140625 42.390625 41.71875 45.5625 
Q 45.3125 48.734375 45.3125 54.390625 
Q 45.3125 60.0625 41.71875 63.234375 
Q 38.140625 66.40625 31.78125 66.40625 
Q 25.390625 66.40625 21.84375 63.234375 
Q 18.3125 60.0625 18.3125 54.390625 
z
" id="DejaVuSans-56"/>
       </defs>
       <use xlink:href="#DejaVuSans-56"/>
       <use x="63.623047" xlink:href="#DejaVuSans-48"/>
      </g>
     </g>
    </g>
    <g id="xtick_6">
     <g id="line2d_6">
      <g>
       <use style="stroke:#000000;stroke-width:0.8;" x="311.447797" xlink:href="#m4cf6af9789" y="303.64"/>
      </g>
     </g>
     <g id="text_6">
      <!-- 100 -->
      <g transform="translate(301.904047 318.238437)scale(0.1 -0.1)">
       <defs>
        <path d="M 12.40625 8.296875 
L 28.515625 8.296875 
L 28.515625 63.921875 
L 10.984375 60.40625 
L 10.984375 69.390625 
L 28.421875 72.90625 
L 38.28125 72.90625 
L 38.28125 8.296875 
L 54.390625 8.296875 
L 54.390625 0 
L 12.40625 0 
z
" id="DejaVuSans-49"/>
       </defs>
       <use xlink:href="#DejaVuSans-49"/>
       <use x="63.623047" xlink:href="#DejaVuSans-48"/>
       <use x="127.246094" xlink:href="#DejaVuSans-48"/>
      </g>
     </g>
    </g>
    <g id="xtick_7">
     <g id="line2d_7">
      <g>
       <use style="stroke:#000000;stroke-width:0.8;" x="360.536266" xlink:href="#m4cf6af9789" y="303.64"/>
      </g>
     </g>
     <g id="text_7">
      <!-- 120 -->
      <g transform="translate(350.992516 318.238437)scale(0.1 -0.1)">
       <use xlink:href="#DejaVuSans-49"/>
       <use x="63.623047" xlink:href="#DejaVuSans-50"/>
       <use x="127.246094" xlink:href="#DejaVuSans-48"/>
      </g>
     </g>
    </g>
    <g id="xtick_8">
     <g id="line2d_8">
      <g>
       <use style="stroke:#000000;stroke-width:0.8;" x="409.624735" xlink:href="#m4cf6af9789" y="303.64"/>
      </g>
     </g>
     <g id="text_8">
      <!-- 140 -->
      <g transform="translate(400.080985 318.238437)scale(0.1 -0.1)">
       <use xlink:href="#DejaVuSans-49"/>
       <use x="63.623047" xlink:href="#DejaVuSans-52"/>
       <use x="127.246094" xlink:href="#DejaVuSans-48"/>
      </g>
     </g>
    </g>
    <g id="text_9">
     <!-- Epochs -->
     <g transform="translate(230.944375 331.916562)scale(0.1 -0.1)">
      <defs>
       <path d="M 9.8125 72.90625 
L 55.90625 72.90625 
L 55.90625 64.59375 
L 19.671875 64.59375 
L 19.671875 43.015625 
L 54.390625 43.015625 
L 54.390625 34.71875 
L 19.671875 34.71875 
L 19.671875 8.296875 
L 56.78125 8.296875 
L 56.78125 0 
L 9.8125 0 
z
" id="DejaVuSans-69"/>
       <path d="M 18.109375 8.203125 
L 18.109375 -20.796875 
L 9.078125 -20.796875 
L 9.078125 54.6875 
L 18.109375 54.6875 
L 18.109375 46.390625 
Q 20.953125 51.265625 25.265625 53.625 
Q 29.59375 56 35.59375 56 
Q 45.5625 56 51.78125 48.09375 
Q 58.015625 40.1875 58.015625 27.296875 
Q 58.015625 14.40625 51.78125 6.484375 
Q 45.5625 -1.421875 35.59375 -1.421875 
Q 29.59375 -1.421875 25.265625 0.953125 
Q 20.953125 3.328125 18.109375 8.203125 
z
M 48.6875 27.296875 
Q 48.6875 37.203125 44.609375 42.84375 
Q 40.53125 48.484375 33.40625 48.484375 
Q 26.265625 48.484375 22.1875 42.84375 
Q 18.109375 37.203125 18.109375 27.296875 
Q 18.109375 17.390625 22.1875 11.75 
Q 26.265625 6.109375 33.40625 6.109375 
Q 40.53125 6.109375 44.609375 11.75 
Q 48.6875 17.390625 48.6875 27.296875 
z
" id="DejaVuSans-112"/>
       <path d="M 30.609375 48.390625 
Q 23.390625 48.390625 19.1875 42.75 
Q 14.984375 37.109375 14.984375 27.296875 
Q 14.984375 17.484375 19.15625 11.84375 
Q 23.34375 6.203125 30.609375 6.203125 
Q 37.796875 6.203125 41.984375 11.859375 
Q 46.1875 17.53125 46.1875 27.296875 
Q 46.1875 37.015625 41.984375 42.703125 
Q 37.796875 48.390625 30.609375 48.390625 
z
M 30.609375 56 
Q 42.328125 56 49.015625 48.375 
Q 55.71875 40.765625 55.71875 27.296875 
Q 55.71875 13.875 49.015625 6.21875 
Q 42.328125 -1.421875 30.609375 -1.421875 
Q 18.84375 -1.421875 12.171875 6.21875 
Q 5.515625 13.875 5.515625 27.296875 
Q 5.515625 40.765625 12.171875 48.375 
Q 18.84375 56 30.609375 56 
z
" id="DejaVuSans-111"/>
       <path d="M 48.78125 52.59375 
L 48.78125 44.1875 
Q 44.96875 46.296875 41.140625 47.34375 
Q 37.3125 48.390625 33.40625 48.390625 
Q 24.65625 48.390625 19.8125 42.84375 
Q 14.984375 37.3125 14.984375 27.296875 
Q 14.984375 17.28125 19.8125 11.734375 
Q 24.65625 6.203125 33.40625 6.203125 
Q 37.3125 6.203125 41.140625 7.25 
Q 44.96875 8.296875 48.78125 10.40625 
L 48.78125 2.09375 
Q 45.015625 0.34375 40.984375 -0.53125 
Q 36.96875 -1.421875 32.421875 -1.421875 
Q 20.0625 -1.421875 12.78125 6.34375 
Q 5.515625 14.109375 5.515625 27.296875 
Q 5.515625 40.671875 12.859375 48.328125 
Q 20.21875 56 33.015625 56 
Q 37.15625 56 41.109375 55.140625 
Q 45.0625 54.296875 48.78125 52.59375 
z
" id="DejaVuSans-99"/>
       <path d="M 54.890625 33.015625 
L 54.890625 0 
L 45.90625 0 
L 45.90625 32.71875 
Q 45.90625 40.484375 42.875 44.328125 
Q 39.84375 48.1875 33.796875 48.1875 
Q 26.515625 48.1875 22.3125 43.546875 
Q 18.109375 38.921875 18.109375 30.90625 
L 18.109375 0 
L 9.078125 0 
L 9.078125 75.984375 
L 18.109375 75.984375 
L 18.109375 46.1875 
Q 21.34375 51.125 25.703125 53.5625 
Q 30.078125 56 35.796875 56 
Q 45.21875 56 50.046875 50.171875 
Q 54.890625 44.34375 54.890625 33.015625 
z
" id="DejaVuSans-104"/>
       <path d="M 44.28125 53.078125 
L 44.28125 44.578125 
Q 40.484375 46.53125 36.375 47.5 
Q 32.28125 48.484375 27.875 48.484375 
Q 21.1875 48.484375 17.84375 46.4375 
Q 14.5 44.390625 14.5 40.28125 
Q 14.5 37.15625 16.890625 35.375 
Q 19.28125 33.59375 26.515625 31.984375 
L 29.59375 31.296875 
Q 39.15625 29.25 43.1875 25.515625 
Q 47.21875 21.78125 47.21875 15.09375 
Q 47.21875 7.46875 41.1875 3.015625 
Q 35.15625 -1.421875 24.609375 -1.421875 
Q 20.21875 -1.421875 15.453125 -0.5625 
Q 10.6875 0.296875 5.421875 2 
L 5.421875 11.28125 
Q 10.40625 8.6875 15.234375 7.390625 
Q 20.0625 6.109375 24.8125 6.109375 
Q 31.15625 6.109375 34.5625 8.28125 
Q 37.984375 10.453125 37.984375 14.40625 
Q 37.984375 18.0625 35.515625 20.015625 
Q 33.0625 21.96875 24.703125 23.78125 
L 21.578125 24.515625 
Q 13.234375 26.265625 9.515625 29.90625 
Q 5.8125 33.546875 5.8125 39.890625 
Q 5.8125 47.609375 11.28125 51.796875 
Q 16.75 56 26.8125 56 
Q 31.78125 56 36.171875 55.265625 
Q 40.578125 54.546875 44.28125 53.078125 
z
" id="DejaVuSans-115"/>
      </defs>
      <use xlink:href="#DejaVuSans-69"/>
      <use x="63.183594" xlink:href="#DejaVuSans-112"/>
      <use x="126.660156" xlink:href="#DejaVuSans-111"/>
      <use x="187.841797" xlink:href="#DejaVuSans-99"/>
      <use x="242.822266" xlink:href="#DejaVuSans-104"/>
      <use x="306.201172" xlink:href="#DejaVuSans-115"/>
     </g>
    </g>
   </g>
   <g id="matplotlib.axis_2">
    <g id="ytick_1">
     <g id="line2d_9">
      <defs>
       <path d="M 0 0 
L -3.5 0 
" id="mfe1b64fb93" style="stroke:#000000;stroke-width:0.8;"/>
      </defs>
      <g>
       <use style="stroke:#000000;stroke-width:0.8;" x="47.72" xlink:href="#mfe1b64fb93" y="303.64"/>
      </g>
     </g>
     <g id="text_10">
      <!-- 0.0 -->
      <g transform="translate(24.816875 307.439219)scale(0.1 -0.1)">
       <defs>
        <path d="M 10.6875 12.40625 
L 21 12.40625 
L 21 0 
L 10.6875 0 
z
" id="DejaVuSans-46"/>
       </defs>
       <use xlink:href="#DejaVuSans-48"/>
       <use x="63.623047" xlink:href="#DejaVuSans-46"/>
       <use x="95.410156" xlink:href="#DejaVuSans-48"/>
      </g>
     </g>
    </g>
    <g id="ytick_2">
     <g id="line2d_10">
      <g>
       <use style="stroke:#000000;stroke-width:0.8;" x="47.72" xlink:href="#mfe1b64fb93" y="245.864"/>
      </g>
     </g>
     <g id="text_11">
      <!-- 0.5 -->
      <g transform="translate(24.816875 249.663219)scale(0.1 -0.1)">
       <defs>
        <path d="M 10.796875 72.90625 
L 49.515625 72.90625 
L 49.515625 64.59375 
L 19.828125 64.59375 
L 19.828125 46.734375 
Q 21.96875 47.46875 24.109375 47.828125 
Q 26.265625 48.1875 28.421875 48.1875 
Q 40.625 48.1875 47.75 41.5 
Q 54.890625 34.8125 54.890625 23.390625 
Q 54.890625 11.625 47.5625 5.09375 
Q 40.234375 -1.421875 26.90625 -1.421875 
Q 22.3125 -1.421875 17.546875 -0.640625 
Q 12.796875 0.140625 7.71875 1.703125 
L 7.71875 11.625 
Q 12.109375 9.234375 16.796875 8.0625 
Q 21.484375 6.890625 26.703125 6.890625 
Q 35.15625 6.890625 40.078125 11.328125 
Q 45.015625 15.765625 45.015625 23.390625 
Q 45.015625 31 40.078125 35.4375 
Q 35.15625 39.890625 26.703125 39.890625 
Q 22.75 39.890625 18.8125 39.015625 
Q 14.890625 38.140625 10.796875 36.28125 
z
" id="DejaVuSans-53"/>
       </defs>
       <use xlink:href="#DejaVuSans-48"/>
       <use x="63.623047" xlink:href="#DejaVuSans-46"/>
       <use x="95.410156" xlink:href="#DejaVuSans-53"/>
      </g>
     </g>
    </g>
    <g id="ytick_3">
     <g id="line2d_11">
      <g>
       <use style="stroke:#000000;stroke-width:0.8;" x="47.72" xlink:href="#mfe1b64fb93" y="188.088"/>
      </g>
     </g>
     <g id="text_12">
      <!-- 1.0 -->
      <g transform="translate(24.816875 191.887219)scale(0.1 -0.1)">
       <use xlink:href="#DejaVuSans-49"/>
       <use x="63.623047" xlink:href="#DejaVuSans-46"/>
       <use x="95.410156" xlink:href="#DejaVuSans-48"/>
      </g>
     </g>
    </g>
    <g id="ytick_4">
     <g id="line2d_12">
      <g>
       <use style="stroke:#000000;stroke-width:0.8;" x="47.72" xlink:href="#mfe1b64fb93" y="130.312"/>
      </g>
     </g>
     <g id="text_13">
      <!-- 1.5 -->
      <g transform="translate(24.816875 134.111219)scale(0.1 -0.1)">
       <use xlink:href="#DejaVuSans-49"/>
       <use x="63.623047" xlink:href="#DejaVuSans-46"/>
       <use x="95.410156" xlink:href="#DejaVuSans-53"/>
      </g>
     </g>
    </g>
    <g id="ytick_5">
     <g id="line2d_13">
      <g>
       <use style="stroke:#000000;stroke-width:0.8;" x="47.72" xlink:href="#mfe1b64fb93" y="72.536"/>
      </g>
     </g>
     <g id="text_14">
      <!-- 2.0 -->
      <g transform="translate(24.816875 76.335219)scale(0.1 -0.1)">
       <use xlink:href="#DejaVuSans-50"/>
       <use x="63.623047" xlink:href="#DejaVuSans-46"/>
       <use x="95.410156" xlink:href="#DejaVuSans-48"/>
      </g>
     </g>
    </g>
    <g id="ytick_6">
     <g id="line2d_14">
      <g>
       <use style="stroke:#000000;stroke-width:0.8;" x="47.72" xlink:href="#mfe1b64fb93" y="14.76"/>
      </g>
     </g>
     <g id="text_15">
      <!-- 2.5 -->
      <g transform="translate(24.816875 18.559219)scale(0.1 -0.1)">
       <use xlink:href="#DejaVuSans-50"/>
       <use x="63.623047" xlink:href="#DejaVuSans-46"/>
       <use x="95.410156" xlink:href="#DejaVuSans-53"/>
      </g>
     </g>
    </g>
    <g id="text_16">
     <!-- Loss -->
     <g transform="translate(18.737188 170.167187)rotate(-90)scale(0.1 -0.1)">
      <defs>
       <path d="M 9.8125 72.90625 
L 19.671875 72.90625 
L 19.671875 8.296875 
L 55.171875 8.296875 
L 55.171875 0 
L 9.8125 0 
z
" id="DejaVuSans-76"/>
      </defs>
      <use xlink:href="#DejaVuSans-76"/>
      <use x="53.962891" xlink:href="#DejaVuSans-111"/>
      <use x="115.144531" xlink:href="#DejaVuSans-115"/>
      <use x="167.244141" xlink:href="#DejaVuSans-115"/>
     </g>
    </g>
   </g>
   <g id="line2d_15">
    <path clip-path="url(#p6553e94627)" d="M 66.005455 44.7313 
L 68.459878 63.32795 
L 70.914301 83.211019 
L 73.368725 89.191737 
L 75.823148 106.005456 
L 78.277572 131.666125 
L 80.731995 147.2837 
L 83.186419 156.469181 
L 85.640842 169.559056 
L 88.095265 159.2 
L 90.549689 192.037531 
L 93.004112 197.375041 
L 95.458536 210.668034 
L 97.912959 212.981331 
L 100.367383 220.124341 
L 102.821806 223.4758 
L 105.276229 240.881948 
L 107.730653 228.136247 
L 110.185076 239.262641 
L 112.6395 239.302136 
L 115.093923 231.363578 
L 117.548347 236.746225 
L 120.00277 249.181606 
L 122.457193 244.18827 
L 124.911617 254.592464 
L 129.820464 253.475311 
L 132.274887 253.559944 
L 134.729311 257.018605 
L 137.183734 262.034509 
L 139.638157 257.120164 
L 142.092581 257.492548 
L 144.547004 268.472245 
L 147.001428 261.820106 
L 149.455851 277.059655 
L 151.910275 268.376328 
L 154.364698 268.596373 
L 156.819121 262.418178 
L 159.273545 264.009275 
L 161.727968 268.263484 
L 164.182392 267.750045 
L 166.636815 269.606325 
L 169.091239 269.267794 
L 171.545662 269.346784 
L 174.000085 276.100483 
L 176.454509 266.993992 
L 178.908932 264.556567 
L 181.363356 276.309244 
L 183.817779 271.062009 
L 186.272203 273.868998 
L 188.726626 271.541595 
L 191.181049 275.581402 
L 193.635473 272.263795 
L 196.089896 279.83279 
L 198.54432 279.666345 
L 200.998743 281.051502 
L 203.453167 271.355403 
L 205.90759 282.038885 
L 208.362013 280.267238 
L 210.816437 274.588377 
L 213.27086 277.629516 
L 215.725284 274.842275 
L 218.179707 277.045549 
L 220.634131 274.771748 
L 223.088554 278.13167 
L 225.542977 285.79094 
L 227.997401 282.995236 
L 230.451824 282.462049 
L 232.906248 281.607258 
L 235.360671 275.685782 
L 237.815095 273.355559 
L 240.269518 280.55499 
L 242.723941 284.168811 
L 245.178365 275.200554 
L 247.632788 283.824637 
L 250.087212 281.926041 
L 252.541635 286.789607 
L 254.996059 287.156349 
L 257.450482 286.197177 
L 259.904905 287.23534 
L 262.359329 287.31292 
L 264.813752 293.792972 
L 267.268176 288.376472 
L 269.722599 284.895243 
L 272.177023 283.240671 
L 274.631446 290.317385 
L 277.085869 288.149374 
L 279.540293 290.038096 
L 281.994716 289.816641 
L 284.44914 283.542528 
L 286.903563 294.247874 
L 289.357987 288.518937 
L 291.81241 294.427718 
L 294.266833 291.318873 
L 296.721257 291.166534 
L 299.17568 294.817029 
L 301.630104 292.103137 
L 304.084527 291.819617 
L 306.538951 291.246935 
L 308.993374 293.516505 
L 311.447797 298.749987 
L 313.902221 295.858013 
L 316.356644 296.936376 
L 321.265491 295.601999 
L 323.719915 297.81162 
L 326.174338 297.512584 
L 328.628761 298.84132 
L 331.083185 299.829408 
L 333.537608 300.419369 
L 335.992032 297.261507 
L 338.446455 299.292342 
L 340.900879 301.707727 
L 343.355302 301.171367 
L 345.809725 300.355718 
L 348.264149 300.85558 
L 350.718572 302.047669 
L 353.172996 301.017793 
L 355.627419 302.079494 
L 358.081843 302.033387 
L 360.536266 302.433718 
L 362.990689 302.282437 
L 365.445113 303.065555 
L 367.899536 303.008295 
L 370.35396 303.214566 
L 377.71723 303.399568 
L 380.171653 303.405155 
L 382.626077 303.222192 
L 385.0805 303.439757 
L 387.534924 303.298075 
L 392.443771 303.496411 
L 394.898194 303.469412 
L 397.352617 303.235239 
L 399.807041 303.498565 
L 412.079158 303.405794 
L 421.896852 303.534606 
L 424.351275 303.436727 
L 426.805699 303.515707 
L 431.714545 303.471737 
L 431.714545 303.471737 
" style="fill:none;stroke:#1f77b4;stroke-linecap:square;stroke-width:1.5;"/>
   </g>
   <g id="line2d_16">
    <path clip-path="url(#p6553e94627)" d="M 66.005455 52.043575 
L 68.459878 79.351762 
L 70.914301 99.144556 
L 73.368725 103.071519 
L 75.823148 115.123231 
L 78.277572 143.063344 
L 80.731995 155.566431 
L 83.186419 161.817975 
L 85.640842 163.5332 
L 88.095265 156.062944 
L 90.549689 182.761775 
L 93.004112 187.151397 
L 95.458536 195.061744 
L 97.912959 190.085334 
L 100.367383 206.379972 
L 102.821806 212.326837 
L 105.276229 223.058278 
L 107.730653 210.543906 
L 110.185076 226.432306 
L 112.6395 224.141578 
L 115.093923 216.79545 
L 117.548347 221.433328 
L 120.00277 229.321106 
L 122.457193 226.398453 
L 124.911617 229.016428 
L 127.36604 238.811266 
L 129.820464 232.176053 
L 132.274887 237.863378 
L 134.729311 242.489972 
L 137.183734 245.852716 
L 139.638157 241.852405 
L 142.092581 245.023314 
L 144.547004 253.007009 
L 147.001428 247.613078 
L 149.455851 256.15535 
L 151.910275 255.461361 
L 154.364698 254.648886 
L 156.819121 242.331991 
L 159.273545 240.441858 
L 161.727968 247.889545 
L 164.182392 246.902162 
L 166.636815 247.573583 
L 169.091239 251.077381 
L 171.545662 252.758753 
L 174.000085 258.609702 
L 176.454509 254.056456 
L 178.908932 254.654528 
L 181.363356 255.878883 
L 183.817779 258.745114 
L 186.272203 251.043528 
L 188.726626 256.578514 
L 191.181049 256.048148 
L 193.635473 256.324616 
L 196.089896 264.776612 
L 198.54432 264.686337 
L 200.998743 267.259175 
L 203.453167 256.471312 
L 205.90759 268.494814 
L 208.362013 266.971423 
L 210.816437 259.117498 
L 213.27086 270.717836 
L 215.725284 255.309022 
L 218.179707 261.52107 
L 220.634131 263.004966 
L 223.088554 262.147353 
L 225.542977 275.587044 
L 227.997401 269.369353 
L 230.451824 267.47922 
L 232.906248 269.487839 
L 235.360671 261.024558 
L 237.815095 255.049481 
L 240.269518 267.721834 
L 242.723941 274.13418 
L 245.178365 263.275791 
L 247.632788 266.768305 
L 250.087212 266.864222 
L 252.541635 274.534776 
L 254.996059 272.512052 
L 257.450482 267.442546 
L 259.904905 273.251178 
L 262.359329 274.139823 
L 264.813752 276.707018 
L 267.268176 272.108635 
L 269.722599 273.787186 
L 272.177023 267.185827 
L 274.631446 278.013184 
L 277.085869 276.083556 
L 279.540293 275.144132 
L 281.994716 274.585555 
L 284.44914 264.787897 
L 286.903563 283.525602 
L 289.357987 275.826837 
L 291.81241 285.884036 
L 294.266833 278.7241 
L 296.721257 281.014828 
L 299.17568 270.971734 
L 301.630104 280.14311 
L 304.084527 282.425375 
L 306.538951 281.38157 
L 308.993374 285.672454 
L 311.447797 290.416123 
L 313.902221 286.264884 
L 316.356644 285.957384 
L 318.811068 287.940613 
L 321.265491 287.240982 
L 323.719915 288.688203 
L 326.174338 288.415968 
L 328.628761 288.411736 
L 333.537608 293.406482 
L 335.992032 291.183461 
L 338.446455 294.075082 
L 340.900879 295.251478 
L 343.355302 289.332823 
L 345.809725 292.323182 
L 348.264149 295.583662 
L 350.718572 292.307666 
L 353.172996 296.645098 
L 355.627419 295.556156 
L 358.081843 293.302102 
L 360.536266 296.348883 
L 362.990689 296.85527 
L 365.445113 299.961999 
L 367.899536 300.385516 
L 370.35396 297.433594 
L 372.808383 301.267636 
L 375.262807 300.322394 
L 377.71723 301.394409 
L 380.171653 302.228836 
L 382.626077 302.313557 
L 385.0805 301.857774 
L 389.989347 301.214212 
L 392.443771 301.610928 
L 394.898194 302.165626 
L 397.352617 301.907319 
L 399.807041 303.220627 
L 402.261464 301.698559 
L 404.715888 302.499661 
L 407.170311 302.117932 
L 409.624735 302.685941 
L 412.079158 302.862921 
L 419.442428 302.874426 
L 421.896852 303.197 
L 424.351275 302.8225 
L 426.805699 303.16566 
L 429.260122 302.70084 
L 431.714545 302.716753 
L 431.714545 302.716753 
" style="fill:none;stroke:#ff7f0e;stroke-linecap:square;stroke-width:1.5;"/>
   </g>
   <g id="line2d_17">
    <path clip-path="url(#p6553e94627)" d="M 66.005455 54.66155 
L 68.459878 95.037044 
L 70.914301 108.894256 
L 73.368725 112.053881 
L 75.823148 122.593487 
L 78.277572 155.069919 
L 80.731995 157.259087 
L 83.186419 161.90825 
L 85.640842 170.506944 
L 88.095265 157.304225 
L 90.549689 183.280856 
L 93.004112 187.18525 
L 95.458536 197.578159 
L 97.912959 193.165969 
L 100.367383 203.637869 
L 102.821806 205.522359 
L 105.276229 223.882037 
L 107.730653 205.7819 
L 110.185076 224.468825 
L 112.6395 221.264062 
L 115.093923 212.992616 
L 117.548347 225.349006 
L 120.00277 227.030378 
L 122.457193 225.687537 
L 127.36604 240.114611 
L 129.820464 238.506587 
L 132.274887 238.213194 
L 134.729311 243.894877 
L 137.183734 244.487306 
L 139.638157 246.439503 
L 142.092581 244.397031 
L 144.547004 253.864622 
L 147.001428 249.029267 
L 149.455851 259.99768 
L 151.910275 258.310666 
L 154.364698 252.657194 
L 156.819121 241.429241 
L 159.273545 243.437859 
L 161.727968 246.625695 
L 164.182392 246.005055 
L 166.636815 249.040552 
L 169.091239 249.34523 
L 171.545662 252.995725 
L 174.000085 260.629605 
L 176.454509 256.223056 
L 178.908932 253.424531 
L 181.363356 255.9748 
L 183.817779 260.308 
L 186.272203 253.142422 
L 188.726626 261.165613 
L 191.181049 257.131448 
L 193.635473 257.0581 
L 196.089896 267.592064 
L 198.54432 268.934905 
L 200.998743 270.695267 
L 203.453167 259.901762 
L 205.90759 271.81242 
L 208.362013 268.816419 
L 210.816437 258.942591 
L 213.27086 269.532977 
L 215.725284 258.423509 
L 218.179707 261.368731 
L 220.634131 265.741427 
L 223.088554 262.60437 
L 225.542977 274.230098 
L 227.997401 267.422798 
L 230.451824 263.73845 
L 232.906248 268.438392 
L 235.360671 261.848317 
L 237.815095 259.162636 
L 240.269518 269.865866 
L 242.723941 271.55288 
L 245.178365 261.88217 
L 247.632788 270.249534 
L 250.087212 268.376328 
L 252.541635 271.739072 
L 254.996059 272.035287 
L 257.450482 268.410181 
L 259.904905 272.48102 
L 262.359329 275.223123 
L 264.813752 278.93004 
L 267.268176 275.13849 
L 269.722599 274.010052 
L 272.177023 269.374995 
L 274.631446 277.587199 
L 277.085869 276.001745 
L 279.540293 276.374129 
L 281.994716 273.950809 
L 284.44914 268.032155 
L 286.903563 281.84423 
L 289.357987 276.202042 
L 291.81241 285.494725 
L 294.266833 280.250312 
L 296.721257 278.924398 
L 299.17568 274.385258 
L 301.630104 280.261596 
L 304.084527 284.205485 
L 306.538951 280.825815 
L 308.993374 287.800969 
L 311.447797 288.100005 
L 313.902221 284.19138 
L 316.356644 285.24929 
L 318.811068 285.206973 
L 321.265491 287.707873 
L 323.719915 287.768527 
L 326.174338 290.119908 
L 328.628761 288.00832 
L 331.083185 293.578569 
L 333.537608 292.973445 
L 335.992032 290.586799 
L 338.446455 293.653328 
L 340.900879 296.001889 
L 343.355302 289.01545 
L 345.809725 293.831057 
L 348.264149 294.646353 
L 350.718572 294.2782 
L 353.172996 295.788896 
L 355.627419 298.025318 
L 358.081843 291.751911 
L 360.536266 296.83129 
L 362.990689 296.812248 
L 365.445113 300.212018 
L 367.899536 299.929909 
L 370.35396 298.072924 
L 372.808383 299.839458 
L 375.262807 301.418741 
L 377.71723 301.64725 
L 380.171653 301.761504 
L 382.626077 302.62326 
L 385.0805 302.132302 
L 387.534924 301.465289 
L 389.989347 301.800911 
L 392.443771 301.818102 
L 394.898194 302.657554 
L 397.352617 302.419877 
L 399.807041 303.149174 
L 402.261464 301.977759 
L 404.715888 302.163686 
L 407.170311 301.752865 
L 409.624735 301.940379 
L 412.079158 302.979335 
L 414.533581 302.897127 
L 416.988005 303.131718 
L 419.442428 302.973737 
L 421.896852 303.052375 
L 424.351275 302.949537 
L 426.805699 303.061147 
L 431.714545 302.566574 
L 431.714545 302.566574 
" style="fill:none;stroke:#2ca02c;stroke-linecap:square;stroke-width:1.5;"/>
   </g>
   <g id="line2d_18">
    <path clip-path="url(#p6553e94627)" d="M 66.005455 44.641025 
L 68.459878 88.311556 
L 70.914301 107.946369 
L 73.368725 106.547106 
L 75.823148 123.879906 
L 78.277572 150.014519 
L 80.731995 163.194669 
L 83.186419 167.415025 
L 85.640842 169.536487 
L 88.095265 157.800737 
L 90.549689 184.939659 
L 93.004112 189.081025 
L 95.458536 199.82375 
L 97.912959 193.583491 
L 100.367383 205.228966 
L 102.821806 213.308578 
L 105.276229 222.448922 
L 107.730653 210.679319 
L 110.185076 226.590287 
L 112.6395 229.095419 
L 115.093923 218.251134 
L 117.548347 224.265706 
L 120.00277 228.1701 
L 122.457193 226.601572 
L 124.911617 230.099728 
L 127.36604 241.276902 
L 129.820464 236.024025 
L 132.274887 237.321728 
L 134.729311 242.608458 
L 137.183734 243.178319 
L 139.638157 241.271259 
L 142.092581 247.07707 
L 144.547004 253.289119 
L 147.001428 245.412625 
L 149.455851 256.082002 
L 151.910275 257.565897 
L 154.364698 255.467003 
L 156.819121 241.496947 
L 159.273545 244.340609 
L 161.727968 247.579225 
L 164.182392 248.797937 
L 166.636815 249.305734 
L 169.091239 245.722945 
L 171.545662 256.262552 
L 174.000085 262.124784 
L 176.454509 254.47962 
L 178.908932 253.418889 
L 181.363356 259.726855 
L 183.817779 257.54897 
L 186.272203 255.07205 
L 188.726626 257.667456 
L 191.181049 256.098928 
L 193.635473 261.001989 
L 196.089896 264.883814 
L 198.54432 264.962805 
L 200.998743 267.597706 
L 203.453167 253.531733 
L 205.90759 269.437059 
L 208.362013 269.228298 
L 210.816437 260.691669 
L 213.27086 269.843297 
L 215.725284 259.320617 
L 218.179707 257.080669 
L 220.634131 263.185516 
L 223.088554 263.518405 
L 225.542977 275.248513 
L 227.997401 267.197111 
L 230.451824 266.249223 
L 232.906248 270.926597 
L 235.360671 259.010297 
L 237.815095 259.619653 
L 240.269518 269.589398 
L 242.723941 274.650441 
L 245.178365 261.470291 
L 247.632788 269.10417 
L 250.087212 267.772614 
L 252.541635 274.565808 
L 254.996059 271.32155 
L 257.450482 266.683672 
L 259.904905 273.894387 
L 262.359329 275.451631 
L 264.813752 276.644954 
L 267.268176 272.117098 
L 269.722599 275.028467 
L 272.177023 271.062009 
L 274.631446 278.848228 
L 277.085869 275.855048 
L 279.540293 276.241537 
L 281.994716 273.386591 
L 284.44914 266.237939 
L 286.903563 281.855514 
L 289.357987 276.027134 
L 291.81241 287.595029 
L 294.266833 277.065297 
L 296.721257 281.480309 
L 299.17568 273.883103 
L 301.630104 281.336433 
L 304.084527 282.738516 
L 306.538951 282.653884 
L 311.447797 290.630526 
L 313.902221 283.724489 
L 316.356644 288.674098 
L 318.811068 285.531399 
L 321.265491 288.049225 
L 323.719915 287.517449 
L 326.174338 289.001345 
L 328.628761 288.610623 
L 331.083185 290.48665 
L 333.537608 294.202736 
L 335.992032 291.514939 
L 338.446455 296.305862 
L 340.900879 295.144276 
L 343.355302 290.586799 
L 345.809725 292.565796 
L 348.264149 294.334622 
L 350.718572 293.22029 
L 353.172996 296.608424 
L 355.627419 296.132364 
L 358.081843 293.790151 
L 360.536266 298.747871 
L 362.990689 293.745014 
L 365.445113 298.550042 
L 367.899536 299.522261 
L 370.35396 297.440646 
L 372.808383 300.628835 
L 375.262807 301.157085 
L 377.71723 302.670425 
L 380.171653 302.231084 
L 382.626077 302.176734 
L 385.0805 302.309502 
L 387.534924 301.243216 
L 389.989347 301.415568 
L 392.443771 302.191104 
L 394.898194 302.598047 
L 397.352617 302.468188 
L 399.807041 303.347995 
L 402.261464 302.026423 
L 404.715888 302.697138 
L 409.624735 301.61062 
L 412.079158 303.173946 
L 414.533581 303.018301 
L 416.988005 303.319938 
L 419.442428 303.100113 
L 421.896852 303.081908 
L 424.351275 302.78274 
L 426.805699 303.078999 
L 429.260122 303.104609 
L 431.714545 302.792173 
L 431.714545 302.792173 
" style="fill:none;stroke:#d62728;stroke-linecap:square;stroke-width:1.5;"/>
   </g>
   <g id="patch_3">
    <path d="M 47.72 303.64 
L 47.72 14.76 
" style="fill:none;stroke:#000000;stroke-linecap:square;stroke-linejoin:miter;stroke-width:0.8;"/>
   </g>
   <g id="patch_4">
    <path d="M 450 303.64 
L 450 14.76 
" style="fill:none;stroke:#000000;stroke-linecap:square;stroke-linejoin:miter;stroke-width:0.8;"/>
   </g>
   <g id="patch_5">
    <path d="M 47.72 303.64 
L 450 303.64 
" style="fill:none;stroke:#000000;stroke-linecap:square;stroke-linejoin:miter;stroke-width:0.8;"/>
   </g>
   <g id="patch_6">
    <path d="M 47.72 14.76 
L 450 14.76 
" style="fill:none;stroke:#000000;stroke-linecap:square;stroke-linejoin:miter;stroke-width:0.8;"/>
   </g>
   <g id="legend_1">
    <g id="patch_7">
     <path d="M 321.514063 81.4725 
L 443 81.4725 
Q 445 81.4725 445 79.4725 
L 445 21.76 
Q 445 19.76 443 19.76 
L 321.514063 19.76 
Q 319.514063 19.76 319.514063 21.76 
L 319.514063 79.4725 
Q 319.514063 81.4725 321.514063 81.4725 
z
" style="fill:#ffffff;opacity:0.8;stroke:#cccccc;stroke-linejoin:miter;"/>
    </g>
    <g id="line2d_19">
     <path d="M 323.514063 27.858437 
L 343.514063 27.858437 
" style="fill:none;stroke:#1f77b4;stroke-linecap:square;stroke-width:1.5;"/>
    </g>
    <g id="line2d_20"/>
    <g id="text_17">
     <!-- AllReduce SGD -->
     <g transform="translate(351.514063 31.358437)scale(0.1 -0.1)">
      <defs>
       <path d="M 34.1875 63.1875 
L 20.796875 26.90625 
L 47.609375 26.90625 
z
M 28.609375 72.90625 
L 39.796875 72.90625 
L 67.578125 0 
L 57.328125 0 
L 50.6875 18.703125 
L 17.828125 18.703125 
L 11.1875 0 
L 0.78125 0 
z
" id="DejaVuSans-65"/>
       <path d="M 9.421875 75.984375 
L 18.40625 75.984375 
L 18.40625 0 
L 9.421875 0 
z
" id="DejaVuSans-108"/>
       <path d="M 44.390625 34.1875 
Q 47.5625 33.109375 50.5625 29.59375 
Q 53.5625 26.078125 56.59375 19.921875 
L 66.609375 0 
L 56 0 
L 46.6875 18.703125 
Q 43.0625 26.03125 39.671875 28.421875 
Q 36.28125 30.8125 30.421875 30.8125 
L 19.671875 30.8125 
L 19.671875 0 
L 9.8125 0 
L 9.8125 72.90625 
L 32.078125 72.90625 
Q 44.578125 72.90625 50.734375 67.671875 
Q 56.890625 62.453125 56.890625 51.90625 
Q 56.890625 45.015625 53.6875 40.46875 
Q 50.484375 35.9375 44.390625 34.1875 
z
M 19.671875 64.796875 
L 19.671875 38.921875 
L 32.078125 38.921875 
Q 39.203125 38.921875 42.84375 42.21875 
Q 46.484375 45.515625 46.484375 51.90625 
Q 46.484375 58.296875 42.84375 61.546875 
Q 39.203125 64.796875 32.078125 64.796875 
z
" id="DejaVuSans-82"/>
       <path d="M 56.203125 29.59375 
L 56.203125 25.203125 
L 14.890625 25.203125 
Q 15.484375 15.921875 20.484375 11.0625 
Q 25.484375 6.203125 34.421875 6.203125 
Q 39.59375 6.203125 44.453125 7.46875 
Q 49.3125 8.734375 54.109375 11.28125 
L 54.109375 2.78125 
Q 49.265625 0.734375 44.1875 -0.34375 
Q 39.109375 -1.421875 33.890625 -1.421875 
Q 20.796875 -1.421875 13.15625 6.1875 
Q 5.515625 13.8125 5.515625 26.8125 
Q 5.515625 40.234375 12.765625 48.109375 
Q 20.015625 56 32.328125 56 
Q 43.359375 56 49.78125 48.890625 
Q 56.203125 41.796875 56.203125 29.59375 
z
M 47.21875 32.234375 
Q 47.125 39.59375 43.09375 43.984375 
Q 39.0625 48.390625 32.421875 48.390625 
Q 24.90625 48.390625 20.390625 44.140625 
Q 15.875 39.890625 15.1875 32.171875 
z
" id="DejaVuSans-101"/>
       <path d="M 45.40625 46.390625 
L 45.40625 75.984375 
L 54.390625 75.984375 
L 54.390625 0 
L 45.40625 0 
L 45.40625 8.203125 
Q 42.578125 3.328125 38.25 0.953125 
Q 33.9375 -1.421875 27.875 -1.421875 
Q 17.96875 -1.421875 11.734375 6.484375 
Q 5.515625 14.40625 5.515625 27.296875 
Q 5.515625 40.1875 11.734375 48.09375 
Q 17.96875 56 27.875 56 
Q 33.9375 56 38.25 53.625 
Q 42.578125 51.265625 45.40625 46.390625 
z
M 14.796875 27.296875 
Q 14.796875 17.390625 18.875 11.75 
Q 22.953125 6.109375 30.078125 6.109375 
Q 37.203125 6.109375 41.296875 11.75 
Q 45.40625 17.390625 45.40625 27.296875 
Q 45.40625 37.203125 41.296875 42.84375 
Q 37.203125 48.484375 30.078125 48.484375 
Q 22.953125 48.484375 18.875 42.84375 
Q 14.796875 37.203125 14.796875 27.296875 
z
" id="DejaVuSans-100"/>
       <path d="M 8.5 21.578125 
L 8.5 54.6875 
L 17.484375 54.6875 
L 17.484375 21.921875 
Q 17.484375 14.15625 20.5 10.265625 
Q 23.53125 6.390625 29.59375 6.390625 
Q 36.859375 6.390625 41.078125 11.03125 
Q 45.3125 15.671875 45.3125 23.6875 
L 45.3125 54.6875 
L 54.296875 54.6875 
L 54.296875 0 
L 45.3125 0 
L 45.3125 8.40625 
Q 42.046875 3.421875 37.71875 1 
Q 33.40625 -1.421875 27.6875 -1.421875 
Q 18.265625 -1.421875 13.375 4.4375 
Q 8.5 10.296875 8.5 21.578125 
z
M 31.109375 56 
z
" id="DejaVuSans-117"/>
       <path id="DejaVuSans-32"/>
       <path d="M 53.515625 70.515625 
L 53.515625 60.890625 
Q 47.90625 63.578125 42.921875 64.890625 
Q 37.9375 66.21875 33.296875 66.21875 
Q 25.25 66.21875 20.875 63.09375 
Q 16.5 59.96875 16.5 54.203125 
Q 16.5 49.359375 19.40625 46.890625 
Q 22.3125 44.4375 30.421875 42.921875 
L 36.375 41.703125 
Q 47.40625 39.59375 52.65625 34.296875 
Q 57.90625 29 57.90625 20.125 
Q 57.90625 9.515625 50.796875 4.046875 
Q 43.703125 -1.421875 29.984375 -1.421875 
Q 24.8125 -1.421875 18.96875 -0.25 
Q 13.140625 0.921875 6.890625 3.21875 
L 6.890625 13.375 
Q 12.890625 10.015625 18.65625 8.296875 
Q 24.421875 6.59375 29.984375 6.59375 
Q 38.421875 6.59375 43.015625 9.90625 
Q 47.609375 13.234375 47.609375 19.390625 
Q 47.609375 24.75 44.3125 27.78125 
Q 41.015625 30.8125 33.5 32.328125 
L 27.484375 33.5 
Q 16.453125 35.6875 11.515625 40.375 
Q 6.59375 45.0625 6.59375 53.421875 
Q 6.59375 63.09375 13.40625 68.65625 
Q 20.21875 74.21875 32.171875 74.21875 
Q 37.3125 74.21875 42.625 73.28125 
Q 47.953125 72.359375 53.515625 70.515625 
z
" id="DejaVuSans-83"/>
       <path d="M 59.515625 10.40625 
L 59.515625 29.984375 
L 43.40625 29.984375 
L 43.40625 38.09375 
L 69.28125 38.09375 
L 69.28125 6.78125 
Q 63.578125 2.734375 56.6875 0.65625 
Q 49.8125 -1.421875 42 -1.421875 
Q 24.90625 -1.421875 15.25 8.5625 
Q 5.609375 18.5625 5.609375 36.375 
Q 5.609375 54.25 15.25 64.234375 
Q 24.90625 74.21875 42 74.21875 
Q 49.125 74.21875 55.546875 72.453125 
Q 61.96875 70.703125 67.390625 67.28125 
L 67.390625 56.78125 
Q 61.921875 61.421875 55.765625 63.765625 
Q 49.609375 66.109375 42.828125 66.109375 
Q 29.4375 66.109375 22.71875 58.640625 
Q 16.015625 51.171875 16.015625 36.375 
Q 16.015625 21.625 22.71875 14.15625 
Q 29.4375 6.6875 42.828125 6.6875 
Q 48.046875 6.6875 52.140625 7.59375 
Q 56.25 8.5 59.515625 10.40625 
z
" id="DejaVuSans-71"/>
       <path d="M 19.671875 64.796875 
L 19.671875 8.109375 
L 31.59375 8.109375 
Q 46.6875 8.109375 53.6875 14.9375 
Q 60.6875 21.78125 60.6875 36.53125 
Q 60.6875 51.171875 53.6875 57.984375 
Q 46.6875 64.796875 31.59375 64.796875 
z
M 9.8125 72.90625 
L 30.078125 72.90625 
Q 51.265625 72.90625 61.171875 64.09375 
Q 71.09375 55.28125 71.09375 36.53125 
Q 71.09375 17.671875 61.125 8.828125 
Q 51.171875 0 30.078125 0 
L 9.8125 0 
z
" id="DejaVuSans-68"/>
      </defs>
      <use xlink:href="#DejaVuSans-65"/>
      <use x="68.408203" xlink:href="#DejaVuSans-108"/>
      <use x="96.191406" xlink:href="#DejaVuSans-108"/>
      <use x="123.974609" xlink:href="#DejaVuSans-82"/>
      <use x="188.957031" xlink:href="#DejaVuSans-101"/>
      <use x="250.480469" xlink:href="#DejaVuSans-100"/>
      <use x="313.957031" xlink:href="#DejaVuSans-117"/>
      <use x="377.335938" xlink:href="#DejaVuSans-99"/>
      <use x="432.316406" xlink:href="#DejaVuSans-101"/>
      <use x="493.839844" xlink:href="#DejaVuSans-32"/>
      <use x="525.626953" xlink:href="#DejaVuSans-83"/>
      <use x="589.103516" xlink:href="#DejaVuSans-71"/>
      <use x="666.59375" xlink:href="#DejaVuSans-68"/>
     </g>
    </g>
    <g id="line2d_21">
     <path d="M 323.514063 42.536563 
L 343.514063 42.536563 
" style="fill:none;stroke:#ff7f0e;stroke-linecap:square;stroke-width:1.5;"/>
    </g>
    <g id="line2d_22"/>
    <g id="text_18">
     <!-- GRandK-MN 8 bits -->
     <g transform="translate(351.514063 46.036563)scale(0.1 -0.1)">
      <defs>
       <path d="M 34.28125 27.484375 
Q 23.390625 27.484375 19.1875 25 
Q 14.984375 22.515625 14.984375 16.5 
Q 14.984375 11.71875 18.140625 8.90625 
Q 21.296875 6.109375 26.703125 6.109375 
Q 34.1875 6.109375 38.703125 11.40625 
Q 43.21875 16.703125 43.21875 25.484375 
L 43.21875 27.484375 
z
M 52.203125 31.203125 
L 52.203125 0 
L 43.21875 0 
L 43.21875 8.296875 
Q 40.140625 3.328125 35.546875 0.953125 
Q 30.953125 -1.421875 24.3125 -1.421875 
Q 15.921875 -1.421875 10.953125 3.296875 
Q 6 8.015625 6 15.921875 
Q 6 25.140625 12.171875 29.828125 
Q 18.359375 34.515625 30.609375 34.515625 
L 43.21875 34.515625 
L 43.21875 35.40625 
Q 43.21875 41.609375 39.140625 45 
Q 35.0625 48.390625 27.6875 48.390625 
Q 23 48.390625 18.546875 47.265625 
Q 14.109375 46.140625 10.015625 43.890625 
L 10.015625 52.203125 
Q 14.9375 54.109375 19.578125 55.046875 
Q 24.21875 56 28.609375 56 
Q 40.484375 56 46.34375 49.84375 
Q 52.203125 43.703125 52.203125 31.203125 
z
" id="DejaVuSans-97"/>
       <path d="M 54.890625 33.015625 
L 54.890625 0 
L 45.90625 0 
L 45.90625 32.71875 
Q 45.90625 40.484375 42.875 44.328125 
Q 39.84375 48.1875 33.796875 48.1875 
Q 26.515625 48.1875 22.3125 43.546875 
Q 18.109375 38.921875 18.109375 30.90625 
L 18.109375 0 
L 9.078125 0 
L 9.078125 54.6875 
L 18.109375 54.6875 
L 18.109375 46.1875 
Q 21.34375 51.125 25.703125 53.5625 
Q 30.078125 56 35.796875 56 
Q 45.21875 56 50.046875 50.171875 
Q 54.890625 44.34375 54.890625 33.015625 
z
" id="DejaVuSans-110"/>
       <path d="M 9.8125 72.90625 
L 19.671875 72.90625 
L 19.671875 42.09375 
L 52.390625 72.90625 
L 65.09375 72.90625 
L 28.90625 38.921875 
L 67.671875 0 
L 54.6875 0 
L 19.671875 35.109375 
L 19.671875 0 
L 9.8125 0 
z
" id="DejaVuSans-75"/>
       <path d="M 4.890625 31.390625 
L 31.203125 31.390625 
L 31.203125 23.390625 
L 4.890625 23.390625 
z
" id="DejaVuSans-45"/>
       <path d="M 9.8125 72.90625 
L 24.515625 72.90625 
L 43.109375 23.296875 
L 61.8125 72.90625 
L 76.515625 72.90625 
L 76.515625 0 
L 66.890625 0 
L 66.890625 64.015625 
L 48.09375 14.015625 
L 38.1875 14.015625 
L 19.390625 64.015625 
L 19.390625 0 
L 9.8125 0 
z
" id="DejaVuSans-77"/>
       <path d="M 9.8125 72.90625 
L 23.09375 72.90625 
L 55.421875 11.921875 
L 55.421875 72.90625 
L 64.984375 72.90625 
L 64.984375 0 
L 51.703125 0 
L 19.390625 60.984375 
L 19.390625 0 
L 9.8125 0 
z
" id="DejaVuSans-78"/>
       <path d="M 48.6875 27.296875 
Q 48.6875 37.203125 44.609375 42.84375 
Q 40.53125 48.484375 33.40625 48.484375 
Q 26.265625 48.484375 22.1875 42.84375 
Q 18.109375 37.203125 18.109375 27.296875 
Q 18.109375 17.390625 22.1875 11.75 
Q 26.265625 6.109375 33.40625 6.109375 
Q 40.53125 6.109375 44.609375 11.75 
Q 48.6875 17.390625 48.6875 27.296875 
z
M 18.109375 46.390625 
Q 20.953125 51.265625 25.265625 53.625 
Q 29.59375 56 35.59375 56 
Q 45.5625 56 51.78125 48.09375 
Q 58.015625 40.1875 58.015625 27.296875 
Q 58.015625 14.40625 51.78125 6.484375 
Q 45.5625 -1.421875 35.59375 -1.421875 
Q 29.59375 -1.421875 25.265625 0.953125 
Q 20.953125 3.328125 18.109375 8.203125 
L 18.109375 0 
L 9.078125 0 
L 9.078125 75.984375 
L 18.109375 75.984375 
z
" id="DejaVuSans-98"/>
       <path d="M 9.421875 54.6875 
L 18.40625 54.6875 
L 18.40625 0 
L 9.421875 0 
z
M 9.421875 75.984375 
L 18.40625 75.984375 
L 18.40625 64.59375 
L 9.421875 64.59375 
z
" id="DejaVuSans-105"/>
       <path d="M 18.3125 70.21875 
L 18.3125 54.6875 
L 36.8125 54.6875 
L 36.8125 47.703125 
L 18.3125 47.703125 
L 18.3125 18.015625 
Q 18.3125 11.328125 20.140625 9.421875 
Q 21.96875 7.515625 27.59375 7.515625 
L 36.8125 7.515625 
L 36.8125 0 
L 27.59375 0 
Q 17.1875 0 13.234375 3.875 
Q 9.28125 7.765625 9.28125 18.015625 
L 9.28125 47.703125 
L 2.6875 47.703125 
L 2.6875 54.6875 
L 9.28125 54.6875 
L 9.28125 70.21875 
z
" id="DejaVuSans-116"/>
      </defs>
      <use xlink:href="#DejaVuSans-71"/>
      <use x="77.490234" xlink:href="#DejaVuSans-82"/>
      <use x="144.722656" xlink:href="#DejaVuSans-97"/>
      <use x="206.001953" xlink:href="#DejaVuSans-110"/>
      <use x="269.380859" xlink:href="#DejaVuSans-100"/>
      <use x="332.857422" xlink:href="#DejaVuSans-75"/>
      <use x="387.933594" xlink:href="#DejaVuSans-45"/>
      <use x="424.017578" xlink:href="#DejaVuSans-77"/>
      <use x="510.296875" xlink:href="#DejaVuSans-78"/>
      <use x="585.101562" xlink:href="#DejaVuSans-32"/>
      <use x="616.888672" xlink:href="#DejaVuSans-56"/>
      <use x="680.511719" xlink:href="#DejaVuSans-32"/>
      <use x="712.298828" xlink:href="#DejaVuSans-98"/>
      <use x="775.775391" xlink:href="#DejaVuSans-105"/>
      <use x="803.558594" xlink:href="#DejaVuSans-116"/>
      <use x="842.767578" xlink:href="#DejaVuSans-115"/>
     </g>
    </g>
    <g id="line2d_23">
     <path d="M 323.514063 57.214687 
L 343.514063 57.214687 
" style="fill:none;stroke:#2ca02c;stroke-linecap:square;stroke-width:1.5;"/>
    </g>
    <g id="line2d_24"/>
    <g id="text_19">
     <!-- GRandK-MN 4 bits -->
     <g transform="translate(351.514063 60.714687)scale(0.1 -0.1)">
      <use xlink:href="#DejaVuSans-71"/>
      <use x="77.490234" xlink:href="#DejaVuSans-82"/>
      <use x="144.722656" xlink:href="#DejaVuSans-97"/>
      <use x="206.001953" xlink:href="#DejaVuSans-110"/>
      <use x="269.380859" xlink:href="#DejaVuSans-100"/>
      <use x="332.857422" xlink:href="#DejaVuSans-75"/>
      <use x="387.933594" xlink:href="#DejaVuSans-45"/>
      <use x="424.017578" xlink:href="#DejaVuSans-77"/>
      <use x="510.296875" xlink:href="#DejaVuSans-78"/>
      <use x="585.101562" xlink:href="#DejaVuSans-32"/>
      <use x="616.888672" xlink:href="#DejaVuSans-52"/>
      <use x="680.511719" xlink:href="#DejaVuSans-32"/>
      <use x="712.298828" xlink:href="#DejaVuSans-98"/>
      <use x="775.775391" xlink:href="#DejaVuSans-105"/>
      <use x="803.558594" xlink:href="#DejaVuSans-116"/>
      <use x="842.767578" xlink:href="#DejaVuSans-115"/>
     </g>
    </g>
    <g id="line2d_25">
     <path d="M 323.514063 71.892812 
L 343.514063 71.892812 
" style="fill:none;stroke:#d62728;stroke-linecap:square;stroke-width:1.5;"/>
    </g>
    <g id="line2d_26"/>
    <g id="text_20">
     <!-- GRandK-MN 2 bits -->
     <g transform="translate(351.514063 75.392812)scale(0.1 -0.1)">
      <use xlink:href="#DejaVuSans-71"/>
      <use x="77.490234" xlink:href="#DejaVuSans-82"/>
      <use x="144.722656" xlink:href="#DejaVuSans-97"/>
      <use x="206.001953" xlink:href="#DejaVuSans-110"/>
      <use x="269.380859" xlink:href="#DejaVuSans-100"/>
      <use x="332.857422" xlink:href="#DejaVuSans-75"/>
      <use x="387.933594" xlink:href="#DejaVuSans-45"/>
      <use x="424.017578" xlink:href="#DejaVuSans-77"/>
      <use x="510.296875" xlink:href="#DejaVuSans-78"/>
      <use x="585.101562" xlink:href="#DejaVuSans-32"/>
      <use x="616.888672" xlink:href="#DejaVuSans-50"/>
      <use x="680.511719" xlink:href="#DejaVuSans-32"/>
      <use x="712.298828" xlink:href="#DejaVuSans-98"/>
      <use x="775.775391" xlink:href="#DejaVuSans-105"/>
      <use x="803.558594" xlink:href="#DejaVuSans-116"/>
      <use x="842.767578" xlink:href="#DejaVuSans-115"/>
     </g>
    </g>
   </g>
  </g>
 </g>
 <defs>
  <clipPath id="p6553e94627">
   <rect height="288.88" width="402.28" x="47.72" y="14.76"/>
  </clipPath>
 </defs>
</svg>
