<?xml version="1.0" encoding="utf-8" standalone="no"?>
<!DOCTYPE svg PUBLIC "-//W3C//DTD SVG 1.1//EN"
  "http://www.w3.org/Graphics/SVG/1.1/DTD/svg11.dtd">
<!-- Created with matplotlib (https://matplotlib.org/) -->
<svg height="345.6pt" version="1.1" viewBox="0 0 460.8 345.6" width="460.8pt" xmlns="http://www.w3.org/2000/svg" xmlns:xlink="http://www.w3.org/1999/xlink">
 <metadata>
  <rdf:RDF xmlns:cc="http://creativecommons.org/ns#" xmlns:dc="http://purl.org/dc/elements/1.1/" xmlns:rdf="http://www.w3.org/1999/02/22-rdf-syntax-ns#">
   <cc:Work>
    <dc:type rdf:resource="http://purl.org/dc/dcmitype/StillImage"/>
    <dc:date>2021-06-10T08:56:23.573115</dc:date>
    <dc:format>image/svg+xml</dc:format>
    <dc:creator>
     <cc:Agent>
      <dc:title>Matplotlib v3.3.1, https://matplotlib.org/</dc:title>
     </cc:Agent>
    </dc:creator>
   </cc:Work>
  </rdf:RDF>
 </metadata>
 <defs>
  <style type="text/css">*{stroke-linecap:butt;stroke-linejoin:round;}</style>
 </defs>
 <g id="figure_1">
  <g id="patch_1">
   <path d="M 0 345.6 
L 460.8 345.6 
L 460.8 0 
L 0 0 
z
" style="fill:#ffffff;"/>
  </g>
  <g id="axes_1">
   <g id="patch_2">
    <path d="M 44.57 303.64 
L 450 303.64 
L 450 10.8 
L 44.57 10.8 
z
" style="fill:#ffffff;"/>
   </g>
   <g id="PolyCollection_1">
    <path clip-path="url(#p35825915a5)" d="M 62.998636 273.766822 
L 62.998636 281.789224 
L 65.472279 268.085673 
L 67.945921 251.719603 
L 70.419564 241.14558 
L 72.893206 211.590169 
L 75.366849 172.155948 
L 77.840491 131.361505 
L 80.314134 123.07138 
L 82.787776 119.80266 
L 85.261419 91.257832 
L 87.735061 85.229199 
L 90.208703 96.365348 
L 92.682346 88.394703 
L 95.155988 82.110011 
L 97.629631 81.990098 
L 100.103273 68.59899 
L 102.576916 73.520623 
L 105.050558 67.572788 
L 107.524201 55.743393 
L 109.997843 74.600813 
L 112.471486 62.205124 
L 114.945128 65.834778 
L 117.418771 69.270629 
L 119.892413 71.703758 
L 122.366056 70.35689 
L 124.839698 59.885625 
L 127.31334 65.059347 
L 129.786983 59.86299 
L 132.260625 64.728697 
L 134.734268 54.207262 
L 137.20791 60.795091 
L 139.681553 60.924023 
L 142.155195 59.068313 
L 144.628838 58.215819 
L 147.10248 56.890591 
L 149.576123 61.04037 
L 152.049765 67.276046 
L 154.523408 68.466825 
L 156.99705 53.478628 
L 159.470692 66.32155 
L 161.944335 53.2247 
L 164.417977 50.905257 
L 166.89162 54.242803 
L 169.365262 54.413585 
L 171.838905 54.038503 
L 174.312547 51.605136 
L 176.78619 49.748175 
L 179.259832 53.85332 
L 181.733475 57.414907 
L 184.207117 53.616067 
L 186.68076 55.21982 
L 189.154402 57.927334 
L 191.628045 56.378025 
L 194.101687 55.501632 
L 196.575329 52.157448 
L 199.048972 48.407104 
L 201.522614 58.125115 
L 203.996257 63.967748 
L 206.469899 54.530451 
L 208.943542 43.289434 
L 211.417184 55.200309 
L 213.890827 51.369981 
L 216.364469 47.356966 
L 218.838112 48.524442 
L 221.311754 54.656887 
L 223.785397 56.482707 
L 226.259039 43.301739 
L 228.732682 52.704353 
L 231.206324 53.174243 
L 233.679966 46.597283 
L 236.153609 50.0421 
L 238.627251 51.764135 
L 241.100894 47.121485 
L 243.574536 51.089777 
L 246.048179 46.929589 
L 248.521821 49.769675 
L 250.995464 48.75932 
L 253.469106 45.886472 
L 255.942749 45.008054 
L 258.416391 44.860204 
L 260.890034 43.783283 
L 263.363676 43.213738 
L 265.837318 46.023082 
L 268.310961 47.058966 
L 270.784603 43.603618 
L 273.258246 49.272877 
L 275.731888 41.985963 
L 278.205531 42.88299 
L 280.679173 40.355379 
L 283.152816 43.106947 
L 285.626458 42.201983 
L 288.100101 47.326216 
L 290.573743 40.852886 
L 293.047386 44.581594 
L 295.521028 38.038839 
L 297.994671 39.444862 
L 300.468313 40.740433 
L 302.941955 38.679187 
L 305.415598 41.37994 
L 307.88924 39.218541 
L 310.362883 41.993554 
L 312.836525 38.753899 
L 315.310168 39.479527 
L 317.78381 36.120669 
L 320.257453 45.000918 
L 322.731095 38.205521 
L 325.204738 35.338938 
L 327.67838 36.813256 
L 330.152023 36.772648 
L 332.625665 34.521178 
L 335.099308 36.255491 
L 337.57295 37.984642 
L 340.046592 36.76998 
L 342.520235 35.802436 
L 344.993877 34.96103 
L 347.46752 37.777838 
L 349.941162 34.289874 
L 352.414805 33.662382 
L 354.888447 34.726901 
L 357.36209 33.604436 
L 359.835732 32.72456 
L 362.309375 33.483506 
L 364.783017 32.215079 
L 367.25666 30.567445 
L 369.730302 32.883768 
L 372.203944 32.824517 
L 374.677587 32.305503 
L 377.151229 33.669204 
L 379.624872 30.57656 
L 382.098514 30.562323 
L 384.572157 29.780615 
L 387.045799 30.63447 
L 389.519442 30.861365 
L 391.993084 30.765172 
L 394.466727 30.935207 
L 396.940369 31.398265 
L 399.414012 30.011316 
L 401.887654 31.155526 
L 404.361297 29.569663 
L 406.834939 31.289527 
L 409.308581 31.43466 
L 411.782224 31.061176 
L 414.255866 30.840981 
L 416.729509 29.684259 
L 419.203151 30.75695 
L 421.676794 30.696264 
L 424.150436 31.290272 
L 426.624079 30.454476 
L 429.097721 30.460173 
L 431.571364 30.577995 
L 431.571364 24.227852 
L 431.571364 24.227852 
L 429.097721 24.407686 
L 426.624079 24.351371 
L 424.150436 24.383749 
L 421.676794 24.791719 
L 419.203151 24.110909 
L 416.729509 24.93555 
L 414.255866 25.019076 
L 411.782224 25.046931 
L 409.308581 25.231559 
L 406.834939 26.306878 
L 404.361297 25.670271 
L 401.887654 25.510693 
L 399.414012 26.530878 
L 396.940369 26.012103 
L 394.466727 26.97126 
L 391.993084 26.645196 
L 389.519442 27.975288 
L 387.045799 25.473637 
L 384.572157 28.807988 
L 382.098514 27.592194 
L 379.624872 28.818205 
L 377.151229 28.268069 
L 374.677587 26.159076 
L 372.203944 28.120558 
L 369.730302 30.107717 
L 367.25666 28.021158 
L 364.783017 26.621574 
L 362.309375 30.624202 
L 359.835732 28.530577 
L 357.36209 30.069185 
L 354.888447 28.078546 
L 352.414805 30.879413 
L 349.941162 31.058082 
L 347.46752 30.360677 
L 344.993877 30.945038 
L 342.520235 30.04162 
L 340.046592 32.236708 
L 337.57295 30.153872 
L 335.099308 30.580763 
L 332.625665 31.322877 
L 330.152023 31.17983 
L 327.67838 32.007395 
L 325.204738 31.063229 
L 322.731095 31.855378 
L 320.257453 33.431656 
L 317.78381 32.079858 
L 315.310168 32.565769 
L 312.836525 34.841707 
L 310.362883 30.795891 
L 307.88924 32.392668 
L 305.415598 33.021827 
L 302.941955 35.226482 
L 300.468313 32.793161 
L 297.994671 35.515017 
L 295.521028 34.378531 
L 293.047386 33.664944 
L 290.573743 37.145602 
L 288.100101 36.8115 
L 285.626458 37.966939 
L 283.152816 33.403243 
L 280.679173 36.464873 
L 278.205531 38.774229 
L 275.731888 36.942711 
L 273.258246 37.903447 
L 270.784603 38.487688 
L 268.310961 36.892713 
L 265.837318 40.099031 
L 263.363676 37.079209 
L 260.890034 39.858334 
L 258.416391 41.199896 
L 255.942749 40.803997 
L 253.469106 35.646723 
L 250.995464 43.874096 
L 248.521821 36.972562 
L 246.048179 40.432772 
L 243.574536 41.915713 
L 241.100894 40.178864 
L 238.627251 40.931293 
L 236.153609 42.591315 
L 233.679966 40.268979 
L 231.206324 45.164314 
L 228.732682 39.619 
L 226.259039 40.960001 
L 223.785397 42.910062 
L 221.311754 42.875509 
L 218.838112 34.311014 
L 216.364469 41.307656 
L 213.890827 47.464676 
L 211.417184 44.068434 
L 208.943542 39.546021 
L 206.469899 44.92433 
L 203.996257 50.742085 
L 201.522614 46.104621 
L 199.048972 40.691604 
L 196.575329 49.653805 
L 194.101687 43.829124 
L 191.628045 45.371215 
L 189.154402 44.876116 
L 186.68076 45.227159 
L 184.207117 44.660478 
L 181.733475 43.156097 
L 179.259832 43.8031 
L 176.78619 45.055675 
L 174.312547 43.508776 
L 171.838905 46.346464 
L 169.365262 43.118811 
L 166.89162 48.064549 
L 164.417977 45.696953 
L 161.944335 47.966428 
L 159.470692 53.9694 
L 156.99705 44.115781 
L 154.523408 46.739107 
L 152.049765 57.169735 
L 149.576123 54.537637 
L 147.10248 44.36255 
L 144.628838 46.323979 
L 142.155195 48.200031 
L 139.681553 46.468346 
L 137.20791 47.465452 
L 134.734268 50.084486 
L 132.260625 53.763893 
L 129.786983 53.978669 
L 127.31334 55.231603 
L 124.839698 52.157675 
L 122.366056 56.445363 
L 119.892413 52.431961 
L 117.418771 58.647847 
L 114.945128 47.944869 
L 112.471486 50.21025 
L 109.997843 59.084817 
L 107.524201 49.726591 
L 105.050558 50.361691 
L 102.576916 60.102995 
L 100.103273 54.420506 
L 97.629631 61.865567 
L 95.155988 68.877081 
L 92.682346 66.375146 
L 90.208703 71.427106 
L 87.735061 72.207184 
L 85.261419 74.116139 
L 82.787776 95.925386 
L 80.314134 108.283793 
L 77.840491 118.845441 
L 75.366849 134.854364 
L 72.893206 183.942856 
L 70.419564 212.214016 
L 67.945921 230.196707 
L 65.472279 245.549985 
L 62.998636 273.766822 
z
" style="fill:#1f77b4;fill-opacity:0.25;"/>
   </g>
   <g id="PolyCollection_2">
    <path clip-path="url(#p35825915a5)" d="M 62.998636 288.704736 
L 62.998636 289.919926 
L 65.472279 283.872099 
L 67.945921 277.199609 
L 70.419564 269.263346 
L 72.893206 254.969517 
L 75.366849 248.451262 
L 77.840491 228.655071 
L 80.314134 202.633059 
L 82.787776 187.088998 
L 85.261419 163.833246 
L 87.735061 165.663666 
L 90.208703 124.289315 
L 92.682346 135.783281 
L 95.155988 114.53384 
L 97.629631 111.077786 
L 100.103273 98.318165 
L 102.576916 111.20482 
L 105.050558 86.450137 
L 107.524201 83.348852 
L 109.997843 94.011263 
L 112.471486 94.013148 
L 114.945128 98.247512 
L 117.418771 88.955502 
L 119.892413 87.150501 
L 122.366056 94.723312 
L 124.839698 85.708127 
L 127.31334 90.721671 
L 129.786983 80.847376 
L 132.260625 72.543646 
L 134.734268 82.994078 
L 137.20791 84.905537 
L 139.681553 74.179315 
L 142.155195 80.354461 
L 144.628838 74.664004 
L 147.10248 76.603731 
L 149.576123 79.57904 
L 152.049765 77.952215 
L 154.523408 94.543499 
L 156.99705 79.641748 
L 159.470692 71.413099 
L 161.944335 71.827996 
L 164.417977 61.444513 
L 166.89162 74.857359 
L 169.365262 72.190645 
L 171.838905 77.750503 
L 174.312547 81.577538 
L 176.78619 70.583553 
L 179.259832 59.550414 
L 181.733475 67.369161 
L 184.207117 60.741895 
L 186.68076 56.993845 
L 189.154402 61.726791 
L 191.628045 68.002843 
L 194.101687 60.8952 
L 196.575329 62.855393 
L 199.048972 57.922375 
L 201.522614 59.430609 
L 203.996257 55.754662 
L 206.469899 58.681684 
L 208.943542 57.159799 
L 211.417184 60.285299 
L 213.890827 69.034568 
L 216.364469 55.464768 
L 218.838112 60.321512 
L 221.311754 66.316777 
L 223.785397 56.32654 
L 226.259039 55.732661 
L 228.732682 53.308011 
L 231.206324 55.548187 
L 233.679966 57.211833 
L 236.153609 54.565677 
L 238.627251 51.455623 
L 241.100894 54.55112 
L 243.574536 52.814772 
L 246.048179 49.564925 
L 248.521821 56.049673 
L 250.995464 55.426857 
L 253.469106 55.408656 
L 255.942749 51.647734 
L 258.416391 51.421588 
L 260.890034 51.649479 
L 263.363676 55.131513 
L 265.837318 48.891256 
L 268.310961 53.236489 
L 270.784603 50.622369 
L 273.258246 49.517496 
L 275.731888 51.954954 
L 278.205531 47.993754 
L 280.679173 46.507472 
L 283.152816 48.930684 
L 285.626458 49.775072 
L 288.100101 47.57012 
L 290.573743 49.409187 
L 293.047386 45.31575 
L 295.521028 47.309863 
L 297.994671 44.069471 
L 300.468313 45.750941 
L 302.941955 45.880405 
L 305.415598 44.72671 
L 307.88924 45.448838 
L 310.362883 43.904211 
L 312.836525 48.060283 
L 315.310168 47.20432 
L 317.78381 41.819808 
L 320.257453 45.938168 
L 322.731095 40.347952 
L 325.204738 42.020047 
L 327.67838 41.151689 
L 330.152023 41.208423 
L 332.625665 44.998278 
L 335.099308 42.681309 
L 337.57295 41.74502 
L 340.046592 42.019906 
L 342.520235 41.543758 
L 344.993877 42.384878 
L 347.46752 36.060273 
L 349.941162 37.457088 
L 352.414805 38.11615 
L 354.888447 36.84559 
L 357.36209 36.028245 
L 359.835732 37.493222 
L 362.309375 34.326151 
L 364.783017 36.223571 
L 367.25666 35.414346 
L 369.730302 34.888619 
L 372.203944 35.386959 
L 374.677587 35.231922 
L 377.151229 32.505348 
L 379.624872 34.316395 
L 382.098514 32.823007 
L 384.572157 33.638669 
L 387.045799 31.900611 
L 389.519442 32.58749 
L 391.993084 32.034166 
L 394.466727 32.961041 
L 396.940369 31.354499 
L 399.414012 32.020424 
L 401.887654 31.1075 
L 404.361297 30.779072 
L 406.834939 31.867578 
L 409.308581 32.839444 
L 411.782224 33.64837 
L 414.255866 32.380801 
L 416.729509 32.080332 
L 419.203151 33.131221 
L 421.676794 32.334033 
L 424.150436 32.999876 
L 426.624079 32.529513 
L 429.097721 33.18844 
L 431.571364 34.253679 
L 431.571364 28.303719 
L 431.571364 28.303719 
L 429.097721 28.562796 
L 426.624079 27.423364 
L 424.150436 27.945199 
L 421.676794 28.05293 
L 419.203151 27.627817 
L 416.729509 29.112793 
L 414.255866 28.378237 
L 411.782224 28.536953 
L 409.308581 27.485507 
L 406.834939 27.837249 
L 404.361297 28.057582 
L 401.887654 27.853178 
L 399.414012 28.056477 
L 396.940369 27.854229 
L 394.466727 27.549947 
L 391.993084 26.926512 
L 389.519442 29.783871 
L 387.045799 28.67239 
L 384.572157 27.864518 
L 382.098514 28.184081 
L 379.624872 29.047164 
L 377.151229 30.610161 
L 374.677587 31.666344 
L 372.203944 31.511307 
L 369.730302 29.777201 
L 367.25666 31.173858 
L 364.783017 32.721105 
L 362.309375 29.099421 
L 359.835732 31.327429 
L 357.36209 33.102468 
L 354.888447 34.021471 
L 352.414805 35.231407 
L 349.941162 34.030096 
L 347.46752 34.310688 
L 344.993877 34.311349 
L 342.520235 36.268692 
L 340.046592 36.412668 
L 337.57295 36.31548 
L 335.099308 37.301576 
L 332.625665 35.976805 
L 330.152023 36.480002 
L 327.67838 37.963021 
L 325.204738 35.234291 
L 322.731095 36.4723 
L 320.257453 38.50961 
L 317.78381 37.977039 
L 315.310168 41.398289 
L 312.836525 40.604339 
L 310.362883 39.241307 
L 307.88924 39.122965 
L 305.415598 40.527229 
L 302.941955 40.675794 
L 300.468313 41.363371 
L 297.994671 39.014034 
L 295.521028 42.284945 
L 293.047386 43.348871 
L 290.573743 41.859956 
L 288.100101 41.714625 
L 285.626458 43.416456 
L 283.152816 46.989389 
L 280.679173 39.180554 
L 278.205531 43.027339 
L 275.731888 49.794286 
L 273.258246 41.441585 
L 270.784603 44.677581 
L 268.310961 42.187485 
L 265.837318 44.238259 
L 263.363676 50.338471 
L 260.890034 41.914123 
L 258.416391 41.769939 
L 255.942749 46.938873 
L 253.469106 47.580832 
L 250.995464 45.268172 
L 248.521821 49.606348 
L 246.048179 46.727222 
L 243.574536 45.275736 
L 241.100894 44.469573 
L 238.627251 47.317021 
L 236.153609 48.733873 
L 233.679966 50.118524 
L 231.206324 52.340281 
L 228.732682 46.456832 
L 226.259039 46.450665 
L 223.785397 50.383693 
L 221.311754 47.400858 
L 218.838112 49.179279 
L 216.364469 51.555526 
L 213.890827 55.8453 
L 211.417184 54.610571 
L 208.943542 50.604644 
L 206.469899 47.594462 
L 203.996257 48.971173 
L 201.522614 49.388045 
L 199.048972 51.330366 
L 196.575329 56.629396 
L 194.101687 54.682807 
L 191.628045 58.675385 
L 189.154402 55.7736 
L 186.68076 51.390723 
L 184.207117 52.045553 
L 181.733475 54.720149 
L 179.259832 53.733134 
L 176.78619 59.071271 
L 174.312547 65.254723 
L 171.838905 61.330207 
L 169.365262 56.285943 
L 166.89162 60.688643 
L 164.417977 51.901047 
L 161.944335 63.655994 
L 159.470692 66.427363 
L 156.99705 63.841843 
L 154.523408 66.42759 
L 152.049765 67.887847 
L 149.576123 66.19901 
L 147.10248 56.709825 
L 144.628838 66.58714 
L 142.155195 61.702844 
L 139.681553 66.07963 
L 137.20791 68.314002 
L 134.734268 68.427101 
L 132.260625 68.087374 
L 129.786983 68.093307 
L 127.31334 76.574685 
L 124.839698 64.038717 
L 122.366056 73.441217 
L 119.892413 75.991024 
L 117.418771 82.557697 
L 114.945128 77.296494 
L 112.471486 78.554262 
L 109.997843 87.423922 
L 107.524201 74.025518 
L 105.050558 78.427735 
L 102.576916 91.066535 
L 100.103273 90.248447 
L 97.629631 91.565643 
L 95.155988 103.488666 
L 92.682346 102.021183 
L 90.208703 112.274901 
L 87.735061 119.983371 
L 85.261419 148.572145 
L 82.787776 159.392212 
L 80.314134 191.690724 
L 77.840491 211.805944 
L 75.366849 237.154786 
L 72.893206 245.02341 
L 70.419564 264.216282 
L 67.945921 267.938351 
L 65.472279 278.381286 
L 62.998636 288.704736 
z
" style="fill:#ff7f0e;fill-opacity:0.25;"/>
   </g>
   <g id="PolyCollection_3">
    <path clip-path="url(#p35825915a5)" d="M 62.998636 288.796105 
L 62.998636 289.580507 
L 65.472279 289.132839 
L 67.945921 268.0833 
L 70.419564 264.490133 
L 72.893206 255.574152 
L 75.366849 245.807897 
L 77.840491 226.423795 
L 80.314134 198.949894 
L 82.787776 204.238475 
L 85.261419 166.68133 
L 87.735061 138.788852 
L 90.208703 127.359735 
L 92.682346 128.34538 
L 95.155988 114.845718 
L 97.629631 111.554145 
L 100.103273 108.929506 
L 102.576916 115.972047 
L 105.050558 90.73166 
L 107.524201 93.499954 
L 109.997843 93.420863 
L 112.471486 100.568602 
L 114.945128 93.555882 
L 117.418771 100.123863 
L 119.892413 94.003057 
L 122.366056 92.436108 
L 124.839698 88.924117 
L 127.31334 88.684331 
L 129.786983 79.251882 
L 132.260625 84.244495 
L 134.734268 94.729367 
L 137.20791 84.580831 
L 139.681553 78.885852 
L 142.155195 79.974979 
L 144.628838 77.666475 
L 147.10248 73.487294 
L 149.576123 78.559388 
L 152.049765 85.315095 
L 154.523408 82.711357 
L 156.99705 73.203165 
L 159.470692 72.115715 
L 161.944335 71.208298 
L 164.417977 66.880388 
L 166.89162 71.010167 
L 169.365262 77.614694 
L 171.838905 77.391432 
L 174.312547 78.479286 
L 176.78619 65.822171 
L 179.259832 68.564834 
L 181.733475 63.594049 
L 184.207117 66.232197 
L 186.68076 60.241146 
L 189.154402 64.53179 
L 191.628045 69.329692 
L 194.101687 67.566483 
L 196.575329 64.526536 
L 199.048972 59.882448 
L 201.522614 59.794 
L 203.996257 58.319125 
L 206.469899 65.312657 
L 208.943542 60.444451 
L 211.417184 69.708885 
L 213.890827 66.145834 
L 216.364469 64.065409 
L 218.838112 61.117925 
L 221.311754 61.650887 
L 223.785397 54.466632 
L 226.259039 53.587182 
L 228.732682 62.148284 
L 231.206324 57.990832 
L 233.679966 59.062255 
L 236.153609 60.086254 
L 238.627251 51.699349 
L 241.100894 55.187298 
L 243.574536 57.208649 
L 246.048179 54.83921 
L 248.521821 52.820392 
L 250.995464 54.351392 
L 253.469106 51.459898 
L 255.942749 56.50246 
L 258.416391 49.368554 
L 260.890034 50.768725 
L 263.363676 52.786347 
L 265.837318 49.675852 
L 268.310961 49.575656 
L 270.784603 50.83257 
L 273.258246 50.730002 
L 275.731888 51.215128 
L 278.205531 48.313229 
L 280.679173 43.270427 
L 283.152816 47.620198 
L 285.626458 46.693682 
L 288.100101 45.579242 
L 290.573743 43.373104 
L 293.047386 48.537621 
L 295.521028 43.416893 
L 297.994671 45.40919 
L 300.468313 43.458808 
L 302.941955 46.073324 
L 305.415598 42.736282 
L 307.88924 46.148461 
L 310.362883 38.876381 
L 312.836525 44.76843 
L 315.310168 42.851203 
L 317.78381 43.427872 
L 320.257453 42.360632 
L 322.731095 40.341389 
L 325.204738 40.767828 
L 327.67838 37.076859 
L 330.152023 39.374198 
L 332.625665 40.809442 
L 335.099308 43.815408 
L 337.57295 41.193239 
L 340.046592 39.790624 
L 342.520235 39.766834 
L 344.993877 42.207102 
L 347.46752 39.447421 
L 349.941162 35.62035 
L 352.414805 39.291986 
L 354.888447 35.368284 
L 357.36209 36.84559 
L 359.835732 37.294718 
L 362.309375 34.811855 
L 364.783017 33.976239 
L 367.25666 35.940998 
L 369.730302 32.763893 
L 372.203944 33.800177 
L 374.677587 34.432828 
L 377.151229 33.979336 
L 379.624872 34.417262 
L 382.098514 33.130224 
L 384.572157 34.097159 
L 387.045799 33.83225 
L 389.519442 34.541179 
L 391.993084 31.411029 
L 394.466727 31.540022 
L 396.940369 32.925669 
L 399.414012 33.870576 
L 401.887654 31.725392 
L 404.361297 32.487941 
L 406.834939 33.303639 
L 409.308581 32.94192 
L 411.782224 33.090076 
L 414.255866 32.918149 
L 416.729509 32.409706 
L 419.203151 32.425928 
L 421.676794 31.910795 
L 424.150436 32.60938 
L 426.624079 32.700637 
L 429.097721 32.281785 
L 431.571364 32.98226 
L 431.571364 29.203063 
L 431.571364 29.203063 
L 429.097721 30.151588 
L 426.624079 29.608711 
L 424.150436 28.893807 
L 421.676794 30.212516 
L 419.203151 29.573358 
L 416.729509 29.403543 
L 414.255866 28.461013 
L 411.782224 29.901408 
L 409.308581 29.92554 
L 406.834939 28.75766 
L 404.361297 29.88342 
L 401.887654 29.65377 
L 399.414012 29.244933 
L 396.940369 30.809964 
L 394.466727 28.846941 
L 391.993084 29.782096 
L 389.519442 30.310678 
L 387.045799 29.903383 
L 384.572157 31.312809 
L 382.098514 28.248938 
L 379.624872 30.806669 
L 377.151229 31.182583 
L 374.677587 29.240793 
L 372.203944 29.935456 
L 369.730302 29.66948 
L 367.25666 31.701417 
L 364.783017 30.379519 
L 362.309375 31.094213 
L 359.835732 32.580144 
L 357.36209 34.021471 
L 354.888447 32.398156 
L 352.414805 33.869534 
L 349.941162 29.479556 
L 347.46752 32.47385 
L 344.993877 37.527733 
L 342.520235 34.944996 
L 340.046592 34.797181 
L 337.57295 36.681224 
L 335.099308 35.795402 
L 332.625665 39.173442 
L 330.152023 32.361036 
L 327.67838 36.704785 
L 325.204738 32.951804 
L 322.731095 37.409048 
L 320.257453 36.754079 
L 317.78381 36.120926 
L 315.310168 35.891433 
L 312.836525 37.198851 
L 310.362883 33.913064 
L 307.88924 42.888235 
L 305.415598 38.176788 
L 302.941955 40.916963 
L 300.468313 39.314635 
L 297.994671 37.116204 
L 295.521028 40.472773 
L 293.047386 42.297435 
L 290.573743 40.950649 
L 288.100101 39.674697 
L 285.626458 39.428431 
L 283.152816 43.710957 
L 280.679173 37.890694 
L 278.205531 40.847492 
L 275.731888 46.069219 
L 273.258246 43.887811 
L 270.784603 45.707628 
L 268.310961 43.739896 
L 265.837318 45.810135 
L 263.363676 46.482396 
L 260.890034 47.197758 
L 258.416391 45.869383 
L 255.942749 48.657462 
L 253.469106 45.204324 
L 250.995464 47.273823 
L 248.521821 46.014265 
L 246.048179 48.212291 
L 243.574536 50.617807 
L 241.100894 52.45312 
L 238.627251 47.383357 
L 236.153609 50.096673 
L 233.679966 48.950238 
L 231.206324 45.494755 
L 228.732682 50.329103 
L 226.259039 49.092244 
L 223.785397 48.956942 
L 221.311754 47.477829 
L 218.838112 48.382865 
L 216.364469 51.698636 
L 213.890827 54.827253 
L 211.417184 52.318412 
L 208.943542 50.482625 
L 206.469899 50.885474 
L 203.996257 49.073244 
L 201.522614 49.272704 
L 199.048972 53.029025 
L 196.575329 53.84203 
L 194.101687 56.321186 
L 191.628045 56.6664 
L 189.154402 55.263061 
L 186.68076 53.352464 
L 184.207117 57.221386 
L 181.733475 54.650492 
L 179.259832 57.307233 
L 176.78619 58.685623 
L 174.312547 63.32997 
L 171.838905 64.975935 
L 169.365262 56.070937 
L 166.89162 65.776084 
L 164.417977 62.774436 
L 161.944335 52.865409 
L 159.470692 61.69394 
L 156.99705 64.947359 
L 154.523408 59.531985 
L 152.049765 68.214506 
L 149.576123 64.800178 
L 147.10248 54.989293 
L 144.628838 66.871327 
L 142.155195 65.368984 
L 139.681553 72.783377 
L 137.20791 69.382856 
L 134.734268 77.776031 
L 132.260625 71.95164 
L 129.786983 73.843632 
L 127.31334 74.705243 
L 124.839698 68.450253 
L 122.366056 71.697615 
L 119.892413 77.882216 
L 117.418771 70.149089 
L 114.945128 82.732273 
L 112.471486 73.549119 
L 109.997843 84.35559 
L 107.524201 79.315506 
L 105.050558 79.851353 
L 102.576916 94.050858 
L 100.103273 97.062593 
L 97.629631 94.003867 
L 95.155988 100.324217 
L 92.682346 109.893171 
L 90.208703 111.188878 
L 87.735061 132.254263 
L 85.261419 143.677652 
L 82.787776 171.946678 
L 80.314134 186.940202 
L 77.840491 207.091831 
L 75.366849 234.077507 
L 72.893206 245.659024 
L 70.419564 256.819559 
L 67.945921 264.404129 
L 65.472279 280.313986 
L 62.998636 288.796105 
z
" style="fill:#2ca02c;fill-opacity:0.25;"/>
   </g>
   <g id="PolyCollection_4">
    <path clip-path="url(#p35825915a5)" d="M 62.998636 287.799471 
L 62.998636 290.329091 
L 65.472279 289.775157 
L 67.945921 274.647337 
L 70.419564 268.09323 
L 72.893206 244.823009 
L 75.366849 240.502783 
L 77.840491 204.61089 
L 80.314134 188.706296 
L 82.787776 170.738567 
L 85.261419 154.264703 
L 87.735061 139.074544 
L 90.208703 123.268415 
L 92.682346 129.776006 
L 95.155988 115.221648 
L 97.629631 124.91723 
L 100.103273 113.232148 
L 102.576916 101.875576 
L 105.050558 98.93712 
L 107.524201 87.799149 
L 109.997843 89.499469 
L 112.471486 97.454095 
L 114.945128 91.614075 
L 117.418771 102.372798 
L 119.892413 90.92853 
L 122.366056 86.74167 
L 124.839698 92.003521 
L 127.31334 85.556308 
L 129.786983 77.824808 
L 132.260625 85.547076 
L 134.734268 84.959733 
L 137.20791 82.314911 
L 139.681553 77.708691 
L 142.155195 85.091077 
L 144.628838 74.676362 
L 147.10248 72.312606 
L 149.576123 75.09997 
L 152.049765 84.975866 
L 154.523408 88.786394 
L 156.99705 70.749597 
L 159.470692 74.778054 
L 161.944335 73.023734 
L 164.417977 67.512075 
L 166.89162 73.048676 
L 169.365262 71.362773 
L 171.838905 70.983639 
L 174.312547 74.330959 
L 176.78619 86.817647 
L 179.259832 71.455268 
L 181.733475 64.081379 
L 184.207117 62.116952 
L 186.68076 64.743399 
L 189.154402 62.90454 
L 191.628045 75.174062 
L 194.101687 63.480354 
L 196.575329 71.216927 
L 199.048972 60.058587 
L 201.522614 70.733488 
L 203.996257 57.241728 
L 206.469899 64.305012 
L 208.943542 61.140202 
L 211.417184 61.364475 
L 213.890827 61.238172 
L 216.364469 57.777957 
L 218.838112 62.635883 
L 221.311754 62.691583 
L 223.785397 59.768029 
L 226.259039 53.827865 
L 228.732682 55.413276 
L 231.206324 63.773411 
L 233.679966 60.344532 
L 236.153609 57.490168 
L 238.627251 60.459636 
L 241.100894 52.690786 
L 243.574536 58.706845 
L 246.048179 50.860573 
L 248.521821 63.746375 
L 250.995464 67.981987 
L 253.469106 49.190894 
L 255.942749 53.97893 
L 258.416391 55.224719 
L 260.890034 49.068744 
L 263.363676 52.362448 
L 265.837318 48.364637 
L 268.310961 55.583664 
L 270.784603 48.724682 
L 273.258246 49.75224 
L 275.731888 56.245823 
L 278.205531 47.71985 
L 280.679173 48.730578 
L 283.152816 49.651436 
L 285.626458 51.540436 
L 288.100101 46.982414 
L 290.573743 48.693699 
L 293.047386 44.953705 
L 295.521028 42.572801 
L 297.994671 45.588712 
L 300.468313 44.107332 
L 302.941955 42.677576 
L 305.415598 39.775214 
L 307.88924 43.62287 
L 310.362883 41.403444 
L 312.836525 41.808945 
L 315.310168 45.165371 
L 317.78381 43.796869 
L 320.257453 40.94708 
L 322.731095 40.593424 
L 325.204738 41.630296 
L 327.67838 39.633344 
L 330.152023 40.815426 
L 332.625665 40.052373 
L 335.099308 39.932586 
L 337.57295 40.203203 
L 340.046592 38.454753 
L 342.520235 40.571977 
L 344.993877 39.778033 
L 347.46752 37.682919 
L 349.941162 40.261588 
L 352.414805 38.208546 
L 354.888447 36.041011 
L 357.36209 38.753458 
L 359.835732 38.336533 
L 362.309375 32.841003 
L 364.783017 33.909048 
L 367.25666 37.810742 
L 369.730302 36.608731 
L 372.203944 35.097478 
L 374.677587 37.404193 
L 377.151229 37.788533 
L 379.624872 36.325107 
L 382.098514 35.728673 
L 384.572157 34.173467 
L 387.045799 35.446837 
L 389.519442 37.583716 
L 391.993084 34.323944 
L 394.466727 35.80903 
L 396.940369 36.334119 
L 399.414012 33.896027 
L 401.887654 33.487691 
L 404.361297 33.68163 
L 406.834939 34.000346 
L 409.308581 33.583467 
L 411.782224 32.358738 
L 414.255866 32.591466 
L 416.729509 33.239178 
L 419.203151 32.297669 
L 421.676794 34.104183 
L 424.150436 33.767045 
L 426.624079 33.688501 
L 429.097721 32.96039 
L 431.571364 33.348078 
L 431.571364 29.767432 
L 431.571364 29.767432 
L 429.097721 29.162921 
L 426.624079 29.48902 
L 424.150436 29.472489 
L 421.676794 28.949314 
L 419.203151 29.577592 
L 416.729509 30.248405 
L 414.255866 29.469832 
L 411.782224 29.764573 
L 409.308581 29.47003 
L 406.834939 28.433027 
L 404.361297 28.875768 
L 401.887654 28.387571 
L 399.414012 28.103259 
L 396.940369 29.509936 
L 394.466727 29.911001 
L 391.993084 28.233454 
L 389.519442 30.244737 
L 387.045799 30.087156 
L 384.572157 30.554365 
L 382.098514 29.55727 
L 379.624872 30.263097 
L 377.151229 31.900292 
L 374.677587 29.92816 
L 372.203944 30.684565 
L 369.730302 30.909659 
L 367.25666 30.141735 
L 364.783017 31.314883 
L 362.309375 30.584569 
L 359.835732 31.042229 
L 357.36209 33.229826 
L 354.888447 31.415367 
L 352.414805 32.162415 
L 349.941162 30.667485 
L 347.46752 32.502005 
L 344.993877 34.74776 
L 342.520235 35.8762 
L 340.046592 35.264879 
L 337.57295 34.384602 
L 335.099308 33.228933 
L 332.625665 37.388003 
L 330.152023 35.942813 
L 327.67838 35.698609 
L 325.204738 35.189956 
L 322.731095 37.591101 
L 320.257453 39.221842 
L 317.78381 37.116201 
L 315.310168 40.956742 
L 312.836525 38.173939 
L 310.362883 35.292783 
L 307.88924 36.608064 
L 305.415598 37.417112 
L 302.941955 35.692986 
L 300.468313 38.542086 
L 297.994671 40.037302 
L 295.521028 38.030207 
L 293.047386 37.385651 
L 290.573743 39.536836 
L 288.100101 40.503972 
L 285.626458 44.193601 
L 283.152816 41.18362 
L 280.679173 44.150887 
L 278.205531 39.642511 
L 275.731888 48.418 
L 273.258246 41.95099 
L 270.784603 42.606473 
L 268.310961 44.491241 
L 265.837318 45.198965 
L 263.363676 48.270569 
L 260.890034 45.239007 
L 258.416391 43.237863 
L 255.942749 46.157987 
L 253.469106 43.876608 
L 250.995464 47.34797 
L 248.521821 48.793024 
L 246.048179 45.741637 
L 243.574536 44.778742 
L 241.100894 46.950031 
L 238.627251 50.839515 
L 236.153609 47.545729 
L 233.679966 54.055239 
L 231.206324 50.068248 
L 228.732682 48.692435 
L 226.259039 48.169424 
L 223.785397 47.066228 
L 221.311754 56.545156 
L 218.838112 53.314199 
L 216.364469 52.218933 
L 213.890827 55.704108 
L 211.417184 53.965482 
L 208.943542 52.391396 
L 206.469899 55.923926 
L 203.996257 49.778566 
L 201.522614 54.456442 
L 199.048972 54.093135 
L 196.575329 59.182046 
L 194.101687 55.756385 
L 191.628045 58.449556 
L 189.154402 53.045542 
L 186.68076 54.059253 
L 184.207117 51.78672 
L 181.733475 57.449819 
L 179.259832 54.478812 
L 176.78619 59.952601 
L 174.312547 62.765354 
L 171.838905 62.14388 
L 169.365262 61.268646 
L 166.89162 56.606147 
L 164.417977 63.941108 
L 161.944335 58.615487 
L 159.470692 64.550705 
L 156.99705 60.207487 
L 154.523408 69.270113 
L 152.049765 67.747573 
L 149.576123 62.244392 
L 147.10248 59.20259 
L 144.628838 60.993665 
L 142.155195 66.268089 
L 139.681553 62.612267 
L 137.20791 67.928032 
L 134.734268 73.468848 
L 132.260625 74.927915 
L 129.786983 68.697391 
L 127.31334 73.430385 
L 124.839698 70.827941 
L 122.366056 77.57809 
L 119.892413 75.18959 
L 117.418771 87.620099 
L 114.945128 80.209186 
L 112.471486 78.586011 
L 109.997843 86.044537 
L 107.524201 73.606028 
L 105.050558 77.599084 
L 102.576916 92.830264 
L 100.103273 98.279055 
L 97.629631 106.189894 
L 95.155988 109.436186 
L 92.682346 98.602572 
L 90.208703 109.761093 
L 87.735061 119.06999 
L 85.261419 133.645787 
L 82.787776 151.123717 
L 80.314134 174.828326 
L 77.840491 184.534857 
L 75.366849 218.561955 
L 72.893206 226.628707 
L 70.419564 243.325483 
L 67.945921 259.32839 
L 65.472279 279.175569 
L 62.998636 287.799471 
z
" style="fill:#d62728;fill-opacity:0.25;"/>
   </g>
   <g id="matplotlib.axis_1">
    <g id="xtick_1">
     <g id="line2d_1">
      <defs>
       <path d="M 0 0 
L 0 3.5 
" id="m8cd602dc40" style="stroke:#000000;stroke-width:0.8;"/>
      </defs>
      <g>
       <use style="stroke:#000000;stroke-width:0.8;" x="62.998636" xlink:href="#m8cd602dc40" y="303.64"/>
      </g>
     </g>
     <g id="text_1">
      <!-- 0 -->
      <g transform="translate(59.817386 318.238437)scale(0.1 -0.1)">
       <defs>
        <path d="M 31.78125 66.40625 
Q 24.171875 66.40625 20.328125 58.90625 
Q 16.5 51.421875 16.5 36.375 
Q 16.5 21.390625 20.328125 13.890625 
Q 24.171875 6.390625 31.78125 6.390625 
Q 39.453125 6.390625 43.28125 13.890625 
Q 47.125 21.390625 47.125 36.375 
Q 47.125 51.421875 43.28125 58.90625 
Q 39.453125 66.40625 31.78125 66.40625 
z
M 31.78125 74.21875 
Q 44.046875 74.21875 50.515625 64.515625 
Q 56.984375 54.828125 56.984375 36.375 
Q 56.984375 17.96875 50.515625 8.265625 
Q 44.046875 -1.421875 31.78125 -1.421875 
Q 19.53125 -1.421875 13.0625 8.265625 
Q 6.59375 17.96875 6.59375 36.375 
Q 6.59375 54.828125 13.0625 64.515625 
Q 19.53125 74.21875 31.78125 74.21875 
z
" id="DejaVuSans-48"/>
       </defs>
       <use xlink:href="#DejaVuSans-48"/>
      </g>
     </g>
    </g>
    <g id="xtick_2">
     <g id="line2d_2">
      <g>
       <use style="stroke:#000000;stroke-width:0.8;" x="112.471486" xlink:href="#m8cd602dc40" y="303.64"/>
      </g>
     </g>
     <g id="text_2">
      <!-- 20 -->
      <g transform="translate(106.108986 318.238437)scale(0.1 -0.1)">
       <defs>
        <path d="M 19.1875 8.296875 
L 53.609375 8.296875 
L 53.609375 0 
L 7.328125 0 
L 7.328125 8.296875 
Q 12.9375 14.109375 22.625 23.890625 
Q 32.328125 33.6875 34.8125 36.53125 
Q 39.546875 41.84375 41.421875 45.53125 
Q 43.3125 49.21875 43.3125 52.78125 
Q 43.3125 58.59375 39.234375 62.25 
Q 35.15625 65.921875 28.609375 65.921875 
Q 23.96875 65.921875 18.8125 64.3125 
Q 13.671875 62.703125 7.8125 59.421875 
L 7.8125 69.390625 
Q 13.765625 71.78125 18.9375 73 
Q 24.125 74.21875 28.421875 74.21875 
Q 39.75 74.21875 46.484375 68.546875 
Q 53.21875 62.890625 53.21875 53.421875 
Q 53.21875 48.921875 51.53125 44.890625 
Q 49.859375 40.875 45.40625 35.40625 
Q 44.1875 33.984375 37.640625 27.21875 
Q 31.109375 20.453125 19.1875 8.296875 
z
" id="DejaVuSans-50"/>
       </defs>
       <use xlink:href="#DejaVuSans-50"/>
       <use x="63.623047" xlink:href="#DejaVuSans-48"/>
      </g>
     </g>
    </g>
    <g id="xtick_3">
     <g id="line2d_3">
      <g>
       <use style="stroke:#000000;stroke-width:0.8;" x="161.944335" xlink:href="#m8cd602dc40" y="303.64"/>
      </g>
     </g>
     <g id="text_3">
      <!-- 40 -->
      <g transform="translate(155.581835 318.238437)scale(0.1 -0.1)">
       <defs>
        <path d="M 37.796875 64.3125 
L 12.890625 25.390625 
L 37.796875 25.390625 
z
M 35.203125 72.90625 
L 47.609375 72.90625 
L 47.609375 25.390625 
L 58.015625 25.390625 
L 58.015625 17.1875 
L 47.609375 17.1875 
L 47.609375 0 
L 37.796875 0 
L 37.796875 17.1875 
L 4.890625 17.1875 
L 4.890625 26.703125 
z
" id="DejaVuSans-52"/>
       </defs>
       <use xlink:href="#DejaVuSans-52"/>
       <use x="63.623047" xlink:href="#DejaVuSans-48"/>
      </g>
     </g>
    </g>
    <g id="xtick_4">
     <g id="line2d_4">
      <g>
       <use style="stroke:#000000;stroke-width:0.8;" x="211.417184" xlink:href="#m8cd602dc40" y="303.64"/>
      </g>
     </g>
     <g id="text_4">
      <!-- 60 -->
      <g transform="translate(205.054684 318.238437)scale(0.1 -0.1)">
       <defs>
        <path d="M 33.015625 40.375 
Q 26.375 40.375 22.484375 35.828125 
Q 18.609375 31.296875 18.609375 23.390625 
Q 18.609375 15.53125 22.484375 10.953125 
Q 26.375 6.390625 33.015625 6.390625 
Q 39.65625 6.390625 43.53125 10.953125 
Q 47.40625 15.53125 47.40625 23.390625 
Q 47.40625 31.296875 43.53125 35.828125 
Q 39.65625 40.375 33.015625 40.375 
z
M 52.59375 71.296875 
L 52.59375 62.3125 
Q 48.875 64.0625 45.09375 64.984375 
Q 41.3125 65.921875 37.59375 65.921875 
Q 27.828125 65.921875 22.671875 59.328125 
Q 17.53125 52.734375 16.796875 39.40625 
Q 19.671875 43.65625 24.015625 45.921875 
Q 28.375 48.1875 33.59375 48.1875 
Q 44.578125 48.1875 50.953125 41.515625 
Q 57.328125 34.859375 57.328125 23.390625 
Q 57.328125 12.15625 50.6875 5.359375 
Q 44.046875 -1.421875 33.015625 -1.421875 
Q 20.359375 -1.421875 13.671875 8.265625 
Q 6.984375 17.96875 6.984375 36.375 
Q 6.984375 53.65625 15.1875 63.9375 
Q 23.390625 74.21875 37.203125 74.21875 
Q 40.921875 74.21875 44.703125 73.484375 
Q 48.484375 72.75 52.59375 71.296875 
z
" id="DejaVuSans-54"/>
       </defs>
       <use xlink:href="#DejaVuSans-54"/>
       <use x="63.623047" xlink:href="#DejaVuSans-48"/>
      </g>
     </g>
    </g>
    <g id="xtick_5">
     <g id="line2d_5">
      <g>
       <use style="stroke:#000000;stroke-width:0.8;" x="260.890034" xlink:href="#m8cd602dc40" y="303.64"/>
      </g>
     </g>
     <g id="text_5">
      <!-- 80 -->
      <g transform="translate(254.527534 318.238437)scale(0.1 -0.1)">
       <defs>
        <path d="M 31.78125 34.625 
Q 24.75 34.625 20.71875 30.859375 
Q 16.703125 27.09375 16.703125 20.515625 
Q 16.703125 13.921875 20.71875 10.15625 
Q 24.75 6.390625 31.78125 6.390625 
Q 38.8125 6.390625 42.859375 10.171875 
Q 46.921875 13.96875 46.921875 20.515625 
Q 46.921875 27.09375 42.890625 30.859375 
Q 38.875 34.625 31.78125 34.625 
z
M 21.921875 38.8125 
Q 15.578125 40.375 12.03125 44.71875 
Q 8.5 49.078125 8.5 55.328125 
Q 8.5 64.0625 14.71875 69.140625 
Q 20.953125 74.21875 31.78125 74.21875 
Q 42.671875 74.21875 48.875 69.140625 
Q 55.078125 64.0625 55.078125 55.328125 
Q 55.078125 49.078125 51.53125 44.71875 
Q 48 40.375 41.703125 38.8125 
Q 48.828125 37.15625 52.796875 32.3125 
Q 56.78125 27.484375 56.78125 20.515625 
Q 56.78125 9.90625 50.3125 4.234375 
Q 43.84375 -1.421875 31.78125 -1.421875 
Q 19.734375 -1.421875 13.25 4.234375 
Q 6.78125 9.90625 6.78125 20.515625 
Q 6.78125 27.484375 10.78125 32.3125 
Q 14.796875 37.15625 21.921875 38.8125 
z
M 18.3125 54.390625 
Q 18.3125 48.734375 21.84375 45.5625 
Q 25.390625 42.390625 31.78125 42.390625 
Q 38.140625 42.390625 41.71875 45.5625 
Q 45.3125 48.734375 45.3125 54.390625 
Q 45.3125 60.0625 41.71875 63.234375 
Q 38.140625 66.40625 31.78125 66.40625 
Q 25.390625 66.40625 21.84375 63.234375 
Q 18.3125 60.0625 18.3125 54.390625 
z
" id="DejaVuSans-56"/>
       </defs>
       <use xlink:href="#DejaVuSans-56"/>
       <use x="63.623047" xlink:href="#DejaVuSans-48"/>
      </g>
     </g>
    </g>
    <g id="xtick_6">
     <g id="line2d_6">
      <g>
       <use style="stroke:#000000;stroke-width:0.8;" x="310.362883" xlink:href="#m8cd602dc40" y="303.64"/>
      </g>
     </g>
     <g id="text_6">
      <!-- 100 -->
      <g transform="translate(300.819133 318.238437)scale(0.1 -0.1)">
       <defs>
        <path d="M 12.40625 8.296875 
L 28.515625 8.296875 
L 28.515625 63.921875 
L 10.984375 60.40625 
L 10.984375 69.390625 
L 28.421875 72.90625 
L 38.28125 72.90625 
L 38.28125 8.296875 
L 54.390625 8.296875 
L 54.390625 0 
L 12.40625 0 
z
" id="DejaVuSans-49"/>
       </defs>
       <use xlink:href="#DejaVuSans-49"/>
       <use x="63.623047" xlink:href="#DejaVuSans-48"/>
       <use x="127.246094" xlink:href="#DejaVuSans-48"/>
      </g>
     </g>
    </g>
    <g id="xtick_7">
     <g id="line2d_7">
      <g>
       <use style="stroke:#000000;stroke-width:0.8;" x="359.835732" xlink:href="#m8cd602dc40" y="303.64"/>
      </g>
     </g>
     <g id="text_7">
      <!-- 120 -->
      <g transform="translate(350.291982 318.238437)scale(0.1 -0.1)">
       <use xlink:href="#DejaVuSans-49"/>
       <use x="63.623047" xlink:href="#DejaVuSans-50"/>
       <use x="127.246094" xlink:href="#DejaVuSans-48"/>
      </g>
     </g>
    </g>
    <g id="xtick_8">
     <g id="line2d_8">
      <g>
       <use style="stroke:#000000;stroke-width:0.8;" x="409.308581" xlink:href="#m8cd602dc40" y="303.64"/>
      </g>
     </g>
     <g id="text_8">
      <!-- 140 -->
      <g transform="translate(399.764831 318.238437)scale(0.1 -0.1)">
       <use xlink:href="#DejaVuSans-49"/>
       <use x="63.623047" xlink:href="#DejaVuSans-52"/>
       <use x="127.246094" xlink:href="#DejaVuSans-48"/>
      </g>
     </g>
    </g>
    <g id="text_9">
     <!-- Epochs -->
     <g transform="translate(229.369375 331.916562)scale(0.1 -0.1)">
      <defs>
       <path d="M 9.8125 72.90625 
L 55.90625 72.90625 
L 55.90625 64.59375 
L 19.671875 64.59375 
L 19.671875 43.015625 
L 54.390625 43.015625 
L 54.390625 34.71875 
L 19.671875 34.71875 
L 19.671875 8.296875 
L 56.78125 8.296875 
L 56.78125 0 
L 9.8125 0 
z
" id="DejaVuSans-69"/>
       <path d="M 18.109375 8.203125 
L 18.109375 -20.796875 
L 9.078125 -20.796875 
L 9.078125 54.6875 
L 18.109375 54.6875 
L 18.109375 46.390625 
Q 20.953125 51.265625 25.265625 53.625 
Q 29.59375 56 35.59375 56 
Q 45.5625 56 51.78125 48.09375 
Q 58.015625 40.1875 58.015625 27.296875 
Q 58.015625 14.40625 51.78125 6.484375 
Q 45.5625 -1.421875 35.59375 -1.421875 
Q 29.59375 -1.421875 25.265625 0.953125 
Q 20.953125 3.328125 18.109375 8.203125 
z
M 48.6875 27.296875 
Q 48.6875 37.203125 44.609375 42.84375 
Q 40.53125 48.484375 33.40625 48.484375 
Q 26.265625 48.484375 22.1875 42.84375 
Q 18.109375 37.203125 18.109375 27.296875 
Q 18.109375 17.390625 22.1875 11.75 
Q 26.265625 6.109375 33.40625 6.109375 
Q 40.53125 6.109375 44.609375 11.75 
Q 48.6875 17.390625 48.6875 27.296875 
z
" id="DejaVuSans-112"/>
       <path d="M 30.609375 48.390625 
Q 23.390625 48.390625 19.1875 42.75 
Q 14.984375 37.109375 14.984375 27.296875 
Q 14.984375 17.484375 19.15625 11.84375 
Q 23.34375 6.203125 30.609375 6.203125 
Q 37.796875 6.203125 41.984375 11.859375 
Q 46.1875 17.53125 46.1875 27.296875 
Q 46.1875 37.015625 41.984375 42.703125 
Q 37.796875 48.390625 30.609375 48.390625 
z
M 30.609375 56 
Q 42.328125 56 49.015625 48.375 
Q 55.71875 40.765625 55.71875 27.296875 
Q 55.71875 13.875 49.015625 6.21875 
Q 42.328125 -1.421875 30.609375 -1.421875 
Q 18.84375 -1.421875 12.171875 6.21875 
Q 5.515625 13.875 5.515625 27.296875 
Q 5.515625 40.765625 12.171875 48.375 
Q 18.84375 56 30.609375 56 
z
" id="DejaVuSans-111"/>
       <path d="M 48.78125 52.59375 
L 48.78125 44.1875 
Q 44.96875 46.296875 41.140625 47.34375 
Q 37.3125 48.390625 33.40625 48.390625 
Q 24.65625 48.390625 19.8125 42.84375 
Q 14.984375 37.3125 14.984375 27.296875 
Q 14.984375 17.28125 19.8125 11.734375 
Q 24.65625 6.203125 33.40625 6.203125 
Q 37.3125 6.203125 41.140625 7.25 
Q 44.96875 8.296875 48.78125 10.40625 
L 48.78125 2.09375 
Q 45.015625 0.34375 40.984375 -0.53125 
Q 36.96875 -1.421875 32.421875 -1.421875 
Q 20.0625 -1.421875 12.78125 6.34375 
Q 5.515625 14.109375 5.515625 27.296875 
Q 5.515625 40.671875 12.859375 48.328125 
Q 20.21875 56 33.015625 56 
Q 37.15625 56 41.109375 55.140625 
Q 45.0625 54.296875 48.78125 52.59375 
z
" id="DejaVuSans-99"/>
       <path d="M 54.890625 33.015625 
L 54.890625 0 
L 45.90625 0 
L 45.90625 32.71875 
Q 45.90625 40.484375 42.875 44.328125 
Q 39.84375 48.1875 33.796875 48.1875 
Q 26.515625 48.1875 22.3125 43.546875 
Q 18.109375 38.921875 18.109375 30.90625 
L 18.109375 0 
L 9.078125 0 
L 9.078125 75.984375 
L 18.109375 75.984375 
L 18.109375 46.1875 
Q 21.34375 51.125 25.703125 53.5625 
Q 30.078125 56 35.796875 56 
Q 45.21875 56 50.046875 50.171875 
Q 54.890625 44.34375 54.890625 33.015625 
z
" id="DejaVuSans-104"/>
       <path d="M 44.28125 53.078125 
L 44.28125 44.578125 
Q 40.484375 46.53125 36.375 47.5 
Q 32.28125 48.484375 27.875 48.484375 
Q 21.1875 48.484375 17.84375 46.4375 
Q 14.5 44.390625 14.5 40.28125 
Q 14.5 37.15625 16.890625 35.375 
Q 19.28125 33.59375 26.515625 31.984375 
L 29.59375 31.296875 
Q 39.15625 29.25 43.1875 25.515625 
Q 47.21875 21.78125 47.21875 15.09375 
Q 47.21875 7.46875 41.1875 3.015625 
Q 35.15625 -1.421875 24.609375 -1.421875 
Q 20.21875 -1.421875 15.453125 -0.5625 
Q 10.6875 0.296875 5.421875 2 
L 5.421875 11.28125 
Q 10.40625 8.6875 15.234375 7.390625 
Q 20.0625 6.109375 24.8125 6.109375 
Q 31.15625 6.109375 34.5625 8.28125 
Q 37.984375 10.453125 37.984375 14.40625 
Q 37.984375 18.0625 35.515625 20.015625 
Q 33.0625 21.96875 24.703125 23.78125 
L 21.578125 24.515625 
Q 13.234375 26.265625 9.515625 29.90625 
Q 5.8125 33.546875 5.8125 39.890625 
Q 5.8125 47.609375 11.28125 51.796875 
Q 16.75 56 26.8125 56 
Q 31.78125 56 36.171875 55.265625 
Q 40.578125 54.546875 44.28125 53.078125 
z
" id="DejaVuSans-115"/>
      </defs>
      <use xlink:href="#DejaVuSans-69"/>
      <use x="63.183594" xlink:href="#DejaVuSans-112"/>
      <use x="126.660156" xlink:href="#DejaVuSans-111"/>
      <use x="187.841797" xlink:href="#DejaVuSans-99"/>
      <use x="242.822266" xlink:href="#DejaVuSans-104"/>
      <use x="306.201172" xlink:href="#DejaVuSans-115"/>
     </g>
    </g>
   </g>
   <g id="matplotlib.axis_2">
    <g id="ytick_1">
     <g id="line2d_9">
      <defs>
       <path d="M 0 0 
L -3.5 0 
" id="m5cc2276aa6" style="stroke:#000000;stroke-width:0.8;"/>
      </defs>
      <g>
       <use style="stroke:#000000;stroke-width:0.8;" x="44.57" xlink:href="#m5cc2276aa6" y="261.034672"/>
      </g>
     </g>
     <g id="text_10">
      <!-- 20 -->
      <g transform="translate(24.845 264.833891)scale(0.1 -0.1)">
       <use xlink:href="#DejaVuSans-50"/>
       <use x="63.623047" xlink:href="#DejaVuSans-48"/>
      </g>
     </g>
    </g>
    <g id="ytick_2">
     <g id="line2d_10">
      <g>
       <use style="stroke:#000000;stroke-width:0.8;" x="44.57" xlink:href="#m5cc2276aa6" y="197.533966"/>
      </g>
     </g>
     <g id="text_11">
      <!-- 40 -->
      <g transform="translate(24.845 201.333185)scale(0.1 -0.1)">
       <use xlink:href="#DejaVuSans-52"/>
       <use x="63.623047" xlink:href="#DejaVuSans-48"/>
      </g>
     </g>
    </g>
    <g id="ytick_3">
     <g id="line2d_11">
      <g>
       <use style="stroke:#000000;stroke-width:0.8;" x="44.57" xlink:href="#m5cc2276aa6" y="134.03326"/>
      </g>
     </g>
     <g id="text_12">
      <!-- 60 -->
      <g transform="translate(24.845 137.832478)scale(0.1 -0.1)">
       <use xlink:href="#DejaVuSans-54"/>
       <use x="63.623047" xlink:href="#DejaVuSans-48"/>
      </g>
     </g>
    </g>
    <g id="ytick_4">
     <g id="line2d_12">
      <g>
       <use style="stroke:#000000;stroke-width:0.8;" x="44.57" xlink:href="#m5cc2276aa6" y="70.532553"/>
      </g>
     </g>
     <g id="text_13">
      <!-- 80 -->
      <g transform="translate(24.845 74.331772)scale(0.1 -0.1)">
       <use xlink:href="#DejaVuSans-56"/>
       <use x="63.623047" xlink:href="#DejaVuSans-48"/>
      </g>
     </g>
    </g>
    <g id="text_14">
     <!-- Test Accuracy (%) -->
     <g transform="translate(18.765313 201.723906)rotate(-90)scale(0.1 -0.1)">
      <defs>
       <path d="M -0.296875 72.90625 
L 61.375 72.90625 
L 61.375 64.59375 
L 35.5 64.59375 
L 35.5 0 
L 25.59375 0 
L 25.59375 64.59375 
L -0.296875 64.59375 
z
" id="DejaVuSans-84"/>
       <path d="M 56.203125 29.59375 
L 56.203125 25.203125 
L 14.890625 25.203125 
Q 15.484375 15.921875 20.484375 11.0625 
Q 25.484375 6.203125 34.421875 6.203125 
Q 39.59375 6.203125 44.453125 7.46875 
Q 49.3125 8.734375 54.109375 11.28125 
L 54.109375 2.78125 
Q 49.265625 0.734375 44.1875 -0.34375 
Q 39.109375 -1.421875 33.890625 -1.421875 
Q 20.796875 -1.421875 13.15625 6.1875 
Q 5.515625 13.8125 5.515625 26.8125 
Q 5.515625 40.234375 12.765625 48.109375 
Q 20.015625 56 32.328125 56 
Q 43.359375 56 49.78125 48.890625 
Q 56.203125 41.796875 56.203125 29.59375 
z
M 47.21875 32.234375 
Q 47.125 39.59375 43.09375 43.984375 
Q 39.0625 48.390625 32.421875 48.390625 
Q 24.90625 48.390625 20.390625 44.140625 
Q 15.875 39.890625 15.1875 32.171875 
z
" id="DejaVuSans-101"/>
       <path d="M 18.3125 70.21875 
L 18.3125 54.6875 
L 36.8125 54.6875 
L 36.8125 47.703125 
L 18.3125 47.703125 
L 18.3125 18.015625 
Q 18.3125 11.328125 20.140625 9.421875 
Q 21.96875 7.515625 27.59375 7.515625 
L 36.8125 7.515625 
L 36.8125 0 
L 27.59375 0 
Q 17.1875 0 13.234375 3.875 
Q 9.28125 7.765625 9.28125 18.015625 
L 9.28125 47.703125 
L 2.6875 47.703125 
L 2.6875 54.6875 
L 9.28125 54.6875 
L 9.28125 70.21875 
z
" id="DejaVuSans-116"/>
       <path id="DejaVuSans-32"/>
       <path d="M 34.1875 63.1875 
L 20.796875 26.90625 
L 47.609375 26.90625 
z
M 28.609375 72.90625 
L 39.796875 72.90625 
L 67.578125 0 
L 57.328125 0 
L 50.6875 18.703125 
L 17.828125 18.703125 
L 11.1875 0 
L 0.78125 0 
z
" id="DejaVuSans-65"/>
       <path d="M 8.5 21.578125 
L 8.5 54.6875 
L 17.484375 54.6875 
L 17.484375 21.921875 
Q 17.484375 14.15625 20.5 10.265625 
Q 23.53125 6.390625 29.59375 6.390625 
Q 36.859375 6.390625 41.078125 11.03125 
Q 45.3125 15.671875 45.3125 23.6875 
L 45.3125 54.6875 
L 54.296875 54.6875 
L 54.296875 0 
L 45.3125 0 
L 45.3125 8.40625 
Q 42.046875 3.421875 37.71875 1 
Q 33.40625 -1.421875 27.6875 -1.421875 
Q 18.265625 -1.421875 13.375 4.4375 
Q 8.5 10.296875 8.5 21.578125 
z
M 31.109375 56 
z
" id="DejaVuSans-117"/>
       <path d="M 41.109375 46.296875 
Q 39.59375 47.171875 37.8125 47.578125 
Q 36.03125 48 33.890625 48 
Q 26.265625 48 22.1875 43.046875 
Q 18.109375 38.09375 18.109375 28.8125 
L 18.109375 0 
L 9.078125 0 
L 9.078125 54.6875 
L 18.109375 54.6875 
L 18.109375 46.1875 
Q 20.953125 51.171875 25.484375 53.578125 
Q 30.03125 56 36.53125 56 
Q 37.453125 56 38.578125 55.875 
Q 39.703125 55.765625 41.0625 55.515625 
z
" id="DejaVuSans-114"/>
       <path d="M 34.28125 27.484375 
Q 23.390625 27.484375 19.1875 25 
Q 14.984375 22.515625 14.984375 16.5 
Q 14.984375 11.71875 18.140625 8.90625 
Q 21.296875 6.109375 26.703125 6.109375 
Q 34.1875 6.109375 38.703125 11.40625 
Q 43.21875 16.703125 43.21875 25.484375 
L 43.21875 27.484375 
z
M 52.203125 31.203125 
L 52.203125 0 
L 43.21875 0 
L 43.21875 8.296875 
Q 40.140625 3.328125 35.546875 0.953125 
Q 30.953125 -1.421875 24.3125 -1.421875 
Q 15.921875 -1.421875 10.953125 3.296875 
Q 6 8.015625 6 15.921875 
Q 6 25.140625 12.171875 29.828125 
Q 18.359375 34.515625 30.609375 34.515625 
L 43.21875 34.515625 
L 43.21875 35.40625 
Q 43.21875 41.609375 39.140625 45 
Q 35.0625 48.390625 27.6875 48.390625 
Q 23 48.390625 18.546875 47.265625 
Q 14.109375 46.140625 10.015625 43.890625 
L 10.015625 52.203125 
Q 14.9375 54.109375 19.578125 55.046875 
Q 24.21875 56 28.609375 56 
Q 40.484375 56 46.34375 49.84375 
Q 52.203125 43.703125 52.203125 31.203125 
z
" id="DejaVuSans-97"/>
       <path d="M 32.171875 -5.078125 
Q 28.375 -14.84375 24.75 -17.8125 
Q 21.140625 -20.796875 15.09375 -20.796875 
L 7.90625 -20.796875 
L 7.90625 -13.28125 
L 13.1875 -13.28125 
Q 16.890625 -13.28125 18.9375 -11.515625 
Q 21 -9.765625 23.484375 -3.21875 
L 25.09375 0.875 
L 2.984375 54.6875 
L 12.5 54.6875 
L 29.59375 11.921875 
L 46.6875 54.6875 
L 56.203125 54.6875 
z
" id="DejaVuSans-121"/>
       <path d="M 31 75.875 
Q 24.46875 64.65625 21.28125 53.65625 
Q 18.109375 42.671875 18.109375 31.390625 
Q 18.109375 20.125 21.3125 9.0625 
Q 24.515625 -2 31 -13.1875 
L 23.1875 -13.1875 
Q 15.875 -1.703125 12.234375 9.375 
Q 8.59375 20.453125 8.59375 31.390625 
Q 8.59375 42.28125 12.203125 53.3125 
Q 15.828125 64.359375 23.1875 75.875 
z
" id="DejaVuSans-40"/>
       <path d="M 72.703125 32.078125 
Q 68.453125 32.078125 66.03125 28.46875 
Q 63.625 24.859375 63.625 18.40625 
Q 63.625 12.0625 66.03125 8.421875 
Q 68.453125 4.78125 72.703125 4.78125 
Q 76.859375 4.78125 79.265625 8.421875 
Q 81.6875 12.0625 81.6875 18.40625 
Q 81.6875 24.8125 79.265625 28.4375 
Q 76.859375 32.078125 72.703125 32.078125 
z
M 72.703125 38.28125 
Q 80.421875 38.28125 84.953125 32.90625 
Q 89.5 27.546875 89.5 18.40625 
Q 89.5 9.28125 84.9375 3.921875 
Q 80.375 -1.421875 72.703125 -1.421875 
Q 64.890625 -1.421875 60.34375 3.921875 
Q 55.8125 9.28125 55.8125 18.40625 
Q 55.8125 27.59375 60.375 32.9375 
Q 64.9375 38.28125 72.703125 38.28125 
z
M 22.3125 68.015625 
Q 18.109375 68.015625 15.6875 64.375 
Q 13.28125 60.75 13.28125 54.390625 
Q 13.28125 47.953125 15.671875 44.328125 
Q 18.0625 40.71875 22.3125 40.71875 
Q 26.5625 40.71875 28.96875 44.328125 
Q 31.390625 47.953125 31.390625 54.390625 
Q 31.390625 60.6875 28.953125 64.34375 
Q 26.515625 68.015625 22.3125 68.015625 
z
M 66.40625 74.21875 
L 74.21875 74.21875 
L 28.609375 -1.421875 
L 20.796875 -1.421875 
z
M 22.3125 74.21875 
Q 30.03125 74.21875 34.609375 68.875 
Q 39.203125 63.53125 39.203125 54.390625 
Q 39.203125 45.171875 34.640625 39.84375 
Q 30.078125 34.515625 22.3125 34.515625 
Q 14.546875 34.515625 10.03125 39.859375 
Q 5.515625 45.21875 5.515625 54.390625 
Q 5.515625 63.484375 10.046875 68.84375 
Q 14.59375 74.21875 22.3125 74.21875 
z
" id="DejaVuSans-37"/>
       <path d="M 8.015625 75.875 
L 15.828125 75.875 
Q 23.140625 64.359375 26.78125 53.3125 
Q 30.421875 42.28125 30.421875 31.390625 
Q 30.421875 20.453125 26.78125 9.375 
Q 23.140625 -1.703125 15.828125 -13.1875 
L 8.015625 -13.1875 
Q 14.5 -2 17.703125 9.0625 
Q 20.90625 20.125 20.90625 31.390625 
Q 20.90625 42.671875 17.703125 53.65625 
Q 14.5 64.65625 8.015625 75.875 
z
" id="DejaVuSans-41"/>
      </defs>
      <use xlink:href="#DejaVuSans-84"/>
      <use x="44.083984" xlink:href="#DejaVuSans-101"/>
      <use x="105.607422" xlink:href="#DejaVuSans-115"/>
      <use x="157.707031" xlink:href="#DejaVuSans-116"/>
      <use x="196.916016" xlink:href="#DejaVuSans-32"/>
      <use x="228.703125" xlink:href="#DejaVuSans-65"/>
      <use x="295.361328" xlink:href="#DejaVuSans-99"/>
      <use x="350.341797" xlink:href="#DejaVuSans-99"/>
      <use x="405.322266" xlink:href="#DejaVuSans-117"/>
      <use x="468.701172" xlink:href="#DejaVuSans-114"/>
      <use x="509.814453" xlink:href="#DejaVuSans-97"/>
      <use x="571.09375" xlink:href="#DejaVuSans-99"/>
      <use x="626.074219" xlink:href="#DejaVuSans-121"/>
      <use x="685.253906" xlink:href="#DejaVuSans-32"/>
      <use x="717.041016" xlink:href="#DejaVuSans-40"/>
      <use x="756.054688" xlink:href="#DejaVuSans-37"/>
      <use x="851.074219" xlink:href="#DejaVuSans-41"/>
     </g>
    </g>
   </g>
   <g id="line2d_13">
    <path clip-path="url(#p35825915a5)" d="M 62.998636 277.778023 
L 65.472279 256.817829 
L 67.945921 240.958155 
L 70.419564 226.679798 
L 72.893206 197.766513 
L 75.366849 153.505156 
L 77.840491 125.103473 
L 80.314134 115.677587 
L 82.787776 107.864023 
L 85.261419 82.686985 
L 87.735061 78.718191 
L 90.208703 83.896227 
L 92.682346 77.384925 
L 95.155988 75.493546 
L 97.629631 71.927833 
L 100.103273 61.509748 
L 102.576916 66.811809 
L 105.050558 58.967239 
L 107.524201 52.734992 
L 109.997843 66.842815 
L 112.471486 56.207687 
L 114.945128 56.889824 
L 117.418771 63.959238 
L 119.892413 62.06786 
L 122.366056 63.401126 
L 124.839698 56.02165 
L 127.31334 60.145475 
L 129.786983 56.92083 
L 132.260625 59.246295 
L 134.734268 52.145874 
L 137.20791 54.130271 
L 139.681553 53.696185 
L 142.155195 53.634172 
L 144.628838 52.269899 
L 147.10248 50.62657 
L 149.576123 57.789003 
L 152.049765 62.222891 
L 154.523408 57.602966 
L 156.99705 48.797204 
L 159.470692 60.145475 
L 161.944335 50.595564 
L 164.417977 48.301105 
L 166.89162 51.153676 
L 169.365262 48.766198 
L 171.838905 50.192483 
L 174.312547 47.556956 
L 176.78619 47.401925 
L 181.733475 50.285502 
L 184.207117 49.138272 
L 189.154402 51.401725 
L 191.628045 50.87462 
L 194.101687 49.665378 
L 196.575329 50.905626 
L 199.048972 44.549354 
L 201.522614 52.114868 
L 203.996257 57.354917 
L 206.469899 49.72739 
L 208.943542 41.417728 
L 211.417184 49.634372 
L 213.890827 49.417328 
L 216.364469 44.332311 
L 218.838112 41.417728 
L 221.311754 48.766198 
L 223.785397 49.696384 
L 226.259039 42.13087 
L 228.732682 46.161677 
L 231.206324 49.169279 
L 233.679966 43.433131 
L 236.153609 46.316708 
L 238.627251 46.347714 
L 241.100894 43.650174 
L 243.574536 46.502745 
L 246.048179 43.681181 
L 248.521821 43.371118 
L 250.995464 46.316708 
L 253.469106 40.766597 
L 255.942749 42.906025 
L 258.416391 43.03005 
L 260.890034 41.820808 
L 263.363676 40.146473 
L 265.837318 43.061056 
L 268.310961 41.975839 
L 270.784603 41.045653 
L 273.258246 43.588162 
L 275.731888 39.464337 
L 278.205531 40.82861 
L 280.679173 38.410126 
L 283.152816 38.255095 
L 285.626458 40.084461 
L 288.100101 42.068858 
L 290.573743 38.999244 
L 293.047386 39.123269 
L 295.521028 36.208685 
L 297.994671 37.47994 
L 300.468313 36.766797 
L 305.415598 37.200884 
L 307.88924 35.805605 
L 310.362883 36.394723 
L 312.836525 36.797803 
L 315.310168 36.022648 
L 317.78381 34.100263 
L 320.257453 39.216287 
L 322.731095 35.03045 
L 325.204738 33.201083 
L 327.67838 34.410325 
L 330.152023 33.976239 
L 332.625665 32.922028 
L 335.099308 33.418127 
L 337.57295 34.069257 
L 340.046592 34.503344 
L 342.520235 32.922028 
L 344.993877 32.953034 
L 347.46752 34.069257 
L 349.941162 32.673978 
L 352.414805 32.270897 
L 354.888447 31.402724 
L 357.36209 31.836811 
L 359.835732 30.627569 
L 362.309375 32.053854 
L 364.783017 29.418327 
L 367.25666 29.294302 
L 369.730302 31.495742 
L 372.203944 30.472538 
L 374.677587 29.232289 
L 377.151229 30.968637 
L 379.624872 29.697382 
L 382.098514 29.077258 
L 384.572157 29.294302 
L 387.045799 28.054054 
L 389.519442 29.418327 
L 391.993084 28.705184 
L 394.466727 28.953234 
L 396.940369 28.705184 
L 399.414012 28.271097 
L 401.887654 28.333109 
L 404.361297 27.619967 
L 406.834939 28.798202 
L 409.308581 28.333109 
L 411.782224 28.054054 
L 414.255866 27.930029 
L 416.729509 27.309905 
L 419.203151 27.43393 
L 421.676794 27.743992 
L 424.150436 27.83701 
L 426.624079 27.402923 
L 431.571364 27.402923 
L 431.571364 27.402923 
" style="fill:none;stroke:#1f77b4;stroke-linecap:square;stroke-width:1.5;"/>
   </g>
   <g id="line2d_14">
    <path clip-path="url(#p35825915a5)" d="M 62.998636 289.312331 
L 67.945921 272.56898 
L 70.419564 266.739814 
L 72.893206 249.996464 
L 75.366849 242.803024 
L 80.314134 197.161892 
L 82.787776 173.240605 
L 85.261419 156.202696 
L 87.735061 142.823519 
L 90.208703 118.282108 
L 92.682346 118.902232 
L 95.155988 109.011253 
L 97.629631 101.321714 
L 100.103273 94.283306 
L 102.576916 101.135677 
L 105.050558 82.438936 
L 107.524201 78.687185 
L 109.997843 90.717592 
L 112.471486 86.283705 
L 114.945128 87.772003 
L 117.418771 85.7566 
L 119.892413 81.570762 
L 122.366056 84.082265 
L 124.839698 74.873422 
L 127.31334 83.648178 
L 129.786983 74.470341 
L 132.260625 70.31551 
L 134.734268 75.71059 
L 137.20791 76.609769 
L 139.681553 70.129473 
L 142.155195 71.028653 
L 144.628838 70.625572 
L 147.10248 66.656778 
L 149.576123 72.889025 
L 152.049765 72.920031 
L 154.523408 80.485545 
L 156.99705 71.741795 
L 159.470692 68.920231 
L 161.944335 67.741995 
L 164.417977 56.67278 
L 166.89162 67.773001 
L 169.365262 64.238294 
L 171.838905 69.540355 
L 174.312547 73.41613 
L 176.78619 64.827412 
L 179.259832 56.641774 
L 181.733475 61.044655 
L 184.207117 56.393724 
L 186.68076 54.192284 
L 191.628045 63.339114 
L 194.101687 57.789003 
L 196.575329 59.742394 
L 199.048972 54.626371 
L 201.522614 54.409327 
L 203.996257 52.362918 
L 208.943542 53.882222 
L 211.417184 57.447935 
L 213.890827 62.439934 
L 216.364469 53.510147 
L 218.838112 54.750395 
L 221.311754 56.858817 
L 223.785397 53.355116 
L 226.259039 51.091663 
L 228.732682 49.882421 
L 231.206324 53.944234 
L 233.679966 53.665178 
L 236.153609 51.649775 
L 238.627251 49.386322 
L 241.100894 49.510347 
L 243.574536 49.045254 
L 246.048179 48.146074 
L 248.521821 52.828011 
L 250.995464 50.347514 
L 253.469106 51.494744 
L 255.942749 49.293304 
L 258.416391 46.595764 
L 260.890034 46.781801 
L 263.363676 52.734992 
L 265.837318 46.564758 
L 268.310961 47.711987 
L 270.784603 47.649975 
L 273.258246 45.47954 
L 275.731888 50.87462 
L 278.205531 45.510547 
L 280.679173 42.844013 
L 283.152816 47.960037 
L 285.626458 46.595764 
L 288.100101 44.642373 
L 290.573743 45.634571 
L 293.047386 44.332311 
L 295.521028 44.797404 
L 297.994671 41.541752 
L 300.468313 43.557156 
L 302.941955 43.2781 
L 305.415598 42.62697 
L 307.88924 42.285901 
L 310.362883 41.572759 
L 312.836525 44.332311 
L 315.310168 44.301305 
L 317.78381 39.898424 
L 320.257453 42.223889 
L 322.731095 38.410126 
L 325.204738 38.627169 
L 327.67838 39.557355 
L 330.152023 38.844213 
L 332.625665 40.487541 
L 335.099308 39.991442 
L 337.57295 39.03025 
L 340.046592 39.216287 
L 342.520235 38.906225 
L 344.993877 38.348113 
L 347.46752 35.185481 
L 349.941162 35.743592 
L 352.414805 36.673778 
L 354.888447 35.43353 
L 357.36209 34.565356 
L 359.835732 34.410325 
L 362.309375 31.712786 
L 364.783017 34.472338 
L 367.25666 33.294102 
L 369.730302 32.33291 
L 372.203944 33.449133 
L 374.677587 33.449133 
L 377.151229 31.557755 
L 379.624872 31.681779 
L 382.098514 30.503544 
L 384.572157 30.751593 
L 387.045799 30.2865 
L 389.519442 31.18568 
L 391.993084 29.480339 
L 394.466727 30.255494 
L 396.940369 29.604364 
L 399.414012 30.038451 
L 401.887654 29.480339 
L 404.361297 29.418327 
L 406.834939 29.852413 
L 409.308581 30.162475 
L 411.782224 31.092662 
L 414.255866 30.379519 
L 416.729509 30.596562 
L 421.676794 30.193482 
L 424.150436 30.472538 
L 426.624079 29.976438 
L 429.097721 30.875618 
L 431.571364 31.278699 
L 431.571364 31.278699 
" style="fill:none;stroke:#ff7f0e;stroke-linecap:square;stroke-width:1.5;"/>
   </g>
   <g id="line2d_15">
    <path clip-path="url(#p35825915a5)" d="M 62.998636 289.188306 
L 65.472279 284.723412 
L 67.945921 266.243715 
L 70.419564 260.654846 
L 72.893206 250.616588 
L 75.366849 239.942702 
L 80.314134 192.945048 
L 82.787776 188.092577 
L 85.261419 155.179491 
L 87.735061 135.521558 
L 90.208703 119.274307 
L 92.682346 119.119275 
L 95.155988 107.584967 
L 97.629631 102.779006 
L 100.103273 102.996049 
L 102.576916 105.011453 
L 105.050558 85.291507 
L 107.524201 86.40773 
L 109.997843 88.888226 
L 112.471486 87.05886 
L 114.945128 88.144077 
L 117.418771 85.136476 
L 119.892413 85.942637 
L 122.366056 82.066861 
L 124.839698 78.687185 
L 127.31334 81.694787 
L 129.786983 76.547757 
L 132.260625 78.098067 
L 134.734268 86.252699 
L 137.20791 76.981844 
L 139.681553 75.834614 
L 142.155195 72.671982 
L 144.628838 72.268901 
L 147.10248 64.238294 
L 149.576123 71.679783 
L 152.049765 76.7648 
L 154.523408 71.121671 
L 159.470692 66.904828 
L 161.944335 62.036853 
L 164.417977 64.827412 
L 166.89162 68.393125 
L 169.365262 66.842815 
L 171.838905 71.183684 
L 174.312547 70.904628 
L 176.78619 62.253897 
L 179.259832 62.936033 
L 181.733475 59.12227 
L 184.207117 61.726791 
L 186.68076 56.796805 
L 191.628045 62.998046 
L 194.101687 61.943835 
L 199.048972 56.455737 
L 201.522614 54.533352 
L 203.996257 53.696185 
L 206.469899 58.099066 
L 208.943542 55.463538 
L 211.417184 61.013649 
L 213.890827 60.486543 
L 216.364469 57.882022 
L 218.838112 54.750395 
L 221.311754 54.564358 
L 223.785397 51.711787 
L 226.259039 51.339713 
L 228.732682 56.238693 
L 231.206324 51.742794 
L 233.679966 54.006247 
L 236.153609 55.091464 
L 238.627251 49.541353 
L 241.100894 53.820209 
L 243.574536 53.913228 
L 246.048179 51.52575 
L 248.521821 49.417328 
L 250.995464 50.812608 
L 253.469106 48.332111 
L 255.942749 52.579961 
L 258.416391 47.618968 
L 260.890034 48.983241 
L 263.363676 49.634372 
L 265.837318 47.742993 
L 268.310961 46.657776 
L 270.784603 48.270099 
L 273.258246 47.308906 
L 275.731888 48.642173 
L 280.679173 40.58056 
L 283.152816 45.665578 
L 285.626458 43.061056 
L 290.573743 42.161877 
L 293.047386 45.417528 
L 295.521028 41.944833 
L 297.994671 41.262697 
L 300.468313 41.386721 
L 302.941955 43.495143 
L 305.415598 40.456535 
L 307.88924 44.518348 
L 310.362883 36.394723 
L 312.836525 40.983641 
L 315.310168 39.371318 
L 317.78381 39.774399 
L 320.257453 39.557355 
L 322.731095 38.875219 
L 325.204738 36.859816 
L 327.67838 36.890822 
L 330.152023 35.867617 
L 332.625665 39.991442 
L 335.099308 39.805405 
L 337.57295 38.937231 
L 340.046592 37.293902 
L 342.520235 37.355915 
L 344.993877 39.867417 
L 347.46752 35.960636 
L 349.941162 32.549953 
L 352.414805 36.58076 
L 354.888447 33.88322 
L 357.36209 35.43353 
L 359.835732 34.937431 
L 362.309375 32.953034 
L 364.783017 32.177879 
L 367.25666 33.821208 
L 369.730302 31.216686 
L 372.203944 31.867817 
L 374.677587 31.836811 
L 377.151229 32.580959 
L 379.624872 32.611966 
L 382.098514 30.689581 
L 384.572157 32.704984 
L 387.045799 31.867817 
L 389.519442 32.425928 
L 391.993084 30.596562 
L 394.466727 30.193482 
L 396.940369 31.867817 
L 399.414012 31.557755 
L 401.887654 30.689581 
L 404.361297 31.18568 
L 406.834939 31.030649 
L 409.308581 31.43373 
L 411.782224 31.495742 
L 414.255866 30.689581 
L 416.729509 30.906624 
L 421.676794 31.061655 
L 424.150436 30.751593 
L 426.624079 31.154674 
L 429.097721 31.216686 
L 431.571364 31.092662 
L 431.571364 31.092662 
" style="fill:none;stroke:#2ca02c;stroke-linecap:square;stroke-width:1.5;"/>
   </g>
   <g id="line2d_16">
    <path clip-path="url(#p35825915a5)" d="M 62.998636 289.064281 
L 65.472279 284.475363 
L 67.945921 266.987864 
L 70.419564 255.709357 
L 72.893206 235.725858 
L 75.366849 229.532369 
L 77.840491 194.572874 
L 80.314134 181.767311 
L 82.787776 160.931142 
L 85.261419 143.955245 
L 87.735061 129.072267 
L 90.208703 116.514754 
L 92.682346 114.189289 
L 95.155988 112.328917 
L 97.629631 115.553562 
L 100.103273 105.755601 
L 102.576916 97.35292 
L 105.050558 88.268102 
L 107.524201 80.702588 
L 109.997843 87.772003 
L 112.471486 88.020053 
L 114.945128 85.911631 
L 117.418771 94.996449 
L 119.892413 83.05906 
L 122.366056 82.15988 
L 124.839698 81.415731 
L 127.31334 79.493346 
L 129.786983 73.261099 
L 132.260625 80.237495 
L 134.734268 79.214291 
L 137.20791 75.121472 
L 139.681553 70.160479 
L 142.155195 75.679583 
L 144.628838 67.835014 
L 147.10248 65.757598 
L 149.576123 68.672181 
L 152.049765 76.36172 
L 154.523408 79.028253 
L 156.99705 65.478542 
L 159.470692 69.66438 
L 161.944335 65.81961 
L 164.417977 65.726592 
L 166.89162 64.827412 
L 169.365262 66.31571 
L 171.838905 66.563759 
L 174.312547 68.548156 
L 176.78619 73.385124 
L 179.259832 62.96704 
L 181.733475 60.765599 
L 184.207117 56.951836 
L 186.68076 59.401326 
L 189.154402 57.975041 
L 191.628045 66.811809 
L 194.101687 59.61837 
L 196.575329 65.199486 
L 199.048972 57.075861 
L 201.522614 62.594965 
L 203.996257 53.510147 
L 206.469899 60.114469 
L 208.943542 56.765799 
L 213.890827 58.47114 
L 216.364469 54.998445 
L 218.838112 57.975041 
L 221.311754 59.61837 
L 223.785397 53.417129 
L 226.259039 50.998645 
L 228.732682 52.052856 
L 231.206324 56.92083 
L 233.679966 57.199886 
L 236.153609 52.517949 
L 238.627251 55.649575 
L 241.100894 49.820409 
L 243.574536 51.742794 
L 246.048179 48.301105 
L 248.521821 56.269699 
L 250.995464 57.664979 
L 253.469106 46.533751 
L 255.942749 50.068459 
L 258.416391 49.231291 
L 260.890034 47.153875 
L 263.363676 50.316508 
L 265.837318 46.781801 
L 268.310961 50.037452 
L 270.784603 45.665578 
L 273.258246 45.851615 
L 275.731888 52.331912 
L 278.205531 43.681181 
L 280.679173 46.440733 
L 283.152816 45.417528 
L 285.626458 47.867018 
L 288.100101 43.743193 
L 290.573743 44.115267 
L 293.047386 41.169678 
L 295.521028 40.301504 
L 297.994671 42.813007 
L 300.468313 41.324709 
L 302.941955 39.185281 
L 305.415598 38.596163 
L 307.88924 40.115467 
L 310.362883 38.348113 
L 312.836525 39.991442 
L 315.310168 43.061056 
L 317.78381 40.456535 
L 320.257453 40.084461 
L 322.731095 39.092262 
L 327.67838 37.665977 
L 330.152023 38.37912 
L 332.625665 38.720188 
L 335.099308 36.58076 
L 337.57295 37.293902 
L 340.046592 36.859816 
L 342.520235 38.224089 
L 344.993877 37.262896 
L 347.46752 35.092462 
L 349.941162 35.464536 
L 352.414805 35.185481 
L 354.888447 33.728189 
L 357.36209 35.991642 
L 359.835732 34.689381 
L 362.309375 31.712786 
L 364.783017 32.611966 
L 367.25666 33.976239 
L 369.730302 33.759195 
L 372.203944 32.891021 
L 374.677587 33.666177 
L 377.151229 34.844412 
L 379.624872 33.294102 
L 382.098514 32.642972 
L 384.572157 32.363916 
L 387.045799 32.766997 
L 389.519442 33.914226 
L 391.993084 31.278699 
L 394.466727 32.860015 
L 396.940369 32.922028 
L 399.414012 30.999643 
L 401.887654 30.937631 
L 404.361297 31.278699 
L 406.834939 31.216686 
L 409.308581 31.526748 
L 411.782224 31.061655 
L 414.255866 31.030649 
L 416.729509 31.743792 
L 419.203151 30.937631 
L 421.676794 31.526748 
L 424.150436 31.619767 
L 426.624079 31.588761 
L 429.097721 31.061655 
L 431.571364 31.557755 
L 431.571364 31.557755 
" style="fill:none;stroke:#d62728;stroke-linecap:square;stroke-width:1.5;"/>
   </g>
   <g id="patch_3">
    <path d="M 44.57 303.64 
L 44.57 10.8 
" style="fill:none;stroke:#000000;stroke-linecap:square;stroke-linejoin:miter;stroke-width:0.8;"/>
   </g>
   <g id="patch_4">
    <path d="M 450 303.64 
L 450 10.8 
" style="fill:none;stroke:#000000;stroke-linecap:square;stroke-linejoin:miter;stroke-width:0.8;"/>
   </g>
   <g id="patch_5">
    <path d="M 44.57 303.64 
L 450 303.64 
" style="fill:none;stroke:#000000;stroke-linecap:square;stroke-linejoin:miter;stroke-width:0.8;"/>
   </g>
   <g id="patch_6">
    <path d="M 44.57 10.8 
L 450 10.8 
" style="fill:none;stroke:#000000;stroke-linecap:square;stroke-linejoin:miter;stroke-width:0.8;"/>
   </g>
   <g id="legend_1">
    <g id="patch_7">
     <path d="M 321.514062 298.64 
L 443 298.64 
Q 445 298.64 445 296.64 
L 445 238.9275 
Q 445 236.9275 443 236.9275 
L 321.514062 236.9275 
Q 319.514062 236.9275 319.514062 238.9275 
L 319.514062 296.64 
Q 319.514062 298.64 321.514062 298.64 
z
" style="fill:#ffffff;opacity:0.8;stroke:#cccccc;stroke-linejoin:miter;"/>
    </g>
    <g id="line2d_17">
     <path d="M 323.514062 245.025937 
L 343.514062 245.025937 
" style="fill:none;stroke:#1f77b4;stroke-linecap:square;stroke-width:1.5;"/>
    </g>
    <g id="line2d_18"/>
    <g id="text_15">
     <!-- AllReduce SGD -->
     <g transform="translate(351.514062 248.525937)scale(0.1 -0.1)">
      <defs>
       <path d="M 9.421875 75.984375 
L 18.40625 75.984375 
L 18.40625 0 
L 9.421875 0 
z
" id="DejaVuSans-108"/>
       <path d="M 44.390625 34.1875 
Q 47.5625 33.109375 50.5625 29.59375 
Q 53.5625 26.078125 56.59375 19.921875 
L 66.609375 0 
L 56 0 
L 46.6875 18.703125 
Q 43.0625 26.03125 39.671875 28.421875 
Q 36.28125 30.8125 30.421875 30.8125 
L 19.671875 30.8125 
L 19.671875 0 
L 9.8125 0 
L 9.8125 72.90625 
L 32.078125 72.90625 
Q 44.578125 72.90625 50.734375 67.671875 
Q 56.890625 62.453125 56.890625 51.90625 
Q 56.890625 45.015625 53.6875 40.46875 
Q 50.484375 35.9375 44.390625 34.1875 
z
M 19.671875 64.796875 
L 19.671875 38.921875 
L 32.078125 38.921875 
Q 39.203125 38.921875 42.84375 42.21875 
Q 46.484375 45.515625 46.484375 51.90625 
Q 46.484375 58.296875 42.84375 61.546875 
Q 39.203125 64.796875 32.078125 64.796875 
z
" id="DejaVuSans-82"/>
       <path d="M 45.40625 46.390625 
L 45.40625 75.984375 
L 54.390625 75.984375 
L 54.390625 0 
L 45.40625 0 
L 45.40625 8.203125 
Q 42.578125 3.328125 38.25 0.953125 
Q 33.9375 -1.421875 27.875 -1.421875 
Q 17.96875 -1.421875 11.734375 6.484375 
Q 5.515625 14.40625 5.515625 27.296875 
Q 5.515625 40.1875 11.734375 48.09375 
Q 17.96875 56 27.875 56 
Q 33.9375 56 38.25 53.625 
Q 42.578125 51.265625 45.40625 46.390625 
z
M 14.796875 27.296875 
Q 14.796875 17.390625 18.875 11.75 
Q 22.953125 6.109375 30.078125 6.109375 
Q 37.203125 6.109375 41.296875 11.75 
Q 45.40625 17.390625 45.40625 27.296875 
Q 45.40625 37.203125 41.296875 42.84375 
Q 37.203125 48.484375 30.078125 48.484375 
Q 22.953125 48.484375 18.875 42.84375 
Q 14.796875 37.203125 14.796875 27.296875 
z
" id="DejaVuSans-100"/>
       <path d="M 53.515625 70.515625 
L 53.515625 60.890625 
Q 47.90625 63.578125 42.921875 64.890625 
Q 37.9375 66.21875 33.296875 66.21875 
Q 25.25 66.21875 20.875 63.09375 
Q 16.5 59.96875 16.5 54.203125 
Q 16.5 49.359375 19.40625 46.890625 
Q 22.3125 44.4375 30.421875 42.921875 
L 36.375 41.703125 
Q 47.40625 39.59375 52.65625 34.296875 
Q 57.90625 29 57.90625 20.125 
Q 57.90625 9.515625 50.796875 4.046875 
Q 43.703125 -1.421875 29.984375 -1.421875 
Q 24.8125 -1.421875 18.96875 -0.25 
Q 13.140625 0.921875 6.890625 3.21875 
L 6.890625 13.375 
Q 12.890625 10.015625 18.65625 8.296875 
Q 24.421875 6.59375 29.984375 6.59375 
Q 38.421875 6.59375 43.015625 9.90625 
Q 47.609375 13.234375 47.609375 19.390625 
Q 47.609375 24.75 44.3125 27.78125 
Q 41.015625 30.8125 33.5 32.328125 
L 27.484375 33.5 
Q 16.453125 35.6875 11.515625 40.375 
Q 6.59375 45.0625 6.59375 53.421875 
Q 6.59375 63.09375 13.40625 68.65625 
Q 20.21875 74.21875 32.171875 74.21875 
Q 37.3125 74.21875 42.625 73.28125 
Q 47.953125 72.359375 53.515625 70.515625 
z
" id="DejaVuSans-83"/>
       <path d="M 59.515625 10.40625 
L 59.515625 29.984375 
L 43.40625 29.984375 
L 43.40625 38.09375 
L 69.28125 38.09375 
L 69.28125 6.78125 
Q 63.578125 2.734375 56.6875 0.65625 
Q 49.8125 -1.421875 42 -1.421875 
Q 24.90625 -1.421875 15.25 8.5625 
Q 5.609375 18.5625 5.609375 36.375 
Q 5.609375 54.25 15.25 64.234375 
Q 24.90625 74.21875 42 74.21875 
Q 49.125 74.21875 55.546875 72.453125 
Q 61.96875 70.703125 67.390625 67.28125 
L 67.390625 56.78125 
Q 61.921875 61.421875 55.765625 63.765625 
Q 49.609375 66.109375 42.828125 66.109375 
Q 29.4375 66.109375 22.71875 58.640625 
Q 16.015625 51.171875 16.015625 36.375 
Q 16.015625 21.625 22.71875 14.15625 
Q 29.4375 6.6875 42.828125 6.6875 
Q 48.046875 6.6875 52.140625 7.59375 
Q 56.25 8.5 59.515625 10.40625 
z
" id="DejaVuSans-71"/>
       <path d="M 19.671875 64.796875 
L 19.671875 8.109375 
L 31.59375 8.109375 
Q 46.6875 8.109375 53.6875 14.9375 
Q 60.6875 21.78125 60.6875 36.53125 
Q 60.6875 51.171875 53.6875 57.984375 
Q 46.6875 64.796875 31.59375 64.796875 
z
M 9.8125 72.90625 
L 30.078125 72.90625 
Q 51.265625 72.90625 61.171875 64.09375 
Q 71.09375 55.28125 71.09375 36.53125 
Q 71.09375 17.671875 61.125 8.828125 
Q 51.171875 0 30.078125 0 
L 9.8125 0 
z
" id="DejaVuSans-68"/>
      </defs>
      <use xlink:href="#DejaVuSans-65"/>
      <use x="68.408203" xlink:href="#DejaVuSans-108"/>
      <use x="96.191406" xlink:href="#DejaVuSans-108"/>
      <use x="123.974609" xlink:href="#DejaVuSans-82"/>
      <use x="188.957031" xlink:href="#DejaVuSans-101"/>
      <use x="250.480469" xlink:href="#DejaVuSans-100"/>
      <use x="313.957031" xlink:href="#DejaVuSans-117"/>
      <use x="377.335938" xlink:href="#DejaVuSans-99"/>
      <use x="432.316406" xlink:href="#DejaVuSans-101"/>
      <use x="493.839844" xlink:href="#DejaVuSans-32"/>
      <use x="525.626953" xlink:href="#DejaVuSans-83"/>
      <use x="589.103516" xlink:href="#DejaVuSans-71"/>
      <use x="666.59375" xlink:href="#DejaVuSans-68"/>
     </g>
    </g>
    <g id="line2d_19">
     <path d="M 323.514062 259.704062 
L 343.514062 259.704062 
" style="fill:none;stroke:#ff7f0e;stroke-linecap:square;stroke-width:1.5;"/>
    </g>
    <g id="line2d_20"/>
    <g id="text_16">
     <!-- GRandK-MN 8 bits -->
     <g transform="translate(351.514062 263.204062)scale(0.1 -0.1)">
      <defs>
       <path d="M 54.890625 33.015625 
L 54.890625 0 
L 45.90625 0 
L 45.90625 32.71875 
Q 45.90625 40.484375 42.875 44.328125 
Q 39.84375 48.1875 33.796875 48.1875 
Q 26.515625 48.1875 22.3125 43.546875 
Q 18.109375 38.921875 18.109375 30.90625 
L 18.109375 0 
L 9.078125 0 
L 9.078125 54.6875 
L 18.109375 54.6875 
L 18.109375 46.1875 
Q 21.34375 51.125 25.703125 53.5625 
Q 30.078125 56 35.796875 56 
Q 45.21875 56 50.046875 50.171875 
Q 54.890625 44.34375 54.890625 33.015625 
z
" id="DejaVuSans-110"/>
       <path d="M 9.8125 72.90625 
L 19.671875 72.90625 
L 19.671875 42.09375 
L 52.390625 72.90625 
L 65.09375 72.90625 
L 28.90625 38.921875 
L 67.671875 0 
L 54.6875 0 
L 19.671875 35.109375 
L 19.671875 0 
L 9.8125 0 
z
" id="DejaVuSans-75"/>
       <path d="M 4.890625 31.390625 
L 31.203125 31.390625 
L 31.203125 23.390625 
L 4.890625 23.390625 
z
" id="DejaVuSans-45"/>
       <path d="M 9.8125 72.90625 
L 24.515625 72.90625 
L 43.109375 23.296875 
L 61.8125 72.90625 
L 76.515625 72.90625 
L 76.515625 0 
L 66.890625 0 
L 66.890625 64.015625 
L 48.09375 14.015625 
L 38.1875 14.015625 
L 19.390625 64.015625 
L 19.390625 0 
L 9.8125 0 
z
" id="DejaVuSans-77"/>
       <path d="M 9.8125 72.90625 
L 23.09375 72.90625 
L 55.421875 11.921875 
L 55.421875 72.90625 
L 64.984375 72.90625 
L 64.984375 0 
L 51.703125 0 
L 19.390625 60.984375 
L 19.390625 0 
L 9.8125 0 
z
" id="DejaVuSans-78"/>
       <path d="M 48.6875 27.296875 
Q 48.6875 37.203125 44.609375 42.84375 
Q 40.53125 48.484375 33.40625 48.484375 
Q 26.265625 48.484375 22.1875 42.84375 
Q 18.109375 37.203125 18.109375 27.296875 
Q 18.109375 17.390625 22.1875 11.75 
Q 26.265625 6.109375 33.40625 6.109375 
Q 40.53125 6.109375 44.609375 11.75 
Q 48.6875 17.390625 48.6875 27.296875 
z
M 18.109375 46.390625 
Q 20.953125 51.265625 25.265625 53.625 
Q 29.59375 56 35.59375 56 
Q 45.5625 56 51.78125 48.09375 
Q 58.015625 40.1875 58.015625 27.296875 
Q 58.015625 14.40625 51.78125 6.484375 
Q 45.5625 -1.421875 35.59375 -1.421875 
Q 29.59375 -1.421875 25.265625 0.953125 
Q 20.953125 3.328125 18.109375 8.203125 
L 18.109375 0 
L 9.078125 0 
L 9.078125 75.984375 
L 18.109375 75.984375 
z
" id="DejaVuSans-98"/>
       <path d="M 9.421875 54.6875 
L 18.40625 54.6875 
L 18.40625 0 
L 9.421875 0 
z
M 9.421875 75.984375 
L 18.40625 75.984375 
L 18.40625 64.59375 
L 9.421875 64.59375 
z
" id="DejaVuSans-105"/>
      </defs>
      <use xlink:href="#DejaVuSans-71"/>
      <use x="77.490234" xlink:href="#DejaVuSans-82"/>
      <use x="144.722656" xlink:href="#DejaVuSans-97"/>
      <use x="206.001953" xlink:href="#DejaVuSans-110"/>
      <use x="269.380859" xlink:href="#DejaVuSans-100"/>
      <use x="332.857422" xlink:href="#DejaVuSans-75"/>
      <use x="387.933594" xlink:href="#DejaVuSans-45"/>
      <use x="424.017578" xlink:href="#DejaVuSans-77"/>
      <use x="510.296875" xlink:href="#DejaVuSans-78"/>
      <use x="585.101562" xlink:href="#DejaVuSans-32"/>
      <use x="616.888672" xlink:href="#DejaVuSans-56"/>
      <use x="680.511719" xlink:href="#DejaVuSans-32"/>
      <use x="712.298828" xlink:href="#DejaVuSans-98"/>
      <use x="775.775391" xlink:href="#DejaVuSans-105"/>
      <use x="803.558594" xlink:href="#DejaVuSans-116"/>
      <use x="842.767578" xlink:href="#DejaVuSans-115"/>
     </g>
    </g>
    <g id="line2d_21">
     <path d="M 323.514062 274.382187 
L 343.514062 274.382187 
" style="fill:none;stroke:#2ca02c;stroke-linecap:square;stroke-width:1.5;"/>
    </g>
    <g id="line2d_22"/>
    <g id="text_17">
     <!-- GRandK-MN 4 bits -->
     <g transform="translate(351.514062 277.882187)scale(0.1 -0.1)">
      <use xlink:href="#DejaVuSans-71"/>
      <use x="77.490234" xlink:href="#DejaVuSans-82"/>
      <use x="144.722656" xlink:href="#DejaVuSans-97"/>
      <use x="206.001953" xlink:href="#DejaVuSans-110"/>
      <use x="269.380859" xlink:href="#DejaVuSans-100"/>
      <use x="332.857422" xlink:href="#DejaVuSans-75"/>
      <use x="387.933594" xlink:href="#DejaVuSans-45"/>
      <use x="424.017578" xlink:href="#DejaVuSans-77"/>
      <use x="510.296875" xlink:href="#DejaVuSans-78"/>
      <use x="585.101562" xlink:href="#DejaVuSans-32"/>
      <use x="616.888672" xlink:href="#DejaVuSans-52"/>
      <use x="680.511719" xlink:href="#DejaVuSans-32"/>
      <use x="712.298828" xlink:href="#DejaVuSans-98"/>
      <use x="775.775391" xlink:href="#DejaVuSans-105"/>
      <use x="803.558594" xlink:href="#DejaVuSans-116"/>
      <use x="842.767578" xlink:href="#DejaVuSans-115"/>
     </g>
    </g>
    <g id="line2d_23">
     <path d="M 323.514062 289.060312 
L 343.514062 289.060312 
" style="fill:none;stroke:#d62728;stroke-linecap:square;stroke-width:1.5;"/>
    </g>
    <g id="line2d_24"/>
    <g id="text_18">
     <!-- GRandK-MN 2 bits -->
     <g transform="translate(351.514062 292.560312)scale(0.1 -0.1)">
      <use xlink:href="#DejaVuSans-71"/>
      <use x="77.490234" xlink:href="#DejaVuSans-82"/>
      <use x="144.722656" xlink:href="#DejaVuSans-97"/>
      <use x="206.001953" xlink:href="#DejaVuSans-110"/>
      <use x="269.380859" xlink:href="#DejaVuSans-100"/>
      <use x="332.857422" xlink:href="#DejaVuSans-75"/>
      <use x="387.933594" xlink:href="#DejaVuSans-45"/>
      <use x="424.017578" xlink:href="#DejaVuSans-77"/>
      <use x="510.296875" xlink:href="#DejaVuSans-78"/>
      <use x="585.101562" xlink:href="#DejaVuSans-32"/>
      <use x="616.888672" xlink:href="#DejaVuSans-50"/>
      <use x="680.511719" xlink:href="#DejaVuSans-32"/>
      <use x="712.298828" xlink:href="#DejaVuSans-98"/>
      <use x="775.775391" xlink:href="#DejaVuSans-105"/>
      <use x="803.558594" xlink:href="#DejaVuSans-116"/>
      <use x="842.767578" xlink:href="#DejaVuSans-115"/>
     </g>
    </g>
   </g>
  </g>
 </g>
 <defs>
  <clipPath id="p35825915a5">
   <rect height="292.84" width="405.43" x="44.57" y="10.8"/>
  </clipPath>
 </defs>
</svg>
