<?xml version="1.0" encoding="utf-8" standalone="no"?>
<!DOCTYPE svg PUBLIC "-//W3C//DTD SVG 1.1//EN"
  "http://www.w3.org/Graphics/SVG/1.1/DTD/svg11.dtd">
<!-- Created with matplotlib (https://matplotlib.org/) -->
<svg height="345.6pt" version="1.1" viewBox="0 0 460.8 345.6" width="460.8pt" xmlns="http://www.w3.org/2000/svg" xmlns:xlink="http://www.w3.org/1999/xlink">
 <metadata>
  <rdf:RDF xmlns:cc="http://creativecommons.org/ns#" xmlns:dc="http://purl.org/dc/elements/1.1/" xmlns:rdf="http://www.w3.org/1999/02/22-rdf-syntax-ns#">
   <cc:Work>
    <dc:type rdf:resource="http://purl.org/dc/dcmitype/StillImage"/>
    <dc:date>2021-06-10T08:56:24.877496</dc:date>
    <dc:format>image/svg+xml</dc:format>
    <dc:creator>
     <cc:Agent>
      <dc:title>Matplotlib v3.3.1, https://matplotlib.org/</dc:title>
     </cc:Agent>
    </dc:creator>
   </cc:Work>
  </rdf:RDF>
 </metadata>
 <defs>
  <style type="text/css">*{stroke-linecap:butt;stroke-linejoin:round;}</style>
 </defs>
 <g id="figure_1">
  <g id="patch_1">
   <path d="M 0 345.6 
L 460.8 345.6 
L 460.8 0 
L 0 0 
z
" style="fill:#ffffff;"/>
  </g>
  <g id="axes_1">
   <g id="patch_2">
    <path d="M 44.57 303.64 
L 449.572485 303.64 
L 449.572485 10.8 
L 44.57 10.8 
z
" style="fill:#ffffff;"/>
   </g>
   <g id="PolyCollection_1">
    <path clip-path="url(#pe2580d35f7)" d="M 63.253188 273.766822 
L 63.253188 281.789224 
L 65.700555 268.085673 
L 68.227741 251.719603 
L 70.713861 241.14558 
L 73.209052 211.590169 
L 75.731198 172.155948 
L 78.227409 131.361505 
L 80.665934 123.07138 
L 83.080997 119.80266 
L 85.536063 91.257832 
L 87.935797 85.229199 
L 90.348941 96.365348 
L 92.813204 88.394703 
L 95.271633 82.110011 
L 97.754646 81.990098 
L 100.303563 68.59899 
L 102.799669 73.520623 
L 105.234033 67.572788 
L 107.684265 55.743393 
L 110.100577 74.600813 
L 112.62123 62.205124 
L 115.11633 65.834778 
L 117.526641 69.270629 
L 120.017475 71.703758 
L 122.460547 70.35689 
L 124.953867 59.885625 
L 127.416921 65.059347 
L 129.887931 59.86299 
L 132.313987 64.728697 
L 134.753176 54.207262 
L 137.205316 60.795091 
L 139.63861 60.924023 
L 142.110737 59.068313 
L 144.585944 58.215819 
L 147.016925 56.890591 
L 149.522694 61.04037 
L 151.997635 67.276046 
L 154.490574 68.466825 
L 156.978848 53.478628 
L 159.453039 66.32155 
L 162.022628 53.2247 
L 164.490107 50.905257 
L 166.949909 54.242803 
L 169.459767 54.413585 
L 171.907045 54.038503 
L 174.372988 51.605136 
L 176.80465 49.748175 
L 179.294396 53.85332 
L 181.716881 57.414907 
L 184.107916 53.616067 
L 186.564706 55.21982 
L 189.047118 57.927334 
L 191.480263 56.378025 
L 193.96683 55.501632 
L 196.384949 52.157448 
L 198.866239 48.407104 
L 201.281928 58.125115 
L 203.712735 63.967748 
L 206.172917 54.530451 
L 208.624735 43.289434 
L 211.135582 55.200309 
L 213.612028 51.369981 
L 216.046894 47.356966 
L 218.531495 48.524442 
L 221.017234 54.656887 
L 223.537086 56.482707 
L 225.991849 43.301739 
L 228.456579 52.704353 
L 230.90217 53.174243 
L 233.370846 46.597283 
L 235.833228 50.0421 
L 238.291056 51.764135 
L 240.730463 47.121485 
L 243.23688 51.089777 
L 245.691474 46.929589 
L 248.125636 49.769675 
L 250.562127 48.75932 
L 253.011719 45.886472 
L 255.491563 45.008054 
L 257.973549 44.860204 
L 260.493694 43.783283 
L 263.01114 43.213738 
L 265.479351 46.023082 
L 267.926608 47.058966 
L 270.455365 43.603618 
L 272.936367 49.272877 
L 275.401186 41.985963 
L 277.784847 42.88299 
L 280.25071 40.355379 
L 282.764581 43.106947 
L 285.24144 42.201983 
L 287.724686 47.326216 
L 290.246764 40.852886 
L 292.695284 44.581594 
L 295.128569 38.038839 
L 297.552213 39.444862 
L 299.977984 40.740433 
L 302.440253 38.679187 
L 304.976747 41.37994 
L 307.437427 39.218541 
L 309.894748 41.993554 
L 312.398404 38.753899 
L 314.88618 39.479527 
L 317.357323 36.120669 
L 319.816879 45.000918 
L 322.305162 38.205521 
L 324.841512 35.338938 
L 327.379959 36.813256 
L 329.881358 36.772648 
L 332.332581 34.521178 
L 334.786896 36.255491 
L 337.256998 37.984642 
L 339.742957 36.76998 
L 342.253007 35.802436 
L 344.698115 34.96103 
L 347.148915 37.777838 
L 349.622425 34.289874 
L 352.033533 33.662382 
L 354.56004 34.726901 
L 357.061785 33.604436 
L 359.548997 32.72456 
L 362.043102 33.483506 
L 364.536542 32.215079 
L 366.944291 30.567445 
L 369.389093 32.883768 
L 371.863683 32.824517 
L 374.326793 32.305503 
L 376.7969 33.669204 
L 379.219609 30.57656 
L 381.667291 30.562323 
L 384.142656 29.780615 
L 386.653436 30.63447 
L 389.126396 30.861365 
L 391.644312 30.765172 
L 394.108073 30.935207 
L 396.61614 31.398265 
L 399.114068 30.011316 
L 401.583265 31.155526 
L 404.064098 29.569663 
L 406.480122 31.289527 
L 409.035275 31.43466 
L 411.478466 31.061176 
L 413.90686 30.840981 
L 416.363284 29.684259 
L 418.804477 30.75695 
L 421.243443 30.696264 
L 423.754461 31.290272 
L 426.267946 30.454476 
L 428.752551 30.460173 
L 431.163281 30.577995 
L 431.163281 24.227852 
L 431.163281 24.227852 
L 428.752551 24.407686 
L 426.267946 24.351371 
L 423.754461 24.383749 
L 421.243443 24.791719 
L 418.804477 24.110909 
L 416.363284 24.93555 
L 413.90686 25.019076 
L 411.478466 25.046931 
L 409.035275 25.231559 
L 406.480122 26.306878 
L 404.064098 25.670271 
L 401.583265 25.510693 
L 399.114068 26.530878 
L 396.61614 26.012103 
L 394.108073 26.97126 
L 391.644312 26.645196 
L 389.126396 27.975288 
L 386.653436 25.473637 
L 384.142656 28.807988 
L 381.667291 27.592194 
L 379.219609 28.818205 
L 376.7969 28.268069 
L 374.326793 26.159076 
L 371.863683 28.120558 
L 369.389093 30.107717 
L 366.944291 28.021158 
L 364.536542 26.621574 
L 362.043102 30.624202 
L 359.548997 28.530577 
L 357.061785 30.069185 
L 354.56004 28.078546 
L 352.033533 30.879413 
L 349.622425 31.058082 
L 347.148915 30.360677 
L 344.698115 30.945038 
L 342.253007 30.04162 
L 339.742957 32.236708 
L 337.256998 30.153872 
L 334.786896 30.580763 
L 332.332581 31.322877 
L 329.881358 31.17983 
L 327.379959 32.007395 
L 324.841512 31.063229 
L 322.305162 31.855378 
L 319.816879 33.431656 
L 317.357323 32.079858 
L 314.88618 32.565769 
L 312.398404 34.841707 
L 309.894748 30.795891 
L 307.437427 32.392668 
L 304.976747 33.021827 
L 302.440253 35.226482 
L 299.977984 32.793161 
L 297.552213 35.515017 
L 295.128569 34.378531 
L 292.695284 33.664944 
L 290.246764 37.145602 
L 287.724686 36.8115 
L 285.24144 37.966939 
L 282.764581 33.403243 
L 280.25071 36.464873 
L 277.784847 38.774229 
L 275.401186 36.942711 
L 272.936367 37.903447 
L 270.455365 38.487688 
L 267.926608 36.892713 
L 265.479351 40.099031 
L 263.01114 37.079209 
L 260.493694 39.858334 
L 257.973549 41.199896 
L 255.491563 40.803997 
L 253.011719 35.646723 
L 250.562127 43.874096 
L 248.125636 36.972562 
L 245.691474 40.432772 
L 243.23688 41.915713 
L 240.730463 40.178864 
L 238.291056 40.931293 
L 235.833228 42.591315 
L 233.370846 40.268979 
L 230.90217 45.164314 
L 228.456579 39.619 
L 225.991849 40.960001 
L 223.537086 42.910062 
L 221.017234 42.875509 
L 218.531495 34.311014 
L 216.046894 41.307656 
L 213.612028 47.464676 
L 211.135582 44.068434 
L 208.624735 39.546021 
L 206.172917 44.92433 
L 203.712735 50.742085 
L 201.281928 46.104621 
L 198.866239 40.691604 
L 196.384949 49.653805 
L 193.96683 43.829124 
L 191.480263 45.371215 
L 189.047118 44.876116 
L 186.564706 45.227159 
L 184.107916 44.660478 
L 181.716881 43.156097 
L 179.294396 43.8031 
L 176.80465 45.055675 
L 174.372988 43.508776 
L 171.907045 46.346464 
L 169.459767 43.118811 
L 166.949909 48.064549 
L 164.490107 45.696953 
L 162.022628 47.966428 
L 159.453039 53.9694 
L 156.978848 44.115781 
L 154.490574 46.739107 
L 151.997635 57.169735 
L 149.522694 54.537637 
L 147.016925 44.36255 
L 144.585944 46.323979 
L 142.110737 48.200031 
L 139.63861 46.468346 
L 137.205316 47.465452 
L 134.753176 50.084486 
L 132.313987 53.763893 
L 129.887931 53.978669 
L 127.416921 55.231603 
L 124.953867 52.157675 
L 122.460547 56.445363 
L 120.017475 52.431961 
L 117.526641 58.647847 
L 115.11633 47.944869 
L 112.62123 50.21025 
L 110.100577 59.084817 
L 107.684265 49.726591 
L 105.234033 50.361691 
L 102.799669 60.102995 
L 100.303563 54.420506 
L 97.754646 61.865567 
L 95.271633 68.877081 
L 92.813204 66.375146 
L 90.348941 71.427106 
L 87.935797 72.207184 
L 85.536063 74.116139 
L 83.080997 95.925386 
L 80.665934 108.283793 
L 78.227409 118.845441 
L 75.731198 134.854364 
L 73.209052 183.942856 
L 70.713861 212.214016 
L 68.227741 230.196707 
L 65.700555 245.549985 
L 63.253188 273.766822 
z
" style="fill:#1f77b4;fill-opacity:0.25;"/>
   </g>
   <g id="PolyCollection_2">
    <path clip-path="url(#pe2580d35f7)" d="M 62.979204 288.704736 
L 62.979204 289.919926 
L 65.053129 283.872099 
L 67.20814 277.199609 
L 69.299747 269.263346 
L 71.384539 254.969517 
L 73.464143 248.451262 
L 75.625818 228.655071 
L 77.873302 202.633059 
L 79.979571 187.088998 
L 82.140945 163.833246 
L 84.267671 165.663666 
L 86.420311 124.289315 
L 88.485181 135.783281 
L 90.526376 114.53384 
L 92.636581 111.077786 
L 94.843914 98.318165 
L 96.945977 111.20482 
L 99.056014 86.450137 
L 101.147017 83.348852 
L 103.232317 94.011263 
L 105.292748 94.013148 
L 107.348648 98.247512 
L 109.62899 88.955502 
L 111.702354 87.150501 
L 113.770974 94.723312 
L 115.817373 85.708127 
L 117.956485 90.721671 
L 120.122174 80.847376 
L 122.190789 72.543646 
L 124.310075 82.994078 
L 126.552529 84.905537 
L 128.700108 74.179315 
L 130.840385 80.354461 
L 132.921331 74.664004 
L 135.028164 76.603731 
L 137.116492 79.57904 
L 139.177806 77.952215 
L 141.394682 94.543499 
L 143.537997 79.641748 
L 145.648946 71.413099 
L 147.772704 71.827996 
L 149.893406 61.444513 
L 152.017363 74.857359 
L 154.04917 72.190645 
L 156.139865 77.750503 
L 158.407087 81.577538 
L 160.543206 70.583553 
L 162.577823 59.550414 
L 164.649353 67.369161 
L 166.758453 60.741895 
L 168.918972 56.993845 
L 170.952847 61.726791 
L 173.146798 68.002843 
L 175.320295 60.8952 
L 177.415622 62.855393 
L 179.486283 57.922375 
L 181.508681 59.430609 
L 183.598098 55.754662 
L 185.755064 58.681684 
L 187.862705 57.159799 
L 190.068306 60.285299 
L 192.158813 69.034568 
L 194.212092 55.464768 
L 196.290392 60.321512 
L 198.395658 66.316777 
L 200.45216 56.32654 
L 202.53452 55.732661 
L 204.784128 53.308011 
L 206.926812 55.548187 
L 209.007076 57.211833 
L 211.101154 54.565677 
L 213.158158 51.455623 
L 215.256873 54.55112 
L 217.333638 52.814772 
L 219.506867 49.564925 
L 221.72287 56.049673 
L 223.890064 55.426857 
L 226.029572 55.408656 
L 228.161002 51.647734 
L 230.281126 51.421588 
L 232.424717 51.649479 
L 234.510469 55.131513 
L 236.568631 48.891256 
L 238.765483 53.236489 
L 240.892645 50.622369 
L 242.93515 49.517496 
L 244.990278 51.954954 
L 246.9497 47.993754 
L 249.058515 46.507472 
L 251.138459 48.930684 
L 253.261217 49.775072 
L 255.348192 47.57012 
L 257.36637 49.409187 
L 259.426007 45.31575 
L 261.503922 47.309863 
L 263.679616 44.069471 
L 265.69201 45.750941 
L 267.762439 45.880405 
L 269.961944 44.72671 
L 272.142717 45.448838 
L 274.217414 43.904211 
L 276.389398 48.060283 
L 278.519549 47.20432 
L 280.540658 41.819808 
L 282.697851 45.938168 
L 284.946534 40.347952 
L 287.028985 42.020047 
L 289.047194 41.151689 
L 291.105366 41.208423 
L 293.248159 44.998278 
L 295.375255 42.681309 
L 297.496588 41.74502 
L 299.617498 42.019906 
L 301.730824 41.543758 
L 303.77033 42.384878 
L 305.894734 36.060273 
L 307.994925 37.457088 
L 310.149099 38.11615 
L 312.227678 36.84559 
L 314.361163 36.028245 
L 316.662218 37.493222 
L 318.903717 34.326151 
L 320.966815 36.223571 
L 323.013098 35.414346 
L 325.079849 34.888619 
L 327.132804 35.386959 
L 329.171528 35.231922 
L 331.256228 32.505348 
L 333.466744 34.316395 
L 335.564579 32.823007 
L 337.614648 33.638669 
L 339.710075 31.900611 
L 341.836123 32.58749 
L 343.914036 32.034166 
L 346.032328 32.961041 
L 348.29207 31.354499 
L 350.380806 32.020424 
L 352.460639 31.1075 
L 354.56013 30.779072 
L 356.68069 31.867578 
L 358.798151 32.839444 
L 360.919586 33.64837 
L 363.008949 32.380801 
L 365.187046 32.080332 
L 367.266362 33.131221 
L 369.325985 32.334033 
L 371.44041 32.999876 
L 373.489135 32.529513 
L 375.638723 33.18844 
L 377.80393 34.253679 
L 377.80393 28.303719 
L 377.80393 28.303719 
L 375.638723 28.562796 
L 373.489135 27.423364 
L 371.44041 27.945199 
L 369.325985 28.05293 
L 367.266362 27.627817 
L 365.187046 29.112793 
L 363.008949 28.378237 
L 360.919586 28.536953 
L 358.798151 27.485507 
L 356.68069 27.837249 
L 354.56013 28.057582 
L 352.460639 27.853178 
L 350.380806 28.056477 
L 348.29207 27.854229 
L 346.032328 27.549947 
L 343.914036 26.926512 
L 341.836123 29.783871 
L 339.710075 28.67239 
L 337.614648 27.864518 
L 335.564579 28.184081 
L 333.466744 29.047164 
L 331.256228 30.610161 
L 329.171528 31.666344 
L 327.132804 31.511307 
L 325.079849 29.777201 
L 323.013098 31.173858 
L 320.966815 32.721105 
L 318.903717 29.099421 
L 316.662218 31.327429 
L 314.361163 33.102468 
L 312.227678 34.021471 
L 310.149099 35.231407 
L 307.994925 34.030096 
L 305.894734 34.310688 
L 303.77033 34.311349 
L 301.730824 36.268692 
L 299.617498 36.412668 
L 297.496588 36.31548 
L 295.375255 37.301576 
L 293.248159 35.976805 
L 291.105366 36.480002 
L 289.047194 37.963021 
L 287.028985 35.234291 
L 284.946534 36.4723 
L 282.697851 38.50961 
L 280.540658 37.977039 
L 278.519549 41.398289 
L 276.389398 40.604339 
L 274.217414 39.241307 
L 272.142717 39.122965 
L 269.961944 40.527229 
L 267.762439 40.675794 
L 265.69201 41.363371 
L 263.679616 39.014034 
L 261.503922 42.284945 
L 259.426007 43.348871 
L 257.36637 41.859956 
L 255.348192 41.714625 
L 253.261217 43.416456 
L 251.138459 46.989389 
L 249.058515 39.180554 
L 246.9497 43.027339 
L 244.990278 49.794286 
L 242.93515 41.441585 
L 240.892645 44.677581 
L 238.765483 42.187485 
L 236.568631 44.238259 
L 234.510469 50.338471 
L 232.424717 41.914123 
L 230.281126 41.769939 
L 228.161002 46.938873 
L 226.029572 47.580832 
L 223.890064 45.268172 
L 221.72287 49.606348 
L 219.506867 46.727222 
L 217.333638 45.275736 
L 215.256873 44.469573 
L 213.158158 47.317021 
L 211.101154 48.733873 
L 209.007076 50.118524 
L 206.926812 52.340281 
L 204.784128 46.456832 
L 202.53452 46.450665 
L 200.45216 50.383693 
L 198.395658 47.400858 
L 196.290392 49.179279 
L 194.212092 51.555526 
L 192.158813 55.8453 
L 190.068306 54.610571 
L 187.862705 50.604644 
L 185.755064 47.594462 
L 183.598098 48.971173 
L 181.508681 49.388045 
L 179.486283 51.330366 
L 177.415622 56.629396 
L 175.320295 54.682807 
L 173.146798 58.675385 
L 170.952847 55.7736 
L 168.918972 51.390723 
L 166.758453 52.045553 
L 164.649353 54.720149 
L 162.577823 53.733134 
L 160.543206 59.071271 
L 158.407087 65.254723 
L 156.139865 61.330207 
L 154.04917 56.285943 
L 152.017363 60.688643 
L 149.893406 51.901047 
L 147.772704 63.655994 
L 145.648946 66.427363 
L 143.537997 63.841843 
L 141.394682 66.42759 
L 139.177806 67.887847 
L 137.116492 66.19901 
L 135.028164 56.709825 
L 132.921331 66.58714 
L 130.840385 61.702844 
L 128.700108 66.07963 
L 126.552529 68.314002 
L 124.310075 68.427101 
L 122.190789 68.087374 
L 120.122174 68.093307 
L 117.956485 76.574685 
L 115.817373 64.038717 
L 113.770974 73.441217 
L 111.702354 75.991024 
L 109.62899 82.557697 
L 107.348648 77.296494 
L 105.292748 78.554262 
L 103.232317 87.423922 
L 101.147017 74.025518 
L 99.056014 78.427735 
L 96.945977 91.066535 
L 94.843914 90.248447 
L 92.636581 91.565643 
L 90.526376 103.488666 
L 88.485181 102.021183 
L 86.420311 112.274901 
L 84.267671 119.983371 
L 82.140945 148.572145 
L 79.979571 159.392212 
L 77.873302 191.690724 
L 75.625818 211.805944 
L 73.464143 237.154786 
L 71.384539 245.02341 
L 69.299747 264.216282 
L 67.20814 267.938351 
L 65.053129 278.381286 
L 62.979204 288.704736 
z
" style="fill:#ff7f0e;fill-opacity:0.25;"/>
   </g>
   <g id="PolyCollection_3">
    <path clip-path="url(#pe2580d35f7)" d="M 63.004227 288.796105 
L 63.004227 289.580507 
L 65.084933 289.132839 
L 67.19 268.0833 
L 69.234739 264.490133 
L 71.291886 255.574152 
L 73.394012 245.807897 
L 75.543655 226.423795 
L 77.851275 198.949894 
L 79.950913 204.238475 
L 82.119184 166.68133 
L 84.180332 138.788852 
L 86.308455 127.359735 
L 88.440822 128.34538 
L 90.511162 114.845718 
L 92.648317 111.554145 
L 94.885529 108.929506 
L 96.985094 115.972047 
L 99.070826 90.73166 
L 101.157738 93.499954 
L 103.193506 93.420863 
L 105.273269 100.568602 
L 107.403913 93.555882 
L 109.633378 100.123863 
L 111.724778 94.003057 
L 113.808733 92.436108 
L 115.97185 88.924117 
L 118.072914 88.684331 
L 120.121172 79.251882 
L 122.242574 84.244495 
L 124.34152 94.729367 
L 126.651604 84.580831 
L 128.714291 78.885852 
L 130.903987 79.974979 
L 132.999533 77.666475 
L 135.078361 73.487294 
L 137.101592 78.559388 
L 139.182707 85.315095 
L 141.375048 82.711357 
L 143.412662 73.203165 
L 145.478388 72.115715 
L 147.492938 71.208298 
L 149.534303 66.880388 
L 151.634554 71.010167 
L 153.779275 77.614694 
L 155.92659 77.391432 
L 158.16885 78.479286 
L 160.227677 65.822171 
L 162.339199 68.564834 
L 164.440786 63.594049 
L 166.554536 66.232197 
L 168.739325 60.241146 
L 170.774453 64.53179 
L 173.037483 69.329692 
L 175.20077 67.566483 
L 177.362736 64.526536 
L 179.471299 59.882448 
L 181.62217 59.794 
L 183.658399 58.319125 
L 185.76731 65.312657 
L 187.885766 60.444451 
L 190.152145 69.708885 
L 192.275216 66.145834 
L 194.398965 64.065409 
L 196.474148 61.117925 
L 198.503333 61.650887 
L 200.571567 54.466632 
L 202.659227 53.587182 
L 204.828248 62.148284 
L 206.971191 57.990832 
L 209.065172 59.062255 
L 211.141223 60.086254 
L 213.261735 51.699349 
L 215.314261 55.187298 
L 217.45651 57.208649 
L 219.576494 54.83921 
L 221.841219 52.820392 
L 223.928891 54.351392 
L 225.987739 51.459898 
L 228.063334 56.50246 
L 230.207523 49.368554 
L 232.323204 50.768725 
L 234.474679 52.786347 
L 236.549601 49.675852 
L 238.796986 49.575656 
L 240.847853 50.83257 
L 242.918432 50.730002 
L 245.124294 51.215128 
L 247.261879 48.313229 
L 249.35751 43.270427 
L 251.494647 47.620198 
L 253.717897 46.693682 
L 255.802107 45.579242 
L 257.885214 43.373104 
L 260.015657 48.537621 
L 262.151594 43.416893 
L 264.204272 45.40919 
L 266.229996 43.458808 
L 268.272407 46.073324 
L 270.51112 42.736282 
L 272.645678 46.148461 
L 274.721167 38.876381 
L 276.791613 44.76843 
L 278.879307 42.851203 
L 280.965871 43.427872 
L 283.084349 42.360632 
L 285.306239 40.341389 
L 287.41998 40.767828 
L 289.593814 37.076859 
L 291.763729 39.374198 
L 293.873621 40.809442 
L 295.899481 43.815408 
L 297.945121 41.193239 
L 300.100552 39.790624 
L 302.318435 39.766834 
L 304.423598 42.207102 
L 306.47695 39.447421 
L 308.528011 35.62035 
L 310.622689 39.291986 
L 312.747936 35.368284 
L 314.876506 36.84559 
L 317.052414 37.294718 
L 319.175146 34.811855 
L 321.285194 33.976239 
L 323.317551 35.940998 
L 325.327847 32.763893 
L 327.401842 33.800177 
L 329.429551 34.432828 
L 331.47911 33.979336 
L 333.741475 34.417262 
L 335.823396 33.130224 
L 337.938403 34.097159 
L 339.972761 33.83225 
L 341.9935 34.541179 
L 344.025072 31.411029 
L 346.163026 31.540022 
L 348.314077 32.925669 
L 350.429457 33.870576 
L 352.467234 31.725392 
L 354.550999 32.487941 
L 356.649666 33.303639 
L 358.809477 32.94192 
L 360.876945 33.090076 
L 362.9755 32.918149 
L 365.230491 32.409706 
L 367.412965 32.425928 
L 369.548144 31.910795 
L 371.696268 32.60938 
L 373.773317 32.700637 
L 375.879866 32.281785 
L 377.989344 32.98226 
L 377.989344 29.203063 
L 377.989344 29.203063 
L 375.879866 30.151588 
L 373.773317 29.608711 
L 371.696268 28.893807 
L 369.548144 30.212516 
L 367.412965 29.573358 
L 365.230491 29.403543 
L 362.9755 28.461013 
L 360.876945 29.901408 
L 358.809477 29.92554 
L 356.649666 28.75766 
L 354.550999 29.88342 
L 352.467234 29.65377 
L 350.429457 29.244933 
L 348.314077 30.809964 
L 346.163026 28.846941 
L 344.025072 29.782096 
L 341.9935 30.310678 
L 339.972761 29.903383 
L 337.938403 31.312809 
L 335.823396 28.248938 
L 333.741475 30.806669 
L 331.47911 31.182583 
L 329.429551 29.240793 
L 327.401842 29.935456 
L 325.327847 29.66948 
L 323.317551 31.701417 
L 321.285194 30.379519 
L 319.175146 31.094213 
L 317.052414 32.580144 
L 314.876506 34.021471 
L 312.747936 32.398156 
L 310.622689 33.869534 
L 308.528011 29.479556 
L 306.47695 32.47385 
L 304.423598 37.527733 
L 302.318435 34.944996 
L 300.100552 34.797181 
L 297.945121 36.681224 
L 295.899481 35.795402 
L 293.873621 39.173442 
L 291.763729 32.361036 
L 289.593814 36.704785 
L 287.41998 32.951804 
L 285.306239 37.409048 
L 283.084349 36.754079 
L 280.965871 36.120926 
L 278.879307 35.891433 
L 276.791613 37.198851 
L 274.721167 33.913064 
L 272.645678 42.888235 
L 270.51112 38.176788 
L 268.272407 40.916963 
L 266.229996 39.314635 
L 264.204272 37.116204 
L 262.151594 40.472773 
L 260.015657 42.297435 
L 257.885214 40.950649 
L 255.802107 39.674697 
L 253.717897 39.428431 
L 251.494647 43.710957 
L 249.35751 37.890694 
L 247.261879 40.847492 
L 245.124294 46.069219 
L 242.918432 43.887811 
L 240.847853 45.707628 
L 238.796986 43.739896 
L 236.549601 45.810135 
L 234.474679 46.482396 
L 232.323204 47.197758 
L 230.207523 45.869383 
L 228.063334 48.657462 
L 225.987739 45.204324 
L 223.928891 47.273823 
L 221.841219 46.014265 
L 219.576494 48.212291 
L 217.45651 50.617807 
L 215.314261 52.45312 
L 213.261735 47.383357 
L 211.141223 50.096673 
L 209.065172 48.950238 
L 206.971191 45.494755 
L 204.828248 50.329103 
L 202.659227 49.092244 
L 200.571567 48.956942 
L 198.503333 47.477829 
L 196.474148 48.382865 
L 194.398965 51.698636 
L 192.275216 54.827253 
L 190.152145 52.318412 
L 187.885766 50.482625 
L 185.76731 50.885474 
L 183.658399 49.073244 
L 181.62217 49.272704 
L 179.471299 53.029025 
L 177.362736 53.84203 
L 175.20077 56.321186 
L 173.037483 56.6664 
L 170.774453 55.263061 
L 168.739325 53.352464 
L 166.554536 57.221386 
L 164.440786 54.650492 
L 162.339199 57.307233 
L 160.227677 58.685623 
L 158.16885 63.32997 
L 155.92659 64.975935 
L 153.779275 56.070937 
L 151.634554 65.776084 
L 149.534303 62.774436 
L 147.492938 52.865409 
L 145.478388 61.69394 
L 143.412662 64.947359 
L 141.375048 59.531985 
L 139.182707 68.214506 
L 137.101592 64.800178 
L 135.078361 54.989293 
L 132.999533 66.871327 
L 130.903987 65.368984 
L 128.714291 72.783377 
L 126.651604 69.382856 
L 124.34152 77.776031 
L 122.242574 71.95164 
L 120.121172 73.843632 
L 118.072914 74.705243 
L 115.97185 68.450253 
L 113.808733 71.697615 
L 111.724778 77.882216 
L 109.633378 70.149089 
L 107.403913 82.732273 
L 105.273269 73.549119 
L 103.193506 84.35559 
L 101.157738 79.315506 
L 99.070826 79.851353 
L 96.985094 94.050858 
L 94.885529 97.062593 
L 92.648317 94.003867 
L 90.511162 100.324217 
L 88.440822 109.893171 
L 86.308455 111.188878 
L 84.180332 132.254263 
L 82.119184 143.677652 
L 79.950913 171.946678 
L 77.851275 186.940202 
L 75.543655 207.091831 
L 73.394012 234.077507 
L 71.291886 245.659024 
L 69.234739 256.819559 
L 67.19 264.404129 
L 65.084933 280.313986 
L 63.004227 288.796105 
z
" style="fill:#2ca02c;fill-opacity:0.25;"/>
   </g>
   <g id="PolyCollection_4">
    <path clip-path="url(#pe2580d35f7)" d="M 62.980167 287.799471 
L 62.980167 290.329091 
L 65.042433 289.775157 
L 67.133242 274.647337 
L 69.196856 268.09323 
L 71.315189 244.823009 
L 73.37845 240.502783 
L 75.360588 204.61089 
L 77.529616 188.706296 
L 79.714778 170.738567 
L 81.759847 154.264703 
L 83.810296 139.074544 
L 85.909613 123.268415 
L 87.969205 129.776006 
L 90.014968 115.221648 
L 92.05109 124.91723 
L 94.269628 113.232148 
L 96.328168 101.875576 
L 98.358383 98.93712 
L 100.495173 87.799149 
L 102.520936 89.499469 
L 104.490951 97.454095 
L 106.549197 91.614075 
L 108.775212 102.372798 
L 110.858885 90.92853 
L 112.948339 86.74167 
L 115.025613 92.003521 
L 117.16608 85.556308 
L 119.242762 77.824808 
L 121.273221 85.547076 
L 123.348668 84.959733 
L 125.615694 82.314911 
L 127.685545 77.708691 
L 129.70517 85.091077 
L 131.82442 74.676362 
L 133.962377 72.312606 
L 136.058768 75.09997 
L 138.103351 84.975866 
L 140.353316 88.786394 
L 142.500472 70.749597 
L 144.573092 74.778054 
L 146.64729 73.023734 
L 148.776333 67.512075 
L 150.830277 73.048676 
L 152.897469 71.362773 
L 155.019838 70.983639 
L 157.266404 74.330959 
L 159.348996 86.817647 
L 161.460534 71.455268 
L 163.610585 64.081379 
L 165.702787 62.116952 
L 167.837922 64.743399 
L 169.933102 62.90454 
L 172.188657 75.174062 
L 174.33326 63.480354 
L 176.483451 71.216927 
L 178.570178 60.058587 
L 180.608467 70.733488 
L 182.664417 57.241728 
L 184.763806 64.305012 
L 186.91664 61.140202 
L 189.150795 61.364475 
L 191.193597 61.238172 
L 193.314684 57.777957 
L 195.410181 62.635883 
L 197.46496 62.691583 
L 199.525503 59.768029 
L 201.573435 53.827865 
L 203.780835 55.413276 
L 205.89984 63.773411 
L 207.958645 60.344532 
L 210.021331 57.490168 
L 212.098697 60.459636 
L 214.254859 52.690786 
L 216.360533 58.706845 
L 218.386988 50.860573 
L 220.580998 63.746375 
L 222.574077 67.981987 
L 224.586344 49.190894 
L 226.673851 53.97893 
L 228.83213 55.224719 
L 230.874294 49.068744 
L 233.004576 52.362448 
L 235.098072 48.364637 
L 237.280771 55.583664 
L 239.398131 48.724682 
L 241.482488 49.75224 
L 243.56799 56.245823 
L 245.643213 47.71985 
L 247.74572 48.730578 
L 249.841605 49.651436 
L 252.045225 51.540436 
L 254.078823 46.982414 
L 256.279885 48.693699 
L 258.297688 44.953705 
L 260.364318 42.572801 
L 262.475077 45.588712 
L 264.60687 44.107332 
L 266.657473 42.677576 
L 268.861283 39.775214 
L 270.903049 43.62287 
L 272.9406 41.403444 
L 275.081682 41.808945 
L 277.19244 45.165371 
L 279.363947 43.796869 
L 281.445712 40.94708 
L 283.701057 40.593424 
L 285.826379 41.630296 
L 287.928868 39.633344 
L 290.054309 40.815426 
L 292.147345 40.052373 
L 294.206226 39.932586 
L 296.299022 40.203203 
L 298.423045 38.454753 
L 300.59454 40.571977 
L 302.702749 39.778033 
L 304.835887 37.682919 
L 306.951266 40.261588 
L 309.02265 38.208546 
L 311.083904 36.041011 
L 313.133601 38.753458 
L 315.292282 38.336533 
L 317.334582 32.841003 
L 319.365549 33.909048 
L 321.472682 37.810742 
L 323.574947 36.608731 
L 325.627895 35.097478 
L 327.764011 37.404193 
L 329.837527 37.788533 
L 332.055395 36.325107 
L 334.156578 35.728673 
L 336.19383 34.173467 
L 338.215213 35.446837 
L 340.31924 37.583716 
L 342.43964 34.323944 
L 344.603255 35.80903 
L 346.818615 36.334119 
L 348.849294 33.896027 
L 350.8348 33.487691 
L 352.831526 33.68163 
L 354.802954 34.000346 
L 356.922107 33.583467 
L 358.938533 32.358738 
L 361.054669 32.591466 
L 363.243098 33.239178 
L 365.281097 32.297669 
L 367.335337 34.104183 
L 369.383101 33.767045 
L 371.462242 33.688501 
L 373.525608 32.96039 
L 375.570286 33.348078 
L 375.570286 29.767432 
L 375.570286 29.767432 
L 373.525608 29.162921 
L 371.462242 29.48902 
L 369.383101 29.472489 
L 367.335337 28.949314 
L 365.281097 29.577592 
L 363.243098 30.248405 
L 361.054669 29.469832 
L 358.938533 29.764573 
L 356.922107 29.47003 
L 354.802954 28.433027 
L 352.831526 28.875768 
L 350.8348 28.387571 
L 348.849294 28.103259 
L 346.818615 29.509936 
L 344.603255 29.911001 
L 342.43964 28.233454 
L 340.31924 30.244737 
L 338.215213 30.087156 
L 336.19383 30.554365 
L 334.156578 29.55727 
L 332.055395 30.263097 
L 329.837527 31.900292 
L 327.764011 29.92816 
L 325.627895 30.684565 
L 323.574947 30.909659 
L 321.472682 30.141735 
L 319.365549 31.314883 
L 317.334582 30.584569 
L 315.292282 31.042229 
L 313.133601 33.229826 
L 311.083904 31.415367 
L 309.02265 32.162415 
L 306.951266 30.667485 
L 304.835887 32.502005 
L 302.702749 34.74776 
L 300.59454 35.8762 
L 298.423045 35.264879 
L 296.299022 34.384602 
L 294.206226 33.228933 
L 292.147345 37.388003 
L 290.054309 35.942813 
L 287.928868 35.698609 
L 285.826379 35.189956 
L 283.701057 37.591101 
L 281.445712 39.221842 
L 279.363947 37.116201 
L 277.19244 40.956742 
L 275.081682 38.173939 
L 272.9406 35.292783 
L 270.903049 36.608064 
L 268.861283 37.417112 
L 266.657473 35.692986 
L 264.60687 38.542086 
L 262.475077 40.037302 
L 260.364318 38.030207 
L 258.297688 37.385651 
L 256.279885 39.536836 
L 254.078823 40.503972 
L 252.045225 44.193601 
L 249.841605 41.18362 
L 247.74572 44.150887 
L 245.643213 39.642511 
L 243.56799 48.418 
L 241.482488 41.95099 
L 239.398131 42.606473 
L 237.280771 44.491241 
L 235.098072 45.198965 
L 233.004576 48.270569 
L 230.874294 45.239007 
L 228.83213 43.237863 
L 226.673851 46.157987 
L 224.586344 43.876608 
L 222.574077 47.34797 
L 220.580998 48.793024 
L 218.386988 45.741637 
L 216.360533 44.778742 
L 214.254859 46.950031 
L 212.098697 50.839515 
L 210.021331 47.545729 
L 207.958645 54.055239 
L 205.89984 50.068248 
L 203.780835 48.692435 
L 201.573435 48.169424 
L 199.525503 47.066228 
L 197.46496 56.545156 
L 195.410181 53.314199 
L 193.314684 52.218933 
L 191.193597 55.704108 
L 189.150795 53.965482 
L 186.91664 52.391396 
L 184.763806 55.923926 
L 182.664417 49.778566 
L 180.608467 54.456442 
L 178.570178 54.093135 
L 176.483451 59.182046 
L 174.33326 55.756385 
L 172.188657 58.449556 
L 169.933102 53.045542 
L 167.837922 54.059253 
L 165.702787 51.78672 
L 163.610585 57.449819 
L 161.460534 54.478812 
L 159.348996 59.952601 
L 157.266404 62.765354 
L 155.019838 62.14388 
L 152.897469 61.268646 
L 150.830277 56.606147 
L 148.776333 63.941108 
L 146.64729 58.615487 
L 144.573092 64.550705 
L 142.500472 60.207487 
L 140.353316 69.270113 
L 138.103351 67.747573 
L 136.058768 62.244392 
L 133.962377 59.20259 
L 131.82442 60.993665 
L 129.70517 66.268089 
L 127.685545 62.612267 
L 125.615694 67.928032 
L 123.348668 73.468848 
L 121.273221 74.927915 
L 119.242762 68.697391 
L 117.16608 73.430385 
L 115.025613 70.827941 
L 112.948339 77.57809 
L 110.858885 75.18959 
L 108.775212 87.620099 
L 106.549197 80.209186 
L 104.490951 78.586011 
L 102.520936 86.044537 
L 100.495173 73.606028 
L 98.358383 77.599084 
L 96.328168 92.830264 
L 94.269628 98.279055 
L 92.05109 106.189894 
L 90.014968 109.436186 
L 87.969205 98.602572 
L 85.909613 109.761093 
L 83.810296 119.06999 
L 81.759847 133.645787 
L 79.714778 151.123717 
L 77.529616 174.828326 
L 75.360588 184.534857 
L 73.37845 218.561955 
L 71.315189 226.628707 
L 69.196856 243.325483 
L 67.133242 259.32839 
L 65.042433 279.175569 
L 62.980167 287.799471 
z
" style="fill:#d62728;fill-opacity:0.25;"/>
   </g>
   <g id="matplotlib.axis_1">
    <g id="xtick_1">
     <g id="line2d_1">
      <defs>
       <path d="M 0 0 
L 0 3.5 
" id="mb915d9398c" style="stroke:#000000;stroke-width:0.8;"/>
      </defs>
      <g>
       <use style="stroke:#000000;stroke-width:0.8;" x="60.387932" xlink:href="#mb915d9398c" y="303.64"/>
      </g>
     </g>
     <g id="text_1">
      <!-- 0 -->
      <g transform="translate(57.206682 318.238437)scale(0.1 -0.1)">
       <defs>
        <path d="M 31.78125 66.40625 
Q 24.171875 66.40625 20.328125 58.90625 
Q 16.5 51.421875 16.5 36.375 
Q 16.5 21.390625 20.328125 13.890625 
Q 24.171875 6.390625 31.78125 6.390625 
Q 39.453125 6.390625 43.28125 13.890625 
Q 47.125 21.390625 47.125 36.375 
Q 47.125 51.421875 43.28125 58.90625 
Q 39.453125 66.40625 31.78125 66.40625 
z
M 31.78125 74.21875 
Q 44.046875 74.21875 50.515625 64.515625 
Q 56.984375 54.828125 56.984375 36.375 
Q 56.984375 17.96875 50.515625 8.265625 
Q 44.046875 -1.421875 31.78125 -1.421875 
Q 19.53125 -1.421875 13.0625 8.265625 
Q 6.59375 17.96875 6.59375 36.375 
Q 6.59375 54.828125 13.0625 64.515625 
Q 19.53125 74.21875 31.78125 74.21875 
z
" id="DejaVuSans-48"/>
       </defs>
       <use xlink:href="#DejaVuSans-48"/>
      </g>
     </g>
    </g>
    <g id="xtick_2">
     <g id="line2d_2">
      <g>
       <use style="stroke:#000000;stroke-width:0.8;" x="107.310431" xlink:href="#mb915d9398c" y="303.64"/>
      </g>
     </g>
     <g id="text_2">
      <!-- 250 -->
      <g transform="translate(97.766681 318.238437)scale(0.1 -0.1)">
       <defs>
        <path d="M 19.1875 8.296875 
L 53.609375 8.296875 
L 53.609375 0 
L 7.328125 0 
L 7.328125 8.296875 
Q 12.9375 14.109375 22.625 23.890625 
Q 32.328125 33.6875 34.8125 36.53125 
Q 39.546875 41.84375 41.421875 45.53125 
Q 43.3125 49.21875 43.3125 52.78125 
Q 43.3125 58.59375 39.234375 62.25 
Q 35.15625 65.921875 28.609375 65.921875 
Q 23.96875 65.921875 18.8125 64.3125 
Q 13.671875 62.703125 7.8125 59.421875 
L 7.8125 69.390625 
Q 13.765625 71.78125 18.9375 73 
Q 24.125 74.21875 28.421875 74.21875 
Q 39.75 74.21875 46.484375 68.546875 
Q 53.21875 62.890625 53.21875 53.421875 
Q 53.21875 48.921875 51.53125 44.890625 
Q 49.859375 40.875 45.40625 35.40625 
Q 44.1875 33.984375 37.640625 27.21875 
Q 31.109375 20.453125 19.1875 8.296875 
z
" id="DejaVuSans-50"/>
        <path d="M 10.796875 72.90625 
L 49.515625 72.90625 
L 49.515625 64.59375 
L 19.828125 64.59375 
L 19.828125 46.734375 
Q 21.96875 47.46875 24.109375 47.828125 
Q 26.265625 48.1875 28.421875 48.1875 
Q 40.625 48.1875 47.75 41.5 
Q 54.890625 34.8125 54.890625 23.390625 
Q 54.890625 11.625 47.5625 5.09375 
Q 40.234375 -1.421875 26.90625 -1.421875 
Q 22.3125 -1.421875 17.546875 -0.640625 
Q 12.796875 0.140625 7.71875 1.703125 
L 7.71875 11.625 
Q 12.109375 9.234375 16.796875 8.0625 
Q 21.484375 6.890625 26.703125 6.890625 
Q 35.15625 6.890625 40.078125 11.328125 
Q 45.015625 15.765625 45.015625 23.390625 
Q 45.015625 31 40.078125 35.4375 
Q 35.15625 39.890625 26.703125 39.890625 
Q 22.75 39.890625 18.8125 39.015625 
Q 14.890625 38.140625 10.796875 36.28125 
z
" id="DejaVuSans-53"/>
       </defs>
       <use xlink:href="#DejaVuSans-50"/>
       <use x="63.623047" xlink:href="#DejaVuSans-53"/>
       <use x="127.246094" xlink:href="#DejaVuSans-48"/>
      </g>
     </g>
    </g>
    <g id="xtick_3">
     <g id="line2d_3">
      <g>
       <use style="stroke:#000000;stroke-width:0.8;" x="154.232929" xlink:href="#mb915d9398c" y="303.64"/>
      </g>
     </g>
     <g id="text_3">
      <!-- 500 -->
      <g transform="translate(144.689179 318.238437)scale(0.1 -0.1)">
       <use xlink:href="#DejaVuSans-53"/>
       <use x="63.623047" xlink:href="#DejaVuSans-48"/>
       <use x="127.246094" xlink:href="#DejaVuSans-48"/>
      </g>
     </g>
    </g>
    <g id="xtick_4">
     <g id="line2d_4">
      <g>
       <use style="stroke:#000000;stroke-width:0.8;" x="201.155427" xlink:href="#mb915d9398c" y="303.64"/>
      </g>
     </g>
     <g id="text_4">
      <!-- 750 -->
      <g transform="translate(191.611677 318.238437)scale(0.1 -0.1)">
       <defs>
        <path d="M 8.203125 72.90625 
L 55.078125 72.90625 
L 55.078125 68.703125 
L 28.609375 0 
L 18.3125 0 
L 43.21875 64.59375 
L 8.203125 64.59375 
z
" id="DejaVuSans-55"/>
       </defs>
       <use xlink:href="#DejaVuSans-55"/>
       <use x="63.623047" xlink:href="#DejaVuSans-53"/>
       <use x="127.246094" xlink:href="#DejaVuSans-48"/>
      </g>
     </g>
    </g>
    <g id="xtick_5">
     <g id="line2d_5">
      <g>
       <use style="stroke:#000000;stroke-width:0.8;" x="248.077926" xlink:href="#mb915d9398c" y="303.64"/>
      </g>
     </g>
     <g id="text_5">
      <!-- 1000 -->
      <g transform="translate(235.352926 318.238437)scale(0.1 -0.1)">
       <defs>
        <path d="M 12.40625 8.296875 
L 28.515625 8.296875 
L 28.515625 63.921875 
L 10.984375 60.40625 
L 10.984375 69.390625 
L 28.421875 72.90625 
L 38.28125 72.90625 
L 38.28125 8.296875 
L 54.390625 8.296875 
L 54.390625 0 
L 12.40625 0 
z
" id="DejaVuSans-49"/>
       </defs>
       <use xlink:href="#DejaVuSans-49"/>
       <use x="63.623047" xlink:href="#DejaVuSans-48"/>
       <use x="127.246094" xlink:href="#DejaVuSans-48"/>
       <use x="190.869141" xlink:href="#DejaVuSans-48"/>
      </g>
     </g>
    </g>
    <g id="xtick_6">
     <g id="line2d_6">
      <g>
       <use style="stroke:#000000;stroke-width:0.8;" x="295.000424" xlink:href="#mb915d9398c" y="303.64"/>
      </g>
     </g>
     <g id="text_6">
      <!-- 1250 -->
      <g transform="translate(282.275424 318.238437)scale(0.1 -0.1)">
       <use xlink:href="#DejaVuSans-49"/>
       <use x="63.623047" xlink:href="#DejaVuSans-50"/>
       <use x="127.246094" xlink:href="#DejaVuSans-53"/>
       <use x="190.869141" xlink:href="#DejaVuSans-48"/>
      </g>
     </g>
    </g>
    <g id="xtick_7">
     <g id="line2d_7">
      <g>
       <use style="stroke:#000000;stroke-width:0.8;" x="341.922922" xlink:href="#mb915d9398c" y="303.64"/>
      </g>
     </g>
     <g id="text_7">
      <!-- 1500 -->
      <g transform="translate(329.197922 318.238437)scale(0.1 -0.1)">
       <use xlink:href="#DejaVuSans-49"/>
       <use x="63.623047" xlink:href="#DejaVuSans-53"/>
       <use x="127.246094" xlink:href="#DejaVuSans-48"/>
       <use x="190.869141" xlink:href="#DejaVuSans-48"/>
      </g>
     </g>
    </g>
    <g id="xtick_8">
     <g id="line2d_8">
      <g>
       <use style="stroke:#000000;stroke-width:0.8;" x="388.845421" xlink:href="#mb915d9398c" y="303.64"/>
      </g>
     </g>
     <g id="text_8">
      <!-- 1750 -->
      <g transform="translate(376.120421 318.238437)scale(0.1 -0.1)">
       <use xlink:href="#DejaVuSans-49"/>
       <use x="63.623047" xlink:href="#DejaVuSans-55"/>
       <use x="127.246094" xlink:href="#DejaVuSans-53"/>
       <use x="190.869141" xlink:href="#DejaVuSans-48"/>
      </g>
     </g>
    </g>
    <g id="xtick_9">
     <g id="line2d_9">
      <g>
       <use style="stroke:#000000;stroke-width:0.8;" x="435.767919" xlink:href="#mb915d9398c" y="303.64"/>
      </g>
     </g>
     <g id="text_9">
      <!-- 2000 -->
      <g transform="translate(423.042919 318.238437)scale(0.1 -0.1)">
       <use xlink:href="#DejaVuSans-50"/>
       <use x="63.623047" xlink:href="#DejaVuSans-48"/>
       <use x="127.246094" xlink:href="#DejaVuSans-48"/>
       <use x="190.869141" xlink:href="#DejaVuSans-48"/>
      </g>
     </g>
    </g>
    <g id="text_10">
     <!-- Time (sec) -->
     <g transform="translate(220.916555 331.916562)scale(0.1 -0.1)">
      <defs>
       <path d="M -0.296875 72.90625 
L 61.375 72.90625 
L 61.375 64.59375 
L 35.5 64.59375 
L 35.5 0 
L 25.59375 0 
L 25.59375 64.59375 
L -0.296875 64.59375 
z
" id="DejaVuSans-84"/>
       <path d="M 9.421875 54.6875 
L 18.40625 54.6875 
L 18.40625 0 
L 9.421875 0 
z
M 9.421875 75.984375 
L 18.40625 75.984375 
L 18.40625 64.59375 
L 9.421875 64.59375 
z
" id="DejaVuSans-105"/>
       <path d="M 52 44.1875 
Q 55.375 50.25 60.0625 53.125 
Q 64.75 56 71.09375 56 
Q 79.640625 56 84.28125 50.015625 
Q 88.921875 44.046875 88.921875 33.015625 
L 88.921875 0 
L 79.890625 0 
L 79.890625 32.71875 
Q 79.890625 40.578125 77.09375 44.375 
Q 74.3125 48.1875 68.609375 48.1875 
Q 61.625 48.1875 57.5625 43.546875 
Q 53.515625 38.921875 53.515625 30.90625 
L 53.515625 0 
L 44.484375 0 
L 44.484375 32.71875 
Q 44.484375 40.625 41.703125 44.40625 
Q 38.921875 48.1875 33.109375 48.1875 
Q 26.21875 48.1875 22.15625 43.53125 
Q 18.109375 38.875 18.109375 30.90625 
L 18.109375 0 
L 9.078125 0 
L 9.078125 54.6875 
L 18.109375 54.6875 
L 18.109375 46.1875 
Q 21.1875 51.21875 25.484375 53.609375 
Q 29.78125 56 35.6875 56 
Q 41.65625 56 45.828125 52.96875 
Q 50 49.953125 52 44.1875 
z
" id="DejaVuSans-109"/>
       <path d="M 56.203125 29.59375 
L 56.203125 25.203125 
L 14.890625 25.203125 
Q 15.484375 15.921875 20.484375 11.0625 
Q 25.484375 6.203125 34.421875 6.203125 
Q 39.59375 6.203125 44.453125 7.46875 
Q 49.3125 8.734375 54.109375 11.28125 
L 54.109375 2.78125 
Q 49.265625 0.734375 44.1875 -0.34375 
Q 39.109375 -1.421875 33.890625 -1.421875 
Q 20.796875 -1.421875 13.15625 6.1875 
Q 5.515625 13.8125 5.515625 26.8125 
Q 5.515625 40.234375 12.765625 48.109375 
Q 20.015625 56 32.328125 56 
Q 43.359375 56 49.78125 48.890625 
Q 56.203125 41.796875 56.203125 29.59375 
z
M 47.21875 32.234375 
Q 47.125 39.59375 43.09375 43.984375 
Q 39.0625 48.390625 32.421875 48.390625 
Q 24.90625 48.390625 20.390625 44.140625 
Q 15.875 39.890625 15.1875 32.171875 
z
" id="DejaVuSans-101"/>
       <path id="DejaVuSans-32"/>
       <path d="M 31 75.875 
Q 24.46875 64.65625 21.28125 53.65625 
Q 18.109375 42.671875 18.109375 31.390625 
Q 18.109375 20.125 21.3125 9.0625 
Q 24.515625 -2 31 -13.1875 
L 23.1875 -13.1875 
Q 15.875 -1.703125 12.234375 9.375 
Q 8.59375 20.453125 8.59375 31.390625 
Q 8.59375 42.28125 12.203125 53.3125 
Q 15.828125 64.359375 23.1875 75.875 
z
" id="DejaVuSans-40"/>
       <path d="M 44.28125 53.078125 
L 44.28125 44.578125 
Q 40.484375 46.53125 36.375 47.5 
Q 32.28125 48.484375 27.875 48.484375 
Q 21.1875 48.484375 17.84375 46.4375 
Q 14.5 44.390625 14.5 40.28125 
Q 14.5 37.15625 16.890625 35.375 
Q 19.28125 33.59375 26.515625 31.984375 
L 29.59375 31.296875 
Q 39.15625 29.25 43.1875 25.515625 
Q 47.21875 21.78125 47.21875 15.09375 
Q 47.21875 7.46875 41.1875 3.015625 
Q 35.15625 -1.421875 24.609375 -1.421875 
Q 20.21875 -1.421875 15.453125 -0.5625 
Q 10.6875 0.296875 5.421875 2 
L 5.421875 11.28125 
Q 10.40625 8.6875 15.234375 7.390625 
Q 20.0625 6.109375 24.8125 6.109375 
Q 31.15625 6.109375 34.5625 8.28125 
Q 37.984375 10.453125 37.984375 14.40625 
Q 37.984375 18.0625 35.515625 20.015625 
Q 33.0625 21.96875 24.703125 23.78125 
L 21.578125 24.515625 
Q 13.234375 26.265625 9.515625 29.90625 
Q 5.8125 33.546875 5.8125 39.890625 
Q 5.8125 47.609375 11.28125 51.796875 
Q 16.75 56 26.8125 56 
Q 31.78125 56 36.171875 55.265625 
Q 40.578125 54.546875 44.28125 53.078125 
z
" id="DejaVuSans-115"/>
       <path d="M 48.78125 52.59375 
L 48.78125 44.1875 
Q 44.96875 46.296875 41.140625 47.34375 
Q 37.3125 48.390625 33.40625 48.390625 
Q 24.65625 48.390625 19.8125 42.84375 
Q 14.984375 37.3125 14.984375 27.296875 
Q 14.984375 17.28125 19.8125 11.734375 
Q 24.65625 6.203125 33.40625 6.203125 
Q 37.3125 6.203125 41.140625 7.25 
Q 44.96875 8.296875 48.78125 10.40625 
L 48.78125 2.09375 
Q 45.015625 0.34375 40.984375 -0.53125 
Q 36.96875 -1.421875 32.421875 -1.421875 
Q 20.0625 -1.421875 12.78125 6.34375 
Q 5.515625 14.109375 5.515625 27.296875 
Q 5.515625 40.671875 12.859375 48.328125 
Q 20.21875 56 33.015625 56 
Q 37.15625 56 41.109375 55.140625 
Q 45.0625 54.296875 48.78125 52.59375 
z
" id="DejaVuSans-99"/>
       <path d="M 8.015625 75.875 
L 15.828125 75.875 
Q 23.140625 64.359375 26.78125 53.3125 
Q 30.421875 42.28125 30.421875 31.390625 
Q 30.421875 20.453125 26.78125 9.375 
Q 23.140625 -1.703125 15.828125 -13.1875 
L 8.015625 -13.1875 
Q 14.5 -2 17.703125 9.0625 
Q 20.90625 20.125 20.90625 31.390625 
Q 20.90625 42.671875 17.703125 53.65625 
Q 14.5 64.65625 8.015625 75.875 
z
" id="DejaVuSans-41"/>
      </defs>
      <use xlink:href="#DejaVuSans-84"/>
      <use x="57.958984" xlink:href="#DejaVuSans-105"/>
      <use x="85.742188" xlink:href="#DejaVuSans-109"/>
      <use x="183.154297" xlink:href="#DejaVuSans-101"/>
      <use x="244.677734" xlink:href="#DejaVuSans-32"/>
      <use x="276.464844" xlink:href="#DejaVuSans-40"/>
      <use x="315.478516" xlink:href="#DejaVuSans-115"/>
      <use x="367.578125" xlink:href="#DejaVuSans-101"/>
      <use x="429.101562" xlink:href="#DejaVuSans-99"/>
      <use x="484.082031" xlink:href="#DejaVuSans-41"/>
     </g>
    </g>
   </g>
   <g id="matplotlib.axis_2">
    <g id="ytick_1">
     <g id="line2d_10">
      <defs>
       <path d="M 0 0 
L -3.5 0 
" id="mb4dc5d85b5" style="stroke:#000000;stroke-width:0.8;"/>
      </defs>
      <g>
       <use style="stroke:#000000;stroke-width:0.8;" x="44.57" xlink:href="#mb4dc5d85b5" y="261.034672"/>
      </g>
     </g>
     <g id="text_11">
      <!-- 20 -->
      <g transform="translate(24.845 264.833891)scale(0.1 -0.1)">
       <use xlink:href="#DejaVuSans-50"/>
       <use x="63.623047" xlink:href="#DejaVuSans-48"/>
      </g>
     </g>
    </g>
    <g id="ytick_2">
     <g id="line2d_11">
      <g>
       <use style="stroke:#000000;stroke-width:0.8;" x="44.57" xlink:href="#mb4dc5d85b5" y="197.533966"/>
      </g>
     </g>
     <g id="text_12">
      <!-- 40 -->
      <g transform="translate(24.845 201.333185)scale(0.1 -0.1)">
       <defs>
        <path d="M 37.796875 64.3125 
L 12.890625 25.390625 
L 37.796875 25.390625 
z
M 35.203125 72.90625 
L 47.609375 72.90625 
L 47.609375 25.390625 
L 58.015625 25.390625 
L 58.015625 17.1875 
L 47.609375 17.1875 
L 47.609375 0 
L 37.796875 0 
L 37.796875 17.1875 
L 4.890625 17.1875 
L 4.890625 26.703125 
z
" id="DejaVuSans-52"/>
       </defs>
       <use xlink:href="#DejaVuSans-52"/>
       <use x="63.623047" xlink:href="#DejaVuSans-48"/>
      </g>
     </g>
    </g>
    <g id="ytick_3">
     <g id="line2d_12">
      <g>
       <use style="stroke:#000000;stroke-width:0.8;" x="44.57" xlink:href="#mb4dc5d85b5" y="134.03326"/>
      </g>
     </g>
     <g id="text_13">
      <!-- 60 -->
      <g transform="translate(24.845 137.832478)scale(0.1 -0.1)">
       <defs>
        <path d="M 33.015625 40.375 
Q 26.375 40.375 22.484375 35.828125 
Q 18.609375 31.296875 18.609375 23.390625 
Q 18.609375 15.53125 22.484375 10.953125 
Q 26.375 6.390625 33.015625 6.390625 
Q 39.65625 6.390625 43.53125 10.953125 
Q 47.40625 15.53125 47.40625 23.390625 
Q 47.40625 31.296875 43.53125 35.828125 
Q 39.65625 40.375 33.015625 40.375 
z
M 52.59375 71.296875 
L 52.59375 62.3125 
Q 48.875 64.0625 45.09375 64.984375 
Q 41.3125 65.921875 37.59375 65.921875 
Q 27.828125 65.921875 22.671875 59.328125 
Q 17.53125 52.734375 16.796875 39.40625 
Q 19.671875 43.65625 24.015625 45.921875 
Q 28.375 48.1875 33.59375 48.1875 
Q 44.578125 48.1875 50.953125 41.515625 
Q 57.328125 34.859375 57.328125 23.390625 
Q 57.328125 12.15625 50.6875 5.359375 
Q 44.046875 -1.421875 33.015625 -1.421875 
Q 20.359375 -1.421875 13.671875 8.265625 
Q 6.984375 17.96875 6.984375 36.375 
Q 6.984375 53.65625 15.1875 63.9375 
Q 23.390625 74.21875 37.203125 74.21875 
Q 40.921875 74.21875 44.703125 73.484375 
Q 48.484375 72.75 52.59375 71.296875 
z
" id="DejaVuSans-54"/>
       </defs>
       <use xlink:href="#DejaVuSans-54"/>
       <use x="63.623047" xlink:href="#DejaVuSans-48"/>
      </g>
     </g>
    </g>
    <g id="ytick_4">
     <g id="line2d_13">
      <g>
       <use style="stroke:#000000;stroke-width:0.8;" x="44.57" xlink:href="#mb4dc5d85b5" y="70.532553"/>
      </g>
     </g>
     <g id="text_14">
      <!-- 80 -->
      <g transform="translate(24.845 74.331772)scale(0.1 -0.1)">
       <defs>
        <path d="M 31.78125 34.625 
Q 24.75 34.625 20.71875 30.859375 
Q 16.703125 27.09375 16.703125 20.515625 
Q 16.703125 13.921875 20.71875 10.15625 
Q 24.75 6.390625 31.78125 6.390625 
Q 38.8125 6.390625 42.859375 10.171875 
Q 46.921875 13.96875 46.921875 20.515625 
Q 46.921875 27.09375 42.890625 30.859375 
Q 38.875 34.625 31.78125 34.625 
z
M 21.921875 38.8125 
Q 15.578125 40.375 12.03125 44.71875 
Q 8.5 49.078125 8.5 55.328125 
Q 8.5 64.0625 14.71875 69.140625 
Q 20.953125 74.21875 31.78125 74.21875 
Q 42.671875 74.21875 48.875 69.140625 
Q 55.078125 64.0625 55.078125 55.328125 
Q 55.078125 49.078125 51.53125 44.71875 
Q 48 40.375 41.703125 38.8125 
Q 48.828125 37.15625 52.796875 32.3125 
Q 56.78125 27.484375 56.78125 20.515625 
Q 56.78125 9.90625 50.3125 4.234375 
Q 43.84375 -1.421875 31.78125 -1.421875 
Q 19.734375 -1.421875 13.25 4.234375 
Q 6.78125 9.90625 6.78125 20.515625 
Q 6.78125 27.484375 10.78125 32.3125 
Q 14.796875 37.15625 21.921875 38.8125 
z
M 18.3125 54.390625 
Q 18.3125 48.734375 21.84375 45.5625 
Q 25.390625 42.390625 31.78125 42.390625 
Q 38.140625 42.390625 41.71875 45.5625 
Q 45.3125 48.734375 45.3125 54.390625 
Q 45.3125 60.0625 41.71875 63.234375 
Q 38.140625 66.40625 31.78125 66.40625 
Q 25.390625 66.40625 21.84375 63.234375 
Q 18.3125 60.0625 18.3125 54.390625 
z
" id="DejaVuSans-56"/>
       </defs>
       <use xlink:href="#DejaVuSans-56"/>
       <use x="63.623047" xlink:href="#DejaVuSans-48"/>
      </g>
     </g>
    </g>
    <g id="text_15">
     <!-- Test Accuracy (%) -->
     <g transform="translate(18.765313 201.723906)rotate(-90)scale(0.1 -0.1)">
      <defs>
       <path d="M 18.3125 70.21875 
L 18.3125 54.6875 
L 36.8125 54.6875 
L 36.8125 47.703125 
L 18.3125 47.703125 
L 18.3125 18.015625 
Q 18.3125 11.328125 20.140625 9.421875 
Q 21.96875 7.515625 27.59375 7.515625 
L 36.8125 7.515625 
L 36.8125 0 
L 27.59375 0 
Q 17.1875 0 13.234375 3.875 
Q 9.28125 7.765625 9.28125 18.015625 
L 9.28125 47.703125 
L 2.6875 47.703125 
L 2.6875 54.6875 
L 9.28125 54.6875 
L 9.28125 70.21875 
z
" id="DejaVuSans-116"/>
       <path d="M 34.1875 63.1875 
L 20.796875 26.90625 
L 47.609375 26.90625 
z
M 28.609375 72.90625 
L 39.796875 72.90625 
L 67.578125 0 
L 57.328125 0 
L 50.6875 18.703125 
L 17.828125 18.703125 
L 11.1875 0 
L 0.78125 0 
z
" id="DejaVuSans-65"/>
       <path d="M 8.5 21.578125 
L 8.5 54.6875 
L 17.484375 54.6875 
L 17.484375 21.921875 
Q 17.484375 14.15625 20.5 10.265625 
Q 23.53125 6.390625 29.59375 6.390625 
Q 36.859375 6.390625 41.078125 11.03125 
Q 45.3125 15.671875 45.3125 23.6875 
L 45.3125 54.6875 
L 54.296875 54.6875 
L 54.296875 0 
L 45.3125 0 
L 45.3125 8.40625 
Q 42.046875 3.421875 37.71875 1 
Q 33.40625 -1.421875 27.6875 -1.421875 
Q 18.265625 -1.421875 13.375 4.4375 
Q 8.5 10.296875 8.5 21.578125 
z
M 31.109375 56 
z
" id="DejaVuSans-117"/>
       <path d="M 41.109375 46.296875 
Q 39.59375 47.171875 37.8125 47.578125 
Q 36.03125 48 33.890625 48 
Q 26.265625 48 22.1875 43.046875 
Q 18.109375 38.09375 18.109375 28.8125 
L 18.109375 0 
L 9.078125 0 
L 9.078125 54.6875 
L 18.109375 54.6875 
L 18.109375 46.1875 
Q 20.953125 51.171875 25.484375 53.578125 
Q 30.03125 56 36.53125 56 
Q 37.453125 56 38.578125 55.875 
Q 39.703125 55.765625 41.0625 55.515625 
z
" id="DejaVuSans-114"/>
       <path d="M 34.28125 27.484375 
Q 23.390625 27.484375 19.1875 25 
Q 14.984375 22.515625 14.984375 16.5 
Q 14.984375 11.71875 18.140625 8.90625 
Q 21.296875 6.109375 26.703125 6.109375 
Q 34.1875 6.109375 38.703125 11.40625 
Q 43.21875 16.703125 43.21875 25.484375 
L 43.21875 27.484375 
z
M 52.203125 31.203125 
L 52.203125 0 
L 43.21875 0 
L 43.21875 8.296875 
Q 40.140625 3.328125 35.546875 0.953125 
Q 30.953125 -1.421875 24.3125 -1.421875 
Q 15.921875 -1.421875 10.953125 3.296875 
Q 6 8.015625 6 15.921875 
Q 6 25.140625 12.171875 29.828125 
Q 18.359375 34.515625 30.609375 34.515625 
L 43.21875 34.515625 
L 43.21875 35.40625 
Q 43.21875 41.609375 39.140625 45 
Q 35.0625 48.390625 27.6875 48.390625 
Q 23 48.390625 18.546875 47.265625 
Q 14.109375 46.140625 10.015625 43.890625 
L 10.015625 52.203125 
Q 14.9375 54.109375 19.578125 55.046875 
Q 24.21875 56 28.609375 56 
Q 40.484375 56 46.34375 49.84375 
Q 52.203125 43.703125 52.203125 31.203125 
z
" id="DejaVuSans-97"/>
       <path d="M 32.171875 -5.078125 
Q 28.375 -14.84375 24.75 -17.8125 
Q 21.140625 -20.796875 15.09375 -20.796875 
L 7.90625 -20.796875 
L 7.90625 -13.28125 
L 13.1875 -13.28125 
Q 16.890625 -13.28125 18.9375 -11.515625 
Q 21 -9.765625 23.484375 -3.21875 
L 25.09375 0.875 
L 2.984375 54.6875 
L 12.5 54.6875 
L 29.59375 11.921875 
L 46.6875 54.6875 
L 56.203125 54.6875 
z
" id="DejaVuSans-121"/>
       <path d="M 72.703125 32.078125 
Q 68.453125 32.078125 66.03125 28.46875 
Q 63.625 24.859375 63.625 18.40625 
Q 63.625 12.0625 66.03125 8.421875 
Q 68.453125 4.78125 72.703125 4.78125 
Q 76.859375 4.78125 79.265625 8.421875 
Q 81.6875 12.0625 81.6875 18.40625 
Q 81.6875 24.8125 79.265625 28.4375 
Q 76.859375 32.078125 72.703125 32.078125 
z
M 72.703125 38.28125 
Q 80.421875 38.28125 84.953125 32.90625 
Q 89.5 27.546875 89.5 18.40625 
Q 89.5 9.28125 84.9375 3.921875 
Q 80.375 -1.421875 72.703125 -1.421875 
Q 64.890625 -1.421875 60.34375 3.921875 
Q 55.8125 9.28125 55.8125 18.40625 
Q 55.8125 27.59375 60.375 32.9375 
Q 64.9375 38.28125 72.703125 38.28125 
z
M 22.3125 68.015625 
Q 18.109375 68.015625 15.6875 64.375 
Q 13.28125 60.75 13.28125 54.390625 
Q 13.28125 47.953125 15.671875 44.328125 
Q 18.0625 40.71875 22.3125 40.71875 
Q 26.5625 40.71875 28.96875 44.328125 
Q 31.390625 47.953125 31.390625 54.390625 
Q 31.390625 60.6875 28.953125 64.34375 
Q 26.515625 68.015625 22.3125 68.015625 
z
M 66.40625 74.21875 
L 74.21875 74.21875 
L 28.609375 -1.421875 
L 20.796875 -1.421875 
z
M 22.3125 74.21875 
Q 30.03125 74.21875 34.609375 68.875 
Q 39.203125 63.53125 39.203125 54.390625 
Q 39.203125 45.171875 34.640625 39.84375 
Q 30.078125 34.515625 22.3125 34.515625 
Q 14.546875 34.515625 10.03125 39.859375 
Q 5.515625 45.21875 5.515625 54.390625 
Q 5.515625 63.484375 10.046875 68.84375 
Q 14.59375 74.21875 22.3125 74.21875 
z
" id="DejaVuSans-37"/>
      </defs>
      <use xlink:href="#DejaVuSans-84"/>
      <use x="44.083984" xlink:href="#DejaVuSans-101"/>
      <use x="105.607422" xlink:href="#DejaVuSans-115"/>
      <use x="157.707031" xlink:href="#DejaVuSans-116"/>
      <use x="196.916016" xlink:href="#DejaVuSans-32"/>
      <use x="228.703125" xlink:href="#DejaVuSans-65"/>
      <use x="295.361328" xlink:href="#DejaVuSans-99"/>
      <use x="350.341797" xlink:href="#DejaVuSans-99"/>
      <use x="405.322266" xlink:href="#DejaVuSans-117"/>
      <use x="468.701172" xlink:href="#DejaVuSans-114"/>
      <use x="509.814453" xlink:href="#DejaVuSans-97"/>
      <use x="571.09375" xlink:href="#DejaVuSans-99"/>
      <use x="626.074219" xlink:href="#DejaVuSans-121"/>
      <use x="685.253906" xlink:href="#DejaVuSans-32"/>
      <use x="717.041016" xlink:href="#DejaVuSans-40"/>
      <use x="756.054688" xlink:href="#DejaVuSans-37"/>
      <use x="851.074219" xlink:href="#DejaVuSans-41"/>
     </g>
    </g>
   </g>
   <g id="line2d_14">
    <path clip-path="url(#pe2580d35f7)" d="M 63.253188 277.778023 
L 65.700555 256.817829 
L 68.227741 240.958155 
L 70.713861 226.679798 
L 73.209052 197.766513 
L 75.731198 153.505156 
L 78.227409 125.103473 
L 80.665934 115.677587 
L 83.080997 107.864023 
L 85.536063 82.686985 
L 87.935797 78.718191 
L 90.348941 83.896227 
L 92.813204 77.384925 
L 95.271633 75.493546 
L 97.754646 71.927833 
L 100.303563 61.509748 
L 102.799669 66.811809 
L 105.234033 58.967239 
L 107.684265 52.734992 
L 110.100577 66.842815 
L 112.62123 56.207687 
L 115.11633 56.889824 
L 117.526641 63.959238 
L 120.017475 62.06786 
L 122.460547 63.401126 
L 124.953867 56.02165 
L 127.416921 60.145475 
L 129.887931 56.92083 
L 132.313987 59.246295 
L 134.753176 52.145874 
L 137.205316 54.130271 
L 139.63861 53.696185 
L 142.110737 53.634172 
L 144.585944 52.269899 
L 147.016925 50.62657 
L 149.522694 57.789003 
L 151.997635 62.222891 
L 154.490574 57.602966 
L 156.978848 48.797204 
L 159.453039 60.145475 
L 162.022628 50.595564 
L 164.490107 48.301105 
L 166.949909 51.153676 
L 169.459767 48.766198 
L 171.907045 50.192483 
L 174.372988 47.556956 
L 176.80465 47.401925 
L 181.716881 50.285502 
L 184.107916 49.138272 
L 189.047118 51.401725 
L 191.480263 50.87462 
L 193.96683 49.665378 
L 196.384949 50.905626 
L 198.866239 44.549354 
L 201.281928 52.114868 
L 203.712735 57.354917 
L 206.172917 49.72739 
L 208.624735 41.417728 
L 211.135582 49.634372 
L 213.612028 49.417328 
L 216.046894 44.332311 
L 218.531495 41.417728 
L 221.017234 48.766198 
L 223.537086 49.696384 
L 225.991849 42.13087 
L 228.456579 46.161677 
L 230.90217 49.169279 
L 233.370846 43.433131 
L 235.833228 46.316708 
L 238.291056 46.347714 
L 240.730463 43.650174 
L 243.23688 46.502745 
L 245.691474 43.681181 
L 248.125636 43.371118 
L 250.562127 46.316708 
L 253.011719 40.766597 
L 255.491563 42.906025 
L 257.973549 43.03005 
L 260.493694 41.820808 
L 263.01114 40.146473 
L 265.479351 43.061056 
L 267.926608 41.975839 
L 270.455365 41.045653 
L 272.936367 43.588162 
L 275.401186 39.464337 
L 277.784847 40.82861 
L 280.25071 38.410126 
L 282.764581 38.255095 
L 285.24144 40.084461 
L 287.724686 42.068858 
L 290.246764 38.999244 
L 292.695284 39.123269 
L 295.128569 36.208685 
L 297.552213 37.47994 
L 299.977984 36.766797 
L 304.976747 37.200884 
L 307.437427 35.805605 
L 309.894748 36.394723 
L 312.398404 36.797803 
L 314.88618 36.022648 
L 317.357323 34.100263 
L 319.816879 39.216287 
L 322.305162 35.03045 
L 324.841512 33.201083 
L 327.379959 34.410325 
L 329.881358 33.976239 
L 332.332581 32.922028 
L 334.786896 33.418127 
L 337.256998 34.069257 
L 339.742957 34.503344 
L 342.253007 32.922028 
L 344.698115 32.953034 
L 347.148915 34.069257 
L 349.622425 32.673978 
L 352.033533 32.270897 
L 354.56004 31.402724 
L 357.061785 31.836811 
L 359.548997 30.627569 
L 362.043102 32.053854 
L 364.536542 29.418327 
L 366.944291 29.294302 
L 369.389093 31.495742 
L 371.863683 30.472538 
L 374.326793 29.232289 
L 376.7969 30.968637 
L 379.219609 29.697382 
L 381.667291 29.077258 
L 384.142656 29.294302 
L 386.653436 28.054054 
L 389.126396 29.418327 
L 391.644312 28.705184 
L 394.108073 28.953234 
L 396.61614 28.705184 
L 399.114068 28.271097 
L 401.583265 28.333109 
L 404.064098 27.619967 
L 406.480122 28.798202 
L 409.035275 28.333109 
L 411.478466 28.054054 
L 413.90686 27.930029 
L 416.363284 27.309905 
L 418.804477 27.43393 
L 421.243443 27.743992 
L 423.754461 27.83701 
L 426.267946 27.402923 
L 431.163281 27.402923 
L 431.163281 27.402923 
" style="fill:none;stroke:#1f77b4;stroke-linecap:square;stroke-width:1.5;"/>
   </g>
   <g id="line2d_15">
    <path clip-path="url(#pe2580d35f7)" d="M 62.979204 289.312331 
L 67.20814 272.56898 
L 69.299747 266.739814 
L 71.384539 249.996464 
L 73.464143 242.803024 
L 77.873302 197.161892 
L 79.979571 173.240605 
L 82.140945 156.202696 
L 84.267671 142.823519 
L 86.420311 118.282108 
L 88.485181 118.902232 
L 90.526376 109.011253 
L 92.636581 101.321714 
L 94.843914 94.283306 
L 96.945977 101.135677 
L 99.056014 82.438936 
L 101.147017 78.687185 
L 103.232317 90.717592 
L 105.292748 86.283705 
L 107.348648 87.772003 
L 109.62899 85.7566 
L 111.702354 81.570762 
L 113.770974 84.082265 
L 115.817373 74.873422 
L 117.956485 83.648178 
L 120.122174 74.470341 
L 122.190789 70.31551 
L 124.310075 75.71059 
L 126.552529 76.609769 
L 128.700108 70.129473 
L 130.840385 71.028653 
L 132.921331 70.625572 
L 135.028164 66.656778 
L 137.116492 72.889025 
L 139.177806 72.920031 
L 141.394682 80.485545 
L 143.537997 71.741795 
L 145.648946 68.920231 
L 147.772704 67.741995 
L 149.893406 56.67278 
L 152.017363 67.773001 
L 154.04917 64.238294 
L 156.139865 69.540355 
L 158.407087 73.41613 
L 162.577823 56.641774 
L 164.649353 61.044655 
L 166.758453 56.393724 
L 168.918972 54.192284 
L 170.952847 58.750196 
L 173.146798 63.339114 
L 175.320295 57.789003 
L 177.415622 59.742394 
L 179.486283 54.626371 
L 181.508681 54.409327 
L 183.598098 52.362918 
L 187.862705 53.882222 
L 190.068306 57.447935 
L 192.158813 62.439934 
L 194.212092 53.510147 
L 196.290392 54.750395 
L 198.395658 56.858817 
L 200.45216 53.355116 
L 202.53452 51.091663 
L 204.784128 49.882421 
L 206.926812 53.944234 
L 209.007076 53.665178 
L 211.101154 51.649775 
L 213.158158 49.386322 
L 215.256873 49.510347 
L 217.333638 49.045254 
L 219.506867 48.146074 
L 221.72287 52.828011 
L 223.890064 50.347514 
L 226.029572 51.494744 
L 228.161002 49.293304 
L 230.281126 46.595764 
L 232.424717 46.781801 
L 234.510469 52.734992 
L 236.568631 46.564758 
L 238.765483 47.711987 
L 240.892645 47.649975 
L 242.93515 45.47954 
L 244.990278 50.87462 
L 246.9497 45.510547 
L 249.058515 42.844013 
L 251.138459 47.960037 
L 253.261217 46.595764 
L 255.348192 44.642373 
L 257.36637 45.634571 
L 259.426007 44.332311 
L 261.503922 44.797404 
L 263.679616 41.541752 
L 265.69201 43.557156 
L 267.762439 43.2781 
L 269.961944 42.62697 
L 272.142717 42.285901 
L 274.217414 41.572759 
L 276.389398 44.332311 
L 278.519549 44.301305 
L 280.540658 39.898424 
L 282.697851 42.223889 
L 284.946534 38.410126 
L 287.028985 38.627169 
L 289.047194 39.557355 
L 291.105366 38.844213 
L 293.248159 40.487541 
L 295.375255 39.991442 
L 297.496588 39.03025 
L 299.617498 39.216287 
L 301.730824 38.906225 
L 303.77033 38.348113 
L 305.894734 35.185481 
L 307.994925 35.743592 
L 310.149099 36.673778 
L 312.227678 35.43353 
L 314.361163 34.565356 
L 316.662218 34.410325 
L 318.903717 31.712786 
L 320.966815 34.472338 
L 323.013098 33.294102 
L 325.079849 32.33291 
L 327.132804 33.449133 
L 329.171528 33.449133 
L 331.256228 31.557755 
L 333.466744 31.681779 
L 335.564579 30.503544 
L 337.614648 30.751593 
L 339.710075 30.2865 
L 341.836123 31.18568 
L 343.914036 29.480339 
L 346.032328 30.255494 
L 348.29207 29.604364 
L 350.380806 30.038451 
L 352.460639 29.480339 
L 354.56013 29.418327 
L 356.68069 29.852413 
L 358.798151 30.162475 
L 360.919586 31.092662 
L 363.008949 30.379519 
L 365.187046 30.596562 
L 369.325985 30.193482 
L 371.44041 30.472538 
L 373.489135 29.976438 
L 375.638723 30.875618 
L 377.80393 31.278699 
L 377.80393 31.278699 
" style="fill:none;stroke:#ff7f0e;stroke-linecap:square;stroke-width:1.5;"/>
   </g>
   <g id="line2d_16">
    <path clip-path="url(#pe2580d35f7)" d="M 63.004227 289.188306 
L 65.084933 284.723412 
L 67.19 266.243715 
L 69.234739 260.654846 
L 73.394012 239.942702 
L 77.851275 192.945048 
L 79.950913 188.092577 
L 82.119184 155.179491 
L 84.180332 135.521558 
L 86.308455 119.274307 
L 88.440822 119.119275 
L 90.511162 107.584967 
L 92.648317 102.779006 
L 94.885529 102.996049 
L 96.985094 105.011453 
L 99.070826 85.291507 
L 101.157738 86.40773 
L 103.193506 88.888226 
L 105.273269 87.05886 
L 107.403913 88.144077 
L 109.633378 85.136476 
L 111.724778 85.942637 
L 113.808733 82.066861 
L 115.97185 78.687185 
L 118.072914 81.694787 
L 120.121172 76.547757 
L 122.242574 78.098067 
L 124.34152 86.252699 
L 126.651604 76.981844 
L 128.714291 75.834614 
L 130.903987 72.671982 
L 132.999533 72.268901 
L 135.078361 64.238294 
L 137.101592 71.679783 
L 139.182707 76.7648 
L 141.375048 71.121671 
L 145.478388 66.904828 
L 147.492938 62.036853 
L 149.534303 64.827412 
L 151.634554 68.393125 
L 153.779275 66.842815 
L 155.92659 71.183684 
L 158.16885 70.904628 
L 160.227677 62.253897 
L 162.339199 62.936033 
L 164.440786 59.12227 
L 166.554536 61.726791 
L 168.739325 56.796805 
L 170.774453 59.897425 
L 173.037483 62.998046 
L 175.20077 61.943835 
L 179.471299 56.455737 
L 181.62217 54.533352 
L 183.658399 53.696185 
L 185.76731 58.099066 
L 187.885766 55.463538 
L 190.152145 61.013649 
L 192.275216 60.486543 
L 194.398965 57.882022 
L 196.474148 54.750395 
L 198.503333 54.564358 
L 200.571567 51.711787 
L 202.659227 51.339713 
L 204.828248 56.238693 
L 206.971191 51.742794 
L 209.065172 54.006247 
L 211.141223 55.091464 
L 213.261735 49.541353 
L 215.314261 53.820209 
L 217.45651 53.913228 
L 219.576494 51.52575 
L 221.841219 49.417328 
L 223.928891 50.812608 
L 225.987739 48.332111 
L 228.063334 52.579961 
L 230.207523 47.618968 
L 232.323204 48.983241 
L 234.474679 49.634372 
L 236.549601 47.742993 
L 238.796986 46.657776 
L 240.847853 48.270099 
L 242.918432 47.308906 
L 245.124294 48.642173 
L 249.35751 40.58056 
L 251.494647 45.665578 
L 253.717897 43.061056 
L 257.885214 42.161877 
L 260.015657 45.417528 
L 262.151594 41.944833 
L 264.204272 41.262697 
L 266.229996 41.386721 
L 268.272407 43.495143 
L 270.51112 40.456535 
L 272.645678 44.518348 
L 274.721167 36.394723 
L 276.791613 40.983641 
L 278.879307 39.371318 
L 280.965871 39.774399 
L 283.084349 39.557355 
L 285.306239 38.875219 
L 287.41998 36.859816 
L 289.593814 36.890822 
L 291.763729 35.867617 
L 293.873621 39.991442 
L 295.899481 39.805405 
L 297.945121 38.937231 
L 300.100552 37.293902 
L 302.318435 37.355915 
L 304.423598 39.867417 
L 306.47695 35.960636 
L 308.528011 32.549953 
L 310.622689 36.58076 
L 312.747936 33.88322 
L 314.876506 35.43353 
L 317.052414 34.937431 
L 319.175146 32.953034 
L 321.285194 32.177879 
L 323.317551 33.821208 
L 325.327847 31.216686 
L 327.401842 31.867817 
L 329.429551 31.836811 
L 331.47911 32.580959 
L 333.741475 32.611966 
L 335.823396 30.689581 
L 337.938403 32.704984 
L 339.972761 31.867817 
L 341.9935 32.425928 
L 344.025072 30.596562 
L 346.163026 30.193482 
L 348.314077 31.867817 
L 350.429457 31.557755 
L 352.467234 30.689581 
L 354.550999 31.18568 
L 356.649666 31.030649 
L 358.809477 31.43373 
L 360.876945 31.495742 
L 362.9755 30.689581 
L 365.230491 30.906624 
L 369.548144 31.061655 
L 371.696268 30.751593 
L 373.773317 31.154674 
L 375.879866 31.216686 
L 377.989344 31.092662 
L 377.989344 31.092662 
" style="fill:none;stroke:#2ca02c;stroke-linecap:square;stroke-width:1.5;"/>
   </g>
   <g id="line2d_17">
    <path clip-path="url(#pe2580d35f7)" d="M 62.980167 289.064281 
L 65.042433 284.475363 
L 67.133242 266.987864 
L 69.196856 255.709357 
L 71.315189 235.725858 
L 73.37845 229.532369 
L 75.360588 194.572874 
L 77.529616 181.767311 
L 79.714778 160.931142 
L 81.759847 143.955245 
L 83.810296 129.072267 
L 85.909613 116.514754 
L 87.969205 114.189289 
L 90.014968 112.328917 
L 92.05109 115.553562 
L 94.269628 105.755601 
L 96.328168 97.35292 
L 98.358383 88.268102 
L 100.495173 80.702588 
L 102.520936 87.772003 
L 104.490951 88.020053 
L 106.549197 85.911631 
L 108.775212 94.996449 
L 110.858885 83.05906 
L 112.948339 82.15988 
L 115.025613 81.415731 
L 117.16608 79.493346 
L 119.242762 73.261099 
L 121.273221 80.237495 
L 123.348668 79.214291 
L 125.615694 75.121472 
L 127.685545 70.160479 
L 129.70517 75.679583 
L 131.82442 67.835014 
L 133.962377 65.757598 
L 136.058768 68.672181 
L 138.103351 76.36172 
L 140.353316 79.028253 
L 142.500472 65.478542 
L 144.573092 69.66438 
L 146.64729 65.81961 
L 148.776333 65.726592 
L 150.830277 64.827412 
L 152.897469 66.31571 
L 155.019838 66.563759 
L 157.266404 68.548156 
L 159.348996 73.385124 
L 161.460534 62.96704 
L 163.610585 60.765599 
L 165.702787 56.951836 
L 167.837922 59.401326 
L 169.933102 57.975041 
L 172.188657 66.811809 
L 174.33326 59.61837 
L 176.483451 65.199486 
L 178.570178 57.075861 
L 180.608467 62.594965 
L 182.664417 53.510147 
L 184.763806 60.114469 
L 186.91664 56.765799 
L 191.193597 58.47114 
L 193.314684 54.998445 
L 195.410181 57.975041 
L 197.46496 59.61837 
L 199.525503 53.417129 
L 201.573435 50.998645 
L 203.780835 52.052856 
L 205.89984 56.92083 
L 207.958645 57.199886 
L 210.021331 52.517949 
L 212.098697 55.649575 
L 214.254859 49.820409 
L 216.360533 51.742794 
L 218.386988 48.301105 
L 220.580998 56.269699 
L 222.574077 57.664979 
L 224.586344 46.533751 
L 226.673851 50.068459 
L 228.83213 49.231291 
L 230.874294 47.153875 
L 233.004576 50.316508 
L 235.098072 46.781801 
L 237.280771 50.037452 
L 239.398131 45.665578 
L 241.482488 45.851615 
L 243.56799 52.331912 
L 245.643213 43.681181 
L 247.74572 46.440733 
L 249.841605 45.417528 
L 252.045225 47.867018 
L 254.078823 43.743193 
L 256.279885 44.115267 
L 258.297688 41.169678 
L 260.364318 40.301504 
L 262.475077 42.813007 
L 264.60687 41.324709 
L 266.657473 39.185281 
L 268.861283 38.596163 
L 270.903049 40.115467 
L 272.9406 38.348113 
L 275.081682 39.991442 
L 277.19244 43.061056 
L 279.363947 40.456535 
L 281.445712 40.084461 
L 283.701057 39.092262 
L 287.928868 37.665977 
L 290.054309 38.37912 
L 292.147345 38.720188 
L 294.206226 36.58076 
L 296.299022 37.293902 
L 298.423045 36.859816 
L 300.59454 38.224089 
L 302.702749 37.262896 
L 304.835887 35.092462 
L 306.951266 35.464536 
L 309.02265 35.185481 
L 311.083904 33.728189 
L 313.133601 35.991642 
L 315.292282 34.689381 
L 317.334582 31.712786 
L 319.365549 32.611966 
L 321.472682 33.976239 
L 323.574947 33.759195 
L 325.627895 32.891021 
L 327.764011 33.666177 
L 329.837527 34.844412 
L 332.055395 33.294102 
L 334.156578 32.642972 
L 336.19383 32.363916 
L 338.215213 32.766997 
L 340.31924 33.914226 
L 342.43964 31.278699 
L 344.603255 32.860015 
L 346.818615 32.922028 
L 348.849294 30.999643 
L 350.8348 30.937631 
L 352.831526 31.278699 
L 354.802954 31.216686 
L 356.922107 31.526748 
L 358.938533 31.061655 
L 361.054669 31.030649 
L 363.243098 31.743792 
L 365.281097 30.937631 
L 367.335337 31.526748 
L 369.383101 31.619767 
L 371.462242 31.588761 
L 373.525608 31.061655 
L 375.570286 31.557755 
L 375.570286 31.557755 
" style="fill:none;stroke:#d62728;stroke-linecap:square;stroke-width:1.5;"/>
   </g>
   <g id="patch_3">
    <path d="M 44.57 303.64 
L 44.57 10.8 
" style="fill:none;stroke:#000000;stroke-linecap:square;stroke-linejoin:miter;stroke-width:0.8;"/>
   </g>
   <g id="patch_4">
    <path d="M 449.572485 303.64 
L 449.572485 10.8 
" style="fill:none;stroke:#000000;stroke-linecap:square;stroke-linejoin:miter;stroke-width:0.8;"/>
   </g>
   <g id="patch_5">
    <path d="M 44.57 303.64 
L 449.572485 303.64 
" style="fill:none;stroke:#000000;stroke-linecap:square;stroke-linejoin:miter;stroke-width:0.8;"/>
   </g>
   <g id="patch_6">
    <path d="M 44.57 10.8 
L 449.572485 10.8 
" style="fill:none;stroke:#000000;stroke-linecap:square;stroke-linejoin:miter;stroke-width:0.8;"/>
   </g>
   <g id="legend_1">
    <g id="patch_7">
     <path d="M 321.086547 298.64 
L 442.572485 298.64 
Q 444.572485 298.64 444.572485 296.64 
L 444.572485 238.9275 
Q 444.572485 236.9275 442.572485 236.9275 
L 321.086547 236.9275 
Q 319.086547 236.9275 319.086547 238.9275 
L 319.086547 296.64 
Q 319.086547 298.64 321.086547 298.64 
z
" style="fill:#ffffff;opacity:0.8;stroke:#cccccc;stroke-linejoin:miter;"/>
    </g>
    <g id="line2d_18">
     <path d="M 323.086547 245.025937 
L 343.086547 245.025937 
" style="fill:none;stroke:#1f77b4;stroke-linecap:square;stroke-width:1.5;"/>
    </g>
    <g id="line2d_19"/>
    <g id="text_16">
     <!-- AllReduce SGD -->
     <g transform="translate(351.086547 248.525937)scale(0.1 -0.1)">
      <defs>
       <path d="M 9.421875 75.984375 
L 18.40625 75.984375 
L 18.40625 0 
L 9.421875 0 
z
" id="DejaVuSans-108"/>
       <path d="M 44.390625 34.1875 
Q 47.5625 33.109375 50.5625 29.59375 
Q 53.5625 26.078125 56.59375 19.921875 
L 66.609375 0 
L 56 0 
L 46.6875 18.703125 
Q 43.0625 26.03125 39.671875 28.421875 
Q 36.28125 30.8125 30.421875 30.8125 
L 19.671875 30.8125 
L 19.671875 0 
L 9.8125 0 
L 9.8125 72.90625 
L 32.078125 72.90625 
Q 44.578125 72.90625 50.734375 67.671875 
Q 56.890625 62.453125 56.890625 51.90625 
Q 56.890625 45.015625 53.6875 40.46875 
Q 50.484375 35.9375 44.390625 34.1875 
z
M 19.671875 64.796875 
L 19.671875 38.921875 
L 32.078125 38.921875 
Q 39.203125 38.921875 42.84375 42.21875 
Q 46.484375 45.515625 46.484375 51.90625 
Q 46.484375 58.296875 42.84375 61.546875 
Q 39.203125 64.796875 32.078125 64.796875 
z
" id="DejaVuSans-82"/>
       <path d="M 45.40625 46.390625 
L 45.40625 75.984375 
L 54.390625 75.984375 
L 54.390625 0 
L 45.40625 0 
L 45.40625 8.203125 
Q 42.578125 3.328125 38.25 0.953125 
Q 33.9375 -1.421875 27.875 -1.421875 
Q 17.96875 -1.421875 11.734375 6.484375 
Q 5.515625 14.40625 5.515625 27.296875 
Q 5.515625 40.1875 11.734375 48.09375 
Q 17.96875 56 27.875 56 
Q 33.9375 56 38.25 53.625 
Q 42.578125 51.265625 45.40625 46.390625 
z
M 14.796875 27.296875 
Q 14.796875 17.390625 18.875 11.75 
Q 22.953125 6.109375 30.078125 6.109375 
Q 37.203125 6.109375 41.296875 11.75 
Q 45.40625 17.390625 45.40625 27.296875 
Q 45.40625 37.203125 41.296875 42.84375 
Q 37.203125 48.484375 30.078125 48.484375 
Q 22.953125 48.484375 18.875 42.84375 
Q 14.796875 37.203125 14.796875 27.296875 
z
" id="DejaVuSans-100"/>
       <path d="M 53.515625 70.515625 
L 53.515625 60.890625 
Q 47.90625 63.578125 42.921875 64.890625 
Q 37.9375 66.21875 33.296875 66.21875 
Q 25.25 66.21875 20.875 63.09375 
Q 16.5 59.96875 16.5 54.203125 
Q 16.5 49.359375 19.40625 46.890625 
Q 22.3125 44.4375 30.421875 42.921875 
L 36.375 41.703125 
Q 47.40625 39.59375 52.65625 34.296875 
Q 57.90625 29 57.90625 20.125 
Q 57.90625 9.515625 50.796875 4.046875 
Q 43.703125 -1.421875 29.984375 -1.421875 
Q 24.8125 -1.421875 18.96875 -0.25 
Q 13.140625 0.921875 6.890625 3.21875 
L 6.890625 13.375 
Q 12.890625 10.015625 18.65625 8.296875 
Q 24.421875 6.59375 29.984375 6.59375 
Q 38.421875 6.59375 43.015625 9.90625 
Q 47.609375 13.234375 47.609375 19.390625 
Q 47.609375 24.75 44.3125 27.78125 
Q 41.015625 30.8125 33.5 32.328125 
L 27.484375 33.5 
Q 16.453125 35.6875 11.515625 40.375 
Q 6.59375 45.0625 6.59375 53.421875 
Q 6.59375 63.09375 13.40625 68.65625 
Q 20.21875 74.21875 32.171875 74.21875 
Q 37.3125 74.21875 42.625 73.28125 
Q 47.953125 72.359375 53.515625 70.515625 
z
" id="DejaVuSans-83"/>
       <path d="M 59.515625 10.40625 
L 59.515625 29.984375 
L 43.40625 29.984375 
L 43.40625 38.09375 
L 69.28125 38.09375 
L 69.28125 6.78125 
Q 63.578125 2.734375 56.6875 0.65625 
Q 49.8125 -1.421875 42 -1.421875 
Q 24.90625 -1.421875 15.25 8.5625 
Q 5.609375 18.5625 5.609375 36.375 
Q 5.609375 54.25 15.25 64.234375 
Q 24.90625 74.21875 42 74.21875 
Q 49.125 74.21875 55.546875 72.453125 
Q 61.96875 70.703125 67.390625 67.28125 
L 67.390625 56.78125 
Q 61.921875 61.421875 55.765625 63.765625 
Q 49.609375 66.109375 42.828125 66.109375 
Q 29.4375 66.109375 22.71875 58.640625 
Q 16.015625 51.171875 16.015625 36.375 
Q 16.015625 21.625 22.71875 14.15625 
Q 29.4375 6.6875 42.828125 6.6875 
Q 48.046875 6.6875 52.140625 7.59375 
Q 56.25 8.5 59.515625 10.40625 
z
" id="DejaVuSans-71"/>
       <path d="M 19.671875 64.796875 
L 19.671875 8.109375 
L 31.59375 8.109375 
Q 46.6875 8.109375 53.6875 14.9375 
Q 60.6875 21.78125 60.6875 36.53125 
Q 60.6875 51.171875 53.6875 57.984375 
Q 46.6875 64.796875 31.59375 64.796875 
z
M 9.8125 72.90625 
L 30.078125 72.90625 
Q 51.265625 72.90625 61.171875 64.09375 
Q 71.09375 55.28125 71.09375 36.53125 
Q 71.09375 17.671875 61.125 8.828125 
Q 51.171875 0 30.078125 0 
L 9.8125 0 
z
" id="DejaVuSans-68"/>
      </defs>
      <use xlink:href="#DejaVuSans-65"/>
      <use x="68.408203" xlink:href="#DejaVuSans-108"/>
      <use x="96.191406" xlink:href="#DejaVuSans-108"/>
      <use x="123.974609" xlink:href="#DejaVuSans-82"/>
      <use x="188.957031" xlink:href="#DejaVuSans-101"/>
      <use x="250.480469" xlink:href="#DejaVuSans-100"/>
      <use x="313.957031" xlink:href="#DejaVuSans-117"/>
      <use x="377.335938" xlink:href="#DejaVuSans-99"/>
      <use x="432.316406" xlink:href="#DejaVuSans-101"/>
      <use x="493.839844" xlink:href="#DejaVuSans-32"/>
      <use x="525.626953" xlink:href="#DejaVuSans-83"/>
      <use x="589.103516" xlink:href="#DejaVuSans-71"/>
      <use x="666.59375" xlink:href="#DejaVuSans-68"/>
     </g>
    </g>
    <g id="line2d_20">
     <path d="M 323.086547 259.704062 
L 343.086547 259.704062 
" style="fill:none;stroke:#ff7f0e;stroke-linecap:square;stroke-width:1.5;"/>
    </g>
    <g id="line2d_21"/>
    <g id="text_17">
     <!-- GRandK-MN 8 bits -->
     <g transform="translate(351.086547 263.204062)scale(0.1 -0.1)">
      <defs>
       <path d="M 54.890625 33.015625 
L 54.890625 0 
L 45.90625 0 
L 45.90625 32.71875 
Q 45.90625 40.484375 42.875 44.328125 
Q 39.84375 48.1875 33.796875 48.1875 
Q 26.515625 48.1875 22.3125 43.546875 
Q 18.109375 38.921875 18.109375 30.90625 
L 18.109375 0 
L 9.078125 0 
L 9.078125 54.6875 
L 18.109375 54.6875 
L 18.109375 46.1875 
Q 21.34375 51.125 25.703125 53.5625 
Q 30.078125 56 35.796875 56 
Q 45.21875 56 50.046875 50.171875 
Q 54.890625 44.34375 54.890625 33.015625 
z
" id="DejaVuSans-110"/>
       <path d="M 9.8125 72.90625 
L 19.671875 72.90625 
L 19.671875 42.09375 
L 52.390625 72.90625 
L 65.09375 72.90625 
L 28.90625 38.921875 
L 67.671875 0 
L 54.6875 0 
L 19.671875 35.109375 
L 19.671875 0 
L 9.8125 0 
z
" id="DejaVuSans-75"/>
       <path d="M 4.890625 31.390625 
L 31.203125 31.390625 
L 31.203125 23.390625 
L 4.890625 23.390625 
z
" id="DejaVuSans-45"/>
       <path d="M 9.8125 72.90625 
L 24.515625 72.90625 
L 43.109375 23.296875 
L 61.8125 72.90625 
L 76.515625 72.90625 
L 76.515625 0 
L 66.890625 0 
L 66.890625 64.015625 
L 48.09375 14.015625 
L 38.1875 14.015625 
L 19.390625 64.015625 
L 19.390625 0 
L 9.8125 0 
z
" id="DejaVuSans-77"/>
       <path d="M 9.8125 72.90625 
L 23.09375 72.90625 
L 55.421875 11.921875 
L 55.421875 72.90625 
L 64.984375 72.90625 
L 64.984375 0 
L 51.703125 0 
L 19.390625 60.984375 
L 19.390625 0 
L 9.8125 0 
z
" id="DejaVuSans-78"/>
       <path d="M 48.6875 27.296875 
Q 48.6875 37.203125 44.609375 42.84375 
Q 40.53125 48.484375 33.40625 48.484375 
Q 26.265625 48.484375 22.1875 42.84375 
Q 18.109375 37.203125 18.109375 27.296875 
Q 18.109375 17.390625 22.1875 11.75 
Q 26.265625 6.109375 33.40625 6.109375 
Q 40.53125 6.109375 44.609375 11.75 
Q 48.6875 17.390625 48.6875 27.296875 
z
M 18.109375 46.390625 
Q 20.953125 51.265625 25.265625 53.625 
Q 29.59375 56 35.59375 56 
Q 45.5625 56 51.78125 48.09375 
Q 58.015625 40.1875 58.015625 27.296875 
Q 58.015625 14.40625 51.78125 6.484375 
Q 45.5625 -1.421875 35.59375 -1.421875 
Q 29.59375 -1.421875 25.265625 0.953125 
Q 20.953125 3.328125 18.109375 8.203125 
L 18.109375 0 
L 9.078125 0 
L 9.078125 75.984375 
L 18.109375 75.984375 
z
" id="DejaVuSans-98"/>
      </defs>
      <use xlink:href="#DejaVuSans-71"/>
      <use x="77.490234" xlink:href="#DejaVuSans-82"/>
      <use x="144.722656" xlink:href="#DejaVuSans-97"/>
      <use x="206.001953" xlink:href="#DejaVuSans-110"/>
      <use x="269.380859" xlink:href="#DejaVuSans-100"/>
      <use x="332.857422" xlink:href="#DejaVuSans-75"/>
      <use x="387.933594" xlink:href="#DejaVuSans-45"/>
      <use x="424.017578" xlink:href="#DejaVuSans-77"/>
      <use x="510.296875" xlink:href="#DejaVuSans-78"/>
      <use x="585.101562" xlink:href="#DejaVuSans-32"/>
      <use x="616.888672" xlink:href="#DejaVuSans-56"/>
      <use x="680.511719" xlink:href="#DejaVuSans-32"/>
      <use x="712.298828" xlink:href="#DejaVuSans-98"/>
      <use x="775.775391" xlink:href="#DejaVuSans-105"/>
      <use x="803.558594" xlink:href="#DejaVuSans-116"/>
      <use x="842.767578" xlink:href="#DejaVuSans-115"/>
     </g>
    </g>
    <g id="line2d_22">
     <path d="M 323.086547 274.382187 
L 343.086547 274.382187 
" style="fill:none;stroke:#2ca02c;stroke-linecap:square;stroke-width:1.5;"/>
    </g>
    <g id="line2d_23"/>
    <g id="text_18">
     <!-- GRandK-MN 4 bits -->
     <g transform="translate(351.086547 277.882187)scale(0.1 -0.1)">
      <use xlink:href="#DejaVuSans-71"/>
      <use x="77.490234" xlink:href="#DejaVuSans-82"/>
      <use x="144.722656" xlink:href="#DejaVuSans-97"/>
      <use x="206.001953" xlink:href="#DejaVuSans-110"/>
      <use x="269.380859" xlink:href="#DejaVuSans-100"/>
      <use x="332.857422" xlink:href="#DejaVuSans-75"/>
      <use x="387.933594" xlink:href="#DejaVuSans-45"/>
      <use x="424.017578" xlink:href="#DejaVuSans-77"/>
      <use x="510.296875" xlink:href="#DejaVuSans-78"/>
      <use x="585.101562" xlink:href="#DejaVuSans-32"/>
      <use x="616.888672" xlink:href="#DejaVuSans-52"/>
      <use x="680.511719" xlink:href="#DejaVuSans-32"/>
      <use x="712.298828" xlink:href="#DejaVuSans-98"/>
      <use x="775.775391" xlink:href="#DejaVuSans-105"/>
      <use x="803.558594" xlink:href="#DejaVuSans-116"/>
      <use x="842.767578" xlink:href="#DejaVuSans-115"/>
     </g>
    </g>
    <g id="line2d_24">
     <path d="M 323.086547 289.060312 
L 343.086547 289.060312 
" style="fill:none;stroke:#d62728;stroke-linecap:square;stroke-width:1.5;"/>
    </g>
    <g id="line2d_25"/>
    <g id="text_19">
     <!-- GRandK-MN 2 bits -->
     <g transform="translate(351.086547 292.560312)scale(0.1 -0.1)">
      <use xlink:href="#DejaVuSans-71"/>
      <use x="77.490234" xlink:href="#DejaVuSans-82"/>
      <use x="144.722656" xlink:href="#DejaVuSans-97"/>
      <use x="206.001953" xlink:href="#DejaVuSans-110"/>
      <use x="269.380859" xlink:href="#DejaVuSans-100"/>
      <use x="332.857422" xlink:href="#DejaVuSans-75"/>
      <use x="387.933594" xlink:href="#DejaVuSans-45"/>
      <use x="424.017578" xlink:href="#DejaVuSans-77"/>
      <use x="510.296875" xlink:href="#DejaVuSans-78"/>
      <use x="585.101562" xlink:href="#DejaVuSans-32"/>
      <use x="616.888672" xlink:href="#DejaVuSans-50"/>
      <use x="680.511719" xlink:href="#DejaVuSans-32"/>
      <use x="712.298828" xlink:href="#DejaVuSans-98"/>
      <use x="775.775391" xlink:href="#DejaVuSans-105"/>
      <use x="803.558594" xlink:href="#DejaVuSans-116"/>
      <use x="842.767578" xlink:href="#DejaVuSans-115"/>
     </g>
    </g>
   </g>
  </g>
 </g>
 <defs>
  <clipPath id="pe2580d35f7">
   <rect height="292.84" width="405.002485" x="44.57" y="10.8"/>
  </clipPath>
 </defs>
</svg>
