<?xml version="1.0" encoding="utf-8" standalone="no"?>
<!DOCTYPE svg PUBLIC "-//W3C//DTD SVG 1.1//EN"
  "http://www.w3.org/Graphics/SVG/1.1/DTD/svg11.dtd">
<!-- Created with matplotlib (https://matplotlib.org/) -->
<svg height="345.6pt" version="1.1" viewBox="0 0 460.8 345.6" width="460.8pt" xmlns="http://www.w3.org/2000/svg" xmlns:xlink="http://www.w3.org/1999/xlink">
 <metadata>
  <rdf:RDF xmlns:cc="http://creativecommons.org/ns#" xmlns:dc="http://purl.org/dc/elements/1.1/" xmlns:rdf="http://www.w3.org/1999/02/22-rdf-syntax-ns#">
   <cc:Work>
    <dc:type rdf:resource="http://purl.org/dc/dcmitype/StillImage"/>
    <dc:date>2021-06-10T08:56:23.177292</dc:date>
    <dc:format>image/svg+xml</dc:format>
    <dc:creator>
     <cc:Agent>
      <dc:title>Matplotlib v3.3.1, https://matplotlib.org/</dc:title>
     </cc:Agent>
    </dc:creator>
   </cc:Work>
  </rdf:RDF>
 </metadata>
 <defs>
  <style type="text/css">*{stroke-linecap:butt;stroke-linejoin:round;}</style>
 </defs>
 <g id="figure_1">
  <g id="patch_1">
   <path d="M 0 345.6 
L 460.8 345.6 
L 460.8 0 
L 0 0 
z
" style="fill:#ffffff;"/>
  </g>
  <g id="axes_1">
   <g id="patch_2">
    <path d="M 44.57 303.64 
L 450 303.64 
L 450 10.8 
L 44.57 10.8 
z
" style="fill:#ffffff;"/>
   </g>
   <g id="PolyCollection_1">
    <path clip-path="url(#pb71b0dc8ae)" d="M 62.998636 266.472492 
L 62.998636 290.329091 
L 65.472279 274.667444 
L 67.945921 258.137547 
L 70.419564 241.228106 
L 72.893206 219.908787 
L 75.366849 203.538239 
L 77.840491 181.956138 
L 80.314134 172.615352 
L 82.787776 155.418182 
L 85.261419 146.148583 
L 87.735061 115.676423 
L 90.208703 131.440669 
L 92.682346 124.713098 
L 95.155988 100.482261 
L 97.629631 104.395007 
L 100.103273 98.530409 
L 102.576916 88.66219 
L 105.050558 87.61923 
L 107.524201 75.486465 
L 109.997843 87.084599 
L 112.471486 83.410445 
L 114.945128 92.340963 
L 117.418771 94.639974 
L 119.892413 78.356074 
L 122.366056 83.902387 
L 124.839698 81.171963 
L 127.31334 75.269662 
L 129.786983 72.015912 
L 132.260625 76.593434 
L 134.734268 68.355395 
L 137.20791 69.947848 
L 139.681553 62.328356 
L 142.155195 71.885434 
L 144.628838 64.997211 
L 147.10248 63.038748 
L 149.576123 69.308447 
L 152.049765 66.23624 
L 154.523408 65.397652 
L 156.99705 64.735446 
L 159.470692 76.613091 
L 161.944335 54.084774 
L 164.417977 57.738658 
L 166.89162 63.602753 
L 169.365262 58.549397 
L 171.838905 64.097367 
L 174.312547 71.528832 
L 176.78619 60.861374 
L 179.259832 60.28661 
L 181.733475 61.074377 
L 184.207117 61.645701 
L 186.68076 58.353427 
L 189.154402 59.10782 
L 191.628045 66.116602 
L 194.101687 60.824463 
L 196.575329 58.332557 
L 199.048972 65.763505 
L 201.522614 59.20247 
L 203.996257 50.066567 
L 206.469899 54.505265 
L 208.943542 54.506802 
L 211.417184 57.099053 
L 213.890827 56.694528 
L 216.364469 48.445904 
L 218.838112 54.122108 
L 221.311754 54.502152 
L 223.785397 56.103829 
L 226.259039 55.586945 
L 228.732682 52.761014 
L 231.206324 52.179561 
L 233.679966 53.768553 
L 236.153609 53.391733 
L 238.627251 55.579569 
L 241.100894 46.938252 
L 243.574536 49.503617 
L 246.048179 46.754153 
L 248.521821 47.543862 
L 250.995464 46.117183 
L 253.469106 48.208644 
L 255.942749 45.066711 
L 258.416391 42.872366 
L 260.890034 44.467382 
L 263.363676 49.07762 
L 265.837318 48.105731 
L 268.310961 43.964825 
L 270.784603 48.751104 
L 273.258246 53.743165 
L 275.731888 43.376865 
L 278.205531 39.915606 
L 280.679173 43.729527 
L 283.152816 44.65395 
L 285.626458 44.156834 
L 288.100101 47.696798 
L 290.573743 44.462763 
L 293.047386 41.100705 
L 295.521028 37.309149 
L 297.994671 44.937249 
L 300.468313 41.077788 
L 302.941955 42.366029 
L 305.415598 38.762466 
L 307.88924 38.95242 
L 310.362883 38.006903 
L 312.836525 36.986327 
L 315.310168 36.68359 
L 317.78381 38.842306 
L 320.257453 40.466263 
L 322.731095 38.940852 
L 325.204738 36.66695 
L 327.67838 38.683739 
L 330.152023 40.38688 
L 332.625665 39.657246 
L 335.099308 34.054488 
L 337.57295 40.448819 
L 340.046592 34.950012 
L 342.520235 34.454172 
L 344.993877 33.488734 
L 347.46752 33.964497 
L 349.941162 33.681301 
L 352.414805 35.561498 
L 354.888447 30.926513 
L 357.36209 35.544495 
L 359.835732 32.789146 
L 362.309375 33.164702 
L 364.783017 31.60038 
L 367.25666 31.904546 
L 369.730302 32.092089 
L 372.203944 31.199397 
L 374.677587 31.210186 
L 377.151229 31.405901 
L 379.624872 30.512932 
L 382.098514 31.669618 
L 384.572157 29.574565 
L 387.045799 29.949507 
L 389.519442 30.352871 
L 391.993084 28.535402 
L 394.466727 29.107717 
L 396.940369 29.948443 
L 399.414012 28.72955 
L 401.887654 29.375945 
L 404.361297 29.111251 
L 406.834939 30.49677 
L 409.308581 30.220505 
L 411.782224 29.410664 
L 414.255866 29.327098 
L 416.729509 29.690612 
L 419.203151 29.3356 
L 421.676794 28.837968 
L 424.150436 29.877019 
L 426.624079 29.043302 
L 429.097721 28.115566 
L 431.571364 28.919775 
L 431.571364 25.542007 
L 431.571364 25.542007 
L 429.097721 24.110909 
L 426.624079 25.055998 
L 424.150436 25.732623 
L 421.676794 24.355126 
L 419.203151 25.609491 
L 416.729509 25.314893 
L 414.255866 24.651375 
L 411.782224 25.292772 
L 409.308581 25.993274 
L 406.834939 25.596181 
L 404.361297 25.471358 
L 401.887654 24.421286 
L 399.414012 24.523959 
L 396.940369 25.661199 
L 394.466727 26.139443 
L 391.993084 25.443071 
L 389.519442 27.008768 
L 387.045799 25.962204 
L 384.572157 24.826803 
L 382.098514 24.604574 
L 379.624872 25.398779 
L 377.151229 25.472428 
L 374.677587 26.091039 
L 372.203944 27.189275 
L 369.730302 27.323615 
L 367.25666 27.027848 
L 364.783017 29.265252 
L 362.309375 30.057065 
L 359.835732 28.1369 
L 357.36209 29.429269 
L 354.888447 29.334982 
L 352.414805 30.499711 
L 349.941162 29.480052 
L 347.46752 31.794644 
L 344.993877 30.216342 
L 342.520235 31.365383 
L 340.046592 32.259058 
L 337.57295 33.043274 
L 335.099308 31.160931 
L 332.625665 32.807815 
L 330.152023 34.615555 
L 327.67838 31.304361 
L 325.204738 31.508739 
L 322.731095 34.430413 
L 320.257453 35.684032 
L 317.78381 33.501927 
L 315.310168 34.452369 
L 312.836525 34.995424 
L 310.362883 31.256232 
L 307.88924 33.935537 
L 305.415598 31.16522 
L 302.941955 33.905093 
L 300.468313 36.039127 
L 297.994671 39.79179 
L 295.521028 34.370534 
L 293.047386 37.164069 
L 290.573743 34.587389 
L 288.100101 43.254851 
L 285.626458 39.363931 
L 283.152816 34.939925 
L 280.679173 38.280896 
L 278.205531 36.959654 
L 275.731888 39.539763 
L 273.258246 42.706129 
L 270.784603 41.898476 
L 268.310961 38.40808 
L 265.837318 38.556546 
L 263.363676 40.303273 
L 260.890034 40.865794 
L 258.416391 37.083991 
L 255.942749 40.749774 
L 253.469106 39.843148 
L 250.995464 40.907576 
L 248.521821 42.501581 
L 246.048179 38.69985 
L 243.574536 39.998103 
L 241.100894 39.844852 
L 238.627251 46.85068 
L 236.153609 42.755492 
L 233.679966 40.566262 
L 231.206324 41.309462 
L 228.732682 44.896554 
L 226.259039 46.662063 
L 223.785397 45.661869 
L 221.311754 46.901064 
L 218.838112 45.408284 
L 216.364469 42.203676 
L 213.890827 46.158617 
L 211.417184 49.983049 
L 208.943542 49.252548 
L 206.469899 45.025127 
L 203.996257 42.214182 
L 201.522614 41.354954 
L 199.048972 55.213746 
L 196.575329 47.601685 
L 194.101687 50.063702 
L 191.628045 49.785899 
L 189.154402 48.518006 
L 186.68076 48.245367 
L 184.207117 47.973776 
L 181.733475 52.109507 
L 179.259832 46.735079 
L 176.78619 50.630927 
L 174.312547 47.817249 
L 171.838905 50.778101 
L 169.365262 52.157527 
L 166.89162 50.668579 
L 164.417977 49.76634 
L 161.944335 49.976644 
L 159.470692 60.011304 
L 156.99705 50.9254 
L 154.523408 48.329957 
L 152.049765 51.961981 
L 149.576123 53.481214 
L 147.10248 53.649131 
L 144.628838 56.765417 
L 142.155195 63.711929 
L 139.681553 56.957311 
L 137.20791 56.708289 
L 134.734268 51.836477 
L 132.260625 62.387095 
L 129.786983 58.567114 
L 127.31334 67.879411 
L 124.839698 67.958066 
L 122.366056 63.052749 
L 119.892413 62.557693 
L 117.418771 58.416944 
L 114.945128 61.561746 
L 112.471486 65.779997 
L 109.997843 78.961261 
L 107.524201 64.219029 
L 105.050558 73.533122 
L 102.576916 76.175396 
L 100.103273 73.55682 
L 97.629631 87.32667 
L 95.155988 80.123297 
L 92.682346 93.228119 
L 90.208703 98.099976 
L 87.735061 106.916647 
L 85.261419 114.867592 
L 82.787776 116.92556 
L 80.314134 142.048176 
L 77.840491 152.553286 
L 75.366849 174.952349 
L 72.893206 191.869742 
L 70.419564 218.669924 
L 67.945921 238.703452 
L 65.472279 248.54413 
L 62.998636 266.472492 
z
" style="fill:#1f77b4;fill-opacity:0.25;"/>
   </g>
   <g id="PolyCollection_2">
    <path clip-path="url(#pb71b0dc8ae)" d="M 62.998636 259.762633 
L 62.998636 271.665202 
L 65.472279 245.383344 
L 67.945921 224.189776 
L 70.419564 198.74752 
L 72.893206 188.819682 
L 75.366849 190.57485 
L 77.840491 163.703199 
L 80.314134 160.025715 
L 82.787776 148.071987 
L 85.261419 136.971371 
L 87.735061 125.892425 
L 90.208703 120.933039 
L 92.682346 132.262408 
L 95.155988 116.408071 
L 97.629631 112.270893 
L 100.103273 107.988733 
L 102.576916 107.7459 
L 105.050558 98.590119 
L 107.524201 97.957321 
L 109.997843 94.974697 
L 112.471486 105.688314 
L 114.945128 91.252706 
L 117.418771 92.403082 
L 119.892413 94.262501 
L 122.366056 85.99776 
L 124.839698 87.487696 
L 127.31334 86.154778 
L 129.786983 93.299009 
L 132.260625 90.010328 
L 134.734268 87.012917 
L 137.20791 77.304118 
L 139.681553 84.937099 
L 142.155195 85.663726 
L 144.628838 75.400232 
L 147.10248 75.571522 
L 149.576123 78.595061 
L 152.049765 77.648385 
L 154.523408 79.023699 
L 156.99705 76.262803 
L 159.470692 78.119541 
L 161.944335 71.599048 
L 164.417977 69.827464 
L 166.89162 76.08561 
L 169.365262 75.467238 
L 171.838905 62.056582 
L 174.312547 75.213866 
L 176.78619 77.870657 
L 179.259832 69.33071 
L 181.733475 61.518725 
L 184.207117 67.695438 
L 186.68076 67.252226 
L 189.154402 72.891673 
L 191.628045 68.148564 
L 194.101687 66.149965 
L 196.575329 65.753054 
L 199.048972 65.336803 
L 201.522614 69.626572 
L 203.996257 58.035592 
L 206.469899 67.109784 
L 208.943542 64.553828 
L 211.417184 70.459859 
L 213.890827 62.010666 
L 216.364469 62.502147 
L 218.838112 61.838519 
L 221.311754 60.58179 
L 223.785397 56.384775 
L 226.259039 65.796004 
L 228.732682 53.766988 
L 231.206324 55.677365 
L 233.679966 60.790141 
L 236.153609 67.639538 
L 238.627251 60.377607 
L 241.100894 57.481613 
L 243.574536 55.337171 
L 246.048179 54.596574 
L 248.521821 51.846381 
L 250.995464 57.912722 
L 253.469106 55.21924 
L 255.942749 54.420786 
L 258.416391 54.032344 
L 260.890034 52.26702 
L 263.363676 52.088432 
L 265.837318 57.165516 
L 268.310961 54.006255 
L 270.784603 55.616582 
L 273.258246 50.551946 
L 275.731888 46.655497 
L 278.205531 46.733867 
L 280.679173 45.095908 
L 283.152816 48.03818 
L 285.626458 46.485556 
L 288.100101 48.105575 
L 290.573743 50.501251 
L 293.047386 43.379523 
L 295.521028 48.81582 
L 297.994671 40.672936 
L 300.468313 49.40026 
L 302.941955 46.398186 
L 305.415598 42.370858 
L 307.88924 42.607454 
L 310.362883 43.020226 
L 312.836525 45.663787 
L 315.310168 44.676454 
L 317.78381 42.867143 
L 320.257453 46.516159 
L 322.731095 42.515554 
L 325.204738 39.186314 
L 327.67838 38.864344 
L 330.152023 39.414886 
L 332.625665 39.330469 
L 335.099308 40.384073 
L 337.57295 38.21197 
L 340.046592 40.245458 
L 342.520235 37.630963 
L 344.993877 37.83236 
L 347.46752 38.376758 
L 349.941162 35.696879 
L 352.414805 35.372359 
L 354.888447 33.997456 
L 357.36209 33.126982 
L 359.835732 34.201213 
L 362.309375 32.560436 
L 364.783017 35.313402 
L 367.25666 34.006274 
L 369.730302 33.795826 
L 372.203944 34.737804 
L 374.677587 30.070893 
L 377.151229 34.596485 
L 379.624872 30.424282 
L 382.098514 31.603958 
L 384.572157 30.586363 
L 387.045799 31.092453 
L 389.519442 30.556487 
L 391.993084 31.731253 
L 394.466727 31.379005 
L 396.940369 32.394157 
L 399.414012 29.553794 
L 401.887654 30.103432 
L 404.361297 31.415818 
L 406.834939 29.923569 
L 409.308581 32.048075 
L 411.782224 31.546783 
L 414.255866 32.057249 
L 416.729509 32.412844 
L 419.203151 31.237525 
L 421.676794 31.600946 
L 424.150436 31.433236 
L 426.624079 31.271272 
L 429.097721 31.374886 
L 431.571364 32.149075 
L 431.571364 27.206216 
L 431.571364 27.206216 
L 429.097721 26.530476 
L 426.624079 27.298641 
L 424.150436 26.351299 
L 421.676794 27.754344 
L 419.203151 26.969906 
L 416.729509 26.398723 
L 414.255866 25.96894 
L 411.782224 26.600234 
L 409.308581 27.246802 
L 406.834939 26.713106 
L 404.361297 25.885407 
L 401.887654 24.418764 
L 399.414012 26.539157 
L 396.940369 27.625684 
L 394.466727 27.915872 
L 391.993084 27.744865 
L 389.519442 26.382256 
L 387.045799 26.269186 
L 384.572157 29.131409 
L 382.098514 28.053401 
L 379.624872 27.118598 
L 377.151229 27.114939 
L 374.677587 28.438605 
L 372.203944 28.061067 
L 369.730302 28.338494 
L 367.25666 27.342669 
L 364.783017 31.231117 
L 362.309375 28.728093 
L 359.835732 29.926758 
L 357.36209 29.792716 
L 354.888447 30.070102 
L 352.414805 33.165812 
L 349.941162 32.297569 
L 347.46752 34.390371 
L 344.993877 33.001531 
L 342.520235 31.994654 
L 340.046592 36.267319 
L 337.57295 34.373918 
L 335.099308 34.497535 
L 332.625665 32.107559 
L 330.152023 36.91665 
L 327.67838 33.842371 
L 325.204738 36.239017 
L 322.731095 40.219833 
L 320.257453 39.300326 
L 317.78381 34.249771 
L 315.310168 36.669418 
L 312.836525 39.548561 
L 310.362883 38.38606 
L 307.88924 39.040487 
L 305.415598 38.189637 
L 302.941955 36.216374 
L 300.468313 42.336766 
L 297.994671 38.498043 
L 295.521028 39.53804 
L 293.047386 39.29545 
L 290.573743 42.262808 
L 288.100101 42.906487 
L 285.626458 42.230786 
L 283.152816 44.725879 
L 280.679173 41.868437 
L 278.205531 43.915713 
L 275.731888 43.812842 
L 273.258246 47.226449 
L 270.784603 47.901113 
L 268.310961 41.778489 
L 265.837318 49.493691 
L 263.363676 47.683615 
L 260.890034 46.296753 
L 258.416391 48.881214 
L 255.942749 48.311531 
L 253.469106 47.875559 
L 250.995464 50.136 
L 248.521821 46.234083 
L 246.048179 49.283603 
L 243.574536 50.536658 
L 241.100894 47.123528 
L 238.627251 54.135379 
L 236.153609 58.533289 
L 233.679966 50.883402 
L 231.206324 48.384054 
L 228.732682 47.454987 
L 226.259039 58.02069 
L 223.785397 48.28078 
L 221.311754 55.199883 
L 218.838112 56.420115 
L 216.364469 58.716758 
L 213.890827 54.979281 
L 211.417184 62.177233 
L 208.943542 57.752524 
L 206.469899 56.827737 
L 203.996257 50.19437 
L 201.522614 60.533559 
L 199.048972 54.009278 
L 196.575329 58.607363 
L 194.101687 60.083276 
L 191.628045 56.574335 
L 189.154402 55.516461 
L 186.68076 55.899917 
L 184.207117 63.370898 
L 181.733475 53.779639 
L 179.259832 64.09176 
L 176.78619 68.661582 
L 174.312547 65.639488 
L 171.838905 58.799841 
L 169.365262 59.88847 
L 166.89162 65.130225 
L 164.417977 64.078315 
L 161.944335 66.958585 
L 159.470692 67.325253 
L 156.99705 65.375928 
L 154.523408 67.025231 
L 152.049765 66.406893 
L 149.576123 69.26628 
L 147.10248 69.812858 
L 144.628838 62.553265 
L 142.155195 66.5474 
L 139.681553 77.061045 
L 137.20791 67.174056 
L 134.734268 69.668822 
L 132.260625 76.337601 
L 129.786983 72.988506 
L 127.31334 78.139086 
L 124.839698 75.477066 
L 122.366056 82.222993 
L 119.892413 88.699191 
L 117.418771 80.832007 
L 114.945128 80.774109 
L 112.471486 81.200268 
L 109.997843 89.497338 
L 107.524201 83.373202 
L 105.050558 82.921645 
L 102.576916 92.494107 
L 100.103273 94.546994 
L 97.629631 102.83088 
L 95.155988 106.970378 
L 92.682346 108.696423 
L 90.208703 108.668019 
L 87.735061 122.074394 
L 85.261419 132.321479 
L 82.787776 133.364014 
L 80.314134 145.696587 
L 77.840491 152.863361 
L 75.366849 168.009428 
L 72.893206 177.316307 
L 70.419564 184.999059 
L 67.945921 207.917958 
L 65.472279 217.157785 
L 62.998636 259.762633 
z
" style="fill:#ff7f0e;fill-opacity:0.25;"/>
   </g>
   <g id="PolyCollection_3">
    <path clip-path="url(#pb71b0dc8ae)" d="M 62.998636 247.347164 
L 62.998636 258.948577 
L 65.472279 227.694755 
L 67.945921 219.655409 
L 70.419564 204.670526 
L 72.893206 184.478193 
L 75.366849 173.356792 
L 77.840491 165.210672 
L 80.314134 160.933488 
L 82.787776 154.236178 
L 85.261419 152.62289 
L 87.735061 130.64512 
L 90.208703 132.877597 
L 92.682346 131.394693 
L 95.155988 117.45461 
L 97.629631 118.014026 
L 100.103273 111.543487 
L 102.576916 107.35146 
L 105.050558 97.289671 
L 107.524201 98.646363 
L 109.997843 100.520102 
L 112.471486 100.593291 
L 114.945128 99.389091 
L 117.418771 98.677481 
L 119.892413 97.258874 
L 122.366056 85.831381 
L 124.839698 81.402765 
L 127.31334 89.945097 
L 129.786983 86.018501 
L 132.260625 97.107883 
L 134.734268 81.87947 
L 137.20791 79.992168 
L 139.681553 83.60607 
L 142.155195 79.859485 
L 144.628838 71.870427 
L 147.10248 75.048324 
L 149.576123 74.389777 
L 152.049765 74.164201 
L 154.523408 82.92649 
L 156.99705 81.30402 
L 159.470692 78.45674 
L 161.944335 72.077696 
L 164.417977 71.023488 
L 166.89162 76.87136 
L 169.365262 77.471569 
L 171.838905 72.401421 
L 174.312547 77.615811 
L 176.78619 71.734782 
L 179.259832 71.897055 
L 181.733475 66.583154 
L 184.207117 69.418216 
L 186.68076 61.443987 
L 189.154402 61.930906 
L 191.628045 65.922835 
L 194.101687 63.12553 
L 196.575329 65.753865 
L 199.048972 61.791342 
L 201.522614 68.100164 
L 203.996257 58.053847 
L 206.469899 60.834108 
L 208.943542 64.404154 
L 211.417184 69.286519 
L 213.890827 61.307672 
L 216.364469 59.807976 
L 218.838112 65.492885 
L 221.311754 63.546048 
L 223.785397 56.712093 
L 226.259039 67.294147 
L 228.732682 62.006412 
L 231.206324 50.432764 
L 233.679966 54.06427 
L 236.153609 66.158677 
L 238.627251 60.44475 
L 241.100894 56.146379 
L 243.574536 56.328891 
L 246.048179 55.40052 
L 248.521821 53.208776 
L 250.995464 57.300505 
L 253.469106 53.240181 
L 255.942749 56.694983 
L 258.416391 51.557511 
L 260.890034 55.359675 
L 263.363676 56.902491 
L 265.837318 52.45964 
L 268.310961 52.988254 
L 270.784603 53.337443 
L 273.258246 52.960782 
L 275.731888 48.833811 
L 278.205531 49.785137 
L 280.679173 47.646999 
L 283.152816 47.758005 
L 285.626458 48.558734 
L 288.100101 47.24774 
L 290.573743 43.981931 
L 293.047386 49.192458 
L 295.521028 47.095107 
L 297.994671 45.132556 
L 300.468313 46.589087 
L 302.941955 46.0338 
L 305.415598 43.212254 
L 307.88924 45.741333 
L 310.362883 43.44738 
L 312.836525 44.13504 
L 315.310168 40.4928 
L 317.78381 41.962416 
L 320.257453 45.181382 
L 322.731095 41.994768 
L 325.204738 38.569698 
L 327.67838 36.667267 
L 330.152023 39.352747 
L 332.625665 42.568566 
L 335.099308 40.580842 
L 337.57295 39.350251 
L 340.046592 38.020391 
L 342.520235 35.471038 
L 344.993877 39.723594 
L 347.46752 39.788239 
L 349.941162 37.899523 
L 352.414805 36.737936 
L 354.888447 32.608716 
L 357.36209 35.795536 
L 359.835732 38.362944 
L 362.309375 33.681954 
L 364.783017 33.347694 
L 367.25666 32.975218 
L 369.730302 32.630674 
L 372.203944 32.429092 
L 374.677587 31.644996 
L 377.151229 32.382876 
L 379.624872 32.779701 
L 382.098514 31.79106 
L 384.572157 32.968033 
L 387.045799 32.307482 
L 389.519442 32.408111 
L 391.993084 30.785999 
L 394.466727 31.703705 
L 396.940369 30.929851 
L 399.414012 30.195233 
L 401.887654 30.731735 
L 404.361297 31.344976 
L 406.834939 30.632393 
L 409.308581 31.310911 
L 411.782224 31.36578 
L 414.255866 29.765242 
L 416.729509 31.016858 
L 419.203151 31.059011 
L 421.676794 30.168842 
L 424.150436 31.613518 
L 426.624079 31.718367 
L 429.097721 30.73392 
L 431.571364 30.638487 
L 431.571364 27.327288 
L 431.571364 27.327288 
L 429.097721 27.896406 
L 426.624079 27.697338 
L 424.150436 27.802186 
L 421.676794 27.615693 
L 419.203151 27.14842 
L 416.729509 26.223954 
L 414.255866 27.052674 
L 411.782224 27.929096 
L 409.308581 26.956933 
L 406.834939 27.877105 
L 404.361297 26.741627 
L 401.887654 27.838178 
L 399.414012 26.381028 
L 396.940369 26.79427 
L 394.466727 25.899588 
L 391.993084 27.361017 
L 389.519442 27.853384 
L 387.045799 27.349877 
L 384.572157 27.051808 
L 382.098514 27.503816 
L 379.624872 28.448414 
L 377.151229 29.328548 
L 374.677587 30.006014 
L 372.203944 29.644814 
L 369.730302 29.866129 
L 367.25666 29.702825 
L 364.783017 30.599037 
L 362.309375 29.962708 
L 359.835732 32.048051 
L 357.36209 28.755332 
L 354.888447 28.981881 
L 352.414805 33.370991 
L 349.941162 34.807192 
L 347.46752 32.97889 
L 344.993877 33.94974 
L 342.520235 34.033751 
L 340.046592 33.175982 
L 337.57295 34.081429 
L 335.099308 35.629867 
L 332.625665 33.823384 
L 330.152023 36.374652 
L 327.67838 33.804142 
L 325.204738 37.097288 
L 322.731095 35.726284 
L 320.257453 39.789312 
L 317.78381 36.544013 
L 315.310168 38.013629 
L 312.836525 39.929449 
L 310.362883 38.079733 
L 307.88924 37.41695 
L 305.415598 37.106585 
L 302.941955 37.184896 
L 300.468313 42.852219 
L 297.994671 40.744343 
L 295.521028 43.19199 
L 293.047386 40.007193 
L 290.573743 40.082557 
L 288.100101 45.395492 
L 285.626458 44.024084 
L 283.152816 44.401917 
L 280.679173 43.9692 
L 278.205531 41.528993 
L 275.731888 45.561418 
L 273.258246 45.482163 
L 270.784603 44.018056 
L 268.310961 46.360897 
L 265.837318 47.010339 
L 263.363676 48.608856 
L 260.890034 49.185053 
L 258.416391 46.764607 
L 255.942749 51.172498 
L 253.469106 49.431722 
L 250.995464 48.694152 
L 248.521821 48.254854 
L 246.048179 49.265035 
L 243.574536 51.659417 
L 241.100894 51.53986 
L 238.627251 56.786852 
L 236.153609 56.872639 
L 233.679966 49.634666 
L 231.206324 47.708113 
L 228.732682 52.92947 
L 226.259039 57.126683 
L 223.785397 52.665729 
L 221.311754 55.43755 
L 218.838112 51.013752 
L 216.364469 55.913284 
L 213.890827 54.715656 
L 211.417184 63.592228 
L 208.943542 53.733653 
L 206.469899 53.014327 
L 203.996257 51.565631 
L 201.522614 60.30797 
L 199.048972 52.238335 
L 196.575329 62.291787 
L 194.101687 57.791306 
L 191.628045 59.585442 
L 189.154402 56.569383 
L 186.68076 56.754234 
L 184.207117 61.587707 
L 181.733475 54.514924 
L 179.259832 64.425272 
L 176.78619 69.843535 
L 174.312547 67.889396 
L 171.838905 59.873189 
L 169.365262 67.24826 
L 166.89162 60.115517 
L 164.417977 61.190708 
L 161.944335 63.278012 
L 159.470692 70.914943 
L 156.99705 68.309318 
L 154.523408 66.626434 
L 152.049765 65.299638 
L 149.576123 63.744961 
L 147.10248 68.281991 
L 144.628838 62.277007 
L 142.155195 72.351641 
L 139.681553 71.806982 
L 137.20791 68.412896 
L 134.734268 71.298275 
L 132.260625 82.289402 
L 129.786983 76.160883 
L 127.31334 79.48393 
L 124.839698 71.110429 
L 122.366056 75.381385 
L 119.892413 77.546971 
L 117.418771 79.451116 
L 114.945128 84.055911 
L 112.471486 83.395434 
L 109.997843 80.810421 
L 107.524201 88.665115 
L 105.050558 91.471736 
L 102.576916 93.069788 
L 100.103273 97.758572 
L 97.629631 104.518631 
L 95.155988 110.817348 
L 92.682346 116.330471 
L 90.208703 119.016111 
L 87.735061 119.254937 
L 85.261419 131.108831 
L 82.787776 133.845328 
L 80.314134 138.113103 
L 77.840491 149.180995 
L 75.366849 165.683659 
L 72.893206 176.583046 
L 70.419564 193.847199 
L 67.945921 207.135921 
L 65.472279 216.737371 
L 62.998636 247.347164 
z
" style="fill:#2ca02c;fill-opacity:0.25;"/>
   </g>
   <g id="PolyCollection_4">
    <path clip-path="url(#pb71b0dc8ae)" d="M 62.998636 251.357294 
L 62.998636 263.864569 
L 65.472279 228.110959 
L 67.945921 221.39315 
L 70.419564 201.945994 
L 72.893206 190.03385 
L 75.366849 180.889085 
L 77.840491 161.329673 
L 80.314134 155.522837 
L 82.787776 147.887051 
L 85.261419 140.27837 
L 87.735061 135.280911 
L 90.208703 130.635224 
L 92.682346 154.753369 
L 95.155988 115.969617 
L 97.629631 103.800344 
L 100.103273 103.300551 
L 102.576916 107.024761 
L 105.050558 88.398885 
L 107.524201 96.241942 
L 109.997843 100.43248 
L 112.471486 98.794521 
L 114.945128 98.601691 
L 117.418771 90.395204 
L 119.892413 96.050988 
L 122.366056 84.988369 
L 124.839698 95.511165 
L 127.31334 83.769566 
L 129.786983 88.465296 
L 132.260625 94.399894 
L 134.734268 77.991151 
L 137.20791 80.455088 
L 139.681553 85.782646 
L 142.155195 84.361619 
L 144.628838 76.789686 
L 147.10248 84.383971 
L 149.576123 80.927264 
L 152.049765 70.775778 
L 154.523408 82.890009 
L 156.99705 85.30898 
L 159.470692 78.524014 
L 161.944335 74.256304 
L 164.417977 73.642353 
L 166.89162 72.649766 
L 169.365262 84.196456 
L 171.838905 71.647933 
L 174.312547 76.546348 
L 176.78619 77.613322 
L 179.259832 69.19562 
L 181.733475 66.007813 
L 184.207117 73.085153 
L 186.68076 65.804804 
L 189.154402 64.9542 
L 191.628045 68.918206 
L 194.101687 67.40972 
L 196.575329 78.960081 
L 199.048972 68.474531 
L 201.522614 66.388664 
L 203.996257 60.582009 
L 206.469899 65.667279 
L 208.943542 61.96523 
L 211.417184 77.334591 
L 213.890827 61.989084 
L 216.364469 57.804061 
L 218.838112 64.033719 
L 221.311754 64.526017 
L 223.785397 57.204692 
L 226.259039 65.115047 
L 228.732682 56.873578 
L 231.206324 60.733562 
L 233.679966 61.099721 
L 236.153609 62.542056 
L 238.627251 64.854009 
L 241.100894 60.059023 
L 243.574536 60.769033 
L 246.048179 59.865911 
L 248.521821 59.288064 
L 250.995464 61.800675 
L 253.469106 57.521558 
L 255.942749 53.861755 
L 258.416391 55.889798 
L 260.890034 50.966216 
L 263.363676 56.596769 
L 265.837318 52.297812 
L 268.310961 52.747947 
L 270.784603 52.98257 
L 273.258246 51.733142 
L 275.731888 47.990668 
L 278.205531 48.800087 
L 280.679173 47.753464 
L 283.152816 48.347688 
L 285.626458 47.81309 
L 288.100101 50.356962 
L 290.573743 46.220767 
L 293.047386 49.8467 
L 295.521028 46.540979 
L 297.994671 44.335804 
L 300.468313 48.233457 
L 302.941955 44.828465 
L 305.415598 42.233755 
L 307.88924 46.032554 
L 310.362883 43.837088 
L 312.836525 44.015947 
L 315.310168 42.407362 
L 317.78381 45.367958 
L 320.257453 46.660627 
L 322.731095 42.40298 
L 325.204738 41.584081 
L 327.67838 40.869817 
L 330.152023 42.618425 
L 332.625665 42.210211 
L 335.099308 41.176633 
L 337.57295 35.66714 
L 340.046592 39.763944 
L 342.520235 36.292944 
L 344.993877 38.647528 
L 347.46752 37.417737 
L 349.941162 36.902001 
L 352.414805 34.99866 
L 354.888447 36.472318 
L 357.36209 35.539097 
L 359.835732 34.773147 
L 362.309375 32.598794 
L 364.783017 32.883685 
L 367.25666 33.097342 
L 369.730302 35.929113 
L 372.203944 32.929007 
L 374.677587 35.24475 
L 377.151229 32.453863 
L 379.624872 31.1815 
L 382.098514 33.259783 
L 384.572157 32.860245 
L 387.045799 32.650344 
L 389.519442 32.302355 
L 391.993084 33.205984 
L 394.466727 33.395631 
L 396.940369 33.050827 
L 399.414012 32.675138 
L 401.887654 31.968326 
L 404.361297 32.78168 
L 406.834939 32.006513 
L 409.308581 31.908696 
L 411.782224 31.611392 
L 414.255866 32.113045 
L 416.729509 30.121663 
L 419.203151 31.880394 
L 421.676794 32.023563 
L 424.150436 31.797272 
L 426.624079 31.974084 
L 429.097721 31.786892 
L 431.571364 31.938022 
L 431.571364 25.725685 
L 431.571364 25.725685 
L 429.097721 25.514333 
L 426.624079 25.629209 
L 424.150436 26.651813 
L 421.676794 27.210901 
L 419.203151 26.447863 
L 416.729509 26.515012 
L 414.255866 27.302659 
L 411.782224 26.233556 
L 409.308581 25.694597 
L 406.834939 27.348778 
L 404.361297 26.513196 
L 401.887654 27.084896 
L 399.414012 27.46553 
L 396.940369 27.029428 
L 394.466727 28.013725 
L 391.993084 27.297167 
L 389.519442 26.750867 
L 387.045799 27.792393 
L 384.572157 28.488698 
L 382.098514 27.78709 
L 379.624872 28.234204 
L 377.151229 27.263909 
L 374.677587 30.091495 
L 372.203944 26.788765 
L 369.730302 29.165478 
L 367.25666 29.339047 
L 364.783017 28.888152 
L 362.309375 28.206424 
L 359.835732 28.992343 
L 357.36209 32.092868 
L 354.888447 31.099234 
L 352.414805 30.639654 
L 349.941162 31.334101 
L 347.46752 33.959878 
L 344.993877 33.93836 
L 342.520235 31.339022 
L 340.046592 33.546908 
L 337.57295 33.414754 
L 335.099308 39.142207 
L 332.625665 34.967117 
L 330.152023 38.062897 
L 327.67838 34.4951 
L 325.204738 34.928697 
L 322.731095 35.982622 
L 320.257453 39.880822 
L 317.78381 39.300667 
L 315.310168 36.401135 
L 312.836525 39.806886 
L 310.362883 39.985745 
L 307.88924 38.092348 
L 305.415598 38.387153 
L 302.941955 40.565124 
L 300.468313 43.563983 
L 297.994671 39.789097 
L 295.521028 40.423366 
L 293.047386 41.648672 
L 290.573743 41.770611 
L 288.100101 39.084344 
L 285.626458 39.030428 
L 283.152816 43.812234 
L 280.679173 42.775288 
L 278.205531 45.172246 
L 275.731888 44.773391 
L 273.258246 44.836979 
L 270.784603 48.360232 
L 268.310961 44.607553 
L 265.837318 45.782651 
L 263.363676 47.706304 
L 260.890034 46.570524 
L 258.416391 50.708995 
L 255.942749 47.722702 
L 253.469106 46.116964 
L 250.995464 55.128859 
L 248.521821 51.116792 
L 246.048179 53.499215 
L 243.574536 52.112783 
L 241.100894 50.949969 
L 238.627251 57.935652 
L 236.153609 55.354097 
L 233.679966 50.996717 
L 231.206324 52.389909 
L 228.732682 48.275286 
L 226.259039 60.332816 
L 223.785397 52.958508 
L 221.311754 54.638823 
L 218.838112 52.714574 
L 216.364469 54.715273 
L 213.890827 54.336313 
L 211.417184 62.189661 
L 208.943542 55.508027 
L 206.469899 56.518245 
L 203.996257 56.28711 
L 201.522614 60.267473 
L 199.048972 55.9463 
L 196.575329 70.955325 
L 194.101687 57.615247 
L 191.628045 61.604407 
L 189.154402 58.258357 
L 186.68076 57.709821 
L 184.207117 59.793593 
L 181.733475 52.432063 
L 179.259832 58.00424 
L 176.78619 65.958647 
L 174.312547 72.039957 
L 171.838905 62.076605 
L 169.365262 73.149834 
L 166.89162 60.71229 
L 164.417977 66.727691 
L 161.944335 66.294981 
L 159.470692 71.330979 
L 156.99705 61.162846 
L 154.523408 69.623186 
L 152.049765 63.492483 
L 149.576123 68.686074 
L 147.10248 69.639566 
L 144.628838 69.078003 
L 142.155195 73.407566 
L 139.681553 74.463501 
L 137.20791 73.447621 
L 134.734268 67.755711 
L 132.260625 80.164296 
L 129.786983 76.553531 
L 127.31334 77.684855 
L 124.839698 81.892468 
L 122.366056 81.782456 
L 119.892413 78.936098 
L 117.418771 80.785819 
L 114.945128 84.299588 
L 112.471486 79.8778 
L 109.997843 86.395688 
L 107.524201 89.559194 
L 105.050558 84.171653 
L 102.576916 87.355118 
L 100.103273 95.127046 
L 97.629631 90.942018 
L 95.155988 103.78401 
L 92.682346 99.496474 
L 90.208703 114.431738 
L 87.735061 116.008661 
L 85.261419 128.954067 
L 82.787776 137.777908 
L 80.314134 148.447469 
L 77.840491 153.575511 
L 75.366849 162.833426 
L 72.893206 177.612481 
L 70.419564 189.805398 
L 67.945921 207.331418 
L 65.472279 213.90462 
L 62.998636 251.357294 
z
" style="fill:#d62728;fill-opacity:0.25;"/>
   </g>
   <g id="matplotlib.axis_1">
    <g id="xtick_1">
     <g id="line2d_1">
      <defs>
       <path d="M 0 0 
L 0 3.5 
" id="ma3a52fb066" style="stroke:#000000;stroke-width:0.8;"/>
      </defs>
      <g>
       <use style="stroke:#000000;stroke-width:0.8;" x="62.998636" xlink:href="#ma3a52fb066" y="303.64"/>
      </g>
     </g>
     <g id="text_1">
      <!-- 0 -->
      <g transform="translate(59.817386 318.238437)scale(0.1 -0.1)">
       <defs>
        <path d="M 31.78125 66.40625 
Q 24.171875 66.40625 20.328125 58.90625 
Q 16.5 51.421875 16.5 36.375 
Q 16.5 21.390625 20.328125 13.890625 
Q 24.171875 6.390625 31.78125 6.390625 
Q 39.453125 6.390625 43.28125 13.890625 
Q 47.125 21.390625 47.125 36.375 
Q 47.125 51.421875 43.28125 58.90625 
Q 39.453125 66.40625 31.78125 66.40625 
z
M 31.78125 74.21875 
Q 44.046875 74.21875 50.515625 64.515625 
Q 56.984375 54.828125 56.984375 36.375 
Q 56.984375 17.96875 50.515625 8.265625 
Q 44.046875 -1.421875 31.78125 -1.421875 
Q 19.53125 -1.421875 13.0625 8.265625 
Q 6.59375 17.96875 6.59375 36.375 
Q 6.59375 54.828125 13.0625 64.515625 
Q 19.53125 74.21875 31.78125 74.21875 
z
" id="DejaVuSans-48"/>
       </defs>
       <use xlink:href="#DejaVuSans-48"/>
      </g>
     </g>
    </g>
    <g id="xtick_2">
     <g id="line2d_2">
      <g>
       <use style="stroke:#000000;stroke-width:0.8;" x="112.471486" xlink:href="#ma3a52fb066" y="303.64"/>
      </g>
     </g>
     <g id="text_2">
      <!-- 20 -->
      <g transform="translate(106.108986 318.238437)scale(0.1 -0.1)">
       <defs>
        <path d="M 19.1875 8.296875 
L 53.609375 8.296875 
L 53.609375 0 
L 7.328125 0 
L 7.328125 8.296875 
Q 12.9375 14.109375 22.625 23.890625 
Q 32.328125 33.6875 34.8125 36.53125 
Q 39.546875 41.84375 41.421875 45.53125 
Q 43.3125 49.21875 43.3125 52.78125 
Q 43.3125 58.59375 39.234375 62.25 
Q 35.15625 65.921875 28.609375 65.921875 
Q 23.96875 65.921875 18.8125 64.3125 
Q 13.671875 62.703125 7.8125 59.421875 
L 7.8125 69.390625 
Q 13.765625 71.78125 18.9375 73 
Q 24.125 74.21875 28.421875 74.21875 
Q 39.75 74.21875 46.484375 68.546875 
Q 53.21875 62.890625 53.21875 53.421875 
Q 53.21875 48.921875 51.53125 44.890625 
Q 49.859375 40.875 45.40625 35.40625 
Q 44.1875 33.984375 37.640625 27.21875 
Q 31.109375 20.453125 19.1875 8.296875 
z
" id="DejaVuSans-50"/>
       </defs>
       <use xlink:href="#DejaVuSans-50"/>
       <use x="63.623047" xlink:href="#DejaVuSans-48"/>
      </g>
     </g>
    </g>
    <g id="xtick_3">
     <g id="line2d_3">
      <g>
       <use style="stroke:#000000;stroke-width:0.8;" x="161.944335" xlink:href="#ma3a52fb066" y="303.64"/>
      </g>
     </g>
     <g id="text_3">
      <!-- 40 -->
      <g transform="translate(155.581835 318.238437)scale(0.1 -0.1)">
       <defs>
        <path d="M 37.796875 64.3125 
L 12.890625 25.390625 
L 37.796875 25.390625 
z
M 35.203125 72.90625 
L 47.609375 72.90625 
L 47.609375 25.390625 
L 58.015625 25.390625 
L 58.015625 17.1875 
L 47.609375 17.1875 
L 47.609375 0 
L 37.796875 0 
L 37.796875 17.1875 
L 4.890625 17.1875 
L 4.890625 26.703125 
z
" id="DejaVuSans-52"/>
       </defs>
       <use xlink:href="#DejaVuSans-52"/>
       <use x="63.623047" xlink:href="#DejaVuSans-48"/>
      </g>
     </g>
    </g>
    <g id="xtick_4">
     <g id="line2d_4">
      <g>
       <use style="stroke:#000000;stroke-width:0.8;" x="211.417184" xlink:href="#ma3a52fb066" y="303.64"/>
      </g>
     </g>
     <g id="text_4">
      <!-- 60 -->
      <g transform="translate(205.054684 318.238437)scale(0.1 -0.1)">
       <defs>
        <path d="M 33.015625 40.375 
Q 26.375 40.375 22.484375 35.828125 
Q 18.609375 31.296875 18.609375 23.390625 
Q 18.609375 15.53125 22.484375 10.953125 
Q 26.375 6.390625 33.015625 6.390625 
Q 39.65625 6.390625 43.53125 10.953125 
Q 47.40625 15.53125 47.40625 23.390625 
Q 47.40625 31.296875 43.53125 35.828125 
Q 39.65625 40.375 33.015625 40.375 
z
M 52.59375 71.296875 
L 52.59375 62.3125 
Q 48.875 64.0625 45.09375 64.984375 
Q 41.3125 65.921875 37.59375 65.921875 
Q 27.828125 65.921875 22.671875 59.328125 
Q 17.53125 52.734375 16.796875 39.40625 
Q 19.671875 43.65625 24.015625 45.921875 
Q 28.375 48.1875 33.59375 48.1875 
Q 44.578125 48.1875 50.953125 41.515625 
Q 57.328125 34.859375 57.328125 23.390625 
Q 57.328125 12.15625 50.6875 5.359375 
Q 44.046875 -1.421875 33.015625 -1.421875 
Q 20.359375 -1.421875 13.671875 8.265625 
Q 6.984375 17.96875 6.984375 36.375 
Q 6.984375 53.65625 15.1875 63.9375 
Q 23.390625 74.21875 37.203125 74.21875 
Q 40.921875 74.21875 44.703125 73.484375 
Q 48.484375 72.75 52.59375 71.296875 
z
" id="DejaVuSans-54"/>
       </defs>
       <use xlink:href="#DejaVuSans-54"/>
       <use x="63.623047" xlink:href="#DejaVuSans-48"/>
      </g>
     </g>
    </g>
    <g id="xtick_5">
     <g id="line2d_5">
      <g>
       <use style="stroke:#000000;stroke-width:0.8;" x="260.890034" xlink:href="#ma3a52fb066" y="303.64"/>
      </g>
     </g>
     <g id="text_5">
      <!-- 80 -->
      <g transform="translate(254.527534 318.238437)scale(0.1 -0.1)">
       <defs>
        <path d="M 31.78125 34.625 
Q 24.75 34.625 20.71875 30.859375 
Q 16.703125 27.09375 16.703125 20.515625 
Q 16.703125 13.921875 20.71875 10.15625 
Q 24.75 6.390625 31.78125 6.390625 
Q 38.8125 6.390625 42.859375 10.171875 
Q 46.921875 13.96875 46.921875 20.515625 
Q 46.921875 27.09375 42.890625 30.859375 
Q 38.875 34.625 31.78125 34.625 
z
M 21.921875 38.8125 
Q 15.578125 40.375 12.03125 44.71875 
Q 8.5 49.078125 8.5 55.328125 
Q 8.5 64.0625 14.71875 69.140625 
Q 20.953125 74.21875 31.78125 74.21875 
Q 42.671875 74.21875 48.875 69.140625 
Q 55.078125 64.0625 55.078125 55.328125 
Q 55.078125 49.078125 51.53125 44.71875 
Q 48 40.375 41.703125 38.8125 
Q 48.828125 37.15625 52.796875 32.3125 
Q 56.78125 27.484375 56.78125 20.515625 
Q 56.78125 9.90625 50.3125 4.234375 
Q 43.84375 -1.421875 31.78125 -1.421875 
Q 19.734375 -1.421875 13.25 4.234375 
Q 6.78125 9.90625 6.78125 20.515625 
Q 6.78125 27.484375 10.78125 32.3125 
Q 14.796875 37.15625 21.921875 38.8125 
z
M 18.3125 54.390625 
Q 18.3125 48.734375 21.84375 45.5625 
Q 25.390625 42.390625 31.78125 42.390625 
Q 38.140625 42.390625 41.71875 45.5625 
Q 45.3125 48.734375 45.3125 54.390625 
Q 45.3125 60.0625 41.71875 63.234375 
Q 38.140625 66.40625 31.78125 66.40625 
Q 25.390625 66.40625 21.84375 63.234375 
Q 18.3125 60.0625 18.3125 54.390625 
z
" id="DejaVuSans-56"/>
       </defs>
       <use xlink:href="#DejaVuSans-56"/>
       <use x="63.623047" xlink:href="#DejaVuSans-48"/>
      </g>
     </g>
    </g>
    <g id="xtick_6">
     <g id="line2d_6">
      <g>
       <use style="stroke:#000000;stroke-width:0.8;" x="310.362883" xlink:href="#ma3a52fb066" y="303.64"/>
      </g>
     </g>
     <g id="text_6">
      <!-- 100 -->
      <g transform="translate(300.819133 318.238437)scale(0.1 -0.1)">
       <defs>
        <path d="M 12.40625 8.296875 
L 28.515625 8.296875 
L 28.515625 63.921875 
L 10.984375 60.40625 
L 10.984375 69.390625 
L 28.421875 72.90625 
L 38.28125 72.90625 
L 38.28125 8.296875 
L 54.390625 8.296875 
L 54.390625 0 
L 12.40625 0 
z
" id="DejaVuSans-49"/>
       </defs>
       <use xlink:href="#DejaVuSans-49"/>
       <use x="63.623047" xlink:href="#DejaVuSans-48"/>
       <use x="127.246094" xlink:href="#DejaVuSans-48"/>
      </g>
     </g>
    </g>
    <g id="xtick_7">
     <g id="line2d_7">
      <g>
       <use style="stroke:#000000;stroke-width:0.8;" x="359.835732" xlink:href="#ma3a52fb066" y="303.64"/>
      </g>
     </g>
     <g id="text_7">
      <!-- 120 -->
      <g transform="translate(350.291982 318.238437)scale(0.1 -0.1)">
       <use xlink:href="#DejaVuSans-49"/>
       <use x="63.623047" xlink:href="#DejaVuSans-50"/>
       <use x="127.246094" xlink:href="#DejaVuSans-48"/>
      </g>
     </g>
    </g>
    <g id="xtick_8">
     <g id="line2d_8">
      <g>
       <use style="stroke:#000000;stroke-width:0.8;" x="409.308581" xlink:href="#ma3a52fb066" y="303.64"/>
      </g>
     </g>
     <g id="text_8">
      <!-- 140 -->
      <g transform="translate(399.764831 318.238437)scale(0.1 -0.1)">
       <use xlink:href="#DejaVuSans-49"/>
       <use x="63.623047" xlink:href="#DejaVuSans-52"/>
       <use x="127.246094" xlink:href="#DejaVuSans-48"/>
      </g>
     </g>
    </g>
    <g id="text_9">
     <!-- Epochs -->
     <g transform="translate(229.369375 331.916562)scale(0.1 -0.1)">
      <defs>
       <path d="M 9.8125 72.90625 
L 55.90625 72.90625 
L 55.90625 64.59375 
L 19.671875 64.59375 
L 19.671875 43.015625 
L 54.390625 43.015625 
L 54.390625 34.71875 
L 19.671875 34.71875 
L 19.671875 8.296875 
L 56.78125 8.296875 
L 56.78125 0 
L 9.8125 0 
z
" id="DejaVuSans-69"/>
       <path d="M 18.109375 8.203125 
L 18.109375 -20.796875 
L 9.078125 -20.796875 
L 9.078125 54.6875 
L 18.109375 54.6875 
L 18.109375 46.390625 
Q 20.953125 51.265625 25.265625 53.625 
Q 29.59375 56 35.59375 56 
Q 45.5625 56 51.78125 48.09375 
Q 58.015625 40.1875 58.015625 27.296875 
Q 58.015625 14.40625 51.78125 6.484375 
Q 45.5625 -1.421875 35.59375 -1.421875 
Q 29.59375 -1.421875 25.265625 0.953125 
Q 20.953125 3.328125 18.109375 8.203125 
z
M 48.6875 27.296875 
Q 48.6875 37.203125 44.609375 42.84375 
Q 40.53125 48.484375 33.40625 48.484375 
Q 26.265625 48.484375 22.1875 42.84375 
Q 18.109375 37.203125 18.109375 27.296875 
Q 18.109375 17.390625 22.1875 11.75 
Q 26.265625 6.109375 33.40625 6.109375 
Q 40.53125 6.109375 44.609375 11.75 
Q 48.6875 17.390625 48.6875 27.296875 
z
" id="DejaVuSans-112"/>
       <path d="M 30.609375 48.390625 
Q 23.390625 48.390625 19.1875 42.75 
Q 14.984375 37.109375 14.984375 27.296875 
Q 14.984375 17.484375 19.15625 11.84375 
Q 23.34375 6.203125 30.609375 6.203125 
Q 37.796875 6.203125 41.984375 11.859375 
Q 46.1875 17.53125 46.1875 27.296875 
Q 46.1875 37.015625 41.984375 42.703125 
Q 37.796875 48.390625 30.609375 48.390625 
z
M 30.609375 56 
Q 42.328125 56 49.015625 48.375 
Q 55.71875 40.765625 55.71875 27.296875 
Q 55.71875 13.875 49.015625 6.21875 
Q 42.328125 -1.421875 30.609375 -1.421875 
Q 18.84375 -1.421875 12.171875 6.21875 
Q 5.515625 13.875 5.515625 27.296875 
Q 5.515625 40.765625 12.171875 48.375 
Q 18.84375 56 30.609375 56 
z
" id="DejaVuSans-111"/>
       <path d="M 48.78125 52.59375 
L 48.78125 44.1875 
Q 44.96875 46.296875 41.140625 47.34375 
Q 37.3125 48.390625 33.40625 48.390625 
Q 24.65625 48.390625 19.8125 42.84375 
Q 14.984375 37.3125 14.984375 27.296875 
Q 14.984375 17.28125 19.8125 11.734375 
Q 24.65625 6.203125 33.40625 6.203125 
Q 37.3125 6.203125 41.140625 7.25 
Q 44.96875 8.296875 48.78125 10.40625 
L 48.78125 2.09375 
Q 45.015625 0.34375 40.984375 -0.53125 
Q 36.96875 -1.421875 32.421875 -1.421875 
Q 20.0625 -1.421875 12.78125 6.34375 
Q 5.515625 14.109375 5.515625 27.296875 
Q 5.515625 40.671875 12.859375 48.328125 
Q 20.21875 56 33.015625 56 
Q 37.15625 56 41.109375 55.140625 
Q 45.0625 54.296875 48.78125 52.59375 
z
" id="DejaVuSans-99"/>
       <path d="M 54.890625 33.015625 
L 54.890625 0 
L 45.90625 0 
L 45.90625 32.71875 
Q 45.90625 40.484375 42.875 44.328125 
Q 39.84375 48.1875 33.796875 48.1875 
Q 26.515625 48.1875 22.3125 43.546875 
Q 18.109375 38.921875 18.109375 30.90625 
L 18.109375 0 
L 9.078125 0 
L 9.078125 75.984375 
L 18.109375 75.984375 
L 18.109375 46.1875 
Q 21.34375 51.125 25.703125 53.5625 
Q 30.078125 56 35.796875 56 
Q 45.21875 56 50.046875 50.171875 
Q 54.890625 44.34375 54.890625 33.015625 
z
" id="DejaVuSans-104"/>
       <path d="M 44.28125 53.078125 
L 44.28125 44.578125 
Q 40.484375 46.53125 36.375 47.5 
Q 32.28125 48.484375 27.875 48.484375 
Q 21.1875 48.484375 17.84375 46.4375 
Q 14.5 44.390625 14.5 40.28125 
Q 14.5 37.15625 16.890625 35.375 
Q 19.28125 33.59375 26.515625 31.984375 
L 29.59375 31.296875 
Q 39.15625 29.25 43.1875 25.515625 
Q 47.21875 21.78125 47.21875 15.09375 
Q 47.21875 7.46875 41.1875 3.015625 
Q 35.15625 -1.421875 24.609375 -1.421875 
Q 20.21875 -1.421875 15.453125 -0.5625 
Q 10.6875 0.296875 5.421875 2 
L 5.421875 11.28125 
Q 10.40625 8.6875 15.234375 7.390625 
Q 20.0625 6.109375 24.8125 6.109375 
Q 31.15625 6.109375 34.5625 8.28125 
Q 37.984375 10.453125 37.984375 14.40625 
Q 37.984375 18.0625 35.515625 20.015625 
Q 33.0625 21.96875 24.703125 23.78125 
L 21.578125 24.515625 
Q 13.234375 26.265625 9.515625 29.90625 
Q 5.8125 33.546875 5.8125 39.890625 
Q 5.8125 47.609375 11.28125 51.796875 
Q 16.75 56 26.8125 56 
Q 31.78125 56 36.171875 55.265625 
Q 40.578125 54.546875 44.28125 53.078125 
z
" id="DejaVuSans-115"/>
      </defs>
      <use xlink:href="#DejaVuSans-69"/>
      <use x="63.183594" xlink:href="#DejaVuSans-112"/>
      <use x="126.660156" xlink:href="#DejaVuSans-111"/>
      <use x="187.841797" xlink:href="#DejaVuSans-99"/>
      <use x="242.822266" xlink:href="#DejaVuSans-104"/>
      <use x="306.201172" xlink:href="#DejaVuSans-115"/>
     </g>
    </g>
   </g>
   <g id="matplotlib.axis_2">
    <g id="ytick_1">
     <g id="line2d_9">
      <defs>
       <path d="M 0 0 
L -3.5 0 
" id="mb62a426e0d" style="stroke:#000000;stroke-width:0.8;"/>
      </defs>
      <g>
       <use style="stroke:#000000;stroke-width:0.8;" x="44.57" xlink:href="#mb62a426e0d" y="257.980965"/>
      </g>
     </g>
     <g id="text_10">
      <!-- 20 -->
      <g transform="translate(24.845 261.780184)scale(0.1 -0.1)">
       <use xlink:href="#DejaVuSans-50"/>
       <use x="63.623047" xlink:href="#DejaVuSans-48"/>
      </g>
     </g>
    </g>
    <g id="ytick_2">
     <g id="line2d_10">
      <g>
       <use style="stroke:#000000;stroke-width:0.8;" x="44.57" xlink:href="#mb62a426e0d" y="196.117351"/>
      </g>
     </g>
     <g id="text_11">
      <!-- 40 -->
      <g transform="translate(24.845 199.91657)scale(0.1 -0.1)">
       <use xlink:href="#DejaVuSans-52"/>
       <use x="63.623047" xlink:href="#DejaVuSans-48"/>
      </g>
     </g>
    </g>
    <g id="ytick_3">
     <g id="line2d_11">
      <g>
       <use style="stroke:#000000;stroke-width:0.8;" x="44.57" xlink:href="#mb62a426e0d" y="134.253736"/>
      </g>
     </g>
     <g id="text_12">
      <!-- 60 -->
      <g transform="translate(24.845 138.052955)scale(0.1 -0.1)">
       <use xlink:href="#DejaVuSans-54"/>
       <use x="63.623047" xlink:href="#DejaVuSans-48"/>
      </g>
     </g>
    </g>
    <g id="ytick_4">
     <g id="line2d_12">
      <g>
       <use style="stroke:#000000;stroke-width:0.8;" x="44.57" xlink:href="#mb62a426e0d" y="72.390121"/>
      </g>
     </g>
     <g id="text_13">
      <!-- 80 -->
      <g transform="translate(24.845 76.18934)scale(0.1 -0.1)">
       <use xlink:href="#DejaVuSans-56"/>
       <use x="63.623047" xlink:href="#DejaVuSans-48"/>
      </g>
     </g>
    </g>
    <g id="text_14">
     <!-- Test Accuracy (%) -->
     <g transform="translate(18.765313 201.723906)rotate(-90)scale(0.1 -0.1)">
      <defs>
       <path d="M -0.296875 72.90625 
L 61.375 72.90625 
L 61.375 64.59375 
L 35.5 64.59375 
L 35.5 0 
L 25.59375 0 
L 25.59375 64.59375 
L -0.296875 64.59375 
z
" id="DejaVuSans-84"/>
       <path d="M 56.203125 29.59375 
L 56.203125 25.203125 
L 14.890625 25.203125 
Q 15.484375 15.921875 20.484375 11.0625 
Q 25.484375 6.203125 34.421875 6.203125 
Q 39.59375 6.203125 44.453125 7.46875 
Q 49.3125 8.734375 54.109375 11.28125 
L 54.109375 2.78125 
Q 49.265625 0.734375 44.1875 -0.34375 
Q 39.109375 -1.421875 33.890625 -1.421875 
Q 20.796875 -1.421875 13.15625 6.1875 
Q 5.515625 13.8125 5.515625 26.8125 
Q 5.515625 40.234375 12.765625 48.109375 
Q 20.015625 56 32.328125 56 
Q 43.359375 56 49.78125 48.890625 
Q 56.203125 41.796875 56.203125 29.59375 
z
M 47.21875 32.234375 
Q 47.125 39.59375 43.09375 43.984375 
Q 39.0625 48.390625 32.421875 48.390625 
Q 24.90625 48.390625 20.390625 44.140625 
Q 15.875 39.890625 15.1875 32.171875 
z
" id="DejaVuSans-101"/>
       <path d="M 18.3125 70.21875 
L 18.3125 54.6875 
L 36.8125 54.6875 
L 36.8125 47.703125 
L 18.3125 47.703125 
L 18.3125 18.015625 
Q 18.3125 11.328125 20.140625 9.421875 
Q 21.96875 7.515625 27.59375 7.515625 
L 36.8125 7.515625 
L 36.8125 0 
L 27.59375 0 
Q 17.1875 0 13.234375 3.875 
Q 9.28125 7.765625 9.28125 18.015625 
L 9.28125 47.703125 
L 2.6875 47.703125 
L 2.6875 54.6875 
L 9.28125 54.6875 
L 9.28125 70.21875 
z
" id="DejaVuSans-116"/>
       <path id="DejaVuSans-32"/>
       <path d="M 34.1875 63.1875 
L 20.796875 26.90625 
L 47.609375 26.90625 
z
M 28.609375 72.90625 
L 39.796875 72.90625 
L 67.578125 0 
L 57.328125 0 
L 50.6875 18.703125 
L 17.828125 18.703125 
L 11.1875 0 
L 0.78125 0 
z
" id="DejaVuSans-65"/>
       <path d="M 8.5 21.578125 
L 8.5 54.6875 
L 17.484375 54.6875 
L 17.484375 21.921875 
Q 17.484375 14.15625 20.5 10.265625 
Q 23.53125 6.390625 29.59375 6.390625 
Q 36.859375 6.390625 41.078125 11.03125 
Q 45.3125 15.671875 45.3125 23.6875 
L 45.3125 54.6875 
L 54.296875 54.6875 
L 54.296875 0 
L 45.3125 0 
L 45.3125 8.40625 
Q 42.046875 3.421875 37.71875 1 
Q 33.40625 -1.421875 27.6875 -1.421875 
Q 18.265625 -1.421875 13.375 4.4375 
Q 8.5 10.296875 8.5 21.578125 
z
M 31.109375 56 
z
" id="DejaVuSans-117"/>
       <path d="M 41.109375 46.296875 
Q 39.59375 47.171875 37.8125 47.578125 
Q 36.03125 48 33.890625 48 
Q 26.265625 48 22.1875 43.046875 
Q 18.109375 38.09375 18.109375 28.8125 
L 18.109375 0 
L 9.078125 0 
L 9.078125 54.6875 
L 18.109375 54.6875 
L 18.109375 46.1875 
Q 20.953125 51.171875 25.484375 53.578125 
Q 30.03125 56 36.53125 56 
Q 37.453125 56 38.578125 55.875 
Q 39.703125 55.765625 41.0625 55.515625 
z
" id="DejaVuSans-114"/>
       <path d="M 34.28125 27.484375 
Q 23.390625 27.484375 19.1875 25 
Q 14.984375 22.515625 14.984375 16.5 
Q 14.984375 11.71875 18.140625 8.90625 
Q 21.296875 6.109375 26.703125 6.109375 
Q 34.1875 6.109375 38.703125 11.40625 
Q 43.21875 16.703125 43.21875 25.484375 
L 43.21875 27.484375 
z
M 52.203125 31.203125 
L 52.203125 0 
L 43.21875 0 
L 43.21875 8.296875 
Q 40.140625 3.328125 35.546875 0.953125 
Q 30.953125 -1.421875 24.3125 -1.421875 
Q 15.921875 -1.421875 10.953125 3.296875 
Q 6 8.015625 6 15.921875 
Q 6 25.140625 12.171875 29.828125 
Q 18.359375 34.515625 30.609375 34.515625 
L 43.21875 34.515625 
L 43.21875 35.40625 
Q 43.21875 41.609375 39.140625 45 
Q 35.0625 48.390625 27.6875 48.390625 
Q 23 48.390625 18.546875 47.265625 
Q 14.109375 46.140625 10.015625 43.890625 
L 10.015625 52.203125 
Q 14.9375 54.109375 19.578125 55.046875 
Q 24.21875 56 28.609375 56 
Q 40.484375 56 46.34375 49.84375 
Q 52.203125 43.703125 52.203125 31.203125 
z
" id="DejaVuSans-97"/>
       <path d="M 32.171875 -5.078125 
Q 28.375 -14.84375 24.75 -17.8125 
Q 21.140625 -20.796875 15.09375 -20.796875 
L 7.90625 -20.796875 
L 7.90625 -13.28125 
L 13.1875 -13.28125 
Q 16.890625 -13.28125 18.9375 -11.515625 
Q 21 -9.765625 23.484375 -3.21875 
L 25.09375 0.875 
L 2.984375 54.6875 
L 12.5 54.6875 
L 29.59375 11.921875 
L 46.6875 54.6875 
L 56.203125 54.6875 
z
" id="DejaVuSans-121"/>
       <path d="M 31 75.875 
Q 24.46875 64.65625 21.28125 53.65625 
Q 18.109375 42.671875 18.109375 31.390625 
Q 18.109375 20.125 21.3125 9.0625 
Q 24.515625 -2 31 -13.1875 
L 23.1875 -13.1875 
Q 15.875 -1.703125 12.234375 9.375 
Q 8.59375 20.453125 8.59375 31.390625 
Q 8.59375 42.28125 12.203125 53.3125 
Q 15.828125 64.359375 23.1875 75.875 
z
" id="DejaVuSans-40"/>
       <path d="M 72.703125 32.078125 
Q 68.453125 32.078125 66.03125 28.46875 
Q 63.625 24.859375 63.625 18.40625 
Q 63.625 12.0625 66.03125 8.421875 
Q 68.453125 4.78125 72.703125 4.78125 
Q 76.859375 4.78125 79.265625 8.421875 
Q 81.6875 12.0625 81.6875 18.40625 
Q 81.6875 24.8125 79.265625 28.4375 
Q 76.859375 32.078125 72.703125 32.078125 
z
M 72.703125 38.28125 
Q 80.421875 38.28125 84.953125 32.90625 
Q 89.5 27.546875 89.5 18.40625 
Q 89.5 9.28125 84.9375 3.921875 
Q 80.375 -1.421875 72.703125 -1.421875 
Q 64.890625 -1.421875 60.34375 3.921875 
Q 55.8125 9.28125 55.8125 18.40625 
Q 55.8125 27.59375 60.375 32.9375 
Q 64.9375 38.28125 72.703125 38.28125 
z
M 22.3125 68.015625 
Q 18.109375 68.015625 15.6875 64.375 
Q 13.28125 60.75 13.28125 54.390625 
Q 13.28125 47.953125 15.671875 44.328125 
Q 18.0625 40.71875 22.3125 40.71875 
Q 26.5625 40.71875 28.96875 44.328125 
Q 31.390625 47.953125 31.390625 54.390625 
Q 31.390625 60.6875 28.953125 64.34375 
Q 26.515625 68.015625 22.3125 68.015625 
z
M 66.40625 74.21875 
L 74.21875 74.21875 
L 28.609375 -1.421875 
L 20.796875 -1.421875 
z
M 22.3125 74.21875 
Q 30.03125 74.21875 34.609375 68.875 
Q 39.203125 63.53125 39.203125 54.390625 
Q 39.203125 45.171875 34.640625 39.84375 
Q 30.078125 34.515625 22.3125 34.515625 
Q 14.546875 34.515625 10.03125 39.859375 
Q 5.515625 45.21875 5.515625 54.390625 
Q 5.515625 63.484375 10.046875 68.84375 
Q 14.59375 74.21875 22.3125 74.21875 
z
" id="DejaVuSans-37"/>
       <path d="M 8.015625 75.875 
L 15.828125 75.875 
Q 23.140625 64.359375 26.78125 53.3125 
Q 30.421875 42.28125 30.421875 31.390625 
Q 30.421875 20.453125 26.78125 9.375 
Q 23.140625 -1.703125 15.828125 -13.1875 
L 8.015625 -13.1875 
Q 14.5 -2 17.703125 9.0625 
Q 20.90625 20.125 20.90625 31.390625 
Q 20.90625 42.671875 17.703125 53.65625 
Q 14.5 64.65625 8.015625 75.875 
z
" id="DejaVuSans-41"/>
      </defs>
      <use xlink:href="#DejaVuSans-84"/>
      <use x="44.083984" xlink:href="#DejaVuSans-101"/>
      <use x="105.607422" xlink:href="#DejaVuSans-115"/>
      <use x="157.707031" xlink:href="#DejaVuSans-116"/>
      <use x="196.916016" xlink:href="#DejaVuSans-32"/>
      <use x="228.703125" xlink:href="#DejaVuSans-65"/>
      <use x="295.361328" xlink:href="#DejaVuSans-99"/>
      <use x="350.341797" xlink:href="#DejaVuSans-99"/>
      <use x="405.322266" xlink:href="#DejaVuSans-117"/>
      <use x="468.701172" xlink:href="#DejaVuSans-114"/>
      <use x="509.814453" xlink:href="#DejaVuSans-97"/>
      <use x="571.09375" xlink:href="#DejaVuSans-99"/>
      <use x="626.074219" xlink:href="#DejaVuSans-121"/>
      <use x="685.253906" xlink:href="#DejaVuSans-32"/>
      <use x="717.041016" xlink:href="#DejaVuSans-40"/>
      <use x="756.054688" xlink:href="#DejaVuSans-37"/>
      <use x="851.074219" xlink:href="#DejaVuSans-41"/>
     </g>
    </g>
   </g>
   <g id="line2d_13">
    <path clip-path="url(#pb71b0dc8ae)" d="M 62.998636 278.400791 
L 65.472279 261.605787 
L 67.945921 248.4205 
L 70.419564 229.949015 
L 72.893206 205.889265 
L 75.366849 189.245294 
L 77.840491 167.254712 
L 80.314134 157.331764 
L 82.787776 136.171871 
L 85.261419 130.508088 
L 87.735061 111.296535 
L 90.208703 114.770322 
L 92.682346 108.970608 
L 95.155988 90.302779 
L 97.629631 95.860839 
L 100.103273 86.043614 
L 102.576916 82.418793 
L 105.050558 80.576176 
L 107.524201 69.852747 
L 109.997843 83.02293 
L 112.471486 74.595221 
L 114.945128 76.951355 
L 117.418771 76.528459 
L 119.892413 70.456883 
L 122.366056 73.477568 
L 124.839698 74.565014 
L 127.31334 71.574537 
L 129.786983 65.291513 
L 132.260625 69.490264 
L 134.734268 60.095936 
L 137.20791 63.328068 
L 139.681553 59.642834 
L 142.155195 67.798681 
L 144.628838 60.881314 
L 147.10248 58.343939 
L 149.576123 61.394831 
L 154.523408 56.863804 
L 156.99705 57.830423 
L 159.470692 68.312198 
L 161.944335 52.030709 
L 164.417977 53.752499 
L 166.89162 57.135666 
L 169.365262 55.353462 
L 171.838905 57.437734 
L 174.312547 59.67304 
L 176.78619 55.746151 
L 179.259832 53.510844 
L 181.733475 56.591942 
L 184.207117 54.809739 
L 186.68076 53.299397 
L 189.154402 53.812913 
L 191.628045 57.95125 
L 196.575329 52.967121 
L 199.048972 60.488625 
L 201.522614 50.278712 
L 203.996257 46.140375 
L 206.469899 49.765196 
L 208.943542 51.879675 
L 211.417184 53.541051 
L 213.890827 51.426572 
L 216.364469 45.32479 
L 218.838112 49.765196 
L 221.311754 50.701608 
L 226.259039 51.124504 
L 228.732682 48.828784 
L 231.206324 46.744512 
L 233.679966 47.167407 
L 236.153609 48.073613 
L 238.627251 51.215124 
L 241.100894 43.391552 
L 243.574536 44.75086 
L 246.048179 42.727001 
L 248.521821 45.022722 
L 250.995464 43.512379 
L 253.469106 44.025896 
L 255.942749 42.908243 
L 258.416391 39.978179 
L 260.890034 42.666588 
L 263.363676 44.690446 
L 265.837318 43.331138 
L 268.310961 41.186452 
L 270.784603 45.32479 
L 273.258246 48.224647 
L 275.731888 41.458314 
L 278.205531 38.43763 
L 280.679173 41.005211 
L 283.152816 39.796938 
L 285.626458 41.760382 
L 288.100101 45.475824 
L 290.573743 39.525076 
L 293.047386 39.132387 
L 295.521028 35.839841 
L 297.994671 42.364519 
L 300.468313 38.558457 
L 302.941955 38.135561 
L 305.415598 34.963843 
L 307.88924 36.443978 
L 310.362883 34.631568 
L 312.836525 35.990875 
L 315.310168 35.56798 
L 317.78381 36.172117 
L 320.257453 38.075148 
L 322.731095 36.685633 
L 325.204738 34.087844 
L 327.67838 34.99405 
L 330.152023 37.501218 
L 332.625665 36.23253 
L 335.099308 32.607709 
L 337.57295 36.746047 
L 340.046592 33.604535 
L 342.520235 32.909777 
L 344.993877 31.852538 
L 347.46752 32.879571 
L 349.941162 31.580676 
L 352.414805 33.030605 
L 354.888447 30.130748 
L 357.36209 32.486882 
L 359.835732 30.463023 
L 362.309375 31.610883 
L 364.783017 30.432816 
L 367.25666 29.466197 
L 369.730302 29.707852 
L 374.677587 28.650613 
L 377.151229 28.439165 
L 379.624872 27.955855 
L 382.098514 28.137096 
L 384.572157 27.200684 
L 389.519442 28.680819 
L 391.993084 26.989236 
L 394.466727 27.62358 
L 396.940369 27.804821 
L 399.414012 26.626754 
L 401.887654 26.898616 
L 404.361297 27.291305 
L 406.834939 28.046476 
L 409.308581 28.106889 
L 411.782224 27.351718 
L 414.255866 26.989236 
L 416.729509 27.502753 
L 419.203151 27.472546 
L 421.676794 26.596547 
L 424.150436 27.804821 
L 426.624079 27.04965 
L 429.097721 26.113238 
L 431.571364 27.230891 
L 431.571364 27.230891 
" style="fill:none;stroke:#1f77b4;stroke-linecap:square;stroke-width:1.5;"/>
   </g>
   <g id="line2d_14">
    <path clip-path="url(#pb71b0dc8ae)" d="M 62.998636 265.713917 
L 65.472279 231.270564 
L 67.945921 216.053867 
L 70.419564 191.873289 
L 72.893206 183.067995 
L 75.366849 179.292139 
L 77.840491 158.28328 
L 80.314134 152.861151 
L 82.787776 140.718001 
L 85.261419 134.646425 
L 87.735061 123.983409 
L 90.208703 114.800529 
L 92.682346 120.479416 
L 95.155988 111.689224 
L 97.629631 107.550887 
L 100.103273 101.267863 
L 102.576916 100.120003 
L 105.050558 90.755882 
L 107.524201 90.665261 
L 109.997843 92.236017 
L 112.471486 93.444291 
L 114.945128 86.013408 
L 117.418771 86.617545 
L 119.892413 91.480846 
L 122.366056 84.110377 
L 124.839698 81.482381 
L 127.31334 82.146932 
L 129.786983 83.143758 
L 132.260625 83.173964 
L 134.734268 78.340869 
L 137.20791 72.239087 
L 139.681553 80.999072 
L 142.155195 76.105563 
L 144.628838 68.976748 
L 147.10248 72.69219 
L 149.576123 73.93067 
L 152.049765 72.027639 
L 154.523408 73.024465 
L 156.99705 70.819366 
L 159.470692 72.722397 
L 161.944335 69.278817 
L 164.417977 66.95289 
L 166.89162 70.607918 
L 169.365262 67.677854 
L 171.838905 60.428212 
L 174.312547 70.426677 
L 176.78619 73.26612 
L 179.259832 66.711235 
L 181.733475 57.649182 
L 184.207117 65.533168 
L 186.68076 61.576072 
L 189.154402 64.204067 
L 191.628045 62.361449 
L 194.101687 63.116621 
L 196.575329 62.180208 
L 199.048972 59.67304 
L 201.522614 65.080065 
L 203.996257 54.114981 
L 206.469899 61.968761 
L 208.943542 61.153176 
L 211.417184 66.318546 
L 213.890827 58.494974 
L 216.364469 60.609453 
L 218.838112 59.129317 
L 221.311754 57.890837 
L 223.785397 52.332778 
L 226.259039 61.908347 
L 228.732682 50.610988 
L 231.206324 52.030709 
L 233.679966 55.836771 
L 236.153609 63.086414 
L 238.627251 57.256493 
L 241.100894 52.302571 
L 243.574536 52.936914 
L 246.048179 51.940089 
L 248.521821 49.040232 
L 250.995464 54.024361 
L 253.469106 51.5474 
L 255.942749 51.366159 
L 258.416391 51.456779 
L 260.890034 49.281886 
L 263.363676 49.886023 
L 265.837318 53.329603 
L 268.310961 47.892372 
L 270.784603 51.758848 
L 273.258246 48.889197 
L 275.731888 45.234169 
L 278.205531 45.32479 
L 280.679173 43.482173 
L 283.152816 46.382029 
L 285.626458 44.358171 
L 288.100101 45.506031 
L 290.573743 46.382029 
L 293.047386 41.337487 
L 295.521028 44.17693 
L 297.994671 39.58549 
L 300.468313 45.868513 
L 302.941955 41.30728 
L 305.415598 40.280247 
L 307.88924 40.82397 
L 310.362883 40.703143 
L 312.836525 42.606174 
L 315.310168 40.672936 
L 317.78381 38.558457 
L 320.257453 42.908243 
L 322.731095 41.367694 
L 325.204738 37.712666 
L 327.67838 36.353358 
L 330.152023 38.165768 
L 332.625665 35.719014 
L 335.099308 37.440804 
L 337.57295 36.292944 
L 340.046592 38.256389 
L 342.520235 34.812809 
L 344.993877 35.416945 
L 347.46752 36.383564 
L 349.941162 33.997224 
L 352.414805 34.269085 
L 354.888447 32.033779 
L 357.36209 31.459849 
L 359.835732 32.063986 
L 362.309375 30.644264 
L 364.783017 33.27226 
L 367.25666 30.674471 
L 372.203944 31.399435 
L 374.677587 29.254749 
L 377.151229 30.855712 
L 379.624872 28.77144 
L 382.098514 29.828679 
L 384.572157 29.858886 
L 387.045799 28.680819 
L 389.519442 28.469372 
L 391.993084 29.738059 
L 394.466727 29.647438 
L 396.940369 30.009921 
L 399.414012 28.046476 
L 401.887654 27.261098 
L 404.361297 28.650613 
L 406.834939 28.318337 
L 409.308581 29.647438 
L 411.782224 29.073508 
L 414.255866 29.013095 
L 416.729509 29.405784 
L 419.203151 29.103715 
L 421.676794 29.677645 
L 424.150436 28.892267 
L 426.624079 29.284956 
L 429.097721 28.952681 
L 431.571364 29.677645 
L 431.571364 29.677645 
" style="fill:none;stroke:#ff7f0e;stroke-linecap:square;stroke-width:1.5;"/>
   </g>
   <g id="line2d_15">
    <path clip-path="url(#pb71b0dc8ae)" d="M 62.998636 253.147871 
L 65.472279 222.216063 
L 67.945921 213.395665 
L 70.419564 199.258862 
L 72.893206 180.53062 
L 75.366849 169.520225 
L 77.840491 157.195833 
L 80.314134 149.523295 
L 82.787776 144.040753 
L 85.261419 141.865861 
L 87.735061 124.950028 
L 90.208703 125.946854 
L 92.682346 123.862582 
L 95.155988 114.135979 
L 97.629631 111.266328 
L 100.103273 104.65103 
L 102.576916 100.210624 
L 105.050558 94.380703 
L 107.524201 93.655739 
L 109.997843 90.665261 
L 112.471486 91.994363 
L 114.945128 91.722501 
L 117.418771 89.064299 
L 119.892413 87.402922 
L 122.366056 80.606383 
L 124.839698 76.256597 
L 127.31334 84.714513 
L 129.786983 81.089692 
L 132.260625 89.698643 
L 134.734268 76.588873 
L 137.20791 74.202532 
L 139.681553 77.706526 
L 142.155195 76.105563 
L 144.628838 67.073717 
L 147.10248 71.665157 
L 149.576123 69.067369 
L 152.049765 69.731919 
L 154.523408 74.776462 
L 156.99705 74.806669 
L 159.470692 74.685841 
L 161.944335 67.677854 
L 164.417977 66.107098 
L 166.89162 68.493439 
L 169.365262 72.359915 
L 171.838905 66.137305 
L 174.312547 72.752604 
L 176.78619 70.789159 
L 179.259832 68.161163 
L 181.733475 60.549039 
L 184.207117 65.502961 
L 186.68076 59.09911 
L 189.154402 59.250145 
L 191.628045 62.754138 
L 194.101687 60.458418 
L 196.575329 64.022826 
L 199.048972 57.014838 
L 201.522614 64.204067 
L 203.996257 54.809739 
L 208.943542 59.068904 
L 211.417184 66.439373 
L 213.890827 58.011664 
L 216.364469 57.86063 
L 218.838112 58.253319 
L 221.311754 59.491799 
L 223.785397 54.688911 
L 226.259039 62.210415 
L 228.732682 57.467941 
L 231.206324 49.070439 
L 233.679966 51.849468 
L 236.153609 61.515658 
L 238.627251 58.615801 
L 241.100894 53.84312 
L 243.574536 53.994154 
L 248.521821 50.731815 
L 250.995464 52.997328 
L 253.469106 51.335952 
L 255.942749 53.93374 
L 258.416391 49.161059 
L 260.890034 52.272364 
L 263.363676 52.755673 
L 265.837318 49.734989 
L 268.310961 49.674575 
L 270.784603 48.67775 
L 273.258246 49.221473 
L 275.731888 47.197614 
L 278.205531 45.657065 
L 280.679173 45.808099 
L 285.626458 46.291409 
L 288.100101 46.321616 
L 290.573743 42.032244 
L 293.047386 44.599826 
L 295.521028 45.143549 
L 297.994671 42.938449 
L 300.468313 44.720653 
L 302.941955 41.609348 
L 305.415598 40.15942 
L 307.88924 41.579141 
L 310.362883 40.763557 
L 312.836525 42.032244 
L 315.310168 39.253215 
L 317.78381 39.253215 
L 320.257453 42.485347 
L 322.731095 38.860526 
L 325.204738 37.833493 
L 327.67838 35.235704 
L 330.152023 37.8637 
L 332.625665 38.195975 
L 335.099308 38.105354 
L 337.57295 36.71584 
L 340.046592 35.598186 
L 342.520235 34.752395 
L 344.993877 36.836667 
L 347.46752 36.383564 
L 349.941162 36.353358 
L 352.414805 35.054463 
L 354.888447 30.795298 
L 357.36209 32.275434 
L 359.835732 35.205498 
L 362.309375 31.822331 
L 364.783017 31.973365 
L 367.25666 31.339022 
L 369.730302 31.248401 
L 374.677587 30.825505 
L 377.151229 30.855712 
L 379.624872 30.614057 
L 382.098514 29.647438 
L 384.572157 30.009921 
L 387.045799 29.828679 
L 389.519442 30.130748 
L 391.993084 29.073508 
L 394.466727 28.801647 
L 396.940369 28.86206 
L 399.414012 28.28813 
L 401.887654 29.284956 
L 404.361297 29.043302 
L 406.834939 29.254749 
L 409.308581 29.133922 
L 411.782224 29.647438 
L 414.255866 28.408958 
L 416.729509 28.620406 
L 419.203151 29.103715 
L 421.676794 28.892267 
L 424.150436 29.707852 
L 426.624079 29.707852 
L 431.571364 28.982888 
L 431.571364 28.982888 
" style="fill:none;stroke:#2ca02c;stroke-linecap:square;stroke-width:1.5;"/>
   </g>
   <g id="line2d_16">
    <path clip-path="url(#pb71b0dc8ae)" d="M 62.998636 257.610932 
L 65.472279 221.00779 
L 67.945921 214.362284 
L 70.419564 195.875696 
L 75.366849 171.861256 
L 77.840491 157.452592 
L 80.314134 151.985153 
L 82.787776 142.83248 
L 85.261419 134.616218 
L 87.735061 125.644786 
L 90.208703 122.533481 
L 92.682346 127.124921 
L 95.155988 109.876814 
L 97.629631 97.371181 
L 100.103273 99.213798 
L 102.576916 97.18994 
L 105.050558 86.285269 
L 107.524201 92.900568 
L 109.997843 93.414084 
L 112.471486 89.33616 
L 114.945128 91.450639 
L 117.418771 85.590512 
L 119.892413 87.493543 
L 122.366056 83.385412 
L 124.839698 88.701817 
L 127.31334 80.72721 
L 129.786983 82.509414 
L 132.260625 87.282095 
L 134.734268 72.873431 
L 137.20791 76.951355 
L 139.681553 80.123073 
L 142.155195 78.884593 
L 144.628838 72.933845 
L 147.10248 77.011768 
L 149.576123 74.806669 
L 152.049765 67.134131 
L 154.523408 76.256597 
L 156.99705 73.235913 
L 159.470692 74.927496 
L 161.944335 70.275642 
L 164.417977 70.185022 
L 166.89162 66.681028 
L 169.365262 78.673145 
L 171.838905 66.862269 
L 174.312547 74.293153 
L 176.78619 71.785985 
L 179.259832 63.59993 
L 181.733475 59.219938 
L 184.207117 66.439373 
L 186.68076 61.757313 
L 189.154402 61.606278 
L 191.628045 65.261306 
L 194.101687 62.512484 
L 196.575329 74.957703 
L 199.048972 62.210415 
L 201.522614 63.328068 
L 203.996257 58.43456 
L 206.469899 61.092762 
L 208.943542 58.736628 
L 211.417184 69.762126 
L 213.890827 58.162698 
L 216.364469 56.259667 
L 218.838112 58.374146 
L 221.311754 59.58242 
L 223.785397 55.0816 
L 226.259039 62.723932 
L 228.732682 52.574432 
L 231.206324 56.561736 
L 233.679966 56.048219 
L 236.153609 58.948076 
L 238.627251 61.394831 
L 241.100894 55.504496 
L 243.574536 56.440908 
L 246.048179 56.682563 
L 248.521821 55.202428 
L 250.995464 58.464767 
L 253.469106 51.819261 
L 255.942749 50.792229 
L 258.416391 53.299397 
L 260.890034 48.76837 
L 263.363676 52.151537 
L 265.837318 49.040232 
L 268.310961 48.67775 
L 270.784603 50.671401 
L 273.258246 48.285061 
L 275.731888 46.382029 
L 278.205531 46.986166 
L 280.679173 45.264376 
L 283.152816 46.079961 
L 285.626458 43.421759 
L 288.100101 44.720653 
L 290.573743 43.995689 
L 293.047386 45.747686 
L 295.521028 43.482173 
L 297.994671 42.062451 
L 300.468313 45.89872 
L 302.941955 42.696795 
L 305.415598 40.310454 
L 307.88924 42.062451 
L 310.362883 41.911417 
L 312.836525 41.911417 
L 315.310168 39.404249 
L 317.78381 42.334313 
L 320.257453 43.270725 
L 322.731095 39.192801 
L 325.204738 38.256389 
L 327.67838 37.682459 
L 330.152023 40.340661 
L 332.625665 38.588664 
L 335.099308 40.15942 
L 337.57295 34.540947 
L 340.046592 36.655426 
L 342.520235 33.815983 
L 344.993877 36.292944 
L 347.46752 35.688807 
L 349.941162 34.118051 
L 352.414805 32.819157 
L 354.888447 33.785776 
L 357.36209 33.815983 
L 359.835732 31.882745 
L 362.309375 30.402609 
L 364.783017 30.885919 
L 367.25666 31.218194 
L 369.730302 32.547295 
L 372.203944 29.858886 
L 374.677587 32.668123 
L 377.151229 29.858886 
L 379.624872 29.707852 
L 382.098514 30.523437 
L 384.572157 30.674471 
L 387.045799 30.221368 
L 389.519442 29.526611 
L 391.993084 30.251575 
L 394.466727 30.704678 
L 396.940369 30.040127 
L 399.414012 30.070334 
L 401.887654 29.526611 
L 406.834939 29.677645 
L 409.308581 28.801647 
L 411.782224 28.922474 
L 414.255866 29.707852 
L 416.729509 28.318337 
L 419.203151 29.164129 
L 421.676794 29.617232 
L 426.624079 28.801647 
L 429.097721 28.650613 
L 431.571364 28.831854 
L 431.571364 28.831854 
" style="fill:none;stroke:#d62728;stroke-linecap:square;stroke-width:1.5;"/>
   </g>
   <g id="patch_3">
    <path d="M 44.57 303.64 
L 44.57 10.8 
" style="fill:none;stroke:#000000;stroke-linecap:square;stroke-linejoin:miter;stroke-width:0.8;"/>
   </g>
   <g id="patch_4">
    <path d="M 450 303.64 
L 450 10.8 
" style="fill:none;stroke:#000000;stroke-linecap:square;stroke-linejoin:miter;stroke-width:0.8;"/>
   </g>
   <g id="patch_5">
    <path d="M 44.57 303.64 
L 450 303.64 
" style="fill:none;stroke:#000000;stroke-linecap:square;stroke-linejoin:miter;stroke-width:0.8;"/>
   </g>
   <g id="patch_6">
    <path d="M 44.57 10.8 
L 450 10.8 
" style="fill:none;stroke:#000000;stroke-linecap:square;stroke-linejoin:miter;stroke-width:0.8;"/>
   </g>
   <g id="legend_1">
    <g id="patch_7">
     <path d="M 321.514062 298.64 
L 443 298.64 
Q 445 298.64 445 296.64 
L 445 238.9275 
Q 445 236.9275 443 236.9275 
L 321.514062 236.9275 
Q 319.514062 236.9275 319.514062 238.9275 
L 319.514062 296.64 
Q 319.514062 298.64 321.514062 298.64 
z
" style="fill:#ffffff;opacity:0.8;stroke:#cccccc;stroke-linejoin:miter;"/>
    </g>
    <g id="line2d_17">
     <path d="M 323.514062 245.025937 
L 343.514062 245.025937 
" style="fill:none;stroke:#1f77b4;stroke-linecap:square;stroke-width:1.5;"/>
    </g>
    <g id="line2d_18"/>
    <g id="text_15">
     <!-- AllReduce SGD -->
     <g transform="translate(351.514062 248.525937)scale(0.1 -0.1)">
      <defs>
       <path d="M 9.421875 75.984375 
L 18.40625 75.984375 
L 18.40625 0 
L 9.421875 0 
z
" id="DejaVuSans-108"/>
       <path d="M 44.390625 34.1875 
Q 47.5625 33.109375 50.5625 29.59375 
Q 53.5625 26.078125 56.59375 19.921875 
L 66.609375 0 
L 56 0 
L 46.6875 18.703125 
Q 43.0625 26.03125 39.671875 28.421875 
Q 36.28125 30.8125 30.421875 30.8125 
L 19.671875 30.8125 
L 19.671875 0 
L 9.8125 0 
L 9.8125 72.90625 
L 32.078125 72.90625 
Q 44.578125 72.90625 50.734375 67.671875 
Q 56.890625 62.453125 56.890625 51.90625 
Q 56.890625 45.015625 53.6875 40.46875 
Q 50.484375 35.9375 44.390625 34.1875 
z
M 19.671875 64.796875 
L 19.671875 38.921875 
L 32.078125 38.921875 
Q 39.203125 38.921875 42.84375 42.21875 
Q 46.484375 45.515625 46.484375 51.90625 
Q 46.484375 58.296875 42.84375 61.546875 
Q 39.203125 64.796875 32.078125 64.796875 
z
" id="DejaVuSans-82"/>
       <path d="M 45.40625 46.390625 
L 45.40625 75.984375 
L 54.390625 75.984375 
L 54.390625 0 
L 45.40625 0 
L 45.40625 8.203125 
Q 42.578125 3.328125 38.25 0.953125 
Q 33.9375 -1.421875 27.875 -1.421875 
Q 17.96875 -1.421875 11.734375 6.484375 
Q 5.515625 14.40625 5.515625 27.296875 
Q 5.515625 40.1875 11.734375 48.09375 
Q 17.96875 56 27.875 56 
Q 33.9375 56 38.25 53.625 
Q 42.578125 51.265625 45.40625 46.390625 
z
M 14.796875 27.296875 
Q 14.796875 17.390625 18.875 11.75 
Q 22.953125 6.109375 30.078125 6.109375 
Q 37.203125 6.109375 41.296875 11.75 
Q 45.40625 17.390625 45.40625 27.296875 
Q 45.40625 37.203125 41.296875 42.84375 
Q 37.203125 48.484375 30.078125 48.484375 
Q 22.953125 48.484375 18.875 42.84375 
Q 14.796875 37.203125 14.796875 27.296875 
z
" id="DejaVuSans-100"/>
       <path d="M 53.515625 70.515625 
L 53.515625 60.890625 
Q 47.90625 63.578125 42.921875 64.890625 
Q 37.9375 66.21875 33.296875 66.21875 
Q 25.25 66.21875 20.875 63.09375 
Q 16.5 59.96875 16.5 54.203125 
Q 16.5 49.359375 19.40625 46.890625 
Q 22.3125 44.4375 30.421875 42.921875 
L 36.375 41.703125 
Q 47.40625 39.59375 52.65625 34.296875 
Q 57.90625 29 57.90625 20.125 
Q 57.90625 9.515625 50.796875 4.046875 
Q 43.703125 -1.421875 29.984375 -1.421875 
Q 24.8125 -1.421875 18.96875 -0.25 
Q 13.140625 0.921875 6.890625 3.21875 
L 6.890625 13.375 
Q 12.890625 10.015625 18.65625 8.296875 
Q 24.421875 6.59375 29.984375 6.59375 
Q 38.421875 6.59375 43.015625 9.90625 
Q 47.609375 13.234375 47.609375 19.390625 
Q 47.609375 24.75 44.3125 27.78125 
Q 41.015625 30.8125 33.5 32.328125 
L 27.484375 33.5 
Q 16.453125 35.6875 11.515625 40.375 
Q 6.59375 45.0625 6.59375 53.421875 
Q 6.59375 63.09375 13.40625 68.65625 
Q 20.21875 74.21875 32.171875 74.21875 
Q 37.3125 74.21875 42.625 73.28125 
Q 47.953125 72.359375 53.515625 70.515625 
z
" id="DejaVuSans-83"/>
       <path d="M 59.515625 10.40625 
L 59.515625 29.984375 
L 43.40625 29.984375 
L 43.40625 38.09375 
L 69.28125 38.09375 
L 69.28125 6.78125 
Q 63.578125 2.734375 56.6875 0.65625 
Q 49.8125 -1.421875 42 -1.421875 
Q 24.90625 -1.421875 15.25 8.5625 
Q 5.609375 18.5625 5.609375 36.375 
Q 5.609375 54.25 15.25 64.234375 
Q 24.90625 74.21875 42 74.21875 
Q 49.125 74.21875 55.546875 72.453125 
Q 61.96875 70.703125 67.390625 67.28125 
L 67.390625 56.78125 
Q 61.921875 61.421875 55.765625 63.765625 
Q 49.609375 66.109375 42.828125 66.109375 
Q 29.4375 66.109375 22.71875 58.640625 
Q 16.015625 51.171875 16.015625 36.375 
Q 16.015625 21.625 22.71875 14.15625 
Q 29.4375 6.6875 42.828125 6.6875 
Q 48.046875 6.6875 52.140625 7.59375 
Q 56.25 8.5 59.515625 10.40625 
z
" id="DejaVuSans-71"/>
       <path d="M 19.671875 64.796875 
L 19.671875 8.109375 
L 31.59375 8.109375 
Q 46.6875 8.109375 53.6875 14.9375 
Q 60.6875 21.78125 60.6875 36.53125 
Q 60.6875 51.171875 53.6875 57.984375 
Q 46.6875 64.796875 31.59375 64.796875 
z
M 9.8125 72.90625 
L 30.078125 72.90625 
Q 51.265625 72.90625 61.171875 64.09375 
Q 71.09375 55.28125 71.09375 36.53125 
Q 71.09375 17.671875 61.125 8.828125 
Q 51.171875 0 30.078125 0 
L 9.8125 0 
z
" id="DejaVuSans-68"/>
      </defs>
      <use xlink:href="#DejaVuSans-65"/>
      <use x="68.408203" xlink:href="#DejaVuSans-108"/>
      <use x="96.191406" xlink:href="#DejaVuSans-108"/>
      <use x="123.974609" xlink:href="#DejaVuSans-82"/>
      <use x="188.957031" xlink:href="#DejaVuSans-101"/>
      <use x="250.480469" xlink:href="#DejaVuSans-100"/>
      <use x="313.957031" xlink:href="#DejaVuSans-117"/>
      <use x="377.335938" xlink:href="#DejaVuSans-99"/>
      <use x="432.316406" xlink:href="#DejaVuSans-101"/>
      <use x="493.839844" xlink:href="#DejaVuSans-32"/>
      <use x="525.626953" xlink:href="#DejaVuSans-83"/>
      <use x="589.103516" xlink:href="#DejaVuSans-71"/>
      <use x="666.59375" xlink:href="#DejaVuSans-68"/>
     </g>
    </g>
    <g id="line2d_19">
     <path d="M 323.514062 259.704062 
L 343.514062 259.704062 
" style="fill:none;stroke:#ff7f0e;stroke-linecap:square;stroke-width:1.5;"/>
    </g>
    <g id="line2d_20"/>
    <g id="text_16">
     <!-- GRandK-MN 8 bits -->
     <g transform="translate(351.514062 263.204062)scale(0.1 -0.1)">
      <defs>
       <path d="M 54.890625 33.015625 
L 54.890625 0 
L 45.90625 0 
L 45.90625 32.71875 
Q 45.90625 40.484375 42.875 44.328125 
Q 39.84375 48.1875 33.796875 48.1875 
Q 26.515625 48.1875 22.3125 43.546875 
Q 18.109375 38.921875 18.109375 30.90625 
L 18.109375 0 
L 9.078125 0 
L 9.078125 54.6875 
L 18.109375 54.6875 
L 18.109375 46.1875 
Q 21.34375 51.125 25.703125 53.5625 
Q 30.078125 56 35.796875 56 
Q 45.21875 56 50.046875 50.171875 
Q 54.890625 44.34375 54.890625 33.015625 
z
" id="DejaVuSans-110"/>
       <path d="M 9.8125 72.90625 
L 19.671875 72.90625 
L 19.671875 42.09375 
L 52.390625 72.90625 
L 65.09375 72.90625 
L 28.90625 38.921875 
L 67.671875 0 
L 54.6875 0 
L 19.671875 35.109375 
L 19.671875 0 
L 9.8125 0 
z
" id="DejaVuSans-75"/>
       <path d="M 4.890625 31.390625 
L 31.203125 31.390625 
L 31.203125 23.390625 
L 4.890625 23.390625 
z
" id="DejaVuSans-45"/>
       <path d="M 9.8125 72.90625 
L 24.515625 72.90625 
L 43.109375 23.296875 
L 61.8125 72.90625 
L 76.515625 72.90625 
L 76.515625 0 
L 66.890625 0 
L 66.890625 64.015625 
L 48.09375 14.015625 
L 38.1875 14.015625 
L 19.390625 64.015625 
L 19.390625 0 
L 9.8125 0 
z
" id="DejaVuSans-77"/>
       <path d="M 9.8125 72.90625 
L 23.09375 72.90625 
L 55.421875 11.921875 
L 55.421875 72.90625 
L 64.984375 72.90625 
L 64.984375 0 
L 51.703125 0 
L 19.390625 60.984375 
L 19.390625 0 
L 9.8125 0 
z
" id="DejaVuSans-78"/>
       <path d="M 48.6875 27.296875 
Q 48.6875 37.203125 44.609375 42.84375 
Q 40.53125 48.484375 33.40625 48.484375 
Q 26.265625 48.484375 22.1875 42.84375 
Q 18.109375 37.203125 18.109375 27.296875 
Q 18.109375 17.390625 22.1875 11.75 
Q 26.265625 6.109375 33.40625 6.109375 
Q 40.53125 6.109375 44.609375 11.75 
Q 48.6875 17.390625 48.6875 27.296875 
z
M 18.109375 46.390625 
Q 20.953125 51.265625 25.265625 53.625 
Q 29.59375 56 35.59375 56 
Q 45.5625 56 51.78125 48.09375 
Q 58.015625 40.1875 58.015625 27.296875 
Q 58.015625 14.40625 51.78125 6.484375 
Q 45.5625 -1.421875 35.59375 -1.421875 
Q 29.59375 -1.421875 25.265625 0.953125 
Q 20.953125 3.328125 18.109375 8.203125 
L 18.109375 0 
L 9.078125 0 
L 9.078125 75.984375 
L 18.109375 75.984375 
z
" id="DejaVuSans-98"/>
       <path d="M 9.421875 54.6875 
L 18.40625 54.6875 
L 18.40625 0 
L 9.421875 0 
z
M 9.421875 75.984375 
L 18.40625 75.984375 
L 18.40625 64.59375 
L 9.421875 64.59375 
z
" id="DejaVuSans-105"/>
      </defs>
      <use xlink:href="#DejaVuSans-71"/>
      <use x="77.490234" xlink:href="#DejaVuSans-82"/>
      <use x="144.722656" xlink:href="#DejaVuSans-97"/>
      <use x="206.001953" xlink:href="#DejaVuSans-110"/>
      <use x="269.380859" xlink:href="#DejaVuSans-100"/>
      <use x="332.857422" xlink:href="#DejaVuSans-75"/>
      <use x="387.933594" xlink:href="#DejaVuSans-45"/>
      <use x="424.017578" xlink:href="#DejaVuSans-77"/>
      <use x="510.296875" xlink:href="#DejaVuSans-78"/>
      <use x="585.101562" xlink:href="#DejaVuSans-32"/>
      <use x="616.888672" xlink:href="#DejaVuSans-56"/>
      <use x="680.511719" xlink:href="#DejaVuSans-32"/>
      <use x="712.298828" xlink:href="#DejaVuSans-98"/>
      <use x="775.775391" xlink:href="#DejaVuSans-105"/>
      <use x="803.558594" xlink:href="#DejaVuSans-116"/>
      <use x="842.767578" xlink:href="#DejaVuSans-115"/>
     </g>
    </g>
    <g id="line2d_21">
     <path d="M 323.514062 274.382187 
L 343.514062 274.382187 
" style="fill:none;stroke:#2ca02c;stroke-linecap:square;stroke-width:1.5;"/>
    </g>
    <g id="line2d_22"/>
    <g id="text_17">
     <!-- GRandK-MN 4 bits -->
     <g transform="translate(351.514062 277.882187)scale(0.1 -0.1)">
      <use xlink:href="#DejaVuSans-71"/>
      <use x="77.490234" xlink:href="#DejaVuSans-82"/>
      <use x="144.722656" xlink:href="#DejaVuSans-97"/>
      <use x="206.001953" xlink:href="#DejaVuSans-110"/>
      <use x="269.380859" xlink:href="#DejaVuSans-100"/>
      <use x="332.857422" xlink:href="#DejaVuSans-75"/>
      <use x="387.933594" xlink:href="#DejaVuSans-45"/>
      <use x="424.017578" xlink:href="#DejaVuSans-77"/>
      <use x="510.296875" xlink:href="#DejaVuSans-78"/>
      <use x="585.101562" xlink:href="#DejaVuSans-32"/>
      <use x="616.888672" xlink:href="#DejaVuSans-52"/>
      <use x="680.511719" xlink:href="#DejaVuSans-32"/>
      <use x="712.298828" xlink:href="#DejaVuSans-98"/>
      <use x="775.775391" xlink:href="#DejaVuSans-105"/>
      <use x="803.558594" xlink:href="#DejaVuSans-116"/>
      <use x="842.767578" xlink:href="#DejaVuSans-115"/>
     </g>
    </g>
    <g id="line2d_23">
     <path d="M 323.514062 289.060312 
L 343.514062 289.060312 
" style="fill:none;stroke:#d62728;stroke-linecap:square;stroke-width:1.5;"/>
    </g>
    <g id="line2d_24"/>
    <g id="text_18">
     <!-- GRandK-MN 2 bits -->
     <g transform="translate(351.514062 292.560312)scale(0.1 -0.1)">
      <use xlink:href="#DejaVuSans-71"/>
      <use x="77.490234" xlink:href="#DejaVuSans-82"/>
      <use x="144.722656" xlink:href="#DejaVuSans-97"/>
      <use x="206.001953" xlink:href="#DejaVuSans-110"/>
      <use x="269.380859" xlink:href="#DejaVuSans-100"/>
      <use x="332.857422" xlink:href="#DejaVuSans-75"/>
      <use x="387.933594" xlink:href="#DejaVuSans-45"/>
      <use x="424.017578" xlink:href="#DejaVuSans-77"/>
      <use x="510.296875" xlink:href="#DejaVuSans-78"/>
      <use x="585.101562" xlink:href="#DejaVuSans-32"/>
      <use x="616.888672" xlink:href="#DejaVuSans-50"/>
      <use x="680.511719" xlink:href="#DejaVuSans-32"/>
      <use x="712.298828" xlink:href="#DejaVuSans-98"/>
      <use x="775.775391" xlink:href="#DejaVuSans-105"/>
      <use x="803.558594" xlink:href="#DejaVuSans-116"/>
      <use x="842.767578" xlink:href="#DejaVuSans-115"/>
     </g>
    </g>
   </g>
  </g>
 </g>
 <defs>
  <clipPath id="pb71b0dc8ae">
   <rect height="292.84" width="405.43" x="44.57" y="10.8"/>
  </clipPath>
 </defs>
</svg>
