<?xml version="1.0" encoding="utf-8" standalone="no"?>
<!DOCTYPE svg PUBLIC "-//W3C//DTD SVG 1.1//EN"
  "http://www.w3.org/Graphics/SVG/1.1/DTD/svg11.dtd">
<!-- Created with matplotlib (https://matplotlib.org/) -->
<svg height="345.6pt" version="1.1" viewBox="0 0 460.8 345.6" width="460.8pt" xmlns="http://www.w3.org/2000/svg" xmlns:xlink="http://www.w3.org/1999/xlink">
 <metadata>
  <rdf:RDF xmlns:cc="http://creativecommons.org/ns#" xmlns:dc="http://purl.org/dc/elements/1.1/" xmlns:rdf="http://www.w3.org/1999/02/22-rdf-syntax-ns#">
   <cc:Work>
    <dc:type rdf:resource="http://purl.org/dc/dcmitype/StillImage"/>
    <dc:date>2021-06-10T08:56:24.300514</dc:date>
    <dc:format>image/svg+xml</dc:format>
    <dc:creator>
     <cc:Agent>
      <dc:title>Matplotlib v3.3.1, https://matplotlib.org/</dc:title>
     </cc:Agent>
    </dc:creator>
   </cc:Work>
  </rdf:RDF>
 </metadata>
 <defs>
  <style type="text/css">*{stroke-linecap:butt;stroke-linejoin:round;}</style>
 </defs>
 <g id="figure_1">
  <g id="patch_1">
   <path d="M 0 345.6 
L 460.8 345.6 
L 460.8 0 
L 0 0 
z
" style="fill:#ffffff;"/>
  </g>
  <g id="axes_1">
   <g id="patch_2">
    <path d="M 44.57 303.64 
L 450 303.64 
L 450 10.8 
L 44.57 10.8 
z
" style="fill:#ffffff;"/>
   </g>
   <g id="PolyCollection_1">
    <path clip-path="url(#pb9eeab1d77)" d="M 63.087946 266.472492 
L 63.087946 290.329091 
L 65.575898 274.667444 
L 68.062245 258.137547 
L 70.53697 241.228106 
L 73.002028 219.908787 
L 75.481793 203.538239 
L 77.958536 181.956138 
L 80.439126 172.615352 
L 82.926985 155.418182 
L 85.392154 146.148583 
L 87.862978 115.676423 
L 90.328346 131.440669 
L 92.797571 124.713098 
L 95.276575 100.482261 
L 97.720855 104.395007 
L 100.203666 98.530409 
L 102.665907 88.66219 
L 105.13402 87.61923 
L 107.62151 75.486465 
L 110.090382 87.084599 
L 112.552266 83.410445 
L 115.020921 92.340963 
L 117.510022 94.639974 
L 119.970226 78.356074 
L 122.438238 83.902387 
L 124.892217 81.171963 
L 127.374855 75.269662 
L 129.838566 72.015912 
L 132.305548 76.593434 
L 134.792007 68.355395 
L 137.26317 69.947848 
L 139.738683 62.328356 
L 142.19522 71.885434 
L 144.67267 64.997211 
L 147.149586 63.038748 
L 149.605616 69.308447 
L 152.062214 66.23624 
L 154.561805 65.397652 
L 157.016662 64.735446 
L 159.491963 76.613091 
L 161.957459 54.084774 
L 164.427681 57.738658 
L 166.887326 63.602753 
L 169.341246 58.549397 
L 171.83165 64.097367 
L 174.310594 71.528832 
L 176.782837 60.861374 
L 179.252748 60.28661 
L 181.739155 61.074377 
L 184.228902 61.645701 
L 186.687488 58.353427 
L 189.157004 59.10782 
L 191.61988 66.116602 
L 194.097062 60.824463 
L 196.571448 58.332557 
L 199.044154 65.763505 
L 201.515381 59.20247 
L 204.010928 50.066567 
L 206.46311 54.505265 
L 208.931695 54.506802 
L 211.397384 57.099053 
L 213.866245 56.694528 
L 216.332326 48.445904 
L 218.822736 54.122108 
L 221.28214 54.502152 
L 223.770884 56.103829 
L 226.241088 55.586945 
L 228.696636 52.761014 
L 231.171763 52.179561 
L 233.626439 53.768553 
L 236.103609 53.391733 
L 238.570753 55.579569 
L 241.050203 46.938252 
L 243.516059 49.503617 
L 245.986006 46.754153 
L 248.459652 47.543862 
L 250.936086 46.117183 
L 253.39959 48.208644 
L 255.858124 45.066711 
L 258.343189 42.872366 
L 260.811184 44.467382 
L 263.290897 49.07762 
L 265.747878 48.105731 
L 268.212449 43.964825 
L 270.677617 48.751104 
L 273.155383 53.743165 
L 275.637376 43.376865 
L 278.140318 39.915606 
L 280.614531 43.729527 
L 283.096382 44.65395 
L 285.549688 44.156834 
L 288.033823 47.696798 
L 290.526885 44.462763 
L 292.998935 41.100705 
L 295.483083 37.309149 
L 297.953477 44.937249 
L 300.428729 41.077788 
L 302.910962 42.366029 
L 305.383514 38.762466 
L 307.867746 38.95242 
L 310.347053 38.006903 
L 312.82608 36.986327 
L 315.281762 36.68359 
L 317.756121 38.842306 
L 320.227523 40.466263 
L 322.71064 38.940852 
L 325.190454 36.66695 
L 327.652724 38.683739 
L 330.128854 40.38688 
L 332.601601 39.657246 
L 335.105393 34.054488 
L 337.570427 40.448819 
L 340.035942 34.950012 
L 342.501489 34.454172 
L 344.977396 33.488734 
L 347.423436 33.964497 
L 349.904377 33.681301 
L 352.373987 35.561498 
L 354.856595 30.926513 
L 357.327682 35.544495 
L 359.793419 32.789146 
L 362.273205 33.164702 
L 364.744039 31.60038 
L 367.240022 31.904546 
L 369.720314 32.092089 
L 372.192134 31.199397 
L 374.647654 31.210186 
L 377.112541 31.405901 
L 379.584891 30.512932 
L 382.072661 31.669618 
L 384.524939 29.574565 
L 386.999262 29.949507 
L 389.461167 30.352871 
L 391.931876 28.535402 
L 394.400565 29.107717 
L 396.89509 29.948443 
L 399.361028 28.72955 
L 401.846199 29.375945 
L 404.342097 29.111251 
L 406.809712 30.49677 
L 409.276939 30.220505 
L 411.751608 29.410664 
L 414.243723 29.327098 
L 416.714288 29.690612 
L 419.184226 29.3356 
L 421.664997 28.837968 
L 424.146641 29.877019 
L 426.625681 29.043302 
L 429.102731 28.115566 
L 431.571364 28.919775 
L 431.571364 25.542007 
L 431.571364 25.542007 
L 429.102731 24.110909 
L 426.625681 25.055998 
L 424.146641 25.732623 
L 421.664997 24.355126 
L 419.184226 25.609491 
L 416.714288 25.314893 
L 414.243723 24.651375 
L 411.751608 25.292772 
L 409.276939 25.993274 
L 406.809712 25.596181 
L 404.342097 25.471358 
L 401.846199 24.421286 
L 399.361028 24.523959 
L 396.89509 25.661199 
L 394.400565 26.139443 
L 391.931876 25.443071 
L 389.461167 27.008768 
L 386.999262 25.962204 
L 384.524939 24.826803 
L 382.072661 24.604574 
L 379.584891 25.398779 
L 377.112541 25.472428 
L 374.647654 26.091039 
L 372.192134 27.189275 
L 369.720314 27.323615 
L 367.240022 27.027848 
L 364.744039 29.265252 
L 362.273205 30.057065 
L 359.793419 28.1369 
L 357.327682 29.429269 
L 354.856595 29.334982 
L 352.373987 30.499711 
L 349.904377 29.480052 
L 347.423436 31.794644 
L 344.977396 30.216342 
L 342.501489 31.365383 
L 340.035942 32.259058 
L 337.570427 33.043274 
L 335.105393 31.160931 
L 332.601601 32.807815 
L 330.128854 34.615555 
L 327.652724 31.304361 
L 325.190454 31.508739 
L 322.71064 34.430413 
L 320.227523 35.684032 
L 317.756121 33.501927 
L 315.281762 34.452369 
L 312.82608 34.995424 
L 310.347053 31.256232 
L 307.867746 33.935537 
L 305.383514 31.16522 
L 302.910962 33.905093 
L 300.428729 36.039127 
L 297.953477 39.79179 
L 295.483083 34.370534 
L 292.998935 37.164069 
L 290.526885 34.587389 
L 288.033823 43.254851 
L 285.549688 39.363931 
L 283.096382 34.939925 
L 280.614531 38.280896 
L 278.140318 36.959654 
L 275.637376 39.539763 
L 273.155383 42.706129 
L 270.677617 41.898476 
L 268.212449 38.40808 
L 265.747878 38.556546 
L 263.290897 40.303273 
L 260.811184 40.865794 
L 258.343189 37.083991 
L 255.858124 40.749774 
L 253.39959 39.843148 
L 250.936086 40.907576 
L 248.459652 42.501581 
L 245.986006 38.69985 
L 243.516059 39.998103 
L 241.050203 39.844852 
L 238.570753 46.85068 
L 236.103609 42.755492 
L 233.626439 40.566262 
L 231.171763 41.309462 
L 228.696636 44.896554 
L 226.241088 46.662063 
L 223.770884 45.661869 
L 221.28214 46.901064 
L 218.822736 45.408284 
L 216.332326 42.203676 
L 213.866245 46.158617 
L 211.397384 49.983049 
L 208.931695 49.252548 
L 206.46311 45.025127 
L 204.010928 42.214182 
L 201.515381 41.354954 
L 199.044154 55.213746 
L 196.571448 47.601685 
L 194.097062 50.063702 
L 191.61988 49.785899 
L 189.157004 48.518006 
L 186.687488 48.245367 
L 184.228902 47.973776 
L 181.739155 52.109507 
L 179.252748 46.735079 
L 176.782837 50.630927 
L 174.310594 47.817249 
L 171.83165 50.778101 
L 169.341246 52.157527 
L 166.887326 50.668579 
L 164.427681 49.76634 
L 161.957459 49.976644 
L 159.491963 60.011304 
L 157.016662 50.9254 
L 154.561805 48.329957 
L 152.062214 51.961981 
L 149.605616 53.481214 
L 147.149586 53.649131 
L 144.67267 56.765417 
L 142.19522 63.711929 
L 139.738683 56.957311 
L 137.26317 56.708289 
L 134.792007 51.836477 
L 132.305548 62.387095 
L 129.838566 58.567114 
L 127.374855 67.879411 
L 124.892217 67.958066 
L 122.438238 63.052749 
L 119.970226 62.557693 
L 117.510022 58.416944 
L 115.020921 61.561746 
L 112.552266 65.779997 
L 110.090382 78.961261 
L 107.62151 64.219029 
L 105.13402 73.533122 
L 102.665907 76.175396 
L 100.203666 73.55682 
L 97.720855 87.32667 
L 95.276575 80.123297 
L 92.797571 93.228119 
L 90.328346 98.099976 
L 87.862978 106.916647 
L 85.392154 114.867592 
L 82.926985 116.92556 
L 80.439126 142.048176 
L 77.958536 152.553286 
L 75.481793 174.952349 
L 73.002028 191.869742 
L 70.53697 218.669924 
L 68.062245 238.703452 
L 65.575898 248.54413 
L 63.087946 266.472492 
z
" style="fill:#1f77b4;fill-opacity:0.25;"/>
   </g>
   <g id="PolyCollection_2">
    <path clip-path="url(#pb9eeab1d77)" d="M 63.030534 259.762633 
L 63.030534 271.665202 
L 65.360603 245.383344 
L 67.707831 224.189776 
L 70.02947 198.74752 
L 72.351307 188.819682 
L 74.663661 190.57485 
L 77.025802 163.703199 
L 79.375209 160.025715 
L 81.708214 148.071987 
L 84.035626 136.971371 
L 86.386098 125.892425 
L 88.753203 120.933039 
L 91.104648 132.262408 
L 93.45557 116.408071 
L 95.829429 112.270893 
L 98.167323 107.988733 
L 100.48728 107.7459 
L 102.845136 98.590119 
L 105.186679 97.957321 
L 107.51604 94.974697 
L 109.871674 105.688314 
L 112.216948 91.252706 
L 114.58067 92.403082 
L 116.903284 94.262501 
L 119.294763 85.99776 
L 121.640062 87.487696 
L 123.97026 86.154778 
L 126.323757 93.299009 
L 128.637477 90.010328 
L 130.986822 87.012917 
L 133.326324 77.304118 
L 135.664445 84.937099 
L 138.035573 85.663726 
L 140.372021 75.400232 
L 142.682114 75.571522 
L 145.024969 78.595061 
L 147.423896 77.648385 
L 149.748039 79.023699 
L 152.097567 76.262803 
L 154.416199 78.119541 
L 156.798406 71.599048 
L 159.15728 69.827464 
L 161.502635 76.08561 
L 163.887559 75.467238 
L 166.249381 62.056582 
L 168.602931 75.213866 
L 170.978937 77.870657 
L 173.353657 69.33071 
L 175.764383 61.518725 
L 178.079892 67.695438 
L 180.470562 67.252226 
L 182.830793 72.891673 
L 185.1602 68.148564 
L 187.499627 66.149965 
L 189.833688 65.753054 
L 192.175666 65.336803 
L 194.516185 69.626572 
L 196.878583 58.035592 
L 199.253028 67.109784 
L 201.600572 64.553828 
L 203.997098 70.459859 
L 206.365835 62.010666 
L 208.742347 62.502147 
L 211.078202 61.838519 
L 213.447158 60.58179 
L 215.811696 56.384775 
L 218.130789 65.796004 
L 220.509326 53.766988 
L 222.862759 55.677365 
L 225.249512 60.790141 
L 227.599396 67.639538 
L 229.957017 60.377607 
L 232.340668 57.481613 
L 234.717455 55.337171 
L 237.063628 54.596574 
L 239.446034 51.846381 
L 241.7953 57.912722 
L 244.131947 55.21924 
L 246.50584 54.420786 
L 248.855348 54.032344 
L 251.217268 52.26702 
L 253.569296 52.088432 
L 255.946229 57.165516 
L 258.313706 54.006255 
L 260.7139 55.616582 
L 263.05912 50.551946 
L 265.37742 46.655497 
L 267.743857 46.733867 
L 270.089915 45.095908 
L 272.446795 48.03818 
L 274.804451 46.485556 
L 277.140061 48.105575 
L 279.524235 50.501251 
L 281.88396 43.379523 
L 284.222752 48.81582 
L 286.556251 40.672936 
L 288.949262 49.40026 
L 291.302969 46.398186 
L 293.665228 42.370858 
L 296.010377 42.607454 
L 298.390859 43.020226 
L 300.750906 45.663787 
L 303.122493 44.676454 
L 305.453206 42.867143 
L 307.78692 46.516159 
L 310.130667 42.515554 
L 312.484388 39.186314 
L 314.817263 38.864344 
L 317.184246 39.414886 
L 319.566964 39.330469 
L 321.934917 40.384073 
L 324.275877 38.21197 
L 326.599576 40.245458 
L 328.956383 37.630963 
L 331.303512 37.83236 
L 333.632938 38.376758 
L 335.988638 35.696879 
L 338.333437 35.372359 
L 340.732697 33.997456 
L 343.076904 33.126982 
L 345.475072 34.201213 
L 347.833497 32.560436 
L 350.19843 35.313402 
L 352.573367 34.006274 
L 354.925279 33.795826 
L 357.299747 34.737804 
L 359.659973 30.070893 
L 362.009027 34.596485 
L 364.367306 30.424282 
L 366.698863 31.603958 
L 369.032337 30.586363 
L 371.401809 31.092453 
L 373.822007 30.556487 
L 376.174157 31.731253 
L 378.517988 31.379005 
L 380.862194 32.394157 
L 383.211696 29.553794 
L 385.578866 30.103432 
L 387.940622 31.415818 
L 390.300142 29.923569 
L 392.646558 32.048075 
L 395.005769 31.546783 
L 397.391256 32.057249 
L 399.74412 32.412844 
L 402.139963 31.237525 
L 404.489873 31.600946 
L 406.861146 31.433236 
L 409.208127 31.271272 
L 411.576246 31.374886 
L 413.930458 32.149075 
L 413.930458 27.206216 
L 413.930458 27.206216 
L 411.576246 26.530476 
L 409.208127 27.298641 
L 406.861146 26.351299 
L 404.489873 27.754344 
L 402.139963 26.969906 
L 399.74412 26.398723 
L 397.391256 25.96894 
L 395.005769 26.600234 
L 392.646558 27.246802 
L 390.300142 26.713106 
L 387.940622 25.885407 
L 385.578866 24.418764 
L 383.211696 26.539157 
L 380.862194 27.625684 
L 378.517988 27.915872 
L 376.174157 27.744865 
L 373.822007 26.382256 
L 371.401809 26.269186 
L 369.032337 29.131409 
L 366.698863 28.053401 
L 364.367306 27.118598 
L 362.009027 27.114939 
L 359.659973 28.438605 
L 357.299747 28.061067 
L 354.925279 28.338494 
L 352.573367 27.342669 
L 350.19843 31.231117 
L 347.833497 28.728093 
L 345.475072 29.926758 
L 343.076904 29.792716 
L 340.732697 30.070102 
L 338.333437 33.165812 
L 335.988638 32.297569 
L 333.632938 34.390371 
L 331.303512 33.001531 
L 328.956383 31.994654 
L 326.599576 36.267319 
L 324.275877 34.373918 
L 321.934917 34.497535 
L 319.566964 32.107559 
L 317.184246 36.91665 
L 314.817263 33.842371 
L 312.484388 36.239017 
L 310.130667 40.219833 
L 307.78692 39.300326 
L 305.453206 34.249771 
L 303.122493 36.669418 
L 300.750906 39.548561 
L 298.390859 38.38606 
L 296.010377 39.040487 
L 293.665228 38.189637 
L 291.302969 36.216374 
L 288.949262 42.336766 
L 286.556251 38.498043 
L 284.222752 39.53804 
L 281.88396 39.29545 
L 279.524235 42.262808 
L 277.140061 42.906487 
L 274.804451 42.230786 
L 272.446795 44.725879 
L 270.089915 41.868437 
L 267.743857 43.915713 
L 265.37742 43.812842 
L 263.05912 47.226449 
L 260.7139 47.901113 
L 258.313706 41.778489 
L 255.946229 49.493691 
L 253.569296 47.683615 
L 251.217268 46.296753 
L 248.855348 48.881214 
L 246.50584 48.311531 
L 244.131947 47.875559 
L 241.7953 50.136 
L 239.446034 46.234083 
L 237.063628 49.283603 
L 234.717455 50.536658 
L 232.340668 47.123528 
L 229.957017 54.135379 
L 227.599396 58.533289 
L 225.249512 50.883402 
L 222.862759 48.384054 
L 220.509326 47.454987 
L 218.130789 58.02069 
L 215.811696 48.28078 
L 213.447158 55.199883 
L 211.078202 56.420115 
L 208.742347 58.716758 
L 206.365835 54.979281 
L 203.997098 62.177233 
L 201.600572 57.752524 
L 199.253028 56.827737 
L 196.878583 50.19437 
L 194.516185 60.533559 
L 192.175666 54.009278 
L 189.833688 58.607363 
L 187.499627 60.083276 
L 185.1602 56.574335 
L 182.830793 55.516461 
L 180.470562 55.899917 
L 178.079892 63.370898 
L 175.764383 53.779639 
L 173.353657 64.09176 
L 170.978937 68.661582 
L 168.602931 65.639488 
L 166.249381 58.799841 
L 163.887559 59.88847 
L 161.502635 65.130225 
L 159.15728 64.078315 
L 156.798406 66.958585 
L 154.416199 67.325253 
L 152.097567 65.375928 
L 149.748039 67.025231 
L 147.423896 66.406893 
L 145.024969 69.26628 
L 142.682114 69.812858 
L 140.372021 62.553265 
L 138.035573 66.5474 
L 135.664445 77.061045 
L 133.326324 67.174056 
L 130.986822 69.668822 
L 128.637477 76.337601 
L 126.323757 72.988506 
L 123.97026 78.139086 
L 121.640062 75.477066 
L 119.294763 82.222993 
L 116.903284 88.699191 
L 114.58067 80.832007 
L 112.216948 80.774109 
L 109.871674 81.200268 
L 107.51604 89.497338 
L 105.186679 83.373202 
L 102.845136 82.921645 
L 100.48728 92.494107 
L 98.167323 94.546994 
L 95.829429 102.83088 
L 93.45557 106.970378 
L 91.104648 108.696423 
L 88.753203 108.668019 
L 86.386098 122.074394 
L 84.035626 132.321479 
L 81.708214 133.364014 
L 79.375209 145.696587 
L 77.025802 152.863361 
L 74.663661 168.009428 
L 72.351307 177.316307 
L 70.02947 184.999059 
L 67.707831 207.917958 
L 65.360603 217.157785 
L 63.030534 259.762633 
z
" style="fill:#ff7f0e;fill-opacity:0.25;"/>
   </g>
   <g id="PolyCollection_3">
    <path clip-path="url(#pb9eeab1d77)" d="M 63.000162 247.347164 
L 63.000162 258.948577 
L 65.363562 227.694755 
L 67.731536 219.655409 
L 70.0652 204.670526 
L 72.408025 184.478193 
L 74.762632 173.356792 
L 77.115588 165.210672 
L 79.469921 160.933488 
L 81.815447 154.236178 
L 84.16847 152.62289 
L 86.530353 130.64512 
L 88.898917 132.877597 
L 91.293857 131.394693 
L 93.642118 117.45461 
L 95.988597 118.014026 
L 98.341372 111.543487 
L 100.679453 107.35146 
L 103.007531 97.289671 
L 105.345698 98.646363 
L 107.697293 100.520102 
L 110.018183 100.593291 
L 112.379329 99.389091 
L 114.696795 98.677481 
L 117.050013 97.258874 
L 119.413643 85.831381 
L 121.767481 81.402765 
L 124.096619 89.945097 
L 126.445577 86.018501 
L 128.798703 97.107883 
L 131.147368 81.87947 
L 133.519339 79.992168 
L 135.844958 83.60607 
L 138.177465 79.859485 
L 140.540788 71.870427 
L 142.866148 75.048324 
L 145.220776 74.389777 
L 147.605367 74.164201 
L 149.926944 82.92649 
L 152.251228 81.30402 
L 154.5661 78.45674 
L 156.920946 72.077696 
L 159.252444 71.023488 
L 161.583986 76.87136 
L 163.90069 77.471569 
L 166.236281 72.401421 
L 168.581173 77.615811 
L 170.924949 71.734782 
L 173.270684 71.897055 
L 175.653607 66.583154 
L 177.980352 69.418216 
L 180.326933 61.443987 
L 182.671817 61.930906 
L 184.998488 65.922835 
L 187.319186 63.12553 
L 189.661435 65.753865 
L 192.033733 61.791342 
L 194.388214 68.100164 
L 196.715764 58.053847 
L 199.058144 60.834108 
L 201.424468 64.404154 
L 203.794314 69.286519 
L 206.145541 61.307672 
L 208.455563 59.807976 
L 210.793035 65.492885 
L 213.113795 63.546048 
L 215.46179 56.712093 
L 217.812466 67.294147 
L 220.176642 62.006412 
L 222.541561 50.432764 
L 224.860008 54.06427 
L 227.196638 66.158677 
L 229.559552 60.44475 
L 231.953664 56.146379 
L 234.298438 56.328891 
L 236.676531 55.40052 
L 239.012404 53.208776 
L 241.349616 57.300505 
L 243.70086 53.240181 
L 246.045537 56.694983 
L 248.417679 51.557511 
L 250.745281 55.359675 
L 253.077534 56.902491 
L 255.430581 52.45964 
L 257.760883 52.988254 
L 260.129924 53.337443 
L 262.450337 52.960782 
L 264.766234 48.833811 
L 267.116385 49.785137 
L 269.441897 47.646999 
L 271.783804 47.758005 
L 274.106806 48.558734 
L 276.468272 47.24774 
L 278.827012 43.981931 
L 281.185189 49.192458 
L 283.517819 47.095107 
L 285.857437 45.132556 
L 288.209376 46.589087 
L 290.553306 46.0338 
L 292.90386 43.212254 
L 295.231944 45.741333 
L 297.591593 43.44738 
L 299.919825 44.13504 
L 302.265131 40.4928 
L 304.621017 41.962416 
L 306.959466 45.181382 
L 309.327586 41.994768 
L 311.667764 38.569698 
L 314.038758 36.667267 
L 316.408384 39.352747 
L 318.724704 42.568566 
L 321.067905 40.580842 
L 323.435193 39.350251 
L 325.785995 38.020391 
L 328.114478 35.471038 
L 330.433184 39.723594 
L 332.795266 39.788239 
L 335.122747 37.899523 
L 337.454307 36.737936 
L 339.807253 32.608716 
L 342.155789 35.795536 
L 344.535849 38.362944 
L 346.858729 33.681954 
L 349.201294 33.347694 
L 351.536893 32.975218 
L 353.87359 32.630674 
L 356.206947 32.429092 
L 358.548518 31.644996 
L 360.907998 32.382876 
L 363.26389 32.779701 
L 365.613037 31.79106 
L 367.956163 32.968033 
L 370.317568 32.307482 
L 372.724548 32.408111 
L 375.055475 30.785999 
L 377.424572 31.703705 
L 379.756384 30.929851 
L 382.075558 30.195233 
L 384.415801 30.731735 
L 386.73921 31.344976 
L 389.110424 30.632393 
L 391.445898 31.310911 
L 393.794982 31.36578 
L 396.112424 29.765242 
L 398.459392 31.016858 
L 400.822074 31.059011 
L 403.178537 30.168842 
L 405.511194 31.613518 
L 407.865694 31.718367 
L 410.193704 30.73392 
L 412.554497 30.638487 
L 412.554497 27.327288 
L 412.554497 27.327288 
L 410.193704 27.896406 
L 407.865694 27.697338 
L 405.511194 27.802186 
L 403.178537 27.615693 
L 400.822074 27.14842 
L 398.459392 26.223954 
L 396.112424 27.052674 
L 393.794982 27.929096 
L 391.445898 26.956933 
L 389.110424 27.877105 
L 386.73921 26.741627 
L 384.415801 27.838178 
L 382.075558 26.381028 
L 379.756384 26.79427 
L 377.424572 25.899588 
L 375.055475 27.361017 
L 372.724548 27.853384 
L 370.317568 27.349877 
L 367.956163 27.051808 
L 365.613037 27.503816 
L 363.26389 28.448414 
L 360.907998 29.328548 
L 358.548518 30.006014 
L 356.206947 29.644814 
L 353.87359 29.866129 
L 351.536893 29.702825 
L 349.201294 30.599037 
L 346.858729 29.962708 
L 344.535849 32.048051 
L 342.155789 28.755332 
L 339.807253 28.981881 
L 337.454307 33.370991 
L 335.122747 34.807192 
L 332.795266 32.97889 
L 330.433184 33.94974 
L 328.114478 34.033751 
L 325.785995 33.175982 
L 323.435193 34.081429 
L 321.067905 35.629867 
L 318.724704 33.823384 
L 316.408384 36.374652 
L 314.038758 33.804142 
L 311.667764 37.097288 
L 309.327586 35.726284 
L 306.959466 39.789312 
L 304.621017 36.544013 
L 302.265131 38.013629 
L 299.919825 39.929449 
L 297.591593 38.079733 
L 295.231944 37.41695 
L 292.90386 37.106585 
L 290.553306 37.184896 
L 288.209376 42.852219 
L 285.857437 40.744343 
L 283.517819 43.19199 
L 281.185189 40.007193 
L 278.827012 40.082557 
L 276.468272 45.395492 
L 274.106806 44.024084 
L 271.783804 44.401917 
L 269.441897 43.9692 
L 267.116385 41.528993 
L 264.766234 45.561418 
L 262.450337 45.482163 
L 260.129924 44.018056 
L 257.760883 46.360897 
L 255.430581 47.010339 
L 253.077534 48.608856 
L 250.745281 49.185053 
L 248.417679 46.764607 
L 246.045537 51.172498 
L 243.70086 49.431722 
L 241.349616 48.694152 
L 239.012404 48.254854 
L 236.676531 49.265035 
L 234.298438 51.659417 
L 231.953664 51.53986 
L 229.559552 56.786852 
L 227.196638 56.872639 
L 224.860008 49.634666 
L 222.541561 47.708113 
L 220.176642 52.92947 
L 217.812466 57.126683 
L 215.46179 52.665729 
L 213.113795 55.43755 
L 210.793035 51.013752 
L 208.455563 55.913284 
L 206.145541 54.715656 
L 203.794314 63.592228 
L 201.424468 53.733653 
L 199.058144 53.014327 
L 196.715764 51.565631 
L 194.388214 60.30797 
L 192.033733 52.238335 
L 189.661435 62.291787 
L 187.319186 57.791306 
L 184.998488 59.585442 
L 182.671817 56.569383 
L 180.326933 56.754234 
L 177.980352 61.587707 
L 175.653607 54.514924 
L 173.270684 64.425272 
L 170.924949 69.843535 
L 168.581173 67.889396 
L 166.236281 59.873189 
L 163.90069 67.24826 
L 161.583986 60.115517 
L 159.252444 61.190708 
L 156.920946 63.278012 
L 154.5661 70.914943 
L 152.251228 68.309318 
L 149.926944 66.626434 
L 147.605367 65.299638 
L 145.220776 63.744961 
L 142.866148 68.281991 
L 140.540788 62.277007 
L 138.177465 72.351641 
L 135.844958 71.806982 
L 133.519339 68.412896 
L 131.147368 71.298275 
L 128.798703 82.289402 
L 126.445577 76.160883 
L 124.096619 79.48393 
L 121.767481 71.110429 
L 119.413643 75.381385 
L 117.050013 77.546971 
L 114.696795 79.451116 
L 112.379329 84.055911 
L 110.018183 83.395434 
L 107.697293 80.810421 
L 105.345698 88.665115 
L 103.007531 91.471736 
L 100.679453 93.069788 
L 98.341372 97.758572 
L 95.988597 104.518631 
L 93.642118 110.817348 
L 91.293857 116.330471 
L 88.898917 119.016111 
L 86.530353 119.254937 
L 84.16847 131.108831 
L 81.815447 133.845328 
L 79.469921 138.113103 
L 77.115588 149.180995 
L 74.762632 165.683659 
L 72.408025 176.583046 
L 70.0652 193.847199 
L 67.731536 207.135921 
L 65.363562 216.737371 
L 63.000162 247.347164 
z
" style="fill:#2ca02c;fill-opacity:0.25;"/>
   </g>
   <g id="PolyCollection_4">
    <path clip-path="url(#pb9eeab1d77)" d="M 62.998636 251.357294 
L 62.998636 263.864569 
L 65.312888 228.110959 
L 67.633221 221.39315 
L 69.954387 201.945994 
L 72.286663 190.03385 
L 74.632599 180.889085 
L 76.972548 161.329673 
L 79.30498 155.522837 
L 81.630209 147.887051 
L 83.959805 140.27837 
L 86.299373 135.280911 
L 88.625085 130.635224 
L 90.979196 154.753369 
L 93.324826 115.969617 
L 95.65598 103.800344 
L 97.986968 103.300551 
L 100.332092 107.024761 
L 102.681541 88.398885 
L 104.993777 96.241942 
L 107.339921 100.43248 
L 109.681996 98.794521 
L 111.984543 98.601691 
L 114.348634 90.395204 
L 116.680972 96.050988 
L 119.076033 84.988369 
L 121.41208 95.511165 
L 123.769829 83.769566 
L 126.134052 88.465296 
L 128.473519 94.399894 
L 130.853748 77.991151 
L 133.159454 80.455088 
L 135.501226 85.782646 
L 137.799821 84.361619 
L 140.15533 76.789686 
L 142.474818 84.383971 
L 144.807565 80.927264 
L 147.211672 70.775778 
L 149.519267 82.890009 
L 151.879385 85.30898 
L 154.22088 78.524014 
L 156.551244 74.256304 
L 158.888718 73.642353 
L 161.244571 72.649766 
L 163.602158 84.196456 
L 165.952283 71.647933 
L 168.281766 76.546348 
L 170.629069 77.613322 
L 172.992925 69.19562 
L 175.386722 66.007813 
L 177.698323 73.085153 
L 180.084534 65.804804 
L 182.419028 64.9542 
L 184.763232 68.918206 
L 187.137216 67.40972 
L 189.471913 78.960081 
L 191.810449 68.474531 
L 194.139613 66.388664 
L 196.438307 60.582009 
L 198.759909 65.667279 
L 201.070558 61.96523 
L 203.46896 77.334591 
L 205.812468 61.989084 
L 208.156902 57.804061 
L 210.507791 64.033719 
L 212.85472 64.526017 
L 215.203879 57.204692 
L 217.561337 65.115047 
L 219.927958 56.873578 
L 222.246725 60.733562 
L 224.598434 61.099721 
L 226.91374 62.542056 
L 229.259303 64.854009 
L 231.661609 60.059023 
L 233.97793 60.769033 
L 236.343676 59.865911 
L 238.709328 59.288064 
L 241.047959 61.800675 
L 243.38753 57.521558 
L 245.71782 53.861755 
L 248.030519 55.889798 
L 250.361991 50.966216 
L 252.682373 56.596769 
L 255.008443 52.297812 
L 257.340594 52.747947 
L 259.725455 52.98257 
L 262.071287 51.733142 
L 264.40997 47.990668 
L 266.753865 48.800087 
L 269.114725 47.753464 
L 271.436732 48.347688 
L 273.77511 47.81309 
L 276.105664 50.356962 
L 278.436999 46.220767 
L 280.769251 49.8467 
L 283.120437 46.540979 
L 285.51891 44.335804 
L 287.888569 48.233457 
L 290.242005 44.828465 
L 292.576895 42.233755 
L 294.919226 46.032554 
L 297.24473 43.837088 
L 299.578639 44.015947 
L 301.904078 42.407362 
L 304.26505 45.367958 
L 306.616652 46.660627 
L 308.94749 42.40298 
L 311.314264 41.584081 
L 313.643851 40.869817 
L 316.034164 42.618425 
L 318.384544 42.210211 
L 320.686478 41.176633 
L 323.030451 35.66714 
L 325.356497 39.763944 
L 327.667189 36.292944 
L 329.979063 38.647528 
L 332.318165 37.417737 
L 334.6618 36.902001 
L 337.02485 34.99866 
L 339.367656 36.472318 
L 341.687105 35.539097 
L 344.079705 34.773147 
L 346.403428 32.598794 
L 348.723817 32.883685 
L 351.073858 33.097342 
L 353.41104 35.929113 
L 355.784681 32.929007 
L 358.111639 35.24475 
L 360.444453 32.453863 
L 362.773082 31.1815 
L 365.13956 33.259783 
L 367.485924 32.860245 
L 369.812354 32.650344 
L 372.227582 32.302355 
L 374.594886 33.205984 
L 376.961384 33.395631 
L 379.300585 33.050827 
L 381.664708 32.675138 
L 384.016299 31.968326 
L 386.37248 32.78168 
L 388.73083 32.006513 
L 391.057442 31.908696 
L 393.363307 31.611392 
L 395.700979 32.113045 
L 398.038459 30.121663 
L 400.452315 31.880394 
L 402.799371 32.023563 
L 405.188593 31.797272 
L 407.551366 31.974084 
L 409.887316 31.786892 
L 412.230353 31.938022 
L 412.230353 25.725685 
L 412.230353 25.725685 
L 409.887316 25.514333 
L 407.551366 25.629209 
L 405.188593 26.651813 
L 402.799371 27.210901 
L 400.452315 26.447863 
L 398.038459 26.515012 
L 395.700979 27.302659 
L 393.363307 26.233556 
L 391.057442 25.694597 
L 388.73083 27.348778 
L 386.37248 26.513196 
L 384.016299 27.084896 
L 381.664708 27.46553 
L 379.300585 27.029428 
L 376.961384 28.013725 
L 374.594886 27.297167 
L 372.227582 26.750867 
L 369.812354 27.792393 
L 367.485924 28.488698 
L 365.13956 27.78709 
L 362.773082 28.234204 
L 360.444453 27.263909 
L 358.111639 30.091495 
L 355.784681 26.788765 
L 353.41104 29.165478 
L 351.073858 29.339047 
L 348.723817 28.888152 
L 346.403428 28.206424 
L 344.079705 28.992343 
L 341.687105 32.092868 
L 339.367656 31.099234 
L 337.02485 30.639654 
L 334.6618 31.334101 
L 332.318165 33.959878 
L 329.979063 33.93836 
L 327.667189 31.339022 
L 325.356497 33.546908 
L 323.030451 33.414754 
L 320.686478 39.142207 
L 318.384544 34.967117 
L 316.034164 38.062897 
L 313.643851 34.4951 
L 311.314264 34.928697 
L 308.94749 35.982622 
L 306.616652 39.880822 
L 304.26505 39.300667 
L 301.904078 36.401135 
L 299.578639 39.806886 
L 297.24473 39.985745 
L 294.919226 38.092348 
L 292.576895 38.387153 
L 290.242005 40.565124 
L 287.888569 43.563983 
L 285.51891 39.789097 
L 283.120437 40.423366 
L 280.769251 41.648672 
L 278.436999 41.770611 
L 276.105664 39.084344 
L 273.77511 39.030428 
L 271.436732 43.812234 
L 269.114725 42.775288 
L 266.753865 45.172246 
L 264.40997 44.773391 
L 262.071287 44.836979 
L 259.725455 48.360232 
L 257.340594 44.607553 
L 255.008443 45.782651 
L 252.682373 47.706304 
L 250.361991 46.570524 
L 248.030519 50.708995 
L 245.71782 47.722702 
L 243.38753 46.116964 
L 241.047959 55.128859 
L 238.709328 51.116792 
L 236.343676 53.499215 
L 233.97793 52.112783 
L 231.661609 50.949969 
L 229.259303 57.935652 
L 226.91374 55.354097 
L 224.598434 50.996717 
L 222.246725 52.389909 
L 219.927958 48.275286 
L 217.561337 60.332816 
L 215.203879 52.958508 
L 212.85472 54.638823 
L 210.507791 52.714574 
L 208.156902 54.715273 
L 205.812468 54.336313 
L 203.46896 62.189661 
L 201.070558 55.508027 
L 198.759909 56.518245 
L 196.438307 56.28711 
L 194.139613 60.267473 
L 191.810449 55.9463 
L 189.471913 70.955325 
L 187.137216 57.615247 
L 184.763232 61.604407 
L 182.419028 58.258357 
L 180.084534 57.709821 
L 177.698323 59.793593 
L 175.386722 52.432063 
L 172.992925 58.00424 
L 170.629069 65.958647 
L 168.281766 72.039957 
L 165.952283 62.076605 
L 163.602158 73.149834 
L 161.244571 60.71229 
L 158.888718 66.727691 
L 156.551244 66.294981 
L 154.22088 71.330979 
L 151.879385 61.162846 
L 149.519267 69.623186 
L 147.211672 63.492483 
L 144.807565 68.686074 
L 142.474818 69.639566 
L 140.15533 69.078003 
L 137.799821 73.407566 
L 135.501226 74.463501 
L 133.159454 73.447621 
L 130.853748 67.755711 
L 128.473519 80.164296 
L 126.134052 76.553531 
L 123.769829 77.684855 
L 121.41208 81.892468 
L 119.076033 81.782456 
L 116.680972 78.936098 
L 114.348634 80.785819 
L 111.984543 84.299588 
L 109.681996 79.8778 
L 107.339921 86.395688 
L 104.993777 89.559194 
L 102.681541 84.171653 
L 100.332092 87.355118 
L 97.986968 95.127046 
L 95.65598 90.942018 
L 93.324826 103.78401 
L 90.979196 99.496474 
L 88.625085 114.431738 
L 86.299373 116.008661 
L 83.959805 128.954067 
L 81.630209 137.777908 
L 79.30498 148.447469 
L 76.972548 153.575511 
L 74.632599 162.833426 
L 72.286663 177.612481 
L 69.954387 189.805398 
L 67.633221 207.331418 
L 65.312888 213.90462 
L 62.998636 251.357294 
z
" style="fill:#d62728;fill-opacity:0.25;"/>
   </g>
   <g id="matplotlib.axis_1">
    <g id="xtick_1">
     <g id="line2d_1">
      <defs>
       <path d="M 0 0 
L 0 3.5 
" id="m1ac9777979" style="stroke:#000000;stroke-width:0.8;"/>
      </defs>
      <g>
       <use style="stroke:#000000;stroke-width:0.8;" x="60.506558" xlink:href="#m1ac9777979" y="303.64"/>
      </g>
     </g>
     <g id="text_1">
      <!-- 0 -->
      <g transform="translate(57.325308 318.238437)scale(0.1 -0.1)">
       <defs>
        <path d="M 31.78125 66.40625 
Q 24.171875 66.40625 20.328125 58.90625 
Q 16.5 51.421875 16.5 36.375 
Q 16.5 21.390625 20.328125 13.890625 
Q 24.171875 6.390625 31.78125 6.390625 
Q 39.453125 6.390625 43.28125 13.890625 
Q 47.125 21.390625 47.125 36.375 
Q 47.125 51.421875 43.28125 58.90625 
Q 39.453125 66.40625 31.78125 66.40625 
z
M 31.78125 74.21875 
Q 44.046875 74.21875 50.515625 64.515625 
Q 56.984375 54.828125 56.984375 36.375 
Q 56.984375 17.96875 50.515625 8.265625 
Q 44.046875 -1.421875 31.78125 -1.421875 
Q 19.53125 -1.421875 13.0625 8.265625 
Q 6.59375 17.96875 6.59375 36.375 
Q 6.59375 54.828125 13.0625 64.515625 
Q 19.53125 74.21875 31.78125 74.21875 
z
" id="DejaVuSans-48"/>
       </defs>
       <use xlink:href="#DejaVuSans-48"/>
      </g>
     </g>
    </g>
    <g id="xtick_2">
     <g id="line2d_2">
      <g>
       <use style="stroke:#000000;stroke-width:0.8;" x="105.601762" xlink:href="#m1ac9777979" y="303.64"/>
      </g>
     </g>
     <g id="text_2">
      <!-- 1000 -->
      <g transform="translate(92.876762 318.238437)scale(0.1 -0.1)">
       <defs>
        <path d="M 12.40625 8.296875 
L 28.515625 8.296875 
L 28.515625 63.921875 
L 10.984375 60.40625 
L 10.984375 69.390625 
L 28.421875 72.90625 
L 38.28125 72.90625 
L 38.28125 8.296875 
L 54.390625 8.296875 
L 54.390625 0 
L 12.40625 0 
z
" id="DejaVuSans-49"/>
       </defs>
       <use xlink:href="#DejaVuSans-49"/>
       <use x="63.623047" xlink:href="#DejaVuSans-48"/>
       <use x="127.246094" xlink:href="#DejaVuSans-48"/>
       <use x="190.869141" xlink:href="#DejaVuSans-48"/>
      </g>
     </g>
    </g>
    <g id="xtick_3">
     <g id="line2d_3">
      <g>
       <use style="stroke:#000000;stroke-width:0.8;" x="150.696965" xlink:href="#m1ac9777979" y="303.64"/>
      </g>
     </g>
     <g id="text_3">
      <!-- 2000 -->
      <g transform="translate(137.971965 318.238437)scale(0.1 -0.1)">
       <defs>
        <path d="M 19.1875 8.296875 
L 53.609375 8.296875 
L 53.609375 0 
L 7.328125 0 
L 7.328125 8.296875 
Q 12.9375 14.109375 22.625 23.890625 
Q 32.328125 33.6875 34.8125 36.53125 
Q 39.546875 41.84375 41.421875 45.53125 
Q 43.3125 49.21875 43.3125 52.78125 
Q 43.3125 58.59375 39.234375 62.25 
Q 35.15625 65.921875 28.609375 65.921875 
Q 23.96875 65.921875 18.8125 64.3125 
Q 13.671875 62.703125 7.8125 59.421875 
L 7.8125 69.390625 
Q 13.765625 71.78125 18.9375 73 
Q 24.125 74.21875 28.421875 74.21875 
Q 39.75 74.21875 46.484375 68.546875 
Q 53.21875 62.890625 53.21875 53.421875 
Q 53.21875 48.921875 51.53125 44.890625 
Q 49.859375 40.875 45.40625 35.40625 
Q 44.1875 33.984375 37.640625 27.21875 
Q 31.109375 20.453125 19.1875 8.296875 
z
" id="DejaVuSans-50"/>
       </defs>
       <use xlink:href="#DejaVuSans-50"/>
       <use x="63.623047" xlink:href="#DejaVuSans-48"/>
       <use x="127.246094" xlink:href="#DejaVuSans-48"/>
       <use x="190.869141" xlink:href="#DejaVuSans-48"/>
      </g>
     </g>
    </g>
    <g id="xtick_4">
     <g id="line2d_4">
      <g>
       <use style="stroke:#000000;stroke-width:0.8;" x="195.792169" xlink:href="#m1ac9777979" y="303.64"/>
      </g>
     </g>
     <g id="text_4">
      <!-- 3000 -->
      <g transform="translate(183.067169 318.238437)scale(0.1 -0.1)">
       <defs>
        <path d="M 40.578125 39.3125 
Q 47.65625 37.796875 51.625 33 
Q 55.609375 28.21875 55.609375 21.1875 
Q 55.609375 10.40625 48.1875 4.484375 
Q 40.765625 -1.421875 27.09375 -1.421875 
Q 22.515625 -1.421875 17.65625 -0.515625 
Q 12.796875 0.390625 7.625 2.203125 
L 7.625 11.71875 
Q 11.71875 9.328125 16.59375 8.109375 
Q 21.484375 6.890625 26.8125 6.890625 
Q 36.078125 6.890625 40.9375 10.546875 
Q 45.796875 14.203125 45.796875 21.1875 
Q 45.796875 27.640625 41.28125 31.265625 
Q 36.765625 34.90625 28.71875 34.90625 
L 20.21875 34.90625 
L 20.21875 43.015625 
L 29.109375 43.015625 
Q 36.375 43.015625 40.234375 45.921875 
Q 44.09375 48.828125 44.09375 54.296875 
Q 44.09375 59.90625 40.109375 62.90625 
Q 36.140625 65.921875 28.71875 65.921875 
Q 24.65625 65.921875 20.015625 65.03125 
Q 15.375 64.15625 9.8125 62.3125 
L 9.8125 71.09375 
Q 15.4375 72.65625 20.34375 73.4375 
Q 25.25 74.21875 29.59375 74.21875 
Q 40.828125 74.21875 47.359375 69.109375 
Q 53.90625 64.015625 53.90625 55.328125 
Q 53.90625 49.265625 50.4375 45.09375 
Q 46.96875 40.921875 40.578125 39.3125 
z
" id="DejaVuSans-51"/>
       </defs>
       <use xlink:href="#DejaVuSans-51"/>
       <use x="63.623047" xlink:href="#DejaVuSans-48"/>
       <use x="127.246094" xlink:href="#DejaVuSans-48"/>
       <use x="190.869141" xlink:href="#DejaVuSans-48"/>
      </g>
     </g>
    </g>
    <g id="xtick_5">
     <g id="line2d_5">
      <g>
       <use style="stroke:#000000;stroke-width:0.8;" x="240.887372" xlink:href="#m1ac9777979" y="303.64"/>
      </g>
     </g>
     <g id="text_5">
      <!-- 4000 -->
      <g transform="translate(228.162372 318.238437)scale(0.1 -0.1)">
       <defs>
        <path d="M 37.796875 64.3125 
L 12.890625 25.390625 
L 37.796875 25.390625 
z
M 35.203125 72.90625 
L 47.609375 72.90625 
L 47.609375 25.390625 
L 58.015625 25.390625 
L 58.015625 17.1875 
L 47.609375 17.1875 
L 47.609375 0 
L 37.796875 0 
L 37.796875 17.1875 
L 4.890625 17.1875 
L 4.890625 26.703125 
z
" id="DejaVuSans-52"/>
       </defs>
       <use xlink:href="#DejaVuSans-52"/>
       <use x="63.623047" xlink:href="#DejaVuSans-48"/>
       <use x="127.246094" xlink:href="#DejaVuSans-48"/>
       <use x="190.869141" xlink:href="#DejaVuSans-48"/>
      </g>
     </g>
    </g>
    <g id="xtick_6">
     <g id="line2d_6">
      <g>
       <use style="stroke:#000000;stroke-width:0.8;" x="285.982576" xlink:href="#m1ac9777979" y="303.64"/>
      </g>
     </g>
     <g id="text_6">
      <!-- 5000 -->
      <g transform="translate(273.257576 318.238437)scale(0.1 -0.1)">
       <defs>
        <path d="M 10.796875 72.90625 
L 49.515625 72.90625 
L 49.515625 64.59375 
L 19.828125 64.59375 
L 19.828125 46.734375 
Q 21.96875 47.46875 24.109375 47.828125 
Q 26.265625 48.1875 28.421875 48.1875 
Q 40.625 48.1875 47.75 41.5 
Q 54.890625 34.8125 54.890625 23.390625 
Q 54.890625 11.625 47.5625 5.09375 
Q 40.234375 -1.421875 26.90625 -1.421875 
Q 22.3125 -1.421875 17.546875 -0.640625 
Q 12.796875 0.140625 7.71875 1.703125 
L 7.71875 11.625 
Q 12.109375 9.234375 16.796875 8.0625 
Q 21.484375 6.890625 26.703125 6.890625 
Q 35.15625 6.890625 40.078125 11.328125 
Q 45.015625 15.765625 45.015625 23.390625 
Q 45.015625 31 40.078125 35.4375 
Q 35.15625 39.890625 26.703125 39.890625 
Q 22.75 39.890625 18.8125 39.015625 
Q 14.890625 38.140625 10.796875 36.28125 
z
" id="DejaVuSans-53"/>
       </defs>
       <use xlink:href="#DejaVuSans-53"/>
       <use x="63.623047" xlink:href="#DejaVuSans-48"/>
       <use x="127.246094" xlink:href="#DejaVuSans-48"/>
       <use x="190.869141" xlink:href="#DejaVuSans-48"/>
      </g>
     </g>
    </g>
    <g id="xtick_7">
     <g id="line2d_7">
      <g>
       <use style="stroke:#000000;stroke-width:0.8;" x="331.077779" xlink:href="#m1ac9777979" y="303.64"/>
      </g>
     </g>
     <g id="text_7">
      <!-- 6000 -->
      <g transform="translate(318.352779 318.238437)scale(0.1 -0.1)">
       <defs>
        <path d="M 33.015625 40.375 
Q 26.375 40.375 22.484375 35.828125 
Q 18.609375 31.296875 18.609375 23.390625 
Q 18.609375 15.53125 22.484375 10.953125 
Q 26.375 6.390625 33.015625 6.390625 
Q 39.65625 6.390625 43.53125 10.953125 
Q 47.40625 15.53125 47.40625 23.390625 
Q 47.40625 31.296875 43.53125 35.828125 
Q 39.65625 40.375 33.015625 40.375 
z
M 52.59375 71.296875 
L 52.59375 62.3125 
Q 48.875 64.0625 45.09375 64.984375 
Q 41.3125 65.921875 37.59375 65.921875 
Q 27.828125 65.921875 22.671875 59.328125 
Q 17.53125 52.734375 16.796875 39.40625 
Q 19.671875 43.65625 24.015625 45.921875 
Q 28.375 48.1875 33.59375 48.1875 
Q 44.578125 48.1875 50.953125 41.515625 
Q 57.328125 34.859375 57.328125 23.390625 
Q 57.328125 12.15625 50.6875 5.359375 
Q 44.046875 -1.421875 33.015625 -1.421875 
Q 20.359375 -1.421875 13.671875 8.265625 
Q 6.984375 17.96875 6.984375 36.375 
Q 6.984375 53.65625 15.1875 63.9375 
Q 23.390625 74.21875 37.203125 74.21875 
Q 40.921875 74.21875 44.703125 73.484375 
Q 48.484375 72.75 52.59375 71.296875 
z
" id="DejaVuSans-54"/>
       </defs>
       <use xlink:href="#DejaVuSans-54"/>
       <use x="63.623047" xlink:href="#DejaVuSans-48"/>
       <use x="127.246094" xlink:href="#DejaVuSans-48"/>
       <use x="190.869141" xlink:href="#DejaVuSans-48"/>
      </g>
     </g>
    </g>
    <g id="xtick_8">
     <g id="line2d_8">
      <g>
       <use style="stroke:#000000;stroke-width:0.8;" x="376.172983" xlink:href="#m1ac9777979" y="303.64"/>
      </g>
     </g>
     <g id="text_8">
      <!-- 7000 -->
      <g transform="translate(363.447983 318.238437)scale(0.1 -0.1)">
       <defs>
        <path d="M 8.203125 72.90625 
L 55.078125 72.90625 
L 55.078125 68.703125 
L 28.609375 0 
L 18.3125 0 
L 43.21875 64.59375 
L 8.203125 64.59375 
z
" id="DejaVuSans-55"/>
       </defs>
       <use xlink:href="#DejaVuSans-55"/>
       <use x="63.623047" xlink:href="#DejaVuSans-48"/>
       <use x="127.246094" xlink:href="#DejaVuSans-48"/>
       <use x="190.869141" xlink:href="#DejaVuSans-48"/>
      </g>
     </g>
    </g>
    <g id="xtick_9">
     <g id="line2d_9">
      <g>
       <use style="stroke:#000000;stroke-width:0.8;" x="421.268186" xlink:href="#m1ac9777979" y="303.64"/>
      </g>
     </g>
     <g id="text_9">
      <!-- 8000 -->
      <g transform="translate(408.543186 318.238437)scale(0.1 -0.1)">
       <defs>
        <path d="M 31.78125 34.625 
Q 24.75 34.625 20.71875 30.859375 
Q 16.703125 27.09375 16.703125 20.515625 
Q 16.703125 13.921875 20.71875 10.15625 
Q 24.75 6.390625 31.78125 6.390625 
Q 38.8125 6.390625 42.859375 10.171875 
Q 46.921875 13.96875 46.921875 20.515625 
Q 46.921875 27.09375 42.890625 30.859375 
Q 38.875 34.625 31.78125 34.625 
z
M 21.921875 38.8125 
Q 15.578125 40.375 12.03125 44.71875 
Q 8.5 49.078125 8.5 55.328125 
Q 8.5 64.0625 14.71875 69.140625 
Q 20.953125 74.21875 31.78125 74.21875 
Q 42.671875 74.21875 48.875 69.140625 
Q 55.078125 64.0625 55.078125 55.328125 
Q 55.078125 49.078125 51.53125 44.71875 
Q 48 40.375 41.703125 38.8125 
Q 48.828125 37.15625 52.796875 32.3125 
Q 56.78125 27.484375 56.78125 20.515625 
Q 56.78125 9.90625 50.3125 4.234375 
Q 43.84375 -1.421875 31.78125 -1.421875 
Q 19.734375 -1.421875 13.25 4.234375 
Q 6.78125 9.90625 6.78125 20.515625 
Q 6.78125 27.484375 10.78125 32.3125 
Q 14.796875 37.15625 21.921875 38.8125 
z
M 18.3125 54.390625 
Q 18.3125 48.734375 21.84375 45.5625 
Q 25.390625 42.390625 31.78125 42.390625 
Q 38.140625 42.390625 41.71875 45.5625 
Q 45.3125 48.734375 45.3125 54.390625 
Q 45.3125 60.0625 41.71875 63.234375 
Q 38.140625 66.40625 31.78125 66.40625 
Q 25.390625 66.40625 21.84375 63.234375 
Q 18.3125 60.0625 18.3125 54.390625 
z
" id="DejaVuSans-56"/>
       </defs>
       <use xlink:href="#DejaVuSans-56"/>
       <use x="63.623047" xlink:href="#DejaVuSans-48"/>
       <use x="127.246094" xlink:href="#DejaVuSans-48"/>
       <use x="190.869141" xlink:href="#DejaVuSans-48"/>
      </g>
     </g>
    </g>
    <g id="text_10">
     <!-- Time (sec) -->
     <g transform="translate(221.130313 331.916562)scale(0.1 -0.1)">
      <defs>
       <path d="M -0.296875 72.90625 
L 61.375 72.90625 
L 61.375 64.59375 
L 35.5 64.59375 
L 35.5 0 
L 25.59375 0 
L 25.59375 64.59375 
L -0.296875 64.59375 
z
" id="DejaVuSans-84"/>
       <path d="M 9.421875 54.6875 
L 18.40625 54.6875 
L 18.40625 0 
L 9.421875 0 
z
M 9.421875 75.984375 
L 18.40625 75.984375 
L 18.40625 64.59375 
L 9.421875 64.59375 
z
" id="DejaVuSans-105"/>
       <path d="M 52 44.1875 
Q 55.375 50.25 60.0625 53.125 
Q 64.75 56 71.09375 56 
Q 79.640625 56 84.28125 50.015625 
Q 88.921875 44.046875 88.921875 33.015625 
L 88.921875 0 
L 79.890625 0 
L 79.890625 32.71875 
Q 79.890625 40.578125 77.09375 44.375 
Q 74.3125 48.1875 68.609375 48.1875 
Q 61.625 48.1875 57.5625 43.546875 
Q 53.515625 38.921875 53.515625 30.90625 
L 53.515625 0 
L 44.484375 0 
L 44.484375 32.71875 
Q 44.484375 40.625 41.703125 44.40625 
Q 38.921875 48.1875 33.109375 48.1875 
Q 26.21875 48.1875 22.15625 43.53125 
Q 18.109375 38.875 18.109375 30.90625 
L 18.109375 0 
L 9.078125 0 
L 9.078125 54.6875 
L 18.109375 54.6875 
L 18.109375 46.1875 
Q 21.1875 51.21875 25.484375 53.609375 
Q 29.78125 56 35.6875 56 
Q 41.65625 56 45.828125 52.96875 
Q 50 49.953125 52 44.1875 
z
" id="DejaVuSans-109"/>
       <path d="M 56.203125 29.59375 
L 56.203125 25.203125 
L 14.890625 25.203125 
Q 15.484375 15.921875 20.484375 11.0625 
Q 25.484375 6.203125 34.421875 6.203125 
Q 39.59375 6.203125 44.453125 7.46875 
Q 49.3125 8.734375 54.109375 11.28125 
L 54.109375 2.78125 
Q 49.265625 0.734375 44.1875 -0.34375 
Q 39.109375 -1.421875 33.890625 -1.421875 
Q 20.796875 -1.421875 13.15625 6.1875 
Q 5.515625 13.8125 5.515625 26.8125 
Q 5.515625 40.234375 12.765625 48.109375 
Q 20.015625 56 32.328125 56 
Q 43.359375 56 49.78125 48.890625 
Q 56.203125 41.796875 56.203125 29.59375 
z
M 47.21875 32.234375 
Q 47.125 39.59375 43.09375 43.984375 
Q 39.0625 48.390625 32.421875 48.390625 
Q 24.90625 48.390625 20.390625 44.140625 
Q 15.875 39.890625 15.1875 32.171875 
z
" id="DejaVuSans-101"/>
       <path id="DejaVuSans-32"/>
       <path d="M 31 75.875 
Q 24.46875 64.65625 21.28125 53.65625 
Q 18.109375 42.671875 18.109375 31.390625 
Q 18.109375 20.125 21.3125 9.0625 
Q 24.515625 -2 31 -13.1875 
L 23.1875 -13.1875 
Q 15.875 -1.703125 12.234375 9.375 
Q 8.59375 20.453125 8.59375 31.390625 
Q 8.59375 42.28125 12.203125 53.3125 
Q 15.828125 64.359375 23.1875 75.875 
z
" id="DejaVuSans-40"/>
       <path d="M 44.28125 53.078125 
L 44.28125 44.578125 
Q 40.484375 46.53125 36.375 47.5 
Q 32.28125 48.484375 27.875 48.484375 
Q 21.1875 48.484375 17.84375 46.4375 
Q 14.5 44.390625 14.5 40.28125 
Q 14.5 37.15625 16.890625 35.375 
Q 19.28125 33.59375 26.515625 31.984375 
L 29.59375 31.296875 
Q 39.15625 29.25 43.1875 25.515625 
Q 47.21875 21.78125 47.21875 15.09375 
Q 47.21875 7.46875 41.1875 3.015625 
Q 35.15625 -1.421875 24.609375 -1.421875 
Q 20.21875 -1.421875 15.453125 -0.5625 
Q 10.6875 0.296875 5.421875 2 
L 5.421875 11.28125 
Q 10.40625 8.6875 15.234375 7.390625 
Q 20.0625 6.109375 24.8125 6.109375 
Q 31.15625 6.109375 34.5625 8.28125 
Q 37.984375 10.453125 37.984375 14.40625 
Q 37.984375 18.0625 35.515625 20.015625 
Q 33.0625 21.96875 24.703125 23.78125 
L 21.578125 24.515625 
Q 13.234375 26.265625 9.515625 29.90625 
Q 5.8125 33.546875 5.8125 39.890625 
Q 5.8125 47.609375 11.28125 51.796875 
Q 16.75 56 26.8125 56 
Q 31.78125 56 36.171875 55.265625 
Q 40.578125 54.546875 44.28125 53.078125 
z
" id="DejaVuSans-115"/>
       <path d="M 48.78125 52.59375 
L 48.78125 44.1875 
Q 44.96875 46.296875 41.140625 47.34375 
Q 37.3125 48.390625 33.40625 48.390625 
Q 24.65625 48.390625 19.8125 42.84375 
Q 14.984375 37.3125 14.984375 27.296875 
Q 14.984375 17.28125 19.8125 11.734375 
Q 24.65625 6.203125 33.40625 6.203125 
Q 37.3125 6.203125 41.140625 7.25 
Q 44.96875 8.296875 48.78125 10.40625 
L 48.78125 2.09375 
Q 45.015625 0.34375 40.984375 -0.53125 
Q 36.96875 -1.421875 32.421875 -1.421875 
Q 20.0625 -1.421875 12.78125 6.34375 
Q 5.515625 14.109375 5.515625 27.296875 
Q 5.515625 40.671875 12.859375 48.328125 
Q 20.21875 56 33.015625 56 
Q 37.15625 56 41.109375 55.140625 
Q 45.0625 54.296875 48.78125 52.59375 
z
" id="DejaVuSans-99"/>
       <path d="M 8.015625 75.875 
L 15.828125 75.875 
Q 23.140625 64.359375 26.78125 53.3125 
Q 30.421875 42.28125 30.421875 31.390625 
Q 30.421875 20.453125 26.78125 9.375 
Q 23.140625 -1.703125 15.828125 -13.1875 
L 8.015625 -13.1875 
Q 14.5 -2 17.703125 9.0625 
Q 20.90625 20.125 20.90625 31.390625 
Q 20.90625 42.671875 17.703125 53.65625 
Q 14.5 64.65625 8.015625 75.875 
z
" id="DejaVuSans-41"/>
      </defs>
      <use xlink:href="#DejaVuSans-84"/>
      <use x="57.958984" xlink:href="#DejaVuSans-105"/>
      <use x="85.742188" xlink:href="#DejaVuSans-109"/>
      <use x="183.154297" xlink:href="#DejaVuSans-101"/>
      <use x="244.677734" xlink:href="#DejaVuSans-32"/>
      <use x="276.464844" xlink:href="#DejaVuSans-40"/>
      <use x="315.478516" xlink:href="#DejaVuSans-115"/>
      <use x="367.578125" xlink:href="#DejaVuSans-101"/>
      <use x="429.101562" xlink:href="#DejaVuSans-99"/>
      <use x="484.082031" xlink:href="#DejaVuSans-41"/>
     </g>
    </g>
   </g>
   <g id="matplotlib.axis_2">
    <g id="ytick_1">
     <g id="line2d_10">
      <defs>
       <path d="M 0 0 
L -3.5 0 
" id="mfb4e2d20b6" style="stroke:#000000;stroke-width:0.8;"/>
      </defs>
      <g>
       <use style="stroke:#000000;stroke-width:0.8;" x="44.57" xlink:href="#mfb4e2d20b6" y="257.980965"/>
      </g>
     </g>
     <g id="text_11">
      <!-- 20 -->
      <g transform="translate(24.845 261.780184)scale(0.1 -0.1)">
       <use xlink:href="#DejaVuSans-50"/>
       <use x="63.623047" xlink:href="#DejaVuSans-48"/>
      </g>
     </g>
    </g>
    <g id="ytick_2">
     <g id="line2d_11">
      <g>
       <use style="stroke:#000000;stroke-width:0.8;" x="44.57" xlink:href="#mfb4e2d20b6" y="196.117351"/>
      </g>
     </g>
     <g id="text_12">
      <!-- 40 -->
      <g transform="translate(24.845 199.91657)scale(0.1 -0.1)">
       <use xlink:href="#DejaVuSans-52"/>
       <use x="63.623047" xlink:href="#DejaVuSans-48"/>
      </g>
     </g>
    </g>
    <g id="ytick_3">
     <g id="line2d_12">
      <g>
       <use style="stroke:#000000;stroke-width:0.8;" x="44.57" xlink:href="#mfb4e2d20b6" y="134.253736"/>
      </g>
     </g>
     <g id="text_13">
      <!-- 60 -->
      <g transform="translate(24.845 138.052955)scale(0.1 -0.1)">
       <use xlink:href="#DejaVuSans-54"/>
       <use x="63.623047" xlink:href="#DejaVuSans-48"/>
      </g>
     </g>
    </g>
    <g id="ytick_4">
     <g id="line2d_13">
      <g>
       <use style="stroke:#000000;stroke-width:0.8;" x="44.57" xlink:href="#mfb4e2d20b6" y="72.390121"/>
      </g>
     </g>
     <g id="text_14">
      <!-- 80 -->
      <g transform="translate(24.845 76.18934)scale(0.1 -0.1)">
       <use xlink:href="#DejaVuSans-56"/>
       <use x="63.623047" xlink:href="#DejaVuSans-48"/>
      </g>
     </g>
    </g>
    <g id="text_15">
     <!-- Test Accuracy (%) -->
     <g transform="translate(18.765313 201.723906)rotate(-90)scale(0.1 -0.1)">
      <defs>
       <path d="M 18.3125 70.21875 
L 18.3125 54.6875 
L 36.8125 54.6875 
L 36.8125 47.703125 
L 18.3125 47.703125 
L 18.3125 18.015625 
Q 18.3125 11.328125 20.140625 9.421875 
Q 21.96875 7.515625 27.59375 7.515625 
L 36.8125 7.515625 
L 36.8125 0 
L 27.59375 0 
Q 17.1875 0 13.234375 3.875 
Q 9.28125 7.765625 9.28125 18.015625 
L 9.28125 47.703125 
L 2.6875 47.703125 
L 2.6875 54.6875 
L 9.28125 54.6875 
L 9.28125 70.21875 
z
" id="DejaVuSans-116"/>
       <path d="M 34.1875 63.1875 
L 20.796875 26.90625 
L 47.609375 26.90625 
z
M 28.609375 72.90625 
L 39.796875 72.90625 
L 67.578125 0 
L 57.328125 0 
L 50.6875 18.703125 
L 17.828125 18.703125 
L 11.1875 0 
L 0.78125 0 
z
" id="DejaVuSans-65"/>
       <path d="M 8.5 21.578125 
L 8.5 54.6875 
L 17.484375 54.6875 
L 17.484375 21.921875 
Q 17.484375 14.15625 20.5 10.265625 
Q 23.53125 6.390625 29.59375 6.390625 
Q 36.859375 6.390625 41.078125 11.03125 
Q 45.3125 15.671875 45.3125 23.6875 
L 45.3125 54.6875 
L 54.296875 54.6875 
L 54.296875 0 
L 45.3125 0 
L 45.3125 8.40625 
Q 42.046875 3.421875 37.71875 1 
Q 33.40625 -1.421875 27.6875 -1.421875 
Q 18.265625 -1.421875 13.375 4.4375 
Q 8.5 10.296875 8.5 21.578125 
z
M 31.109375 56 
z
" id="DejaVuSans-117"/>
       <path d="M 41.109375 46.296875 
Q 39.59375 47.171875 37.8125 47.578125 
Q 36.03125 48 33.890625 48 
Q 26.265625 48 22.1875 43.046875 
Q 18.109375 38.09375 18.109375 28.8125 
L 18.109375 0 
L 9.078125 0 
L 9.078125 54.6875 
L 18.109375 54.6875 
L 18.109375 46.1875 
Q 20.953125 51.171875 25.484375 53.578125 
Q 30.03125 56 36.53125 56 
Q 37.453125 56 38.578125 55.875 
Q 39.703125 55.765625 41.0625 55.515625 
z
" id="DejaVuSans-114"/>
       <path d="M 34.28125 27.484375 
Q 23.390625 27.484375 19.1875 25 
Q 14.984375 22.515625 14.984375 16.5 
Q 14.984375 11.71875 18.140625 8.90625 
Q 21.296875 6.109375 26.703125 6.109375 
Q 34.1875 6.109375 38.703125 11.40625 
Q 43.21875 16.703125 43.21875 25.484375 
L 43.21875 27.484375 
z
M 52.203125 31.203125 
L 52.203125 0 
L 43.21875 0 
L 43.21875 8.296875 
Q 40.140625 3.328125 35.546875 0.953125 
Q 30.953125 -1.421875 24.3125 -1.421875 
Q 15.921875 -1.421875 10.953125 3.296875 
Q 6 8.015625 6 15.921875 
Q 6 25.140625 12.171875 29.828125 
Q 18.359375 34.515625 30.609375 34.515625 
L 43.21875 34.515625 
L 43.21875 35.40625 
Q 43.21875 41.609375 39.140625 45 
Q 35.0625 48.390625 27.6875 48.390625 
Q 23 48.390625 18.546875 47.265625 
Q 14.109375 46.140625 10.015625 43.890625 
L 10.015625 52.203125 
Q 14.9375 54.109375 19.578125 55.046875 
Q 24.21875 56 28.609375 56 
Q 40.484375 56 46.34375 49.84375 
Q 52.203125 43.703125 52.203125 31.203125 
z
" id="DejaVuSans-97"/>
       <path d="M 32.171875 -5.078125 
Q 28.375 -14.84375 24.75 -17.8125 
Q 21.140625 -20.796875 15.09375 -20.796875 
L 7.90625 -20.796875 
L 7.90625 -13.28125 
L 13.1875 -13.28125 
Q 16.890625 -13.28125 18.9375 -11.515625 
Q 21 -9.765625 23.484375 -3.21875 
L 25.09375 0.875 
L 2.984375 54.6875 
L 12.5 54.6875 
L 29.59375 11.921875 
L 46.6875 54.6875 
L 56.203125 54.6875 
z
" id="DejaVuSans-121"/>
       <path d="M 72.703125 32.078125 
Q 68.453125 32.078125 66.03125 28.46875 
Q 63.625 24.859375 63.625 18.40625 
Q 63.625 12.0625 66.03125 8.421875 
Q 68.453125 4.78125 72.703125 4.78125 
Q 76.859375 4.78125 79.265625 8.421875 
Q 81.6875 12.0625 81.6875 18.40625 
Q 81.6875 24.8125 79.265625 28.4375 
Q 76.859375 32.078125 72.703125 32.078125 
z
M 72.703125 38.28125 
Q 80.421875 38.28125 84.953125 32.90625 
Q 89.5 27.546875 89.5 18.40625 
Q 89.5 9.28125 84.9375 3.921875 
Q 80.375 -1.421875 72.703125 -1.421875 
Q 64.890625 -1.421875 60.34375 3.921875 
Q 55.8125 9.28125 55.8125 18.40625 
Q 55.8125 27.59375 60.375 32.9375 
Q 64.9375 38.28125 72.703125 38.28125 
z
M 22.3125 68.015625 
Q 18.109375 68.015625 15.6875 64.375 
Q 13.28125 60.75 13.28125 54.390625 
Q 13.28125 47.953125 15.671875 44.328125 
Q 18.0625 40.71875 22.3125 40.71875 
Q 26.5625 40.71875 28.96875 44.328125 
Q 31.390625 47.953125 31.390625 54.390625 
Q 31.390625 60.6875 28.953125 64.34375 
Q 26.515625 68.015625 22.3125 68.015625 
z
M 66.40625 74.21875 
L 74.21875 74.21875 
L 28.609375 -1.421875 
L 20.796875 -1.421875 
z
M 22.3125 74.21875 
Q 30.03125 74.21875 34.609375 68.875 
Q 39.203125 63.53125 39.203125 54.390625 
Q 39.203125 45.171875 34.640625 39.84375 
Q 30.078125 34.515625 22.3125 34.515625 
Q 14.546875 34.515625 10.03125 39.859375 
Q 5.515625 45.21875 5.515625 54.390625 
Q 5.515625 63.484375 10.046875 68.84375 
Q 14.59375 74.21875 22.3125 74.21875 
z
" id="DejaVuSans-37"/>
      </defs>
      <use xlink:href="#DejaVuSans-84"/>
      <use x="44.083984" xlink:href="#DejaVuSans-101"/>
      <use x="105.607422" xlink:href="#DejaVuSans-115"/>
      <use x="157.707031" xlink:href="#DejaVuSans-116"/>
      <use x="196.916016" xlink:href="#DejaVuSans-32"/>
      <use x="228.703125" xlink:href="#DejaVuSans-65"/>
      <use x="295.361328" xlink:href="#DejaVuSans-99"/>
      <use x="350.341797" xlink:href="#DejaVuSans-99"/>
      <use x="405.322266" xlink:href="#DejaVuSans-117"/>
      <use x="468.701172" xlink:href="#DejaVuSans-114"/>
      <use x="509.814453" xlink:href="#DejaVuSans-97"/>
      <use x="571.09375" xlink:href="#DejaVuSans-99"/>
      <use x="626.074219" xlink:href="#DejaVuSans-121"/>
      <use x="685.253906" xlink:href="#DejaVuSans-32"/>
      <use x="717.041016" xlink:href="#DejaVuSans-40"/>
      <use x="756.054688" xlink:href="#DejaVuSans-37"/>
      <use x="851.074219" xlink:href="#DejaVuSans-41"/>
     </g>
    </g>
   </g>
   <g id="line2d_14">
    <path clip-path="url(#pb9eeab1d77)" d="M 63.087946 278.400791 
L 65.575898 261.605787 
L 68.062245 248.4205 
L 70.53697 229.949015 
L 73.002028 205.889265 
L 75.481793 189.245294 
L 77.958536 167.254712 
L 80.439126 157.331764 
L 82.926985 136.171871 
L 85.392154 130.508088 
L 87.862978 111.296535 
L 90.328346 114.770322 
L 92.797571 108.970608 
L 95.276575 90.302779 
L 97.720855 95.860839 
L 100.203666 86.043614 
L 102.665907 82.418793 
L 105.13402 80.576176 
L 107.62151 69.852747 
L 110.090382 83.02293 
L 112.552266 74.595221 
L 115.020921 76.951355 
L 117.510022 76.528459 
L 119.970226 70.456883 
L 122.438238 73.477568 
L 124.892217 74.565014 
L 127.374855 71.574537 
L 129.838566 65.291513 
L 132.305548 69.490264 
L 134.792007 60.095936 
L 137.26317 63.328068 
L 139.738683 59.642834 
L 142.19522 67.798681 
L 144.67267 60.881314 
L 147.149586 58.343939 
L 149.605616 61.394831 
L 154.561805 56.863804 
L 157.016662 57.830423 
L 159.491963 68.312198 
L 161.957459 52.030709 
L 164.427681 53.752499 
L 166.887326 57.135666 
L 169.341246 55.353462 
L 171.83165 57.437734 
L 174.310594 59.67304 
L 176.782837 55.746151 
L 179.252748 53.510844 
L 181.739155 56.591942 
L 184.228902 54.809739 
L 186.687488 53.299397 
L 189.157004 53.812913 
L 191.61988 57.95125 
L 196.571448 52.967121 
L 199.044154 60.488625 
L 201.515381 50.278712 
L 204.010928 46.140375 
L 206.46311 49.765196 
L 208.931695 51.879675 
L 211.397384 53.541051 
L 213.866245 51.426572 
L 216.332326 45.32479 
L 218.822736 49.765196 
L 221.28214 50.701608 
L 226.241088 51.124504 
L 228.696636 48.828784 
L 231.171763 46.744512 
L 233.626439 47.167407 
L 236.103609 48.073613 
L 238.570753 51.215124 
L 241.050203 43.391552 
L 243.516059 44.75086 
L 245.986006 42.727001 
L 248.459652 45.022722 
L 250.936086 43.512379 
L 253.39959 44.025896 
L 255.858124 42.908243 
L 258.343189 39.978179 
L 260.811184 42.666588 
L 263.290897 44.690446 
L 265.747878 43.331138 
L 268.212449 41.186452 
L 270.677617 45.32479 
L 273.155383 48.224647 
L 275.637376 41.458314 
L 278.140318 38.43763 
L 280.614531 41.005211 
L 283.096382 39.796938 
L 285.549688 41.760382 
L 288.033823 45.475824 
L 290.526885 39.525076 
L 292.998935 39.132387 
L 295.483083 35.839841 
L 297.953477 42.364519 
L 300.428729 38.558457 
L 302.910962 38.135561 
L 305.383514 34.963843 
L 307.867746 36.443978 
L 310.347053 34.631568 
L 312.82608 35.990875 
L 315.281762 35.56798 
L 317.756121 36.172117 
L 320.227523 38.075148 
L 322.71064 36.685633 
L 325.190454 34.087844 
L 327.652724 34.99405 
L 330.128854 37.501218 
L 332.601601 36.23253 
L 335.105393 32.607709 
L 337.570427 36.746047 
L 340.035942 33.604535 
L 342.501489 32.909777 
L 344.977396 31.852538 
L 347.423436 32.879571 
L 349.904377 31.580676 
L 352.373987 33.030605 
L 354.856595 30.130748 
L 357.327682 32.486882 
L 359.793419 30.463023 
L 362.273205 31.610883 
L 364.744039 30.432816 
L 367.240022 29.466197 
L 369.720314 29.707852 
L 374.647654 28.650613 
L 377.112541 28.439165 
L 379.584891 27.955855 
L 382.072661 28.137096 
L 384.524939 27.200684 
L 389.461167 28.680819 
L 391.931876 26.989236 
L 394.400565 27.62358 
L 396.89509 27.804821 
L 399.361028 26.626754 
L 401.846199 26.898616 
L 404.342097 27.291305 
L 406.809712 28.046476 
L 409.276939 28.106889 
L 411.751608 27.351718 
L 414.243723 26.989236 
L 416.714288 27.502753 
L 419.184226 27.472546 
L 421.664997 26.596547 
L 424.146641 27.804821 
L 426.625681 27.04965 
L 429.102731 26.113238 
L 431.571364 27.230891 
L 431.571364 27.230891 
" style="fill:none;stroke:#1f77b4;stroke-linecap:square;stroke-width:1.5;"/>
   </g>
   <g id="line2d_15">
    <path clip-path="url(#pb9eeab1d77)" d="M 63.030534 265.713917 
L 65.360603 231.270564 
L 67.707831 216.053867 
L 70.02947 191.873289 
L 72.351307 183.067995 
L 74.663661 179.292139 
L 77.025802 158.28328 
L 79.375209 152.861151 
L 81.708214 140.718001 
L 84.035626 134.646425 
L 86.386098 123.983409 
L 88.753203 114.800529 
L 91.104648 120.479416 
L 93.45557 111.689224 
L 95.829429 107.550887 
L 98.167323 101.267863 
L 100.48728 100.120003 
L 102.845136 90.755882 
L 105.186679 90.665261 
L 107.51604 92.236017 
L 109.871674 93.444291 
L 112.216948 86.013408 
L 114.58067 86.617545 
L 116.903284 91.480846 
L 119.294763 84.110377 
L 121.640062 81.482381 
L 123.97026 82.146932 
L 126.323757 83.143758 
L 128.637477 83.173964 
L 130.986822 78.340869 
L 133.326324 72.239087 
L 135.664445 80.999072 
L 138.035573 76.105563 
L 140.372021 68.976748 
L 142.682114 72.69219 
L 145.024969 73.93067 
L 147.423896 72.027639 
L 149.748039 73.024465 
L 152.097567 70.819366 
L 154.416199 72.722397 
L 156.798406 69.278817 
L 159.15728 66.95289 
L 161.502635 70.607918 
L 163.887559 67.677854 
L 166.249381 60.428212 
L 168.602931 70.426677 
L 170.978937 73.26612 
L 173.353657 66.711235 
L 175.764383 57.649182 
L 178.079892 65.533168 
L 180.470562 61.576072 
L 182.830793 64.204067 
L 185.1602 62.361449 
L 187.499627 63.116621 
L 189.833688 62.180208 
L 192.175666 59.67304 
L 194.516185 65.080065 
L 196.878583 54.114981 
L 199.253028 61.968761 
L 201.600572 61.153176 
L 203.997098 66.318546 
L 206.365835 58.494974 
L 208.742347 60.609453 
L 211.078202 59.129317 
L 213.447158 57.890837 
L 215.811696 52.332778 
L 218.130789 61.908347 
L 220.509326 50.610988 
L 222.862759 52.030709 
L 225.249512 55.836771 
L 227.599396 63.086414 
L 229.957017 57.256493 
L 232.340668 52.302571 
L 234.717455 52.936914 
L 237.063628 51.940089 
L 239.446034 49.040232 
L 241.7953 54.024361 
L 244.131947 51.5474 
L 246.50584 51.366159 
L 248.855348 51.456779 
L 251.217268 49.281886 
L 253.569296 49.886023 
L 255.946229 53.329603 
L 258.313706 47.892372 
L 260.7139 51.758848 
L 263.05912 48.889197 
L 265.37742 45.234169 
L 267.743857 45.32479 
L 270.089915 43.482173 
L 272.446795 46.382029 
L 274.804451 44.358171 
L 277.140061 45.506031 
L 279.524235 46.382029 
L 281.88396 41.337487 
L 284.222752 44.17693 
L 286.556251 39.58549 
L 288.949262 45.868513 
L 291.302969 41.30728 
L 293.665228 40.280247 
L 296.010377 40.82397 
L 298.390859 40.703143 
L 300.750906 42.606174 
L 303.122493 40.672936 
L 305.453206 38.558457 
L 307.78692 42.908243 
L 310.130667 41.367694 
L 312.484388 37.712666 
L 314.817263 36.353358 
L 317.184246 38.165768 
L 319.566964 35.719014 
L 321.934917 37.440804 
L 324.275877 36.292944 
L 326.599576 38.256389 
L 328.956383 34.812809 
L 331.303512 35.416945 
L 333.632938 36.383564 
L 335.988638 33.997224 
L 338.333437 34.269085 
L 340.732697 32.033779 
L 343.076904 31.459849 
L 345.475072 32.063986 
L 347.833497 30.644264 
L 350.19843 33.27226 
L 352.573367 30.674471 
L 357.299747 31.399435 
L 359.659973 29.254749 
L 362.009027 30.855712 
L 364.367306 28.77144 
L 366.698863 29.828679 
L 369.032337 29.858886 
L 371.401809 28.680819 
L 373.822007 28.469372 
L 376.174157 29.738059 
L 378.517988 29.647438 
L 380.862194 30.009921 
L 383.211696 28.046476 
L 385.578866 27.261098 
L 387.940622 28.650613 
L 390.300142 28.318337 
L 392.646558 29.647438 
L 395.005769 29.073508 
L 397.391256 29.013095 
L 399.74412 29.405784 
L 402.139963 29.103715 
L 404.489873 29.677645 
L 406.861146 28.892267 
L 409.208127 29.284956 
L 411.576246 28.952681 
L 413.930458 29.677645 
L 413.930458 29.677645 
" style="fill:none;stroke:#ff7f0e;stroke-linecap:square;stroke-width:1.5;"/>
   </g>
   <g id="line2d_16">
    <path clip-path="url(#pb9eeab1d77)" d="M 63.000162 253.147871 
L 65.363562 222.216063 
L 67.731536 213.395665 
L 70.0652 199.258862 
L 72.408025 180.53062 
L 74.762632 169.520225 
L 77.115588 157.195833 
L 79.469921 149.523295 
L 81.815447 144.040753 
L 84.16847 141.865861 
L 86.530353 124.950028 
L 88.898917 125.946854 
L 91.293857 123.862582 
L 93.642118 114.135979 
L 95.988597 111.266328 
L 98.341372 104.65103 
L 100.679453 100.210624 
L 103.007531 94.380703 
L 105.345698 93.655739 
L 107.697293 90.665261 
L 110.018183 91.994363 
L 112.379329 91.722501 
L 114.696795 89.064299 
L 117.050013 87.402922 
L 119.413643 80.606383 
L 121.767481 76.256597 
L 124.096619 84.714513 
L 126.445577 81.089692 
L 128.798703 89.698643 
L 131.147368 76.588873 
L 133.519339 74.202532 
L 135.844958 77.706526 
L 138.177465 76.105563 
L 140.540788 67.073717 
L 142.866148 71.665157 
L 145.220776 69.067369 
L 147.605367 69.731919 
L 149.926944 74.776462 
L 152.251228 74.806669 
L 154.5661 74.685841 
L 156.920946 67.677854 
L 159.252444 66.107098 
L 161.583986 68.493439 
L 163.90069 72.359915 
L 166.236281 66.137305 
L 168.581173 72.752604 
L 170.924949 70.789159 
L 173.270684 68.161163 
L 175.653607 60.549039 
L 177.980352 65.502961 
L 180.326933 59.09911 
L 182.671817 59.250145 
L 184.998488 62.754138 
L 187.319186 60.458418 
L 189.661435 64.022826 
L 192.033733 57.014838 
L 194.388214 64.204067 
L 196.715764 54.809739 
L 201.424468 59.068904 
L 203.794314 66.439373 
L 206.145541 58.011664 
L 208.455563 57.86063 
L 210.793035 58.253319 
L 213.113795 59.491799 
L 215.46179 54.688911 
L 217.812466 62.210415 
L 220.176642 57.467941 
L 222.541561 49.070439 
L 224.860008 51.849468 
L 227.196638 61.515658 
L 229.559552 58.615801 
L 231.953664 53.84312 
L 234.298438 53.994154 
L 239.012404 50.731815 
L 241.349616 52.997328 
L 243.70086 51.335952 
L 246.045537 53.93374 
L 248.417679 49.161059 
L 250.745281 52.272364 
L 253.077534 52.755673 
L 255.430581 49.734989 
L 257.760883 49.674575 
L 260.129924 48.67775 
L 262.450337 49.221473 
L 264.766234 47.197614 
L 267.116385 45.657065 
L 269.441897 45.808099 
L 274.106806 46.291409 
L 276.468272 46.321616 
L 278.827012 42.032244 
L 281.185189 44.599826 
L 283.517819 45.143549 
L 285.857437 42.938449 
L 288.209376 44.720653 
L 290.553306 41.609348 
L 292.90386 40.15942 
L 295.231944 41.579141 
L 297.591593 40.763557 
L 299.919825 42.032244 
L 302.265131 39.253215 
L 304.621017 39.253215 
L 306.959466 42.485347 
L 309.327586 38.860526 
L 311.667764 37.833493 
L 314.038758 35.235704 
L 316.408384 37.8637 
L 318.724704 38.195975 
L 321.067905 38.105354 
L 323.435193 36.71584 
L 325.785995 35.598186 
L 328.114478 34.752395 
L 330.433184 36.836667 
L 332.795266 36.383564 
L 335.122747 36.353358 
L 337.454307 35.054463 
L 339.807253 30.795298 
L 342.155789 32.275434 
L 344.535849 35.205498 
L 346.858729 31.822331 
L 349.201294 31.973365 
L 351.536893 31.339022 
L 353.87359 31.248401 
L 358.548518 30.825505 
L 360.907998 30.855712 
L 363.26389 30.614057 
L 365.613037 29.647438 
L 367.956163 30.009921 
L 370.317568 29.828679 
L 372.724548 30.130748 
L 375.055475 29.073508 
L 377.424572 28.801647 
L 379.756384 28.86206 
L 382.075558 28.28813 
L 384.415801 29.284956 
L 386.73921 29.043302 
L 389.110424 29.254749 
L 391.445898 29.133922 
L 393.794982 29.647438 
L 396.112424 28.408958 
L 398.459392 28.620406 
L 400.822074 29.103715 
L 403.178537 28.892267 
L 405.511194 29.707852 
L 407.865694 29.707852 
L 412.554497 28.982888 
L 412.554497 28.982888 
" style="fill:none;stroke:#2ca02c;stroke-linecap:square;stroke-width:1.5;"/>
   </g>
   <g id="line2d_17">
    <path clip-path="url(#pb9eeab1d77)" d="M 62.998636 257.610932 
L 65.312888 221.00779 
L 67.633221 214.362284 
L 69.954387 195.875696 
L 74.632599 171.861256 
L 76.972548 157.452592 
L 79.30498 151.985153 
L 81.630209 142.83248 
L 83.959805 134.616218 
L 86.299373 125.644786 
L 88.625085 122.533481 
L 90.979196 127.124921 
L 93.324826 109.876814 
L 95.65598 97.371181 
L 97.986968 99.213798 
L 100.332092 97.18994 
L 102.681541 86.285269 
L 104.993777 92.900568 
L 107.339921 93.414084 
L 109.681996 89.33616 
L 111.984543 91.450639 
L 114.348634 85.590512 
L 116.680972 87.493543 
L 119.076033 83.385412 
L 121.41208 88.701817 
L 123.769829 80.72721 
L 126.134052 82.509414 
L 128.473519 87.282095 
L 130.853748 72.873431 
L 133.159454 76.951355 
L 135.501226 80.123073 
L 137.799821 78.884593 
L 140.15533 72.933845 
L 142.474818 77.011768 
L 144.807565 74.806669 
L 147.211672 67.134131 
L 149.519267 76.256597 
L 151.879385 73.235913 
L 154.22088 74.927496 
L 156.551244 70.275642 
L 158.888718 70.185022 
L 161.244571 66.681028 
L 163.602158 78.673145 
L 165.952283 66.862269 
L 168.281766 74.293153 
L 170.629069 71.785985 
L 172.992925 63.59993 
L 175.386722 59.219938 
L 177.698323 66.439373 
L 180.084534 61.757313 
L 182.419028 61.606278 
L 184.763232 65.261306 
L 187.137216 62.512484 
L 189.471913 74.957703 
L 191.810449 62.210415 
L 194.139613 63.328068 
L 196.438307 58.43456 
L 198.759909 61.092762 
L 201.070558 58.736628 
L 203.46896 69.762126 
L 205.812468 58.162698 
L 208.156902 56.259667 
L 210.507791 58.374146 
L 212.85472 59.58242 
L 215.203879 55.0816 
L 217.561337 62.723932 
L 219.927958 52.574432 
L 222.246725 56.561736 
L 224.598434 56.048219 
L 226.91374 58.948076 
L 229.259303 61.394831 
L 231.661609 55.504496 
L 233.97793 56.440908 
L 236.343676 56.682563 
L 238.709328 55.202428 
L 241.047959 58.464767 
L 243.38753 51.819261 
L 245.71782 50.792229 
L 248.030519 53.299397 
L 250.361991 48.76837 
L 252.682373 52.151537 
L 255.008443 49.040232 
L 257.340594 48.67775 
L 259.725455 50.671401 
L 262.071287 48.285061 
L 264.40997 46.382029 
L 266.753865 46.986166 
L 269.114725 45.264376 
L 271.436732 46.079961 
L 273.77511 43.421759 
L 276.105664 44.720653 
L 278.436999 43.995689 
L 280.769251 45.747686 
L 283.120437 43.482173 
L 285.51891 42.062451 
L 287.888569 45.89872 
L 290.242005 42.696795 
L 292.576895 40.310454 
L 294.919226 42.062451 
L 297.24473 41.911417 
L 299.578639 41.911417 
L 301.904078 39.404249 
L 304.26505 42.334313 
L 306.616652 43.270725 
L 308.94749 39.192801 
L 311.314264 38.256389 
L 313.643851 37.682459 
L 316.034164 40.340661 
L 318.384544 38.588664 
L 320.686478 40.15942 
L 323.030451 34.540947 
L 325.356497 36.655426 
L 327.667189 33.815983 
L 329.979063 36.292944 
L 332.318165 35.688807 
L 334.6618 34.118051 
L 337.02485 32.819157 
L 339.367656 33.785776 
L 341.687105 33.815983 
L 344.079705 31.882745 
L 346.403428 30.402609 
L 348.723817 30.885919 
L 351.073858 31.218194 
L 353.41104 32.547295 
L 355.784681 29.858886 
L 358.111639 32.668123 
L 360.444453 29.858886 
L 362.773082 29.707852 
L 365.13956 30.523437 
L 367.485924 30.674471 
L 369.812354 30.221368 
L 372.227582 29.526611 
L 374.594886 30.251575 
L 376.961384 30.704678 
L 379.300585 30.040127 
L 381.664708 30.070334 
L 384.016299 29.526611 
L 388.73083 29.677645 
L 391.057442 28.801647 
L 393.363307 28.922474 
L 395.700979 29.707852 
L 398.038459 28.318337 
L 400.452315 29.164129 
L 402.799371 29.617232 
L 407.551366 28.801647 
L 409.887316 28.650613 
L 412.230353 28.831854 
L 412.230353 28.831854 
" style="fill:none;stroke:#d62728;stroke-linecap:square;stroke-width:1.5;"/>
   </g>
   <g id="patch_3">
    <path d="M 44.57 303.64 
L 44.57 10.8 
" style="fill:none;stroke:#000000;stroke-linecap:square;stroke-linejoin:miter;stroke-width:0.8;"/>
   </g>
   <g id="patch_4">
    <path d="M 450 303.64 
L 450 10.8 
" style="fill:none;stroke:#000000;stroke-linecap:square;stroke-linejoin:miter;stroke-width:0.8;"/>
   </g>
   <g id="patch_5">
    <path d="M 44.57 303.64 
L 450 303.64 
" style="fill:none;stroke:#000000;stroke-linecap:square;stroke-linejoin:miter;stroke-width:0.8;"/>
   </g>
   <g id="patch_6">
    <path d="M 44.57 10.8 
L 450 10.8 
" style="fill:none;stroke:#000000;stroke-linecap:square;stroke-linejoin:miter;stroke-width:0.8;"/>
   </g>
   <g id="legend_1">
    <g id="patch_7">
     <path d="M 321.514062 298.64 
L 443 298.64 
Q 445 298.64 445 296.64 
L 445 238.9275 
Q 445 236.9275 443 236.9275 
L 321.514062 236.9275 
Q 319.514062 236.9275 319.514062 238.9275 
L 319.514062 296.64 
Q 319.514062 298.64 321.514062 298.64 
z
" style="fill:#ffffff;opacity:0.8;stroke:#cccccc;stroke-linejoin:miter;"/>
    </g>
    <g id="line2d_18">
     <path d="M 323.514062 245.025937 
L 343.514062 245.025937 
" style="fill:none;stroke:#1f77b4;stroke-linecap:square;stroke-width:1.5;"/>
    </g>
    <g id="line2d_19"/>
    <g id="text_16">
     <!-- AllReduce SGD -->
     <g transform="translate(351.514062 248.525937)scale(0.1 -0.1)">
      <defs>
       <path d="M 9.421875 75.984375 
L 18.40625 75.984375 
L 18.40625 0 
L 9.421875 0 
z
" id="DejaVuSans-108"/>
       <path d="M 44.390625 34.1875 
Q 47.5625 33.109375 50.5625 29.59375 
Q 53.5625 26.078125 56.59375 19.921875 
L 66.609375 0 
L 56 0 
L 46.6875 18.703125 
Q 43.0625 26.03125 39.671875 28.421875 
Q 36.28125 30.8125 30.421875 30.8125 
L 19.671875 30.8125 
L 19.671875 0 
L 9.8125 0 
L 9.8125 72.90625 
L 32.078125 72.90625 
Q 44.578125 72.90625 50.734375 67.671875 
Q 56.890625 62.453125 56.890625 51.90625 
Q 56.890625 45.015625 53.6875 40.46875 
Q 50.484375 35.9375 44.390625 34.1875 
z
M 19.671875 64.796875 
L 19.671875 38.921875 
L 32.078125 38.921875 
Q 39.203125 38.921875 42.84375 42.21875 
Q 46.484375 45.515625 46.484375 51.90625 
Q 46.484375 58.296875 42.84375 61.546875 
Q 39.203125 64.796875 32.078125 64.796875 
z
" id="DejaVuSans-82"/>
       <path d="M 45.40625 46.390625 
L 45.40625 75.984375 
L 54.390625 75.984375 
L 54.390625 0 
L 45.40625 0 
L 45.40625 8.203125 
Q 42.578125 3.328125 38.25 0.953125 
Q 33.9375 -1.421875 27.875 -1.421875 
Q 17.96875 -1.421875 11.734375 6.484375 
Q 5.515625 14.40625 5.515625 27.296875 
Q 5.515625 40.1875 11.734375 48.09375 
Q 17.96875 56 27.875 56 
Q 33.9375 56 38.25 53.625 
Q 42.578125 51.265625 45.40625 46.390625 
z
M 14.796875 27.296875 
Q 14.796875 17.390625 18.875 11.75 
Q 22.953125 6.109375 30.078125 6.109375 
Q 37.203125 6.109375 41.296875 11.75 
Q 45.40625 17.390625 45.40625 27.296875 
Q 45.40625 37.203125 41.296875 42.84375 
Q 37.203125 48.484375 30.078125 48.484375 
Q 22.953125 48.484375 18.875 42.84375 
Q 14.796875 37.203125 14.796875 27.296875 
z
" id="DejaVuSans-100"/>
       <path d="M 53.515625 70.515625 
L 53.515625 60.890625 
Q 47.90625 63.578125 42.921875 64.890625 
Q 37.9375 66.21875 33.296875 66.21875 
Q 25.25 66.21875 20.875 63.09375 
Q 16.5 59.96875 16.5 54.203125 
Q 16.5 49.359375 19.40625 46.890625 
Q 22.3125 44.4375 30.421875 42.921875 
L 36.375 41.703125 
Q 47.40625 39.59375 52.65625 34.296875 
Q 57.90625 29 57.90625 20.125 
Q 57.90625 9.515625 50.796875 4.046875 
Q 43.703125 -1.421875 29.984375 -1.421875 
Q 24.8125 -1.421875 18.96875 -0.25 
Q 13.140625 0.921875 6.890625 3.21875 
L 6.890625 13.375 
Q 12.890625 10.015625 18.65625 8.296875 
Q 24.421875 6.59375 29.984375 6.59375 
Q 38.421875 6.59375 43.015625 9.90625 
Q 47.609375 13.234375 47.609375 19.390625 
Q 47.609375 24.75 44.3125 27.78125 
Q 41.015625 30.8125 33.5 32.328125 
L 27.484375 33.5 
Q 16.453125 35.6875 11.515625 40.375 
Q 6.59375 45.0625 6.59375 53.421875 
Q 6.59375 63.09375 13.40625 68.65625 
Q 20.21875 74.21875 32.171875 74.21875 
Q 37.3125 74.21875 42.625 73.28125 
Q 47.953125 72.359375 53.515625 70.515625 
z
" id="DejaVuSans-83"/>
       <path d="M 59.515625 10.40625 
L 59.515625 29.984375 
L 43.40625 29.984375 
L 43.40625 38.09375 
L 69.28125 38.09375 
L 69.28125 6.78125 
Q 63.578125 2.734375 56.6875 0.65625 
Q 49.8125 -1.421875 42 -1.421875 
Q 24.90625 -1.421875 15.25 8.5625 
Q 5.609375 18.5625 5.609375 36.375 
Q 5.609375 54.25 15.25 64.234375 
Q 24.90625 74.21875 42 74.21875 
Q 49.125 74.21875 55.546875 72.453125 
Q 61.96875 70.703125 67.390625 67.28125 
L 67.390625 56.78125 
Q 61.921875 61.421875 55.765625 63.765625 
Q 49.609375 66.109375 42.828125 66.109375 
Q 29.4375 66.109375 22.71875 58.640625 
Q 16.015625 51.171875 16.015625 36.375 
Q 16.015625 21.625 22.71875 14.15625 
Q 29.4375 6.6875 42.828125 6.6875 
Q 48.046875 6.6875 52.140625 7.59375 
Q 56.25 8.5 59.515625 10.40625 
z
" id="DejaVuSans-71"/>
       <path d="M 19.671875 64.796875 
L 19.671875 8.109375 
L 31.59375 8.109375 
Q 46.6875 8.109375 53.6875 14.9375 
Q 60.6875 21.78125 60.6875 36.53125 
Q 60.6875 51.171875 53.6875 57.984375 
Q 46.6875 64.796875 31.59375 64.796875 
z
M 9.8125 72.90625 
L 30.078125 72.90625 
Q 51.265625 72.90625 61.171875 64.09375 
Q 71.09375 55.28125 71.09375 36.53125 
Q 71.09375 17.671875 61.125 8.828125 
Q 51.171875 0 30.078125 0 
L 9.8125 0 
z
" id="DejaVuSans-68"/>
      </defs>
      <use xlink:href="#DejaVuSans-65"/>
      <use x="68.408203" xlink:href="#DejaVuSans-108"/>
      <use x="96.191406" xlink:href="#DejaVuSans-108"/>
      <use x="123.974609" xlink:href="#DejaVuSans-82"/>
      <use x="188.957031" xlink:href="#DejaVuSans-101"/>
      <use x="250.480469" xlink:href="#DejaVuSans-100"/>
      <use x="313.957031" xlink:href="#DejaVuSans-117"/>
      <use x="377.335938" xlink:href="#DejaVuSans-99"/>
      <use x="432.316406" xlink:href="#DejaVuSans-101"/>
      <use x="493.839844" xlink:href="#DejaVuSans-32"/>
      <use x="525.626953" xlink:href="#DejaVuSans-83"/>
      <use x="589.103516" xlink:href="#DejaVuSans-71"/>
      <use x="666.59375" xlink:href="#DejaVuSans-68"/>
     </g>
    </g>
    <g id="line2d_20">
     <path d="M 323.514062 259.704062 
L 343.514062 259.704062 
" style="fill:none;stroke:#ff7f0e;stroke-linecap:square;stroke-width:1.5;"/>
    </g>
    <g id="line2d_21"/>
    <g id="text_17">
     <!-- GRandK-MN 8 bits -->
     <g transform="translate(351.514062 263.204062)scale(0.1 -0.1)">
      <defs>
       <path d="M 54.890625 33.015625 
L 54.890625 0 
L 45.90625 0 
L 45.90625 32.71875 
Q 45.90625 40.484375 42.875 44.328125 
Q 39.84375 48.1875 33.796875 48.1875 
Q 26.515625 48.1875 22.3125 43.546875 
Q 18.109375 38.921875 18.109375 30.90625 
L 18.109375 0 
L 9.078125 0 
L 9.078125 54.6875 
L 18.109375 54.6875 
L 18.109375 46.1875 
Q 21.34375 51.125 25.703125 53.5625 
Q 30.078125 56 35.796875 56 
Q 45.21875 56 50.046875 50.171875 
Q 54.890625 44.34375 54.890625 33.015625 
z
" id="DejaVuSans-110"/>
       <path d="M 9.8125 72.90625 
L 19.671875 72.90625 
L 19.671875 42.09375 
L 52.390625 72.90625 
L 65.09375 72.90625 
L 28.90625 38.921875 
L 67.671875 0 
L 54.6875 0 
L 19.671875 35.109375 
L 19.671875 0 
L 9.8125 0 
z
" id="DejaVuSans-75"/>
       <path d="M 4.890625 31.390625 
L 31.203125 31.390625 
L 31.203125 23.390625 
L 4.890625 23.390625 
z
" id="DejaVuSans-45"/>
       <path d="M 9.8125 72.90625 
L 24.515625 72.90625 
L 43.109375 23.296875 
L 61.8125 72.90625 
L 76.515625 72.90625 
L 76.515625 0 
L 66.890625 0 
L 66.890625 64.015625 
L 48.09375 14.015625 
L 38.1875 14.015625 
L 19.390625 64.015625 
L 19.390625 0 
L 9.8125 0 
z
" id="DejaVuSans-77"/>
       <path d="M 9.8125 72.90625 
L 23.09375 72.90625 
L 55.421875 11.921875 
L 55.421875 72.90625 
L 64.984375 72.90625 
L 64.984375 0 
L 51.703125 0 
L 19.390625 60.984375 
L 19.390625 0 
L 9.8125 0 
z
" id="DejaVuSans-78"/>
       <path d="M 48.6875 27.296875 
Q 48.6875 37.203125 44.609375 42.84375 
Q 40.53125 48.484375 33.40625 48.484375 
Q 26.265625 48.484375 22.1875 42.84375 
Q 18.109375 37.203125 18.109375 27.296875 
Q 18.109375 17.390625 22.1875 11.75 
Q 26.265625 6.109375 33.40625 6.109375 
Q 40.53125 6.109375 44.609375 11.75 
Q 48.6875 17.390625 48.6875 27.296875 
z
M 18.109375 46.390625 
Q 20.953125 51.265625 25.265625 53.625 
Q 29.59375 56 35.59375 56 
Q 45.5625 56 51.78125 48.09375 
Q 58.015625 40.1875 58.015625 27.296875 
Q 58.015625 14.40625 51.78125 6.484375 
Q 45.5625 -1.421875 35.59375 -1.421875 
Q 29.59375 -1.421875 25.265625 0.953125 
Q 20.953125 3.328125 18.109375 8.203125 
L 18.109375 0 
L 9.078125 0 
L 9.078125 75.984375 
L 18.109375 75.984375 
z
" id="DejaVuSans-98"/>
      </defs>
      <use xlink:href="#DejaVuSans-71"/>
      <use x="77.490234" xlink:href="#DejaVuSans-82"/>
      <use x="144.722656" xlink:href="#DejaVuSans-97"/>
      <use x="206.001953" xlink:href="#DejaVuSans-110"/>
      <use x="269.380859" xlink:href="#DejaVuSans-100"/>
      <use x="332.857422" xlink:href="#DejaVuSans-75"/>
      <use x="387.933594" xlink:href="#DejaVuSans-45"/>
      <use x="424.017578" xlink:href="#DejaVuSans-77"/>
      <use x="510.296875" xlink:href="#DejaVuSans-78"/>
      <use x="585.101562" xlink:href="#DejaVuSans-32"/>
      <use x="616.888672" xlink:href="#DejaVuSans-56"/>
      <use x="680.511719" xlink:href="#DejaVuSans-32"/>
      <use x="712.298828" xlink:href="#DejaVuSans-98"/>
      <use x="775.775391" xlink:href="#DejaVuSans-105"/>
      <use x="803.558594" xlink:href="#DejaVuSans-116"/>
      <use x="842.767578" xlink:href="#DejaVuSans-115"/>
     </g>
    </g>
    <g id="line2d_22">
     <path d="M 323.514062 274.382187 
L 343.514062 274.382187 
" style="fill:none;stroke:#2ca02c;stroke-linecap:square;stroke-width:1.5;"/>
    </g>
    <g id="line2d_23"/>
    <g id="text_18">
     <!-- GRandK-MN 4 bits -->
     <g transform="translate(351.514062 277.882187)scale(0.1 -0.1)">
      <use xlink:href="#DejaVuSans-71"/>
      <use x="77.490234" xlink:href="#DejaVuSans-82"/>
      <use x="144.722656" xlink:href="#DejaVuSans-97"/>
      <use x="206.001953" xlink:href="#DejaVuSans-110"/>
      <use x="269.380859" xlink:href="#DejaVuSans-100"/>
      <use x="332.857422" xlink:href="#DejaVuSans-75"/>
      <use x="387.933594" xlink:href="#DejaVuSans-45"/>
      <use x="424.017578" xlink:href="#DejaVuSans-77"/>
      <use x="510.296875" xlink:href="#DejaVuSans-78"/>
      <use x="585.101562" xlink:href="#DejaVuSans-32"/>
      <use x="616.888672" xlink:href="#DejaVuSans-52"/>
      <use x="680.511719" xlink:href="#DejaVuSans-32"/>
      <use x="712.298828" xlink:href="#DejaVuSans-98"/>
      <use x="775.775391" xlink:href="#DejaVuSans-105"/>
      <use x="803.558594" xlink:href="#DejaVuSans-116"/>
      <use x="842.767578" xlink:href="#DejaVuSans-115"/>
     </g>
    </g>
    <g id="line2d_24">
     <path d="M 323.514062 289.060312 
L 343.514062 289.060312 
" style="fill:none;stroke:#d62728;stroke-linecap:square;stroke-width:1.5;"/>
    </g>
    <g id="line2d_25"/>
    <g id="text_19">
     <!-- GRandK-MN 2 bits -->
     <g transform="translate(351.514062 292.560312)scale(0.1 -0.1)">
      <use xlink:href="#DejaVuSans-71"/>
      <use x="77.490234" xlink:href="#DejaVuSans-82"/>
      <use x="144.722656" xlink:href="#DejaVuSans-97"/>
      <use x="206.001953" xlink:href="#DejaVuSans-110"/>
      <use x="269.380859" xlink:href="#DejaVuSans-100"/>
      <use x="332.857422" xlink:href="#DejaVuSans-75"/>
      <use x="387.933594" xlink:href="#DejaVuSans-45"/>
      <use x="424.017578" xlink:href="#DejaVuSans-77"/>
      <use x="510.296875" xlink:href="#DejaVuSans-78"/>
      <use x="585.101562" xlink:href="#DejaVuSans-32"/>
      <use x="616.888672" xlink:href="#DejaVuSans-50"/>
      <use x="680.511719" xlink:href="#DejaVuSans-32"/>
      <use x="712.298828" xlink:href="#DejaVuSans-98"/>
      <use x="775.775391" xlink:href="#DejaVuSans-105"/>
      <use x="803.558594" xlink:href="#DejaVuSans-116"/>
      <use x="842.767578" xlink:href="#DejaVuSans-115"/>
     </g>
    </g>
   </g>
  </g>
 </g>
 <defs>
  <clipPath id="pb9eeab1d77">
   <rect height="292.84" width="405.43" x="44.57" y="10.8"/>
  </clipPath>
 </defs>
</svg>
