<?xml version="1.0" encoding="utf-8" standalone="no"?>
<!DOCTYPE svg PUBLIC "-//W3C//DTD SVG 1.1//EN"
  "http://www.w3.org/Graphics/SVG/1.1/DTD/svg11.dtd">
<!-- Created with matplotlib (https://matplotlib.org/) -->
<svg height="345.6pt" version="1.1" viewBox="0 0 460.8 345.6" width="460.8pt" xmlns="http://www.w3.org/2000/svg" xmlns:xlink="http://www.w3.org/1999/xlink">
 <metadata>
  <rdf:RDF xmlns:cc="http://creativecommons.org/ns#" xmlns:dc="http://purl.org/dc/elements/1.1/" xmlns:rdf="http://www.w3.org/1999/02/22-rdf-syntax-ns#">
   <cc:Work>
    <dc:type rdf:resource="http://purl.org/dc/dcmitype/StillImage"/>
    <dc:date>2021-06-10T08:56:25.965821</dc:date>
    <dc:format>image/svg+xml</dc:format>
    <dc:creator>
     <cc:Agent>
      <dc:title>Matplotlib v3.3.1, https://matplotlib.org/</dc:title>
     </cc:Agent>
    </dc:creator>
   </cc:Work>
  </rdf:RDF>
 </metadata>
 <defs>
  <style type="text/css">*{stroke-linecap:butt;stroke-linejoin:round;}</style>
 </defs>
 <g id="figure_1">
  <g id="patch_1">
   <path d="M 0 345.6 
L 460.8 345.6 
L 460.8 0 
L 0 0 
z
" style="fill:#ffffff;"/>
  </g>
  <g id="axes_1">
   <g id="patch_2">
    <path d="M 50.87 303.64 
L 450 303.64 
L 450 10.8 
L 50.87 10.8 
z
" style="fill:#ffffff;"/>
   </g>
   <g id="PolyCollection_1">
    <path clip-path="url(#p6d4d01c3bc)" d="M 69.012273 190.823341 
L 69.012273 232.701557 
L 71.447477 153.79325 
L 73.882682 101.14175 
L 76.317886 97.209922 
L 78.75309 75.361201 
L 81.188295 58.924681 
L 83.623499 50.348675 
L 86.058703 57.716104 
L 88.493908 45.300663 
L 90.929112 39.880336 
L 93.364317 38.185888 
L 95.799521 41.806782 
L 98.234725 39.346558 
L 100.66993 36.495438 
L 103.105134 33.267692 
L 105.540339 33.43603 
L 107.975543 37.381347 
L 110.410747 35.43492 
L 112.845952 32.761778 
L 115.281156 35.23548 
L 117.716361 34.479257 
L 120.151565 32.016327 
L 122.586769 30.398397 
L 125.021974 30.871013 
L 127.457178 32.902248 
L 129.892383 35.413779 
L 132.327587 32.95103 
L 134.762791 28.82699 
L 137.197996 31.612094 
L 139.6332 30.228796 
L 142.068405 33.906015 
L 144.503609 32.838456 
L 146.938813 29.922353 
L 149.374018 31.652115 
L 151.809222 31.601051 
L 154.244426 32.416764 
L 156.679631 30.103442 
L 159.114835 34.541767 
L 161.55004 31.386872 
L 163.985244 33.629431 
L 166.420448 31.017787 
L 168.855653 30.832817 
L 171.290857 33.313705 
L 173.726062 32.580998 
L 176.161266 32.202312 
L 178.59647 30.933752 
L 181.031675 29.951229 
L 183.466879 31.121297 
L 185.902084 30.738391 
L 188.337288 30.320412 
L 190.772492 30.553656 
L 193.207697 31.032233 
L 195.642901 32.767531 
L 198.078106 31.72195 
L 200.51331 28.097465 
L 202.948514 27.886594 
L 205.383719 29.182742 
L 207.818923 33.04967 
L 210.254128 29.835179 
L 212.689332 28.266917 
L 215.124536 31.013844 
L 217.559741 29.604181 
L 219.994945 29.760073 
L 222.430149 26.772978 
L 224.865354 28.65824 
L 227.300558 30.329423 
L 229.735763 28.949992 
L 232.170967 28.263157 
L 234.606171 29.271001 
L 237.041376 27.596919 
L 239.47658 31.436023 
L 241.911785 28.327238 
L 244.346989 28.097465 
L 246.782193 30.163168 
L 249.217398 28.560471 
L 251.652602 25.726888 
L 254.087807 27.596919 
L 256.523011 29.126286 
L 258.958215 28.54557 
L 261.39342 29.58516 
L 263.828624 26.794849 
L 266.263829 28.560471 
L 268.699033 27.636321 
L 271.134237 26.241051 
L 273.569442 27.956889 
L 276.004646 28.804991 
L 278.439851 27.274937 
L 280.875055 29.153325 
L 283.310259 27.997945 
L 285.745464 28.56659 
L 288.180668 28.568437 
L 290.615872 27.661575 
L 293.051077 27.161029 
L 295.486281 25.726888 
L 297.921486 26.404409 
L 300.35669 26.341572 
L 302.791894 30.3228 
L 305.227099 27.805763 
L 307.662303 28.073189 
L 310.097508 27.63627 
L 312.532712 27.124542 
L 314.967916 27.975736 
L 317.403121 27.408033 
L 319.838325 27.596919 
L 322.27353 27.240098 
L 324.708734 27.468686 
L 327.143938 25.659391 
L 329.579143 27.274937 
L 332.014347 26.794849 
L 334.449552 25.576724 
L 336.884756 26.404409 
L 339.31996 26.760592 
L 341.755165 27.058833 
L 344.190369 25.576724 
L 346.625574 27.647435 
L 349.060778 25.809555 
L 351.495982 26.241051 
L 353.931187 26.860702 
L 356.366391 27.562224 
L 358.801595 27.803899 
L 361.2368 27.562224 
L 363.672004 29.041238 
L 366.107209 25.359063 
L 368.542413 25.359063 
L 370.977617 26.341572 
L 373.412822 26.710538 
L 375.848026 25.726888 
L 378.283231 25.359063 
L 380.718435 25.576724 
L 383.153639 26.241051 
L 385.588844 25.576724 
L 388.024048 26.341572 
L 390.459253 25.359063 
L 392.894457 25.359063 
L 395.329661 25.359063 
L 397.764866 25.576724 
L 400.20007 25.576724 
L 402.635275 25.359063 
L 405.070479 24.908572 
L 407.505683 25.726888 
L 409.940888 25.726888 
L 412.376092 25.576724 
L 414.811297 25.576724 
L 417.246501 25.576724 
L 419.681705 25.726888 
L 422.11691 25.726888 
L 424.552114 25.576724 
L 426.987318 25.576724 
L 429.422523 25.576724 
L 431.857727 25.576724 
L 431.857727 24.841075 
L 431.857727 24.841075 
L 429.422523 24.841075 
L 426.987318 24.841075 
L 424.552114 24.841075 
L 422.11691 24.991238 
L 419.681705 24.991238 
L 417.246501 24.841075 
L 414.811297 24.841075 
L 412.376092 24.841075 
L 409.940888 24.991238 
L 407.505683 24.991238 
L 405.070479 24.908572 
L 402.635275 24.758408 
L 400.20007 24.841075 
L 397.764866 24.841075 
L 395.329661 24.758408 
L 392.894457 24.758408 
L 390.459253 24.758408 
L 388.024048 24.8771 
L 385.588844 24.841075 
L 383.153639 24.677294 
L 380.718435 24.841075 
L 378.283231 24.758408 
L 375.848026 24.991238 
L 373.412822 24.307916 
L 370.977617 24.8771 
L 368.542413 24.758408 
L 366.107209 24.758408 
L 363.672004 24.479947 
L 361.2368 24.257103 
L 358.801595 24.616084 
L 356.366391 24.257103 
L 353.931187 24.257862 
L 351.495982 24.677294 
L 349.060778 25.208899 
L 346.625574 24.47222 
L 344.190369 24.841075 
L 341.755165 24.660386 
L 339.31996 24.958626 
L 336.884756 25.114592 
L 334.449552 24.841075 
L 332.014347 25.224697 
L 329.579143 25.445374 
L 327.143938 25.659391 
L 324.708734 25.752171 
L 322.27353 24.879557 
L 319.838325 25.724047 
L 317.403121 25.112059 
L 314.967916 25.245121 
L 312.532712 24.895004 
L 310.097508 25.384369 
L 307.662303 25.147669 
L 305.227099 25.715421 
L 302.791894 24.900242 
L 300.35669 24.8771 
L 297.921486 25.114592 
L 295.486281 24.991238 
L 293.051077 26.159937 
L 290.615872 26.660483 
L 288.180668 25.152966 
L 285.745464 25.455141 
L 283.310259 26.224005 
L 280.875055 25.869498 
L 278.439851 25.445374 
L 276.004646 25.617176 
L 273.569442 24.96364 
L 271.134237 24.677294 
L 268.699033 24.883772 
L 266.263829 26.162024 
L 263.828624 25.224697 
L 261.39342 25.137335 
L 258.958215 24.875505 
L 256.523011 25.295882 
L 254.087807 25.724047 
L 251.652602 24.991238 
L 249.217398 26.162024 
L 246.782193 25.760638 
L 244.346989 26.224593 
L 241.911785 24.79351 
L 239.47658 28.091715 
L 237.041376 25.724047 
L 234.606171 26.652805 
L 232.170967 25.558355 
L 229.735763 26.072831 
L 227.300558 26.795694 
L 224.865354 26.965239 
L 222.430149 25.546896 
L 219.994945 26.464061 
L 217.559741 26.720062 
L 215.124536 27.412693 
L 212.689332 25.05405 
L 210.254128 25.688191 
L 207.818923 27.57927 
L 205.383719 26.340627 
L 202.948514 25.134045 
L 200.51331 26.224593 
L 198.078106 27.505461 
L 195.642901 26.259661 
L 193.207697 26.59343 
L 190.772492 26.271133 
L 188.337288 28.206234 
L 185.902084 27.087491 
L 183.466879 24.802509 
L 181.031675 25.872468 
L 178.59647 28.493878 
L 176.161266 29.928267 
L 173.726062 27.04685 
L 171.290857 30.218403 
L 168.855653 26.592627 
L 166.420448 26.10733 
L 163.985244 26.999509 
L 161.55004 27.239884 
L 159.114835 27.78903 
L 156.679631 28.723532 
L 154.244426 29.413487 
L 151.809222 27.225923 
L 149.374018 26.774422 
L 146.938813 26.902437 
L 144.503609 28.691468 
L 142.068405 25.221287 
L 139.6332 26.395775 
L 137.197996 28.316082 
L 134.762791 27.397144 
L 132.327587 28.97933 
L 129.892383 28.218439 
L 127.457178 27.92691 
L 125.021974 28.756835 
L 122.586769 27.627703 
L 120.151565 29.213269 
L 117.716361 26.650229 
L 115.281156 30.899468 
L 112.845952 27.166397 
L 110.410747 26.49544 
L 107.975543 29.454365 
L 105.540339 29.695641 
L 103.105134 29.863979 
L 100.66993 29.239073 
L 98.234725 33.695926 
L 95.799521 35.640509 
L 93.364317 34.856597 
L 90.929112 35.264443 
L 88.493908 36.451324 
L 86.058703 45.25904 
L 83.623499 41.214017 
L 81.188295 51.558655 
L 78.75309 62.952501 
L 76.317886 77.243212 
L 73.882682 86.926239 
L 71.447477 99.946394 
L 69.012273 190.823341 
z
" style="fill:#1f77b4;fill-opacity:0.25;"/>
   </g>
   <g id="PolyCollection_2">
    <path clip-path="url(#p6d4d01c3bc)" d="M 69.012273 282.518824 
L 69.012273 285.814075 
L 71.447477 256.106065 
L 73.882682 234.676337 
L 76.317886 187.065462 
L 78.75309 147.765709 
L 81.188295 116.750262 
L 83.623499 102.070599 
L 86.058703 83.874775 
L 88.493908 92.225965 
L 90.929112 69.152279 
L 93.364317 65.797868 
L 95.799521 46.005595 
L 98.234725 54.369102 
L 100.66993 47.739157 
L 103.105134 42.845567 
L 105.540339 47.467352 
L 107.975543 49.584496 
L 110.410747 40.939247 
L 112.845952 39.934729 
L 115.281156 45.168417 
L 117.716361 44.084492 
L 120.151565 40.546463 
L 122.586769 41.138583 
L 125.021974 40.114607 
L 127.457178 44.710809 
L 129.892383 42.601556 
L 132.327587 44.137453 
L 134.762791 41.373758 
L 137.197996 36.651856 
L 139.6332 36.534223 
L 142.068405 38.666959 
L 144.503609 33.97176 
L 146.938813 36.041711 
L 149.374018 37.235875 
L 151.809222 35.480681 
L 154.244426 41.655863 
L 156.679631 40.214126 
L 159.114835 43.952031 
L 161.55004 38.486393 
L 163.985244 33.663357 
L 166.420448 36.165492 
L 168.855653 31.190068 
L 171.290857 35.90073 
L 173.726062 35.361308 
L 176.161266 37.414951 
L 178.59647 34.438477 
L 181.031675 33.863925 
L 183.466879 31.520089 
L 185.902084 31.941069 
L 188.337288 31.861391 
L 190.772492 34.00792 
L 193.207697 31.370617 
L 195.642901 34.342794 
L 198.078106 33.826618 
L 200.51331 33.504025 
L 202.948514 29.986493 
L 205.383719 31.692172 
L 207.818923 29.365705 
L 210.254128 29.070585 
L 212.689332 31.445526 
L 215.124536 32.105985 
L 217.559741 32.460093 
L 219.994945 30.710264 
L 222.430149 31.690805 
L 224.865354 33.053644 
L 227.300558 31.045132 
L 229.735763 31.898579 
L 232.170967 28.961249 
L 234.606171 29.973794 
L 237.041376 31.03551 
L 239.47658 31.345755 
L 241.911785 30.927596 
L 244.346989 29.180186 
L 246.782193 29.649014 
L 249.217398 29.4114 
L 251.652602 33.00378 
L 254.087807 28.949992 
L 256.523011 31.738352 
L 258.958215 29.268009 
L 261.39342 29.883869 
L 263.828624 28.639176 
L 266.263829 29.115432 
L 268.699033 27.886594 
L 271.134237 29.37279 
L 273.569442 29.649014 
L 276.004646 28.274617 
L 278.439851 29.491643 
L 280.875055 29.28974 
L 283.310259 28.89089 
L 285.745464 28.14077 
L 288.180668 29.908232 
L 290.615872 28.54557 
L 293.051077 29.086398 
L 295.486281 26.772978 
L 297.921486 27.801626 
L 300.35669 27.370225 
L 302.791894 27.805763 
L 305.227099 28.365673 
L 307.662303 28.880001 
L 310.097508 26.794849 
L 312.532712 29.165801 
L 314.967916 27.161029 
L 317.403121 27.997945 
L 319.838325 27.63627 
L 322.27353 28.409611 
L 324.708734 27.666571 
L 327.143938 27.161029 
L 329.579143 26.794849 
L 332.014347 26.772978 
L 334.449552 27.370225 
L 336.884756 27.370225 
L 339.31996 29.473144 
L 341.755165 27.408033 
L 344.190369 27.411302 
L 346.625574 27.023251 
L 349.060778 26.341572 
L 351.495982 26.404409 
L 353.931187 26.341572 
L 356.366391 26.341572 
L 358.801595 27.023251 
L 361.2368 25.809555 
L 363.672004 26.241051 
L 366.107209 26.341572 
L 368.542413 26.41021 
L 370.977617 26.341572 
L 373.412822 26.794849 
L 375.848026 25.576724 
L 378.283231 26.760592 
L 380.718435 26.341572 
L 383.153639 27.058833 
L 385.588844 25.726888 
L 388.024048 25.359063 
L 390.459253 26.404409 
L 392.894457 26.404409 
L 395.329661 26.794849 
L 397.764866 26.760592 
L 400.20007 26.760592 
L 402.635275 26.341572 
L 405.070479 25.576724 
L 407.505683 26.341572 
L 409.940888 26.404409 
L 412.376092 26.241051 
L 414.811297 26.341572 
L 417.246501 26.404409 
L 419.681705 26.404409 
L 422.11691 25.726888 
L 424.552114 26.341572 
L 426.987318 26.241051 
L 429.422523 25.726888 
L 431.857727 26.404409 
L 431.857727 25.114592 
L 431.857727 25.114592 
L 429.422523 24.991238 
L 426.987318 24.677294 
L 424.552114 24.8771 
L 422.11691 24.991238 
L 419.681705 25.114592 
L 417.246501 25.114592 
L 414.811297 24.8771 
L 412.376092 24.677294 
L 409.940888 25.114592 
L 407.505683 24.8771 
L 405.070479 24.841075 
L 402.635275 24.8771 
L 400.20007 24.958626 
L 397.764866 24.958626 
L 395.329661 25.224697 
L 392.894457 25.114592 
L 390.459253 25.114592 
L 388.024048 24.758408 
L 385.588844 24.991238 
L 383.153639 24.660386 
L 380.718435 24.8771 
L 378.283231 24.958626 
L 375.848026 24.841075 
L 373.412822 25.224697 
L 370.977617 24.8771 
L 368.542413 25.409118 
L 366.107209 24.8771 
L 363.672004 24.677294 
L 361.2368 25.208899 
L 358.801595 25.797169 
L 356.366391 24.8771 
L 353.931187 24.8771 
L 351.495982 25.114592 
L 349.060778 24.8771 
L 346.625574 25.797169 
L 344.190369 25.409118 
L 341.755165 25.112059 
L 339.31996 25.549679 
L 336.884756 24.849539 
L 334.449552 24.849539 
L 332.014347 25.546896 
L 329.579143 25.224697 
L 327.143938 25.158845 
L 324.708734 25.153849 
L 322.27353 25.712229 
L 319.838325 25.384369 
L 317.403121 26.224005 
L 314.967916 25.158845 
L 312.532712 26.25746 
L 310.097508 25.224697 
L 307.662303 25.642276 
L 305.227099 25.35573 
L 302.791894 25.715421 
L 300.35669 24.849539 
L 297.921486 26.82076 
L 295.486281 25.546896 
L 293.051077 25.836316 
L 290.615872 24.875505 
L 288.180668 28.618415 
L 285.745464 25.580634 
L 283.310259 25.731496 
L 280.875055 26.13352 
L 278.439851 26.432163 
L 276.004646 27.048534 
L 273.569442 26.775338 
L 271.134237 26.150579 
L 268.699033 25.134045 
L 266.263829 26.908483 
L 263.828624 25.782991 
L 261.39342 26.840812 
L 258.958215 26.055142 
L 256.523011 25.887312 
L 254.087807 26.072831 
L 251.652602 29.527236 
L 249.217398 27.012953 
L 246.782193 26.775338 
L 244.346989 27.244166 
L 241.911785 27.298723 
L 239.47658 27.581328 
L 237.041376 26.690262 
L 234.606171 26.350449 
L 232.170967 24.660045 
L 229.735763 27.228722 
L 227.300558 28.08217 
L 224.865354 28.175951 
L 222.430149 27.937043 
L 219.994945 28.0166 
L 217.559741 28.369066 
L 215.124536 27.321644 
L 212.689332 26.380355 
L 210.254128 27.05344 
L 207.818923 27.158756 
L 205.383719 28.035786 
L 202.948514 27.839389 
L 200.51331 28.126007 
L 198.078106 29.905708 
L 195.642901 29.089205 
L 193.207697 26.855702 
L 190.772492 29.524188 
L 188.337288 27.666348 
L 185.902084 28.387544 
L 183.466879 28.608305 
L 181.031675 30.469056 
L 178.59647 31.596362 
L 176.161266 31.222728 
L 173.726062 30.172984 
L 171.290857 29.233125 
L 168.855653 29.438872 
L 166.420448 30.570111 
L 163.985244 29.468314 
L 161.55004 33.855327 
L 159.114835 32.894605 
L 156.679631 36.632509 
L 154.244426 33.088478 
L 151.809222 29.553065 
L 149.374018 31.80224 
L 146.938813 30.89411 
L 144.503609 28.659364 
L 142.068405 31.872794 
L 139.6332 31.5028 
L 137.197996 32.186041 
L 134.762791 31.468508 
L 132.327587 32.408855 
L 129.892383 34.545407 
L 127.457178 35.038994 
L 125.021974 31.826676 
L 122.586769 34.006196 
L 120.151565 36.800719 
L 117.716361 33.563017 
L 115.281156 35.38226 
L 112.845952 35.310159 
L 110.410747 37.509136 
L 107.975543 39.575575 
L 105.540339 38.789551 
L 103.105134 35.502707 
L 100.66993 43.322989 
L 98.234725 44.201236 
L 95.799521 40.351417 
L 93.364317 43.684376 
L 90.929112 57.648862 
L 88.493908 60.00292 
L 86.058703 77.163722 
L 83.623499 86.397828 
L 81.188295 107.35705 
L 78.75309 123.893488 
L 76.317886 177.094663 
L 73.882682 186.045503 
L 71.447477 251.911023 
L 69.012273 282.518824 
z
" style="fill:#ff7f0e;fill-opacity:0.25;"/>
   </g>
   <g id="PolyCollection_3">
    <path clip-path="url(#p6d4d01c3bc)" d="M 69.012273 278.826006 
L 69.012273 282.349083 
L 71.447477 257.470559 
L 73.882682 189.465364 
L 76.317886 171.467314 
L 78.75309 137.070397 
L 81.188295 115.929221 
L 83.623499 102.534118 
L 86.058703 82.298418 
L 88.493908 92.98952 
L 90.929112 72.007054 
L 93.364317 57.016819 
L 95.799521 48.139253 
L 98.234725 56.869084 
L 100.66993 52.429899 
L 103.105134 43.255139 
L 105.540339 49.080119 
L 107.975543 51.900988 
L 110.410747 40.674384 
L 112.845952 40.873082 
L 115.281156 44.413405 
L 117.716361 48.084044 
L 120.151565 41.978058 
L 122.586769 45.437108 
L 125.021974 37.978313 
L 127.457178 41.698536 
L 129.892383 37.422225 
L 132.327587 39.561179 
L 134.762791 39.589707 
L 137.197996 37.561551 
L 139.6332 40.746727 
L 142.068405 35.960467 
L 144.503609 38.160833 
L 146.938813 36.277544 
L 149.374018 39.234605 
L 151.809222 35.437596 
L 154.244426 34.843227 
L 156.679631 41.489541 
L 159.114835 40.031102 
L 161.55004 35.446268 
L 163.985244 32.900558 
L 166.420448 32.91528 
L 168.855653 36.267056 
L 171.290857 35.594071 
L 173.726062 37.404009 
L 176.161266 34.758927 
L 178.59647 35.147814 
L 181.031675 33.304108 
L 183.466879 33.846943 
L 185.902084 35.116298 
L 188.337288 31.390504 
L 190.772492 35.049654 
L 193.207697 31.556659 
L 195.642901 30.326378 
L 198.078106 33.530946 
L 200.51331 33.128071 
L 202.948514 31.419243 
L 205.383719 31.280167 
L 207.818923 30.80247 
L 210.254128 31.986888 
L 212.689332 30.59656 
L 215.124536 31.685473 
L 217.559741 31.580788 
L 219.994945 32.027483 
L 222.430149 31.232822 
L 224.865354 31.092577 
L 227.300558 31.547882 
L 229.735763 30.320412 
L 232.170967 29.973794 
L 234.606171 31.932811 
L 237.041376 31.462459 
L 239.47658 31.053132 
L 241.911785 30.334957 
L 244.346989 30.59555 
L 246.782193 30.353715 
L 249.217398 28.409611 
L 251.652602 31.94362 
L 254.087807 30.116524 
L 256.523011 27.761685 
L 258.958215 29.434996 
L 261.39342 27.091616 
L 263.828624 29.052992 
L 266.263829 29.169687 
L 268.699033 29.782722 
L 271.134237 29.926504 
L 273.569442 27.596919 
L 276.004646 28.409611 
L 278.439851 29.216475 
L 280.875055 29.491643 
L 283.310259 28.949992 
L 285.745464 28.106613 
L 288.180668 29.253673 
L 290.615872 29.241971 
L 293.051077 27.023251 
L 295.486281 30.162559 
L 297.921486 27.240098 
L 300.35669 27.997945 
L 302.791894 28.387112 
L 305.227099 26.760592 
L 307.662303 28.568437 
L 310.097508 28.767463 
L 312.532712 28.365673 
L 314.967916 27.408033 
L 317.403121 27.408033 
L 319.838325 27.975736 
L 322.27353 26.404409 
L 324.708734 27.913412 
L 327.143938 27.63627 
L 329.579143 26.241051 
L 332.014347 27.124542 
L 334.449552 26.794849 
L 336.884756 26.41021 
L 339.31996 26.772978 
L 341.755165 26.772978 
L 344.190369 26.341572 
L 346.625574 27.306551 
L 349.060778 26.404409 
L 351.495982 25.576724 
L 353.931187 26.794849 
L 356.366391 26.794849 
L 358.801595 26.404409 
L 361.2368 27.090749 
L 363.672004 25.809555 
L 366.107209 25.576724 
L 368.542413 25.726888 
L 370.977617 27.091616 
L 373.412822 26.710538 
L 375.848026 26.241051 
L 378.283231 26.690312 
L 380.718435 27.511412 
L 383.153639 26.341572 
L 385.588844 26.241051 
L 388.024048 27.370225 
L 390.459253 28.008747 
L 392.894457 26.241051 
L 395.329661 25.576724 
L 397.764866 25.726888 
L 400.20007 25.359063 
L 402.635275 26.241051 
L 405.070479 26.109882 
L 407.505683 24.908572 
L 409.940888 25.359063 
L 412.376092 24.908572 
L 414.811297 25.359063 
L 417.246501 25.359063 
L 419.681705 25.359063 
L 422.11691 25.359063 
L 424.552114 25.359063 
L 426.987318 25.359063 
L 429.422523 25.359063 
L 431.857727 25.359063 
L 431.857727 24.758408 
L 431.857727 24.758408 
L 429.422523 24.758408 
L 426.987318 24.758408 
L 424.552114 24.758408 
L 422.11691 24.758408 
L 419.681705 24.758408 
L 417.246501 24.758408 
L 414.811297 24.758408 
L 412.376092 24.908572 
L 409.940888 24.758408 
L 407.505683 24.908572 
L 405.070479 24.508135 
L 402.635275 24.677294 
L 400.20007 24.758408 
L 397.764866 24.991238 
L 395.329661 24.841075 
L 392.894457 24.677294 
L 390.459253 24.110909 
L 388.024048 24.849539 
L 385.588844 24.677294 
L 383.153639 24.8771 
L 380.718435 25.10879 
L 378.283231 24.728579 
L 375.848026 24.677294 
L 373.412822 24.307916 
L 370.977617 25.428477 
L 368.542413 24.991238 
L 366.107209 24.841075 
L 363.672004 25.208899 
L 361.2368 25.129016 
L 358.801595 25.114592 
L 356.366391 25.224697 
L 353.931187 25.224697 
L 351.495982 24.841075 
L 349.060778 25.114592 
L 346.625574 24.612887 
L 344.190369 24.8771 
L 341.755165 25.546896 
L 339.31996 25.546896 
L 336.884756 25.409118 
L 334.449552 25.224697 
L 332.014347 24.895004 
L 329.579143 24.677294 
L 327.143938 25.384369 
L 324.708734 24.70679 
L 322.27353 25.114592 
L 319.838325 25.245121 
L 317.403121 25.112059 
L 314.967916 25.112059 
L 312.532712 25.35573 
L 310.097508 25.554596 
L 307.662303 25.152966 
L 305.227099 24.958626 
L 302.791894 25.934947 
L 300.35669 26.224005 
L 297.921486 24.879557 
L 295.486281 25.861356 
L 293.051077 25.797169 
L 290.615872 26.681835 
L 288.180668 25.368713 
L 285.745464 25.815008 
L 283.310259 26.072831 
L 280.875055 26.432163 
L 278.439851 25.305803 
L 276.004646 25.712229 
L 273.569442 25.724047 
L 271.134237 26.29763 
L 268.699033 26.441412 
L 266.263829 26.453792 
L 263.828624 28.072125 
L 261.39342 25.428477 
L 258.958215 24.987171 
L 256.523011 24.958626 
L 254.087807 27.909576 
L 251.652602 27.984556 
L 249.217398 25.712229 
L 246.782193 28.973805 
L 244.346989 27.230331 
L 241.911785 26.890269 
L 239.47658 27.974061 
L 237.041376 26.863968 
L 234.606171 28.896348 
L 232.170967 26.350449 
L 229.735763 28.206234 
L 227.300558 27.379201 
L 224.865354 26.933523 
L 222.430149 29.1959 
L 219.994945 27.300037 
L 217.559741 28.04706 
L 215.124536 28.843358 
L 212.689332 27.729868 
L 210.254128 28.441834 
L 207.818923 26.02232 
L 205.383719 27.847135 
L 202.948514 27.908277 
L 200.51331 28.602071 
L 198.078106 28.499523 
L 195.642901 28.00005 
L 193.207697 27.470534 
L 190.772492 29.183219 
L 188.337288 26.935924 
L 185.902084 30.718322 
L 183.466879 28.483854 
L 181.031675 29.827563 
L 178.59647 32.088335 
L 176.161266 30.675256 
L 173.726062 30.132468 
L 171.290857 30.741096 
L 168.855653 29.867891 
L 166.420448 29.215299 
L 163.985244 28.729474 
L 161.55004 31.789882 
L 159.114835 31.309525 
L 156.679631 31.953381 
L 154.244426 30.09041 
L 151.809222 29.996588 
L 149.374018 32.005914 
L 146.938813 32.460244 
L 144.503609 30.376737 
L 142.068405 32.276774 
L 139.6332 30.894229 
L 137.197996 30.175145 
L 134.762791 32.952231 
L 132.327587 32.279995 
L 129.892383 34.418948 
L 127.457178 35.548536 
L 125.021974 33.862861 
L 122.586769 34.012368 
L 120.151565 36.169997 
L 117.716361 34.568927 
L 115.281156 38.039347 
L 112.845952 36.574209 
L 110.410747 37.073234 
L 107.975543 41.46367 
L 105.540339 37.67733 
L 103.105134 37.195429 
L 100.66993 38.632247 
L 98.234725 42.2018 
L 95.799521 39.218852 
L 93.364317 51.063896 
L 90.929112 54.794087 
L 88.493908 62.943407 
L 86.058703 75.836912 
L 83.623499 86.134527 
L 81.188295 99.368479 
L 78.75309 119.772634 
L 76.317886 160.757966 
L 73.882682 171.891703 
L 71.447477 239.234186 
L 69.012273 278.826006 
z
" style="fill:#2ca02c;fill-opacity:0.25;"/>
   </g>
   <g id="PolyCollection_4">
    <path clip-path="url(#p6d4d01c3bc)" d="M 69.012273 280.806866 
L 69.012273 290.329091 
L 71.447477 275.255534 
L 73.882682 212.117434 
L 76.317886 200.80885 
L 78.75309 139.582612 
L 81.188295 111.592115 
L 83.623499 86.754506 
L 86.058703 87.912259 
L 88.493908 68.537394 
L 90.929112 60.751056 
L 93.364317 51.834901 
L 95.799521 52.36437 
L 98.234725 58.716777 
L 100.66993 49.180886 
L 103.105134 45.913881 
L 105.540339 51.610961 
L 107.975543 45.569503 
L 110.410747 43.535067 
L 112.845952 39.622174 
L 115.281156 44.72917 
L 117.716361 41.123262 
L 120.151565 45.413223 
L 122.586769 38.928859 
L 125.021974 39.962152 
L 127.457178 37.76559 
L 129.892383 41.028243 
L 132.327587 39.673014 
L 134.762791 36.407186 
L 137.197996 37.044709 
L 139.6332 36.112922 
L 142.068405 34.760364 
L 144.503609 36.627686 
L 146.938813 38.539437 
L 149.374018 36.036288 
L 151.809222 36.493996 
L 154.244426 35.823479 
L 156.679631 36.484209 
L 159.114835 46.725794 
L 161.55004 35.279083 
L 163.985244 35.354188 
L 166.420448 35.687595 
L 168.855653 33.15499 
L 171.290857 33.839803 
L 173.726062 34.772239 
L 176.161266 36.298414 
L 178.59647 35.112344 
L 181.031675 41.463411 
L 183.466879 33.571771 
L 185.902084 31.866163 
L 188.337288 32.220854 
L 190.772492 32.055442 
L 193.207697 31.152806 
L 195.642901 36.319156 
L 198.078106 34.068566 
L 200.51331 30.528487 
L 202.948514 29.908232 
L 205.383719 31.72195 
L 207.818923 31.190068 
L 210.254128 33.111815 
L 212.689332 32.057139 
L 215.124536 33.000342 
L 217.559741 32.339176 
L 219.994945 30.565501 
L 222.430149 32.050584 
L 224.865354 32.887309 
L 227.300558 31.434355 
L 229.735763 32.547956 
L 232.170967 28.748651 
L 234.606171 32.274278 
L 237.041376 34.97829 
L 239.47658 31.509683 
L 241.911785 32.005735 
L 244.346989 30.732719 
L 246.782193 29.477076 
L 249.217398 29.270107 
L 251.652602 30.181519 
L 254.087807 30.87731 
L 256.523011 29.4114 
L 258.958215 29.169687 
L 261.39342 30.475981 
L 263.828624 27.956889 
L 266.263829 33.310729 
L 268.699033 28.742915 
L 271.134237 28.353373 
L 273.569442 28.494512 
L 276.004646 28.365673 
L 278.439851 28.712722 
L 280.875055 28.821145 
L 283.310259 28.526302 
L 285.745464 28.770203 
L 288.180668 28.560471 
L 290.615872 28.412395 
L 293.051077 29.280322 
L 295.486281 29.116209 
L 297.921486 29.356361 
L 300.35669 27.927229 
L 302.791894 26.341572 
L 305.227099 27.411302 
L 307.662303 26.760592 
L 310.097508 28.77773 
L 312.532712 27.411302 
L 314.967916 27.970881 
L 317.403121 28.949992 
L 319.838325 28.560471 
L 322.27353 27.311193 
L 324.708734 26.772978 
L 327.143938 28.558979 
L 329.579143 29.202111 
L 332.014347 28.156068 
L 334.449552 26.794849 
L 336.884756 26.341572 
L 339.31996 27.161029 
L 341.755165 27.411302 
L 344.190369 25.576724 
L 346.625574 25.809555 
L 349.060778 25.576724 
L 351.495982 27.596919 
L 353.931187 26.794849 
L 356.366391 27.63627 
L 358.801595 26.341572 
L 361.2368 26.772978 
L 363.672004 26.760592 
L 366.107209 26.241051 
L 368.542413 26.404409 
L 370.977617 26.772978 
L 373.412822 26.109882 
L 375.848026 25.726888 
L 378.283231 26.341572 
L 380.718435 26.241051 
L 383.153639 25.726888 
L 385.588844 25.809555 
L 388.024048 25.809555 
L 390.459253 26.794849 
L 392.894457 27.161029 
L 395.329661 25.809555 
L 397.764866 26.760592 
L 400.20007 26.794849 
L 402.635275 27.010865 
L 405.070479 25.659391 
L 407.505683 25.659391 
L 409.940888 26.41021 
L 412.376092 25.726888 
L 414.811297 27.010865 
L 417.246501 26.404409 
L 419.681705 27.274937 
L 422.11691 26.41021 
L 424.552114 26.404409 
L 426.987318 26.41021 
L 429.422523 27.274937 
L 431.857727 27.010865 
L 431.857727 25.208899 
L 431.857727 25.208899 
L 429.422523 25.445374 
L 426.987318 25.409118 
L 424.552114 25.114592 
L 422.11691 25.409118 
L 419.681705 25.445374 
L 417.246501 25.114592 
L 414.811297 25.208899 
L 412.376092 24.991238 
L 409.940888 25.409118 
L 407.505683 25.659391 
L 405.070479 25.659391 
L 402.635275 25.208899 
L 400.20007 25.224697 
L 397.764866 24.958626 
L 395.329661 25.208899 
L 392.894457 25.158845 
L 390.459253 25.224697 
L 388.024048 25.208899 
L 385.588844 25.208899 
L 383.153639 24.991238 
L 380.718435 24.677294 
L 378.283231 24.8771 
L 375.848026 24.991238 
L 373.412822 24.508135 
L 370.977617 25.546896 
L 368.542413 25.114592 
L 366.107209 24.677294 
L 363.672004 24.958626 
L 361.2368 25.546896 
L 358.801595 24.8771 
L 356.366391 25.384369 
L 353.931187 25.224697 
L 351.495982 25.724047 
L 349.060778 24.841075 
L 346.625574 25.208899 
L 344.190369 24.841075 
L 341.755165 25.409118 
L 339.31996 26.159937 
L 336.884756 24.8771 
L 334.449552 25.224697 
L 332.014347 25.265008 
L 329.579143 25.620494 
L 327.143938 25.76308 
L 324.708734 25.546896 
L 322.27353 25.709445 
L 319.838325 26.162024 
L 317.403121 26.072831 
L 314.967916 25.450195 
L 312.532712 25.409118 
L 310.097508 25.244001 
L 307.662303 24.958626 
L 305.227099 25.409118 
L 302.791894 24.8771 
L 300.35669 25.794174 
L 297.921486 25.466244 
L 295.486281 25.005631 
L 293.051077 24.841519 
L 290.615872 26.41021 
L 288.180668 26.162024 
L 285.745464 25.05131 
L 283.310259 26.696739 
L 280.875055 26.401896 
L 278.439851 25.509227 
L 276.004646 25.35573 
L 273.569442 25.727438 
L 271.134237 25.568249 
L 268.699033 24.978488 
L 266.263829 28.319303 
L 263.828624 24.96364 
L 261.39342 26.048481 
L 258.958215 26.453792 
L 256.523011 27.012953 
L 254.087807 25.747261 
L 251.652602 27.544253 
L 249.217398 28.155338 
L 246.782193 25.946185 
L 244.346989 25.791743 
L 241.911785 27.522004 
L 239.47658 27.817837 
L 237.041376 30.95644 
L 234.606171 29.656082 
L 232.170967 27.875919 
L 229.735763 27.680547 
L 227.300558 27.392619 
L 224.865354 29.743816 
L 222.430149 30.480432 
L 219.994945 27.26038 
L 217.559741 30.09173 
L 215.124536 28.029035 
L 212.689332 28.271474 
L 210.254128 27.417016 
L 207.818923 29.438872 
L 205.383719 27.505461 
L 202.948514 28.618415 
L 200.51331 28.698924 
L 198.078106 31.465726 
L 195.642901 29.615574 
L 193.207697 29.175807 
L 190.772492 28.173062 
L 188.337288 29.309069 
L 185.902084 29.263323 
L 183.466879 29.5599 
L 181.031675 30.878309 
L 178.59647 28.319654 
L 176.161266 30.33708 
L 173.726062 30.461726 
L 171.290857 29.391978 
L 168.855653 31.177991 
L 166.420448 29.145933 
L 163.985244 33.784036 
L 161.55004 29.554445 
L 159.114835 35.326521 
L 156.679631 31.853142 
L 154.244426 30.812015 
L 151.809222 29.440734 
L 149.374018 31.199862 
L 146.938813 30.698897 
L 144.503609 29.106824 
L 142.068405 31.975239 
L 139.6332 32.624866 
L 137.197996 31.993407 
L 134.762791 31.930165 
L 132.327587 32.16816 
L 129.892383 33.816208 
L 127.457178 32.774164 
L 125.021974 35.883391 
L 122.586769 36.416138 
L 120.151565 37.239748 
L 117.716361 36.12381 
L 115.281156 37.423254 
L 112.845952 34.521513 
L 110.410747 35.013425 
L 107.975543 35.882157 
L 105.540339 42.654681 
L 103.105134 38.541056 
L 100.66993 43.18268 
L 98.234725 44.959132 
L 95.799521 41.200507 
L 93.364317 43.632051 
L 90.929112 53.336212 
L 88.493908 57.362764 
L 86.058703 66.318811 
L 83.623499 76.786723 
L 81.188295 86.887234 
L 78.75309 102.544362 
L 76.317886 115.699282 
L 73.882682 142.432205 
L 71.447477 241.17073 
L 69.012273 280.806866 
z
" style="fill:#d62728;fill-opacity:0.25;"/>
   </g>
   <g id="matplotlib.axis_1">
    <g id="xtick_1">
     <g id="line2d_1">
      <defs>
       <path d="M 0 0 
L 0 3.5 
" id="m606d2c9ea2" style="stroke:#000000;stroke-width:0.8;"/>
      </defs>
      <g>
       <use style="stroke:#000000;stroke-width:0.8;" x="69.012273" xlink:href="#m606d2c9ea2" y="303.64"/>
      </g>
     </g>
     <g id="text_1">
      <!-- 0 -->
      <g transform="translate(65.831023 318.238437)scale(0.1 -0.1)">
       <defs>
        <path d="M 31.78125 66.40625 
Q 24.171875 66.40625 20.328125 58.90625 
Q 16.5 51.421875 16.5 36.375 
Q 16.5 21.390625 20.328125 13.890625 
Q 24.171875 6.390625 31.78125 6.390625 
Q 39.453125 6.390625 43.28125 13.890625 
Q 47.125 21.390625 47.125 36.375 
Q 47.125 51.421875 43.28125 58.90625 
Q 39.453125 66.40625 31.78125 66.40625 
z
M 31.78125 74.21875 
Q 44.046875 74.21875 50.515625 64.515625 
Q 56.984375 54.828125 56.984375 36.375 
Q 56.984375 17.96875 50.515625 8.265625 
Q 44.046875 -1.421875 31.78125 -1.421875 
Q 19.53125 -1.421875 13.0625 8.265625 
Q 6.59375 17.96875 6.59375 36.375 
Q 6.59375 54.828125 13.0625 64.515625 
Q 19.53125 74.21875 31.78125 74.21875 
z
" id="DejaVuSans-48"/>
       </defs>
       <use xlink:href="#DejaVuSans-48"/>
      </g>
     </g>
    </g>
    <g id="xtick_2">
     <g id="line2d_2">
      <g>
       <use style="stroke:#000000;stroke-width:0.8;" x="117.716361" xlink:href="#m606d2c9ea2" y="303.64"/>
      </g>
     </g>
     <g id="text_2">
      <!-- 20 -->
      <g transform="translate(111.353861 318.238437)scale(0.1 -0.1)">
       <defs>
        <path d="M 19.1875 8.296875 
L 53.609375 8.296875 
L 53.609375 0 
L 7.328125 0 
L 7.328125 8.296875 
Q 12.9375 14.109375 22.625 23.890625 
Q 32.328125 33.6875 34.8125 36.53125 
Q 39.546875 41.84375 41.421875 45.53125 
Q 43.3125 49.21875 43.3125 52.78125 
Q 43.3125 58.59375 39.234375 62.25 
Q 35.15625 65.921875 28.609375 65.921875 
Q 23.96875 65.921875 18.8125 64.3125 
Q 13.671875 62.703125 7.8125 59.421875 
L 7.8125 69.390625 
Q 13.765625 71.78125 18.9375 73 
Q 24.125 74.21875 28.421875 74.21875 
Q 39.75 74.21875 46.484375 68.546875 
Q 53.21875 62.890625 53.21875 53.421875 
Q 53.21875 48.921875 51.53125 44.890625 
Q 49.859375 40.875 45.40625 35.40625 
Q 44.1875 33.984375 37.640625 27.21875 
Q 31.109375 20.453125 19.1875 8.296875 
z
" id="DejaVuSans-50"/>
       </defs>
       <use xlink:href="#DejaVuSans-50"/>
       <use x="63.623047" xlink:href="#DejaVuSans-48"/>
      </g>
     </g>
    </g>
    <g id="xtick_3">
     <g id="line2d_3">
      <g>
       <use style="stroke:#000000;stroke-width:0.8;" x="166.420448" xlink:href="#m606d2c9ea2" y="303.64"/>
      </g>
     </g>
     <g id="text_3">
      <!-- 40 -->
      <g transform="translate(160.057948 318.238437)scale(0.1 -0.1)">
       <defs>
        <path d="M 37.796875 64.3125 
L 12.890625 25.390625 
L 37.796875 25.390625 
z
M 35.203125 72.90625 
L 47.609375 72.90625 
L 47.609375 25.390625 
L 58.015625 25.390625 
L 58.015625 17.1875 
L 47.609375 17.1875 
L 47.609375 0 
L 37.796875 0 
L 37.796875 17.1875 
L 4.890625 17.1875 
L 4.890625 26.703125 
z
" id="DejaVuSans-52"/>
       </defs>
       <use xlink:href="#DejaVuSans-52"/>
       <use x="63.623047" xlink:href="#DejaVuSans-48"/>
      </g>
     </g>
    </g>
    <g id="xtick_4">
     <g id="line2d_4">
      <g>
       <use style="stroke:#000000;stroke-width:0.8;" x="215.124536" xlink:href="#m606d2c9ea2" y="303.64"/>
      </g>
     </g>
     <g id="text_4">
      <!-- 60 -->
      <g transform="translate(208.762036 318.238437)scale(0.1 -0.1)">
       <defs>
        <path d="M 33.015625 40.375 
Q 26.375 40.375 22.484375 35.828125 
Q 18.609375 31.296875 18.609375 23.390625 
Q 18.609375 15.53125 22.484375 10.953125 
Q 26.375 6.390625 33.015625 6.390625 
Q 39.65625 6.390625 43.53125 10.953125 
Q 47.40625 15.53125 47.40625 23.390625 
Q 47.40625 31.296875 43.53125 35.828125 
Q 39.65625 40.375 33.015625 40.375 
z
M 52.59375 71.296875 
L 52.59375 62.3125 
Q 48.875 64.0625 45.09375 64.984375 
Q 41.3125 65.921875 37.59375 65.921875 
Q 27.828125 65.921875 22.671875 59.328125 
Q 17.53125 52.734375 16.796875 39.40625 
Q 19.671875 43.65625 24.015625 45.921875 
Q 28.375 48.1875 33.59375 48.1875 
Q 44.578125 48.1875 50.953125 41.515625 
Q 57.328125 34.859375 57.328125 23.390625 
Q 57.328125 12.15625 50.6875 5.359375 
Q 44.046875 -1.421875 33.015625 -1.421875 
Q 20.359375 -1.421875 13.671875 8.265625 
Q 6.984375 17.96875 6.984375 36.375 
Q 6.984375 53.65625 15.1875 63.9375 
Q 23.390625 74.21875 37.203125 74.21875 
Q 40.921875 74.21875 44.703125 73.484375 
Q 48.484375 72.75 52.59375 71.296875 
z
" id="DejaVuSans-54"/>
       </defs>
       <use xlink:href="#DejaVuSans-54"/>
       <use x="63.623047" xlink:href="#DejaVuSans-48"/>
      </g>
     </g>
    </g>
    <g id="xtick_5">
     <g id="line2d_5">
      <g>
       <use style="stroke:#000000;stroke-width:0.8;" x="263.828624" xlink:href="#m606d2c9ea2" y="303.64"/>
      </g>
     </g>
     <g id="text_5">
      <!-- 80 -->
      <g transform="translate(257.466124 318.238437)scale(0.1 -0.1)">
       <defs>
        <path d="M 31.78125 34.625 
Q 24.75 34.625 20.71875 30.859375 
Q 16.703125 27.09375 16.703125 20.515625 
Q 16.703125 13.921875 20.71875 10.15625 
Q 24.75 6.390625 31.78125 6.390625 
Q 38.8125 6.390625 42.859375 10.171875 
Q 46.921875 13.96875 46.921875 20.515625 
Q 46.921875 27.09375 42.890625 30.859375 
Q 38.875 34.625 31.78125 34.625 
z
M 21.921875 38.8125 
Q 15.578125 40.375 12.03125 44.71875 
Q 8.5 49.078125 8.5 55.328125 
Q 8.5 64.0625 14.71875 69.140625 
Q 20.953125 74.21875 31.78125 74.21875 
Q 42.671875 74.21875 48.875 69.140625 
Q 55.078125 64.0625 55.078125 55.328125 
Q 55.078125 49.078125 51.53125 44.71875 
Q 48 40.375 41.703125 38.8125 
Q 48.828125 37.15625 52.796875 32.3125 
Q 56.78125 27.484375 56.78125 20.515625 
Q 56.78125 9.90625 50.3125 4.234375 
Q 43.84375 -1.421875 31.78125 -1.421875 
Q 19.734375 -1.421875 13.25 4.234375 
Q 6.78125 9.90625 6.78125 20.515625 
Q 6.78125 27.484375 10.78125 32.3125 
Q 14.796875 37.15625 21.921875 38.8125 
z
M 18.3125 54.390625 
Q 18.3125 48.734375 21.84375 45.5625 
Q 25.390625 42.390625 31.78125 42.390625 
Q 38.140625 42.390625 41.71875 45.5625 
Q 45.3125 48.734375 45.3125 54.390625 
Q 45.3125 60.0625 41.71875 63.234375 
Q 38.140625 66.40625 31.78125 66.40625 
Q 25.390625 66.40625 21.84375 63.234375 
Q 18.3125 60.0625 18.3125 54.390625 
z
" id="DejaVuSans-56"/>
       </defs>
       <use xlink:href="#DejaVuSans-56"/>
       <use x="63.623047" xlink:href="#DejaVuSans-48"/>
      </g>
     </g>
    </g>
    <g id="xtick_6">
     <g id="line2d_6">
      <g>
       <use style="stroke:#000000;stroke-width:0.8;" x="312.532712" xlink:href="#m606d2c9ea2" y="303.64"/>
      </g>
     </g>
     <g id="text_6">
      <!-- 100 -->
      <g transform="translate(302.988962 318.238437)scale(0.1 -0.1)">
       <defs>
        <path d="M 12.40625 8.296875 
L 28.515625 8.296875 
L 28.515625 63.921875 
L 10.984375 60.40625 
L 10.984375 69.390625 
L 28.421875 72.90625 
L 38.28125 72.90625 
L 38.28125 8.296875 
L 54.390625 8.296875 
L 54.390625 0 
L 12.40625 0 
z
" id="DejaVuSans-49"/>
       </defs>
       <use xlink:href="#DejaVuSans-49"/>
       <use x="63.623047" xlink:href="#DejaVuSans-48"/>
       <use x="127.246094" xlink:href="#DejaVuSans-48"/>
      </g>
     </g>
    </g>
    <g id="xtick_7">
     <g id="line2d_7">
      <g>
       <use style="stroke:#000000;stroke-width:0.8;" x="361.2368" xlink:href="#m606d2c9ea2" y="303.64"/>
      </g>
     </g>
     <g id="text_7">
      <!-- 120 -->
      <g transform="translate(351.69305 318.238437)scale(0.1 -0.1)">
       <use xlink:href="#DejaVuSans-49"/>
       <use x="63.623047" xlink:href="#DejaVuSans-50"/>
       <use x="127.246094" xlink:href="#DejaVuSans-48"/>
      </g>
     </g>
    </g>
    <g id="xtick_8">
     <g id="line2d_8">
      <g>
       <use style="stroke:#000000;stroke-width:0.8;" x="409.940888" xlink:href="#m606d2c9ea2" y="303.64"/>
      </g>
     </g>
     <g id="text_8">
      <!-- 140 -->
      <g transform="translate(400.397138 318.238437)scale(0.1 -0.1)">
       <use xlink:href="#DejaVuSans-49"/>
       <use x="63.623047" xlink:href="#DejaVuSans-52"/>
       <use x="127.246094" xlink:href="#DejaVuSans-48"/>
      </g>
     </g>
    </g>
    <g id="text_9">
     <!-- Epochs -->
     <g transform="translate(232.519375 331.916562)scale(0.1 -0.1)">
      <defs>
       <path d="M 9.8125 72.90625 
L 55.90625 72.90625 
L 55.90625 64.59375 
L 19.671875 64.59375 
L 19.671875 43.015625 
L 54.390625 43.015625 
L 54.390625 34.71875 
L 19.671875 34.71875 
L 19.671875 8.296875 
L 56.78125 8.296875 
L 56.78125 0 
L 9.8125 0 
z
" id="DejaVuSans-69"/>
       <path d="M 18.109375 8.203125 
L 18.109375 -20.796875 
L 9.078125 -20.796875 
L 9.078125 54.6875 
L 18.109375 54.6875 
L 18.109375 46.390625 
Q 20.953125 51.265625 25.265625 53.625 
Q 29.59375 56 35.59375 56 
Q 45.5625 56 51.78125 48.09375 
Q 58.015625 40.1875 58.015625 27.296875 
Q 58.015625 14.40625 51.78125 6.484375 
Q 45.5625 -1.421875 35.59375 -1.421875 
Q 29.59375 -1.421875 25.265625 0.953125 
Q 20.953125 3.328125 18.109375 8.203125 
z
M 48.6875 27.296875 
Q 48.6875 37.203125 44.609375 42.84375 
Q 40.53125 48.484375 33.40625 48.484375 
Q 26.265625 48.484375 22.1875 42.84375 
Q 18.109375 37.203125 18.109375 27.296875 
Q 18.109375 17.390625 22.1875 11.75 
Q 26.265625 6.109375 33.40625 6.109375 
Q 40.53125 6.109375 44.609375 11.75 
Q 48.6875 17.390625 48.6875 27.296875 
z
" id="DejaVuSans-112"/>
       <path d="M 30.609375 48.390625 
Q 23.390625 48.390625 19.1875 42.75 
Q 14.984375 37.109375 14.984375 27.296875 
Q 14.984375 17.484375 19.15625 11.84375 
Q 23.34375 6.203125 30.609375 6.203125 
Q 37.796875 6.203125 41.984375 11.859375 
Q 46.1875 17.53125 46.1875 27.296875 
Q 46.1875 37.015625 41.984375 42.703125 
Q 37.796875 48.390625 30.609375 48.390625 
z
M 30.609375 56 
Q 42.328125 56 49.015625 48.375 
Q 55.71875 40.765625 55.71875 27.296875 
Q 55.71875 13.875 49.015625 6.21875 
Q 42.328125 -1.421875 30.609375 -1.421875 
Q 18.84375 -1.421875 12.171875 6.21875 
Q 5.515625 13.875 5.515625 27.296875 
Q 5.515625 40.765625 12.171875 48.375 
Q 18.84375 56 30.609375 56 
z
" id="DejaVuSans-111"/>
       <path d="M 48.78125 52.59375 
L 48.78125 44.1875 
Q 44.96875 46.296875 41.140625 47.34375 
Q 37.3125 48.390625 33.40625 48.390625 
Q 24.65625 48.390625 19.8125 42.84375 
Q 14.984375 37.3125 14.984375 27.296875 
Q 14.984375 17.28125 19.8125 11.734375 
Q 24.65625 6.203125 33.40625 6.203125 
Q 37.3125 6.203125 41.140625 7.25 
Q 44.96875 8.296875 48.78125 10.40625 
L 48.78125 2.09375 
Q 45.015625 0.34375 40.984375 -0.53125 
Q 36.96875 -1.421875 32.421875 -1.421875 
Q 20.0625 -1.421875 12.78125 6.34375 
Q 5.515625 14.109375 5.515625 27.296875 
Q 5.515625 40.671875 12.859375 48.328125 
Q 20.21875 56 33.015625 56 
Q 37.15625 56 41.109375 55.140625 
Q 45.0625 54.296875 48.78125 52.59375 
z
" id="DejaVuSans-99"/>
       <path d="M 54.890625 33.015625 
L 54.890625 0 
L 45.90625 0 
L 45.90625 32.71875 
Q 45.90625 40.484375 42.875 44.328125 
Q 39.84375 48.1875 33.796875 48.1875 
Q 26.515625 48.1875 22.3125 43.546875 
Q 18.109375 38.921875 18.109375 30.90625 
L 18.109375 0 
L 9.078125 0 
L 9.078125 75.984375 
L 18.109375 75.984375 
L 18.109375 46.1875 
Q 21.34375 51.125 25.703125 53.5625 
Q 30.078125 56 35.796875 56 
Q 45.21875 56 50.046875 50.171875 
Q 54.890625 44.34375 54.890625 33.015625 
z
" id="DejaVuSans-104"/>
       <path d="M 44.28125 53.078125 
L 44.28125 44.578125 
Q 40.484375 46.53125 36.375 47.5 
Q 32.28125 48.484375 27.875 48.484375 
Q 21.1875 48.484375 17.84375 46.4375 
Q 14.5 44.390625 14.5 40.28125 
Q 14.5 37.15625 16.890625 35.375 
Q 19.28125 33.59375 26.515625 31.984375 
L 29.59375 31.296875 
Q 39.15625 29.25 43.1875 25.515625 
Q 47.21875 21.78125 47.21875 15.09375 
Q 47.21875 7.46875 41.1875 3.015625 
Q 35.15625 -1.421875 24.609375 -1.421875 
Q 20.21875 -1.421875 15.453125 -0.5625 
Q 10.6875 0.296875 5.421875 2 
L 5.421875 11.28125 
Q 10.40625 8.6875 15.234375 7.390625 
Q 20.0625 6.109375 24.8125 6.109375 
Q 31.15625 6.109375 34.5625 8.28125 
Q 37.984375 10.453125 37.984375 14.40625 
Q 37.984375 18.0625 35.515625 20.015625 
Q 33.0625 21.96875 24.703125 23.78125 
L 21.578125 24.515625 
Q 13.234375 26.265625 9.515625 29.90625 
Q 5.8125 33.546875 5.8125 39.890625 
Q 5.8125 47.609375 11.28125 51.796875 
Q 16.75 56 26.8125 56 
Q 31.78125 56 36.171875 55.265625 
Q 40.578125 54.546875 44.28125 53.078125 
z
" id="DejaVuSans-115"/>
      </defs>
      <use xlink:href="#DejaVuSans-69"/>
      <use x="63.183594" xlink:href="#DejaVuSans-112"/>
      <use x="126.660156" xlink:href="#DejaVuSans-111"/>
      <use x="187.841797" xlink:href="#DejaVuSans-99"/>
      <use x="242.822266" xlink:href="#DejaVuSans-104"/>
      <use x="306.201172" xlink:href="#DejaVuSans-115"/>
     </g>
    </g>
   </g>
   <g id="matplotlib.axis_2">
    <g id="ytick_1">
     <g id="line2d_9">
      <defs>
       <path d="M 0 0 
L -3.5 0 
" id="mf0319fe5ec" style="stroke:#000000;stroke-width:0.8;"/>
      </defs>
      <g>
       <use style="stroke:#000000;stroke-width:0.8;" x="50.87" xlink:href="#mf0319fe5ec" y="281.1882"/>
      </g>
     </g>
     <g id="text_10">
      <!-- 50 -->
      <g transform="translate(31.145 284.987419)scale(0.1 -0.1)">
       <defs>
        <path d="M 10.796875 72.90625 
L 49.515625 72.90625 
L 49.515625 64.59375 
L 19.828125 64.59375 
L 19.828125 46.734375 
Q 21.96875 47.46875 24.109375 47.828125 
Q 26.265625 48.1875 28.421875 48.1875 
Q 40.625 48.1875 47.75 41.5 
Q 54.890625 34.8125 54.890625 23.390625 
Q 54.890625 11.625 47.5625 5.09375 
Q 40.234375 -1.421875 26.90625 -1.421875 
Q 22.3125 -1.421875 17.546875 -0.640625 
Q 12.796875 0.140625 7.71875 1.703125 
L 7.71875 11.625 
Q 12.109375 9.234375 16.796875 8.0625 
Q 21.484375 6.890625 26.703125 6.890625 
Q 35.15625 6.890625 40.078125 11.328125 
Q 45.015625 15.765625 45.015625 23.390625 
Q 45.015625 31 40.078125 35.4375 
Q 35.15625 39.890625 26.703125 39.890625 
Q 22.75 39.890625 18.8125 39.015625 
Q 14.890625 38.140625 10.796875 36.28125 
z
" id="DejaVuSans-53"/>
       </defs>
       <use xlink:href="#DejaVuSans-53"/>
       <use x="63.623047" xlink:href="#DejaVuSans-48"/>
      </g>
     </g>
    </g>
    <g id="ytick_2">
     <g id="line2d_10">
      <g>
       <use style="stroke:#000000;stroke-width:0.8;" x="50.87" xlink:href="#mf0319fe5ec" y="229.932274"/>
      </g>
     </g>
     <g id="text_11">
      <!-- 60 -->
      <g transform="translate(31.145 233.731493)scale(0.1 -0.1)">
       <use xlink:href="#DejaVuSans-54"/>
       <use x="63.623047" xlink:href="#DejaVuSans-48"/>
      </g>
     </g>
    </g>
    <g id="ytick_3">
     <g id="line2d_11">
      <g>
       <use style="stroke:#000000;stroke-width:0.8;" x="50.87" xlink:href="#mf0319fe5ec" y="178.676349"/>
      </g>
     </g>
     <g id="text_12">
      <!-- 70 -->
      <g transform="translate(31.145 182.475567)scale(0.1 -0.1)">
       <defs>
        <path d="M 8.203125 72.90625 
L 55.078125 72.90625 
L 55.078125 68.703125 
L 28.609375 0 
L 18.3125 0 
L 43.21875 64.59375 
L 8.203125 64.59375 
z
" id="DejaVuSans-55"/>
       </defs>
       <use xlink:href="#DejaVuSans-55"/>
       <use x="63.623047" xlink:href="#DejaVuSans-48"/>
      </g>
     </g>
    </g>
    <g id="ytick_4">
     <g id="line2d_12">
      <g>
       <use style="stroke:#000000;stroke-width:0.8;" x="50.87" xlink:href="#mf0319fe5ec" y="127.420423"/>
      </g>
     </g>
     <g id="text_13">
      <!-- 80 -->
      <g transform="translate(31.145 131.219642)scale(0.1 -0.1)">
       <use xlink:href="#DejaVuSans-56"/>
       <use x="63.623047" xlink:href="#DejaVuSans-48"/>
      </g>
     </g>
    </g>
    <g id="ytick_5">
     <g id="line2d_13">
      <g>
       <use style="stroke:#000000;stroke-width:0.8;" x="50.87" xlink:href="#mf0319fe5ec" y="76.164497"/>
      </g>
     </g>
     <g id="text_14">
      <!-- 90 -->
      <g transform="translate(31.145 79.963716)scale(0.1 -0.1)">
       <defs>
        <path d="M 10.984375 1.515625 
L 10.984375 10.5 
Q 14.703125 8.734375 18.5 7.8125 
Q 22.3125 6.890625 25.984375 6.890625 
Q 35.75 6.890625 40.890625 13.453125 
Q 46.046875 20.015625 46.78125 33.40625 
Q 43.953125 29.203125 39.59375 26.953125 
Q 35.25 24.703125 29.984375 24.703125 
Q 19.046875 24.703125 12.671875 31.3125 
Q 6.296875 37.9375 6.296875 49.421875 
Q 6.296875 60.640625 12.9375 67.421875 
Q 19.578125 74.21875 30.609375 74.21875 
Q 43.265625 74.21875 49.921875 64.515625 
Q 56.59375 54.828125 56.59375 36.375 
Q 56.59375 19.140625 48.40625 8.859375 
Q 40.234375 -1.421875 26.421875 -1.421875 
Q 22.703125 -1.421875 18.890625 -0.6875 
Q 15.09375 0.046875 10.984375 1.515625 
z
M 30.609375 32.421875 
Q 37.25 32.421875 41.125 36.953125 
Q 45.015625 41.5 45.015625 49.421875 
Q 45.015625 57.28125 41.125 61.84375 
Q 37.25 66.40625 30.609375 66.40625 
Q 23.96875 66.40625 20.09375 61.84375 
Q 16.21875 57.28125 16.21875 49.421875 
Q 16.21875 41.5 20.09375 36.953125 
Q 23.96875 32.421875 30.609375 32.421875 
z
" id="DejaVuSans-57"/>
       </defs>
       <use xlink:href="#DejaVuSans-57"/>
       <use x="63.623047" xlink:href="#DejaVuSans-48"/>
      </g>
     </g>
    </g>
    <g id="ytick_6">
     <g id="line2d_14">
      <g>
       <use style="stroke:#000000;stroke-width:0.8;" x="50.87" xlink:href="#mf0319fe5ec" y="24.908572"/>
      </g>
     </g>
     <g id="text_15">
      <!-- 100 -->
      <g transform="translate(24.7825 28.70779)scale(0.1 -0.1)">
       <use xlink:href="#DejaVuSans-49"/>
       <use x="63.623047" xlink:href="#DejaVuSans-48"/>
       <use x="127.246094" xlink:href="#DejaVuSans-48"/>
      </g>
     </g>
    </g>
    <g id="text_16">
     <!-- Test Accuracy (%) -->
     <g transform="translate(18.702813 201.723906)rotate(-90)scale(0.1 -0.1)">
      <defs>
       <path d="M -0.296875 72.90625 
L 61.375 72.90625 
L 61.375 64.59375 
L 35.5 64.59375 
L 35.5 0 
L 25.59375 0 
L 25.59375 64.59375 
L -0.296875 64.59375 
z
" id="DejaVuSans-84"/>
       <path d="M 56.203125 29.59375 
L 56.203125 25.203125 
L 14.890625 25.203125 
Q 15.484375 15.921875 20.484375 11.0625 
Q 25.484375 6.203125 34.421875 6.203125 
Q 39.59375 6.203125 44.453125 7.46875 
Q 49.3125 8.734375 54.109375 11.28125 
L 54.109375 2.78125 
Q 49.265625 0.734375 44.1875 -0.34375 
Q 39.109375 -1.421875 33.890625 -1.421875 
Q 20.796875 -1.421875 13.15625 6.1875 
Q 5.515625 13.8125 5.515625 26.8125 
Q 5.515625 40.234375 12.765625 48.109375 
Q 20.015625 56 32.328125 56 
Q 43.359375 56 49.78125 48.890625 
Q 56.203125 41.796875 56.203125 29.59375 
z
M 47.21875 32.234375 
Q 47.125 39.59375 43.09375 43.984375 
Q 39.0625 48.390625 32.421875 48.390625 
Q 24.90625 48.390625 20.390625 44.140625 
Q 15.875 39.890625 15.1875 32.171875 
z
" id="DejaVuSans-101"/>
       <path d="M 18.3125 70.21875 
L 18.3125 54.6875 
L 36.8125 54.6875 
L 36.8125 47.703125 
L 18.3125 47.703125 
L 18.3125 18.015625 
Q 18.3125 11.328125 20.140625 9.421875 
Q 21.96875 7.515625 27.59375 7.515625 
L 36.8125 7.515625 
L 36.8125 0 
L 27.59375 0 
Q 17.1875 0 13.234375 3.875 
Q 9.28125 7.765625 9.28125 18.015625 
L 9.28125 47.703125 
L 2.6875 47.703125 
L 2.6875 54.6875 
L 9.28125 54.6875 
L 9.28125 70.21875 
z
" id="DejaVuSans-116"/>
       <path id="DejaVuSans-32"/>
       <path d="M 34.1875 63.1875 
L 20.796875 26.90625 
L 47.609375 26.90625 
z
M 28.609375 72.90625 
L 39.796875 72.90625 
L 67.578125 0 
L 57.328125 0 
L 50.6875 18.703125 
L 17.828125 18.703125 
L 11.1875 0 
L 0.78125 0 
z
" id="DejaVuSans-65"/>
       <path d="M 8.5 21.578125 
L 8.5 54.6875 
L 17.484375 54.6875 
L 17.484375 21.921875 
Q 17.484375 14.15625 20.5 10.265625 
Q 23.53125 6.390625 29.59375 6.390625 
Q 36.859375 6.390625 41.078125 11.03125 
Q 45.3125 15.671875 45.3125 23.6875 
L 45.3125 54.6875 
L 54.296875 54.6875 
L 54.296875 0 
L 45.3125 0 
L 45.3125 8.40625 
Q 42.046875 3.421875 37.71875 1 
Q 33.40625 -1.421875 27.6875 -1.421875 
Q 18.265625 -1.421875 13.375 4.4375 
Q 8.5 10.296875 8.5 21.578125 
z
M 31.109375 56 
z
" id="DejaVuSans-117"/>
       <path d="M 41.109375 46.296875 
Q 39.59375 47.171875 37.8125 47.578125 
Q 36.03125 48 33.890625 48 
Q 26.265625 48 22.1875 43.046875 
Q 18.109375 38.09375 18.109375 28.8125 
L 18.109375 0 
L 9.078125 0 
L 9.078125 54.6875 
L 18.109375 54.6875 
L 18.109375 46.1875 
Q 20.953125 51.171875 25.484375 53.578125 
Q 30.03125 56 36.53125 56 
Q 37.453125 56 38.578125 55.875 
Q 39.703125 55.765625 41.0625 55.515625 
z
" id="DejaVuSans-114"/>
       <path d="M 34.28125 27.484375 
Q 23.390625 27.484375 19.1875 25 
Q 14.984375 22.515625 14.984375 16.5 
Q 14.984375 11.71875 18.140625 8.90625 
Q 21.296875 6.109375 26.703125 6.109375 
Q 34.1875 6.109375 38.703125 11.40625 
Q 43.21875 16.703125 43.21875 25.484375 
L 43.21875 27.484375 
z
M 52.203125 31.203125 
L 52.203125 0 
L 43.21875 0 
L 43.21875 8.296875 
Q 40.140625 3.328125 35.546875 0.953125 
Q 30.953125 -1.421875 24.3125 -1.421875 
Q 15.921875 -1.421875 10.953125 3.296875 
Q 6 8.015625 6 15.921875 
Q 6 25.140625 12.171875 29.828125 
Q 18.359375 34.515625 30.609375 34.515625 
L 43.21875 34.515625 
L 43.21875 35.40625 
Q 43.21875 41.609375 39.140625 45 
Q 35.0625 48.390625 27.6875 48.390625 
Q 23 48.390625 18.546875 47.265625 
Q 14.109375 46.140625 10.015625 43.890625 
L 10.015625 52.203125 
Q 14.9375 54.109375 19.578125 55.046875 
Q 24.21875 56 28.609375 56 
Q 40.484375 56 46.34375 49.84375 
Q 52.203125 43.703125 52.203125 31.203125 
z
" id="DejaVuSans-97"/>
       <path d="M 32.171875 -5.078125 
Q 28.375 -14.84375 24.75 -17.8125 
Q 21.140625 -20.796875 15.09375 -20.796875 
L 7.90625 -20.796875 
L 7.90625 -13.28125 
L 13.1875 -13.28125 
Q 16.890625 -13.28125 18.9375 -11.515625 
Q 21 -9.765625 23.484375 -3.21875 
L 25.09375 0.875 
L 2.984375 54.6875 
L 12.5 54.6875 
L 29.59375 11.921875 
L 46.6875 54.6875 
L 56.203125 54.6875 
z
" id="DejaVuSans-121"/>
       <path d="M 31 75.875 
Q 24.46875 64.65625 21.28125 53.65625 
Q 18.109375 42.671875 18.109375 31.390625 
Q 18.109375 20.125 21.3125 9.0625 
Q 24.515625 -2 31 -13.1875 
L 23.1875 -13.1875 
Q 15.875 -1.703125 12.234375 9.375 
Q 8.59375 20.453125 8.59375 31.390625 
Q 8.59375 42.28125 12.203125 53.3125 
Q 15.828125 64.359375 23.1875 75.875 
z
" id="DejaVuSans-40"/>
       <path d="M 72.703125 32.078125 
Q 68.453125 32.078125 66.03125 28.46875 
Q 63.625 24.859375 63.625 18.40625 
Q 63.625 12.0625 66.03125 8.421875 
Q 68.453125 4.78125 72.703125 4.78125 
Q 76.859375 4.78125 79.265625 8.421875 
Q 81.6875 12.0625 81.6875 18.40625 
Q 81.6875 24.8125 79.265625 28.4375 
Q 76.859375 32.078125 72.703125 32.078125 
z
M 72.703125 38.28125 
Q 80.421875 38.28125 84.953125 32.90625 
Q 89.5 27.546875 89.5 18.40625 
Q 89.5 9.28125 84.9375 3.921875 
Q 80.375 -1.421875 72.703125 -1.421875 
Q 64.890625 -1.421875 60.34375 3.921875 
Q 55.8125 9.28125 55.8125 18.40625 
Q 55.8125 27.59375 60.375 32.9375 
Q 64.9375 38.28125 72.703125 38.28125 
z
M 22.3125 68.015625 
Q 18.109375 68.015625 15.6875 64.375 
Q 13.28125 60.75 13.28125 54.390625 
Q 13.28125 47.953125 15.671875 44.328125 
Q 18.0625 40.71875 22.3125 40.71875 
Q 26.5625 40.71875 28.96875 44.328125 
Q 31.390625 47.953125 31.390625 54.390625 
Q 31.390625 60.6875 28.953125 64.34375 
Q 26.515625 68.015625 22.3125 68.015625 
z
M 66.40625 74.21875 
L 74.21875 74.21875 
L 28.609375 -1.421875 
L 20.796875 -1.421875 
z
M 22.3125 74.21875 
Q 30.03125 74.21875 34.609375 68.875 
Q 39.203125 63.53125 39.203125 54.390625 
Q 39.203125 45.171875 34.640625 39.84375 
Q 30.078125 34.515625 22.3125 34.515625 
Q 14.546875 34.515625 10.03125 39.859375 
Q 5.515625 45.21875 5.515625 54.390625 
Q 5.515625 63.484375 10.046875 68.84375 
Q 14.59375 74.21875 22.3125 74.21875 
z
" id="DejaVuSans-37"/>
       <path d="M 8.015625 75.875 
L 15.828125 75.875 
Q 23.140625 64.359375 26.78125 53.3125 
Q 30.421875 42.28125 30.421875 31.390625 
Q 30.421875 20.453125 26.78125 9.375 
Q 23.140625 -1.703125 15.828125 -13.1875 
L 8.015625 -13.1875 
Q 14.5 -2 17.703125 9.0625 
Q 20.90625 20.125 20.90625 31.390625 
Q 20.90625 42.671875 17.703125 53.65625 
Q 14.5 64.65625 8.015625 75.875 
z
" id="DejaVuSans-41"/>
      </defs>
      <use xlink:href="#DejaVuSans-84"/>
      <use x="44.083984" xlink:href="#DejaVuSans-101"/>
      <use x="105.607422" xlink:href="#DejaVuSans-115"/>
      <use x="157.707031" xlink:href="#DejaVuSans-116"/>
      <use x="196.916016" xlink:href="#DejaVuSans-32"/>
      <use x="228.703125" xlink:href="#DejaVuSans-65"/>
      <use x="295.361328" xlink:href="#DejaVuSans-99"/>
      <use x="350.341797" xlink:href="#DejaVuSans-99"/>
      <use x="405.322266" xlink:href="#DejaVuSans-117"/>
      <use x="468.701172" xlink:href="#DejaVuSans-114"/>
      <use x="509.814453" xlink:href="#DejaVuSans-97"/>
      <use x="571.09375" xlink:href="#DejaVuSans-99"/>
      <use x="626.074219" xlink:href="#DejaVuSans-121"/>
      <use x="685.253906" xlink:href="#DejaVuSans-32"/>
      <use x="717.041016" xlink:href="#DejaVuSans-40"/>
      <use x="756.054688" xlink:href="#DejaVuSans-37"/>
      <use x="851.074219" xlink:href="#DejaVuSans-41"/>
     </g>
    </g>
   </g>
   <g id="line2d_15">
    <path clip-path="url(#p6d4d01c3bc)" d="M 69.012273 211.762449 
L 71.447477 126.869822 
L 73.882682 94.033995 
L 76.317886 87.226567 
L 78.75309 69.156851 
L 81.188295 55.241668 
L 83.623499 45.781346 
L 86.058703 51.487572 
L 88.493908 40.875994 
L 90.929112 37.572389 
L 93.364317 36.521242 
L 95.799521 38.723645 
L 98.234725 36.521242 
L 100.66993 32.867255 
L 103.105134 31.565835 
L 105.540339 31.565835 
L 107.975543 33.417856 
L 110.410747 30.96518 
L 112.845952 29.964088 
L 115.281156 33.067474 
L 117.716361 30.564743 
L 120.151565 30.614798 
L 122.586769 29.01305 
L 125.021974 29.813924 
L 127.457178 30.414579 
L 129.892383 31.816109 
L 132.327587 30.96518 
L 134.762791 28.112067 
L 137.197996 29.964088 
L 139.6332 28.312285 
L 144.503609 30.764962 
L 146.938813 28.412395 
L 149.374018 29.213269 
L 151.809222 29.413487 
L 154.244426 30.915125 
L 156.679631 29.413487 
L 159.114835 31.165399 
L 161.55004 29.313378 
L 163.985244 30.31447 
L 166.420448 28.562559 
L 168.855653 28.712722 
L 171.290857 31.766054 
L 173.726062 29.813924 
L 176.161266 31.065289 
L 178.59647 29.713815 
L 181.031675 27.911849 
L 183.466879 27.961903 
L 185.902084 28.912941 
L 188.337288 29.263323 
L 190.772492 28.412395 
L 193.207697 28.812832 
L 195.642901 29.513596 
L 198.078106 29.613705 
L 200.51331 27.161029 
L 202.948514 26.510319 
L 205.383719 27.761685 
L 207.818923 30.31447 
L 210.254128 27.761685 
L 212.689332 26.660483 
L 215.124536 29.213269 
L 217.559741 28.162122 
L 219.994945 28.112067 
L 222.430149 26.159937 
L 224.865354 27.811739 
L 227.300558 28.562559 
L 229.735763 27.511412 
L 232.170967 26.910756 
L 234.606171 27.961903 
L 237.041376 26.660483 
L 239.47658 29.763869 
L 241.911785 26.560374 
L 244.346989 27.161029 
L 246.782193 27.961903 
L 249.217398 27.361248 
L 251.652602 25.359063 
L 254.087807 26.660483 
L 256.523011 27.211084 
L 258.958215 26.710538 
L 261.39342 27.361248 
L 263.828624 26.009773 
L 266.263829 27.361248 
L 268.699033 26.260046 
L 271.134237 25.459172 
L 273.569442 26.460265 
L 276.004646 27.211084 
L 278.439851 26.360155 
L 280.875055 27.511412 
L 283.310259 27.110975 
L 288.180668 26.860702 
L 290.615872 27.161029 
L 293.051077 26.660483 
L 295.486281 25.359063 
L 297.921486 25.7595 
L 300.35669 25.609336 
L 302.791894 27.611521 
L 305.227099 26.760592 
L 310.097508 26.510319 
L 312.532712 26.009773 
L 314.967916 26.610429 
L 317.403121 26.260046 
L 319.838325 26.660483 
L 322.27353 26.059828 
L 324.708734 26.610429 
L 327.143938 25.659391 
L 329.579143 26.360155 
L 332.014347 26.009773 
L 334.449552 25.208899 
L 336.884756 25.7595 
L 341.755165 25.859609 
L 344.190369 25.208899 
L 346.625574 26.059828 
L 349.060778 25.509227 
L 351.495982 25.459172 
L 353.931187 25.559282 
L 358.801595 26.209992 
L 361.2368 25.909664 
L 363.672004 26.760592 
L 366.107209 25.058736 
L 368.542413 25.058736 
L 370.977617 25.609336 
L 375.848026 25.359063 
L 378.283231 25.058736 
L 383.153639 25.459172 
L 385.588844 25.208899 
L 388.024048 25.609336 
L 390.459253 25.058736 
L 395.329661 25.058736 
L 397.764866 25.208899 
L 400.20007 25.208899 
L 405.070479 24.908572 
L 407.505683 25.359063 
L 409.940888 25.359063 
L 412.376092 25.208899 
L 417.246501 25.208899 
L 419.681705 25.359063 
L 422.11691 25.359063 
L 424.552114 25.208899 
L 431.857727 25.208899 
L 431.857727 25.208899 
" style="fill:none;stroke:#1f77b4;stroke-linecap:square;stroke-width:1.5;"/>
   </g>
   <g id="line2d_16">
    <path clip-path="url(#p6d4d01c3bc)" d="M 69.012273 284.166449 
L 71.447477 254.008544 
L 73.882682 210.36092 
L 76.317886 182.080062 
L 78.75309 135.829598 
L 81.188295 112.053656 
L 83.623499 94.234213 
L 86.058703 80.519249 
L 88.493908 76.114443 
L 90.929112 63.400571 
L 93.364317 54.741122 
L 95.799521 43.178506 
L 98.234725 49.285169 
L 100.66993 45.531073 
L 103.105134 39.174137 
L 105.540339 43.128451 
L 107.975543 44.580035 
L 110.410747 39.224192 
L 112.845952 37.622444 
L 115.281156 40.275338 
L 117.716361 38.823755 
L 120.151565 38.673591 
L 122.586769 37.572389 
L 125.021974 35.970642 
L 127.457178 39.874902 
L 129.892383 38.573482 
L 132.327587 38.273154 
L 134.762791 36.421133 
L 137.197996 34.418948 
L 139.6332 34.018512 
L 142.068405 35.269877 
L 144.503609 31.315562 
L 146.938813 33.467911 
L 149.374018 34.519058 
L 151.809222 32.516873 
L 154.244426 37.372171 
L 156.679631 38.423318 
L 159.114835 38.423318 
L 161.55004 36.17086 
L 163.985244 31.565835 
L 166.420448 33.367802 
L 168.855653 30.31447 
L 171.290857 32.566928 
L 173.726062 32.767146 
L 176.161266 34.318839 
L 178.59647 33.017419 
L 181.031675 32.166491 
L 183.466879 30.064197 
L 185.902084 30.164306 
L 188.337288 29.763869 
L 190.772492 31.766054 
L 193.207697 29.113159 
L 195.642901 31.715999 
L 198.078106 31.866163 
L 200.51331 30.815016 
L 202.948514 28.912941 
L 205.383719 29.863979 
L 207.818923 28.262231 
L 210.254128 28.062012 
L 215.124536 29.713815 
L 217.559741 30.414579 
L 219.994945 29.363432 
L 222.430149 29.813924 
L 224.865354 30.614798 
L 227.300558 29.563651 
L 229.735763 29.563651 
L 232.170967 26.810647 
L 234.606171 28.162122 
L 239.47658 29.463542 
L 241.911785 29.113159 
L 244.346989 28.212176 
L 249.217398 28.212176 
L 251.652602 31.265508 
L 254.087807 27.511412 
L 256.523011 28.812832 
L 258.958215 27.661575 
L 261.39342 28.36234 
L 263.828624 27.211084 
L 266.263829 28.011958 
L 268.699033 26.510319 
L 271.134237 27.761685 
L 273.569442 28.212176 
L 276.004646 27.661575 
L 278.439851 27.961903 
L 280.875055 27.71163 
L 285.745464 26.860702 
L 288.180668 29.263323 
L 290.615872 26.710538 
L 293.051077 27.461357 
L 295.486281 26.159937 
L 297.921486 27.311193 
L 300.35669 26.109882 
L 302.791894 26.760592 
L 305.227099 26.860702 
L 307.662303 27.261139 
L 310.097508 26.009773 
L 312.532712 27.71163 
L 314.967916 26.159937 
L 317.403121 27.110975 
L 319.838325 26.510319 
L 322.27353 27.06092 
L 324.708734 26.41021 
L 329.579143 26.009773 
L 332.014347 26.159937 
L 336.884756 26.109882 
L 339.31996 27.511412 
L 341.755165 26.260046 
L 344.190369 26.41021 
L 346.625574 26.41021 
L 349.060778 25.609336 
L 351.495982 25.7595 
L 353.931187 25.609336 
L 356.366391 25.609336 
L 358.801595 26.41021 
L 361.2368 25.509227 
L 363.672004 25.459172 
L 366.107209 25.609336 
L 368.542413 25.909664 
L 370.977617 25.609336 
L 373.412822 26.009773 
L 375.848026 25.208899 
L 378.283231 25.859609 
L 380.718435 25.609336 
L 383.153639 25.859609 
L 385.588844 25.359063 
L 388.024048 25.058736 
L 390.459253 25.7595 
L 392.894457 25.7595 
L 395.329661 26.009773 
L 397.764866 25.859609 
L 400.20007 25.859609 
L 402.635275 25.609336 
L 405.070479 25.208899 
L 407.505683 25.609336 
L 409.940888 25.7595 
L 412.376092 25.459172 
L 417.246501 25.7595 
L 419.681705 25.7595 
L 422.11691 25.359063 
L 424.552114 25.609336 
L 429.422523 25.359063 
L 431.857727 25.7595 
L 431.857727 25.7595 
" style="fill:none;stroke:#ff7f0e;stroke-linecap:square;stroke-width:1.5;"/>
   </g>
   <g id="line2d_17">
    <path clip-path="url(#p6d4d01c3bc)" d="M 69.012273 280.587544 
L 71.447477 248.352372 
L 73.882682 180.678533 
L 76.317886 166.11264 
L 78.75309 128.421515 
L 81.188295 107.64885 
L 83.623499 94.334323 
L 86.058703 79.067665 
L 88.493908 77.966463 
L 90.929112 63.400571 
L 93.364317 54.040358 
L 95.799521 43.679052 
L 98.234725 49.535442 
L 100.66993 45.531073 
L 103.105134 40.225284 
L 107.975543 46.682329 
L 110.410747 38.873809 
L 112.845952 38.723645 
L 115.281156 41.226376 
L 117.716361 41.326485 
L 120.151565 39.074028 
L 122.586769 39.724738 
L 125.021974 35.920587 
L 127.457178 38.623536 
L 129.892383 35.920587 
L 132.327587 35.920587 
L 134.762791 36.270969 
L 137.197996 33.868348 
L 139.6332 35.820478 
L 142.068405 34.118621 
L 146.938813 34.368894 
L 149.374018 35.620259 
L 151.809222 32.717092 
L 154.244426 32.466819 
L 156.679631 36.721461 
L 159.114835 35.670314 
L 161.55004 33.618075 
L 163.985244 30.815016 
L 166.420448 31.065289 
L 168.855653 33.067474 
L 171.290857 33.167583 
L 173.726062 33.768238 
L 176.161266 32.717092 
L 178.59647 33.618075 
L 181.031675 31.565835 
L 183.466879 31.165399 
L 185.902084 32.91731 
L 188.337288 29.163214 
L 190.772492 32.116436 
L 193.207697 29.513596 
L 195.642901 29.163214 
L 198.078106 31.015235 
L 200.51331 30.865071 
L 202.948514 29.66376 
L 205.383719 29.563651 
L 207.818923 28.412395 
L 210.254128 30.214361 
L 212.689332 29.163214 
L 215.124536 30.264415 
L 217.559741 29.813924 
L 219.994945 29.66376 
L 222.430149 30.214361 
L 224.865354 29.01305 
L 227.300558 29.463542 
L 229.735763 29.263323 
L 232.170967 28.162122 
L 234.606171 30.414579 
L 237.041376 29.163214 
L 239.47658 29.513596 
L 241.911785 28.612613 
L 244.346989 28.912941 
L 246.782193 29.66376 
L 249.217398 27.06092 
L 251.652602 29.964088 
L 254.087807 29.01305 
L 256.523011 26.360155 
L 258.958215 27.211084 
L 261.39342 26.260046 
L 263.828624 28.562559 
L 266.263829 27.811739 
L 268.699033 28.112067 
L 271.134237 28.112067 
L 273.569442 26.660483 
L 276.004646 27.06092 
L 278.439851 27.261139 
L 280.875055 27.961903 
L 285.745464 26.960811 
L 288.180668 27.311193 
L 290.615872 27.961903 
L 293.051077 26.41021 
L 295.486281 28.011958 
L 297.921486 26.059828 
L 300.35669 27.110975 
L 302.791894 27.161029 
L 305.227099 25.859609 
L 307.662303 26.860702 
L 310.097508 27.161029 
L 312.532712 26.860702 
L 314.967916 26.260046 
L 317.403121 26.260046 
L 319.838325 26.610429 
L 322.27353 25.7595 
L 324.708734 26.310101 
L 327.143938 26.510319 
L 329.579143 25.459172 
L 332.014347 26.009773 
L 336.884756 25.909664 
L 339.31996 26.159937 
L 341.755165 26.159937 
L 344.190369 25.609336 
L 346.625574 25.959719 
L 349.060778 25.7595 
L 351.495982 25.208899 
L 353.931187 26.009773 
L 356.366391 26.009773 
L 358.801595 25.7595 
L 361.2368 26.109882 
L 363.672004 25.509227 
L 366.107209 25.208899 
L 368.542413 25.359063 
L 370.977617 26.260046 
L 373.412822 25.509227 
L 375.848026 25.459172 
L 378.283231 25.709445 
L 380.718435 26.310101 
L 383.153639 25.609336 
L 385.588844 25.459172 
L 388.024048 26.109882 
L 390.459253 26.059828 
L 392.894457 25.459172 
L 395.329661 25.208899 
L 397.764866 25.359063 
L 400.20007 25.058736 
L 402.635275 25.459172 
L 405.070479 25.309009 
L 407.505683 24.908572 
L 409.940888 25.058736 
L 412.376092 24.908572 
L 414.811297 25.058736 
L 431.857727 25.058736 
L 431.857727 25.058736 
" style="fill:none;stroke:#2ca02c;stroke-linecap:square;stroke-width:1.5;"/>
   </g>
   <g id="line2d_18">
    <path clip-path="url(#p6d4d01c3bc)" d="M 69.012273 285.567979 
L 71.447477 258.213132 
L 73.882682 177.274819 
L 76.317886 158.254066 
L 78.75309 121.063487 
L 81.188295 99.239675 
L 83.623499 81.770614 
L 86.058703 77.115535 
L 88.493908 62.950079 
L 90.929112 57.043634 
L 93.364317 47.733476 
L 95.799521 46.782438 
L 98.234725 51.837954 
L 100.66993 46.181783 
L 103.105134 42.227468 
L 105.540339 47.132821 
L 107.975543 40.72583 
L 110.410747 39.274246 
L 112.845952 37.071843 
L 115.281156 41.076212 
L 117.716361 38.623536 
L 120.151565 41.326485 
L 122.586769 37.672498 
L 125.021974 37.922772 
L 127.457178 35.269877 
L 129.892383 37.422225 
L 132.327587 35.920587 
L 134.762791 34.168675 
L 137.197996 34.519058 
L 139.6332 34.368894 
L 142.068405 33.367802 
L 144.503609 32.867255 
L 146.938813 34.619167 
L 149.374018 33.618075 
L 151.809222 32.967365 
L 154.244426 33.317747 
L 156.679631 34.168675 
L 159.114835 41.026158 
L 161.55004 32.416764 
L 163.985244 34.569112 
L 166.420448 32.416764 
L 168.855653 32.166491 
L 171.290857 31.61589 
L 173.726062 32.616982 
L 176.161266 33.317747 
L 178.59647 31.715999 
L 181.031675 36.17086 
L 183.466879 31.565835 
L 185.902084 30.564743 
L 188.337288 30.764962 
L 190.772492 30.114252 
L 193.207697 30.164306 
L 195.642901 32.967365 
L 198.078106 32.767146 
L 200.51331 29.613705 
L 202.948514 29.263323 
L 205.383719 29.613705 
L 207.818923 30.31447 
L 212.689332 30.164306 
L 215.124536 30.514689 
L 217.559741 31.215453 
L 219.994945 28.912941 
L 222.430149 31.265508 
L 224.865354 31.315562 
L 227.300558 29.413487 
L 229.735763 30.114252 
L 232.170967 28.312285 
L 234.606171 30.96518 
L 237.041376 32.967365 
L 239.47658 29.66376 
L 241.911785 29.763869 
L 244.346989 28.262231 
L 246.782193 27.71163 
L 249.217398 28.712722 
L 251.652602 28.862886 
L 254.087807 28.312285 
L 256.523011 28.212176 
L 258.958215 27.811739 
L 261.39342 28.262231 
L 263.828624 26.460265 
L 266.263829 30.815016 
L 268.699033 26.860702 
L 273.569442 27.110975 
L 276.004646 26.860702 
L 278.439851 27.110975 
L 280.875055 27.611521 
L 283.310259 27.611521 
L 285.745464 26.910756 
L 288.180668 27.361248 
L 290.615872 27.411302 
L 293.051077 27.06092 
L 295.486281 27.06092 
L 297.921486 27.411302 
L 300.35669 26.860702 
L 302.791894 25.609336 
L 305.227099 26.41021 
L 307.662303 25.859609 
L 310.097508 27.010865 
L 312.532712 26.41021 
L 314.967916 26.710538 
L 317.403121 27.511412 
L 319.838325 27.361248 
L 322.27353 26.510319 
L 324.708734 26.159937 
L 327.143938 27.161029 
L 329.579143 27.411302 
L 334.449552 26.009773 
L 336.884756 25.609336 
L 339.31996 26.660483 
L 341.755165 26.41021 
L 344.190369 25.208899 
L 346.625574 25.509227 
L 349.060778 25.208899 
L 351.495982 26.660483 
L 353.931187 26.009773 
L 356.366391 26.510319 
L 358.801595 25.609336 
L 361.2368 26.159937 
L 366.107209 25.459172 
L 370.977617 26.159937 
L 373.412822 25.309009 
L 375.848026 25.359063 
L 378.283231 25.609336 
L 383.153639 25.359063 
L 385.588844 25.509227 
L 388.024048 25.509227 
L 390.459253 26.009773 
L 392.894457 26.159937 
L 395.329661 25.509227 
L 397.764866 25.859609 
L 402.635275 26.109882 
L 405.070479 25.659391 
L 407.505683 25.659391 
L 409.940888 25.909664 
L 412.376092 25.359063 
L 414.811297 26.109882 
L 417.246501 25.7595 
L 419.681705 26.360155 
L 422.11691 25.909664 
L 424.552114 25.7595 
L 426.987318 25.909664 
L 429.422523 26.360155 
L 431.857727 26.109882 
L 431.857727 26.109882 
" style="fill:none;stroke:#d62728;stroke-linecap:square;stroke-width:1.5;"/>
   </g>
   <g id="patch_3">
    <path d="M 50.87 303.64 
L 50.87 10.8 
" style="fill:none;stroke:#000000;stroke-linecap:square;stroke-linejoin:miter;stroke-width:0.8;"/>
   </g>
   <g id="patch_4">
    <path d="M 450 303.64 
L 450 10.8 
" style="fill:none;stroke:#000000;stroke-linecap:square;stroke-linejoin:miter;stroke-width:0.8;"/>
   </g>
   <g id="patch_5">
    <path d="M 50.87 303.64 
L 450 303.64 
" style="fill:none;stroke:#000000;stroke-linecap:square;stroke-linejoin:miter;stroke-width:0.8;"/>
   </g>
   <g id="patch_6">
    <path d="M 50.87 10.8 
L 450 10.8 
" style="fill:none;stroke:#000000;stroke-linecap:square;stroke-linejoin:miter;stroke-width:0.8;"/>
   </g>
   <g id="legend_1">
    <g id="patch_7">
     <path d="M 321.514063 298.64 
L 443 298.64 
Q 445 298.64 445 296.64 
L 445 238.9275 
Q 445 236.9275 443 236.9275 
L 321.514063 236.9275 
Q 319.514063 236.9275 319.514063 238.9275 
L 319.514063 296.64 
Q 319.514063 298.64 321.514063 298.64 
z
" style="fill:#ffffff;opacity:0.8;stroke:#cccccc;stroke-linejoin:miter;"/>
    </g>
    <g id="line2d_19">
     <path d="M 323.514063 245.025937 
L 343.514063 245.025937 
" style="fill:none;stroke:#1f77b4;stroke-linecap:square;stroke-width:1.5;"/>
    </g>
    <g id="line2d_20"/>
    <g id="text_17">
     <!-- AllReduce SGD -->
     <g transform="translate(351.514063 248.525937)scale(0.1 -0.1)">
      <defs>
       <path d="M 9.421875 75.984375 
L 18.40625 75.984375 
L 18.40625 0 
L 9.421875 0 
z
" id="DejaVuSans-108"/>
       <path d="M 44.390625 34.1875 
Q 47.5625 33.109375 50.5625 29.59375 
Q 53.5625 26.078125 56.59375 19.921875 
L 66.609375 0 
L 56 0 
L 46.6875 18.703125 
Q 43.0625 26.03125 39.671875 28.421875 
Q 36.28125 30.8125 30.421875 30.8125 
L 19.671875 30.8125 
L 19.671875 0 
L 9.8125 0 
L 9.8125 72.90625 
L 32.078125 72.90625 
Q 44.578125 72.90625 50.734375 67.671875 
Q 56.890625 62.453125 56.890625 51.90625 
Q 56.890625 45.015625 53.6875 40.46875 
Q 50.484375 35.9375 44.390625 34.1875 
z
M 19.671875 64.796875 
L 19.671875 38.921875 
L 32.078125 38.921875 
Q 39.203125 38.921875 42.84375 42.21875 
Q 46.484375 45.515625 46.484375 51.90625 
Q 46.484375 58.296875 42.84375 61.546875 
Q 39.203125 64.796875 32.078125 64.796875 
z
" id="DejaVuSans-82"/>
       <path d="M 45.40625 46.390625 
L 45.40625 75.984375 
L 54.390625 75.984375 
L 54.390625 0 
L 45.40625 0 
L 45.40625 8.203125 
Q 42.578125 3.328125 38.25 0.953125 
Q 33.9375 -1.421875 27.875 -1.421875 
Q 17.96875 -1.421875 11.734375 6.484375 
Q 5.515625 14.40625 5.515625 27.296875 
Q 5.515625 40.1875 11.734375 48.09375 
Q 17.96875 56 27.875 56 
Q 33.9375 56 38.25 53.625 
Q 42.578125 51.265625 45.40625 46.390625 
z
M 14.796875 27.296875 
Q 14.796875 17.390625 18.875 11.75 
Q 22.953125 6.109375 30.078125 6.109375 
Q 37.203125 6.109375 41.296875 11.75 
Q 45.40625 17.390625 45.40625 27.296875 
Q 45.40625 37.203125 41.296875 42.84375 
Q 37.203125 48.484375 30.078125 48.484375 
Q 22.953125 48.484375 18.875 42.84375 
Q 14.796875 37.203125 14.796875 27.296875 
z
" id="DejaVuSans-100"/>
       <path d="M 53.515625 70.515625 
L 53.515625 60.890625 
Q 47.90625 63.578125 42.921875 64.890625 
Q 37.9375 66.21875 33.296875 66.21875 
Q 25.25 66.21875 20.875 63.09375 
Q 16.5 59.96875 16.5 54.203125 
Q 16.5 49.359375 19.40625 46.890625 
Q 22.3125 44.4375 30.421875 42.921875 
L 36.375 41.703125 
Q 47.40625 39.59375 52.65625 34.296875 
Q 57.90625 29 57.90625 20.125 
Q 57.90625 9.515625 50.796875 4.046875 
Q 43.703125 -1.421875 29.984375 -1.421875 
Q 24.8125 -1.421875 18.96875 -0.25 
Q 13.140625 0.921875 6.890625 3.21875 
L 6.890625 13.375 
Q 12.890625 10.015625 18.65625 8.296875 
Q 24.421875 6.59375 29.984375 6.59375 
Q 38.421875 6.59375 43.015625 9.90625 
Q 47.609375 13.234375 47.609375 19.390625 
Q 47.609375 24.75 44.3125 27.78125 
Q 41.015625 30.8125 33.5 32.328125 
L 27.484375 33.5 
Q 16.453125 35.6875 11.515625 40.375 
Q 6.59375 45.0625 6.59375 53.421875 
Q 6.59375 63.09375 13.40625 68.65625 
Q 20.21875 74.21875 32.171875 74.21875 
Q 37.3125 74.21875 42.625 73.28125 
Q 47.953125 72.359375 53.515625 70.515625 
z
" id="DejaVuSans-83"/>
       <path d="M 59.515625 10.40625 
L 59.515625 29.984375 
L 43.40625 29.984375 
L 43.40625 38.09375 
L 69.28125 38.09375 
L 69.28125 6.78125 
Q 63.578125 2.734375 56.6875 0.65625 
Q 49.8125 -1.421875 42 -1.421875 
Q 24.90625 -1.421875 15.25 8.5625 
Q 5.609375 18.5625 5.609375 36.375 
Q 5.609375 54.25 15.25 64.234375 
Q 24.90625 74.21875 42 74.21875 
Q 49.125 74.21875 55.546875 72.453125 
Q 61.96875 70.703125 67.390625 67.28125 
L 67.390625 56.78125 
Q 61.921875 61.421875 55.765625 63.765625 
Q 49.609375 66.109375 42.828125 66.109375 
Q 29.4375 66.109375 22.71875 58.640625 
Q 16.015625 51.171875 16.015625 36.375 
Q 16.015625 21.625 22.71875 14.15625 
Q 29.4375 6.6875 42.828125 6.6875 
Q 48.046875 6.6875 52.140625 7.59375 
Q 56.25 8.5 59.515625 10.40625 
z
" id="DejaVuSans-71"/>
       <path d="M 19.671875 64.796875 
L 19.671875 8.109375 
L 31.59375 8.109375 
Q 46.6875 8.109375 53.6875 14.9375 
Q 60.6875 21.78125 60.6875 36.53125 
Q 60.6875 51.171875 53.6875 57.984375 
Q 46.6875 64.796875 31.59375 64.796875 
z
M 9.8125 72.90625 
L 30.078125 72.90625 
Q 51.265625 72.90625 61.171875 64.09375 
Q 71.09375 55.28125 71.09375 36.53125 
Q 71.09375 17.671875 61.125 8.828125 
Q 51.171875 0 30.078125 0 
L 9.8125 0 
z
" id="DejaVuSans-68"/>
      </defs>
      <use xlink:href="#DejaVuSans-65"/>
      <use x="68.408203" xlink:href="#DejaVuSans-108"/>
      <use x="96.191406" xlink:href="#DejaVuSans-108"/>
      <use x="123.974609" xlink:href="#DejaVuSans-82"/>
      <use x="188.957031" xlink:href="#DejaVuSans-101"/>
      <use x="250.480469" xlink:href="#DejaVuSans-100"/>
      <use x="313.957031" xlink:href="#DejaVuSans-117"/>
      <use x="377.335938" xlink:href="#DejaVuSans-99"/>
      <use x="432.316406" xlink:href="#DejaVuSans-101"/>
      <use x="493.839844" xlink:href="#DejaVuSans-32"/>
      <use x="525.626953" xlink:href="#DejaVuSans-83"/>
      <use x="589.103516" xlink:href="#DejaVuSans-71"/>
      <use x="666.59375" xlink:href="#DejaVuSans-68"/>
     </g>
    </g>
    <g id="line2d_21">
     <path d="M 323.514063 259.704062 
L 343.514063 259.704062 
" style="fill:none;stroke:#ff7f0e;stroke-linecap:square;stroke-width:1.5;"/>
    </g>
    <g id="line2d_22"/>
    <g id="text_18">
     <!-- GRandK-MN 8 bits -->
     <g transform="translate(351.514063 263.204062)scale(0.1 -0.1)">
      <defs>
       <path d="M 54.890625 33.015625 
L 54.890625 0 
L 45.90625 0 
L 45.90625 32.71875 
Q 45.90625 40.484375 42.875 44.328125 
Q 39.84375 48.1875 33.796875 48.1875 
Q 26.515625 48.1875 22.3125 43.546875 
Q 18.109375 38.921875 18.109375 30.90625 
L 18.109375 0 
L 9.078125 0 
L 9.078125 54.6875 
L 18.109375 54.6875 
L 18.109375 46.1875 
Q 21.34375 51.125 25.703125 53.5625 
Q 30.078125 56 35.796875 56 
Q 45.21875 56 50.046875 50.171875 
Q 54.890625 44.34375 54.890625 33.015625 
z
" id="DejaVuSans-110"/>
       <path d="M 9.8125 72.90625 
L 19.671875 72.90625 
L 19.671875 42.09375 
L 52.390625 72.90625 
L 65.09375 72.90625 
L 28.90625 38.921875 
L 67.671875 0 
L 54.6875 0 
L 19.671875 35.109375 
L 19.671875 0 
L 9.8125 0 
z
" id="DejaVuSans-75"/>
       <path d="M 4.890625 31.390625 
L 31.203125 31.390625 
L 31.203125 23.390625 
L 4.890625 23.390625 
z
" id="DejaVuSans-45"/>
       <path d="M 9.8125 72.90625 
L 24.515625 72.90625 
L 43.109375 23.296875 
L 61.8125 72.90625 
L 76.515625 72.90625 
L 76.515625 0 
L 66.890625 0 
L 66.890625 64.015625 
L 48.09375 14.015625 
L 38.1875 14.015625 
L 19.390625 64.015625 
L 19.390625 0 
L 9.8125 0 
z
" id="DejaVuSans-77"/>
       <path d="M 9.8125 72.90625 
L 23.09375 72.90625 
L 55.421875 11.921875 
L 55.421875 72.90625 
L 64.984375 72.90625 
L 64.984375 0 
L 51.703125 0 
L 19.390625 60.984375 
L 19.390625 0 
L 9.8125 0 
z
" id="DejaVuSans-78"/>
       <path d="M 48.6875 27.296875 
Q 48.6875 37.203125 44.609375 42.84375 
Q 40.53125 48.484375 33.40625 48.484375 
Q 26.265625 48.484375 22.1875 42.84375 
Q 18.109375 37.203125 18.109375 27.296875 
Q 18.109375 17.390625 22.1875 11.75 
Q 26.265625 6.109375 33.40625 6.109375 
Q 40.53125 6.109375 44.609375 11.75 
Q 48.6875 17.390625 48.6875 27.296875 
z
M 18.109375 46.390625 
Q 20.953125 51.265625 25.265625 53.625 
Q 29.59375 56 35.59375 56 
Q 45.5625 56 51.78125 48.09375 
Q 58.015625 40.1875 58.015625 27.296875 
Q 58.015625 14.40625 51.78125 6.484375 
Q 45.5625 -1.421875 35.59375 -1.421875 
Q 29.59375 -1.421875 25.265625 0.953125 
Q 20.953125 3.328125 18.109375 8.203125 
L 18.109375 0 
L 9.078125 0 
L 9.078125 75.984375 
L 18.109375 75.984375 
z
" id="DejaVuSans-98"/>
       <path d="M 9.421875 54.6875 
L 18.40625 54.6875 
L 18.40625 0 
L 9.421875 0 
z
M 9.421875 75.984375 
L 18.40625 75.984375 
L 18.40625 64.59375 
L 9.421875 64.59375 
z
" id="DejaVuSans-105"/>
      </defs>
      <use xlink:href="#DejaVuSans-71"/>
      <use x="77.490234" xlink:href="#DejaVuSans-82"/>
      <use x="144.722656" xlink:href="#DejaVuSans-97"/>
      <use x="206.001953" xlink:href="#DejaVuSans-110"/>
      <use x="269.380859" xlink:href="#DejaVuSans-100"/>
      <use x="332.857422" xlink:href="#DejaVuSans-75"/>
      <use x="387.933594" xlink:href="#DejaVuSans-45"/>
      <use x="424.017578" xlink:href="#DejaVuSans-77"/>
      <use x="510.296875" xlink:href="#DejaVuSans-78"/>
      <use x="585.101562" xlink:href="#DejaVuSans-32"/>
      <use x="616.888672" xlink:href="#DejaVuSans-56"/>
      <use x="680.511719" xlink:href="#DejaVuSans-32"/>
      <use x="712.298828" xlink:href="#DejaVuSans-98"/>
      <use x="775.775391" xlink:href="#DejaVuSans-105"/>
      <use x="803.558594" xlink:href="#DejaVuSans-116"/>
      <use x="842.767578" xlink:href="#DejaVuSans-115"/>
     </g>
    </g>
    <g id="line2d_23">
     <path d="M 323.514063 274.382187 
L 343.514063 274.382187 
" style="fill:none;stroke:#2ca02c;stroke-linecap:square;stroke-width:1.5;"/>
    </g>
    <g id="line2d_24"/>
    <g id="text_19">
     <!-- GRandK-MN 4 bits -->
     <g transform="translate(351.514063 277.882187)scale(0.1 -0.1)">
      <use xlink:href="#DejaVuSans-71"/>
      <use x="77.490234" xlink:href="#DejaVuSans-82"/>
      <use x="144.722656" xlink:href="#DejaVuSans-97"/>
      <use x="206.001953" xlink:href="#DejaVuSans-110"/>
      <use x="269.380859" xlink:href="#DejaVuSans-100"/>
      <use x="332.857422" xlink:href="#DejaVuSans-75"/>
      <use x="387.933594" xlink:href="#DejaVuSans-45"/>
      <use x="424.017578" xlink:href="#DejaVuSans-77"/>
      <use x="510.296875" xlink:href="#DejaVuSans-78"/>
      <use x="585.101562" xlink:href="#DejaVuSans-32"/>
      <use x="616.888672" xlink:href="#DejaVuSans-52"/>
      <use x="680.511719" xlink:href="#DejaVuSans-32"/>
      <use x="712.298828" xlink:href="#DejaVuSans-98"/>
      <use x="775.775391" xlink:href="#DejaVuSans-105"/>
      <use x="803.558594" xlink:href="#DejaVuSans-116"/>
      <use x="842.767578" xlink:href="#DejaVuSans-115"/>
     </g>
    </g>
    <g id="line2d_25">
     <path d="M 323.514063 289.060312 
L 343.514063 289.060312 
" style="fill:none;stroke:#d62728;stroke-linecap:square;stroke-width:1.5;"/>
    </g>
    <g id="line2d_26"/>
    <g id="text_20">
     <!-- GRandK-MN 2 bits -->
     <g transform="translate(351.514063 292.560312)scale(0.1 -0.1)">
      <use xlink:href="#DejaVuSans-71"/>
      <use x="77.490234" xlink:href="#DejaVuSans-82"/>
      <use x="144.722656" xlink:href="#DejaVuSans-97"/>
      <use x="206.001953" xlink:href="#DejaVuSans-110"/>
      <use x="269.380859" xlink:href="#DejaVuSans-100"/>
      <use x="332.857422" xlink:href="#DejaVuSans-75"/>
      <use x="387.933594" xlink:href="#DejaVuSans-45"/>
      <use x="424.017578" xlink:href="#DejaVuSans-77"/>
      <use x="510.296875" xlink:href="#DejaVuSans-78"/>
      <use x="585.101562" xlink:href="#DejaVuSans-32"/>
      <use x="616.888672" xlink:href="#DejaVuSans-50"/>
      <use x="680.511719" xlink:href="#DejaVuSans-32"/>
      <use x="712.298828" xlink:href="#DejaVuSans-98"/>
      <use x="775.775391" xlink:href="#DejaVuSans-105"/>
      <use x="803.558594" xlink:href="#DejaVuSans-116"/>
      <use x="842.767578" xlink:href="#DejaVuSans-115"/>
     </g>
    </g>
   </g>
  </g>
 </g>
 <defs>
  <clipPath id="p6d4d01c3bc">
   <rect height="292.84" width="399.13" x="50.87" y="10.8"/>
  </clipPath>
 </defs>
</svg>
