<?xml version="1.0" encoding="utf-8" standalone="no"?>
<!DOCTYPE svg PUBLIC "-//W3C//DTD SVG 1.1//EN"
  "http://www.w3.org/Graphics/SVG/1.1/DTD/svg11.dtd">
<!-- Created with matplotlib (https://matplotlib.org/) -->
<svg height="345.6pt" version="1.1" viewBox="0 0 460.8 345.6" width="460.8pt" xmlns="http://www.w3.org/2000/svg" xmlns:xlink="http://www.w3.org/1999/xlink">
 <metadata>
  <rdf:RDF xmlns:cc="http://creativecommons.org/ns#" xmlns:dc="http://purl.org/dc/elements/1.1/" xmlns:rdf="http://www.w3.org/1999/02/22-rdf-syntax-ns#">
   <cc:Work>
    <dc:type rdf:resource="http://purl.org/dc/dcmitype/StillImage"/>
    <dc:date>2021-06-10T08:56:25.443890</dc:date>
    <dc:format>image/svg+xml</dc:format>
    <dc:creator>
     <cc:Agent>
      <dc:title>Matplotlib v3.3.1, https://matplotlib.org/</dc:title>
     </cc:Agent>
    </dc:creator>
   </cc:Work>
  </rdf:RDF>
 </metadata>
 <defs>
  <style type="text/css">*{stroke-linecap:butt;stroke-linejoin:round;}</style>
 </defs>
 <g id="figure_1">
  <g id="patch_1">
   <path d="M 0 345.6 
L 460.8 345.6 
L 460.8 0 
L 0 0 
z
" style="fill:#ffffff;"/>
  </g>
  <g id="axes_1">
   <g id="patch_2">
    <path d="M 50.87 303.64 
L 450 303.64 
L 450 10.8 
L 50.87 10.8 
z
" style="fill:#ffffff;"/>
   </g>
   <g id="PolyCollection_1">
    <path clip-path="url(#pb167cba25a)" d="M 69.012273 177.723117 
L 69.012273 290.329091 
L 71.447477 202.803375 
L 73.882682 131.821708 
L 76.317886 106.98062 
L 78.75309 94.10356 
L 81.188295 77.977379 
L 83.623499 76.611108 
L 86.058703 68.490991 
L 88.493908 59.222788 
L 90.929112 58.342694 
L 93.364317 48.603275 
L 95.799521 53.000491 
L 98.234725 49.077531 
L 100.66993 42.186159 
L 103.105134 45.926152 
L 105.540339 40.77263 
L 107.975543 39.701511 
L 110.410747 42.977854 
L 112.845952 39.98288 
L 115.281156 40.851134 
L 117.716361 39.27178 
L 120.151565 40.931566 
L 122.586769 37.118794 
L 125.021974 37.040686 
L 127.457178 36.176655 
L 129.892383 39.521262 
L 132.327587 36.180294 
L 134.762791 35.356632 
L 137.197996 34.680556 
L 139.6332 34.683055 
L 142.068405 35.527203 
L 144.503609 35.336658 
L 146.938813 35.268899 
L 149.374018 34.480273 
L 151.809222 35.588677 
L 154.244426 36.653135 
L 156.679631 35.153797 
L 159.114835 33.163184 
L 161.55004 35.60305 
L 163.985244 34.867059 
L 166.420448 35.139726 
L 168.855653 34.221411 
L 171.290857 33.635097 
L 173.726062 33.236121 
L 176.161266 34.954745 
L 178.59647 33.207181 
L 181.031675 32.67951 
L 183.466879 34.330227 
L 185.902084 32.294197 
L 188.337288 35.591727 
L 190.772492 33.515961 
L 193.207697 33.272754 
L 195.642901 34.330227 
L 198.078106 35.624434 
L 200.51331 30.476183 
L 202.948514 33.751097 
L 205.383719 32.728951 
L 207.818923 31.710692 
L 210.254128 32.401272 
L 212.689332 31.850833 
L 215.124536 32.778633 
L 217.559741 31.087139 
L 219.994945 33.839539 
L 222.430149 31.850833 
L 224.865354 34.915127 
L 227.300558 33.236121 
L 229.735763 31.478373 
L 232.170967 31.456127 
L 234.606171 32.975683 
L 237.041376 33.093712 
L 239.47658 33.636418 
L 241.911785 33.163318 
L 244.346989 32.77702 
L 246.782193 32.66034 
L 249.217398 31.710692 
L 251.652602 33.539416 
L 254.087807 32.734716 
L 256.523011 33.667238 
L 258.958215 35.377668 
L 261.39342 32.588839 
L 263.828624 31.779347 
L 266.263829 32.163765 
L 268.699033 32.506622 
L 271.134237 32.778633 
L 273.569442 33.617162 
L 276.004646 33.339671 
L 278.439851 32.328251 
L 280.875055 32.105397 
L 283.310259 33.354326 
L 285.745464 31.478373 
L 288.180668 32.401272 
L 290.615872 32.984026 
L 293.051077 32.558514 
L 295.486281 32.67951 
L 297.921486 30.476183 
L 300.35669 32.414265 
L 302.791894 30.392099 
L 305.227099 31.372043 
L 307.662303 30.017967 
L 310.097508 30.392099 
L 312.532712 30.323444 
L 314.967916 30.476183 
L 317.403121 31.478373 
L 319.838325 31.081238 
L 322.27353 30.23936 
L 324.708734 29.55975 
L 327.143938 30.915078 
L 329.579143 30.476183 
L 332.014347 31.443529 
L 334.449552 30.781661 
L 336.884756 31.443529 
L 339.31996 30.476183 
L 341.755165 31.81372 
L 344.190369 30.915078 
L 346.625574 32.063616 
L 349.060778 30.915078 
L 351.495982 31.443529 
L 353.931187 30.23936 
L 356.366391 30.781661 
L 358.801595 30.915078 
L 361.2368 30.23936 
L 363.672004 30.23936 
L 366.107209 30.23936 
L 368.542413 29.55975 
L 370.977617 30.23936 
L 373.412822 30.017967 
L 375.848026 30.017967 
L 378.283231 30.017967 
L 380.718435 29.55975 
L 383.153639 30.781661 
L 385.588844 29.55975 
L 388.024048 29.55975 
L 390.459253 30.017967 
L 392.894457 29.55975 
L 395.329661 30.23936 
L 397.764866 30.017967 
L 400.20007 30.017967 
L 402.635275 30.017967 
L 405.070479 30.017967 
L 407.505683 30.017967 
L 409.940888 30.017967 
L 412.376092 30.017967 
L 414.811297 30.017967 
L 417.246501 30.017967 
L 419.681705 30.017967 
L 422.11691 30.017967 
L 424.552114 30.017967 
L 426.987318 30.017967 
L 429.422523 30.017967 
L 431.857727 30.017967 
L 431.857727 29.407012 
L 431.857727 29.407012 
L 429.422523 29.407012 
L 426.987318 29.407012 
L 424.552114 29.407012 
L 422.11691 29.407012 
L 419.681705 29.407012 
L 417.246501 29.407012 
L 414.811297 29.407012 
L 412.376092 29.407012 
L 409.940888 29.407012 
L 407.505683 29.407012 
L 405.070479 29.407012 
L 402.635275 29.407012 
L 400.20007 29.407012 
L 397.764866 29.407012 
L 395.329661 29.491096 
L 392.894457 29.55975 
L 390.459253 29.407012 
L 388.024048 29.55975 
L 385.588844 29.55975 
L 383.153639 29.152447 
L 380.718435 29.55975 
L 378.283231 29.407012 
L 375.848026 29.407012 
L 373.412822 29.407012 
L 370.977617 29.491096 
L 368.542413 29.55975 
L 366.107209 29.491096 
L 363.672004 29.491096 
L 361.2368 29.491096 
L 358.801595 29.324507 
L 356.366391 29.152447 
L 353.931187 29.491096 
L 351.495982 29.610663 
L 349.060778 29.324507 
L 346.625574 29.499706 
L 344.190369 29.324507 
L 341.755165 29.54595 
L 339.31996 29.865228 
L 336.884756 29.610663 
L 334.449552 29.152447 
L 332.014347 29.610663 
L 329.579143 29.865228 
L 327.143938 29.324507 
L 324.708734 29.55975 
L 322.27353 29.491096 
L 319.838325 29.769303 
L 317.403121 29.881297 
L 314.967916 29.865228 
L 312.532712 30.323444 
L 310.097508 29.643835 
L 307.662303 29.407012 
L 305.227099 29.376672 
L 302.791894 29.643835 
L 300.35669 29.352708 
L 297.921486 29.865228 
L 295.486281 29.90207 
L 293.051077 29.513937 
L 290.615872 30.004858 
L 288.180668 30.791264 
L 285.745464 29.881297 
L 283.310259 30.449165 
L 280.875055 30.06888 
L 278.439851 29.7442 
L 276.004646 29.343735 
L 273.569442 29.982677 
L 271.134237 29.802947 
L 268.699033 30.380436 
L 266.263829 30.417815 
L 263.828624 29.783975 
L 261.39342 29.78909 
L 258.958215 30.869644 
L 256.523011 30.849034 
L 254.087807 30.45782 
L 251.652602 31.078682 
L 249.217398 30.463585 
L 246.782193 29.615763 
L 244.346989 30.110038 
L 241.911785 30.640173 
L 239.47658 30.065247 
L 237.041376 29.487868 
L 234.606171 29.707723 
L 232.170967 30.20902 
L 229.735763 29.881297 
L 227.300558 30.05824 
L 224.865354 31.637662 
L 222.430149 30.832574 
L 219.994945 29.658474 
L 217.559741 30.06888 
L 215.124536 29.802947 
L 212.689332 30.832574 
L 210.254128 30.791264 
L 207.818923 30.463585 
L 205.383719 31.481844 
L 202.948514 31.37613 
L 200.51331 29.865228 
L 198.078106 33.474003 
L 195.642901 30.797001 
L 193.207697 30.428912 
L 190.772492 30.593008 
L 188.337288 30.757411 
L 185.902084 30.389209 
L 183.466879 30.797001 
L 181.031675 29.90207 
L 178.59647 30.392658 
L 176.161266 30.579786 
L 173.726062 30.05824 
L 171.290857 31.390304 
L 168.855653 31.109468 
L 166.420448 30.089327 
L 163.985244 30.871123 
L 161.55004 32.069824 
L 159.114835 31.353088 
L 156.679631 31.908122 
L 154.244426 34.278168 
L 151.809222 34.22254 
L 149.374018 31.767039 
L 146.938813 34.135015 
L 144.503609 31.928913 
L 142.068405 32.349322 
L 139.6332 33.193471 
L 137.197996 32.279537 
L 134.762791 31.399809 
L 132.327587 32.00171 
L 129.892383 35.075772 
L 127.457178 31.801696 
L 125.021974 33.076009 
L 122.586769 33.303379 
L 120.151565 32.239906 
L 117.716361 32.983259 
L 115.281156 34.662332 
L 112.845952 36.854323 
L 110.410747 35.081259 
L 107.975543 33.266309 
L 105.540339 34.944488 
L 103.105134 38.242514 
L 100.66993 38.927731 
L 98.234725 43.339031 
L 95.799521 41.758066 
L 93.364317 42.387725 
L 90.929112 49.5514 
L 88.493908 44.394619 
L 86.058703 52.945945 
L 83.623499 53.684678 
L 81.188295 64.435686 
L 78.75309 78.144486 
L 76.317886 93.676845 
L 73.882682 110.177062 
L 71.447477 139.49388 
L 69.012273 177.723117 
z
" style="fill:#1f77b4;fill-opacity:0.25;"/>
   </g>
   <g id="PolyCollection_2">
    <path clip-path="url(#pb167cba25a)" d="M 69.012273 171.271017 
L 69.012273 217.764314 
L 71.447477 150.718169 
L 73.882682 105.726352 
L 76.317886 88.766054 
L 78.75309 82.446898 
L 81.188295 79.575789 
L 83.623499 71.659192 
L 86.058703 66.765322 
L 88.493908 56.837735 
L 90.929112 55.049295 
L 93.364317 55.530952 
L 95.799521 50.139873 
L 98.234725 51.829353 
L 100.66993 48.708709 
L 103.105134 47.296892 
L 105.540339 47.551917 
L 107.975543 42.897525 
L 110.410747 44.001495 
L 112.845952 44.114599 
L 115.281156 42.480698 
L 117.716361 45.159693 
L 120.151565 40.5174 
L 122.586769 43.425753 
L 125.021974 40.065105 
L 127.457178 40.749308 
L 129.892383 36.30841 
L 132.327587 39.521262 
L 134.762791 38.241626 
L 137.197996 40.806013 
L 139.6332 39.019053 
L 142.068405 39.721432 
L 144.503609 40.067169 
L 146.938813 35.588677 
L 149.374018 36.261957 
L 151.809222 38.923233 
L 154.244426 38.295557 
L 156.679631 37.642541 
L 159.114835 35.403353 
L 161.55004 36.888251 
L 163.985244 34.412124 
L 166.420448 36.152612 
L 168.855653 35.123296 
L 171.290857 36.395377 
L 173.726062 36.182065 
L 176.161266 35.098266 
L 178.59647 35.551408 
L 181.031675 35.279507 
L 183.466879 36.123658 
L 185.902084 35.607139 
L 188.337288 34.179409 
L 190.772492 35.549774 
L 193.207697 35.943921 
L 195.642901 36.45286 
L 198.078106 36.16073 
L 200.51331 33.207181 
L 202.948514 33.978889 
L 205.383719 34.734838 
L 207.818923 35.276034 
L 210.254128 33.793133 
L 212.689332 36.017188 
L 215.124536 35.276034 
L 217.559741 34.915127 
L 219.994945 35.53305 
L 222.430149 34.600131 
L 224.865354 34.38148 
L 227.300558 34.407847 
L 229.735763 35.279507 
L 232.170967 33.996986 
L 234.606171 33.120825 
L 237.041376 34.56696 
L 239.47658 34.817208 
L 241.911785 31.710692 
L 244.346989 32.334223 
L 246.782193 32.674571 
L 249.217398 33.280495 
L 251.652602 32.812631 
L 254.087807 32.588839 
L 256.523011 31.017324 
L 258.958215 32.588839 
L 261.39342 31.780229 
L 263.828624 32.77702 
L 266.263829 32.334223 
L 268.699033 30.915078 
L 271.134237 32.401272 
L 273.569442 34.221411 
L 276.004646 34.775188 
L 278.439851 31.017324 
L 280.875055 31.780229 
L 283.310259 31.710692 
L 285.745464 32.909351 
L 288.180668 31.780229 
L 290.615872 32.328251 
L 293.051077 32.616117 
L 295.486281 32.003571 
L 297.921486 32.401272 
L 300.35669 30.915078 
L 302.791894 31.443529 
L 305.227099 30.017967 
L 307.662303 31.710692 
L 310.097508 31.081238 
L 312.532712 32.063616 
L 314.967916 32.67951 
L 317.403121 32.102072 
L 319.838325 31.017324 
L 322.27353 32.102072 
L 324.708734 30.392099 
L 327.143938 29.55975 
L 329.579143 30.476183 
L 332.014347 31.656312 
L 334.449552 31.081238 
L 336.884756 31.456127 
L 339.31996 30.915078 
L 341.755165 30.392099 
L 344.190369 31.746883 
L 346.625574 31.478373 
L 349.060778 30.23936 
L 351.495982 32.102072 
L 353.931187 30.23936 
L 356.366391 30.23936 
L 358.801595 30.392099 
L 361.2368 30.23936 
L 363.672004 30.476183 
L 366.107209 29.55975 
L 368.542413 30.23936 
L 370.977617 30.392099 
L 373.412822 30.23936 
L 375.848026 30.23936 
L 378.283231 30.017967 
L 380.718435 30.915078 
L 383.153639 30.915078 
L 385.588844 30.23936 
L 388.024048 30.392099 
L 390.459253 30.23936 
L 392.894457 30.915078 
L 395.329661 31.017324 
L 397.764866 31.081238 
L 400.20007 30.017967 
L 402.635275 30.915078 
L 405.070479 30.781661 
L 407.505683 30.781661 
L 409.940888 30.23936 
L 412.376092 30.781661 
L 414.811297 30.781661 
L 417.246501 30.781661 
L 419.681705 30.781661 
L 422.11691 30.781661 
L 424.552114 30.781661 
L 426.987318 30.781661 
L 429.422523 29.55975 
L 431.857727 30.017967 
L 431.857727 29.407012 
L 431.857727 29.407012 
L 429.422523 29.55975 
L 426.987318 29.152447 
L 424.552114 29.152447 
L 422.11691 29.152447 
L 419.681705 29.152447 
L 417.246501 29.152447 
L 414.811297 29.152447 
L 412.376092 29.152447 
L 409.940888 29.491096 
L 407.505683 29.152447 
L 405.070479 29.152447 
L 402.635275 29.324507 
L 400.20007 29.407012 
L 397.764866 29.769303 
L 395.329661 29.527739 
L 392.894457 29.324507 
L 390.459253 29.491096 
L 388.024048 29.643835 
L 385.588844 29.491096 
L 383.153639 29.324507 
L 380.718435 29.324507 
L 378.283231 29.407012 
L 375.848026 29.491096 
L 373.412822 29.491096 
L 370.977617 29.643835 
L 368.542413 29.491096 
L 366.107209 29.55975 
L 363.672004 29.865228 
L 361.2368 29.491096 
L 358.801595 29.643835 
L 356.366391 29.491096 
L 353.931187 29.491096 
L 351.495982 29.766727 
L 349.060778 29.491096 
L 346.625574 29.881297 
L 344.190369 29.307309 
L 341.755165 29.643835 
L 339.31996 29.324507 
L 336.884756 30.20902 
L 334.449552 29.769303 
L 332.014347 29.092402 
L 329.579143 29.865228 
L 327.143938 29.55975 
L 324.708734 29.643835 
L 322.27353 29.766727 
L 319.838325 29.527739 
L 317.403121 29.766727 
L 314.967916 29.90207 
L 312.532712 29.499706 
L 310.097508 29.769303 
L 307.662303 30.463585 
L 305.227099 29.407012 
L 302.791894 29.610663 
L 300.35669 29.324507 
L 297.921486 30.791264 
L 295.486281 30.374357 
L 293.051077 29.354508 
L 290.615872 29.7442 
L 288.180668 30.08857 
L 285.745464 30.486837 
L 283.310259 30.463585 
L 280.875055 30.08857 
L 278.439851 29.527739 
L 276.004646 31.268473 
L 273.569442 31.109468 
L 271.134237 30.791264 
L 268.699033 29.324507 
L 266.263829 30.043706 
L 263.828624 30.110038 
L 261.39342 30.08857 
L 258.958215 29.78909 
L 256.523011 29.527739 
L 254.087807 29.78909 
L 251.652602 30.48173 
L 249.217398 30.115692 
L 246.782193 30.110661 
L 244.346989 30.043706 
L 241.911785 30.463585 
L 239.47658 31.328278 
L 237.041376 33.818696 
L 234.606171 30.377189 
L 232.170967 31.333893 
L 229.735763 32.597019 
L 227.300558 31.432161 
L 224.865354 31.458528 
L 222.430149 30.730748 
L 219.994945 33.158083 
L 217.559741 31.637662 
L 215.124536 33.415099 
L 212.689332 32.368467 
L 210.254128 31.741398 
L 207.818923 33.415099 
L 205.383719 32.021603 
L 202.948514 32.981204 
L 200.51331 30.392658 
L 198.078106 32.224926 
L 195.642901 33.562009 
L 193.207697 32.950864 
L 190.772492 31.613971 
L 188.337288 32.067903 
L 185.902084 33.083994 
L 183.466879 32.771127 
L 181.031675 32.597019 
L 178.59647 33.954332 
L 176.161266 33.694693 
L 173.726062 32.610894 
L 171.290857 32.092104 
L 168.855653 33.26236 
L 166.420448 34.371387 
L 163.985244 32.242492 
L 161.55004 32.515663 
L 159.114835 33.593257 
L 156.679631 34.510671 
L 154.244426 34.774089 
L 151.809222 35.470149 
L 149.374018 33.447434 
L 146.938813 34.22254 
L 144.503609 34.020735 
L 142.068405 34.162821 
L 139.6332 33.84694 
L 137.197996 35.623886 
L 134.762791 34.522542 
L 132.327587 35.075772 
L 129.892383 34.622892 
L 127.457178 34.560506 
L 125.021974 35.550187 
L 122.586769 35.346141 
L 120.151565 37.541714 
L 117.716361 37.58341 
L 115.281156 38.225888 
L 112.845952 38.73033 
L 110.410747 38.843434 
L 107.975543 39.234623 
L 105.540339 39.977003 
L 103.105134 44.610541 
L 100.66993 41.874987 
L 98.234725 44.151114 
L 95.799521 42.785817 
L 93.364317 49.512018 
L 90.929112 51.724715 
L 88.493908 53.194702 
L 86.058703 57.319086 
L 83.623499 60.46946 
L 81.188295 67.215789 
L 78.75309 69.945103 
L 76.317886 76.863311 
L 73.882682 93.50555 
L 71.447477 99.324844 
L 69.012273 171.271017 
z
" style="fill:#ff7f0e;fill-opacity:0.25;"/>
   </g>
   <g id="PolyCollection_3">
    <path clip-path="url(#pb167cba25a)" d="M 69.012273 145.303524 
L 69.012273 159.725461 
L 71.447477 134.895468 
L 73.882682 98.370419 
L 76.317886 100.728227 
L 78.75309 79.515172 
L 81.188295 63.505096 
L 83.623499 66.313955 
L 86.058703 67.972538 
L 88.493908 60.578072 
L 90.929112 59.609196 
L 93.364317 55.399537 
L 95.799521 49.451369 
L 98.234725 51.395134 
L 100.66993 53.016977 
L 103.105134 46.387341 
L 105.540339 44.795062 
L 107.975543 43.09154 
L 110.410747 41.716948 
L 112.845952 46.477971 
L 115.281156 45.822316 
L 117.716361 41.040254 
L 120.151565 40.1957 
L 122.586769 40.902208 
L 125.021974 40.196693 
L 127.457178 36.594182 
L 129.892383 38.295557 
L 132.327587 40.904194 
L 134.762791 37.038848 
L 137.197996 41.016373 
L 139.6332 38.254612 
L 142.068405 39.755763 
L 144.503609 38.898696 
L 146.938813 38.168137 
L 149.374018 37.929429 
L 151.809222 38.752383 
L 154.244426 37.740119 
L 156.679631 36.770182 
L 159.114835 34.661684 
L 161.55004 37.616107 
L 163.985244 35.064392 
L 166.420448 37.371795 
L 168.855653 35.205186 
L 171.290857 35.460929 
L 173.726062 35.367678 
L 176.161266 35.643631 
L 178.59647 33.938263 
L 181.031675 35.96353 
L 183.466879 34.698632 
L 185.902084 37.477932 
L 188.337288 35.229015 
L 190.772492 35.274684 
L 193.207697 33.484813 
L 195.642901 35.836443 
L 198.078106 36.115908 
L 200.51331 35.305827 
L 202.948514 33.236121 
L 205.383719 34.915127 
L 207.818923 35.807975 
L 210.254128 32.621427 
L 212.689332 33.670472 
L 215.124536 34.859774 
L 217.559741 35.591727 
L 219.994945 35.201271 
L 222.430149 34.595031 
L 224.865354 33.670472 
L 227.300558 35.529767 
L 229.735763 35.864936 
L 232.170967 34.476904 
L 234.606171 34.139792 
L 237.041376 34.315854 
L 239.47658 36.029508 
L 241.911785 33.793133 
L 244.346989 33.063622 
L 246.782193 33.644153 
L 249.217398 34.503071 
L 251.652602 33.207181 
L 254.087807 33.339671 
L 256.523011 32.970917 
L 258.958215 31.780229 
L 261.39342 31.710692 
L 263.828624 33.562475 
L 266.263829 32.702099 
L 268.699033 32.294197 
L 271.134237 32.334223 
L 273.569442 33.207181 
L 276.004646 34.465321 
L 278.439851 33.8455 
L 280.875055 33.73075 
L 283.310259 31.710692 
L 285.745464 32.063616 
L 288.180668 32.797976 
L 290.615872 32.102072 
L 293.051077 31.746883 
L 295.486281 33.232953 
L 297.921486 33.425312 
L 300.35669 31.746883 
L 302.791894 32.66034 
L 305.227099 32.294197 
L 307.662303 31.780229 
L 310.097508 32.102072 
L 312.532712 31.443529 
L 314.967916 31.710692 
L 317.403121 31.081238 
L 319.838325 30.392099 
L 322.27353 30.915078 
L 324.708734 30.476183 
L 327.143938 30.781661 
L 329.579143 30.392099 
L 332.014347 30.915078 
L 334.449552 31.850833 
L 336.884756 31.081238 
L 339.31996 30.915078 
L 341.755165 30.392099 
L 344.190369 30.915078 
L 346.625574 31.478373 
L 349.060778 32.063616 
L 351.495982 31.456127 
L 353.931187 31.017324 
L 356.366391 30.017967 
L 358.801595 30.017967 
L 361.2368 30.23936 
L 363.672004 30.915078 
L 366.107209 30.915078 
L 368.542413 30.23936 
L 370.977617 30.323444 
L 373.412822 30.476183 
L 375.848026 30.476183 
L 378.283231 30.392099 
L 380.718435 30.476183 
L 383.153639 31.081238 
L 385.588844 30.476183 
L 388.024048 31.017324 
L 390.459253 30.392099 
L 392.894457 30.392099 
L 395.329661 31.081238 
L 397.764866 30.017967 
L 400.20007 30.017967 
L 402.635275 30.392099 
L 405.070479 30.392099 
L 407.505683 30.23936 
L 409.940888 30.392099 
L 412.376092 30.392099 
L 414.811297 31.017324 
L 417.246501 30.23936 
L 419.681705 31.017324 
L 422.11691 31.017324 
L 424.552114 30.392099 
L 426.987318 30.915078 
L 429.422523 30.781661 
L 431.857727 30.915078 
L 431.857727 29.324507 
L 431.857727 29.324507 
L 429.422523 29.152447 
L 426.987318 29.324507 
L 424.552114 29.643835 
L 422.11691 29.527739 
L 419.681705 29.527739 
L 417.246501 29.491096 
L 414.811297 29.527739 
L 412.376092 29.643835 
L 409.940888 29.643835 
L 407.505683 29.491096 
L 405.070479 29.643835 
L 402.635275 29.643835 
L 400.20007 29.407012 
L 397.764866 29.407012 
L 395.329661 29.769303 
L 392.894457 29.643835 
L 390.459253 29.643835 
L 388.024048 29.527739 
L 385.588844 29.865228 
L 383.153639 29.769303 
L 380.718435 29.865228 
L 378.283231 29.643835 
L 375.848026 29.865228 
L 373.412822 29.865228 
L 370.977617 30.323444 
L 368.542413 29.491096 
L 366.107209 29.324507 
L 363.672004 29.324507 
L 361.2368 29.491096 
L 358.801595 29.407012 
L 356.366391 29.407012 
L 353.931187 29.527739 
L 351.495982 30.20902 
L 349.060778 29.499706 
L 346.625574 29.881297 
L 344.190369 29.324507 
L 341.755165 29.643835 
L 339.31996 29.324507 
L 336.884756 29.769303 
L 334.449552 29.814315 
L 332.014347 29.324507 
L 329.579143 29.643835 
L 327.143938 29.152447 
L 324.708734 29.865228 
L 322.27353 29.324507 
L 319.838325 29.643835 
L 317.403121 29.769303 
L 314.967916 30.463585 
L 312.532712 29.610663 
L 310.097508 29.766727 
L 307.662303 30.08857 
L 305.227099 30.389209 
L 302.791894 29.615763 
L 300.35669 29.307309 
L 297.921486 29.359921 
L 295.486281 29.755931 
L 293.051077 29.307309 
L 290.615872 29.766727 
L 288.180668 28.968998 
L 285.745464 29.499706 
L 283.310259 30.463585 
L 280.875055 30.378219 
L 278.439851 30.97625 
L 276.004646 30.254603 
L 273.569442 30.392658 
L 271.134237 30.043706 
L 268.699033 30.389209 
L 266.263829 30.89774 
L 263.828624 30.241016 
L 261.39342 30.463585 
L 258.958215 30.08857 
L 256.523011 31.138051 
L 254.087807 29.343735 
L 251.652602 30.392658 
L 249.217398 31.235111 
L 246.782193 30.668467 
L 244.346989 30.230739 
L 241.911785 31.741398 
L 239.47658 31.948844 
L 237.041376 32.949717 
L 234.606171 31.700217 
L 232.170967 32.075885 
L 229.735763 32.317068 
L 227.300558 30.412067 
L 224.865354 30.743974 
L 222.430149 31.550455 
L 219.994945 31.249693 
L 217.559741 30.757411 
L 215.124536 32.8131 
L 212.689332 30.743974 
L 210.254128 31.487542 
L 207.818923 30.846641 
L 205.383719 31.637662 
L 202.948514 30.05824 
L 200.51331 31.654266 
L 198.078106 32.778877 
L 195.642901 34.382078 
L 193.207697 30.216852 
L 190.772492 31.583584 
L 188.337288 31.018297 
L 185.902084 33.758848 
L 183.466879 32.363287 
L 181.031675 33.440384 
L 178.59647 32.512701 
L 176.161266 32.640199 
L 173.726062 31.999719 
L 171.290857 32.721075 
L 168.855653 33.893251 
L 166.420448 32.133945 
L 163.985244 32.91396 
L 161.55004 35.249887 
L 159.114835 31.483803 
L 156.679631 33.550165 
L 154.244426 33.700313 
L 151.809222 35.335522 
L 149.374018 33.103699 
L 146.938813 35.003334 
L 144.503609 34.374601 
L 142.068405 36.266833 
L 139.6332 35.731466 
L 137.197996 36.737263 
L 134.762791 35.012539 
L 132.327587 35.525705 
L 129.892383 34.774089 
L 127.457178 34.744423 
L 125.021974 36.844162 
L 122.586769 36.953254 
L 120.151565 35.928722 
L 117.716361 39.259029 
L 115.281156 35.597051 
L 112.845952 37.894346 
L 110.410747 40.313375 
L 107.975543 37.00409 
L 105.540339 37.642564 
L 103.105134 41.141579 
L 100.66993 44.287227 
L 98.234725 45.196288 
L 95.799521 45.918143 
L 93.364317 45.26492 
L 90.929112 50.728719 
L 88.493908 53.425575 
L 86.058703 52.140661 
L 83.623499 53.188288 
L 81.188295 61.801223 
L 78.75309 71.85857 
L 76.317886 77.833024 
L 73.882682 87.420468 
L 71.447477 106.085043 
L 69.012273 145.303524 
z
" style="fill:#2ca02c;fill-opacity:0.25;"/>
   </g>
   <g id="PolyCollection_4">
    <path clip-path="url(#pb167cba25a)" d="M 69.012273 166.827393 
L 69.012273 205.915798 
L 71.447477 117.714291 
L 73.882682 108.489246 
L 76.317886 85.94313 
L 78.75309 74.6957 
L 81.188295 73.703423 
L 83.623499 61.496555 
L 86.058703 63.241049 
L 88.493908 56.339279 
L 90.929112 56.357245 
L 93.364317 64.74224 
L 95.799521 53.332595 
L 98.234725 109.239653 
L 100.66993 46.796079 
L 103.105134 43.708006 
L 105.540339 45.070493 
L 107.975543 47.12686 
L 110.410747 43.890536 
L 112.845952 43.046902 
L 115.281156 42.9792 
L 117.716361 43.312724 
L 120.151565 40.161753 
L 122.586769 38.601034 
L 125.021974 41.240845 
L 127.457178 38.414097 
L 129.892383 40.682084 
L 132.327587 40.900969 
L 134.762791 36.45286 
L 137.197996 41.598473 
L 139.6332 38.226589 
L 142.068405 40.146534 
L 144.503609 36.097807 
L 146.938813 37.479559 
L 149.374018 38.051581 
L 151.809222 38.731801 
L 154.244426 37.814567 
L 156.679631 37.645171 
L 159.114835 36.140006 
L 161.55004 36.59118 
L 163.985244 37.291379 
L 166.420448 36.888251 
L 168.855653 35.268899 
L 171.290857 34.724746 
L 173.726062 35.470357 
L 176.161266 34.934956 
L 178.59647 35.920542 
L 181.031675 36.47881 
L 183.466879 37.542768 
L 185.902084 36.690023 
L 188.337288 36.690023 
L 190.772492 35.143714 
L 193.207697 34.433974 
L 195.642901 35.377668 
L 198.078106 36.082659 
L 200.51331 36.403053 
L 202.948514 33.793133 
L 205.383719 33.74222 
L 207.818923 36.583054 
L 210.254128 34.86074 
L 212.689332 34.595627 
L 215.124536 36.756141 
L 217.559741 33.867659 
L 219.994945 34.167163 
L 222.430149 34.698632 
L 224.865354 32.210854 
L 227.300558 33.893934 
L 229.735763 36.104115 
L 232.170967 33.274272 
L 234.606171 33.598358 
L 237.041376 32.728951 
L 239.47658 35.06986 
L 241.911785 31.81372 
L 244.346989 31.779347 
L 246.782193 33.662297 
L 249.217398 35.582686 
L 251.652602 33.979361 
L 254.087807 32.847373 
L 256.523011 32.847373 
L 258.958215 32.102072 
L 261.39342 31.081238 
L 263.828624 31.780229 
L 266.263829 33.193236 
L 268.699033 32.728951 
L 271.134237 32.702099 
L 273.569442 34.228117 
L 276.004646 32.728951 
L 278.439851 33.093712 
L 280.875055 31.746883 
L 283.310259 34.016046 
L 285.745464 31.478373 
L 288.180668 33.093712 
L 290.615872 31.017324 
L 293.051077 30.23936 
L 295.486281 31.081238 
L 297.921486 31.780229 
L 300.35669 31.081238 
L 302.791894 32.105397 
L 305.227099 31.746883 
L 307.662303 31.017324 
L 310.097508 31.746883 
L 312.532712 30.915078 
L 314.967916 31.664847 
L 317.403121 30.915078 
L 319.838325 31.017324 
L 322.27353 31.656312 
L 324.708734 30.017967 
L 327.143938 30.915078 
L 329.579143 31.017324 
L 332.014347 30.476183 
L 334.449552 30.23936 
L 336.884756 31.017324 
L 339.31996 31.017324 
L 341.755165 29.55975 
L 344.190369 30.392099 
L 346.625574 31.017324 
L 349.060778 30.23936 
L 351.495982 30.392099 
L 353.931187 29.55975 
L 356.366391 29.55975 
L 358.801595 30.23936 
L 361.2368 30.23936 
L 363.672004 30.017967 
L 366.107209 29.55975 
L 368.542413 30.017967 
L 370.977617 30.017967 
L 373.412822 30.017967 
L 375.848026 30.23936 
L 378.283231 30.915078 
L 380.718435 30.017967 
L 383.153639 30.23936 
L 385.588844 30.017967 
L 388.024048 29.55975 
L 390.459253 29.55975 
L 392.894457 29.55975 
L 395.329661 29.55975 
L 397.764866 30.017967 
L 400.20007 30.017967 
L 402.635275 30.017967 
L 405.070479 29.55975 
L 407.505683 29.55975 
L 409.940888 29.55975 
L 412.376092 29.55975 
L 414.811297 29.55975 
L 417.246501 29.55975 
L 419.681705 29.55975 
L 422.11691 29.55975 
L 424.552114 29.55975 
L 426.987318 29.55975 
L 429.422523 29.55975 
L 431.857727 29.55975 
L 431.857727 29.55975 
L 431.857727 29.55975 
L 429.422523 29.55975 
L 426.987318 29.55975 
L 424.552114 29.55975 
L 422.11691 29.55975 
L 419.681705 29.55975 
L 417.246501 29.55975 
L 414.811297 29.55975 
L 412.376092 29.55975 
L 409.940888 29.55975 
L 407.505683 29.55975 
L 405.070479 29.55975 
L 402.635275 29.407012 
L 400.20007 29.407012 
L 397.764866 29.407012 
L 395.329661 29.55975 
L 392.894457 29.55975 
L 390.459253 29.55975 
L 388.024048 29.55975 
L 385.588844 29.407012 
L 383.153639 29.491096 
L 380.718435 29.407012 
L 378.283231 29.324507 
L 375.848026 29.491096 
L 373.412822 29.407012 
L 370.977617 29.407012 
L 368.542413 29.407012 
L 366.107209 29.55975 
L 363.672004 29.407012 
L 361.2368 29.491096 
L 358.801595 29.491096 
L 356.366391 29.55975 
L 353.931187 29.55975 
L 351.495982 29.643835 
L 349.060778 29.491096 
L 346.625574 29.527739 
L 344.190369 29.643835 
L 341.755165 29.55975 
L 339.31996 29.527739 
L 336.884756 29.527739 
L 334.449552 29.491096 
L 332.014347 29.865228 
L 329.579143 29.527739 
L 327.143938 29.324507 
L 324.708734 29.407012 
L 322.27353 29.092402 
L 319.838325 29.527739 
L 317.403121 29.324507 
L 314.967916 29.592997 
L 312.532712 29.324507 
L 310.097508 29.307309 
L 307.662303 29.527739 
L 305.227099 29.307309 
L 302.791894 30.06888 
L 300.35669 29.769303 
L 297.921486 30.08857 
L 295.486281 29.769303 
L 293.051077 29.491096 
L 290.615872 29.527739 
L 288.180668 29.487868 
L 285.745464 29.881297 
L 283.310259 30.805704 
L 280.875055 29.307309 
L 278.439851 29.487868 
L 276.004646 31.481844 
L 273.569442 30.593632 
L 271.134237 30.89774 
L 268.699033 31.481844 
L 266.263829 30.813907 
L 263.828624 30.08857 
L 261.39342 29.769303 
L 258.958215 29.766727 
L 256.523011 30.243337 
L 254.087807 30.243337 
L 251.652602 30.027782 
L 249.217398 31.988362 
L 246.782193 31.261278 
L 244.346989 29.783975 
L 241.911785 29.54595 
L 239.47658 32.806666 
L 237.041376 31.481844 
L 234.606171 31.223391 
L 232.170967 30.834697 
L 229.735763 31.365108 
L 227.300558 31.131467 
L 224.865354 30.065249 
L 222.430149 32.363287 
L 219.994945 31.061891 
L 217.559741 32.176001 
L 215.124536 34.684291 
L 212.689332 32.873595 
L 210.254128 32.710309 
L 207.818923 32.719034 
L 205.383719 31.690485 
L 202.948514 31.741398 
L 200.51331 32.797209 
L 198.078106 31.793867 
L 195.642901 30.869644 
L 193.207697 32.322468 
L 190.772492 32.325509 
L 188.337288 33.528498 
L 185.902084 33.528498 
L 183.466879 32.777579 
L 181.031675 33.434233 
L 178.59647 33.585198 
L 176.161266 32.432441 
L 173.726062 32.711646 
L 171.290857 32.540825 
L 168.855653 34.135015 
L 166.420448 32.515663 
L 163.985244 32.214361 
L 161.55004 33.729167 
L 159.114835 30.107306 
L 156.679631 32.064221 
L 154.244426 35.560556 
L 151.809222 36.374362 
L 149.374018 33.185199 
L 146.938813 34.062698 
L 144.503609 34.731669 
L 142.068405 35.977887 
L 139.6332 33.315668 
L 137.197996 36.562466 
L 134.762791 33.562009 
L 132.327587 37.769099 
L 129.892383 35.544164 
L 127.457178 36.692066 
L 125.021974 36.51279 
L 122.586769 35.079566 
L 120.151565 37.795534 
L 117.716361 38.106643 
L 115.281156 40.476685 
L 112.845952 36.539599 
L 110.410747 39.056219 
L 107.975543 38.67102 
L 105.540339 41.13469 
L 103.105134 39.035097 
L 100.66993 42.565707 
L 98.234725 24.110909 
L 95.799521 48.146469 
L 93.364317 42.744551 
L 90.929112 51.842327 
L 88.493908 44.834307 
L 86.058703 54.835633 
L 83.623499 57.700211 
L 81.188295 61.683657 
L 78.75309 68.735624 
L 76.317886 72.252945 
L 73.882682 91.964567 
L 71.447477 108.603294 
L 69.012273 166.827393 
z
" style="fill:#d62728;fill-opacity:0.25;"/>
   </g>
   <g id="matplotlib.axis_1">
    <g id="xtick_1">
     <g id="line2d_1">
      <defs>
       <path d="M 0 0 
L 0 3.5 
" id="m748443615f" style="stroke:#000000;stroke-width:0.8;"/>
      </defs>
      <g>
       <use style="stroke:#000000;stroke-width:0.8;" x="69.012273" xlink:href="#m748443615f" y="303.64"/>
      </g>
     </g>
     <g id="text_1">
      <!-- 0 -->
      <g transform="translate(65.831023 318.238437)scale(0.1 -0.1)">
       <defs>
        <path d="M 31.78125 66.40625 
Q 24.171875 66.40625 20.328125 58.90625 
Q 16.5 51.421875 16.5 36.375 
Q 16.5 21.390625 20.328125 13.890625 
Q 24.171875 6.390625 31.78125 6.390625 
Q 39.453125 6.390625 43.28125 13.890625 
Q 47.125 21.390625 47.125 36.375 
Q 47.125 51.421875 43.28125 58.90625 
Q 39.453125 66.40625 31.78125 66.40625 
z
M 31.78125 74.21875 
Q 44.046875 74.21875 50.515625 64.515625 
Q 56.984375 54.828125 56.984375 36.375 
Q 56.984375 17.96875 50.515625 8.265625 
Q 44.046875 -1.421875 31.78125 -1.421875 
Q 19.53125 -1.421875 13.0625 8.265625 
Q 6.59375 17.96875 6.59375 36.375 
Q 6.59375 54.828125 13.0625 64.515625 
Q 19.53125 74.21875 31.78125 74.21875 
z
" id="DejaVuSans-48"/>
       </defs>
       <use xlink:href="#DejaVuSans-48"/>
      </g>
     </g>
    </g>
    <g id="xtick_2">
     <g id="line2d_2">
      <g>
       <use style="stroke:#000000;stroke-width:0.8;" x="117.716361" xlink:href="#m748443615f" y="303.64"/>
      </g>
     </g>
     <g id="text_2">
      <!-- 20 -->
      <g transform="translate(111.353861 318.238437)scale(0.1 -0.1)">
       <defs>
        <path d="M 19.1875 8.296875 
L 53.609375 8.296875 
L 53.609375 0 
L 7.328125 0 
L 7.328125 8.296875 
Q 12.9375 14.109375 22.625 23.890625 
Q 32.328125 33.6875 34.8125 36.53125 
Q 39.546875 41.84375 41.421875 45.53125 
Q 43.3125 49.21875 43.3125 52.78125 
Q 43.3125 58.59375 39.234375 62.25 
Q 35.15625 65.921875 28.609375 65.921875 
Q 23.96875 65.921875 18.8125 64.3125 
Q 13.671875 62.703125 7.8125 59.421875 
L 7.8125 69.390625 
Q 13.765625 71.78125 18.9375 73 
Q 24.125 74.21875 28.421875 74.21875 
Q 39.75 74.21875 46.484375 68.546875 
Q 53.21875 62.890625 53.21875 53.421875 
Q 53.21875 48.921875 51.53125 44.890625 
Q 49.859375 40.875 45.40625 35.40625 
Q 44.1875 33.984375 37.640625 27.21875 
Q 31.109375 20.453125 19.1875 8.296875 
z
" id="DejaVuSans-50"/>
       </defs>
       <use xlink:href="#DejaVuSans-50"/>
       <use x="63.623047" xlink:href="#DejaVuSans-48"/>
      </g>
     </g>
    </g>
    <g id="xtick_3">
     <g id="line2d_3">
      <g>
       <use style="stroke:#000000;stroke-width:0.8;" x="166.420448" xlink:href="#m748443615f" y="303.64"/>
      </g>
     </g>
     <g id="text_3">
      <!-- 40 -->
      <g transform="translate(160.057948 318.238437)scale(0.1 -0.1)">
       <defs>
        <path d="M 37.796875 64.3125 
L 12.890625 25.390625 
L 37.796875 25.390625 
z
M 35.203125 72.90625 
L 47.609375 72.90625 
L 47.609375 25.390625 
L 58.015625 25.390625 
L 58.015625 17.1875 
L 47.609375 17.1875 
L 47.609375 0 
L 37.796875 0 
L 37.796875 17.1875 
L 4.890625 17.1875 
L 4.890625 26.703125 
z
" id="DejaVuSans-52"/>
       </defs>
       <use xlink:href="#DejaVuSans-52"/>
       <use x="63.623047" xlink:href="#DejaVuSans-48"/>
      </g>
     </g>
    </g>
    <g id="xtick_4">
     <g id="line2d_4">
      <g>
       <use style="stroke:#000000;stroke-width:0.8;" x="215.124536" xlink:href="#m748443615f" y="303.64"/>
      </g>
     </g>
     <g id="text_4">
      <!-- 60 -->
      <g transform="translate(208.762036 318.238437)scale(0.1 -0.1)">
       <defs>
        <path d="M 33.015625 40.375 
Q 26.375 40.375 22.484375 35.828125 
Q 18.609375 31.296875 18.609375 23.390625 
Q 18.609375 15.53125 22.484375 10.953125 
Q 26.375 6.390625 33.015625 6.390625 
Q 39.65625 6.390625 43.53125 10.953125 
Q 47.40625 15.53125 47.40625 23.390625 
Q 47.40625 31.296875 43.53125 35.828125 
Q 39.65625 40.375 33.015625 40.375 
z
M 52.59375 71.296875 
L 52.59375 62.3125 
Q 48.875 64.0625 45.09375 64.984375 
Q 41.3125 65.921875 37.59375 65.921875 
Q 27.828125 65.921875 22.671875 59.328125 
Q 17.53125 52.734375 16.796875 39.40625 
Q 19.671875 43.65625 24.015625 45.921875 
Q 28.375 48.1875 33.59375 48.1875 
Q 44.578125 48.1875 50.953125 41.515625 
Q 57.328125 34.859375 57.328125 23.390625 
Q 57.328125 12.15625 50.6875 5.359375 
Q 44.046875 -1.421875 33.015625 -1.421875 
Q 20.359375 -1.421875 13.671875 8.265625 
Q 6.984375 17.96875 6.984375 36.375 
Q 6.984375 53.65625 15.1875 63.9375 
Q 23.390625 74.21875 37.203125 74.21875 
Q 40.921875 74.21875 44.703125 73.484375 
Q 48.484375 72.75 52.59375 71.296875 
z
" id="DejaVuSans-54"/>
       </defs>
       <use xlink:href="#DejaVuSans-54"/>
       <use x="63.623047" xlink:href="#DejaVuSans-48"/>
      </g>
     </g>
    </g>
    <g id="xtick_5">
     <g id="line2d_5">
      <g>
       <use style="stroke:#000000;stroke-width:0.8;" x="263.828624" xlink:href="#m748443615f" y="303.64"/>
      </g>
     </g>
     <g id="text_5">
      <!-- 80 -->
      <g transform="translate(257.466124 318.238437)scale(0.1 -0.1)">
       <defs>
        <path d="M 31.78125 34.625 
Q 24.75 34.625 20.71875 30.859375 
Q 16.703125 27.09375 16.703125 20.515625 
Q 16.703125 13.921875 20.71875 10.15625 
Q 24.75 6.390625 31.78125 6.390625 
Q 38.8125 6.390625 42.859375 10.171875 
Q 46.921875 13.96875 46.921875 20.515625 
Q 46.921875 27.09375 42.890625 30.859375 
Q 38.875 34.625 31.78125 34.625 
z
M 21.921875 38.8125 
Q 15.578125 40.375 12.03125 44.71875 
Q 8.5 49.078125 8.5 55.328125 
Q 8.5 64.0625 14.71875 69.140625 
Q 20.953125 74.21875 31.78125 74.21875 
Q 42.671875 74.21875 48.875 69.140625 
Q 55.078125 64.0625 55.078125 55.328125 
Q 55.078125 49.078125 51.53125 44.71875 
Q 48 40.375 41.703125 38.8125 
Q 48.828125 37.15625 52.796875 32.3125 
Q 56.78125 27.484375 56.78125 20.515625 
Q 56.78125 9.90625 50.3125 4.234375 
Q 43.84375 -1.421875 31.78125 -1.421875 
Q 19.734375 -1.421875 13.25 4.234375 
Q 6.78125 9.90625 6.78125 20.515625 
Q 6.78125 27.484375 10.78125 32.3125 
Q 14.796875 37.15625 21.921875 38.8125 
z
M 18.3125 54.390625 
Q 18.3125 48.734375 21.84375 45.5625 
Q 25.390625 42.390625 31.78125 42.390625 
Q 38.140625 42.390625 41.71875 45.5625 
Q 45.3125 48.734375 45.3125 54.390625 
Q 45.3125 60.0625 41.71875 63.234375 
Q 38.140625 66.40625 31.78125 66.40625 
Q 25.390625 66.40625 21.84375 63.234375 
Q 18.3125 60.0625 18.3125 54.390625 
z
" id="DejaVuSans-56"/>
       </defs>
       <use xlink:href="#DejaVuSans-56"/>
       <use x="63.623047" xlink:href="#DejaVuSans-48"/>
      </g>
     </g>
    </g>
    <g id="xtick_6">
     <g id="line2d_6">
      <g>
       <use style="stroke:#000000;stroke-width:0.8;" x="312.532712" xlink:href="#m748443615f" y="303.64"/>
      </g>
     </g>
     <g id="text_6">
      <!-- 100 -->
      <g transform="translate(302.988962 318.238437)scale(0.1 -0.1)">
       <defs>
        <path d="M 12.40625 8.296875 
L 28.515625 8.296875 
L 28.515625 63.921875 
L 10.984375 60.40625 
L 10.984375 69.390625 
L 28.421875 72.90625 
L 38.28125 72.90625 
L 38.28125 8.296875 
L 54.390625 8.296875 
L 54.390625 0 
L 12.40625 0 
z
" id="DejaVuSans-49"/>
       </defs>
       <use xlink:href="#DejaVuSans-49"/>
       <use x="63.623047" xlink:href="#DejaVuSans-48"/>
       <use x="127.246094" xlink:href="#DejaVuSans-48"/>
      </g>
     </g>
    </g>
    <g id="xtick_7">
     <g id="line2d_7">
      <g>
       <use style="stroke:#000000;stroke-width:0.8;" x="361.2368" xlink:href="#m748443615f" y="303.64"/>
      </g>
     </g>
     <g id="text_7">
      <!-- 120 -->
      <g transform="translate(351.69305 318.238437)scale(0.1 -0.1)">
       <use xlink:href="#DejaVuSans-49"/>
       <use x="63.623047" xlink:href="#DejaVuSans-50"/>
       <use x="127.246094" xlink:href="#DejaVuSans-48"/>
      </g>
     </g>
    </g>
    <g id="xtick_8">
     <g id="line2d_8">
      <g>
       <use style="stroke:#000000;stroke-width:0.8;" x="409.940888" xlink:href="#m748443615f" y="303.64"/>
      </g>
     </g>
     <g id="text_8">
      <!-- 140 -->
      <g transform="translate(400.397138 318.238437)scale(0.1 -0.1)">
       <use xlink:href="#DejaVuSans-49"/>
       <use x="63.623047" xlink:href="#DejaVuSans-52"/>
       <use x="127.246094" xlink:href="#DejaVuSans-48"/>
      </g>
     </g>
    </g>
    <g id="text_9">
     <!-- Epochs -->
     <g transform="translate(232.519375 331.916562)scale(0.1 -0.1)">
      <defs>
       <path d="M 9.8125 72.90625 
L 55.90625 72.90625 
L 55.90625 64.59375 
L 19.671875 64.59375 
L 19.671875 43.015625 
L 54.390625 43.015625 
L 54.390625 34.71875 
L 19.671875 34.71875 
L 19.671875 8.296875 
L 56.78125 8.296875 
L 56.78125 0 
L 9.8125 0 
z
" id="DejaVuSans-69"/>
       <path d="M 18.109375 8.203125 
L 18.109375 -20.796875 
L 9.078125 -20.796875 
L 9.078125 54.6875 
L 18.109375 54.6875 
L 18.109375 46.390625 
Q 20.953125 51.265625 25.265625 53.625 
Q 29.59375 56 35.59375 56 
Q 45.5625 56 51.78125 48.09375 
Q 58.015625 40.1875 58.015625 27.296875 
Q 58.015625 14.40625 51.78125 6.484375 
Q 45.5625 -1.421875 35.59375 -1.421875 
Q 29.59375 -1.421875 25.265625 0.953125 
Q 20.953125 3.328125 18.109375 8.203125 
z
M 48.6875 27.296875 
Q 48.6875 37.203125 44.609375 42.84375 
Q 40.53125 48.484375 33.40625 48.484375 
Q 26.265625 48.484375 22.1875 42.84375 
Q 18.109375 37.203125 18.109375 27.296875 
Q 18.109375 17.390625 22.1875 11.75 
Q 26.265625 6.109375 33.40625 6.109375 
Q 40.53125 6.109375 44.609375 11.75 
Q 48.6875 17.390625 48.6875 27.296875 
z
" id="DejaVuSans-112"/>
       <path d="M 30.609375 48.390625 
Q 23.390625 48.390625 19.1875 42.75 
Q 14.984375 37.109375 14.984375 27.296875 
Q 14.984375 17.484375 19.15625 11.84375 
Q 23.34375 6.203125 30.609375 6.203125 
Q 37.796875 6.203125 41.984375 11.859375 
Q 46.1875 17.53125 46.1875 27.296875 
Q 46.1875 37.015625 41.984375 42.703125 
Q 37.796875 48.390625 30.609375 48.390625 
z
M 30.609375 56 
Q 42.328125 56 49.015625 48.375 
Q 55.71875 40.765625 55.71875 27.296875 
Q 55.71875 13.875 49.015625 6.21875 
Q 42.328125 -1.421875 30.609375 -1.421875 
Q 18.84375 -1.421875 12.171875 6.21875 
Q 5.515625 13.875 5.515625 27.296875 
Q 5.515625 40.765625 12.171875 48.375 
Q 18.84375 56 30.609375 56 
z
" id="DejaVuSans-111"/>
       <path d="M 48.78125 52.59375 
L 48.78125 44.1875 
Q 44.96875 46.296875 41.140625 47.34375 
Q 37.3125 48.390625 33.40625 48.390625 
Q 24.65625 48.390625 19.8125 42.84375 
Q 14.984375 37.3125 14.984375 27.296875 
Q 14.984375 17.28125 19.8125 11.734375 
Q 24.65625 6.203125 33.40625 6.203125 
Q 37.3125 6.203125 41.140625 7.25 
Q 44.96875 8.296875 48.78125 10.40625 
L 48.78125 2.09375 
Q 45.015625 0.34375 40.984375 -0.53125 
Q 36.96875 -1.421875 32.421875 -1.421875 
Q 20.0625 -1.421875 12.78125 6.34375 
Q 5.515625 14.109375 5.515625 27.296875 
Q 5.515625 40.671875 12.859375 48.328125 
Q 20.21875 56 33.015625 56 
Q 37.15625 56 41.109375 55.140625 
Q 45.0625 54.296875 48.78125 52.59375 
z
" id="DejaVuSans-99"/>
       <path d="M 54.890625 33.015625 
L 54.890625 0 
L 45.90625 0 
L 45.90625 32.71875 
Q 45.90625 40.484375 42.875 44.328125 
Q 39.84375 48.1875 33.796875 48.1875 
Q 26.515625 48.1875 22.3125 43.546875 
Q 18.109375 38.921875 18.109375 30.90625 
L 18.109375 0 
L 9.078125 0 
L 9.078125 75.984375 
L 18.109375 75.984375 
L 18.109375 46.1875 
Q 21.34375 51.125 25.703125 53.5625 
Q 30.078125 56 35.796875 56 
Q 45.21875 56 50.046875 50.171875 
Q 54.890625 44.34375 54.890625 33.015625 
z
" id="DejaVuSans-104"/>
       <path d="M 44.28125 53.078125 
L 44.28125 44.578125 
Q 40.484375 46.53125 36.375 47.5 
Q 32.28125 48.484375 27.875 48.484375 
Q 21.1875 48.484375 17.84375 46.4375 
Q 14.5 44.390625 14.5 40.28125 
Q 14.5 37.15625 16.890625 35.375 
Q 19.28125 33.59375 26.515625 31.984375 
L 29.59375 31.296875 
Q 39.15625 29.25 43.1875 25.515625 
Q 47.21875 21.78125 47.21875 15.09375 
Q 47.21875 7.46875 41.1875 3.015625 
Q 35.15625 -1.421875 24.609375 -1.421875 
Q 20.21875 -1.421875 15.453125 -0.5625 
Q 10.6875 0.296875 5.421875 2 
L 5.421875 11.28125 
Q 10.40625 8.6875 15.234375 7.390625 
Q 20.0625 6.109375 24.8125 6.109375 
Q 31.15625 6.109375 34.5625 8.28125 
Q 37.984375 10.453125 37.984375 14.40625 
Q 37.984375 18.0625 35.515625 20.015625 
Q 33.0625 21.96875 24.703125 23.78125 
L 21.578125 24.515625 
Q 13.234375 26.265625 9.515625 29.90625 
Q 5.8125 33.546875 5.8125 39.890625 
Q 5.8125 47.609375 11.28125 51.796875 
Q 16.75 56 26.8125 56 
Q 31.78125 56 36.171875 55.265625 
Q 40.578125 54.546875 44.28125 53.078125 
z
" id="DejaVuSans-115"/>
      </defs>
      <use xlink:href="#DejaVuSans-69"/>
      <use x="63.183594" xlink:href="#DejaVuSans-112"/>
      <use x="126.660156" xlink:href="#DejaVuSans-111"/>
      <use x="187.841797" xlink:href="#DejaVuSans-99"/>
      <use x="242.822266" xlink:href="#DejaVuSans-104"/>
      <use x="306.201172" xlink:href="#DejaVuSans-115"/>
     </g>
    </g>
   </g>
   <g id="matplotlib.axis_2">
    <g id="ytick_1">
     <g id="line2d_9">
      <defs>
       <path d="M 0 0 
L -3.5 0 
" id="mf8d81ff27d" style="stroke:#000000;stroke-width:0.8;"/>
      </defs>
      <g>
       <use style="stroke:#000000;stroke-width:0.8;" x="50.87" xlink:href="#mf8d81ff27d" y="290.233986"/>
      </g>
     </g>
     <g id="text_10">
      <!-- 50 -->
      <g transform="translate(31.145 294.033205)scale(0.1 -0.1)">
       <defs>
        <path d="M 10.796875 72.90625 
L 49.515625 72.90625 
L 49.515625 64.59375 
L 19.828125 64.59375 
L 19.828125 46.734375 
Q 21.96875 47.46875 24.109375 47.828125 
Q 26.265625 48.1875 28.421875 48.1875 
Q 40.625 48.1875 47.75 41.5 
Q 54.890625 34.8125 54.890625 23.390625 
Q 54.890625 11.625 47.5625 5.09375 
Q 40.234375 -1.421875 26.90625 -1.421875 
Q 22.3125 -1.421875 17.546875 -0.640625 
Q 12.796875 0.140625 7.71875 1.703125 
L 7.71875 11.625 
Q 12.109375 9.234375 16.796875 8.0625 
Q 21.484375 6.890625 26.703125 6.890625 
Q 35.15625 6.890625 40.078125 11.328125 
Q 45.015625 15.765625 45.015625 23.390625 
Q 45.015625 31 40.078125 35.4375 
Q 35.15625 39.890625 26.703125 39.890625 
Q 22.75 39.890625 18.8125 39.015625 
Q 14.890625 38.140625 10.796875 36.28125 
z
" id="DejaVuSans-53"/>
       </defs>
       <use xlink:href="#DejaVuSans-53"/>
       <use x="63.623047" xlink:href="#DejaVuSans-48"/>
      </g>
     </g>
    </g>
    <g id="ytick_2">
     <g id="line2d_10">
      <g>
       <use style="stroke:#000000;stroke-width:0.8;" x="50.87" xlink:href="#mf8d81ff27d" y="238.099139"/>
      </g>
     </g>
     <g id="text_11">
      <!-- 60 -->
      <g transform="translate(31.145 241.898358)scale(0.1 -0.1)">
       <use xlink:href="#DejaVuSans-54"/>
       <use x="63.623047" xlink:href="#DejaVuSans-48"/>
      </g>
     </g>
    </g>
    <g id="ytick_3">
     <g id="line2d_11">
      <g>
       <use style="stroke:#000000;stroke-width:0.8;" x="50.87" xlink:href="#mf8d81ff27d" y="185.964292"/>
      </g>
     </g>
     <g id="text_12">
      <!-- 70 -->
      <g transform="translate(31.145 189.763511)scale(0.1 -0.1)">
       <defs>
        <path d="M 8.203125 72.90625 
L 55.078125 72.90625 
L 55.078125 68.703125 
L 28.609375 0 
L 18.3125 0 
L 43.21875 64.59375 
L 8.203125 64.59375 
z
" id="DejaVuSans-55"/>
       </defs>
       <use xlink:href="#DejaVuSans-55"/>
       <use x="63.623047" xlink:href="#DejaVuSans-48"/>
      </g>
     </g>
    </g>
    <g id="ytick_4">
     <g id="line2d_12">
      <g>
       <use style="stroke:#000000;stroke-width:0.8;" x="50.87" xlink:href="#mf8d81ff27d" y="133.829445"/>
      </g>
     </g>
     <g id="text_13">
      <!-- 80 -->
      <g transform="translate(31.145 137.628664)scale(0.1 -0.1)">
       <use xlink:href="#DejaVuSans-56"/>
       <use x="63.623047" xlink:href="#DejaVuSans-48"/>
      </g>
     </g>
    </g>
    <g id="ytick_5">
     <g id="line2d_13">
      <g>
       <use style="stroke:#000000;stroke-width:0.8;" x="50.87" xlink:href="#mf8d81ff27d" y="81.694598"/>
      </g>
     </g>
     <g id="text_14">
      <!-- 90 -->
      <g transform="translate(31.145 85.493816)scale(0.1 -0.1)">
       <defs>
        <path d="M 10.984375 1.515625 
L 10.984375 10.5 
Q 14.703125 8.734375 18.5 7.8125 
Q 22.3125 6.890625 25.984375 6.890625 
Q 35.75 6.890625 40.890625 13.453125 
Q 46.046875 20.015625 46.78125 33.40625 
Q 43.953125 29.203125 39.59375 26.953125 
Q 35.25 24.703125 29.984375 24.703125 
Q 19.046875 24.703125 12.671875 31.3125 
Q 6.296875 37.9375 6.296875 49.421875 
Q 6.296875 60.640625 12.9375 67.421875 
Q 19.578125 74.21875 30.609375 74.21875 
Q 43.265625 74.21875 49.921875 64.515625 
Q 56.59375 54.828125 56.59375 36.375 
Q 56.59375 19.140625 48.40625 8.859375 
Q 40.234375 -1.421875 26.421875 -1.421875 
Q 22.703125 -1.421875 18.890625 -0.6875 
Q 15.09375 0.046875 10.984375 1.515625 
z
M 30.609375 32.421875 
Q 37.25 32.421875 41.125 36.953125 
Q 45.015625 41.5 45.015625 49.421875 
Q 45.015625 57.28125 41.125 61.84375 
Q 37.25 66.40625 30.609375 66.40625 
Q 23.96875 66.40625 20.09375 61.84375 
Q 16.21875 57.28125 16.21875 49.421875 
Q 16.21875 41.5 20.09375 36.953125 
Q 23.96875 32.421875 30.609375 32.421875 
z
" id="DejaVuSans-57"/>
       </defs>
       <use xlink:href="#DejaVuSans-57"/>
       <use x="63.623047" xlink:href="#DejaVuSans-48"/>
      </g>
     </g>
    </g>
    <g id="ytick_6">
     <g id="line2d_14">
      <g>
       <use style="stroke:#000000;stroke-width:0.8;" x="50.87" xlink:href="#mf8d81ff27d" y="29.55975"/>
      </g>
     </g>
     <g id="text_15">
      <!-- 100 -->
      <g transform="translate(24.7825 33.358969)scale(0.1 -0.1)">
       <use xlink:href="#DejaVuSans-49"/>
       <use x="63.623047" xlink:href="#DejaVuSans-48"/>
       <use x="127.246094" xlink:href="#DejaVuSans-48"/>
      </g>
     </g>
    </g>
    <g id="text_16">
     <!-- Test Accuracy (%) -->
     <g transform="translate(18.702813 201.723906)rotate(-90)scale(0.1 -0.1)">
      <defs>
       <path d="M -0.296875 72.90625 
L 61.375 72.90625 
L 61.375 64.59375 
L 35.5 64.59375 
L 35.5 0 
L 25.59375 0 
L 25.59375 64.59375 
L -0.296875 64.59375 
z
" id="DejaVuSans-84"/>
       <path d="M 56.203125 29.59375 
L 56.203125 25.203125 
L 14.890625 25.203125 
Q 15.484375 15.921875 20.484375 11.0625 
Q 25.484375 6.203125 34.421875 6.203125 
Q 39.59375 6.203125 44.453125 7.46875 
Q 49.3125 8.734375 54.109375 11.28125 
L 54.109375 2.78125 
Q 49.265625 0.734375 44.1875 -0.34375 
Q 39.109375 -1.421875 33.890625 -1.421875 
Q 20.796875 -1.421875 13.15625 6.1875 
Q 5.515625 13.8125 5.515625 26.8125 
Q 5.515625 40.234375 12.765625 48.109375 
Q 20.015625 56 32.328125 56 
Q 43.359375 56 49.78125 48.890625 
Q 56.203125 41.796875 56.203125 29.59375 
z
M 47.21875 32.234375 
Q 47.125 39.59375 43.09375 43.984375 
Q 39.0625 48.390625 32.421875 48.390625 
Q 24.90625 48.390625 20.390625 44.140625 
Q 15.875 39.890625 15.1875 32.171875 
z
" id="DejaVuSans-101"/>
       <path d="M 18.3125 70.21875 
L 18.3125 54.6875 
L 36.8125 54.6875 
L 36.8125 47.703125 
L 18.3125 47.703125 
L 18.3125 18.015625 
Q 18.3125 11.328125 20.140625 9.421875 
Q 21.96875 7.515625 27.59375 7.515625 
L 36.8125 7.515625 
L 36.8125 0 
L 27.59375 0 
Q 17.1875 0 13.234375 3.875 
Q 9.28125 7.765625 9.28125 18.015625 
L 9.28125 47.703125 
L 2.6875 47.703125 
L 2.6875 54.6875 
L 9.28125 54.6875 
L 9.28125 70.21875 
z
" id="DejaVuSans-116"/>
       <path id="DejaVuSans-32"/>
       <path d="M 34.1875 63.1875 
L 20.796875 26.90625 
L 47.609375 26.90625 
z
M 28.609375 72.90625 
L 39.796875 72.90625 
L 67.578125 0 
L 57.328125 0 
L 50.6875 18.703125 
L 17.828125 18.703125 
L 11.1875 0 
L 0.78125 0 
z
" id="DejaVuSans-65"/>
       <path d="M 8.5 21.578125 
L 8.5 54.6875 
L 17.484375 54.6875 
L 17.484375 21.921875 
Q 17.484375 14.15625 20.5 10.265625 
Q 23.53125 6.390625 29.59375 6.390625 
Q 36.859375 6.390625 41.078125 11.03125 
Q 45.3125 15.671875 45.3125 23.6875 
L 45.3125 54.6875 
L 54.296875 54.6875 
L 54.296875 0 
L 45.3125 0 
L 45.3125 8.40625 
Q 42.046875 3.421875 37.71875 1 
Q 33.40625 -1.421875 27.6875 -1.421875 
Q 18.265625 -1.421875 13.375 4.4375 
Q 8.5 10.296875 8.5 21.578125 
z
M 31.109375 56 
z
" id="DejaVuSans-117"/>
       <path d="M 41.109375 46.296875 
Q 39.59375 47.171875 37.8125 47.578125 
Q 36.03125 48 33.890625 48 
Q 26.265625 48 22.1875 43.046875 
Q 18.109375 38.09375 18.109375 28.8125 
L 18.109375 0 
L 9.078125 0 
L 9.078125 54.6875 
L 18.109375 54.6875 
L 18.109375 46.1875 
Q 20.953125 51.171875 25.484375 53.578125 
Q 30.03125 56 36.53125 56 
Q 37.453125 56 38.578125 55.875 
Q 39.703125 55.765625 41.0625 55.515625 
z
" id="DejaVuSans-114"/>
       <path d="M 34.28125 27.484375 
Q 23.390625 27.484375 19.1875 25 
Q 14.984375 22.515625 14.984375 16.5 
Q 14.984375 11.71875 18.140625 8.90625 
Q 21.296875 6.109375 26.703125 6.109375 
Q 34.1875 6.109375 38.703125 11.40625 
Q 43.21875 16.703125 43.21875 25.484375 
L 43.21875 27.484375 
z
M 52.203125 31.203125 
L 52.203125 0 
L 43.21875 0 
L 43.21875 8.296875 
Q 40.140625 3.328125 35.546875 0.953125 
Q 30.953125 -1.421875 24.3125 -1.421875 
Q 15.921875 -1.421875 10.953125 3.296875 
Q 6 8.015625 6 15.921875 
Q 6 25.140625 12.171875 29.828125 
Q 18.359375 34.515625 30.609375 34.515625 
L 43.21875 34.515625 
L 43.21875 35.40625 
Q 43.21875 41.609375 39.140625 45 
Q 35.0625 48.390625 27.6875 48.390625 
Q 23 48.390625 18.546875 47.265625 
Q 14.109375 46.140625 10.015625 43.890625 
L 10.015625 52.203125 
Q 14.9375 54.109375 19.578125 55.046875 
Q 24.21875 56 28.609375 56 
Q 40.484375 56 46.34375 49.84375 
Q 52.203125 43.703125 52.203125 31.203125 
z
" id="DejaVuSans-97"/>
       <path d="M 32.171875 -5.078125 
Q 28.375 -14.84375 24.75 -17.8125 
Q 21.140625 -20.796875 15.09375 -20.796875 
L 7.90625 -20.796875 
L 7.90625 -13.28125 
L 13.1875 -13.28125 
Q 16.890625 -13.28125 18.9375 -11.515625 
Q 21 -9.765625 23.484375 -3.21875 
L 25.09375 0.875 
L 2.984375 54.6875 
L 12.5 54.6875 
L 29.59375 11.921875 
L 46.6875 54.6875 
L 56.203125 54.6875 
z
" id="DejaVuSans-121"/>
       <path d="M 31 75.875 
Q 24.46875 64.65625 21.28125 53.65625 
Q 18.109375 42.671875 18.109375 31.390625 
Q 18.109375 20.125 21.3125 9.0625 
Q 24.515625 -2 31 -13.1875 
L 23.1875 -13.1875 
Q 15.875 -1.703125 12.234375 9.375 
Q 8.59375 20.453125 8.59375 31.390625 
Q 8.59375 42.28125 12.203125 53.3125 
Q 15.828125 64.359375 23.1875 75.875 
z
" id="DejaVuSans-40"/>
       <path d="M 72.703125 32.078125 
Q 68.453125 32.078125 66.03125 28.46875 
Q 63.625 24.859375 63.625 18.40625 
Q 63.625 12.0625 66.03125 8.421875 
Q 68.453125 4.78125 72.703125 4.78125 
Q 76.859375 4.78125 79.265625 8.421875 
Q 81.6875 12.0625 81.6875 18.40625 
Q 81.6875 24.8125 79.265625 28.4375 
Q 76.859375 32.078125 72.703125 32.078125 
z
M 72.703125 38.28125 
Q 80.421875 38.28125 84.953125 32.90625 
Q 89.5 27.546875 89.5 18.40625 
Q 89.5 9.28125 84.9375 3.921875 
Q 80.375 -1.421875 72.703125 -1.421875 
Q 64.890625 -1.421875 60.34375 3.921875 
Q 55.8125 9.28125 55.8125 18.40625 
Q 55.8125 27.59375 60.375 32.9375 
Q 64.9375 38.28125 72.703125 38.28125 
z
M 22.3125 68.015625 
Q 18.109375 68.015625 15.6875 64.375 
Q 13.28125 60.75 13.28125 54.390625 
Q 13.28125 47.953125 15.671875 44.328125 
Q 18.0625 40.71875 22.3125 40.71875 
Q 26.5625 40.71875 28.96875 44.328125 
Q 31.390625 47.953125 31.390625 54.390625 
Q 31.390625 60.6875 28.953125 64.34375 
Q 26.515625 68.015625 22.3125 68.015625 
z
M 66.40625 74.21875 
L 74.21875 74.21875 
L 28.609375 -1.421875 
L 20.796875 -1.421875 
z
M 22.3125 74.21875 
Q 30.03125 74.21875 34.609375 68.875 
Q 39.203125 63.53125 39.203125 54.390625 
Q 39.203125 45.171875 34.640625 39.84375 
Q 30.078125 34.515625 22.3125 34.515625 
Q 14.546875 34.515625 10.03125 39.859375 
Q 5.515625 45.21875 5.515625 54.390625 
Q 5.515625 63.484375 10.046875 68.84375 
Q 14.59375 74.21875 22.3125 74.21875 
z
" id="DejaVuSans-37"/>
       <path d="M 8.015625 75.875 
L 15.828125 75.875 
Q 23.140625 64.359375 26.78125 53.3125 
Q 30.421875 42.28125 30.421875 31.390625 
Q 30.421875 20.453125 26.78125 9.375 
Q 23.140625 -1.703125 15.828125 -13.1875 
L 8.015625 -13.1875 
Q 14.5 -2 17.703125 9.0625 
Q 20.90625 20.125 20.90625 31.390625 
Q 20.90625 42.671875 17.703125 53.65625 
Q 14.5 64.65625 8.015625 75.875 
z
" id="DejaVuSans-41"/>
      </defs>
      <use xlink:href="#DejaVuSans-84"/>
      <use x="44.083984" xlink:href="#DejaVuSans-101"/>
      <use x="105.607422" xlink:href="#DejaVuSans-115"/>
      <use x="157.707031" xlink:href="#DejaVuSans-116"/>
      <use x="196.916016" xlink:href="#DejaVuSans-32"/>
      <use x="228.703125" xlink:href="#DejaVuSans-65"/>
      <use x="295.361328" xlink:href="#DejaVuSans-99"/>
      <use x="350.341797" xlink:href="#DejaVuSans-99"/>
      <use x="405.322266" xlink:href="#DejaVuSans-117"/>
      <use x="468.701172" xlink:href="#DejaVuSans-114"/>
      <use x="509.814453" xlink:href="#DejaVuSans-97"/>
      <use x="571.09375" xlink:href="#DejaVuSans-99"/>
      <use x="626.074219" xlink:href="#DejaVuSans-121"/>
      <use x="685.253906" xlink:href="#DejaVuSans-32"/>
      <use x="717.041016" xlink:href="#DejaVuSans-40"/>
      <use x="756.054688" xlink:href="#DejaVuSans-37"/>
      <use x="851.074219" xlink:href="#DejaVuSans-41"/>
     </g>
    </g>
   </g>
   <g id="line2d_15">
    <path clip-path="url(#pb167cba25a)" d="M 69.012273 234.026104 
L 71.447477 171.148627 
L 73.882682 120.999385 
L 76.317886 100.328732 
L 78.75309 86.124023 
L 81.188295 71.206533 
L 83.623499 65.147893 
L 86.058703 60.718468 
L 88.493908 51.808704 
L 90.929112 53.947047 
L 93.364317 45.4955 
L 95.799521 47.379278 
L 98.234725 46.208281 
L 100.66993 40.556945 
L 103.105134 42.084333 
L 105.540339 37.858559 
L 107.975543 36.48391 
L 110.410747 39.029557 
L 115.281156 37.756733 
L 117.716361 36.127519 
L 120.151565 36.585736 
L 122.586769 35.211086 
L 125.021974 35.058348 
L 127.457178 33.989176 
L 129.892383 37.298517 
L 132.327587 34.091002 
L 134.762791 33.378221 
L 137.197996 33.480047 
L 139.6332 33.938263 
L 142.068405 33.938263 
L 144.503609 33.632785 
L 146.938813 34.701957 
L 149.374018 33.123656 
L 151.809222 34.905609 
L 154.244426 35.465651 
L 156.679631 33.530959 
L 159.114835 32.258136 
L 161.55004 33.836437 
L 163.985244 32.869091 
L 166.420448 32.614527 
L 168.855653 32.66544 
L 171.290857 32.512701 
L 173.726062 31.647181 
L 176.161266 32.767265 
L 178.59647 31.79992 
L 181.031675 31.29079 
L 183.466879 32.563614 
L 185.902084 31.341703 
L 188.337288 33.174569 
L 190.772492 32.054484 
L 193.207697 31.850833 
L 195.642901 32.563614 
L 198.078106 34.549218 
L 200.51331 30.170706 
L 202.948514 32.563614 
L 205.383719 32.105397 
L 207.818923 31.087139 
L 210.254128 31.596268 
L 212.689332 31.341703 
L 215.124536 31.29079 
L 217.559741 30.578009 
L 219.994945 31.749007 
L 222.430149 31.341703 
L 224.865354 33.276395 
L 227.300558 31.647181 
L 229.735763 30.679835 
L 232.170967 30.832574 
L 234.606171 31.341703 
L 237.041376 31.29079 
L 239.47658 31.850833 
L 241.911785 31.901746 
L 244.346989 31.443529 
L 246.782193 31.138051 
L 249.217398 31.087139 
L 251.652602 32.309049 
L 254.087807 31.596268 
L 256.523011 32.258136 
L 258.958215 33.123656 
L 261.39342 31.188964 
L 263.828624 30.781661 
L 266.263829 31.29079 
L 268.699033 31.443529 
L 271.134237 31.29079 
L 273.569442 31.79992 
L 276.004646 31.341703 
L 278.439851 31.036226 
L 280.875055 31.087139 
L 283.310259 31.901746 
L 285.745464 30.679835 
L 288.180668 31.596268 
L 290.615872 31.494442 
L 293.051077 31.036226 
L 295.486281 31.29079 
L 297.921486 30.170706 
L 300.35669 30.883487 
L 302.791894 30.017967 
L 305.227099 30.374357 
L 307.662303 29.712489 
L 312.532712 30.323444 
L 314.967916 30.170706 
L 317.403121 30.679835 
L 319.838325 30.42527 
L 322.27353 29.865228 
L 324.708734 29.55975 
L 327.143938 30.119793 
L 329.579143 30.170706 
L 332.014347 30.527096 
L 334.449552 29.967054 
L 336.884756 30.527096 
L 339.31996 30.170706 
L 341.755165 30.679835 
L 344.190369 30.119793 
L 346.625574 30.781661 
L 349.060778 30.119793 
L 351.495982 30.527096 
L 353.931187 29.865228 
L 358.801595 30.119793 
L 361.2368 29.865228 
L 366.107209 29.865228 
L 368.542413 29.55975 
L 370.977617 29.865228 
L 373.412822 29.712489 
L 378.283231 29.712489 
L 380.718435 29.55975 
L 383.153639 29.967054 
L 385.588844 29.55975 
L 388.024048 29.55975 
L 390.459253 29.712489 
L 392.894457 29.55975 
L 395.329661 29.865228 
L 397.764866 29.712489 
L 431.857727 29.712489 
L 431.857727 29.712489 
" style="fill:none;stroke:#1f77b4;stroke-linecap:square;stroke-width:1.5;"/>
   </g>
   <g id="line2d_16">
    <path clip-path="url(#pb167cba25a)" d="M 69.012273 194.517665 
L 71.447477 125.021507 
L 73.882682 99.615951 
L 76.317886 82.814682 
L 78.75309 76.196 
L 81.188295 73.395789 
L 83.623499 66.064326 
L 86.058703 62.042204 
L 88.493908 55.016219 
L 90.929112 53.387005 
L 93.364317 52.521485 
L 95.799521 46.462845 
L 98.234725 47.990233 
L 100.66993 45.291848 
L 103.105134 45.953716 
L 105.540339 43.76446 
L 107.975543 41.066074 
L 110.410747 41.422465 
L 112.845952 41.422465 
L 115.281156 40.353293 
L 117.716361 41.371552 
L 120.151565 39.029557 
L 122.586769 39.385947 
L 125.021974 37.807646 
L 127.457178 37.654907 
L 129.892383 35.465651 
L 132.327587 37.298517 
L 134.762791 36.382084 
L 137.197996 38.21495 
L 139.6332 36.432997 
L 142.068405 36.942126 
L 144.503609 37.043952 
L 146.938813 34.905609 
L 149.374018 34.854696 
L 151.809222 37.196691 
L 154.244426 36.534823 
L 156.679631 36.076606 
L 159.114835 34.498305 
L 161.55004 34.701957 
L 163.985244 33.327308 
L 166.420448 35.261999 
L 168.855653 34.192828 
L 176.161266 34.396479 
L 178.59647 34.75287 
L 181.031675 33.938263 
L 183.466879 34.447392 
L 185.902084 34.345566 
L 188.337288 33.123656 
L 190.772492 33.581872 
L 193.207697 34.447392 
L 195.642901 35.007435 
L 198.078106 34.192828 
L 200.51331 31.79992 
L 202.948514 33.480047 
L 205.383719 33.378221 
L 207.818923 34.345566 
L 210.254128 32.767265 
L 212.689332 34.192828 
L 215.124536 34.345566 
L 217.559741 33.276395 
L 219.994945 34.345566 
L 222.430149 32.66544 
L 224.865354 32.920004 
L 227.300558 32.920004 
L 229.735763 33.938263 
L 232.170967 32.66544 
L 234.606171 31.749007 
L 237.041376 34.192828 
L 239.47658 33.072743 
L 241.911785 31.087139 
L 246.782193 31.392616 
L 249.217398 31.698094 
L 251.652602 31.647181 
L 254.087807 31.188964 
L 256.523011 30.272532 
L 258.958215 31.188964 
L 261.39342 30.9344 
L 263.828624 31.443529 
L 266.263829 31.188964 
L 268.699033 30.119793 
L 271.134237 31.596268 
L 273.569442 32.66544 
L 276.004646 33.02183 
L 278.439851 30.272532 
L 280.875055 30.9344 
L 283.310259 31.087139 
L 285.745464 31.698094 
L 288.180668 30.9344 
L 290.615872 31.036226 
L 293.051077 30.985313 
L 295.486281 31.188964 
L 297.921486 31.596268 
L 300.35669 30.119793 
L 302.791894 30.527096 
L 305.227099 29.712489 
L 307.662303 31.087139 
L 310.097508 30.42527 
L 312.532712 30.781661 
L 314.967916 31.29079 
L 317.403121 30.9344 
L 319.838325 30.272532 
L 322.27353 30.9344 
L 324.708734 30.017967 
L 327.143938 29.55975 
L 329.579143 30.170706 
L 332.014347 30.374357 
L 334.449552 30.42527 
L 336.884756 30.832574 
L 339.31996 30.119793 
L 341.755165 30.017967 
L 344.190369 30.527096 
L 346.625574 30.679835 
L 349.060778 29.865228 
L 351.495982 30.9344 
L 353.931187 29.865228 
L 356.366391 29.865228 
L 358.801595 30.017967 
L 361.2368 29.865228 
L 363.672004 30.170706 
L 366.107209 29.55975 
L 368.542413 29.865228 
L 370.977617 30.017967 
L 373.412822 29.865228 
L 375.848026 29.865228 
L 378.283231 29.712489 
L 380.718435 30.119793 
L 383.153639 30.119793 
L 385.588844 29.865228 
L 388.024048 30.017967 
L 390.459253 29.865228 
L 395.329661 30.272532 
L 397.764866 30.42527 
L 400.20007 29.712489 
L 402.635275 30.119793 
L 405.070479 29.967054 
L 426.987318 29.967054 
L 429.422523 29.55975 
L 431.857727 29.712489 
L 431.857727 29.712489 
" style="fill:none;stroke:#ff7f0e;stroke-linecap:square;stroke-width:1.5;"/>
   </g>
   <g id="line2d_17">
    <path clip-path="url(#pb167cba25a)" d="M 69.012273 152.514493 
L 71.447477 120.490255 
L 73.882682 92.895444 
L 76.317886 89.280625 
L 81.188295 62.653159 
L 83.623499 59.751122 
L 86.058703 60.056599 
L 88.493908 57.001823 
L 90.929112 55.168958 
L 93.364317 50.332229 
L 95.799521 47.684756 
L 98.234725 48.295711 
L 100.66993 48.652102 
L 103.105134 43.76446 
L 105.540339 41.218813 
L 107.975543 40.047815 
L 110.410747 41.015161 
L 112.845952 42.186159 
L 115.281156 40.709684 
L 117.716361 40.149641 
L 120.151565 38.062211 
L 122.586769 38.927731 
L 125.021974 38.520427 
L 127.457178 35.669303 
L 129.892383 36.534823 
L 132.327587 38.21495 
L 134.762791 36.025693 
L 137.197996 38.876818 
L 139.6332 36.993039 
L 142.068405 38.011298 
L 144.503609 36.636649 
L 146.938813 36.585736 
L 149.374018 35.516564 
L 151.809222 37.043952 
L 154.244426 35.720216 
L 156.679631 35.160173 
L 159.114835 33.072743 
L 161.55004 36.432997 
L 163.985244 33.989176 
L 166.420448 34.75287 
L 168.855653 34.549218 
L 173.726062 33.683698 
L 176.161266 34.141915 
L 178.59647 33.225482 
L 181.031675 34.701957 
L 183.466879 33.530959 
L 185.902084 35.61839 
L 188.337288 33.123656 
L 190.772492 33.429134 
L 193.207697 31.850833 
L 195.642901 35.109261 
L 198.078106 34.447392 
L 200.51331 33.480047 
L 202.948514 31.647181 
L 205.383719 33.276395 
L 207.818923 33.327308 
L 210.254128 32.054484 
L 212.689332 32.207223 
L 215.124536 33.836437 
L 217.559741 33.174569 
L 219.994945 33.225482 
L 222.430149 33.072743 
L 224.865354 32.207223 
L 227.300558 32.970917 
L 229.735763 34.091002 
L 232.170967 33.276395 
L 234.606171 32.920004 
L 237.041376 33.632785 
L 239.47658 33.989176 
L 244.346989 31.647181 
L 246.782193 32.15631 
L 249.217398 32.869091 
L 251.652602 31.79992 
L 254.087807 31.341703 
L 256.523011 32.054484 
L 258.958215 30.9344 
L 261.39342 31.087139 
L 263.828624 31.901746 
L 266.263829 31.79992 
L 268.699033 31.341703 
L 271.134237 31.188964 
L 276.004646 32.359962 
L 278.439851 32.410875 
L 280.875055 32.054484 
L 283.310259 31.087139 
L 285.745464 30.781661 
L 290.615872 30.9344 
L 293.051077 30.527096 
L 295.486281 31.494442 
L 297.921486 31.392616 
L 300.35669 30.527096 
L 302.791894 31.138051 
L 305.227099 31.341703 
L 307.662303 30.9344 
L 310.097508 30.9344 
L 312.532712 30.527096 
L 314.967916 31.087139 
L 317.403121 30.42527 
L 319.838325 30.017967 
L 324.708734 30.170706 
L 327.143938 29.967054 
L 332.014347 30.119793 
L 334.449552 30.832574 
L 339.31996 30.119793 
L 341.755165 30.017967 
L 344.190369 30.119793 
L 346.625574 30.679835 
L 351.495982 30.832574 
L 356.366391 29.712489 
L 358.801595 29.712489 
L 366.107209 30.119793 
L 368.542413 29.865228 
L 370.977617 30.323444 
L 373.412822 30.170706 
L 375.848026 30.170706 
L 378.283231 30.017967 
L 383.153639 30.42527 
L 385.588844 30.170706 
L 388.024048 30.272532 
L 390.459253 30.017967 
L 392.894457 30.017967 
L 395.329661 30.42527 
L 397.764866 29.712489 
L 400.20007 29.712489 
L 402.635275 30.017967 
L 405.070479 30.017967 
L 407.505683 29.865228 
L 409.940888 30.017967 
L 412.376092 30.017967 
L 414.811297 30.272532 
L 417.246501 29.865228 
L 419.681705 30.272532 
L 422.11691 30.272532 
L 424.552114 30.017967 
L 426.987318 30.119793 
L 429.422523 29.967054 
L 431.857727 30.119793 
L 431.857727 30.119793 
" style="fill:none;stroke:#2ca02c;stroke-linecap:square;stroke-width:1.5;"/>
   </g>
   <g id="line2d_18">
    <path clip-path="url(#pb167cba25a)" d="M 69.012273 186.371595 
L 71.447477 113.158792 
L 73.882682 100.226907 
L 76.317886 79.098038 
L 78.75309 71.715662 
L 81.188295 67.69354 
L 83.623499 59.598383 
L 86.058703 59.038341 
L 88.493908 50.586793 
L 90.929112 54.099786 
L 93.364317 53.743395 
L 95.799521 50.739532 
L 98.234725 66.675281 
L 100.66993 44.680893 
L 103.105134 41.371552 
L 105.540339 43.102592 
L 107.975543 42.89894 
L 110.410747 41.473378 
L 112.845952 39.793251 
L 115.281156 41.727942 
L 117.716361 40.709684 
L 120.151565 38.978644 
L 122.586769 36.8403 
L 125.021974 38.876818 
L 127.457178 37.553081 
L 129.892383 38.113124 
L 132.327587 39.335034 
L 134.762791 35.007435 
L 137.197996 39.08047 
L 139.6332 35.771129 
L 142.068405 38.062211 
L 144.503609 35.414738 
L 146.938813 35.771129 
L 149.374018 35.61839 
L 151.809222 37.553081 
L 154.244426 36.687562 
L 159.114835 33.123656 
L 161.55004 35.160173 
L 163.985244 34.75287 
L 168.855653 34.701957 
L 171.290857 33.632785 
L 173.726062 34.091002 
L 176.161266 33.683698 
L 178.59647 34.75287 
L 183.466879 35.160173 
L 188.337288 35.109261 
L 190.772492 33.734611 
L 195.642901 33.123656 
L 198.078106 33.938263 
L 200.51331 34.600131 
L 202.948514 32.767265 
L 205.383719 32.716352 
L 207.818923 34.651044 
L 210.254128 33.785524 
L 212.689332 33.734611 
L 215.124536 35.720216 
L 217.559741 33.02183 
L 219.994945 32.614527 
L 222.430149 33.530959 
L 224.865354 31.138051 
L 227.300558 32.512701 
L 229.735763 33.734611 
L 232.170967 32.054484 
L 234.606171 32.410875 
L 237.041376 32.105397 
L 239.47658 33.938263 
L 241.911785 30.679835 
L 244.346989 30.781661 
L 246.782193 32.461788 
L 249.217398 33.785524 
L 251.652602 32.003571 
L 254.087807 31.545355 
L 256.523011 31.545355 
L 261.39342 30.42527 
L 263.828624 30.9344 
L 266.263829 32.003571 
L 268.699033 32.105397 
L 271.134237 31.79992 
L 273.569442 32.410875 
L 276.004646 32.105397 
L 280.875055 30.527096 
L 283.310259 32.410875 
L 285.745464 30.679835 
L 288.180668 31.29079 
L 290.615872 30.272532 
L 293.051077 29.865228 
L 297.921486 30.9344 
L 300.35669 30.42527 
L 302.791894 31.087139 
L 305.227099 30.527096 
L 307.662303 30.272532 
L 310.097508 30.527096 
L 312.532712 30.119793 
L 314.967916 30.628922 
L 317.403121 30.119793 
L 322.27353 30.374357 
L 324.708734 29.712489 
L 327.143938 30.119793 
L 329.579143 30.272532 
L 332.014347 30.170706 
L 334.449552 29.865228 
L 336.884756 30.272532 
L 339.31996 30.272532 
L 341.755165 29.55975 
L 344.190369 30.017967 
L 346.625574 30.272532 
L 349.060778 29.865228 
L 351.495982 30.017967 
L 353.931187 29.55975 
L 356.366391 29.55975 
L 358.801595 29.865228 
L 361.2368 29.865228 
L 366.107209 29.55975 
L 368.542413 29.712489 
L 373.412822 29.712489 
L 378.283231 30.119793 
L 380.718435 29.712489 
L 383.153639 29.865228 
L 388.024048 29.55975 
L 395.329661 29.55975 
L 397.764866 29.712489 
L 402.635275 29.712489 
L 405.070479 29.55975 
L 431.857727 29.55975 
L 431.857727 29.55975 
" style="fill:none;stroke:#d62728;stroke-linecap:square;stroke-width:1.5;"/>
   </g>
   <g id="patch_3">
    <path d="M 50.87 303.64 
L 50.87 10.8 
" style="fill:none;stroke:#000000;stroke-linecap:square;stroke-linejoin:miter;stroke-width:0.8;"/>
   </g>
   <g id="patch_4">
    <path d="M 450 303.64 
L 450 10.8 
" style="fill:none;stroke:#000000;stroke-linecap:square;stroke-linejoin:miter;stroke-width:0.8;"/>
   </g>
   <g id="patch_5">
    <path d="M 50.87 303.64 
L 450 303.64 
" style="fill:none;stroke:#000000;stroke-linecap:square;stroke-linejoin:miter;stroke-width:0.8;"/>
   </g>
   <g id="patch_6">
    <path d="M 50.87 10.8 
L 450 10.8 
" style="fill:none;stroke:#000000;stroke-linecap:square;stroke-linejoin:miter;stroke-width:0.8;"/>
   </g>
   <g id="legend_1">
    <g id="patch_7">
     <path d="M 57.87 298.64 
L 179.355938 298.64 
Q 181.355938 298.64 181.355938 296.64 
L 181.355938 238.9275 
Q 181.355938 236.9275 179.355938 236.9275 
L 57.87 236.9275 
Q 55.87 236.9275 55.87 238.9275 
L 55.87 296.64 
Q 55.87 298.64 57.87 298.64 
z
" style="fill:#ffffff;opacity:0.8;stroke:#cccccc;stroke-linejoin:miter;"/>
    </g>
    <g id="line2d_19">
     <path d="M 59.87 245.025937 
L 79.87 245.025937 
" style="fill:none;stroke:#1f77b4;stroke-linecap:square;stroke-width:1.5;"/>
    </g>
    <g id="line2d_20"/>
    <g id="text_17">
     <!-- AllReduce SGD -->
     <g transform="translate(87.87 248.525937)scale(0.1 -0.1)">
      <defs>
       <path d="M 9.421875 75.984375 
L 18.40625 75.984375 
L 18.40625 0 
L 9.421875 0 
z
" id="DejaVuSans-108"/>
       <path d="M 44.390625 34.1875 
Q 47.5625 33.109375 50.5625 29.59375 
Q 53.5625 26.078125 56.59375 19.921875 
L 66.609375 0 
L 56 0 
L 46.6875 18.703125 
Q 43.0625 26.03125 39.671875 28.421875 
Q 36.28125 30.8125 30.421875 30.8125 
L 19.671875 30.8125 
L 19.671875 0 
L 9.8125 0 
L 9.8125 72.90625 
L 32.078125 72.90625 
Q 44.578125 72.90625 50.734375 67.671875 
Q 56.890625 62.453125 56.890625 51.90625 
Q 56.890625 45.015625 53.6875 40.46875 
Q 50.484375 35.9375 44.390625 34.1875 
z
M 19.671875 64.796875 
L 19.671875 38.921875 
L 32.078125 38.921875 
Q 39.203125 38.921875 42.84375 42.21875 
Q 46.484375 45.515625 46.484375 51.90625 
Q 46.484375 58.296875 42.84375 61.546875 
Q 39.203125 64.796875 32.078125 64.796875 
z
" id="DejaVuSans-82"/>
       <path d="M 45.40625 46.390625 
L 45.40625 75.984375 
L 54.390625 75.984375 
L 54.390625 0 
L 45.40625 0 
L 45.40625 8.203125 
Q 42.578125 3.328125 38.25 0.953125 
Q 33.9375 -1.421875 27.875 -1.421875 
Q 17.96875 -1.421875 11.734375 6.484375 
Q 5.515625 14.40625 5.515625 27.296875 
Q 5.515625 40.1875 11.734375 48.09375 
Q 17.96875 56 27.875 56 
Q 33.9375 56 38.25 53.625 
Q 42.578125 51.265625 45.40625 46.390625 
z
M 14.796875 27.296875 
Q 14.796875 17.390625 18.875 11.75 
Q 22.953125 6.109375 30.078125 6.109375 
Q 37.203125 6.109375 41.296875 11.75 
Q 45.40625 17.390625 45.40625 27.296875 
Q 45.40625 37.203125 41.296875 42.84375 
Q 37.203125 48.484375 30.078125 48.484375 
Q 22.953125 48.484375 18.875 42.84375 
Q 14.796875 37.203125 14.796875 27.296875 
z
" id="DejaVuSans-100"/>
       <path d="M 53.515625 70.515625 
L 53.515625 60.890625 
Q 47.90625 63.578125 42.921875 64.890625 
Q 37.9375 66.21875 33.296875 66.21875 
Q 25.25 66.21875 20.875 63.09375 
Q 16.5 59.96875 16.5 54.203125 
Q 16.5 49.359375 19.40625 46.890625 
Q 22.3125 44.4375 30.421875 42.921875 
L 36.375 41.703125 
Q 47.40625 39.59375 52.65625 34.296875 
Q 57.90625 29 57.90625 20.125 
Q 57.90625 9.515625 50.796875 4.046875 
Q 43.703125 -1.421875 29.984375 -1.421875 
Q 24.8125 -1.421875 18.96875 -0.25 
Q 13.140625 0.921875 6.890625 3.21875 
L 6.890625 13.375 
Q 12.890625 10.015625 18.65625 8.296875 
Q 24.421875 6.59375 29.984375 6.59375 
Q 38.421875 6.59375 43.015625 9.90625 
Q 47.609375 13.234375 47.609375 19.390625 
Q 47.609375 24.75 44.3125 27.78125 
Q 41.015625 30.8125 33.5 32.328125 
L 27.484375 33.5 
Q 16.453125 35.6875 11.515625 40.375 
Q 6.59375 45.0625 6.59375 53.421875 
Q 6.59375 63.09375 13.40625 68.65625 
Q 20.21875 74.21875 32.171875 74.21875 
Q 37.3125 74.21875 42.625 73.28125 
Q 47.953125 72.359375 53.515625 70.515625 
z
" id="DejaVuSans-83"/>
       <path d="M 59.515625 10.40625 
L 59.515625 29.984375 
L 43.40625 29.984375 
L 43.40625 38.09375 
L 69.28125 38.09375 
L 69.28125 6.78125 
Q 63.578125 2.734375 56.6875 0.65625 
Q 49.8125 -1.421875 42 -1.421875 
Q 24.90625 -1.421875 15.25 8.5625 
Q 5.609375 18.5625 5.609375 36.375 
Q 5.609375 54.25 15.25 64.234375 
Q 24.90625 74.21875 42 74.21875 
Q 49.125 74.21875 55.546875 72.453125 
Q 61.96875 70.703125 67.390625 67.28125 
L 67.390625 56.78125 
Q 61.921875 61.421875 55.765625 63.765625 
Q 49.609375 66.109375 42.828125 66.109375 
Q 29.4375 66.109375 22.71875 58.640625 
Q 16.015625 51.171875 16.015625 36.375 
Q 16.015625 21.625 22.71875 14.15625 
Q 29.4375 6.6875 42.828125 6.6875 
Q 48.046875 6.6875 52.140625 7.59375 
Q 56.25 8.5 59.515625 10.40625 
z
" id="DejaVuSans-71"/>
       <path d="M 19.671875 64.796875 
L 19.671875 8.109375 
L 31.59375 8.109375 
Q 46.6875 8.109375 53.6875 14.9375 
Q 60.6875 21.78125 60.6875 36.53125 
Q 60.6875 51.171875 53.6875 57.984375 
Q 46.6875 64.796875 31.59375 64.796875 
z
M 9.8125 72.90625 
L 30.078125 72.90625 
Q 51.265625 72.90625 61.171875 64.09375 
Q 71.09375 55.28125 71.09375 36.53125 
Q 71.09375 17.671875 61.125 8.828125 
Q 51.171875 0 30.078125 0 
L 9.8125 0 
z
" id="DejaVuSans-68"/>
      </defs>
      <use xlink:href="#DejaVuSans-65"/>
      <use x="68.408203" xlink:href="#DejaVuSans-108"/>
      <use x="96.191406" xlink:href="#DejaVuSans-108"/>
      <use x="123.974609" xlink:href="#DejaVuSans-82"/>
      <use x="188.957031" xlink:href="#DejaVuSans-101"/>
      <use x="250.480469" xlink:href="#DejaVuSans-100"/>
      <use x="313.957031" xlink:href="#DejaVuSans-117"/>
      <use x="377.335938" xlink:href="#DejaVuSans-99"/>
      <use x="432.316406" xlink:href="#DejaVuSans-101"/>
      <use x="493.839844" xlink:href="#DejaVuSans-32"/>
      <use x="525.626953" xlink:href="#DejaVuSans-83"/>
      <use x="589.103516" xlink:href="#DejaVuSans-71"/>
      <use x="666.59375" xlink:href="#DejaVuSans-68"/>
     </g>
    </g>
    <g id="line2d_21">
     <path d="M 59.87 259.704062 
L 79.87 259.704062 
" style="fill:none;stroke:#ff7f0e;stroke-linecap:square;stroke-width:1.5;"/>
    </g>
    <g id="line2d_22"/>
    <g id="text_18">
     <!-- GRandK-MN 8 bits -->
     <g transform="translate(87.87 263.204062)scale(0.1 -0.1)">
      <defs>
       <path d="M 54.890625 33.015625 
L 54.890625 0 
L 45.90625 0 
L 45.90625 32.71875 
Q 45.90625 40.484375 42.875 44.328125 
Q 39.84375 48.1875 33.796875 48.1875 
Q 26.515625 48.1875 22.3125 43.546875 
Q 18.109375 38.921875 18.109375 30.90625 
L 18.109375 0 
L 9.078125 0 
L 9.078125 54.6875 
L 18.109375 54.6875 
L 18.109375 46.1875 
Q 21.34375 51.125 25.703125 53.5625 
Q 30.078125 56 35.796875 56 
Q 45.21875 56 50.046875 50.171875 
Q 54.890625 44.34375 54.890625 33.015625 
z
" id="DejaVuSans-110"/>
       <path d="M 9.8125 72.90625 
L 19.671875 72.90625 
L 19.671875 42.09375 
L 52.390625 72.90625 
L 65.09375 72.90625 
L 28.90625 38.921875 
L 67.671875 0 
L 54.6875 0 
L 19.671875 35.109375 
L 19.671875 0 
L 9.8125 0 
z
" id="DejaVuSans-75"/>
       <path d="M 4.890625 31.390625 
L 31.203125 31.390625 
L 31.203125 23.390625 
L 4.890625 23.390625 
z
" id="DejaVuSans-45"/>
       <path d="M 9.8125 72.90625 
L 24.515625 72.90625 
L 43.109375 23.296875 
L 61.8125 72.90625 
L 76.515625 72.90625 
L 76.515625 0 
L 66.890625 0 
L 66.890625 64.015625 
L 48.09375 14.015625 
L 38.1875 14.015625 
L 19.390625 64.015625 
L 19.390625 0 
L 9.8125 0 
z
" id="DejaVuSans-77"/>
       <path d="M 9.8125 72.90625 
L 23.09375 72.90625 
L 55.421875 11.921875 
L 55.421875 72.90625 
L 64.984375 72.90625 
L 64.984375 0 
L 51.703125 0 
L 19.390625 60.984375 
L 19.390625 0 
L 9.8125 0 
z
" id="DejaVuSans-78"/>
       <path d="M 48.6875 27.296875 
Q 48.6875 37.203125 44.609375 42.84375 
Q 40.53125 48.484375 33.40625 48.484375 
Q 26.265625 48.484375 22.1875 42.84375 
Q 18.109375 37.203125 18.109375 27.296875 
Q 18.109375 17.390625 22.1875 11.75 
Q 26.265625 6.109375 33.40625 6.109375 
Q 40.53125 6.109375 44.609375 11.75 
Q 48.6875 17.390625 48.6875 27.296875 
z
M 18.109375 46.390625 
Q 20.953125 51.265625 25.265625 53.625 
Q 29.59375 56 35.59375 56 
Q 45.5625 56 51.78125 48.09375 
Q 58.015625 40.1875 58.015625 27.296875 
Q 58.015625 14.40625 51.78125 6.484375 
Q 45.5625 -1.421875 35.59375 -1.421875 
Q 29.59375 -1.421875 25.265625 0.953125 
Q 20.953125 3.328125 18.109375 8.203125 
L 18.109375 0 
L 9.078125 0 
L 9.078125 75.984375 
L 18.109375 75.984375 
z
" id="DejaVuSans-98"/>
       <path d="M 9.421875 54.6875 
L 18.40625 54.6875 
L 18.40625 0 
L 9.421875 0 
z
M 9.421875 75.984375 
L 18.40625 75.984375 
L 18.40625 64.59375 
L 9.421875 64.59375 
z
" id="DejaVuSans-105"/>
      </defs>
      <use xlink:href="#DejaVuSans-71"/>
      <use x="77.490234" xlink:href="#DejaVuSans-82"/>
      <use x="144.722656" xlink:href="#DejaVuSans-97"/>
      <use x="206.001953" xlink:href="#DejaVuSans-110"/>
      <use x="269.380859" xlink:href="#DejaVuSans-100"/>
      <use x="332.857422" xlink:href="#DejaVuSans-75"/>
      <use x="387.933594" xlink:href="#DejaVuSans-45"/>
      <use x="424.017578" xlink:href="#DejaVuSans-77"/>
      <use x="510.296875" xlink:href="#DejaVuSans-78"/>
      <use x="585.101562" xlink:href="#DejaVuSans-32"/>
      <use x="616.888672" xlink:href="#DejaVuSans-56"/>
      <use x="680.511719" xlink:href="#DejaVuSans-32"/>
      <use x="712.298828" xlink:href="#DejaVuSans-98"/>
      <use x="775.775391" xlink:href="#DejaVuSans-105"/>
      <use x="803.558594" xlink:href="#DejaVuSans-116"/>
      <use x="842.767578" xlink:href="#DejaVuSans-115"/>
     </g>
    </g>
    <g id="line2d_23">
     <path d="M 59.87 274.382187 
L 79.87 274.382187 
" style="fill:none;stroke:#2ca02c;stroke-linecap:square;stroke-width:1.5;"/>
    </g>
    <g id="line2d_24"/>
    <g id="text_19">
     <!-- GRandK-MN 4 bits -->
     <g transform="translate(87.87 277.882187)scale(0.1 -0.1)">
      <use xlink:href="#DejaVuSans-71"/>
      <use x="77.490234" xlink:href="#DejaVuSans-82"/>
      <use x="144.722656" xlink:href="#DejaVuSans-97"/>
      <use x="206.001953" xlink:href="#DejaVuSans-110"/>
      <use x="269.380859" xlink:href="#DejaVuSans-100"/>
      <use x="332.857422" xlink:href="#DejaVuSans-75"/>
      <use x="387.933594" xlink:href="#DejaVuSans-45"/>
      <use x="424.017578" xlink:href="#DejaVuSans-77"/>
      <use x="510.296875" xlink:href="#DejaVuSans-78"/>
      <use x="585.101562" xlink:href="#DejaVuSans-32"/>
      <use x="616.888672" xlink:href="#DejaVuSans-52"/>
      <use x="680.511719" xlink:href="#DejaVuSans-32"/>
      <use x="712.298828" xlink:href="#DejaVuSans-98"/>
      <use x="775.775391" xlink:href="#DejaVuSans-105"/>
      <use x="803.558594" xlink:href="#DejaVuSans-116"/>
      <use x="842.767578" xlink:href="#DejaVuSans-115"/>
     </g>
    </g>
    <g id="line2d_25">
     <path d="M 59.87 289.060312 
L 79.87 289.060312 
" style="fill:none;stroke:#d62728;stroke-linecap:square;stroke-width:1.5;"/>
    </g>
    <g id="line2d_26"/>
    <g id="text_20">
     <!-- GRandK-MN 2 bits -->
     <g transform="translate(87.87 292.560312)scale(0.1 -0.1)">
      <use xlink:href="#DejaVuSans-71"/>
      <use x="77.490234" xlink:href="#DejaVuSans-82"/>
      <use x="144.722656" xlink:href="#DejaVuSans-97"/>
      <use x="206.001953" xlink:href="#DejaVuSans-110"/>
      <use x="269.380859" xlink:href="#DejaVuSans-100"/>
      <use x="332.857422" xlink:href="#DejaVuSans-75"/>
      <use x="387.933594" xlink:href="#DejaVuSans-45"/>
      <use x="424.017578" xlink:href="#DejaVuSans-77"/>
      <use x="510.296875" xlink:href="#DejaVuSans-78"/>
      <use x="585.101562" xlink:href="#DejaVuSans-32"/>
      <use x="616.888672" xlink:href="#DejaVuSans-50"/>
      <use x="680.511719" xlink:href="#DejaVuSans-32"/>
      <use x="712.298828" xlink:href="#DejaVuSans-98"/>
      <use x="775.775391" xlink:href="#DejaVuSans-105"/>
      <use x="803.558594" xlink:href="#DejaVuSans-116"/>
      <use x="842.767578" xlink:href="#DejaVuSans-115"/>
     </g>
    </g>
   </g>
  </g>
 </g>
 <defs>
  <clipPath id="pb167cba25a">
   <rect height="292.84" width="399.13" x="50.87" y="10.8"/>
  </clipPath>
 </defs>
</svg>
