<?xml version="1.0" encoding="utf-8" standalone="no"?>
<!DOCTYPE svg PUBLIC "-//W3C//DTD SVG 1.1//EN"
  "http://www.w3.org/Graphics/SVG/1.1/DTD/svg11.dtd">
<!-- Created with matplotlib (https://matplotlib.org/) -->
<svg height="345.6pt" version="1.1" viewBox="0 0 460.8 345.6" width="460.8pt" xmlns="http://www.w3.org/2000/svg" xmlns:xlink="http://www.w3.org/1999/xlink">
 <metadata>
  <rdf:RDF xmlns:cc="http://creativecommons.org/ns#" xmlns:dc="http://purl.org/dc/elements/1.1/" xmlns:rdf="http://www.w3.org/1999/02/22-rdf-syntax-ns#">
   <cc:Work>
    <dc:type rdf:resource="http://purl.org/dc/dcmitype/StillImage"/>
    <dc:date>2021-06-10T08:57:46.645124</dc:date>
    <dc:format>image/svg+xml</dc:format>
    <dc:creator>
     <cc:Agent>
      <dc:title>Matplotlib v3.3.1, https://matplotlib.org/</dc:title>
     </cc:Agent>
    </dc:creator>
   </cc:Work>
  </rdf:RDF>
 </metadata>
 <defs>
  <style type="text/css">*{stroke-linecap:butt;stroke-linejoin:round;}</style>
 </defs>
 <g id="figure_1">
  <g id="patch_1">
   <path d="M 0 345.6 
L 460.8 345.6 
L 460.8 0 
L 0 0 
z
" style="fill:#ffffff;"/>
  </g>
  <g id="axes_1">
   <g id="patch_2">
    <path d="M 47.72 303.64 
L 450 303.64 
L 450 14.76 
L 47.72 14.76 
z
" style="fill:#ffffff;"/>
   </g>
   <g id="PolyCollection_1">
    <path clip-path="url(#pe069845975)" d="M 66.005455 40.802604 
L 66.005455 41.979646 
L 67.889914 88.835256 
L 69.835834 97.781353 
L 71.750133 104.679396 
L 73.671417 137.331326 
L 75.613456 187.413644 
L 77.535525 210.747209 
L 79.413177 217.046819 
L 81.272762 220.342012 
L 83.16315 217.943777 
L 85.010932 232.784613 
L 86.869041 247.040387 
L 88.76651 248.401217 
L 90.659487 244.612147 
L 92.571394 252.706133 
L 94.534047 249.178948 
L 96.456035 261.045668 
L 98.330483 252.918326 
L 100.217148 258.530559 
L 102.077696 259.887104 
L 104.018585 254.603387 
L 105.939799 251.628373 
L 107.795726 273.554631 
L 109.713654 254.628374 
L 111.594807 260.513619 
L 113.51465 268.696328 
L 115.411189 267.360066 
L 117.313853 263.336193 
L 119.181903 266.840207 
L 121.060066 274.884038 
L 122.948201 271.540501 
L 124.821824 275.373504 
L 126.725349 278.649971 
L 128.631245 269.765859 
L 130.503087 278.424915 
L 132.432516 275.442379 
L 134.338207 279.617393 
L 136.257757 275.108966 
L 138.173715 272.163921 
L 140.078829 273.810945 
L 142.0574 280.528634 
L 143.957345 275.20428 
L 145.851379 281.171338 
L 147.783957 275.302152 
L 149.668348 285.473329 
L 151.567111 278.549751 
L 153.439478 280.372394 
L 155.356569 280.046105 
L 157.221869 278.381856 
L 159.062953 282.357637 
L 160.954669 280.808635 
L 162.866113 283.514675 
L 164.739621 278.759053 
L 166.654266 284.210639 
L 168.516204 288.87576 
L 170.426784 283.989354 
L 172.286851 281.284608 
L 174.158561 288.672529 
L 176.052888 286.928243 
L 177.940774 280.494637 
L 179.874113 288.957053 
L 181.780964 284.022315 
L 183.655797 279.623706 
L 185.568927 284.198743 
L 187.482933 283.593715 
L 189.423206 293.320146 
L 191.31336 290.608574 
L 193.211189 288.021026 
L 195.094281 290.415334 
L 196.995148 286.410395 
L 198.891169 281.789816 
L 200.783684 290.624992 
L 202.662014 290.648159 
L 204.591942 283.061849 
L 206.481967 289.251348 
L 208.356259 287.381949 
L 210.232343 293.429749 
L 212.118516 292.593902 
L 214.027983 290.986944 
L 215.939099 292.699345 
L 217.879597 291.820514 
L 219.818017 292.286056 
L 221.718527 290.71529 
L 223.602902 291.551953 
L 225.550031 288.34608 
L 227.46039 294.023946 
L 229.358287 292.325256 
L 231.193693 289.062324 
L 233.092395 293.844748 
L 235.028062 290.704628 
L 236.935231 293.892858 
L 238.847317 292.171733 
L 240.789304 296.149879 
L 242.674651 293.350941 
L 244.548267 294.501036 
L 246.41446 296.101413 
L 248.282291 295.814309 
L 250.178225 295.777691 
L 252.131312 297.33294 
L 254.026023 296.47463 
L 255.918147 298.976097 
L 257.845949 299.010856 
L 259.761523 298.374279 
L 261.66429 297.417501 
L 263.558135 300.308499 
L 265.4741 300.549981 
L 267.427076 300.84698 
L 269.381667 298.837703 
L 271.30773 301.91931 
L 273.195159 301.929774 
L 275.084969 301.439175 
L 276.986934 302.125021 
L 278.901109 303.263883 
L 280.833834 301.355604 
L 282.716555 302.820925 
L 284.603657 302.384463 
L 286.508247 303.299534 
L 288.364788 302.206533 
L 290.310184 303.078695 
L 292.236515 302.751963 
L 294.151655 302.242961 
L 296.072103 302.533382 
L 297.992039 303.214266 
L 299.845992 302.86998 
L 301.728477 302.754907 
L 303.633898 303.150657 
L 305.53048 303.476913 
L 307.432449 303.549472 
L 309.297922 303.540276 
L 311.182624 303.502376 
L 313.088642 303.489701 
L 315.021929 303.540081 
L 316.926095 303.545249 
L 318.864878 303.601142 
L 320.76196 303.645018 
L 322.693158 303.580732 
L 324.61655 303.591333 
L 326.517818 303.538841 
L 328.428046 303.541157 
L 330.288372 303.546406 
L 332.255826 303.570919 
L 334.137071 303.543187 
L 336.006921 303.616341 
L 337.898355 303.604025 
L 339.77806 303.568074 
L 341.656051 303.56903 
L 343.589522 303.553094 
L 345.524892 303.551858 
L 347.438024 303.596247 
L 349.294273 303.544533 
L 349.294273 303.512843 
L 349.294273 303.512843 
L 347.438024 303.378766 
L 345.524892 303.50521 
L 343.589522 303.488589 
L 341.656051 303.462184 
L 339.77806 303.393914 
L 337.898355 303.376521 
L 336.006921 303.285501 
L 334.137071 303.532416 
L 332.255826 303.415313 
L 330.288372 303.182334 
L 328.428046 303.353191 
L 326.517818 303.445737 
L 324.61655 303.402965 
L 322.693158 303.044686 
L 320.76196 302.131074 
L 318.864878 303.312997 
L 316.926095 302.921924 
L 315.021929 303.446216 
L 313.088642 302.766506 
L 311.182624 303.056262 
L 309.297922 303.257405 
L 307.432449 303.250347 
L 305.53048 302.087378 
L 303.633898 301.070131 
L 301.728477 302.554206 
L 299.845992 300.146818 
L 297.992039 302.226557 
L 296.072103 301.308763 
L 294.151655 299.910054 
L 292.236515 301.709764 
L 290.310184 300.158854 
L 288.364788 299.842454 
L 286.508247 297.444697 
L 284.603657 298.602911 
L 282.716555 300.282798 
L 280.833834 297.341924 
L 278.901109 299.229426 
L 276.986934 298.405865 
L 275.084969 298.717916 
L 273.195159 299.965464 
L 271.30773 298.496616 
L 269.381667 295.098524 
L 267.427076 295.403249 
L 265.4741 296.390005 
L 263.558135 296.126511 
L 261.66429 293.012106 
L 259.761523 295.690307 
L 257.845949 295.632055 
L 255.918147 295.720414 
L 254.026023 291.156453 
L 252.131312 293.488799 
L 250.178225 294.022812 
L 248.282291 294.508097 
L 246.41446 288.426466 
L 244.548267 291.279409 
L 242.674651 289.611231 
L 240.789304 290.54319 
L 238.847317 287.371274 
L 236.935231 290.81275 
L 235.028062 286.017284 
L 233.092395 287.40502 
L 231.193693 282.615473 
L 229.358287 287.561924 
L 227.46039 288.9749 
L 225.550031 285.66194 
L 223.602902 286.351998 
L 221.718527 283.797706 
L 219.818017 287.536239 
L 217.879597 283.637548 
L 215.939099 289.1626 
L 214.027983 283.607864 
L 212.118516 289.084672 
L 210.232343 287.554836 
L 208.356259 280.38017 
L 206.481967 282.079455 
L 204.591942 277.455701 
L 202.662014 284.115914 
L 200.783684 284.720227 
L 198.891169 276.329805 
L 196.995148 282.451951 
L 195.094281 286.013185 
L 193.211189 285.428418 
L 191.31336 282.175091 
L 189.423206 287.681366 
L 187.482933 275.293242 
L 185.568927 278.874718 
L 183.655797 274.399686 
L 181.780964 279.271191 
L 179.874113 287.40376 
L 177.940774 275.994392 
L 176.052888 282.300844 
L 174.158561 281.306969 
L 172.286851 274.538642 
L 170.426784 278.463466 
L 168.516204 284.342354 
L 166.654266 279.534242 
L 164.739621 277.983873 
L 162.866113 275.456916 
L 160.954669 274.56324 
L 159.062953 273.685659 
L 157.221869 272.132095 
L 155.356569 274.287607 
L 153.439478 267.788765 
L 151.567111 274.136442 
L 149.668348 278.90912 
L 147.783957 268.802274 
L 145.851379 279.058461 
L 143.957345 270.073722 
L 142.0574 273.618887 
L 140.078829 270.767425 
L 138.173715 270.084226 
L 136.257757 269.723303 
L 134.338207 270.185643 
L 132.432516 271.477499 
L 130.503087 275.801596 
L 128.631245 264.086712 
L 126.725349 266.977846 
L 124.821824 272.607105 
L 122.948201 266.859674 
L 121.060066 270.856623 
L 119.181903 260.083759 
L 117.313853 254.334585 
L 115.411189 263.07334 
L 113.51465 262.053041 
L 111.594807 257.913213 
L 109.713654 251.453351 
L 107.795726 267.807693 
L 105.939799 243.372096 
L 104.018585 246.242388 
L 102.077696 250.663234 
L 100.217148 251.827944 
L 98.330483 242.815627 
L 96.456035 252.077507 
L 94.534047 244.523818 
L 92.571394 246.99992 
L 90.659487 240.322659 
L 88.76651 239.523949 
L 86.869041 239.271113 
L 85.010932 229.107499 
L 83.16315 207.206411 
L 81.272762 211.533663 
L 79.413177 203.7476 
L 77.535525 196.235134 
L 75.613456 167.886262 
L 73.671417 104.154374 
L 71.750133 81.783691 
L 69.835834 94.143372 
L 67.889914 70.635606 
L 66.005455 40.802604 
z
" style="fill:#1f77b4;fill-opacity:0.25;"/>
   </g>
   <g id="PolyCollection_2">
    <path clip-path="url(#pe069845975)" d="M 66.602106 37.283612 
L 66.602106 37.464162 
L 69.051638 39.585625 
L 71.521875 39.154539 
L 73.979833 45.262857 
L 76.417368 60.021005 
L 78.875306 90.679784 
L 81.334736 105.08225 
L 83.791809 121.10724 
L 86.266844 156.221452 
L 88.699136 154.068468 
L 91.181281 206.515754 
L 93.602629 202.976036 
L 96.044932 224.941723 
L 98.475701 228.278407 
L 100.978004 237.926043 
L 103.411664 236.035448 
L 105.876491 245.567211 
L 108.357228 236.773541 
L 110.788855 243.18863 
L 113.217591 247.654555 
L 115.667341 248.398141 
L 118.094678 241.69522 
L 120.545741 261.978119 
L 122.990955 247.153517 
L 125.431001 260.932397 
L 127.920489 262.092305 
L 130.342935 260.106143 
L 132.770043 257.897293 
L 135.241667 257.586983 
L 137.674956 273.716414 
L 140.13586 268.342398 
L 142.550913 269.507008 
L 144.990708 269.419826 
L 147.449342 267.009492 
L 149.904997 276.111445 
L 152.354398 273.010628 
L 154.825309 276.061851 
L 157.270577 265.437008 
L 159.720408 265.83101 
L 162.133813 269.582828 
L 164.561284 271.289563 
L 166.98512 271.418425 
L 169.446138 274.329334 
L 171.866628 270.137714 
L 174.283763 278.116646 
L 176.730776 269.710363 
L 179.150599 275.146055 
L 181.606732 276.889111 
L 184.084183 273.877814 
L 186.539699 273.881559 
L 189.05816 274.572515 
L 191.506497 276.300144 
L 193.94466 277.691894 
L 196.38068 281.304235 
L 198.803945 288.038939 
L 201.254499 282.98461 
L 203.667823 277.319004 
L 206.087397 285.755401 
L 208.570747 283.119756 
L 211.029492 276.53355 
L 213.432573 285.172382 
L 215.91824 277.486965 
L 218.321366 276.14772 
L 220.789441 284.262618 
L 223.253615 277.719469 
L 225.706854 290.405915 
L 228.103575 285.43648 
L 230.526969 284.679869 
L 232.982624 288.009132 
L 235.432732 284.716255 
L 237.892864 280.219594 
L 240.338755 287.030113 
L 242.783595 286.522472 
L 245.229532 278.456958 
L 247.682975 284.29812 
L 250.144215 282.356987 
L 252.617539 286.076663 
L 255.049451 285.78908 
L 257.476107 286.502814 
L 259.905951 289.254663 
L 262.351117 290.334985 
L 264.78413 288.879719 
L 267.22177 289.927711 
L 269.697687 289.821168 
L 272.151405 291.133348 
L 274.615498 291.572738 
L 277.086352 291.368238 
L 279.545567 290.569662 
L 281.992862 291.856965 
L 284.417829 287.218702 
L 286.869966 293.17672 
L 289.359864 290.464116 
L 291.833198 295.962174 
L 294.30811 290.698659 
L 296.772921 295.143244 
L 299.230131 294.493801 
L 301.693245 295.240224 
L 304.131795 297.091013 
L 306.596893 295.173884 
L 309.040953 295.730181 
L 311.492571 298.773086 
L 313.942579 296.743071 
L 316.410249 300.354888 
L 318.89551 294.846554 
L 321.335526 297.845025 
L 323.803865 298.206258 
L 326.242496 298.901958 
L 328.668337 299.326254 
L 331.126295 298.839473 
L 333.550093 299.782566 
L 336.023435 299.508532 
L 338.43148 300.665584 
L 340.854363 301.614368 
L 343.293532 300.472333 
L 345.71276 300.83212 
L 348.127632 301.264092 
L 350.617146 299.824879 
L 353.071816 302.106386 
L 355.531109 302.765377 
L 358.006072 302.610075 
L 360.46593 301.275437 
L 362.916551 302.885376 
L 365.376125 303.253236 
L 367.843679 303.181897 
L 370.318529 302.952281 
L 372.822913 303.249564 
L 375.301382 303.555253 
L 377.75272 303.478618 
L 380.185387 303.55564 
L 382.653484 303.62498 
L 385.165822 303.783145 
L 387.635876 303.487359 
L 390.115281 303.528432 
L 392.561235 303.632354 
L 395.003047 303.871141 
L 397.445239 303.550065 
L 399.883232 303.680643 
L 402.353983 303.583291 
L 404.785464 303.77166 
L 407.255267 303.647768 
L 409.698468 303.586824 
L 412.119106 303.598751 
L 414.542656 303.598676 
L 417.006073 303.633889 
L 419.461025 303.591279 
L 421.922248 303.689936 
L 424.402607 303.812605 
L 426.846924 303.593406 
L 429.266299 303.60309 
L 431.714545 303.671522 
L 431.714545 302.635685 
L 431.714545 302.635685 
L 429.266299 303.327183 
L 426.846924 303.328778 
L 424.402607 302.764766 
L 421.922248 303.169677 
L 419.461025 303.55398 
L 417.006073 303.461142 
L 414.542656 303.556469 
L 412.119106 303.537539 
L 409.698468 303.550116 
L 407.255267 302.755578 
L 404.785464 302.849879 
L 402.353983 303.150662 
L 399.883232 303.310217 
L 397.445239 303.414214 
L 395.003047 301.396163 
L 392.561235 303.391444 
L 390.115281 302.257006 
L 387.635876 303.071676 
L 385.165822 302.660951 
L 382.653484 302.305479 
L 380.185387 303.359336 
L 377.75272 303.375485 
L 375.301382 302.484876 
L 372.822913 301.655604 
L 370.318529 300.921601 
L 367.843679 301.571108 
L 365.376125 302.548951 
L 362.916551 301.024828 
L 360.46593 298.884828 
L 358.006072 300.429116 
L 355.531109 301.011882 
L 353.071816 300.280074 
L 350.617146 296.959242 
L 348.127632 298.661316 
L 345.71276 296.735912 
L 343.293532 296.699688 
L 340.854363 299.657407 
L 338.43148 298.708301 
L 336.023435 296.209216 
L 333.550093 296.661613 
L 331.126295 297.130762 
L 328.668337 293.945605 
L 326.242496 294.196404 
L 323.803865 294.793366 
L 321.335526 293.666471 
L 318.89551 292.053865 
L 316.410249 296.903176 
L 313.942579 290.473311 
L 311.492571 293.251144 
L 309.040953 292.044777 
L 306.596893 287.934985 
L 304.131795 287.214 
L 301.693245 289.314455 
L 299.230131 290.285155 
L 296.772921 286.100882 
L 294.30811 286.088139 
L 291.833198 289.169419 
L 289.359864 285.366331 
L 286.869966 287.824792 
L 284.417829 285.869641 
L 281.992862 286.616846 
L 279.545567 281.322538 
L 277.086352 286.104086 
L 274.615498 286.833368 
L 272.151405 285.244391 
L 269.697687 283.724193 
L 267.22177 277.738491 
L 264.78413 284.535872 
L 262.351117 283.153954 
L 259.905951 281.754534 
L 257.476107 281.24802 
L 255.049451 280.861528 
L 252.617539 280.918118 
L 250.144215 273.737088 
L 247.682975 279.723228 
L 245.229532 272.626855 
L 242.783595 279.789605 
L 240.338755 279.067561 
L 237.892864 273.013891 
L 235.432732 276.280881 
L 232.982624 282.946464 
L 230.526969 282.235922 
L 228.103575 280.7289 
L 225.706854 287.159504 
L 223.253615 270.938203 
L 220.789441 278.551303 
L 218.321366 272.318117 
L 215.91824 268.564017 
L 213.432573 276.840348 
L 211.029492 268.879865 
L 208.570747 278.554442 
L 206.087397 282.333964 
L 203.667823 274.90453 
L 201.254499 276.782529 
L 198.803945 281.229644 
L 196.38068 277.215981 
L 193.94466 273.888431 
L 191.506497 270.484321 
L 189.05816 271.292274 
L 186.539699 267.774158 
L 184.084183 268.641158 
L 181.606732 271.130994 
L 179.150599 266.707138 
L 176.730776 263.927806 
L 174.283763 272.363452 
L 171.866628 262.981374 
L 169.446138 267.698767 
L 166.98512 262.941944 
L 164.561284 264.549059 
L 162.133813 264.235891 
L 159.720408 263.022583 
L 157.270577 261.26127 
L 154.825309 269.977846 
L 152.354398 267.454588 
L 149.904997 269.064997 
L 147.449342 259.113283 
L 144.990708 263.924949 
L 142.550913 264.210151 
L 140.13586 264.189902 
L 137.674956 266.438482 
L 135.241667 250.311527 
L 132.770043 253.442951 
L 130.342935 257.7339 
L 127.920489 253.863248 
L 125.431001 254.131691 
L 122.990955 242.137058 
L 120.545741 257.960818 
L 118.094678 233.738143 
L 115.667341 237.281434 
L 113.217591 238.397405 
L 110.788855 240.572601 
L 108.357228 233.040203 
L 105.876491 237.347692 
L 103.411664 227.797577 
L 100.978004 228.660369 
L 98.475701 221.855387 
L 96.044932 216.90934 
L 93.602629 196.355502 
L 91.181281 192.409546 
L 88.699136 142.34957 
L 86.266844 141.73126 
L 83.791809 112.43426 
L 81.334736 103.633625 
L 78.875306 83.505903 
L 76.417368 51.649245 
L 73.979833 43.658093 
L 71.521875 38.933411 
L 69.051638 39.585625 
L 66.602106 37.283612 
z
" style="fill:#ff7f0e;fill-opacity:0.25;"/>
   </g>
   <g id="PolyCollection_3">
    <path clip-path="url(#pe069845975)" d="M 66.259183 38.272889 
L 66.259183 39.363686 
L 68.415935 39.787991 
L 70.556782 40.226787 
L 72.672263 50.044359 
L 74.800165 76.858267 
L 76.918509 93.619683 
L 79.038437 108.14315 
L 81.143798 131.680254 
L 83.288915 160.968216 
L 85.430272 168.524422 
L 87.530407 207.217813 
L 89.664662 206.463346 
L 91.746409 221.503747 
L 93.870674 226.440529 
L 95.97175 233.118144 
L 98.063659 237.822838 
L 100.182135 239.364818 
L 102.327982 235.085203 
L 104.405119 246.824292 
L 106.490324 240.229874 
L 108.651625 243.691662 
L 110.774102 239.446811 
L 112.878192 259.579821 
L 115.002062 246.168431 
L 117.092525 258.043031 
L 119.216089 256.178109 
L 121.310332 259.624428 
L 123.453446 262.191167 
L 125.553457 259.887865 
L 127.6729 271.935856 
L 129.74134 263.616568 
L 131.837595 267.744035 
L 133.941898 272.636992 
L 136.039329 264.522745 
L 138.118428 276.025794 
L 140.190829 270.777928 
L 142.294146 274.637649 
L 144.363404 269.334267 
L 146.44385 267.633842 
L 148.547212 269.236508 
L 150.611439 270.689565 
L 152.717684 270.839981 
L 154.844974 276.658965 
L 156.919087 270.258243 
L 159.034381 275.340725 
L 161.141254 271.12039 
L 163.252052 272.826189 
L 165.381198 278.855588 
L 167.523902 275.163308 
L 169.660121 280.223422 
L 171.782349 279.002407 
L 173.946142 277.853333 
L 176.058303 274.911796 
L 178.158763 281.781465 
L 180.238799 280.403003 
L 182.35099 284.985888 
L 184.499789 276.695932 
L 186.60815 283.660031 
L 188.721698 284.232102 
L 190.815811 275.316873 
L 192.916207 286.661096 
L 195.00524 280.104083 
L 197.086735 277.065747 
L 199.194283 279.250906 
L 201.262238 281.618087 
L 203.361193 292.38118 
L 205.441871 288.817954 
L 207.523876 284.300703 
L 209.612339 288.133085 
L 211.745221 285.172763 
L 213.846046 279.013704 
L 215.953953 285.841471 
L 218.023429 283.93104 
L 220.117686 277.862022 
L 222.248171 285.646044 
L 224.342777 280.982753 
L 226.44569 287.413041 
L 228.564927 287.490369 
L 230.660951 288.909128 
L 232.76056 290.243618 
L 234.867822 290.974691 
L 236.947258 293.628361 
L 239.023994 287.221174 
L 241.140629 291.387414 
L 243.22895 288.480742 
L 245.309417 292.442806 
L 247.420342 290.534319 
L 249.534893 291.501829 
L 251.62862 291.392765 
L 253.724593 289.018223 
L 255.844182 295.485041 
L 257.951183 292.690838 
L 260.01616 295.854344 
L 262.112252 292.35544 
L 264.216082 292.76866 
L 266.314434 295.496133 
L 268.438591 293.987066 
L 270.51772 297.382155 
L 272.619142 297.157794 
L 274.706952 295.843795 
L 276.844954 296.293313 
L 278.91716 294.579052 
L 281.044125 299.129774 
L 283.120751 294.957358 
L 285.212004 300.192921 
L 287.302774 298.455205 
L 289.424975 298.614712 
L 291.50838 298.908599 
L 293.624019 299.68912 
L 295.7213 301.984042 
L 297.82544 299.714612 
L 299.914673 300.661379 
L 302.019142 300.762928 
L 304.114073 299.482748 
L 306.208979 301.140968 
L 308.280787 300.394528 
L 310.365089 302.007984 
L 312.434883 301.444444 
L 314.549449 302.912508 
L 316.639559 302.207759 
L 318.76005 302.733065 
L 320.834973 302.713487 
L 322.935686 303.26771 
L 325.03774 303.020977 
L 327.109866 303.653048 
L 329.270311 303.364793 
L 331.351749 303.145495 
L 333.48988 303.967493 
L 335.614678 303.481015 
L 337.750029 303.456944 
L 339.846642 303.737633 
L 341.911224 303.520471 
L 344.012481 303.653933 
L 346.121914 303.579255 
L 348.195951 304.045289 
L 350.319572 303.798873 
L 352.447348 303.555807 
L 354.570749 303.668223 
L 356.669524 303.596025 
L 358.75295 303.539781 
L 360.852171 303.585916 
L 362.927491 303.605786 
L 364.990857 303.596171 
L 367.069776 303.597983 
L 369.127921 303.597662 
L 371.224466 303.661235 
L 373.307756 303.634172 
L 375.411557 303.602753 
L 377.522734 303.572872 
L 379.643381 303.851234 
L 379.643381 302.042728 
L 379.643381 302.042728 
L 377.522734 303.542447 
L 375.411557 303.55032 
L 373.307756 303.328852 
L 371.224466 303.24475 
L 369.127921 303.524621 
L 367.069776 303.57897 
L 364.990857 303.551083 
L 362.927491 303.501224 
L 360.852171 303.527661 
L 358.75295 303.409776 
L 356.669524 303.360916 
L 354.570749 303.166969 
L 352.447348 303.43956 
L 350.319572 302.572426 
L 348.195951 301.851636 
L 346.121914 303.462914 
L 344.012481 302.660349 
L 341.911224 303.170934 
L 339.846642 302.574952 
L 337.750029 302.900823 
L 335.614678 302.948646 
L 333.48988 302.265573 
L 331.351749 302.480198 
L 329.270311 301.422065 
L 327.109866 300.163795 
L 325.03774 301.561353 
L 322.935686 302.294156 
L 320.834973 300.437137 
L 318.76005 300.367308 
L 316.639559 301.69116 
L 314.549449 299.145648 
L 312.434883 297.563404 
L 310.365089 298.71932 
L 308.280787 296.702029 
L 306.208979 298.44203 
L 304.114073 296.168703 
L 302.019142 298.939615 
L 299.914673 297.507194 
L 297.82544 297.295196 
L 295.7213 299.101894 
L 293.624019 295.283154 
L 291.50838 295.658142 
L 289.424975 293.480751 
L 287.302774 295.691193 
L 285.212004 296.969932 
L 283.120751 290.414027 
L 281.044125 294.813505 
L 278.91716 290.702059 
L 276.844954 294.04743 
L 274.706952 291.416314 
L 272.619142 292.446643 
L 270.51772 290.763777 
L 268.438591 290.963977 
L 266.314434 291.037543 
L 264.216082 291.020092 
L 262.112252 284.752962 
L 260.01616 288.897812 
L 257.951183 286.716756 
L 255.844182 290.501344 
L 253.724593 284.555349 
L 251.62862 282.098995 
L 249.534893 286.193361 
L 247.420342 283.978677 
L 245.309417 286.860407 
L 243.22895 283.857191 
L 241.140629 285.190623 
L 239.023994 279.914661 
L 236.947258 288.676496 
L 234.867822 281.650994 
L 232.76056 283.211468 
L 230.660951 283.479584 
L 228.564927 281.343766 
L 226.44569 283.948793 
L 224.342777 276.358245 
L 222.248171 279.447321 
L 220.117686 274.513851 
L 218.023429 279.537374 
L 215.953953 276.707266 
L 213.846046 274.445469 
L 211.745221 282.39188 
L 209.612339 281.891551 
L 207.523876 280.945 
L 205.441871 286.301577 
L 203.361193 285.040364 
L 201.262238 276.586166 
L 199.194283 277.548442 
L 197.086735 271.462154 
L 195.00524 267.532353 
L 192.916207 281.072812 
L 190.815811 270.79053 
L 188.721698 277.041502 
L 186.60815 279.82531 
L 184.499789 269.010875 
L 182.35099 276.959135 
L 180.238799 276.311713 
L 178.158763 278.262142 
L 176.058303 271.297166 
L 173.946142 268.491042 
L 171.782349 274.298785 
L 169.660121 265.934761 
L 167.523902 267.350021 
L 165.381198 268.668004 
L 163.252052 267.142514 
L 161.141254 266.82841 
L 159.034381 272.233647 
L 156.919087 258.110122 
L 154.844974 267.530094 
L 152.717684 264.919651 
L 150.611439 268.037857 
L 148.547212 259.921764 
L 146.44385 257.800586 
L 144.363404 261.71978 
L 142.294146 268.343982 
L 140.190829 265.760325 
L 138.118428 269.444042 
L 136.039329 258.406552 
L 133.941898 262.9703 
L 131.837595 260.398643 
L 129.74134 258.838785 
L 127.6729 264.579828 
L 125.553457 253.178888 
L 123.453446 251.056136 
L 121.310332 254.999569 
L 119.216089 251.144898 
L 117.092525 254.267669 
L 115.002062 241.914716 
L 112.878192 255.992064 
L 110.774102 233.639402 
L 108.651625 232.712157 
L 106.490324 234.977801 
L 104.405119 241.619955 
L 102.327982 229.808554 
L 100.182135 232.773507 
L 98.063659 229.508344 
L 95.97175 227.961493 
L 93.870674 217.667408 
L 91.746409 217.323103 
L 89.664662 197.133685 
L 87.530407 198.703799 
L 85.430272 159.715553 
L 83.288915 147.275846 
L 81.143798 123.843209 
L 79.038437 99.308875 
L 76.918509 90.767079 
L 74.800165 71.418496 
L 72.672263 46.188866 
L 70.556782 38.673638 
L 68.415935 39.112434 
L 66.259183 38.272889 
z
" style="fill:#2ca02c;fill-opacity:0.25;"/>
   </g>
   <g id="PolyCollection_4">
    <path clip-path="url(#pe069845975)" d="M 66.251306 38.637737 
L 66.251306 38.998837 
L 68.373958 40.955789 
L 70.492926 42.095967 
L 72.627769 53.761607 
L 74.761606 67.873351 
L 76.903067 95.017701 
L 79.023167 107.819135 
L 81.135993 119.922092 
L 83.30242 151.098545 
L 85.474038 158.302944 
L 87.629122 202.743256 
L 89.766328 197.749364 
L 91.877036 221.401193 
L 94.048524 221.007412 
L 96.202907 234.986577 
L 98.363065 231.580057 
L 100.484651 239.649944 
L 102.610952 236.839243 
L 104.759386 237.759135 
L 106.920004 245.995212 
L 109.075719 241.401594 
L 111.191206 247.841586 
L 113.343891 263.093166 
L 115.505803 246.491323 
L 117.623009 260.389256 
L 119.777432 260.070163 
L 121.928582 260.761239 
L 124.095171 261.225442 
L 126.264857 254.490664 
L 128.436914 272.151594 
L 130.59611 266.000281 
L 132.717395 269.565319 
L 134.844785 270.890343 
L 136.992191 266.275951 
L 139.12579 276.122448 
L 141.294646 271.019864 
L 143.381528 275.324981 
L 145.498489 268.636527 
L 147.633305 268.351456 
L 149.733914 267.579046 
L 151.864186 273.001379 
L 154.016569 269.961316 
L 156.157667 270.054593 
L 158.319371 273.774313 
L 160.462557 275.305112 
L 162.654196 273.935056 
L 164.804995 271.113957 
L 166.915458 274.420816 
L 169.071797 275.904028 
L 171.186597 280.195434 
L 173.294321 277.864368 
L 175.460891 271.960357 
L 177.584948 275.739557 
L 179.699319 280.902662 
L 181.779254 286.563983 
L 183.914682 281.872605 
L 186.081912 276.054152 
L 188.293547 284.73996 
L 190.413179 283.23806 
L 192.559344 278.586964 
L 194.694624 283.518394 
L 196.864297 279.282574 
L 199.003649 279.19256 
L 201.17084 280.400231 
L 203.289984 280.495215 
L 205.435151 289.941118 
L 207.570628 284.824263 
L 209.736202 286.336639 
L 211.838324 289.815813 
L 213.932943 284.421752 
L 216.10101 276.832444 
L 218.241506 287.707082 
L 220.406262 286.213832 
L 222.542765 276.591719 
L 224.646831 283.609123 
L 226.742256 281.346813 
L 228.901827 288.62994 
L 231.043507 287.338403 
L 233.187105 289.334561 
L 235.352962 289.547945 
L 237.532998 288.2581 
L 239.743244 292.471949 
L 241.836929 286.374627 
L 243.972332 289.761614 
L 246.108005 289.009834 
L 248.320277 293.094391 
L 250.480675 287.960692 
L 252.61611 291.302256 
L 254.735552 293.523789 
L 256.859766 288.468955 
L 258.988561 294.974118 
L 261.104131 293.588188 
L 263.195748 295.117716 
L 265.350171 291.683154 
L 267.476685 291.193222 
L 269.672169 294.213476 
L 271.790247 295.261155 
L 273.944783 295.159538 
L 276.102601 296.033328 
L 278.234746 296.66459 
L 280.388535 296.579465 
L 282.501608 299.547474 
L 284.715464 298.548947 
L 286.866062 295.87438 
L 289.018895 298.772531 
L 291.142959 298.925089 
L 293.33477 298.967109 
L 295.482721 298.605285 
L 297.611987 299.348102 
L 299.783346 301.325592 
L 301.935773 300.420572 
L 304.063349 302.093248 
L 306.267685 301.991053 
L 308.443979 298.071381 
L 310.595087 300.610796 
L 312.714314 301.981288 
L 314.862901 302.823198 
L 316.993752 302.198854 
L 319.145191 302.321848 
L 321.269003 301.78797 
L 323.410766 301.915285 
L 325.532655 302.22758 
L 327.647378 303.194482 
L 329.802845 302.877382 
L 331.969451 303.176647 
L 334.046109 303.196923 
L 336.159071 302.964426 
L 338.273456 303.543214 
L 340.426769 303.503369 
L 342.582164 303.585584 
L 344.745453 303.620382 
L 346.866532 303.515497 
L 348.996629 303.59652 
L 351.199479 303.43666 
L 353.292388 303.565212 
L 355.484071 303.454171 
L 357.658797 304.085405 
L 359.826732 303.626495 
L 361.959009 303.565159 
L 364.061492 303.357468 
L 366.160261 303.63978 
L 368.309437 303.592148 
L 370.442531 303.781296 
L 372.554836 303.608065 
L 374.700426 303.563623 
L 376.866147 303.60529 
L 379.03254 303.604057 
L 381.131666 303.609047 
L 383.272861 303.654389 
L 385.42253 303.577652 
L 385.42253 303.519815 
L 385.42253 303.519815 
L 383.272861 303.404761 
L 381.131666 303.530163 
L 379.03254 303.481067 
L 376.866147 303.543264 
L 374.700426 303.441794 
L 372.554836 303.564579 
L 370.442531 303.030568 
L 368.309437 303.564187 
L 366.160261 303.223569 
L 364.061492 301.227726 
L 361.959009 303.468304 
L 359.826732 303.130391 
L 357.658797 301.053319 
L 355.484071 303.050778 
L 353.292388 303.022628 
L 351.199479 302.133206 
L 348.996629 303.158117 
L 346.866532 302.612857 
L 344.745453 302.748206 
L 342.582164 302.538605 
L 340.426769 300.894443 
L 338.273456 303.354814 
L 336.159071 302.385417 
L 334.046109 301.681357 
L 331.969451 301.644505 
L 329.802845 302.530646 
L 327.647378 301.295457 
L 325.532655 301.108883 
L 323.410766 300.696158 
L 321.269003 298.932282 
L 319.145191 299.824467 
L 316.993752 300.277882 
L 314.862901 299.171483 
L 312.714314 299.16777 
L 310.595087 297.176928 
L 308.443979 293.791342 
L 306.267685 299.849173 
L 304.063349 298.27613 
L 301.935773 296.31559 
L 299.783346 299.736717 
L 297.611987 294.870939 
L 295.482721 294.21802 
L 293.33477 294.445805 
L 291.142959 296.107133 
L 289.018895 296.472683 
L 286.866062 291.072587 
L 284.715464 295.518461 
L 282.501608 291.289781 
L 280.388535 292.944571 
L 278.234746 291.973623 
L 276.102601 291.610449 
L 273.944783 289.919865 
L 271.790247 289.622182 
L 269.672169 289.736079 
L 267.476685 290.045262 
L 265.350171 286.988135 
L 263.195748 287.914983 
L 261.104131 289.28653 
L 258.988561 287.69466 
L 256.859766 282.317376 
L 254.735552 288.250702 
L 252.61611 286.66658 
L 250.480675 282.667658 
L 248.320277 286.764577 
L 246.108005 281.169962 
L 243.972332 284.977069 
L 241.836929 282.295884 
L 239.743244 285.798744 
L 237.532998 283.146051 
L 235.352962 285.010188 
L 233.187105 278.901502 
L 231.043507 282.42105 
L 228.901827 281.657057 
L 226.742256 275.943406 
L 224.646831 279.046816 
L 222.542765 270.435361 
L 220.406262 279.912052 
L 218.241506 279.843455 
L 216.10101 271.430274 
L 213.932943 279.932485 
L 211.838324 284.163997 
L 209.736202 277.097922 
L 207.570628 280.776898 
L 205.435151 285.519766 
L 203.289984 273.522535 
L 201.17084 275.32146 
L 199.003649 268.771123 
L 196.864297 273.781646 
L 194.694624 280.519881 
L 192.559344 268.406262 
L 190.413179 277.905772 
L 188.293547 282.130693 
L 186.081912 269.675225 
L 183.914682 277.91146 
L 181.779254 278.326262 
L 179.699319 275.146276 
L 177.584948 271.77275 
L 175.460891 268.414584 
L 173.294321 271.103624 
L 171.186597 272.236861 
L 169.071797 270.451631 
L 166.915458 270.592003 
L 164.804995 264.216868 
L 162.654196 267.207222 
L 160.462557 269.74156 
L 158.319371 269.026768 
L 156.157667 267.352557 
L 154.016569 263.417312 
L 151.864186 263.040362 
L 149.733914 261.319685 
L 147.633305 258.527372 
L 145.498489 264.426139 
L 143.381528 268.407061 
L 141.294646 265.85692 
L 139.12579 268.986288 
L 136.992191 259.948384 
L 134.844785 267.577538 
L 132.717395 263.012118 
L 130.59611 260.664144 
L 128.436914 266.948212 
L 126.264857 248.397583 
L 124.095171 256.242218 
L 121.928582 255.431286 
L 119.777432 256.42704 
L 117.623009 257.168679 
L 115.505803 242.66384 
L 113.343891 254.656603 
L 111.191206 238.447345 
L 109.075719 236.943137 
L 106.920004 239.481244 
L 104.759386 234.582308 
L 102.610952 230.243682 
L 100.484651 235.196631 
L 98.363065 226.362525 
L 96.202907 224.287561 
L 94.048524 209.988082 
L 91.877036 212.505669 
L 89.766328 181.721674 
L 87.629122 186.725738 
L 85.474038 129.493831 
L 83.30242 114.625993 
L 81.135993 85.679296 
L 79.023167 82.525778 
L 76.903067 65.175361 
L 74.761606 41.449749 
L 72.627769 35.610718 
L 70.492926 36.714183 
L 68.373958 37.764086 
L 66.251306 38.637737 
z
" style="fill:#d62728;fill-opacity:0.25;"/>
   </g>
   <g id="PolyCollection_5">
    <path clip-path="url(#pe069845975)" d="M 66.324038 35.317179 
L 66.324038 42.048571 
L 68.456704 66.222812 
L 70.626009 89.588551 
L 72.773182 84.202182 
L 74.893233 99.447438 
L 77.0393 152.21773 
L 79.218234 171.289 
L 81.410088 190.570155 
L 83.568982 206.642756 
L 85.725438 195.386424 
L 87.843308 214.739335 
L 90.016506 221.394336 
L 92.135704 227.49809 
L 94.248143 229.270006 
L 96.35526 238.315272 
L 98.561438 232.633019 
L 100.707456 240.073685 
L 102.856268 232.385825 
L 104.996625 235.824388 
L 107.210483 240.411263 
L 109.346024 239.990307 
L 111.502249 240.008099 
L 113.596426 256.325535 
L 115.785174 238.157417 
L 117.923011 250.183298 
L 120.057092 254.090241 
L 122.228998 249.904282 
L 124.347041 253.419051 
L 126.521506 254.537528 
L 128.65803 266.170207 
L 130.846049 259.842525 
L 133.013273 258.329212 
L 135.161847 268.169221 
L 137.302139 260.666248 
L 139.52941 267.172048 
L 141.68453 265.155624 
L 143.817484 269.750856 
L 145.970599 261.947288 
L 148.116021 262.578648 
L 150.234292 263.554588 
L 152.398287 258.25856 
L 154.558957 260.444281 
L 156.692693 268.411599 
L 158.802784 261.919022 
L 160.912798 269.89451 
L 163.045412 264.861461 
L 165.226679 265.983005 
L 167.400352 264.438425 
L 169.538561 268.019712 
L 171.660987 265.874559 
L 173.78318 270.535151 
L 175.902554 272.442182 
L 178.037321 267.154299 
L 180.188032 274.711923 
L 182.313298 277.582298 
L 184.439315 275.649803 
L 186.59806 267.602041 
L 188.721778 281.413556 
L 190.890697 275.736112 
L 193.053678 267.716399 
L 195.184291 276.972807 
L 197.343867 267.17525 
L 199.538566 265.313747 
L 201.646824 273.265608 
L 203.832084 270.071666 
L 205.965782 283.280189 
L 208.142844 280.718853 
L 210.3001 275.625396 
L 212.42147 282.371041 
L 214.612871 275.427265 
L 216.759843 270.527709 
L 218.909074 274.18631 
L 221.073419 278.457304 
L 223.202581 271.1967 
L 225.351449 278.821216 
L 227.544553 270.329156 
L 229.723846 278.28599 
L 231.865048 277.758247 
L 234.0409 275.506475 
L 236.228877 283.028144 
L 238.43671 281.406142 
L 240.570028 283.132215 
L 242.701819 280.126415 
L 244.870374 279.509135 
L 247.021826 278.163268 
L 249.196 286.104964 
L 251.346837 281.713201 
L 253.535551 283.635928 
L 255.758127 285.335574 
L 257.863682 276.224316 
L 260.038331 288.503683 
L 262.172148 282.69719 
L 264.309044 286.206362 
L 266.429087 282.943983 
L 268.571787 285.354254 
L 270.692708 283.717304 
L 272.81892 288.196245 
L 274.970751 288.9623 
L 277.131077 290.978694 
L 279.299201 292.152973 
L 281.426678 291.973305 
L 283.563317 290.865408 
L 285.763719 289.417018 
L 287.903595 286.887469 
L 290.009432 292.825111 
L 292.125862 292.010746 
L 294.259425 292.434583 
L 296.43153 291.455743 
L 298.601847 295.944702 
L 300.770985 296.947535 
L 302.91899 294.491393 
L 305.07103 296.064651 
L 307.210644 298.708526 
L 309.350391 293.533069 
L 311.504319 298.058801 
L 313.647664 293.719629 
L 315.750322 296.769021 
L 317.930786 296.566929 
L 320.114539 297.568412 
L 322.30067 297.421813 
L 324.42155 298.476346 
L 326.616055 298.464461 
L 328.742725 301.755547 
L 330.894183 299.044934 
L 333.047938 301.998943 
L 335.192662 301.17694 
L 337.32956 301.901599 
L 339.477848 303.091954 
L 341.66504 302.773648 
L 343.798337 302.716462 
L 345.966677 301.944203 
L 348.084822 302.933133 
L 350.20506 302.759767 
L 352.343499 303.289347 
L 354.462206 303.130312 
L 356.556989 302.018094 
L 358.672191 303.020348 
L 360.765771 303.321355 
L 362.936192 303.135817 
L 365.052307 303.133052 
L 367.246575 303.218896 
L 369.412308 303.402181 
L 371.589353 303.475656 
L 373.741893 303.397433 
L 375.920752 303.295179 
L 378.084382 303.642198 
L 380.194135 303.322825 
L 382.364637 303.646964 
L 384.540122 303.60105 
L 386.719422 303.423752 
L 386.719422 300.551513 
L 386.719422 300.551513 
L 384.540122 302.026626 
L 382.364637 302.973363 
L 380.194135 302.639107 
L 378.084382 302.164442 
L 375.920752 302.72626 
L 373.741893 303.02912 
L 371.589353 303.303115 
L 369.412308 301.938581 
L 367.246575 302.571391 
L 365.052307 301.629651 
L 362.936192 302.057808 
L 360.765771 299.873525 
L 358.672191 301.453369 
L 356.556989 300.436073 
L 354.462206 300.839311 
L 352.343499 302.218829 
L 350.20506 300.585512 
L 348.084822 299.520152 
L 345.966677 298.703053 
L 343.798337 301.210668 
L 341.66504 300.680508 
L 339.477848 300.492942 
L 337.32956 299.800393 
L 335.192662 298.94524 
L 333.047938 297.227187 
L 330.894183 297.409119 
L 328.742725 299.486783 
L 326.616055 295.40406 
L 324.42155 292.327056 
L 322.30067 293.755383 
L 320.114539 294.529872 
L 317.930786 294.323927 
L 315.750322 290.385296 
L 313.647664 287.902523 
L 311.504319 293.517581 
L 309.350391 285.389296 
L 307.210644 295.752424 
L 305.07103 293.335257 
L 302.91899 289.424308 
L 300.770985 294.369306 
L 298.601847 293.065895 
L 296.43153 285.906558 
L 294.259425 288.437158 
L 292.125862 289.738355 
L 290.009432 288.419014 
L 287.903595 281.619418 
L 285.763719 283.118391 
L 283.563317 284.177954 
L 281.426678 286.319957 
L 279.299201 287.189735 
L 277.131077 284.228291 
L 274.970751 282.802951 
L 272.81892 282.234628 
L 270.692708 277.545014 
L 268.571787 277.905399 
L 266.429087 279.819158 
L 264.309044 283.778779 
L 262.172148 279.168842 
L 260.038331 283.224893 
L 257.863682 272.743676 
L 255.758127 272.298819 
L 253.535551 278.258316 
L 251.346837 275.644724 
L 249.196 277.363451 
L 247.021826 271.983942 
L 244.870374 275.202604 
L 242.701819 276.103072 
L 240.570028 280.90606 
L 238.43671 273.909311 
L 236.228877 275.706475 
L 234.0409 269.128317 
L 231.865048 269.144705 
L 229.723846 269.581775 
L 227.544553 268.815787 
L 225.351449 274.068096 
L 223.202581 262.069084 
L 221.073419 271.943804 
L 218.909074 269.444173 
L 216.759843 262.061013 
L 214.612871 268.270924 
L 212.42147 278.564031 
L 210.3001 272.896863 
L 208.142844 270.331106 
L 205.965782 281.203818 
L 203.832084 266.365028 
L 201.646824 268.971255 
L 199.538566 259.522609 
L 197.343867 261.509078 
L 195.184291 269.772164 
L 193.053678 260.336004 
L 190.890697 268.379599 
L 188.721778 273.70442 
L 186.59806 260.540637 
L 184.439315 268.460266 
L 182.313298 271.086658 
L 180.188032 264.591002 
L 178.037321 264.825066 
L 175.902554 264.231483 
L 173.78318 265.168058 
L 171.660987 258.352441 
L 169.538561 258.949391 
L 167.400352 260.736462 
L 165.226679 259.530414 
L 163.045412 257.481048 
L 160.912798 265.120352 
L 158.802784 259.814131 
L 156.692693 264.052995 
L 154.558957 256.594572 
L 152.398287 254.131131 
L 150.234292 252.525094 
L 148.116021 254.313508 
L 145.970599 255.147987 
L 143.817484 267.137213 
L 141.68453 259.432476 
L 139.52941 257.066236 
L 137.302139 254.29628 
L 135.161847 258.833735 
L 133.013273 252.49195 
L 130.846049 249.556806 
L 128.65803 258.903122 
L 126.521506 245.089534 
L 124.347041 240.847933 
L 122.228998 246.29233 
L 120.057092 242.456187 
L 117.923011 246.780652 
L 115.785174 233.619808 
L 113.596426 248.289221 
L 111.502249 230.956651 
L 109.346024 228.243625 
L 107.210483 231.117705 
L 104.996625 226.970474 
L 102.856268 226.120975 
L 100.707456 233.486471 
L 98.561438 217.22995 
L 96.35526 226.036835 
L 94.248143 213.258119 
L 92.135704 215.774803 
L 90.016506 197.684857 
L 87.843308 201.24794 
L 85.725438 160.703388 
L 83.568982 150.349806 
L 81.410088 124.354258 
L 79.218234 104.591475 
L 77.0393 94.278232 
L 74.893233 60.249112 
L 72.773182 43.988393 
L 70.626009 42.574124 
L 68.456704 42.016988 
L 66.324038 35.317179 
z
" style="fill:#9467bd;fill-opacity:0.25;"/>
   </g>
   <g id="matplotlib.axis_1">
    <g id="xtick_1">
     <g id="line2d_1">
      <defs>
       <path d="M 0 0 
L 0 3.5 
" id="m91a3cc6bb1" style="stroke:#000000;stroke-width:0.8;"/>
      </defs>
      <g>
       <use style="stroke:#000000;stroke-width:0.8;" x="63.799223" xlink:href="#m91a3cc6bb1" y="303.64"/>
      </g>
     </g>
     <g id="text_1">
      <!-- 0 -->
      <g transform="translate(60.617973 318.238437)scale(0.1 -0.1)">
       <defs>
        <path d="M 31.78125 66.40625 
Q 24.171875 66.40625 20.328125 58.90625 
Q 16.5 51.421875 16.5 36.375 
Q 16.5 21.390625 20.328125 13.890625 
Q 24.171875 6.390625 31.78125 6.390625 
Q 39.453125 6.390625 43.28125 13.890625 
Q 47.125 21.390625 47.125 36.375 
Q 47.125 51.421875 43.28125 58.90625 
Q 39.453125 66.40625 31.78125 66.40625 
z
M 31.78125 74.21875 
Q 44.046875 74.21875 50.515625 64.515625 
Q 56.984375 54.828125 56.984375 36.375 
Q 56.984375 17.96875 50.515625 8.265625 
Q 44.046875 -1.421875 31.78125 -1.421875 
Q 19.53125 -1.421875 13.0625 8.265625 
Q 6.59375 17.96875 6.59375 36.375 
Q 6.59375 54.828125 13.0625 64.515625 
Q 19.53125 74.21875 31.78125 74.21875 
z
" id="DejaVuSans-48"/>
       </defs>
       <use xlink:href="#DejaVuSans-48"/>
      </g>
     </g>
    </g>
    <g id="xtick_2">
     <g id="line2d_2">
      <g>
       <use style="stroke:#000000;stroke-width:0.8;" x="136.059372" xlink:href="#m91a3cc6bb1" y="303.64"/>
      </g>
     </g>
     <g id="text_2">
      <!-- 500 -->
      <g transform="translate(126.515622 318.238437)scale(0.1 -0.1)">
       <defs>
        <path d="M 10.796875 72.90625 
L 49.515625 72.90625 
L 49.515625 64.59375 
L 19.828125 64.59375 
L 19.828125 46.734375 
Q 21.96875 47.46875 24.109375 47.828125 
Q 26.265625 48.1875 28.421875 48.1875 
Q 40.625 48.1875 47.75 41.5 
Q 54.890625 34.8125 54.890625 23.390625 
Q 54.890625 11.625 47.5625 5.09375 
Q 40.234375 -1.421875 26.90625 -1.421875 
Q 22.3125 -1.421875 17.546875 -0.640625 
Q 12.796875 0.140625 7.71875 1.703125 
L 7.71875 11.625 
Q 12.109375 9.234375 16.796875 8.0625 
Q 21.484375 6.890625 26.703125 6.890625 
Q 35.15625 6.890625 40.078125 11.328125 
Q 45.015625 15.765625 45.015625 23.390625 
Q 45.015625 31 40.078125 35.4375 
Q 35.15625 39.890625 26.703125 39.890625 
Q 22.75 39.890625 18.8125 39.015625 
Q 14.890625 38.140625 10.796875 36.28125 
z
" id="DejaVuSans-53"/>
       </defs>
       <use xlink:href="#DejaVuSans-53"/>
       <use x="63.623047" xlink:href="#DejaVuSans-48"/>
       <use x="127.246094" xlink:href="#DejaVuSans-48"/>
      </g>
     </g>
    </g>
    <g id="xtick_3">
     <g id="line2d_3">
      <g>
       <use style="stroke:#000000;stroke-width:0.8;" x="208.319522" xlink:href="#m91a3cc6bb1" y="303.64"/>
      </g>
     </g>
     <g id="text_3">
      <!-- 1000 -->
      <g transform="translate(195.594522 318.238437)scale(0.1 -0.1)">
       <defs>
        <path d="M 12.40625 8.296875 
L 28.515625 8.296875 
L 28.515625 63.921875 
L 10.984375 60.40625 
L 10.984375 69.390625 
L 28.421875 72.90625 
L 38.28125 72.90625 
L 38.28125 8.296875 
L 54.390625 8.296875 
L 54.390625 0 
L 12.40625 0 
z
" id="DejaVuSans-49"/>
       </defs>
       <use xlink:href="#DejaVuSans-49"/>
       <use x="63.623047" xlink:href="#DejaVuSans-48"/>
       <use x="127.246094" xlink:href="#DejaVuSans-48"/>
       <use x="190.869141" xlink:href="#DejaVuSans-48"/>
      </g>
     </g>
    </g>
    <g id="xtick_4">
     <g id="line2d_4">
      <g>
       <use style="stroke:#000000;stroke-width:0.8;" x="280.579671" xlink:href="#m91a3cc6bb1" y="303.64"/>
      </g>
     </g>
     <g id="text_4">
      <!-- 1500 -->
      <g transform="translate(267.854671 318.238437)scale(0.1 -0.1)">
       <use xlink:href="#DejaVuSans-49"/>
       <use x="63.623047" xlink:href="#DejaVuSans-53"/>
       <use x="127.246094" xlink:href="#DejaVuSans-48"/>
       <use x="190.869141" xlink:href="#DejaVuSans-48"/>
      </g>
     </g>
    </g>
    <g id="xtick_5">
     <g id="line2d_5">
      <g>
       <use style="stroke:#000000;stroke-width:0.8;" x="352.83982" xlink:href="#m91a3cc6bb1" y="303.64"/>
      </g>
     </g>
     <g id="text_5">
      <!-- 2000 -->
      <g transform="translate(340.11482 318.238437)scale(0.1 -0.1)">
       <defs>
        <path d="M 19.1875 8.296875 
L 53.609375 8.296875 
L 53.609375 0 
L 7.328125 0 
L 7.328125 8.296875 
Q 12.9375 14.109375 22.625 23.890625 
Q 32.328125 33.6875 34.8125 36.53125 
Q 39.546875 41.84375 41.421875 45.53125 
Q 43.3125 49.21875 43.3125 52.78125 
Q 43.3125 58.59375 39.234375 62.25 
Q 35.15625 65.921875 28.609375 65.921875 
Q 23.96875 65.921875 18.8125 64.3125 
Q 13.671875 62.703125 7.8125 59.421875 
L 7.8125 69.390625 
Q 13.765625 71.78125 18.9375 73 
Q 24.125 74.21875 28.421875 74.21875 
Q 39.75 74.21875 46.484375 68.546875 
Q 53.21875 62.890625 53.21875 53.421875 
Q 53.21875 48.921875 51.53125 44.890625 
Q 49.859375 40.875 45.40625 35.40625 
Q 44.1875 33.984375 37.640625 27.21875 
Q 31.109375 20.453125 19.1875 8.296875 
z
" id="DejaVuSans-50"/>
       </defs>
       <use xlink:href="#DejaVuSans-50"/>
       <use x="63.623047" xlink:href="#DejaVuSans-48"/>
       <use x="127.246094" xlink:href="#DejaVuSans-48"/>
       <use x="190.869141" xlink:href="#DejaVuSans-48"/>
      </g>
     </g>
    </g>
    <g id="xtick_6">
     <g id="line2d_6">
      <g>
       <use style="stroke:#000000;stroke-width:0.8;" x="425.09997" xlink:href="#m91a3cc6bb1" y="303.64"/>
      </g>
     </g>
     <g id="text_6">
      <!-- 2500 -->
      <g transform="translate(412.37497 318.238437)scale(0.1 -0.1)">
       <use xlink:href="#DejaVuSans-50"/>
       <use x="63.623047" xlink:href="#DejaVuSans-53"/>
       <use x="127.246094" xlink:href="#DejaVuSans-48"/>
       <use x="190.869141" xlink:href="#DejaVuSans-48"/>
      </g>
     </g>
    </g>
    <g id="text_7">
     <!-- Time -->
     <g transform="translate(236.626406 331.916562)scale(0.1 -0.1)">
      <defs>
       <path d="M -0.296875 72.90625 
L 61.375 72.90625 
L 61.375 64.59375 
L 35.5 64.59375 
L 35.5 0 
L 25.59375 0 
L 25.59375 64.59375 
L -0.296875 64.59375 
z
" id="DejaVuSans-84"/>
       <path d="M 9.421875 54.6875 
L 18.40625 54.6875 
L 18.40625 0 
L 9.421875 0 
z
M 9.421875 75.984375 
L 18.40625 75.984375 
L 18.40625 64.59375 
L 9.421875 64.59375 
z
" id="DejaVuSans-105"/>
       <path d="M 52 44.1875 
Q 55.375 50.25 60.0625 53.125 
Q 64.75 56 71.09375 56 
Q 79.640625 56 84.28125 50.015625 
Q 88.921875 44.046875 88.921875 33.015625 
L 88.921875 0 
L 79.890625 0 
L 79.890625 32.71875 
Q 79.890625 40.578125 77.09375 44.375 
Q 74.3125 48.1875 68.609375 48.1875 
Q 61.625 48.1875 57.5625 43.546875 
Q 53.515625 38.921875 53.515625 30.90625 
L 53.515625 0 
L 44.484375 0 
L 44.484375 32.71875 
Q 44.484375 40.625 41.703125 44.40625 
Q 38.921875 48.1875 33.109375 48.1875 
Q 26.21875 48.1875 22.15625 43.53125 
Q 18.109375 38.875 18.109375 30.90625 
L 18.109375 0 
L 9.078125 0 
L 9.078125 54.6875 
L 18.109375 54.6875 
L 18.109375 46.1875 
Q 21.1875 51.21875 25.484375 53.609375 
Q 29.78125 56 35.6875 56 
Q 41.65625 56 45.828125 52.96875 
Q 50 49.953125 52 44.1875 
z
" id="DejaVuSans-109"/>
       <path d="M 56.203125 29.59375 
L 56.203125 25.203125 
L 14.890625 25.203125 
Q 15.484375 15.921875 20.484375 11.0625 
Q 25.484375 6.203125 34.421875 6.203125 
Q 39.59375 6.203125 44.453125 7.46875 
Q 49.3125 8.734375 54.109375 11.28125 
L 54.109375 2.78125 
Q 49.265625 0.734375 44.1875 -0.34375 
Q 39.109375 -1.421875 33.890625 -1.421875 
Q 20.796875 -1.421875 13.15625 6.1875 
Q 5.515625 13.8125 5.515625 26.8125 
Q 5.515625 40.234375 12.765625 48.109375 
Q 20.015625 56 32.328125 56 
Q 43.359375 56 49.78125 48.890625 
Q 56.203125 41.796875 56.203125 29.59375 
z
M 47.21875 32.234375 
Q 47.125 39.59375 43.09375 43.984375 
Q 39.0625 48.390625 32.421875 48.390625 
Q 24.90625 48.390625 20.390625 44.140625 
Q 15.875 39.890625 15.1875 32.171875 
z
" id="DejaVuSans-101"/>
      </defs>
      <use xlink:href="#DejaVuSans-84"/>
      <use x="57.958984" xlink:href="#DejaVuSans-105"/>
      <use x="85.742188" xlink:href="#DejaVuSans-109"/>
      <use x="183.154297" xlink:href="#DejaVuSans-101"/>
     </g>
    </g>
   </g>
   <g id="matplotlib.axis_2">
    <g id="ytick_1">
     <g id="line2d_7">
      <defs>
       <path d="M 0 0 
L -3.5 0 
" id="m38718bf6d2" style="stroke:#000000;stroke-width:0.8;"/>
      </defs>
      <g>
       <use style="stroke:#000000;stroke-width:0.8;" x="47.72" xlink:href="#m38718bf6d2" y="303.64"/>
      </g>
     </g>
     <g id="text_8">
      <!-- 0.0 -->
      <g transform="translate(24.816875 307.439219)scale(0.1 -0.1)">
       <defs>
        <path d="M 10.6875 12.40625 
L 21 12.40625 
L 21 0 
L 10.6875 0 
z
" id="DejaVuSans-46"/>
       </defs>
       <use xlink:href="#DejaVuSans-48"/>
       <use x="63.623047" xlink:href="#DejaVuSans-46"/>
       <use x="95.410156" xlink:href="#DejaVuSans-48"/>
      </g>
     </g>
    </g>
    <g id="ytick_2">
     <g id="line2d_8">
      <g>
       <use style="stroke:#000000;stroke-width:0.8;" x="47.72" xlink:href="#m38718bf6d2" y="245.864"/>
      </g>
     </g>
     <g id="text_9">
      <!-- 0.5 -->
      <g transform="translate(24.816875 249.663219)scale(0.1 -0.1)">
       <use xlink:href="#DejaVuSans-48"/>
       <use x="63.623047" xlink:href="#DejaVuSans-46"/>
       <use x="95.410156" xlink:href="#DejaVuSans-53"/>
      </g>
     </g>
    </g>
    <g id="ytick_3">
     <g id="line2d_9">
      <g>
       <use style="stroke:#000000;stroke-width:0.8;" x="47.72" xlink:href="#m38718bf6d2" y="188.088"/>
      </g>
     </g>
     <g id="text_10">
      <!-- 1.0 -->
      <g transform="translate(24.816875 191.887219)scale(0.1 -0.1)">
       <use xlink:href="#DejaVuSans-49"/>
       <use x="63.623047" xlink:href="#DejaVuSans-46"/>
       <use x="95.410156" xlink:href="#DejaVuSans-48"/>
      </g>
     </g>
    </g>
    <g id="ytick_4">
     <g id="line2d_10">
      <g>
       <use style="stroke:#000000;stroke-width:0.8;" x="47.72" xlink:href="#m38718bf6d2" y="130.312"/>
      </g>
     </g>
     <g id="text_11">
      <!-- 1.5 -->
      <g transform="translate(24.816875 134.111219)scale(0.1 -0.1)">
       <use xlink:href="#DejaVuSans-49"/>
       <use x="63.623047" xlink:href="#DejaVuSans-46"/>
       <use x="95.410156" xlink:href="#DejaVuSans-53"/>
      </g>
     </g>
    </g>
    <g id="ytick_5">
     <g id="line2d_11">
      <g>
       <use style="stroke:#000000;stroke-width:0.8;" x="47.72" xlink:href="#m38718bf6d2" y="72.536"/>
      </g>
     </g>
     <g id="text_12">
      <!-- 2.0 -->
      <g transform="translate(24.816875 76.335219)scale(0.1 -0.1)">
       <use xlink:href="#DejaVuSans-50"/>
       <use x="63.623047" xlink:href="#DejaVuSans-46"/>
       <use x="95.410156" xlink:href="#DejaVuSans-48"/>
      </g>
     </g>
    </g>
    <g id="ytick_6">
     <g id="line2d_12">
      <g>
       <use style="stroke:#000000;stroke-width:0.8;" x="47.72" xlink:href="#m38718bf6d2" y="14.76"/>
      </g>
     </g>
     <g id="text_13">
      <!-- 2.5 -->
      <g transform="translate(24.816875 18.559219)scale(0.1 -0.1)">
       <use xlink:href="#DejaVuSans-50"/>
       <use x="63.623047" xlink:href="#DejaVuSans-46"/>
       <use x="95.410156" xlink:href="#DejaVuSans-53"/>
      </g>
     </g>
    </g>
    <g id="text_14">
     <!-- Loss -->
     <g transform="translate(18.737188 170.167187)rotate(-90)scale(0.1 -0.1)">
      <defs>
       <path d="M 9.8125 72.90625 
L 19.671875 72.90625 
L 19.671875 8.296875 
L 55.171875 8.296875 
L 55.171875 0 
L 9.8125 0 
z
" id="DejaVuSans-76"/>
       <path d="M 30.609375 48.390625 
Q 23.390625 48.390625 19.1875 42.75 
Q 14.984375 37.109375 14.984375 27.296875 
Q 14.984375 17.484375 19.15625 11.84375 
Q 23.34375 6.203125 30.609375 6.203125 
Q 37.796875 6.203125 41.984375 11.859375 
Q 46.1875 17.53125 46.1875 27.296875 
Q 46.1875 37.015625 41.984375 42.703125 
Q 37.796875 48.390625 30.609375 48.390625 
z
M 30.609375 56 
Q 42.328125 56 49.015625 48.375 
Q 55.71875 40.765625 55.71875 27.296875 
Q 55.71875 13.875 49.015625 6.21875 
Q 42.328125 -1.421875 30.609375 -1.421875 
Q 18.84375 -1.421875 12.171875 6.21875 
Q 5.515625 13.875 5.515625 27.296875 
Q 5.515625 40.765625 12.171875 48.375 
Q 18.84375 56 30.609375 56 
z
" id="DejaVuSans-111"/>
       <path d="M 44.28125 53.078125 
L 44.28125 44.578125 
Q 40.484375 46.53125 36.375 47.5 
Q 32.28125 48.484375 27.875 48.484375 
Q 21.1875 48.484375 17.84375 46.4375 
Q 14.5 44.390625 14.5 40.28125 
Q 14.5 37.15625 16.890625 35.375 
Q 19.28125 33.59375 26.515625 31.984375 
L 29.59375 31.296875 
Q 39.15625 29.25 43.1875 25.515625 
Q 47.21875 21.78125 47.21875 15.09375 
Q 47.21875 7.46875 41.1875 3.015625 
Q 35.15625 -1.421875 24.609375 -1.421875 
Q 20.21875 -1.421875 15.453125 -0.5625 
Q 10.6875 0.296875 5.421875 2 
L 5.421875 11.28125 
Q 10.40625 8.6875 15.234375 7.390625 
Q 20.0625 6.109375 24.8125 6.109375 
Q 31.15625 6.109375 34.5625 8.28125 
Q 37.984375 10.453125 37.984375 14.40625 
Q 37.984375 18.0625 35.515625 20.015625 
Q 33.0625 21.96875 24.703125 23.78125 
L 21.578125 24.515625 
Q 13.234375 26.265625 9.515625 29.90625 
Q 5.8125 33.546875 5.8125 39.890625 
Q 5.8125 47.609375 11.28125 51.796875 
Q 16.75 56 26.8125 56 
Q 31.78125 56 36.171875 55.265625 
Q 40.578125 54.546875 44.28125 53.078125 
z
" id="DejaVuSans-115"/>
      </defs>
      <use xlink:href="#DejaVuSans-76"/>
      <use x="53.962891" xlink:href="#DejaVuSans-111"/>
      <use x="115.144531" xlink:href="#DejaVuSans-115"/>
      <use x="167.244141" xlink:href="#DejaVuSans-115"/>
     </g>
    </g>
   </g>
   <g id="line2d_13">
    <path clip-path="url(#pe069845975)" d="M 66.005455 41.391125 
L 67.889914 79.735431 
L 69.835834 95.962362 
L 71.750133 93.231544 
L 73.671417 120.74285 
L 75.613456 177.649953 
L 77.535525 203.491172 
L 79.413177 210.397209 
L 81.272762 215.937837 
L 83.16315 212.575094 
L 85.010932 230.946056 
L 86.869041 243.15575 
L 88.76651 243.962583 
L 90.659487 242.467403 
L 92.571394 249.853027 
L 94.534047 246.851383 
L 96.456035 256.561587 
L 98.330483 247.866977 
L 100.217148 255.179252 
L 102.077696 255.275169 
L 104.018585 250.422887 
L 105.939799 247.500234 
L 107.795726 270.681162 
L 109.713654 253.040863 
L 113.51465 265.374684 
L 115.411189 265.216703 
L 117.313853 258.835389 
L 119.181903 263.461983 
L 121.060066 272.87033 
L 122.948201 269.200087 
L 124.821824 273.990305 
L 126.725349 272.813909 
L 128.631245 266.926286 
L 130.503087 277.113255 
L 132.432516 273.459939 
L 134.338207 274.901518 
L 136.257757 272.416134 
L 138.173715 271.124073 
L 140.078829 272.289185 
L 142.0574 277.07376 
L 143.957345 272.639001 
L 145.851379 280.114899 
L 147.783957 272.052213 
L 149.668348 282.191224 
L 151.567111 276.343097 
L 153.439478 274.08058 
L 155.356569 277.166856 
L 157.221869 275.256976 
L 159.062953 278.021648 
L 160.954669 277.685937 
L 162.866113 279.485795 
L 164.739621 278.371463 
L 166.654266 281.872441 
L 168.516204 286.609057 
L 170.426784 281.22641 
L 172.286851 277.911625 
L 174.158561 284.989749 
L 176.052888 284.614544 
L 177.940774 278.244514 
L 179.874113 288.180406 
L 181.780964 281.646753 
L 183.655797 277.011696 
L 185.568927 281.53673 
L 187.482933 279.443479 
L 189.423206 290.500756 
L 191.31336 286.391833 
L 193.211189 286.724722 
L 195.094281 288.214259 
L 196.995148 284.431173 
L 198.891169 279.05981 
L 200.783684 287.672609 
L 202.662014 287.382037 
L 204.591942 280.258775 
L 206.481967 285.665401 
L 208.356259 283.881059 
L 210.232343 290.492293 
L 212.118516 290.839287 
L 214.027983 287.297404 
L 215.939099 290.930973 
L 217.879597 287.729031 
L 219.818017 289.911147 
L 221.718527 287.256498 
L 223.602902 288.951975 
L 225.550031 287.00401 
L 227.46039 291.499423 
L 229.358287 289.94359 
L 231.193693 285.838898 
L 233.092395 290.624884 
L 235.028062 288.360956 
L 236.935231 292.352804 
L 238.847317 289.771503 
L 240.789304 293.346534 
L 242.674651 291.481086 
L 244.548267 292.890222 
L 246.41446 292.263939 
L 248.282291 295.161203 
L 250.178225 294.900252 
L 252.131312 295.41087 
L 254.026023 293.815541 
L 255.918147 297.348256 
L 257.845949 297.321455 
L 259.761523 297.032293 
L 261.66429 295.214804 
L 263.558135 298.217505 
L 265.4741 298.469993 
L 267.427076 298.125114 
L 269.381667 296.968113 
L 271.30773 300.207963 
L 273.195159 300.947619 
L 275.084969 300.078545 
L 276.986934 300.265443 
L 278.901109 301.246655 
L 280.833834 299.348764 
L 282.716555 301.551862 
L 284.603657 300.493687 
L 286.508247 300.372116 
L 290.310184 301.618774 
L 292.236515 302.230864 
L 294.151655 301.076507 
L 297.992039 302.720412 
L 299.845992 301.508399 
L 301.728477 302.654557 
L 303.633898 302.110394 
L 307.432449 303.399909 
L 309.297922 303.398841 
L 313.088642 303.128104 
L 315.021929 303.493149 
L 316.926095 303.233586 
L 318.864878 303.45707 
L 320.76196 302.888046 
L 322.693158 303.312709 
L 324.61655 303.497149 
L 328.428046 303.447174 
L 330.288372 303.36437 
L 334.137071 303.537801 
L 336.006921 303.450921 
L 343.589522 303.520842 
L 349.294273 303.528688 
L 349.294273 303.528688 
" style="fill:none;stroke:#1f77b4;stroke-linecap:square;stroke-width:1.5;"/>
   </g>
   <g id="line2d_14">
    <path clip-path="url(#pe069845975)" d="M 66.602106 37.373887 
L 69.051638 39.585625 
L 71.521875 39.043975 
L 73.979833 44.460475 
L 76.417368 55.835125 
L 78.875306 87.092844 
L 81.334736 104.357937 
L 83.791809 116.77075 
L 86.266844 148.976356 
L 88.699136 148.209019 
L 91.181281 199.46265 
L 93.602629 199.665769 
L 96.044932 220.925531 
L 98.475701 225.066897 
L 100.978004 233.293206 
L 103.411664 231.916512 
L 105.876491 241.457452 
L 108.357228 234.906872 
L 110.788855 241.880616 
L 113.217591 243.02598 
L 115.667341 242.839787 
L 118.094678 237.716681 
L 120.545741 259.969469 
L 122.990955 244.645287 
L 125.431001 257.532044 
L 127.920489 257.977777 
L 130.342935 258.920022 
L 132.770043 255.670122 
L 135.241667 253.949255 
L 137.674956 270.077448 
L 140.13586 266.26615 
L 142.550913 266.85858 
L 144.990708 266.672388 
L 147.449342 263.061387 
L 149.904997 272.588221 
L 152.354398 270.232608 
L 154.825309 273.019848 
L 157.270577 263.349139 
L 159.720408 264.426797 
L 162.133813 266.909359 
L 164.561284 267.919311 
L 166.98512 267.180184 
L 169.446138 271.014051 
L 171.866628 266.559544 
L 174.283763 275.240049 
L 176.730776 266.819084 
L 179.150599 270.926597 
L 181.606732 274.010052 
L 184.084183 271.259486 
L 186.539699 270.827859 
L 189.05816 272.932395 
L 191.506497 273.392233 
L 193.94466 275.790163 
L 196.38068 279.260108 
L 198.803945 284.634291 
L 201.254499 279.88357 
L 203.667823 276.111767 
L 206.087397 284.044683 
L 208.570747 280.837099 
L 211.029492 272.706707 
L 213.432573 281.006365 
L 215.91824 273.025491 
L 218.321366 274.232919 
L 220.789441 281.40696 
L 223.253615 274.328836 
L 225.706854 288.78271 
L 228.103575 283.08269 
L 230.526969 283.457895 
L 232.982624 285.477798 
L 235.432732 280.498568 
L 237.892864 276.616743 
L 240.338755 283.048837 
L 242.783595 283.156038 
L 245.229532 275.541906 
L 247.682975 282.010674 
L 250.144215 278.047037 
L 252.617539 283.497391 
L 255.049451 283.325304 
L 257.476107 283.875417 
L 259.905951 285.504599 
L 262.351117 286.74447 
L 264.78413 286.707795 
L 267.22177 283.833101 
L 269.697687 286.77268 
L 272.151405 288.18887 
L 274.615498 289.203053 
L 277.086352 288.736162 
L 279.545567 285.9461 
L 281.992862 289.236906 
L 284.417829 286.544172 
L 286.869966 290.500756 
L 289.359864 287.915223 
L 291.833198 292.565796 
L 294.30811 288.393399 
L 296.772921 290.622063 
L 299.230131 292.389478 
L 304.131795 292.152506 
L 306.596893 291.554434 
L 309.040953 293.887479 
L 311.492571 296.012115 
L 313.942579 293.608191 
L 316.410249 298.629032 
L 318.89551 293.450209 
L 321.335526 295.755748 
L 323.803865 296.499812 
L 328.668337 296.635929 
L 331.126295 297.985118 
L 333.550093 298.222089 
L 336.023435 297.858874 
L 338.43148 299.686942 
L 340.854363 300.635888 
L 343.293532 298.586011 
L 345.71276 298.784016 
L 348.127632 299.962704 
L 350.617146 298.39206 
L 353.071816 301.19323 
L 355.531109 301.88863 
L 358.006072 301.519595 
L 360.46593 300.080132 
L 362.916551 301.955102 
L 365.376125 302.901094 
L 370.318529 301.936941 
L 377.75272 303.427052 
L 380.185387 303.457488 
L 382.653484 302.96523 
L 385.165822 303.222048 
L 387.635876 303.279517 
L 390.115281 302.892719 
L 392.561235 303.511899 
L 395.003047 302.633652 
L 397.445239 303.48214 
L 399.883232 303.49543 
L 407.255267 303.201673 
L 409.698468 303.56847 
L 419.461025 303.57263 
L 424.402607 303.288686 
L 426.846924 303.461092 
L 429.266299 303.465136 
L 431.714545 303.153604 
L 431.714545 303.153604 
" style="fill:none;stroke:#ff7f0e;stroke-linecap:square;stroke-width:1.5;"/>
   </g>
   <g id="line2d_15">
    <path clip-path="url(#pe069845975)" d="M 66.259183 38.818287 
L 68.415935 39.450212 
L 70.556782 39.450212 
L 72.672263 48.116612 
L 74.800165 74.138381 
L 76.918509 92.193381 
L 79.038437 103.726012 
L 81.143798 127.761731 
L 83.288915 154.122031 
L 85.430272 164.119987 
L 87.530407 202.960806 
L 89.664662 201.798516 
L 91.746409 219.413425 
L 93.870674 222.053969 
L 95.97175 230.539819 
L 98.063659 233.665591 
L 100.182135 236.069163 
L 102.327982 232.446878 
L 104.405119 244.222123 
L 106.490324 237.603837 
L 108.651625 238.201909 
L 110.774102 236.543106 
L 112.878192 257.785942 
L 115.002062 244.041573 
L 117.092525 256.15535 
L 119.216089 253.661503 
L 121.310332 257.311998 
L 123.453446 256.623652 
L 125.553457 256.533377 
L 127.6729 268.257842 
L 129.74134 261.227677 
L 131.837595 264.071339 
L 133.941898 267.803646 
L 136.039329 261.464648 
L 138.118428 272.734918 
L 140.190829 268.269127 
L 142.294146 271.490816 
L 144.363404 265.527023 
L 146.44385 262.717214 
L 148.547212 264.579136 
L 150.611439 269.363711 
L 152.717684 267.879816 
L 154.844974 272.09453 
L 156.919087 264.184183 
L 159.034381 273.787186 
L 161.141254 268.9744 
L 163.252052 269.984352 
L 165.381198 273.761796 
L 167.523902 271.256665 
L 169.660121 273.079091 
L 171.782349 276.650596 
L 173.946142 273.172188 
L 176.058303 273.104481 
L 178.158763 280.021803 
L 180.238799 278.357358 
L 182.35099 280.972512 
L 184.499789 272.853404 
L 186.60815 281.74267 
L 188.721698 280.636802 
L 190.815811 273.053702 
L 192.916207 283.866954 
L 195.00524 273.818218 
L 197.086735 274.263951 
L 199.194283 278.399674 
L 201.262238 279.102127 
L 203.361193 288.710772 
L 205.441871 287.559766 
L 207.523876 282.622852 
L 209.612339 285.012318 
L 211.745221 283.782321 
L 213.846046 276.729587 
L 215.953953 281.274369 
L 218.023429 281.734207 
L 220.117686 276.187937 
L 222.248171 282.546682 
L 224.342777 278.670499 
L 226.44569 285.680917 
L 228.564927 284.417067 
L 230.660951 286.194356 
L 232.76056 286.727543 
L 234.867822 286.312842 
L 236.947258 291.152429 
L 239.023994 283.567918 
L 241.140629 288.289018 
L 243.22895 286.168966 
L 245.309417 289.651607 
L 247.420342 287.256498 
L 249.534893 288.847595 
L 251.62862 286.74588 
L 253.724593 286.786786 
L 255.844182 292.993192 
L 257.951183 289.703797 
L 260.01616 292.376078 
L 262.112252 288.554201 
L 264.216082 291.894376 
L 266.314434 293.266838 
L 268.438591 292.475521 
L 270.51772 294.072966 
L 272.619142 294.802219 
L 274.706952 293.630054 
L 276.844954 295.170371 
L 278.91716 292.640555 
L 281.044125 296.97164 
L 283.120751 292.685693 
L 285.212004 298.581426 
L 287.302774 297.073199 
L 289.424975 296.047731 
L 291.50838 297.283371 
L 293.624019 297.486137 
L 295.7213 300.542968 
L 297.82544 298.504904 
L 299.914673 299.084286 
L 302.019142 299.851271 
L 304.114073 297.825726 
L 306.208979 299.791499 
L 308.280787 298.548278 
L 310.365089 300.363652 
L 312.434883 299.503924 
L 314.549449 301.029078 
L 316.639559 301.94946 
L 318.76005 301.550187 
L 320.834973 301.575312 
L 322.935686 302.780933 
L 327.109866 301.908421 
L 331.351749 302.812846 
L 333.48988 303.116533 
L 335.614678 303.21483 
L 339.846642 303.156293 
L 341.911224 303.345703 
L 344.012481 303.157141 
L 346.121914 303.521084 
L 348.195951 302.948463 
L 352.447348 303.497684 
L 354.570749 303.417596 
L 362.927491 303.553505 
L 369.127921 303.561142 
L 371.224466 303.452992 
L 377.522734 303.557659 
L 379.643381 302.946981 
L 379.643381 302.946981 
" style="fill:none;stroke:#2ca02c;stroke-linecap:square;stroke-width:1.5;"/>
   </g>
   <g id="line2d_16">
    <path clip-path="url(#pe069845975)" d="M 66.251306 38.818287 
L 68.373958 39.359937 
L 70.492926 39.405075 
L 72.627769 44.686162 
L 74.761606 54.66155 
L 76.903067 80.096531 
L 79.023167 95.172456 
L 81.135993 102.800694 
L 83.30242 132.862269 
L 85.474038 143.898387 
L 87.629122 194.734497 
L 89.766328 189.735519 
L 91.877036 216.953431 
L 94.048524 215.497747 
L 96.202907 229.637069 
L 98.363065 228.971291 
L 100.484651 237.423287 
L 102.610952 233.541462 
L 104.759386 236.170722 
L 106.920004 242.738228 
L 109.075719 239.172366 
L 111.191206 243.144466 
L 113.343891 258.874884 
L 115.505803 244.577581 
L 117.623009 258.778967 
L 119.777432 258.248602 
L 121.928582 258.096262 
L 124.095171 258.73383 
L 126.264857 251.444123 
L 128.436914 269.549903 
L 130.59611 263.332212 
L 134.844785 269.233941 
L 136.992191 263.112167 
L 139.12579 272.554368 
L 141.294646 268.438392 
L 143.381528 271.866021 
L 145.498489 266.531333 
L 147.633305 263.439414 
L 149.733914 264.449366 
L 151.864186 268.02087 
L 154.016569 266.689314 
L 156.157667 268.703575 
L 158.319371 271.400541 
L 160.462557 272.523336 
L 162.654196 270.571139 
L 164.804995 267.665413 
L 166.915458 272.506409 
L 169.071797 273.17783 
L 171.186597 276.216148 
L 173.294321 274.483996 
L 175.460891 270.18747 
L 177.584948 273.756154 
L 181.779254 282.445123 
L 183.914682 279.892033 
L 186.081912 272.864688 
L 188.293547 283.435327 
L 190.413179 280.571916 
L 192.559344 273.496613 
L 194.694624 282.019137 
L 196.864297 276.53211 
L 199.003649 273.981841 
L 201.17084 277.860845 
L 203.289984 277.008875 
L 205.435151 287.730442 
L 207.570628 282.80058 
L 209.736202 281.71728 
L 211.838324 286.989905 
L 213.932943 282.177119 
L 216.10101 274.131359 
L 218.241506 283.775268 
L 220.406262 283.062942 
L 222.542765 273.51354 
L 224.646831 281.32797 
L 226.742256 278.645109 
L 228.901827 285.143499 
L 231.043507 284.879727 
L 233.187105 284.118031 
L 235.352962 287.279067 
L 237.532998 285.702075 
L 239.743244 289.135346 
L 241.836929 284.335255 
L 243.972332 287.369342 
L 246.108005 285.089898 
L 248.320277 289.929484 
L 250.480675 285.314175 
L 252.61611 288.984418 
L 254.735552 290.887246 
L 256.859766 285.393166 
L 258.988561 291.334389 
L 263.195748 291.51635 
L 265.350171 289.335644 
L 269.672169 291.974777 
L 271.790247 292.441668 
L 273.944783 292.539701 
L 276.102601 293.821888 
L 282.501608 295.418628 
L 284.715464 297.033704 
L 286.866062 293.473483 
L 289.018895 297.622607 
L 291.142959 297.516111 
L 293.33477 296.706457 
L 295.482721 296.411653 
L 297.611987 297.109521 
L 299.783346 300.531155 
L 301.935773 298.368081 
L 304.063349 300.184689 
L 306.267685 300.920113 
L 308.443979 295.931361 
L 310.595087 298.893862 
L 312.714314 300.574529 
L 314.862901 300.99734 
L 316.993752 301.238368 
L 319.145191 301.073157 
L 321.269003 300.360126 
L 323.410766 301.305721 
L 325.532655 301.668232 
L 327.647378 302.244969 
L 329.802845 302.704014 
L 331.969451 302.410576 
L 334.046109 302.43914 
L 336.159071 302.674921 
L 338.273456 303.449014 
L 340.426769 302.198906 
L 342.582164 303.062095 
L 344.745453 303.184294 
L 346.866532 303.064177 
L 348.996629 303.377319 
L 351.199479 302.784933 
L 353.292388 303.29392 
L 355.484071 303.252474 
L 357.658797 302.569362 
L 359.826732 303.378443 
L 361.959009 303.516731 
L 364.061492 302.292597 
L 366.160261 303.431674 
L 368.309437 303.578167 
L 370.442531 303.405932 
L 372.554836 303.586322 
L 374.700426 303.502709 
L 379.03254 303.542562 
L 385.42253 303.548733 
L 385.42253 303.548733 
" style="fill:none;stroke:#d62728;stroke-linecap:square;stroke-width:1.5;"/>
   </g>
   <g id="line2d_17">
    <path clip-path="url(#pe069845975)" d="M 66.324038 38.682875 
L 68.456704 54.1199 
L 70.626009 66.081337 
L 72.773182 64.095287 
L 74.893233 79.848275 
L 77.0393 123.247981 
L 79.218234 137.940237 
L 81.410088 157.462206 
L 83.568982 178.496281 
L 85.725438 178.044906 
L 87.843308 207.993637 
L 90.016506 209.539597 
L 92.135704 221.636447 
L 94.248143 221.264062 
L 96.35526 232.176053 
L 98.561438 224.931484 
L 100.707456 236.780078 
L 102.856268 229.2534 
L 104.996625 231.397431 
L 107.210483 235.764484 
L 109.346024 234.116966 
L 111.502249 235.482375 
L 113.596426 252.307378 
L 115.785174 235.888612 
L 117.923011 248.481975 
L 122.228998 248.098306 
L 124.347041 247.133492 
L 126.521506 249.813531 
L 128.65803 262.536664 
L 130.846049 254.699666 
L 133.013273 255.410581 
L 135.161847 263.501478 
L 137.302139 257.481264 
L 139.52941 262.119142 
L 141.68453 262.29405 
L 143.817484 268.444034 
L 145.970599 258.547637 
L 148.116021 258.446078 
L 150.234292 258.039841 
L 152.398287 256.194845 
L 154.558957 258.519427 
L 156.692693 266.232297 
L 158.802784 260.866577 
L 160.912798 267.507431 
L 163.045412 261.171255 
L 165.226679 262.756709 
L 167.400352 262.587444 
L 169.538561 263.484552 
L 171.660987 262.1135 
L 173.78318 267.851605 
L 175.902554 268.336833 
L 178.037321 265.989683 
L 180.188032 269.651462 
L 182.313298 274.334478 
L 184.439315 272.055034 
L 186.59806 264.071339 
L 188.721778 277.558988 
L 190.890697 272.057855 
L 193.053678 264.026202 
L 195.184291 273.372485 
L 197.343867 264.342164 
L 199.538566 262.418178 
L 201.646824 271.118431 
L 203.832084 268.218347 
L 205.965782 282.242004 
L 208.142844 275.52498 
L 210.3001 274.26113 
L 212.42147 280.467536 
L 214.612871 271.849095 
L 216.759843 266.294361 
L 218.909074 271.815241 
L 221.073419 275.200554 
L 223.202581 266.632892 
L 225.351449 276.444656 
L 227.544553 269.572472 
L 229.723846 273.933883 
L 231.865048 273.451476 
L 234.0409 272.317396 
L 236.228877 279.367309 
L 238.43671 277.657727 
L 240.570028 282.019137 
L 242.701819 278.114744 
L 244.870374 277.35587 
L 247.021826 275.073605 
L 249.196 281.734207 
L 251.346837 278.678963 
L 253.535551 280.947122 
L 255.758127 278.817196 
L 257.863682 274.483996 
L 260.038331 285.864288 
L 262.172148 280.933016 
L 264.309044 284.99257 
L 266.429087 281.38157 
L 268.571787 281.629827 
L 270.692708 280.631159 
L 272.81892 285.215437 
L 274.970751 285.882625 
L 277.131077 287.603493 
L 279.299201 289.671354 
L 281.426678 289.146631 
L 283.563317 287.521681 
L 285.763719 286.267705 
L 287.903595 284.253444 
L 290.009432 290.622063 
L 292.125862 290.874551 
L 294.259425 290.435871 
L 296.43153 288.68115 
L 298.601847 294.505298 
L 300.770985 295.658421 
L 302.91899 291.957851 
L 305.07103 294.699954 
L 307.210644 297.230475 
L 309.350391 289.461183 
L 311.504319 295.788191 
L 313.647664 290.811076 
L 315.750322 293.577159 
L 317.930786 295.445428 
L 320.114539 296.049142 
L 322.30067 295.588598 
L 324.42155 295.401701 
L 326.616055 296.93426 
L 328.742725 300.621165 
L 330.894183 298.227026 
L 333.047938 299.613065 
L 335.192662 300.06109 
L 337.32956 300.850996 
L 339.477848 301.792448 
L 341.66504 301.727078 
L 343.798337 301.963565 
L 345.966677 300.323628 
L 348.084822 301.226642 
L 350.20506 301.67264 
L 352.343499 302.754088 
L 356.556989 301.227083 
L 358.672191 302.236858 
L 360.765771 301.59744 
L 362.936192 302.596812 
L 365.052307 302.381351 
L 367.246575 302.895143 
L 369.412308 302.670381 
L 371.589353 303.389385 
L 378.084382 302.90332 
L 380.194135 302.980966 
L 382.364637 303.310163 
L 384.540122 302.813838 
L 386.719422 301.987632 
L 386.719422 301.987632 
" style="fill:none;stroke:#9467bd;stroke-linecap:square;stroke-width:1.5;"/>
   </g>
   <g id="patch_3">
    <path d="M 47.72 303.64 
L 47.72 14.76 
" style="fill:none;stroke:#000000;stroke-linecap:square;stroke-linejoin:miter;stroke-width:0.8;"/>
   </g>
   <g id="patch_4">
    <path d="M 450 303.64 
L 450 14.76 
" style="fill:none;stroke:#000000;stroke-linecap:square;stroke-linejoin:miter;stroke-width:0.8;"/>
   </g>
   <g id="patch_5">
    <path d="M 47.72 303.64 
L 450 303.64 
" style="fill:none;stroke:#000000;stroke-linecap:square;stroke-linejoin:miter;stroke-width:0.8;"/>
   </g>
   <g id="patch_6">
    <path d="M 47.72 14.76 
L 450 14.76 
" style="fill:none;stroke:#000000;stroke-linecap:square;stroke-linejoin:miter;stroke-width:0.8;"/>
   </g>
   <g id="legend_1">
    <g id="patch_7">
     <path d="M 291.78125 96.150625 
L 443 96.150625 
Q 445 96.150625 445 94.150625 
L 445 21.76 
Q 445 19.76 443 19.76 
L 291.78125 19.76 
Q 289.78125 19.76 289.78125 21.76 
L 289.78125 94.150625 
Q 289.78125 96.150625 291.78125 96.150625 
z
" style="fill:#ffffff;opacity:0.8;stroke:#cccccc;stroke-linejoin:miter;"/>
    </g>
    <g id="line2d_18">
     <path d="M 293.78125 27.858437 
L 313.78125 27.858437 
" style="fill:none;stroke:#1f77b4;stroke-linecap:square;stroke-width:1.5;"/>
    </g>
    <g id="line2d_19"/>
    <g id="text_15">
     <!-- AllReduce SGD -->
     <g transform="translate(321.78125 31.358437)scale(0.1 -0.1)">
      <defs>
       <path d="M 34.1875 63.1875 
L 20.796875 26.90625 
L 47.609375 26.90625 
z
M 28.609375 72.90625 
L 39.796875 72.90625 
L 67.578125 0 
L 57.328125 0 
L 50.6875 18.703125 
L 17.828125 18.703125 
L 11.1875 0 
L 0.78125 0 
z
" id="DejaVuSans-65"/>
       <path d="M 9.421875 75.984375 
L 18.40625 75.984375 
L 18.40625 0 
L 9.421875 0 
z
" id="DejaVuSans-108"/>
       <path d="M 44.390625 34.1875 
Q 47.5625 33.109375 50.5625 29.59375 
Q 53.5625 26.078125 56.59375 19.921875 
L 66.609375 0 
L 56 0 
L 46.6875 18.703125 
Q 43.0625 26.03125 39.671875 28.421875 
Q 36.28125 30.8125 30.421875 30.8125 
L 19.671875 30.8125 
L 19.671875 0 
L 9.8125 0 
L 9.8125 72.90625 
L 32.078125 72.90625 
Q 44.578125 72.90625 50.734375 67.671875 
Q 56.890625 62.453125 56.890625 51.90625 
Q 56.890625 45.015625 53.6875 40.46875 
Q 50.484375 35.9375 44.390625 34.1875 
z
M 19.671875 64.796875 
L 19.671875 38.921875 
L 32.078125 38.921875 
Q 39.203125 38.921875 42.84375 42.21875 
Q 46.484375 45.515625 46.484375 51.90625 
Q 46.484375 58.296875 42.84375 61.546875 
Q 39.203125 64.796875 32.078125 64.796875 
z
" id="DejaVuSans-82"/>
       <path d="M 45.40625 46.390625 
L 45.40625 75.984375 
L 54.390625 75.984375 
L 54.390625 0 
L 45.40625 0 
L 45.40625 8.203125 
Q 42.578125 3.328125 38.25 0.953125 
Q 33.9375 -1.421875 27.875 -1.421875 
Q 17.96875 -1.421875 11.734375 6.484375 
Q 5.515625 14.40625 5.515625 27.296875 
Q 5.515625 40.1875 11.734375 48.09375 
Q 17.96875 56 27.875 56 
Q 33.9375 56 38.25 53.625 
Q 42.578125 51.265625 45.40625 46.390625 
z
M 14.796875 27.296875 
Q 14.796875 17.390625 18.875 11.75 
Q 22.953125 6.109375 30.078125 6.109375 
Q 37.203125 6.109375 41.296875 11.75 
Q 45.40625 17.390625 45.40625 27.296875 
Q 45.40625 37.203125 41.296875 42.84375 
Q 37.203125 48.484375 30.078125 48.484375 
Q 22.953125 48.484375 18.875 42.84375 
Q 14.796875 37.203125 14.796875 27.296875 
z
" id="DejaVuSans-100"/>
       <path d="M 8.5 21.578125 
L 8.5 54.6875 
L 17.484375 54.6875 
L 17.484375 21.921875 
Q 17.484375 14.15625 20.5 10.265625 
Q 23.53125 6.390625 29.59375 6.390625 
Q 36.859375 6.390625 41.078125 11.03125 
Q 45.3125 15.671875 45.3125 23.6875 
L 45.3125 54.6875 
L 54.296875 54.6875 
L 54.296875 0 
L 45.3125 0 
L 45.3125 8.40625 
Q 42.046875 3.421875 37.71875 1 
Q 33.40625 -1.421875 27.6875 -1.421875 
Q 18.265625 -1.421875 13.375 4.4375 
Q 8.5 10.296875 8.5 21.578125 
z
M 31.109375 56 
z
" id="DejaVuSans-117"/>
       <path d="M 48.78125 52.59375 
L 48.78125 44.1875 
Q 44.96875 46.296875 41.140625 47.34375 
Q 37.3125 48.390625 33.40625 48.390625 
Q 24.65625 48.390625 19.8125 42.84375 
Q 14.984375 37.3125 14.984375 27.296875 
Q 14.984375 17.28125 19.8125 11.734375 
Q 24.65625 6.203125 33.40625 6.203125 
Q 37.3125 6.203125 41.140625 7.25 
Q 44.96875 8.296875 48.78125 10.40625 
L 48.78125 2.09375 
Q 45.015625 0.34375 40.984375 -0.53125 
Q 36.96875 -1.421875 32.421875 -1.421875 
Q 20.0625 -1.421875 12.78125 6.34375 
Q 5.515625 14.109375 5.515625 27.296875 
Q 5.515625 40.671875 12.859375 48.328125 
Q 20.21875 56 33.015625 56 
Q 37.15625 56 41.109375 55.140625 
Q 45.0625 54.296875 48.78125 52.59375 
z
" id="DejaVuSans-99"/>
       <path id="DejaVuSans-32"/>
       <path d="M 53.515625 70.515625 
L 53.515625 60.890625 
Q 47.90625 63.578125 42.921875 64.890625 
Q 37.9375 66.21875 33.296875 66.21875 
Q 25.25 66.21875 20.875 63.09375 
Q 16.5 59.96875 16.5 54.203125 
Q 16.5 49.359375 19.40625 46.890625 
Q 22.3125 44.4375 30.421875 42.921875 
L 36.375 41.703125 
Q 47.40625 39.59375 52.65625 34.296875 
Q 57.90625 29 57.90625 20.125 
Q 57.90625 9.515625 50.796875 4.046875 
Q 43.703125 -1.421875 29.984375 -1.421875 
Q 24.8125 -1.421875 18.96875 -0.25 
Q 13.140625 0.921875 6.890625 3.21875 
L 6.890625 13.375 
Q 12.890625 10.015625 18.65625 8.296875 
Q 24.421875 6.59375 29.984375 6.59375 
Q 38.421875 6.59375 43.015625 9.90625 
Q 47.609375 13.234375 47.609375 19.390625 
Q 47.609375 24.75 44.3125 27.78125 
Q 41.015625 30.8125 33.5 32.328125 
L 27.484375 33.5 
Q 16.453125 35.6875 11.515625 40.375 
Q 6.59375 45.0625 6.59375 53.421875 
Q 6.59375 63.09375 13.40625 68.65625 
Q 20.21875 74.21875 32.171875 74.21875 
Q 37.3125 74.21875 42.625 73.28125 
Q 47.953125 72.359375 53.515625 70.515625 
z
" id="DejaVuSans-83"/>
       <path d="M 59.515625 10.40625 
L 59.515625 29.984375 
L 43.40625 29.984375 
L 43.40625 38.09375 
L 69.28125 38.09375 
L 69.28125 6.78125 
Q 63.578125 2.734375 56.6875 0.65625 
Q 49.8125 -1.421875 42 -1.421875 
Q 24.90625 -1.421875 15.25 8.5625 
Q 5.609375 18.5625 5.609375 36.375 
Q 5.609375 54.25 15.25 64.234375 
Q 24.90625 74.21875 42 74.21875 
Q 49.125 74.21875 55.546875 72.453125 
Q 61.96875 70.703125 67.390625 67.28125 
L 67.390625 56.78125 
Q 61.921875 61.421875 55.765625 63.765625 
Q 49.609375 66.109375 42.828125 66.109375 
Q 29.4375 66.109375 22.71875 58.640625 
Q 16.015625 51.171875 16.015625 36.375 
Q 16.015625 21.625 22.71875 14.15625 
Q 29.4375 6.6875 42.828125 6.6875 
Q 48.046875 6.6875 52.140625 7.59375 
Q 56.25 8.5 59.515625 10.40625 
z
" id="DejaVuSans-71"/>
       <path d="M 19.671875 64.796875 
L 19.671875 8.109375 
L 31.59375 8.109375 
Q 46.6875 8.109375 53.6875 14.9375 
Q 60.6875 21.78125 60.6875 36.53125 
Q 60.6875 51.171875 53.6875 57.984375 
Q 46.6875 64.796875 31.59375 64.796875 
z
M 9.8125 72.90625 
L 30.078125 72.90625 
Q 51.265625 72.90625 61.171875 64.09375 
Q 71.09375 55.28125 71.09375 36.53125 
Q 71.09375 17.671875 61.125 8.828125 
Q 51.171875 0 30.078125 0 
L 9.8125 0 
z
" id="DejaVuSans-68"/>
      </defs>
      <use xlink:href="#DejaVuSans-65"/>
      <use x="68.408203" xlink:href="#DejaVuSans-108"/>
      <use x="96.191406" xlink:href="#DejaVuSans-108"/>
      <use x="123.974609" xlink:href="#DejaVuSans-82"/>
      <use x="188.957031" xlink:href="#DejaVuSans-101"/>
      <use x="250.480469" xlink:href="#DejaVuSans-100"/>
      <use x="313.957031" xlink:href="#DejaVuSans-117"/>
      <use x="377.335938" xlink:href="#DejaVuSans-99"/>
      <use x="432.316406" xlink:href="#DejaVuSans-101"/>
      <use x="493.839844" xlink:href="#DejaVuSans-32"/>
      <use x="525.626953" xlink:href="#DejaVuSans-83"/>
      <use x="589.103516" xlink:href="#DejaVuSans-71"/>
      <use x="666.59375" xlink:href="#DejaVuSans-68"/>
     </g>
    </g>
    <g id="line2d_20">
     <path d="M 293.78125 42.536563 
L 313.78125 42.536563 
" style="fill:none;stroke:#ff7f0e;stroke-linecap:square;stroke-width:1.5;"/>
    </g>
    <g id="line2d_21"/>
    <g id="text_16">
     <!-- QSGD-MN-TS (8,12) bits -->
     <g transform="translate(321.78125 46.036563)scale(0.1 -0.1)">
      <defs>
       <path d="M 39.40625 66.21875 
Q 28.65625 66.21875 22.328125 58.203125 
Q 16.015625 50.203125 16.015625 36.375 
Q 16.015625 22.609375 22.328125 14.59375 
Q 28.65625 6.59375 39.40625 6.59375 
Q 50.140625 6.59375 56.421875 14.59375 
Q 62.703125 22.609375 62.703125 36.375 
Q 62.703125 50.203125 56.421875 58.203125 
Q 50.140625 66.21875 39.40625 66.21875 
z
M 53.21875 1.3125 
L 66.21875 -12.890625 
L 54.296875 -12.890625 
L 43.5 -1.21875 
Q 41.890625 -1.3125 41.03125 -1.359375 
Q 40.1875 -1.421875 39.40625 -1.421875 
Q 24.03125 -1.421875 14.8125 8.859375 
Q 5.609375 19.140625 5.609375 36.375 
Q 5.609375 53.65625 14.8125 63.9375 
Q 24.03125 74.21875 39.40625 74.21875 
Q 54.734375 74.21875 63.90625 63.9375 
Q 73.09375 53.65625 73.09375 36.375 
Q 73.09375 23.6875 67.984375 14.640625 
Q 62.890625 5.609375 53.21875 1.3125 
z
" id="DejaVuSans-81"/>
       <path d="M 4.890625 31.390625 
L 31.203125 31.390625 
L 31.203125 23.390625 
L 4.890625 23.390625 
z
" id="DejaVuSans-45"/>
       <path d="M 9.8125 72.90625 
L 24.515625 72.90625 
L 43.109375 23.296875 
L 61.8125 72.90625 
L 76.515625 72.90625 
L 76.515625 0 
L 66.890625 0 
L 66.890625 64.015625 
L 48.09375 14.015625 
L 38.1875 14.015625 
L 19.390625 64.015625 
L 19.390625 0 
L 9.8125 0 
z
" id="DejaVuSans-77"/>
       <path d="M 9.8125 72.90625 
L 23.09375 72.90625 
L 55.421875 11.921875 
L 55.421875 72.90625 
L 64.984375 72.90625 
L 64.984375 0 
L 51.703125 0 
L 19.390625 60.984375 
L 19.390625 0 
L 9.8125 0 
z
" id="DejaVuSans-78"/>
       <path d="M 31 75.875 
Q 24.46875 64.65625 21.28125 53.65625 
Q 18.109375 42.671875 18.109375 31.390625 
Q 18.109375 20.125 21.3125 9.0625 
Q 24.515625 -2 31 -13.1875 
L 23.1875 -13.1875 
Q 15.875 -1.703125 12.234375 9.375 
Q 8.59375 20.453125 8.59375 31.390625 
Q 8.59375 42.28125 12.203125 53.3125 
Q 15.828125 64.359375 23.1875 75.875 
z
" id="DejaVuSans-40"/>
       <path d="M 31.78125 34.625 
Q 24.75 34.625 20.71875 30.859375 
Q 16.703125 27.09375 16.703125 20.515625 
Q 16.703125 13.921875 20.71875 10.15625 
Q 24.75 6.390625 31.78125 6.390625 
Q 38.8125 6.390625 42.859375 10.171875 
Q 46.921875 13.96875 46.921875 20.515625 
Q 46.921875 27.09375 42.890625 30.859375 
Q 38.875 34.625 31.78125 34.625 
z
M 21.921875 38.8125 
Q 15.578125 40.375 12.03125 44.71875 
Q 8.5 49.078125 8.5 55.328125 
Q 8.5 64.0625 14.71875 69.140625 
Q 20.953125 74.21875 31.78125 74.21875 
Q 42.671875 74.21875 48.875 69.140625 
Q 55.078125 64.0625 55.078125 55.328125 
Q 55.078125 49.078125 51.53125 44.71875 
Q 48 40.375 41.703125 38.8125 
Q 48.828125 37.15625 52.796875 32.3125 
Q 56.78125 27.484375 56.78125 20.515625 
Q 56.78125 9.90625 50.3125 4.234375 
Q 43.84375 -1.421875 31.78125 -1.421875 
Q 19.734375 -1.421875 13.25 4.234375 
Q 6.78125 9.90625 6.78125 20.515625 
Q 6.78125 27.484375 10.78125 32.3125 
Q 14.796875 37.15625 21.921875 38.8125 
z
M 18.3125 54.390625 
Q 18.3125 48.734375 21.84375 45.5625 
Q 25.390625 42.390625 31.78125 42.390625 
Q 38.140625 42.390625 41.71875 45.5625 
Q 45.3125 48.734375 45.3125 54.390625 
Q 45.3125 60.0625 41.71875 63.234375 
Q 38.140625 66.40625 31.78125 66.40625 
Q 25.390625 66.40625 21.84375 63.234375 
Q 18.3125 60.0625 18.3125 54.390625 
z
" id="DejaVuSans-56"/>
       <path d="M 11.71875 12.40625 
L 22.015625 12.40625 
L 22.015625 4 
L 14.015625 -11.625 
L 7.71875 -11.625 
L 11.71875 4 
z
" id="DejaVuSans-44"/>
       <path d="M 8.015625 75.875 
L 15.828125 75.875 
Q 23.140625 64.359375 26.78125 53.3125 
Q 30.421875 42.28125 30.421875 31.390625 
Q 30.421875 20.453125 26.78125 9.375 
Q 23.140625 -1.703125 15.828125 -13.1875 
L 8.015625 -13.1875 
Q 14.5 -2 17.703125 9.0625 
Q 20.90625 20.125 20.90625 31.390625 
Q 20.90625 42.671875 17.703125 53.65625 
Q 14.5 64.65625 8.015625 75.875 
z
" id="DejaVuSans-41"/>
       <path d="M 48.6875 27.296875 
Q 48.6875 37.203125 44.609375 42.84375 
Q 40.53125 48.484375 33.40625 48.484375 
Q 26.265625 48.484375 22.1875 42.84375 
Q 18.109375 37.203125 18.109375 27.296875 
Q 18.109375 17.390625 22.1875 11.75 
Q 26.265625 6.109375 33.40625 6.109375 
Q 40.53125 6.109375 44.609375 11.75 
Q 48.6875 17.390625 48.6875 27.296875 
z
M 18.109375 46.390625 
Q 20.953125 51.265625 25.265625 53.625 
Q 29.59375 56 35.59375 56 
Q 45.5625 56 51.78125 48.09375 
Q 58.015625 40.1875 58.015625 27.296875 
Q 58.015625 14.40625 51.78125 6.484375 
Q 45.5625 -1.421875 35.59375 -1.421875 
Q 29.59375 -1.421875 25.265625 0.953125 
Q 20.953125 3.328125 18.109375 8.203125 
L 18.109375 0 
L 9.078125 0 
L 9.078125 75.984375 
L 18.109375 75.984375 
z
" id="DejaVuSans-98"/>
       <path d="M 18.3125 70.21875 
L 18.3125 54.6875 
L 36.8125 54.6875 
L 36.8125 47.703125 
L 18.3125 47.703125 
L 18.3125 18.015625 
Q 18.3125 11.328125 20.140625 9.421875 
Q 21.96875 7.515625 27.59375 7.515625 
L 36.8125 7.515625 
L 36.8125 0 
L 27.59375 0 
Q 17.1875 0 13.234375 3.875 
Q 9.28125 7.765625 9.28125 18.015625 
L 9.28125 47.703125 
L 2.6875 47.703125 
L 2.6875 54.6875 
L 9.28125 54.6875 
L 9.28125 70.21875 
z
" id="DejaVuSans-116"/>
      </defs>
      <use xlink:href="#DejaVuSans-81"/>
      <use x="78.710938" xlink:href="#DejaVuSans-83"/>
      <use x="142.1875" xlink:href="#DejaVuSans-71"/>
      <use x="219.677734" xlink:href="#DejaVuSans-68"/>
      <use x="296.679688" xlink:href="#DejaVuSans-45"/>
      <use x="332.763672" xlink:href="#DejaVuSans-77"/>
      <use x="419.042969" xlink:href="#DejaVuSans-78"/>
      <use x="493.847656" xlink:href="#DejaVuSans-45"/>
      <use x="520.806641" xlink:href="#DejaVuSans-84"/>
      <use x="581.890625" xlink:href="#DejaVuSans-83"/>
      <use x="645.367188" xlink:href="#DejaVuSans-32"/>
      <use x="677.154297" xlink:href="#DejaVuSans-40"/>
      <use x="716.167969" xlink:href="#DejaVuSans-56"/>
      <use x="779.791016" xlink:href="#DejaVuSans-44"/>
      <use x="811.578125" xlink:href="#DejaVuSans-49"/>
      <use x="875.201172" xlink:href="#DejaVuSans-50"/>
      <use x="938.824219" xlink:href="#DejaVuSans-41"/>
      <use x="977.837891" xlink:href="#DejaVuSans-32"/>
      <use x="1009.625" xlink:href="#DejaVuSans-98"/>
      <use x="1073.101562" xlink:href="#DejaVuSans-105"/>
      <use x="1100.884766" xlink:href="#DejaVuSans-116"/>
      <use x="1140.09375" xlink:href="#DejaVuSans-115"/>
     </g>
    </g>
    <g id="line2d_22">
     <path d="M 293.78125 57.214687 
L 313.78125 57.214687 
" style="fill:none;stroke:#2ca02c;stroke-linecap:square;stroke-width:1.5;"/>
    </g>
    <g id="line2d_23"/>
    <g id="text_17">
     <!-- QSGD-MN-TS (6,10) bits -->
     <g transform="translate(321.78125 60.714687)scale(0.1 -0.1)">
      <defs>
       <path d="M 33.015625 40.375 
Q 26.375 40.375 22.484375 35.828125 
Q 18.609375 31.296875 18.609375 23.390625 
Q 18.609375 15.53125 22.484375 10.953125 
Q 26.375 6.390625 33.015625 6.390625 
Q 39.65625 6.390625 43.53125 10.953125 
Q 47.40625 15.53125 47.40625 23.390625 
Q 47.40625 31.296875 43.53125 35.828125 
Q 39.65625 40.375 33.015625 40.375 
z
M 52.59375 71.296875 
L 52.59375 62.3125 
Q 48.875 64.0625 45.09375 64.984375 
Q 41.3125 65.921875 37.59375 65.921875 
Q 27.828125 65.921875 22.671875 59.328125 
Q 17.53125 52.734375 16.796875 39.40625 
Q 19.671875 43.65625 24.015625 45.921875 
Q 28.375 48.1875 33.59375 48.1875 
Q 44.578125 48.1875 50.953125 41.515625 
Q 57.328125 34.859375 57.328125 23.390625 
Q 57.328125 12.15625 50.6875 5.359375 
Q 44.046875 -1.421875 33.015625 -1.421875 
Q 20.359375 -1.421875 13.671875 8.265625 
Q 6.984375 17.96875 6.984375 36.375 
Q 6.984375 53.65625 15.1875 63.9375 
Q 23.390625 74.21875 37.203125 74.21875 
Q 40.921875 74.21875 44.703125 73.484375 
Q 48.484375 72.75 52.59375 71.296875 
z
" id="DejaVuSans-54"/>
      </defs>
      <use xlink:href="#DejaVuSans-81"/>
      <use x="78.710938" xlink:href="#DejaVuSans-83"/>
      <use x="142.1875" xlink:href="#DejaVuSans-71"/>
      <use x="219.677734" xlink:href="#DejaVuSans-68"/>
      <use x="296.679688" xlink:href="#DejaVuSans-45"/>
      <use x="332.763672" xlink:href="#DejaVuSans-77"/>
      <use x="419.042969" xlink:href="#DejaVuSans-78"/>
      <use x="493.847656" xlink:href="#DejaVuSans-45"/>
      <use x="520.806641" xlink:href="#DejaVuSans-84"/>
      <use x="581.890625" xlink:href="#DejaVuSans-83"/>
      <use x="645.367188" xlink:href="#DejaVuSans-32"/>
      <use x="677.154297" xlink:href="#DejaVuSans-40"/>
      <use x="716.167969" xlink:href="#DejaVuSans-54"/>
      <use x="779.791016" xlink:href="#DejaVuSans-44"/>
      <use x="811.578125" xlink:href="#DejaVuSans-49"/>
      <use x="875.201172" xlink:href="#DejaVuSans-48"/>
      <use x="938.824219" xlink:href="#DejaVuSans-41"/>
      <use x="977.837891" xlink:href="#DejaVuSans-32"/>
      <use x="1009.625" xlink:href="#DejaVuSans-98"/>
      <use x="1073.101562" xlink:href="#DejaVuSans-105"/>
      <use x="1100.884766" xlink:href="#DejaVuSans-116"/>
      <use x="1140.09375" xlink:href="#DejaVuSans-115"/>
     </g>
    </g>
    <g id="line2d_24">
     <path d="M 293.78125 71.892812 
L 313.78125 71.892812 
" style="fill:none;stroke:#d62728;stroke-linecap:square;stroke-width:1.5;"/>
    </g>
    <g id="line2d_25"/>
    <g id="text_18">
     <!-- QSGD-MN-TS (4,8) bits -->
     <g transform="translate(321.78125 75.392812)scale(0.1 -0.1)">
      <defs>
       <path d="M 37.796875 64.3125 
L 12.890625 25.390625 
L 37.796875 25.390625 
z
M 35.203125 72.90625 
L 47.609375 72.90625 
L 47.609375 25.390625 
L 58.015625 25.390625 
L 58.015625 17.1875 
L 47.609375 17.1875 
L 47.609375 0 
L 37.796875 0 
L 37.796875 17.1875 
L 4.890625 17.1875 
L 4.890625 26.703125 
z
" id="DejaVuSans-52"/>
      </defs>
      <use xlink:href="#DejaVuSans-81"/>
      <use x="78.710938" xlink:href="#DejaVuSans-83"/>
      <use x="142.1875" xlink:href="#DejaVuSans-71"/>
      <use x="219.677734" xlink:href="#DejaVuSans-68"/>
      <use x="296.679688" xlink:href="#DejaVuSans-45"/>
      <use x="332.763672" xlink:href="#DejaVuSans-77"/>
      <use x="419.042969" xlink:href="#DejaVuSans-78"/>
      <use x="493.847656" xlink:href="#DejaVuSans-45"/>
      <use x="520.806641" xlink:href="#DejaVuSans-84"/>
      <use x="581.890625" xlink:href="#DejaVuSans-83"/>
      <use x="645.367188" xlink:href="#DejaVuSans-32"/>
      <use x="677.154297" xlink:href="#DejaVuSans-40"/>
      <use x="716.167969" xlink:href="#DejaVuSans-52"/>
      <use x="779.791016" xlink:href="#DejaVuSans-44"/>
      <use x="811.578125" xlink:href="#DejaVuSans-56"/>
      <use x="875.201172" xlink:href="#DejaVuSans-41"/>
      <use x="914.214844" xlink:href="#DejaVuSans-32"/>
      <use x="946.001953" xlink:href="#DejaVuSans-98"/>
      <use x="1009.478516" xlink:href="#DejaVuSans-105"/>
      <use x="1037.261719" xlink:href="#DejaVuSans-116"/>
      <use x="1076.470703" xlink:href="#DejaVuSans-115"/>
     </g>
    </g>
    <g id="line2d_26">
     <path d="M 293.78125 86.570937 
L 313.78125 86.570937 
" style="fill:none;stroke:#9467bd;stroke-linecap:square;stroke-width:1.5;"/>
    </g>
    <g id="line2d_27"/>
    <g id="text_19">
     <!-- QSGD-MN-TS (2,6) bits -->
     <g transform="translate(321.78125 90.070937)scale(0.1 -0.1)">
      <use xlink:href="#DejaVuSans-81"/>
      <use x="78.710938" xlink:href="#DejaVuSans-83"/>
      <use x="142.1875" xlink:href="#DejaVuSans-71"/>
      <use x="219.677734" xlink:href="#DejaVuSans-68"/>
      <use x="296.679688" xlink:href="#DejaVuSans-45"/>
      <use x="332.763672" xlink:href="#DejaVuSans-77"/>
      <use x="419.042969" xlink:href="#DejaVuSans-78"/>
      <use x="493.847656" xlink:href="#DejaVuSans-45"/>
      <use x="520.806641" xlink:href="#DejaVuSans-84"/>
      <use x="581.890625" xlink:href="#DejaVuSans-83"/>
      <use x="645.367188" xlink:href="#DejaVuSans-32"/>
      <use x="677.154297" xlink:href="#DejaVuSans-40"/>
      <use x="716.167969" xlink:href="#DejaVuSans-50"/>
      <use x="779.791016" xlink:href="#DejaVuSans-44"/>
      <use x="811.578125" xlink:href="#DejaVuSans-54"/>
      <use x="875.201172" xlink:href="#DejaVuSans-41"/>
      <use x="914.214844" xlink:href="#DejaVuSans-32"/>
      <use x="946.001953" xlink:href="#DejaVuSans-98"/>
      <use x="1009.478516" xlink:href="#DejaVuSans-105"/>
      <use x="1037.261719" xlink:href="#DejaVuSans-116"/>
      <use x="1076.470703" xlink:href="#DejaVuSans-115"/>
     </g>
    </g>
   </g>
  </g>
 </g>
 <defs>
  <clipPath id="pe069845975">
   <rect height="288.88" width="402.28" x="47.72" y="14.76"/>
  </clipPath>
 </defs>
</svg>
