<?xml version="1.0" encoding="utf-8" standalone="no"?>
<!DOCTYPE svg PUBLIC "-//W3C//DTD SVG 1.1//EN"
  "http://www.w3.org/Graphics/SVG/1.1/DTD/svg11.dtd">
<!-- Created with matplotlib (https://matplotlib.org/) -->
<svg height="345.6pt" version="1.1" viewBox="0 0 460.8 345.6" width="460.8pt" xmlns="http://www.w3.org/2000/svg" xmlns:xlink="http://www.w3.org/1999/xlink">
 <metadata>
  <rdf:RDF xmlns:cc="http://creativecommons.org/ns#" xmlns:dc="http://purl.org/dc/elements/1.1/" xmlns:rdf="http://www.w3.org/1999/02/22-rdf-syntax-ns#">
   <cc:Work>
    <dc:type rdf:resource="http://purl.org/dc/dcmitype/StillImage"/>
    <dc:date>2021-06-10T08:57:45.438368</dc:date>
    <dc:format>image/svg+xml</dc:format>
    <dc:creator>
     <cc:Agent>
      <dc:title>Matplotlib v3.3.1, https://matplotlib.org/</dc:title>
     </cc:Agent>
    </dc:creator>
   </cc:Work>
  </rdf:RDF>
 </metadata>
 <defs>
  <style type="text/css">*{stroke-linecap:butt;stroke-linejoin:round;}</style>
 </defs>
 <g id="figure_1">
  <g id="patch_1">
   <path d="M 0 345.6 
L 460.8 345.6 
L 460.8 0 
L 0 0 
z
" style="fill:#ffffff;"/>
  </g>
  <g id="axes_1">
   <g id="patch_2">
    <path d="M 47.72 303.64 
L 450 303.64 
L 450 14.76 
L 47.72 14.76 
z
" style="fill:#ffffff;"/>
   </g>
   <g id="PolyCollection_1">
    <path clip-path="url(#p6b594819ec)" d="M 66.005455 40.802604 
L 66.005455 41.979646 
L 68.459878 88.835256 
L 70.914301 97.781353 
L 73.368725 104.679396 
L 75.823148 137.331326 
L 78.277572 187.413644 
L 80.731995 210.747209 
L 83.186419 217.046819 
L 85.640842 220.342012 
L 88.095265 217.943777 
L 90.549689 232.784613 
L 93.004112 247.040387 
L 95.458536 248.401217 
L 97.912959 244.612147 
L 100.367383 252.706133 
L 102.821806 249.178948 
L 105.276229 261.045668 
L 107.730653 252.918326 
L 110.185076 258.530559 
L 112.6395 259.887104 
L 115.093923 254.603387 
L 117.548347 251.628373 
L 120.00277 273.554631 
L 122.457193 254.628374 
L 124.911617 260.513619 
L 127.36604 268.696328 
L 129.820464 267.360066 
L 132.274887 263.336193 
L 134.729311 266.840207 
L 137.183734 274.884038 
L 139.638157 271.540501 
L 142.092581 275.373504 
L 144.547004 278.649971 
L 147.001428 269.765859 
L 149.455851 278.424915 
L 151.910275 275.442379 
L 154.364698 279.617393 
L 156.819121 275.108966 
L 159.273545 272.163921 
L 161.727968 273.810945 
L 164.182392 280.528634 
L 166.636815 275.20428 
L 169.091239 281.171338 
L 171.545662 275.302152 
L 174.000085 285.473329 
L 176.454509 278.549751 
L 178.908932 280.372394 
L 181.363356 280.046105 
L 183.817779 278.381856 
L 186.272203 282.357637 
L 188.726626 280.808635 
L 191.181049 283.514675 
L 193.635473 278.759053 
L 196.089896 284.210639 
L 198.54432 288.87576 
L 200.998743 283.989354 
L 203.453167 281.284608 
L 205.90759 288.672529 
L 208.362013 286.928243 
L 210.816437 280.494637 
L 213.27086 288.957053 
L 215.725284 284.022315 
L 218.179707 279.623706 
L 220.634131 284.198743 
L 223.088554 283.593715 
L 225.542977 293.320146 
L 227.997401 290.608574 
L 230.451824 288.021026 
L 232.906248 290.415334 
L 235.360671 286.410395 
L 237.815095 281.789816 
L 240.269518 290.624992 
L 242.723941 290.648159 
L 245.178365 283.061849 
L 247.632788 289.251348 
L 250.087212 287.381949 
L 252.541635 293.429749 
L 254.996059 292.593902 
L 257.450482 290.986944 
L 259.904905 292.699345 
L 262.359329 291.820514 
L 264.813752 292.286056 
L 267.268176 290.71529 
L 269.722599 291.551953 
L 272.177023 288.34608 
L 274.631446 294.023946 
L 277.085869 292.325256 
L 279.540293 289.062324 
L 281.994716 293.844748 
L 284.44914 290.704628 
L 286.903563 293.892858 
L 289.357987 292.171733 
L 291.81241 296.149879 
L 294.266833 293.350941 
L 296.721257 294.501036 
L 299.17568 296.101413 
L 301.630104 295.814309 
L 304.084527 295.777691 
L 306.538951 297.33294 
L 308.993374 296.47463 
L 311.447797 298.976097 
L 313.902221 299.010856 
L 316.356644 298.374279 
L 318.811068 297.417501 
L 321.265491 300.308499 
L 323.719915 300.549981 
L 326.174338 300.84698 
L 328.628761 298.837703 
L 331.083185 301.91931 
L 333.537608 301.929774 
L 335.992032 301.439175 
L 338.446455 302.125021 
L 340.900879 303.263883 
L 343.355302 301.355604 
L 345.809725 302.820925 
L 348.264149 302.384463 
L 350.718572 303.299534 
L 353.172996 302.206533 
L 355.627419 303.078695 
L 358.081843 302.751963 
L 360.536266 302.242961 
L 362.990689 302.533382 
L 365.445113 303.214266 
L 367.899536 302.86998 
L 370.35396 302.754907 
L 372.808383 303.150657 
L 375.262807 303.476913 
L 377.71723 303.549472 
L 380.171653 303.540276 
L 382.626077 303.502376 
L 385.0805 303.489701 
L 387.534924 303.540081 
L 389.989347 303.545249 
L 392.443771 303.601142 
L 394.898194 303.645018 
L 397.352617 303.580732 
L 399.807041 303.591333 
L 402.261464 303.538841 
L 404.715888 303.541157 
L 407.170311 303.546406 
L 409.624735 303.570919 
L 412.079158 303.543187 
L 414.533581 303.616341 
L 416.988005 303.604025 
L 419.442428 303.568074 
L 421.896852 303.56903 
L 424.351275 303.553094 
L 426.805699 303.551858 
L 429.260122 303.596247 
L 431.714545 303.544533 
L 431.714545 303.512843 
L 431.714545 303.512843 
L 429.260122 303.378766 
L 426.805699 303.50521 
L 424.351275 303.488589 
L 421.896852 303.462184 
L 419.442428 303.393914 
L 416.988005 303.376521 
L 414.533581 303.285501 
L 412.079158 303.532416 
L 409.624735 303.415313 
L 407.170311 303.182334 
L 404.715888 303.353191 
L 402.261464 303.445737 
L 399.807041 303.402965 
L 397.352617 303.044686 
L 394.898194 302.131074 
L 392.443771 303.312997 
L 389.989347 302.921924 
L 387.534924 303.446216 
L 385.0805 302.766506 
L 382.626077 303.056262 
L 380.171653 303.257405 
L 377.71723 303.250347 
L 375.262807 302.087378 
L 372.808383 301.070131 
L 370.35396 302.554206 
L 367.899536 300.146818 
L 365.445113 302.226557 
L 362.990689 301.308763 
L 360.536266 299.910054 
L 358.081843 301.709764 
L 355.627419 300.158854 
L 353.172996 299.842454 
L 350.718572 297.444697 
L 348.264149 298.602911 
L 345.809725 300.282798 
L 343.355302 297.341924 
L 340.900879 299.229426 
L 338.446455 298.405865 
L 335.992032 298.717916 
L 333.537608 299.965464 
L 331.083185 298.496616 
L 328.628761 295.098524 
L 326.174338 295.403249 
L 323.719915 296.390005 
L 321.265491 296.126511 
L 318.811068 293.012106 
L 316.356644 295.690307 
L 313.902221 295.632055 
L 311.447797 295.720414 
L 308.993374 291.156453 
L 306.538951 293.488799 
L 304.084527 294.022812 
L 301.630104 294.508097 
L 299.17568 288.426466 
L 296.721257 291.279409 
L 294.266833 289.611231 
L 291.81241 290.54319 
L 289.357987 287.371274 
L 286.903563 290.81275 
L 284.44914 286.017284 
L 281.994716 287.40502 
L 279.540293 282.615473 
L 277.085869 287.561924 
L 274.631446 288.9749 
L 272.177023 285.66194 
L 269.722599 286.351998 
L 267.268176 283.797706 
L 264.813752 287.536239 
L 262.359329 283.637548 
L 259.904905 289.1626 
L 257.450482 283.607864 
L 254.996059 289.084672 
L 252.541635 287.554836 
L 250.087212 280.38017 
L 247.632788 282.079455 
L 245.178365 277.455701 
L 242.723941 284.115914 
L 240.269518 284.720227 
L 237.815095 276.329805 
L 235.360671 282.451951 
L 232.906248 286.013185 
L 230.451824 285.428418 
L 227.997401 282.175091 
L 225.542977 287.681366 
L 223.088554 275.293242 
L 220.634131 278.874718 
L 218.179707 274.399686 
L 215.725284 279.271191 
L 213.27086 287.40376 
L 210.816437 275.994392 
L 208.362013 282.300844 
L 205.90759 281.306969 
L 203.453167 274.538642 
L 200.998743 278.463466 
L 198.54432 284.342354 
L 196.089896 279.534242 
L 193.635473 277.983873 
L 191.181049 275.456916 
L 188.726626 274.56324 
L 186.272203 273.685659 
L 183.817779 272.132095 
L 181.363356 274.287607 
L 178.908932 267.788765 
L 176.454509 274.136442 
L 174.000085 278.90912 
L 171.545662 268.802274 
L 169.091239 279.058461 
L 166.636815 270.073722 
L 164.182392 273.618887 
L 161.727968 270.767425 
L 159.273545 270.084226 
L 156.819121 269.723303 
L 154.364698 270.185643 
L 151.910275 271.477499 
L 149.455851 275.801596 
L 147.001428 264.086712 
L 144.547004 266.977846 
L 142.092581 272.607105 
L 139.638157 266.859674 
L 137.183734 270.856623 
L 134.729311 260.083759 
L 132.274887 254.334585 
L 129.820464 263.07334 
L 127.36604 262.053041 
L 124.911617 257.913213 
L 122.457193 251.453351 
L 120.00277 267.807693 
L 117.548347 243.372096 
L 115.093923 246.242388 
L 112.6395 250.663234 
L 110.185076 251.827944 
L 107.730653 242.815627 
L 105.276229 252.077507 
L 102.821806 244.523818 
L 100.367383 246.99992 
L 97.912959 240.322659 
L 95.458536 239.523949 
L 93.004112 239.271113 
L 90.549689 229.107499 
L 88.095265 207.206411 
L 85.640842 211.533663 
L 83.186419 203.7476 
L 80.731995 196.235134 
L 78.277572 167.886262 
L 75.823148 104.154374 
L 73.368725 81.783691 
L 70.914301 94.143372 
L 68.459878 70.635606 
L 66.005455 40.802604 
z
" style="fill:#1f77b4;fill-opacity:0.25;"/>
   </g>
   <g id="PolyCollection_2">
    <path clip-path="url(#p6b594819ec)" d="M 66.005455 37.283612 
L 66.005455 37.464162 
L 68.459878 39.585625 
L 70.914301 39.154539 
L 73.368725 45.262857 
L 75.823148 60.021005 
L 78.277572 90.679784 
L 80.731995 105.08225 
L 83.186419 121.10724 
L 85.640842 156.221452 
L 88.095265 154.068468 
L 90.549689 206.515754 
L 93.004112 202.976036 
L 95.458536 224.941723 
L 97.912959 228.278407 
L 100.367383 237.926043 
L 102.821806 236.035448 
L 105.276229 245.567211 
L 107.730653 236.773541 
L 110.185076 243.18863 
L 112.6395 247.654555 
L 115.093923 248.398141 
L 117.548347 241.69522 
L 120.00277 261.978119 
L 122.457193 247.153517 
L 124.911617 260.932397 
L 127.36604 262.092305 
L 129.820464 260.106143 
L 132.274887 257.897293 
L 134.729311 257.586983 
L 137.183734 273.716414 
L 139.638157 268.342398 
L 142.092581 269.507008 
L 144.547004 269.419826 
L 147.001428 267.009492 
L 149.455851 276.111445 
L 151.910275 273.010628 
L 154.364698 276.061851 
L 156.819121 265.437008 
L 159.273545 265.83101 
L 161.727968 269.582828 
L 164.182392 271.289563 
L 166.636815 271.418425 
L 169.091239 274.329334 
L 171.545662 270.137714 
L 174.000085 278.116646 
L 176.454509 269.710363 
L 178.908932 275.146055 
L 181.363356 276.889111 
L 183.817779 273.877814 
L 186.272203 273.881559 
L 188.726626 274.572515 
L 191.181049 276.300144 
L 193.635473 277.691894 
L 196.089896 281.304235 
L 198.54432 288.038939 
L 200.998743 282.98461 
L 203.453167 277.319004 
L 205.90759 285.755401 
L 208.362013 283.119756 
L 210.816437 276.53355 
L 213.27086 285.172382 
L 215.725284 277.486965 
L 218.179707 276.14772 
L 220.634131 284.262618 
L 223.088554 277.719469 
L 225.542977 290.405915 
L 227.997401 285.43648 
L 230.451824 284.679869 
L 232.906248 288.009132 
L 235.360671 284.716255 
L 237.815095 280.219594 
L 240.269518 287.030113 
L 242.723941 286.522472 
L 245.178365 278.456958 
L 247.632788 284.29812 
L 250.087212 282.356987 
L 252.541635 286.076663 
L 254.996059 285.78908 
L 257.450482 286.502814 
L 259.904905 289.254663 
L 262.359329 290.334985 
L 264.813752 288.879719 
L 267.268176 289.927711 
L 269.722599 289.821168 
L 272.177023 291.133348 
L 274.631446 291.572738 
L 277.085869 291.368238 
L 279.540293 290.569662 
L 281.994716 291.856965 
L 284.44914 287.218702 
L 286.903563 293.17672 
L 289.357987 290.464116 
L 291.81241 295.962174 
L 294.266833 290.698659 
L 296.721257 295.143244 
L 299.17568 294.493801 
L 301.630104 295.240224 
L 304.084527 297.091013 
L 306.538951 295.173884 
L 308.993374 295.730181 
L 311.447797 298.773086 
L 313.902221 296.743071 
L 316.356644 300.354888 
L 318.811068 294.846554 
L 321.265491 297.845025 
L 323.719915 298.206258 
L 326.174338 298.901958 
L 328.628761 299.326254 
L 331.083185 298.839473 
L 333.537608 299.782566 
L 335.992032 299.508532 
L 338.446455 300.665584 
L 340.900879 301.614368 
L 343.355302 300.472333 
L 345.809725 300.83212 
L 348.264149 301.264092 
L 350.718572 299.824879 
L 353.172996 302.106386 
L 355.627419 302.765377 
L 358.081843 302.610075 
L 360.536266 301.275437 
L 362.990689 302.885376 
L 365.445113 303.253236 
L 367.899536 303.181897 
L 370.35396 302.952281 
L 372.808383 303.249564 
L 375.262807 303.555253 
L 377.71723 303.478618 
L 380.171653 303.55564 
L 382.626077 303.62498 
L 385.0805 303.783145 
L 387.534924 303.487359 
L 389.989347 303.528432 
L 392.443771 303.632354 
L 394.898194 303.871141 
L 397.352617 303.550065 
L 399.807041 303.680643 
L 402.261464 303.583291 
L 404.715888 303.77166 
L 407.170311 303.647768 
L 409.624735 303.586824 
L 412.079158 303.598751 
L 414.533581 303.598676 
L 416.988005 303.633889 
L 419.442428 303.591279 
L 421.896852 303.689936 
L 424.351275 303.812605 
L 426.805699 303.593406 
L 429.260122 303.60309 
L 431.714545 303.671522 
L 431.714545 302.635685 
L 431.714545 302.635685 
L 429.260122 303.327183 
L 426.805699 303.328778 
L 424.351275 302.764766 
L 421.896852 303.169677 
L 419.442428 303.55398 
L 416.988005 303.461142 
L 414.533581 303.556469 
L 412.079158 303.537539 
L 409.624735 303.550116 
L 407.170311 302.755578 
L 404.715888 302.849879 
L 402.261464 303.150662 
L 399.807041 303.310217 
L 397.352617 303.414214 
L 394.898194 301.396163 
L 392.443771 303.391444 
L 389.989347 302.257006 
L 387.534924 303.071676 
L 385.0805 302.660951 
L 382.626077 302.305479 
L 380.171653 303.359336 
L 377.71723 303.375485 
L 375.262807 302.484876 
L 372.808383 301.655604 
L 370.35396 300.921601 
L 367.899536 301.571108 
L 365.445113 302.548951 
L 362.990689 301.024828 
L 360.536266 298.884828 
L 358.081843 300.429116 
L 355.627419 301.011882 
L 353.172996 300.280074 
L 350.718572 296.959242 
L 348.264149 298.661316 
L 345.809725 296.735912 
L 343.355302 296.699688 
L 340.900879 299.657407 
L 338.446455 298.708301 
L 335.992032 296.209216 
L 333.537608 296.661613 
L 331.083185 297.130762 
L 328.628761 293.945605 
L 326.174338 294.196404 
L 323.719915 294.793366 
L 321.265491 293.666471 
L 318.811068 292.053865 
L 316.356644 296.903176 
L 313.902221 290.473311 
L 311.447797 293.251144 
L 308.993374 292.044777 
L 306.538951 287.934985 
L 304.084527 287.214 
L 301.630104 289.314455 
L 299.17568 290.285155 
L 296.721257 286.100882 
L 294.266833 286.088139 
L 291.81241 289.169419 
L 289.357987 285.366331 
L 286.903563 287.824792 
L 284.44914 285.869641 
L 281.994716 286.616846 
L 279.540293 281.322538 
L 277.085869 286.104086 
L 274.631446 286.833368 
L 272.177023 285.244391 
L 269.722599 283.724193 
L 267.268176 277.738491 
L 264.813752 284.535872 
L 262.359329 283.153954 
L 259.904905 281.754534 
L 257.450482 281.24802 
L 254.996059 280.861528 
L 252.541635 280.918118 
L 250.087212 273.737088 
L 247.632788 279.723228 
L 245.178365 272.626855 
L 242.723941 279.789605 
L 240.269518 279.067561 
L 237.815095 273.013891 
L 235.360671 276.280881 
L 232.906248 282.946464 
L 230.451824 282.235922 
L 227.997401 280.7289 
L 225.542977 287.159504 
L 223.088554 270.938203 
L 220.634131 278.551303 
L 218.179707 272.318117 
L 215.725284 268.564017 
L 213.27086 276.840348 
L 210.816437 268.879865 
L 208.362013 278.554442 
L 205.90759 282.333964 
L 203.453167 274.90453 
L 200.998743 276.782529 
L 198.54432 281.229644 
L 196.089896 277.215981 
L 193.635473 273.888431 
L 191.181049 270.484321 
L 188.726626 271.292274 
L 186.272203 267.774158 
L 183.817779 268.641158 
L 181.363356 271.130994 
L 178.908932 266.707138 
L 176.454509 263.927806 
L 174.000085 272.363452 
L 171.545662 262.981374 
L 169.091239 267.698767 
L 166.636815 262.941944 
L 164.182392 264.549059 
L 161.727968 264.235891 
L 159.273545 263.022583 
L 156.819121 261.26127 
L 154.364698 269.977846 
L 151.910275 267.454588 
L 149.455851 269.064997 
L 147.001428 259.113283 
L 144.547004 263.924949 
L 142.092581 264.210151 
L 139.638157 264.189902 
L 137.183734 266.438482 
L 134.729311 250.311527 
L 132.274887 253.442951 
L 129.820464 257.7339 
L 127.36604 253.863248 
L 124.911617 254.131691 
L 122.457193 242.137058 
L 120.00277 257.960818 
L 117.548347 233.738143 
L 115.093923 237.281434 
L 112.6395 238.397405 
L 110.185076 240.572601 
L 107.730653 233.040203 
L 105.276229 237.347692 
L 102.821806 227.797577 
L 100.367383 228.660369 
L 97.912959 221.855387 
L 95.458536 216.90934 
L 93.004112 196.355502 
L 90.549689 192.409546 
L 88.095265 142.34957 
L 85.640842 141.73126 
L 83.186419 112.43426 
L 80.731995 103.633625 
L 78.277572 83.505903 
L 75.823148 51.649245 
L 73.368725 43.658093 
L 70.914301 38.933411 
L 68.459878 39.585625 
L 66.005455 37.283612 
z
" style="fill:#ff7f0e;fill-opacity:0.25;"/>
   </g>
   <g id="PolyCollection_3">
    <path clip-path="url(#p6b594819ec)" d="M 66.005455 38.272889 
L 66.005455 39.363686 
L 68.459878 39.787991 
L 70.914301 40.226787 
L 73.368725 50.044359 
L 75.823148 76.858267 
L 78.277572 93.619683 
L 80.731995 108.14315 
L 83.186419 131.680254 
L 85.640842 160.968216 
L 88.095265 168.524422 
L 90.549689 207.217813 
L 93.004112 206.463346 
L 95.458536 221.503747 
L 97.912959 226.440529 
L 100.367383 233.118144 
L 102.821806 237.822838 
L 105.276229 239.364818 
L 107.730653 235.085203 
L 110.185076 246.824292 
L 112.6395 240.229874 
L 115.093923 243.691662 
L 117.548347 239.446811 
L 120.00277 259.579821 
L 122.457193 246.168431 
L 124.911617 258.043031 
L 127.36604 256.178109 
L 129.820464 259.624428 
L 132.274887 262.191167 
L 134.729311 259.887865 
L 137.183734 271.935856 
L 139.638157 263.616568 
L 142.092581 267.744035 
L 144.547004 272.636992 
L 147.001428 264.522745 
L 149.455851 276.025794 
L 151.910275 270.777928 
L 154.364698 274.637649 
L 156.819121 269.334267 
L 159.273545 267.633842 
L 161.727968 269.236508 
L 164.182392 270.689565 
L 166.636815 270.839981 
L 169.091239 276.658965 
L 171.545662 270.258243 
L 174.000085 275.340725 
L 176.454509 271.12039 
L 178.908932 272.826189 
L 181.363356 278.855588 
L 183.817779 275.163308 
L 186.272203 280.223422 
L 188.726626 279.002407 
L 191.181049 277.853333 
L 193.635473 274.911796 
L 196.089896 281.781465 
L 198.54432 280.403003 
L 200.998743 284.985888 
L 203.453167 276.695932 
L 205.90759 283.660031 
L 208.362013 284.232102 
L 210.816437 275.316873 
L 213.27086 286.661096 
L 215.725284 280.104083 
L 218.179707 277.065747 
L 220.634131 279.250906 
L 223.088554 281.618087 
L 225.542977 292.38118 
L 227.997401 288.817954 
L 230.451824 284.300703 
L 232.906248 288.133085 
L 235.360671 285.172763 
L 237.815095 279.013704 
L 240.269518 285.841471 
L 242.723941 283.93104 
L 245.178365 277.862022 
L 247.632788 285.646044 
L 250.087212 280.982753 
L 252.541635 287.413041 
L 254.996059 287.490369 
L 257.450482 288.909128 
L 259.904905 290.243618 
L 262.359329 290.974691 
L 264.813752 293.628361 
L 267.268176 287.221174 
L 269.722599 291.387414 
L 272.177023 288.480742 
L 274.631446 292.442806 
L 277.085869 290.534319 
L 279.540293 291.501829 
L 281.994716 291.392765 
L 284.44914 289.018223 
L 286.903563 295.485041 
L 289.357987 292.690838 
L 291.81241 295.854344 
L 294.266833 292.35544 
L 296.721257 292.76866 
L 299.17568 295.496133 
L 301.630104 293.987066 
L 304.084527 297.382155 
L 306.538951 297.157794 
L 308.993374 295.843795 
L 311.447797 296.293313 
L 313.902221 294.579052 
L 316.356644 299.129774 
L 318.811068 294.957358 
L 321.265491 300.192921 
L 323.719915 298.455205 
L 326.174338 298.614712 
L 328.628761 298.908599 
L 331.083185 299.68912 
L 333.537608 301.984042 
L 335.992032 299.714612 
L 338.446455 300.661379 
L 340.900879 300.762928 
L 343.355302 299.482748 
L 345.809725 301.140968 
L 348.264149 300.394528 
L 350.718572 302.007984 
L 353.172996 301.444444 
L 355.627419 302.912508 
L 358.081843 302.207759 
L 360.536266 302.733065 
L 362.990689 302.713487 
L 365.445113 303.26771 
L 367.899536 303.020977 
L 370.35396 303.653048 
L 372.808383 303.364793 
L 375.262807 303.145495 
L 377.71723 303.967493 
L 380.171653 303.481015 
L 382.626077 303.456944 
L 385.0805 303.737633 
L 387.534924 303.520471 
L 389.989347 303.653933 
L 392.443771 303.579255 
L 394.898194 304.045289 
L 397.352617 303.798873 
L 399.807041 303.555807 
L 402.261464 303.668223 
L 404.715888 303.596025 
L 407.170311 303.539781 
L 409.624735 303.585916 
L 412.079158 303.605786 
L 414.533581 303.596171 
L 416.988005 303.597983 
L 419.442428 303.597662 
L 421.896852 303.661235 
L 424.351275 303.634172 
L 426.805699 303.602753 
L 429.260122 303.572872 
L 431.714545 303.851234 
L 431.714545 302.042728 
L 431.714545 302.042728 
L 429.260122 303.542447 
L 426.805699 303.55032 
L 424.351275 303.328852 
L 421.896852 303.24475 
L 419.442428 303.524621 
L 416.988005 303.57897 
L 414.533581 303.551083 
L 412.079158 303.501224 
L 409.624735 303.527661 
L 407.170311 303.409776 
L 404.715888 303.360916 
L 402.261464 303.166969 
L 399.807041 303.43956 
L 397.352617 302.572426 
L 394.898194 301.851636 
L 392.443771 303.462914 
L 389.989347 302.660349 
L 387.534924 303.170934 
L 385.0805 302.574952 
L 382.626077 302.900823 
L 380.171653 302.948646 
L 377.71723 302.265573 
L 375.262807 302.480198 
L 372.808383 301.422065 
L 370.35396 300.163795 
L 367.899536 301.561353 
L 365.445113 302.294156 
L 362.990689 300.437137 
L 360.536266 300.367308 
L 358.081843 301.69116 
L 355.627419 299.145648 
L 353.172996 297.563404 
L 350.718572 298.71932 
L 348.264149 296.702029 
L 345.809725 298.44203 
L 343.355302 296.168703 
L 340.900879 298.939615 
L 338.446455 297.507194 
L 335.992032 297.295196 
L 333.537608 299.101894 
L 331.083185 295.283154 
L 328.628761 295.658142 
L 326.174338 293.480751 
L 323.719915 295.691193 
L 321.265491 296.969932 
L 318.811068 290.414027 
L 316.356644 294.813505 
L 313.902221 290.702059 
L 311.447797 294.04743 
L 308.993374 291.416314 
L 306.538951 292.446643 
L 304.084527 290.763777 
L 301.630104 290.963977 
L 299.17568 291.037543 
L 296.721257 291.020092 
L 294.266833 284.752962 
L 291.81241 288.897812 
L 289.357987 286.716756 
L 286.903563 290.501344 
L 284.44914 284.555349 
L 281.994716 282.098995 
L 279.540293 286.193361 
L 277.085869 283.978677 
L 274.631446 286.860407 
L 272.177023 283.857191 
L 269.722599 285.190623 
L 267.268176 279.914661 
L 264.813752 288.676496 
L 262.359329 281.650994 
L 259.904905 283.211468 
L 257.450482 283.479584 
L 254.996059 281.343766 
L 252.541635 283.948793 
L 250.087212 276.358245 
L 247.632788 279.447321 
L 245.178365 274.513851 
L 242.723941 279.537374 
L 240.269518 276.707266 
L 237.815095 274.445469 
L 235.360671 282.39188 
L 232.906248 281.891551 
L 230.451824 280.945 
L 227.997401 286.301577 
L 225.542977 285.040364 
L 223.088554 276.586166 
L 220.634131 277.548442 
L 218.179707 271.462154 
L 215.725284 267.532353 
L 213.27086 281.072812 
L 210.816437 270.79053 
L 208.362013 277.041502 
L 205.90759 279.82531 
L 203.453167 269.010875 
L 200.998743 276.959135 
L 198.54432 276.311713 
L 196.089896 278.262142 
L 193.635473 271.297166 
L 191.181049 268.491042 
L 188.726626 274.298785 
L 186.272203 265.934761 
L 183.817779 267.350021 
L 181.363356 268.668004 
L 178.908932 267.142514 
L 176.454509 266.82841 
L 174.000085 272.233647 
L 171.545662 258.110122 
L 169.091239 267.530094 
L 166.636815 264.919651 
L 164.182392 268.037857 
L 161.727968 259.921764 
L 159.273545 257.800586 
L 156.819121 261.71978 
L 154.364698 268.343982 
L 151.910275 265.760325 
L 149.455851 269.444042 
L 147.001428 258.406552 
L 144.547004 262.9703 
L 142.092581 260.398643 
L 139.638157 258.838785 
L 137.183734 264.579828 
L 134.729311 253.178888 
L 132.274887 251.056136 
L 129.820464 254.999569 
L 127.36604 251.144898 
L 124.911617 254.267669 
L 122.457193 241.914716 
L 120.00277 255.992064 
L 117.548347 233.639402 
L 115.093923 232.712157 
L 112.6395 234.977801 
L 110.185076 241.619955 
L 107.730653 229.808554 
L 105.276229 232.773507 
L 102.821806 229.508344 
L 100.367383 227.961493 
L 97.912959 217.667408 
L 95.458536 217.323103 
L 93.004112 197.133685 
L 90.549689 198.703799 
L 88.095265 159.715553 
L 85.640842 147.275846 
L 83.186419 123.843209 
L 80.731995 99.308875 
L 78.277572 90.767079 
L 75.823148 71.418496 
L 73.368725 46.188866 
L 70.914301 38.673638 
L 68.459878 39.112434 
L 66.005455 38.272889 
z
" style="fill:#2ca02c;fill-opacity:0.25;"/>
   </g>
   <g id="PolyCollection_4">
    <path clip-path="url(#p6b594819ec)" d="M 66.005455 38.637737 
L 66.005455 38.998837 
L 68.459878 40.955789 
L 70.914301 42.095967 
L 73.368725 53.761607 
L 75.823148 67.873351 
L 78.277572 95.017701 
L 80.731995 107.819135 
L 83.186419 119.922092 
L 85.640842 151.098545 
L 88.095265 158.302944 
L 90.549689 202.743256 
L 93.004112 197.749364 
L 95.458536 221.401193 
L 97.912959 221.007412 
L 100.367383 234.986577 
L 102.821806 231.580057 
L 105.276229 239.649944 
L 107.730653 236.839243 
L 110.185076 237.759135 
L 112.6395 245.995212 
L 115.093923 241.401594 
L 117.548347 247.841586 
L 120.00277 263.093166 
L 122.457193 246.491323 
L 124.911617 260.389256 
L 127.36604 260.070163 
L 129.820464 260.761239 
L 132.274887 261.225442 
L 134.729311 254.490664 
L 137.183734 272.151594 
L 139.638157 266.000281 
L 142.092581 269.565319 
L 144.547004 270.890343 
L 147.001428 266.275951 
L 149.455851 276.122448 
L 151.910275 271.019864 
L 154.364698 275.324981 
L 156.819121 268.636527 
L 159.273545 268.351456 
L 161.727968 267.579046 
L 164.182392 273.001379 
L 166.636815 269.961316 
L 169.091239 270.054593 
L 171.545662 273.774313 
L 174.000085 275.305112 
L 176.454509 273.935056 
L 178.908932 271.113957 
L 181.363356 274.420816 
L 183.817779 275.904028 
L 186.272203 280.195434 
L 188.726626 277.864368 
L 191.181049 271.960357 
L 193.635473 275.739557 
L 196.089896 280.902662 
L 198.54432 286.563983 
L 200.998743 281.872605 
L 203.453167 276.054152 
L 205.90759 284.73996 
L 208.362013 283.23806 
L 210.816437 278.586964 
L 213.27086 283.518394 
L 215.725284 279.282574 
L 218.179707 279.19256 
L 220.634131 280.400231 
L 223.088554 280.495215 
L 225.542977 289.941118 
L 227.997401 284.824263 
L 230.451824 286.336639 
L 232.906248 289.815813 
L 235.360671 284.421752 
L 237.815095 276.832444 
L 240.269518 287.707082 
L 242.723941 286.213832 
L 245.178365 276.591719 
L 247.632788 283.609123 
L 250.087212 281.346813 
L 252.541635 288.62994 
L 254.996059 287.338403 
L 257.450482 289.334561 
L 259.904905 289.547945 
L 262.359329 288.2581 
L 264.813752 292.471949 
L 267.268176 286.374627 
L 269.722599 289.761614 
L 272.177023 289.009834 
L 274.631446 293.094391 
L 277.085869 287.960692 
L 279.540293 291.302256 
L 281.994716 293.523789 
L 284.44914 288.468955 
L 286.903563 294.974118 
L 289.357987 293.588188 
L 291.81241 295.117716 
L 294.266833 291.683154 
L 296.721257 291.193222 
L 299.17568 294.213476 
L 301.630104 295.261155 
L 304.084527 295.159538 
L 306.538951 296.033328 
L 308.993374 296.66459 
L 311.447797 296.579465 
L 313.902221 299.547474 
L 316.356644 298.548947 
L 318.811068 295.87438 
L 321.265491 298.772531 
L 323.719915 298.925089 
L 326.174338 298.967109 
L 328.628761 298.605285 
L 331.083185 299.348102 
L 333.537608 301.325592 
L 335.992032 300.420572 
L 338.446455 302.093248 
L 340.900879 301.991053 
L 343.355302 298.071381 
L 345.809725 300.610796 
L 348.264149 301.981288 
L 350.718572 302.823198 
L 353.172996 302.198854 
L 355.627419 302.321848 
L 358.081843 301.78797 
L 360.536266 301.915285 
L 362.990689 302.22758 
L 365.445113 303.194482 
L 367.899536 302.877382 
L 370.35396 303.176647 
L 372.808383 303.196923 
L 375.262807 302.964426 
L 377.71723 303.543214 
L 380.171653 303.503369 
L 382.626077 303.585584 
L 385.0805 303.620382 
L 387.534924 303.515497 
L 389.989347 303.59652 
L 392.443771 303.43666 
L 394.898194 303.565212 
L 397.352617 303.454171 
L 399.807041 304.085405 
L 402.261464 303.626495 
L 404.715888 303.565159 
L 407.170311 303.357468 
L 409.624735 303.63978 
L 412.079158 303.592148 
L 414.533581 303.781296 
L 416.988005 303.608065 
L 419.442428 303.563623 
L 421.896852 303.60529 
L 424.351275 303.604057 
L 426.805699 303.609047 
L 429.260122 303.654389 
L 431.714545 303.577652 
L 431.714545 303.519815 
L 431.714545 303.519815 
L 429.260122 303.404761 
L 426.805699 303.530163 
L 424.351275 303.481067 
L 421.896852 303.543264 
L 419.442428 303.441794 
L 416.988005 303.564579 
L 414.533581 303.030568 
L 412.079158 303.564187 
L 409.624735 303.223569 
L 407.170311 301.227726 
L 404.715888 303.468304 
L 402.261464 303.130391 
L 399.807041 301.053319 
L 397.352617 303.050778 
L 394.898194 303.022628 
L 392.443771 302.133206 
L 389.989347 303.158117 
L 387.534924 302.612857 
L 385.0805 302.748206 
L 382.626077 302.538605 
L 380.171653 300.894443 
L 377.71723 303.354814 
L 375.262807 302.385417 
L 372.808383 301.681357 
L 370.35396 301.644505 
L 367.899536 302.530646 
L 365.445113 301.295457 
L 362.990689 301.108883 
L 360.536266 300.696158 
L 358.081843 298.932282 
L 355.627419 299.824467 
L 353.172996 300.277882 
L 350.718572 299.171483 
L 348.264149 299.16777 
L 345.809725 297.176928 
L 343.355302 293.791342 
L 340.900879 299.849173 
L 338.446455 298.27613 
L 335.992032 296.31559 
L 333.537608 299.736717 
L 331.083185 294.870939 
L 328.628761 294.21802 
L 326.174338 294.445805 
L 323.719915 296.107133 
L 321.265491 296.472683 
L 318.811068 291.072587 
L 316.356644 295.518461 
L 313.902221 291.289781 
L 311.447797 292.944571 
L 308.993374 291.973623 
L 306.538951 291.610449 
L 304.084527 289.919865 
L 301.630104 289.622182 
L 299.17568 289.736079 
L 296.721257 290.045262 
L 294.266833 286.988135 
L 291.81241 287.914983 
L 289.357987 289.28653 
L 286.903563 287.69466 
L 284.44914 282.317376 
L 281.994716 288.250702 
L 279.540293 286.66658 
L 277.085869 282.667658 
L 274.631446 286.764577 
L 272.177023 281.169962 
L 269.722599 284.977069 
L 267.268176 282.295884 
L 264.813752 285.798744 
L 262.359329 283.146051 
L 259.904905 285.010188 
L 257.450482 278.901502 
L 254.996059 282.42105 
L 252.541635 281.657057 
L 250.087212 275.943406 
L 247.632788 279.046816 
L 245.178365 270.435361 
L 242.723941 279.912052 
L 240.269518 279.843455 
L 237.815095 271.430274 
L 235.360671 279.932485 
L 232.906248 284.163997 
L 230.451824 277.097922 
L 227.997401 280.776898 
L 225.542977 285.519766 
L 223.088554 273.522535 
L 220.634131 275.32146 
L 218.179707 268.771123 
L 215.725284 273.781646 
L 213.27086 280.519881 
L 210.816437 268.406262 
L 208.362013 277.905772 
L 205.90759 282.130693 
L 203.453167 269.675225 
L 200.998743 277.91146 
L 198.54432 278.326262 
L 196.089896 275.146276 
L 193.635473 271.77275 
L 191.181049 268.414584 
L 188.726626 271.103624 
L 186.272203 272.236861 
L 183.817779 270.451631 
L 181.363356 270.592003 
L 178.908932 264.216868 
L 176.454509 267.207222 
L 174.000085 269.74156 
L 171.545662 269.026768 
L 169.091239 267.352557 
L 166.636815 263.417312 
L 164.182392 263.040362 
L 161.727968 261.319685 
L 159.273545 258.527372 
L 156.819121 264.426139 
L 154.364698 268.407061 
L 151.910275 265.85692 
L 149.455851 268.986288 
L 147.001428 259.948384 
L 144.547004 267.577538 
L 142.092581 263.012118 
L 139.638157 260.664144 
L 137.183734 266.948212 
L 134.729311 248.397583 
L 132.274887 256.242218 
L 129.820464 255.431286 
L 127.36604 256.42704 
L 124.911617 257.168679 
L 122.457193 242.66384 
L 120.00277 254.656603 
L 117.548347 238.447345 
L 115.093923 236.943137 
L 112.6395 239.481244 
L 110.185076 234.582308 
L 107.730653 230.243682 
L 105.276229 235.196631 
L 102.821806 226.362525 
L 100.367383 224.287561 
L 97.912959 209.988082 
L 95.458536 212.505669 
L 93.004112 181.721674 
L 90.549689 186.725738 
L 88.095265 129.493831 
L 85.640842 114.625993 
L 83.186419 85.679296 
L 80.731995 82.525778 
L 78.277572 65.175361 
L 75.823148 41.449749 
L 73.368725 35.610718 
L 70.914301 36.714183 
L 68.459878 37.764086 
L 66.005455 38.637737 
z
" style="fill:#d62728;fill-opacity:0.25;"/>
   </g>
   <g id="PolyCollection_5">
    <path clip-path="url(#p6b594819ec)" d="M 66.005455 35.317179 
L 66.005455 42.048571 
L 68.459878 66.222812 
L 70.914301 89.588551 
L 73.368725 84.202182 
L 75.823148 99.447438 
L 78.277572 152.21773 
L 80.731995 171.289 
L 83.186419 190.570155 
L 85.640842 206.642756 
L 88.095265 195.386424 
L 90.549689 214.739335 
L 93.004112 221.394336 
L 95.458536 227.49809 
L 97.912959 229.270006 
L 100.367383 238.315272 
L 102.821806 232.633019 
L 105.276229 240.073685 
L 107.730653 232.385825 
L 110.185076 235.824388 
L 112.6395 240.411263 
L 115.093923 239.990307 
L 117.548347 240.008099 
L 120.00277 256.325535 
L 122.457193 238.157417 
L 124.911617 250.183298 
L 127.36604 254.090241 
L 129.820464 249.904282 
L 132.274887 253.419051 
L 134.729311 254.537528 
L 137.183734 266.170207 
L 139.638157 259.842525 
L 142.092581 258.329212 
L 144.547004 268.169221 
L 147.001428 260.666248 
L 149.455851 267.172048 
L 151.910275 265.155624 
L 154.364698 269.750856 
L 156.819121 261.947288 
L 159.273545 262.578648 
L 161.727968 263.554588 
L 164.182392 258.25856 
L 166.636815 260.444281 
L 169.091239 268.411599 
L 171.545662 261.919022 
L 174.000085 269.89451 
L 176.454509 264.861461 
L 178.908932 265.983005 
L 181.363356 264.438425 
L 183.817779 268.019712 
L 186.272203 265.874559 
L 188.726626 270.535151 
L 191.181049 272.442182 
L 193.635473 267.154299 
L 196.089896 274.711923 
L 198.54432 277.582298 
L 200.998743 275.649803 
L 203.453167 267.602041 
L 205.90759 281.413556 
L 208.362013 275.736112 
L 210.816437 267.716399 
L 213.27086 276.972807 
L 215.725284 267.17525 
L 218.179707 265.313747 
L 220.634131 273.265608 
L 223.088554 270.071666 
L 225.542977 283.280189 
L 227.997401 280.718853 
L 230.451824 275.625396 
L 232.906248 282.371041 
L 235.360671 275.427265 
L 237.815095 270.527709 
L 240.269518 274.18631 
L 242.723941 278.457304 
L 245.178365 271.1967 
L 247.632788 278.821216 
L 250.087212 270.329156 
L 252.541635 278.28599 
L 254.996059 277.758247 
L 257.450482 275.506475 
L 259.904905 283.028144 
L 262.359329 281.406142 
L 264.813752 283.132215 
L 267.268176 280.126415 
L 269.722599 279.509135 
L 272.177023 278.163268 
L 274.631446 286.104964 
L 277.085869 281.713201 
L 279.540293 283.635928 
L 281.994716 285.335574 
L 284.44914 276.224316 
L 286.903563 288.503683 
L 289.357987 282.69719 
L 291.81241 286.206362 
L 294.266833 282.943983 
L 296.721257 285.354254 
L 299.17568 283.717304 
L 301.630104 288.196245 
L 304.084527 288.9623 
L 306.538951 290.978694 
L 308.993374 292.152973 
L 311.447797 291.973305 
L 313.902221 290.865408 
L 316.356644 289.417018 
L 318.811068 286.887469 
L 321.265491 292.825111 
L 323.719915 292.010746 
L 326.174338 292.434583 
L 328.628761 291.455743 
L 331.083185 295.944702 
L 333.537608 296.947535 
L 335.992032 294.491393 
L 338.446455 296.064651 
L 340.900879 298.708526 
L 343.355302 293.533069 
L 345.809725 298.058801 
L 348.264149 293.719629 
L 350.718572 296.769021 
L 353.172996 296.566929 
L 355.627419 297.568412 
L 358.081843 297.421813 
L 360.536266 298.476346 
L 362.990689 298.464461 
L 365.445113 301.755547 
L 367.899536 299.044934 
L 370.35396 301.998943 
L 372.808383 301.17694 
L 375.262807 301.901599 
L 377.71723 303.091954 
L 380.171653 302.773648 
L 382.626077 302.716462 
L 385.0805 301.944203 
L 387.534924 302.933133 
L 389.989347 302.759767 
L 392.443771 303.289347 
L 394.898194 303.130312 
L 397.352617 302.018094 
L 399.807041 303.020348 
L 402.261464 303.321355 
L 404.715888 303.135817 
L 407.170311 303.133052 
L 409.624735 303.218896 
L 412.079158 303.402181 
L 414.533581 303.475656 
L 416.988005 303.397433 
L 419.442428 303.295179 
L 421.896852 303.642198 
L 424.351275 303.322825 
L 426.805699 303.646964 
L 429.260122 303.60105 
L 431.714545 303.423752 
L 431.714545 300.551513 
L 431.714545 300.551513 
L 429.260122 302.026626 
L 426.805699 302.973363 
L 424.351275 302.639107 
L 421.896852 302.164442 
L 419.442428 302.72626 
L 416.988005 303.02912 
L 414.533581 303.303115 
L 412.079158 301.938581 
L 409.624735 302.571391 
L 407.170311 301.629651 
L 404.715888 302.057808 
L 402.261464 299.873525 
L 399.807041 301.453369 
L 397.352617 300.436073 
L 394.898194 300.839311 
L 392.443771 302.218829 
L 389.989347 300.585512 
L 387.534924 299.520152 
L 385.0805 298.703053 
L 382.626077 301.210668 
L 380.171653 300.680508 
L 377.71723 300.492942 
L 375.262807 299.800393 
L 372.808383 298.94524 
L 370.35396 297.227187 
L 367.899536 297.409119 
L 365.445113 299.486783 
L 362.990689 295.40406 
L 360.536266 292.327056 
L 358.081843 293.755383 
L 355.627419 294.529872 
L 353.172996 294.323927 
L 350.718572 290.385296 
L 348.264149 287.902523 
L 345.809725 293.517581 
L 343.355302 285.389296 
L 340.900879 295.752424 
L 338.446455 293.335257 
L 335.992032 289.424308 
L 333.537608 294.369306 
L 331.083185 293.065895 
L 328.628761 285.906558 
L 326.174338 288.437158 
L 323.719915 289.738355 
L 321.265491 288.419014 
L 318.811068 281.619418 
L 316.356644 283.118391 
L 313.902221 284.177954 
L 311.447797 286.319957 
L 308.993374 287.189735 
L 306.538951 284.228291 
L 304.084527 282.802951 
L 301.630104 282.234628 
L 299.17568 277.545014 
L 296.721257 277.905399 
L 294.266833 279.819158 
L 291.81241 283.778779 
L 289.357987 279.168842 
L 286.903563 283.224893 
L 284.44914 272.743676 
L 281.994716 272.298819 
L 279.540293 278.258316 
L 277.085869 275.644724 
L 274.631446 277.363451 
L 272.177023 271.983942 
L 269.722599 275.202604 
L 267.268176 276.103072 
L 264.813752 280.90606 
L 262.359329 273.909311 
L 259.904905 275.706475 
L 257.450482 269.128317 
L 254.996059 269.144705 
L 252.541635 269.581775 
L 250.087212 268.815787 
L 247.632788 274.068096 
L 245.178365 262.069084 
L 242.723941 271.943804 
L 240.269518 269.444173 
L 237.815095 262.061013 
L 235.360671 268.270924 
L 232.906248 278.564031 
L 230.451824 272.896863 
L 227.997401 270.331106 
L 225.542977 281.203818 
L 223.088554 266.365028 
L 220.634131 268.971255 
L 218.179707 259.522609 
L 215.725284 261.509078 
L 213.27086 269.772164 
L 210.816437 260.336004 
L 208.362013 268.379599 
L 205.90759 273.70442 
L 203.453167 260.540637 
L 200.998743 268.460266 
L 198.54432 271.086658 
L 196.089896 264.591002 
L 193.635473 264.825066 
L 191.181049 264.231483 
L 188.726626 265.168058 
L 186.272203 258.352441 
L 183.817779 258.949391 
L 181.363356 260.736462 
L 178.908932 259.530414 
L 176.454509 257.481048 
L 174.000085 265.120352 
L 171.545662 259.814131 
L 169.091239 264.052995 
L 166.636815 256.594572 
L 164.182392 254.131131 
L 161.727968 252.525094 
L 159.273545 254.313508 
L 156.819121 255.147987 
L 154.364698 267.137213 
L 151.910275 259.432476 
L 149.455851 257.066236 
L 147.001428 254.29628 
L 144.547004 258.833735 
L 142.092581 252.49195 
L 139.638157 249.556806 
L 137.183734 258.903122 
L 134.729311 245.089534 
L 132.274887 240.847933 
L 129.820464 246.29233 
L 127.36604 242.456187 
L 124.911617 246.780652 
L 122.457193 233.619808 
L 120.00277 248.289221 
L 117.548347 230.956651 
L 115.093923 228.243625 
L 112.6395 231.117705 
L 110.185076 226.970474 
L 107.730653 226.120975 
L 105.276229 233.486471 
L 102.821806 217.22995 
L 100.367383 226.036835 
L 97.912959 213.258119 
L 95.458536 215.774803 
L 93.004112 197.684857 
L 90.549689 201.24794 
L 88.095265 160.703388 
L 85.640842 150.349806 
L 83.186419 124.354258 
L 80.731995 104.591475 
L 78.277572 94.278232 
L 75.823148 60.249112 
L 73.368725 43.988393 
L 70.914301 42.574124 
L 68.459878 42.016988 
L 66.005455 35.317179 
z
" style="fill:#9467bd;fill-opacity:0.25;"/>
   </g>
   <g id="matplotlib.axis_1">
    <g id="xtick_1">
     <g id="line2d_1">
      <defs>
       <path d="M 0 0 
L 0 3.5 
" id="ma7e53ade68" style="stroke:#000000;stroke-width:0.8;"/>
      </defs>
      <g>
       <use style="stroke:#000000;stroke-width:0.8;" x="66.005455" xlink:href="#ma7e53ade68" y="303.64"/>
      </g>
     </g>
     <g id="text_1">
      <!-- 0 -->
      <g transform="translate(62.824205 318.238437)scale(0.1 -0.1)">
       <defs>
        <path d="M 31.78125 66.40625 
Q 24.171875 66.40625 20.328125 58.90625 
Q 16.5 51.421875 16.5 36.375 
Q 16.5 21.390625 20.328125 13.890625 
Q 24.171875 6.390625 31.78125 6.390625 
Q 39.453125 6.390625 43.28125 13.890625 
Q 47.125 21.390625 47.125 36.375 
Q 47.125 51.421875 43.28125 58.90625 
Q 39.453125 66.40625 31.78125 66.40625 
z
M 31.78125 74.21875 
Q 44.046875 74.21875 50.515625 64.515625 
Q 56.984375 54.828125 56.984375 36.375 
Q 56.984375 17.96875 50.515625 8.265625 
Q 44.046875 -1.421875 31.78125 -1.421875 
Q 19.53125 -1.421875 13.0625 8.265625 
Q 6.59375 17.96875 6.59375 36.375 
Q 6.59375 54.828125 13.0625 64.515625 
Q 19.53125 74.21875 31.78125 74.21875 
z
" id="DejaVuSans-48"/>
       </defs>
       <use xlink:href="#DejaVuSans-48"/>
      </g>
     </g>
    </g>
    <g id="xtick_2">
     <g id="line2d_2">
      <g>
       <use style="stroke:#000000;stroke-width:0.8;" x="115.093923" xlink:href="#ma7e53ade68" y="303.64"/>
      </g>
     </g>
     <g id="text_2">
      <!-- 20 -->
      <g transform="translate(108.731423 318.238437)scale(0.1 -0.1)">
       <defs>
        <path d="M 19.1875 8.296875 
L 53.609375 8.296875 
L 53.609375 0 
L 7.328125 0 
L 7.328125 8.296875 
Q 12.9375 14.109375 22.625 23.890625 
Q 32.328125 33.6875 34.8125 36.53125 
Q 39.546875 41.84375 41.421875 45.53125 
Q 43.3125 49.21875 43.3125 52.78125 
Q 43.3125 58.59375 39.234375 62.25 
Q 35.15625 65.921875 28.609375 65.921875 
Q 23.96875 65.921875 18.8125 64.3125 
Q 13.671875 62.703125 7.8125 59.421875 
L 7.8125 69.390625 
Q 13.765625 71.78125 18.9375 73 
Q 24.125 74.21875 28.421875 74.21875 
Q 39.75 74.21875 46.484375 68.546875 
Q 53.21875 62.890625 53.21875 53.421875 
Q 53.21875 48.921875 51.53125 44.890625 
Q 49.859375 40.875 45.40625 35.40625 
Q 44.1875 33.984375 37.640625 27.21875 
Q 31.109375 20.453125 19.1875 8.296875 
z
" id="DejaVuSans-50"/>
       </defs>
       <use xlink:href="#DejaVuSans-50"/>
       <use x="63.623047" xlink:href="#DejaVuSans-48"/>
      </g>
     </g>
    </g>
    <g id="xtick_3">
     <g id="line2d_3">
      <g>
       <use style="stroke:#000000;stroke-width:0.8;" x="164.182392" xlink:href="#ma7e53ade68" y="303.64"/>
      </g>
     </g>
     <g id="text_3">
      <!-- 40 -->
      <g transform="translate(157.819892 318.238437)scale(0.1 -0.1)">
       <defs>
        <path d="M 37.796875 64.3125 
L 12.890625 25.390625 
L 37.796875 25.390625 
z
M 35.203125 72.90625 
L 47.609375 72.90625 
L 47.609375 25.390625 
L 58.015625 25.390625 
L 58.015625 17.1875 
L 47.609375 17.1875 
L 47.609375 0 
L 37.796875 0 
L 37.796875 17.1875 
L 4.890625 17.1875 
L 4.890625 26.703125 
z
" id="DejaVuSans-52"/>
       </defs>
       <use xlink:href="#DejaVuSans-52"/>
       <use x="63.623047" xlink:href="#DejaVuSans-48"/>
      </g>
     </g>
    </g>
    <g id="xtick_4">
     <g id="line2d_4">
      <g>
       <use style="stroke:#000000;stroke-width:0.8;" x="213.27086" xlink:href="#ma7e53ade68" y="303.64"/>
      </g>
     </g>
     <g id="text_4">
      <!-- 60 -->
      <g transform="translate(206.90836 318.238437)scale(0.1 -0.1)">
       <defs>
        <path d="M 33.015625 40.375 
Q 26.375 40.375 22.484375 35.828125 
Q 18.609375 31.296875 18.609375 23.390625 
Q 18.609375 15.53125 22.484375 10.953125 
Q 26.375 6.390625 33.015625 6.390625 
Q 39.65625 6.390625 43.53125 10.953125 
Q 47.40625 15.53125 47.40625 23.390625 
Q 47.40625 31.296875 43.53125 35.828125 
Q 39.65625 40.375 33.015625 40.375 
z
M 52.59375 71.296875 
L 52.59375 62.3125 
Q 48.875 64.0625 45.09375 64.984375 
Q 41.3125 65.921875 37.59375 65.921875 
Q 27.828125 65.921875 22.671875 59.328125 
Q 17.53125 52.734375 16.796875 39.40625 
Q 19.671875 43.65625 24.015625 45.921875 
Q 28.375 48.1875 33.59375 48.1875 
Q 44.578125 48.1875 50.953125 41.515625 
Q 57.328125 34.859375 57.328125 23.390625 
Q 57.328125 12.15625 50.6875 5.359375 
Q 44.046875 -1.421875 33.015625 -1.421875 
Q 20.359375 -1.421875 13.671875 8.265625 
Q 6.984375 17.96875 6.984375 36.375 
Q 6.984375 53.65625 15.1875 63.9375 
Q 23.390625 74.21875 37.203125 74.21875 
Q 40.921875 74.21875 44.703125 73.484375 
Q 48.484375 72.75 52.59375 71.296875 
z
" id="DejaVuSans-54"/>
       </defs>
       <use xlink:href="#DejaVuSans-54"/>
       <use x="63.623047" xlink:href="#DejaVuSans-48"/>
      </g>
     </g>
    </g>
    <g id="xtick_5">
     <g id="line2d_5">
      <g>
       <use style="stroke:#000000;stroke-width:0.8;" x="262.359329" xlink:href="#ma7e53ade68" y="303.64"/>
      </g>
     </g>
     <g id="text_5">
      <!-- 80 -->
      <g transform="translate(255.996829 318.238437)scale(0.1 -0.1)">
       <defs>
        <path d="M 31.78125 34.625 
Q 24.75 34.625 20.71875 30.859375 
Q 16.703125 27.09375 16.703125 20.515625 
Q 16.703125 13.921875 20.71875 10.15625 
Q 24.75 6.390625 31.78125 6.390625 
Q 38.8125 6.390625 42.859375 10.171875 
Q 46.921875 13.96875 46.921875 20.515625 
Q 46.921875 27.09375 42.890625 30.859375 
Q 38.875 34.625 31.78125 34.625 
z
M 21.921875 38.8125 
Q 15.578125 40.375 12.03125 44.71875 
Q 8.5 49.078125 8.5 55.328125 
Q 8.5 64.0625 14.71875 69.140625 
Q 20.953125 74.21875 31.78125 74.21875 
Q 42.671875 74.21875 48.875 69.140625 
Q 55.078125 64.0625 55.078125 55.328125 
Q 55.078125 49.078125 51.53125 44.71875 
Q 48 40.375 41.703125 38.8125 
Q 48.828125 37.15625 52.796875 32.3125 
Q 56.78125 27.484375 56.78125 20.515625 
Q 56.78125 9.90625 50.3125 4.234375 
Q 43.84375 -1.421875 31.78125 -1.421875 
Q 19.734375 -1.421875 13.25 4.234375 
Q 6.78125 9.90625 6.78125 20.515625 
Q 6.78125 27.484375 10.78125 32.3125 
Q 14.796875 37.15625 21.921875 38.8125 
z
M 18.3125 54.390625 
Q 18.3125 48.734375 21.84375 45.5625 
Q 25.390625 42.390625 31.78125 42.390625 
Q 38.140625 42.390625 41.71875 45.5625 
Q 45.3125 48.734375 45.3125 54.390625 
Q 45.3125 60.0625 41.71875 63.234375 
Q 38.140625 66.40625 31.78125 66.40625 
Q 25.390625 66.40625 21.84375 63.234375 
Q 18.3125 60.0625 18.3125 54.390625 
z
" id="DejaVuSans-56"/>
       </defs>
       <use xlink:href="#DejaVuSans-56"/>
       <use x="63.623047" xlink:href="#DejaVuSans-48"/>
      </g>
     </g>
    </g>
    <g id="xtick_6">
     <g id="line2d_6">
      <g>
       <use style="stroke:#000000;stroke-width:0.8;" x="311.447797" xlink:href="#ma7e53ade68" y="303.64"/>
      </g>
     </g>
     <g id="text_6">
      <!-- 100 -->
      <g transform="translate(301.904047 318.238437)scale(0.1 -0.1)">
       <defs>
        <path d="M 12.40625 8.296875 
L 28.515625 8.296875 
L 28.515625 63.921875 
L 10.984375 60.40625 
L 10.984375 69.390625 
L 28.421875 72.90625 
L 38.28125 72.90625 
L 38.28125 8.296875 
L 54.390625 8.296875 
L 54.390625 0 
L 12.40625 0 
z
" id="DejaVuSans-49"/>
       </defs>
       <use xlink:href="#DejaVuSans-49"/>
       <use x="63.623047" xlink:href="#DejaVuSans-48"/>
       <use x="127.246094" xlink:href="#DejaVuSans-48"/>
      </g>
     </g>
    </g>
    <g id="xtick_7">
     <g id="line2d_7">
      <g>
       <use style="stroke:#000000;stroke-width:0.8;" x="360.536266" xlink:href="#ma7e53ade68" y="303.64"/>
      </g>
     </g>
     <g id="text_7">
      <!-- 120 -->
      <g transform="translate(350.992516 318.238437)scale(0.1 -0.1)">
       <use xlink:href="#DejaVuSans-49"/>
       <use x="63.623047" xlink:href="#DejaVuSans-50"/>
       <use x="127.246094" xlink:href="#DejaVuSans-48"/>
      </g>
     </g>
    </g>
    <g id="xtick_8">
     <g id="line2d_8">
      <g>
       <use style="stroke:#000000;stroke-width:0.8;" x="409.624735" xlink:href="#ma7e53ade68" y="303.64"/>
      </g>
     </g>
     <g id="text_8">
      <!-- 140 -->
      <g transform="translate(400.080985 318.238437)scale(0.1 -0.1)">
       <use xlink:href="#DejaVuSans-49"/>
       <use x="63.623047" xlink:href="#DejaVuSans-52"/>
       <use x="127.246094" xlink:href="#DejaVuSans-48"/>
      </g>
     </g>
    </g>
    <g id="text_9">
     <!-- Epochs -->
     <g transform="translate(230.944375 331.916562)scale(0.1 -0.1)">
      <defs>
       <path d="M 9.8125 72.90625 
L 55.90625 72.90625 
L 55.90625 64.59375 
L 19.671875 64.59375 
L 19.671875 43.015625 
L 54.390625 43.015625 
L 54.390625 34.71875 
L 19.671875 34.71875 
L 19.671875 8.296875 
L 56.78125 8.296875 
L 56.78125 0 
L 9.8125 0 
z
" id="DejaVuSans-69"/>
       <path d="M 18.109375 8.203125 
L 18.109375 -20.796875 
L 9.078125 -20.796875 
L 9.078125 54.6875 
L 18.109375 54.6875 
L 18.109375 46.390625 
Q 20.953125 51.265625 25.265625 53.625 
Q 29.59375 56 35.59375 56 
Q 45.5625 56 51.78125 48.09375 
Q 58.015625 40.1875 58.015625 27.296875 
Q 58.015625 14.40625 51.78125 6.484375 
Q 45.5625 -1.421875 35.59375 -1.421875 
Q 29.59375 -1.421875 25.265625 0.953125 
Q 20.953125 3.328125 18.109375 8.203125 
z
M 48.6875 27.296875 
Q 48.6875 37.203125 44.609375 42.84375 
Q 40.53125 48.484375 33.40625 48.484375 
Q 26.265625 48.484375 22.1875 42.84375 
Q 18.109375 37.203125 18.109375 27.296875 
Q 18.109375 17.390625 22.1875 11.75 
Q 26.265625 6.109375 33.40625 6.109375 
Q 40.53125 6.109375 44.609375 11.75 
Q 48.6875 17.390625 48.6875 27.296875 
z
" id="DejaVuSans-112"/>
       <path d="M 30.609375 48.390625 
Q 23.390625 48.390625 19.1875 42.75 
Q 14.984375 37.109375 14.984375 27.296875 
Q 14.984375 17.484375 19.15625 11.84375 
Q 23.34375 6.203125 30.609375 6.203125 
Q 37.796875 6.203125 41.984375 11.859375 
Q 46.1875 17.53125 46.1875 27.296875 
Q 46.1875 37.015625 41.984375 42.703125 
Q 37.796875 48.390625 30.609375 48.390625 
z
M 30.609375 56 
Q 42.328125 56 49.015625 48.375 
Q 55.71875 40.765625 55.71875 27.296875 
Q 55.71875 13.875 49.015625 6.21875 
Q 42.328125 -1.421875 30.609375 -1.421875 
Q 18.84375 -1.421875 12.171875 6.21875 
Q 5.515625 13.875 5.515625 27.296875 
Q 5.515625 40.765625 12.171875 48.375 
Q 18.84375 56 30.609375 56 
z
" id="DejaVuSans-111"/>
       <path d="M 48.78125 52.59375 
L 48.78125 44.1875 
Q 44.96875 46.296875 41.140625 47.34375 
Q 37.3125 48.390625 33.40625 48.390625 
Q 24.65625 48.390625 19.8125 42.84375 
Q 14.984375 37.3125 14.984375 27.296875 
Q 14.984375 17.28125 19.8125 11.734375 
Q 24.65625 6.203125 33.40625 6.203125 
Q 37.3125 6.203125 41.140625 7.25 
Q 44.96875 8.296875 48.78125 10.40625 
L 48.78125 2.09375 
Q 45.015625 0.34375 40.984375 -0.53125 
Q 36.96875 -1.421875 32.421875 -1.421875 
Q 20.0625 -1.421875 12.78125 6.34375 
Q 5.515625 14.109375 5.515625 27.296875 
Q 5.515625 40.671875 12.859375 48.328125 
Q 20.21875 56 33.015625 56 
Q 37.15625 56 41.109375 55.140625 
Q 45.0625 54.296875 48.78125 52.59375 
z
" id="DejaVuSans-99"/>
       <path d="M 54.890625 33.015625 
L 54.890625 0 
L 45.90625 0 
L 45.90625 32.71875 
Q 45.90625 40.484375 42.875 44.328125 
Q 39.84375 48.1875 33.796875 48.1875 
Q 26.515625 48.1875 22.3125 43.546875 
Q 18.109375 38.921875 18.109375 30.90625 
L 18.109375 0 
L 9.078125 0 
L 9.078125 75.984375 
L 18.109375 75.984375 
L 18.109375 46.1875 
Q 21.34375 51.125 25.703125 53.5625 
Q 30.078125 56 35.796875 56 
Q 45.21875 56 50.046875 50.171875 
Q 54.890625 44.34375 54.890625 33.015625 
z
" id="DejaVuSans-104"/>
       <path d="M 44.28125 53.078125 
L 44.28125 44.578125 
Q 40.484375 46.53125 36.375 47.5 
Q 32.28125 48.484375 27.875 48.484375 
Q 21.1875 48.484375 17.84375 46.4375 
Q 14.5 44.390625 14.5 40.28125 
Q 14.5 37.15625 16.890625 35.375 
Q 19.28125 33.59375 26.515625 31.984375 
L 29.59375 31.296875 
Q 39.15625 29.25 43.1875 25.515625 
Q 47.21875 21.78125 47.21875 15.09375 
Q 47.21875 7.46875 41.1875 3.015625 
Q 35.15625 -1.421875 24.609375 -1.421875 
Q 20.21875 -1.421875 15.453125 -0.5625 
Q 10.6875 0.296875 5.421875 2 
L 5.421875 11.28125 
Q 10.40625 8.6875 15.234375 7.390625 
Q 20.0625 6.109375 24.8125 6.109375 
Q 31.15625 6.109375 34.5625 8.28125 
Q 37.984375 10.453125 37.984375 14.40625 
Q 37.984375 18.0625 35.515625 20.015625 
Q 33.0625 21.96875 24.703125 23.78125 
L 21.578125 24.515625 
Q 13.234375 26.265625 9.515625 29.90625 
Q 5.8125 33.546875 5.8125 39.890625 
Q 5.8125 47.609375 11.28125 51.796875 
Q 16.75 56 26.8125 56 
Q 31.78125 56 36.171875 55.265625 
Q 40.578125 54.546875 44.28125 53.078125 
z
" id="DejaVuSans-115"/>
      </defs>
      <use xlink:href="#DejaVuSans-69"/>
      <use x="63.183594" xlink:href="#DejaVuSans-112"/>
      <use x="126.660156" xlink:href="#DejaVuSans-111"/>
      <use x="187.841797" xlink:href="#DejaVuSans-99"/>
      <use x="242.822266" xlink:href="#DejaVuSans-104"/>
      <use x="306.201172" xlink:href="#DejaVuSans-115"/>
     </g>
    </g>
   </g>
   <g id="matplotlib.axis_2">
    <g id="ytick_1">
     <g id="line2d_9">
      <defs>
       <path d="M 0 0 
L -3.5 0 
" id="m5b21420bbe" style="stroke:#000000;stroke-width:0.8;"/>
      </defs>
      <g>
       <use style="stroke:#000000;stroke-width:0.8;" x="47.72" xlink:href="#m5b21420bbe" y="303.64"/>
      </g>
     </g>
     <g id="text_10">
      <!-- 0.0 -->
      <g transform="translate(24.816875 307.439219)scale(0.1 -0.1)">
       <defs>
        <path d="M 10.6875 12.40625 
L 21 12.40625 
L 21 0 
L 10.6875 0 
z
" id="DejaVuSans-46"/>
       </defs>
       <use xlink:href="#DejaVuSans-48"/>
       <use x="63.623047" xlink:href="#DejaVuSans-46"/>
       <use x="95.410156" xlink:href="#DejaVuSans-48"/>
      </g>
     </g>
    </g>
    <g id="ytick_2">
     <g id="line2d_10">
      <g>
       <use style="stroke:#000000;stroke-width:0.8;" x="47.72" xlink:href="#m5b21420bbe" y="245.864"/>
      </g>
     </g>
     <g id="text_11">
      <!-- 0.5 -->
      <g transform="translate(24.816875 249.663219)scale(0.1 -0.1)">
       <defs>
        <path d="M 10.796875 72.90625 
L 49.515625 72.90625 
L 49.515625 64.59375 
L 19.828125 64.59375 
L 19.828125 46.734375 
Q 21.96875 47.46875 24.109375 47.828125 
Q 26.265625 48.1875 28.421875 48.1875 
Q 40.625 48.1875 47.75 41.5 
Q 54.890625 34.8125 54.890625 23.390625 
Q 54.890625 11.625 47.5625 5.09375 
Q 40.234375 -1.421875 26.90625 -1.421875 
Q 22.3125 -1.421875 17.546875 -0.640625 
Q 12.796875 0.140625 7.71875 1.703125 
L 7.71875 11.625 
Q 12.109375 9.234375 16.796875 8.0625 
Q 21.484375 6.890625 26.703125 6.890625 
Q 35.15625 6.890625 40.078125 11.328125 
Q 45.015625 15.765625 45.015625 23.390625 
Q 45.015625 31 40.078125 35.4375 
Q 35.15625 39.890625 26.703125 39.890625 
Q 22.75 39.890625 18.8125 39.015625 
Q 14.890625 38.140625 10.796875 36.28125 
z
" id="DejaVuSans-53"/>
       </defs>
       <use xlink:href="#DejaVuSans-48"/>
       <use x="63.623047" xlink:href="#DejaVuSans-46"/>
       <use x="95.410156" xlink:href="#DejaVuSans-53"/>
      </g>
     </g>
    </g>
    <g id="ytick_3">
     <g id="line2d_11">
      <g>
       <use style="stroke:#000000;stroke-width:0.8;" x="47.72" xlink:href="#m5b21420bbe" y="188.088"/>
      </g>
     </g>
     <g id="text_12">
      <!-- 1.0 -->
      <g transform="translate(24.816875 191.887219)scale(0.1 -0.1)">
       <use xlink:href="#DejaVuSans-49"/>
       <use x="63.623047" xlink:href="#DejaVuSans-46"/>
       <use x="95.410156" xlink:href="#DejaVuSans-48"/>
      </g>
     </g>
    </g>
    <g id="ytick_4">
     <g id="line2d_12">
      <g>
       <use style="stroke:#000000;stroke-width:0.8;" x="47.72" xlink:href="#m5b21420bbe" y="130.312"/>
      </g>
     </g>
     <g id="text_13">
      <!-- 1.5 -->
      <g transform="translate(24.816875 134.111219)scale(0.1 -0.1)">
       <use xlink:href="#DejaVuSans-49"/>
       <use x="63.623047" xlink:href="#DejaVuSans-46"/>
       <use x="95.410156" xlink:href="#DejaVuSans-53"/>
      </g>
     </g>
    </g>
    <g id="ytick_5">
     <g id="line2d_13">
      <g>
       <use style="stroke:#000000;stroke-width:0.8;" x="47.72" xlink:href="#m5b21420bbe" y="72.536"/>
      </g>
     </g>
     <g id="text_14">
      <!-- 2.0 -->
      <g transform="translate(24.816875 76.335219)scale(0.1 -0.1)">
       <use xlink:href="#DejaVuSans-50"/>
       <use x="63.623047" xlink:href="#DejaVuSans-46"/>
       <use x="95.410156" xlink:href="#DejaVuSans-48"/>
      </g>
     </g>
    </g>
    <g id="ytick_6">
     <g id="line2d_14">
      <g>
       <use style="stroke:#000000;stroke-width:0.8;" x="47.72" xlink:href="#m5b21420bbe" y="14.76"/>
      </g>
     </g>
     <g id="text_15">
      <!-- 2.5 -->
      <g transform="translate(24.816875 18.559219)scale(0.1 -0.1)">
       <use xlink:href="#DejaVuSans-50"/>
       <use x="63.623047" xlink:href="#DejaVuSans-46"/>
       <use x="95.410156" xlink:href="#DejaVuSans-53"/>
      </g>
     </g>
    </g>
    <g id="text_16">
     <!-- Loss -->
     <g transform="translate(18.737188 170.167187)rotate(-90)scale(0.1 -0.1)">
      <defs>
       <path d="M 9.8125 72.90625 
L 19.671875 72.90625 
L 19.671875 8.296875 
L 55.171875 8.296875 
L 55.171875 0 
L 9.8125 0 
z
" id="DejaVuSans-76"/>
      </defs>
      <use xlink:href="#DejaVuSans-76"/>
      <use x="53.962891" xlink:href="#DejaVuSans-111"/>
      <use x="115.144531" xlink:href="#DejaVuSans-115"/>
      <use x="167.244141" xlink:href="#DejaVuSans-115"/>
     </g>
    </g>
   </g>
   <g id="line2d_15">
    <path clip-path="url(#p6b594819ec)" d="M 66.005455 41.391125 
L 68.459878 79.735431 
L 70.914301 95.962362 
L 73.368725 93.231544 
L 75.823148 120.74285 
L 78.277572 177.649953 
L 80.731995 203.491172 
L 83.186419 210.397209 
L 85.640842 215.937837 
L 88.095265 212.575094 
L 90.549689 230.946056 
L 93.004112 243.15575 
L 95.458536 243.962583 
L 97.912959 242.467403 
L 100.367383 249.853027 
L 102.821806 246.851383 
L 105.276229 256.561587 
L 107.730653 247.866977 
L 110.185076 255.179252 
L 112.6395 255.275169 
L 115.093923 250.422887 
L 117.548347 247.500234 
L 120.00277 270.681162 
L 122.457193 253.040863 
L 127.36604 265.374684 
L 129.820464 265.216703 
L 132.274887 258.835389 
L 134.729311 263.461983 
L 137.183734 272.87033 
L 139.638157 269.200087 
L 142.092581 273.990305 
L 144.547004 272.813909 
L 147.001428 266.926286 
L 149.455851 277.113255 
L 151.910275 273.459939 
L 154.364698 274.901518 
L 156.819121 272.416134 
L 159.273545 271.124073 
L 161.727968 272.289185 
L 164.182392 277.07376 
L 166.636815 272.639001 
L 169.091239 280.114899 
L 171.545662 272.052213 
L 174.000085 282.191224 
L 176.454509 276.343097 
L 178.908932 274.08058 
L 181.363356 277.166856 
L 183.817779 275.256976 
L 186.272203 278.021648 
L 188.726626 277.685937 
L 191.181049 279.485795 
L 193.635473 278.371463 
L 196.089896 281.872441 
L 198.54432 286.609057 
L 200.998743 281.22641 
L 203.453167 277.911625 
L 205.90759 284.989749 
L 208.362013 284.614544 
L 210.816437 278.244514 
L 213.27086 288.180406 
L 215.725284 281.646753 
L 218.179707 277.011696 
L 220.634131 281.53673 
L 223.088554 279.443479 
L 225.542977 290.500756 
L 227.997401 286.391833 
L 230.451824 286.724722 
L 232.906248 288.214259 
L 235.360671 284.431173 
L 237.815095 279.05981 
L 240.269518 287.672609 
L 242.723941 287.382037 
L 245.178365 280.258775 
L 247.632788 285.665401 
L 250.087212 283.881059 
L 252.541635 290.492293 
L 254.996059 290.839287 
L 257.450482 287.297404 
L 259.904905 290.930973 
L 262.359329 287.729031 
L 264.813752 289.911147 
L 267.268176 287.256498 
L 269.722599 288.951975 
L 272.177023 287.00401 
L 274.631446 291.499423 
L 277.085869 289.94359 
L 279.540293 285.838898 
L 281.994716 290.624884 
L 284.44914 288.360956 
L 286.903563 292.352804 
L 289.357987 289.771503 
L 291.81241 293.346534 
L 294.266833 291.481086 
L 296.721257 292.890222 
L 299.17568 292.263939 
L 301.630104 295.161203 
L 304.084527 294.900252 
L 306.538951 295.41087 
L 308.993374 293.815541 
L 311.447797 297.348256 
L 313.902221 297.321455 
L 316.356644 297.032293 
L 318.811068 295.214804 
L 321.265491 298.217505 
L 323.719915 298.469993 
L 326.174338 298.125114 
L 328.628761 296.968113 
L 331.083185 300.207963 
L 333.537608 300.947619 
L 335.992032 300.078545 
L 338.446455 300.265443 
L 340.900879 301.246655 
L 343.355302 299.348764 
L 345.809725 301.551862 
L 348.264149 300.493687 
L 350.718572 300.372116 
L 358.081843 302.230864 
L 360.536266 301.076507 
L 365.445113 302.720412 
L 367.899536 301.508399 
L 370.35396 302.654557 
L 372.808383 302.110394 
L 377.71723 303.399909 
L 380.171653 303.398841 
L 385.0805 303.128104 
L 387.534924 303.493149 
L 389.989347 303.233586 
L 392.443771 303.45707 
L 394.898194 302.888046 
L 397.352617 303.312709 
L 399.807041 303.497149 
L 404.715888 303.447174 
L 407.170311 303.36437 
L 412.079158 303.537801 
L 414.533581 303.450921 
L 424.351275 303.520842 
L 431.714545 303.528688 
L 431.714545 303.528688 
" style="fill:none;stroke:#1f77b4;stroke-linecap:square;stroke-width:1.5;"/>
   </g>
   <g id="line2d_16">
    <path clip-path="url(#p6b594819ec)" d="M 66.005455 37.373887 
L 68.459878 39.585625 
L 70.914301 39.043975 
L 73.368725 44.460475 
L 75.823148 55.835125 
L 78.277572 87.092844 
L 80.731995 104.357937 
L 83.186419 116.77075 
L 85.640842 148.976356 
L 88.095265 148.209019 
L 90.549689 199.46265 
L 93.004112 199.665769 
L 95.458536 220.925531 
L 97.912959 225.066897 
L 100.367383 233.293206 
L 102.821806 231.916512 
L 105.276229 241.457452 
L 107.730653 234.906872 
L 110.185076 241.880616 
L 112.6395 243.02598 
L 115.093923 242.839787 
L 117.548347 237.716681 
L 120.00277 259.969469 
L 122.457193 244.645287 
L 124.911617 257.532044 
L 127.36604 257.977777 
L 129.820464 258.920022 
L 132.274887 255.670122 
L 134.729311 253.949255 
L 137.183734 270.077448 
L 139.638157 266.26615 
L 142.092581 266.85858 
L 144.547004 266.672388 
L 147.001428 263.061387 
L 149.455851 272.588221 
L 151.910275 270.232608 
L 154.364698 273.019848 
L 156.819121 263.349139 
L 159.273545 264.426797 
L 161.727968 266.909359 
L 164.182392 267.919311 
L 166.636815 267.180184 
L 169.091239 271.014051 
L 171.545662 266.559544 
L 174.000085 275.240049 
L 176.454509 266.819084 
L 178.908932 270.926597 
L 181.363356 274.010052 
L 183.817779 271.259486 
L 186.272203 270.827859 
L 188.726626 272.932395 
L 191.181049 273.392233 
L 193.635473 275.790163 
L 196.089896 279.260108 
L 198.54432 284.634291 
L 200.998743 279.88357 
L 203.453167 276.111767 
L 205.90759 284.044683 
L 208.362013 280.837099 
L 210.816437 272.706707 
L 213.27086 281.006365 
L 215.725284 273.025491 
L 218.179707 274.232919 
L 220.634131 281.40696 
L 223.088554 274.328836 
L 225.542977 288.78271 
L 227.997401 283.08269 
L 230.451824 283.457895 
L 232.906248 285.477798 
L 235.360671 280.498568 
L 237.815095 276.616743 
L 240.269518 283.048837 
L 242.723941 283.156038 
L 245.178365 275.541906 
L 247.632788 282.010674 
L 250.087212 278.047037 
L 252.541635 283.497391 
L 254.996059 283.325304 
L 257.450482 283.875417 
L 259.904905 285.504599 
L 262.359329 286.74447 
L 264.813752 286.707795 
L 267.268176 283.833101 
L 269.722599 286.77268 
L 272.177023 288.18887 
L 274.631446 289.203053 
L 277.085869 288.736162 
L 279.540293 285.9461 
L 281.994716 289.236906 
L 284.44914 286.544172 
L 286.903563 290.500756 
L 289.357987 287.915223 
L 291.81241 292.565796 
L 294.266833 288.393399 
L 296.721257 290.622063 
L 299.17568 292.389478 
L 304.084527 292.152506 
L 306.538951 291.554434 
L 308.993374 293.887479 
L 311.447797 296.012115 
L 313.902221 293.608191 
L 316.356644 298.629032 
L 318.811068 293.450209 
L 321.265491 295.755748 
L 323.719915 296.499812 
L 328.628761 296.635929 
L 331.083185 297.985118 
L 333.537608 298.222089 
L 335.992032 297.858874 
L 338.446455 299.686942 
L 340.900879 300.635888 
L 343.355302 298.586011 
L 345.809725 298.784016 
L 348.264149 299.962704 
L 350.718572 298.39206 
L 353.172996 301.19323 
L 355.627419 301.88863 
L 358.081843 301.519595 
L 360.536266 300.080132 
L 362.990689 301.955102 
L 365.445113 302.901094 
L 370.35396 301.936941 
L 377.71723 303.427052 
L 380.171653 303.457488 
L 382.626077 302.96523 
L 385.0805 303.222048 
L 387.534924 303.279517 
L 389.989347 302.892719 
L 392.443771 303.511899 
L 394.898194 302.633652 
L 397.352617 303.48214 
L 399.807041 303.49543 
L 407.170311 303.201673 
L 409.624735 303.56847 
L 419.442428 303.57263 
L 424.351275 303.288686 
L 426.805699 303.461092 
L 429.260122 303.465136 
L 431.714545 303.153604 
L 431.714545 303.153604 
" style="fill:none;stroke:#ff7f0e;stroke-linecap:square;stroke-width:1.5;"/>
   </g>
   <g id="line2d_17">
    <path clip-path="url(#p6b594819ec)" d="M 66.005455 38.818287 
L 68.459878 39.450212 
L 70.914301 39.450212 
L 73.368725 48.116612 
L 75.823148 74.138381 
L 78.277572 92.193381 
L 80.731995 103.726012 
L 83.186419 127.761731 
L 85.640842 154.122031 
L 88.095265 164.119987 
L 90.549689 202.960806 
L 93.004112 201.798516 
L 95.458536 219.413425 
L 97.912959 222.053969 
L 100.367383 230.539819 
L 102.821806 233.665591 
L 105.276229 236.069163 
L 107.730653 232.446878 
L 110.185076 244.222123 
L 112.6395 237.603837 
L 115.093923 238.201909 
L 117.548347 236.543106 
L 120.00277 257.785942 
L 122.457193 244.041573 
L 124.911617 256.15535 
L 127.36604 253.661503 
L 129.820464 257.311998 
L 132.274887 256.623652 
L 134.729311 256.533377 
L 137.183734 268.257842 
L 139.638157 261.227677 
L 142.092581 264.071339 
L 144.547004 267.803646 
L 147.001428 261.464648 
L 149.455851 272.734918 
L 151.910275 268.269127 
L 154.364698 271.490816 
L 156.819121 265.527023 
L 159.273545 262.717214 
L 161.727968 264.579136 
L 164.182392 269.363711 
L 166.636815 267.879816 
L 169.091239 272.09453 
L 171.545662 264.184183 
L 174.000085 273.787186 
L 176.454509 268.9744 
L 178.908932 269.984352 
L 181.363356 273.761796 
L 183.817779 271.256665 
L 186.272203 273.079091 
L 188.726626 276.650596 
L 191.181049 273.172188 
L 193.635473 273.104481 
L 196.089896 280.021803 
L 198.54432 278.357358 
L 200.998743 280.972512 
L 203.453167 272.853404 
L 205.90759 281.74267 
L 208.362013 280.636802 
L 210.816437 273.053702 
L 213.27086 283.866954 
L 215.725284 273.818218 
L 218.179707 274.263951 
L 220.634131 278.399674 
L 223.088554 279.102127 
L 225.542977 288.710772 
L 227.997401 287.559766 
L 230.451824 282.622852 
L 232.906248 285.012318 
L 235.360671 283.782321 
L 237.815095 276.729587 
L 240.269518 281.274369 
L 242.723941 281.734207 
L 245.178365 276.187937 
L 247.632788 282.546682 
L 250.087212 278.670499 
L 252.541635 285.680917 
L 254.996059 284.417067 
L 257.450482 286.194356 
L 259.904905 286.727543 
L 262.359329 286.312842 
L 264.813752 291.152429 
L 267.268176 283.567918 
L 269.722599 288.289018 
L 272.177023 286.168966 
L 274.631446 289.651607 
L 277.085869 287.256498 
L 279.540293 288.847595 
L 281.994716 286.74588 
L 284.44914 286.786786 
L 286.903563 292.993192 
L 289.357987 289.703797 
L 291.81241 292.376078 
L 294.266833 288.554201 
L 296.721257 291.894376 
L 299.17568 293.266838 
L 301.630104 292.475521 
L 304.084527 294.072966 
L 306.538951 294.802219 
L 308.993374 293.630054 
L 311.447797 295.170371 
L 313.902221 292.640555 
L 316.356644 296.97164 
L 318.811068 292.685693 
L 321.265491 298.581426 
L 323.719915 297.073199 
L 326.174338 296.047731 
L 328.628761 297.283371 
L 331.083185 297.486137 
L 333.537608 300.542968 
L 335.992032 298.504904 
L 338.446455 299.084286 
L 340.900879 299.851271 
L 343.355302 297.825726 
L 345.809725 299.791499 
L 348.264149 298.548278 
L 350.718572 300.363652 
L 353.172996 299.503924 
L 355.627419 301.029078 
L 358.081843 301.94946 
L 360.536266 301.550187 
L 362.990689 301.575312 
L 365.445113 302.780933 
L 370.35396 301.908421 
L 375.262807 302.812846 
L 377.71723 303.116533 
L 380.171653 303.21483 
L 385.0805 303.156293 
L 387.534924 303.345703 
L 389.989347 303.157141 
L 392.443771 303.521084 
L 394.898194 302.948463 
L 399.807041 303.497684 
L 402.261464 303.417596 
L 412.079158 303.553505 
L 419.442428 303.561142 
L 421.896852 303.452992 
L 429.260122 303.557659 
L 431.714545 302.946981 
L 431.714545 302.946981 
" style="fill:none;stroke:#2ca02c;stroke-linecap:square;stroke-width:1.5;"/>
   </g>
   <g id="line2d_18">
    <path clip-path="url(#p6b594819ec)" d="M 66.005455 38.818287 
L 68.459878 39.359937 
L 70.914301 39.405075 
L 73.368725 44.686162 
L 75.823148 54.66155 
L 78.277572 80.096531 
L 80.731995 95.172456 
L 83.186419 102.800694 
L 85.640842 132.862269 
L 88.095265 143.898387 
L 90.549689 194.734497 
L 93.004112 189.735519 
L 95.458536 216.953431 
L 97.912959 215.497747 
L 100.367383 229.637069 
L 102.821806 228.971291 
L 105.276229 237.423287 
L 107.730653 233.541462 
L 110.185076 236.170722 
L 112.6395 242.738228 
L 115.093923 239.172366 
L 117.548347 243.144466 
L 120.00277 258.874884 
L 122.457193 244.577581 
L 124.911617 258.778967 
L 127.36604 258.248602 
L 129.820464 258.096262 
L 132.274887 258.73383 
L 134.729311 251.444123 
L 137.183734 269.549903 
L 139.638157 263.332212 
L 144.547004 269.233941 
L 147.001428 263.112167 
L 149.455851 272.554368 
L 151.910275 268.438392 
L 154.364698 271.866021 
L 156.819121 266.531333 
L 159.273545 263.439414 
L 161.727968 264.449366 
L 164.182392 268.02087 
L 166.636815 266.689314 
L 169.091239 268.703575 
L 171.545662 271.400541 
L 174.000085 272.523336 
L 176.454509 270.571139 
L 178.908932 267.665413 
L 181.363356 272.506409 
L 183.817779 273.17783 
L 186.272203 276.216148 
L 188.726626 274.483996 
L 191.181049 270.18747 
L 193.635473 273.756154 
L 198.54432 282.445123 
L 200.998743 279.892033 
L 203.453167 272.864688 
L 205.90759 283.435327 
L 208.362013 280.571916 
L 210.816437 273.496613 
L 213.27086 282.019137 
L 215.725284 276.53211 
L 218.179707 273.981841 
L 220.634131 277.860845 
L 223.088554 277.008875 
L 225.542977 287.730442 
L 227.997401 282.80058 
L 230.451824 281.71728 
L 232.906248 286.989905 
L 235.360671 282.177119 
L 237.815095 274.131359 
L 240.269518 283.775268 
L 242.723941 283.062942 
L 245.178365 273.51354 
L 247.632788 281.32797 
L 250.087212 278.645109 
L 252.541635 285.143499 
L 254.996059 284.879727 
L 257.450482 284.118031 
L 259.904905 287.279067 
L 262.359329 285.702075 
L 264.813752 289.135346 
L 267.268176 284.335255 
L 269.722599 287.369342 
L 272.177023 285.089898 
L 274.631446 289.929484 
L 277.085869 285.314175 
L 279.540293 288.984418 
L 281.994716 290.887246 
L 284.44914 285.393166 
L 286.903563 291.334389 
L 291.81241 291.51635 
L 294.266833 289.335644 
L 299.17568 291.974777 
L 301.630104 292.441668 
L 304.084527 292.539701 
L 306.538951 293.821888 
L 313.902221 295.418628 
L 316.356644 297.033704 
L 318.811068 293.473483 
L 321.265491 297.622607 
L 323.719915 297.516111 
L 326.174338 296.706457 
L 328.628761 296.411653 
L 331.083185 297.109521 
L 333.537608 300.531155 
L 335.992032 298.368081 
L 338.446455 300.184689 
L 340.900879 300.920113 
L 343.355302 295.931361 
L 345.809725 298.893862 
L 348.264149 300.574529 
L 350.718572 300.99734 
L 353.172996 301.238368 
L 355.627419 301.073157 
L 358.081843 300.360126 
L 360.536266 301.305721 
L 362.990689 301.668232 
L 365.445113 302.244969 
L 367.899536 302.704014 
L 370.35396 302.410576 
L 372.808383 302.43914 
L 375.262807 302.674921 
L 377.71723 303.449014 
L 380.171653 302.198906 
L 382.626077 303.062095 
L 385.0805 303.184294 
L 387.534924 303.064177 
L 389.989347 303.377319 
L 392.443771 302.784933 
L 394.898194 303.29392 
L 397.352617 303.252474 
L 399.807041 302.569362 
L 402.261464 303.378443 
L 404.715888 303.516731 
L 407.170311 302.292597 
L 409.624735 303.431674 
L 412.079158 303.578167 
L 414.533581 303.405932 
L 416.988005 303.586322 
L 419.442428 303.502709 
L 424.351275 303.542562 
L 431.714545 303.548733 
L 431.714545 303.548733 
" style="fill:none;stroke:#d62728;stroke-linecap:square;stroke-width:1.5;"/>
   </g>
   <g id="line2d_19">
    <path clip-path="url(#p6b594819ec)" d="M 66.005455 38.682875 
L 68.459878 54.1199 
L 70.914301 66.081337 
L 73.368725 64.095287 
L 75.823148 79.848275 
L 78.277572 123.247981 
L 80.731995 137.940237 
L 83.186419 157.462206 
L 85.640842 178.496281 
L 88.095265 178.044906 
L 90.549689 207.993637 
L 93.004112 209.539597 
L 95.458536 221.636447 
L 97.912959 221.264062 
L 100.367383 232.176053 
L 102.821806 224.931484 
L 105.276229 236.780078 
L 107.730653 229.2534 
L 110.185076 231.397431 
L 112.6395 235.764484 
L 115.093923 234.116966 
L 117.548347 235.482375 
L 120.00277 252.307378 
L 122.457193 235.888612 
L 124.911617 248.481975 
L 129.820464 248.098306 
L 132.274887 247.133492 
L 134.729311 249.813531 
L 137.183734 262.536664 
L 139.638157 254.699666 
L 142.092581 255.410581 
L 144.547004 263.501478 
L 147.001428 257.481264 
L 149.455851 262.119142 
L 151.910275 262.29405 
L 154.364698 268.444034 
L 156.819121 258.547637 
L 159.273545 258.446078 
L 161.727968 258.039841 
L 164.182392 256.194845 
L 166.636815 258.519427 
L 169.091239 266.232297 
L 171.545662 260.866577 
L 174.000085 267.507431 
L 176.454509 261.171255 
L 178.908932 262.756709 
L 181.363356 262.587444 
L 183.817779 263.484552 
L 186.272203 262.1135 
L 188.726626 267.851605 
L 191.181049 268.336833 
L 193.635473 265.989683 
L 196.089896 269.651462 
L 198.54432 274.334478 
L 200.998743 272.055034 
L 203.453167 264.071339 
L 205.90759 277.558988 
L 208.362013 272.057855 
L 210.816437 264.026202 
L 213.27086 273.372485 
L 215.725284 264.342164 
L 218.179707 262.418178 
L 220.634131 271.118431 
L 223.088554 268.218347 
L 225.542977 282.242004 
L 227.997401 275.52498 
L 230.451824 274.26113 
L 232.906248 280.467536 
L 235.360671 271.849095 
L 237.815095 266.294361 
L 240.269518 271.815241 
L 242.723941 275.200554 
L 245.178365 266.632892 
L 247.632788 276.444656 
L 250.087212 269.572472 
L 252.541635 273.933883 
L 254.996059 273.451476 
L 257.450482 272.317396 
L 259.904905 279.367309 
L 262.359329 277.657727 
L 264.813752 282.019137 
L 267.268176 278.114744 
L 269.722599 277.35587 
L 272.177023 275.073605 
L 274.631446 281.734207 
L 277.085869 278.678963 
L 279.540293 280.947122 
L 281.994716 278.817196 
L 284.44914 274.483996 
L 286.903563 285.864288 
L 289.357987 280.933016 
L 291.81241 284.99257 
L 294.266833 281.38157 
L 296.721257 281.629827 
L 299.17568 280.631159 
L 301.630104 285.215437 
L 304.084527 285.882625 
L 306.538951 287.603493 
L 308.993374 289.671354 
L 311.447797 289.146631 
L 313.902221 287.521681 
L 316.356644 286.267705 
L 318.811068 284.253444 
L 321.265491 290.622063 
L 323.719915 290.874551 
L 326.174338 290.435871 
L 328.628761 288.68115 
L 331.083185 294.505298 
L 333.537608 295.658421 
L 335.992032 291.957851 
L 338.446455 294.699954 
L 340.900879 297.230475 
L 343.355302 289.461183 
L 345.809725 295.788191 
L 348.264149 290.811076 
L 350.718572 293.577159 
L 353.172996 295.445428 
L 355.627419 296.049142 
L 358.081843 295.588598 
L 360.536266 295.401701 
L 362.990689 296.93426 
L 365.445113 300.621165 
L 367.899536 298.227026 
L 370.35396 299.613065 
L 372.808383 300.06109 
L 375.262807 300.850996 
L 377.71723 301.792448 
L 380.171653 301.727078 
L 382.626077 301.963565 
L 385.0805 300.323628 
L 387.534924 301.226642 
L 389.989347 301.67264 
L 392.443771 302.754088 
L 397.352617 301.227083 
L 399.807041 302.236858 
L 402.261464 301.59744 
L 404.715888 302.596812 
L 407.170311 302.381351 
L 409.624735 302.895143 
L 412.079158 302.670381 
L 414.533581 303.389385 
L 421.896852 302.90332 
L 424.351275 302.980966 
L 426.805699 303.310163 
L 429.260122 302.813838 
L 431.714545 301.987632 
L 431.714545 301.987632 
" style="fill:none;stroke:#9467bd;stroke-linecap:square;stroke-width:1.5;"/>
   </g>
   <g id="patch_3">
    <path d="M 47.72 303.64 
L 47.72 14.76 
" style="fill:none;stroke:#000000;stroke-linecap:square;stroke-linejoin:miter;stroke-width:0.8;"/>
   </g>
   <g id="patch_4">
    <path d="M 450 303.64 
L 450 14.76 
" style="fill:none;stroke:#000000;stroke-linecap:square;stroke-linejoin:miter;stroke-width:0.8;"/>
   </g>
   <g id="patch_5">
    <path d="M 47.72 303.64 
L 450 303.64 
" style="fill:none;stroke:#000000;stroke-linecap:square;stroke-linejoin:miter;stroke-width:0.8;"/>
   </g>
   <g id="patch_6">
    <path d="M 47.72 14.76 
L 450 14.76 
" style="fill:none;stroke:#000000;stroke-linecap:square;stroke-linejoin:miter;stroke-width:0.8;"/>
   </g>
   <g id="legend_1">
    <g id="patch_7">
     <path d="M 291.78125 96.150625 
L 443 96.150625 
Q 445 96.150625 445 94.150625 
L 445 21.76 
Q 445 19.76 443 19.76 
L 291.78125 19.76 
Q 289.78125 19.76 289.78125 21.76 
L 289.78125 94.150625 
Q 289.78125 96.150625 291.78125 96.150625 
z
" style="fill:#ffffff;opacity:0.8;stroke:#cccccc;stroke-linejoin:miter;"/>
    </g>
    <g id="line2d_20">
     <path d="M 293.78125 27.858437 
L 313.78125 27.858437 
" style="fill:none;stroke:#1f77b4;stroke-linecap:square;stroke-width:1.5;"/>
    </g>
    <g id="line2d_21"/>
    <g id="text_17">
     <!-- AllReduce SGD -->
     <g transform="translate(321.78125 31.358437)scale(0.1 -0.1)">
      <defs>
       <path d="M 34.1875 63.1875 
L 20.796875 26.90625 
L 47.609375 26.90625 
z
M 28.609375 72.90625 
L 39.796875 72.90625 
L 67.578125 0 
L 57.328125 0 
L 50.6875 18.703125 
L 17.828125 18.703125 
L 11.1875 0 
L 0.78125 0 
z
" id="DejaVuSans-65"/>
       <path d="M 9.421875 75.984375 
L 18.40625 75.984375 
L 18.40625 0 
L 9.421875 0 
z
" id="DejaVuSans-108"/>
       <path d="M 44.390625 34.1875 
Q 47.5625 33.109375 50.5625 29.59375 
Q 53.5625 26.078125 56.59375 19.921875 
L 66.609375 0 
L 56 0 
L 46.6875 18.703125 
Q 43.0625 26.03125 39.671875 28.421875 
Q 36.28125 30.8125 30.421875 30.8125 
L 19.671875 30.8125 
L 19.671875 0 
L 9.8125 0 
L 9.8125 72.90625 
L 32.078125 72.90625 
Q 44.578125 72.90625 50.734375 67.671875 
Q 56.890625 62.453125 56.890625 51.90625 
Q 56.890625 45.015625 53.6875 40.46875 
Q 50.484375 35.9375 44.390625 34.1875 
z
M 19.671875 64.796875 
L 19.671875 38.921875 
L 32.078125 38.921875 
Q 39.203125 38.921875 42.84375 42.21875 
Q 46.484375 45.515625 46.484375 51.90625 
Q 46.484375 58.296875 42.84375 61.546875 
Q 39.203125 64.796875 32.078125 64.796875 
z
" id="DejaVuSans-82"/>
       <path d="M 56.203125 29.59375 
L 56.203125 25.203125 
L 14.890625 25.203125 
Q 15.484375 15.921875 20.484375 11.0625 
Q 25.484375 6.203125 34.421875 6.203125 
Q 39.59375 6.203125 44.453125 7.46875 
Q 49.3125 8.734375 54.109375 11.28125 
L 54.109375 2.78125 
Q 49.265625 0.734375 44.1875 -0.34375 
Q 39.109375 -1.421875 33.890625 -1.421875 
Q 20.796875 -1.421875 13.15625 6.1875 
Q 5.515625 13.8125 5.515625 26.8125 
Q 5.515625 40.234375 12.765625 48.109375 
Q 20.015625 56 32.328125 56 
Q 43.359375 56 49.78125 48.890625 
Q 56.203125 41.796875 56.203125 29.59375 
z
M 47.21875 32.234375 
Q 47.125 39.59375 43.09375 43.984375 
Q 39.0625 48.390625 32.421875 48.390625 
Q 24.90625 48.390625 20.390625 44.140625 
Q 15.875 39.890625 15.1875 32.171875 
z
" id="DejaVuSans-101"/>
       <path d="M 45.40625 46.390625 
L 45.40625 75.984375 
L 54.390625 75.984375 
L 54.390625 0 
L 45.40625 0 
L 45.40625 8.203125 
Q 42.578125 3.328125 38.25 0.953125 
Q 33.9375 -1.421875 27.875 -1.421875 
Q 17.96875 -1.421875 11.734375 6.484375 
Q 5.515625 14.40625 5.515625 27.296875 
Q 5.515625 40.1875 11.734375 48.09375 
Q 17.96875 56 27.875 56 
Q 33.9375 56 38.25 53.625 
Q 42.578125 51.265625 45.40625 46.390625 
z
M 14.796875 27.296875 
Q 14.796875 17.390625 18.875 11.75 
Q 22.953125 6.109375 30.078125 6.109375 
Q 37.203125 6.109375 41.296875 11.75 
Q 45.40625 17.390625 45.40625 27.296875 
Q 45.40625 37.203125 41.296875 42.84375 
Q 37.203125 48.484375 30.078125 48.484375 
Q 22.953125 48.484375 18.875 42.84375 
Q 14.796875 37.203125 14.796875 27.296875 
z
" id="DejaVuSans-100"/>
       <path d="M 8.5 21.578125 
L 8.5 54.6875 
L 17.484375 54.6875 
L 17.484375 21.921875 
Q 17.484375 14.15625 20.5 10.265625 
Q 23.53125 6.390625 29.59375 6.390625 
Q 36.859375 6.390625 41.078125 11.03125 
Q 45.3125 15.671875 45.3125 23.6875 
L 45.3125 54.6875 
L 54.296875 54.6875 
L 54.296875 0 
L 45.3125 0 
L 45.3125 8.40625 
Q 42.046875 3.421875 37.71875 1 
Q 33.40625 -1.421875 27.6875 -1.421875 
Q 18.265625 -1.421875 13.375 4.4375 
Q 8.5 10.296875 8.5 21.578125 
z
M 31.109375 56 
z
" id="DejaVuSans-117"/>
       <path id="DejaVuSans-32"/>
       <path d="M 53.515625 70.515625 
L 53.515625 60.890625 
Q 47.90625 63.578125 42.921875 64.890625 
Q 37.9375 66.21875 33.296875 66.21875 
Q 25.25 66.21875 20.875 63.09375 
Q 16.5 59.96875 16.5 54.203125 
Q 16.5 49.359375 19.40625 46.890625 
Q 22.3125 44.4375 30.421875 42.921875 
L 36.375 41.703125 
Q 47.40625 39.59375 52.65625 34.296875 
Q 57.90625 29 57.90625 20.125 
Q 57.90625 9.515625 50.796875 4.046875 
Q 43.703125 -1.421875 29.984375 -1.421875 
Q 24.8125 -1.421875 18.96875 -0.25 
Q 13.140625 0.921875 6.890625 3.21875 
L 6.890625 13.375 
Q 12.890625 10.015625 18.65625 8.296875 
Q 24.421875 6.59375 29.984375 6.59375 
Q 38.421875 6.59375 43.015625 9.90625 
Q 47.609375 13.234375 47.609375 19.390625 
Q 47.609375 24.75 44.3125 27.78125 
Q 41.015625 30.8125 33.5 32.328125 
L 27.484375 33.5 
Q 16.453125 35.6875 11.515625 40.375 
Q 6.59375 45.0625 6.59375 53.421875 
Q 6.59375 63.09375 13.40625 68.65625 
Q 20.21875 74.21875 32.171875 74.21875 
Q 37.3125 74.21875 42.625 73.28125 
Q 47.953125 72.359375 53.515625 70.515625 
z
" id="DejaVuSans-83"/>
       <path d="M 59.515625 10.40625 
L 59.515625 29.984375 
L 43.40625 29.984375 
L 43.40625 38.09375 
L 69.28125 38.09375 
L 69.28125 6.78125 
Q 63.578125 2.734375 56.6875 0.65625 
Q 49.8125 -1.421875 42 -1.421875 
Q 24.90625 -1.421875 15.25 8.5625 
Q 5.609375 18.5625 5.609375 36.375 
Q 5.609375 54.25 15.25 64.234375 
Q 24.90625 74.21875 42 74.21875 
Q 49.125 74.21875 55.546875 72.453125 
Q 61.96875 70.703125 67.390625 67.28125 
L 67.390625 56.78125 
Q 61.921875 61.421875 55.765625 63.765625 
Q 49.609375 66.109375 42.828125 66.109375 
Q 29.4375 66.109375 22.71875 58.640625 
Q 16.015625 51.171875 16.015625 36.375 
Q 16.015625 21.625 22.71875 14.15625 
Q 29.4375 6.6875 42.828125 6.6875 
Q 48.046875 6.6875 52.140625 7.59375 
Q 56.25 8.5 59.515625 10.40625 
z
" id="DejaVuSans-71"/>
       <path d="M 19.671875 64.796875 
L 19.671875 8.109375 
L 31.59375 8.109375 
Q 46.6875 8.109375 53.6875 14.9375 
Q 60.6875 21.78125 60.6875 36.53125 
Q 60.6875 51.171875 53.6875 57.984375 
Q 46.6875 64.796875 31.59375 64.796875 
z
M 9.8125 72.90625 
L 30.078125 72.90625 
Q 51.265625 72.90625 61.171875 64.09375 
Q 71.09375 55.28125 71.09375 36.53125 
Q 71.09375 17.671875 61.125 8.828125 
Q 51.171875 0 30.078125 0 
L 9.8125 0 
z
" id="DejaVuSans-68"/>
      </defs>
      <use xlink:href="#DejaVuSans-65"/>
      <use x="68.408203" xlink:href="#DejaVuSans-108"/>
      <use x="96.191406" xlink:href="#DejaVuSans-108"/>
      <use x="123.974609" xlink:href="#DejaVuSans-82"/>
      <use x="188.957031" xlink:href="#DejaVuSans-101"/>
      <use x="250.480469" xlink:href="#DejaVuSans-100"/>
      <use x="313.957031" xlink:href="#DejaVuSans-117"/>
      <use x="377.335938" xlink:href="#DejaVuSans-99"/>
      <use x="432.316406" xlink:href="#DejaVuSans-101"/>
      <use x="493.839844" xlink:href="#DejaVuSans-32"/>
      <use x="525.626953" xlink:href="#DejaVuSans-83"/>
      <use x="589.103516" xlink:href="#DejaVuSans-71"/>
      <use x="666.59375" xlink:href="#DejaVuSans-68"/>
     </g>
    </g>
    <g id="line2d_22">
     <path d="M 293.78125 42.536563 
L 313.78125 42.536563 
" style="fill:none;stroke:#ff7f0e;stroke-linecap:square;stroke-width:1.5;"/>
    </g>
    <g id="line2d_23"/>
    <g id="text_18">
     <!-- QSGD-MN-TS (8,12) bits -->
     <g transform="translate(321.78125 46.036563)scale(0.1 -0.1)">
      <defs>
       <path d="M 39.40625 66.21875 
Q 28.65625 66.21875 22.328125 58.203125 
Q 16.015625 50.203125 16.015625 36.375 
Q 16.015625 22.609375 22.328125 14.59375 
Q 28.65625 6.59375 39.40625 6.59375 
Q 50.140625 6.59375 56.421875 14.59375 
Q 62.703125 22.609375 62.703125 36.375 
Q 62.703125 50.203125 56.421875 58.203125 
Q 50.140625 66.21875 39.40625 66.21875 
z
M 53.21875 1.3125 
L 66.21875 -12.890625 
L 54.296875 -12.890625 
L 43.5 -1.21875 
Q 41.890625 -1.3125 41.03125 -1.359375 
Q 40.1875 -1.421875 39.40625 -1.421875 
Q 24.03125 -1.421875 14.8125 8.859375 
Q 5.609375 19.140625 5.609375 36.375 
Q 5.609375 53.65625 14.8125 63.9375 
Q 24.03125 74.21875 39.40625 74.21875 
Q 54.734375 74.21875 63.90625 63.9375 
Q 73.09375 53.65625 73.09375 36.375 
Q 73.09375 23.6875 67.984375 14.640625 
Q 62.890625 5.609375 53.21875 1.3125 
z
" id="DejaVuSans-81"/>
       <path d="M 4.890625 31.390625 
L 31.203125 31.390625 
L 31.203125 23.390625 
L 4.890625 23.390625 
z
" id="DejaVuSans-45"/>
       <path d="M 9.8125 72.90625 
L 24.515625 72.90625 
L 43.109375 23.296875 
L 61.8125 72.90625 
L 76.515625 72.90625 
L 76.515625 0 
L 66.890625 0 
L 66.890625 64.015625 
L 48.09375 14.015625 
L 38.1875 14.015625 
L 19.390625 64.015625 
L 19.390625 0 
L 9.8125 0 
z
" id="DejaVuSans-77"/>
       <path d="M 9.8125 72.90625 
L 23.09375 72.90625 
L 55.421875 11.921875 
L 55.421875 72.90625 
L 64.984375 72.90625 
L 64.984375 0 
L 51.703125 0 
L 19.390625 60.984375 
L 19.390625 0 
L 9.8125 0 
z
" id="DejaVuSans-78"/>
       <path d="M -0.296875 72.90625 
L 61.375 72.90625 
L 61.375 64.59375 
L 35.5 64.59375 
L 35.5 0 
L 25.59375 0 
L 25.59375 64.59375 
L -0.296875 64.59375 
z
" id="DejaVuSans-84"/>
       <path d="M 31 75.875 
Q 24.46875 64.65625 21.28125 53.65625 
Q 18.109375 42.671875 18.109375 31.390625 
Q 18.109375 20.125 21.3125 9.0625 
Q 24.515625 -2 31 -13.1875 
L 23.1875 -13.1875 
Q 15.875 -1.703125 12.234375 9.375 
Q 8.59375 20.453125 8.59375 31.390625 
Q 8.59375 42.28125 12.203125 53.3125 
Q 15.828125 64.359375 23.1875 75.875 
z
" id="DejaVuSans-40"/>
       <path d="M 11.71875 12.40625 
L 22.015625 12.40625 
L 22.015625 4 
L 14.015625 -11.625 
L 7.71875 -11.625 
L 11.71875 4 
z
" id="DejaVuSans-44"/>
       <path d="M 8.015625 75.875 
L 15.828125 75.875 
Q 23.140625 64.359375 26.78125 53.3125 
Q 30.421875 42.28125 30.421875 31.390625 
Q 30.421875 20.453125 26.78125 9.375 
Q 23.140625 -1.703125 15.828125 -13.1875 
L 8.015625 -13.1875 
Q 14.5 -2 17.703125 9.0625 
Q 20.90625 20.125 20.90625 31.390625 
Q 20.90625 42.671875 17.703125 53.65625 
Q 14.5 64.65625 8.015625 75.875 
z
" id="DejaVuSans-41"/>
       <path d="M 48.6875 27.296875 
Q 48.6875 37.203125 44.609375 42.84375 
Q 40.53125 48.484375 33.40625 48.484375 
Q 26.265625 48.484375 22.1875 42.84375 
Q 18.109375 37.203125 18.109375 27.296875 
Q 18.109375 17.390625 22.1875 11.75 
Q 26.265625 6.109375 33.40625 6.109375 
Q 40.53125 6.109375 44.609375 11.75 
Q 48.6875 17.390625 48.6875 27.296875 
z
M 18.109375 46.390625 
Q 20.953125 51.265625 25.265625 53.625 
Q 29.59375 56 35.59375 56 
Q 45.5625 56 51.78125 48.09375 
Q 58.015625 40.1875 58.015625 27.296875 
Q 58.015625 14.40625 51.78125 6.484375 
Q 45.5625 -1.421875 35.59375 -1.421875 
Q 29.59375 -1.421875 25.265625 0.953125 
Q 20.953125 3.328125 18.109375 8.203125 
L 18.109375 0 
L 9.078125 0 
L 9.078125 75.984375 
L 18.109375 75.984375 
z
" id="DejaVuSans-98"/>
       <path d="M 9.421875 54.6875 
L 18.40625 54.6875 
L 18.40625 0 
L 9.421875 0 
z
M 9.421875 75.984375 
L 18.40625 75.984375 
L 18.40625 64.59375 
L 9.421875 64.59375 
z
" id="DejaVuSans-105"/>
       <path d="M 18.3125 70.21875 
L 18.3125 54.6875 
L 36.8125 54.6875 
L 36.8125 47.703125 
L 18.3125 47.703125 
L 18.3125 18.015625 
Q 18.3125 11.328125 20.140625 9.421875 
Q 21.96875 7.515625 27.59375 7.515625 
L 36.8125 7.515625 
L 36.8125 0 
L 27.59375 0 
Q 17.1875 0 13.234375 3.875 
Q 9.28125 7.765625 9.28125 18.015625 
L 9.28125 47.703125 
L 2.6875 47.703125 
L 2.6875 54.6875 
L 9.28125 54.6875 
L 9.28125 70.21875 
z
" id="DejaVuSans-116"/>
      </defs>
      <use xlink:href="#DejaVuSans-81"/>
      <use x="78.710938" xlink:href="#DejaVuSans-83"/>
      <use x="142.1875" xlink:href="#DejaVuSans-71"/>
      <use x="219.677734" xlink:href="#DejaVuSans-68"/>
      <use x="296.679688" xlink:href="#DejaVuSans-45"/>
      <use x="332.763672" xlink:href="#DejaVuSans-77"/>
      <use x="419.042969" xlink:href="#DejaVuSans-78"/>
      <use x="493.847656" xlink:href="#DejaVuSans-45"/>
      <use x="520.806641" xlink:href="#DejaVuSans-84"/>
      <use x="581.890625" xlink:href="#DejaVuSans-83"/>
      <use x="645.367188" xlink:href="#DejaVuSans-32"/>
      <use x="677.154297" xlink:href="#DejaVuSans-40"/>
      <use x="716.167969" xlink:href="#DejaVuSans-56"/>
      <use x="779.791016" xlink:href="#DejaVuSans-44"/>
      <use x="811.578125" xlink:href="#DejaVuSans-49"/>
      <use x="875.201172" xlink:href="#DejaVuSans-50"/>
      <use x="938.824219" xlink:href="#DejaVuSans-41"/>
      <use x="977.837891" xlink:href="#DejaVuSans-32"/>
      <use x="1009.625" xlink:href="#DejaVuSans-98"/>
      <use x="1073.101562" xlink:href="#DejaVuSans-105"/>
      <use x="1100.884766" xlink:href="#DejaVuSans-116"/>
      <use x="1140.09375" xlink:href="#DejaVuSans-115"/>
     </g>
    </g>
    <g id="line2d_24">
     <path d="M 293.78125 57.214687 
L 313.78125 57.214687 
" style="fill:none;stroke:#2ca02c;stroke-linecap:square;stroke-width:1.5;"/>
    </g>
    <g id="line2d_25"/>
    <g id="text_19">
     <!-- QSGD-MN-TS (6,10) bits -->
     <g transform="translate(321.78125 60.714687)scale(0.1 -0.1)">
      <use xlink:href="#DejaVuSans-81"/>
      <use x="78.710938" xlink:href="#DejaVuSans-83"/>
      <use x="142.1875" xlink:href="#DejaVuSans-71"/>
      <use x="219.677734" xlink:href="#DejaVuSans-68"/>
      <use x="296.679688" xlink:href="#DejaVuSans-45"/>
      <use x="332.763672" xlink:href="#DejaVuSans-77"/>
      <use x="419.042969" xlink:href="#DejaVuSans-78"/>
      <use x="493.847656" xlink:href="#DejaVuSans-45"/>
      <use x="520.806641" xlink:href="#DejaVuSans-84"/>
      <use x="581.890625" xlink:href="#DejaVuSans-83"/>
      <use x="645.367188" xlink:href="#DejaVuSans-32"/>
      <use x="677.154297" xlink:href="#DejaVuSans-40"/>
      <use x="716.167969" xlink:href="#DejaVuSans-54"/>
      <use x="779.791016" xlink:href="#DejaVuSans-44"/>
      <use x="811.578125" xlink:href="#DejaVuSans-49"/>
      <use x="875.201172" xlink:href="#DejaVuSans-48"/>
      <use x="938.824219" xlink:href="#DejaVuSans-41"/>
      <use x="977.837891" xlink:href="#DejaVuSans-32"/>
      <use x="1009.625" xlink:href="#DejaVuSans-98"/>
      <use x="1073.101562" xlink:href="#DejaVuSans-105"/>
      <use x="1100.884766" xlink:href="#DejaVuSans-116"/>
      <use x="1140.09375" xlink:href="#DejaVuSans-115"/>
     </g>
    </g>
    <g id="line2d_26">
     <path d="M 293.78125 71.892812 
L 313.78125 71.892812 
" style="fill:none;stroke:#d62728;stroke-linecap:square;stroke-width:1.5;"/>
    </g>
    <g id="line2d_27"/>
    <g id="text_20">
     <!-- QSGD-MN-TS (4,8) bits -->
     <g transform="translate(321.78125 75.392812)scale(0.1 -0.1)">
      <use xlink:href="#DejaVuSans-81"/>
      <use x="78.710938" xlink:href="#DejaVuSans-83"/>
      <use x="142.1875" xlink:href="#DejaVuSans-71"/>
      <use x="219.677734" xlink:href="#DejaVuSans-68"/>
      <use x="296.679688" xlink:href="#DejaVuSans-45"/>
      <use x="332.763672" xlink:href="#DejaVuSans-77"/>
      <use x="419.042969" xlink:href="#DejaVuSans-78"/>
      <use x="493.847656" xlink:href="#DejaVuSans-45"/>
      <use x="520.806641" xlink:href="#DejaVuSans-84"/>
      <use x="581.890625" xlink:href="#DejaVuSans-83"/>
      <use x="645.367188" xlink:href="#DejaVuSans-32"/>
      <use x="677.154297" xlink:href="#DejaVuSans-40"/>
      <use x="716.167969" xlink:href="#DejaVuSans-52"/>
      <use x="779.791016" xlink:href="#DejaVuSans-44"/>
      <use x="811.578125" xlink:href="#DejaVuSans-56"/>
      <use x="875.201172" xlink:href="#DejaVuSans-41"/>
      <use x="914.214844" xlink:href="#DejaVuSans-32"/>
      <use x="946.001953" xlink:href="#DejaVuSans-98"/>
      <use x="1009.478516" xlink:href="#DejaVuSans-105"/>
      <use x="1037.261719" xlink:href="#DejaVuSans-116"/>
      <use x="1076.470703" xlink:href="#DejaVuSans-115"/>
     </g>
    </g>
    <g id="line2d_28">
     <path d="M 293.78125 86.570937 
L 313.78125 86.570937 
" style="fill:none;stroke:#9467bd;stroke-linecap:square;stroke-width:1.5;"/>
    </g>
    <g id="line2d_29"/>
    <g id="text_21">
     <!-- QSGD-MN-TS (2,6) bits -->
     <g transform="translate(321.78125 90.070937)scale(0.1 -0.1)">
      <use xlink:href="#DejaVuSans-81"/>
      <use x="78.710938" xlink:href="#DejaVuSans-83"/>
      <use x="142.1875" xlink:href="#DejaVuSans-71"/>
      <use x="219.677734" xlink:href="#DejaVuSans-68"/>
      <use x="296.679688" xlink:href="#DejaVuSans-45"/>
      <use x="332.763672" xlink:href="#DejaVuSans-77"/>
      <use x="419.042969" xlink:href="#DejaVuSans-78"/>
      <use x="493.847656" xlink:href="#DejaVuSans-45"/>
      <use x="520.806641" xlink:href="#DejaVuSans-84"/>
      <use x="581.890625" xlink:href="#DejaVuSans-83"/>
      <use x="645.367188" xlink:href="#DejaVuSans-32"/>
      <use x="677.154297" xlink:href="#DejaVuSans-40"/>
      <use x="716.167969" xlink:href="#DejaVuSans-50"/>
      <use x="779.791016" xlink:href="#DejaVuSans-44"/>
      <use x="811.578125" xlink:href="#DejaVuSans-54"/>
      <use x="875.201172" xlink:href="#DejaVuSans-41"/>
      <use x="914.214844" xlink:href="#DejaVuSans-32"/>
      <use x="946.001953" xlink:href="#DejaVuSans-98"/>
      <use x="1009.478516" xlink:href="#DejaVuSans-105"/>
      <use x="1037.261719" xlink:href="#DejaVuSans-116"/>
      <use x="1076.470703" xlink:href="#DejaVuSans-115"/>
     </g>
    </g>
   </g>
  </g>
 </g>
 <defs>
  <clipPath id="p6b594819ec">
   <rect height="288.88" width="402.28" x="47.72" y="14.76"/>
  </clipPath>
 </defs>
</svg>
