<?xml version="1.0" encoding="utf-8" standalone="no"?>
<!DOCTYPE svg PUBLIC "-//W3C//DTD SVG 1.1//EN"
  "http://www.w3.org/Graphics/SVG/1.1/DTD/svg11.dtd">
<!-- Created with matplotlib (https://matplotlib.org/) -->
<svg height="345.6pt" version="1.1" viewBox="0 0 460.8 345.6" width="460.8pt" xmlns="http://www.w3.org/2000/svg" xmlns:xlink="http://www.w3.org/1999/xlink">
 <metadata>
  <rdf:RDF xmlns:cc="http://creativecommons.org/ns#" xmlns:dc="http://purl.org/dc/elements/1.1/" xmlns:rdf="http://www.w3.org/1999/02/22-rdf-syntax-ns#">
   <cc:Work>
    <dc:type rdf:resource="http://purl.org/dc/dcmitype/StillImage"/>
    <dc:date>2021-06-10T08:57:44.776204</dc:date>
    <dc:format>image/svg+xml</dc:format>
    <dc:creator>
     <cc:Agent>
      <dc:title>Matplotlib v3.3.1, https://matplotlib.org/</dc:title>
     </cc:Agent>
    </dc:creator>
   </cc:Work>
  </rdf:RDF>
 </metadata>
 <defs>
  <style type="text/css">*{stroke-linecap:butt;stroke-linejoin:round;}</style>
 </defs>
 <g id="figure_1">
  <g id="patch_1">
   <path d="M 0 345.6 
L 460.8 345.6 
L 460.8 0 
L 0 0 
z
" style="fill:#ffffff;"/>
  </g>
  <g id="axes_1">
   <g id="patch_2">
    <path d="M 47.72 303.64 
L 450 303.64 
L 450 14.76 
L 47.72 14.76 
z
" style="fill:#ffffff;"/>
   </g>
   <g id="PolyCollection_1">
    <path clip-path="url(#pd3194deb72)" d="M 66.005455 36.705705 
L 66.005455 52.756895 
L 68.459878 76.283789 
L 70.914301 90.849332 
L 73.368725 99.001384 
L 75.823148 117.993606 
L 78.277572 148.26022 
L 80.731995 162.338697 
L 83.186419 172.467608 
L 85.640842 184.658613 
L 88.095265 170.8425 
L 90.549689 200.999982 
L 93.004112 202.858666 
L 95.458536 220.928591 
L 97.912959 221.339344 
L 100.367383 230.577193 
L 102.821806 231.147217 
L 105.276229 245.418758 
L 107.730653 231.678067 
L 110.185076 243.289598 
L 112.6395 243.592336 
L 115.093923 236.957601 
L 117.548347 241.358429 
L 120.00277 254.780084 
L 122.457193 248.134076 
L 124.911617 258.897849 
L 127.36604 256.025969 
L 129.820464 259.807077 
L 132.274887 259.305021 
L 134.729311 263.207871 
L 137.183734 263.50163 
L 139.638157 258.679798 
L 142.092581 263.775357 
L 144.547004 272.363457 
L 147.001428 265.177781 
L 149.455851 281.592939 
L 151.910275 271.593068 
L 154.364698 271.587978 
L 156.819121 265.659388 
L 159.273545 265.452992 
L 161.727968 272.205149 
L 164.182392 270.638349 
L 166.636815 271.025714 
L 169.091239 271.140167 
L 171.545662 271.583867 
L 174.000085 277.745464 
L 176.454509 269.124544 
L 178.908932 267.908454 
L 181.363356 279.132672 
L 183.817779 273.333675 
L 186.272203 275.891027 
L 188.726626 274.514894 
L 191.181049 279.095973 
L 193.635473 274.650874 
L 196.089896 281.540878 
L 198.54432 282.243853 
L 200.998743 282.664729 
L 203.453167 275.066041 
L 205.90759 285.556254 
L 208.362013 284.387465 
L 210.816437 278.18504 
L 213.27086 281.411013 
L 215.725284 277.190988 
L 218.179707 279.965614 
L 220.634131 280.05521 
L 223.088554 280.085236 
L 225.542977 287.704561 
L 227.997401 285.91601 
L 230.451824 285.551135 
L 232.906248 282.550617 
L 235.360671 278.432467 
L 237.815095 276.022231 
L 240.269518 283.48046 
L 242.723941 287.658729 
L 245.178365 280.738932 
L 247.632788 285.628669 
L 250.087212 284.425706 
L 252.541635 287.984519 
L 254.996059 288.821359 
L 257.450482 287.306359 
L 259.904905 289.651866 
L 262.359329 290.041378 
L 264.813752 294.595242 
L 267.268176 290.568084 
L 269.722599 289.770772 
L 272.177023 284.134268 
L 274.631446 292.474904 
L 277.085869 290.828825 
L 279.540293 292.027236 
L 281.994716 291.910754 
L 284.44914 287.12802 
L 286.903563 297.155058 
L 289.357987 291.08559 
L 291.81241 297.171884 
L 294.266833 292.860705 
L 296.721257 293.573299 
L 299.17568 296.578327 
L 301.630104 295.532302 
L 304.084527 295.547367 
L 306.538951 292.226036 
L 308.993374 296.219477 
L 311.447797 300.365351 
L 313.902221 297.329727 
L 316.356644 298.5765 
L 318.811068 298.329908 
L 321.265491 297.779101 
L 323.719915 299.484721 
L 326.174338 298.570961 
L 328.628761 299.875423 
L 331.083185 300.576075 
L 333.537608 301.134841 
L 335.992032 298.359225 
L 338.446455 300.016902 
L 340.900879 302.261894 
L 343.355302 302.039859 
L 345.809725 301.852002 
L 348.264149 302.291347 
L 350.718572 302.670829 
L 353.172996 302.802904 
L 355.627419 302.619212 
L 358.081843 302.916903 
L 360.536266 302.844699 
L 362.990689 302.683768 
L 365.445113 303.472301 
L 367.899536 303.832087 
L 370.35396 303.492126 
L 372.808383 303.427211 
L 375.262807 303.584801 
L 377.71723 303.451279 
L 380.171653 303.549949 
L 382.626077 303.523129 
L 385.0805 303.556815 
L 387.534924 303.457428 
L 389.989347 303.527084 
L 392.443771 303.529021 
L 394.898194 303.512329 
L 397.352617 303.598676 
L 399.807041 303.589367 
L 402.261464 303.59475 
L 404.715888 303.569425 
L 407.170311 303.472827 
L 409.624735 303.514348 
L 412.079158 303.647131 
L 414.533581 303.53199 
L 416.988005 303.576429 
L 419.442428 303.574956 
L 421.896852 303.558061 
L 424.351275 303.489432 
L 426.805699 303.547601 
L 429.260122 303.569633 
L 431.714545 303.555699 
L 431.714545 303.387776 
L 431.714545 303.387776 
L 429.260122 303.31235 
L 426.805699 303.483812 
L 424.351275 303.384022 
L 421.896852 303.51115 
L 419.442428 303.527932 
L 416.988005 303.515483 
L 414.533581 303.337387 
L 412.079158 303.164457 
L 409.624735 303.303544 
L 407.170311 303.124028 
L 404.715888 303.424895 
L 402.261464 303.330872 
L 399.807041 303.407763 
L 397.352617 302.871802 
L 394.898194 303.426495 
L 392.443771 303.463801 
L 389.989347 303.343901 
L 387.534924 303.138721 
L 385.0805 303.3227 
L 382.626077 302.921255 
L 380.171653 303.260361 
L 377.71723 303.347857 
L 375.262807 303.064993 
L 372.808383 303.182074 
L 370.35396 302.937006 
L 367.899536 302.184504 
L 365.445113 302.658809 
L 362.990689 301.881105 
L 360.536266 302.022737 
L 358.081843 301.149871 
L 355.627419 301.539776 
L 353.172996 299.232683 
L 350.718572 301.424509 
L 348.264149 299.419813 
L 345.809725 298.859434 
L 343.355302 300.302874 
L 340.900879 301.15356 
L 338.446455 298.567782 
L 335.992032 296.163789 
L 333.537608 299.703896 
L 331.083185 299.08274 
L 328.628761 297.807216 
L 326.174338 296.454207 
L 323.719915 296.13852 
L 321.265491 293.424896 
L 318.811068 294.302973 
L 316.356644 295.296252 
L 313.902221 294.386299 
L 311.447797 297.134623 
L 308.993374 290.813533 
L 306.538951 290.267835 
L 304.084527 288.091867 
L 301.630104 288.673972 
L 299.17568 293.055731 
L 296.721257 288.759769 
L 294.266833 289.777041 
L 291.81241 291.683552 
L 289.357987 285.952285 
L 286.903563 291.340689 
L 284.44914 279.957037 
L 281.994716 287.722527 
L 279.540293 288.048957 
L 277.085869 285.469923 
L 274.631446 288.159866 
L 272.177023 282.347074 
L 269.722599 280.019713 
L 267.268176 286.18486 
L 264.813752 292.990702 
L 262.359329 284.584461 
L 259.904905 284.818813 
L 257.450482 285.087996 
L 254.996059 285.49134 
L 252.541635 285.594695 
L 250.087212 279.426377 
L 247.632788 282.020606 
L 245.178365 269.662176 
L 242.723941 280.678893 
L 240.269518 277.62952 
L 237.815095 270.688886 
L 235.360671 272.939097 
L 232.906248 280.663898 
L 230.451824 279.372963 
L 227.997401 280.074462 
L 225.542977 283.877319 
L 223.088554 276.178104 
L 220.634131 269.488286 
L 218.179707 274.125484 
L 215.725284 272.493562 
L 213.27086 273.848019 
L 210.816437 270.991713 
L 208.362013 276.147012 
L 205.90759 278.521516 
L 203.453167 267.644765 
L 200.998743 279.438276 
L 198.54432 277.088838 
L 196.089896 278.124702 
L 193.635473 269.876717 
L 191.181049 272.06683 
L 188.726626 268.568296 
L 186.272203 271.846968 
L 183.817779 268.790344 
L 181.363356 273.485815 
L 178.908932 261.20468 
L 176.454509 264.863441 
L 174.000085 274.455502 
L 171.545662 267.109702 
L 169.091239 267.39542 
L 166.636815 268.186936 
L 164.182392 264.861741 
L 161.727968 264.32182 
L 159.273545 262.565558 
L 156.819121 259.176969 
L 154.364698 265.604769 
L 151.910275 265.159588 
L 149.455851 272.52637 
L 147.001428 258.462431 
L 144.547004 264.581033 
L 142.092581 251.20974 
L 139.638157 255.56053 
L 137.183734 260.567389 
L 134.729311 250.829338 
L 132.274887 247.814867 
L 129.820464 247.143545 
L 127.36604 251.940246 
L 124.911617 250.287079 
L 122.457193 240.242465 
L 120.00277 243.583129 
L 117.548347 232.134021 
L 115.093923 225.769555 
L 112.6395 235.011936 
L 110.185076 235.235684 
L 107.730653 224.594427 
L 105.276229 236.345138 
L 102.821806 215.804383 
L 100.367383 209.671488 
L 97.912959 204.623318 
L 95.458536 200.407478 
L 93.004112 191.891415 
L 90.549689 183.07508 
L 88.095265 147.5575 
L 85.640842 154.4595 
L 83.186419 140.470755 
L 80.731995 132.228703 
L 78.277572 115.07203 
L 75.823148 94.017307 
L 73.368725 79.382091 
L 70.914301 75.572705 
L 68.459878 50.372111 
L 66.005455 36.705705 
z
" style="fill:#1f77b4;fill-opacity:0.25;"/>
   </g>
   <g id="PolyCollection_2">
    <path clip-path="url(#pd3194deb72)" d="M 66.005455 32.586806 
L 66.005455 40.716569 
L 68.459878 69.192003 
L 70.914301 87.633076 
L 73.368725 99.694193 
L 75.823148 116.255328 
L 78.277572 134.844627 
L 80.731995 148.843558 
L 83.186419 153.012934 
L 85.640842 170.167136 
L 88.095265 169.599503 
L 90.549689 197.393568 
L 93.004112 199.166913 
L 95.458536 214.458252 
L 97.912959 217.124281 
L 100.367383 229.27386 
L 102.821806 231.217573 
L 105.276229 247.38416 
L 107.730653 230.373804 
L 110.185076 247.990223 
L 112.6395 243.287692 
L 115.093923 240.787209 
L 117.548347 243.188202 
L 120.00277 256.586955 
L 122.457193 252.325382 
L 124.911617 257.99779 
L 127.36604 255.661288 
L 129.820464 258.986332 
L 132.274887 257.392142 
L 134.729311 260.836847 
L 137.183734 263.403878 
L 139.638157 263.570529 
L 142.092581 266.00873 
L 144.547004 273.043118 
L 147.001428 264.144678 
L 149.455851 278.79198 
L 151.910275 274.062574 
L 154.364698 270.517234 
L 156.819121 267.771898 
L 159.273545 268.164999 
L 161.727968 269.576176 
L 164.182392 270.742062 
L 166.636815 271.213287 
L 169.091239 267.930533 
L 171.545662 269.540988 
L 174.000085 279.521062 
L 176.454509 272.067871 
L 178.908932 271.919025 
L 181.363356 275.453031 
L 183.817779 276.781121 
L 186.272203 278.320093 
L 188.726626 276.229181 
L 191.181049 281.317959 
L 193.635473 278.605944 
L 196.089896 281.769464 
L 198.54432 284.496089 
L 200.998743 285.499325 
L 203.453167 277.900263 
L 205.90759 285.721966 
L 208.362013 279.983137 
L 210.816437 277.588998 
L 213.27086 285.356103 
L 215.725284 279.872604 
L 218.179707 277.866345 
L 220.634131 279.184229 
L 223.088554 280.129483 
L 225.542977 288.499328 
L 227.997401 286.540532 
L 230.451824 286.282592 
L 232.906248 289.388219 
L 235.360671 277.504451 
L 237.815095 276.425841 
L 240.269518 280.823309 
L 242.723941 288.496905 
L 245.178365 279.152385 
L 247.632788 287.117303 
L 250.087212 282.272781 
L 252.541635 290.065341 
L 254.996059 290.413029 
L 257.450482 288.864527 
L 259.904905 291.423892 
L 262.359329 288.621047 
L 264.813752 292.193618 
L 267.268176 290.808101 
L 269.722599 292.284562 
L 272.177023 283.779315 
L 274.631446 294.302816 
L 277.085869 291.103544 
L 279.540293 291.981127 
L 281.994716 295.089459 
L 284.44914 289.294542 
L 286.903563 295.091421 
L 289.357987 290.16072 
L 291.81241 297.196279 
L 294.266833 294.546311 
L 296.721257 293.573919 
L 299.17568 297.56944 
L 301.630104 295.579436 
L 304.084527 294.193019 
L 306.538951 297.607061 
L 308.993374 298.093658 
L 311.447797 300.431003 
L 313.902221 297.230366 
L 316.356644 297.621133 
L 318.811068 298.054067 
L 321.265491 299.204325 
L 323.719915 299.477507 
L 326.174338 301.651013 
L 328.628761 299.733608 
L 331.083185 300.119738 
L 333.537608 302.515436 
L 335.992032 302.487888 
L 338.446455 301.648034 
L 340.900879 302.452213 
L 343.355302 301.471559 
L 345.809725 301.468205 
L 348.264149 302.517382 
L 350.718572 302.905359 
L 353.172996 303.025962 
L 355.627419 302.831195 
L 358.081843 303.152358 
L 360.536266 302.746731 
L 362.990689 303.13024 
L 365.445113 303.511903 
L 367.899536 303.592841 
L 370.35396 303.397505 
L 372.808383 303.58134 
L 375.262807 303.555107 
L 377.71723 303.573424 
L 380.171653 303.561888 
L 382.626077 303.497059 
L 385.0805 303.58334 
L 387.534924 303.512482 
L 389.989347 303.586776 
L 392.443771 303.548305 
L 394.898194 303.60272 
L 397.352617 303.552299 
L 399.807041 303.642149 
L 402.261464 303.531426 
L 404.715888 303.592482 
L 407.170311 303.586768 
L 409.624735 303.597535 
L 412.079158 303.576561 
L 414.533581 303.533657 
L 416.988005 303.586701 
L 419.442428 303.605355 
L 421.896852 303.593751 
L 424.351275 303.569223 
L 426.805699 303.615236 
L 429.260122 303.600373 
L 431.714545 303.596845 
L 431.714545 303.50223 
L 431.714545 303.50223 
L 429.260122 303.228109 
L 426.805699 303.428178 
L 424.351275 303.498203 
L 421.896852 303.526692 
L 419.442428 303.433717 
L 416.988005 303.483326 
L 414.533581 303.440916 
L 412.079158 303.534306 
L 409.624735 303.41499 
L 407.170311 302.674993 
L 404.715888 303.540997 
L 402.261464 303.321178 
L 399.807041 303.507078 
L 397.352617 303.453526 
L 394.898194 303.428054 
L 392.443771 303.420912 
L 389.989347 303.192127 
L 387.534924 303.405052 
L 385.0805 303.534403 
L 382.626077 303.328282 
L 380.171653 303.440807 
L 377.71723 303.521133 
L 375.262807 303.497575 
L 372.808383 303.402048 
L 370.35396 302.721482 
L 367.899536 302.662 
L 365.445113 302.818094 
L 362.990689 301.870669 
L 360.536266 301.511525 
L 358.081843 302.278239 
L 355.627419 301.235756 
L 353.172996 302.341689 
L 350.718572 300.946659 
L 348.264149 301.668584 
L 345.809725 299.802865 
L 343.355302 298.869961 
L 340.900879 300.762238 
L 338.446455 299.374075 
L 335.992032 299.473645 
L 333.537608 301.229381 
L 331.083185 298.116541 
L 328.628761 296.273301 
L 326.174338 298.764914 
L 323.719915 297.048484 
L 321.265491 294.731902 
L 318.811068 292.766261 
L 316.356644 296.054143 
L 313.902221 295.997766 
L 311.447797 297.820087 
L 308.993374 291.653244 
L 306.538951 291.915564 
L 304.084527 287.967962 
L 301.630104 289.004865 
L 299.17568 291.456672 
L 296.721257 289.862196 
L 294.266833 292.032503 
L 291.81241 292.913134 
L 289.357987 285.836172 
L 286.903563 292.931793 
L 284.44914 280.696241 
L 281.994716 286.563726 
L 279.540293 283.378197 
L 277.085869 289.139094 
L 274.631446 287.734037 
L 272.177023 280.986802 
L 269.722599 286.970693 
L 267.268176 287.140987 
L 264.813752 290.130987 
L 262.359329 283.383997 
L 259.904905 284.708412 
L 257.450482 286.514544 
L 254.996059 285.485124 
L 252.541635 284.17683 
L 250.087212 276.337709 
L 247.632788 283.042745 
L 245.178365 274.679173 
L 242.723941 282.960847 
L 240.269518 274.30031 
L 237.815095 270.567386 
L 235.360671 272.637116 
L 232.906248 284.219206 
L 230.451824 281.112784 
L 227.997401 282.400804 
L 225.542977 284.972685 
L 223.088554 274.441201 
L 220.634131 273.456828 
L 218.179707 270.181971 
L 215.725284 274.579594 
L 213.27086 278.631392 
L 210.816437 273.286054 
L 208.362013 278.254969 
L 205.90759 280.505478 
L 203.453167 269.217092 
L 200.998743 278.296336 
L 198.54432 280.91888 
L 196.089896 274.392317 
L 193.635473 274.746028 
L 191.181049 278.031658 
L 188.726626 270.402946 
L 186.272203 273.040187 
L 183.817779 269.619676 
L 181.363356 272.177762 
L 178.908932 260.726119 
L 176.454509 267.347898 
L 174.000085 270.050644 
L 171.545662 266.28635 
L 169.091239 264.883877 
L 166.636815 266.114872 
L 164.182392 263.73115 
L 161.727968 263.74603 
L 159.273545 262.415104 
L 156.819121 261.544355 
L 154.364698 268.819545 
L 151.910275 267.976812 
L 149.455851 273.527471 
L 147.001428 257.080678 
L 144.547004 265.323204 
L 142.092581 260.181751 
L 139.638157 258.478587 
L 137.183734 259.94294 
L 134.729311 257.567415 
L 132.274887 249.524626 
L 129.820464 250.412999 
L 127.36604 249.292 
L 124.911617 248.456319 
L 122.457193 242.280133 
L 120.00277 247.50872 
L 117.548347 236.465517 
L 115.093923 230.516072 
L 112.6395 239.54822 
L 110.185076 238.998339 
L 107.730653 222.693927 
L 105.276229 236.027256 
L 102.821806 222.00814 
L 100.367383 215.87224 
L 97.912959 205.385363 
L 95.458536 199.746092 
L 93.004112 178.792018 
L 90.549689 174.178407 
L 88.095265 133.769709 
L 85.640842 135.865189 
L 83.186419 114.201141 
L 80.731995 103.249455 
L 78.277572 91.249185 
L 75.823148 63.211447 
L 73.368725 55.488607 
L 70.914301 51.706461 
L 68.459878 40.943572 
L 66.005455 32.586806 
z
" style="fill:#ff7f0e;fill-opacity:0.25;"/>
   </g>
   <g id="PolyCollection_3">
    <path clip-path="url(#pd3194deb72)" d="M 66.005455 43.439821 
L 66.005455 68.004742 
L 68.459878 94.60566 
L 70.914301 107.045897 
L 73.368725 104.551427 
L 75.823148 119.832927 
L 78.277572 137.53594 
L 80.731995 142.338676 
L 83.186419 141.807037 
L 85.640842 156.283229 
L 88.095265 150.617839 
L 90.549689 170.507128 
L 93.004112 177.695956 
L 95.458536 192.393018 
L 97.912959 192.732807 
L 100.367383 211.970048 
L 102.821806 212.218133 
L 105.276229 233.123136 
L 107.730653 218.651528 
L 110.185076 243.846131 
L 112.6395 232.826062 
L 115.093923 232.262159 
L 117.548347 239.728269 
L 120.00277 248.393669 
L 122.457193 244.591504 
L 124.911617 256.185738 
L 127.36604 253.356671 
L 129.820464 257.14219 
L 132.274887 254.164444 
L 134.729311 257.756231 
L 137.183734 261.377896 
L 139.638157 264.340574 
L 142.092581 262.410088 
L 144.547004 263.606183 
L 147.001428 262.797975 
L 149.455851 274.223608 
L 151.910275 270.140371 
L 154.364698 266.670833 
L 156.819121 267.975568 
L 159.273545 266.67269 
L 161.727968 269.864163 
L 164.182392 265.730087 
L 166.636815 270.875176 
L 169.091239 268.709075 
L 171.545662 268.491887 
L 174.000085 276.713354 
L 176.454509 270.263646 
L 178.908932 268.518664 
L 181.363356 277.517182 
L 183.817779 272.404739 
L 186.272203 276.660097 
L 188.726626 271.876295 
L 191.181049 277.14927 
L 193.635473 275.393692 
L 196.089896 281.799065 
L 198.54432 282.626766 
L 200.998743 284.709549 
L 203.453167 273.491645 
L 205.90759 282.502045 
L 208.362013 283.07109 
L 210.816437 280.819367 
L 213.27086 280.894776 
L 215.725284 274.685259 
L 218.179707 278.355634 
L 220.634131 280.431217 
L 223.088554 280.968067 
L 225.542977 290.164918 
L 227.997401 283.193207 
L 230.451824 281.689187 
L 232.906248 285.682356 
L 235.360671 275.630298 
L 237.815095 278.876873 
L 240.269518 286.612772 
L 242.723941 283.649964 
L 245.178365 280.083917 
L 247.632788 286.162973 
L 250.087212 282.066799 
L 252.541635 289.84762 
L 254.996059 288.409011 
L 257.450482 286.882087 
L 259.904905 289.945465 
L 262.359329 287.089799 
L 264.813752 293.476429 
L 267.268176 287.428656 
L 269.722599 289.981617 
L 272.177023 285.7483 
L 274.631446 292.89191 
L 277.085869 291.643318 
L 279.540293 289.990668 
L 281.994716 293.822035 
L 284.44914 284.217967 
L 286.903563 293.650738 
L 289.357987 288.974441 
L 291.81241 295.810945 
L 294.266833 291.782824 
L 296.721257 293.751914 
L 299.17568 293.021254 
L 301.630104 294.06188 
L 304.084527 295.452389 
L 306.538951 295.153327 
L 308.993374 296.884549 
L 311.447797 298.93817 
L 313.902221 295.141711 
L 316.356644 297.594675 
L 318.811068 297.812318 
L 321.265491 300.058792 
L 323.719915 299.901568 
L 326.174338 300.38989 
L 328.628761 299.144478 
L 331.083185 301.156835 
L 333.537608 301.821935 
L 335.992032 301.051777 
L 338.446455 301.673147 
L 340.900879 301.74454 
L 343.355302 301.730604 
L 345.809725 300.69443 
L 348.264149 301.464886 
L 350.718572 302.446396 
L 353.172996 301.829847 
L 355.627419 302.397062 
L 358.081843 302.969267 
L 360.536266 302.762673 
L 362.990689 303.312152 
L 365.445113 303.198452 
L 367.899536 303.450085 
L 370.35396 303.484601 
L 372.808383 303.537795 
L 375.262807 303.608014 
L 377.71723 303.638772 
L 380.171653 303.459018 
L 382.626077 303.603947 
L 385.0805 303.679747 
L 387.534924 303.657115 
L 389.989347 303.511066 
L 392.443771 303.558984 
L 394.898194 303.594523 
L 397.352617 303.552068 
L 399.807041 303.598593 
L 402.261464 303.554018 
L 404.715888 303.574193 
L 407.170311 303.6003 
L 409.624735 303.590635 
L 412.079158 303.601376 
L 414.533581 303.577252 
L 416.988005 303.581372 
L 419.442428 303.609853 
L 421.896852 303.721738 
L 424.351275 303.56288 
L 426.805699 303.557778 
L 429.260122 303.578315 
L 431.714545 303.58201 
L 431.714545 303.522752 
L 431.714545 303.522752 
L 429.260122 303.526998 
L 426.805699 303.513042 
L 424.351275 303.496479 
L 421.896852 303.156454 
L 419.442428 303.355331 
L 416.988005 303.542642 
L 414.533581 303.542926 
L 412.079158 303.384073 
L 409.624735 303.406263 
L 407.170311 302.954635 
L 404.715888 303.547209 
L 402.261464 303.525309 
L 399.807041 303.380586 
L 397.352617 303.047828 
L 394.898194 303.360963 
L 392.443771 303.472495 
L 389.989347 303.34037 
L 387.534924 302.490061 
L 385.0805 303.311421 
L 382.626077 303.08596 
L 380.171653 303.148328 
L 377.71723 302.667995 
L 375.262807 303.049009 
L 372.808383 302.296064 
L 370.35396 303.039479 
L 367.899536 303.191555 
L 365.445113 302.002181 
L 362.990689 301.879798 
L 360.536266 301.557823 
L 358.081843 302.374933 
L 355.627419 299.93668 
L 353.172996 300.272388 
L 350.718572 300.57199 
L 348.264149 298.85336 
L 345.809725 298.462231 
L 343.355302 297.891537 
L 340.900879 300.096392 
L 338.446455 299.798926 
L 335.992032 299.444198 
L 333.537608 300.166046 
L 331.083185 296.915115 
L 328.628761 294.738148 
L 326.174338 297.402772 
L 323.719915 296.263322 
L 321.265491 295.770389 
L 318.811068 295.556869 
L 316.356644 294.335754 
L 313.902221 292.215724 
L 311.447797 294.332278 
L 308.993374 293.388487 
L 306.538951 288.347674 
L 304.084527 292.929104 
L 301.630104 289.252929 
L 299.17568 289.63624 
L 296.721257 289.435945 
L 294.266833 287.751719 
L 291.81241 290.291104 
L 289.357987 283.380418 
L 286.903563 290.329849 
L 284.44914 279.509988 
L 281.994716 286.158241 
L 279.540293 282.344444 
L 277.085869 286.164716 
L 274.631446 288.916435 
L 272.177023 276.055669 
L 269.722599 286.393301 
L 267.268176 285.896659 
L 264.813752 289.770673 
L 262.359329 282.201352 
L 259.904905 285.422322 
L 257.450482 282.132598 
L 254.996059 282.586082 
L 252.541635 284.377625 
L 250.087212 272.904481 
L 247.632788 278.123558 
L 245.178365 273.251128 
L 242.723941 276.015615 
L 240.269518 275.981103 
L 237.815095 269.797725 
L 235.360671 270.369903 
L 232.906248 281.780727 
L 230.451824 274.325897 
L 227.997401 279.248329 
L 225.542977 281.1546 
L 223.088554 276.248803 
L 220.634131 274.878594 
L 218.179707 269.252591 
L 215.725284 267.466971 
L 213.27086 272.271003 
L 210.816437 267.618259 
L 208.362013 277.649579 
L 205.90759 274.472211 
L 203.453167 269.47306 
L 200.998743 277.1452 
L 198.54432 276.807484 
L 196.089896 276.032804 
L 193.635473 265.432624 
L 191.181049 271.536612 
L 188.726626 264.436271 
L 186.272203 265.932223 
L 183.817779 265.781032 
L 181.363356 264.448855 
L 178.908932 262.603089 
L 176.454509 261.704435 
L 174.000085 265.326032 
L 171.545662 265.417107 
L 169.091239 258.39544 
L 166.636815 261.002631 
L 164.182392 253.599494 
L 161.727968 253.13284 
L 159.273545 251.426894 
L 156.819121 255.416388 
L 154.364698 258.583045 
L 151.910275 257.483226 
L 149.455851 254.144757 
L 147.001428 249.399881 
L 144.547004 253.635788 
L 142.092581 246.752271 
L 139.638157 246.661138 
L 137.183734 248.055288 
L 134.729311 242.71716 
L 132.274887 231.097609 
L 129.820464 230.478298 
L 127.36604 235.742069 
L 124.911617 219.281477 
L 122.457193 215.585383 
L 120.00277 227.773178 
L 117.548347 215.618906 
L 115.093923 197.356641 
L 112.6395 210.627382 
L 110.185076 207.280688 
L 107.730653 191.941815 
L 105.276229 206.222795 
L 102.821806 184.066623 
L 100.367383 187.474334 
L 97.912959 165.25278 
L 95.458536 167.240088 
L 93.004112 151.943282 
L 90.549689 142.882609 
L 88.095265 122.103011 
L 85.640842 127.721996 
L 83.186419 119.178063 
L 80.731995 111.379286 
L 78.277572 96.321522 
L 75.823148 80.216548 
L 73.368725 59.072086 
L 70.914301 59.195591 
L 68.459878 53.310003 
L 66.005455 43.439821 
z
" style="fill:#2ca02c;fill-opacity:0.25;"/>
   </g>
   <g id="PolyCollection_4">
    <path clip-path="url(#pd3194deb72)" d="M 66.005455 35.933612 
L 66.005455 54.702563 
L 68.459878 87.088075 
L 70.914301 100.747816 
L 73.368725 101.132379 
L 75.823148 118.086983 
L 78.277572 137.136673 
L 80.731995 151.49529 
L 83.186419 152.134589 
L 85.640842 165.443689 
L 88.095265 166.089183 
L 90.549689 189.26237 
L 93.004112 195.221095 
L 95.458536 212.608684 
L 97.912959 214.137742 
L 100.367383 220.714336 
L 102.821806 227.064889 
L 105.276229 241.421779 
L 107.730653 232.021567 
L 110.185076 244.412319 
L 112.6395 239.604472 
L 115.093923 234.971812 
L 117.548347 239.001402 
L 120.00277 256.307714 
L 122.457193 248.572803 
L 124.911617 255.676819 
L 127.36604 255.073115 
L 129.820464 249.769001 
L 132.274887 254.687737 
L 134.729311 259.059327 
L 137.183734 264.841823 
L 139.638157 264.748466 
L 142.092581 262.282905 
L 144.547004 265.693574 
L 147.001428 264.663657 
L 149.455851 274.069828 
L 151.910275 272.236247 
L 154.364698 267.691819 
L 156.819121 266.062755 
L 159.273545 267.195142 
L 161.727968 269.742084 
L 164.182392 265.67303 
L 166.636815 273.554061 
L 169.091239 272.891418 
L 171.545662 271.630655 
L 174.000085 279.12666 
L 176.454509 272.523065 
L 178.908932 270.629089 
L 181.363356 278.736163 
L 183.817779 274.534098 
L 186.272203 275.717294 
L 188.726626 276.672231 
L 191.181049 277.692701 
L 193.635473 275.96882 
L 196.089896 281.739113 
L 198.54432 283.793858 
L 200.998743 284.856429 
L 203.453167 277.323865 
L 205.90759 286.309593 
L 208.362013 285.91934 
L 210.816437 276.993685 
L 213.27086 285.706489 
L 215.725284 279.091233 
L 218.179707 275.8196 
L 220.634131 281.885271 
L 223.088554 281.169591 
L 225.542977 290.042865 
L 227.997401 290.520644 
L 230.451824 283.575496 
L 232.906248 290.671092 
L 235.360671 276.882415 
L 237.815095 280.862852 
L 240.269518 283.461107 
L 242.723941 288.524505 
L 245.178365 281.328098 
L 247.632788 286.471259 
L 250.087212 283.257046 
L 252.541635 289.456697 
L 254.996059 288.309796 
L 257.450482 287.027981 
L 259.904905 290.328585 
L 262.359329 285.120455 
L 264.813752 292.889126 
L 267.268176 288.195511 
L 269.722599 289.612735 
L 272.177023 283.165316 
L 274.631446 291.589596 
L 277.085869 290.989646 
L 279.540293 291.350843 
L 281.994716 292.164905 
L 284.44914 288.321408 
L 286.903563 295.96005 
L 289.357987 289.665782 
L 291.81241 295.529221 
L 294.266833 293.574286 
L 296.721257 294.285221 
L 299.17568 294.63693 
L 301.630104 294.856081 
L 304.084527 296.753831 
L 306.538951 295.323877 
L 308.993374 296.674714 
L 311.447797 299.050789 
L 313.902221 296.933057 
L 316.356644 299.612378 
L 318.811068 295.776086 
L 321.265491 299.273496 
L 323.719915 300.759826 
L 326.174338 300.600585 
L 328.628761 299.366302 
L 331.083185 300.330346 
L 333.537608 302.218973 
L 335.992032 300.767792 
L 338.446455 301.13174 
L 340.900879 301.981522 
L 343.355302 300.680663 
L 345.809725 302.241004 
L 348.264149 302.410148 
L 350.718572 301.985085 
L 353.172996 302.571281 
L 355.627419 302.542696 
L 358.081843 303.34074 
L 360.536266 302.902942 
L 362.990689 303.538365 
L 365.445113 303.514605 
L 367.899536 303.358886 
L 370.35396 303.462287 
L 372.808383 303.569892 
L 375.262807 303.577479 
L 377.71723 303.542484 
L 380.171653 303.566812 
L 382.626077 303.63439 
L 385.0805 303.605497 
L 387.534924 303.529529 
L 389.989347 303.550954 
L 392.443771 303.570924 
L 394.898194 303.457888 
L 397.352617 303.580719 
L 399.807041 303.583711 
L 402.261464 303.524496 
L 404.715888 303.582139 
L 407.170311 303.525674 
L 409.624735 303.591844 
L 412.079158 303.596802 
L 414.533581 303.57947 
L 416.988005 303.60057 
L 419.442428 303.581421 
L 421.896852 303.570495 
L 424.351275 303.553839 
L 426.805699 303.592914 
L 429.260122 303.561349 
L 431.714545 303.585141 
L 431.714545 303.547105 
L 431.714545 303.547105 
L 429.260122 303.493316 
L 426.805699 303.528576 
L 424.351275 303.52064 
L 421.896852 303.561442 
L 419.442428 303.548333 
L 416.988005 303.523862 
L 414.533581 303.495626 
L 412.079158 303.541295 
L 409.624735 303.48636 
L 407.170311 303.112968 
L 404.715888 303.552453 
L 402.261464 303.35092 
L 399.807041 303.472354 
L 397.352617 301.729782 
L 394.898194 303.326261 
L 392.443771 303.492072 
L 389.989347 303.205227 
L 387.534924 303.042333 
L 385.0805 303.503452 
L 382.626077 303.299122 
L 380.171653 303.513397 
L 377.71723 303.405685 
L 375.262807 303.195804 
L 372.808383 303.268519 
L 370.35396 302.747064 
L 367.899536 303.070643 
L 365.445113 302.692894 
L 362.990689 301.606243 
L 360.536266 300.881194 
L 358.081843 302.533386 
L 355.627419 301.391487 
L 353.172996 301.555441 
L 350.718572 299.529657 
L 348.264149 300.344994 
L 345.809725 296.805281 
L 343.355302 299.310336 
L 340.900879 298.940085 
L 338.446455 298.783794 
L 335.992032 297.778102 
L 333.537608 300.928125 
L 331.083185 298.718408 
L 328.628761 297.149815 
L 326.174338 298.708414 
L 323.719915 298.571742 
L 321.265491 293.676759 
L 318.811068 291.47838 
L 316.356644 294.906405 
L 313.902221 294.230034 
L 311.447797 297.321452 
L 308.993374 292.883175 
L 306.538951 292.222572 
L 304.084527 293.568575 
L 301.630104 289.602681 
L 299.17568 291.284569 
L 296.721257 289.043693 
L 294.266833 287.892706 
L 291.81241 292.838167 
L 289.357987 279.721286 
L 286.903563 289.510074 
L 284.44914 284.264781 
L 281.994716 285.925238 
L 279.540293 286.451549 
L 277.085869 287.501092 
L 274.631446 288.097287 
L 272.177023 279.63732 
L 269.722599 284.71689 
L 267.268176 284.514806 
L 264.813752 289.813505 
L 262.359329 276.46911 
L 259.904905 284.641428 
L 257.450482 281.298357 
L 254.996059 285.218639 
L 252.541635 282.745823 
L 250.087212 277.384632 
L 247.632788 284.461769 
L 245.178365 274.799831 
L 242.723941 278.374359 
L 240.269518 274.34255 
L 237.815095 273.860172 
L 235.360671 271.543927 
L 232.906248 283.808051 
L 230.451824 277.156457 
L 227.997401 275.272351 
L 225.542977 284.306508 
L 223.088554 279.364885 
L 220.634131 276.950907 
L 218.179707 271.64757 
L 215.725284 275.530231 
L 213.27086 281.327788 
L 210.816437 270.597614 
L 208.362013 277.001781 
L 205.90759 280.171749 
L 203.453167 269.449316 
L 200.998743 277.878501 
L 198.54432 279.533502 
L 196.089896 273.971294 
L 193.635473 270.149867 
L 191.181049 272.900241 
L 188.726626 266.162703 
L 186.272203 268.499977 
L 183.817779 267.668912 
L 181.363356 268.561742 
L 178.908932 267.669526 
L 176.454509 267.479492 
L 174.000085 271.522704 
L 171.545662 265.765211 
L 169.091239 265.480547 
L 166.636815 263.446851 
L 164.182392 257.098286 
L 161.727968 260.014259 
L 159.273545 261.974414 
L 156.819121 261.68497 
L 154.364698 262.877 
L 151.910275 268.872178 
L 149.455851 266.056857 
L 147.001428 256.110324 
L 144.547004 262.155711 
L 142.092581 255.89567 
L 139.638157 254.400565 
L 137.183734 260.558752 
L 134.729311 245.758548 
L 132.274887 250.096285 
L 129.820464 243.324408 
L 127.36604 248.94357 
L 124.911617 245.293084 
L 122.457193 233.43935 
L 120.00277 251.274833 
L 117.548347 229.706473 
L 115.093923 223.467282 
L 112.6395 234.700453 
L 110.185076 233.052231 
L 107.730653 220.504514 
L 105.276229 226.428483 
L 102.821806 210.814073 
L 100.367383 212.018951 
L 97.912959 194.695239 
L 95.458536 195.660079 
L 93.004112 180.074723 
L 90.549689 176.44173 
L 88.095265 148.880367 
L 85.640842 153.001449 
L 83.186419 134.939986 
L 80.731995 137.791022 
L 78.277572 120.779077 
L 75.823148 100.152905 
L 73.368725 83.028696 
L 70.914301 70.594209 
L 68.459878 55.049988 
L 66.005455 35.933612 
z
" style="fill:#d62728;fill-opacity:0.25;"/>
   </g>
   <g id="PolyCollection_5">
    <path clip-path="url(#pd3194deb72)" d="M 66.005455 8.326277 
L 66.005455 50.533098 
L 68.459878 90.259517 
L 70.914301 114.545275 
L 73.368725 116.573197 
L 75.823148 132.671682 
L 78.277572 166.087361 
L 80.731995 171.491675 
L 83.186419 173.58494 
L 85.640842 187.724187 
L 88.095265 184.064112 
L 90.549689 202.568054 
L 93.004112 206.590147 
L 95.458536 219.946826 
L 97.912959 222.903574 
L 100.367383 232.835869 
L 102.821806 225.399568 
L 105.276229 242.831669 
L 107.730653 236.414637 
L 110.185076 245.34034 
L 112.6395 244.842245 
L 115.093923 229.824802 
L 117.548347 242.185592 
L 120.00277 253.242741 
L 122.457193 243.153339 
L 124.911617 252.123713 
L 127.36604 250.723722 
L 129.820464 250.270778 
L 132.274887 250.189284 
L 134.729311 255.107464 
L 137.183734 260.906606 
L 139.638157 259.528528 
L 142.092581 259.644629 
L 144.547004 261.278415 
L 147.001428 258.744696 
L 149.455851 271.215564 
L 151.910275 267.141687 
L 154.364698 267.04244 
L 156.819121 264.776304 
L 159.273545 262.985169 
L 161.727968 264.28659 
L 164.182392 262.066267 
L 166.636815 261.970961 
L 169.091239 264.526604 
L 171.545662 268.134504 
L 174.000085 271.923846 
L 176.454509 265.643281 
L 178.908932 263.866761 
L 181.363356 267.903516 
L 183.817779 272.186717 
L 186.272203 270.455239 
L 188.726626 269.802672 
L 191.181049 273.75708 
L 193.635473 265.894327 
L 196.089896 272.036782 
L 198.54432 277.703023 
L 200.998743 278.978567 
L 203.453167 269.38689 
L 205.90759 280.686356 
L 208.362013 275.778925 
L 210.816437 272.267989 
L 213.27086 278.394214 
L 215.725284 273.958338 
L 218.179707 269.639395 
L 220.634131 276.114566 
L 223.088554 274.722407 
L 225.542977 283.507014 
L 227.997401 281.202708 
L 230.451824 276.912098 
L 232.906248 283.652 
L 235.360671 272.054659 
L 237.815095 271.109024 
L 240.269518 278.997371 
L 242.723941 279.872842 
L 245.178365 272.042276 
L 247.632788 281.464175 
L 250.087212 279.547423 
L 252.541635 285.099539 
L 254.996059 282.661404 
L 257.450482 282.194789 
L 259.904905 283.448789 
L 262.359329 280.209526 
L 264.813752 290.972494 
L 267.268176 282.871237 
L 269.722599 286.699388 
L 272.177023 278.297105 
L 274.631446 292.124492 
L 277.085869 287.752535 
L 279.540293 284.673216 
L 281.994716 289.033384 
L 284.44914 276.219267 
L 286.903563 289.997136 
L 289.357987 286.704404 
L 291.81241 290.211977 
L 294.266833 287.40336 
L 296.721257 288.714933 
L 299.17568 290.016512 
L 301.630104 290.449749 
L 304.084527 292.95337 
L 306.538951 288.722121 
L 308.993374 292.855774 
L 311.447797 298.122173 
L 313.902221 294.599531 
L 316.356644 296.892321 
L 318.811068 292.337636 
L 321.265491 294.636914 
L 323.719915 297.193721 
L 326.174338 298.160515 
L 328.628761 297.771971 
L 331.083185 296.585015 
L 333.537608 299.560824 
L 335.992032 300.076764 
L 338.446455 298.947275 
L 340.900879 300.222586 
L 343.355302 300.219044 
L 345.809725 298.686497 
L 348.264149 300.900863 
L 350.718572 300.698106 
L 353.172996 300.351502 
L 355.627419 300.311816 
L 358.081843 301.748386 
L 360.536266 301.201909 
L 362.990689 301.786173 
L 365.445113 302.56632 
L 367.899536 303.035012 
L 370.35396 303.151601 
L 372.808383 303.101854 
L 375.262807 303.276837 
L 377.71723 303.276395 
L 380.171653 303.428587 
L 382.626077 303.53093 
L 385.0805 303.511119 
L 387.534924 303.257158 
L 389.989347 303.451112 
L 392.443771 303.500191 
L 394.898194 303.425417 
L 397.352617 303.502307 
L 399.807041 303.605366 
L 402.261464 303.527432 
L 404.715888 303.564546 
L 407.170311 303.306941 
L 409.624735 303.566176 
L 412.079158 303.570331 
L 414.533581 303.472549 
L 416.988005 303.609035 
L 419.442428 303.570063 
L 421.896852 303.541913 
L 424.351275 303.472218 
L 426.805699 303.624606 
L 429.260122 303.513678 
L 431.714545 303.593769 
L 431.714545 302.971238 
L 431.714545 302.971238 
L 429.260122 303.198445 
L 426.805699 303.165692 
L 424.351275 303.123402 
L 421.896852 303.401605 
L 419.442428 303.492514 
L 416.988005 303.470271 
L 414.533581 303.204332 
L 412.079158 303.338739 
L 409.624735 303.351666 
L 407.170311 302.342995 
L 404.715888 303.366763 
L 402.261464 303.217663 
L 399.807041 303.512454 
L 397.352617 302.109237 
L 394.898194 303.090507 
L 392.443771 303.009475 
L 389.989347 302.670432 
L 387.534924 302.664662 
L 385.0805 303.30296 
L 382.626077 302.787958 
L 380.171653 303.258498 
L 377.71723 302.749805 
L 375.262807 302.767347 
L 372.808383 301.931674 
L 370.35396 301.184235 
L 367.899536 301.400267 
L 365.445113 301.080287 
L 362.990689 299.526156 
L 360.536266 299.491542 
L 358.081843 299.251154 
L 355.627419 298.183298 
L 353.172996 297.544129 
L 350.718572 299.416316 
L 348.264149 297.094212 
L 345.809725 294.971146 
L 343.355302 295.911994 
L 340.900879 297.754152 
L 338.446455 295.736541 
L 335.992032 295.159281 
L 333.537608 296.374147 
L 331.083185 293.135087 
L 328.628761 291.601136 
L 326.174338 295.627604 
L 323.719915 292.0341 
L 321.265491 291.202773 
L 318.811068 287.890896 
L 316.356644 294.163569 
L 313.902221 288.354177 
L 311.447797 295.017095 
L 308.993374 288.884864 
L 306.538951 284.653975 
L 304.084527 289.602564 
L 301.630104 284.238155 
L 299.17568 283.830706 
L 296.721257 284.159007 
L 294.266833 279.808645 
L 291.81241 287.006448 
L 289.357987 277.920658 
L 286.903563 282.577769 
L 284.44914 273.499136 
L 281.994716 283.620511 
L 279.540293 277.249238 
L 277.085869 278.345139 
L 274.631446 284.137582 
L 272.177023 273.452486 
L 269.722599 281.468968 
L 267.268176 275.502281 
L 264.813752 286.638063 
L 262.359329 275.974824 
L 259.904905 278.620362 
L 257.450482 277.634414 
L 254.996059 279.193344 
L 252.541635 274.515261 
L 250.087212 267.835114 
L 247.632788 270.172572 
L 245.178365 267.226796 
L 242.723941 275.583666 
L 240.269518 272.667586 
L 237.815095 264.831158 
L 235.360671 263.411579 
L 232.906248 276.972751 
L 230.451824 272.699103 
L 227.997401 272.431373 
L 225.542977 280.452271 
L 223.088554 269.28046 
L 220.634131 270.139534 
L 218.179707 267.079408 
L 215.725284 266.529447 
L 213.27086 272.475196 
L 210.816437 265.962921 
L 208.362013 272.359666 
L 205.90759 272.631763 
L 203.453167 264.691369 
L 200.998743 276.274822 
L 198.54432 273.595193 
L 196.089896 268.67669 
L 193.635473 261.244042 
L 191.181049 267.44162 
L 188.726626 262.052565 
L 186.272203 262.844399 
L 183.817779 264.82548 
L 181.363356 264.245115 
L 178.908932 258.63373 
L 176.454509 258.572434 
L 174.000085 263.170007 
L 171.545662 259.071571 
L 169.091239 258.459114 
L 166.636815 258.069536 
L 164.182392 254.261671 
L 161.727968 256.284273 
L 159.273545 251.097178 
L 156.819121 254.564562 
L 154.364698 260.682716 
L 151.910275 260.470626 
L 149.455851 262.569302 
L 147.001428 254.559029 
L 144.547004 254.316038 
L 142.092581 249.325896 
L 139.638157 246.835306 
L 137.183734 253.751244 
L 134.729311 245.704458 
L 132.274887 243.344216 
L 129.820464 244.718407 
L 127.36604 242.245559 
L 124.911617 241.26309 
L 122.457193 234.638458 
L 120.00277 244.669096 
L 117.548347 229.794752 
L 115.093923 221.911373 
L 112.6395 232.565883 
L 110.185076 233.963563 
L 107.730653 223.513995 
L 105.276229 230.683349 
L 102.821806 218.234426 
L 100.367383 218.426363 
L 97.912959 201.998357 
L 95.458536 202.743368 
L 93.004112 180.148028 
L 90.549689 183.47049 
L 88.095265 157.265738 
L 85.640842 163.129675 
L 83.186419 146.891385 
L 80.731995 149.390887 
L 78.277572 140.170652 
L 75.823148 116.442256 
L 73.368725 102.840266 
L 70.914301 82.525125 
L 68.459878 65.464933 
L 66.005455 8.326277 
z
" style="fill:#9467bd;fill-opacity:0.25;"/>
   </g>
   <g id="matplotlib.axis_1">
    <g id="xtick_1">
     <g id="line2d_1">
      <defs>
       <path d="M 0 0 
L 0 3.5 
" id="m6798319992" style="stroke:#000000;stroke-width:0.8;"/>
      </defs>
      <g>
       <use style="stroke:#000000;stroke-width:0.8;" x="66.005455" xlink:href="#m6798319992" y="303.64"/>
      </g>
     </g>
     <g id="text_1">
      <!-- 0 -->
      <g transform="translate(62.824205 318.238437)scale(0.1 -0.1)">
       <defs>
        <path d="M 31.78125 66.40625 
Q 24.171875 66.40625 20.328125 58.90625 
Q 16.5 51.421875 16.5 36.375 
Q 16.5 21.390625 20.328125 13.890625 
Q 24.171875 6.390625 31.78125 6.390625 
Q 39.453125 6.390625 43.28125 13.890625 
Q 47.125 21.390625 47.125 36.375 
Q 47.125 51.421875 43.28125 58.90625 
Q 39.453125 66.40625 31.78125 66.40625 
z
M 31.78125 74.21875 
Q 44.046875 74.21875 50.515625 64.515625 
Q 56.984375 54.828125 56.984375 36.375 
Q 56.984375 17.96875 50.515625 8.265625 
Q 44.046875 -1.421875 31.78125 -1.421875 
Q 19.53125 -1.421875 13.0625 8.265625 
Q 6.59375 17.96875 6.59375 36.375 
Q 6.59375 54.828125 13.0625 64.515625 
Q 19.53125 74.21875 31.78125 74.21875 
z
" id="DejaVuSans-48"/>
       </defs>
       <use xlink:href="#DejaVuSans-48"/>
      </g>
     </g>
    </g>
    <g id="xtick_2">
     <g id="line2d_2">
      <g>
       <use style="stroke:#000000;stroke-width:0.8;" x="115.093923" xlink:href="#m6798319992" y="303.64"/>
      </g>
     </g>
     <g id="text_2">
      <!-- 20 -->
      <g transform="translate(108.731423 318.238437)scale(0.1 -0.1)">
       <defs>
        <path d="M 19.1875 8.296875 
L 53.609375 8.296875 
L 53.609375 0 
L 7.328125 0 
L 7.328125 8.296875 
Q 12.9375 14.109375 22.625 23.890625 
Q 32.328125 33.6875 34.8125 36.53125 
Q 39.546875 41.84375 41.421875 45.53125 
Q 43.3125 49.21875 43.3125 52.78125 
Q 43.3125 58.59375 39.234375 62.25 
Q 35.15625 65.921875 28.609375 65.921875 
Q 23.96875 65.921875 18.8125 64.3125 
Q 13.671875 62.703125 7.8125 59.421875 
L 7.8125 69.390625 
Q 13.765625 71.78125 18.9375 73 
Q 24.125 74.21875 28.421875 74.21875 
Q 39.75 74.21875 46.484375 68.546875 
Q 53.21875 62.890625 53.21875 53.421875 
Q 53.21875 48.921875 51.53125 44.890625 
Q 49.859375 40.875 45.40625 35.40625 
Q 44.1875 33.984375 37.640625 27.21875 
Q 31.109375 20.453125 19.1875 8.296875 
z
" id="DejaVuSans-50"/>
       </defs>
       <use xlink:href="#DejaVuSans-50"/>
       <use x="63.623047" xlink:href="#DejaVuSans-48"/>
      </g>
     </g>
    </g>
    <g id="xtick_3">
     <g id="line2d_3">
      <g>
       <use style="stroke:#000000;stroke-width:0.8;" x="164.182392" xlink:href="#m6798319992" y="303.64"/>
      </g>
     </g>
     <g id="text_3">
      <!-- 40 -->
      <g transform="translate(157.819892 318.238437)scale(0.1 -0.1)">
       <defs>
        <path d="M 37.796875 64.3125 
L 12.890625 25.390625 
L 37.796875 25.390625 
z
M 35.203125 72.90625 
L 47.609375 72.90625 
L 47.609375 25.390625 
L 58.015625 25.390625 
L 58.015625 17.1875 
L 47.609375 17.1875 
L 47.609375 0 
L 37.796875 0 
L 37.796875 17.1875 
L 4.890625 17.1875 
L 4.890625 26.703125 
z
" id="DejaVuSans-52"/>
       </defs>
       <use xlink:href="#DejaVuSans-52"/>
       <use x="63.623047" xlink:href="#DejaVuSans-48"/>
      </g>
     </g>
    </g>
    <g id="xtick_4">
     <g id="line2d_4">
      <g>
       <use style="stroke:#000000;stroke-width:0.8;" x="213.27086" xlink:href="#m6798319992" y="303.64"/>
      </g>
     </g>
     <g id="text_4">
      <!-- 60 -->
      <g transform="translate(206.90836 318.238437)scale(0.1 -0.1)">
       <defs>
        <path d="M 33.015625 40.375 
Q 26.375 40.375 22.484375 35.828125 
Q 18.609375 31.296875 18.609375 23.390625 
Q 18.609375 15.53125 22.484375 10.953125 
Q 26.375 6.390625 33.015625 6.390625 
Q 39.65625 6.390625 43.53125 10.953125 
Q 47.40625 15.53125 47.40625 23.390625 
Q 47.40625 31.296875 43.53125 35.828125 
Q 39.65625 40.375 33.015625 40.375 
z
M 52.59375 71.296875 
L 52.59375 62.3125 
Q 48.875 64.0625 45.09375 64.984375 
Q 41.3125 65.921875 37.59375 65.921875 
Q 27.828125 65.921875 22.671875 59.328125 
Q 17.53125 52.734375 16.796875 39.40625 
Q 19.671875 43.65625 24.015625 45.921875 
Q 28.375 48.1875 33.59375 48.1875 
Q 44.578125 48.1875 50.953125 41.515625 
Q 57.328125 34.859375 57.328125 23.390625 
Q 57.328125 12.15625 50.6875 5.359375 
Q 44.046875 -1.421875 33.015625 -1.421875 
Q 20.359375 -1.421875 13.671875 8.265625 
Q 6.984375 17.96875 6.984375 36.375 
Q 6.984375 53.65625 15.1875 63.9375 
Q 23.390625 74.21875 37.203125 74.21875 
Q 40.921875 74.21875 44.703125 73.484375 
Q 48.484375 72.75 52.59375 71.296875 
z
" id="DejaVuSans-54"/>
       </defs>
       <use xlink:href="#DejaVuSans-54"/>
       <use x="63.623047" xlink:href="#DejaVuSans-48"/>
      </g>
     </g>
    </g>
    <g id="xtick_5">
     <g id="line2d_5">
      <g>
       <use style="stroke:#000000;stroke-width:0.8;" x="262.359329" xlink:href="#m6798319992" y="303.64"/>
      </g>
     </g>
     <g id="text_5">
      <!-- 80 -->
      <g transform="translate(255.996829 318.238437)scale(0.1 -0.1)">
       <defs>
        <path d="M 31.78125 34.625 
Q 24.75 34.625 20.71875 30.859375 
Q 16.703125 27.09375 16.703125 20.515625 
Q 16.703125 13.921875 20.71875 10.15625 
Q 24.75 6.390625 31.78125 6.390625 
Q 38.8125 6.390625 42.859375 10.171875 
Q 46.921875 13.96875 46.921875 20.515625 
Q 46.921875 27.09375 42.890625 30.859375 
Q 38.875 34.625 31.78125 34.625 
z
M 21.921875 38.8125 
Q 15.578125 40.375 12.03125 44.71875 
Q 8.5 49.078125 8.5 55.328125 
Q 8.5 64.0625 14.71875 69.140625 
Q 20.953125 74.21875 31.78125 74.21875 
Q 42.671875 74.21875 48.875 69.140625 
Q 55.078125 64.0625 55.078125 55.328125 
Q 55.078125 49.078125 51.53125 44.71875 
Q 48 40.375 41.703125 38.8125 
Q 48.828125 37.15625 52.796875 32.3125 
Q 56.78125 27.484375 56.78125 20.515625 
Q 56.78125 9.90625 50.3125 4.234375 
Q 43.84375 -1.421875 31.78125 -1.421875 
Q 19.734375 -1.421875 13.25 4.234375 
Q 6.78125 9.90625 6.78125 20.515625 
Q 6.78125 27.484375 10.78125 32.3125 
Q 14.796875 37.15625 21.921875 38.8125 
z
M 18.3125 54.390625 
Q 18.3125 48.734375 21.84375 45.5625 
Q 25.390625 42.390625 31.78125 42.390625 
Q 38.140625 42.390625 41.71875 45.5625 
Q 45.3125 48.734375 45.3125 54.390625 
Q 45.3125 60.0625 41.71875 63.234375 
Q 38.140625 66.40625 31.78125 66.40625 
Q 25.390625 66.40625 21.84375 63.234375 
Q 18.3125 60.0625 18.3125 54.390625 
z
" id="DejaVuSans-56"/>
       </defs>
       <use xlink:href="#DejaVuSans-56"/>
       <use x="63.623047" xlink:href="#DejaVuSans-48"/>
      </g>
     </g>
    </g>
    <g id="xtick_6">
     <g id="line2d_6">
      <g>
       <use style="stroke:#000000;stroke-width:0.8;" x="311.447797" xlink:href="#m6798319992" y="303.64"/>
      </g>
     </g>
     <g id="text_6">
      <!-- 100 -->
      <g transform="translate(301.904047 318.238437)scale(0.1 -0.1)">
       <defs>
        <path d="M 12.40625 8.296875 
L 28.515625 8.296875 
L 28.515625 63.921875 
L 10.984375 60.40625 
L 10.984375 69.390625 
L 28.421875 72.90625 
L 38.28125 72.90625 
L 38.28125 8.296875 
L 54.390625 8.296875 
L 54.390625 0 
L 12.40625 0 
z
" id="DejaVuSans-49"/>
       </defs>
       <use xlink:href="#DejaVuSans-49"/>
       <use x="63.623047" xlink:href="#DejaVuSans-48"/>
       <use x="127.246094" xlink:href="#DejaVuSans-48"/>
      </g>
     </g>
    </g>
    <g id="xtick_7">
     <g id="line2d_7">
      <g>
       <use style="stroke:#000000;stroke-width:0.8;" x="360.536266" xlink:href="#m6798319992" y="303.64"/>
      </g>
     </g>
     <g id="text_7">
      <!-- 120 -->
      <g transform="translate(350.992516 318.238437)scale(0.1 -0.1)">
       <use xlink:href="#DejaVuSans-49"/>
       <use x="63.623047" xlink:href="#DejaVuSans-50"/>
       <use x="127.246094" xlink:href="#DejaVuSans-48"/>
      </g>
     </g>
    </g>
    <g id="xtick_8">
     <g id="line2d_8">
      <g>
       <use style="stroke:#000000;stroke-width:0.8;" x="409.624735" xlink:href="#m6798319992" y="303.64"/>
      </g>
     </g>
     <g id="text_8">
      <!-- 140 -->
      <g transform="translate(400.080985 318.238437)scale(0.1 -0.1)">
       <use xlink:href="#DejaVuSans-49"/>
       <use x="63.623047" xlink:href="#DejaVuSans-52"/>
       <use x="127.246094" xlink:href="#DejaVuSans-48"/>
      </g>
     </g>
    </g>
    <g id="text_9">
     <!-- Epochs -->
     <g transform="translate(230.944375 331.916562)scale(0.1 -0.1)">
      <defs>
       <path d="M 9.8125 72.90625 
L 55.90625 72.90625 
L 55.90625 64.59375 
L 19.671875 64.59375 
L 19.671875 43.015625 
L 54.390625 43.015625 
L 54.390625 34.71875 
L 19.671875 34.71875 
L 19.671875 8.296875 
L 56.78125 8.296875 
L 56.78125 0 
L 9.8125 0 
z
" id="DejaVuSans-69"/>
       <path d="M 18.109375 8.203125 
L 18.109375 -20.796875 
L 9.078125 -20.796875 
L 9.078125 54.6875 
L 18.109375 54.6875 
L 18.109375 46.390625 
Q 20.953125 51.265625 25.265625 53.625 
Q 29.59375 56 35.59375 56 
Q 45.5625 56 51.78125 48.09375 
Q 58.015625 40.1875 58.015625 27.296875 
Q 58.015625 14.40625 51.78125 6.484375 
Q 45.5625 -1.421875 35.59375 -1.421875 
Q 29.59375 -1.421875 25.265625 0.953125 
Q 20.953125 3.328125 18.109375 8.203125 
z
M 48.6875 27.296875 
Q 48.6875 37.203125 44.609375 42.84375 
Q 40.53125 48.484375 33.40625 48.484375 
Q 26.265625 48.484375 22.1875 42.84375 
Q 18.109375 37.203125 18.109375 27.296875 
Q 18.109375 17.390625 22.1875 11.75 
Q 26.265625 6.109375 33.40625 6.109375 
Q 40.53125 6.109375 44.609375 11.75 
Q 48.6875 17.390625 48.6875 27.296875 
z
" id="DejaVuSans-112"/>
       <path d="M 30.609375 48.390625 
Q 23.390625 48.390625 19.1875 42.75 
Q 14.984375 37.109375 14.984375 27.296875 
Q 14.984375 17.484375 19.15625 11.84375 
Q 23.34375 6.203125 30.609375 6.203125 
Q 37.796875 6.203125 41.984375 11.859375 
Q 46.1875 17.53125 46.1875 27.296875 
Q 46.1875 37.015625 41.984375 42.703125 
Q 37.796875 48.390625 30.609375 48.390625 
z
M 30.609375 56 
Q 42.328125 56 49.015625 48.375 
Q 55.71875 40.765625 55.71875 27.296875 
Q 55.71875 13.875 49.015625 6.21875 
Q 42.328125 -1.421875 30.609375 -1.421875 
Q 18.84375 -1.421875 12.171875 6.21875 
Q 5.515625 13.875 5.515625 27.296875 
Q 5.515625 40.765625 12.171875 48.375 
Q 18.84375 56 30.609375 56 
z
" id="DejaVuSans-111"/>
       <path d="M 48.78125 52.59375 
L 48.78125 44.1875 
Q 44.96875 46.296875 41.140625 47.34375 
Q 37.3125 48.390625 33.40625 48.390625 
Q 24.65625 48.390625 19.8125 42.84375 
Q 14.984375 37.3125 14.984375 27.296875 
Q 14.984375 17.28125 19.8125 11.734375 
Q 24.65625 6.203125 33.40625 6.203125 
Q 37.3125 6.203125 41.140625 7.25 
Q 44.96875 8.296875 48.78125 10.40625 
L 48.78125 2.09375 
Q 45.015625 0.34375 40.984375 -0.53125 
Q 36.96875 -1.421875 32.421875 -1.421875 
Q 20.0625 -1.421875 12.78125 6.34375 
Q 5.515625 14.109375 5.515625 27.296875 
Q 5.515625 40.671875 12.859375 48.328125 
Q 20.21875 56 33.015625 56 
Q 37.15625 56 41.109375 55.140625 
Q 45.0625 54.296875 48.78125 52.59375 
z
" id="DejaVuSans-99"/>
       <path d="M 54.890625 33.015625 
L 54.890625 0 
L 45.90625 0 
L 45.90625 32.71875 
Q 45.90625 40.484375 42.875 44.328125 
Q 39.84375 48.1875 33.796875 48.1875 
Q 26.515625 48.1875 22.3125 43.546875 
Q 18.109375 38.921875 18.109375 30.90625 
L 18.109375 0 
L 9.078125 0 
L 9.078125 75.984375 
L 18.109375 75.984375 
L 18.109375 46.1875 
Q 21.34375 51.125 25.703125 53.5625 
Q 30.078125 56 35.796875 56 
Q 45.21875 56 50.046875 50.171875 
Q 54.890625 44.34375 54.890625 33.015625 
z
" id="DejaVuSans-104"/>
       <path d="M 44.28125 53.078125 
L 44.28125 44.578125 
Q 40.484375 46.53125 36.375 47.5 
Q 32.28125 48.484375 27.875 48.484375 
Q 21.1875 48.484375 17.84375 46.4375 
Q 14.5 44.390625 14.5 40.28125 
Q 14.5 37.15625 16.890625 35.375 
Q 19.28125 33.59375 26.515625 31.984375 
L 29.59375 31.296875 
Q 39.15625 29.25 43.1875 25.515625 
Q 47.21875 21.78125 47.21875 15.09375 
Q 47.21875 7.46875 41.1875 3.015625 
Q 35.15625 -1.421875 24.609375 -1.421875 
Q 20.21875 -1.421875 15.453125 -0.5625 
Q 10.6875 0.296875 5.421875 2 
L 5.421875 11.28125 
Q 10.40625 8.6875 15.234375 7.390625 
Q 20.0625 6.109375 24.8125 6.109375 
Q 31.15625 6.109375 34.5625 8.28125 
Q 37.984375 10.453125 37.984375 14.40625 
Q 37.984375 18.0625 35.515625 20.015625 
Q 33.0625 21.96875 24.703125 23.78125 
L 21.578125 24.515625 
Q 13.234375 26.265625 9.515625 29.90625 
Q 5.8125 33.546875 5.8125 39.890625 
Q 5.8125 47.609375 11.28125 51.796875 
Q 16.75 56 26.8125 56 
Q 31.78125 56 36.171875 55.265625 
Q 40.578125 54.546875 44.28125 53.078125 
z
" id="DejaVuSans-115"/>
      </defs>
      <use xlink:href="#DejaVuSans-69"/>
      <use x="63.183594" xlink:href="#DejaVuSans-112"/>
      <use x="126.660156" xlink:href="#DejaVuSans-111"/>
      <use x="187.841797" xlink:href="#DejaVuSans-99"/>
      <use x="242.822266" xlink:href="#DejaVuSans-104"/>
      <use x="306.201172" xlink:href="#DejaVuSans-115"/>
     </g>
    </g>
   </g>
   <g id="matplotlib.axis_2">
    <g id="ytick_1">
     <g id="line2d_9">
      <defs>
       <path d="M 0 0 
L -3.5 0 
" id="m8fe9383034" style="stroke:#000000;stroke-width:0.8;"/>
      </defs>
      <g>
       <use style="stroke:#000000;stroke-width:0.8;" x="47.72" xlink:href="#m8fe9383034" y="303.64"/>
      </g>
     </g>
     <g id="text_10">
      <!-- 0.0 -->
      <g transform="translate(24.816875 307.439219)scale(0.1 -0.1)">
       <defs>
        <path d="M 10.6875 12.40625 
L 21 12.40625 
L 21 0 
L 10.6875 0 
z
" id="DejaVuSans-46"/>
       </defs>
       <use xlink:href="#DejaVuSans-48"/>
       <use x="63.623047" xlink:href="#DejaVuSans-46"/>
       <use x="95.410156" xlink:href="#DejaVuSans-48"/>
      </g>
     </g>
    </g>
    <g id="ytick_2">
     <g id="line2d_10">
      <g>
       <use style="stroke:#000000;stroke-width:0.8;" x="47.72" xlink:href="#m8fe9383034" y="245.864"/>
      </g>
     </g>
     <g id="text_11">
      <!-- 0.5 -->
      <g transform="translate(24.816875 249.663219)scale(0.1 -0.1)">
       <defs>
        <path d="M 10.796875 72.90625 
L 49.515625 72.90625 
L 49.515625 64.59375 
L 19.828125 64.59375 
L 19.828125 46.734375 
Q 21.96875 47.46875 24.109375 47.828125 
Q 26.265625 48.1875 28.421875 48.1875 
Q 40.625 48.1875 47.75 41.5 
Q 54.890625 34.8125 54.890625 23.390625 
Q 54.890625 11.625 47.5625 5.09375 
Q 40.234375 -1.421875 26.90625 -1.421875 
Q 22.3125 -1.421875 17.546875 -0.640625 
Q 12.796875 0.140625 7.71875 1.703125 
L 7.71875 11.625 
Q 12.109375 9.234375 16.796875 8.0625 
Q 21.484375 6.890625 26.703125 6.890625 
Q 35.15625 6.890625 40.078125 11.328125 
Q 45.015625 15.765625 45.015625 23.390625 
Q 45.015625 31 40.078125 35.4375 
Q 35.15625 39.890625 26.703125 39.890625 
Q 22.75 39.890625 18.8125 39.015625 
Q 14.890625 38.140625 10.796875 36.28125 
z
" id="DejaVuSans-53"/>
       </defs>
       <use xlink:href="#DejaVuSans-48"/>
       <use x="63.623047" xlink:href="#DejaVuSans-46"/>
       <use x="95.410156" xlink:href="#DejaVuSans-53"/>
      </g>
     </g>
    </g>
    <g id="ytick_3">
     <g id="line2d_11">
      <g>
       <use style="stroke:#000000;stroke-width:0.8;" x="47.72" xlink:href="#m8fe9383034" y="188.088"/>
      </g>
     </g>
     <g id="text_12">
      <!-- 1.0 -->
      <g transform="translate(24.816875 191.887219)scale(0.1 -0.1)">
       <use xlink:href="#DejaVuSans-49"/>
       <use x="63.623047" xlink:href="#DejaVuSans-46"/>
       <use x="95.410156" xlink:href="#DejaVuSans-48"/>
      </g>
     </g>
    </g>
    <g id="ytick_4">
     <g id="line2d_12">
      <g>
       <use style="stroke:#000000;stroke-width:0.8;" x="47.72" xlink:href="#m8fe9383034" y="130.312"/>
      </g>
     </g>
     <g id="text_13">
      <!-- 1.5 -->
      <g transform="translate(24.816875 134.111219)scale(0.1 -0.1)">
       <use xlink:href="#DejaVuSans-49"/>
       <use x="63.623047" xlink:href="#DejaVuSans-46"/>
       <use x="95.410156" xlink:href="#DejaVuSans-53"/>
      </g>
     </g>
    </g>
    <g id="ytick_5">
     <g id="line2d_13">
      <g>
       <use style="stroke:#000000;stroke-width:0.8;" x="47.72" xlink:href="#m8fe9383034" y="72.536"/>
      </g>
     </g>
     <g id="text_14">
      <!-- 2.0 -->
      <g transform="translate(24.816875 76.335219)scale(0.1 -0.1)">
       <use xlink:href="#DejaVuSans-50"/>
       <use x="63.623047" xlink:href="#DejaVuSans-46"/>
       <use x="95.410156" xlink:href="#DejaVuSans-48"/>
      </g>
     </g>
    </g>
    <g id="ytick_6">
     <g id="line2d_14">
      <g>
       <use style="stroke:#000000;stroke-width:0.8;" x="47.72" xlink:href="#m8fe9383034" y="14.76"/>
      </g>
     </g>
     <g id="text_15">
      <!-- 2.5 -->
      <g transform="translate(24.816875 18.559219)scale(0.1 -0.1)">
       <use xlink:href="#DejaVuSans-50"/>
       <use x="63.623047" xlink:href="#DejaVuSans-46"/>
       <use x="95.410156" xlink:href="#DejaVuSans-53"/>
      </g>
     </g>
    </g>
    <g id="text_16">
     <!-- Loss -->
     <g transform="translate(18.737188 170.167187)rotate(-90)scale(0.1 -0.1)">
      <defs>
       <path d="M 9.8125 72.90625 
L 19.671875 72.90625 
L 19.671875 8.296875 
L 55.171875 8.296875 
L 55.171875 0 
L 9.8125 0 
z
" id="DejaVuSans-76"/>
      </defs>
      <use xlink:href="#DejaVuSans-76"/>
      <use x="53.962891" xlink:href="#DejaVuSans-111"/>
      <use x="115.144531" xlink:href="#DejaVuSans-115"/>
      <use x="167.244141" xlink:href="#DejaVuSans-115"/>
     </g>
    </g>
   </g>
   <g id="line2d_15">
    <path clip-path="url(#pd3194deb72)" d="M 66.005455 44.7313 
L 68.459878 63.32795 
L 70.914301 83.211019 
L 73.368725 89.191737 
L 75.823148 106.005456 
L 78.277572 131.666125 
L 80.731995 147.2837 
L 83.186419 156.469181 
L 85.640842 169.559056 
L 88.095265 159.2 
L 90.549689 192.037531 
L 93.004112 197.375041 
L 95.458536 210.668034 
L 97.912959 212.981331 
L 100.367383 220.124341 
L 102.821806 223.4758 
L 105.276229 240.881948 
L 107.730653 228.136247 
L 110.185076 239.262641 
L 112.6395 239.302136 
L 115.093923 231.363578 
L 117.548347 236.746225 
L 120.00277 249.181606 
L 122.457193 244.18827 
L 124.911617 254.592464 
L 129.820464 253.475311 
L 132.274887 253.559944 
L 134.729311 257.018605 
L 137.183734 262.034509 
L 139.638157 257.120164 
L 142.092581 257.492548 
L 144.547004 268.472245 
L 147.001428 261.820106 
L 149.455851 277.059655 
L 151.910275 268.376328 
L 154.364698 268.596373 
L 156.819121 262.418178 
L 159.273545 264.009275 
L 161.727968 268.263484 
L 164.182392 267.750045 
L 166.636815 269.606325 
L 169.091239 269.267794 
L 171.545662 269.346784 
L 174.000085 276.100483 
L 176.454509 266.993992 
L 178.908932 264.556567 
L 181.363356 276.309244 
L 183.817779 271.062009 
L 186.272203 273.868998 
L 188.726626 271.541595 
L 191.181049 275.581402 
L 193.635473 272.263795 
L 196.089896 279.83279 
L 198.54432 279.666345 
L 200.998743 281.051502 
L 203.453167 271.355403 
L 205.90759 282.038885 
L 208.362013 280.267238 
L 210.816437 274.588377 
L 213.27086 277.629516 
L 215.725284 274.842275 
L 218.179707 277.045549 
L 220.634131 274.771748 
L 223.088554 278.13167 
L 225.542977 285.79094 
L 227.997401 282.995236 
L 230.451824 282.462049 
L 232.906248 281.607258 
L 235.360671 275.685782 
L 237.815095 273.355559 
L 240.269518 280.55499 
L 242.723941 284.168811 
L 245.178365 275.200554 
L 247.632788 283.824637 
L 250.087212 281.926041 
L 252.541635 286.789607 
L 254.996059 287.156349 
L 257.450482 286.197177 
L 259.904905 287.23534 
L 262.359329 287.31292 
L 264.813752 293.792972 
L 267.268176 288.376472 
L 269.722599 284.895243 
L 272.177023 283.240671 
L 274.631446 290.317385 
L 277.085869 288.149374 
L 279.540293 290.038096 
L 281.994716 289.816641 
L 284.44914 283.542528 
L 286.903563 294.247874 
L 289.357987 288.518937 
L 291.81241 294.427718 
L 294.266833 291.318873 
L 296.721257 291.166534 
L 299.17568 294.817029 
L 301.630104 292.103137 
L 304.084527 291.819617 
L 306.538951 291.246935 
L 308.993374 293.516505 
L 311.447797 298.749987 
L 313.902221 295.858013 
L 316.356644 296.936376 
L 321.265491 295.601999 
L 323.719915 297.81162 
L 326.174338 297.512584 
L 328.628761 298.84132 
L 331.083185 299.829408 
L 333.537608 300.419369 
L 335.992032 297.261507 
L 338.446455 299.292342 
L 340.900879 301.707727 
L 343.355302 301.171367 
L 345.809725 300.355718 
L 348.264149 300.85558 
L 350.718572 302.047669 
L 353.172996 301.017793 
L 355.627419 302.079494 
L 358.081843 302.033387 
L 360.536266 302.433718 
L 362.990689 302.282437 
L 365.445113 303.065555 
L 367.899536 303.008295 
L 370.35396 303.214566 
L 377.71723 303.399568 
L 380.171653 303.405155 
L 382.626077 303.222192 
L 385.0805 303.439757 
L 387.534924 303.298075 
L 392.443771 303.496411 
L 394.898194 303.469412 
L 397.352617 303.235239 
L 399.807041 303.498565 
L 412.079158 303.405794 
L 421.896852 303.534606 
L 424.351275 303.436727 
L 426.805699 303.515707 
L 431.714545 303.471737 
L 431.714545 303.471737 
" style="fill:none;stroke:#1f77b4;stroke-linecap:square;stroke-width:1.5;"/>
   </g>
   <g id="line2d_16">
    <path clip-path="url(#pd3194deb72)" d="M 66.005455 36.651687 
L 68.459878 55.067787 
L 70.914301 69.669769 
L 73.368725 77.5914 
L 75.823148 89.733387 
L 78.277572 113.046906 
L 80.731995 126.046506 
L 83.186419 133.607037 
L 85.640842 153.016162 
L 88.095265 151.684606 
L 90.549689 185.785987 
L 93.004112 188.979466 
L 95.458536 207.102172 
L 97.912959 211.254822 
L 100.367383 222.57305 
L 102.821806 226.612856 
L 105.276229 241.705708 
L 107.730653 226.533866 
L 110.185076 243.494281 
L 112.6395 241.417956 
L 115.093923 235.651641 
L 117.548347 239.826859 
L 120.00277 252.047837 
L 122.457193 247.302758 
L 124.911617 253.227055 
L 127.36604 252.476644 
L 129.820464 254.699666 
L 132.274887 253.458384 
L 134.729311 259.202131 
L 137.183734 261.673409 
L 139.638157 261.024558 
L 142.092581 263.095241 
L 144.547004 269.183161 
L 147.001428 260.612678 
L 149.455851 276.159726 
L 151.910275 271.019693 
L 154.364698 269.668389 
L 156.819121 264.658127 
L 159.273545 265.290052 
L 161.727968 266.661103 
L 164.182392 267.236606 
L 166.636815 268.66408 
L 169.091239 266.407205 
L 171.545662 267.913669 
L 174.000085 274.785853 
L 176.454509 269.707884 
L 178.908932 266.322572 
L 181.363356 273.815397 
L 183.817779 273.200398 
L 186.272203 275.68014 
L 188.726626 273.316063 
L 191.181049 279.674809 
L 193.635473 276.675986 
L 196.089896 278.080891 
L 198.54432 282.707484 
L 200.998743 281.89783 
L 203.453167 273.558677 
L 205.90759 283.113722 
L 208.362013 279.119053 
L 210.816437 275.437526 
L 213.27086 281.993748 
L 215.725284 277.226099 
L 218.179707 274.024158 
L 220.634131 276.320528 
L 223.088554 277.285342 
L 225.542977 286.736006 
L 227.997401 284.470668 
L 230.451824 283.697688 
L 232.906248 286.803712 
L 235.360671 275.070784 
L 237.815095 273.496613 
L 240.269518 277.561809 
L 242.723941 285.728876 
L 245.178365 276.915779 
L 247.632788 285.080024 
L 250.087212 279.305245 
L 252.541635 287.121086 
L 254.996059 287.949077 
L 257.450482 287.689536 
L 259.904905 288.066152 
L 262.359329 286.002522 
L 264.813752 291.162302 
L 267.268176 288.974544 
L 269.722599 289.627627 
L 272.177023 282.383059 
L 274.631446 291.018427 
L 277.085869 290.121319 
L 279.540293 287.679662 
L 281.994716 290.826592 
L 284.44914 284.995391 
L 286.903563 294.011607 
L 289.357987 287.998446 
L 291.81241 295.054706 
L 294.266833 293.289407 
L 296.721257 291.718058 
L 299.17568 294.513056 
L 301.630104 292.29215 
L 304.084527 291.080491 
L 306.538951 294.761313 
L 308.993374 294.873451 
L 311.447797 299.125545 
L 313.902221 296.614066 
L 316.356644 296.837638 
L 318.811068 295.410164 
L 321.265491 296.968113 
L 323.719915 298.262995 
L 326.174338 300.207963 
L 328.628761 298.003455 
L 331.083185 299.118139 
L 333.537608 301.872408 
L 335.992032 300.980767 
L 338.446455 300.511054 
L 340.900879 301.607226 
L 343.355302 300.17076 
L 345.809725 300.635535 
L 348.264149 302.092983 
L 350.718572 301.926009 
L 353.172996 302.683826 
L 355.627419 302.033475 
L 358.081843 302.715298 
L 360.536266 302.129128 
L 362.990689 302.500454 
L 365.445113 303.164998 
L 370.35396 303.059494 
L 372.808383 303.491694 
L 380.171653 303.501348 
L 382.626077 303.412671 
L 385.0805 303.558872 
L 389.989347 303.389452 
L 394.898194 303.515387 
L 404.715888 303.56674 
L 407.170311 303.130881 
L 409.624735 303.506263 
L 412.079158 303.555433 
L 414.533581 303.487286 
L 421.896852 303.560221 
L 431.714545 303.549538 
L 431.714545 303.549538 
" style="fill:none;stroke:#ff7f0e;stroke-linecap:square;stroke-width:1.5;"/>
   </g>
   <g id="line2d_17">
    <path clip-path="url(#pd3194deb72)" d="M 66.005455 55.722281 
L 68.459878 73.957831 
L 70.914301 83.120744 
L 73.368725 81.811756 
L 75.823148 100.024737 
L 78.277572 116.928731 
L 80.731995 126.858981 
L 83.186419 130.49255 
L 85.640842 142.002612 
L 88.095265 136.360425 
L 90.549689 156.694869 
L 93.004112 164.819619 
L 95.458536 179.816553 
L 97.912959 178.992794 
L 100.367383 199.722191 
L 102.821806 198.142378 
L 105.276229 219.672966 
L 107.730653 205.296672 
L 110.185076 225.563409 
L 112.6395 221.726722 
L 115.093923 214.8094 
L 117.548347 227.673587 
L 120.00277 238.083423 
L 122.457193 230.088444 
L 124.911617 237.733608 
L 127.36604 244.54937 
L 129.820464 243.810244 
L 132.274887 242.631027 
L 134.729311 250.236695 
L 137.183734 254.716592 
L 139.638157 255.500856 
L 142.092581 254.58118 
L 144.547004 258.620986 
L 147.001428 256.098928 
L 149.455851 264.184183 
L 151.910275 263.811798 
L 154.364698 262.626939 
L 156.819121 261.695978 
L 159.273545 259.049792 
L 161.727968 261.498502 
L 164.182392 259.664791 
L 166.636815 265.938903 
L 169.091239 263.552258 
L 171.545662 266.954497 
L 174.000085 271.019693 
L 176.454509 265.984041 
L 178.908932 265.560877 
L 181.363356 270.983019 
L 183.817779 269.092886 
L 186.272203 271.29616 
L 188.726626 268.156283 
L 191.181049 274.342941 
L 193.635473 270.413158 
L 196.089896 278.915934 
L 198.54432 279.717125 
L 200.998743 280.927374 
L 203.453167 271.482352 
L 205.90759 278.487128 
L 208.362013 280.360334 
L 210.816437 274.218813 
L 213.27086 276.58289 
L 215.725284 271.076115 
L 218.179707 273.804112 
L 220.634131 277.654905 
L 223.088554 278.608435 
L 225.542977 285.659759 
L 227.997401 281.220768 
L 230.451824 278.007542 
L 232.906248 283.731541 
L 235.360671 273.000101 
L 237.815095 274.337299 
L 240.269518 281.296938 
L 242.723941 279.83279 
L 245.178365 276.667523 
L 247.632788 282.143266 
L 250.087212 277.48564 
L 252.541635 287.112622 
L 254.996059 285.497546 
L 257.450482 284.507342 
L 259.904905 287.683894 
L 262.359329 284.645576 
L 264.813752 291.623551 
L 267.268176 286.662658 
L 269.722599 288.187459 
L 272.177023 280.901984 
L 274.631446 290.904172 
L 277.085869 288.904017 
L 279.540293 286.167556 
L 281.994716 289.990138 
L 284.44914 281.863977 
L 286.903563 291.990293 
L 289.357987 286.17743 
L 291.81241 293.051025 
L 294.266833 289.767271 
L 296.721257 291.59393 
L 299.17568 291.328747 
L 301.630104 291.657404 
L 304.084527 294.190746 
L 306.538951 291.7505 
L 308.993374 295.136518 
L 311.447797 296.635224 
L 313.902221 293.678718 
L 316.356644 295.965214 
L 318.811068 296.684593 
L 321.265491 297.91459 
L 323.719915 298.082445 
L 326.174338 298.896331 
L 328.628761 296.941313 
L 333.537608 300.99399 
L 335.992032 300.247987 
L 338.446455 300.736037 
L 340.900879 300.920466 
L 343.355302 299.811071 
L 345.809725 299.57833 
L 348.264149 300.159123 
L 350.718572 301.509193 
L 353.172996 301.051118 
L 355.627419 301.166871 
L 358.081843 302.6721 
L 360.536266 302.160248 
L 362.990689 302.595975 
L 365.445113 302.600317 
L 367.899536 303.32082 
L 370.35396 303.26204 
L 372.808383 302.916929 
L 375.262807 303.328512 
L 377.71723 303.153383 
L 385.0805 303.495584 
L 387.534924 303.073588 
L 389.989347 303.425718 
L 392.443771 303.51574 
L 394.898194 303.477743 
L 397.352617 303.299948 
L 399.807041 303.489589 
L 404.715888 303.560701 
L 407.170311 303.277467 
L 409.624735 303.498449 
L 431.714545 303.552381 
L 431.714545 303.552381 
" style="fill:none;stroke:#2ca02c;stroke-linecap:square;stroke-width:1.5;"/>
   </g>
   <g id="line2d_18">
    <path clip-path="url(#pd3194deb72)" d="M 66.005455 45.318087 
L 68.459878 71.069031 
L 70.914301 85.671012 
L 73.368725 92.080537 
L 75.823148 109.119944 
L 78.277572 128.957875 
L 80.731995 144.643156 
L 83.186419 143.537287 
L 85.640842 159.222569 
L 88.095265 157.484775 
L 90.549689 182.85205 
L 93.004112 187.647909 
L 95.458536 204.134381 
L 97.912959 204.416491 
L 100.367383 216.366644 
L 102.821806 218.939481 
L 105.276229 233.925131 
L 107.730653 226.263041 
L 110.185076 238.732275 
L 112.6395 237.152462 
L 115.093923 229.219547 
L 117.548347 234.353937 
L 120.00277 253.791273 
L 122.457193 241.006077 
L 124.911617 250.484952 
L 127.36604 252.008342 
L 129.820464 246.546705 
L 132.274887 252.392011 
L 134.729311 252.408937 
L 137.183734 262.700288 
L 139.638157 259.574516 
L 142.092581 259.089287 
L 144.547004 263.924642 
L 147.001428 260.386991 
L 149.455851 270.063342 
L 151.910275 270.554213 
L 154.364698 265.284409 
L 156.819121 263.873862 
L 159.273545 264.584778 
L 161.727968 264.878172 
L 164.182392 261.385658 
L 166.636815 268.500456 
L 169.091239 269.185982 
L 171.545662 268.697933 
L 174.000085 275.324682 
L 176.454509 270.001278 
L 178.908932 269.149308 
L 181.363356 273.648952 
L 183.817779 271.101505 
L 186.272203 272.108635 
L 188.726626 271.417467 
L 191.181049 275.296471 
L 193.635473 273.059344 
L 196.089896 277.855203 
L 198.54432 281.66368 
L 200.998743 281.367465 
L 203.453167 273.386591 
L 205.90759 283.240671 
L 208.362013 281.460561 
L 210.816437 273.795649 
L 213.27086 283.517138 
L 215.725284 277.310732 
L 218.179707 273.733585 
L 220.634131 279.418089 
L 223.088554 280.267238 
L 225.542977 287.174686 
L 227.997401 282.896498 
L 230.451824 280.365977 
L 232.906248 287.239571 
L 235.360671 274.213171 
L 237.815095 277.361512 
L 240.269518 278.901829 
L 242.723941 283.449432 
L 245.178365 278.063964 
L 247.632788 285.466514 
L 250.087212 280.320839 
L 252.541635 286.10126 
L 254.996059 286.764217 
L 257.450482 284.163169 
L 259.904905 287.485007 
L 262.359329 280.794783 
L 264.813752 291.351316 
L 267.268176 286.355159 
L 269.722599 287.164812 
L 272.177023 281.401318 
L 274.631446 289.843441 
L 277.085869 289.245369 
L 279.540293 288.901196 
L 281.994716 289.045071 
L 284.44914 286.293095 
L 286.903563 292.735062 
L 289.357987 284.693534 
L 291.81241 294.183694 
L 294.266833 290.733496 
L 296.721257 291.664457 
L 299.17568 292.96075 
L 301.630104 292.229381 
L 304.084527 295.161203 
L 306.538951 293.773225 
L 308.993374 294.778945 
L 311.447797 298.186121 
L 313.902221 295.581546 
L 316.356644 297.259391 
L 318.811068 293.627233 
L 321.265491 296.475127 
L 323.719915 299.665784 
L 326.174338 299.6545 
L 328.628761 298.258058 
L 331.083185 299.524377 
L 333.537608 301.573549 
L 335.992032 299.272947 
L 338.446455 299.957767 
L 340.900879 300.460804 
L 345.809725 299.523143 
L 348.264149 301.377571 
L 350.718572 300.757371 
L 353.172996 302.063361 
L 355.627419 301.967091 
L 358.081843 302.937063 
L 360.536266 301.892068 
L 362.990689 302.572304 
L 365.445113 303.10375 
L 367.899536 303.214764 
L 370.35396 303.104675 
L 372.808383 303.419205 
L 375.262807 303.386642 
L 380.171653 303.540105 
L 382.626077 303.466756 
L 385.0805 303.554475 
L 387.534924 303.285931 
L 392.443771 303.531498 
L 394.898194 303.392074 
L 397.352617 302.655251 
L 399.807041 303.528032 
L 402.261464 303.437708 
L 404.715888 303.567296 
L 407.170311 303.319321 
L 409.624735 303.539102 
L 419.442428 303.564877 
L 431.714545 303.566123 
L 431.714545 303.566123 
" style="fill:none;stroke:#d62728;stroke-linecap:square;stroke-width:1.5;"/>
   </g>
   <g id="line2d_19">
    <path clip-path="url(#pd3194deb72)" d="M 66.005455 29.429687 
L 68.459878 77.862225 
L 70.914301 98.5352 
L 73.368725 109.706731 
L 75.823148 124.556969 
L 78.277572 153.129006 
L 80.731995 160.441281 
L 83.186419 160.238162 
L 85.640842 175.426931 
L 88.095265 170.664925 
L 90.549689 193.019272 
L 93.004112 193.369087 
L 95.458536 211.345097 
L 97.912959 212.450966 
L 100.367383 225.631116 
L 102.821806 221.816997 
L 105.276229 236.757509 
L 107.730653 229.964316 
L 110.185076 239.651952 
L 112.6395 238.704064 
L 115.093923 225.868087 
L 117.548347 235.990172 
L 120.00277 248.955919 
L 122.457193 238.895898 
L 124.911617 246.693402 
L 127.36604 246.484641 
L 129.820464 247.494592 
L 132.274887 246.76675 
L 134.729311 250.405961 
L 137.183734 257.328925 
L 139.638157 253.181917 
L 142.092581 254.485262 
L 144.547004 257.797227 
L 147.001428 256.651862 
L 149.455851 266.892433 
L 151.910275 263.806156 
L 154.364698 263.862578 
L 156.819121 259.670433 
L 159.273545 257.041173 
L 161.727968 260.285431 
L 164.182392 258.163969 
L 166.636815 260.020248 
L 169.091239 261.492859 
L 171.545662 263.603037 
L 174.000085 267.546927 
L 176.454509 262.107858 
L 178.908932 261.250245 
L 181.363356 266.074316 
L 183.817779 268.506098 
L 186.272203 266.649819 
L 188.726626 265.927619 
L 191.181049 270.59935 
L 193.635473 263.569184 
L 196.089896 270.356736 
L 198.54432 275.649108 
L 200.998743 277.626695 
L 203.453167 267.03913 
L 205.90759 276.659059 
L 208.362013 274.069295 
L 210.816437 269.115455 
L 213.27086 275.434705 
L 215.725284 270.243892 
L 218.179707 268.359402 
L 220.634131 273.12705 
L 223.088554 272.001434 
L 225.542977 281.979642 
L 227.997401 276.817041 
L 230.451824 274.805601 
L 232.906248 280.312376 
L 235.360671 267.733119 
L 237.815095 267.970091 
L 240.269518 275.832479 
L 242.723941 277.728254 
L 245.178365 269.634536 
L 247.632788 275.818373 
L 250.087212 273.691269 
L 252.541635 279.8074 
L 254.996059 280.927374 
L 257.450482 279.914602 
L 259.904905 281.034576 
L 262.359329 278.092175 
L 264.813752 288.805279 
L 267.268176 279.186759 
L 269.722599 284.084178 
L 272.177023 275.874795 
L 274.631446 288.131037 
L 277.085869 283.048837 
L 279.540293 280.961227 
L 281.994716 286.326948 
L 284.44914 274.859202 
L 286.903563 286.287452 
L 289.357987 282.312531 
L 291.81241 288.609213 
L 294.266833 283.606003 
L 296.721257 286.43697 
L 301.630104 287.343952 
L 304.084527 291.277967 
L 306.538951 286.688048 
L 308.993374 290.870319 
L 311.447797 296.569634 
L 313.902221 291.476854 
L 316.356644 295.527945 
L 318.811068 290.114266 
L 321.265491 292.919844 
L 323.719915 294.613911 
L 326.174338 296.89406 
L 328.628761 294.686554 
L 331.083185 294.860051 
L 333.537608 297.967486 
L 338.446455 297.341908 
L 340.900879 298.988369 
L 343.355302 298.065519 
L 345.809725 296.828822 
L 348.264149 298.997538 
L 350.718572 300.057211 
L 353.172996 298.947816 
L 355.627419 299.247557 
L 358.081843 300.49977 
L 360.536266 300.346726 
L 362.990689 300.656164 
L 365.445113 301.823304 
L 367.899536 302.21764 
L 370.35396 302.167918 
L 372.808383 302.516764 
L 375.262807 303.022092 
L 377.71723 303.0131 
L 380.171653 303.343543 
L 382.626077 303.159444 
L 385.0805 303.407039 
L 387.534924 302.96091 
L 394.898194 303.257962 
L 397.352617 302.805772 
L 399.807041 303.55891 
L 402.261464 303.372547 
L 404.715888 303.465654 
L 407.170311 302.824968 
L 409.624735 303.458921 
L 412.079158 303.454535 
L 414.533581 303.338441 
L 416.988005 303.539653 
L 421.896852 303.471759 
L 424.351275 303.29781 
L 426.805699 303.395149 
L 431.714545 303.282504 
L 431.714545 303.282504 
" style="fill:none;stroke:#9467bd;stroke-linecap:square;stroke-width:1.5;"/>
   </g>
   <g id="patch_3">
    <path d="M 47.72 303.64 
L 47.72 14.76 
" style="fill:none;stroke:#000000;stroke-linecap:square;stroke-linejoin:miter;stroke-width:0.8;"/>
   </g>
   <g id="patch_4">
    <path d="M 450 303.64 
L 450 14.76 
" style="fill:none;stroke:#000000;stroke-linecap:square;stroke-linejoin:miter;stroke-width:0.8;"/>
   </g>
   <g id="patch_5">
    <path d="M 47.72 303.64 
L 450 303.64 
" style="fill:none;stroke:#000000;stroke-linecap:square;stroke-linejoin:miter;stroke-width:0.8;"/>
   </g>
   <g id="patch_6">
    <path d="M 47.72 14.76 
L 450 14.76 
" style="fill:none;stroke:#000000;stroke-linecap:square;stroke-linejoin:miter;stroke-width:0.8;"/>
   </g>
   <g id="legend_1">
    <g id="patch_7">
     <path d="M 291.78125 96.150625 
L 443 96.150625 
Q 445 96.150625 445 94.150625 
L 445 21.76 
Q 445 19.76 443 19.76 
L 291.78125 19.76 
Q 289.78125 19.76 289.78125 21.76 
L 289.78125 94.150625 
Q 289.78125 96.150625 291.78125 96.150625 
z
" style="fill:#ffffff;opacity:0.8;stroke:#cccccc;stroke-linejoin:miter;"/>
    </g>
    <g id="line2d_20">
     <path d="M 293.78125 27.858437 
L 313.78125 27.858437 
" style="fill:none;stroke:#1f77b4;stroke-linecap:square;stroke-width:1.5;"/>
    </g>
    <g id="line2d_21"/>
    <g id="text_17">
     <!-- AllReduce SGD -->
     <g transform="translate(321.78125 31.358437)scale(0.1 -0.1)">
      <defs>
       <path d="M 34.1875 63.1875 
L 20.796875 26.90625 
L 47.609375 26.90625 
z
M 28.609375 72.90625 
L 39.796875 72.90625 
L 67.578125 0 
L 57.328125 0 
L 50.6875 18.703125 
L 17.828125 18.703125 
L 11.1875 0 
L 0.78125 0 
z
" id="DejaVuSans-65"/>
       <path d="M 9.421875 75.984375 
L 18.40625 75.984375 
L 18.40625 0 
L 9.421875 0 
z
" id="DejaVuSans-108"/>
       <path d="M 44.390625 34.1875 
Q 47.5625 33.109375 50.5625 29.59375 
Q 53.5625 26.078125 56.59375 19.921875 
L 66.609375 0 
L 56 0 
L 46.6875 18.703125 
Q 43.0625 26.03125 39.671875 28.421875 
Q 36.28125 30.8125 30.421875 30.8125 
L 19.671875 30.8125 
L 19.671875 0 
L 9.8125 0 
L 9.8125 72.90625 
L 32.078125 72.90625 
Q 44.578125 72.90625 50.734375 67.671875 
Q 56.890625 62.453125 56.890625 51.90625 
Q 56.890625 45.015625 53.6875 40.46875 
Q 50.484375 35.9375 44.390625 34.1875 
z
M 19.671875 64.796875 
L 19.671875 38.921875 
L 32.078125 38.921875 
Q 39.203125 38.921875 42.84375 42.21875 
Q 46.484375 45.515625 46.484375 51.90625 
Q 46.484375 58.296875 42.84375 61.546875 
Q 39.203125 64.796875 32.078125 64.796875 
z
" id="DejaVuSans-82"/>
       <path d="M 56.203125 29.59375 
L 56.203125 25.203125 
L 14.890625 25.203125 
Q 15.484375 15.921875 20.484375 11.0625 
Q 25.484375 6.203125 34.421875 6.203125 
Q 39.59375 6.203125 44.453125 7.46875 
Q 49.3125 8.734375 54.109375 11.28125 
L 54.109375 2.78125 
Q 49.265625 0.734375 44.1875 -0.34375 
Q 39.109375 -1.421875 33.890625 -1.421875 
Q 20.796875 -1.421875 13.15625 6.1875 
Q 5.515625 13.8125 5.515625 26.8125 
Q 5.515625 40.234375 12.765625 48.109375 
Q 20.015625 56 32.328125 56 
Q 43.359375 56 49.78125 48.890625 
Q 56.203125 41.796875 56.203125 29.59375 
z
M 47.21875 32.234375 
Q 47.125 39.59375 43.09375 43.984375 
Q 39.0625 48.390625 32.421875 48.390625 
Q 24.90625 48.390625 20.390625 44.140625 
Q 15.875 39.890625 15.1875 32.171875 
z
" id="DejaVuSans-101"/>
       <path d="M 45.40625 46.390625 
L 45.40625 75.984375 
L 54.390625 75.984375 
L 54.390625 0 
L 45.40625 0 
L 45.40625 8.203125 
Q 42.578125 3.328125 38.25 0.953125 
Q 33.9375 -1.421875 27.875 -1.421875 
Q 17.96875 -1.421875 11.734375 6.484375 
Q 5.515625 14.40625 5.515625 27.296875 
Q 5.515625 40.1875 11.734375 48.09375 
Q 17.96875 56 27.875 56 
Q 33.9375 56 38.25 53.625 
Q 42.578125 51.265625 45.40625 46.390625 
z
M 14.796875 27.296875 
Q 14.796875 17.390625 18.875 11.75 
Q 22.953125 6.109375 30.078125 6.109375 
Q 37.203125 6.109375 41.296875 11.75 
Q 45.40625 17.390625 45.40625 27.296875 
Q 45.40625 37.203125 41.296875 42.84375 
Q 37.203125 48.484375 30.078125 48.484375 
Q 22.953125 48.484375 18.875 42.84375 
Q 14.796875 37.203125 14.796875 27.296875 
z
" id="DejaVuSans-100"/>
       <path d="M 8.5 21.578125 
L 8.5 54.6875 
L 17.484375 54.6875 
L 17.484375 21.921875 
Q 17.484375 14.15625 20.5 10.265625 
Q 23.53125 6.390625 29.59375 6.390625 
Q 36.859375 6.390625 41.078125 11.03125 
Q 45.3125 15.671875 45.3125 23.6875 
L 45.3125 54.6875 
L 54.296875 54.6875 
L 54.296875 0 
L 45.3125 0 
L 45.3125 8.40625 
Q 42.046875 3.421875 37.71875 1 
Q 33.40625 -1.421875 27.6875 -1.421875 
Q 18.265625 -1.421875 13.375 4.4375 
Q 8.5 10.296875 8.5 21.578125 
z
M 31.109375 56 
z
" id="DejaVuSans-117"/>
       <path id="DejaVuSans-32"/>
       <path d="M 53.515625 70.515625 
L 53.515625 60.890625 
Q 47.90625 63.578125 42.921875 64.890625 
Q 37.9375 66.21875 33.296875 66.21875 
Q 25.25 66.21875 20.875 63.09375 
Q 16.5 59.96875 16.5 54.203125 
Q 16.5 49.359375 19.40625 46.890625 
Q 22.3125 44.4375 30.421875 42.921875 
L 36.375 41.703125 
Q 47.40625 39.59375 52.65625 34.296875 
Q 57.90625 29 57.90625 20.125 
Q 57.90625 9.515625 50.796875 4.046875 
Q 43.703125 -1.421875 29.984375 -1.421875 
Q 24.8125 -1.421875 18.96875 -0.25 
Q 13.140625 0.921875 6.890625 3.21875 
L 6.890625 13.375 
Q 12.890625 10.015625 18.65625 8.296875 
Q 24.421875 6.59375 29.984375 6.59375 
Q 38.421875 6.59375 43.015625 9.90625 
Q 47.609375 13.234375 47.609375 19.390625 
Q 47.609375 24.75 44.3125 27.78125 
Q 41.015625 30.8125 33.5 32.328125 
L 27.484375 33.5 
Q 16.453125 35.6875 11.515625 40.375 
Q 6.59375 45.0625 6.59375 53.421875 
Q 6.59375 63.09375 13.40625 68.65625 
Q 20.21875 74.21875 32.171875 74.21875 
Q 37.3125 74.21875 42.625 73.28125 
Q 47.953125 72.359375 53.515625 70.515625 
z
" id="DejaVuSans-83"/>
       <path d="M 59.515625 10.40625 
L 59.515625 29.984375 
L 43.40625 29.984375 
L 43.40625 38.09375 
L 69.28125 38.09375 
L 69.28125 6.78125 
Q 63.578125 2.734375 56.6875 0.65625 
Q 49.8125 -1.421875 42 -1.421875 
Q 24.90625 -1.421875 15.25 8.5625 
Q 5.609375 18.5625 5.609375 36.375 
Q 5.609375 54.25 15.25 64.234375 
Q 24.90625 74.21875 42 74.21875 
Q 49.125 74.21875 55.546875 72.453125 
Q 61.96875 70.703125 67.390625 67.28125 
L 67.390625 56.78125 
Q 61.921875 61.421875 55.765625 63.765625 
Q 49.609375 66.109375 42.828125 66.109375 
Q 29.4375 66.109375 22.71875 58.640625 
Q 16.015625 51.171875 16.015625 36.375 
Q 16.015625 21.625 22.71875 14.15625 
Q 29.4375 6.6875 42.828125 6.6875 
Q 48.046875 6.6875 52.140625 7.59375 
Q 56.25 8.5 59.515625 10.40625 
z
" id="DejaVuSans-71"/>
       <path d="M 19.671875 64.796875 
L 19.671875 8.109375 
L 31.59375 8.109375 
Q 46.6875 8.109375 53.6875 14.9375 
Q 60.6875 21.78125 60.6875 36.53125 
Q 60.6875 51.171875 53.6875 57.984375 
Q 46.6875 64.796875 31.59375 64.796875 
z
M 9.8125 72.90625 
L 30.078125 72.90625 
Q 51.265625 72.90625 61.171875 64.09375 
Q 71.09375 55.28125 71.09375 36.53125 
Q 71.09375 17.671875 61.125 8.828125 
Q 51.171875 0 30.078125 0 
L 9.8125 0 
z
" id="DejaVuSans-68"/>
      </defs>
      <use xlink:href="#DejaVuSans-65"/>
      <use x="68.408203" xlink:href="#DejaVuSans-108"/>
      <use x="96.191406" xlink:href="#DejaVuSans-108"/>
      <use x="123.974609" xlink:href="#DejaVuSans-82"/>
      <use x="188.957031" xlink:href="#DejaVuSans-101"/>
      <use x="250.480469" xlink:href="#DejaVuSans-100"/>
      <use x="313.957031" xlink:href="#DejaVuSans-117"/>
      <use x="377.335938" xlink:href="#DejaVuSans-99"/>
      <use x="432.316406" xlink:href="#DejaVuSans-101"/>
      <use x="493.839844" xlink:href="#DejaVuSans-32"/>
      <use x="525.626953" xlink:href="#DejaVuSans-83"/>
      <use x="589.103516" xlink:href="#DejaVuSans-71"/>
      <use x="666.59375" xlink:href="#DejaVuSans-68"/>
     </g>
    </g>
    <g id="line2d_22">
     <path d="M 293.78125 42.536563 
L 313.78125 42.536563 
" style="fill:none;stroke:#ff7f0e;stroke-linecap:square;stroke-width:1.5;"/>
    </g>
    <g id="line2d_23"/>
    <g id="text_18">
     <!-- QSGD-MN-TS (8,12) bits -->
     <g transform="translate(321.78125 46.036563)scale(0.1 -0.1)">
      <defs>
       <path d="M 39.40625 66.21875 
Q 28.65625 66.21875 22.328125 58.203125 
Q 16.015625 50.203125 16.015625 36.375 
Q 16.015625 22.609375 22.328125 14.59375 
Q 28.65625 6.59375 39.40625 6.59375 
Q 50.140625 6.59375 56.421875 14.59375 
Q 62.703125 22.609375 62.703125 36.375 
Q 62.703125 50.203125 56.421875 58.203125 
Q 50.140625 66.21875 39.40625 66.21875 
z
M 53.21875 1.3125 
L 66.21875 -12.890625 
L 54.296875 -12.890625 
L 43.5 -1.21875 
Q 41.890625 -1.3125 41.03125 -1.359375 
Q 40.1875 -1.421875 39.40625 -1.421875 
Q 24.03125 -1.421875 14.8125 8.859375 
Q 5.609375 19.140625 5.609375 36.375 
Q 5.609375 53.65625 14.8125 63.9375 
Q 24.03125 74.21875 39.40625 74.21875 
Q 54.734375 74.21875 63.90625 63.9375 
Q 73.09375 53.65625 73.09375 36.375 
Q 73.09375 23.6875 67.984375 14.640625 
Q 62.890625 5.609375 53.21875 1.3125 
z
" id="DejaVuSans-81"/>
       <path d="M 4.890625 31.390625 
L 31.203125 31.390625 
L 31.203125 23.390625 
L 4.890625 23.390625 
z
" id="DejaVuSans-45"/>
       <path d="M 9.8125 72.90625 
L 24.515625 72.90625 
L 43.109375 23.296875 
L 61.8125 72.90625 
L 76.515625 72.90625 
L 76.515625 0 
L 66.890625 0 
L 66.890625 64.015625 
L 48.09375 14.015625 
L 38.1875 14.015625 
L 19.390625 64.015625 
L 19.390625 0 
L 9.8125 0 
z
" id="DejaVuSans-77"/>
       <path d="M 9.8125 72.90625 
L 23.09375 72.90625 
L 55.421875 11.921875 
L 55.421875 72.90625 
L 64.984375 72.90625 
L 64.984375 0 
L 51.703125 0 
L 19.390625 60.984375 
L 19.390625 0 
L 9.8125 0 
z
" id="DejaVuSans-78"/>
       <path d="M -0.296875 72.90625 
L 61.375 72.90625 
L 61.375 64.59375 
L 35.5 64.59375 
L 35.5 0 
L 25.59375 0 
L 25.59375 64.59375 
L -0.296875 64.59375 
z
" id="DejaVuSans-84"/>
       <path d="M 31 75.875 
Q 24.46875 64.65625 21.28125 53.65625 
Q 18.109375 42.671875 18.109375 31.390625 
Q 18.109375 20.125 21.3125 9.0625 
Q 24.515625 -2 31 -13.1875 
L 23.1875 -13.1875 
Q 15.875 -1.703125 12.234375 9.375 
Q 8.59375 20.453125 8.59375 31.390625 
Q 8.59375 42.28125 12.203125 53.3125 
Q 15.828125 64.359375 23.1875 75.875 
z
" id="DejaVuSans-40"/>
       <path d="M 11.71875 12.40625 
L 22.015625 12.40625 
L 22.015625 4 
L 14.015625 -11.625 
L 7.71875 -11.625 
L 11.71875 4 
z
" id="DejaVuSans-44"/>
       <path d="M 8.015625 75.875 
L 15.828125 75.875 
Q 23.140625 64.359375 26.78125 53.3125 
Q 30.421875 42.28125 30.421875 31.390625 
Q 30.421875 20.453125 26.78125 9.375 
Q 23.140625 -1.703125 15.828125 -13.1875 
L 8.015625 -13.1875 
Q 14.5 -2 17.703125 9.0625 
Q 20.90625 20.125 20.90625 31.390625 
Q 20.90625 42.671875 17.703125 53.65625 
Q 14.5 64.65625 8.015625 75.875 
z
" id="DejaVuSans-41"/>
       <path d="M 48.6875 27.296875 
Q 48.6875 37.203125 44.609375 42.84375 
Q 40.53125 48.484375 33.40625 48.484375 
Q 26.265625 48.484375 22.1875 42.84375 
Q 18.109375 37.203125 18.109375 27.296875 
Q 18.109375 17.390625 22.1875 11.75 
Q 26.265625 6.109375 33.40625 6.109375 
Q 40.53125 6.109375 44.609375 11.75 
Q 48.6875 17.390625 48.6875 27.296875 
z
M 18.109375 46.390625 
Q 20.953125 51.265625 25.265625 53.625 
Q 29.59375 56 35.59375 56 
Q 45.5625 56 51.78125 48.09375 
Q 58.015625 40.1875 58.015625 27.296875 
Q 58.015625 14.40625 51.78125 6.484375 
Q 45.5625 -1.421875 35.59375 -1.421875 
Q 29.59375 -1.421875 25.265625 0.953125 
Q 20.953125 3.328125 18.109375 8.203125 
L 18.109375 0 
L 9.078125 0 
L 9.078125 75.984375 
L 18.109375 75.984375 
z
" id="DejaVuSans-98"/>
       <path d="M 9.421875 54.6875 
L 18.40625 54.6875 
L 18.40625 0 
L 9.421875 0 
z
M 9.421875 75.984375 
L 18.40625 75.984375 
L 18.40625 64.59375 
L 9.421875 64.59375 
z
" id="DejaVuSans-105"/>
       <path d="M 18.3125 70.21875 
L 18.3125 54.6875 
L 36.8125 54.6875 
L 36.8125 47.703125 
L 18.3125 47.703125 
L 18.3125 18.015625 
Q 18.3125 11.328125 20.140625 9.421875 
Q 21.96875 7.515625 27.59375 7.515625 
L 36.8125 7.515625 
L 36.8125 0 
L 27.59375 0 
Q 17.1875 0 13.234375 3.875 
Q 9.28125 7.765625 9.28125 18.015625 
L 9.28125 47.703125 
L 2.6875 47.703125 
L 2.6875 54.6875 
L 9.28125 54.6875 
L 9.28125 70.21875 
z
" id="DejaVuSans-116"/>
      </defs>
      <use xlink:href="#DejaVuSans-81"/>
      <use x="78.710938" xlink:href="#DejaVuSans-83"/>
      <use x="142.1875" xlink:href="#DejaVuSans-71"/>
      <use x="219.677734" xlink:href="#DejaVuSans-68"/>
      <use x="296.679688" xlink:href="#DejaVuSans-45"/>
      <use x="332.763672" xlink:href="#DejaVuSans-77"/>
      <use x="419.042969" xlink:href="#DejaVuSans-78"/>
      <use x="493.847656" xlink:href="#DejaVuSans-45"/>
      <use x="520.806641" xlink:href="#DejaVuSans-84"/>
      <use x="581.890625" xlink:href="#DejaVuSans-83"/>
      <use x="645.367188" xlink:href="#DejaVuSans-32"/>
      <use x="677.154297" xlink:href="#DejaVuSans-40"/>
      <use x="716.167969" xlink:href="#DejaVuSans-56"/>
      <use x="779.791016" xlink:href="#DejaVuSans-44"/>
      <use x="811.578125" xlink:href="#DejaVuSans-49"/>
      <use x="875.201172" xlink:href="#DejaVuSans-50"/>
      <use x="938.824219" xlink:href="#DejaVuSans-41"/>
      <use x="977.837891" xlink:href="#DejaVuSans-32"/>
      <use x="1009.625" xlink:href="#DejaVuSans-98"/>
      <use x="1073.101562" xlink:href="#DejaVuSans-105"/>
      <use x="1100.884766" xlink:href="#DejaVuSans-116"/>
      <use x="1140.09375" xlink:href="#DejaVuSans-115"/>
     </g>
    </g>
    <g id="line2d_24">
     <path d="M 293.78125 57.214687 
L 313.78125 57.214687 
" style="fill:none;stroke:#2ca02c;stroke-linecap:square;stroke-width:1.5;"/>
    </g>
    <g id="line2d_25"/>
    <g id="text_19">
     <!-- QSGD-MN-TS (6,10) bits -->
     <g transform="translate(321.78125 60.714687)scale(0.1 -0.1)">
      <use xlink:href="#DejaVuSans-81"/>
      <use x="78.710938" xlink:href="#DejaVuSans-83"/>
      <use x="142.1875" xlink:href="#DejaVuSans-71"/>
      <use x="219.677734" xlink:href="#DejaVuSans-68"/>
      <use x="296.679688" xlink:href="#DejaVuSans-45"/>
      <use x="332.763672" xlink:href="#DejaVuSans-77"/>
      <use x="419.042969" xlink:href="#DejaVuSans-78"/>
      <use x="493.847656" xlink:href="#DejaVuSans-45"/>
      <use x="520.806641" xlink:href="#DejaVuSans-84"/>
      <use x="581.890625" xlink:href="#DejaVuSans-83"/>
      <use x="645.367188" xlink:href="#DejaVuSans-32"/>
      <use x="677.154297" xlink:href="#DejaVuSans-40"/>
      <use x="716.167969" xlink:href="#DejaVuSans-54"/>
      <use x="779.791016" xlink:href="#DejaVuSans-44"/>
      <use x="811.578125" xlink:href="#DejaVuSans-49"/>
      <use x="875.201172" xlink:href="#DejaVuSans-48"/>
      <use x="938.824219" xlink:href="#DejaVuSans-41"/>
      <use x="977.837891" xlink:href="#DejaVuSans-32"/>
      <use x="1009.625" xlink:href="#DejaVuSans-98"/>
      <use x="1073.101562" xlink:href="#DejaVuSans-105"/>
      <use x="1100.884766" xlink:href="#DejaVuSans-116"/>
      <use x="1140.09375" xlink:href="#DejaVuSans-115"/>
     </g>
    </g>
    <g id="line2d_26">
     <path d="M 293.78125 71.892812 
L 313.78125 71.892812 
" style="fill:none;stroke:#d62728;stroke-linecap:square;stroke-width:1.5;"/>
    </g>
    <g id="line2d_27"/>
    <g id="text_20">
     <!-- QSGD-MN-TS (4,8) bits -->
     <g transform="translate(321.78125 75.392812)scale(0.1 -0.1)">
      <use xlink:href="#DejaVuSans-81"/>
      <use x="78.710938" xlink:href="#DejaVuSans-83"/>
      <use x="142.1875" xlink:href="#DejaVuSans-71"/>
      <use x="219.677734" xlink:href="#DejaVuSans-68"/>
      <use x="296.679688" xlink:href="#DejaVuSans-45"/>
      <use x="332.763672" xlink:href="#DejaVuSans-77"/>
      <use x="419.042969" xlink:href="#DejaVuSans-78"/>
      <use x="493.847656" xlink:href="#DejaVuSans-45"/>
      <use x="520.806641" xlink:href="#DejaVuSans-84"/>
      <use x="581.890625" xlink:href="#DejaVuSans-83"/>
      <use x="645.367188" xlink:href="#DejaVuSans-32"/>
      <use x="677.154297" xlink:href="#DejaVuSans-40"/>
      <use x="716.167969" xlink:href="#DejaVuSans-52"/>
      <use x="779.791016" xlink:href="#DejaVuSans-44"/>
      <use x="811.578125" xlink:href="#DejaVuSans-56"/>
      <use x="875.201172" xlink:href="#DejaVuSans-41"/>
      <use x="914.214844" xlink:href="#DejaVuSans-32"/>
      <use x="946.001953" xlink:href="#DejaVuSans-98"/>
      <use x="1009.478516" xlink:href="#DejaVuSans-105"/>
      <use x="1037.261719" xlink:href="#DejaVuSans-116"/>
      <use x="1076.470703" xlink:href="#DejaVuSans-115"/>
     </g>
    </g>
    <g id="line2d_28">
     <path d="M 293.78125 86.570937 
L 313.78125 86.570937 
" style="fill:none;stroke:#9467bd;stroke-linecap:square;stroke-width:1.5;"/>
    </g>
    <g id="line2d_29"/>
    <g id="text_21">
     <!-- QSGD-MN-TS (2,6) bits -->
     <g transform="translate(321.78125 90.070937)scale(0.1 -0.1)">
      <use xlink:href="#DejaVuSans-81"/>
      <use x="78.710938" xlink:href="#DejaVuSans-83"/>
      <use x="142.1875" xlink:href="#DejaVuSans-71"/>
      <use x="219.677734" xlink:href="#DejaVuSans-68"/>
      <use x="296.679688" xlink:href="#DejaVuSans-45"/>
      <use x="332.763672" xlink:href="#DejaVuSans-77"/>
      <use x="419.042969" xlink:href="#DejaVuSans-78"/>
      <use x="493.847656" xlink:href="#DejaVuSans-45"/>
      <use x="520.806641" xlink:href="#DejaVuSans-84"/>
      <use x="581.890625" xlink:href="#DejaVuSans-83"/>
      <use x="645.367188" xlink:href="#DejaVuSans-32"/>
      <use x="677.154297" xlink:href="#DejaVuSans-40"/>
      <use x="716.167969" xlink:href="#DejaVuSans-50"/>
      <use x="779.791016" xlink:href="#DejaVuSans-44"/>
      <use x="811.578125" xlink:href="#DejaVuSans-54"/>
      <use x="875.201172" xlink:href="#DejaVuSans-41"/>
      <use x="914.214844" xlink:href="#DejaVuSans-32"/>
      <use x="946.001953" xlink:href="#DejaVuSans-98"/>
      <use x="1009.478516" xlink:href="#DejaVuSans-105"/>
      <use x="1037.261719" xlink:href="#DejaVuSans-116"/>
      <use x="1076.470703" xlink:href="#DejaVuSans-115"/>
     </g>
    </g>
   </g>
  </g>
 </g>
 <defs>
  <clipPath id="pd3194deb72">
   <rect height="288.88" width="402.28" x="47.72" y="14.76"/>
  </clipPath>
 </defs>
</svg>
