<?xml version="1.0" encoding="utf-8" standalone="no"?>
<!DOCTYPE svg PUBLIC "-//W3C//DTD SVG 1.1//EN"
  "http://www.w3.org/Graphics/SVG/1.1/DTD/svg11.dtd">
<!-- Created with matplotlib (https://matplotlib.org/) -->
<svg height="345.6pt" version="1.1" viewBox="0 0 460.8 345.6" width="460.8pt" xmlns="http://www.w3.org/2000/svg" xmlns:xlink="http://www.w3.org/1999/xlink">
 <metadata>
  <rdf:RDF xmlns:cc="http://creativecommons.org/ns#" xmlns:dc="http://purl.org/dc/elements/1.1/" xmlns:rdf="http://www.w3.org/1999/02/22-rdf-syntax-ns#">
   <cc:Work>
    <dc:type rdf:resource="http://purl.org/dc/dcmitype/StillImage"/>
    <dc:date>2021-06-10T08:57:45.927860</dc:date>
    <dc:format>image/svg+xml</dc:format>
    <dc:creator>
     <cc:Agent>
      <dc:title>Matplotlib v3.3.1, https://matplotlib.org/</dc:title>
     </cc:Agent>
    </dc:creator>
   </cc:Work>
  </rdf:RDF>
 </metadata>
 <defs>
  <style type="text/css">*{stroke-linecap:butt;stroke-linejoin:round;}</style>
 </defs>
 <g id="figure_1">
  <g id="patch_1">
   <path d="M 0 345.6 
L 460.8 345.6 
L 460.8 0 
L 0 0 
z
" style="fill:#ffffff;"/>
  </g>
  <g id="axes_1">
   <g id="patch_2">
    <path d="M 47.72 303.64 
L 450 303.64 
L 450 14.76 
L 47.72 14.76 
z
" style="fill:#ffffff;"/>
   </g>
   <g id="PolyCollection_1">
    <path clip-path="url(#pa14bc7c870)" d="M 66.005455 36.705705 
L 66.005455 52.756895 
L 68.194297 76.283789 
L 70.381728 90.849332 
L 72.558934 99.001384 
L 74.727635 117.993606 
L 76.909276 148.26022 
L 79.088257 162.338697 
L 81.270623 172.467608 
L 83.459384 184.658613 
L 85.628183 170.8425 
L 87.801956 200.999982 
L 89.970931 202.858666 
L 92.143298 220.928591 
L 94.324268 221.339344 
L 96.47469 230.577193 
L 98.65901 231.147217 
L 100.825233 245.418758 
L 102.996621 231.678067 
L 105.185058 243.289598 
L 107.357115 243.592336 
L 109.523023 236.957601 
L 111.694889 241.358429 
L 113.884743 254.780084 
L 116.049174 248.134076 
L 118.220474 258.897849 
L 120.379428 256.025969 
L 122.563595 259.807077 
L 124.731111 259.305021 
L 126.901505 263.207871 
L 129.089035 263.50163 
L 131.263107 258.679798 
L 133.441006 263.775357 
L 135.602211 272.363457 
L 137.781814 265.177781 
L 139.960948 281.592939 
L 142.121707 271.593068 
L 144.282965 271.587978 
L 146.482047 265.659388 
L 148.641774 265.452992 
L 150.819487 272.205149 
L 152.988573 270.638349 
L 155.161818 271.025714 
L 157.325756 271.140167 
L 159.484659 271.583867 
L 161.675659 277.745464 
L 163.856577 269.124544 
L 166.031599 267.908454 
L 168.20457 279.132672 
L 170.392054 273.333675 
L 172.582475 275.891027 
L 174.745483 274.514894 
L 176.918106 279.095973 
L 179.084888 274.650874 
L 181.264255 281.540878 
L 183.441163 282.243853 
L 185.616593 282.664729 
L 187.790721 275.066041 
L 189.986246 285.556254 
L 192.143619 284.387465 
L 194.315424 278.18504 
L 196.48468 281.411013 
L 198.656727 277.190988 
L 200.826327 279.965614 
L 203.017333 280.05521 
L 205.18106 280.085236 
L 207.3706 287.704561 
L 209.543828 285.91601 
L 211.704163 285.551135 
L 213.881722 282.550617 
L 216.04129 278.432467 
L 218.220647 276.022231 
L 220.391184 283.48046 
L 222.572546 287.658729 
L 224.741949 280.738932 
L 226.914952 285.628669 
L 229.091209 284.425706 
L 231.269918 287.984519 
L 233.437252 288.821359 
L 235.600214 287.306359 
L 237.786517 289.651866 
L 239.957802 290.041378 
L 242.139397 294.595242 
L 244.300992 290.568084 
L 246.469264 289.770772 
L 248.638062 284.134268 
L 250.817944 292.474904 
L 253.001543 290.828825 
L 255.203574 292.027236 
L 257.38033 291.910754 
L 259.563806 287.12802 
L 261.722168 297.155058 
L 263.907652 291.08559 
L 266.10099 297.171884 
L 268.275843 292.860705 
L 270.461339 293.573299 
L 272.634735 296.578327 
L 274.812405 295.532302 
L 276.996216 295.547367 
L 279.17151 292.226036 
L 281.35708 296.219477 
L 283.538317 300.365351 
L 285.719309 297.329727 
L 287.879761 298.5765 
L 290.056645 298.329908 
L 292.230927 297.779101 
L 294.415517 299.484721 
L 296.5972 298.570961 
L 298.763448 299.875423 
L 300.94189 300.576075 
L 303.117356 301.134841 
L 305.320135 298.359225 
L 307.488814 300.016902 
L 309.657918 302.261894 
L 311.827049 302.039859 
L 314.005295 301.852002 
L 316.157265 302.291347 
L 318.339939 302.670829 
L 320.512646 302.802904 
L 322.696787 302.619212 
L 324.870792 302.916903 
L 327.040091 302.844699 
L 329.221749 302.683768 
L 331.395532 303.472301 
L 333.59144 303.832087 
L 335.773544 303.492126 
L 337.948195 303.427211 
L 340.108504 303.584801 
L 342.277055 303.451279 
L 344.452172 303.549949 
L 346.640855 303.523129 
L 348.798312 303.556815 
L 350.975164 303.457428 
L 353.141092 303.527084 
L 355.314764 303.529021 
L 357.48666 303.512329 
L 359.681286 303.598676 
L 361.850761 303.589367 
L 364.037157 303.59475 
L 366.232991 303.569425 
L 368.403942 303.472827 
L 370.574551 303.514348 
L 372.751707 303.647131 
L 374.944213 303.53199 
L 377.117759 303.576429 
L 379.290753 303.574956 
L 381.473279 303.558061 
L 383.656572 303.489432 
L 385.837574 303.547601 
L 388.016826 303.569633 
L 390.188672 303.555699 
L 390.188672 303.387776 
L 390.188672 303.387776 
L 388.016826 303.31235 
L 385.837574 303.483812 
L 383.656572 303.384022 
L 381.473279 303.51115 
L 379.290753 303.527932 
L 377.117759 303.515483 
L 374.944213 303.337387 
L 372.751707 303.164457 
L 370.574551 303.303544 
L 368.403942 303.124028 
L 366.232991 303.424895 
L 364.037157 303.330872 
L 361.850761 303.407763 
L 359.681286 302.871802 
L 357.48666 303.426495 
L 355.314764 303.463801 
L 353.141092 303.343901 
L 350.975164 303.138721 
L 348.798312 303.3227 
L 346.640855 302.921255 
L 344.452172 303.260361 
L 342.277055 303.347857 
L 340.108504 303.064993 
L 337.948195 303.182074 
L 335.773544 302.937006 
L 333.59144 302.184504 
L 331.395532 302.658809 
L 329.221749 301.881105 
L 327.040091 302.022737 
L 324.870792 301.149871 
L 322.696787 301.539776 
L 320.512646 299.232683 
L 318.339939 301.424509 
L 316.157265 299.419813 
L 314.005295 298.859434 
L 311.827049 300.302874 
L 309.657918 301.15356 
L 307.488814 298.567782 
L 305.320135 296.163789 
L 303.117356 299.703896 
L 300.94189 299.08274 
L 298.763448 297.807216 
L 296.5972 296.454207 
L 294.415517 296.13852 
L 292.230927 293.424896 
L 290.056645 294.302973 
L 287.879761 295.296252 
L 285.719309 294.386299 
L 283.538317 297.134623 
L 281.35708 290.813533 
L 279.17151 290.267835 
L 276.996216 288.091867 
L 274.812405 288.673972 
L 272.634735 293.055731 
L 270.461339 288.759769 
L 268.275843 289.777041 
L 266.10099 291.683552 
L 263.907652 285.952285 
L 261.722168 291.340689 
L 259.563806 279.957037 
L 257.38033 287.722527 
L 255.203574 288.048957 
L 253.001543 285.469923 
L 250.817944 288.159866 
L 248.638062 282.347074 
L 246.469264 280.019713 
L 244.300992 286.18486 
L 242.139397 292.990702 
L 239.957802 284.584461 
L 237.786517 284.818813 
L 235.600214 285.087996 
L 233.437252 285.49134 
L 231.269918 285.594695 
L 229.091209 279.426377 
L 226.914952 282.020606 
L 224.741949 269.662176 
L 222.572546 280.678893 
L 220.391184 277.62952 
L 218.220647 270.688886 
L 216.04129 272.939097 
L 213.881722 280.663898 
L 211.704163 279.372963 
L 209.543828 280.074462 
L 207.3706 283.877319 
L 205.18106 276.178104 
L 203.017333 269.488286 
L 200.826327 274.125484 
L 198.656727 272.493562 
L 196.48468 273.848019 
L 194.315424 270.991713 
L 192.143619 276.147012 
L 189.986246 278.521516 
L 187.790721 267.644765 
L 185.616593 279.438276 
L 183.441163 277.088838 
L 181.264255 278.124702 
L 179.084888 269.876717 
L 176.918106 272.06683 
L 174.745483 268.568296 
L 172.582475 271.846968 
L 170.392054 268.790344 
L 168.20457 273.485815 
L 166.031599 261.20468 
L 163.856577 264.863441 
L 161.675659 274.455502 
L 159.484659 267.109702 
L 157.325756 267.39542 
L 155.161818 268.186936 
L 152.988573 264.861741 
L 150.819487 264.32182 
L 148.641774 262.565558 
L 146.482047 259.176969 
L 144.282965 265.604769 
L 142.121707 265.159588 
L 139.960948 272.52637 
L 137.781814 258.462431 
L 135.602211 264.581033 
L 133.441006 251.20974 
L 131.263107 255.56053 
L 129.089035 260.567389 
L 126.901505 250.829338 
L 124.731111 247.814867 
L 122.563595 247.143545 
L 120.379428 251.940246 
L 118.220474 250.287079 
L 116.049174 240.242465 
L 113.884743 243.583129 
L 111.694889 232.134021 
L 109.523023 225.769555 
L 107.357115 235.011936 
L 105.185058 235.235684 
L 102.996621 224.594427 
L 100.825233 236.345138 
L 98.65901 215.804383 
L 96.47469 209.671488 
L 94.324268 204.623318 
L 92.143298 200.407478 
L 89.970931 191.891415 
L 87.801956 183.07508 
L 85.628183 147.5575 
L 83.459384 154.4595 
L 81.270623 140.470755 
L 79.088257 132.228703 
L 76.909276 115.07203 
L 74.727635 94.017307 
L 72.558934 79.382091 
L 70.381728 75.572705 
L 68.194297 50.372111 
L 66.005455 36.705705 
z
" style="fill:#1f77b4;fill-opacity:0.25;"/>
   </g>
   <g id="PolyCollection_2">
    <path clip-path="url(#pa14bc7c870)" d="M 66.287532 32.586806 
L 66.287532 40.716569 
L 68.727243 69.192003 
L 71.199744 87.633076 
L 73.647949 99.694193 
L 76.090234 116.255328 
L 78.544852 134.844627 
L 80.988422 148.843558 
L 83.421236 153.012934 
L 85.870473 170.167136 
L 88.326685 169.599503 
L 90.773393 197.393568 
L 93.244287 199.166913 
L 95.699478 214.458252 
L 98.127276 217.124281 
L 100.586996 229.27386 
L 103.07608 231.217573 
L 105.524718 247.38416 
L 107.963804 230.373804 
L 110.409834 247.990223 
L 112.863376 243.287692 
L 115.31197 240.787209 
L 117.773742 243.188202 
L 120.215982 256.586955 
L 122.680519 252.325382 
L 125.12282 257.99779 
L 127.554381 255.661288 
L 130.008003 258.986332 
L 132.449194 257.392142 
L 134.896392 260.836847 
L 137.329723 263.403878 
L 139.792564 263.570529 
L 142.229231 266.00873 
L 144.666647 273.043118 
L 147.116374 264.144678 
L 149.603981 278.79198 
L 152.095045 274.062574 
L 154.530797 270.517234 
L 156.985067 267.771898 
L 159.447819 268.164999 
L 161.89572 269.576176 
L 164.333202 270.742062 
L 166.76758 271.213287 
L 169.21817 267.930533 
L 171.657002 269.540988 
L 174.115264 279.521062 
L 176.582966 272.067871 
L 179.020735 271.919025 
L 181.462489 275.453031 
L 183.887512 276.781121 
L 186.342685 278.320093 
L 188.842185 276.229181 
L 191.282368 281.317959 
L 193.717837 278.605944 
L 196.16937 281.769464 
L 198.619504 284.496089 
L 201.072427 285.499325 
L 203.512197 277.900263 
L 205.983384 285.721966 
L 208.433698 279.983137 
L 210.89916 277.588998 
L 213.339681 285.356103 
L 215.815085 279.872604 
L 218.267754 277.866345 
L 220.725058 279.184229 
L 223.195908 280.129483 
L 225.656526 288.499328 
L 228.108432 286.540532 
L 230.558419 286.282592 
L 233.022838 289.388219 
L 235.473228 277.504451 
L 237.907442 276.425841 
L 240.368234 280.823309 
L 242.831585 288.496905 
L 245.282349 279.152385 
L 247.746911 287.117303 
L 250.19661 282.272781 
L 252.661109 290.065341 
L 255.13364 290.413029 
L 257.602685 288.864527 
L 260.078977 291.423892 
L 262.525881 288.621047 
L 264.96646 292.193618 
L 267.422765 290.808101 
L 269.863755 292.284562 
L 272.31091 283.779315 
L 274.753924 294.302816 
L 277.203057 291.103544 
L 279.667926 291.981127 
L 282.111198 295.089459 
L 284.560166 289.294542 
L 287.009467 295.091421 
L 289.466281 290.16072 
L 291.919156 297.196279 
L 294.379648 294.546311 
L 296.824725 293.573919 
L 299.294458 297.56944 
L 301.748252 295.579436 
L 304.207127 294.193019 
L 306.668495 297.607061 
L 309.106378 298.093658 
L 311.587544 300.431003 
L 314.046164 297.230366 
L 316.495096 297.621133 
L 318.943076 298.054067 
L 321.408435 299.204325 
L 323.857317 299.477507 
L 326.33233 301.651013 
L 328.820426 299.733608 
L 331.282298 300.119738 
L 333.738727 302.515436 
L 336.191695 302.487888 
L 338.641605 301.648034 
L 341.09907 302.452213 
L 343.556399 301.471559 
L 346.024879 301.468205 
L 348.482036 302.517382 
L 350.922996 302.905359 
L 353.39091 303.025962 
L 355.871766 302.831195 
L 358.320317 303.152358 
L 360.76487 302.746731 
L 363.213665 303.13024 
L 365.653894 303.511903 
L 368.099556 303.592841 
L 370.524686 303.397505 
L 372.971357 303.58134 
L 375.432581 303.555107 
L 377.870843 303.573424 
L 380.301425 303.561888 
L 382.757495 303.497059 
L 385.204266 303.58334 
L 387.672426 303.512482 
L 390.127652 303.586776 
L 392.592993 303.548305 
L 395.035825 303.60272 
L 397.485593 303.552299 
L 399.907337 303.642149 
L 402.351464 303.531426 
L 404.790079 303.592482 
L 407.247952 303.586768 
L 409.69232 303.597535 
L 412.126402 303.576561 
L 414.585884 303.533657 
L 417.041298 303.586701 
L 419.504197 303.605355 
L 421.961468 303.593751 
L 424.401654 303.569223 
L 426.83095 303.615236 
L 429.271937 303.600373 
L 431.714545 303.596845 
L 431.714545 303.50223 
L 431.714545 303.50223 
L 429.271937 303.228109 
L 426.83095 303.428178 
L 424.401654 303.498203 
L 421.961468 303.526692 
L 419.504197 303.433717 
L 417.041298 303.483326 
L 414.585884 303.440916 
L 412.126402 303.534306 
L 409.69232 303.41499 
L 407.247952 302.674993 
L 404.790079 303.540997 
L 402.351464 303.321178 
L 399.907337 303.507078 
L 397.485593 303.453526 
L 395.035825 303.428054 
L 392.592993 303.420912 
L 390.127652 303.192127 
L 387.672426 303.405052 
L 385.204266 303.534403 
L 382.757495 303.328282 
L 380.301425 303.440807 
L 377.870843 303.521133 
L 375.432581 303.497575 
L 372.971357 303.402048 
L 370.524686 302.721482 
L 368.099556 302.662 
L 365.653894 302.818094 
L 363.213665 301.870669 
L 360.76487 301.511525 
L 358.320317 302.278239 
L 355.871766 301.235756 
L 353.39091 302.341689 
L 350.922996 300.946659 
L 348.482036 301.668584 
L 346.024879 299.802865 
L 343.556399 298.869961 
L 341.09907 300.762238 
L 338.641605 299.374075 
L 336.191695 299.473645 
L 333.738727 301.229381 
L 331.282298 298.116541 
L 328.820426 296.273301 
L 326.33233 298.764914 
L 323.857317 297.048484 
L 321.408435 294.731902 
L 318.943076 292.766261 
L 316.495096 296.054143 
L 314.046164 295.997766 
L 311.587544 297.820087 
L 309.106378 291.653244 
L 306.668495 291.915564 
L 304.207127 287.967962 
L 301.748252 289.004865 
L 299.294458 291.456672 
L 296.824725 289.862196 
L 294.379648 292.032503 
L 291.919156 292.913134 
L 289.466281 285.836172 
L 287.009467 292.931793 
L 284.560166 280.696241 
L 282.111198 286.563726 
L 279.667926 283.378197 
L 277.203057 289.139094 
L 274.753924 287.734037 
L 272.31091 280.986802 
L 269.863755 286.970693 
L 267.422765 287.140987 
L 264.96646 290.130987 
L 262.525881 283.383997 
L 260.078977 284.708412 
L 257.602685 286.514544 
L 255.13364 285.485124 
L 252.661109 284.17683 
L 250.19661 276.337709 
L 247.746911 283.042745 
L 245.282349 274.679173 
L 242.831585 282.960847 
L 240.368234 274.30031 
L 237.907442 270.567386 
L 235.473228 272.637116 
L 233.022838 284.219206 
L 230.558419 281.112784 
L 228.108432 282.400804 
L 225.656526 284.972685 
L 223.195908 274.441201 
L 220.725058 273.456828 
L 218.267754 270.181971 
L 215.815085 274.579594 
L 213.339681 278.631392 
L 210.89916 273.286054 
L 208.433698 278.254969 
L 205.983384 280.505478 
L 203.512197 269.217092 
L 201.072427 278.296336 
L 198.619504 280.91888 
L 196.16937 274.392317 
L 193.717837 274.746028 
L 191.282368 278.031658 
L 188.842185 270.402946 
L 186.342685 273.040187 
L 183.887512 269.619676 
L 181.462489 272.177762 
L 179.020735 260.726119 
L 176.582966 267.347898 
L 174.115264 270.050644 
L 171.657002 266.28635 
L 169.21817 264.883877 
L 166.76758 266.114872 
L 164.333202 263.73115 
L 161.89572 263.74603 
L 159.447819 262.415104 
L 156.985067 261.544355 
L 154.530797 268.819545 
L 152.095045 267.976812 
L 149.603981 273.527471 
L 147.116374 257.080678 
L 144.666647 265.323204 
L 142.229231 260.181751 
L 139.792564 258.478587 
L 137.329723 259.94294 
L 134.896392 257.567415 
L 132.449194 249.524626 
L 130.008003 250.412999 
L 127.554381 249.292 
L 125.12282 248.456319 
L 122.680519 242.280133 
L 120.215982 247.50872 
L 117.773742 236.465517 
L 115.31197 230.516072 
L 112.863376 239.54822 
L 110.409834 238.998339 
L 107.963804 222.693927 
L 105.524718 236.027256 
L 103.07608 222.00814 
L 100.586996 215.87224 
L 98.127276 205.385363 
L 95.699478 199.746092 
L 93.244287 178.792018 
L 90.773393 174.178407 
L 88.326685 133.769709 
L 85.870473 135.865189 
L 83.421236 114.201141 
L 80.988422 103.249455 
L 78.544852 91.249185 
L 76.090234 63.211447 
L 73.647949 55.488607 
L 71.199744 51.706461 
L 68.727243 40.943572 
L 66.287532 32.586806 
z
" style="fill:#ff7f0e;fill-opacity:0.25;"/>
   </g>
   <g id="PolyCollection_3">
    <path clip-path="url(#pa14bc7c870)" d="M 66.115733 43.439821 
L 66.115733 68.004742 
L 68.399587 94.60566 
L 70.675096 107.045897 
L 72.965882 104.551427 
L 75.257385 119.832927 
L 77.550761 137.53594 
L 79.846243 142.338676 
L 82.129986 141.807037 
L 84.414659 156.283229 
L 86.705371 150.617839 
L 88.994503 170.507128 
L 91.279175 177.695956 
L 93.567014 192.393018 
L 95.851412 192.732807 
L 98.144037 211.970048 
L 100.43232 212.218133 
L 102.713933 233.123136 
L 105.004814 218.651528 
L 107.286879 243.846131 
L 109.570258 232.826062 
L 111.848501 232.262159 
L 114.131225 239.728269 
L 116.412123 248.393669 
L 118.705045 244.591504 
L 120.984399 256.185738 
L 123.261346 253.356671 
L 125.544579 257.14219 
L 127.82198 254.164444 
L 130.097147 257.756231 
L 132.37876 261.377896 
L 134.66314 264.340574 
L 136.937518 262.410088 
L 139.216911 263.606183 
L 141.506294 262.797975 
L 143.782605 274.223608 
L 146.061038 270.140371 
L 148.34622 266.670833 
L 150.630528 267.975568 
L 152.905593 266.67269 
L 155.180574 269.864163 
L 157.46371 265.730087 
L 159.74923 270.875176 
L 162.028994 268.709075 
L 164.312557 268.491887 
L 166.587001 276.713354 
L 168.860164 270.263646 
L 171.138388 268.518664 
L 173.414885 277.517182 
L 175.697737 272.404739 
L 177.974535 276.660097 
L 180.249608 271.876295 
L 182.524162 277.14927 
L 184.797781 275.393692 
L 187.078489 281.799065 
L 189.357778 282.626766 
L 191.634439 284.709549 
L 193.909465 273.491645 
L 196.193005 282.502045 
L 198.466547 283.07109 
L 200.745548 280.819367 
L 203.016721 280.894776 
L 205.297996 274.685259 
L 207.575135 278.355634 
L 209.850372 280.431217 
L 212.134334 280.968067 
L 214.414469 290.164918 
L 216.688423 283.193207 
L 218.965371 281.689187 
L 221.246712 285.682356 
L 223.525966 275.630298 
L 225.804923 278.876873 
L 228.079512 286.612772 
L 230.353052 283.649964 
L 232.63218 280.083917 
L 234.909745 286.162973 
L 237.183275 282.066799 
L 239.45547 289.84762 
L 241.740721 288.409011 
L 244.012395 286.882087 
L 246.297028 289.945465 
L 248.576451 287.089799 
L 250.854124 293.476429 
L 253.131264 287.428656 
L 255.410099 289.981617 
L 257.686628 285.7483 
L 259.963908 292.89191 
L 262.237111 291.643318 
L 264.517636 289.990668 
L 266.790098 293.822035 
L 269.071079 284.217967 
L 271.349381 293.650738 
L 273.625755 288.974441 
L 275.908788 295.810945 
L 278.18854 291.782824 
L 280.460443 293.751914 
L 282.742387 293.021254 
L 285.033709 294.06188 
L 287.310896 295.452389 
L 289.586834 295.153327 
L 291.865436 296.884549 
L 294.144758 298.93817 
L 296.420525 295.141711 
L 298.697958 297.594675 
L 300.983074 297.812318 
L 303.260752 300.058792 
L 305.531263 299.901568 
L 307.810876 300.38989 
L 310.095144 299.144478 
L 312.369181 301.156835 
L 314.648003 301.821935 
L 316.921232 301.051777 
L 319.195703 301.673147 
L 321.476028 301.74454 
L 323.749125 301.730604 
L 326.034209 300.69443 
L 328.30615 301.464886 
L 330.580131 302.446396 
L 332.859863 301.829847 
L 335.136201 302.397062 
L 337.40989 302.969267 
L 339.687757 302.762673 
L 341.964376 303.312152 
L 344.244272 303.198452 
L 346.518079 303.450085 
L 348.795295 303.484601 
L 351.077647 303.537795 
L 353.35622 303.608014 
L 355.629408 303.638772 
L 357.909797 303.459018 
L 360.190113 303.603947 
L 362.465271 303.679747 
L 364.743061 303.657115 
L 367.020327 303.511066 
L 369.297338 303.558984 
L 371.574942 303.594523 
L 373.848998 303.552068 
L 376.121946 303.598593 
L 378.399619 303.554018 
L 380.674868 303.574193 
L 382.951854 303.6003 
L 385.229358 303.590635 
L 387.502805 303.601376 
L 389.781631 303.577252 
L 392.058107 303.581372 
L 394.33948 303.609853 
L 396.613745 303.721738 
L 398.890208 303.56288 
L 401.167516 303.557778 
L 403.440607 303.578315 
L 405.711709 303.58201 
L 405.711709 303.522752 
L 405.711709 303.522752 
L 403.440607 303.526998 
L 401.167516 303.513042 
L 398.890208 303.496479 
L 396.613745 303.156454 
L 394.33948 303.355331 
L 392.058107 303.542642 
L 389.781631 303.542926 
L 387.502805 303.384073 
L 385.229358 303.406263 
L 382.951854 302.954635 
L 380.674868 303.547209 
L 378.399619 303.525309 
L 376.121946 303.380586 
L 373.848998 303.047828 
L 371.574942 303.360963 
L 369.297338 303.472495 
L 367.020327 303.34037 
L 364.743061 302.490061 
L 362.465271 303.311421 
L 360.190113 303.08596 
L 357.909797 303.148328 
L 355.629408 302.667995 
L 353.35622 303.049009 
L 351.077647 302.296064 
L 348.795295 303.039479 
L 346.518079 303.191555 
L 344.244272 302.002181 
L 341.964376 301.879798 
L 339.687757 301.557823 
L 337.40989 302.374933 
L 335.136201 299.93668 
L 332.859863 300.272388 
L 330.580131 300.57199 
L 328.30615 298.85336 
L 326.034209 298.462231 
L 323.749125 297.891537 
L 321.476028 300.096392 
L 319.195703 299.798926 
L 316.921232 299.444198 
L 314.648003 300.166046 
L 312.369181 296.915115 
L 310.095144 294.738148 
L 307.810876 297.402772 
L 305.531263 296.263322 
L 303.260752 295.770389 
L 300.983074 295.556869 
L 298.697958 294.335754 
L 296.420525 292.215724 
L 294.144758 294.332278 
L 291.865436 293.388487 
L 289.586834 288.347674 
L 287.310896 292.929104 
L 285.033709 289.252929 
L 282.742387 289.63624 
L 280.460443 289.435945 
L 278.18854 287.751719 
L 275.908788 290.291104 
L 273.625755 283.380418 
L 271.349381 290.329849 
L 269.071079 279.509988 
L 266.790098 286.158241 
L 264.517636 282.344444 
L 262.237111 286.164716 
L 259.963908 288.916435 
L 257.686628 276.055669 
L 255.410099 286.393301 
L 253.131264 285.896659 
L 250.854124 289.770673 
L 248.576451 282.201352 
L 246.297028 285.422322 
L 244.012395 282.132598 
L 241.740721 282.586082 
L 239.45547 284.377625 
L 237.183275 272.904481 
L 234.909745 278.123558 
L 232.63218 273.251128 
L 230.353052 276.015615 
L 228.079512 275.981103 
L 225.804923 269.797725 
L 223.525966 270.369903 
L 221.246712 281.780727 
L 218.965371 274.325897 
L 216.688423 279.248329 
L 214.414469 281.1546 
L 212.134334 276.248803 
L 209.850372 274.878594 
L 207.575135 269.252591 
L 205.297996 267.466971 
L 203.016721 272.271003 
L 200.745548 267.618259 
L 198.466547 277.649579 
L 196.193005 274.472211 
L 193.909465 269.47306 
L 191.634439 277.1452 
L 189.357778 276.807484 
L 187.078489 276.032804 
L 184.797781 265.432624 
L 182.524162 271.536612 
L 180.249608 264.436271 
L 177.974535 265.932223 
L 175.697737 265.781032 
L 173.414885 264.448855 
L 171.138388 262.603089 
L 168.860164 261.704435 
L 166.587001 265.326032 
L 164.312557 265.417107 
L 162.028994 258.39544 
L 159.74923 261.002631 
L 157.46371 253.599494 
L 155.180574 253.13284 
L 152.905593 251.426894 
L 150.630528 255.416388 
L 148.34622 258.583045 
L 146.061038 257.483226 
L 143.782605 254.144757 
L 141.506294 249.399881 
L 139.216911 253.635788 
L 136.937518 246.752271 
L 134.66314 246.661138 
L 132.37876 248.055288 
L 130.097147 242.71716 
L 127.82198 231.097609 
L 125.544579 230.478298 
L 123.261346 235.742069 
L 120.984399 219.281477 
L 118.705045 215.585383 
L 116.412123 227.773178 
L 114.131225 215.618906 
L 111.848501 197.356641 
L 109.570258 210.627382 
L 107.286879 207.280688 
L 105.004814 191.941815 
L 102.713933 206.222795 
L 100.43232 184.066623 
L 98.144037 187.474334 
L 95.851412 165.25278 
L 93.567014 167.240088 
L 91.279175 151.943282 
L 88.994503 142.882609 
L 86.705371 122.103011 
L 84.414659 127.721996 
L 82.129986 119.178063 
L 79.846243 111.379286 
L 77.550761 96.321522 
L 75.257385 80.216548 
L 72.965882 59.072086 
L 70.675096 59.195591 
L 68.399587 53.310003 
L 66.115733 43.439821 
z
" style="fill:#2ca02c;fill-opacity:0.25;"/>
   </g>
   <g id="PolyCollection_4">
    <path clip-path="url(#pa14bc7c870)" d="M 66.177602 35.933612 
L 66.177602 54.702563 
L 68.491654 87.088075 
L 70.813592 100.747816 
L 73.170734 101.132379 
L 75.483847 118.086983 
L 77.776193 137.136673 
L 80.109356 151.49529 
L 82.437212 152.134589 
L 84.743927 165.443689 
L 87.060093 166.089183 
L 89.405679 189.26237 
L 91.731332 195.221095 
L 94.029179 212.608684 
L 96.351548 214.137742 
L 98.63642 220.714336 
L 100.965315 227.064889 
L 103.252909 241.421779 
L 105.568572 232.021567 
L 107.900641 244.412319 
L 110.206237 239.604472 
L 112.491671 234.971812 
L 114.798825 239.001402 
L 117.12794 256.307714 
L 119.454315 248.572803 
L 121.740789 255.676819 
L 124.05362 255.073115 
L 126.350511 249.769001 
L 128.654216 254.687737 
L 130.9734 259.059327 
L 133.287266 264.841823 
L 135.623951 264.748466 
L 137.950703 262.282905 
L 140.258689 265.693574 
L 142.58742 264.663657 
L 144.893815 274.069828 
L 147.236694 272.236247 
L 149.533822 267.691819 
L 151.875424 266.062755 
L 154.221796 267.195142 
L 156.535977 269.742084 
L 158.830607 265.67303 
L 161.141162 273.554061 
L 163.449131 272.891418 
L 165.756692 271.630655 
L 168.059507 279.12666 
L 170.348095 272.523065 
L 172.662017 270.629089 
L 174.993528 278.736163 
L 177.290106 274.534098 
L 179.613278 275.717294 
L 181.940914 276.672231 
L 184.231576 277.692701 
L 186.529495 275.96882 
L 188.827924 281.739113 
L 191.154746 283.793858 
L 193.483157 284.856429 
L 195.797868 277.323865 
L 198.097934 286.309593 
L 200.393877 285.91934 
L 202.695476 276.993685 
L 205.013376 285.706489 
L 207.332443 279.091233 
L 209.623677 275.8196 
L 211.943712 281.885271 
L 214.26015 281.169591 
L 216.572219 290.042865 
L 218.882653 290.520644 
L 221.196251 283.575496 
L 223.497135 290.671092 
L 225.807429 276.882415 
L 228.118694 280.862852 
L 230.431338 283.461107 
L 232.745532 288.524505 
L 235.08993 281.328098 
L 237.402472 286.471259 
L 239.700313 283.257046 
L 242.046536 289.456697 
L 244.371431 288.309796 
L 246.698868 287.027981 
L 249.030264 290.328585 
L 251.339274 285.120455 
L 253.648693 292.889126 
L 255.967903 288.195511 
L 258.292435 289.612735 
L 260.626993 283.165316 
L 262.974325 291.589596 
L 265.247326 290.989646 
L 267.546825 291.350843 
L 269.832725 292.164905 
L 272.152584 288.321408 
L 274.47066 295.96005 
L 276.801697 289.665782 
L 279.144334 295.529221 
L 281.490772 293.574286 
L 283.789171 294.285221 
L 286.128284 294.63693 
L 288.451233 294.856081 
L 290.751183 296.753831 
L 293.061823 295.323877 
L 295.368906 296.674714 
L 297.720219 299.050789 
L 300.022161 296.933057 
L 302.355768 299.612378 
L 304.691678 295.776086 
L 307.017712 299.273496 
L 309.345988 300.759826 
L 311.642152 300.600585 
L 313.963746 299.366302 
L 316.271697 300.330346 
L 318.614467 302.218973 
L 320.945792 300.767792 
L 323.256293 301.13174 
L 325.565493 301.981522 
L 327.899213 300.680663 
L 330.23324 302.241004 
L 332.543281 302.410148 
L 334.881834 301.985085 
L 337.22922 302.571281 
L 339.548614 302.542696 
L 341.863353 303.34074 
L 344.207185 302.902942 
L 346.517597 303.538365 
L 348.834683 303.514605 
L 351.150954 303.358886 
L 353.460103 303.462287 
L 355.801864 303.569892 
L 358.114168 303.577479 
L 360.427458 303.542484 
L 362.714184 303.566812 
L 365.043312 303.63439 
L 367.363621 303.605497 
L 369.672957 303.529529 
L 372.01706 303.550954 
L 374.326793 303.570924 
L 376.651179 303.457888 
L 378.959022 303.580719 
L 381.278091 303.583711 
L 383.585733 303.524496 
L 385.930013 303.582139 
L 388.253778 303.525674 
L 390.549744 303.591844 
L 392.87235 303.596802 
L 395.196522 303.57947 
L 397.483741 303.60057 
L 399.805489 303.581421 
L 402.120947 303.570495 
L 404.428302 303.553839 
L 406.73 303.592914 
L 409.052151 303.561349 
L 411.349508 303.585141 
L 411.349508 303.547105 
L 411.349508 303.547105 
L 409.052151 303.493316 
L 406.73 303.528576 
L 404.428302 303.52064 
L 402.120947 303.561442 
L 399.805489 303.548333 
L 397.483741 303.523862 
L 395.196522 303.495626 
L 392.87235 303.541295 
L 390.549744 303.48636 
L 388.253778 303.112968 
L 385.930013 303.552453 
L 383.585733 303.35092 
L 381.278091 303.472354 
L 378.959022 301.729782 
L 376.651179 303.326261 
L 374.326793 303.492072 
L 372.01706 303.205227 
L 369.672957 303.042333 
L 367.363621 303.503452 
L 365.043312 303.299122 
L 362.714184 303.513397 
L 360.427458 303.405685 
L 358.114168 303.195804 
L 355.801864 303.268519 
L 353.460103 302.747064 
L 351.150954 303.070643 
L 348.834683 302.692894 
L 346.517597 301.606243 
L 344.207185 300.881194 
L 341.863353 302.533386 
L 339.548614 301.391487 
L 337.22922 301.555441 
L 334.881834 299.529657 
L 332.543281 300.344994 
L 330.23324 296.805281 
L 327.899213 299.310336 
L 325.565493 298.940085 
L 323.256293 298.783794 
L 320.945792 297.778102 
L 318.614467 300.928125 
L 316.271697 298.718408 
L 313.963746 297.149815 
L 311.642152 298.708414 
L 309.345988 298.571742 
L 307.017712 293.676759 
L 304.691678 291.47838 
L 302.355768 294.906405 
L 300.022161 294.230034 
L 297.720219 297.321452 
L 295.368906 292.883175 
L 293.061823 292.222572 
L 290.751183 293.568575 
L 288.451233 289.602681 
L 286.128284 291.284569 
L 283.789171 289.043693 
L 281.490772 287.892706 
L 279.144334 292.838167 
L 276.801697 279.721286 
L 274.47066 289.510074 
L 272.152584 284.264781 
L 269.832725 285.925238 
L 267.546825 286.451549 
L 265.247326 287.501092 
L 262.974325 288.097287 
L 260.626993 279.63732 
L 258.292435 284.71689 
L 255.967903 284.514806 
L 253.648693 289.813505 
L 251.339274 276.46911 
L 249.030264 284.641428 
L 246.698868 281.298357 
L 244.371431 285.218639 
L 242.046536 282.745823 
L 239.700313 277.384632 
L 237.402472 284.461769 
L 235.08993 274.799831 
L 232.745532 278.374359 
L 230.431338 274.34255 
L 228.118694 273.860172 
L 225.807429 271.543927 
L 223.497135 283.808051 
L 221.196251 277.156457 
L 218.882653 275.272351 
L 216.572219 284.306508 
L 214.26015 279.364885 
L 211.943712 276.950907 
L 209.623677 271.64757 
L 207.332443 275.530231 
L 205.013376 281.327788 
L 202.695476 270.597614 
L 200.393877 277.001781 
L 198.097934 280.171749 
L 195.797868 269.449316 
L 193.483157 277.878501 
L 191.154746 279.533502 
L 188.827924 273.971294 
L 186.529495 270.149867 
L 184.231576 272.900241 
L 181.940914 266.162703 
L 179.613278 268.499977 
L 177.290106 267.668912 
L 174.993528 268.561742 
L 172.662017 267.669526 
L 170.348095 267.479492 
L 168.059507 271.522704 
L 165.756692 265.765211 
L 163.449131 265.480547 
L 161.141162 263.446851 
L 158.830607 257.098286 
L 156.535977 260.014259 
L 154.221796 261.974414 
L 151.875424 261.68497 
L 149.533822 262.877 
L 147.236694 268.872178 
L 144.893815 266.056857 
L 142.58742 256.110324 
L 140.258689 262.155711 
L 137.950703 255.89567 
L 135.623951 254.400565 
L 133.287266 260.558752 
L 130.9734 245.758548 
L 128.654216 250.096285 
L 126.350511 243.324408 
L 124.05362 248.94357 
L 121.740789 245.293084 
L 119.454315 233.43935 
L 117.12794 251.274833 
L 114.798825 229.706473 
L 112.491671 223.467282 
L 110.206237 234.700453 
L 107.900641 233.052231 
L 105.568572 220.504514 
L 103.252909 226.428483 
L 100.965315 210.814073 
L 98.63642 212.018951 
L 96.351548 194.695239 
L 94.029179 195.660079 
L 91.731332 180.074723 
L 89.405679 176.44173 
L 87.060093 148.880367 
L 84.743927 153.001449 
L 82.437212 134.939986 
L 80.109356 137.791022 
L 77.776193 120.779077 
L 75.483847 100.152905 
L 73.170734 83.028696 
L 70.813592 70.594209 
L 68.491654 55.049988 
L 66.177602 35.933612 
z
" style="fill:#d62728;fill-opacity:0.25;"/>
   </g>
   <g id="PolyCollection_5">
    <path clip-path="url(#pa14bc7c870)" d="M 66.132783 8.326277 
L 66.132783 50.533098 
L 68.431648 90.259517 
L 70.766194 114.545275 
L 73.069392 116.573197 
L 75.392677 132.671682 
L 77.723161 166.087361 
L 80.042864 171.491675 
L 82.346055 173.58494 
L 84.6731 187.724187 
L 86.999484 184.064112 
L 89.328672 202.568054 
L 91.654104 206.590147 
L 93.983897 219.946826 
L 96.30858 222.903574 
L 98.620873 232.835869 
L 100.954167 225.399568 
L 103.280816 242.831669 
L 105.613139 236.414637 
L 107.948378 245.34034 
L 110.256341 244.842245 
L 112.563883 229.824802 
L 114.888852 242.185592 
L 117.206796 253.242741 
L 119.533507 243.153339 
L 121.831248 252.123713 
L 124.15206 250.723722 
L 126.474591 250.270778 
L 128.793101 250.189284 
L 131.099473 255.107464 
L 133.393684 260.906606 
L 135.720546 259.528528 
L 138.039127 259.644629 
L 140.346886 261.278415 
L 142.658131 258.744696 
L 144.96732 271.215564 
L 147.269535 267.141687 
L 149.586416 267.04244 
L 151.899027 264.776304 
L 154.206547 262.985169 
L 156.51551 264.28659 
L 158.831681 262.066267 
L 161.136055 261.970961 
L 163.449754 264.526604 
L 165.789107 268.134504 
L 168.092113 271.923846 
L 170.408862 265.643281 
L 172.739735 263.866761 
L 175.038597 267.903516 
L 177.338645 272.186717 
L 179.664079 270.455239 
L 182.002087 269.802672 
L 184.309636 273.75708 
L 186.615576 265.894327 
L 188.893202 272.036782 
L 191.186907 277.703023 
L 193.517606 278.978567 
L 195.829239 269.38689 
L 198.132453 280.686356 
L 200.461729 275.778925 
L 202.787955 272.267989 
L 205.113978 278.394214 
L 207.437873 273.958338 
L 209.754589 269.639395 
L 212.085924 276.114566 
L 214.375871 274.722407 
L 216.693308 283.507014 
L 218.998674 281.202708 
L 221.325283 276.912098 
L 223.636071 283.652 
L 225.943399 272.054659 
L 228.241848 271.109024 
L 230.569143 278.997371 
L 232.915686 279.872842 
L 235.243855 272.042276 
L 237.526702 281.464175 
L 239.820598 279.547423 
L 242.111585 285.099539 
L 244.422453 282.661404 
L 246.731086 282.194789 
L 249.058346 283.448789 
L 251.369892 280.209526 
L 253.655426 290.972494 
L 255.941756 282.871237 
L 258.256144 286.699388 
L 260.582292 278.297105 
L 262.89999 292.124492 
L 265.200991 287.752535 
L 267.494499 284.673216 
L 269.794368 289.033384 
L 272.101071 276.219267 
L 274.428157 289.997136 
L 276.757032 286.704404 
L 279.052681 290.211977 
L 281.372416 287.40336 
L 283.690121 288.714933 
L 285.999674 290.016512 
L 288.316748 290.449749 
L 290.622026 292.95337 
L 292.953853 288.722121 
L 295.272366 292.855774 
L 297.59482 298.122173 
L 299.911767 294.599531 
L 302.206177 296.892321 
L 304.517598 292.337636 
L 306.857406 294.636914 
L 309.145492 297.193721 
L 311.46549 298.160515 
L 313.795076 297.771971 
L 316.100803 296.585015 
L 318.416653 299.560824 
L 320.717904 300.076764 
L 323.030559 298.947275 
L 325.341452 300.222586 
L 327.647183 300.219044 
L 329.97159 298.686497 
L 332.279023 300.900863 
L 334.587574 300.698106 
L 336.884298 300.351502 
L 339.190914 300.311816 
L 341.493441 301.748386 
L 343.791767 301.201909 
L 346.115236 301.786173 
L 348.411298 302.56632 
L 350.707307 303.035012 
L 353.015028 303.151601 
L 355.317574 303.101854 
L 357.633689 303.276837 
L 359.949948 303.276395 
L 362.2322 303.428587 
L 364.52432 303.53093 
L 366.847498 303.511119 
L 369.162682 303.257158 
L 371.461911 303.451112 
L 373.757032 303.500191 
L 376.094377 303.425417 
L 378.396948 303.502307 
L 380.707479 303.605366 
L 383.024295 303.527432 
L 385.334948 303.564546 
L 387.648314 303.306941 
L 389.959945 303.566176 
L 392.277067 303.570331 
L 394.598249 303.472549 
L 396.915358 303.609035 
L 399.225014 303.570063 
L 401.548251 303.541913 
L 403.854996 303.472218 
L 406.148425 303.624606 
L 408.447107 303.513678 
L 410.762571 303.593769 
L 410.762571 302.971238 
L 410.762571 302.971238 
L 408.447107 303.198445 
L 406.148425 303.165692 
L 403.854996 303.123402 
L 401.548251 303.401605 
L 399.225014 303.492514 
L 396.915358 303.470271 
L 394.598249 303.204332 
L 392.277067 303.338739 
L 389.959945 303.351666 
L 387.648314 302.342995 
L 385.334948 303.366763 
L 383.024295 303.217663 
L 380.707479 303.512454 
L 378.396948 302.109237 
L 376.094377 303.090507 
L 373.757032 303.009475 
L 371.461911 302.670432 
L 369.162682 302.664662 
L 366.847498 303.30296 
L 364.52432 302.787958 
L 362.2322 303.258498 
L 359.949948 302.749805 
L 357.633689 302.767347 
L 355.317574 301.931674 
L 353.015028 301.184235 
L 350.707307 301.400267 
L 348.411298 301.080287 
L 346.115236 299.526156 
L 343.791767 299.491542 
L 341.493441 299.251154 
L 339.190914 298.183298 
L 336.884298 297.544129 
L 334.587574 299.416316 
L 332.279023 297.094212 
L 329.97159 294.971146 
L 327.647183 295.911994 
L 325.341452 297.754152 
L 323.030559 295.736541 
L 320.717904 295.159281 
L 318.416653 296.374147 
L 316.100803 293.135087 
L 313.795076 291.601136 
L 311.46549 295.627604 
L 309.145492 292.0341 
L 306.857406 291.202773 
L 304.517598 287.890896 
L 302.206177 294.163569 
L 299.911767 288.354177 
L 297.59482 295.017095 
L 295.272366 288.884864 
L 292.953853 284.653975 
L 290.622026 289.602564 
L 288.316748 284.238155 
L 285.999674 283.830706 
L 283.690121 284.159007 
L 281.372416 279.808645 
L 279.052681 287.006448 
L 276.757032 277.920658 
L 274.428157 282.577769 
L 272.101071 273.499136 
L 269.794368 283.620511 
L 267.494499 277.249238 
L 265.200991 278.345139 
L 262.89999 284.137582 
L 260.582292 273.452486 
L 258.256144 281.468968 
L 255.941756 275.502281 
L 253.655426 286.638063 
L 251.369892 275.974824 
L 249.058346 278.620362 
L 246.731086 277.634414 
L 244.422453 279.193344 
L 242.111585 274.515261 
L 239.820598 267.835114 
L 237.526702 270.172572 
L 235.243855 267.226796 
L 232.915686 275.583666 
L 230.569143 272.667586 
L 228.241848 264.831158 
L 225.943399 263.411579 
L 223.636071 276.972751 
L 221.325283 272.699103 
L 218.998674 272.431373 
L 216.693308 280.452271 
L 214.375871 269.28046 
L 212.085924 270.139534 
L 209.754589 267.079408 
L 207.437873 266.529447 
L 205.113978 272.475196 
L 202.787955 265.962921 
L 200.461729 272.359666 
L 198.132453 272.631763 
L 195.829239 264.691369 
L 193.517606 276.274822 
L 191.186907 273.595193 
L 188.893202 268.67669 
L 186.615576 261.244042 
L 184.309636 267.44162 
L 182.002087 262.052565 
L 179.664079 262.844399 
L 177.338645 264.82548 
L 175.038597 264.245115 
L 172.739735 258.63373 
L 170.408862 258.572434 
L 168.092113 263.170007 
L 165.789107 259.071571 
L 163.449754 258.459114 
L 161.136055 258.069536 
L 158.831681 254.261671 
L 156.51551 256.284273 
L 154.206547 251.097178 
L 151.899027 254.564562 
L 149.586416 260.682716 
L 147.269535 260.470626 
L 144.96732 262.569302 
L 142.658131 254.559029 
L 140.346886 254.316038 
L 138.039127 249.325896 
L 135.720546 246.835306 
L 133.393684 253.751244 
L 131.099473 245.704458 
L 128.793101 243.344216 
L 126.474591 244.718407 
L 124.15206 242.245559 
L 121.831248 241.26309 
L 119.533507 234.638458 
L 117.206796 244.669096 
L 114.888852 229.794752 
L 112.563883 221.911373 
L 110.256341 232.565883 
L 107.948378 233.963563 
L 105.613139 223.513995 
L 103.280816 230.683349 
L 100.954167 218.234426 
L 98.620873 218.426363 
L 96.30858 201.998357 
L 93.983897 202.743368 
L 91.654104 180.148028 
L 89.328672 183.47049 
L 86.999484 157.265738 
L 84.6731 163.129675 
L 82.346055 146.891385 
L 80.042864 149.390887 
L 77.723161 140.170652 
L 75.392677 116.442256 
L 73.069392 102.840266 
L 70.766194 82.525125 
L 68.431648 65.464933 
L 66.132783 8.326277 
z
" style="fill:#9467bd;fill-opacity:0.25;"/>
   </g>
   <g id="matplotlib.axis_1">
    <g id="xtick_1">
     <g id="line2d_1">
      <defs>
       <path d="M 0 0 
L 0 3.5 
" id="ma3ce734bd6" style="stroke:#000000;stroke-width:0.8;"/>
      </defs>
      <g>
       <use style="stroke:#000000;stroke-width:0.8;" x="63.734409" xlink:href="#ma3ce734bd6" y="303.64"/>
      </g>
     </g>
     <g id="text_1">
      <!-- 0 -->
      <g transform="translate(60.553159 318.238437)scale(0.1 -0.1)">
       <defs>
        <path d="M 31.78125 66.40625 
Q 24.171875 66.40625 20.328125 58.90625 
Q 16.5 51.421875 16.5 36.375 
Q 16.5 21.390625 20.328125 13.890625 
Q 24.171875 6.390625 31.78125 6.390625 
Q 39.453125 6.390625 43.28125 13.890625 
Q 47.125 21.390625 47.125 36.375 
Q 47.125 51.421875 43.28125 58.90625 
Q 39.453125 66.40625 31.78125 66.40625 
z
M 31.78125 74.21875 
Q 44.046875 74.21875 50.515625 64.515625 
Q 56.984375 54.828125 56.984375 36.375 
Q 56.984375 17.96875 50.515625 8.265625 
Q 44.046875 -1.421875 31.78125 -1.421875 
Q 19.53125 -1.421875 13.0625 8.265625 
Q 6.59375 17.96875 6.59375 36.375 
Q 6.59375 54.828125 13.0625 64.515625 
Q 19.53125 74.21875 31.78125 74.21875 
z
" id="DejaVuSans-48"/>
       </defs>
       <use xlink:href="#DejaVuSans-48"/>
      </g>
     </g>
    </g>
    <g id="xtick_2">
     <g id="line2d_2">
      <g>
       <use style="stroke:#000000;stroke-width:0.8;" x="143.08185" xlink:href="#ma3ce734bd6" y="303.64"/>
      </g>
     </g>
     <g id="text_2">
      <!-- 2000 -->
      <g transform="translate(130.35685 318.238437)scale(0.1 -0.1)">
       <defs>
        <path d="M 19.1875 8.296875 
L 53.609375 8.296875 
L 53.609375 0 
L 7.328125 0 
L 7.328125 8.296875 
Q 12.9375 14.109375 22.625 23.890625 
Q 32.328125 33.6875 34.8125 36.53125 
Q 39.546875 41.84375 41.421875 45.53125 
Q 43.3125 49.21875 43.3125 52.78125 
Q 43.3125 58.59375 39.234375 62.25 
Q 35.15625 65.921875 28.609375 65.921875 
Q 23.96875 65.921875 18.8125 64.3125 
Q 13.671875 62.703125 7.8125 59.421875 
L 7.8125 69.390625 
Q 13.765625 71.78125 18.9375 73 
Q 24.125 74.21875 28.421875 74.21875 
Q 39.75 74.21875 46.484375 68.546875 
Q 53.21875 62.890625 53.21875 53.421875 
Q 53.21875 48.921875 51.53125 44.890625 
Q 49.859375 40.875 45.40625 35.40625 
Q 44.1875 33.984375 37.640625 27.21875 
Q 31.109375 20.453125 19.1875 8.296875 
z
" id="DejaVuSans-50"/>
       </defs>
       <use xlink:href="#DejaVuSans-50"/>
       <use x="63.623047" xlink:href="#DejaVuSans-48"/>
       <use x="127.246094" xlink:href="#DejaVuSans-48"/>
       <use x="190.869141" xlink:href="#DejaVuSans-48"/>
      </g>
     </g>
    </g>
    <g id="xtick_3">
     <g id="line2d_3">
      <g>
       <use style="stroke:#000000;stroke-width:0.8;" x="222.429291" xlink:href="#ma3ce734bd6" y="303.64"/>
      </g>
     </g>
     <g id="text_3">
      <!-- 4000 -->
      <g transform="translate(209.704291 318.238437)scale(0.1 -0.1)">
       <defs>
        <path d="M 37.796875 64.3125 
L 12.890625 25.390625 
L 37.796875 25.390625 
z
M 35.203125 72.90625 
L 47.609375 72.90625 
L 47.609375 25.390625 
L 58.015625 25.390625 
L 58.015625 17.1875 
L 47.609375 17.1875 
L 47.609375 0 
L 37.796875 0 
L 37.796875 17.1875 
L 4.890625 17.1875 
L 4.890625 26.703125 
z
" id="DejaVuSans-52"/>
       </defs>
       <use xlink:href="#DejaVuSans-52"/>
       <use x="63.623047" xlink:href="#DejaVuSans-48"/>
       <use x="127.246094" xlink:href="#DejaVuSans-48"/>
       <use x="190.869141" xlink:href="#DejaVuSans-48"/>
      </g>
     </g>
    </g>
    <g id="xtick_4">
     <g id="line2d_4">
      <g>
       <use style="stroke:#000000;stroke-width:0.8;" x="301.776733" xlink:href="#ma3ce734bd6" y="303.64"/>
      </g>
     </g>
     <g id="text_4">
      <!-- 6000 -->
      <g transform="translate(289.051733 318.238437)scale(0.1 -0.1)">
       <defs>
        <path d="M 33.015625 40.375 
Q 26.375 40.375 22.484375 35.828125 
Q 18.609375 31.296875 18.609375 23.390625 
Q 18.609375 15.53125 22.484375 10.953125 
Q 26.375 6.390625 33.015625 6.390625 
Q 39.65625 6.390625 43.53125 10.953125 
Q 47.40625 15.53125 47.40625 23.390625 
Q 47.40625 31.296875 43.53125 35.828125 
Q 39.65625 40.375 33.015625 40.375 
z
M 52.59375 71.296875 
L 52.59375 62.3125 
Q 48.875 64.0625 45.09375 64.984375 
Q 41.3125 65.921875 37.59375 65.921875 
Q 27.828125 65.921875 22.671875 59.328125 
Q 17.53125 52.734375 16.796875 39.40625 
Q 19.671875 43.65625 24.015625 45.921875 
Q 28.375 48.1875 33.59375 48.1875 
Q 44.578125 48.1875 50.953125 41.515625 
Q 57.328125 34.859375 57.328125 23.390625 
Q 57.328125 12.15625 50.6875 5.359375 
Q 44.046875 -1.421875 33.015625 -1.421875 
Q 20.359375 -1.421875 13.671875 8.265625 
Q 6.984375 17.96875 6.984375 36.375 
Q 6.984375 53.65625 15.1875 63.9375 
Q 23.390625 74.21875 37.203125 74.21875 
Q 40.921875 74.21875 44.703125 73.484375 
Q 48.484375 72.75 52.59375 71.296875 
z
" id="DejaVuSans-54"/>
       </defs>
       <use xlink:href="#DejaVuSans-54"/>
       <use x="63.623047" xlink:href="#DejaVuSans-48"/>
       <use x="127.246094" xlink:href="#DejaVuSans-48"/>
       <use x="190.869141" xlink:href="#DejaVuSans-48"/>
      </g>
     </g>
    </g>
    <g id="xtick_5">
     <g id="line2d_5">
      <g>
       <use style="stroke:#000000;stroke-width:0.8;" x="381.124174" xlink:href="#ma3ce734bd6" y="303.64"/>
      </g>
     </g>
     <g id="text_5">
      <!-- 8000 -->
      <g transform="translate(368.399174 318.238437)scale(0.1 -0.1)">
       <defs>
        <path d="M 31.78125 34.625 
Q 24.75 34.625 20.71875 30.859375 
Q 16.703125 27.09375 16.703125 20.515625 
Q 16.703125 13.921875 20.71875 10.15625 
Q 24.75 6.390625 31.78125 6.390625 
Q 38.8125 6.390625 42.859375 10.171875 
Q 46.921875 13.96875 46.921875 20.515625 
Q 46.921875 27.09375 42.890625 30.859375 
Q 38.875 34.625 31.78125 34.625 
z
M 21.921875 38.8125 
Q 15.578125 40.375 12.03125 44.71875 
Q 8.5 49.078125 8.5 55.328125 
Q 8.5 64.0625 14.71875 69.140625 
Q 20.953125 74.21875 31.78125 74.21875 
Q 42.671875 74.21875 48.875 69.140625 
Q 55.078125 64.0625 55.078125 55.328125 
Q 55.078125 49.078125 51.53125 44.71875 
Q 48 40.375 41.703125 38.8125 
Q 48.828125 37.15625 52.796875 32.3125 
Q 56.78125 27.484375 56.78125 20.515625 
Q 56.78125 9.90625 50.3125 4.234375 
Q 43.84375 -1.421875 31.78125 -1.421875 
Q 19.734375 -1.421875 13.25 4.234375 
Q 6.78125 9.90625 6.78125 20.515625 
Q 6.78125 27.484375 10.78125 32.3125 
Q 14.796875 37.15625 21.921875 38.8125 
z
M 18.3125 54.390625 
Q 18.3125 48.734375 21.84375 45.5625 
Q 25.390625 42.390625 31.78125 42.390625 
Q 38.140625 42.390625 41.71875 45.5625 
Q 45.3125 48.734375 45.3125 54.390625 
Q 45.3125 60.0625 41.71875 63.234375 
Q 38.140625 66.40625 31.78125 66.40625 
Q 25.390625 66.40625 21.84375 63.234375 
Q 18.3125 60.0625 18.3125 54.390625 
z
" id="DejaVuSans-56"/>
       </defs>
       <use xlink:href="#DejaVuSans-56"/>
       <use x="63.623047" xlink:href="#DejaVuSans-48"/>
       <use x="127.246094" xlink:href="#DejaVuSans-48"/>
       <use x="190.869141" xlink:href="#DejaVuSans-48"/>
      </g>
     </g>
    </g>
    <g id="text_6">
     <!-- Time -->
     <g transform="translate(236.626406 331.916562)scale(0.1 -0.1)">
      <defs>
       <path d="M -0.296875 72.90625 
L 61.375 72.90625 
L 61.375 64.59375 
L 35.5 64.59375 
L 35.5 0 
L 25.59375 0 
L 25.59375 64.59375 
L -0.296875 64.59375 
z
" id="DejaVuSans-84"/>
       <path d="M 9.421875 54.6875 
L 18.40625 54.6875 
L 18.40625 0 
L 9.421875 0 
z
M 9.421875 75.984375 
L 18.40625 75.984375 
L 18.40625 64.59375 
L 9.421875 64.59375 
z
" id="DejaVuSans-105"/>
       <path d="M 52 44.1875 
Q 55.375 50.25 60.0625 53.125 
Q 64.75 56 71.09375 56 
Q 79.640625 56 84.28125 50.015625 
Q 88.921875 44.046875 88.921875 33.015625 
L 88.921875 0 
L 79.890625 0 
L 79.890625 32.71875 
Q 79.890625 40.578125 77.09375 44.375 
Q 74.3125 48.1875 68.609375 48.1875 
Q 61.625 48.1875 57.5625 43.546875 
Q 53.515625 38.921875 53.515625 30.90625 
L 53.515625 0 
L 44.484375 0 
L 44.484375 32.71875 
Q 44.484375 40.625 41.703125 44.40625 
Q 38.921875 48.1875 33.109375 48.1875 
Q 26.21875 48.1875 22.15625 43.53125 
Q 18.109375 38.875 18.109375 30.90625 
L 18.109375 0 
L 9.078125 0 
L 9.078125 54.6875 
L 18.109375 54.6875 
L 18.109375 46.1875 
Q 21.1875 51.21875 25.484375 53.609375 
Q 29.78125 56 35.6875 56 
Q 41.65625 56 45.828125 52.96875 
Q 50 49.953125 52 44.1875 
z
" id="DejaVuSans-109"/>
       <path d="M 56.203125 29.59375 
L 56.203125 25.203125 
L 14.890625 25.203125 
Q 15.484375 15.921875 20.484375 11.0625 
Q 25.484375 6.203125 34.421875 6.203125 
Q 39.59375 6.203125 44.453125 7.46875 
Q 49.3125 8.734375 54.109375 11.28125 
L 54.109375 2.78125 
Q 49.265625 0.734375 44.1875 -0.34375 
Q 39.109375 -1.421875 33.890625 -1.421875 
Q 20.796875 -1.421875 13.15625 6.1875 
Q 5.515625 13.8125 5.515625 26.8125 
Q 5.515625 40.234375 12.765625 48.109375 
Q 20.015625 56 32.328125 56 
Q 43.359375 56 49.78125 48.890625 
Q 56.203125 41.796875 56.203125 29.59375 
z
M 47.21875 32.234375 
Q 47.125 39.59375 43.09375 43.984375 
Q 39.0625 48.390625 32.421875 48.390625 
Q 24.90625 48.390625 20.390625 44.140625 
Q 15.875 39.890625 15.1875 32.171875 
z
" id="DejaVuSans-101"/>
      </defs>
      <use xlink:href="#DejaVuSans-84"/>
      <use x="57.958984" xlink:href="#DejaVuSans-105"/>
      <use x="85.742188" xlink:href="#DejaVuSans-109"/>
      <use x="183.154297" xlink:href="#DejaVuSans-101"/>
     </g>
    </g>
   </g>
   <g id="matplotlib.axis_2">
    <g id="ytick_1">
     <g id="line2d_6">
      <defs>
       <path d="M 0 0 
L -3.5 0 
" id="m45aa0b28fc" style="stroke:#000000;stroke-width:0.8;"/>
      </defs>
      <g>
       <use style="stroke:#000000;stroke-width:0.8;" x="47.72" xlink:href="#m45aa0b28fc" y="303.64"/>
      </g>
     </g>
     <g id="text_7">
      <!-- 0.0 -->
      <g transform="translate(24.816875 307.439219)scale(0.1 -0.1)">
       <defs>
        <path d="M 10.6875 12.40625 
L 21 12.40625 
L 21 0 
L 10.6875 0 
z
" id="DejaVuSans-46"/>
       </defs>
       <use xlink:href="#DejaVuSans-48"/>
       <use x="63.623047" xlink:href="#DejaVuSans-46"/>
       <use x="95.410156" xlink:href="#DejaVuSans-48"/>
      </g>
     </g>
    </g>
    <g id="ytick_2">
     <g id="line2d_7">
      <g>
       <use style="stroke:#000000;stroke-width:0.8;" x="47.72" xlink:href="#m45aa0b28fc" y="245.864"/>
      </g>
     </g>
     <g id="text_8">
      <!-- 0.5 -->
      <g transform="translate(24.816875 249.663219)scale(0.1 -0.1)">
       <defs>
        <path d="M 10.796875 72.90625 
L 49.515625 72.90625 
L 49.515625 64.59375 
L 19.828125 64.59375 
L 19.828125 46.734375 
Q 21.96875 47.46875 24.109375 47.828125 
Q 26.265625 48.1875 28.421875 48.1875 
Q 40.625 48.1875 47.75 41.5 
Q 54.890625 34.8125 54.890625 23.390625 
Q 54.890625 11.625 47.5625 5.09375 
Q 40.234375 -1.421875 26.90625 -1.421875 
Q 22.3125 -1.421875 17.546875 -0.640625 
Q 12.796875 0.140625 7.71875 1.703125 
L 7.71875 11.625 
Q 12.109375 9.234375 16.796875 8.0625 
Q 21.484375 6.890625 26.703125 6.890625 
Q 35.15625 6.890625 40.078125 11.328125 
Q 45.015625 15.765625 45.015625 23.390625 
Q 45.015625 31 40.078125 35.4375 
Q 35.15625 39.890625 26.703125 39.890625 
Q 22.75 39.890625 18.8125 39.015625 
Q 14.890625 38.140625 10.796875 36.28125 
z
" id="DejaVuSans-53"/>
       </defs>
       <use xlink:href="#DejaVuSans-48"/>
       <use x="63.623047" xlink:href="#DejaVuSans-46"/>
       <use x="95.410156" xlink:href="#DejaVuSans-53"/>
      </g>
     </g>
    </g>
    <g id="ytick_3">
     <g id="line2d_8">
      <g>
       <use style="stroke:#000000;stroke-width:0.8;" x="47.72" xlink:href="#m45aa0b28fc" y="188.088"/>
      </g>
     </g>
     <g id="text_9">
      <!-- 1.0 -->
      <g transform="translate(24.816875 191.887219)scale(0.1 -0.1)">
       <defs>
        <path d="M 12.40625 8.296875 
L 28.515625 8.296875 
L 28.515625 63.921875 
L 10.984375 60.40625 
L 10.984375 69.390625 
L 28.421875 72.90625 
L 38.28125 72.90625 
L 38.28125 8.296875 
L 54.390625 8.296875 
L 54.390625 0 
L 12.40625 0 
z
" id="DejaVuSans-49"/>
       </defs>
       <use xlink:href="#DejaVuSans-49"/>
       <use x="63.623047" xlink:href="#DejaVuSans-46"/>
       <use x="95.410156" xlink:href="#DejaVuSans-48"/>
      </g>
     </g>
    </g>
    <g id="ytick_4">
     <g id="line2d_9">
      <g>
       <use style="stroke:#000000;stroke-width:0.8;" x="47.72" xlink:href="#m45aa0b28fc" y="130.312"/>
      </g>
     </g>
     <g id="text_10">
      <!-- 1.5 -->
      <g transform="translate(24.816875 134.111219)scale(0.1 -0.1)">
       <use xlink:href="#DejaVuSans-49"/>
       <use x="63.623047" xlink:href="#DejaVuSans-46"/>
       <use x="95.410156" xlink:href="#DejaVuSans-53"/>
      </g>
     </g>
    </g>
    <g id="ytick_5">
     <g id="line2d_10">
      <g>
       <use style="stroke:#000000;stroke-width:0.8;" x="47.72" xlink:href="#m45aa0b28fc" y="72.536"/>
      </g>
     </g>
     <g id="text_11">
      <!-- 2.0 -->
      <g transform="translate(24.816875 76.335219)scale(0.1 -0.1)">
       <use xlink:href="#DejaVuSans-50"/>
       <use x="63.623047" xlink:href="#DejaVuSans-46"/>
       <use x="95.410156" xlink:href="#DejaVuSans-48"/>
      </g>
     </g>
    </g>
    <g id="ytick_6">
     <g id="line2d_11">
      <g>
       <use style="stroke:#000000;stroke-width:0.8;" x="47.72" xlink:href="#m45aa0b28fc" y="14.76"/>
      </g>
     </g>
     <g id="text_12">
      <!-- 2.5 -->
      <g transform="translate(24.816875 18.559219)scale(0.1 -0.1)">
       <use xlink:href="#DejaVuSans-50"/>
       <use x="63.623047" xlink:href="#DejaVuSans-46"/>
       <use x="95.410156" xlink:href="#DejaVuSans-53"/>
      </g>
     </g>
    </g>
    <g id="text_13">
     <!-- Loss -->
     <g transform="translate(18.737188 170.167187)rotate(-90)scale(0.1 -0.1)">
      <defs>
       <path d="M 9.8125 72.90625 
L 19.671875 72.90625 
L 19.671875 8.296875 
L 55.171875 8.296875 
L 55.171875 0 
L 9.8125 0 
z
" id="DejaVuSans-76"/>
       <path d="M 30.609375 48.390625 
Q 23.390625 48.390625 19.1875 42.75 
Q 14.984375 37.109375 14.984375 27.296875 
Q 14.984375 17.484375 19.15625 11.84375 
Q 23.34375 6.203125 30.609375 6.203125 
Q 37.796875 6.203125 41.984375 11.859375 
Q 46.1875 17.53125 46.1875 27.296875 
Q 46.1875 37.015625 41.984375 42.703125 
Q 37.796875 48.390625 30.609375 48.390625 
z
M 30.609375 56 
Q 42.328125 56 49.015625 48.375 
Q 55.71875 40.765625 55.71875 27.296875 
Q 55.71875 13.875 49.015625 6.21875 
Q 42.328125 -1.421875 30.609375 -1.421875 
Q 18.84375 -1.421875 12.171875 6.21875 
Q 5.515625 13.875 5.515625 27.296875 
Q 5.515625 40.765625 12.171875 48.375 
Q 18.84375 56 30.609375 56 
z
" id="DejaVuSans-111"/>
       <path d="M 44.28125 53.078125 
L 44.28125 44.578125 
Q 40.484375 46.53125 36.375 47.5 
Q 32.28125 48.484375 27.875 48.484375 
Q 21.1875 48.484375 17.84375 46.4375 
Q 14.5 44.390625 14.5 40.28125 
Q 14.5 37.15625 16.890625 35.375 
Q 19.28125 33.59375 26.515625 31.984375 
L 29.59375 31.296875 
Q 39.15625 29.25 43.1875 25.515625 
Q 47.21875 21.78125 47.21875 15.09375 
Q 47.21875 7.46875 41.1875 3.015625 
Q 35.15625 -1.421875 24.609375 -1.421875 
Q 20.21875 -1.421875 15.453125 -0.5625 
Q 10.6875 0.296875 5.421875 2 
L 5.421875 11.28125 
Q 10.40625 8.6875 15.234375 7.390625 
Q 20.0625 6.109375 24.8125 6.109375 
Q 31.15625 6.109375 34.5625 8.28125 
Q 37.984375 10.453125 37.984375 14.40625 
Q 37.984375 18.0625 35.515625 20.015625 
Q 33.0625 21.96875 24.703125 23.78125 
L 21.578125 24.515625 
Q 13.234375 26.265625 9.515625 29.90625 
Q 5.8125 33.546875 5.8125 39.890625 
Q 5.8125 47.609375 11.28125 51.796875 
Q 16.75 56 26.8125 56 
Q 31.78125 56 36.171875 55.265625 
Q 40.578125 54.546875 44.28125 53.078125 
z
" id="DejaVuSans-115"/>
      </defs>
      <use xlink:href="#DejaVuSans-76"/>
      <use x="53.962891" xlink:href="#DejaVuSans-111"/>
      <use x="115.144531" xlink:href="#DejaVuSans-115"/>
      <use x="167.244141" xlink:href="#DejaVuSans-115"/>
     </g>
    </g>
   </g>
   <g id="line2d_12">
    <path clip-path="url(#pa14bc7c870)" d="M 66.005455 44.7313 
L 68.194297 63.32795 
L 70.381728 83.211019 
L 72.558934 89.191737 
L 74.727635 106.005456 
L 76.909276 131.666125 
L 79.088257 147.2837 
L 81.270623 156.469181 
L 83.459384 169.559056 
L 85.628183 159.2 
L 87.801956 192.037531 
L 89.970931 197.375041 
L 92.143298 210.668034 
L 94.324268 212.981331 
L 96.47469 220.124341 
L 98.65901 223.4758 
L 100.825233 240.881948 
L 102.996621 228.136247 
L 105.185058 239.262641 
L 107.357115 239.302136 
L 109.523023 231.363578 
L 111.694889 236.746225 
L 113.884743 249.181606 
L 116.049174 244.18827 
L 118.220474 254.592464 
L 122.563595 253.475311 
L 124.731111 253.559944 
L 126.901505 257.018605 
L 129.089035 262.034509 
L 131.263107 257.120164 
L 133.441006 257.492548 
L 135.602211 268.472245 
L 137.781814 261.820106 
L 139.960948 277.059655 
L 142.121707 268.376328 
L 144.282965 268.596373 
L 146.482047 262.418178 
L 148.641774 264.009275 
L 150.819487 268.263484 
L 152.988573 267.750045 
L 155.161818 269.606325 
L 157.325756 269.267794 
L 159.484659 269.346784 
L 161.675659 276.100483 
L 163.856577 266.993992 
L 166.031599 264.556567 
L 168.20457 276.309244 
L 170.392054 271.062009 
L 172.582475 273.868998 
L 174.745483 271.541595 
L 176.918106 275.581402 
L 179.084888 272.263795 
L 181.264255 279.83279 
L 183.441163 279.666345 
L 185.616593 281.051502 
L 187.790721 271.355403 
L 189.986246 282.038885 
L 192.143619 280.267238 
L 194.315424 274.588377 
L 196.48468 277.629516 
L 198.656727 274.842275 
L 200.826327 277.045549 
L 203.017333 274.771748 
L 205.18106 278.13167 
L 207.3706 285.79094 
L 209.543828 282.995236 
L 211.704163 282.462049 
L 213.881722 281.607258 
L 216.04129 275.685782 
L 218.220647 273.355559 
L 220.391184 280.55499 
L 222.572546 284.168811 
L 224.741949 275.200554 
L 226.914952 283.824637 
L 229.091209 281.926041 
L 231.269918 286.789607 
L 233.437252 287.156349 
L 235.600214 286.197177 
L 237.786517 287.23534 
L 239.957802 287.31292 
L 242.139397 293.792972 
L 244.300992 288.376472 
L 246.469264 284.895243 
L 248.638062 283.240671 
L 250.817944 290.317385 
L 253.001543 288.149374 
L 255.203574 290.038096 
L 257.38033 289.816641 
L 259.563806 283.542528 
L 261.722168 294.247874 
L 263.907652 288.518937 
L 266.10099 294.427718 
L 268.275843 291.318873 
L 270.461339 291.166534 
L 272.634735 294.817029 
L 274.812405 292.103137 
L 276.996216 291.819617 
L 279.17151 291.246935 
L 281.35708 293.516505 
L 283.538317 298.749987 
L 285.719309 295.858013 
L 287.879761 296.936376 
L 292.230927 295.601999 
L 294.415517 297.81162 
L 296.5972 297.512584 
L 298.763448 298.84132 
L 300.94189 299.829408 
L 303.117356 300.419369 
L 305.320135 297.261507 
L 307.488814 299.292342 
L 309.657918 301.707727 
L 311.827049 301.171367 
L 314.005295 300.355718 
L 316.157265 300.85558 
L 318.339939 302.047669 
L 320.512646 301.017793 
L 322.696787 302.079494 
L 324.870792 302.033387 
L 327.040091 302.433718 
L 329.221749 302.282437 
L 331.395532 303.065555 
L 333.59144 303.008295 
L 335.773544 303.214566 
L 342.277055 303.399568 
L 344.452172 303.405155 
L 346.640855 303.222192 
L 348.798312 303.439757 
L 350.975164 303.298075 
L 355.314764 303.496411 
L 357.48666 303.469412 
L 359.681286 303.235239 
L 361.850761 303.498565 
L 372.751707 303.405794 
L 381.473279 303.534606 
L 383.656572 303.436727 
L 385.837574 303.515707 
L 390.188672 303.471737 
L 390.188672 303.471737 
" style="fill:none;stroke:#1f77b4;stroke-linecap:square;stroke-width:1.5;"/>
   </g>
   <g id="line2d_13">
    <path clip-path="url(#pa14bc7c870)" d="M 66.287532 36.651687 
L 68.727243 55.067787 
L 71.199744 69.669769 
L 73.647949 77.5914 
L 76.090234 89.733387 
L 78.544852 113.046906 
L 80.988422 126.046506 
L 83.421236 133.607037 
L 85.870473 153.016162 
L 88.326685 151.684606 
L 90.773393 185.785987 
L 93.244287 188.979466 
L 95.699478 207.102172 
L 98.127276 211.254822 
L 100.586996 222.57305 
L 103.07608 226.612856 
L 105.524718 241.705708 
L 107.963804 226.533866 
L 110.409834 243.494281 
L 112.863376 241.417956 
L 115.31197 235.651641 
L 117.773742 239.826859 
L 120.215982 252.047837 
L 122.680519 247.302758 
L 125.12282 253.227055 
L 127.554381 252.476644 
L 130.008003 254.699666 
L 132.449194 253.458384 
L 134.896392 259.202131 
L 137.329723 261.673409 
L 139.792564 261.024558 
L 142.229231 263.095241 
L 144.666647 269.183161 
L 147.116374 260.612678 
L 149.603981 276.159726 
L 152.095045 271.019693 
L 154.530797 269.668389 
L 156.985067 264.658127 
L 159.447819 265.290052 
L 161.89572 266.661103 
L 164.333202 267.236606 
L 166.76758 268.66408 
L 169.21817 266.407205 
L 171.657002 267.913669 
L 174.115264 274.785853 
L 176.582966 269.707884 
L 179.020735 266.322572 
L 181.462489 273.815397 
L 183.887512 273.200398 
L 186.342685 275.68014 
L 188.842185 273.316063 
L 191.282368 279.674809 
L 193.717837 276.675986 
L 196.16937 278.080891 
L 198.619504 282.707484 
L 201.072427 281.89783 
L 203.512197 273.558677 
L 205.983384 283.113722 
L 208.433698 279.119053 
L 210.89916 275.437526 
L 213.339681 281.993748 
L 215.815085 277.226099 
L 218.267754 274.024158 
L 220.725058 276.320528 
L 223.195908 277.285342 
L 225.656526 286.736006 
L 228.108432 284.470668 
L 230.558419 283.697688 
L 233.022838 286.803712 
L 235.473228 275.070784 
L 237.907442 273.496613 
L 240.368234 277.561809 
L 242.831585 285.728876 
L 245.282349 276.915779 
L 247.746911 285.080024 
L 250.19661 279.305245 
L 252.661109 287.121086 
L 255.13364 287.949077 
L 257.602685 287.689536 
L 260.078977 288.066152 
L 262.525881 286.002522 
L 264.96646 291.162302 
L 267.422765 288.974544 
L 269.863755 289.627627 
L 272.31091 282.383059 
L 274.753924 291.018427 
L 277.203057 290.121319 
L 279.667926 287.679662 
L 282.111198 290.826592 
L 284.560166 284.995391 
L 287.009467 294.011607 
L 289.466281 287.998446 
L 291.919156 295.054706 
L 294.379648 293.289407 
L 296.824725 291.718058 
L 299.294458 294.513056 
L 301.748252 292.29215 
L 304.207127 291.080491 
L 306.668495 294.761313 
L 309.106378 294.873451 
L 311.587544 299.125545 
L 314.046164 296.614066 
L 316.495096 296.837638 
L 318.943076 295.410164 
L 321.408435 296.968113 
L 323.857317 298.262995 
L 326.33233 300.207963 
L 328.820426 298.003455 
L 331.282298 299.118139 
L 333.738727 301.872408 
L 336.191695 300.980767 
L 338.641605 300.511054 
L 341.09907 301.607226 
L 343.556399 300.17076 
L 346.024879 300.635535 
L 348.482036 302.092983 
L 350.922996 301.926009 
L 353.39091 302.683826 
L 355.871766 302.033475 
L 358.320317 302.715298 
L 360.76487 302.129128 
L 363.213665 302.500454 
L 365.653894 303.164998 
L 370.524686 303.059494 
L 372.971357 303.491694 
L 380.301425 303.501348 
L 382.757495 303.412671 
L 385.204266 303.558872 
L 390.127652 303.389452 
L 395.035825 303.515387 
L 404.790079 303.56674 
L 407.247952 303.130881 
L 409.69232 303.506263 
L 412.126402 303.555433 
L 414.585884 303.487286 
L 421.961468 303.560221 
L 431.714545 303.549538 
L 431.714545 303.549538 
" style="fill:none;stroke:#ff7f0e;stroke-linecap:square;stroke-width:1.5;"/>
   </g>
   <g id="line2d_14">
    <path clip-path="url(#pa14bc7c870)" d="M 66.115733 55.722281 
L 68.399587 73.957831 
L 70.675096 83.120744 
L 72.965882 81.811756 
L 75.257385 100.024737 
L 77.550761 116.928731 
L 79.846243 126.858981 
L 82.129986 130.49255 
L 84.414659 142.002612 
L 86.705371 136.360425 
L 88.994503 156.694869 
L 91.279175 164.819619 
L 93.567014 179.816553 
L 95.851412 178.992794 
L 98.144037 199.722191 
L 100.43232 198.142378 
L 102.713933 219.672966 
L 105.004814 205.296672 
L 107.286879 225.563409 
L 109.570258 221.726722 
L 111.848501 214.8094 
L 114.131225 227.673587 
L 116.412123 238.083423 
L 118.705045 230.088444 
L 120.984399 237.733608 
L 123.261346 244.54937 
L 125.544579 243.810244 
L 127.82198 242.631027 
L 130.097147 250.236695 
L 132.37876 254.716592 
L 134.66314 255.500856 
L 136.937518 254.58118 
L 139.216911 258.620986 
L 141.506294 256.098928 
L 143.782605 264.184183 
L 146.061038 263.811798 
L 148.34622 262.626939 
L 150.630528 261.695978 
L 152.905593 259.049792 
L 155.180574 261.498502 
L 157.46371 259.664791 
L 159.74923 265.938903 
L 162.028994 263.552258 
L 164.312557 266.954497 
L 166.587001 271.019693 
L 168.860164 265.984041 
L 171.138388 265.560877 
L 173.414885 270.983019 
L 175.697737 269.092886 
L 177.974535 271.29616 
L 180.249608 268.156283 
L 182.524162 274.342941 
L 184.797781 270.413158 
L 187.078489 278.915934 
L 189.357778 279.717125 
L 191.634439 280.927374 
L 193.909465 271.482352 
L 196.193005 278.487128 
L 198.466547 280.360334 
L 200.745548 274.218813 
L 203.016721 276.58289 
L 205.297996 271.076115 
L 207.575135 273.804112 
L 209.850372 277.654905 
L 212.134334 278.608435 
L 214.414469 285.659759 
L 216.688423 281.220768 
L 218.965371 278.007542 
L 221.246712 283.731541 
L 223.525966 273.000101 
L 225.804923 274.337299 
L 228.079512 281.296938 
L 230.353052 279.83279 
L 232.63218 276.667523 
L 234.909745 282.143266 
L 237.183275 277.48564 
L 239.45547 287.112622 
L 241.740721 285.497546 
L 244.012395 284.507342 
L 246.297028 287.683894 
L 248.576451 284.645576 
L 250.854124 291.623551 
L 253.131264 286.662658 
L 255.410099 288.187459 
L 257.686628 280.901984 
L 259.963908 290.904172 
L 262.237111 288.904017 
L 264.517636 286.167556 
L 266.790098 289.990138 
L 269.071079 281.863977 
L 271.349381 291.990293 
L 273.625755 286.17743 
L 275.908788 293.051025 
L 278.18854 289.767271 
L 280.460443 291.59393 
L 282.742387 291.328747 
L 285.033709 291.657404 
L 287.310896 294.190746 
L 289.586834 291.7505 
L 291.865436 295.136518 
L 294.144758 296.635224 
L 296.420525 293.678718 
L 298.697958 295.965214 
L 300.983074 296.684593 
L 303.260752 297.91459 
L 305.531263 298.082445 
L 307.810876 298.896331 
L 310.095144 296.941313 
L 314.648003 300.99399 
L 316.921232 300.247987 
L 319.195703 300.736037 
L 321.476028 300.920466 
L 323.749125 299.811071 
L 326.034209 299.57833 
L 328.30615 300.159123 
L 330.580131 301.509193 
L 332.859863 301.051118 
L 335.136201 301.166871 
L 337.40989 302.6721 
L 339.687757 302.160248 
L 341.964376 302.595975 
L 344.244272 302.600317 
L 346.518079 303.32082 
L 348.795295 303.26204 
L 351.077647 302.916929 
L 353.35622 303.328512 
L 355.629408 303.153383 
L 362.465271 303.495584 
L 364.743061 303.073588 
L 367.020327 303.425718 
L 369.297338 303.51574 
L 371.574942 303.477743 
L 373.848998 303.299948 
L 376.121946 303.489589 
L 380.674868 303.560701 
L 382.951854 303.277467 
L 385.229358 303.498449 
L 405.711709 303.552381 
L 405.711709 303.552381 
" style="fill:none;stroke:#2ca02c;stroke-linecap:square;stroke-width:1.5;"/>
   </g>
   <g id="line2d_15">
    <path clip-path="url(#pa14bc7c870)" d="M 66.177602 45.318087 
L 68.491654 71.069031 
L 70.813592 85.671012 
L 73.170734 92.080537 
L 75.483847 109.119944 
L 77.776193 128.957875 
L 80.109356 144.643156 
L 82.437212 143.537287 
L 84.743927 159.222569 
L 87.060093 157.484775 
L 89.405679 182.85205 
L 91.731332 187.647909 
L 94.029179 204.134381 
L 96.351548 204.416491 
L 98.63642 216.366644 
L 100.965315 218.939481 
L 103.252909 233.925131 
L 105.568572 226.263041 
L 107.900641 238.732275 
L 110.206237 237.152462 
L 112.491671 229.219547 
L 114.798825 234.353937 
L 117.12794 253.791273 
L 119.454315 241.006077 
L 121.740789 250.484952 
L 124.05362 252.008342 
L 126.350511 246.546705 
L 128.654216 252.392011 
L 130.9734 252.408937 
L 133.287266 262.700288 
L 135.623951 259.574516 
L 137.950703 259.089287 
L 140.258689 263.924642 
L 142.58742 260.386991 
L 144.893815 270.063342 
L 147.236694 270.554213 
L 149.533822 265.284409 
L 151.875424 263.873862 
L 154.221796 264.584778 
L 156.535977 264.878172 
L 158.830607 261.385658 
L 161.141162 268.500456 
L 163.449131 269.185982 
L 165.756692 268.697933 
L 168.059507 275.324682 
L 170.348095 270.001278 
L 172.662017 269.149308 
L 174.993528 273.648952 
L 177.290106 271.101505 
L 179.613278 272.108635 
L 181.940914 271.417467 
L 184.231576 275.296471 
L 186.529495 273.059344 
L 188.827924 277.855203 
L 191.154746 281.66368 
L 193.483157 281.367465 
L 195.797868 273.386591 
L 198.097934 283.240671 
L 200.393877 281.460561 
L 202.695476 273.795649 
L 205.013376 283.517138 
L 207.332443 277.310732 
L 209.623677 273.733585 
L 211.943712 279.418089 
L 214.26015 280.267238 
L 216.572219 287.174686 
L 218.882653 282.896498 
L 221.196251 280.365977 
L 223.497135 287.239571 
L 225.807429 274.213171 
L 228.118694 277.361512 
L 230.431338 278.901829 
L 232.745532 283.449432 
L 235.08993 278.063964 
L 237.402472 285.466514 
L 239.700313 280.320839 
L 242.046536 286.10126 
L 244.371431 286.764217 
L 246.698868 284.163169 
L 249.030264 287.485007 
L 251.339274 280.794783 
L 253.648693 291.351316 
L 255.967903 286.355159 
L 258.292435 287.164812 
L 260.626993 281.401318 
L 262.974325 289.843441 
L 265.247326 289.245369 
L 267.546825 288.901196 
L 269.832725 289.045071 
L 272.152584 286.293095 
L 274.47066 292.735062 
L 276.801697 284.693534 
L 279.144334 294.183694 
L 281.490772 290.733496 
L 283.789171 291.664457 
L 286.128284 292.96075 
L 288.451233 292.229381 
L 290.751183 295.161203 
L 293.061823 293.773225 
L 295.368906 294.778945 
L 297.720219 298.186121 
L 300.022161 295.581546 
L 302.355768 297.259391 
L 304.691678 293.627233 
L 307.017712 296.475127 
L 309.345988 299.665784 
L 311.642152 299.6545 
L 313.963746 298.258058 
L 316.271697 299.524377 
L 318.614467 301.573549 
L 320.945792 299.272947 
L 323.256293 299.957767 
L 325.565493 300.460804 
L 330.23324 299.523143 
L 332.543281 301.377571 
L 334.881834 300.757371 
L 337.22922 302.063361 
L 339.548614 301.967091 
L 341.863353 302.937063 
L 344.207185 301.892068 
L 346.517597 302.572304 
L 348.834683 303.10375 
L 351.150954 303.214764 
L 353.460103 303.104675 
L 355.801864 303.419205 
L 358.114168 303.386642 
L 362.714184 303.540105 
L 365.043312 303.466756 
L 367.363621 303.554475 
L 369.672957 303.285931 
L 374.326793 303.531498 
L 376.651179 303.392074 
L 378.959022 302.655251 
L 381.278091 303.528032 
L 383.585733 303.437708 
L 385.930013 303.567296 
L 388.253778 303.319321 
L 390.549744 303.539102 
L 399.805489 303.564877 
L 411.349508 303.566123 
L 411.349508 303.566123 
" style="fill:none;stroke:#d62728;stroke-linecap:square;stroke-width:1.5;"/>
   </g>
   <g id="line2d_16">
    <path clip-path="url(#pa14bc7c870)" d="M 66.132783 29.429687 
L 68.431648 77.862225 
L 70.766194 98.5352 
L 73.069392 109.706731 
L 75.392677 124.556969 
L 77.723161 153.129006 
L 80.042864 160.441281 
L 82.346055 160.238162 
L 84.6731 175.426931 
L 86.999484 170.664925 
L 89.328672 193.019272 
L 91.654104 193.369087 
L 93.983897 211.345097 
L 96.30858 212.450966 
L 98.620873 225.631116 
L 100.954167 221.816997 
L 103.280816 236.757509 
L 105.613139 229.964316 
L 107.948378 239.651952 
L 110.256341 238.704064 
L 112.563883 225.868087 
L 114.888852 235.990172 
L 117.206796 248.955919 
L 119.533507 238.895898 
L 121.831248 246.693402 
L 124.15206 246.484641 
L 126.474591 247.494592 
L 128.793101 246.76675 
L 131.099473 250.405961 
L 133.393684 257.328925 
L 135.720546 253.181917 
L 138.039127 254.485262 
L 140.346886 257.797227 
L 142.658131 256.651862 
L 144.96732 266.892433 
L 147.269535 263.806156 
L 149.586416 263.862578 
L 151.899027 259.670433 
L 154.206547 257.041173 
L 156.51551 260.285431 
L 158.831681 258.163969 
L 161.136055 260.020248 
L 163.449754 261.492859 
L 165.789107 263.603037 
L 168.092113 267.546927 
L 170.408862 262.107858 
L 172.739735 261.250245 
L 175.038597 266.074316 
L 177.338645 268.506098 
L 179.664079 266.649819 
L 182.002087 265.927619 
L 184.309636 270.59935 
L 186.615576 263.569184 
L 188.893202 270.356736 
L 191.186907 275.649108 
L 193.517606 277.626695 
L 195.829239 267.03913 
L 198.132453 276.659059 
L 200.461729 274.069295 
L 202.787955 269.115455 
L 205.113978 275.434705 
L 207.437873 270.243892 
L 209.754589 268.359402 
L 212.085924 273.12705 
L 214.375871 272.001434 
L 216.693308 281.979642 
L 218.998674 276.817041 
L 221.325283 274.805601 
L 223.636071 280.312376 
L 225.943399 267.733119 
L 228.241848 267.970091 
L 230.569143 275.832479 
L 232.915686 277.728254 
L 235.243855 269.634536 
L 237.526702 275.818373 
L 239.820598 273.691269 
L 242.111585 279.8074 
L 244.422453 280.927374 
L 246.731086 279.914602 
L 249.058346 281.034576 
L 251.369892 278.092175 
L 253.655426 288.805279 
L 255.941756 279.186759 
L 258.256144 284.084178 
L 260.582292 275.874795 
L 262.89999 288.131037 
L 265.200991 283.048837 
L 267.494499 280.961227 
L 269.794368 286.326948 
L 272.101071 274.859202 
L 274.428157 286.287452 
L 276.757032 282.312531 
L 279.052681 288.609213 
L 281.372416 283.606003 
L 283.690121 286.43697 
L 288.316748 287.343952 
L 290.622026 291.277967 
L 292.953853 286.688048 
L 295.272366 290.870319 
L 297.59482 296.569634 
L 299.911767 291.476854 
L 302.206177 295.527945 
L 304.517598 290.114266 
L 306.857406 292.919844 
L 309.145492 294.613911 
L 311.46549 296.89406 
L 313.795076 294.686554 
L 316.100803 294.860051 
L 318.416653 297.967486 
L 323.030559 297.341908 
L 325.341452 298.988369 
L 327.647183 298.065519 
L 329.97159 296.828822 
L 332.279023 298.997538 
L 334.587574 300.057211 
L 336.884298 298.947816 
L 339.190914 299.247557 
L 341.493441 300.49977 
L 343.791767 300.346726 
L 346.115236 300.656164 
L 348.411298 301.823304 
L 350.707307 302.21764 
L 353.015028 302.167918 
L 355.317574 302.516764 
L 357.633689 303.022092 
L 359.949948 303.0131 
L 362.2322 303.343543 
L 364.52432 303.159444 
L 366.847498 303.407039 
L 369.162682 302.96091 
L 376.094377 303.257962 
L 378.396948 302.805772 
L 380.707479 303.55891 
L 383.024295 303.372547 
L 385.334948 303.465654 
L 387.648314 302.824968 
L 389.959945 303.458921 
L 392.277067 303.454535 
L 394.598249 303.338441 
L 396.915358 303.539653 
L 401.548251 303.471759 
L 403.854996 303.29781 
L 406.148425 303.395149 
L 410.762571 303.282504 
L 410.762571 303.282504 
" style="fill:none;stroke:#9467bd;stroke-linecap:square;stroke-width:1.5;"/>
   </g>
   <g id="patch_3">
    <path d="M 47.72 303.64 
L 47.72 14.76 
" style="fill:none;stroke:#000000;stroke-linecap:square;stroke-linejoin:miter;stroke-width:0.8;"/>
   </g>
   <g id="patch_4">
    <path d="M 450 303.64 
L 450 14.76 
" style="fill:none;stroke:#000000;stroke-linecap:square;stroke-linejoin:miter;stroke-width:0.8;"/>
   </g>
   <g id="patch_5">
    <path d="M 47.72 303.64 
L 450 303.64 
" style="fill:none;stroke:#000000;stroke-linecap:square;stroke-linejoin:miter;stroke-width:0.8;"/>
   </g>
   <g id="patch_6">
    <path d="M 47.72 14.76 
L 450 14.76 
" style="fill:none;stroke:#000000;stroke-linecap:square;stroke-linejoin:miter;stroke-width:0.8;"/>
   </g>
   <g id="legend_1">
    <g id="patch_7">
     <path d="M 291.78125 96.150625 
L 443 96.150625 
Q 445 96.150625 445 94.150625 
L 445 21.76 
Q 445 19.76 443 19.76 
L 291.78125 19.76 
Q 289.78125 19.76 289.78125 21.76 
L 289.78125 94.150625 
Q 289.78125 96.150625 291.78125 96.150625 
z
" style="fill:#ffffff;opacity:0.8;stroke:#cccccc;stroke-linejoin:miter;"/>
    </g>
    <g id="line2d_17">
     <path d="M 293.78125 27.858437 
L 313.78125 27.858437 
" style="fill:none;stroke:#1f77b4;stroke-linecap:square;stroke-width:1.5;"/>
    </g>
    <g id="line2d_18"/>
    <g id="text_14">
     <!-- AllReduce SGD -->
     <g transform="translate(321.78125 31.358437)scale(0.1 -0.1)">
      <defs>
       <path d="M 34.1875 63.1875 
L 20.796875 26.90625 
L 47.609375 26.90625 
z
M 28.609375 72.90625 
L 39.796875 72.90625 
L 67.578125 0 
L 57.328125 0 
L 50.6875 18.703125 
L 17.828125 18.703125 
L 11.1875 0 
L 0.78125 0 
z
" id="DejaVuSans-65"/>
       <path d="M 9.421875 75.984375 
L 18.40625 75.984375 
L 18.40625 0 
L 9.421875 0 
z
" id="DejaVuSans-108"/>
       <path d="M 44.390625 34.1875 
Q 47.5625 33.109375 50.5625 29.59375 
Q 53.5625 26.078125 56.59375 19.921875 
L 66.609375 0 
L 56 0 
L 46.6875 18.703125 
Q 43.0625 26.03125 39.671875 28.421875 
Q 36.28125 30.8125 30.421875 30.8125 
L 19.671875 30.8125 
L 19.671875 0 
L 9.8125 0 
L 9.8125 72.90625 
L 32.078125 72.90625 
Q 44.578125 72.90625 50.734375 67.671875 
Q 56.890625 62.453125 56.890625 51.90625 
Q 56.890625 45.015625 53.6875 40.46875 
Q 50.484375 35.9375 44.390625 34.1875 
z
M 19.671875 64.796875 
L 19.671875 38.921875 
L 32.078125 38.921875 
Q 39.203125 38.921875 42.84375 42.21875 
Q 46.484375 45.515625 46.484375 51.90625 
Q 46.484375 58.296875 42.84375 61.546875 
Q 39.203125 64.796875 32.078125 64.796875 
z
" id="DejaVuSans-82"/>
       <path d="M 45.40625 46.390625 
L 45.40625 75.984375 
L 54.390625 75.984375 
L 54.390625 0 
L 45.40625 0 
L 45.40625 8.203125 
Q 42.578125 3.328125 38.25 0.953125 
Q 33.9375 -1.421875 27.875 -1.421875 
Q 17.96875 -1.421875 11.734375 6.484375 
Q 5.515625 14.40625 5.515625 27.296875 
Q 5.515625 40.1875 11.734375 48.09375 
Q 17.96875 56 27.875 56 
Q 33.9375 56 38.25 53.625 
Q 42.578125 51.265625 45.40625 46.390625 
z
M 14.796875 27.296875 
Q 14.796875 17.390625 18.875 11.75 
Q 22.953125 6.109375 30.078125 6.109375 
Q 37.203125 6.109375 41.296875 11.75 
Q 45.40625 17.390625 45.40625 27.296875 
Q 45.40625 37.203125 41.296875 42.84375 
Q 37.203125 48.484375 30.078125 48.484375 
Q 22.953125 48.484375 18.875 42.84375 
Q 14.796875 37.203125 14.796875 27.296875 
z
" id="DejaVuSans-100"/>
       <path d="M 8.5 21.578125 
L 8.5 54.6875 
L 17.484375 54.6875 
L 17.484375 21.921875 
Q 17.484375 14.15625 20.5 10.265625 
Q 23.53125 6.390625 29.59375 6.390625 
Q 36.859375 6.390625 41.078125 11.03125 
Q 45.3125 15.671875 45.3125 23.6875 
L 45.3125 54.6875 
L 54.296875 54.6875 
L 54.296875 0 
L 45.3125 0 
L 45.3125 8.40625 
Q 42.046875 3.421875 37.71875 1 
Q 33.40625 -1.421875 27.6875 -1.421875 
Q 18.265625 -1.421875 13.375 4.4375 
Q 8.5 10.296875 8.5 21.578125 
z
M 31.109375 56 
z
" id="DejaVuSans-117"/>
       <path d="M 48.78125 52.59375 
L 48.78125 44.1875 
Q 44.96875 46.296875 41.140625 47.34375 
Q 37.3125 48.390625 33.40625 48.390625 
Q 24.65625 48.390625 19.8125 42.84375 
Q 14.984375 37.3125 14.984375 27.296875 
Q 14.984375 17.28125 19.8125 11.734375 
Q 24.65625 6.203125 33.40625 6.203125 
Q 37.3125 6.203125 41.140625 7.25 
Q 44.96875 8.296875 48.78125 10.40625 
L 48.78125 2.09375 
Q 45.015625 0.34375 40.984375 -0.53125 
Q 36.96875 -1.421875 32.421875 -1.421875 
Q 20.0625 -1.421875 12.78125 6.34375 
Q 5.515625 14.109375 5.515625 27.296875 
Q 5.515625 40.671875 12.859375 48.328125 
Q 20.21875 56 33.015625 56 
Q 37.15625 56 41.109375 55.140625 
Q 45.0625 54.296875 48.78125 52.59375 
z
" id="DejaVuSans-99"/>
       <path id="DejaVuSans-32"/>
       <path d="M 53.515625 70.515625 
L 53.515625 60.890625 
Q 47.90625 63.578125 42.921875 64.890625 
Q 37.9375 66.21875 33.296875 66.21875 
Q 25.25 66.21875 20.875 63.09375 
Q 16.5 59.96875 16.5 54.203125 
Q 16.5 49.359375 19.40625 46.890625 
Q 22.3125 44.4375 30.421875 42.921875 
L 36.375 41.703125 
Q 47.40625 39.59375 52.65625 34.296875 
Q 57.90625 29 57.90625 20.125 
Q 57.90625 9.515625 50.796875 4.046875 
Q 43.703125 -1.421875 29.984375 -1.421875 
Q 24.8125 -1.421875 18.96875 -0.25 
Q 13.140625 0.921875 6.890625 3.21875 
L 6.890625 13.375 
Q 12.890625 10.015625 18.65625 8.296875 
Q 24.421875 6.59375 29.984375 6.59375 
Q 38.421875 6.59375 43.015625 9.90625 
Q 47.609375 13.234375 47.609375 19.390625 
Q 47.609375 24.75 44.3125 27.78125 
Q 41.015625 30.8125 33.5 32.328125 
L 27.484375 33.5 
Q 16.453125 35.6875 11.515625 40.375 
Q 6.59375 45.0625 6.59375 53.421875 
Q 6.59375 63.09375 13.40625 68.65625 
Q 20.21875 74.21875 32.171875 74.21875 
Q 37.3125 74.21875 42.625 73.28125 
Q 47.953125 72.359375 53.515625 70.515625 
z
" id="DejaVuSans-83"/>
       <path d="M 59.515625 10.40625 
L 59.515625 29.984375 
L 43.40625 29.984375 
L 43.40625 38.09375 
L 69.28125 38.09375 
L 69.28125 6.78125 
Q 63.578125 2.734375 56.6875 0.65625 
Q 49.8125 -1.421875 42 -1.421875 
Q 24.90625 -1.421875 15.25 8.5625 
Q 5.609375 18.5625 5.609375 36.375 
Q 5.609375 54.25 15.25 64.234375 
Q 24.90625 74.21875 42 74.21875 
Q 49.125 74.21875 55.546875 72.453125 
Q 61.96875 70.703125 67.390625 67.28125 
L 67.390625 56.78125 
Q 61.921875 61.421875 55.765625 63.765625 
Q 49.609375 66.109375 42.828125 66.109375 
Q 29.4375 66.109375 22.71875 58.640625 
Q 16.015625 51.171875 16.015625 36.375 
Q 16.015625 21.625 22.71875 14.15625 
Q 29.4375 6.6875 42.828125 6.6875 
Q 48.046875 6.6875 52.140625 7.59375 
Q 56.25 8.5 59.515625 10.40625 
z
" id="DejaVuSans-71"/>
       <path d="M 19.671875 64.796875 
L 19.671875 8.109375 
L 31.59375 8.109375 
Q 46.6875 8.109375 53.6875 14.9375 
Q 60.6875 21.78125 60.6875 36.53125 
Q 60.6875 51.171875 53.6875 57.984375 
Q 46.6875 64.796875 31.59375 64.796875 
z
M 9.8125 72.90625 
L 30.078125 72.90625 
Q 51.265625 72.90625 61.171875 64.09375 
Q 71.09375 55.28125 71.09375 36.53125 
Q 71.09375 17.671875 61.125 8.828125 
Q 51.171875 0 30.078125 0 
L 9.8125 0 
z
" id="DejaVuSans-68"/>
      </defs>
      <use xlink:href="#DejaVuSans-65"/>
      <use x="68.408203" xlink:href="#DejaVuSans-108"/>
      <use x="96.191406" xlink:href="#DejaVuSans-108"/>
      <use x="123.974609" xlink:href="#DejaVuSans-82"/>
      <use x="188.957031" xlink:href="#DejaVuSans-101"/>
      <use x="250.480469" xlink:href="#DejaVuSans-100"/>
      <use x="313.957031" xlink:href="#DejaVuSans-117"/>
      <use x="377.335938" xlink:href="#DejaVuSans-99"/>
      <use x="432.316406" xlink:href="#DejaVuSans-101"/>
      <use x="493.839844" xlink:href="#DejaVuSans-32"/>
      <use x="525.626953" xlink:href="#DejaVuSans-83"/>
      <use x="589.103516" xlink:href="#DejaVuSans-71"/>
      <use x="666.59375" xlink:href="#DejaVuSans-68"/>
     </g>
    </g>
    <g id="line2d_19">
     <path d="M 293.78125 42.536563 
L 313.78125 42.536563 
" style="fill:none;stroke:#ff7f0e;stroke-linecap:square;stroke-width:1.5;"/>
    </g>
    <g id="line2d_20"/>
    <g id="text_15">
     <!-- QSGD-MN-TS (8,12) bits -->
     <g transform="translate(321.78125 46.036563)scale(0.1 -0.1)">
      <defs>
       <path d="M 39.40625 66.21875 
Q 28.65625 66.21875 22.328125 58.203125 
Q 16.015625 50.203125 16.015625 36.375 
Q 16.015625 22.609375 22.328125 14.59375 
Q 28.65625 6.59375 39.40625 6.59375 
Q 50.140625 6.59375 56.421875 14.59375 
Q 62.703125 22.609375 62.703125 36.375 
Q 62.703125 50.203125 56.421875 58.203125 
Q 50.140625 66.21875 39.40625 66.21875 
z
M 53.21875 1.3125 
L 66.21875 -12.890625 
L 54.296875 -12.890625 
L 43.5 -1.21875 
Q 41.890625 -1.3125 41.03125 -1.359375 
Q 40.1875 -1.421875 39.40625 -1.421875 
Q 24.03125 -1.421875 14.8125 8.859375 
Q 5.609375 19.140625 5.609375 36.375 
Q 5.609375 53.65625 14.8125 63.9375 
Q 24.03125 74.21875 39.40625 74.21875 
Q 54.734375 74.21875 63.90625 63.9375 
Q 73.09375 53.65625 73.09375 36.375 
Q 73.09375 23.6875 67.984375 14.640625 
Q 62.890625 5.609375 53.21875 1.3125 
z
" id="DejaVuSans-81"/>
       <path d="M 4.890625 31.390625 
L 31.203125 31.390625 
L 31.203125 23.390625 
L 4.890625 23.390625 
z
" id="DejaVuSans-45"/>
       <path d="M 9.8125 72.90625 
L 24.515625 72.90625 
L 43.109375 23.296875 
L 61.8125 72.90625 
L 76.515625 72.90625 
L 76.515625 0 
L 66.890625 0 
L 66.890625 64.015625 
L 48.09375 14.015625 
L 38.1875 14.015625 
L 19.390625 64.015625 
L 19.390625 0 
L 9.8125 0 
z
" id="DejaVuSans-77"/>
       <path d="M 9.8125 72.90625 
L 23.09375 72.90625 
L 55.421875 11.921875 
L 55.421875 72.90625 
L 64.984375 72.90625 
L 64.984375 0 
L 51.703125 0 
L 19.390625 60.984375 
L 19.390625 0 
L 9.8125 0 
z
" id="DejaVuSans-78"/>
       <path d="M 31 75.875 
Q 24.46875 64.65625 21.28125 53.65625 
Q 18.109375 42.671875 18.109375 31.390625 
Q 18.109375 20.125 21.3125 9.0625 
Q 24.515625 -2 31 -13.1875 
L 23.1875 -13.1875 
Q 15.875 -1.703125 12.234375 9.375 
Q 8.59375 20.453125 8.59375 31.390625 
Q 8.59375 42.28125 12.203125 53.3125 
Q 15.828125 64.359375 23.1875 75.875 
z
" id="DejaVuSans-40"/>
       <path d="M 11.71875 12.40625 
L 22.015625 12.40625 
L 22.015625 4 
L 14.015625 -11.625 
L 7.71875 -11.625 
L 11.71875 4 
z
" id="DejaVuSans-44"/>
       <path d="M 8.015625 75.875 
L 15.828125 75.875 
Q 23.140625 64.359375 26.78125 53.3125 
Q 30.421875 42.28125 30.421875 31.390625 
Q 30.421875 20.453125 26.78125 9.375 
Q 23.140625 -1.703125 15.828125 -13.1875 
L 8.015625 -13.1875 
Q 14.5 -2 17.703125 9.0625 
Q 20.90625 20.125 20.90625 31.390625 
Q 20.90625 42.671875 17.703125 53.65625 
Q 14.5 64.65625 8.015625 75.875 
z
" id="DejaVuSans-41"/>
       <path d="M 48.6875 27.296875 
Q 48.6875 37.203125 44.609375 42.84375 
Q 40.53125 48.484375 33.40625 48.484375 
Q 26.265625 48.484375 22.1875 42.84375 
Q 18.109375 37.203125 18.109375 27.296875 
Q 18.109375 17.390625 22.1875 11.75 
Q 26.265625 6.109375 33.40625 6.109375 
Q 40.53125 6.109375 44.609375 11.75 
Q 48.6875 17.390625 48.6875 27.296875 
z
M 18.109375 46.390625 
Q 20.953125 51.265625 25.265625 53.625 
Q 29.59375 56 35.59375 56 
Q 45.5625 56 51.78125 48.09375 
Q 58.015625 40.1875 58.015625 27.296875 
Q 58.015625 14.40625 51.78125 6.484375 
Q 45.5625 -1.421875 35.59375 -1.421875 
Q 29.59375 -1.421875 25.265625 0.953125 
Q 20.953125 3.328125 18.109375 8.203125 
L 18.109375 0 
L 9.078125 0 
L 9.078125 75.984375 
L 18.109375 75.984375 
z
" id="DejaVuSans-98"/>
       <path d="M 18.3125 70.21875 
L 18.3125 54.6875 
L 36.8125 54.6875 
L 36.8125 47.703125 
L 18.3125 47.703125 
L 18.3125 18.015625 
Q 18.3125 11.328125 20.140625 9.421875 
Q 21.96875 7.515625 27.59375 7.515625 
L 36.8125 7.515625 
L 36.8125 0 
L 27.59375 0 
Q 17.1875 0 13.234375 3.875 
Q 9.28125 7.765625 9.28125 18.015625 
L 9.28125 47.703125 
L 2.6875 47.703125 
L 2.6875 54.6875 
L 9.28125 54.6875 
L 9.28125 70.21875 
z
" id="DejaVuSans-116"/>
      </defs>
      <use xlink:href="#DejaVuSans-81"/>
      <use x="78.710938" xlink:href="#DejaVuSans-83"/>
      <use x="142.1875" xlink:href="#DejaVuSans-71"/>
      <use x="219.677734" xlink:href="#DejaVuSans-68"/>
      <use x="296.679688" xlink:href="#DejaVuSans-45"/>
      <use x="332.763672" xlink:href="#DejaVuSans-77"/>
      <use x="419.042969" xlink:href="#DejaVuSans-78"/>
      <use x="493.847656" xlink:href="#DejaVuSans-45"/>
      <use x="520.806641" xlink:href="#DejaVuSans-84"/>
      <use x="581.890625" xlink:href="#DejaVuSans-83"/>
      <use x="645.367188" xlink:href="#DejaVuSans-32"/>
      <use x="677.154297" xlink:href="#DejaVuSans-40"/>
      <use x="716.167969" xlink:href="#DejaVuSans-56"/>
      <use x="779.791016" xlink:href="#DejaVuSans-44"/>
      <use x="811.578125" xlink:href="#DejaVuSans-49"/>
      <use x="875.201172" xlink:href="#DejaVuSans-50"/>
      <use x="938.824219" xlink:href="#DejaVuSans-41"/>
      <use x="977.837891" xlink:href="#DejaVuSans-32"/>
      <use x="1009.625" xlink:href="#DejaVuSans-98"/>
      <use x="1073.101562" xlink:href="#DejaVuSans-105"/>
      <use x="1100.884766" xlink:href="#DejaVuSans-116"/>
      <use x="1140.09375" xlink:href="#DejaVuSans-115"/>
     </g>
    </g>
    <g id="line2d_21">
     <path d="M 293.78125 57.214687 
L 313.78125 57.214687 
" style="fill:none;stroke:#2ca02c;stroke-linecap:square;stroke-width:1.5;"/>
    </g>
    <g id="line2d_22"/>
    <g id="text_16">
     <!-- QSGD-MN-TS (6,10) bits -->
     <g transform="translate(321.78125 60.714687)scale(0.1 -0.1)">
      <use xlink:href="#DejaVuSans-81"/>
      <use x="78.710938" xlink:href="#DejaVuSans-83"/>
      <use x="142.1875" xlink:href="#DejaVuSans-71"/>
      <use x="219.677734" xlink:href="#DejaVuSans-68"/>
      <use x="296.679688" xlink:href="#DejaVuSans-45"/>
      <use x="332.763672" xlink:href="#DejaVuSans-77"/>
      <use x="419.042969" xlink:href="#DejaVuSans-78"/>
      <use x="493.847656" xlink:href="#DejaVuSans-45"/>
      <use x="520.806641" xlink:href="#DejaVuSans-84"/>
      <use x="581.890625" xlink:href="#DejaVuSans-83"/>
      <use x="645.367188" xlink:href="#DejaVuSans-32"/>
      <use x="677.154297" xlink:href="#DejaVuSans-40"/>
      <use x="716.167969" xlink:href="#DejaVuSans-54"/>
      <use x="779.791016" xlink:href="#DejaVuSans-44"/>
      <use x="811.578125" xlink:href="#DejaVuSans-49"/>
      <use x="875.201172" xlink:href="#DejaVuSans-48"/>
      <use x="938.824219" xlink:href="#DejaVuSans-41"/>
      <use x="977.837891" xlink:href="#DejaVuSans-32"/>
      <use x="1009.625" xlink:href="#DejaVuSans-98"/>
      <use x="1073.101562" xlink:href="#DejaVuSans-105"/>
      <use x="1100.884766" xlink:href="#DejaVuSans-116"/>
      <use x="1140.09375" xlink:href="#DejaVuSans-115"/>
     </g>
    </g>
    <g id="line2d_23">
     <path d="M 293.78125 71.892812 
L 313.78125 71.892812 
" style="fill:none;stroke:#d62728;stroke-linecap:square;stroke-width:1.5;"/>
    </g>
    <g id="line2d_24"/>
    <g id="text_17">
     <!-- QSGD-MN-TS (4,8) bits -->
     <g transform="translate(321.78125 75.392812)scale(0.1 -0.1)">
      <use xlink:href="#DejaVuSans-81"/>
      <use x="78.710938" xlink:href="#DejaVuSans-83"/>
      <use x="142.1875" xlink:href="#DejaVuSans-71"/>
      <use x="219.677734" xlink:href="#DejaVuSans-68"/>
      <use x="296.679688" xlink:href="#DejaVuSans-45"/>
      <use x="332.763672" xlink:href="#DejaVuSans-77"/>
      <use x="419.042969" xlink:href="#DejaVuSans-78"/>
      <use x="493.847656" xlink:href="#DejaVuSans-45"/>
      <use x="520.806641" xlink:href="#DejaVuSans-84"/>
      <use x="581.890625" xlink:href="#DejaVuSans-83"/>
      <use x="645.367188" xlink:href="#DejaVuSans-32"/>
      <use x="677.154297" xlink:href="#DejaVuSans-40"/>
      <use x="716.167969" xlink:href="#DejaVuSans-52"/>
      <use x="779.791016" xlink:href="#DejaVuSans-44"/>
      <use x="811.578125" xlink:href="#DejaVuSans-56"/>
      <use x="875.201172" xlink:href="#DejaVuSans-41"/>
      <use x="914.214844" xlink:href="#DejaVuSans-32"/>
      <use x="946.001953" xlink:href="#DejaVuSans-98"/>
      <use x="1009.478516" xlink:href="#DejaVuSans-105"/>
      <use x="1037.261719" xlink:href="#DejaVuSans-116"/>
      <use x="1076.470703" xlink:href="#DejaVuSans-115"/>
     </g>
    </g>
    <g id="line2d_25">
     <path d="M 293.78125 86.570937 
L 313.78125 86.570937 
" style="fill:none;stroke:#9467bd;stroke-linecap:square;stroke-width:1.5;"/>
    </g>
    <g id="line2d_26"/>
    <g id="text_18">
     <!-- QSGD-MN-TS (2,6) bits -->
     <g transform="translate(321.78125 90.070937)scale(0.1 -0.1)">
      <use xlink:href="#DejaVuSans-81"/>
      <use x="78.710938" xlink:href="#DejaVuSans-83"/>
      <use x="142.1875" xlink:href="#DejaVuSans-71"/>
      <use x="219.677734" xlink:href="#DejaVuSans-68"/>
      <use x="296.679688" xlink:href="#DejaVuSans-45"/>
      <use x="332.763672" xlink:href="#DejaVuSans-77"/>
      <use x="419.042969" xlink:href="#DejaVuSans-78"/>
      <use x="493.847656" xlink:href="#DejaVuSans-45"/>
      <use x="520.806641" xlink:href="#DejaVuSans-84"/>
      <use x="581.890625" xlink:href="#DejaVuSans-83"/>
      <use x="645.367188" xlink:href="#DejaVuSans-32"/>
      <use x="677.154297" xlink:href="#DejaVuSans-40"/>
      <use x="716.167969" xlink:href="#DejaVuSans-50"/>
      <use x="779.791016" xlink:href="#DejaVuSans-44"/>
      <use x="811.578125" xlink:href="#DejaVuSans-54"/>
      <use x="875.201172" xlink:href="#DejaVuSans-41"/>
      <use x="914.214844" xlink:href="#DejaVuSans-32"/>
      <use x="946.001953" xlink:href="#DejaVuSans-98"/>
      <use x="1009.478516" xlink:href="#DejaVuSans-105"/>
      <use x="1037.261719" xlink:href="#DejaVuSans-116"/>
      <use x="1076.470703" xlink:href="#DejaVuSans-115"/>
     </g>
    </g>
   </g>
  </g>
 </g>
 <defs>
  <clipPath id="pa14bc7c870">
   <rect height="288.88" width="402.28" x="47.72" y="14.76"/>
  </clipPath>
 </defs>
</svg>
