<?xml version="1.0" encoding="utf-8" standalone="no"?>
<!DOCTYPE svg PUBLIC "-//W3C//DTD SVG 1.1//EN"
  "http://www.w3.org/Graphics/SVG/1.1/DTD/svg11.dtd">
<!-- Created with matplotlib (https://matplotlib.org/) -->
<svg height="345.6pt" version="1.1" viewBox="0 0 460.8 345.6" width="460.8pt" xmlns="http://www.w3.org/2000/svg" xmlns:xlink="http://www.w3.org/1999/xlink">
 <metadata>
  <rdf:RDF xmlns:cc="http://creativecommons.org/ns#" xmlns:dc="http://purl.org/dc/elements/1.1/" xmlns:rdf="http://www.w3.org/1999/02/22-rdf-syntax-ns#">
   <cc:Work>
    <dc:type rdf:resource="http://purl.org/dc/dcmitype/StillImage"/>
    <dc:date>2021-06-10T08:57:48.216411</dc:date>
    <dc:format>image/svg+xml</dc:format>
    <dc:creator>
     <cc:Agent>
      <dc:title>Matplotlib v3.3.1, https://matplotlib.org/</dc:title>
     </cc:Agent>
    </dc:creator>
   </cc:Work>
  </rdf:RDF>
 </metadata>
 <defs>
  <style type="text/css">*{stroke-linecap:butt;stroke-linejoin:round;}</style>
 </defs>
 <g id="figure_1">
  <g id="patch_1">
   <path d="M 0 345.6 
L 460.8 345.6 
L 460.8 0 
L 0 0 
z
" style="fill:#ffffff;"/>
  </g>
  <g id="axes_1">
   <g id="patch_2">
    <path d="M 44.57 303.64 
L 450 303.64 
L 450 10.8 
L 44.57 10.8 
z
" style="fill:#ffffff;"/>
   </g>
   <g id="PolyCollection_1">
    <path clip-path="url(#pbe6dc1cf3c)" d="M 62.998636 266.472492 
L 62.998636 290.329091 
L 65.204618 274.667444 
L 67.409177 258.137547 
L 69.603432 241.228106 
L 71.789115 219.908787 
L 73.987839 203.538239 
L 76.183882 181.956138 
L 78.383337 172.615352 
L 80.589236 155.418182 
L 82.775018 146.148583 
L 84.965813 115.676423 
L 87.151771 131.440669 
L 89.341148 124.713098 
L 91.539197 100.482261 
L 93.706457 104.395007 
L 95.907881 98.530409 
L 98.091066 88.66219 
L 100.279457 87.61923 
L 102.48503 75.486465 
L 104.674095 87.084599 
L 106.856963 83.410445 
L 109.045836 92.340963 
L 111.252837 94.639974 
L 113.434216 78.356074 
L 115.622518 83.902387 
L 117.798378 81.171963 
L 119.999648 75.269662 
L 122.184137 72.015912 
L 124.371525 76.593434 
L 126.576184 68.355395 
L 128.76728 69.947848 
L 130.962233 62.328356 
L 133.140361 71.885434 
L 135.337031 64.997211 
L 137.533229 63.038748 
L 139.710907 69.308447 
L 141.889089 66.23624 
L 144.10539 65.397652 
L 146.282028 64.735446 
L 148.476793 76.613091 
L 150.662864 54.084774 
L 152.853127 57.738658 
L 155.03401 63.602753 
L 157.209817 58.549397 
L 159.417974 64.097367 
L 161.615969 71.528832 
L 163.808022 60.861374 
L 165.998008 60.28661 
L 168.202621 61.074377 
L 170.410194 61.645701 
L 172.590139 58.353427 
L 174.779775 59.10782 
L 176.963523 66.116602 
L 179.159955 60.824463 
L 181.353909 58.332557 
L 183.546374 65.763505 
L 185.737526 59.20247 
L 187.950243 50.066567 
L 190.124509 54.505265 
L 192.31332 54.506802 
L 194.499562 57.099053 
L 196.688616 56.694528 
L 198.875206 48.445904 
L 201.083368 54.122108 
L 203.264038 54.502152 
L 205.470722 56.103829 
L 207.660968 55.586945 
L 209.838219 52.761014 
L 212.032829 52.179561 
L 214.209307 53.768553 
L 216.40573 53.391733 
L 218.593262 55.579569 
L 220.791706 46.938252 
L 222.978096 49.503617 
L 225.168114 46.754153 
L 227.361412 47.543862 
L 229.557181 46.117183 
L 231.741486 48.208644 
L 233.921385 45.066711 
L 236.124808 42.872366 
L 238.313094 44.467382 
L 240.511772 49.07762 
L 242.690293 48.105731 
L 244.875544 43.964825 
L 247.061324 48.751104 
L 249.258275 53.743165 
L 251.458973 43.376865 
L 253.678247 39.915606 
L 255.872047 43.729527 
L 258.07262 44.65395 
L 260.247883 44.156834 
L 262.450481 47.696798 
L 264.660994 44.462763 
L 266.852876 41.100705 
L 269.055486 37.309149 
L 271.2459 44.937249 
L 273.440622 41.077788 
L 275.641533 42.366029 
L 277.83386 38.762466 
L 280.036544 38.95242 
L 282.234861 38.006903 
L 284.432931 36.986327 
L 286.6103 36.68359 
L 288.80423 38.842306 
L 290.995537 40.466263 
L 293.197233 38.940852 
L 295.396 36.66695 
L 297.57921 38.683739 
L 299.77471 40.38688 
L 301.967211 39.657246 
L 304.187238 34.054488 
L 306.372899 40.448819 
L 308.558988 34.950012 
L 310.745104 34.454172 
L 312.940407 33.488734 
L 315.109227 33.964497 
L 317.308993 33.681301 
L 319.498712 35.561498 
L 321.699956 30.926513 
L 323.890985 35.544495 
L 326.07727 32.789146 
L 328.276011 33.164702 
L 330.466816 31.60038 
L 332.679919 31.904546 
L 334.879109 32.092089 
L 337.070788 31.199397 
L 339.248014 31.210186 
L 341.433545 31.405901 
L 343.625693 30.512932 
L 345.831515 31.669618 
L 348.005866 29.574565 
L 350.199763 29.949507 
L 352.382651 30.352871 
L 354.573344 28.535402 
L 356.762247 29.107717 
L 358.974057 29.948443 
L 361.160521 28.72955 
L 363.364036 29.375945 
L 365.577064 29.111251 
L 367.765015 30.49677 
L 369.952621 30.220505 
L 372.146825 29.410664 
L 374.356498 29.327098 
L 376.547065 29.690612 
L 378.737074 29.3356 
L 380.936689 28.837968 
L 383.137079 29.877019 
L 385.335159 29.043302 
L 387.531475 28.115566 
L 389.720327 28.919775 
L 389.720327 25.542007 
L 389.720327 25.542007 
L 387.531475 24.110909 
L 385.335159 25.055998 
L 383.137079 25.732623 
L 380.936689 24.355126 
L 378.737074 25.609491 
L 376.547065 25.314893 
L 374.356498 24.651375 
L 372.146825 25.292772 
L 369.952621 25.993274 
L 367.765015 25.596181 
L 365.577064 25.471358 
L 363.364036 24.421286 
L 361.160521 24.523959 
L 358.974057 25.661199 
L 356.762247 26.139443 
L 354.573344 25.443071 
L 352.382651 27.008768 
L 350.199763 25.962204 
L 348.005866 24.826803 
L 345.831515 24.604574 
L 343.625693 25.398779 
L 341.433545 25.472428 
L 339.248014 26.091039 
L 337.070788 27.189275 
L 334.879109 27.323615 
L 332.679919 27.027848 
L 330.466816 29.265252 
L 328.276011 30.057065 
L 326.07727 28.1369 
L 323.890985 29.429269 
L 321.699956 29.334982 
L 319.498712 30.499711 
L 317.308993 29.480052 
L 315.109227 31.794644 
L 312.940407 30.216342 
L 310.745104 31.365383 
L 308.558988 32.259058 
L 306.372899 33.043274 
L 304.187238 31.160931 
L 301.967211 32.807815 
L 299.77471 34.615555 
L 297.57921 31.304361 
L 295.396 31.508739 
L 293.197233 34.430413 
L 290.995537 35.684032 
L 288.80423 33.501927 
L 286.6103 34.452369 
L 284.432931 34.995424 
L 282.234861 31.256232 
L 280.036544 33.935537 
L 277.83386 31.16522 
L 275.641533 33.905093 
L 273.440622 36.039127 
L 271.2459 39.79179 
L 269.055486 34.370534 
L 266.852876 37.164069 
L 264.660994 34.587389 
L 262.450481 43.254851 
L 260.247883 39.363931 
L 258.07262 34.939925 
L 255.872047 38.280896 
L 253.678247 36.959654 
L 251.458973 39.539763 
L 249.258275 42.706129 
L 247.061324 41.898476 
L 244.875544 38.40808 
L 242.690293 38.556546 
L 240.511772 40.303273 
L 238.313094 40.865794 
L 236.124808 37.083991 
L 233.921385 40.749774 
L 231.741486 39.843148 
L 229.557181 40.907576 
L 227.361412 42.501581 
L 225.168114 38.69985 
L 222.978096 39.998103 
L 220.791706 39.844852 
L 218.593262 46.85068 
L 216.40573 42.755492 
L 214.209307 40.566262 
L 212.032829 41.309462 
L 209.838219 44.896554 
L 207.660968 46.662063 
L 205.470722 45.661869 
L 203.264038 46.901064 
L 201.083368 45.408284 
L 198.875206 42.203676 
L 196.688616 46.158617 
L 194.499562 49.983049 
L 192.31332 49.252548 
L 190.124509 45.025127 
L 187.950243 42.214182 
L 185.737526 41.354954 
L 183.546374 55.213746 
L 181.353909 47.601685 
L 179.159955 50.063702 
L 176.963523 49.785899 
L 174.779775 48.518006 
L 172.590139 48.245367 
L 170.410194 47.973776 
L 168.202621 52.109507 
L 165.998008 46.735079 
L 163.808022 50.630927 
L 161.615969 47.817249 
L 159.417974 50.778101 
L 157.209817 52.157527 
L 155.03401 50.668579 
L 152.853127 49.76634 
L 150.662864 49.976644 
L 148.476793 60.011304 
L 146.282028 50.9254 
L 144.10539 48.329957 
L 141.889089 51.961981 
L 139.710907 53.481214 
L 137.533229 53.649131 
L 135.337031 56.765417 
L 133.140361 63.711929 
L 130.962233 56.957311 
L 128.76728 56.708289 
L 126.576184 51.836477 
L 124.371525 62.387095 
L 122.184137 58.567114 
L 119.999648 67.879411 
L 117.798378 67.958066 
L 115.622518 63.052749 
L 113.434216 62.557693 
L 111.252837 58.416944 
L 109.045836 61.561746 
L 106.856963 65.779997 
L 104.674095 78.961261 
L 102.48503 64.219029 
L 100.279457 73.533122 
L 98.091066 76.175396 
L 95.907881 73.55682 
L 93.706457 87.32667 
L 91.539197 80.123297 
L 89.341148 93.228119 
L 87.151771 98.099976 
L 84.965813 106.916647 
L 82.775018 114.867592 
L 80.589236 116.92556 
L 78.383337 142.048176 
L 76.183882 152.553286 
L 73.987839 174.952349 
L 71.789115 191.869742 
L 69.603432 218.669924 
L 67.409177 238.703452 
L 65.204618 248.54413 
L 62.998636 266.472492 
z
" style="fill:#1f77b4;fill-opacity:0.25;"/>
   </g>
   <g id="PolyCollection_2">
    <path clip-path="url(#pbe6dc1cf3c)" d="M 63.282923 286.625705 
L 63.282923 289.991567 
L 65.741738 287.84545 
L 68.233599 280.179298 
L 70.700974 269.955504 
L 73.162383 259.512514 
L 75.636222 230.322891 
L 78.098926 223.040638 
L 80.55079 219.986567 
L 83.019205 183.854663 
L 85.49465 169.387426 
L 87.960517 150.378 
L 90.450759 123.021167 
L 92.925174 107.602809 
L 95.371983 112.275512 
L 97.850964 104.314333 
L 100.359538 94.52554 
L 102.82735 90.932687 
L 105.285535 80.043206 
L 107.750719 86.813255 
L 110.223473 80.758708 
L 112.69124 89.062411 
L 115.172289 77.189938 
L 117.633653 74.027172 
L 120.117487 67.599617 
L 122.578913 81.570011 
L 125.029513 78.919631 
L 127.502348 63.413836 
L 129.962655 69.335859 
L 132.429015 72.744306 
L 134.8814 67.427129 
L 137.363526 62.922367 
L 139.819273 68.676315 
L 142.275775 70.674147 
L 144.744684 59.025615 
L 147.25177 62.939115 
L 149.76234 64.148957 
L 152.217164 68.304137 
L 154.690652 64.269566 
L 157.172689 62.319205 
L 159.639758 59.551548 
L 162.096327 60.6912 
L 164.549766 62.702014 
L 167.019545 62.350156 
L 169.477474 72.796416 
L 171.954986 65.996142 
L 174.442011 58.944436 
L 176.898868 57.719605 
L 179.359742 61.082923 
L 181.803753 51.415658 
L 184.278151 59.022105 
L 186.797223 57.797945 
L 189.256514 65.431495 
L 191.711054 61.676787 
L 194.181783 56.693874 
L 196.651102 53.523706 
L 199.123233 60.732107 
L 201.582107 53.755781 
L 204.072644 47.943974 
L 206.542145 53.11895 
L 209.026912 54.047204 
L 211.486544 51.548526 
L 213.981331 54.973614 
L 216.453206 52.904217 
L 218.929751 52.1392 
L 221.419949 53.604588 
L 223.899834 48.361442 
L 226.37094 54.192875 
L 228.840111 52.310231 
L 231.323827 49.697782 
L 233.793404 45.794146 
L 236.24668 50.284843 
L 238.72674 59.19602 
L 241.20938 47.649 
L 243.679334 49.824326 
L 246.163196 47.904591 
L 248.632077 52.036596 
L 251.115874 47.169625 
L 253.607765 45.087556 
L 256.096144 49.232302 
L 258.591825 45.1368 
L 261.05789 43.972269 
L 263.51758 46.884684 
L 265.993119 45.679451 
L 268.453222 50.250183 
L 270.919539 51.370761 
L 273.381683 52.014044 
L 275.849993 43.500393 
L 278.334164 42.823316 
L 280.796567 44.492951 
L 283.264711 45.405785 
L 285.733191 43.18657 
L 288.209243 42.75106 
L 290.681325 44.477043 
L 293.161083 43.158632 
L 295.625306 45.054729 
L 298.114379 43.85643 
L 300.587387 44.037707 
L 303.065515 46.412745 
L 305.546156 42.762082 
L 308.003129 42.936706 
L 310.503724 44.882318 
L 312.981595 41.631193 
L 315.449704 42.664027 
L 317.916852 43.236817 
L 320.401516 41.877275 
L 322.869573 40.372474 
L 325.363966 41.136433 
L 327.871545 38.409665 
L 330.352695 37.932355 
L 332.828358 38.934502 
L 335.300534 35.825816 
L 337.769628 35.925621 
L 340.246336 37.543236 
L 342.722907 37.527978 
L 345.210715 35.944964 
L 347.687113 34.969261 
L 350.147186 36.931199 
L 352.634425 34.568634 
L 355.134707 35.276953 
L 357.602432 36.633226 
L 360.066126 33.101739 
L 362.534096 35.185325 
L 364.993433 34.609093 
L 367.458246 34.952434 
L 369.902365 36.057713 
L 372.368194 33.993787 
L 374.848691 34.100526 
L 377.306045 33.541322 
L 379.755659 33.026896 
L 382.230961 32.583815 
L 384.696891 33.325431 
L 387.184378 34.364996 
L 389.65883 33.102703 
L 392.143475 32.495921 
L 394.605436 32.887096 
L 397.074386 33.435481 
L 399.515093 33.192914 
L 401.978358 33.888757 
L 404.436069 35.066398 
L 406.913188 33.123066 
L 409.376696 32.607709 
L 411.829838 32.360631 
L 414.308578 31.430747 
L 416.783219 32.966066 
L 419.265404 31.737737 
L 421.741916 32.475373 
L 424.20121 32.232258 
L 426.649528 33.337698 
L 429.109629 32.299673 
L 431.571364 33.1808 
L 431.571364 31.007586 
L 431.571364 31.007586 
L 429.109629 30.317957 
L 426.649528 30.609032 
L 424.20121 30.627026 
L 421.741916 30.504738 
L 419.265404 29.309137 
L 416.783219 30.316114 
L 414.308578 28.951576 
L 411.829838 29.169553 
L 409.376696 30.070334 
L 406.913188 30.642424 
L 404.436069 30.390675 
L 401.978358 29.816319 
L 399.515093 30.753817 
L 397.074386 29.605044 
L 394.605436 30.697152 
L 392.143475 28.853021 
L 389.65883 30.904441 
L 387.184378 29.702562 
L 384.696891 30.560886 
L 382.230961 30.698365 
L 379.755659 29.832388 
L 377.306045 30.284581 
L 374.848691 30.994064 
L 372.368194 31.342459 
L 369.902365 29.943083 
L 367.458246 30.565053 
L 364.993433 29.88136 
L 362.534096 32.2654 
L 360.066126 31.388715 
L 357.602432 32.750736 
L 355.134707 31.630048 
L 352.634425 32.398781 
L 350.147186 33.661038 
L 347.687113 33.448083 
L 345.210715 32.532793 
L 342.722907 30.647711 
L 340.246336 30.26997 
L 337.769628 32.914618 
L 335.300534 30.960358 
L 332.828358 32.866008 
L 330.352695 33.384845 
L 327.871545 32.303398 
L 325.363966 34.893035 
L 322.869573 37.529819 
L 320.401516 37.474945 
L 317.916852 37.323678 
L 315.449704 35.540334 
L 312.981595 37.056477 
L 310.503724 35.859417 
L 308.003129 36.657169 
L 305.546156 38.825445 
L 303.065515 41.034909 
L 300.587387 36.764442 
L 298.114379 34.468758 
L 295.625306 38.466036 
L 293.161083 35.106142 
L 290.681325 39.34579 
L 288.209243 37.265711 
L 285.733191 37.253097 
L 283.264711 38.77953 
L 280.796567 36.369612 
L 278.334164 36.408077 
L 275.849993 41.228646 
L 273.381683 44.858146 
L 270.919539 41.453711 
L 268.453222 42.09098 
L 265.993119 38.687105 
L 263.51758 41.771244 
L 261.05789 39.1256 
L 258.591825 38.383965 
L 256.096144 39.363213 
L 253.607765 39.097759 
L 251.115874 38.526033 
L 248.632077 47.0709 
L 246.163196 39.603478 
L 243.679334 40.583599 
L 241.20938 42.336029 
L 238.72674 50.483872 
L 236.24668 42.53963 
L 233.793404 41.230613 
L 231.323827 43.187104 
L 228.840111 44.441131 
L 226.37094 46.606205 
L 223.899834 42.288138 
L 221.419949 46.590354 
L 218.929751 43.645543 
L 216.453206 47.411553 
L 213.981331 48.423254 
L 211.486544 47.498556 
L 209.026912 44.637396 
L 206.542145 47.378061 
L 204.072644 45.363808 
L 201.582107 48.191159 
L 199.123233 45.745859 
L 196.651102 46.912891 
L 194.181783 48.9383 
L 191.711054 53.984059 
L 189.256514 55.122859 
L 186.797223 48.559193 
L 184.278151 46.610069 
L 181.803753 48.416802 
L 179.359742 48.2949 
L 176.898868 50.872839 
L 174.442011 48.923045 
L 171.954986 51.658356 
L 169.477474 58.028266 
L 167.019545 52.82738 
L 164.549766 46.071672 
L 162.096327 53.39889 
L 159.639758 49.947102 
L 157.172689 49.293924 
L 154.690652 52.780795 
L 152.217164 45.785953 
L 149.76234 55.197124 
L 147.25177 51.211389 
L 144.744684 50.110553 
L 142.275775 54.350821 
L 139.819273 59.188096 
L 137.363526 52.557238 
L 134.8814 57.77908 
L 132.429015 60.436509 
L 129.962655 62.032546 
L 127.502348 56.838451 
L 125.029513 66.827231 
L 122.578913 57.168864 
L 120.117487 60.808517 
L 117.633653 64.711703 
L 115.172289 69.765197 
L 112.69124 73.600283 
L 110.223473 64.504844 
L 107.750719 74.943234 
L 105.285535 69.086822 
L 102.82735 76.744343 
L 100.359538 72.003629 
L 97.850964 79.553565 
L 95.371983 94.912068 
L 92.925174 96.866156 
L 90.450759 106.338236 
L 87.960517 114.565065 
L 85.49465 130.051853 
L 83.019205 141.441674 
L 80.55079 150.257552 
L 78.098926 164.089107 
L 75.636222 187.270456 
L 73.162383 201.835444 
L 70.700974 216.766203 
L 68.233599 248.34868 
L 65.741738 258.806633 
L 63.282923 286.625705 
z
" style="fill:#ff7f0e;fill-opacity:0.25;"/>
   </g>
   <g id="PolyCollection_3">
    <path clip-path="url(#pbe6dc1cf3c)" d="M 63.109778 252.125519 
L 63.109778 277.852387 
L 65.411516 278.657045 
L 67.704843 271.280043 
L 70.013567 262.157451 
L 72.323013 233.699229 
L 74.634347 224.601487 
L 76.947803 213.968311 
L 79.249429 198.865827 
L 81.551992 179.560144 
L 83.860641 175.248412 
L 86.167698 156.879195 
L 88.470259 145.455439 
L 90.776013 143.51382 
L 93.078298 138.514085 
L 95.388876 123.672835 
L 97.695077 122.713071 
L 99.994556 116.159163 
L 102.303375 108.686774 
L 104.603309 100.573573 
L 106.904568 97.613804 
L 109.200651 96.717023 
L 111.501249 100.18418 
L 113.800008 103.937493 
L 116.110884 85.780141 
L 118.408086 89.1931 
L 120.702862 95.350961 
L 123.003974 84.423441 
L 125.299208 83.938174 
L 127.592191 89.821746 
L 129.891669 81.316688 
L 132.193937 72.720536 
L 134.486124 77.72281 
L 136.783366 71.387728 
L 139.090675 66.640536 
L 141.38481 73.322392 
L 143.681085 80.244313 
L 145.98416 64.997684 
L 148.286355 64.693494 
L 150.579235 71.441992 
L 152.872029 62.780476 
L 155.173044 65.880875 
L 157.47646 65.891406 
L 159.774076 60.057893 
L 162.07552 61.564089 
L 164.367773 68.122436 
L 166.658736 63.427705 
L 168.954799 66.570541 
L 171.249122 66.258388 
L 173.549849 57.666506 
L 175.844475 64.788908 
L 178.137364 56.04144 
L 180.429728 59.276905 
L 182.72115 60.900008 
L 185.019717 63.355819 
L 187.316853 59.07293 
L 189.611342 58.618697 
L 191.904182 54.818052 
L 194.205603 54.277705 
L 196.496948 57.032006 
L 198.793795 57.756866 
L 201.082752 61.38309 
L 203.381889 50.60484 
L 205.676859 59.769369 
L 207.969913 55.012787 
L 210.271759 54.503752 
L 212.569748 53.556667 
L 214.861508 57.107505 
L 217.156285 59.655146 
L 219.45549 56.489888 
L 221.752592 52.817031 
L 224.049393 52.469341 
L 226.341793 56.632117 
L 228.633136 50.809502 
L 230.93011 50.703794 
L 233.225509 48.733122 
L 235.516842 49.939918 
L 237.806829 50.615341 
L 240.109974 49.020487 
L 242.399437 52.712018 
L 244.701959 52.87963 
L 246.999231 46.039065 
L 249.294738 52.520739 
L 251.58971 45.612586 
L 253.886389 46.183687 
L 256.180744 52.729739 
L 258.475856 49.836321 
L 260.766859 46.134559 
L 263.065241 43.582074 
L 265.355497 48.398544 
L 267.654339 46.116545 
L 269.950481 47.363722 
L 272.24468 46.692751 
L 274.54559 46.40932 
L 276.843193 44.225473 
L 279.132887 47.993897 
L 281.432698 45.819525 
L 283.741962 41.834127 
L 286.036981 44.343022 
L 288.33074 46.168205 
L 290.627184 43.096953 
L 292.924355 43.117262 
L 295.217941 41.982537 
L 297.513208 42.985239 
L 299.816217 43.695421 
L 302.11173 40.408398 
L 304.400019 40.656137 
L 306.697483 39.830754 
L 308.999638 41.031549 
L 311.291481 44.941939 
L 313.588147 40.040791 
L 315.879176 39.420217 
L 318.171457 39.381766 
L 320.469638 39.753566 
L 322.760534 39.267329 
L 325.063512 38.963701 
L 327.353243 40.640183 
L 329.645029 36.980609 
L 331.942613 35.715619 
L 334.236775 37.387464 
L 336.528268 36.596042 
L 338.823971 36.118026 
L 341.118417 36.588094 
L 343.416166 36.089354 
L 345.707778 35.386267 
L 348.002825 36.139076 
L 350.303049 33.737503 
L 352.599464 35.793748 
L 354.890451 34.324261 
L 357.188697 34.020505 
L 359.486868 32.608716 
L 361.779842 33.84619 
L 364.075468 33.664949 
L 366.370565 33.83686 
L 368.665407 33.639771 
L 370.960845 33.125248 
L 373.252708 32.48777 
L 375.543454 32.080091 
L 377.838962 31.721705 
L 380.132027 32.817832 
L 382.426843 32.870481 
L 384.722181 32.707462 
L 387.013429 32.386161 
L 389.310099 32.316544 
L 391.604401 32.726987 
L 393.903638 32.505176 
L 396.195711 32.247529 
L 398.489999 31.978246 
L 400.78514 32.603707 
L 403.07603 33.176472 
L 405.364916 32.60869 
L 405.364916 27.954875 
L 405.364916 27.954875 
L 403.07603 28.414125 
L 400.78514 28.50358 
L 398.489999 27.860354 
L 396.195711 28.678517 
L 393.903638 27.997975 
L 391.604401 28.017818 
L 389.310099 28.790744 
L 387.013429 29.144022 
L 384.722181 28.701894 
L 382.426843 29.867976 
L 380.132027 29.376902 
L 377.838962 28.53979 
L 375.543454 28.664714 
L 373.252708 29.404895 
L 370.960845 29.492381 
L 368.665407 28.554963 
L 366.370565 29.445321 
L 364.075468 29.798473 
L 361.779842 29.979714 
L 359.486868 28.981881 
L 357.188697 30.469948 
L 354.890451 28.232955 
L 352.599464 28.515465 
L 350.303049 29.967573 
L 348.002825 32.278268 
L 345.707778 31.520735 
L 343.416166 33.294609 
L 341.118417 29.473116 
L 338.823971 32.359731 
L 336.528268 31.277578 
L 334.236775 29.640365 
L 331.942613 32.762138 
L 329.645029 33.128318 
L 327.353243 35.268458 
L 325.063512 33.863841 
L 322.760534 33.4998 
L 320.469638 34.221836 
L 318.171457 34.412396 
L 315.879176 35.461391 
L 313.588147 33.813784 
L 311.291481 36.585174 
L 308.999638 31.131443 
L 306.697483 34.265476 
L 304.400019 36.219123 
L 302.11173 36.164793 
L 299.816217 37.106728 
L 297.513208 36.971118 
L 295.217941 37.369684 
L 292.924355 36.355786 
L 290.627184 36.859404 
L 288.33074 35.419322 
L 286.036981 39.358984 
L 283.741962 33.470376 
L 281.432698 37.822067 
L 279.132887 42.293201 
L 276.843193 41.470185 
L 274.54559 39.527992 
L 272.24468 38.459183 
L 269.950481 39.842278 
L 267.654339 37.525047 
L 265.355497 42.069795 
L 263.065241 37.280489 
L 260.766859 41.433923 
L 258.475856 38.155057 
L 256.180744 43.115418 
L 253.886389 41.505623 
L 251.58971 39.297694 
L 249.294738 45.31807 
L 246.999231 41.952313 
L 244.701959 39.461534 
L 242.399437 45.126791 
L 240.109974 43.864399 
L 237.806829 44.32361 
L 235.516842 43.367864 
L 233.225509 45.118384 
L 230.93011 41.516542 
L 228.633136 43.344072 
L 226.341793 46.643924 
L 224.049393 47.061051 
L 221.752592 43.148953 
L 219.45549 44.61126 
L 217.156285 45.19165 
L 214.861508 47.739292 
L 212.569748 46.87993 
L 210.271759 47.98691 
L 207.969913 47.417462 
L 205.676859 55.287341 
L 203.381889 45.11949 
L 201.082752 52.22369 
L 198.793795 41.108976 
L 196.496948 48.2981 
L 194.205603 48.333785 
L 191.904182 51.297432 
L 189.611342 49.792507 
L 187.316853 46.378003 
L 185.019717 48.498965 
L 182.72115 52.8276 
L 180.429728 52.396638 
L 178.137364 50.799008 
L 175.844475 55.161309 
L 173.549849 52.013386 
L 171.249122 48.435839 
L 168.954799 53.500504 
L 166.658736 53.803897 
L 164.367773 62.883486 
L 162.07552 57.540338 
L 159.774076 55.05923 
L 157.47646 49.76944 
L 155.173044 55.458858 
L 152.872029 52.88037 
L 150.579235 55.878695 
L 148.286355 57.97534 
L 145.98416 53.804673 
L 143.681085 58.132079 
L 141.38481 57.68353 
L 139.090675 54.940852 
L 136.783366 59.920262 
L 134.486124 62.465992 
L 132.193937 60.460279 
L 129.891669 65.396793 
L 127.592191 67.766199 
L 125.299208 64.950199 
L 123.003974 66.156516 
L 120.702862 75.28634 
L 118.408086 76.36945 
L 116.110884 62.383269 
L 113.800008 75.580619 
L 111.501249 81.992135 
L 109.200651 70.718352 
L 106.904568 78.762797 
L 104.603309 77.132129 
L 102.303375 76.691466 
L 99.994556 89.09518 
L 97.695077 85.13906 
L 95.388876 105.444914 
L 93.078298 113.077555 
L 90.776013 115.508704 
L 88.470259 129.335057 
L 86.167698 131.202312 
L 83.860641 148.084481 
L 81.551992 156.852312 
L 79.249429 171.197051 
L 76.947803 169.56682 
L 74.634347 175.849476 
L 72.323013 195.282097 
L 70.013567 203.781947 
L 67.704843 221.256481 
L 65.411516 228.378764 
L 63.109778 252.125519 
z
" style="fill:#2ca02c;fill-opacity:0.25;"/>
   </g>
   <g id="PolyCollection_4">
    <path clip-path="url(#pbe6dc1cf3c)" d="M 63.172132 265.241532 
L 63.172132 285.277028 
L 65.504303 263.734032 
L 67.844423 255.263865 
L 70.220023 230.31852 
L 72.551248 211.573085 
L 74.861544 204.213421 
L 77.212977 188.972247 
L 79.559061 182.965485 
L 81.883838 154.524364 
L 84.21814 152.628393 
L 86.582093 134.212968 
L 88.925957 129.901632 
L 91.241796 125.738367 
L 93.58235 109.871899 
L 95.885114 101.817976 
L 98.232245 92.301411 
L 100.537752 90.157232 
L 102.871548 103.361026 
L 105.221877 79.54449 
L 107.545528 83.203749 
L 109.848857 82.117483 
L 112.174076 84.005642 
L 114.52143 81.929293 
L 116.866021 77.473751 
L 119.170399 81.585756 
L 121.501341 71.620424 
L 123.816217 74.132177 
L 126.137961 77.126119 
L 128.475305 72.225956 
L 130.807289 68.872837 
L 133.162272 67.593149 
L 135.507243 65.690481 
L 137.833301 68.123884 
L 140.180267 66.809817 
L 142.504721 67.678386 
L 144.865946 77.386724 
L 147.181061 71.088231 
L 149.540999 61.987514 
L 151.905745 64.271988 
L 154.238046 60.025574 
L 156.550644 65.683334 
L 158.879291 65.324201 
L 161.205333 58.413499 
L 163.530963 60.235298 
L 165.85181 66.627198 
L 168.158318 65.899696 
L 170.490358 64.732345 
L 172.840126 61.156268 
L 175.154687 60.361095 
L 177.496051 59.018932 
L 179.841913 57.589363 
L 182.150512 58.449986 
L 184.466424 70.221392 
L 186.782851 63.157274 
L 189.127893 51.666685 
L 191.474536 58.028661 
L 193.807372 55.473934 
L 196.125448 53.454379 
L 198.439369 58.640538 
L 200.75899 52.881828 
L 203.09504 56.308969 
L 205.432267 56.909552 
L 207.741442 55.038277 
L 210.079644 50.721645 
L 212.41422 60.98799 
L 214.744394 50.788932 
L 217.07292 56.706033 
L 219.404634 53.809855 
L 221.723534 52.162915 
L 224.051919 48.916497 
L 226.381282 53.904182 
L 228.712035 56.922668 
L 231.04435 56.662299 
L 233.407106 49.032862 
L 235.737756 49.100188 
L 238.053589 49.15728 
L 240.418184 51.02046 
L 242.761284 49.085945 
L 245.106946 49.07365 
L 247.456597 46.751693 
L 249.783688 46.826876 
L 252.11119 50.178904 
L 254.44856 47.718487 
L 256.791295 50.897477 
L 259.144133 53.447365 
L 261.509846 51.417158 
L 263.800645 48.185741 
L 266.11815 49.13687 
L 268.42195 45.808878 
L 270.759974 42.580179 
L 273.096201 45.236139 
L 275.445491 50.192448 
L 277.806471 49.099083 
L 280.171283 42.014621 
L 282.487679 44.951621 
L 284.845108 40.230652 
L 287.186247 44.598958 
L 289.504206 45.59825 
L 291.832939 39.831755 
L 294.158088 44.224482 
L 296.527812 39.471486 
L 298.84778 40.478192 
L 301.19966 39.493112 
L 303.55386 45.714544 
L 305.898108 43.288932 
L 308.244616 41.317118 
L 310.558759 39.462225 
L 312.898532 39.346084 
L 315.224556 40.524189 
L 317.58567 41.151122 
L 319.93525 38.028459 
L 322.263843 36.315862 
L 324.591125 38.983978 
L 326.943119 36.478014 
L 329.295422 36.813498 
L 331.623552 39.089688 
L 333.980417 37.631549 
L 336.346184 36.768523 
L 338.68374 34.305087 
L 341.016603 36.256063 
L 343.378789 33.717789 
L 345.707292 32.924165 
L 348.042522 34.777462 
L 350.37693 34.411585 
L 352.70416 32.612984 
L 355.064258 32.818797 
L 357.394668 34.082803 
L 359.726072 34.393129 
L 362.030704 32.889978 
L 364.37807 32.615876 
L 366.716547 31.891284 
L 369.043966 31.921975 
L 371.406425 33.484195 
L 373.734244 32.64071 
L 376.076831 33.831951 
L 378.402745 31.152436 
L 380.739973 32.325301 
L 383.065685 32.544415 
L 385.428322 32.360476 
L 387.770283 32.56231 
L 390.084227 32.705351 
L 392.42502 33.532755 
L 394.767391 32.584408 
L 397.07252 32.842807 
L 399.412448 32.569156 
L 401.746036 32.005611 
L 404.071459 32.710771 
L 406.39118 33.031529 
L 408.731515 32.841534 
L 411.046861 32.989484 
L 411.046861 29.990628 
L 411.046861 29.990628 
L 408.731515 29.3532 
L 406.39118 30.06941 
L 404.071459 30.571409 
L 401.746036 29.766227 
L 399.412448 29.625577 
L 397.07252 29.231099 
L 394.767391 29.670739 
L 392.42502 30.17232 
L 390.084227 30.878898 
L 387.770283 29.994906 
L 385.428322 30.075912 
L 383.065685 30.012801 
L 380.739973 29.567365 
L 378.402745 29.10906 
L 376.076831 29.873125 
L 373.734244 29.372782 
L 371.406425 29.737572 
L 369.043966 29.789449 
L 366.716547 29.638899 
L 364.37807 30.485063 
L 362.030704 27.794414 
L 359.726072 30.701462 
L 357.394668 30.105582 
L 355.064258 27.744767 
L 352.70416 30.185887 
L 350.37693 31.105902 
L 348.042522 28.746373 
L 345.707292 30.055946 
L 343.378789 31.074733 
L 341.016603 32.161281 
L 338.68374 31.937364 
L 336.346184 31.346752 
L 333.980417 33.685652 
L 331.623552 34.281578 
L 329.295422 32.268396 
L 326.943119 32.422639 
L 324.591125 33.420668 
L 322.263843 33.0681 
L 319.93525 33.892878 
L 317.58567 34.032554 
L 315.224556 36.532312 
L 312.898532 33.6627 
L 310.558759 35.721451 
L 308.244616 32.960353 
L 305.898108 36.304943 
L 303.55386 37.322911 
L 301.19966 36.898838 
L 298.84778 30.355699 
L 296.527812 34.383089 
L 294.158088 35.369393 
L 291.832939 35.472749 
L 289.504206 40.45989 
L 287.186247 39.344703 
L 284.845108 35.496747 
L 282.487679 38.387903 
L 280.171283 39.754147 
L 277.806471 42.094221 
L 275.445491 41.182096 
L 273.096201 41.063656 
L 270.759974 37.376179 
L 268.42195 39.947193 
L 266.11815 39.881541 
L 263.800645 41.376392 
L 261.509846 45.998755 
L 259.144133 45.116408 
L 256.791295 46.578849 
L 254.44856 42.749852 
L 252.11119 43.733015 
L 249.783688 38.325058 
L 247.456597 37.977346 
L 245.106946 43.38834 
L 242.761284 40.597016 
L 240.418184 40.29367 
L 238.053589 44.815053 
L 235.737756 41.126496 
L 233.407106 44.335334 
L 231.04435 41.418165 
L 228.712035 47.501232 
L 226.381282 44.055454 
L 224.051919 45.7808 
L 221.723534 45.736307 
L 219.404634 43.666471 
L 217.07292 50.617724 
L 214.744394 44.15002 
L 212.41422 49.718934 
L 210.079644 46.694268 
L 207.741442 48.721073 
L 205.432267 49.085105 
L 203.09504 49.504446 
L 200.75899 44.654912 
L 198.439369 48.804047 
L 196.125448 45.592703 
L 193.807372 45.204318 
L 191.474536 47.5431 
L 189.127893 48.709498 
L 186.782851 52.14109 
L 184.466424 46.526901 
L 182.150512 47.846739 
L 179.841913 49.915636 
L 177.496051 51.144268 
L 175.154687 54.514373 
L 172.840126 51.121411 
L 170.490358 48.028644 
L 168.158318 56.648311 
L 165.85181 57.612391 
L 163.530963 51.257003 
L 161.205333 50.722669 
L 158.879291 52.451124 
L 156.550644 55.173089 
L 154.238046 55.816513 
L 151.905745 52.717959 
L 149.540999 50.04851 
L 147.181061 56.474111 
L 144.865946 55.794091 
L 142.504721 50.519835 
L 140.180267 52.47585 
L 137.833301 55.87405 
L 135.507243 52.02443 
L 133.162272 60.029607 
L 130.807289 55.910476 
L 128.475305 62.163132 
L 126.137961 66.566678 
L 123.816217 58.26326 
L 121.501341 62.52701 
L 119.170399 64.402761 
L 116.866021 61.023469 
L 114.52143 68.227768 
L 112.174076 69.474172 
L 109.848857 66.468822 
L 107.545528 72.390543 
L 105.221877 65.235753 
L 102.871548 73.075988 
L 100.537752 84.829854 
L 98.232245 80.752437 
L 95.885114 88.816255 
L 93.58235 89.824384 
L 91.241796 107.245857 
L 88.925957 115.346571 
L 86.582093 119.795219 
L 84.21814 136.721801 
L 81.883838 139.115202 
L 79.559061 161.602818 
L 77.212977 168.19231 
L 74.861544 181.254948 
L 72.551248 190.116358 
L 70.220023 209.522167 
L 67.844423 219.13345 
L 65.504303 232.170555 
L 63.172132 265.241532 
z
" style="fill:#d62728;fill-opacity:0.25;"/>
   </g>
   <g id="PolyCollection_5">
    <path clip-path="url(#pbe6dc1cf3c)" d="M 63.126961 239.659019 
L 63.126961 264.476933 
L 65.443828 241.198534 
L 67.796654 238.253301 
L 70.117887 208.014252 
L 72.459364 199.893834 
L 74.808097 177.992962 
L 77.145963 174.955605 
L 79.46719 167.976905 
L 81.812457 156.153464 
L 84.157057 145.390378 
L 86.504483 144.768625 
L 88.848124 112.715116 
L 91.19616 104.645775 
L 93.539046 103.667656 
L 95.869446 100.176151 
L 98.22101 91.763961 
L 100.565878 91.056075 
L 102.916464 80.658348 
L 105.269988 78.575384 
L 107.596024 86.250973 
L 109.921634 79.140855 
L 112.264809 81.822072 
L 114.600904 82.256676 
L 116.945833 69.745324 
L 119.261566 78.990883 
L 121.600551 85.411141 
L 123.941269 70.57306 
L 126.277933 71.926919 
L 128.602365 71.134396 
L 130.91454 65.158887 
L 133.259622 69.682131 
L 135.596359 66.480553 
L 137.922189 68.123281 
L 140.251531 62.426378 
L 142.578803 69.966846 
L 144.899044 69.331555 
L 147.234067 70.070445 
L 149.564787 68.226018 
L 151.890376 63.561479 
L 154.217419 60.65713 
L 156.551726 58.936004 
L 158.874144 62.170852 
L 161.205961 59.0372 
L 163.563631 59.691242 
L 165.884671 66.499001 
L 168.21956 59.858829 
L 170.568686 62.194554 
L 172.885548 65.736646 
L 175.203606 61.8399 
L 177.547249 62.504167 
L 179.903565 58.422016 
L 182.229183 58.942248 
L 184.553179 58.127173 
L 186.84864 53.177613 
L 189.160305 57.064841 
L 191.509255 60.451756 
L 193.838989 52.672299 
L 196.160238 53.922829 
L 198.507753 53.083911 
L 200.852194 59.754471 
L 203.196431 63.538226 
L 205.538522 55.510329 
L 207.873379 60.683271 
L 210.22297 49.66015 
L 212.530848 53.965241 
L 214.866431 57.851925 
L 217.189849 56.148964 
L 219.534676 51.423906 
L 221.863559 48.945745 
L 224.188954 54.431052 
L 226.5054 61.192489 
L 228.850918 52.744643 
L 231.215836 44.697679 
L 233.562235 49.64746 
L 235.862958 49.536843 
L 238.174817 52.201685 
L 240.483742 45.828421 
L 242.812705 47.642122 
L 245.139415 45.536985 
L 247.484899 49.364386 
L 249.814545 46.346205 
L 252.117976 49.386803 
L 254.422208 47.874501 
L 256.754719 45.101569 
L 259.099081 49.142636 
L 261.434928 51.257001 
L 263.753947 48.750663 
L 266.065414 48.26939 
L 268.383291 46.085933 
L 270.708057 44.38619 
L 273.053365 45.634402 
L 275.400476 45.771287 
L 277.714101 44.066359 
L 280.052001 42.148624 
L 282.387854 45.772794 
L 284.715492 41.382445 
L 287.050709 41.069719 
L 289.374038 41.384971 
L 291.724124 39.456699 
L 294.060792 42.295226 
L 296.401431 40.145355 
L 298.736521 41.16139 
L 301.048897 38.725249 
L 303.378417 42.848624 
L 305.736547 41.100745 
L 308.042549 39.593137 
L 310.380714 39.480675 
L 312.728541 40.424197 
L 315.052324 40.53827 
L 317.386307 41.5568 
L 319.705578 41.690083 
L 322.036342 38.064965 
L 324.36533 38.279561 
L 326.689115 37.116253 
L 329.031723 36.994963 
L 331.357225 36.222793 
L 333.683852 36.412724 
L 335.998561 36.674756 
L 338.323239 35.533538 
L 340.643795 36.293401 
L 342.960117 35.717171 
L 345.30178 35.494055 
L 347.615821 36.04251 
L 349.929809 35.893725 
L 352.2556 35.786594 
L 354.576176 35.080175 
L 356.910427 35.423284 
L 359.244823 36.708417 
L 361.544946 33.965203 
L 363.855014 35.145852 
L 366.196384 35.298634 
L 368.529696 33.386968 
L 370.846929 34.3243 
L 373.160021 34.31874 
L 375.515669 33.575652 
L 377.83627 33.373629 
L 380.164893 32.820763 
L 382.499851 32.844523 
L 384.828597 32.424309 
L 387.160077 33.621898 
L 389.489809 33.525267 
L 391.825075 33.294057 
L 394.164433 33.176945 
L 396.499686 32.630674 
L 398.827427 33.049898 
L 401.168856 32.746737 
L 403.493664 33.316009 
L 405.805051 33.11288 
L 408.121733 32.237817 
L 410.455327 33.662511 
L 410.455327 29.921738 
L 410.455327 29.921738 
L 408.121733 29.413194 
L 405.805051 30.169301 
L 403.493664 29.664103 
L 401.168856 29.870893 
L 398.827427 30.051041 
L 396.499686 29.866129 
L 394.164433 29.682339 
L 391.825075 29.504814 
L 389.489809 29.575672 
L 387.160077 28.874904 
L 384.828597 29.468357 
L 382.499851 29.83352 
L 380.164893 29.978108 
L 377.83627 30.39186 
L 375.515669 30.129424 
L 373.160021 29.325922 
L 370.846929 30.468222 
L 368.529696 30.559763 
L 366.196384 31.668781 
L 363.855014 31.579909 
L 361.544946 30.948146 
L 359.244823 30.077757 
L 356.910427 31.242063 
L 354.576176 30.618552 
L 352.2556 32.087026 
L 349.929809 30.59038 
L 347.615821 31.16656 
L 345.30178 32.198324 
L 342.960117 33.243896 
L 340.643795 34.298835 
L 338.323239 32.521323 
L 335.998561 32.407138 
L 333.683852 30.313036 
L 331.357225 32.859101 
L 329.031723 32.086931 
L 326.689115 32.146883 
L 324.36533 33.098053 
L 322.036342 31.802307 
L 319.705578 32.285319 
L 317.386307 34.472668 
L 315.052324 34.947474 
L 312.728541 35.665684 
L 310.380714 33.70935 
L 308.042549 35.409298 
L 305.736547 35.895342 
L 303.378417 37.107734 
L 301.048897 33.498156 
L 298.736521 35.834697 
L 296.401431 36.850732 
L 294.060792 36.754926 
L 291.724124 34.881185 
L 289.374038 35.611116 
L 287.050709 33.932717 
L 284.715492 35.553228 
L 282.387854 35.935561 
L 280.052001 38.049388 
L 277.714101 36.494135 
L 275.400476 39.561889 
L 273.053365 38.852982 
L 270.708057 35.630581 
L 268.383291 40.274275 
L 266.065414 38.211645 
L 263.753947 41.657262 
L 261.434928 41.627886 
L 259.099081 41.929839 
L 256.754719 39.687883 
L 254.422208 40.539772 
L 252.117976 44.58553 
L 249.814545 42.128482 
L 247.484899 42.85595 
L 245.139415 39.433708 
L 242.812705 42.342908 
L 240.483742 43.069162 
L 238.174817 43.945541 
L 235.862958 42.321011 
L 233.562235 44.626941 
L 231.215836 41.66253 
L 228.850918 50.108501 
L 226.5054 46.554164 
L 224.188954 42.622379 
L 221.863559 43.757901 
L 219.534676 45.267043 
L 217.189849 46.945835 
L 214.866431 42.765913 
L 212.530848 49.733695 
L 210.22297 44.614251 
L 207.873379 51.956891 
L 205.538522 50.967637 
L 203.196431 51.518483 
L 200.852194 50.529557 
L 198.507753 45.177793 
L 196.160238 48.749075 
L 193.838989 48.005953 
L 191.509255 45.120005 
L 189.160305 46.996578 
L 186.84864 48.406844 
L 184.553179 51.613132 
L 182.229183 49.71061 
L 179.903565 47.814295 
L 177.547249 55.271158 
L 175.203606 48.444128 
L 172.885548 51.434543 
L 170.568686 54.674566 
L 168.21956 49.821062 
L 165.884671 56.049005 
L 163.563631 52.103129 
L 161.205961 52.334275 
L 158.874144 49.502691 
L 156.551726 55.395741 
L 154.217419 51.499722 
L 151.890376 52.945159 
L 149.564787 52.811646 
L 147.234067 51.088046 
L 144.899044 57.807892 
L 142.578803 60.616181 
L 140.251531 55.348947 
L 137.922189 56.599618 
L 135.596359 55.825798 
L 133.259622 52.926289 
L 130.91454 54.730917 
L 128.602365 57.394565 
L 126.277933 58.837349 
L 123.941269 64.299338 
L 121.600551 66.37709 
L 119.261566 66.514324 
L 116.945833 61.018944 
L 114.600904 64.154736 
L 112.264809 68.032921 
L 109.921634 67.633039 
L 107.596024 70.189111 
L 105.269988 62.096728 
L 102.916464 68.894576 
L 100.565878 73.539857 
L 98.22101 80.806577 
L 95.869446 82.000164 
L 93.539046 83.643822 
L 91.19616 82.424048 
L 88.848124 92.720468 
L 86.504483 96.431861 
L 84.157057 121.183857 
L 81.812457 124.859641 
L 79.46719 131.522789 
L 77.145963 149.827215 
L 74.808097 154.583224 
L 72.459364 178.083238 
L 70.117887 181.803902 
L 67.796654 201.34573 
L 65.443828 209.531719 
L 63.126961 239.659019 
z
" style="fill:#9467bd;fill-opacity:0.25;"/>
   </g>
   <g id="matplotlib.axis_1">
    <g id="xtick_1">
     <g id="line2d_1">
      <defs>
       <path d="M 0 0 
L 0 3.5 
" id="mb4261dc007" style="stroke:#000000;stroke-width:0.8;"/>
      </defs>
      <g>
       <use style="stroke:#000000;stroke-width:0.8;" x="60.709808" xlink:href="#mb4261dc007" y="303.64"/>
      </g>
     </g>
     <g id="text_1">
      <!-- 0 -->
      <g transform="translate(57.528558 318.238437)scale(0.1 -0.1)">
       <defs>
        <path d="M 31.78125 66.40625 
Q 24.171875 66.40625 20.328125 58.90625 
Q 16.5 51.421875 16.5 36.375 
Q 16.5 21.390625 20.328125 13.890625 
Q 24.171875 6.390625 31.78125 6.390625 
Q 39.453125 6.390625 43.28125 13.890625 
Q 47.125 21.390625 47.125 36.375 
Q 47.125 51.421875 43.28125 58.90625 
Q 39.453125 66.40625 31.78125 66.40625 
z
M 31.78125 74.21875 
Q 44.046875 74.21875 50.515625 64.515625 
Q 56.984375 54.828125 56.984375 36.375 
Q 56.984375 17.96875 50.515625 8.265625 
Q 44.046875 -1.421875 31.78125 -1.421875 
Q 19.53125 -1.421875 13.0625 8.265625 
Q 6.59375 17.96875 6.59375 36.375 
Q 6.59375 54.828125 13.0625 64.515625 
Q 19.53125 74.21875 31.78125 74.21875 
z
" id="DejaVuSans-48"/>
       </defs>
       <use xlink:href="#DejaVuSans-48"/>
      </g>
     </g>
    </g>
    <g id="xtick_2">
     <g id="line2d_2">
      <g>
       <use style="stroke:#000000;stroke-width:0.8;" x="140.678569" xlink:href="#mb4261dc007" y="303.64"/>
      </g>
     </g>
     <g id="text_2">
      <!-- 2000 -->
      <g transform="translate(127.953569 318.238437)scale(0.1 -0.1)">
       <defs>
        <path d="M 19.1875 8.296875 
L 53.609375 8.296875 
L 53.609375 0 
L 7.328125 0 
L 7.328125 8.296875 
Q 12.9375 14.109375 22.625 23.890625 
Q 32.328125 33.6875 34.8125 36.53125 
Q 39.546875 41.84375 41.421875 45.53125 
Q 43.3125 49.21875 43.3125 52.78125 
Q 43.3125 58.59375 39.234375 62.25 
Q 35.15625 65.921875 28.609375 65.921875 
Q 23.96875 65.921875 18.8125 64.3125 
Q 13.671875 62.703125 7.8125 59.421875 
L 7.8125 69.390625 
Q 13.765625 71.78125 18.9375 73 
Q 24.125 74.21875 28.421875 74.21875 
Q 39.75 74.21875 46.484375 68.546875 
Q 53.21875 62.890625 53.21875 53.421875 
Q 53.21875 48.921875 51.53125 44.890625 
Q 49.859375 40.875 45.40625 35.40625 
Q 44.1875 33.984375 37.640625 27.21875 
Q 31.109375 20.453125 19.1875 8.296875 
z
" id="DejaVuSans-50"/>
       </defs>
       <use xlink:href="#DejaVuSans-50"/>
       <use x="63.623047" xlink:href="#DejaVuSans-48"/>
       <use x="127.246094" xlink:href="#DejaVuSans-48"/>
       <use x="190.869141" xlink:href="#DejaVuSans-48"/>
      </g>
     </g>
    </g>
    <g id="xtick_3">
     <g id="line2d_3">
      <g>
       <use style="stroke:#000000;stroke-width:0.8;" x="220.647329" xlink:href="#mb4261dc007" y="303.64"/>
      </g>
     </g>
     <g id="text_3">
      <!-- 4000 -->
      <g transform="translate(207.922329 318.238437)scale(0.1 -0.1)">
       <defs>
        <path d="M 37.796875 64.3125 
L 12.890625 25.390625 
L 37.796875 25.390625 
z
M 35.203125 72.90625 
L 47.609375 72.90625 
L 47.609375 25.390625 
L 58.015625 25.390625 
L 58.015625 17.1875 
L 47.609375 17.1875 
L 47.609375 0 
L 37.796875 0 
L 37.796875 17.1875 
L 4.890625 17.1875 
L 4.890625 26.703125 
z
" id="DejaVuSans-52"/>
       </defs>
       <use xlink:href="#DejaVuSans-52"/>
       <use x="63.623047" xlink:href="#DejaVuSans-48"/>
       <use x="127.246094" xlink:href="#DejaVuSans-48"/>
       <use x="190.869141" xlink:href="#DejaVuSans-48"/>
      </g>
     </g>
    </g>
    <g id="xtick_4">
     <g id="line2d_4">
      <g>
       <use style="stroke:#000000;stroke-width:0.8;" x="300.61609" xlink:href="#mb4261dc007" y="303.64"/>
      </g>
     </g>
     <g id="text_4">
      <!-- 6000 -->
      <g transform="translate(287.89109 318.238437)scale(0.1 -0.1)">
       <defs>
        <path d="M 33.015625 40.375 
Q 26.375 40.375 22.484375 35.828125 
Q 18.609375 31.296875 18.609375 23.390625 
Q 18.609375 15.53125 22.484375 10.953125 
Q 26.375 6.390625 33.015625 6.390625 
Q 39.65625 6.390625 43.53125 10.953125 
Q 47.40625 15.53125 47.40625 23.390625 
Q 47.40625 31.296875 43.53125 35.828125 
Q 39.65625 40.375 33.015625 40.375 
z
M 52.59375 71.296875 
L 52.59375 62.3125 
Q 48.875 64.0625 45.09375 64.984375 
Q 41.3125 65.921875 37.59375 65.921875 
Q 27.828125 65.921875 22.671875 59.328125 
Q 17.53125 52.734375 16.796875 39.40625 
Q 19.671875 43.65625 24.015625 45.921875 
Q 28.375 48.1875 33.59375 48.1875 
Q 44.578125 48.1875 50.953125 41.515625 
Q 57.328125 34.859375 57.328125 23.390625 
Q 57.328125 12.15625 50.6875 5.359375 
Q 44.046875 -1.421875 33.015625 -1.421875 
Q 20.359375 -1.421875 13.671875 8.265625 
Q 6.984375 17.96875 6.984375 36.375 
Q 6.984375 53.65625 15.1875 63.9375 
Q 23.390625 74.21875 37.203125 74.21875 
Q 40.921875 74.21875 44.703125 73.484375 
Q 48.484375 72.75 52.59375 71.296875 
z
" id="DejaVuSans-54"/>
       </defs>
       <use xlink:href="#DejaVuSans-54"/>
       <use x="63.623047" xlink:href="#DejaVuSans-48"/>
       <use x="127.246094" xlink:href="#DejaVuSans-48"/>
       <use x="190.869141" xlink:href="#DejaVuSans-48"/>
      </g>
     </g>
    </g>
    <g id="xtick_5">
     <g id="line2d_5">
      <g>
       <use style="stroke:#000000;stroke-width:0.8;" x="380.584851" xlink:href="#mb4261dc007" y="303.64"/>
      </g>
     </g>
     <g id="text_5">
      <!-- 8000 -->
      <g transform="translate(367.859851 318.238437)scale(0.1 -0.1)">
       <defs>
        <path d="M 31.78125 34.625 
Q 24.75 34.625 20.71875 30.859375 
Q 16.703125 27.09375 16.703125 20.515625 
Q 16.703125 13.921875 20.71875 10.15625 
Q 24.75 6.390625 31.78125 6.390625 
Q 38.8125 6.390625 42.859375 10.171875 
Q 46.921875 13.96875 46.921875 20.515625 
Q 46.921875 27.09375 42.890625 30.859375 
Q 38.875 34.625 31.78125 34.625 
z
M 21.921875 38.8125 
Q 15.578125 40.375 12.03125 44.71875 
Q 8.5 49.078125 8.5 55.328125 
Q 8.5 64.0625 14.71875 69.140625 
Q 20.953125 74.21875 31.78125 74.21875 
Q 42.671875 74.21875 48.875 69.140625 
Q 55.078125 64.0625 55.078125 55.328125 
Q 55.078125 49.078125 51.53125 44.71875 
Q 48 40.375 41.703125 38.8125 
Q 48.828125 37.15625 52.796875 32.3125 
Q 56.78125 27.484375 56.78125 20.515625 
Q 56.78125 9.90625 50.3125 4.234375 
Q 43.84375 -1.421875 31.78125 -1.421875 
Q 19.734375 -1.421875 13.25 4.234375 
Q 6.78125 9.90625 6.78125 20.515625 
Q 6.78125 27.484375 10.78125 32.3125 
Q 14.796875 37.15625 21.921875 38.8125 
z
M 18.3125 54.390625 
Q 18.3125 48.734375 21.84375 45.5625 
Q 25.390625 42.390625 31.78125 42.390625 
Q 38.140625 42.390625 41.71875 45.5625 
Q 45.3125 48.734375 45.3125 54.390625 
Q 45.3125 60.0625 41.71875 63.234375 
Q 38.140625 66.40625 31.78125 66.40625 
Q 25.390625 66.40625 21.84375 63.234375 
Q 18.3125 60.0625 18.3125 54.390625 
z
" id="DejaVuSans-56"/>
       </defs>
       <use xlink:href="#DejaVuSans-56"/>
       <use x="63.623047" xlink:href="#DejaVuSans-48"/>
       <use x="127.246094" xlink:href="#DejaVuSans-48"/>
       <use x="190.869141" xlink:href="#DejaVuSans-48"/>
      </g>
     </g>
    </g>
    <g id="text_6">
     <!-- Time (sec) -->
     <g transform="translate(221.130313 331.916562)scale(0.1 -0.1)">
      <defs>
       <path d="M -0.296875 72.90625 
L 61.375 72.90625 
L 61.375 64.59375 
L 35.5 64.59375 
L 35.5 0 
L 25.59375 0 
L 25.59375 64.59375 
L -0.296875 64.59375 
z
" id="DejaVuSans-84"/>
       <path d="M 9.421875 54.6875 
L 18.40625 54.6875 
L 18.40625 0 
L 9.421875 0 
z
M 9.421875 75.984375 
L 18.40625 75.984375 
L 18.40625 64.59375 
L 9.421875 64.59375 
z
" id="DejaVuSans-105"/>
       <path d="M 52 44.1875 
Q 55.375 50.25 60.0625 53.125 
Q 64.75 56 71.09375 56 
Q 79.640625 56 84.28125 50.015625 
Q 88.921875 44.046875 88.921875 33.015625 
L 88.921875 0 
L 79.890625 0 
L 79.890625 32.71875 
Q 79.890625 40.578125 77.09375 44.375 
Q 74.3125 48.1875 68.609375 48.1875 
Q 61.625 48.1875 57.5625 43.546875 
Q 53.515625 38.921875 53.515625 30.90625 
L 53.515625 0 
L 44.484375 0 
L 44.484375 32.71875 
Q 44.484375 40.625 41.703125 44.40625 
Q 38.921875 48.1875 33.109375 48.1875 
Q 26.21875 48.1875 22.15625 43.53125 
Q 18.109375 38.875 18.109375 30.90625 
L 18.109375 0 
L 9.078125 0 
L 9.078125 54.6875 
L 18.109375 54.6875 
L 18.109375 46.1875 
Q 21.1875 51.21875 25.484375 53.609375 
Q 29.78125 56 35.6875 56 
Q 41.65625 56 45.828125 52.96875 
Q 50 49.953125 52 44.1875 
z
" id="DejaVuSans-109"/>
       <path d="M 56.203125 29.59375 
L 56.203125 25.203125 
L 14.890625 25.203125 
Q 15.484375 15.921875 20.484375 11.0625 
Q 25.484375 6.203125 34.421875 6.203125 
Q 39.59375 6.203125 44.453125 7.46875 
Q 49.3125 8.734375 54.109375 11.28125 
L 54.109375 2.78125 
Q 49.265625 0.734375 44.1875 -0.34375 
Q 39.109375 -1.421875 33.890625 -1.421875 
Q 20.796875 -1.421875 13.15625 6.1875 
Q 5.515625 13.8125 5.515625 26.8125 
Q 5.515625 40.234375 12.765625 48.109375 
Q 20.015625 56 32.328125 56 
Q 43.359375 56 49.78125 48.890625 
Q 56.203125 41.796875 56.203125 29.59375 
z
M 47.21875 32.234375 
Q 47.125 39.59375 43.09375 43.984375 
Q 39.0625 48.390625 32.421875 48.390625 
Q 24.90625 48.390625 20.390625 44.140625 
Q 15.875 39.890625 15.1875 32.171875 
z
" id="DejaVuSans-101"/>
       <path id="DejaVuSans-32"/>
       <path d="M 31 75.875 
Q 24.46875 64.65625 21.28125 53.65625 
Q 18.109375 42.671875 18.109375 31.390625 
Q 18.109375 20.125 21.3125 9.0625 
Q 24.515625 -2 31 -13.1875 
L 23.1875 -13.1875 
Q 15.875 -1.703125 12.234375 9.375 
Q 8.59375 20.453125 8.59375 31.390625 
Q 8.59375 42.28125 12.203125 53.3125 
Q 15.828125 64.359375 23.1875 75.875 
z
" id="DejaVuSans-40"/>
       <path d="M 44.28125 53.078125 
L 44.28125 44.578125 
Q 40.484375 46.53125 36.375 47.5 
Q 32.28125 48.484375 27.875 48.484375 
Q 21.1875 48.484375 17.84375 46.4375 
Q 14.5 44.390625 14.5 40.28125 
Q 14.5 37.15625 16.890625 35.375 
Q 19.28125 33.59375 26.515625 31.984375 
L 29.59375 31.296875 
Q 39.15625 29.25 43.1875 25.515625 
Q 47.21875 21.78125 47.21875 15.09375 
Q 47.21875 7.46875 41.1875 3.015625 
Q 35.15625 -1.421875 24.609375 -1.421875 
Q 20.21875 -1.421875 15.453125 -0.5625 
Q 10.6875 0.296875 5.421875 2 
L 5.421875 11.28125 
Q 10.40625 8.6875 15.234375 7.390625 
Q 20.0625 6.109375 24.8125 6.109375 
Q 31.15625 6.109375 34.5625 8.28125 
Q 37.984375 10.453125 37.984375 14.40625 
Q 37.984375 18.0625 35.515625 20.015625 
Q 33.0625 21.96875 24.703125 23.78125 
L 21.578125 24.515625 
Q 13.234375 26.265625 9.515625 29.90625 
Q 5.8125 33.546875 5.8125 39.890625 
Q 5.8125 47.609375 11.28125 51.796875 
Q 16.75 56 26.8125 56 
Q 31.78125 56 36.171875 55.265625 
Q 40.578125 54.546875 44.28125 53.078125 
z
" id="DejaVuSans-115"/>
       <path d="M 48.78125 52.59375 
L 48.78125 44.1875 
Q 44.96875 46.296875 41.140625 47.34375 
Q 37.3125 48.390625 33.40625 48.390625 
Q 24.65625 48.390625 19.8125 42.84375 
Q 14.984375 37.3125 14.984375 27.296875 
Q 14.984375 17.28125 19.8125 11.734375 
Q 24.65625 6.203125 33.40625 6.203125 
Q 37.3125 6.203125 41.140625 7.25 
Q 44.96875 8.296875 48.78125 10.40625 
L 48.78125 2.09375 
Q 45.015625 0.34375 40.984375 -0.53125 
Q 36.96875 -1.421875 32.421875 -1.421875 
Q 20.0625 -1.421875 12.78125 6.34375 
Q 5.515625 14.109375 5.515625 27.296875 
Q 5.515625 40.671875 12.859375 48.328125 
Q 20.21875 56 33.015625 56 
Q 37.15625 56 41.109375 55.140625 
Q 45.0625 54.296875 48.78125 52.59375 
z
" id="DejaVuSans-99"/>
       <path d="M 8.015625 75.875 
L 15.828125 75.875 
Q 23.140625 64.359375 26.78125 53.3125 
Q 30.421875 42.28125 30.421875 31.390625 
Q 30.421875 20.453125 26.78125 9.375 
Q 23.140625 -1.703125 15.828125 -13.1875 
L 8.015625 -13.1875 
Q 14.5 -2 17.703125 9.0625 
Q 20.90625 20.125 20.90625 31.390625 
Q 20.90625 42.671875 17.703125 53.65625 
Q 14.5 64.65625 8.015625 75.875 
z
" id="DejaVuSans-41"/>
      </defs>
      <use xlink:href="#DejaVuSans-84"/>
      <use x="57.958984" xlink:href="#DejaVuSans-105"/>
      <use x="85.742188" xlink:href="#DejaVuSans-109"/>
      <use x="183.154297" xlink:href="#DejaVuSans-101"/>
      <use x="244.677734" xlink:href="#DejaVuSans-32"/>
      <use x="276.464844" xlink:href="#DejaVuSans-40"/>
      <use x="315.478516" xlink:href="#DejaVuSans-115"/>
      <use x="367.578125" xlink:href="#DejaVuSans-101"/>
      <use x="429.101562" xlink:href="#DejaVuSans-99"/>
      <use x="484.082031" xlink:href="#DejaVuSans-41"/>
     </g>
    </g>
   </g>
   <g id="matplotlib.axis_2">
    <g id="ytick_1">
     <g id="line2d_6">
      <defs>
       <path d="M 0 0 
L -3.5 0 
" id="m7fe1a05e36" style="stroke:#000000;stroke-width:0.8;"/>
      </defs>
      <g>
       <use style="stroke:#000000;stroke-width:0.8;" x="44.57" xlink:href="#m7fe1a05e36" y="257.980965"/>
      </g>
     </g>
     <g id="text_7">
      <!-- 20 -->
      <g transform="translate(24.845 261.780184)scale(0.1 -0.1)">
       <use xlink:href="#DejaVuSans-50"/>
       <use x="63.623047" xlink:href="#DejaVuSans-48"/>
      </g>
     </g>
    </g>
    <g id="ytick_2">
     <g id="line2d_7">
      <g>
       <use style="stroke:#000000;stroke-width:0.8;" x="44.57" xlink:href="#m7fe1a05e36" y="196.117351"/>
      </g>
     </g>
     <g id="text_8">
      <!-- 40 -->
      <g transform="translate(24.845 199.91657)scale(0.1 -0.1)">
       <use xlink:href="#DejaVuSans-52"/>
       <use x="63.623047" xlink:href="#DejaVuSans-48"/>
      </g>
     </g>
    </g>
    <g id="ytick_3">
     <g id="line2d_8">
      <g>
       <use style="stroke:#000000;stroke-width:0.8;" x="44.57" xlink:href="#m7fe1a05e36" y="134.253736"/>
      </g>
     </g>
     <g id="text_9">
      <!-- 60 -->
      <g transform="translate(24.845 138.052955)scale(0.1 -0.1)">
       <use xlink:href="#DejaVuSans-54"/>
       <use x="63.623047" xlink:href="#DejaVuSans-48"/>
      </g>
     </g>
    </g>
    <g id="ytick_4">
     <g id="line2d_9">
      <g>
       <use style="stroke:#000000;stroke-width:0.8;" x="44.57" xlink:href="#m7fe1a05e36" y="72.390121"/>
      </g>
     </g>
     <g id="text_10">
      <!-- 80 -->
      <g transform="translate(24.845 76.18934)scale(0.1 -0.1)">
       <use xlink:href="#DejaVuSans-56"/>
       <use x="63.623047" xlink:href="#DejaVuSans-48"/>
      </g>
     </g>
    </g>
    <g id="text_11">
     <!-- Test Accuracy (%) -->
     <g transform="translate(18.765313 201.723906)rotate(-90)scale(0.1 -0.1)">
      <defs>
       <path d="M 18.3125 70.21875 
L 18.3125 54.6875 
L 36.8125 54.6875 
L 36.8125 47.703125 
L 18.3125 47.703125 
L 18.3125 18.015625 
Q 18.3125 11.328125 20.140625 9.421875 
Q 21.96875 7.515625 27.59375 7.515625 
L 36.8125 7.515625 
L 36.8125 0 
L 27.59375 0 
Q 17.1875 0 13.234375 3.875 
Q 9.28125 7.765625 9.28125 18.015625 
L 9.28125 47.703125 
L 2.6875 47.703125 
L 2.6875 54.6875 
L 9.28125 54.6875 
L 9.28125 70.21875 
z
" id="DejaVuSans-116"/>
       <path d="M 34.1875 63.1875 
L 20.796875 26.90625 
L 47.609375 26.90625 
z
M 28.609375 72.90625 
L 39.796875 72.90625 
L 67.578125 0 
L 57.328125 0 
L 50.6875 18.703125 
L 17.828125 18.703125 
L 11.1875 0 
L 0.78125 0 
z
" id="DejaVuSans-65"/>
       <path d="M 8.5 21.578125 
L 8.5 54.6875 
L 17.484375 54.6875 
L 17.484375 21.921875 
Q 17.484375 14.15625 20.5 10.265625 
Q 23.53125 6.390625 29.59375 6.390625 
Q 36.859375 6.390625 41.078125 11.03125 
Q 45.3125 15.671875 45.3125 23.6875 
L 45.3125 54.6875 
L 54.296875 54.6875 
L 54.296875 0 
L 45.3125 0 
L 45.3125 8.40625 
Q 42.046875 3.421875 37.71875 1 
Q 33.40625 -1.421875 27.6875 -1.421875 
Q 18.265625 -1.421875 13.375 4.4375 
Q 8.5 10.296875 8.5 21.578125 
z
M 31.109375 56 
z
" id="DejaVuSans-117"/>
       <path d="M 41.109375 46.296875 
Q 39.59375 47.171875 37.8125 47.578125 
Q 36.03125 48 33.890625 48 
Q 26.265625 48 22.1875 43.046875 
Q 18.109375 38.09375 18.109375 28.8125 
L 18.109375 0 
L 9.078125 0 
L 9.078125 54.6875 
L 18.109375 54.6875 
L 18.109375 46.1875 
Q 20.953125 51.171875 25.484375 53.578125 
Q 30.03125 56 36.53125 56 
Q 37.453125 56 38.578125 55.875 
Q 39.703125 55.765625 41.0625 55.515625 
z
" id="DejaVuSans-114"/>
       <path d="M 34.28125 27.484375 
Q 23.390625 27.484375 19.1875 25 
Q 14.984375 22.515625 14.984375 16.5 
Q 14.984375 11.71875 18.140625 8.90625 
Q 21.296875 6.109375 26.703125 6.109375 
Q 34.1875 6.109375 38.703125 11.40625 
Q 43.21875 16.703125 43.21875 25.484375 
L 43.21875 27.484375 
z
M 52.203125 31.203125 
L 52.203125 0 
L 43.21875 0 
L 43.21875 8.296875 
Q 40.140625 3.328125 35.546875 0.953125 
Q 30.953125 -1.421875 24.3125 -1.421875 
Q 15.921875 -1.421875 10.953125 3.296875 
Q 6 8.015625 6 15.921875 
Q 6 25.140625 12.171875 29.828125 
Q 18.359375 34.515625 30.609375 34.515625 
L 43.21875 34.515625 
L 43.21875 35.40625 
Q 43.21875 41.609375 39.140625 45 
Q 35.0625 48.390625 27.6875 48.390625 
Q 23 48.390625 18.546875 47.265625 
Q 14.109375 46.140625 10.015625 43.890625 
L 10.015625 52.203125 
Q 14.9375 54.109375 19.578125 55.046875 
Q 24.21875 56 28.609375 56 
Q 40.484375 56 46.34375 49.84375 
Q 52.203125 43.703125 52.203125 31.203125 
z
" id="DejaVuSans-97"/>
       <path d="M 32.171875 -5.078125 
Q 28.375 -14.84375 24.75 -17.8125 
Q 21.140625 -20.796875 15.09375 -20.796875 
L 7.90625 -20.796875 
L 7.90625 -13.28125 
L 13.1875 -13.28125 
Q 16.890625 -13.28125 18.9375 -11.515625 
Q 21 -9.765625 23.484375 -3.21875 
L 25.09375 0.875 
L 2.984375 54.6875 
L 12.5 54.6875 
L 29.59375 11.921875 
L 46.6875 54.6875 
L 56.203125 54.6875 
z
" id="DejaVuSans-121"/>
       <path d="M 72.703125 32.078125 
Q 68.453125 32.078125 66.03125 28.46875 
Q 63.625 24.859375 63.625 18.40625 
Q 63.625 12.0625 66.03125 8.421875 
Q 68.453125 4.78125 72.703125 4.78125 
Q 76.859375 4.78125 79.265625 8.421875 
Q 81.6875 12.0625 81.6875 18.40625 
Q 81.6875 24.8125 79.265625 28.4375 
Q 76.859375 32.078125 72.703125 32.078125 
z
M 72.703125 38.28125 
Q 80.421875 38.28125 84.953125 32.90625 
Q 89.5 27.546875 89.5 18.40625 
Q 89.5 9.28125 84.9375 3.921875 
Q 80.375 -1.421875 72.703125 -1.421875 
Q 64.890625 -1.421875 60.34375 3.921875 
Q 55.8125 9.28125 55.8125 18.40625 
Q 55.8125 27.59375 60.375 32.9375 
Q 64.9375 38.28125 72.703125 38.28125 
z
M 22.3125 68.015625 
Q 18.109375 68.015625 15.6875 64.375 
Q 13.28125 60.75 13.28125 54.390625 
Q 13.28125 47.953125 15.671875 44.328125 
Q 18.0625 40.71875 22.3125 40.71875 
Q 26.5625 40.71875 28.96875 44.328125 
Q 31.390625 47.953125 31.390625 54.390625 
Q 31.390625 60.6875 28.953125 64.34375 
Q 26.515625 68.015625 22.3125 68.015625 
z
M 66.40625 74.21875 
L 74.21875 74.21875 
L 28.609375 -1.421875 
L 20.796875 -1.421875 
z
M 22.3125 74.21875 
Q 30.03125 74.21875 34.609375 68.875 
Q 39.203125 63.53125 39.203125 54.390625 
Q 39.203125 45.171875 34.640625 39.84375 
Q 30.078125 34.515625 22.3125 34.515625 
Q 14.546875 34.515625 10.03125 39.859375 
Q 5.515625 45.21875 5.515625 54.390625 
Q 5.515625 63.484375 10.046875 68.84375 
Q 14.59375 74.21875 22.3125 74.21875 
z
" id="DejaVuSans-37"/>
      </defs>
      <use xlink:href="#DejaVuSans-84"/>
      <use x="44.083984" xlink:href="#DejaVuSans-101"/>
      <use x="105.607422" xlink:href="#DejaVuSans-115"/>
      <use x="157.707031" xlink:href="#DejaVuSans-116"/>
      <use x="196.916016" xlink:href="#DejaVuSans-32"/>
      <use x="228.703125" xlink:href="#DejaVuSans-65"/>
      <use x="295.361328" xlink:href="#DejaVuSans-99"/>
      <use x="350.341797" xlink:href="#DejaVuSans-99"/>
      <use x="405.322266" xlink:href="#DejaVuSans-117"/>
      <use x="468.701172" xlink:href="#DejaVuSans-114"/>
      <use x="509.814453" xlink:href="#DejaVuSans-97"/>
      <use x="571.09375" xlink:href="#DejaVuSans-99"/>
      <use x="626.074219" xlink:href="#DejaVuSans-121"/>
      <use x="685.253906" xlink:href="#DejaVuSans-32"/>
      <use x="717.041016" xlink:href="#DejaVuSans-40"/>
      <use x="756.054688" xlink:href="#DejaVuSans-37"/>
      <use x="851.074219" xlink:href="#DejaVuSans-41"/>
     </g>
    </g>
   </g>
   <g id="line2d_10">
    <path clip-path="url(#pbe6dc1cf3c)" d="M 62.998636 278.400791 
L 65.204618 261.605787 
L 67.409177 248.4205 
L 69.603432 229.949015 
L 71.789115 205.889265 
L 73.987839 189.245294 
L 76.183882 167.254712 
L 78.383337 157.331764 
L 80.589236 136.171871 
L 82.775018 130.508088 
L 84.965813 111.296535 
L 87.151771 114.770322 
L 89.341148 108.970608 
L 91.539197 90.302779 
L 93.706457 95.860839 
L 95.907881 86.043614 
L 98.091066 82.418793 
L 100.279457 80.576176 
L 102.48503 69.852747 
L 104.674095 83.02293 
L 106.856963 74.595221 
L 109.045836 76.951355 
L 111.252837 76.528459 
L 113.434216 70.456883 
L 115.622518 73.477568 
L 117.798378 74.565014 
L 119.999648 71.574537 
L 122.184137 65.291513 
L 124.371525 69.490264 
L 126.576184 60.095936 
L 128.76728 63.328068 
L 130.962233 59.642834 
L 133.140361 67.798681 
L 135.337031 60.881314 
L 137.533229 58.343939 
L 139.710907 61.394831 
L 144.10539 56.863804 
L 146.282028 57.830423 
L 148.476793 68.312198 
L 150.662864 52.030709 
L 152.853127 53.752499 
L 155.03401 57.135666 
L 157.209817 55.353462 
L 159.417974 57.437734 
L 161.615969 59.67304 
L 163.808022 55.746151 
L 165.998008 53.510844 
L 168.202621 56.591942 
L 170.410194 54.809739 
L 172.590139 53.299397 
L 174.779775 53.812913 
L 176.963523 57.95125 
L 181.353909 52.967121 
L 183.546374 60.488625 
L 185.737526 50.278712 
L 187.950243 46.140375 
L 190.124509 49.765196 
L 192.31332 51.879675 
L 194.499562 53.541051 
L 196.688616 51.426572 
L 198.875206 45.32479 
L 201.083368 49.765196 
L 203.264038 50.701608 
L 207.660968 51.124504 
L 209.838219 48.828784 
L 212.032829 46.744512 
L 214.209307 47.167407 
L 216.40573 48.073613 
L 218.593262 51.215124 
L 220.791706 43.391552 
L 222.978096 44.75086 
L 225.168114 42.727001 
L 227.361412 45.022722 
L 229.557181 43.512379 
L 231.741486 44.025896 
L 233.921385 42.908243 
L 236.124808 39.978179 
L 238.313094 42.666588 
L 240.511772 44.690446 
L 242.690293 43.331138 
L 244.875544 41.186452 
L 247.061324 45.32479 
L 249.258275 48.224647 
L 251.458973 41.458314 
L 253.678247 38.43763 
L 255.872047 41.005211 
L 258.07262 39.796938 
L 260.247883 41.760382 
L 262.450481 45.475824 
L 264.660994 39.525076 
L 266.852876 39.132387 
L 269.055486 35.839841 
L 271.2459 42.364519 
L 273.440622 38.558457 
L 275.641533 38.135561 
L 277.83386 34.963843 
L 280.036544 36.443978 
L 282.234861 34.631568 
L 284.432931 35.990875 
L 286.6103 35.56798 
L 288.80423 36.172117 
L 290.995537 38.075148 
L 293.197233 36.685633 
L 295.396 34.087844 
L 297.57921 34.99405 
L 299.77471 37.501218 
L 301.967211 36.23253 
L 304.187238 32.607709 
L 306.372899 36.746047 
L 308.558988 33.604535 
L 310.745104 32.909777 
L 312.940407 31.852538 
L 315.109227 32.879571 
L 317.308993 31.580676 
L 319.498712 33.030605 
L 321.699956 30.130748 
L 323.890985 32.486882 
L 326.07727 30.463023 
L 328.276011 31.610883 
L 330.466816 30.432816 
L 332.679919 29.466197 
L 334.879109 29.707852 
L 339.248014 28.650613 
L 341.433545 28.439165 
L 343.625693 27.955855 
L 345.831515 28.137096 
L 348.005866 27.200684 
L 352.382651 28.680819 
L 354.573344 26.989236 
L 356.762247 27.62358 
L 358.974057 27.804821 
L 361.160521 26.626754 
L 363.364036 26.898616 
L 365.577064 27.291305 
L 367.765015 28.046476 
L 369.952621 28.106889 
L 372.146825 27.351718 
L 374.356498 26.989236 
L 376.547065 27.502753 
L 378.737074 27.472546 
L 380.936689 26.596547 
L 383.137079 27.804821 
L 385.335159 27.04965 
L 387.531475 26.113238 
L 389.720327 27.230891 
L 389.720327 27.230891 
" style="fill:none;stroke:#1f77b4;stroke-linecap:square;stroke-width:1.5;"/>
   </g>
   <g id="line2d_11">
    <path clip-path="url(#pbe6dc1cf3c)" d="M 63.282923 288.308636 
L 65.741738 273.326042 
L 68.233599 264.263989 
L 70.700974 243.360853 
L 73.162383 230.673979 
L 75.636222 208.796673 
L 78.098926 193.564873 
L 80.55079 185.12206 
L 83.019205 162.648169 
L 85.49465 149.71964 
L 90.450759 114.679702 
L 92.925174 102.234482 
L 95.371983 103.59379 
L 97.850964 91.933949 
L 100.359538 83.264585 
L 102.82735 83.838515 
L 105.285535 74.565014 
L 107.750719 80.878244 
L 110.223473 72.631776 
L 112.69124 81.331347 
L 115.172289 73.477568 
L 117.633653 69.369437 
L 120.117487 64.204067 
L 122.578913 69.369437 
L 125.029513 72.873431 
L 127.502348 60.126143 
L 129.962655 65.684202 
L 132.429015 66.590408 
L 134.8814 62.603104 
L 137.363526 57.739802 
L 139.819273 63.932205 
L 142.275775 62.512484 
L 144.744684 54.568084 
L 149.76234 59.67304 
L 152.217164 57.045045 
L 154.690652 58.52518 
L 157.172689 55.806565 
L 159.639758 54.749325 
L 162.096327 57.045045 
L 164.549766 54.386843 
L 167.019545 57.588768 
L 169.477474 65.412341 
L 171.954986 58.827249 
L 174.442011 53.93374 
L 179.359742 54.688911 
L 181.803753 49.91623 
L 184.278151 52.816087 
L 186.797223 53.178569 
L 189.256514 60.277177 
L 191.711054 57.830423 
L 194.181783 52.816087 
L 196.651102 50.218299 
L 199.123233 53.238983 
L 201.582107 50.97347 
L 204.072644 46.653891 
L 206.542145 50.248505 
L 209.026912 49.3423 
L 211.486544 49.523541 
L 213.981331 51.698434 
L 216.453206 50.157885 
L 218.929751 47.892372 
L 221.419949 50.097471 
L 223.899834 45.32479 
L 226.37094 50.39954 
L 231.323827 46.442443 
L 233.793404 43.512379 
L 236.24668 46.412236 
L 238.72674 54.839946 
L 241.20938 44.992515 
L 243.679334 45.203963 
L 246.163196 43.754034 
L 248.632077 49.553748 
L 251.115874 42.847829 
L 253.607765 42.092658 
L 256.096144 44.297757 
L 258.591825 41.760382 
L 261.05789 41.548935 
L 263.51758 44.327964 
L 265.993119 42.183278 
L 268.453222 46.170582 
L 270.919539 46.412236 
L 273.381683 48.436095 
L 275.849993 42.364519 
L 278.334164 39.615697 
L 280.796567 40.431281 
L 283.264711 42.092658 
L 285.733191 40.219833 
L 288.209243 40.008386 
L 290.681325 41.911417 
L 293.161083 39.132387 
L 295.625306 41.760382 
L 298.114379 39.162594 
L 300.587387 40.401075 
L 303.065515 43.723827 
L 305.546156 40.793764 
L 308.003129 39.796938 
L 310.503724 40.370868 
L 312.981595 39.343835 
L 315.449704 39.10218 
L 317.916852 40.280247 
L 320.401516 39.67611 
L 322.869573 38.951146 
L 325.363966 38.014734 
L 327.871545 35.356532 
L 332.828358 35.900255 
L 335.300534 33.393087 
L 337.769628 34.42012 
L 340.246336 33.906603 
L 345.210715 34.238879 
L 347.687113 34.208672 
L 350.147186 35.296118 
L 352.634425 33.483707 
L 355.134707 33.453501 
L 357.602432 34.691981 
L 360.066126 32.245227 
L 362.534096 33.725362 
L 364.993433 32.245227 
L 367.458246 32.758743 
L 369.902365 33.000398 
L 372.368194 32.668123 
L 374.848691 32.547295 
L 377.306045 31.912952 
L 379.755659 31.429642 
L 387.184378 32.033779 
L 389.65883 32.003572 
L 392.143475 30.674471 
L 394.605436 31.792124 
L 397.074386 31.520263 
L 399.515093 31.973365 
L 401.978358 31.852538 
L 404.436069 32.728536 
L 406.913188 31.882745 
L 414.308578 30.191162 
L 416.783219 31.64109 
L 419.265404 30.523437 
L 421.741916 31.490056 
L 424.20121 31.429642 
L 426.649528 31.973365 
L 429.109629 31.308815 
L 431.571364 32.094193 
L 431.571364 32.094193 
" style="fill:none;stroke:#ff7f0e;stroke-linecap:square;stroke-width:1.5;"/>
   </g>
   <g id="line2d_12">
    <path clip-path="url(#pbe6dc1cf3c)" d="M 63.109778 264.988953 
L 65.411516 253.517904 
L 67.704843 246.268262 
L 70.013567 232.969699 
L 72.323013 214.490663 
L 74.634347 200.225481 
L 76.947803 191.767565 
L 79.249429 185.031439 
L 81.551992 168.206228 
L 83.860641 161.666446 
L 86.167698 144.040753 
L 88.470259 137.395248 
L 90.776013 129.511262 
L 93.078298 125.79582 
L 95.388876 114.558874 
L 97.695077 103.926066 
L 99.994556 102.627171 
L 102.303375 92.68912 
L 104.603309 88.852851 
L 106.904568 88.1883 
L 109.200651 83.717688 
L 111.501249 91.088157 
L 113.800008 89.759056 
L 116.110884 74.081705 
L 118.408086 82.781275 
L 120.702862 85.31865 
L 123.003974 75.289978 
L 125.299208 74.444187 
L 127.592191 78.793972 
L 129.891669 73.35674 
L 132.193937 66.590408 
L 134.486124 70.094401 
L 136.783366 65.653995 
L 139.090675 60.790694 
L 141.38481 65.502961 
L 143.681085 69.188196 
L 145.98416 59.401179 
L 148.286355 61.334417 
L 150.579235 63.660344 
L 152.872029 57.830423 
L 155.173044 60.669866 
L 157.47646 57.830423 
L 159.774076 57.558561 
L 162.07552 59.552213 
L 164.367773 65.502961 
L 166.658736 58.615801 
L 168.954799 60.035523 
L 171.249122 57.347114 
L 173.549849 54.839946 
L 175.844475 59.975109 
L 178.137364 53.420224 
L 180.429728 55.836771 
L 182.72115 56.863804 
L 185.019717 55.927392 
L 187.316853 52.725467 
L 189.611342 54.205602 
L 191.904182 53.057742 
L 194.205603 51.305745 
L 196.496948 52.665053 
L 198.793795 49.432921 
L 201.082752 56.80339 
L 203.381889 47.862165 
L 205.676859 57.528355 
L 207.969913 51.215124 
L 210.271759 51.245331 
L 212.569748 50.218299 
L 214.861508 52.423398 
L 217.156285 52.423398 
L 219.45549 50.550574 
L 221.752592 47.982992 
L 226.341793 51.63802 
L 228.633136 47.076787 
L 230.93011 46.110168 
L 233.225509 46.925753 
L 235.516842 46.653891 
L 237.806829 47.469476 
L 240.109974 46.442443 
L 242.399437 48.919404 
L 244.701959 46.170582 
L 246.999231 43.995689 
L 249.294738 48.919404 
L 251.58971 42.45514 
L 253.886389 43.844655 
L 256.180744 47.922578 
L 258.475856 43.995689 
L 260.766859 43.784241 
L 263.065241 40.431281 
L 265.355497 45.234169 
L 267.654339 41.820796 
L 269.950481 43.603 
L 272.24468 42.575967 
L 274.54559 42.968656 
L 276.843193 42.847829 
L 279.132887 45.143549 
L 281.432698 41.820796 
L 283.741962 37.652252 
L 286.036981 41.851003 
L 288.33074 40.793764 
L 290.627184 39.978179 
L 292.924355 39.736524 
L 295.217941 39.67611 
L 297.513208 39.978179 
L 299.816217 40.401075 
L 302.11173 38.286596 
L 304.400019 38.43763 
L 306.697483 37.048115 
L 308.999638 36.081496 
L 311.291481 40.763557 
L 313.588147 36.927288 
L 315.879176 37.440804 
L 318.171457 36.897081 
L 320.469638 36.987701 
L 322.760534 36.383564 
L 325.063512 36.413771 
L 327.353243 37.95432 
L 329.645029 35.054463 
L 334.236775 33.513914 
L 336.528268 33.93681 
L 338.823971 34.238879 
L 341.118417 33.030605 
L 343.416166 34.691981 
L 345.707778 33.453501 
L 348.002825 34.208672 
L 350.303049 31.852538 
L 352.599464 32.154606 
L 354.890451 31.278608 
L 357.188697 32.245227 
L 359.486868 30.795298 
L 361.779842 31.912952 
L 366.370565 31.64109 
L 368.665407 31.097367 
L 370.960845 31.308815 
L 373.252708 30.946333 
L 375.543454 30.372403 
L 377.838962 30.130748 
L 380.132027 31.097367 
L 382.426843 31.369228 
L 384.722181 30.704678 
L 387.013429 30.765092 
L 391.604401 30.372403 
L 393.903638 30.251575 
L 396.195711 30.463023 
L 398.489999 29.9193 
L 400.78514 30.553644 
L 403.07603 30.795298 
L 405.364916 30.281782 
L 405.364916 30.281782 
" style="fill:none;stroke:#2ca02c;stroke-linecap:square;stroke-width:1.5;"/>
   </g>
   <g id="line2d_13">
    <path clip-path="url(#pbe6dc1cf3c)" d="M 63.172132 275.25928 
L 65.504303 247.952294 
L 67.844423 237.198657 
L 70.220023 219.920343 
L 72.551248 200.844722 
L 74.861544 192.734184 
L 77.212977 178.582278 
L 79.559061 172.284152 
L 81.883838 146.819783 
L 84.21814 144.675097 
L 86.582093 127.004094 
L 88.925957 122.624101 
L 91.241796 116.492112 
L 93.58235 99.848142 
L 95.885114 95.317115 
L 98.232245 86.526924 
L 100.537752 87.493543 
L 102.871548 88.218507 
L 105.221877 72.390121 
L 107.545528 77.797146 
L 109.848857 74.293153 
L 112.174076 76.739907 
L 114.52143 75.07853 
L 116.866021 69.24861 
L 119.170399 72.994258 
L 121.501341 67.073717 
L 123.816217 66.197719 
L 126.137961 71.846398 
L 130.807289 62.391656 
L 133.162272 63.811378 
L 135.507243 58.857456 
L 137.833301 61.998967 
L 140.180267 59.642834 
L 142.504721 59.09911 
L 144.865946 66.590408 
L 147.181061 63.781171 
L 149.540999 56.018012 
L 151.905745 58.494974 
L 154.238046 57.921044 
L 156.550644 60.428212 
L 158.879291 58.887663 
L 161.205333 54.568084 
L 163.530963 55.746151 
L 165.85181 62.119795 
L 168.158318 61.274003 
L 170.490358 56.380495 
L 172.840126 56.13884 
L 175.154687 57.437734 
L 177.496051 55.0816 
L 179.841913 53.752499 
L 182.150512 53.148362 
L 184.466424 58.374146 
L 186.782851 57.649182 
L 189.127893 50.188092 
L 191.474536 52.78588 
L 193.807372 50.339126 
L 196.125448 49.523541 
L 198.439369 53.722292 
L 200.75899 48.76837 
L 203.09504 52.906708 
L 205.432267 52.997328 
L 207.741442 51.879675 
L 210.079644 48.707956 
L 212.41422 55.353462 
L 214.744394 47.469476 
L 217.07292 53.661879 
L 219.404634 48.738163 
L 221.723534 48.949611 
L 224.051919 47.348648 
L 226.381282 48.979818 
L 228.712035 52.21195 
L 231.04435 49.040232 
L 233.407106 46.684098 
L 235.737756 45.113342 
L 238.053589 46.986166 
L 240.418184 45.657065 
L 242.761284 44.84148 
L 245.106946 46.230995 
L 247.456597 42.364519 
L 249.783688 42.575967 
L 252.11119 46.95596 
L 254.44856 45.234169 
L 256.791295 48.738163 
L 259.144133 49.281886 
L 261.509846 48.707956 
L 263.800645 44.781067 
L 266.11815 44.509205 
L 268.42195 42.878036 
L 270.759974 39.978179 
L 273.096201 43.149897 
L 275.445491 45.687272 
L 277.806471 45.596652 
L 280.171283 40.884384 
L 282.487679 41.669762 
L 284.845108 37.8637 
L 287.186247 41.97183 
L 289.504206 43.02907 
L 291.832939 37.652252 
L 294.158088 39.796938 
L 296.527812 36.927288 
L 298.84778 35.416945 
L 301.19966 38.195975 
L 303.55386 41.518728 
L 305.898108 39.796938 
L 308.244616 37.138735 
L 310.558759 37.591838 
L 312.898532 36.504392 
L 315.224556 38.52825 
L 317.58567 37.591838 
L 319.93525 35.960669 
L 322.263843 34.691981 
L 324.591125 36.202323 
L 326.943119 34.450326 
L 329.295422 34.540947 
L 331.623552 36.685633 
L 333.980417 35.6586 
L 336.346184 34.057638 
L 338.68374 33.121225 
L 341.016603 34.208672 
L 343.378789 32.396261 
L 345.707292 31.490056 
L 348.042522 31.761917 
L 350.37693 32.758743 
L 352.70416 31.399435 
L 355.064258 30.281782 
L 357.394668 32.094193 
L 359.726072 32.547295 
L 362.030704 30.342196 
L 364.37807 31.55047 
L 366.716547 30.765092 
L 369.043966 30.855712 
L 371.406425 31.610883 
L 373.734244 31.006746 
L 376.076831 31.852538 
L 378.402745 30.130748 
L 380.739973 30.946333 
L 383.065685 31.278608 
L 385.428322 31.218194 
L 387.770283 31.278608 
L 390.084227 31.792124 
L 392.42502 31.852538 
L 394.767391 31.127574 
L 397.07252 31.036953 
L 399.412448 31.097367 
L 401.746036 30.885919 
L 404.071459 31.64109 
L 406.39118 31.55047 
L 408.731515 31.097367 
L 411.046861 31.490056 
L 411.046861 31.490056 
" style="fill:none;stroke:#d62728;stroke-linecap:square;stroke-width:1.5;"/>
   </g>
   <g id="line2d_14">
    <path clip-path="url(#pbe6dc1cf3c)" d="M 63.126961 252.067976 
L 65.443828 225.365127 
L 67.796654 219.799516 
L 70.117887 194.909077 
L 72.459364 188.988536 
L 74.808097 166.288093 
L 77.145963 162.39141 
L 79.46719 149.749847 
L 81.812457 140.506553 
L 84.157057 133.287117 
L 86.504483 120.600243 
L 88.848124 102.717792 
L 91.19616 93.534912 
L 93.539046 93.655739 
L 95.869446 91.088157 
L 98.22101 86.285269 
L 100.565878 82.297966 
L 102.916464 74.776462 
L 105.269988 70.336056 
L 107.596024 78.220042 
L 109.921634 73.386947 
L 112.264809 74.927496 
L 114.600904 73.205706 
L 116.945833 65.382134 
L 119.261566 72.752604 
L 121.600551 75.894115 
L 123.941269 67.436199 
L 126.277933 65.382134 
L 128.602365 64.264481 
L 130.91454 59.944902 
L 133.259622 61.30421 
L 135.596359 61.153176 
L 137.922189 62.361449 
L 140.251531 58.887663 
L 142.578803 65.291513 
L 144.899044 63.569723 
L 147.234067 60.579246 
L 149.564787 60.518832 
L 154.217419 56.078426 
L 156.551726 57.165872 
L 158.874144 55.836771 
L 161.205961 55.685737 
L 163.563631 55.897185 
L 165.884671 61.274003 
L 168.21956 54.839946 
L 170.568686 58.43456 
L 172.885548 58.585594 
L 175.203606 55.142014 
L 177.547249 58.887663 
L 179.903565 53.118156 
L 182.229183 54.326429 
L 184.553179 54.870152 
L 186.84864 50.792229 
L 189.160305 52.030709 
L 191.509255 52.78588 
L 193.838989 50.339126 
L 196.160238 51.335952 
L 198.507753 49.130852 
L 200.852194 55.142014 
L 203.196431 57.528355 
L 205.538522 53.238983 
L 207.873379 56.320081 
L 210.22297 47.137201 
L 212.530848 51.849468 
L 214.866431 50.308919 
L 217.189849 51.5474 
L 219.534676 48.345474 
L 221.863559 46.351823 
L 224.188954 48.526715 
L 226.5054 53.873327 
L 228.850918 51.426572 
L 231.215836 43.180104 
L 233.562235 47.137201 
L 235.862958 45.928927 
L 238.174817 48.073613 
L 240.483742 44.448792 
L 242.812705 44.992515 
L 245.139415 42.485347 
L 247.484899 46.110168 
L 249.814545 44.237344 
L 252.117976 46.986166 
L 254.422208 44.207137 
L 256.754719 42.394726 
L 259.099081 45.536238 
L 261.434928 46.442443 
L 263.753947 45.203963 
L 266.065414 43.240518 
L 268.383291 43.180104 
L 270.708057 40.008386 
L 273.053365 42.243692 
L 275.400476 42.666588 
L 277.714101 40.280247 
L 280.052001 40.099006 
L 282.387854 40.854177 
L 284.715492 38.467837 
L 287.050709 37.501218 
L 289.374038 38.498043 
L 291.724124 37.168942 
L 294.060792 39.525076 
L 296.401431 38.498043 
L 298.736521 38.498043 
L 301.048897 36.111703 
L 303.378417 39.978179 
L 305.736547 38.498043 
L 310.380714 36.595012 
L 312.728541 38.044941 
L 315.052324 37.742872 
L 317.386307 38.014734 
L 319.705578 36.987701 
L 322.036342 34.933636 
L 324.36533 35.688807 
L 326.689115 34.631568 
L 331.357225 34.540947 
L 333.683852 33.36288 
L 335.998561 34.540947 
L 338.323239 34.027431 
L 340.643795 35.296118 
L 342.960117 34.480533 
L 345.30178 33.84619 
L 347.615821 33.604535 
L 349.929809 33.242053 
L 352.2556 33.93681 
L 354.576176 32.849364 
L 356.910427 33.332673 
L 359.244823 33.393087 
L 361.544946 32.456675 
L 363.855014 33.36288 
L 366.196384 33.483707 
L 368.529696 31.973365 
L 370.846929 32.396261 
L 373.160021 31.822331 
L 377.83627 31.882745 
L 380.164893 31.399435 
L 382.499851 31.339022 
L 384.828597 30.946333 
L 389.489809 31.55047 
L 391.825075 31.399435 
L 394.164433 31.429642 
L 396.499686 31.248401 
L 398.827427 31.55047 
L 401.168856 31.308815 
L 405.805051 31.64109 
L 408.121733 30.825505 
L 410.455327 31.792124 
L 410.455327 31.792124 
" style="fill:none;stroke:#9467bd;stroke-linecap:square;stroke-width:1.5;"/>
   </g>
   <g id="patch_3">
    <path d="M 44.57 303.64 
L 44.57 10.8 
" style="fill:none;stroke:#000000;stroke-linecap:square;stroke-linejoin:miter;stroke-width:0.8;"/>
   </g>
   <g id="patch_4">
    <path d="M 450 303.64 
L 450 10.8 
" style="fill:none;stroke:#000000;stroke-linecap:square;stroke-linejoin:miter;stroke-width:0.8;"/>
   </g>
   <g id="patch_5">
    <path d="M 44.57 303.64 
L 450 303.64 
" style="fill:none;stroke:#000000;stroke-linecap:square;stroke-linejoin:miter;stroke-width:0.8;"/>
   </g>
   <g id="patch_6">
    <path d="M 44.57 10.8 
L 450 10.8 
" style="fill:none;stroke:#000000;stroke-linecap:square;stroke-linejoin:miter;stroke-width:0.8;"/>
   </g>
   <g id="legend_1">
    <g id="patch_7">
     <path d="M 291.78125 298.64 
L 443 298.64 
Q 445 298.64 445 296.64 
L 445 224.249375 
Q 445 222.249375 443 222.249375 
L 291.78125 222.249375 
Q 289.78125 222.249375 289.78125 224.249375 
L 289.78125 296.64 
Q 289.78125 298.64 291.78125 298.64 
z
" style="fill:#ffffff;opacity:0.8;stroke:#cccccc;stroke-linejoin:miter;"/>
    </g>
    <g id="line2d_15">
     <path d="M 293.78125 230.347812 
L 313.78125 230.347812 
" style="fill:none;stroke:#1f77b4;stroke-linecap:square;stroke-width:1.5;"/>
    </g>
    <g id="line2d_16"/>
    <g id="text_12">
     <!-- AllReduce SGD -->
     <g transform="translate(321.78125 233.847812)scale(0.1 -0.1)">
      <defs>
       <path d="M 9.421875 75.984375 
L 18.40625 75.984375 
L 18.40625 0 
L 9.421875 0 
z
" id="DejaVuSans-108"/>
       <path d="M 44.390625 34.1875 
Q 47.5625 33.109375 50.5625 29.59375 
Q 53.5625 26.078125 56.59375 19.921875 
L 66.609375 0 
L 56 0 
L 46.6875 18.703125 
Q 43.0625 26.03125 39.671875 28.421875 
Q 36.28125 30.8125 30.421875 30.8125 
L 19.671875 30.8125 
L 19.671875 0 
L 9.8125 0 
L 9.8125 72.90625 
L 32.078125 72.90625 
Q 44.578125 72.90625 50.734375 67.671875 
Q 56.890625 62.453125 56.890625 51.90625 
Q 56.890625 45.015625 53.6875 40.46875 
Q 50.484375 35.9375 44.390625 34.1875 
z
M 19.671875 64.796875 
L 19.671875 38.921875 
L 32.078125 38.921875 
Q 39.203125 38.921875 42.84375 42.21875 
Q 46.484375 45.515625 46.484375 51.90625 
Q 46.484375 58.296875 42.84375 61.546875 
Q 39.203125 64.796875 32.078125 64.796875 
z
" id="DejaVuSans-82"/>
       <path d="M 45.40625 46.390625 
L 45.40625 75.984375 
L 54.390625 75.984375 
L 54.390625 0 
L 45.40625 0 
L 45.40625 8.203125 
Q 42.578125 3.328125 38.25 0.953125 
Q 33.9375 -1.421875 27.875 -1.421875 
Q 17.96875 -1.421875 11.734375 6.484375 
Q 5.515625 14.40625 5.515625 27.296875 
Q 5.515625 40.1875 11.734375 48.09375 
Q 17.96875 56 27.875 56 
Q 33.9375 56 38.25 53.625 
Q 42.578125 51.265625 45.40625 46.390625 
z
M 14.796875 27.296875 
Q 14.796875 17.390625 18.875 11.75 
Q 22.953125 6.109375 30.078125 6.109375 
Q 37.203125 6.109375 41.296875 11.75 
Q 45.40625 17.390625 45.40625 27.296875 
Q 45.40625 37.203125 41.296875 42.84375 
Q 37.203125 48.484375 30.078125 48.484375 
Q 22.953125 48.484375 18.875 42.84375 
Q 14.796875 37.203125 14.796875 27.296875 
z
" id="DejaVuSans-100"/>
       <path d="M 53.515625 70.515625 
L 53.515625 60.890625 
Q 47.90625 63.578125 42.921875 64.890625 
Q 37.9375 66.21875 33.296875 66.21875 
Q 25.25 66.21875 20.875 63.09375 
Q 16.5 59.96875 16.5 54.203125 
Q 16.5 49.359375 19.40625 46.890625 
Q 22.3125 44.4375 30.421875 42.921875 
L 36.375 41.703125 
Q 47.40625 39.59375 52.65625 34.296875 
Q 57.90625 29 57.90625 20.125 
Q 57.90625 9.515625 50.796875 4.046875 
Q 43.703125 -1.421875 29.984375 -1.421875 
Q 24.8125 -1.421875 18.96875 -0.25 
Q 13.140625 0.921875 6.890625 3.21875 
L 6.890625 13.375 
Q 12.890625 10.015625 18.65625 8.296875 
Q 24.421875 6.59375 29.984375 6.59375 
Q 38.421875 6.59375 43.015625 9.90625 
Q 47.609375 13.234375 47.609375 19.390625 
Q 47.609375 24.75 44.3125 27.78125 
Q 41.015625 30.8125 33.5 32.328125 
L 27.484375 33.5 
Q 16.453125 35.6875 11.515625 40.375 
Q 6.59375 45.0625 6.59375 53.421875 
Q 6.59375 63.09375 13.40625 68.65625 
Q 20.21875 74.21875 32.171875 74.21875 
Q 37.3125 74.21875 42.625 73.28125 
Q 47.953125 72.359375 53.515625 70.515625 
z
" id="DejaVuSans-83"/>
       <path d="M 59.515625 10.40625 
L 59.515625 29.984375 
L 43.40625 29.984375 
L 43.40625 38.09375 
L 69.28125 38.09375 
L 69.28125 6.78125 
Q 63.578125 2.734375 56.6875 0.65625 
Q 49.8125 -1.421875 42 -1.421875 
Q 24.90625 -1.421875 15.25 8.5625 
Q 5.609375 18.5625 5.609375 36.375 
Q 5.609375 54.25 15.25 64.234375 
Q 24.90625 74.21875 42 74.21875 
Q 49.125 74.21875 55.546875 72.453125 
Q 61.96875 70.703125 67.390625 67.28125 
L 67.390625 56.78125 
Q 61.921875 61.421875 55.765625 63.765625 
Q 49.609375 66.109375 42.828125 66.109375 
Q 29.4375 66.109375 22.71875 58.640625 
Q 16.015625 51.171875 16.015625 36.375 
Q 16.015625 21.625 22.71875 14.15625 
Q 29.4375 6.6875 42.828125 6.6875 
Q 48.046875 6.6875 52.140625 7.59375 
Q 56.25 8.5 59.515625 10.40625 
z
" id="DejaVuSans-71"/>
       <path d="M 19.671875 64.796875 
L 19.671875 8.109375 
L 31.59375 8.109375 
Q 46.6875 8.109375 53.6875 14.9375 
Q 60.6875 21.78125 60.6875 36.53125 
Q 60.6875 51.171875 53.6875 57.984375 
Q 46.6875 64.796875 31.59375 64.796875 
z
M 9.8125 72.90625 
L 30.078125 72.90625 
Q 51.265625 72.90625 61.171875 64.09375 
Q 71.09375 55.28125 71.09375 36.53125 
Q 71.09375 17.671875 61.125 8.828125 
Q 51.171875 0 30.078125 0 
L 9.8125 0 
z
" id="DejaVuSans-68"/>
      </defs>
      <use xlink:href="#DejaVuSans-65"/>
      <use x="68.408203" xlink:href="#DejaVuSans-108"/>
      <use x="96.191406" xlink:href="#DejaVuSans-108"/>
      <use x="123.974609" xlink:href="#DejaVuSans-82"/>
      <use x="188.957031" xlink:href="#DejaVuSans-101"/>
      <use x="250.480469" xlink:href="#DejaVuSans-100"/>
      <use x="313.957031" xlink:href="#DejaVuSans-117"/>
      <use x="377.335938" xlink:href="#DejaVuSans-99"/>
      <use x="432.316406" xlink:href="#DejaVuSans-101"/>
      <use x="493.839844" xlink:href="#DejaVuSans-32"/>
      <use x="525.626953" xlink:href="#DejaVuSans-83"/>
      <use x="589.103516" xlink:href="#DejaVuSans-71"/>
      <use x="666.59375" xlink:href="#DejaVuSans-68"/>
     </g>
    </g>
    <g id="line2d_17">
     <path d="M 293.78125 245.025937 
L 313.78125 245.025937 
" style="fill:none;stroke:#ff7f0e;stroke-linecap:square;stroke-width:1.5;"/>
    </g>
    <g id="line2d_18"/>
    <g id="text_13">
     <!-- QSGD-MN-TS (8,12) bits -->
     <g transform="translate(321.78125 248.525937)scale(0.1 -0.1)">
      <defs>
       <path d="M 39.40625 66.21875 
Q 28.65625 66.21875 22.328125 58.203125 
Q 16.015625 50.203125 16.015625 36.375 
Q 16.015625 22.609375 22.328125 14.59375 
Q 28.65625 6.59375 39.40625 6.59375 
Q 50.140625 6.59375 56.421875 14.59375 
Q 62.703125 22.609375 62.703125 36.375 
Q 62.703125 50.203125 56.421875 58.203125 
Q 50.140625 66.21875 39.40625 66.21875 
z
M 53.21875 1.3125 
L 66.21875 -12.890625 
L 54.296875 -12.890625 
L 43.5 -1.21875 
Q 41.890625 -1.3125 41.03125 -1.359375 
Q 40.1875 -1.421875 39.40625 -1.421875 
Q 24.03125 -1.421875 14.8125 8.859375 
Q 5.609375 19.140625 5.609375 36.375 
Q 5.609375 53.65625 14.8125 63.9375 
Q 24.03125 74.21875 39.40625 74.21875 
Q 54.734375 74.21875 63.90625 63.9375 
Q 73.09375 53.65625 73.09375 36.375 
Q 73.09375 23.6875 67.984375 14.640625 
Q 62.890625 5.609375 53.21875 1.3125 
z
" id="DejaVuSans-81"/>
       <path d="M 4.890625 31.390625 
L 31.203125 31.390625 
L 31.203125 23.390625 
L 4.890625 23.390625 
z
" id="DejaVuSans-45"/>
       <path d="M 9.8125 72.90625 
L 24.515625 72.90625 
L 43.109375 23.296875 
L 61.8125 72.90625 
L 76.515625 72.90625 
L 76.515625 0 
L 66.890625 0 
L 66.890625 64.015625 
L 48.09375 14.015625 
L 38.1875 14.015625 
L 19.390625 64.015625 
L 19.390625 0 
L 9.8125 0 
z
" id="DejaVuSans-77"/>
       <path d="M 9.8125 72.90625 
L 23.09375 72.90625 
L 55.421875 11.921875 
L 55.421875 72.90625 
L 64.984375 72.90625 
L 64.984375 0 
L 51.703125 0 
L 19.390625 60.984375 
L 19.390625 0 
L 9.8125 0 
z
" id="DejaVuSans-78"/>
       <path d="M 11.71875 12.40625 
L 22.015625 12.40625 
L 22.015625 4 
L 14.015625 -11.625 
L 7.71875 -11.625 
L 11.71875 4 
z
" id="DejaVuSans-44"/>
       <path d="M 12.40625 8.296875 
L 28.515625 8.296875 
L 28.515625 63.921875 
L 10.984375 60.40625 
L 10.984375 69.390625 
L 28.421875 72.90625 
L 38.28125 72.90625 
L 38.28125 8.296875 
L 54.390625 8.296875 
L 54.390625 0 
L 12.40625 0 
z
" id="DejaVuSans-49"/>
       <path d="M 48.6875 27.296875 
Q 48.6875 37.203125 44.609375 42.84375 
Q 40.53125 48.484375 33.40625 48.484375 
Q 26.265625 48.484375 22.1875 42.84375 
Q 18.109375 37.203125 18.109375 27.296875 
Q 18.109375 17.390625 22.1875 11.75 
Q 26.265625 6.109375 33.40625 6.109375 
Q 40.53125 6.109375 44.609375 11.75 
Q 48.6875 17.390625 48.6875 27.296875 
z
M 18.109375 46.390625 
Q 20.953125 51.265625 25.265625 53.625 
Q 29.59375 56 35.59375 56 
Q 45.5625 56 51.78125 48.09375 
Q 58.015625 40.1875 58.015625 27.296875 
Q 58.015625 14.40625 51.78125 6.484375 
Q 45.5625 -1.421875 35.59375 -1.421875 
Q 29.59375 -1.421875 25.265625 0.953125 
Q 20.953125 3.328125 18.109375 8.203125 
L 18.109375 0 
L 9.078125 0 
L 9.078125 75.984375 
L 18.109375 75.984375 
z
" id="DejaVuSans-98"/>
      </defs>
      <use xlink:href="#DejaVuSans-81"/>
      <use x="78.710938" xlink:href="#DejaVuSans-83"/>
      <use x="142.1875" xlink:href="#DejaVuSans-71"/>
      <use x="219.677734" xlink:href="#DejaVuSans-68"/>
      <use x="296.679688" xlink:href="#DejaVuSans-45"/>
      <use x="332.763672" xlink:href="#DejaVuSans-77"/>
      <use x="419.042969" xlink:href="#DejaVuSans-78"/>
      <use x="493.847656" xlink:href="#DejaVuSans-45"/>
      <use x="520.806641" xlink:href="#DejaVuSans-84"/>
      <use x="581.890625" xlink:href="#DejaVuSans-83"/>
      <use x="645.367188" xlink:href="#DejaVuSans-32"/>
      <use x="677.154297" xlink:href="#DejaVuSans-40"/>
      <use x="716.167969" xlink:href="#DejaVuSans-56"/>
      <use x="779.791016" xlink:href="#DejaVuSans-44"/>
      <use x="811.578125" xlink:href="#DejaVuSans-49"/>
      <use x="875.201172" xlink:href="#DejaVuSans-50"/>
      <use x="938.824219" xlink:href="#DejaVuSans-41"/>
      <use x="977.837891" xlink:href="#DejaVuSans-32"/>
      <use x="1009.625" xlink:href="#DejaVuSans-98"/>
      <use x="1073.101562" xlink:href="#DejaVuSans-105"/>
      <use x="1100.884766" xlink:href="#DejaVuSans-116"/>
      <use x="1140.09375" xlink:href="#DejaVuSans-115"/>
     </g>
    </g>
    <g id="line2d_19">
     <path d="M 293.78125 259.704062 
L 313.78125 259.704062 
" style="fill:none;stroke:#2ca02c;stroke-linecap:square;stroke-width:1.5;"/>
    </g>
    <g id="line2d_20"/>
    <g id="text_14">
     <!-- QSGD-MN-TS (6,10) bits -->
     <g transform="translate(321.78125 263.204062)scale(0.1 -0.1)">
      <use xlink:href="#DejaVuSans-81"/>
      <use x="78.710938" xlink:href="#DejaVuSans-83"/>
      <use x="142.1875" xlink:href="#DejaVuSans-71"/>
      <use x="219.677734" xlink:href="#DejaVuSans-68"/>
      <use x="296.679688" xlink:href="#DejaVuSans-45"/>
      <use x="332.763672" xlink:href="#DejaVuSans-77"/>
      <use x="419.042969" xlink:href="#DejaVuSans-78"/>
      <use x="493.847656" xlink:href="#DejaVuSans-45"/>
      <use x="520.806641" xlink:href="#DejaVuSans-84"/>
      <use x="581.890625" xlink:href="#DejaVuSans-83"/>
      <use x="645.367188" xlink:href="#DejaVuSans-32"/>
      <use x="677.154297" xlink:href="#DejaVuSans-40"/>
      <use x="716.167969" xlink:href="#DejaVuSans-54"/>
      <use x="779.791016" xlink:href="#DejaVuSans-44"/>
      <use x="811.578125" xlink:href="#DejaVuSans-49"/>
      <use x="875.201172" xlink:href="#DejaVuSans-48"/>
      <use x="938.824219" xlink:href="#DejaVuSans-41"/>
      <use x="977.837891" xlink:href="#DejaVuSans-32"/>
      <use x="1009.625" xlink:href="#DejaVuSans-98"/>
      <use x="1073.101562" xlink:href="#DejaVuSans-105"/>
      <use x="1100.884766" xlink:href="#DejaVuSans-116"/>
      <use x="1140.09375" xlink:href="#DejaVuSans-115"/>
     </g>
    </g>
    <g id="line2d_21">
     <path d="M 293.78125 274.382187 
L 313.78125 274.382187 
" style="fill:none;stroke:#d62728;stroke-linecap:square;stroke-width:1.5;"/>
    </g>
    <g id="line2d_22"/>
    <g id="text_15">
     <!-- QSGD-MN-TS (4,8) bits -->
     <g transform="translate(321.78125 277.882187)scale(0.1 -0.1)">
      <use xlink:href="#DejaVuSans-81"/>
      <use x="78.710938" xlink:href="#DejaVuSans-83"/>
      <use x="142.1875" xlink:href="#DejaVuSans-71"/>
      <use x="219.677734" xlink:href="#DejaVuSans-68"/>
      <use x="296.679688" xlink:href="#DejaVuSans-45"/>
      <use x="332.763672" xlink:href="#DejaVuSans-77"/>
      <use x="419.042969" xlink:href="#DejaVuSans-78"/>
      <use x="493.847656" xlink:href="#DejaVuSans-45"/>
      <use x="520.806641" xlink:href="#DejaVuSans-84"/>
      <use x="581.890625" xlink:href="#DejaVuSans-83"/>
      <use x="645.367188" xlink:href="#DejaVuSans-32"/>
      <use x="677.154297" xlink:href="#DejaVuSans-40"/>
      <use x="716.167969" xlink:href="#DejaVuSans-52"/>
      <use x="779.791016" xlink:href="#DejaVuSans-44"/>
      <use x="811.578125" xlink:href="#DejaVuSans-56"/>
      <use x="875.201172" xlink:href="#DejaVuSans-41"/>
      <use x="914.214844" xlink:href="#DejaVuSans-32"/>
      <use x="946.001953" xlink:href="#DejaVuSans-98"/>
      <use x="1009.478516" xlink:href="#DejaVuSans-105"/>
      <use x="1037.261719" xlink:href="#DejaVuSans-116"/>
      <use x="1076.470703" xlink:href="#DejaVuSans-115"/>
     </g>
    </g>
    <g id="line2d_23">
     <path d="M 293.78125 289.060312 
L 313.78125 289.060312 
" style="fill:none;stroke:#9467bd;stroke-linecap:square;stroke-width:1.5;"/>
    </g>
    <g id="line2d_24"/>
    <g id="text_16">
     <!-- QSGD-MN-TS (2,6) bits -->
     <g transform="translate(321.78125 292.560312)scale(0.1 -0.1)">
      <use xlink:href="#DejaVuSans-81"/>
      <use x="78.710938" xlink:href="#DejaVuSans-83"/>
      <use x="142.1875" xlink:href="#DejaVuSans-71"/>
      <use x="219.677734" xlink:href="#DejaVuSans-68"/>
      <use x="296.679688" xlink:href="#DejaVuSans-45"/>
      <use x="332.763672" xlink:href="#DejaVuSans-77"/>
      <use x="419.042969" xlink:href="#DejaVuSans-78"/>
      <use x="493.847656" xlink:href="#DejaVuSans-45"/>
      <use x="520.806641" xlink:href="#DejaVuSans-84"/>
      <use x="581.890625" xlink:href="#DejaVuSans-83"/>
      <use x="645.367188" xlink:href="#DejaVuSans-32"/>
      <use x="677.154297" xlink:href="#DejaVuSans-40"/>
      <use x="716.167969" xlink:href="#DejaVuSans-50"/>
      <use x="779.791016" xlink:href="#DejaVuSans-44"/>
      <use x="811.578125" xlink:href="#DejaVuSans-54"/>
      <use x="875.201172" xlink:href="#DejaVuSans-41"/>
      <use x="914.214844" xlink:href="#DejaVuSans-32"/>
      <use x="946.001953" xlink:href="#DejaVuSans-98"/>
      <use x="1009.478516" xlink:href="#DejaVuSans-105"/>
      <use x="1037.261719" xlink:href="#DejaVuSans-116"/>
      <use x="1076.470703" xlink:href="#DejaVuSans-115"/>
     </g>
    </g>
   </g>
  </g>
 </g>
 <defs>
  <clipPath id="pbe6dc1cf3c">
   <rect height="292.84" width="405.43" x="44.57" y="10.8"/>
  </clipPath>
 </defs>
</svg>
