<?xml version="1.0" encoding="utf-8" standalone="no"?>
<!DOCTYPE svg PUBLIC "-//W3C//DTD SVG 1.1//EN"
  "http://www.w3.org/Graphics/SVG/1.1/DTD/svg11.dtd">
<!-- Created with matplotlib (https://matplotlib.org/) -->
<svg height="345.6pt" version="1.1" viewBox="0 0 460.8 345.6" width="460.8pt" xmlns="http://www.w3.org/2000/svg" xmlns:xlink="http://www.w3.org/1999/xlink">
 <metadata>
  <rdf:RDF xmlns:cc="http://creativecommons.org/ns#" xmlns:dc="http://purl.org/dc/elements/1.1/" xmlns:rdf="http://www.w3.org/1999/02/22-rdf-syntax-ns#">
   <cc:Work>
    <dc:type rdf:resource="http://purl.org/dc/dcmitype/StillImage"/>
    <dc:date>2021-06-10T08:57:48.673779</dc:date>
    <dc:format>image/svg+xml</dc:format>
    <dc:creator>
     <cc:Agent>
      <dc:title>Matplotlib v3.3.1, https://matplotlib.org/</dc:title>
     </cc:Agent>
    </dc:creator>
   </cc:Work>
  </rdf:RDF>
 </metadata>
 <defs>
  <style type="text/css">*{stroke-linecap:butt;stroke-linejoin:round;}</style>
 </defs>
 <g id="figure_1">
  <g id="patch_1">
   <path d="M 0 345.6 
L 460.8 345.6 
L 460.8 0 
L 0 0 
z
" style="fill:#ffffff;"/>
  </g>
  <g id="axes_1">
   <g id="patch_2">
    <path d="M 44.57 303.64 
L 450 303.64 
L 450 10.8 
L 44.57 10.8 
z
" style="fill:#ffffff;"/>
   </g>
   <g id="PolyCollection_1">
    <path clip-path="url(#p4d3f6f924f)" d="M 62.998636 268.541686 
L 62.998636 276.396184 
L 64.897852 262.97944 
L 66.859009 246.955901 
L 68.788298 236.603185 
L 70.724626 207.66635 
L 72.681872 169.057462 
L 74.618991 129.11682 
L 76.511346 121.000202 
L 78.385493 117.799894 
L 80.290683 89.85249 
L 82.152934 83.950033 
L 84.025592 94.85311 
L 85.937919 87.049285 
L 87.845719 80.896128 
L 89.772597 80.778725 
L 91.750618 67.667883 
L 93.687656 72.48651 
L 95.576781 66.663159 
L 97.47822 55.081346 
L 99.353336 73.544092 
L 101.309423 61.407837 
L 103.245681 64.961524 
L 105.116141 68.325465 
L 107.049087 70.707671 
L 108.94497 69.388992 
L 110.879846 59.136884 
L 112.791235 64.202323 
L 114.708799 59.114722 
L 116.591476 63.878593 
L 118.484345 53.577365 
L 120.387265 60.027315 
L 122.275559 60.153548 
L 124.19399 58.336678 
L 126.11481 57.502025 
L 128.001309 56.204534 
L 129.945846 60.267461 
L 131.86646 66.372628 
L 133.80104 67.538485 
L 135.732001 52.86398 
L 137.652032 65.438109 
L 139.646096 52.615367 
L 141.560918 50.344469 
L 143.469784 53.612162 
L 145.417494 53.779369 
L 147.316641 53.412138 
L 149.230272 51.0297 
L 151.1173 49.211604 
L 153.049403 53.230831 
L 154.929309 56.717876 
L 156.78481 52.998543 
L 158.691338 54.568731 
L 160.617749 57.219579 
L 162.505928 55.702695 
L 164.435564 54.844645 
L 166.312083 51.570452 
L 168.237623 47.898601 
L 170.112256 57.41322 
L 171.998621 63.133571 
L 173.907781 53.893789 
L 175.810451 42.88804 
L 177.758928 54.549628 
L 179.68071 50.799466 
L 181.570224 46.870441 
L 183.498334 48.013482 
L 185.427328 54.01758 
L 187.382794 55.805186 
L 189.287749 42.900088 
L 191.200438 52.105911 
L 193.098276 52.565967 
L 195.014027 46.126658 
L 196.924895 49.499377 
L 198.832229 51.185371 
L 200.725267 46.639888 
L 202.670307 50.525127 
L 204.575131 46.452009 
L 206.464099 49.232654 
L 208.354875 48.243445 
L 210.255817 45.430724 
L 212.180235 44.57069 
L 214.106317 44.425935 
L 216.062009 43.371553 
L 218.015608 42.813928 
L 219.930999 45.564475 
L 221.830129 46.578678 
L 223.792506 43.195648 
L 225.717823 48.746253 
L 227.630582 41.61185 
L 229.48036 42.490103 
L 231.393929 40.015393 
L 233.344753 42.709372 
L 235.266855 41.823348 
L 237.193914 46.840334 
L 239.151107 40.502487 
L 241.051217 44.153155 
L 242.939505 37.747337 
L 244.820311 39.123933 
L 246.702768 40.392388 
L 248.613548 38.374282 
L 250.581928 41.018511 
L 252.491475 38.902348 
L 254.398414 41.619282 
L 256.341312 38.447431 
L 258.271886 39.157872 
L 260.189552 35.869313 
L 262.098227 44.563704 
L 264.029194 37.91053 
L 265.997463 35.103943 
L 267.967359 36.547404 
L 269.908504 36.507646 
L 271.810713 34.303298 
L 273.71532 36.001313 
L 275.632178 37.694274 
L 277.561342 36.505034 
L 279.509201 35.55774 
L 281.406664 34.733944 
L 283.308543 37.491798 
L 285.228047 34.076835 
L 287.099125 33.462476 
L 289.059755 34.504715 
L 291.001169 33.405743 
L 292.931306 32.544282 
L 294.866791 33.287343 
L 296.80176 32.045464 
L 298.670231 30.432314 
L 300.567456 32.700158 
L 302.487798 32.642147 
L 304.39923 32.133996 
L 306.316093 33.469155 
L 308.196173 30.441238 
L 310.095633 30.427299 
L 312.016576 29.661952 
L 313.965001 30.497936 
L 315.884078 30.720082 
L 317.838041 30.625903 
L 319.749979 30.792379 
L 321.696299 31.245745 
L 323.634751 29.887824 
L 325.550907 31.008086 
L 327.476093 29.455415 
L 329.350986 31.139284 
L 331.333846 31.281379 
L 333.229822 30.915711 
L 335.114314 30.700125 
L 337.020558 29.567613 
L 338.914982 30.617853 
L 340.807678 30.558437 
L 342.756289 31.140012 
L 344.706813 30.321709 
L 346.634927 30.327287 
L 348.505711 30.442643 
L 348.505711 24.225404 
L 348.505711 24.225404 
L 346.634927 24.401475 
L 344.706813 24.346338 
L 342.756289 24.378038 
L 340.807678 24.77747 
L 338.914982 24.110909 
L 337.020558 24.918291 
L 335.114314 25.000069 
L 333.229822 25.027341 
L 331.333846 25.208104 
L 329.350986 26.260917 
L 327.476093 25.637634 
L 325.550907 25.481397 
L 323.634751 26.48023 
L 321.696299 25.972312 
L 319.749979 26.911395 
L 317.838041 26.592155 
L 315.884078 27.894409 
L 313.965001 25.445116 
L 312.016576 28.709682 
L 310.095633 27.519333 
L 308.196173 28.719684 
L 306.316093 28.181063 
L 304.39923 26.116209 
L 302.487798 28.036639 
L 300.567456 29.982207 
L 298.670231 27.939319 
L 296.80176 26.569027 
L 294.866791 30.487883 
L 292.931306 28.438076 
L 291.001169 29.944482 
L 289.059755 27.995506 
L 287.099125 30.737753 
L 285.228047 30.912682 
L 283.308543 30.229873 
L 281.406664 30.802004 
L 279.509201 29.917494 
L 277.561342 32.06664 
L 275.632178 30.027397 
L 273.71532 30.445353 
L 271.810713 31.171935 
L 269.908504 31.031882 
L 267.967359 31.842126 
L 265.997463 30.917721 
L 264.029194 31.693291 
L 262.098227 33.236579 
L 260.189552 31.913073 
L 258.271886 32.388814 
L 256.341312 34.617119 
L 254.398414 30.655979 
L 252.491475 32.219336 
L 250.581928 32.835327 
L 248.613548 34.99384 
L 246.702768 32.611447 
L 244.820311 35.276336 
L 242.939505 34.163636 
L 241.051217 33.464984 
L 239.151107 36.872794 
L 237.193914 36.545685 
L 235.266855 37.676941 
L 233.344753 33.208761 
L 231.393929 36.206312 
L 229.48036 38.467336 
L 227.630582 36.674149 
L 225.717823 37.614778 
L 223.792506 38.186792 
L 221.830129 36.625198 
L 219.930999 39.76441 
L 218.015608 36.807791 
L 216.062009 39.52875 
L 214.106317 40.842235 
L 212.180235 40.454621 
L 210.255817 35.405286 
L 208.354875 43.460465 
L 206.464099 36.703376 
L 204.575131 40.091166 
L 202.670307 41.54307 
L 200.725267 39.842572 
L 198.832229 40.579253 
L 196.924895 42.204532 
L 195.014027 39.930801 
L 193.098276 44.72368 
L 191.200438 39.294426 
L 189.287749 40.607361 
L 187.382794 42.516608 
L 185.427328 42.482778 
L 183.498334 34.097532 
L 181.570224 40.947739 
L 179.68071 46.975897 
L 177.758928 43.650736 
L 175.810451 39.222974 
L 173.907781 44.488719 
L 171.998621 50.184712 
L 170.112256 45.644307 
L 168.237623 40.344581 
L 166.312083 49.119208 
L 164.435564 43.416435 
L 162.505928 44.926251 
L 160.617749 44.441514 
L 158.691338 44.78521 
L 156.78481 44.230389 
L 154.929309 42.757494 
L 153.049403 43.390956 
L 151.1173 44.617315 
L 149.230272 43.102791 
L 147.316641 45.881088 
L 145.417494 42.720988 
L 143.469784 47.563215 
L 141.560918 45.245171 
L 139.646096 47.467148 
L 137.652032 53.344481 
L 135.732001 43.697092 
L 133.80104 46.265514 
L 131.86646 56.477836 
L 129.945846 53.900825 
L 128.001309 43.938696 
L 126.11481 45.859074 
L 124.19399 47.695861 
L 122.275559 46.00042 
L 120.387265 46.976657 
L 118.484345 49.540876 
L 116.591476 53.143275 
L 114.708799 53.353557 
L 112.791235 54.580267 
L 110.879846 51.570674 
L 108.94497 55.768624 
L 107.049087 51.83922 
L 105.116141 57.925012 
L 103.245681 47.44604 
L 101.309423 49.664008 
L 99.353336 58.352836 
L 97.47822 49.190472 
L 95.576781 49.812279 
L 93.687656 59.349704 
L 91.750618 53.786146 
L 89.772597 61.075386 
L 87.845719 67.940154 
L 85.937919 65.490583 
L 84.025592 70.436809 
L 82.152934 71.20056 
L 80.290683 73.069562 
L 78.385493 94.422356 
L 76.511346 106.52211 
L 74.618991 116.862709 
L 72.681872 132.536575 
L 70.724626 180.597678 
L 68.788298 208.277141 
L 66.859009 225.883466 
L 64.897852 240.915409 
L 62.998636 268.541686 
z
" style="fill:#1f77b4;fill-opacity:0.25;"/>
   </g>
   <g id="PolyCollection_2">
    <path clip-path="url(#p4d3f6f924f)" d="M 63.59996 287.161851 
L 63.59996 287.647567 
L 66.068673 289.83329 
L 68.558252 285.149514 
L 71.035457 280.700703 
L 73.492079 276.620665 
L 75.969263 258.886869 
L 78.447952 224.674015 
L 80.924265 220.617246 
L 83.41868 206.532081 
L 85.870017 196.527201 
L 88.371598 132.025672 
L 90.811907 122.00484 
L 93.273334 121.159781 
L 95.723137 104.888685 
L 98.245034 75.89377 
L 100.69775 86.261623 
L 103.181877 89.920992 
L 105.68204 80.311035 
L 108.132707 69.475395 
L 110.580461 72.983722 
L 113.049394 66.097374 
L 115.495738 66.527493 
L 117.965994 80.088813 
L 120.430354 63.819342 
L 122.889507 71.325462 
L 125.398488 69.635441 
L 127.839903 67.629779 
L 130.286016 61.65486 
L 132.776994 70.299821 
L 135.229337 62.315798 
L 137.70951 60.680683 
L 140.143473 58.85485 
L 142.602374 60.044396 
L 145.080259 68.045909 
L 147.555143 58.046767 
L 150.023724 62.982878 
L 152.513983 64.797397 
L 154.978399 62.047687 
L 157.447413 54.828059 
L 159.879716 60.667164 
L 162.326194 53.196453 
L 164.76901 57.913499 
L 167.249298 56.809008 
L 169.688741 59.286585 
L 172.124804 65.851372 
L 174.590978 66.792523 
L 177.029749 52.84383 
L 179.505114 55.515033 
L 182.001965 58.875414 
L 184.476708 52.439092 
L 187.01489 65.50887 
L 189.482398 48.004835 
L 191.939653 67.564924 
L 194.394748 52.454867 
L 196.836988 59.299094 
L 199.306731 49.40202 
L 201.738952 51.876724 
L 204.177471 54.372326 
L 206.680268 50.749927 
L 209.158266 46.428034 
L 211.580163 58.515421 
L 214.085294 58.152522 
L 216.507237 58.0387 
L 218.994638 45.384423 
L 221.478108 56.405588 
L 223.950556 55.265216 
L 226.366045 47.087257 
L 228.808415 50.503259 
L 231.283299 54.255763 
L 233.752591 54.041278 
L 236.231988 52.462244 
L 238.697031 54.860761 
L 241.161015 47.483116 
L 243.626104 49.108719 
L 246.098758 47.239155 
L 248.579271 45.416967 
L 251.071962 51.115398 
L 253.522917 45.194257 
L 255.968574 47.816737 
L 258.417445 48.115863 
L 260.881757 41.835678 
L 263.333822 47.473429 
L 265.790549 42.900174 
L 268.285854 48.125686 
L 270.758785 43.994888 
L 273.242173 50.640331 
L 275.732375 41.64827 
L 278.210847 44.528592 
L 280.677305 39.551495 
L 283.12126 44.37249 
L 285.592598 41.278965 
L 288.101992 43.679157 
L 290.594694 43.50411 
L 293.088985 40.500319 
L 295.573096 39.979869 
L 298.049548 41.272791 
L 300.531948 43.914904 
L 302.989594 40.986338 
L 305.473994 41.354826 
L 307.937192 42.052234 
L 310.408007 40.053975 
L 312.8772 39.208612 
L 315.364192 37.935024 
L 317.868913 36.838014 
L 320.328036 39.692821 
L 322.815703 38.407002 
L 325.273429 39.638392 
L 327.718265 37.741502 
L 330.19547 36.994916 
L 332.638247 38.416593 
L 335.130956 41.212407 
L 337.557857 37.548893 
L 339.999712 37.073027 
L 342.457981 38.433869 
L 344.896152 32.387704 
L 347.329934 33.471072 
L 349.838941 34.148045 
L 352.312833 34.780274 
L 354.791383 33.195472 
L 357.285726 33.736226 
L 359.764845 32.796589 
L 362.234655 34.170239 
L 364.713489 33.638975 
L 367.200365 31.209198 
L 369.694593 32.402456 
L 372.218588 31.556296 
L 374.716465 31.978685 
L 377.186997 30.435944 
L 379.638712 32.887025 
L 382.126136 31.097265 
L 384.658147 31.552056 
L 387.147542 31.334007 
L 389.646361 32.13669 
L 392.111468 29.972424 
L 394.572401 30.350195 
L 397.033716 30.659745 
L 399.4908 29.749124 
L 401.980898 31.755386 
L 404.431418 29.329138 
L 406.92056 29.833699 
L 409.382892 31.104969 
L 411.822485 29.695255 
L 414.265012 30.018175 
L 416.747719 29.844542 
L 419.221893 29.116135 
L 421.702389 29.512579 
L 424.20217 29.516852 
L 426.665627 28.790329 
L 429.103946 28.661857 
L 431.571364 29.123721 
L 431.571364 27.122904 
L 431.571364 27.122904 
L 429.103946 26.916908 
L 426.665627 26.606293 
L 424.20217 26.972631 
L 421.702389 27.46262 
L 419.221893 27.069776 
L 416.747719 26.827085 
L 414.265012 27.685599 
L 411.822485 27.340659 
L 409.382892 27.630952 
L 406.92056 27.870074 
L 404.431418 27.160345 
L 401.980898 28.437683 
L 399.4908 27.711792 
L 397.033716 27.347602 
L 394.572401 27.353578 
L 392.111468 27.913494 
L 389.646361 27.388519 
L 387.147542 28.130488 
L 384.658147 28.155297 
L 382.126136 28.488659 
L 379.638712 27.852476 
L 377.186997 27.571402 
L 374.716465 27.728668 
L 372.218588 29.790349 
L 369.694593 27.912043 
L 367.200365 28.862442 
L 364.713489 28.921961 
L 362.234655 29.422844 
L 359.764845 29.096488 
L 357.285726 31.131862 
L 354.791383 28.394031 
L 352.312833 30.755674 
L 349.838941 30.841472 
L 347.329934 29.879152 
L 344.896152 29.808944 
L 342.457981 29.409231 
L 339.999712 31.073645 
L 337.557857 31.629927 
L 335.130956 30.394993 
L 332.638247 32.887235 
L 330.19547 32.305333 
L 327.718265 31.012316 
L 325.273429 35.247594 
L 322.815703 33.200399 
L 320.328036 34.525305 
L 317.868913 34.708673 
L 315.364192 33.550948 
L 312.8772 35.252372 
L 310.408007 32.889146 
L 307.937192 35.323048 
L 305.473994 36.809744 
L 302.989594 37.724662 
L 300.531948 36.617533 
L 298.049548 38.956073 
L 295.573096 36.484694 
L 293.088985 33.35352 
L 290.594694 35.935465 
L 288.101992 37.035423 
L 285.592598 37.735608 
L 283.12126 36.34209 
L 280.677305 35.213061 
L 278.210847 34.000265 
L 275.732375 37.305589 
L 273.242173 42.885015 
L 270.758785 35.262543 
L 268.285854 34.592473 
L 265.790549 36.053685 
L 263.333822 41.801899 
L 260.881757 34.264598 
L 258.417445 40.977322 
L 255.968574 38.544294 
L 253.522917 40.377486 
L 251.071962 40.649227 
L 248.579271 41.55121 
L 246.098758 40.761168 
L 243.626104 39.923752 
L 241.161015 45.677943 
L 238.697031 42.246742 
L 236.231988 42.520251 
L 233.752591 39.848355 
L 231.283299 47.466044 
L 228.808415 41.200651 
L 226.366045 43.64522 
L 223.950556 47.549453 
L 221.478108 48.230517 
L 218.994638 40.551607 
L 216.507237 40.525952 
L 214.085294 51.40146 
L 211.580163 49.884984 
L 209.158266 39.932998 
L 206.680268 43.686137 
L 204.177471 42.978035 
L 201.738952 43.652202 
L 199.306731 40.905456 
L 196.836988 44.608436 
L 194.394748 44.652636 
L 191.939653 45.389072 
L 189.482398 44.670507 
L 187.01489 50.177279 
L 184.476708 45.336271 
L 182.001965 49.282134 
L 179.505114 44.506767 
L 177.029749 43.717242 
L 174.590978 45.250755 
L 172.124804 44.734757 
L 169.688741 51.056686 
L 167.249298 46.248519 
L 164.76901 53.158346 
L 162.326194 49.436072 
L 159.879716 53.197549 
L 157.447413 49.2009 
L 154.978399 49.813446 
L 152.513983 50.099464 
L 150.023724 53.978276 
L 147.555143 49.685779 
L 145.080259 48.247386 
L 142.602374 51.816737 
L 140.143473 48.877696 
L 137.70951 48.812584 
L 135.229337 49.302478 
L 132.776994 54.493507 
L 130.286016 56.095583 
L 127.839903 54.977827 
L 125.398488 52.729306 
L 122.889507 56.625022 
L 120.430354 51.50252 
L 117.965994 59.51886 
L 115.495738 52.133668 
L 113.049394 54.567367 
L 110.580461 59.581067 
L 108.132707 55.196504 
L 105.68204 64.882375 
L 103.181877 75.126069 
L 100.69775 70.710405 
L 98.245034 68.146064 
L 95.723137 83.412041 
L 93.273334 88.39103 
L 90.811907 89.367407 
L 88.371598 109.339552 
L 85.870017 152.909886 
L 83.41868 165.217595 
L 80.924265 210.663025 
L 78.447952 212.677709 
L 75.969263 240.621355 
L 73.492079 263.217185 
L 71.035457 274.922925 
L 68.558252 278.002715 
L 66.068673 288.861858 
L 63.59996 287.161851 
z
" style="fill:#ff7f0e;fill-opacity:0.25;"/>
   </g>
   <g id="PolyCollection_3">
    <path clip-path="url(#p4d3f6f924f)" d="M 63.254352 285.061659 
L 63.254352 287.562036 
L 65.427992 278.720933 
L 67.585602 290.329091 
L 69.717648 277.215217 
L 71.862213 264.475522 
L 73.997144 247.769334 
L 76.133672 236.976179 
L 78.255519 236.853458 
L 80.417432 173.60002 
L 82.575557 162.35271 
L 84.692137 125.906591 
L 86.843104 129.905452 
L 88.941152 116.748756 
L 91.082051 97.85684 
L 93.199579 90.811873 
L 95.307869 92.515012 
L 97.442932 82.751617 
L 99.605583 71.943101 
L 101.698985 69.224916 
L 103.800517 89.383358 
L 105.978742 71.470891 
L 108.117839 72.768086 
L 110.238405 81.408988 
L 112.378905 71.270033 
L 114.485737 82.377986 
L 116.62593 71.698048 
L 118.736571 62.542944 
L 120.896467 63.229152 
L 123.012921 63.863192 
L 125.148961 61.767046 
L 127.233597 64.381664 
L 129.346267 62.330823 
L 131.467047 64.774638 
L 133.580901 60.082222 
L 135.676281 59.572959 
L 137.76491 56.401044 
L 139.884696 59.203595 
L 141.970157 60.500686 
L 144.066894 49.606026 
L 146.186726 73.060923 
L 148.267117 54.959134 
L 150.389855 54.766829 
L 152.533802 59.926196 
L 154.624155 62.982325 
L 156.756013 52.43706 
L 158.879384 62.61474 
L 161.00671 56.648584 
L 163.152528 57.669142 
L 165.31201 54.084225 
L 167.464957 60.481736 
L 169.603803 56.598808 
L 171.784539 51.038862 
L 173.913239 56.58585 
L 176.030146 57.927167 
L 178.12647 55.354239 
L 180.2552 51.777882 
L 182.420825 55.548991 
L 184.545695 49.243477 
L 186.675793 49.193891 
L 188.786304 47.741856 
L 190.903147 56.490106 
L 193.008538 51.822065 
L 195.106331 51.930985 
L 197.230382 49.812041 
L 199.31453 52.202137 
L 201.429921 60.644523 
L 203.526891 49.920345 
L 205.625198 53.74535 
L 207.730015 52.44274 
L 209.879599 46.755987 
L 211.996874 51.184904 
L 214.121286 54.055377 
L 216.206968 52.803233 
L 218.317623 53.380267 
L 220.46479 46.094049 
L 222.575798 50.958361 
L 224.695177 48.500533 
L 226.831009 49.798176 
L 228.943446 44.867769 
L 231.059496 49.991318 
L 233.183258 43.972052 
L 235.278977 49.514808 
L 237.371974 45.708074 
L 239.505184 47.236178 
L 241.609857 45.433811 
L 243.706615 49.003565 
L 245.834069 45.476238 
L 247.965178 45.892783 
L 250.075299 46.40183 
L 252.187685 42.632277 
L 254.323871 43.668399 
L 256.447371 49.811521 
L 258.528517 46.162152 
L 260.641022 39.718728 
L 262.761325 39.801514 
L 264.876109 44.049562 
L 267.016899 43.214562 
L 269.112308 39.541143 
L 271.230185 42.462344 
L 273.334343 43.6482 
L 275.489087 39.149377 
L 277.577519 38.6846 
L 279.721139 41.090513 
L 281.814025 44.659814 
L 283.921653 42.580325 
L 286.028795 39.033092 
L 288.167614 43.505029 
L 290.267332 43.406705 
L 292.399538 41.37972 
L 294.513241 39.889376 
L 296.633857 38.861988 
L 298.739449 39.850164 
L 300.860398 41.212426 
L 302.971733 37.398899 
L 305.083043 39.243781 
L 307.171074 33.967929 
L 309.271697 35.789418 
L 311.357698 38.073906 
L 313.488821 37.049458 
L 315.595298 37.728896 
L 317.732393 37.062763 
L 319.823563 35.557297 
L 321.940725 35.161131 
L 324.05924 35.165186 
L 326.147592 34.005446 
L 328.324953 35.648557 
L 330.422689 34.413396 
L 332.577563 31.396608 
L 334.718999 34.843519 
L 336.87107 33.030825 
L 338.984101 34.008773 
L 341.064849 32.313138 
L 343.18256 33.711484 
L 345.308511 33.448758 
L 347.398788 33.391072 
L 349.539038 33.450622 
L 351.683475 32.518156 
L 353.823503 32.555473 
L 355.938712 32.351798 
L 358.038452 32.591566 
L 360.154111 32.271515 
L 362.245682 32.691279 
L 364.325204 31.873952 
L 366.420402 32.532955 
L 368.494663 32.377249 
L 370.607625 32.391585 
L 372.707228 32.717575 
L 374.827502 32.356555 
L 376.955211 32.986307 
L 379.092463 32.57099 
L 379.092463 27.804223 
L 379.092463 27.804223 
L 376.955211 27.449621 
L 374.827502 27.593656 
L 372.707228 26.989778 
L 370.607625 27.07291 
L 368.494663 26.965817 
L 366.420402 27.235112 
L 364.325204 27.165541 
L 362.245682 27.805363 
L 360.154111 28.164412 
L 358.038452 28.087219 
L 355.938712 26.809124 
L 353.823503 29.03403 
L 351.683475 28.949918 
L 349.539038 28.138881 
L 347.398788 28.927006 
L 345.308511 28.444319 
L 343.18256 28.788737 
L 341.064849 28.790649 
L 338.984101 29.462881 
L 336.87107 28.862252 
L 334.718999 28.68885 
L 332.577563 28.614318 
L 330.422689 28.693971 
L 328.324953 29.887391 
L 326.147592 30.801927 
L 324.05924 30.61362 
L 321.940725 31.528393 
L 319.823563 31.921516 
L 317.732393 31.933913 
L 315.595298 33.93922 
L 313.488821 34.557942 
L 311.357698 34.444213 
L 309.271697 31.932253 
L 307.171074 32.053735 
L 305.083043 34.488628 
L 302.971733 33.722786 
L 300.860398 33.127129 
L 298.739449 32.425097 
L 296.633857 31.895409 
L 294.513241 35.057324 
L 292.399538 33.991982 
L 290.267332 33.361431 
L 288.167614 34.902399 
L 286.028795 34.942176 
L 283.921653 37.40568 
L 281.814025 38.604776 
L 279.721139 33.552614 
L 277.577519 36.869245 
L 275.489087 32.640168 
L 273.334343 38.4021 
L 271.230185 37.402233 
L 269.112308 36.37699 
L 267.016899 38.714309 
L 264.876109 35.997158 
L 262.761325 36.359477 
L 260.641022 37.110122 
L 258.528517 39.895307 
L 256.447371 37.156656 
L 254.323871 39.414048 
L 252.187685 37.535872 
L 250.075299 36.498473 
L 247.965178 39.193243 
L 245.834069 37.666924 
L 243.706615 41.364625 
L 241.609857 40.320076 
L 239.505184 42.342723 
L 237.371974 38.588664 
L 235.278977 40.731953 
L 233.183258 40.688973 
L 231.059496 40.316158 
L 228.943446 40.400401 
L 226.831009 41.541447 
L 224.695177 42.960519 
L 222.575798 44.024134 
L 220.46479 37.656258 
L 218.317623 43.848666 
L 216.206968 42.482834 
L 214.121286 46.634283 
L 211.996874 45.254739 
L 209.879599 40.697906 
L 207.730015 42.539755 
L 205.625198 42.815723 
L 203.526891 40.994276 
L 201.429921 47.209452 
L 199.31453 46.848231 
L 197.230382 44.866881 
L 195.106331 47.301527 
L 193.008538 45.103295 
L 190.903147 44.8067 
L 188.786304 39.529893 
L 186.675793 46.395748 
L 184.545695 44.585442 
L 182.420825 44.958525 
L 180.2552 45.147477 
L 178.12647 49.34258 
L 176.030146 48.955375 
L 173.913239 48.171684 
L 171.784539 43.336487 
L 169.603803 44.515854 
L 167.464957 47.918669 
L 165.31201 46.301863 
L 163.152528 48.120539 
L 161.00671 51.508964 
L 158.879384 49.549966 
L 156.756013 48.2526 
L 154.624155 54.768118 
L 152.533802 46.3492 
L 150.389855 45.254972 
L 148.267117 50.466259 
L 146.186726 41.532364 
L 144.066894 45.9229 
L 141.970157 53.849743 
L 139.884696 49.257525 
L 137.76491 52.606507 
L 135.676281 48.038157 
L 133.580901 47.953896 
L 131.467047 56.375819 
L 129.346267 52.808895 
L 127.233597 59.440232 
L 125.148961 44.811923 
L 123.012921 53.34082 
L 120.896467 52.881999 
L 118.736571 58.364655 
L 116.62593 58.620302 
L 114.485737 64.211858 
L 112.378905 63.723336 
L 110.238405 60.687981 
L 108.117839 51.114524 
L 105.978742 57.268882 
L 103.800517 69.227963 
L 101.698985 61.882724 
L 99.605583 59.710969 
L 97.442932 69.727537 
L 95.307869 73.807054 
L 93.199579 72.595896 
L 91.082051 87.651018 
L 88.941152 88.916326 
L 86.843104 109.941909 
L 84.692137 114.244343 
L 82.575557 129.041286 
L 80.417432 163.390587 
L 78.255519 197.583969 
L 76.133672 213.732742 
L 73.997144 242.980819 
L 71.862213 250.347941 
L 69.717648 266.022646 
L 67.585602 287.394625 
L 65.427992 276.416978 
L 63.254352 285.061659 
z
" style="fill:#2ca02c;fill-opacity:0.25;"/>
   </g>
   <g id="PolyCollection_4">
    <path clip-path="url(#p4d3f6f924f)" d="M 63.246412 286.472489 
L 63.246412 289.065504 
L 65.385686 287.476749 
L 67.521247 290.268861 
L 69.672806 287.773154 
L 71.823352 277.384928 
L 73.981582 258.556785 
L 76.118282 253.894336 
L 78.247653 255.485069 
L 80.431043 210.759526 
L 82.619666 184.63418 
L 84.791625 161.526813 
L 86.945567 129.61612 
L 89.072802 122.891317 
L 91.261293 95.856366 
L 93.432546 104.940117 
L 95.609618 91.708036 
L 97.747818 85.445707 
L 99.890768 86.700307 
L 102.056025 74.158989 
L 104.233561 86.948856 
L 106.406157 71.448412 
L 108.538208 69.3352 
L 110.70775 73.359798 
L 112.886591 67.708361 
L 115.020376 72.761723 
L 117.191668 68.014105 
L 119.359662 68.469957 
L 121.543217 75.726059 
L 123.729892 63.832711 
L 125.918957 60.899786 
L 128.095061 58.411053 
L 130.232956 61.61038 
L 132.377004 69.761518 
L 134.541225 64.022273 
L 136.691531 61.236713 
L 138.877369 64.768846 
L 140.980593 60.10254 
L 143.114131 54.848578 
L 145.265663 53.947194 
L 147.382721 62.309221 
L 149.529674 55.520038 
L 151.69891 54.985193 
L 153.856774 58.149659 
L 156.035405 57.791089 
L 158.195373 56.490746 
L 160.404173 58.189877 
L 162.571813 60.140314 
L 164.698802 56.859602 
L 166.872026 56.310411 
L 169.003386 49.469844 
L 171.127614 53.808539 
L 173.311149 51.714158 
L 175.451839 53.178508 
L 177.582765 51.482507 
L 179.678987 58.928757 
L 181.831136 57.540659 
L 184.015337 56.832476 
L 186.244289 49.599629 
L 188.380519 50.948011 
L 190.543489 50.378577 
L 192.695489 56.207792 
L 194.882151 60.624096 
L 197.038255 52.79735 
L 199.222416 49.523644 
L 201.358154 50.912495 
L 203.520119 54.034035 
L 205.672317 48.85094 
L 207.854848 54.600157 
L 209.97343 49.348854 
L 212.084451 47.289569 
L 214.269495 51.76508 
L 216.426752 49.835978 
L 218.608459 48.088204 
L 220.761692 56.08831 
L 222.882233 49.40478 
L 224.994066 50.595825 
L 227.170547 51.549769 
L 229.328998 47.455191 
L 231.489381 48.230877 
L 233.672197 48.301444 
L 235.869303 42.678458 
L 238.096856 46.20849 
L 240.206936 45.453558 
L 242.35906 47.588402 
L 244.511456 44.060042 
L 246.741051 48.369485 
L 248.918365 43.495488 
L 251.070522 43.61639 
L 253.20656 39.707779 
L 255.347407 44.233897 
L 257.492871 41.941653 
L 259.625007 46.876603 
L 261.733002 39.227552 
L 263.904295 43.781378 
L 266.04746 43.597914 
L 268.260136 45.028581 
L 270.394799 41.98661 
L 272.566206 43.741645 
L 274.740921 40.351177 
L 276.889761 43.122925 
L 279.060415 39.128884 
L 281.190034 42.43894 
L 283.421225 40.486834 
L 285.588664 41.638881 
L 287.758354 40.54931 
L 289.89905 37.483574 
L 292.108024 37.895954 
L 294.272794 38.012869 
L 296.418733 37.438971 
L 298.607094 39.209355 
L 300.776376 36.407568 
L 302.920611 38.729992 
L 305.142209 35.617755 
L 307.335544 36.066551 
L 309.503496 35.882758 
L 311.639317 33.800893 
L 313.804728 35.498796 
L 315.952264 34.772116 
L 318.12055 35.546819 
L 320.260992 34.84472 
L 322.419526 37.876328 
L 324.55803 34.669833 
L 326.689312 34.338529 
L 328.861657 33.893689 
L 331.045228 31.176673 
L 333.138147 33.568074 
L 335.267655 31.802911 
L 337.398596 33.018167 
L 339.56877 33.151387 
L 341.741043 32.942296 
L 343.921271 33.009895 
L 346.058959 34.674571 
L 348.205735 31.739059 
L 350.425835 31.36335 
L 352.535132 32.847255 
L 354.743977 33.154822 
L 356.935732 33.348896 
L 359.120642 33.668347 
L 361.269616 32.838126 
L 363.388562 32.565697 
L 365.503765 32.354493 
L 367.66977 32.378383 
L 369.819567 32.503041 
L 371.948412 34.287841 
L 374.110803 32.613617 
L 376.293482 32.609928 
L 378.476838 32.456105 
L 380.592401 32.994288 
L 382.750363 32.67557 
L 384.916865 32.654959 
L 384.916865 28.813115 
L 384.916865 28.813115 
L 382.750363 29.217506 
L 380.592401 28.777359 
L 378.476838 28.465539 
L 376.293482 28.493859 
L 374.110803 28.672314 
L 371.948412 27.848093 
L 369.819567 27.932886 
L 367.66977 28.178974 
L 365.503765 28.263578 
L 363.388562 27.688087 
L 361.269616 28.629948 
L 359.120642 29.135447 
L 356.935732 30.001328 
L 354.743977 28.434682 
L 352.535132 28.560105 
L 350.425835 27.433285 
L 348.205735 28.029009 
L 346.058959 30.314946 
L 343.921271 28.093892 
L 341.741043 30.711502 
L 339.56877 29.470264 
L 337.398596 27.357046 
L 335.267655 27.600869 
L 333.138147 29.721436 
L 331.045228 29.016396 
L 328.861657 29.092248 
L 326.689312 31.015275 
L 324.55803 29.833968 
L 322.419526 33.002498 
L 320.260992 29.355508 
L 318.12055 30.960561 
L 315.952264 29.853114 
L 313.804728 32.040732 
L 311.639317 30.217192 
L 309.503496 31.292482 
L 307.335544 31.897978 
L 305.142209 33.682494 
L 302.920611 34.030985 
L 300.776376 33.317682 
L 298.607094 31.851615 
L 296.418733 33.318427 
L 294.272794 34.019533 
L 292.108024 33.286445 
L 289.89905 32.605964 
L 287.758354 36.340255 
L 285.588664 35.614971 
L 283.421225 34.459866 
L 281.190034 32.38633 
L 279.060415 35.87853 
L 276.889761 34.859501 
L 274.740921 35.081239 
L 272.566206 35.576501 
L 270.394799 38.485113 
L 268.260136 41.818166 
L 266.04746 39.484533 
L 263.904295 39.240354 
L 261.733002 36.265579 
L 259.625007 37.298705 
L 257.492871 38.590783 
L 255.347407 39.091408 
L 253.20656 33.963915 
L 251.070522 38.858912 
L 248.918365 37.097663 
L 246.741051 42.727279 
L 244.511456 38.536688 
L 242.35906 34.401184 
L 240.206936 40.300328 
L 238.096856 34.566805 
L 235.869303 39.311127 
L 233.672197 38.36316 
L 231.489381 40.133734 
L 229.328998 42.609426 
L 227.170547 43.675584 
L 224.994066 44.811671 
L 222.882233 40.416979 
L 220.761692 44.479921 
L 218.608459 42.219272 
L 216.426752 42.171505 
L 214.269495 43.460273 
L 212.084451 41.3179 
L 209.97343 42.051483 
L 207.854848 42.446631 
L 205.672317 40.485103 
L 203.520119 45.077047 
L 201.358154 45.770007 
L 199.222416 41.148119 
L 197.038255 44.188724 
L 194.882151 47.412023 
L 192.695489 44.481869 
L 190.543489 38.957466 
L 188.380519 38.63089 
L 186.244289 44.350718 
L 184.015337 48.471488 
L 181.831136 43.209715 
L 179.678987 45.585919 
L 177.582765 46.049998 
L 175.451839 46.114718 
L 173.311149 46.607636 
L 171.127614 47.002551 
L 169.003386 41.74835 
L 166.872026 47.172118 
L 164.698802 47.533645 
L 162.571813 47.227945 
L 160.404173 44.503363 
L 158.195373 46.02035 
L 156.035405 44.902151 
L 153.856774 42.540002 
L 151.69891 48.55805 
L 149.529674 47.355345 
L 147.382721 51.130491 
L 145.265663 50.688911 
L 143.114131 50.0911 
L 140.980593 54.855034 
L 138.877369 51.524448 
L 136.691531 51.41371 
L 134.541225 51.84602 
L 132.377004 58.37111 
L 130.232956 49.340035 
L 128.095061 46.285767 
L 125.918957 53.632787 
L 123.729892 51.974867 
L 121.543217 58.05302 
L 119.359662 60.45196 
L 117.191668 57.750656 
L 115.020376 62.231646 
L 112.886591 56.538537 
L 110.70775 66.490733 
L 108.538208 54.911697 
L 106.406157 57.837791 
L 104.233561 69.294599 
L 102.056025 65.691543 
L 99.890768 74.27888 
L 97.747818 80.876359 
L 95.609618 69.999726 
L 93.432546 82.753463 
L 91.261293 78.176445 
L 89.072802 90.788082 
L 86.945567 105.677651 
L 84.791625 122.793941 
L 82.619666 146.34569 
L 80.431043 193.047421 
L 78.247653 190.047938 
L 76.118282 217.457525 
L 73.981582 248.252361 
L 71.823352 259.781483 
L 69.672806 270.036196 
L 67.521247 285.026274 
L 65.385686 277.375486 
L 63.246412 286.472489 
z
" style="fill:#d62728;fill-opacity:0.25;"/>
   </g>
   <g id="PolyCollection_5">
    <path clip-path="url(#p4d3f6f924f)" d="M 63.319714 271.63575 
L 63.319714 283.016445 
L 65.46908 282.755929 
L 67.655371 281.704681 
L 69.819358 278.851377 
L 71.95601 258.13036 
L 74.118881 248.944138 
L 76.314877 223.7644 
L 78.523893 192.497879 
L 80.699693 194.771677 
L 82.873035 169.196651 
L 85.007488 121.822883 
L 87.197703 104.612134 
L 89.333495 120.133296 
L 91.462475 90.315994 
L 93.586092 86.116505 
L 95.809545 83.386522 
L 97.972367 81.844241 
L 100.138005 82.485502 
L 102.295122 78.572636 
L 104.526316 87.900905 
L 106.678579 71.749231 
L 108.851688 65.311621 
L 110.962263 79.045145 
L 113.168149 84.137808 
L 115.322727 89.793316 
L 117.473518 75.48205 
L 119.662431 75.279616 
L 121.797059 66.401461 
L 123.988551 69.096253 
L 126.141805 68.588908 
L 128.346957 64.239672 
L 130.531151 60.110497 
L 132.696549 71.017098 
L 134.8536 70.410268 
L 137.098311 63.795939 
L 139.270307 63.750753 
L 141.419963 75.204827 
L 143.589937 54.773487 
L 145.752158 61.338906 
L 147.887017 72.634371 
L 150.067956 61.531791 
L 152.245545 61.081099 
L 154.395989 56.854954 
L 156.522603 59.14551 
L 158.649139 56.652358 
L 160.798452 71.244777 
L 162.996799 51.70718 
L 165.187493 60.049857 
L 167.342445 52.190842 
L 169.48149 57.104639 
L 171.620301 59.438123 
L 173.756271 52.976414 
L 175.907753 68.303118 
L 178.075305 63.838064 
L 180.217212 58.910003 
L 182.359877 54.969571 
L 184.535526 60.370816 
L 186.675874 55.121781 
L 188.861776 55.263345 
L 191.041694 51.306999 
L 193.18899 53.822113 
L 195.365477 54.467548 
L 197.577361 59.138444 
L 199.702127 52.749579 
L 201.904499 51.040878 
L 204.054905 50.981695 
L 206.249014 53.610928 
L 208.423162 58.703419 
L 210.561143 49.632901 
L 212.769703 48.498899 
L 214.933487 57.700175 
L 217.099547 56.158894 
L 219.28084 49.618457 
L 221.426674 54.405799 
L 223.592369 48.234961 
L 225.802645 58.666706 
L 227.999003 56.14443 
L 230.156972 52.419133 
L 232.349861 50.838365 
L 234.554971 47.973834 
L 236.780092 48.150944 
L 238.930115 46.898097 
L 241.078598 48.914919 
L 243.264133 47.531134 
L 245.432432 46.731443 
L 247.623631 51.064504 
L 249.79131 49.205402 
L 251.997162 48.060439 
L 254.237142 41.305942 
L 256.359184 45.158262 
L 258.550861 49.705641 
L 260.701387 47.380769 
L 262.855015 43.436669 
L 264.99166 43.956514 
L 267.151138 41.549998 
L 269.288666 44.363774 
L 271.431527 43.384259 
L 273.600208 42.641303 
L 275.77745 44.175495 
L 277.962551 44.212188 
L 280.106687 41.852955 
L 282.260056 41.808237 
L 284.477689 43.514087 
L 286.634321 43.662168 
L 288.756647 45.717252 
L 290.88965 42.426342 
L 293.039919 39.603851 
L 295.229032 40.782292 
L 297.416343 40.565535 
L 299.602467 38.049815 
L 301.767291 36.706505 
L 303.936183 38.821164 
L 306.092551 37.773842 
L 308.249053 40.97931 
L 310.419847 37.735874 
L 312.579975 36.367901 
L 314.699098 38.828053 
L 316.896636 37.874437 
L 319.097488 37.801909 
L 321.300737 36.903415 
L 323.438225 38.25058 
L 325.649914 37.161058 
L 327.793236 36.867819 
L 329.961541 38.14212 
L 332.13216 35.410906 
L 334.293678 35.023435 
L 336.447309 35.94471 
L 338.612419 34.608569 
L 340.816738 37.09216 
L 342.966739 35.880507 
L 345.152057 35.684224 
L 347.286789 35.5912 
L 349.423629 34.313796 
L 351.578812 32.90953 
L 353.71411 33.876332 
L 355.825296 33.782853 
L 357.95706 32.759474 
L 360.067034 33.627942 
L 362.254451 33.803101 
L 364.387136 33.702811 
L 366.598585 34.291309 
L 368.781277 34.367918 
L 370.975369 32.16981 
L 373.144764 32.481492 
L 375.340684 33.18947 
L 377.521257 32.035294 
L 379.64753 32.402168 
L 381.835028 32.841336 
L 384.027548 33.337318 
L 386.223912 32.856475 
L 386.223912 28.915172 
L 386.223912 28.915172 
L 384.027548 27.402182 
L 381.835028 28.38388 
L 379.64753 28.762334 
L 377.521257 27.550631 
L 375.340684 28.460748 
L 373.144764 28.743725 
L 370.975369 28.56969 
L 368.781277 28.739449 
L 366.598585 28.391056 
L 364.387136 27.947407 
L 362.254451 26.997113 
L 360.067034 28.993709 
L 357.95706 28.647886 
L 355.825296 29.263799 
L 353.71411 28.806033 
L 351.578812 29.226404 
L 349.423629 30.857865 
L 347.286789 29.641176 
L 345.152057 29.548151 
L 342.966739 30.080442 
L 340.816738 29.475935 
L 338.612419 29.105943 
L 336.447309 29.712666 
L 334.293678 29.601795 
L 332.13216 30.428614 
L 329.961541 32.068846 
L 327.793236 31.157425 
L 325.649914 29.771324 
L 323.438225 31.231812 
L 321.300737 28.693248 
L 319.097488 31.801912 
L 316.896636 33.00439 
L 314.699098 28.711475 
L 312.579975 31.475199 
L 310.419847 33.264382 
L 308.249053 34.149533 
L 306.092551 29.401398 
L 303.936183 35.761248 
L 301.767291 33.686605 
L 299.602467 32.343295 
L 297.416343 37.53832 
L 295.229032 33.496548 
L 293.039919 35.403564 
L 290.88965 36.223944 
L 288.756647 38.093769 
L 286.634321 35.048833 
L 284.477689 35.804059 
L 282.260056 35.870617 
L 280.106687 37.100904 
L 277.962551 36.441677 
L 275.77745 37.146231 
L 273.600208 37.526847 
L 271.431527 36.23746 
L 269.288666 38.900816 
L 267.151138 35.764569 
L 264.99166 37.243782 
L 262.855015 39.40292 
L 260.701387 41.2267 
L 258.550861 42.605415 
L 256.359184 38.227758 
L 254.237142 36.676484 
L 251.997162 39.575597 
L 249.79131 41.830648 
L 247.623631 44.342992 
L 245.432432 41.451024 
L 243.264133 41.622765 
L 241.078598 40.056837 
L 238.930115 43.591523 
L 236.780092 40.820812 
L 234.554971 40.02649 
L 232.349861 45.054848 
L 230.156972 43.109792 
L 227.999003 46.670239 
L 225.802645 45.483682 
L 223.592369 42.315373 
L 221.426674 45.737431 
L 219.28084 41.660452 
L 217.099547 45.137911 
L 214.933487 50.639516 
L 212.769703 43.933586 
L 210.561143 46.017454 
L 208.423162 45.32554 
L 206.249014 48.900169 
L 204.054905 43.757942 
L 201.904499 42.970184 
L 199.702127 41.443627 
L 197.577361 47.804813 
L 195.365477 44.58282 
L 193.18899 47.292549 
L 191.041694 41.368344 
L 188.861776 48.03704 
L 186.675874 47.389315 
L 184.535526 51.24746 
L 182.359877 51.427255 
L 180.217212 53.07256 
L 178.075305 53.730235 
L 175.907753 52.483051 
L 173.756271 45.223951 
L 171.620301 52.483725 
L 169.48149 49.170758 
L 167.342445 45.341662 
L 165.187493 53.814856 
L 162.996799 48.496764 
L 160.798452 56.705707 
L 158.649139 49.865897 
L 156.522603 49.072752 
L 154.395989 45.716857 
L 152.245545 48.897885 
L 150.067956 50.329343 
L 147.887017 54.34468 
L 145.752158 49.49008 
L 143.589937 45.309028 
L 141.419963 62.459981 
L 139.270307 53.99969 
L 137.098311 52.436641 
L 134.8536 49.768756 
L 132.696549 56.690528 
L 130.531151 52.843498 
L 128.346957 56.485783 
L 126.141805 61.365155 
L 123.988551 57.397082 
L 121.797059 58.209723 
L 119.662431 66.270922 
L 117.473518 55.139873 
L 115.322727 65.842993 
L 113.168149 53.769859 
L 110.962263 58.133947 
L 108.851688 61.120999 
L 106.678579 60.086983 
L 104.526316 66.521113 
L 102.295122 64.495766 
L 100.138005 70.479367 
L 97.972367 74.034927 
L 95.809545 69.821206 
L 93.586092 81.419852 
L 91.462475 78.009652 
L 89.333495 88.203225 
L 87.197703 78.224284 
L 85.007488 90.460082 
L 82.873035 94.997236 
L 80.699693 102.754487 
L 78.523893 118.567624 
L 76.314877 161.934439 
L 74.118881 179.406657 
L 71.95601 201.80717 
L 69.819358 234.029222 
L 67.655371 245.003652 
L 65.46908 259.267644 
L 63.319714 271.63575 
z
" style="fill:#9467bd;fill-opacity:0.25;"/>
   </g>
   <g id="matplotlib.axis_1">
    <g id="xtick_1">
     <g id="line2d_1">
      <defs>
       <path d="M 0 0 
L 0 3.5 
" id="mb4e7352c0e" style="stroke:#000000;stroke-width:0.8;"/>
      </defs>
      <g>
       <use style="stroke:#000000;stroke-width:0.8;" x="60.775129" xlink:href="#mb4e7352c0e" y="303.64"/>
      </g>
     </g>
     <g id="text_1">
      <!-- 0 -->
      <g transform="translate(57.593879 318.238437)scale(0.1 -0.1)">
       <defs>
        <path d="M 31.78125 66.40625 
Q 24.171875 66.40625 20.328125 58.90625 
Q 16.5 51.421875 16.5 36.375 
Q 16.5 21.390625 20.328125 13.890625 
Q 24.171875 6.390625 31.78125 6.390625 
Q 39.453125 6.390625 43.28125 13.890625 
Q 47.125 21.390625 47.125 36.375 
Q 47.125 51.421875 43.28125 58.90625 
Q 39.453125 66.40625 31.78125 66.40625 
z
M 31.78125 74.21875 
Q 44.046875 74.21875 50.515625 64.515625 
Q 56.984375 54.828125 56.984375 36.375 
Q 56.984375 17.96875 50.515625 8.265625 
Q 44.046875 -1.421875 31.78125 -1.421875 
Q 19.53125 -1.421875 13.0625 8.265625 
Q 6.59375 17.96875 6.59375 36.375 
Q 6.59375 54.828125 13.0625 64.515625 
Q 19.53125 74.21875 31.78125 74.21875 
z
" id="DejaVuSans-48"/>
       </defs>
       <use xlink:href="#DejaVuSans-48"/>
      </g>
     </g>
    </g>
    <g id="xtick_2">
     <g id="line2d_2">
      <g>
       <use style="stroke:#000000;stroke-width:0.8;" x="133.601102" xlink:href="#mb4e7352c0e" y="303.64"/>
      </g>
     </g>
     <g id="text_2">
      <!-- 500 -->
      <g transform="translate(124.057352 318.238437)scale(0.1 -0.1)">
       <defs>
        <path d="M 10.796875 72.90625 
L 49.515625 72.90625 
L 49.515625 64.59375 
L 19.828125 64.59375 
L 19.828125 46.734375 
Q 21.96875 47.46875 24.109375 47.828125 
Q 26.265625 48.1875 28.421875 48.1875 
Q 40.625 48.1875 47.75 41.5 
Q 54.890625 34.8125 54.890625 23.390625 
Q 54.890625 11.625 47.5625 5.09375 
Q 40.234375 -1.421875 26.90625 -1.421875 
Q 22.3125 -1.421875 17.546875 -0.640625 
Q 12.796875 0.140625 7.71875 1.703125 
L 7.71875 11.625 
Q 12.109375 9.234375 16.796875 8.0625 
Q 21.484375 6.890625 26.703125 6.890625 
Q 35.15625 6.890625 40.078125 11.328125 
Q 45.015625 15.765625 45.015625 23.390625 
Q 45.015625 31 40.078125 35.4375 
Q 35.15625 39.890625 26.703125 39.890625 
Q 22.75 39.890625 18.8125 39.015625 
Q 14.890625 38.140625 10.796875 36.28125 
z
" id="DejaVuSans-53"/>
       </defs>
       <use xlink:href="#DejaVuSans-53"/>
       <use x="63.623047" xlink:href="#DejaVuSans-48"/>
       <use x="127.246094" xlink:href="#DejaVuSans-48"/>
      </g>
     </g>
    </g>
    <g id="xtick_3">
     <g id="line2d_3">
      <g>
       <use style="stroke:#000000;stroke-width:0.8;" x="206.427075" xlink:href="#mb4e7352c0e" y="303.64"/>
      </g>
     </g>
     <g id="text_3">
      <!-- 1000 -->
      <g transform="translate(193.702075 318.238437)scale(0.1 -0.1)">
       <defs>
        <path d="M 12.40625 8.296875 
L 28.515625 8.296875 
L 28.515625 63.921875 
L 10.984375 60.40625 
L 10.984375 69.390625 
L 28.421875 72.90625 
L 38.28125 72.90625 
L 38.28125 8.296875 
L 54.390625 8.296875 
L 54.390625 0 
L 12.40625 0 
z
" id="DejaVuSans-49"/>
       </defs>
       <use xlink:href="#DejaVuSans-49"/>
       <use x="63.623047" xlink:href="#DejaVuSans-48"/>
       <use x="127.246094" xlink:href="#DejaVuSans-48"/>
       <use x="190.869141" xlink:href="#DejaVuSans-48"/>
      </g>
     </g>
    </g>
    <g id="xtick_4">
     <g id="line2d_4">
      <g>
       <use style="stroke:#000000;stroke-width:0.8;" x="279.253048" xlink:href="#mb4e7352c0e" y="303.64"/>
      </g>
     </g>
     <g id="text_4">
      <!-- 1500 -->
      <g transform="translate(266.528048 318.238437)scale(0.1 -0.1)">
       <use xlink:href="#DejaVuSans-49"/>
       <use x="63.623047" xlink:href="#DejaVuSans-53"/>
       <use x="127.246094" xlink:href="#DejaVuSans-48"/>
       <use x="190.869141" xlink:href="#DejaVuSans-48"/>
      </g>
     </g>
    </g>
    <g id="xtick_5">
     <g id="line2d_5">
      <g>
       <use style="stroke:#000000;stroke-width:0.8;" x="352.079021" xlink:href="#mb4e7352c0e" y="303.64"/>
      </g>
     </g>
     <g id="text_5">
      <!-- 2000 -->
      <g transform="translate(339.354021 318.238437)scale(0.1 -0.1)">
       <defs>
        <path d="M 19.1875 8.296875 
L 53.609375 8.296875 
L 53.609375 0 
L 7.328125 0 
L 7.328125 8.296875 
Q 12.9375 14.109375 22.625 23.890625 
Q 32.328125 33.6875 34.8125 36.53125 
Q 39.546875 41.84375 41.421875 45.53125 
Q 43.3125 49.21875 43.3125 52.78125 
Q 43.3125 58.59375 39.234375 62.25 
Q 35.15625 65.921875 28.609375 65.921875 
Q 23.96875 65.921875 18.8125 64.3125 
Q 13.671875 62.703125 7.8125 59.421875 
L 7.8125 69.390625 
Q 13.765625 71.78125 18.9375 73 
Q 24.125 74.21875 28.421875 74.21875 
Q 39.75 74.21875 46.484375 68.546875 
Q 53.21875 62.890625 53.21875 53.421875 
Q 53.21875 48.921875 51.53125 44.890625 
Q 49.859375 40.875 45.40625 35.40625 
Q 44.1875 33.984375 37.640625 27.21875 
Q 31.109375 20.453125 19.1875 8.296875 
z
" id="DejaVuSans-50"/>
       </defs>
       <use xlink:href="#DejaVuSans-50"/>
       <use x="63.623047" xlink:href="#DejaVuSans-48"/>
       <use x="127.246094" xlink:href="#DejaVuSans-48"/>
       <use x="190.869141" xlink:href="#DejaVuSans-48"/>
      </g>
     </g>
    </g>
    <g id="xtick_6">
     <g id="line2d_6">
      <g>
       <use style="stroke:#000000;stroke-width:0.8;" x="424.904993" xlink:href="#mb4e7352c0e" y="303.64"/>
      </g>
     </g>
     <g id="text_6">
      <!-- 2500 -->
      <g transform="translate(412.179993 318.238437)scale(0.1 -0.1)">
       <use xlink:href="#DejaVuSans-50"/>
       <use x="63.623047" xlink:href="#DejaVuSans-53"/>
       <use x="127.246094" xlink:href="#DejaVuSans-48"/>
       <use x="190.869141" xlink:href="#DejaVuSans-48"/>
      </g>
     </g>
    </g>
    <g id="text_7">
     <!-- Time (sec) -->
     <g transform="translate(221.130313 331.916562)scale(0.1 -0.1)">
      <defs>
       <path d="M -0.296875 72.90625 
L 61.375 72.90625 
L 61.375 64.59375 
L 35.5 64.59375 
L 35.5 0 
L 25.59375 0 
L 25.59375 64.59375 
L -0.296875 64.59375 
z
" id="DejaVuSans-84"/>
       <path d="M 9.421875 54.6875 
L 18.40625 54.6875 
L 18.40625 0 
L 9.421875 0 
z
M 9.421875 75.984375 
L 18.40625 75.984375 
L 18.40625 64.59375 
L 9.421875 64.59375 
z
" id="DejaVuSans-105"/>
       <path d="M 52 44.1875 
Q 55.375 50.25 60.0625 53.125 
Q 64.75 56 71.09375 56 
Q 79.640625 56 84.28125 50.015625 
Q 88.921875 44.046875 88.921875 33.015625 
L 88.921875 0 
L 79.890625 0 
L 79.890625 32.71875 
Q 79.890625 40.578125 77.09375 44.375 
Q 74.3125 48.1875 68.609375 48.1875 
Q 61.625 48.1875 57.5625 43.546875 
Q 53.515625 38.921875 53.515625 30.90625 
L 53.515625 0 
L 44.484375 0 
L 44.484375 32.71875 
Q 44.484375 40.625 41.703125 44.40625 
Q 38.921875 48.1875 33.109375 48.1875 
Q 26.21875 48.1875 22.15625 43.53125 
Q 18.109375 38.875 18.109375 30.90625 
L 18.109375 0 
L 9.078125 0 
L 9.078125 54.6875 
L 18.109375 54.6875 
L 18.109375 46.1875 
Q 21.1875 51.21875 25.484375 53.609375 
Q 29.78125 56 35.6875 56 
Q 41.65625 56 45.828125 52.96875 
Q 50 49.953125 52 44.1875 
z
" id="DejaVuSans-109"/>
       <path d="M 56.203125 29.59375 
L 56.203125 25.203125 
L 14.890625 25.203125 
Q 15.484375 15.921875 20.484375 11.0625 
Q 25.484375 6.203125 34.421875 6.203125 
Q 39.59375 6.203125 44.453125 7.46875 
Q 49.3125 8.734375 54.109375 11.28125 
L 54.109375 2.78125 
Q 49.265625 0.734375 44.1875 -0.34375 
Q 39.109375 -1.421875 33.890625 -1.421875 
Q 20.796875 -1.421875 13.15625 6.1875 
Q 5.515625 13.8125 5.515625 26.8125 
Q 5.515625 40.234375 12.765625 48.109375 
Q 20.015625 56 32.328125 56 
Q 43.359375 56 49.78125 48.890625 
Q 56.203125 41.796875 56.203125 29.59375 
z
M 47.21875 32.234375 
Q 47.125 39.59375 43.09375 43.984375 
Q 39.0625 48.390625 32.421875 48.390625 
Q 24.90625 48.390625 20.390625 44.140625 
Q 15.875 39.890625 15.1875 32.171875 
z
" id="DejaVuSans-101"/>
       <path id="DejaVuSans-32"/>
       <path d="M 31 75.875 
Q 24.46875 64.65625 21.28125 53.65625 
Q 18.109375 42.671875 18.109375 31.390625 
Q 18.109375 20.125 21.3125 9.0625 
Q 24.515625 -2 31 -13.1875 
L 23.1875 -13.1875 
Q 15.875 -1.703125 12.234375 9.375 
Q 8.59375 20.453125 8.59375 31.390625 
Q 8.59375 42.28125 12.203125 53.3125 
Q 15.828125 64.359375 23.1875 75.875 
z
" id="DejaVuSans-40"/>
       <path d="M 44.28125 53.078125 
L 44.28125 44.578125 
Q 40.484375 46.53125 36.375 47.5 
Q 32.28125 48.484375 27.875 48.484375 
Q 21.1875 48.484375 17.84375 46.4375 
Q 14.5 44.390625 14.5 40.28125 
Q 14.5 37.15625 16.890625 35.375 
Q 19.28125 33.59375 26.515625 31.984375 
L 29.59375 31.296875 
Q 39.15625 29.25 43.1875 25.515625 
Q 47.21875 21.78125 47.21875 15.09375 
Q 47.21875 7.46875 41.1875 3.015625 
Q 35.15625 -1.421875 24.609375 -1.421875 
Q 20.21875 -1.421875 15.453125 -0.5625 
Q 10.6875 0.296875 5.421875 2 
L 5.421875 11.28125 
Q 10.40625 8.6875 15.234375 7.390625 
Q 20.0625 6.109375 24.8125 6.109375 
Q 31.15625 6.109375 34.5625 8.28125 
Q 37.984375 10.453125 37.984375 14.40625 
Q 37.984375 18.0625 35.515625 20.015625 
Q 33.0625 21.96875 24.703125 23.78125 
L 21.578125 24.515625 
Q 13.234375 26.265625 9.515625 29.90625 
Q 5.8125 33.546875 5.8125 39.890625 
Q 5.8125 47.609375 11.28125 51.796875 
Q 16.75 56 26.8125 56 
Q 31.78125 56 36.171875 55.265625 
Q 40.578125 54.546875 44.28125 53.078125 
z
" id="DejaVuSans-115"/>
       <path d="M 48.78125 52.59375 
L 48.78125 44.1875 
Q 44.96875 46.296875 41.140625 47.34375 
Q 37.3125 48.390625 33.40625 48.390625 
Q 24.65625 48.390625 19.8125 42.84375 
Q 14.984375 37.3125 14.984375 27.296875 
Q 14.984375 17.28125 19.8125 11.734375 
Q 24.65625 6.203125 33.40625 6.203125 
Q 37.3125 6.203125 41.140625 7.25 
Q 44.96875 8.296875 48.78125 10.40625 
L 48.78125 2.09375 
Q 45.015625 0.34375 40.984375 -0.53125 
Q 36.96875 -1.421875 32.421875 -1.421875 
Q 20.0625 -1.421875 12.78125 6.34375 
Q 5.515625 14.109375 5.515625 27.296875 
Q 5.515625 40.671875 12.859375 48.328125 
Q 20.21875 56 33.015625 56 
Q 37.15625 56 41.109375 55.140625 
Q 45.0625 54.296875 48.78125 52.59375 
z
" id="DejaVuSans-99"/>
       <path d="M 8.015625 75.875 
L 15.828125 75.875 
Q 23.140625 64.359375 26.78125 53.3125 
Q 30.421875 42.28125 30.421875 31.390625 
Q 30.421875 20.453125 26.78125 9.375 
Q 23.140625 -1.703125 15.828125 -13.1875 
L 8.015625 -13.1875 
Q 14.5 -2 17.703125 9.0625 
Q 20.90625 20.125 20.90625 31.390625 
Q 20.90625 42.671875 17.703125 53.65625 
Q 14.5 64.65625 8.015625 75.875 
z
" id="DejaVuSans-41"/>
      </defs>
      <use xlink:href="#DejaVuSans-84"/>
      <use x="57.958984" xlink:href="#DejaVuSans-105"/>
      <use x="85.742188" xlink:href="#DejaVuSans-109"/>
      <use x="183.154297" xlink:href="#DejaVuSans-101"/>
      <use x="244.677734" xlink:href="#DejaVuSans-32"/>
      <use x="276.464844" xlink:href="#DejaVuSans-40"/>
      <use x="315.478516" xlink:href="#DejaVuSans-115"/>
      <use x="367.578125" xlink:href="#DejaVuSans-101"/>
      <use x="429.101562" xlink:href="#DejaVuSans-99"/>
      <use x="484.082031" xlink:href="#DejaVuSans-41"/>
     </g>
    </g>
   </g>
   <g id="matplotlib.axis_2">
    <g id="ytick_1">
     <g id="line2d_7">
      <defs>
       <path d="M 0 0 
L -3.5 0 
" id="m143d1ffa33" style="stroke:#000000;stroke-width:0.8;"/>
      </defs>
      <g>
       <use style="stroke:#000000;stroke-width:0.8;" x="44.57" xlink:href="#m143d1ffa33" y="256.076012"/>
      </g>
     </g>
     <g id="text_8">
      <!-- 20 -->
      <g transform="translate(24.845 259.875231)scale(0.1 -0.1)">
       <use xlink:href="#DejaVuSans-50"/>
       <use x="63.623047" xlink:href="#DejaVuSans-48"/>
      </g>
     </g>
    </g>
    <g id="ytick_2">
     <g id="line2d_8">
      <g>
       <use style="stroke:#000000;stroke-width:0.8;" x="44.57" xlink:href="#m143d1ffa33" y="193.904334"/>
      </g>
     </g>
     <g id="text_9">
      <!-- 40 -->
      <g transform="translate(24.845 197.703553)scale(0.1 -0.1)">
       <defs>
        <path d="M 37.796875 64.3125 
L 12.890625 25.390625 
L 37.796875 25.390625 
z
M 35.203125 72.90625 
L 47.609375 72.90625 
L 47.609375 25.390625 
L 58.015625 25.390625 
L 58.015625 17.1875 
L 47.609375 17.1875 
L 47.609375 0 
L 37.796875 0 
L 37.796875 17.1875 
L 4.890625 17.1875 
L 4.890625 26.703125 
z
" id="DejaVuSans-52"/>
       </defs>
       <use xlink:href="#DejaVuSans-52"/>
       <use x="63.623047" xlink:href="#DejaVuSans-48"/>
      </g>
     </g>
    </g>
    <g id="ytick_3">
     <g id="line2d_9">
      <g>
       <use style="stroke:#000000;stroke-width:0.8;" x="44.57" xlink:href="#m143d1ffa33" y="131.732657"/>
      </g>
     </g>
     <g id="text_10">
      <!-- 60 -->
      <g transform="translate(24.845 135.531875)scale(0.1 -0.1)">
       <defs>
        <path d="M 33.015625 40.375 
Q 26.375 40.375 22.484375 35.828125 
Q 18.609375 31.296875 18.609375 23.390625 
Q 18.609375 15.53125 22.484375 10.953125 
Q 26.375 6.390625 33.015625 6.390625 
Q 39.65625 6.390625 43.53125 10.953125 
Q 47.40625 15.53125 47.40625 23.390625 
Q 47.40625 31.296875 43.53125 35.828125 
Q 39.65625 40.375 33.015625 40.375 
z
M 52.59375 71.296875 
L 52.59375 62.3125 
Q 48.875 64.0625 45.09375 64.984375 
Q 41.3125 65.921875 37.59375 65.921875 
Q 27.828125 65.921875 22.671875 59.328125 
Q 17.53125 52.734375 16.796875 39.40625 
Q 19.671875 43.65625 24.015625 45.921875 
Q 28.375 48.1875 33.59375 48.1875 
Q 44.578125 48.1875 50.953125 41.515625 
Q 57.328125 34.859375 57.328125 23.390625 
Q 57.328125 12.15625 50.6875 5.359375 
Q 44.046875 -1.421875 33.015625 -1.421875 
Q 20.359375 -1.421875 13.671875 8.265625 
Q 6.984375 17.96875 6.984375 36.375 
Q 6.984375 53.65625 15.1875 63.9375 
Q 23.390625 74.21875 37.203125 74.21875 
Q 40.921875 74.21875 44.703125 73.484375 
Q 48.484375 72.75 52.59375 71.296875 
z
" id="DejaVuSans-54"/>
       </defs>
       <use xlink:href="#DejaVuSans-54"/>
       <use x="63.623047" xlink:href="#DejaVuSans-48"/>
      </g>
     </g>
    </g>
    <g id="ytick_4">
     <g id="line2d_10">
      <g>
       <use style="stroke:#000000;stroke-width:0.8;" x="44.57" xlink:href="#m143d1ffa33" y="69.560979"/>
      </g>
     </g>
     <g id="text_11">
      <!-- 80 -->
      <g transform="translate(24.845 73.360197)scale(0.1 -0.1)">
       <defs>
        <path d="M 31.78125 34.625 
Q 24.75 34.625 20.71875 30.859375 
Q 16.703125 27.09375 16.703125 20.515625 
Q 16.703125 13.921875 20.71875 10.15625 
Q 24.75 6.390625 31.78125 6.390625 
Q 38.8125 6.390625 42.859375 10.171875 
Q 46.921875 13.96875 46.921875 20.515625 
Q 46.921875 27.09375 42.890625 30.859375 
Q 38.875 34.625 31.78125 34.625 
z
M 21.921875 38.8125 
Q 15.578125 40.375 12.03125 44.71875 
Q 8.5 49.078125 8.5 55.328125 
Q 8.5 64.0625 14.71875 69.140625 
Q 20.953125 74.21875 31.78125 74.21875 
Q 42.671875 74.21875 48.875 69.140625 
Q 55.078125 64.0625 55.078125 55.328125 
Q 55.078125 49.078125 51.53125 44.71875 
Q 48 40.375 41.703125 38.8125 
Q 48.828125 37.15625 52.796875 32.3125 
Q 56.78125 27.484375 56.78125 20.515625 
Q 56.78125 9.90625 50.3125 4.234375 
Q 43.84375 -1.421875 31.78125 -1.421875 
Q 19.734375 -1.421875 13.25 4.234375 
Q 6.78125 9.90625 6.78125 20.515625 
Q 6.78125 27.484375 10.78125 32.3125 
Q 14.796875 37.15625 21.921875 38.8125 
z
M 18.3125 54.390625 
Q 18.3125 48.734375 21.84375 45.5625 
Q 25.390625 42.390625 31.78125 42.390625 
Q 38.140625 42.390625 41.71875 45.5625 
Q 45.3125 48.734375 45.3125 54.390625 
Q 45.3125 60.0625 41.71875 63.234375 
Q 38.140625 66.40625 31.78125 66.40625 
Q 25.390625 66.40625 21.84375 63.234375 
Q 18.3125 60.0625 18.3125 54.390625 
z
" id="DejaVuSans-56"/>
       </defs>
       <use xlink:href="#DejaVuSans-56"/>
       <use x="63.623047" xlink:href="#DejaVuSans-48"/>
      </g>
     </g>
    </g>
    <g id="text_12">
     <!-- Test Accuracy (%) -->
     <g transform="translate(18.765313 201.723906)rotate(-90)scale(0.1 -0.1)">
      <defs>
       <path d="M 18.3125 70.21875 
L 18.3125 54.6875 
L 36.8125 54.6875 
L 36.8125 47.703125 
L 18.3125 47.703125 
L 18.3125 18.015625 
Q 18.3125 11.328125 20.140625 9.421875 
Q 21.96875 7.515625 27.59375 7.515625 
L 36.8125 7.515625 
L 36.8125 0 
L 27.59375 0 
Q 17.1875 0 13.234375 3.875 
Q 9.28125 7.765625 9.28125 18.015625 
L 9.28125 47.703125 
L 2.6875 47.703125 
L 2.6875 54.6875 
L 9.28125 54.6875 
L 9.28125 70.21875 
z
" id="DejaVuSans-116"/>
       <path d="M 34.1875 63.1875 
L 20.796875 26.90625 
L 47.609375 26.90625 
z
M 28.609375 72.90625 
L 39.796875 72.90625 
L 67.578125 0 
L 57.328125 0 
L 50.6875 18.703125 
L 17.828125 18.703125 
L 11.1875 0 
L 0.78125 0 
z
" id="DejaVuSans-65"/>
       <path d="M 8.5 21.578125 
L 8.5 54.6875 
L 17.484375 54.6875 
L 17.484375 21.921875 
Q 17.484375 14.15625 20.5 10.265625 
Q 23.53125 6.390625 29.59375 6.390625 
Q 36.859375 6.390625 41.078125 11.03125 
Q 45.3125 15.671875 45.3125 23.6875 
L 45.3125 54.6875 
L 54.296875 54.6875 
L 54.296875 0 
L 45.3125 0 
L 45.3125 8.40625 
Q 42.046875 3.421875 37.71875 1 
Q 33.40625 -1.421875 27.6875 -1.421875 
Q 18.265625 -1.421875 13.375 4.4375 
Q 8.5 10.296875 8.5 21.578125 
z
M 31.109375 56 
z
" id="DejaVuSans-117"/>
       <path d="M 41.109375 46.296875 
Q 39.59375 47.171875 37.8125 47.578125 
Q 36.03125 48 33.890625 48 
Q 26.265625 48 22.1875 43.046875 
Q 18.109375 38.09375 18.109375 28.8125 
L 18.109375 0 
L 9.078125 0 
L 9.078125 54.6875 
L 18.109375 54.6875 
L 18.109375 46.1875 
Q 20.953125 51.171875 25.484375 53.578125 
Q 30.03125 56 36.53125 56 
Q 37.453125 56 38.578125 55.875 
Q 39.703125 55.765625 41.0625 55.515625 
z
" id="DejaVuSans-114"/>
       <path d="M 34.28125 27.484375 
Q 23.390625 27.484375 19.1875 25 
Q 14.984375 22.515625 14.984375 16.5 
Q 14.984375 11.71875 18.140625 8.90625 
Q 21.296875 6.109375 26.703125 6.109375 
Q 34.1875 6.109375 38.703125 11.40625 
Q 43.21875 16.703125 43.21875 25.484375 
L 43.21875 27.484375 
z
M 52.203125 31.203125 
L 52.203125 0 
L 43.21875 0 
L 43.21875 8.296875 
Q 40.140625 3.328125 35.546875 0.953125 
Q 30.953125 -1.421875 24.3125 -1.421875 
Q 15.921875 -1.421875 10.953125 3.296875 
Q 6 8.015625 6 15.921875 
Q 6 25.140625 12.171875 29.828125 
Q 18.359375 34.515625 30.609375 34.515625 
L 43.21875 34.515625 
L 43.21875 35.40625 
Q 43.21875 41.609375 39.140625 45 
Q 35.0625 48.390625 27.6875 48.390625 
Q 23 48.390625 18.546875 47.265625 
Q 14.109375 46.140625 10.015625 43.890625 
L 10.015625 52.203125 
Q 14.9375 54.109375 19.578125 55.046875 
Q 24.21875 56 28.609375 56 
Q 40.484375 56 46.34375 49.84375 
Q 52.203125 43.703125 52.203125 31.203125 
z
" id="DejaVuSans-97"/>
       <path d="M 32.171875 -5.078125 
Q 28.375 -14.84375 24.75 -17.8125 
Q 21.140625 -20.796875 15.09375 -20.796875 
L 7.90625 -20.796875 
L 7.90625 -13.28125 
L 13.1875 -13.28125 
Q 16.890625 -13.28125 18.9375 -11.515625 
Q 21 -9.765625 23.484375 -3.21875 
L 25.09375 0.875 
L 2.984375 54.6875 
L 12.5 54.6875 
L 29.59375 11.921875 
L 46.6875 54.6875 
L 56.203125 54.6875 
z
" id="DejaVuSans-121"/>
       <path d="M 72.703125 32.078125 
Q 68.453125 32.078125 66.03125 28.46875 
Q 63.625 24.859375 63.625 18.40625 
Q 63.625 12.0625 66.03125 8.421875 
Q 68.453125 4.78125 72.703125 4.78125 
Q 76.859375 4.78125 79.265625 8.421875 
Q 81.6875 12.0625 81.6875 18.40625 
Q 81.6875 24.8125 79.265625 28.4375 
Q 76.859375 32.078125 72.703125 32.078125 
z
M 72.703125 38.28125 
Q 80.421875 38.28125 84.953125 32.90625 
Q 89.5 27.546875 89.5 18.40625 
Q 89.5 9.28125 84.9375 3.921875 
Q 80.375 -1.421875 72.703125 -1.421875 
Q 64.890625 -1.421875 60.34375 3.921875 
Q 55.8125 9.28125 55.8125 18.40625 
Q 55.8125 27.59375 60.375 32.9375 
Q 64.9375 38.28125 72.703125 38.28125 
z
M 22.3125 68.015625 
Q 18.109375 68.015625 15.6875 64.375 
Q 13.28125 60.75 13.28125 54.390625 
Q 13.28125 47.953125 15.671875 44.328125 
Q 18.0625 40.71875 22.3125 40.71875 
Q 26.5625 40.71875 28.96875 44.328125 
Q 31.390625 47.953125 31.390625 54.390625 
Q 31.390625 60.6875 28.953125 64.34375 
Q 26.515625 68.015625 22.3125 68.015625 
z
M 66.40625 74.21875 
L 74.21875 74.21875 
L 28.609375 -1.421875 
L 20.796875 -1.421875 
z
M 22.3125 74.21875 
Q 30.03125 74.21875 34.609375 68.875 
Q 39.203125 63.53125 39.203125 54.390625 
Q 39.203125 45.171875 34.640625 39.84375 
Q 30.078125 34.515625 22.3125 34.515625 
Q 14.546875 34.515625 10.03125 39.859375 
Q 5.515625 45.21875 5.515625 54.390625 
Q 5.515625 63.484375 10.046875 68.84375 
Q 14.59375 74.21875 22.3125 74.21875 
z
" id="DejaVuSans-37"/>
      </defs>
      <use xlink:href="#DejaVuSans-84"/>
      <use x="44.083984" xlink:href="#DejaVuSans-101"/>
      <use x="105.607422" xlink:href="#DejaVuSans-115"/>
      <use x="157.707031" xlink:href="#DejaVuSans-116"/>
      <use x="196.916016" xlink:href="#DejaVuSans-32"/>
      <use x="228.703125" xlink:href="#DejaVuSans-65"/>
      <use x="295.361328" xlink:href="#DejaVuSans-99"/>
      <use x="350.341797" xlink:href="#DejaVuSans-99"/>
      <use x="405.322266" xlink:href="#DejaVuSans-117"/>
      <use x="468.701172" xlink:href="#DejaVuSans-114"/>
      <use x="509.814453" xlink:href="#DejaVuSans-97"/>
      <use x="571.09375" xlink:href="#DejaVuSans-99"/>
      <use x="626.074219" xlink:href="#DejaVuSans-121"/>
      <use x="685.253906" xlink:href="#DejaVuSans-32"/>
      <use x="717.041016" xlink:href="#DejaVuSans-40"/>
      <use x="756.054688" xlink:href="#DejaVuSans-37"/>
      <use x="851.074219" xlink:href="#DejaVuSans-41"/>
     </g>
    </g>
   </g>
   <g id="line2d_11">
    <path clip-path="url(#p4d3f6f924f)" d="M 62.998636 272.468935 
L 64.897852 251.947424 
L 66.859009 236.419683 
L 68.788298 222.440163 
L 70.724626 194.132014 
L 72.681872 150.797019 
L 74.618991 122.989764 
L 76.511346 113.761156 
L 78.385493 106.111125 
L 80.290683 81.461026 
L 82.152934 77.575296 
L 84.025592 82.64496 
L 85.937919 76.269934 
L 87.845719 74.418141 
L 89.772597 70.927056 
L 91.750618 60.727015 
L 93.687656 65.918107 
L 95.576781 58.237719 
L 97.47822 52.135909 
L 99.353336 65.948464 
L 101.309423 55.535922 
L 103.245681 56.203782 
L 105.116141 63.125239 
L 107.049087 61.273445 
L 108.94497 62.578808 
L 110.879846 55.353779 
L 112.791235 59.391295 
L 114.708799 56.234139 
L 116.591476 58.510934 
L 118.484345 51.559121 
L 120.387265 53.501986 
L 122.275559 53.076984 
L 124.19399 53.016269 
L 126.11481 51.68055 
L 128.001309 50.071615 
L 129.945846 57.084143 
L 131.86646 61.425232 
L 133.80104 56.901999 
L 135.732001 48.280536 
L 137.652032 59.391295 
L 139.646096 50.041258 
L 141.560918 47.79482 
L 143.469784 50.587688 
L 145.417494 48.250179 
L 147.316641 49.646613 
L 149.230272 47.066246 
L 151.1173 46.914459 
L 154.929309 49.737685 
L 156.78481 48.614466 
L 160.617749 50.830546 
L 162.505928 50.314473 
L 164.435564 49.13054 
L 166.312083 50.34483 
L 168.237623 44.121591 
L 170.112256 51.528763 
L 171.998621 56.659141 
L 173.907781 49.191254 
L 175.810451 41.055507 
L 177.758928 49.100182 
L 179.68071 48.887681 
L 181.570224 43.90909 
L 183.498334 41.055507 
L 185.427328 48.250179 
L 187.382794 49.160897 
L 189.287749 41.753724 
L 191.200438 45.700169 
L 193.098276 48.644823 
L 195.014027 43.028729 
L 196.924895 45.851955 
L 198.832229 45.882312 
L 200.725267 43.24123 
L 202.670307 46.034099 
L 204.575131 43.271587 
L 206.464099 42.968015 
L 208.354875 45.851955 
L 210.255817 40.418005 
L 212.180235 42.512656 
L 214.106317 42.634085 
L 216.062009 41.450152 
L 218.015608 39.810859 
L 219.930999 42.664442 
L 221.830129 41.601938 
L 223.792506 40.69122 
L 225.717823 43.180516 
L 227.630582 39.143 
L 229.48036 40.478719 
L 231.393929 38.110853 
L 233.344753 37.959066 
L 237.193914 41.69301 
L 239.151107 38.687641 
L 241.051217 38.80907 
L 242.939505 35.955487 
L 244.820311 37.200135 
L 246.702768 36.501917 
L 250.581928 36.926919 
L 252.491475 35.560842 
L 254.398414 36.13763 
L 256.341312 36.532275 
L 258.271886 35.773343 
L 260.189552 33.891193 
L 262.098227 38.900141 
L 264.029194 34.801911 
L 265.997463 33.010832 
L 267.967359 34.194765 
L 269.908504 33.769764 
L 271.810713 32.737617 
L 273.71532 33.223333 
L 275.632178 33.860835 
L 277.561342 34.285837 
L 279.509201 32.737617 
L 281.406664 32.767974 
L 283.308543 33.860835 
L 285.228047 32.494759 
L 287.099125 32.100114 
L 289.059755 31.250111 
L 291.001169 31.675112 
L 292.931306 30.491179 
L 294.866791 31.887613 
L 296.80176 29.307246 
L 298.670231 29.185817 
L 300.567456 31.341183 
L 302.487798 30.339393 
L 304.39923 29.125102 
L 306.316093 30.825109 
L 308.196173 29.580461 
L 310.095633 28.973316 
L 312.016576 29.185817 
L 313.965001 27.971526 
L 315.884078 29.307246 
L 317.838041 28.609029 
L 319.749979 28.851887 
L 321.696299 28.609029 
L 323.634751 28.184027 
L 325.550907 28.244742 
L 327.476093 27.546524 
L 329.350986 28.7001 
L 331.333846 28.244742 
L 333.229822 27.971526 
L 335.114314 27.850097 
L 337.020558 27.242952 
L 338.914982 27.364381 
L 340.807678 27.667953 
L 342.756289 27.759025 
L 344.706813 27.334024 
L 348.505711 27.334024 
L 348.505711 27.334024 
" style="fill:none;stroke:#1f77b4;stroke-linecap:square;stroke-width:1.5;"/>
   </g>
   <g id="line2d_12">
    <path clip-path="url(#p4d3f6f924f)" d="M 63.59996 287.404709 
L 66.068673 289.347574 
L 68.558252 281.576115 
L 71.035457 277.811814 
L 73.492079 269.918925 
L 75.969263 249.754112 
L 78.447952 218.675862 
L 80.924265 215.640136 
L 83.41868 185.874838 
L 85.870017 174.718543 
L 88.371598 120.682612 
L 90.811907 105.686123 
L 93.273334 104.775406 
L 95.723137 94.150363 
L 98.245034 72.019917 
L 100.69775 78.486014 
L 103.181877 82.523531 
L 105.68204 72.596705 
L 108.132707 62.33595 
L 110.580461 66.282394 
L 113.049394 60.33237 
L 115.495738 59.33058 
L 117.965994 69.803837 
L 120.430354 57.660931 
L 122.889507 63.975242 
L 125.398488 61.182374 
L 127.839903 61.303803 
L 130.286016 58.875221 
L 132.776994 62.396664 
L 135.229337 55.809138 
L 137.70951 54.746634 
L 140.143473 53.866273 
L 145.080259 58.146647 
L 147.555143 53.866273 
L 150.023724 58.480577 
L 152.513983 57.44843 
L 154.978399 55.930567 
L 157.447413 52.01448 
L 159.879716 56.932357 
L 162.326194 51.316263 
L 164.76901 55.535922 
L 167.249298 51.528763 
L 169.688741 55.171635 
L 172.124804 55.293064 
L 174.590978 56.021639 
L 177.029749 48.280536 
L 179.505114 50.0109 
L 182.001965 54.078774 
L 184.476708 48.887681 
L 187.01489 57.843075 
L 189.482398 46.337671 
L 191.939653 56.476998 
L 194.394748 48.553752 
L 196.836988 51.953765 
L 199.306731 45.153738 
L 201.738952 47.764463 
L 204.177471 48.675181 
L 206.680268 47.218032 
L 209.158266 43.180516 
L 211.580163 54.200203 
L 214.085294 54.776991 
L 216.507237 49.282326 
L 218.994638 42.968015 
L 221.478108 52.318052 
L 223.950556 51.407334 
L 226.366045 45.366239 
L 228.808415 45.851955 
L 231.283299 50.860904 
L 233.752591 46.944817 
L 236.231988 47.491247 
L 238.697031 48.553752 
L 243.626104 44.516235 
L 248.579271 43.484088 
L 251.071962 45.882312 
L 253.522917 42.785871 
L 255.968574 43.180516 
L 258.417445 44.546593 
L 260.881757 38.050138 
L 263.333822 44.637664 
L 265.790549 39.476929 
L 268.285854 41.35908 
L 270.758785 39.628716 
L 273.242173 46.762673 
L 275.732375 39.476929 
L 278.210847 39.264429 
L 280.677305 37.382278 
L 283.12126 40.35729 
L 285.592598 39.507287 
L 288.101992 40.35729 
L 290.594694 39.719788 
L 293.088985 36.926919 
L 295.573096 38.232282 
L 298.049548 40.114432 
L 300.531948 40.266218 
L 302.989594 39.3555 
L 305.473994 39.082285 
L 307.937192 38.687641 
L 310.408007 36.47156 
L 312.8772 37.230492 
L 315.364192 35.742986 
L 317.868913 35.773343 
L 320.328036 37.109063 
L 322.815703 35.8037 
L 325.273429 37.442993 
L 327.718265 34.376909 
L 330.19547 34.650124 
L 332.638247 35.651914 
L 335.130956 35.8037 
L 337.557857 34.58941 
L 339.999712 34.073336 
L 342.457981 33.92155 
L 344.896152 31.098324 
L 347.329934 31.675112 
L 349.838941 32.494759 
L 352.312833 32.767974 
L 354.791383 30.794752 
L 357.285726 32.434044 
L 359.764845 30.946538 
L 362.234655 31.796541 
L 364.713489 31.280468 
L 367.200365 30.03582 
L 369.694593 30.157249 
L 372.218588 30.673323 
L 377.186997 29.003673 
L 379.638712 30.36975 
L 382.126136 29.792962 
L 384.658147 29.853677 
L 387.147542 29.732247 
L 389.646361 29.762605 
L 392.111468 28.942959 
L 394.572401 28.851887 
L 397.033716 29.003673 
L 399.4908 28.730458 
L 401.980898 30.096535 
L 404.431418 28.244742 
L 409.382892 29.36796 
L 411.822485 28.517957 
L 414.265012 28.851887 
L 416.747719 28.335813 
L 419.221893 28.092955 
L 421.702389 28.4876 
L 424.20217 28.244742 
L 426.665627 27.698311 
L 429.103946 27.789383 
L 431.571364 28.123312 
L 431.571364 28.123312 
" style="fill:none;stroke:#ff7f0e;stroke-linecap:square;stroke-width:1.5;"/>
   </g>
   <g id="line2d_13">
    <path clip-path="url(#p4d3f6f924f)" d="M 63.254352 286.311848 
L 65.427992 277.568956 
L 67.585602 288.861858 
L 69.717648 271.618932 
L 71.862213 257.411732 
L 73.997144 245.375076 
L 76.133672 225.35446 
L 78.255519 217.218714 
L 80.417432 168.495304 
L 82.575557 145.696998 
L 84.692137 120.075467 
L 86.843104 119.923681 
L 88.941152 102.832541 
L 91.082051 92.753929 
L 93.199579 81.703884 
L 95.307869 83.161033 
L 97.442932 76.239577 
L 99.605583 65.827035 
L 101.698985 65.55382 
L 103.800517 79.305661 
L 105.978742 64.369886 
L 108.117839 61.941305 
L 110.238405 71.048485 
L 112.378905 67.496685 
L 114.485737 73.294922 
L 116.62593 65.159175 
L 118.736571 60.453799 
L 120.896467 58.055575 
L 123.012921 58.602006 
L 125.148961 53.289485 
L 127.233597 61.910948 
L 129.346267 57.569859 
L 131.467047 60.575228 
L 133.580901 54.018059 
L 135.676281 53.805558 
L 137.76491 54.503775 
L 139.884696 54.23056 
L 141.970157 57.175215 
L 144.066894 47.764463 
L 146.186726 57.296644 
L 148.267117 52.712697 
L 150.389855 50.0109 
L 152.533802 53.137698 
L 154.624155 58.875221 
L 156.756013 50.34483 
L 158.879384 56.082353 
L 161.00671 54.078774 
L 163.152528 52.89484 
L 165.31201 50.193044 
L 167.464957 54.200203 
L 169.603803 50.557331 
L 171.784539 47.187675 
L 173.913239 52.378767 
L 176.030146 53.441271 
L 178.12647 52.34841 
L 180.2552 48.46268 
L 182.420825 50.253758 
L 184.545695 46.914459 
L 186.675793 47.79482 
L 188.786304 43.635875 
L 190.903147 50.648403 
L 193.008538 48.46268 
L 195.106331 49.616256 
L 197.230382 47.339461 
L 199.31453 49.525184 
L 201.429921 53.926987 
L 203.526891 45.457311 
L 205.625198 48.280536 
L 207.730015 47.491247 
L 209.879599 43.726946 
L 211.996874 48.219822 
L 214.121286 50.34483 
L 216.206968 47.643034 
L 218.317623 48.614466 
L 220.46479 41.875153 
L 222.575798 47.491247 
L 224.695177 45.730526 
L 226.831009 45.669811 
L 228.943446 42.634085 
L 231.059496 45.153738 
L 233.183258 42.330512 
L 235.278977 45.123381 
L 237.371974 42.148369 
L 239.505184 44.789451 
L 241.609857 42.876943 
L 243.706615 45.184095 
L 245.834069 41.571581 
L 247.965178 42.543013 
L 250.075299 41.450152 
L 252.187685 40.084075 
L 254.323871 41.541223 
L 256.447371 43.484088 
L 258.528517 43.028729 
L 260.641022 38.414425 
L 262.761325 38.080495 
L 264.876109 40.02336 
L 267.016899 40.964435 
L 269.112308 37.959066 
L 271.230185 39.932288 
L 273.334343 41.02515 
L 275.489087 35.894772 
L 277.577519 37.776923 
L 279.721139 37.321564 
L 281.814025 41.632295 
L 283.921653 39.993003 
L 286.028795 36.987634 
L 288.167614 39.203714 
L 290.267332 38.384068 
L 292.399538 37.685851 
L 294.513241 37.47335 
L 296.633857 35.378699 
L 298.739449 36.13763 
L 300.860398 37.169777 
L 302.971733 35.560842 
L 305.083043 36.866205 
L 307.171074 33.010832 
L 309.271697 33.860835 
L 311.357698 36.259059 
L 313.488821 35.8037 
L 315.595298 35.834058 
L 317.732393 34.498338 
L 319.823563 33.739406 
L 324.05924 32.889403 
L 326.147592 32.403687 
L 328.324953 32.767974 
L 330.422689 31.553683 
L 332.577563 30.005463 
L 334.718999 31.766184 
L 336.87107 30.946538 
L 338.984101 31.735827 
L 341.064849 30.551894 
L 343.18256 31.250111 
L 345.308511 30.946538 
L 347.398788 31.159039 
L 349.539038 30.794752 
L 351.683475 30.734037 
L 353.823503 30.794752 
L 355.938712 29.580461 
L 358.038452 30.339393 
L 360.154111 30.217964 
L 362.245682 30.248321 
L 364.325204 29.519747 
L 366.420402 29.884034 
L 368.494663 29.671533 
L 372.707228 29.853677 
L 374.827502 29.975106 
L 376.955211 30.217964 
L 379.092463 30.187606 
L 379.092463 30.187606 
" style="fill:none;stroke:#2ca02c;stroke-linecap:square;stroke-width:1.5;"/>
   </g>
   <g id="line2d_14">
    <path clip-path="url(#p4d3f6f924f)" d="M 63.246412 287.768996 
L 65.385686 282.426118 
L 67.521247 287.647567 
L 69.672806 278.904675 
L 71.823352 268.583205 
L 73.981582 253.404573 
L 76.118282 235.67593 
L 78.247653 222.766504 
L 80.431043 201.903474 
L 82.619666 165.489935 
L 84.791625 142.160377 
L 86.945567 117.646886 
L 89.072802 106.8397 
L 91.261293 87.016406 
L 93.432546 93.84679 
L 95.609618 80.853881 
L 97.747818 83.161033 
L 99.890768 80.489594 
L 102.056025 69.925266 
L 104.233561 78.121727 
L 106.406157 64.643102 
L 108.538208 62.123449 
L 110.70775 69.925266 
L 112.886591 62.123449 
L 115.020376 67.496685 
L 117.191668 62.88238 
L 119.359662 64.460958 
L 121.543217 66.889539 
L 123.729892 57.903789 
L 125.918957 57.266286 
L 128.095061 52.34841 
L 130.232956 55.475208 
L 132.377004 64.066314 
L 134.541225 57.934146 
L 136.691531 56.325211 
L 138.877369 58.146647 
L 140.980593 57.478787 
L 143.114131 52.469839 
L 145.265663 52.318052 
L 147.382721 56.719856 
L 149.529674 51.437692 
L 151.69891 51.771622 
L 153.856774 50.34483 
L 156.035405 51.34662 
L 158.195373 51.255548 
L 160.404173 51.34662 
L 162.571813 53.684129 
L 164.698802 52.196623 
L 166.872026 51.741264 
L 169.003386 45.609097 
L 171.127614 50.405545 
L 173.311149 49.160897 
L 175.451839 49.646613 
L 177.582765 48.766252 
L 179.678987 52.257338 
L 181.831136 50.375187 
L 184.015337 52.651982 
L 186.244289 46.975174 
L 188.380519 44.789451 
L 190.543489 44.668022 
L 192.695489 50.34483 
L 194.882151 54.018059 
L 197.038255 48.493037 
L 199.222416 45.335881 
L 201.358154 48.341251 
L 203.520119 49.555541 
L 205.672317 44.668022 
L 207.854848 48.523394 
L 209.97343 45.700169 
L 212.084451 44.303734 
L 214.269495 47.612676 
L 216.426752 46.003741 
L 218.608459 45.153738 
L 220.761692 50.284116 
L 222.882233 44.91088 
L 224.994066 47.703748 
L 227.170547 47.612676 
L 229.328998 45.032309 
L 233.672197 43.332302 
L 235.869303 40.994793 
L 238.096856 40.387647 
L 240.206936 42.876943 
L 242.35906 40.994793 
L 244.511456 41.298365 
L 246.741051 45.548382 
L 248.918365 40.296576 
L 251.070522 41.237651 
L 253.20656 36.835847 
L 255.347407 41.662652 
L 257.492871 40.266218 
L 259.625007 42.087654 
L 261.733002 37.746565 
L 263.904295 41.510866 
L 266.04746 41.541223 
L 268.260136 43.423374 
L 270.394799 40.235861 
L 272.566206 39.659073 
L 274.740921 37.716208 
L 276.889761 38.991213 
L 279.060415 37.503707 
L 281.190034 37.412635 
L 283.421225 37.47335 
L 285.588664 38.626926 
L 287.758354 38.444782 
L 289.89905 35.044769 
L 294.272794 36.016201 
L 296.418733 35.378699 
L 298.607094 35.530485 
L 300.776376 34.862625 
L 302.920611 36.380488 
L 305.142209 34.650124 
L 307.335544 33.982265 
L 309.503496 33.58762 
L 311.639317 32.009042 
L 313.804728 33.769764 
L 315.952264 32.312615 
L 318.12055 33.25369 
L 320.260992 32.100114 
L 322.419526 35.439413 
L 324.55803 32.2519 
L 326.689312 32.676902 
L 328.861657 31.492969 
L 331.045228 30.096535 
L 333.138147 31.644755 
L 335.267655 29.70189 
L 337.398596 30.187606 
L 339.56877 31.310825 
L 341.741043 31.826899 
L 343.921271 30.551894 
L 346.058959 32.494759 
L 348.205735 29.884034 
L 350.425835 29.398318 
L 352.535132 30.70368 
L 354.743977 30.794752 
L 356.935732 31.675112 
L 359.120642 31.401897 
L 363.388562 30.126892 
L 365.503765 30.309036 
L 369.819567 30.217964 
L 371.948412 31.067967 
L 374.110803 30.642965 
L 378.476838 30.460822 
L 380.592401 30.885824 
L 382.750363 30.946538 
L 384.916865 30.734037 
L 384.916865 30.734037 
" style="fill:none;stroke:#d62728;stroke-linecap:square;stroke-width:1.5;"/>
   </g>
   <g id="line2d_15">
    <path clip-path="url(#p4d3f6f924f)" d="M 63.319714 277.326097 
L 65.46908 271.011786 
L 67.655371 263.354166 
L 69.819358 256.440299 
L 71.95601 229.968765 
L 74.118881 214.175398 
L 76.314877 192.849419 
L 78.523893 155.532752 
L 80.699693 148.763082 
L 82.873035 132.096944 
L 85.007488 106.141482 
L 87.197703 91.418209 
L 89.333495 104.16826 
L 91.462475 84.162823 
L 93.586092 83.768178 
L 95.809545 76.603864 
L 97.972367 77.939584 
L 100.138005 76.482435 
L 102.295122 71.534201 
L 104.526316 77.211009 
L 106.678579 65.918107 
L 108.851688 63.21631 
L 110.962263 68.589546 
L 113.168149 68.953833 
L 115.322727 77.818155 
L 117.473518 65.310962 
L 119.662431 70.775269 
L 121.797059 62.305592 
L 123.988551 63.246668 
L 126.141805 64.977032 
L 128.346957 60.362727 
L 130.531151 56.476998 
L 132.696549 63.853813 
L 134.8536 60.089512 
L 137.098311 58.11629 
L 139.270307 58.875221 
L 141.419963 68.832404 
L 143.589937 50.041258 
L 145.752158 55.414493 
L 147.887017 63.489526 
L 150.067956 55.930567 
L 152.245545 54.989492 
L 154.395989 51.285905 
L 156.522603 54.109131 
L 158.649139 53.259128 
L 160.798452 63.975242 
L 162.996799 50.101972 
L 165.187493 56.932357 
L 167.342445 48.766252 
L 169.48149 53.137698 
L 171.620301 55.960924 
L 173.756271 49.100182 
L 175.907753 60.393085 
L 178.075305 58.78415 
L 182.359877 53.198413 
L 184.535526 55.809138 
L 186.675874 51.255548 
L 188.861776 51.650193 
L 191.041694 46.337671 
L 193.18899 50.557331 
L 195.365477 49.525184 
L 197.577361 53.471628 
L 199.702127 47.096603 
L 201.904499 47.005531 
L 204.054905 47.369818 
L 206.249014 51.255548 
L 208.423162 52.01448 
L 210.561143 47.825177 
L 212.769703 46.216242 
L 214.933487 54.169845 
L 217.099547 50.648403 
L 219.28084 45.639454 
L 221.426674 50.071615 
L 223.592369 45.275167 
L 225.802645 52.075194 
L 227.999003 51.407334 
L 230.156972 47.764463 
L 232.349861 47.946606 
L 234.554971 44.000162 
L 236.780092 44.485878 
L 238.930115 45.24481 
L 241.078598 44.485878 
L 243.264133 44.57695 
L 245.432432 44.091234 
L 247.623631 47.703748 
L 249.79131 45.518025 
L 251.997162 43.818018 
L 254.237142 38.991213 
L 256.359184 41.69301 
L 258.550861 46.155528 
L 260.701387 44.303734 
L 262.855015 41.419794 
L 264.99166 40.600148 
L 267.151138 38.657283 
L 269.288666 41.632295 
L 271.431527 39.810859 
L 273.600208 40.084075 
L 275.77745 40.660863 
L 277.962551 40.326933 
L 280.106687 39.476929 
L 282.260056 38.839427 
L 284.477689 39.659073 
L 286.634321 39.3555 
L 288.756647 41.905511 
L 290.88965 39.325143 
L 293.039919 37.503707 
L 295.229032 37.13942 
L 297.416343 39.051928 
L 299.602467 35.196555 
L 301.767291 35.196555 
L 303.936183 37.291206 
L 306.092551 33.58762 
L 308.249053 37.564422 
L 310.419847 35.500128 
L 312.579975 33.92155 
L 314.699098 33.769764 
L 316.896636 35.439413 
L 319.097488 34.801911 
L 321.300737 32.798331 
L 323.438225 34.741196 
L 325.649914 33.466191 
L 327.793236 34.012622 
L 329.961541 35.105483 
L 332.13216 32.91976 
L 334.293678 32.312615 
L 336.447309 32.828688 
L 338.612419 31.857256 
L 340.816738 33.284047 
L 345.152057 32.616188 
L 349.423629 32.58583 
L 351.578812 31.067967 
L 355.825296 31.523326 
L 357.95706 30.70368 
L 360.067034 31.310825 
L 362.254451 30.400107 
L 366.598585 31.341183 
L 368.781277 31.553683 
L 370.975369 30.36975 
L 375.340684 30.825109 
L 377.521257 29.792962 
L 379.64753 30.582251 
L 381.835028 30.612608 
L 384.027548 30.36975 
L 386.223912 30.885824 
L 386.223912 30.885824 
" style="fill:none;stroke:#9467bd;stroke-linecap:square;stroke-width:1.5;"/>
   </g>
   <g id="patch_3">
    <path d="M 44.57 303.64 
L 44.57 10.8 
" style="fill:none;stroke:#000000;stroke-linecap:square;stroke-linejoin:miter;stroke-width:0.8;"/>
   </g>
   <g id="patch_4">
    <path d="M 450 303.64 
L 450 10.8 
" style="fill:none;stroke:#000000;stroke-linecap:square;stroke-linejoin:miter;stroke-width:0.8;"/>
   </g>
   <g id="patch_5">
    <path d="M 44.57 303.64 
L 450 303.64 
" style="fill:none;stroke:#000000;stroke-linecap:square;stroke-linejoin:miter;stroke-width:0.8;"/>
   </g>
   <g id="patch_6">
    <path d="M 44.57 10.8 
L 450 10.8 
" style="fill:none;stroke:#000000;stroke-linecap:square;stroke-linejoin:miter;stroke-width:0.8;"/>
   </g>
   <g id="legend_1">
    <g id="patch_7">
     <path d="M 291.78125 298.64 
L 443 298.64 
Q 445 298.64 445 296.64 
L 445 224.249375 
Q 445 222.249375 443 222.249375 
L 291.78125 222.249375 
Q 289.78125 222.249375 289.78125 224.249375 
L 289.78125 296.64 
Q 289.78125 298.64 291.78125 298.64 
z
" style="fill:#ffffff;opacity:0.8;stroke:#cccccc;stroke-linejoin:miter;"/>
    </g>
    <g id="line2d_16">
     <path d="M 293.78125 230.347812 
L 313.78125 230.347812 
" style="fill:none;stroke:#1f77b4;stroke-linecap:square;stroke-width:1.5;"/>
    </g>
    <g id="line2d_17"/>
    <g id="text_13">
     <!-- AllReduce SGD -->
     <g transform="translate(321.78125 233.847812)scale(0.1 -0.1)">
      <defs>
       <path d="M 9.421875 75.984375 
L 18.40625 75.984375 
L 18.40625 0 
L 9.421875 0 
z
" id="DejaVuSans-108"/>
       <path d="M 44.390625 34.1875 
Q 47.5625 33.109375 50.5625 29.59375 
Q 53.5625 26.078125 56.59375 19.921875 
L 66.609375 0 
L 56 0 
L 46.6875 18.703125 
Q 43.0625 26.03125 39.671875 28.421875 
Q 36.28125 30.8125 30.421875 30.8125 
L 19.671875 30.8125 
L 19.671875 0 
L 9.8125 0 
L 9.8125 72.90625 
L 32.078125 72.90625 
Q 44.578125 72.90625 50.734375 67.671875 
Q 56.890625 62.453125 56.890625 51.90625 
Q 56.890625 45.015625 53.6875 40.46875 
Q 50.484375 35.9375 44.390625 34.1875 
z
M 19.671875 64.796875 
L 19.671875 38.921875 
L 32.078125 38.921875 
Q 39.203125 38.921875 42.84375 42.21875 
Q 46.484375 45.515625 46.484375 51.90625 
Q 46.484375 58.296875 42.84375 61.546875 
Q 39.203125 64.796875 32.078125 64.796875 
z
" id="DejaVuSans-82"/>
       <path d="M 45.40625 46.390625 
L 45.40625 75.984375 
L 54.390625 75.984375 
L 54.390625 0 
L 45.40625 0 
L 45.40625 8.203125 
Q 42.578125 3.328125 38.25 0.953125 
Q 33.9375 -1.421875 27.875 -1.421875 
Q 17.96875 -1.421875 11.734375 6.484375 
Q 5.515625 14.40625 5.515625 27.296875 
Q 5.515625 40.1875 11.734375 48.09375 
Q 17.96875 56 27.875 56 
Q 33.9375 56 38.25 53.625 
Q 42.578125 51.265625 45.40625 46.390625 
z
M 14.796875 27.296875 
Q 14.796875 17.390625 18.875 11.75 
Q 22.953125 6.109375 30.078125 6.109375 
Q 37.203125 6.109375 41.296875 11.75 
Q 45.40625 17.390625 45.40625 27.296875 
Q 45.40625 37.203125 41.296875 42.84375 
Q 37.203125 48.484375 30.078125 48.484375 
Q 22.953125 48.484375 18.875 42.84375 
Q 14.796875 37.203125 14.796875 27.296875 
z
" id="DejaVuSans-100"/>
       <path d="M 53.515625 70.515625 
L 53.515625 60.890625 
Q 47.90625 63.578125 42.921875 64.890625 
Q 37.9375 66.21875 33.296875 66.21875 
Q 25.25 66.21875 20.875 63.09375 
Q 16.5 59.96875 16.5 54.203125 
Q 16.5 49.359375 19.40625 46.890625 
Q 22.3125 44.4375 30.421875 42.921875 
L 36.375 41.703125 
Q 47.40625 39.59375 52.65625 34.296875 
Q 57.90625 29 57.90625 20.125 
Q 57.90625 9.515625 50.796875 4.046875 
Q 43.703125 -1.421875 29.984375 -1.421875 
Q 24.8125 -1.421875 18.96875 -0.25 
Q 13.140625 0.921875 6.890625 3.21875 
L 6.890625 13.375 
Q 12.890625 10.015625 18.65625 8.296875 
Q 24.421875 6.59375 29.984375 6.59375 
Q 38.421875 6.59375 43.015625 9.90625 
Q 47.609375 13.234375 47.609375 19.390625 
Q 47.609375 24.75 44.3125 27.78125 
Q 41.015625 30.8125 33.5 32.328125 
L 27.484375 33.5 
Q 16.453125 35.6875 11.515625 40.375 
Q 6.59375 45.0625 6.59375 53.421875 
Q 6.59375 63.09375 13.40625 68.65625 
Q 20.21875 74.21875 32.171875 74.21875 
Q 37.3125 74.21875 42.625 73.28125 
Q 47.953125 72.359375 53.515625 70.515625 
z
" id="DejaVuSans-83"/>
       <path d="M 59.515625 10.40625 
L 59.515625 29.984375 
L 43.40625 29.984375 
L 43.40625 38.09375 
L 69.28125 38.09375 
L 69.28125 6.78125 
Q 63.578125 2.734375 56.6875 0.65625 
Q 49.8125 -1.421875 42 -1.421875 
Q 24.90625 -1.421875 15.25 8.5625 
Q 5.609375 18.5625 5.609375 36.375 
Q 5.609375 54.25 15.25 64.234375 
Q 24.90625 74.21875 42 74.21875 
Q 49.125 74.21875 55.546875 72.453125 
Q 61.96875 70.703125 67.390625 67.28125 
L 67.390625 56.78125 
Q 61.921875 61.421875 55.765625 63.765625 
Q 49.609375 66.109375 42.828125 66.109375 
Q 29.4375 66.109375 22.71875 58.640625 
Q 16.015625 51.171875 16.015625 36.375 
Q 16.015625 21.625 22.71875 14.15625 
Q 29.4375 6.6875 42.828125 6.6875 
Q 48.046875 6.6875 52.140625 7.59375 
Q 56.25 8.5 59.515625 10.40625 
z
" id="DejaVuSans-71"/>
       <path d="M 19.671875 64.796875 
L 19.671875 8.109375 
L 31.59375 8.109375 
Q 46.6875 8.109375 53.6875 14.9375 
Q 60.6875 21.78125 60.6875 36.53125 
Q 60.6875 51.171875 53.6875 57.984375 
Q 46.6875 64.796875 31.59375 64.796875 
z
M 9.8125 72.90625 
L 30.078125 72.90625 
Q 51.265625 72.90625 61.171875 64.09375 
Q 71.09375 55.28125 71.09375 36.53125 
Q 71.09375 17.671875 61.125 8.828125 
Q 51.171875 0 30.078125 0 
L 9.8125 0 
z
" id="DejaVuSans-68"/>
      </defs>
      <use xlink:href="#DejaVuSans-65"/>
      <use x="68.408203" xlink:href="#DejaVuSans-108"/>
      <use x="96.191406" xlink:href="#DejaVuSans-108"/>
      <use x="123.974609" xlink:href="#DejaVuSans-82"/>
      <use x="188.957031" xlink:href="#DejaVuSans-101"/>
      <use x="250.480469" xlink:href="#DejaVuSans-100"/>
      <use x="313.957031" xlink:href="#DejaVuSans-117"/>
      <use x="377.335938" xlink:href="#DejaVuSans-99"/>
      <use x="432.316406" xlink:href="#DejaVuSans-101"/>
      <use x="493.839844" xlink:href="#DejaVuSans-32"/>
      <use x="525.626953" xlink:href="#DejaVuSans-83"/>
      <use x="589.103516" xlink:href="#DejaVuSans-71"/>
      <use x="666.59375" xlink:href="#DejaVuSans-68"/>
     </g>
    </g>
    <g id="line2d_18">
     <path d="M 293.78125 245.025937 
L 313.78125 245.025937 
" style="fill:none;stroke:#ff7f0e;stroke-linecap:square;stroke-width:1.5;"/>
    </g>
    <g id="line2d_19"/>
    <g id="text_14">
     <!-- QSGD-MN-TS (8,12) bits -->
     <g transform="translate(321.78125 248.525937)scale(0.1 -0.1)">
      <defs>
       <path d="M 39.40625 66.21875 
Q 28.65625 66.21875 22.328125 58.203125 
Q 16.015625 50.203125 16.015625 36.375 
Q 16.015625 22.609375 22.328125 14.59375 
Q 28.65625 6.59375 39.40625 6.59375 
Q 50.140625 6.59375 56.421875 14.59375 
Q 62.703125 22.609375 62.703125 36.375 
Q 62.703125 50.203125 56.421875 58.203125 
Q 50.140625 66.21875 39.40625 66.21875 
z
M 53.21875 1.3125 
L 66.21875 -12.890625 
L 54.296875 -12.890625 
L 43.5 -1.21875 
Q 41.890625 -1.3125 41.03125 -1.359375 
Q 40.1875 -1.421875 39.40625 -1.421875 
Q 24.03125 -1.421875 14.8125 8.859375 
Q 5.609375 19.140625 5.609375 36.375 
Q 5.609375 53.65625 14.8125 63.9375 
Q 24.03125 74.21875 39.40625 74.21875 
Q 54.734375 74.21875 63.90625 63.9375 
Q 73.09375 53.65625 73.09375 36.375 
Q 73.09375 23.6875 67.984375 14.640625 
Q 62.890625 5.609375 53.21875 1.3125 
z
" id="DejaVuSans-81"/>
       <path d="M 4.890625 31.390625 
L 31.203125 31.390625 
L 31.203125 23.390625 
L 4.890625 23.390625 
z
" id="DejaVuSans-45"/>
       <path d="M 9.8125 72.90625 
L 24.515625 72.90625 
L 43.109375 23.296875 
L 61.8125 72.90625 
L 76.515625 72.90625 
L 76.515625 0 
L 66.890625 0 
L 66.890625 64.015625 
L 48.09375 14.015625 
L 38.1875 14.015625 
L 19.390625 64.015625 
L 19.390625 0 
L 9.8125 0 
z
" id="DejaVuSans-77"/>
       <path d="M 9.8125 72.90625 
L 23.09375 72.90625 
L 55.421875 11.921875 
L 55.421875 72.90625 
L 64.984375 72.90625 
L 64.984375 0 
L 51.703125 0 
L 19.390625 60.984375 
L 19.390625 0 
L 9.8125 0 
z
" id="DejaVuSans-78"/>
       <path d="M 11.71875 12.40625 
L 22.015625 12.40625 
L 22.015625 4 
L 14.015625 -11.625 
L 7.71875 -11.625 
L 11.71875 4 
z
" id="DejaVuSans-44"/>
       <path d="M 48.6875 27.296875 
Q 48.6875 37.203125 44.609375 42.84375 
Q 40.53125 48.484375 33.40625 48.484375 
Q 26.265625 48.484375 22.1875 42.84375 
Q 18.109375 37.203125 18.109375 27.296875 
Q 18.109375 17.390625 22.1875 11.75 
Q 26.265625 6.109375 33.40625 6.109375 
Q 40.53125 6.109375 44.609375 11.75 
Q 48.6875 17.390625 48.6875 27.296875 
z
M 18.109375 46.390625 
Q 20.953125 51.265625 25.265625 53.625 
Q 29.59375 56 35.59375 56 
Q 45.5625 56 51.78125 48.09375 
Q 58.015625 40.1875 58.015625 27.296875 
Q 58.015625 14.40625 51.78125 6.484375 
Q 45.5625 -1.421875 35.59375 -1.421875 
Q 29.59375 -1.421875 25.265625 0.953125 
Q 20.953125 3.328125 18.109375 8.203125 
L 18.109375 0 
L 9.078125 0 
L 9.078125 75.984375 
L 18.109375 75.984375 
z
" id="DejaVuSans-98"/>
      </defs>
      <use xlink:href="#DejaVuSans-81"/>
      <use x="78.710938" xlink:href="#DejaVuSans-83"/>
      <use x="142.1875" xlink:href="#DejaVuSans-71"/>
      <use x="219.677734" xlink:href="#DejaVuSans-68"/>
      <use x="296.679688" xlink:href="#DejaVuSans-45"/>
      <use x="332.763672" xlink:href="#DejaVuSans-77"/>
      <use x="419.042969" xlink:href="#DejaVuSans-78"/>
      <use x="493.847656" xlink:href="#DejaVuSans-45"/>
      <use x="520.806641" xlink:href="#DejaVuSans-84"/>
      <use x="581.890625" xlink:href="#DejaVuSans-83"/>
      <use x="645.367188" xlink:href="#DejaVuSans-32"/>
      <use x="677.154297" xlink:href="#DejaVuSans-40"/>
      <use x="716.167969" xlink:href="#DejaVuSans-56"/>
      <use x="779.791016" xlink:href="#DejaVuSans-44"/>
      <use x="811.578125" xlink:href="#DejaVuSans-49"/>
      <use x="875.201172" xlink:href="#DejaVuSans-50"/>
      <use x="938.824219" xlink:href="#DejaVuSans-41"/>
      <use x="977.837891" xlink:href="#DejaVuSans-32"/>
      <use x="1009.625" xlink:href="#DejaVuSans-98"/>
      <use x="1073.101562" xlink:href="#DejaVuSans-105"/>
      <use x="1100.884766" xlink:href="#DejaVuSans-116"/>
      <use x="1140.09375" xlink:href="#DejaVuSans-115"/>
     </g>
    </g>
    <g id="line2d_20">
     <path d="M 293.78125 259.704062 
L 313.78125 259.704062 
" style="fill:none;stroke:#2ca02c;stroke-linecap:square;stroke-width:1.5;"/>
    </g>
    <g id="line2d_21"/>
    <g id="text_15">
     <!-- QSGD-MN-TS (6,10) bits -->
     <g transform="translate(321.78125 263.204062)scale(0.1 -0.1)">
      <use xlink:href="#DejaVuSans-81"/>
      <use x="78.710938" xlink:href="#DejaVuSans-83"/>
      <use x="142.1875" xlink:href="#DejaVuSans-71"/>
      <use x="219.677734" xlink:href="#DejaVuSans-68"/>
      <use x="296.679688" xlink:href="#DejaVuSans-45"/>
      <use x="332.763672" xlink:href="#DejaVuSans-77"/>
      <use x="419.042969" xlink:href="#DejaVuSans-78"/>
      <use x="493.847656" xlink:href="#DejaVuSans-45"/>
      <use x="520.806641" xlink:href="#DejaVuSans-84"/>
      <use x="581.890625" xlink:href="#DejaVuSans-83"/>
      <use x="645.367188" xlink:href="#DejaVuSans-32"/>
      <use x="677.154297" xlink:href="#DejaVuSans-40"/>
      <use x="716.167969" xlink:href="#DejaVuSans-54"/>
      <use x="779.791016" xlink:href="#DejaVuSans-44"/>
      <use x="811.578125" xlink:href="#DejaVuSans-49"/>
      <use x="875.201172" xlink:href="#DejaVuSans-48"/>
      <use x="938.824219" xlink:href="#DejaVuSans-41"/>
      <use x="977.837891" xlink:href="#DejaVuSans-32"/>
      <use x="1009.625" xlink:href="#DejaVuSans-98"/>
      <use x="1073.101562" xlink:href="#DejaVuSans-105"/>
      <use x="1100.884766" xlink:href="#DejaVuSans-116"/>
      <use x="1140.09375" xlink:href="#DejaVuSans-115"/>
     </g>
    </g>
    <g id="line2d_22">
     <path d="M 293.78125 274.382187 
L 313.78125 274.382187 
" style="fill:none;stroke:#d62728;stroke-linecap:square;stroke-width:1.5;"/>
    </g>
    <g id="line2d_23"/>
    <g id="text_16">
     <!-- QSGD-MN-TS (4,8) bits -->
     <g transform="translate(321.78125 277.882187)scale(0.1 -0.1)">
      <use xlink:href="#DejaVuSans-81"/>
      <use x="78.710938" xlink:href="#DejaVuSans-83"/>
      <use x="142.1875" xlink:href="#DejaVuSans-71"/>
      <use x="219.677734" xlink:href="#DejaVuSans-68"/>
      <use x="296.679688" xlink:href="#DejaVuSans-45"/>
      <use x="332.763672" xlink:href="#DejaVuSans-77"/>
      <use x="419.042969" xlink:href="#DejaVuSans-78"/>
      <use x="493.847656" xlink:href="#DejaVuSans-45"/>
      <use x="520.806641" xlink:href="#DejaVuSans-84"/>
      <use x="581.890625" xlink:href="#DejaVuSans-83"/>
      <use x="645.367188" xlink:href="#DejaVuSans-32"/>
      <use x="677.154297" xlink:href="#DejaVuSans-40"/>
      <use x="716.167969" xlink:href="#DejaVuSans-52"/>
      <use x="779.791016" xlink:href="#DejaVuSans-44"/>
      <use x="811.578125" xlink:href="#DejaVuSans-56"/>
      <use x="875.201172" xlink:href="#DejaVuSans-41"/>
      <use x="914.214844" xlink:href="#DejaVuSans-32"/>
      <use x="946.001953" xlink:href="#DejaVuSans-98"/>
      <use x="1009.478516" xlink:href="#DejaVuSans-105"/>
      <use x="1037.261719" xlink:href="#DejaVuSans-116"/>
      <use x="1076.470703" xlink:href="#DejaVuSans-115"/>
     </g>
    </g>
    <g id="line2d_24">
     <path d="M 293.78125 289.060312 
L 313.78125 289.060312 
" style="fill:none;stroke:#9467bd;stroke-linecap:square;stroke-width:1.5;"/>
    </g>
    <g id="line2d_25"/>
    <g id="text_17">
     <!-- QSGD-MN-TS (2,6) bits -->
     <g transform="translate(321.78125 292.560312)scale(0.1 -0.1)">
      <use xlink:href="#DejaVuSans-81"/>
      <use x="78.710938" xlink:href="#DejaVuSans-83"/>
      <use x="142.1875" xlink:href="#DejaVuSans-71"/>
      <use x="219.677734" xlink:href="#DejaVuSans-68"/>
      <use x="296.679688" xlink:href="#DejaVuSans-45"/>
      <use x="332.763672" xlink:href="#DejaVuSans-77"/>
      <use x="419.042969" xlink:href="#DejaVuSans-78"/>
      <use x="493.847656" xlink:href="#DejaVuSans-45"/>
      <use x="520.806641" xlink:href="#DejaVuSans-84"/>
      <use x="581.890625" xlink:href="#DejaVuSans-83"/>
      <use x="645.367188" xlink:href="#DejaVuSans-32"/>
      <use x="677.154297" xlink:href="#DejaVuSans-40"/>
      <use x="716.167969" xlink:href="#DejaVuSans-50"/>
      <use x="779.791016" xlink:href="#DejaVuSans-44"/>
      <use x="811.578125" xlink:href="#DejaVuSans-54"/>
      <use x="875.201172" xlink:href="#DejaVuSans-41"/>
      <use x="914.214844" xlink:href="#DejaVuSans-32"/>
      <use x="946.001953" xlink:href="#DejaVuSans-98"/>
      <use x="1009.478516" xlink:href="#DejaVuSans-105"/>
      <use x="1037.261719" xlink:href="#DejaVuSans-116"/>
      <use x="1076.470703" xlink:href="#DejaVuSans-115"/>
     </g>
    </g>
   </g>
  </g>
 </g>
 <defs>
  <clipPath id="p4d3f6f924f">
   <rect height="292.84" width="405.43" x="44.57" y="10.8"/>
  </clipPath>
 </defs>
</svg>
