<?xml version="1.0" encoding="utf-8" standalone="no"?>
<!DOCTYPE svg PUBLIC "-//W3C//DTD SVG 1.1//EN"
  "http://www.w3.org/Graphics/SVG/1.1/DTD/svg11.dtd">
<!-- Created with matplotlib (https://matplotlib.org/) -->
<svg height="345.6pt" version="1.1" viewBox="0 0 460.8 345.6" width="460.8pt" xmlns="http://www.w3.org/2000/svg" xmlns:xlink="http://www.w3.org/1999/xlink">
 <metadata>
  <rdf:RDF xmlns:cc="http://creativecommons.org/ns#" xmlns:dc="http://purl.org/dc/elements/1.1/" xmlns:rdf="http://www.w3.org/1999/02/22-rdf-syntax-ns#">
   <cc:Work>
    <dc:type rdf:resource="http://purl.org/dc/dcmitype/StillImage"/>
    <dc:date>2021-06-10T08:57:47.177149</dc:date>
    <dc:format>image/svg+xml</dc:format>
    <dc:creator>
     <cc:Agent>
      <dc:title>Matplotlib v3.3.1, https://matplotlib.org/</dc:title>
     </cc:Agent>
    </dc:creator>
   </cc:Work>
  </rdf:RDF>
 </metadata>
 <defs>
  <style type="text/css">*{stroke-linecap:butt;stroke-linejoin:round;}</style>
 </defs>
 <g id="figure_1">
  <g id="patch_1">
   <path d="M 0 345.6 
L 460.8 345.6 
L 460.8 0 
L 0 0 
z
" style="fill:#ffffff;"/>
  </g>
  <g id="axes_1">
   <g id="patch_2">
    <path d="M 44.57 303.64 
L 450 303.64 
L 450 10.8 
L 44.57 10.8 
z
" style="fill:#ffffff;"/>
   </g>
   <g id="PolyCollection_1">
    <path clip-path="url(#p7178141f03)" d="M 62.998636 266.472492 
L 62.998636 290.329091 
L 65.472279 274.667444 
L 67.945921 258.137547 
L 70.419564 241.228106 
L 72.893206 219.908787 
L 75.366849 203.538239 
L 77.840491 181.956138 
L 80.314134 172.615352 
L 82.787776 155.418182 
L 85.261419 146.148583 
L 87.735061 115.676423 
L 90.208703 131.440669 
L 92.682346 124.713098 
L 95.155988 100.482261 
L 97.629631 104.395007 
L 100.103273 98.530409 
L 102.576916 88.66219 
L 105.050558 87.61923 
L 107.524201 75.486465 
L 109.997843 87.084599 
L 112.471486 83.410445 
L 114.945128 92.340963 
L 117.418771 94.639974 
L 119.892413 78.356074 
L 122.366056 83.902387 
L 124.839698 81.171963 
L 127.31334 75.269662 
L 129.786983 72.015912 
L 132.260625 76.593434 
L 134.734268 68.355395 
L 137.20791 69.947848 
L 139.681553 62.328356 
L 142.155195 71.885434 
L 144.628838 64.997211 
L 147.10248 63.038748 
L 149.576123 69.308447 
L 152.049765 66.23624 
L 154.523408 65.397652 
L 156.99705 64.735446 
L 159.470692 76.613091 
L 161.944335 54.084774 
L 164.417977 57.738658 
L 166.89162 63.602753 
L 169.365262 58.549397 
L 171.838905 64.097367 
L 174.312547 71.528832 
L 176.78619 60.861374 
L 179.259832 60.28661 
L 181.733475 61.074377 
L 184.207117 61.645701 
L 186.68076 58.353427 
L 189.154402 59.10782 
L 191.628045 66.116602 
L 194.101687 60.824463 
L 196.575329 58.332557 
L 199.048972 65.763505 
L 201.522614 59.20247 
L 203.996257 50.066567 
L 206.469899 54.505265 
L 208.943542 54.506802 
L 211.417184 57.099053 
L 213.890827 56.694528 
L 216.364469 48.445904 
L 218.838112 54.122108 
L 221.311754 54.502152 
L 223.785397 56.103829 
L 226.259039 55.586945 
L 228.732682 52.761014 
L 231.206324 52.179561 
L 233.679966 53.768553 
L 236.153609 53.391733 
L 238.627251 55.579569 
L 241.100894 46.938252 
L 243.574536 49.503617 
L 246.048179 46.754153 
L 248.521821 47.543862 
L 250.995464 46.117183 
L 253.469106 48.208644 
L 255.942749 45.066711 
L 258.416391 42.872366 
L 260.890034 44.467382 
L 263.363676 49.07762 
L 265.837318 48.105731 
L 268.310961 43.964825 
L 270.784603 48.751104 
L 273.258246 53.743165 
L 275.731888 43.376865 
L 278.205531 39.915606 
L 280.679173 43.729527 
L 283.152816 44.65395 
L 285.626458 44.156834 
L 288.100101 47.696798 
L 290.573743 44.462763 
L 293.047386 41.100705 
L 295.521028 37.309149 
L 297.994671 44.937249 
L 300.468313 41.077788 
L 302.941955 42.366029 
L 305.415598 38.762466 
L 307.88924 38.95242 
L 310.362883 38.006903 
L 312.836525 36.986327 
L 315.310168 36.68359 
L 317.78381 38.842306 
L 320.257453 40.466263 
L 322.731095 38.940852 
L 325.204738 36.66695 
L 327.67838 38.683739 
L 330.152023 40.38688 
L 332.625665 39.657246 
L 335.099308 34.054488 
L 337.57295 40.448819 
L 340.046592 34.950012 
L 342.520235 34.454172 
L 344.993877 33.488734 
L 347.46752 33.964497 
L 349.941162 33.681301 
L 352.414805 35.561498 
L 354.888447 30.926513 
L 357.36209 35.544495 
L 359.835732 32.789146 
L 362.309375 33.164702 
L 364.783017 31.60038 
L 367.25666 31.904546 
L 369.730302 32.092089 
L 372.203944 31.199397 
L 374.677587 31.210186 
L 377.151229 31.405901 
L 379.624872 30.512932 
L 382.098514 31.669618 
L 384.572157 29.574565 
L 387.045799 29.949507 
L 389.519442 30.352871 
L 391.993084 28.535402 
L 394.466727 29.107717 
L 396.940369 29.948443 
L 399.414012 28.72955 
L 401.887654 29.375945 
L 404.361297 29.111251 
L 406.834939 30.49677 
L 409.308581 30.220505 
L 411.782224 29.410664 
L 414.255866 29.327098 
L 416.729509 29.690612 
L 419.203151 29.3356 
L 421.676794 28.837968 
L 424.150436 29.877019 
L 426.624079 29.043302 
L 429.097721 28.115566 
L 431.571364 28.919775 
L 431.571364 25.542007 
L 431.571364 25.542007 
L 429.097721 24.110909 
L 426.624079 25.055998 
L 424.150436 25.732623 
L 421.676794 24.355126 
L 419.203151 25.609491 
L 416.729509 25.314893 
L 414.255866 24.651375 
L 411.782224 25.292772 
L 409.308581 25.993274 
L 406.834939 25.596181 
L 404.361297 25.471358 
L 401.887654 24.421286 
L 399.414012 24.523959 
L 396.940369 25.661199 
L 394.466727 26.139443 
L 391.993084 25.443071 
L 389.519442 27.008768 
L 387.045799 25.962204 
L 384.572157 24.826803 
L 382.098514 24.604574 
L 379.624872 25.398779 
L 377.151229 25.472428 
L 374.677587 26.091039 
L 372.203944 27.189275 
L 369.730302 27.323615 
L 367.25666 27.027848 
L 364.783017 29.265252 
L 362.309375 30.057065 
L 359.835732 28.1369 
L 357.36209 29.429269 
L 354.888447 29.334982 
L 352.414805 30.499711 
L 349.941162 29.480052 
L 347.46752 31.794644 
L 344.993877 30.216342 
L 342.520235 31.365383 
L 340.046592 32.259058 
L 337.57295 33.043274 
L 335.099308 31.160931 
L 332.625665 32.807815 
L 330.152023 34.615555 
L 327.67838 31.304361 
L 325.204738 31.508739 
L 322.731095 34.430413 
L 320.257453 35.684032 
L 317.78381 33.501927 
L 315.310168 34.452369 
L 312.836525 34.995424 
L 310.362883 31.256232 
L 307.88924 33.935537 
L 305.415598 31.16522 
L 302.941955 33.905093 
L 300.468313 36.039127 
L 297.994671 39.79179 
L 295.521028 34.370534 
L 293.047386 37.164069 
L 290.573743 34.587389 
L 288.100101 43.254851 
L 285.626458 39.363931 
L 283.152816 34.939925 
L 280.679173 38.280896 
L 278.205531 36.959654 
L 275.731888 39.539763 
L 273.258246 42.706129 
L 270.784603 41.898476 
L 268.310961 38.40808 
L 265.837318 38.556546 
L 263.363676 40.303273 
L 260.890034 40.865794 
L 258.416391 37.083991 
L 255.942749 40.749774 
L 253.469106 39.843148 
L 250.995464 40.907576 
L 248.521821 42.501581 
L 246.048179 38.69985 
L 243.574536 39.998103 
L 241.100894 39.844852 
L 238.627251 46.85068 
L 236.153609 42.755492 
L 233.679966 40.566262 
L 231.206324 41.309462 
L 228.732682 44.896554 
L 226.259039 46.662063 
L 223.785397 45.661869 
L 221.311754 46.901064 
L 218.838112 45.408284 
L 216.364469 42.203676 
L 213.890827 46.158617 
L 211.417184 49.983049 
L 208.943542 49.252548 
L 206.469899 45.025127 
L 203.996257 42.214182 
L 201.522614 41.354954 
L 199.048972 55.213746 
L 196.575329 47.601685 
L 194.101687 50.063702 
L 191.628045 49.785899 
L 189.154402 48.518006 
L 186.68076 48.245367 
L 184.207117 47.973776 
L 181.733475 52.109507 
L 179.259832 46.735079 
L 176.78619 50.630927 
L 174.312547 47.817249 
L 171.838905 50.778101 
L 169.365262 52.157527 
L 166.89162 50.668579 
L 164.417977 49.76634 
L 161.944335 49.976644 
L 159.470692 60.011304 
L 156.99705 50.9254 
L 154.523408 48.329957 
L 152.049765 51.961981 
L 149.576123 53.481214 
L 147.10248 53.649131 
L 144.628838 56.765417 
L 142.155195 63.711929 
L 139.681553 56.957311 
L 137.20791 56.708289 
L 134.734268 51.836477 
L 132.260625 62.387095 
L 129.786983 58.567114 
L 127.31334 67.879411 
L 124.839698 67.958066 
L 122.366056 63.052749 
L 119.892413 62.557693 
L 117.418771 58.416944 
L 114.945128 61.561746 
L 112.471486 65.779997 
L 109.997843 78.961261 
L 107.524201 64.219029 
L 105.050558 73.533122 
L 102.576916 76.175396 
L 100.103273 73.55682 
L 97.629631 87.32667 
L 95.155988 80.123297 
L 92.682346 93.228119 
L 90.208703 98.099976 
L 87.735061 106.916647 
L 85.261419 114.867592 
L 82.787776 116.92556 
L 80.314134 142.048176 
L 77.840491 152.553286 
L 75.366849 174.952349 
L 72.893206 191.869742 
L 70.419564 218.669924 
L 67.945921 238.703452 
L 65.472279 248.54413 
L 62.998636 266.472492 
z
" style="fill:#1f77b4;fill-opacity:0.25;"/>
   </g>
   <g id="PolyCollection_2">
    <path clip-path="url(#p7178141f03)" d="M 62.998636 286.625705 
L 62.998636 289.991567 
L 65.472279 287.84545 
L 67.945921 280.179298 
L 70.419564 269.955504 
L 72.893206 259.512514 
L 75.366849 230.322891 
L 77.840491 223.040638 
L 80.314134 219.986567 
L 82.787776 183.854663 
L 85.261419 169.387426 
L 87.735061 150.378 
L 90.208703 123.021167 
L 92.682346 107.602809 
L 95.155988 112.275512 
L 97.629631 104.314333 
L 100.103273 94.52554 
L 102.576916 90.932687 
L 105.050558 80.043206 
L 107.524201 86.813255 
L 109.997843 80.758708 
L 112.471486 89.062411 
L 114.945128 77.189938 
L 117.418771 74.027172 
L 119.892413 67.599617 
L 122.366056 81.570011 
L 124.839698 78.919631 
L 127.31334 63.413836 
L 129.786983 69.335859 
L 132.260625 72.744306 
L 134.734268 67.427129 
L 137.20791 62.922367 
L 139.681553 68.676315 
L 142.155195 70.674147 
L 144.628838 59.025615 
L 147.10248 62.939115 
L 149.576123 64.148957 
L 152.049765 68.304137 
L 154.523408 64.269566 
L 156.99705 62.319205 
L 159.470692 59.551548 
L 161.944335 60.6912 
L 164.417977 62.702014 
L 166.89162 62.350156 
L 169.365262 72.796416 
L 171.838905 65.996142 
L 174.312547 58.944436 
L 176.78619 57.719605 
L 179.259832 61.082923 
L 181.733475 51.415658 
L 184.207117 59.022105 
L 186.68076 57.797945 
L 189.154402 65.431495 
L 191.628045 61.676787 
L 194.101687 56.693874 
L 196.575329 53.523706 
L 199.048972 60.732107 
L 201.522614 53.755781 
L 203.996257 47.943974 
L 206.469899 53.11895 
L 208.943542 54.047204 
L 211.417184 51.548526 
L 213.890827 54.973614 
L 216.364469 52.904217 
L 218.838112 52.1392 
L 221.311754 53.604588 
L 223.785397 48.361442 
L 226.259039 54.192875 
L 228.732682 52.310231 
L 231.206324 49.697782 
L 233.679966 45.794146 
L 236.153609 50.284843 
L 238.627251 59.19602 
L 241.100894 47.649 
L 243.574536 49.824326 
L 246.048179 47.904591 
L 248.521821 52.036596 
L 250.995464 47.169625 
L 253.469106 45.087556 
L 255.942749 49.232302 
L 258.416391 45.1368 
L 260.890034 43.972269 
L 263.363676 46.884684 
L 265.837318 45.679451 
L 268.310961 50.250183 
L 270.784603 51.370761 
L 273.258246 52.014044 
L 275.731888 43.500393 
L 278.205531 42.823316 
L 280.679173 44.492951 
L 283.152816 45.405785 
L 285.626458 43.18657 
L 288.100101 42.75106 
L 290.573743 44.477043 
L 293.047386 43.158632 
L 295.521028 45.054729 
L 297.994671 43.85643 
L 300.468313 44.037707 
L 302.941955 46.412745 
L 305.415598 42.762082 
L 307.88924 42.936706 
L 310.362883 44.882318 
L 312.836525 41.631193 
L 315.310168 42.664027 
L 317.78381 43.236817 
L 320.257453 41.877275 
L 322.731095 40.372474 
L 325.204738 41.136433 
L 327.67838 38.409665 
L 330.152023 37.932355 
L 332.625665 38.934502 
L 335.099308 35.825816 
L 337.57295 35.925621 
L 340.046592 37.543236 
L 342.520235 37.527978 
L 344.993877 35.944964 
L 347.46752 34.969261 
L 349.941162 36.931199 
L 352.414805 34.568634 
L 354.888447 35.276953 
L 357.36209 36.633226 
L 359.835732 33.101739 
L 362.309375 35.185325 
L 364.783017 34.609093 
L 367.25666 34.952434 
L 369.730302 36.057713 
L 372.203944 33.993787 
L 374.677587 34.100526 
L 377.151229 33.541322 
L 379.624872 33.026896 
L 382.098514 32.583815 
L 384.572157 33.325431 
L 387.045799 34.364996 
L 389.519442 33.102703 
L 391.993084 32.495921 
L 394.466727 32.887096 
L 396.940369 33.435481 
L 399.414012 33.192914 
L 401.887654 33.888757 
L 404.361297 35.066398 
L 406.834939 33.123066 
L 409.308581 32.607709 
L 411.782224 32.360631 
L 414.255866 31.430747 
L 416.729509 32.966066 
L 419.203151 31.737737 
L 421.676794 32.475373 
L 424.150436 32.232258 
L 426.624079 33.337698 
L 429.097721 32.299673 
L 431.571364 33.1808 
L 431.571364 31.007586 
L 431.571364 31.007586 
L 429.097721 30.317957 
L 426.624079 30.609032 
L 424.150436 30.627026 
L 421.676794 30.504738 
L 419.203151 29.309137 
L 416.729509 30.316114 
L 414.255866 28.951576 
L 411.782224 29.169553 
L 409.308581 30.070334 
L 406.834939 30.642424 
L 404.361297 30.390675 
L 401.887654 29.816319 
L 399.414012 30.753817 
L 396.940369 29.605044 
L 394.466727 30.697152 
L 391.993084 28.853021 
L 389.519442 30.904441 
L 387.045799 29.702562 
L 384.572157 30.560886 
L 382.098514 30.698365 
L 379.624872 29.832388 
L 377.151229 30.284581 
L 374.677587 30.994064 
L 372.203944 31.342459 
L 369.730302 29.943083 
L 367.25666 30.565053 
L 364.783017 29.88136 
L 362.309375 32.2654 
L 359.835732 31.388715 
L 357.36209 32.750736 
L 354.888447 31.630048 
L 352.414805 32.398781 
L 349.941162 33.661038 
L 347.46752 33.448083 
L 344.993877 32.532793 
L 342.520235 30.647711 
L 340.046592 30.26997 
L 337.57295 32.914618 
L 335.099308 30.960358 
L 332.625665 32.866008 
L 330.152023 33.384845 
L 327.67838 32.303398 
L 325.204738 34.893035 
L 322.731095 37.529819 
L 320.257453 37.474945 
L 317.78381 37.323678 
L 315.310168 35.540334 
L 312.836525 37.056477 
L 310.362883 35.859417 
L 307.88924 36.657169 
L 305.415598 38.825445 
L 302.941955 41.034909 
L 300.468313 36.764442 
L 297.994671 34.468758 
L 295.521028 38.466036 
L 293.047386 35.106142 
L 290.573743 39.34579 
L 288.100101 37.265711 
L 285.626458 37.253097 
L 283.152816 38.77953 
L 280.679173 36.369612 
L 278.205531 36.408077 
L 275.731888 41.228646 
L 273.258246 44.858146 
L 270.784603 41.453711 
L 268.310961 42.09098 
L 265.837318 38.687105 
L 263.363676 41.771244 
L 260.890034 39.1256 
L 258.416391 38.383965 
L 255.942749 39.363213 
L 253.469106 39.097759 
L 250.995464 38.526033 
L 248.521821 47.0709 
L 246.048179 39.603478 
L 243.574536 40.583599 
L 241.100894 42.336029 
L 238.627251 50.483872 
L 236.153609 42.53963 
L 233.679966 41.230613 
L 231.206324 43.187104 
L 228.732682 44.441131 
L 226.259039 46.606205 
L 223.785397 42.288138 
L 221.311754 46.590354 
L 218.838112 43.645543 
L 216.364469 47.411553 
L 213.890827 48.423254 
L 211.417184 47.498556 
L 208.943542 44.637396 
L 206.469899 47.378061 
L 203.996257 45.363808 
L 201.522614 48.191159 
L 199.048972 45.745859 
L 196.575329 46.912891 
L 194.101687 48.9383 
L 191.628045 53.984059 
L 189.154402 55.122859 
L 186.68076 48.559193 
L 184.207117 46.610069 
L 181.733475 48.416802 
L 179.259832 48.2949 
L 176.78619 50.872839 
L 174.312547 48.923045 
L 171.838905 51.658356 
L 169.365262 58.028266 
L 166.89162 52.82738 
L 164.417977 46.071672 
L 161.944335 53.39889 
L 159.470692 49.947102 
L 156.99705 49.293924 
L 154.523408 52.780795 
L 152.049765 45.785953 
L 149.576123 55.197124 
L 147.10248 51.211389 
L 144.628838 50.110553 
L 142.155195 54.350821 
L 139.681553 59.188096 
L 137.20791 52.557238 
L 134.734268 57.77908 
L 132.260625 60.436509 
L 129.786983 62.032546 
L 127.31334 56.838451 
L 124.839698 66.827231 
L 122.366056 57.168864 
L 119.892413 60.808517 
L 117.418771 64.711703 
L 114.945128 69.765197 
L 112.471486 73.600283 
L 109.997843 64.504844 
L 107.524201 74.943234 
L 105.050558 69.086822 
L 102.576916 76.744343 
L 100.103273 72.003629 
L 97.629631 79.553565 
L 95.155988 94.912068 
L 92.682346 96.866156 
L 90.208703 106.338236 
L 87.735061 114.565065 
L 85.261419 130.051853 
L 82.787776 141.441674 
L 80.314134 150.257552 
L 77.840491 164.089107 
L 75.366849 187.270456 
L 72.893206 201.835444 
L 70.419564 216.766203 
L 67.945921 248.34868 
L 65.472279 258.806633 
L 62.998636 286.625705 
z
" style="fill:#ff7f0e;fill-opacity:0.25;"/>
   </g>
   <g id="PolyCollection_3">
    <path clip-path="url(#p7178141f03)" d="M 62.998636 252.125519 
L 62.998636 277.852387 
L 65.472279 278.657045 
L 67.945921 271.280043 
L 70.419564 262.157451 
L 72.893206 233.699229 
L 75.366849 224.601487 
L 77.840491 213.968311 
L 80.314134 198.865827 
L 82.787776 179.560144 
L 85.261419 175.248412 
L 87.735061 156.879195 
L 90.208703 145.455439 
L 92.682346 143.51382 
L 95.155988 138.514085 
L 97.629631 123.672835 
L 100.103273 122.713071 
L 102.576916 116.159163 
L 105.050558 108.686774 
L 107.524201 100.573573 
L 109.997843 97.613804 
L 112.471486 96.717023 
L 114.945128 100.18418 
L 117.418771 103.937493 
L 119.892413 85.780141 
L 122.366056 89.1931 
L 124.839698 95.350961 
L 127.31334 84.423441 
L 129.786983 83.938174 
L 132.260625 89.821746 
L 134.734268 81.316688 
L 137.20791 72.720536 
L 139.681553 77.72281 
L 142.155195 71.387728 
L 144.628838 66.640536 
L 147.10248 73.322392 
L 149.576123 80.244313 
L 152.049765 64.997684 
L 154.523408 64.693494 
L 156.99705 71.441992 
L 159.470692 62.780476 
L 161.944335 65.880875 
L 164.417977 65.891406 
L 166.89162 60.057893 
L 169.365262 61.564089 
L 171.838905 68.122436 
L 174.312547 63.427705 
L 176.78619 66.570541 
L 179.259832 66.258388 
L 181.733475 57.666506 
L 184.207117 64.788908 
L 186.68076 56.04144 
L 189.154402 59.276905 
L 191.628045 60.900008 
L 194.101687 63.355819 
L 196.575329 59.07293 
L 199.048972 58.618697 
L 201.522614 54.818052 
L 203.996257 54.277705 
L 206.469899 57.032006 
L 208.943542 57.756866 
L 211.417184 61.38309 
L 213.890827 50.60484 
L 216.364469 59.769369 
L 218.838112 55.012787 
L 221.311754 54.503752 
L 223.785397 53.556667 
L 226.259039 57.107505 
L 228.732682 59.655146 
L 231.206324 56.489888 
L 233.679966 52.817031 
L 236.153609 52.469341 
L 238.627251 56.632117 
L 241.100894 50.809502 
L 243.574536 50.703794 
L 246.048179 48.733122 
L 248.521821 49.939918 
L 250.995464 50.615341 
L 253.469106 49.020487 
L 255.942749 52.712018 
L 258.416391 52.87963 
L 260.890034 46.039065 
L 263.363676 52.520739 
L 265.837318 45.612586 
L 268.310961 46.183687 
L 270.784603 52.729739 
L 273.258246 49.836321 
L 275.731888 46.134559 
L 278.205531 43.582074 
L 280.679173 48.398544 
L 283.152816 46.116545 
L 285.626458 47.363722 
L 288.100101 46.692751 
L 290.573743 46.40932 
L 293.047386 44.225473 
L 295.521028 47.993897 
L 297.994671 45.819525 
L 300.468313 41.834127 
L 302.941955 44.343022 
L 305.415598 46.168205 
L 307.88924 43.096953 
L 310.362883 43.117262 
L 312.836525 41.982537 
L 315.310168 42.985239 
L 317.78381 43.695421 
L 320.257453 40.408398 
L 322.731095 40.656137 
L 325.204738 39.830754 
L 327.67838 41.031549 
L 330.152023 44.941939 
L 332.625665 40.040791 
L 335.099308 39.420217 
L 337.57295 39.381766 
L 340.046592 39.753566 
L 342.520235 39.267329 
L 344.993877 38.963701 
L 347.46752 40.640183 
L 349.941162 36.980609 
L 352.414805 35.715619 
L 354.888447 37.387464 
L 357.36209 36.596042 
L 359.835732 36.118026 
L 362.309375 36.588094 
L 364.783017 36.089354 
L 367.25666 35.386267 
L 369.730302 36.139076 
L 372.203944 33.737503 
L 374.677587 35.793748 
L 377.151229 34.324261 
L 379.624872 34.020505 
L 382.098514 32.608716 
L 384.572157 33.84619 
L 387.045799 33.664949 
L 389.519442 33.83686 
L 391.993084 33.639771 
L 394.466727 33.125248 
L 396.940369 32.48777 
L 399.414012 32.080091 
L 401.887654 31.721705 
L 404.361297 32.817832 
L 406.834939 32.870481 
L 409.308581 32.707462 
L 411.782224 32.386161 
L 414.255866 32.316544 
L 416.729509 32.726987 
L 419.203151 32.505176 
L 421.676794 32.247529 
L 424.150436 31.978246 
L 426.624079 32.603707 
L 429.097721 33.176472 
L 431.571364 32.60869 
L 431.571364 27.954875 
L 431.571364 27.954875 
L 429.097721 28.414125 
L 426.624079 28.50358 
L 424.150436 27.860354 
L 421.676794 28.678517 
L 419.203151 27.997975 
L 416.729509 28.017818 
L 414.255866 28.790744 
L 411.782224 29.144022 
L 409.308581 28.701894 
L 406.834939 29.867976 
L 404.361297 29.376902 
L 401.887654 28.53979 
L 399.414012 28.664714 
L 396.940369 29.404895 
L 394.466727 29.492381 
L 391.993084 28.554963 
L 389.519442 29.445321 
L 387.045799 29.798473 
L 384.572157 29.979714 
L 382.098514 28.981881 
L 379.624872 30.469948 
L 377.151229 28.232955 
L 374.677587 28.515465 
L 372.203944 29.967573 
L 369.730302 32.278268 
L 367.25666 31.520735 
L 364.783017 33.294609 
L 362.309375 29.473116 
L 359.835732 32.359731 
L 357.36209 31.277578 
L 354.888447 29.640365 
L 352.414805 32.762138 
L 349.941162 33.128318 
L 347.46752 35.268458 
L 344.993877 33.863841 
L 342.520235 33.4998 
L 340.046592 34.221836 
L 337.57295 34.412396 
L 335.099308 35.461391 
L 332.625665 33.813784 
L 330.152023 36.585174 
L 327.67838 31.131443 
L 325.204738 34.265476 
L 322.731095 36.219123 
L 320.257453 36.164793 
L 317.78381 37.106728 
L 315.310168 36.971118 
L 312.836525 37.369684 
L 310.362883 36.355786 
L 307.88924 36.859404 
L 305.415598 35.419322 
L 302.941955 39.358984 
L 300.468313 33.470376 
L 297.994671 37.822067 
L 295.521028 42.293201 
L 293.047386 41.470185 
L 290.573743 39.527992 
L 288.100101 38.459183 
L 285.626458 39.842278 
L 283.152816 37.525047 
L 280.679173 42.069795 
L 278.205531 37.280489 
L 275.731888 41.433923 
L 273.258246 38.155057 
L 270.784603 43.115418 
L 268.310961 41.505623 
L 265.837318 39.297694 
L 263.363676 45.31807 
L 260.890034 41.952313 
L 258.416391 39.461534 
L 255.942749 45.126791 
L 253.469106 43.864399 
L 250.995464 44.32361 
L 248.521821 43.367864 
L 246.048179 45.118384 
L 243.574536 41.516542 
L 241.100894 43.344072 
L 238.627251 46.643924 
L 236.153609 47.061051 
L 233.679966 43.148953 
L 231.206324 44.61126 
L 228.732682 45.19165 
L 226.259039 47.739292 
L 223.785397 46.87993 
L 221.311754 47.98691 
L 218.838112 47.417462 
L 216.364469 55.287341 
L 213.890827 45.11949 
L 211.417184 52.22369 
L 208.943542 41.108976 
L 206.469899 48.2981 
L 203.996257 48.333785 
L 201.522614 51.297432 
L 199.048972 49.792507 
L 196.575329 46.378003 
L 194.101687 48.498965 
L 191.628045 52.8276 
L 189.154402 52.396638 
L 186.68076 50.799008 
L 184.207117 55.161309 
L 181.733475 52.013386 
L 179.259832 48.435839 
L 176.78619 53.500504 
L 174.312547 53.803897 
L 171.838905 62.883486 
L 169.365262 57.540338 
L 166.89162 55.05923 
L 164.417977 49.76944 
L 161.944335 55.458858 
L 159.470692 52.88037 
L 156.99705 55.878695 
L 154.523408 57.97534 
L 152.049765 53.804673 
L 149.576123 58.132079 
L 147.10248 57.68353 
L 144.628838 54.940852 
L 142.155195 59.920262 
L 139.681553 62.465992 
L 137.20791 60.460279 
L 134.734268 65.396793 
L 132.260625 67.766199 
L 129.786983 64.950199 
L 127.31334 66.156516 
L 124.839698 75.28634 
L 122.366056 76.36945 
L 119.892413 62.383269 
L 117.418771 75.580619 
L 114.945128 81.992135 
L 112.471486 70.718352 
L 109.997843 78.762797 
L 107.524201 77.132129 
L 105.050558 76.691466 
L 102.576916 89.09518 
L 100.103273 85.13906 
L 97.629631 105.444914 
L 95.155988 113.077555 
L 92.682346 115.508704 
L 90.208703 129.335057 
L 87.735061 131.202312 
L 85.261419 148.084481 
L 82.787776 156.852312 
L 80.314134 171.197051 
L 77.840491 169.56682 
L 75.366849 175.849476 
L 72.893206 195.282097 
L 70.419564 203.781947 
L 67.945921 221.256481 
L 65.472279 228.378764 
L 62.998636 252.125519 
z
" style="fill:#2ca02c;fill-opacity:0.25;"/>
   </g>
   <g id="PolyCollection_4">
    <path clip-path="url(#p7178141f03)" d="M 62.998636 265.241532 
L 62.998636 285.277028 
L 65.472279 263.734032 
L 67.945921 255.263865 
L 70.419564 230.31852 
L 72.893206 211.573085 
L 75.366849 204.213421 
L 77.840491 188.972247 
L 80.314134 182.965485 
L 82.787776 154.524364 
L 85.261419 152.628393 
L 87.735061 134.212968 
L 90.208703 129.901632 
L 92.682346 125.738367 
L 95.155988 109.871899 
L 97.629631 101.817976 
L 100.103273 92.301411 
L 102.576916 90.157232 
L 105.050558 103.361026 
L 107.524201 79.54449 
L 109.997843 83.203749 
L 112.471486 82.117483 
L 114.945128 84.005642 
L 117.418771 81.929293 
L 119.892413 77.473751 
L 122.366056 81.585756 
L 124.839698 71.620424 
L 127.31334 74.132177 
L 129.786983 77.126119 
L 132.260625 72.225956 
L 134.734268 68.872837 
L 137.20791 67.593149 
L 139.681553 65.690481 
L 142.155195 68.123884 
L 144.628838 66.809817 
L 147.10248 67.678386 
L 149.576123 77.386724 
L 152.049765 71.088231 
L 154.523408 61.987514 
L 156.99705 64.271988 
L 159.470692 60.025574 
L 161.944335 65.683334 
L 164.417977 65.324201 
L 166.89162 58.413499 
L 169.365262 60.235298 
L 171.838905 66.627198 
L 174.312547 65.899696 
L 176.78619 64.732345 
L 179.259832 61.156268 
L 181.733475 60.361095 
L 184.207117 59.018932 
L 186.68076 57.589363 
L 189.154402 58.449986 
L 191.628045 70.221392 
L 194.101687 63.157274 
L 196.575329 51.666685 
L 199.048972 58.028661 
L 201.522614 55.473934 
L 203.996257 53.454379 
L 206.469899 58.640538 
L 208.943542 52.881828 
L 211.417184 56.308969 
L 213.890827 56.909552 
L 216.364469 55.038277 
L 218.838112 50.721645 
L 221.311754 60.98799 
L 223.785397 50.788932 
L 226.259039 56.706033 
L 228.732682 53.809855 
L 231.206324 52.162915 
L 233.679966 48.916497 
L 236.153609 53.904182 
L 238.627251 56.922668 
L 241.100894 56.662299 
L 243.574536 49.032862 
L 246.048179 49.100188 
L 248.521821 49.15728 
L 250.995464 51.02046 
L 253.469106 49.085945 
L 255.942749 49.07365 
L 258.416391 46.751693 
L 260.890034 46.826876 
L 263.363676 50.178904 
L 265.837318 47.718487 
L 268.310961 50.897477 
L 270.784603 53.447365 
L 273.258246 51.417158 
L 275.731888 48.185741 
L 278.205531 49.13687 
L 280.679173 45.808878 
L 283.152816 42.580179 
L 285.626458 45.236139 
L 288.100101 50.192448 
L 290.573743 49.099083 
L 293.047386 42.014621 
L 295.521028 44.951621 
L 297.994671 40.230652 
L 300.468313 44.598958 
L 302.941955 45.59825 
L 305.415598 39.831755 
L 307.88924 44.224482 
L 310.362883 39.471486 
L 312.836525 40.478192 
L 315.310168 39.493112 
L 317.78381 45.714544 
L 320.257453 43.288932 
L 322.731095 41.317118 
L 325.204738 39.462225 
L 327.67838 39.346084 
L 330.152023 40.524189 
L 332.625665 41.151122 
L 335.099308 38.028459 
L 337.57295 36.315862 
L 340.046592 38.983978 
L 342.520235 36.478014 
L 344.993877 36.813498 
L 347.46752 39.089688 
L 349.941162 37.631549 
L 352.414805 36.768523 
L 354.888447 34.305087 
L 357.36209 36.256063 
L 359.835732 33.717789 
L 362.309375 32.924165 
L 364.783017 34.777462 
L 367.25666 34.411585 
L 369.730302 32.612984 
L 372.203944 32.818797 
L 374.677587 34.082803 
L 377.151229 34.393129 
L 379.624872 32.889978 
L 382.098514 32.615876 
L 384.572157 31.891284 
L 387.045799 31.921975 
L 389.519442 33.484195 
L 391.993084 32.64071 
L 394.466727 33.831951 
L 396.940369 31.152436 
L 399.414012 32.325301 
L 401.887654 32.544415 
L 404.361297 32.360476 
L 406.834939 32.56231 
L 409.308581 32.705351 
L 411.782224 33.532755 
L 414.255866 32.584408 
L 416.729509 32.842807 
L 419.203151 32.569156 
L 421.676794 32.005611 
L 424.150436 32.710771 
L 426.624079 33.031529 
L 429.097721 32.841534 
L 431.571364 32.989484 
L 431.571364 29.990628 
L 431.571364 29.990628 
L 429.097721 29.3532 
L 426.624079 30.06941 
L 424.150436 30.571409 
L 421.676794 29.766227 
L 419.203151 29.625577 
L 416.729509 29.231099 
L 414.255866 29.670739 
L 411.782224 30.17232 
L 409.308581 30.878898 
L 406.834939 29.994906 
L 404.361297 30.075912 
L 401.887654 30.012801 
L 399.414012 29.567365 
L 396.940369 29.10906 
L 394.466727 29.873125 
L 391.993084 29.372782 
L 389.519442 29.737572 
L 387.045799 29.789449 
L 384.572157 29.638899 
L 382.098514 30.485063 
L 379.624872 27.794414 
L 377.151229 30.701462 
L 374.677587 30.105582 
L 372.203944 27.744767 
L 369.730302 30.185887 
L 367.25666 31.105902 
L 364.783017 28.746373 
L 362.309375 30.055946 
L 359.835732 31.074733 
L 357.36209 32.161281 
L 354.888447 31.937364 
L 352.414805 31.346752 
L 349.941162 33.685652 
L 347.46752 34.281578 
L 344.993877 32.268396 
L 342.520235 32.422639 
L 340.046592 33.420668 
L 337.57295 33.0681 
L 335.099308 33.892878 
L 332.625665 34.032554 
L 330.152023 36.532312 
L 327.67838 33.6627 
L 325.204738 35.721451 
L 322.731095 32.960353 
L 320.257453 36.304943 
L 317.78381 37.322911 
L 315.310168 36.898838 
L 312.836525 30.355699 
L 310.362883 34.383089 
L 307.88924 35.369393 
L 305.415598 35.472749 
L 302.941955 40.45989 
L 300.468313 39.344703 
L 297.994671 35.496747 
L 295.521028 38.387903 
L 293.047386 39.754147 
L 290.573743 42.094221 
L 288.100101 41.182096 
L 285.626458 41.063656 
L 283.152816 37.376179 
L 280.679173 39.947193 
L 278.205531 39.881541 
L 275.731888 41.376392 
L 273.258246 45.998755 
L 270.784603 45.116408 
L 268.310961 46.578849 
L 265.837318 42.749852 
L 263.363676 43.733015 
L 260.890034 38.325058 
L 258.416391 37.977346 
L 255.942749 43.38834 
L 253.469106 40.597016 
L 250.995464 40.29367 
L 248.521821 44.815053 
L 246.048179 41.126496 
L 243.574536 44.335334 
L 241.100894 41.418165 
L 238.627251 47.501232 
L 236.153609 44.055454 
L 233.679966 45.7808 
L 231.206324 45.736307 
L 228.732682 43.666471 
L 226.259039 50.617724 
L 223.785397 44.15002 
L 221.311754 49.718934 
L 218.838112 46.694268 
L 216.364469 48.721073 
L 213.890827 49.085105 
L 211.417184 49.504446 
L 208.943542 44.654912 
L 206.469899 48.804047 
L 203.996257 45.592703 
L 201.522614 45.204318 
L 199.048972 47.5431 
L 196.575329 48.709498 
L 194.101687 52.14109 
L 191.628045 46.526901 
L 189.154402 47.846739 
L 186.68076 49.915636 
L 184.207117 51.144268 
L 181.733475 54.514373 
L 179.259832 51.121411 
L 176.78619 48.028644 
L 174.312547 56.648311 
L 171.838905 57.612391 
L 169.365262 51.257003 
L 166.89162 50.722669 
L 164.417977 52.451124 
L 161.944335 55.173089 
L 159.470692 55.816513 
L 156.99705 52.717959 
L 154.523408 50.04851 
L 152.049765 56.474111 
L 149.576123 55.794091 
L 147.10248 50.519835 
L 144.628838 52.47585 
L 142.155195 55.87405 
L 139.681553 52.02443 
L 137.20791 60.029607 
L 134.734268 55.910476 
L 132.260625 62.163132 
L 129.786983 66.566678 
L 127.31334 58.26326 
L 124.839698 62.52701 
L 122.366056 64.402761 
L 119.892413 61.023469 
L 117.418771 68.227768 
L 114.945128 69.474172 
L 112.471486 66.468822 
L 109.997843 72.390543 
L 107.524201 65.235753 
L 105.050558 73.075988 
L 102.576916 84.829854 
L 100.103273 80.752437 
L 97.629631 88.816255 
L 95.155988 89.824384 
L 92.682346 107.245857 
L 90.208703 115.346571 
L 87.735061 119.795219 
L 85.261419 136.721801 
L 82.787776 139.115202 
L 80.314134 161.602818 
L 77.840491 168.19231 
L 75.366849 181.254948 
L 72.893206 190.116358 
L 70.419564 209.522167 
L 67.945921 219.13345 
L 65.472279 232.170555 
L 62.998636 265.241532 
z
" style="fill:#d62728;fill-opacity:0.25;"/>
   </g>
   <g id="PolyCollection_5">
    <path clip-path="url(#p7178141f03)" d="M 62.998636 239.659019 
L 62.998636 264.476933 
L 65.472279 241.198534 
L 67.945921 238.253301 
L 70.419564 208.014252 
L 72.893206 199.893834 
L 75.366849 177.992962 
L 77.840491 174.955605 
L 80.314134 167.976905 
L 82.787776 156.153464 
L 85.261419 145.390378 
L 87.735061 144.768625 
L 90.208703 112.715116 
L 92.682346 104.645775 
L 95.155988 103.667656 
L 97.629631 100.176151 
L 100.103273 91.763961 
L 102.576916 91.056075 
L 105.050558 80.658348 
L 107.524201 78.575384 
L 109.997843 86.250973 
L 112.471486 79.140855 
L 114.945128 81.822072 
L 117.418771 82.256676 
L 119.892413 69.745324 
L 122.366056 78.990883 
L 124.839698 85.411141 
L 127.31334 70.57306 
L 129.786983 71.926919 
L 132.260625 71.134396 
L 134.734268 65.158887 
L 137.20791 69.682131 
L 139.681553 66.480553 
L 142.155195 68.123281 
L 144.628838 62.426378 
L 147.10248 69.966846 
L 149.576123 69.331555 
L 152.049765 70.070445 
L 154.523408 68.226018 
L 156.99705 63.561479 
L 159.470692 60.65713 
L 161.944335 58.936004 
L 164.417977 62.170852 
L 166.89162 59.0372 
L 169.365262 59.691242 
L 171.838905 66.499001 
L 174.312547 59.858829 
L 176.78619 62.194554 
L 179.259832 65.736646 
L 181.733475 61.8399 
L 184.207117 62.504167 
L 186.68076 58.422016 
L 189.154402 58.942248 
L 191.628045 58.127173 
L 194.101687 53.177613 
L 196.575329 57.064841 
L 199.048972 60.451756 
L 201.522614 52.672299 
L 203.996257 53.922829 
L 206.469899 53.083911 
L 208.943542 59.754471 
L 211.417184 63.538226 
L 213.890827 55.510329 
L 216.364469 60.683271 
L 218.838112 49.66015 
L 221.311754 53.965241 
L 223.785397 57.851925 
L 226.259039 56.148964 
L 228.732682 51.423906 
L 231.206324 48.945745 
L 233.679966 54.431052 
L 236.153609 61.192489 
L 238.627251 52.744643 
L 241.100894 44.697679 
L 243.574536 49.64746 
L 246.048179 49.536843 
L 248.521821 52.201685 
L 250.995464 45.828421 
L 253.469106 47.642122 
L 255.942749 45.536985 
L 258.416391 49.364386 
L 260.890034 46.346205 
L 263.363676 49.386803 
L 265.837318 47.874501 
L 268.310961 45.101569 
L 270.784603 49.142636 
L 273.258246 51.257001 
L 275.731888 48.750663 
L 278.205531 48.26939 
L 280.679173 46.085933 
L 283.152816 44.38619 
L 285.626458 45.634402 
L 288.100101 45.771287 
L 290.573743 44.066359 
L 293.047386 42.148624 
L 295.521028 45.772794 
L 297.994671 41.382445 
L 300.468313 41.069719 
L 302.941955 41.384971 
L 305.415598 39.456699 
L 307.88924 42.295226 
L 310.362883 40.145355 
L 312.836525 41.16139 
L 315.310168 38.725249 
L 317.78381 42.848624 
L 320.257453 41.100745 
L 322.731095 39.593137 
L 325.204738 39.480675 
L 327.67838 40.424197 
L 330.152023 40.53827 
L 332.625665 41.5568 
L 335.099308 41.690083 
L 337.57295 38.064965 
L 340.046592 38.279561 
L 342.520235 37.116253 
L 344.993877 36.994963 
L 347.46752 36.222793 
L 349.941162 36.412724 
L 352.414805 36.674756 
L 354.888447 35.533538 
L 357.36209 36.293401 
L 359.835732 35.717171 
L 362.309375 35.494055 
L 364.783017 36.04251 
L 367.25666 35.893725 
L 369.730302 35.786594 
L 372.203944 35.080175 
L 374.677587 35.423284 
L 377.151229 36.708417 
L 379.624872 33.965203 
L 382.098514 35.145852 
L 384.572157 35.298634 
L 387.045799 33.386968 
L 389.519442 34.3243 
L 391.993084 34.31874 
L 394.466727 33.575652 
L 396.940369 33.373629 
L 399.414012 32.820763 
L 401.887654 32.844523 
L 404.361297 32.424309 
L 406.834939 33.621898 
L 409.308581 33.525267 
L 411.782224 33.294057 
L 414.255866 33.176945 
L 416.729509 32.630674 
L 419.203151 33.049898 
L 421.676794 32.746737 
L 424.150436 33.316009 
L 426.624079 33.11288 
L 429.097721 32.237817 
L 431.571364 33.662511 
L 431.571364 29.921738 
L 431.571364 29.921738 
L 429.097721 29.413194 
L 426.624079 30.169301 
L 424.150436 29.664103 
L 421.676794 29.870893 
L 419.203151 30.051041 
L 416.729509 29.866129 
L 414.255866 29.682339 
L 411.782224 29.504814 
L 409.308581 29.575672 
L 406.834939 28.874904 
L 404.361297 29.468357 
L 401.887654 29.83352 
L 399.414012 29.978108 
L 396.940369 30.39186 
L 394.466727 30.129424 
L 391.993084 29.325922 
L 389.519442 30.468222 
L 387.045799 30.559763 
L 384.572157 31.668781 
L 382.098514 31.579909 
L 379.624872 30.948146 
L 377.151229 30.077757 
L 374.677587 31.242063 
L 372.203944 30.618552 
L 369.730302 32.087026 
L 367.25666 30.59038 
L 364.783017 31.16656 
L 362.309375 32.198324 
L 359.835732 33.243896 
L 357.36209 34.298835 
L 354.888447 32.521323 
L 352.414805 32.407138 
L 349.941162 30.313036 
L 347.46752 32.859101 
L 344.993877 32.086931 
L 342.520235 32.146883 
L 340.046592 33.098053 
L 337.57295 31.802307 
L 335.099308 32.285319 
L 332.625665 34.472668 
L 330.152023 34.947474 
L 327.67838 35.665684 
L 325.204738 33.70935 
L 322.731095 35.409298 
L 320.257453 35.895342 
L 317.78381 37.107734 
L 315.310168 33.498156 
L 312.836525 35.834697 
L 310.362883 36.850732 
L 307.88924 36.754926 
L 305.415598 34.881185 
L 302.941955 35.611116 
L 300.468313 33.932717 
L 297.994671 35.553228 
L 295.521028 35.935561 
L 293.047386 38.049388 
L 290.573743 36.494135 
L 288.100101 39.561889 
L 285.626458 38.852982 
L 283.152816 35.630581 
L 280.679173 40.274275 
L 278.205531 38.211645 
L 275.731888 41.657262 
L 273.258246 41.627886 
L 270.784603 41.929839 
L 268.310961 39.687883 
L 265.837318 40.539772 
L 263.363676 44.58553 
L 260.890034 42.128482 
L 258.416391 42.85595 
L 255.942749 39.433708 
L 253.469106 42.342908 
L 250.995464 43.069162 
L 248.521821 43.945541 
L 246.048179 42.321011 
L 243.574536 44.626941 
L 241.100894 41.66253 
L 238.627251 50.108501 
L 236.153609 46.554164 
L 233.679966 42.622379 
L 231.206324 43.757901 
L 228.732682 45.267043 
L 226.259039 46.945835 
L 223.785397 42.765913 
L 221.311754 49.733695 
L 218.838112 44.614251 
L 216.364469 51.956891 
L 213.890827 50.967637 
L 211.417184 51.518483 
L 208.943542 50.529557 
L 206.469899 45.177793 
L 203.996257 48.749075 
L 201.522614 48.005953 
L 199.048972 45.120005 
L 196.575329 46.996578 
L 194.101687 48.406844 
L 191.628045 51.613132 
L 189.154402 49.71061 
L 186.68076 47.814295 
L 184.207117 55.271158 
L 181.733475 48.444128 
L 179.259832 51.434543 
L 176.78619 54.674566 
L 174.312547 49.821062 
L 171.838905 56.049005 
L 169.365262 52.103129 
L 166.89162 52.334275 
L 164.417977 49.502691 
L 161.944335 55.395741 
L 159.470692 51.499722 
L 156.99705 52.945159 
L 154.523408 52.811646 
L 152.049765 51.088046 
L 149.576123 57.807892 
L 147.10248 60.616181 
L 144.628838 55.348947 
L 142.155195 56.599618 
L 139.681553 55.825798 
L 137.20791 52.926289 
L 134.734268 54.730917 
L 132.260625 57.394565 
L 129.786983 58.837349 
L 127.31334 64.299338 
L 124.839698 66.37709 
L 122.366056 66.514324 
L 119.892413 61.018944 
L 117.418771 64.154736 
L 114.945128 68.032921 
L 112.471486 67.633039 
L 109.997843 70.189111 
L 107.524201 62.096728 
L 105.050558 68.894576 
L 102.576916 73.539857 
L 100.103273 80.806577 
L 97.629631 82.000164 
L 95.155988 83.643822 
L 92.682346 82.424048 
L 90.208703 92.720468 
L 87.735061 96.431861 
L 85.261419 121.183857 
L 82.787776 124.859641 
L 80.314134 131.522789 
L 77.840491 149.827215 
L 75.366849 154.583224 
L 72.893206 178.083238 
L 70.419564 181.803902 
L 67.945921 201.34573 
L 65.472279 209.531719 
L 62.998636 239.659019 
z
" style="fill:#9467bd;fill-opacity:0.25;"/>
   </g>
   <g id="matplotlib.axis_1">
    <g id="xtick_1">
     <g id="line2d_1">
      <defs>
       <path d="M 0 0 
L 0 3.5 
" id="ma85242c41c" style="stroke:#000000;stroke-width:0.8;"/>
      </defs>
      <g>
       <use style="stroke:#000000;stroke-width:0.8;" x="62.998636" xlink:href="#ma85242c41c" y="303.64"/>
      </g>
     </g>
     <g id="text_1">
      <!-- 0 -->
      <g transform="translate(59.817386 318.238437)scale(0.1 -0.1)">
       <defs>
        <path d="M 31.78125 66.40625 
Q 24.171875 66.40625 20.328125 58.90625 
Q 16.5 51.421875 16.5 36.375 
Q 16.5 21.390625 20.328125 13.890625 
Q 24.171875 6.390625 31.78125 6.390625 
Q 39.453125 6.390625 43.28125 13.890625 
Q 47.125 21.390625 47.125 36.375 
Q 47.125 51.421875 43.28125 58.90625 
Q 39.453125 66.40625 31.78125 66.40625 
z
M 31.78125 74.21875 
Q 44.046875 74.21875 50.515625 64.515625 
Q 56.984375 54.828125 56.984375 36.375 
Q 56.984375 17.96875 50.515625 8.265625 
Q 44.046875 -1.421875 31.78125 -1.421875 
Q 19.53125 -1.421875 13.0625 8.265625 
Q 6.59375 17.96875 6.59375 36.375 
Q 6.59375 54.828125 13.0625 64.515625 
Q 19.53125 74.21875 31.78125 74.21875 
z
" id="DejaVuSans-48"/>
       </defs>
       <use xlink:href="#DejaVuSans-48"/>
      </g>
     </g>
    </g>
    <g id="xtick_2">
     <g id="line2d_2">
      <g>
       <use style="stroke:#000000;stroke-width:0.8;" x="112.471486" xlink:href="#ma85242c41c" y="303.64"/>
      </g>
     </g>
     <g id="text_2">
      <!-- 20 -->
      <g transform="translate(106.108986 318.238437)scale(0.1 -0.1)">
       <defs>
        <path d="M 19.1875 8.296875 
L 53.609375 8.296875 
L 53.609375 0 
L 7.328125 0 
L 7.328125 8.296875 
Q 12.9375 14.109375 22.625 23.890625 
Q 32.328125 33.6875 34.8125 36.53125 
Q 39.546875 41.84375 41.421875 45.53125 
Q 43.3125 49.21875 43.3125 52.78125 
Q 43.3125 58.59375 39.234375 62.25 
Q 35.15625 65.921875 28.609375 65.921875 
Q 23.96875 65.921875 18.8125 64.3125 
Q 13.671875 62.703125 7.8125 59.421875 
L 7.8125 69.390625 
Q 13.765625 71.78125 18.9375 73 
Q 24.125 74.21875 28.421875 74.21875 
Q 39.75 74.21875 46.484375 68.546875 
Q 53.21875 62.890625 53.21875 53.421875 
Q 53.21875 48.921875 51.53125 44.890625 
Q 49.859375 40.875 45.40625 35.40625 
Q 44.1875 33.984375 37.640625 27.21875 
Q 31.109375 20.453125 19.1875 8.296875 
z
" id="DejaVuSans-50"/>
       </defs>
       <use xlink:href="#DejaVuSans-50"/>
       <use x="63.623047" xlink:href="#DejaVuSans-48"/>
      </g>
     </g>
    </g>
    <g id="xtick_3">
     <g id="line2d_3">
      <g>
       <use style="stroke:#000000;stroke-width:0.8;" x="161.944335" xlink:href="#ma85242c41c" y="303.64"/>
      </g>
     </g>
     <g id="text_3">
      <!-- 40 -->
      <g transform="translate(155.581835 318.238437)scale(0.1 -0.1)">
       <defs>
        <path d="M 37.796875 64.3125 
L 12.890625 25.390625 
L 37.796875 25.390625 
z
M 35.203125 72.90625 
L 47.609375 72.90625 
L 47.609375 25.390625 
L 58.015625 25.390625 
L 58.015625 17.1875 
L 47.609375 17.1875 
L 47.609375 0 
L 37.796875 0 
L 37.796875 17.1875 
L 4.890625 17.1875 
L 4.890625 26.703125 
z
" id="DejaVuSans-52"/>
       </defs>
       <use xlink:href="#DejaVuSans-52"/>
       <use x="63.623047" xlink:href="#DejaVuSans-48"/>
      </g>
     </g>
    </g>
    <g id="xtick_4">
     <g id="line2d_4">
      <g>
       <use style="stroke:#000000;stroke-width:0.8;" x="211.417184" xlink:href="#ma85242c41c" y="303.64"/>
      </g>
     </g>
     <g id="text_4">
      <!-- 60 -->
      <g transform="translate(205.054684 318.238437)scale(0.1 -0.1)">
       <defs>
        <path d="M 33.015625 40.375 
Q 26.375 40.375 22.484375 35.828125 
Q 18.609375 31.296875 18.609375 23.390625 
Q 18.609375 15.53125 22.484375 10.953125 
Q 26.375 6.390625 33.015625 6.390625 
Q 39.65625 6.390625 43.53125 10.953125 
Q 47.40625 15.53125 47.40625 23.390625 
Q 47.40625 31.296875 43.53125 35.828125 
Q 39.65625 40.375 33.015625 40.375 
z
M 52.59375 71.296875 
L 52.59375 62.3125 
Q 48.875 64.0625 45.09375 64.984375 
Q 41.3125 65.921875 37.59375 65.921875 
Q 27.828125 65.921875 22.671875 59.328125 
Q 17.53125 52.734375 16.796875 39.40625 
Q 19.671875 43.65625 24.015625 45.921875 
Q 28.375 48.1875 33.59375 48.1875 
Q 44.578125 48.1875 50.953125 41.515625 
Q 57.328125 34.859375 57.328125 23.390625 
Q 57.328125 12.15625 50.6875 5.359375 
Q 44.046875 -1.421875 33.015625 -1.421875 
Q 20.359375 -1.421875 13.671875 8.265625 
Q 6.984375 17.96875 6.984375 36.375 
Q 6.984375 53.65625 15.1875 63.9375 
Q 23.390625 74.21875 37.203125 74.21875 
Q 40.921875 74.21875 44.703125 73.484375 
Q 48.484375 72.75 52.59375 71.296875 
z
" id="DejaVuSans-54"/>
       </defs>
       <use xlink:href="#DejaVuSans-54"/>
       <use x="63.623047" xlink:href="#DejaVuSans-48"/>
      </g>
     </g>
    </g>
    <g id="xtick_5">
     <g id="line2d_5">
      <g>
       <use style="stroke:#000000;stroke-width:0.8;" x="260.890034" xlink:href="#ma85242c41c" y="303.64"/>
      </g>
     </g>
     <g id="text_5">
      <!-- 80 -->
      <g transform="translate(254.527534 318.238437)scale(0.1 -0.1)">
       <defs>
        <path d="M 31.78125 34.625 
Q 24.75 34.625 20.71875 30.859375 
Q 16.703125 27.09375 16.703125 20.515625 
Q 16.703125 13.921875 20.71875 10.15625 
Q 24.75 6.390625 31.78125 6.390625 
Q 38.8125 6.390625 42.859375 10.171875 
Q 46.921875 13.96875 46.921875 20.515625 
Q 46.921875 27.09375 42.890625 30.859375 
Q 38.875 34.625 31.78125 34.625 
z
M 21.921875 38.8125 
Q 15.578125 40.375 12.03125 44.71875 
Q 8.5 49.078125 8.5 55.328125 
Q 8.5 64.0625 14.71875 69.140625 
Q 20.953125 74.21875 31.78125 74.21875 
Q 42.671875 74.21875 48.875 69.140625 
Q 55.078125 64.0625 55.078125 55.328125 
Q 55.078125 49.078125 51.53125 44.71875 
Q 48 40.375 41.703125 38.8125 
Q 48.828125 37.15625 52.796875 32.3125 
Q 56.78125 27.484375 56.78125 20.515625 
Q 56.78125 9.90625 50.3125 4.234375 
Q 43.84375 -1.421875 31.78125 -1.421875 
Q 19.734375 -1.421875 13.25 4.234375 
Q 6.78125 9.90625 6.78125 20.515625 
Q 6.78125 27.484375 10.78125 32.3125 
Q 14.796875 37.15625 21.921875 38.8125 
z
M 18.3125 54.390625 
Q 18.3125 48.734375 21.84375 45.5625 
Q 25.390625 42.390625 31.78125 42.390625 
Q 38.140625 42.390625 41.71875 45.5625 
Q 45.3125 48.734375 45.3125 54.390625 
Q 45.3125 60.0625 41.71875 63.234375 
Q 38.140625 66.40625 31.78125 66.40625 
Q 25.390625 66.40625 21.84375 63.234375 
Q 18.3125 60.0625 18.3125 54.390625 
z
" id="DejaVuSans-56"/>
       </defs>
       <use xlink:href="#DejaVuSans-56"/>
       <use x="63.623047" xlink:href="#DejaVuSans-48"/>
      </g>
     </g>
    </g>
    <g id="xtick_6">
     <g id="line2d_6">
      <g>
       <use style="stroke:#000000;stroke-width:0.8;" x="310.362883" xlink:href="#ma85242c41c" y="303.64"/>
      </g>
     </g>
     <g id="text_6">
      <!-- 100 -->
      <g transform="translate(300.819133 318.238437)scale(0.1 -0.1)">
       <defs>
        <path d="M 12.40625 8.296875 
L 28.515625 8.296875 
L 28.515625 63.921875 
L 10.984375 60.40625 
L 10.984375 69.390625 
L 28.421875 72.90625 
L 38.28125 72.90625 
L 38.28125 8.296875 
L 54.390625 8.296875 
L 54.390625 0 
L 12.40625 0 
z
" id="DejaVuSans-49"/>
       </defs>
       <use xlink:href="#DejaVuSans-49"/>
       <use x="63.623047" xlink:href="#DejaVuSans-48"/>
       <use x="127.246094" xlink:href="#DejaVuSans-48"/>
      </g>
     </g>
    </g>
    <g id="xtick_7">
     <g id="line2d_7">
      <g>
       <use style="stroke:#000000;stroke-width:0.8;" x="359.835732" xlink:href="#ma85242c41c" y="303.64"/>
      </g>
     </g>
     <g id="text_7">
      <!-- 120 -->
      <g transform="translate(350.291982 318.238437)scale(0.1 -0.1)">
       <use xlink:href="#DejaVuSans-49"/>
       <use x="63.623047" xlink:href="#DejaVuSans-50"/>
       <use x="127.246094" xlink:href="#DejaVuSans-48"/>
      </g>
     </g>
    </g>
    <g id="xtick_8">
     <g id="line2d_8">
      <g>
       <use style="stroke:#000000;stroke-width:0.8;" x="409.308581" xlink:href="#ma85242c41c" y="303.64"/>
      </g>
     </g>
     <g id="text_8">
      <!-- 140 -->
      <g transform="translate(399.764831 318.238437)scale(0.1 -0.1)">
       <use xlink:href="#DejaVuSans-49"/>
       <use x="63.623047" xlink:href="#DejaVuSans-52"/>
       <use x="127.246094" xlink:href="#DejaVuSans-48"/>
      </g>
     </g>
    </g>
    <g id="text_9">
     <!-- Epochs -->
     <g transform="translate(229.369375 331.916562)scale(0.1 -0.1)">
      <defs>
       <path d="M 9.8125 72.90625 
L 55.90625 72.90625 
L 55.90625 64.59375 
L 19.671875 64.59375 
L 19.671875 43.015625 
L 54.390625 43.015625 
L 54.390625 34.71875 
L 19.671875 34.71875 
L 19.671875 8.296875 
L 56.78125 8.296875 
L 56.78125 0 
L 9.8125 0 
z
" id="DejaVuSans-69"/>
       <path d="M 18.109375 8.203125 
L 18.109375 -20.796875 
L 9.078125 -20.796875 
L 9.078125 54.6875 
L 18.109375 54.6875 
L 18.109375 46.390625 
Q 20.953125 51.265625 25.265625 53.625 
Q 29.59375 56 35.59375 56 
Q 45.5625 56 51.78125 48.09375 
Q 58.015625 40.1875 58.015625 27.296875 
Q 58.015625 14.40625 51.78125 6.484375 
Q 45.5625 -1.421875 35.59375 -1.421875 
Q 29.59375 -1.421875 25.265625 0.953125 
Q 20.953125 3.328125 18.109375 8.203125 
z
M 48.6875 27.296875 
Q 48.6875 37.203125 44.609375 42.84375 
Q 40.53125 48.484375 33.40625 48.484375 
Q 26.265625 48.484375 22.1875 42.84375 
Q 18.109375 37.203125 18.109375 27.296875 
Q 18.109375 17.390625 22.1875 11.75 
Q 26.265625 6.109375 33.40625 6.109375 
Q 40.53125 6.109375 44.609375 11.75 
Q 48.6875 17.390625 48.6875 27.296875 
z
" id="DejaVuSans-112"/>
       <path d="M 30.609375 48.390625 
Q 23.390625 48.390625 19.1875 42.75 
Q 14.984375 37.109375 14.984375 27.296875 
Q 14.984375 17.484375 19.15625 11.84375 
Q 23.34375 6.203125 30.609375 6.203125 
Q 37.796875 6.203125 41.984375 11.859375 
Q 46.1875 17.53125 46.1875 27.296875 
Q 46.1875 37.015625 41.984375 42.703125 
Q 37.796875 48.390625 30.609375 48.390625 
z
M 30.609375 56 
Q 42.328125 56 49.015625 48.375 
Q 55.71875 40.765625 55.71875 27.296875 
Q 55.71875 13.875 49.015625 6.21875 
Q 42.328125 -1.421875 30.609375 -1.421875 
Q 18.84375 -1.421875 12.171875 6.21875 
Q 5.515625 13.875 5.515625 27.296875 
Q 5.515625 40.765625 12.171875 48.375 
Q 18.84375 56 30.609375 56 
z
" id="DejaVuSans-111"/>
       <path d="M 48.78125 52.59375 
L 48.78125 44.1875 
Q 44.96875 46.296875 41.140625 47.34375 
Q 37.3125 48.390625 33.40625 48.390625 
Q 24.65625 48.390625 19.8125 42.84375 
Q 14.984375 37.3125 14.984375 27.296875 
Q 14.984375 17.28125 19.8125 11.734375 
Q 24.65625 6.203125 33.40625 6.203125 
Q 37.3125 6.203125 41.140625 7.25 
Q 44.96875 8.296875 48.78125 10.40625 
L 48.78125 2.09375 
Q 45.015625 0.34375 40.984375 -0.53125 
Q 36.96875 -1.421875 32.421875 -1.421875 
Q 20.0625 -1.421875 12.78125 6.34375 
Q 5.515625 14.109375 5.515625 27.296875 
Q 5.515625 40.671875 12.859375 48.328125 
Q 20.21875 56 33.015625 56 
Q 37.15625 56 41.109375 55.140625 
Q 45.0625 54.296875 48.78125 52.59375 
z
" id="DejaVuSans-99"/>
       <path d="M 54.890625 33.015625 
L 54.890625 0 
L 45.90625 0 
L 45.90625 32.71875 
Q 45.90625 40.484375 42.875 44.328125 
Q 39.84375 48.1875 33.796875 48.1875 
Q 26.515625 48.1875 22.3125 43.546875 
Q 18.109375 38.921875 18.109375 30.90625 
L 18.109375 0 
L 9.078125 0 
L 9.078125 75.984375 
L 18.109375 75.984375 
L 18.109375 46.1875 
Q 21.34375 51.125 25.703125 53.5625 
Q 30.078125 56 35.796875 56 
Q 45.21875 56 50.046875 50.171875 
Q 54.890625 44.34375 54.890625 33.015625 
z
" id="DejaVuSans-104"/>
       <path d="M 44.28125 53.078125 
L 44.28125 44.578125 
Q 40.484375 46.53125 36.375 47.5 
Q 32.28125 48.484375 27.875 48.484375 
Q 21.1875 48.484375 17.84375 46.4375 
Q 14.5 44.390625 14.5 40.28125 
Q 14.5 37.15625 16.890625 35.375 
Q 19.28125 33.59375 26.515625 31.984375 
L 29.59375 31.296875 
Q 39.15625 29.25 43.1875 25.515625 
Q 47.21875 21.78125 47.21875 15.09375 
Q 47.21875 7.46875 41.1875 3.015625 
Q 35.15625 -1.421875 24.609375 -1.421875 
Q 20.21875 -1.421875 15.453125 -0.5625 
Q 10.6875 0.296875 5.421875 2 
L 5.421875 11.28125 
Q 10.40625 8.6875 15.234375 7.390625 
Q 20.0625 6.109375 24.8125 6.109375 
Q 31.15625 6.109375 34.5625 8.28125 
Q 37.984375 10.453125 37.984375 14.40625 
Q 37.984375 18.0625 35.515625 20.015625 
Q 33.0625 21.96875 24.703125 23.78125 
L 21.578125 24.515625 
Q 13.234375 26.265625 9.515625 29.90625 
Q 5.8125 33.546875 5.8125 39.890625 
Q 5.8125 47.609375 11.28125 51.796875 
Q 16.75 56 26.8125 56 
Q 31.78125 56 36.171875 55.265625 
Q 40.578125 54.546875 44.28125 53.078125 
z
" id="DejaVuSans-115"/>
      </defs>
      <use xlink:href="#DejaVuSans-69"/>
      <use x="63.183594" xlink:href="#DejaVuSans-112"/>
      <use x="126.660156" xlink:href="#DejaVuSans-111"/>
      <use x="187.841797" xlink:href="#DejaVuSans-99"/>
      <use x="242.822266" xlink:href="#DejaVuSans-104"/>
      <use x="306.201172" xlink:href="#DejaVuSans-115"/>
     </g>
    </g>
   </g>
   <g id="matplotlib.axis_2">
    <g id="ytick_1">
     <g id="line2d_9">
      <defs>
       <path d="M 0 0 
L -3.5 0 
" id="m6aac287252" style="stroke:#000000;stroke-width:0.8;"/>
      </defs>
      <g>
       <use style="stroke:#000000;stroke-width:0.8;" x="44.57" xlink:href="#m6aac287252" y="257.980965"/>
      </g>
     </g>
     <g id="text_10">
      <!-- 20 -->
      <g transform="translate(24.845 261.780184)scale(0.1 -0.1)">
       <use xlink:href="#DejaVuSans-50"/>
       <use x="63.623047" xlink:href="#DejaVuSans-48"/>
      </g>
     </g>
    </g>
    <g id="ytick_2">
     <g id="line2d_10">
      <g>
       <use style="stroke:#000000;stroke-width:0.8;" x="44.57" xlink:href="#m6aac287252" y="196.117351"/>
      </g>
     </g>
     <g id="text_11">
      <!-- 40 -->
      <g transform="translate(24.845 199.91657)scale(0.1 -0.1)">
       <use xlink:href="#DejaVuSans-52"/>
       <use x="63.623047" xlink:href="#DejaVuSans-48"/>
      </g>
     </g>
    </g>
    <g id="ytick_3">
     <g id="line2d_11">
      <g>
       <use style="stroke:#000000;stroke-width:0.8;" x="44.57" xlink:href="#m6aac287252" y="134.253736"/>
      </g>
     </g>
     <g id="text_12">
      <!-- 60 -->
      <g transform="translate(24.845 138.052955)scale(0.1 -0.1)">
       <use xlink:href="#DejaVuSans-54"/>
       <use x="63.623047" xlink:href="#DejaVuSans-48"/>
      </g>
     </g>
    </g>
    <g id="ytick_4">
     <g id="line2d_12">
      <g>
       <use style="stroke:#000000;stroke-width:0.8;" x="44.57" xlink:href="#m6aac287252" y="72.390121"/>
      </g>
     </g>
     <g id="text_13">
      <!-- 80 -->
      <g transform="translate(24.845 76.18934)scale(0.1 -0.1)">
       <use xlink:href="#DejaVuSans-56"/>
       <use x="63.623047" xlink:href="#DejaVuSans-48"/>
      </g>
     </g>
    </g>
    <g id="text_14">
     <!-- Test Accuracy (%) -->
     <g transform="translate(18.765313 201.723906)rotate(-90)scale(0.1 -0.1)">
      <defs>
       <path d="M -0.296875 72.90625 
L 61.375 72.90625 
L 61.375 64.59375 
L 35.5 64.59375 
L 35.5 0 
L 25.59375 0 
L 25.59375 64.59375 
L -0.296875 64.59375 
z
" id="DejaVuSans-84"/>
       <path d="M 56.203125 29.59375 
L 56.203125 25.203125 
L 14.890625 25.203125 
Q 15.484375 15.921875 20.484375 11.0625 
Q 25.484375 6.203125 34.421875 6.203125 
Q 39.59375 6.203125 44.453125 7.46875 
Q 49.3125 8.734375 54.109375 11.28125 
L 54.109375 2.78125 
Q 49.265625 0.734375 44.1875 -0.34375 
Q 39.109375 -1.421875 33.890625 -1.421875 
Q 20.796875 -1.421875 13.15625 6.1875 
Q 5.515625 13.8125 5.515625 26.8125 
Q 5.515625 40.234375 12.765625 48.109375 
Q 20.015625 56 32.328125 56 
Q 43.359375 56 49.78125 48.890625 
Q 56.203125 41.796875 56.203125 29.59375 
z
M 47.21875 32.234375 
Q 47.125 39.59375 43.09375 43.984375 
Q 39.0625 48.390625 32.421875 48.390625 
Q 24.90625 48.390625 20.390625 44.140625 
Q 15.875 39.890625 15.1875 32.171875 
z
" id="DejaVuSans-101"/>
       <path d="M 18.3125 70.21875 
L 18.3125 54.6875 
L 36.8125 54.6875 
L 36.8125 47.703125 
L 18.3125 47.703125 
L 18.3125 18.015625 
Q 18.3125 11.328125 20.140625 9.421875 
Q 21.96875 7.515625 27.59375 7.515625 
L 36.8125 7.515625 
L 36.8125 0 
L 27.59375 0 
Q 17.1875 0 13.234375 3.875 
Q 9.28125 7.765625 9.28125 18.015625 
L 9.28125 47.703125 
L 2.6875 47.703125 
L 2.6875 54.6875 
L 9.28125 54.6875 
L 9.28125 70.21875 
z
" id="DejaVuSans-116"/>
       <path id="DejaVuSans-32"/>
       <path d="M 34.1875 63.1875 
L 20.796875 26.90625 
L 47.609375 26.90625 
z
M 28.609375 72.90625 
L 39.796875 72.90625 
L 67.578125 0 
L 57.328125 0 
L 50.6875 18.703125 
L 17.828125 18.703125 
L 11.1875 0 
L 0.78125 0 
z
" id="DejaVuSans-65"/>
       <path d="M 8.5 21.578125 
L 8.5 54.6875 
L 17.484375 54.6875 
L 17.484375 21.921875 
Q 17.484375 14.15625 20.5 10.265625 
Q 23.53125 6.390625 29.59375 6.390625 
Q 36.859375 6.390625 41.078125 11.03125 
Q 45.3125 15.671875 45.3125 23.6875 
L 45.3125 54.6875 
L 54.296875 54.6875 
L 54.296875 0 
L 45.3125 0 
L 45.3125 8.40625 
Q 42.046875 3.421875 37.71875 1 
Q 33.40625 -1.421875 27.6875 -1.421875 
Q 18.265625 -1.421875 13.375 4.4375 
Q 8.5 10.296875 8.5 21.578125 
z
M 31.109375 56 
z
" id="DejaVuSans-117"/>
       <path d="M 41.109375 46.296875 
Q 39.59375 47.171875 37.8125 47.578125 
Q 36.03125 48 33.890625 48 
Q 26.265625 48 22.1875 43.046875 
Q 18.109375 38.09375 18.109375 28.8125 
L 18.109375 0 
L 9.078125 0 
L 9.078125 54.6875 
L 18.109375 54.6875 
L 18.109375 46.1875 
Q 20.953125 51.171875 25.484375 53.578125 
Q 30.03125 56 36.53125 56 
Q 37.453125 56 38.578125 55.875 
Q 39.703125 55.765625 41.0625 55.515625 
z
" id="DejaVuSans-114"/>
       <path d="M 34.28125 27.484375 
Q 23.390625 27.484375 19.1875 25 
Q 14.984375 22.515625 14.984375 16.5 
Q 14.984375 11.71875 18.140625 8.90625 
Q 21.296875 6.109375 26.703125 6.109375 
Q 34.1875 6.109375 38.703125 11.40625 
Q 43.21875 16.703125 43.21875 25.484375 
L 43.21875 27.484375 
z
M 52.203125 31.203125 
L 52.203125 0 
L 43.21875 0 
L 43.21875 8.296875 
Q 40.140625 3.328125 35.546875 0.953125 
Q 30.953125 -1.421875 24.3125 -1.421875 
Q 15.921875 -1.421875 10.953125 3.296875 
Q 6 8.015625 6 15.921875 
Q 6 25.140625 12.171875 29.828125 
Q 18.359375 34.515625 30.609375 34.515625 
L 43.21875 34.515625 
L 43.21875 35.40625 
Q 43.21875 41.609375 39.140625 45 
Q 35.0625 48.390625 27.6875 48.390625 
Q 23 48.390625 18.546875 47.265625 
Q 14.109375 46.140625 10.015625 43.890625 
L 10.015625 52.203125 
Q 14.9375 54.109375 19.578125 55.046875 
Q 24.21875 56 28.609375 56 
Q 40.484375 56 46.34375 49.84375 
Q 52.203125 43.703125 52.203125 31.203125 
z
" id="DejaVuSans-97"/>
       <path d="M 32.171875 -5.078125 
Q 28.375 -14.84375 24.75 -17.8125 
Q 21.140625 -20.796875 15.09375 -20.796875 
L 7.90625 -20.796875 
L 7.90625 -13.28125 
L 13.1875 -13.28125 
Q 16.890625 -13.28125 18.9375 -11.515625 
Q 21 -9.765625 23.484375 -3.21875 
L 25.09375 0.875 
L 2.984375 54.6875 
L 12.5 54.6875 
L 29.59375 11.921875 
L 46.6875 54.6875 
L 56.203125 54.6875 
z
" id="DejaVuSans-121"/>
       <path d="M 31 75.875 
Q 24.46875 64.65625 21.28125 53.65625 
Q 18.109375 42.671875 18.109375 31.390625 
Q 18.109375 20.125 21.3125 9.0625 
Q 24.515625 -2 31 -13.1875 
L 23.1875 -13.1875 
Q 15.875 -1.703125 12.234375 9.375 
Q 8.59375 20.453125 8.59375 31.390625 
Q 8.59375 42.28125 12.203125 53.3125 
Q 15.828125 64.359375 23.1875 75.875 
z
" id="DejaVuSans-40"/>
       <path d="M 72.703125 32.078125 
Q 68.453125 32.078125 66.03125 28.46875 
Q 63.625 24.859375 63.625 18.40625 
Q 63.625 12.0625 66.03125 8.421875 
Q 68.453125 4.78125 72.703125 4.78125 
Q 76.859375 4.78125 79.265625 8.421875 
Q 81.6875 12.0625 81.6875 18.40625 
Q 81.6875 24.8125 79.265625 28.4375 
Q 76.859375 32.078125 72.703125 32.078125 
z
M 72.703125 38.28125 
Q 80.421875 38.28125 84.953125 32.90625 
Q 89.5 27.546875 89.5 18.40625 
Q 89.5 9.28125 84.9375 3.921875 
Q 80.375 -1.421875 72.703125 -1.421875 
Q 64.890625 -1.421875 60.34375 3.921875 
Q 55.8125 9.28125 55.8125 18.40625 
Q 55.8125 27.59375 60.375 32.9375 
Q 64.9375 38.28125 72.703125 38.28125 
z
M 22.3125 68.015625 
Q 18.109375 68.015625 15.6875 64.375 
Q 13.28125 60.75 13.28125 54.390625 
Q 13.28125 47.953125 15.671875 44.328125 
Q 18.0625 40.71875 22.3125 40.71875 
Q 26.5625 40.71875 28.96875 44.328125 
Q 31.390625 47.953125 31.390625 54.390625 
Q 31.390625 60.6875 28.953125 64.34375 
Q 26.515625 68.015625 22.3125 68.015625 
z
M 66.40625 74.21875 
L 74.21875 74.21875 
L 28.609375 -1.421875 
L 20.796875 -1.421875 
z
M 22.3125 74.21875 
Q 30.03125 74.21875 34.609375 68.875 
Q 39.203125 63.53125 39.203125 54.390625 
Q 39.203125 45.171875 34.640625 39.84375 
Q 30.078125 34.515625 22.3125 34.515625 
Q 14.546875 34.515625 10.03125 39.859375 
Q 5.515625 45.21875 5.515625 54.390625 
Q 5.515625 63.484375 10.046875 68.84375 
Q 14.59375 74.21875 22.3125 74.21875 
z
" id="DejaVuSans-37"/>
       <path d="M 8.015625 75.875 
L 15.828125 75.875 
Q 23.140625 64.359375 26.78125 53.3125 
Q 30.421875 42.28125 30.421875 31.390625 
Q 30.421875 20.453125 26.78125 9.375 
Q 23.140625 -1.703125 15.828125 -13.1875 
L 8.015625 -13.1875 
Q 14.5 -2 17.703125 9.0625 
Q 20.90625 20.125 20.90625 31.390625 
Q 20.90625 42.671875 17.703125 53.65625 
Q 14.5 64.65625 8.015625 75.875 
z
" id="DejaVuSans-41"/>
      </defs>
      <use xlink:href="#DejaVuSans-84"/>
      <use x="44.083984" xlink:href="#DejaVuSans-101"/>
      <use x="105.607422" xlink:href="#DejaVuSans-115"/>
      <use x="157.707031" xlink:href="#DejaVuSans-116"/>
      <use x="196.916016" xlink:href="#DejaVuSans-32"/>
      <use x="228.703125" xlink:href="#DejaVuSans-65"/>
      <use x="295.361328" xlink:href="#DejaVuSans-99"/>
      <use x="350.341797" xlink:href="#DejaVuSans-99"/>
      <use x="405.322266" xlink:href="#DejaVuSans-117"/>
      <use x="468.701172" xlink:href="#DejaVuSans-114"/>
      <use x="509.814453" xlink:href="#DejaVuSans-97"/>
      <use x="571.09375" xlink:href="#DejaVuSans-99"/>
      <use x="626.074219" xlink:href="#DejaVuSans-121"/>
      <use x="685.253906" xlink:href="#DejaVuSans-32"/>
      <use x="717.041016" xlink:href="#DejaVuSans-40"/>
      <use x="756.054688" xlink:href="#DejaVuSans-37"/>
      <use x="851.074219" xlink:href="#DejaVuSans-41"/>
     </g>
    </g>
   </g>
   <g id="line2d_13">
    <path clip-path="url(#p7178141f03)" d="M 62.998636 278.400791 
L 65.472279 261.605787 
L 67.945921 248.4205 
L 70.419564 229.949015 
L 72.893206 205.889265 
L 75.366849 189.245294 
L 77.840491 167.254712 
L 80.314134 157.331764 
L 82.787776 136.171871 
L 85.261419 130.508088 
L 87.735061 111.296535 
L 90.208703 114.770322 
L 92.682346 108.970608 
L 95.155988 90.302779 
L 97.629631 95.860839 
L 100.103273 86.043614 
L 102.576916 82.418793 
L 105.050558 80.576176 
L 107.524201 69.852747 
L 109.997843 83.02293 
L 112.471486 74.595221 
L 114.945128 76.951355 
L 117.418771 76.528459 
L 119.892413 70.456883 
L 122.366056 73.477568 
L 124.839698 74.565014 
L 127.31334 71.574537 
L 129.786983 65.291513 
L 132.260625 69.490264 
L 134.734268 60.095936 
L 137.20791 63.328068 
L 139.681553 59.642834 
L 142.155195 67.798681 
L 144.628838 60.881314 
L 147.10248 58.343939 
L 149.576123 61.394831 
L 154.523408 56.863804 
L 156.99705 57.830423 
L 159.470692 68.312198 
L 161.944335 52.030709 
L 164.417977 53.752499 
L 166.89162 57.135666 
L 169.365262 55.353462 
L 171.838905 57.437734 
L 174.312547 59.67304 
L 176.78619 55.746151 
L 179.259832 53.510844 
L 181.733475 56.591942 
L 184.207117 54.809739 
L 186.68076 53.299397 
L 189.154402 53.812913 
L 191.628045 57.95125 
L 196.575329 52.967121 
L 199.048972 60.488625 
L 201.522614 50.278712 
L 203.996257 46.140375 
L 206.469899 49.765196 
L 208.943542 51.879675 
L 211.417184 53.541051 
L 213.890827 51.426572 
L 216.364469 45.32479 
L 218.838112 49.765196 
L 221.311754 50.701608 
L 226.259039 51.124504 
L 228.732682 48.828784 
L 231.206324 46.744512 
L 233.679966 47.167407 
L 236.153609 48.073613 
L 238.627251 51.215124 
L 241.100894 43.391552 
L 243.574536 44.75086 
L 246.048179 42.727001 
L 248.521821 45.022722 
L 250.995464 43.512379 
L 253.469106 44.025896 
L 255.942749 42.908243 
L 258.416391 39.978179 
L 260.890034 42.666588 
L 263.363676 44.690446 
L 265.837318 43.331138 
L 268.310961 41.186452 
L 270.784603 45.32479 
L 273.258246 48.224647 
L 275.731888 41.458314 
L 278.205531 38.43763 
L 280.679173 41.005211 
L 283.152816 39.796938 
L 285.626458 41.760382 
L 288.100101 45.475824 
L 290.573743 39.525076 
L 293.047386 39.132387 
L 295.521028 35.839841 
L 297.994671 42.364519 
L 300.468313 38.558457 
L 302.941955 38.135561 
L 305.415598 34.963843 
L 307.88924 36.443978 
L 310.362883 34.631568 
L 312.836525 35.990875 
L 315.310168 35.56798 
L 317.78381 36.172117 
L 320.257453 38.075148 
L 322.731095 36.685633 
L 325.204738 34.087844 
L 327.67838 34.99405 
L 330.152023 37.501218 
L 332.625665 36.23253 
L 335.099308 32.607709 
L 337.57295 36.746047 
L 340.046592 33.604535 
L 342.520235 32.909777 
L 344.993877 31.852538 
L 347.46752 32.879571 
L 349.941162 31.580676 
L 352.414805 33.030605 
L 354.888447 30.130748 
L 357.36209 32.486882 
L 359.835732 30.463023 
L 362.309375 31.610883 
L 364.783017 30.432816 
L 367.25666 29.466197 
L 369.730302 29.707852 
L 374.677587 28.650613 
L 377.151229 28.439165 
L 379.624872 27.955855 
L 382.098514 28.137096 
L 384.572157 27.200684 
L 389.519442 28.680819 
L 391.993084 26.989236 
L 394.466727 27.62358 
L 396.940369 27.804821 
L 399.414012 26.626754 
L 401.887654 26.898616 
L 404.361297 27.291305 
L 406.834939 28.046476 
L 409.308581 28.106889 
L 411.782224 27.351718 
L 414.255866 26.989236 
L 416.729509 27.502753 
L 419.203151 27.472546 
L 421.676794 26.596547 
L 424.150436 27.804821 
L 426.624079 27.04965 
L 429.097721 26.113238 
L 431.571364 27.230891 
L 431.571364 27.230891 
" style="fill:none;stroke:#1f77b4;stroke-linecap:square;stroke-width:1.5;"/>
   </g>
   <g id="line2d_14">
    <path clip-path="url(#p7178141f03)" d="M 62.998636 288.308636 
L 65.472279 273.326042 
L 67.945921 264.263989 
L 70.419564 243.360853 
L 72.893206 230.673979 
L 75.366849 208.796673 
L 77.840491 193.564873 
L 80.314134 185.12206 
L 82.787776 162.648169 
L 85.261419 149.71964 
L 90.208703 114.679702 
L 92.682346 102.234482 
L 95.155988 103.59379 
L 97.629631 91.933949 
L 100.103273 83.264585 
L 102.576916 83.838515 
L 105.050558 74.565014 
L 107.524201 80.878244 
L 109.997843 72.631776 
L 112.471486 81.331347 
L 114.945128 73.477568 
L 117.418771 69.369437 
L 119.892413 64.204067 
L 122.366056 69.369437 
L 124.839698 72.873431 
L 127.31334 60.126143 
L 129.786983 65.684202 
L 132.260625 66.590408 
L 134.734268 62.603104 
L 137.20791 57.739802 
L 139.681553 63.932205 
L 142.155195 62.512484 
L 144.628838 54.568084 
L 149.576123 59.67304 
L 152.049765 57.045045 
L 154.523408 58.52518 
L 156.99705 55.806565 
L 159.470692 54.749325 
L 161.944335 57.045045 
L 164.417977 54.386843 
L 166.89162 57.588768 
L 169.365262 65.412341 
L 171.838905 58.827249 
L 174.312547 53.93374 
L 179.259832 54.688911 
L 181.733475 49.91623 
L 184.207117 52.816087 
L 186.68076 53.178569 
L 189.154402 60.277177 
L 191.628045 57.830423 
L 194.101687 52.816087 
L 196.575329 50.218299 
L 199.048972 53.238983 
L 201.522614 50.97347 
L 203.996257 46.653891 
L 206.469899 50.248505 
L 208.943542 49.3423 
L 211.417184 49.523541 
L 213.890827 51.698434 
L 216.364469 50.157885 
L 218.838112 47.892372 
L 221.311754 50.097471 
L 223.785397 45.32479 
L 226.259039 50.39954 
L 231.206324 46.442443 
L 233.679966 43.512379 
L 236.153609 46.412236 
L 238.627251 54.839946 
L 241.100894 44.992515 
L 243.574536 45.203963 
L 246.048179 43.754034 
L 248.521821 49.553748 
L 250.995464 42.847829 
L 253.469106 42.092658 
L 255.942749 44.297757 
L 258.416391 41.760382 
L 260.890034 41.548935 
L 263.363676 44.327964 
L 265.837318 42.183278 
L 268.310961 46.170582 
L 270.784603 46.412236 
L 273.258246 48.436095 
L 275.731888 42.364519 
L 278.205531 39.615697 
L 280.679173 40.431281 
L 283.152816 42.092658 
L 285.626458 40.219833 
L 288.100101 40.008386 
L 290.573743 41.911417 
L 293.047386 39.132387 
L 295.521028 41.760382 
L 297.994671 39.162594 
L 300.468313 40.401075 
L 302.941955 43.723827 
L 305.415598 40.793764 
L 307.88924 39.796938 
L 310.362883 40.370868 
L 312.836525 39.343835 
L 315.310168 39.10218 
L 317.78381 40.280247 
L 320.257453 39.67611 
L 322.731095 38.951146 
L 325.204738 38.014734 
L 327.67838 35.356532 
L 332.625665 35.900255 
L 335.099308 33.393087 
L 337.57295 34.42012 
L 340.046592 33.906603 
L 344.993877 34.238879 
L 347.46752 34.208672 
L 349.941162 35.296118 
L 352.414805 33.483707 
L 354.888447 33.453501 
L 357.36209 34.691981 
L 359.835732 32.245227 
L 362.309375 33.725362 
L 364.783017 32.245227 
L 367.25666 32.758743 
L 369.730302 33.000398 
L 372.203944 32.668123 
L 374.677587 32.547295 
L 377.151229 31.912952 
L 379.624872 31.429642 
L 387.045799 32.033779 
L 389.519442 32.003572 
L 391.993084 30.674471 
L 394.466727 31.792124 
L 396.940369 31.520263 
L 399.414012 31.973365 
L 401.887654 31.852538 
L 404.361297 32.728536 
L 406.834939 31.882745 
L 414.255866 30.191162 
L 416.729509 31.64109 
L 419.203151 30.523437 
L 421.676794 31.490056 
L 424.150436 31.429642 
L 426.624079 31.973365 
L 429.097721 31.308815 
L 431.571364 32.094193 
L 431.571364 32.094193 
" style="fill:none;stroke:#ff7f0e;stroke-linecap:square;stroke-width:1.5;"/>
   </g>
   <g id="line2d_15">
    <path clip-path="url(#p7178141f03)" d="M 62.998636 264.988953 
L 65.472279 253.517904 
L 67.945921 246.268262 
L 70.419564 232.969699 
L 72.893206 214.490663 
L 75.366849 200.225481 
L 77.840491 191.767565 
L 80.314134 185.031439 
L 82.787776 168.206228 
L 85.261419 161.666446 
L 87.735061 144.040753 
L 90.208703 137.395248 
L 92.682346 129.511262 
L 95.155988 125.79582 
L 97.629631 114.558874 
L 100.103273 103.926066 
L 102.576916 102.627171 
L 105.050558 92.68912 
L 107.524201 88.852851 
L 109.997843 88.1883 
L 112.471486 83.717688 
L 114.945128 91.088157 
L 117.418771 89.759056 
L 119.892413 74.081705 
L 122.366056 82.781275 
L 124.839698 85.31865 
L 127.31334 75.289978 
L 129.786983 74.444187 
L 132.260625 78.793972 
L 134.734268 73.35674 
L 137.20791 66.590408 
L 139.681553 70.094401 
L 142.155195 65.653995 
L 144.628838 60.790694 
L 147.10248 65.502961 
L 149.576123 69.188196 
L 152.049765 59.401179 
L 154.523408 61.334417 
L 156.99705 63.660344 
L 159.470692 57.830423 
L 161.944335 60.669866 
L 164.417977 57.830423 
L 166.89162 57.558561 
L 169.365262 59.552213 
L 171.838905 65.502961 
L 174.312547 58.615801 
L 176.78619 60.035523 
L 179.259832 57.347114 
L 181.733475 54.839946 
L 184.207117 59.975109 
L 186.68076 53.420224 
L 189.154402 55.836771 
L 191.628045 56.863804 
L 194.101687 55.927392 
L 196.575329 52.725467 
L 199.048972 54.205602 
L 201.522614 53.057742 
L 203.996257 51.305745 
L 206.469899 52.665053 
L 208.943542 49.432921 
L 211.417184 56.80339 
L 213.890827 47.862165 
L 216.364469 57.528355 
L 218.838112 51.215124 
L 221.311754 51.245331 
L 223.785397 50.218299 
L 226.259039 52.423398 
L 228.732682 52.423398 
L 231.206324 50.550574 
L 233.679966 47.982992 
L 238.627251 51.63802 
L 241.100894 47.076787 
L 243.574536 46.110168 
L 246.048179 46.925753 
L 248.521821 46.653891 
L 250.995464 47.469476 
L 253.469106 46.442443 
L 255.942749 48.919404 
L 258.416391 46.170582 
L 260.890034 43.995689 
L 263.363676 48.919404 
L 265.837318 42.45514 
L 268.310961 43.844655 
L 270.784603 47.922578 
L 273.258246 43.995689 
L 275.731888 43.784241 
L 278.205531 40.431281 
L 280.679173 45.234169 
L 283.152816 41.820796 
L 285.626458 43.603 
L 288.100101 42.575967 
L 290.573743 42.968656 
L 293.047386 42.847829 
L 295.521028 45.143549 
L 297.994671 41.820796 
L 300.468313 37.652252 
L 302.941955 41.851003 
L 305.415598 40.793764 
L 307.88924 39.978179 
L 310.362883 39.736524 
L 312.836525 39.67611 
L 315.310168 39.978179 
L 317.78381 40.401075 
L 320.257453 38.286596 
L 322.731095 38.43763 
L 325.204738 37.048115 
L 327.67838 36.081496 
L 330.152023 40.763557 
L 332.625665 36.927288 
L 335.099308 37.440804 
L 337.57295 36.897081 
L 340.046592 36.987701 
L 342.520235 36.383564 
L 344.993877 36.413771 
L 347.46752 37.95432 
L 349.941162 35.054463 
L 354.888447 33.513914 
L 357.36209 33.93681 
L 359.835732 34.238879 
L 362.309375 33.030605 
L 364.783017 34.691981 
L 367.25666 33.453501 
L 369.730302 34.208672 
L 372.203944 31.852538 
L 374.677587 32.154606 
L 377.151229 31.278608 
L 379.624872 32.245227 
L 382.098514 30.795298 
L 384.572157 31.912952 
L 389.519442 31.64109 
L 391.993084 31.097367 
L 394.466727 31.308815 
L 396.940369 30.946333 
L 399.414012 30.372403 
L 401.887654 30.130748 
L 404.361297 31.097367 
L 406.834939 31.369228 
L 409.308581 30.704678 
L 411.782224 30.765092 
L 416.729509 30.372403 
L 419.203151 30.251575 
L 421.676794 30.463023 
L 424.150436 29.9193 
L 426.624079 30.553644 
L 429.097721 30.795298 
L 431.571364 30.281782 
L 431.571364 30.281782 
" style="fill:none;stroke:#2ca02c;stroke-linecap:square;stroke-width:1.5;"/>
   </g>
   <g id="line2d_16">
    <path clip-path="url(#p7178141f03)" d="M 62.998636 275.25928 
L 65.472279 247.952294 
L 67.945921 237.198657 
L 70.419564 219.920343 
L 72.893206 200.844722 
L 75.366849 192.734184 
L 77.840491 178.582278 
L 80.314134 172.284152 
L 82.787776 146.819783 
L 85.261419 144.675097 
L 87.735061 127.004094 
L 90.208703 122.624101 
L 92.682346 116.492112 
L 95.155988 99.848142 
L 97.629631 95.317115 
L 100.103273 86.526924 
L 102.576916 87.493543 
L 105.050558 88.218507 
L 107.524201 72.390121 
L 109.997843 77.797146 
L 112.471486 74.293153 
L 114.945128 76.739907 
L 117.418771 75.07853 
L 119.892413 69.24861 
L 122.366056 72.994258 
L 124.839698 67.073717 
L 127.31334 66.197719 
L 129.786983 71.846398 
L 134.734268 62.391656 
L 137.20791 63.811378 
L 139.681553 58.857456 
L 142.155195 61.998967 
L 144.628838 59.642834 
L 147.10248 59.09911 
L 149.576123 66.590408 
L 152.049765 63.781171 
L 154.523408 56.018012 
L 156.99705 58.494974 
L 159.470692 57.921044 
L 161.944335 60.428212 
L 164.417977 58.887663 
L 166.89162 54.568084 
L 169.365262 55.746151 
L 171.838905 62.119795 
L 174.312547 61.274003 
L 176.78619 56.380495 
L 179.259832 56.13884 
L 181.733475 57.437734 
L 184.207117 55.0816 
L 186.68076 53.752499 
L 189.154402 53.148362 
L 191.628045 58.374146 
L 194.101687 57.649182 
L 196.575329 50.188092 
L 199.048972 52.78588 
L 201.522614 50.339126 
L 203.996257 49.523541 
L 206.469899 53.722292 
L 208.943542 48.76837 
L 211.417184 52.906708 
L 213.890827 52.997328 
L 216.364469 51.879675 
L 218.838112 48.707956 
L 221.311754 55.353462 
L 223.785397 47.469476 
L 226.259039 53.661879 
L 228.732682 48.738163 
L 231.206324 48.949611 
L 233.679966 47.348648 
L 236.153609 48.979818 
L 238.627251 52.21195 
L 241.100894 49.040232 
L 243.574536 46.684098 
L 246.048179 45.113342 
L 248.521821 46.986166 
L 250.995464 45.657065 
L 253.469106 44.84148 
L 255.942749 46.230995 
L 258.416391 42.364519 
L 260.890034 42.575967 
L 263.363676 46.95596 
L 265.837318 45.234169 
L 268.310961 48.738163 
L 270.784603 49.281886 
L 273.258246 48.707956 
L 275.731888 44.781067 
L 278.205531 44.509205 
L 280.679173 42.878036 
L 283.152816 39.978179 
L 285.626458 43.149897 
L 288.100101 45.687272 
L 290.573743 45.596652 
L 293.047386 40.884384 
L 295.521028 41.669762 
L 297.994671 37.8637 
L 300.468313 41.97183 
L 302.941955 43.02907 
L 305.415598 37.652252 
L 307.88924 39.796938 
L 310.362883 36.927288 
L 312.836525 35.416945 
L 315.310168 38.195975 
L 317.78381 41.518728 
L 320.257453 39.796938 
L 322.731095 37.138735 
L 325.204738 37.591838 
L 327.67838 36.504392 
L 330.152023 38.52825 
L 332.625665 37.591838 
L 335.099308 35.960669 
L 337.57295 34.691981 
L 340.046592 36.202323 
L 342.520235 34.450326 
L 344.993877 34.540947 
L 347.46752 36.685633 
L 349.941162 35.6586 
L 352.414805 34.057638 
L 354.888447 33.121225 
L 357.36209 34.208672 
L 359.835732 32.396261 
L 362.309375 31.490056 
L 364.783017 31.761917 
L 367.25666 32.758743 
L 369.730302 31.399435 
L 372.203944 30.281782 
L 374.677587 32.094193 
L 377.151229 32.547295 
L 379.624872 30.342196 
L 382.098514 31.55047 
L 384.572157 30.765092 
L 387.045799 30.855712 
L 389.519442 31.610883 
L 391.993084 31.006746 
L 394.466727 31.852538 
L 396.940369 30.130748 
L 399.414012 30.946333 
L 401.887654 31.278608 
L 404.361297 31.218194 
L 406.834939 31.278608 
L 409.308581 31.792124 
L 411.782224 31.852538 
L 414.255866 31.127574 
L 416.729509 31.036953 
L 419.203151 31.097367 
L 421.676794 30.885919 
L 424.150436 31.64109 
L 426.624079 31.55047 
L 429.097721 31.097367 
L 431.571364 31.490056 
L 431.571364 31.490056 
" style="fill:none;stroke:#d62728;stroke-linecap:square;stroke-width:1.5;"/>
   </g>
   <g id="line2d_17">
    <path clip-path="url(#p7178141f03)" d="M 62.998636 252.067976 
L 65.472279 225.365127 
L 67.945921 219.799516 
L 70.419564 194.909077 
L 72.893206 188.988536 
L 75.366849 166.288093 
L 77.840491 162.39141 
L 80.314134 149.749847 
L 82.787776 140.506553 
L 85.261419 133.287117 
L 87.735061 120.600243 
L 90.208703 102.717792 
L 92.682346 93.534912 
L 95.155988 93.655739 
L 97.629631 91.088157 
L 100.103273 86.285269 
L 102.576916 82.297966 
L 105.050558 74.776462 
L 107.524201 70.336056 
L 109.997843 78.220042 
L 112.471486 73.386947 
L 114.945128 74.927496 
L 117.418771 73.205706 
L 119.892413 65.382134 
L 122.366056 72.752604 
L 124.839698 75.894115 
L 127.31334 67.436199 
L 129.786983 65.382134 
L 132.260625 64.264481 
L 134.734268 59.944902 
L 137.20791 61.30421 
L 139.681553 61.153176 
L 142.155195 62.361449 
L 144.628838 58.887663 
L 147.10248 65.291513 
L 149.576123 63.569723 
L 152.049765 60.579246 
L 154.523408 60.518832 
L 159.470692 56.078426 
L 161.944335 57.165872 
L 164.417977 55.836771 
L 166.89162 55.685737 
L 169.365262 55.897185 
L 171.838905 61.274003 
L 174.312547 54.839946 
L 176.78619 58.43456 
L 179.259832 58.585594 
L 181.733475 55.142014 
L 184.207117 58.887663 
L 186.68076 53.118156 
L 189.154402 54.326429 
L 191.628045 54.870152 
L 194.101687 50.792229 
L 196.575329 52.030709 
L 199.048972 52.78588 
L 201.522614 50.339126 
L 203.996257 51.335952 
L 206.469899 49.130852 
L 208.943542 55.142014 
L 211.417184 57.528355 
L 213.890827 53.238983 
L 216.364469 56.320081 
L 218.838112 47.137201 
L 221.311754 51.849468 
L 223.785397 50.308919 
L 226.259039 51.5474 
L 228.732682 48.345474 
L 231.206324 46.351823 
L 233.679966 48.526715 
L 236.153609 53.873327 
L 238.627251 51.426572 
L 241.100894 43.180104 
L 243.574536 47.137201 
L 246.048179 45.928927 
L 248.521821 48.073613 
L 250.995464 44.448792 
L 253.469106 44.992515 
L 255.942749 42.485347 
L 258.416391 46.110168 
L 260.890034 44.237344 
L 263.363676 46.986166 
L 265.837318 44.207137 
L 268.310961 42.394726 
L 270.784603 45.536238 
L 273.258246 46.442443 
L 275.731888 45.203963 
L 278.205531 43.240518 
L 280.679173 43.180104 
L 283.152816 40.008386 
L 285.626458 42.243692 
L 288.100101 42.666588 
L 290.573743 40.280247 
L 293.047386 40.099006 
L 295.521028 40.854177 
L 297.994671 38.467837 
L 300.468313 37.501218 
L 302.941955 38.498043 
L 305.415598 37.168942 
L 307.88924 39.525076 
L 310.362883 38.498043 
L 312.836525 38.498043 
L 315.310168 36.111703 
L 317.78381 39.978179 
L 320.257453 38.498043 
L 325.204738 36.595012 
L 327.67838 38.044941 
L 330.152023 37.742872 
L 332.625665 38.014734 
L 335.099308 36.987701 
L 337.57295 34.933636 
L 340.046592 35.688807 
L 342.520235 34.631568 
L 347.46752 34.540947 
L 349.941162 33.36288 
L 352.414805 34.540947 
L 354.888447 34.027431 
L 357.36209 35.296118 
L 359.835732 34.480533 
L 362.309375 33.84619 
L 364.783017 33.604535 
L 367.25666 33.242053 
L 369.730302 33.93681 
L 372.203944 32.849364 
L 374.677587 33.332673 
L 377.151229 33.393087 
L 379.624872 32.456675 
L 382.098514 33.36288 
L 384.572157 33.483707 
L 387.045799 31.973365 
L 389.519442 32.396261 
L 391.993084 31.822331 
L 396.940369 31.882745 
L 399.414012 31.399435 
L 401.887654 31.339022 
L 404.361297 30.946333 
L 409.308581 31.55047 
L 411.782224 31.399435 
L 414.255866 31.429642 
L 416.729509 31.248401 
L 419.203151 31.55047 
L 421.676794 31.308815 
L 426.624079 31.64109 
L 429.097721 30.825505 
L 431.571364 31.792124 
L 431.571364 31.792124 
" style="fill:none;stroke:#9467bd;stroke-linecap:square;stroke-width:1.5;"/>
   </g>
   <g id="patch_3">
    <path d="M 44.57 303.64 
L 44.57 10.8 
" style="fill:none;stroke:#000000;stroke-linecap:square;stroke-linejoin:miter;stroke-width:0.8;"/>
   </g>
   <g id="patch_4">
    <path d="M 450 303.64 
L 450 10.8 
" style="fill:none;stroke:#000000;stroke-linecap:square;stroke-linejoin:miter;stroke-width:0.8;"/>
   </g>
   <g id="patch_5">
    <path d="M 44.57 303.64 
L 450 303.64 
" style="fill:none;stroke:#000000;stroke-linecap:square;stroke-linejoin:miter;stroke-width:0.8;"/>
   </g>
   <g id="patch_6">
    <path d="M 44.57 10.8 
L 450 10.8 
" style="fill:none;stroke:#000000;stroke-linecap:square;stroke-linejoin:miter;stroke-width:0.8;"/>
   </g>
   <g id="legend_1">
    <g id="patch_7">
     <path d="M 291.78125 298.64 
L 443 298.64 
Q 445 298.64 445 296.64 
L 445 224.249375 
Q 445 222.249375 443 222.249375 
L 291.78125 222.249375 
Q 289.78125 222.249375 289.78125 224.249375 
L 289.78125 296.64 
Q 289.78125 298.64 291.78125 298.64 
z
" style="fill:#ffffff;opacity:0.8;stroke:#cccccc;stroke-linejoin:miter;"/>
    </g>
    <g id="line2d_18">
     <path d="M 293.78125 230.347812 
L 313.78125 230.347812 
" style="fill:none;stroke:#1f77b4;stroke-linecap:square;stroke-width:1.5;"/>
    </g>
    <g id="line2d_19"/>
    <g id="text_15">
     <!-- AllReduce SGD -->
     <g transform="translate(321.78125 233.847812)scale(0.1 -0.1)">
      <defs>
       <path d="M 9.421875 75.984375 
L 18.40625 75.984375 
L 18.40625 0 
L 9.421875 0 
z
" id="DejaVuSans-108"/>
       <path d="M 44.390625 34.1875 
Q 47.5625 33.109375 50.5625 29.59375 
Q 53.5625 26.078125 56.59375 19.921875 
L 66.609375 0 
L 56 0 
L 46.6875 18.703125 
Q 43.0625 26.03125 39.671875 28.421875 
Q 36.28125 30.8125 30.421875 30.8125 
L 19.671875 30.8125 
L 19.671875 0 
L 9.8125 0 
L 9.8125 72.90625 
L 32.078125 72.90625 
Q 44.578125 72.90625 50.734375 67.671875 
Q 56.890625 62.453125 56.890625 51.90625 
Q 56.890625 45.015625 53.6875 40.46875 
Q 50.484375 35.9375 44.390625 34.1875 
z
M 19.671875 64.796875 
L 19.671875 38.921875 
L 32.078125 38.921875 
Q 39.203125 38.921875 42.84375 42.21875 
Q 46.484375 45.515625 46.484375 51.90625 
Q 46.484375 58.296875 42.84375 61.546875 
Q 39.203125 64.796875 32.078125 64.796875 
z
" id="DejaVuSans-82"/>
       <path d="M 45.40625 46.390625 
L 45.40625 75.984375 
L 54.390625 75.984375 
L 54.390625 0 
L 45.40625 0 
L 45.40625 8.203125 
Q 42.578125 3.328125 38.25 0.953125 
Q 33.9375 -1.421875 27.875 -1.421875 
Q 17.96875 -1.421875 11.734375 6.484375 
Q 5.515625 14.40625 5.515625 27.296875 
Q 5.515625 40.1875 11.734375 48.09375 
Q 17.96875 56 27.875 56 
Q 33.9375 56 38.25 53.625 
Q 42.578125 51.265625 45.40625 46.390625 
z
M 14.796875 27.296875 
Q 14.796875 17.390625 18.875 11.75 
Q 22.953125 6.109375 30.078125 6.109375 
Q 37.203125 6.109375 41.296875 11.75 
Q 45.40625 17.390625 45.40625 27.296875 
Q 45.40625 37.203125 41.296875 42.84375 
Q 37.203125 48.484375 30.078125 48.484375 
Q 22.953125 48.484375 18.875 42.84375 
Q 14.796875 37.203125 14.796875 27.296875 
z
" id="DejaVuSans-100"/>
       <path d="M 53.515625 70.515625 
L 53.515625 60.890625 
Q 47.90625 63.578125 42.921875 64.890625 
Q 37.9375 66.21875 33.296875 66.21875 
Q 25.25 66.21875 20.875 63.09375 
Q 16.5 59.96875 16.5 54.203125 
Q 16.5 49.359375 19.40625 46.890625 
Q 22.3125 44.4375 30.421875 42.921875 
L 36.375 41.703125 
Q 47.40625 39.59375 52.65625 34.296875 
Q 57.90625 29 57.90625 20.125 
Q 57.90625 9.515625 50.796875 4.046875 
Q 43.703125 -1.421875 29.984375 -1.421875 
Q 24.8125 -1.421875 18.96875 -0.25 
Q 13.140625 0.921875 6.890625 3.21875 
L 6.890625 13.375 
Q 12.890625 10.015625 18.65625 8.296875 
Q 24.421875 6.59375 29.984375 6.59375 
Q 38.421875 6.59375 43.015625 9.90625 
Q 47.609375 13.234375 47.609375 19.390625 
Q 47.609375 24.75 44.3125 27.78125 
Q 41.015625 30.8125 33.5 32.328125 
L 27.484375 33.5 
Q 16.453125 35.6875 11.515625 40.375 
Q 6.59375 45.0625 6.59375 53.421875 
Q 6.59375 63.09375 13.40625 68.65625 
Q 20.21875 74.21875 32.171875 74.21875 
Q 37.3125 74.21875 42.625 73.28125 
Q 47.953125 72.359375 53.515625 70.515625 
z
" id="DejaVuSans-83"/>
       <path d="M 59.515625 10.40625 
L 59.515625 29.984375 
L 43.40625 29.984375 
L 43.40625 38.09375 
L 69.28125 38.09375 
L 69.28125 6.78125 
Q 63.578125 2.734375 56.6875 0.65625 
Q 49.8125 -1.421875 42 -1.421875 
Q 24.90625 -1.421875 15.25 8.5625 
Q 5.609375 18.5625 5.609375 36.375 
Q 5.609375 54.25 15.25 64.234375 
Q 24.90625 74.21875 42 74.21875 
Q 49.125 74.21875 55.546875 72.453125 
Q 61.96875 70.703125 67.390625 67.28125 
L 67.390625 56.78125 
Q 61.921875 61.421875 55.765625 63.765625 
Q 49.609375 66.109375 42.828125 66.109375 
Q 29.4375 66.109375 22.71875 58.640625 
Q 16.015625 51.171875 16.015625 36.375 
Q 16.015625 21.625 22.71875 14.15625 
Q 29.4375 6.6875 42.828125 6.6875 
Q 48.046875 6.6875 52.140625 7.59375 
Q 56.25 8.5 59.515625 10.40625 
z
" id="DejaVuSans-71"/>
       <path d="M 19.671875 64.796875 
L 19.671875 8.109375 
L 31.59375 8.109375 
Q 46.6875 8.109375 53.6875 14.9375 
Q 60.6875 21.78125 60.6875 36.53125 
Q 60.6875 51.171875 53.6875 57.984375 
Q 46.6875 64.796875 31.59375 64.796875 
z
M 9.8125 72.90625 
L 30.078125 72.90625 
Q 51.265625 72.90625 61.171875 64.09375 
Q 71.09375 55.28125 71.09375 36.53125 
Q 71.09375 17.671875 61.125 8.828125 
Q 51.171875 0 30.078125 0 
L 9.8125 0 
z
" id="DejaVuSans-68"/>
      </defs>
      <use xlink:href="#DejaVuSans-65"/>
      <use x="68.408203" xlink:href="#DejaVuSans-108"/>
      <use x="96.191406" xlink:href="#DejaVuSans-108"/>
      <use x="123.974609" xlink:href="#DejaVuSans-82"/>
      <use x="188.957031" xlink:href="#DejaVuSans-101"/>
      <use x="250.480469" xlink:href="#DejaVuSans-100"/>
      <use x="313.957031" xlink:href="#DejaVuSans-117"/>
      <use x="377.335938" xlink:href="#DejaVuSans-99"/>
      <use x="432.316406" xlink:href="#DejaVuSans-101"/>
      <use x="493.839844" xlink:href="#DejaVuSans-32"/>
      <use x="525.626953" xlink:href="#DejaVuSans-83"/>
      <use x="589.103516" xlink:href="#DejaVuSans-71"/>
      <use x="666.59375" xlink:href="#DejaVuSans-68"/>
     </g>
    </g>
    <g id="line2d_20">
     <path d="M 293.78125 245.025937 
L 313.78125 245.025937 
" style="fill:none;stroke:#ff7f0e;stroke-linecap:square;stroke-width:1.5;"/>
    </g>
    <g id="line2d_21"/>
    <g id="text_16">
     <!-- QSGD-MN-TS (8,12) bits -->
     <g transform="translate(321.78125 248.525937)scale(0.1 -0.1)">
      <defs>
       <path d="M 39.40625 66.21875 
Q 28.65625 66.21875 22.328125 58.203125 
Q 16.015625 50.203125 16.015625 36.375 
Q 16.015625 22.609375 22.328125 14.59375 
Q 28.65625 6.59375 39.40625 6.59375 
Q 50.140625 6.59375 56.421875 14.59375 
Q 62.703125 22.609375 62.703125 36.375 
Q 62.703125 50.203125 56.421875 58.203125 
Q 50.140625 66.21875 39.40625 66.21875 
z
M 53.21875 1.3125 
L 66.21875 -12.890625 
L 54.296875 -12.890625 
L 43.5 -1.21875 
Q 41.890625 -1.3125 41.03125 -1.359375 
Q 40.1875 -1.421875 39.40625 -1.421875 
Q 24.03125 -1.421875 14.8125 8.859375 
Q 5.609375 19.140625 5.609375 36.375 
Q 5.609375 53.65625 14.8125 63.9375 
Q 24.03125 74.21875 39.40625 74.21875 
Q 54.734375 74.21875 63.90625 63.9375 
Q 73.09375 53.65625 73.09375 36.375 
Q 73.09375 23.6875 67.984375 14.640625 
Q 62.890625 5.609375 53.21875 1.3125 
z
" id="DejaVuSans-81"/>
       <path d="M 4.890625 31.390625 
L 31.203125 31.390625 
L 31.203125 23.390625 
L 4.890625 23.390625 
z
" id="DejaVuSans-45"/>
       <path d="M 9.8125 72.90625 
L 24.515625 72.90625 
L 43.109375 23.296875 
L 61.8125 72.90625 
L 76.515625 72.90625 
L 76.515625 0 
L 66.890625 0 
L 66.890625 64.015625 
L 48.09375 14.015625 
L 38.1875 14.015625 
L 19.390625 64.015625 
L 19.390625 0 
L 9.8125 0 
z
" id="DejaVuSans-77"/>
       <path d="M 9.8125 72.90625 
L 23.09375 72.90625 
L 55.421875 11.921875 
L 55.421875 72.90625 
L 64.984375 72.90625 
L 64.984375 0 
L 51.703125 0 
L 19.390625 60.984375 
L 19.390625 0 
L 9.8125 0 
z
" id="DejaVuSans-78"/>
       <path d="M 11.71875 12.40625 
L 22.015625 12.40625 
L 22.015625 4 
L 14.015625 -11.625 
L 7.71875 -11.625 
L 11.71875 4 
z
" id="DejaVuSans-44"/>
       <path d="M 48.6875 27.296875 
Q 48.6875 37.203125 44.609375 42.84375 
Q 40.53125 48.484375 33.40625 48.484375 
Q 26.265625 48.484375 22.1875 42.84375 
Q 18.109375 37.203125 18.109375 27.296875 
Q 18.109375 17.390625 22.1875 11.75 
Q 26.265625 6.109375 33.40625 6.109375 
Q 40.53125 6.109375 44.609375 11.75 
Q 48.6875 17.390625 48.6875 27.296875 
z
M 18.109375 46.390625 
Q 20.953125 51.265625 25.265625 53.625 
Q 29.59375 56 35.59375 56 
Q 45.5625 56 51.78125 48.09375 
Q 58.015625 40.1875 58.015625 27.296875 
Q 58.015625 14.40625 51.78125 6.484375 
Q 45.5625 -1.421875 35.59375 -1.421875 
Q 29.59375 -1.421875 25.265625 0.953125 
Q 20.953125 3.328125 18.109375 8.203125 
L 18.109375 0 
L 9.078125 0 
L 9.078125 75.984375 
L 18.109375 75.984375 
z
" id="DejaVuSans-98"/>
       <path d="M 9.421875 54.6875 
L 18.40625 54.6875 
L 18.40625 0 
L 9.421875 0 
z
M 9.421875 75.984375 
L 18.40625 75.984375 
L 18.40625 64.59375 
L 9.421875 64.59375 
z
" id="DejaVuSans-105"/>
      </defs>
      <use xlink:href="#DejaVuSans-81"/>
      <use x="78.710938" xlink:href="#DejaVuSans-83"/>
      <use x="142.1875" xlink:href="#DejaVuSans-71"/>
      <use x="219.677734" xlink:href="#DejaVuSans-68"/>
      <use x="296.679688" xlink:href="#DejaVuSans-45"/>
      <use x="332.763672" xlink:href="#DejaVuSans-77"/>
      <use x="419.042969" xlink:href="#DejaVuSans-78"/>
      <use x="493.847656" xlink:href="#DejaVuSans-45"/>
      <use x="520.806641" xlink:href="#DejaVuSans-84"/>
      <use x="581.890625" xlink:href="#DejaVuSans-83"/>
      <use x="645.367188" xlink:href="#DejaVuSans-32"/>
      <use x="677.154297" xlink:href="#DejaVuSans-40"/>
      <use x="716.167969" xlink:href="#DejaVuSans-56"/>
      <use x="779.791016" xlink:href="#DejaVuSans-44"/>
      <use x="811.578125" xlink:href="#DejaVuSans-49"/>
      <use x="875.201172" xlink:href="#DejaVuSans-50"/>
      <use x="938.824219" xlink:href="#DejaVuSans-41"/>
      <use x="977.837891" xlink:href="#DejaVuSans-32"/>
      <use x="1009.625" xlink:href="#DejaVuSans-98"/>
      <use x="1073.101562" xlink:href="#DejaVuSans-105"/>
      <use x="1100.884766" xlink:href="#DejaVuSans-116"/>
      <use x="1140.09375" xlink:href="#DejaVuSans-115"/>
     </g>
    </g>
    <g id="line2d_22">
     <path d="M 293.78125 259.704062 
L 313.78125 259.704062 
" style="fill:none;stroke:#2ca02c;stroke-linecap:square;stroke-width:1.5;"/>
    </g>
    <g id="line2d_23"/>
    <g id="text_17">
     <!-- QSGD-MN-TS (6,10) bits -->
     <g transform="translate(321.78125 263.204062)scale(0.1 -0.1)">
      <use xlink:href="#DejaVuSans-81"/>
      <use x="78.710938" xlink:href="#DejaVuSans-83"/>
      <use x="142.1875" xlink:href="#DejaVuSans-71"/>
      <use x="219.677734" xlink:href="#DejaVuSans-68"/>
      <use x="296.679688" xlink:href="#DejaVuSans-45"/>
      <use x="332.763672" xlink:href="#DejaVuSans-77"/>
      <use x="419.042969" xlink:href="#DejaVuSans-78"/>
      <use x="493.847656" xlink:href="#DejaVuSans-45"/>
      <use x="520.806641" xlink:href="#DejaVuSans-84"/>
      <use x="581.890625" xlink:href="#DejaVuSans-83"/>
      <use x="645.367188" xlink:href="#DejaVuSans-32"/>
      <use x="677.154297" xlink:href="#DejaVuSans-40"/>
      <use x="716.167969" xlink:href="#DejaVuSans-54"/>
      <use x="779.791016" xlink:href="#DejaVuSans-44"/>
      <use x="811.578125" xlink:href="#DejaVuSans-49"/>
      <use x="875.201172" xlink:href="#DejaVuSans-48"/>
      <use x="938.824219" xlink:href="#DejaVuSans-41"/>
      <use x="977.837891" xlink:href="#DejaVuSans-32"/>
      <use x="1009.625" xlink:href="#DejaVuSans-98"/>
      <use x="1073.101562" xlink:href="#DejaVuSans-105"/>
      <use x="1100.884766" xlink:href="#DejaVuSans-116"/>
      <use x="1140.09375" xlink:href="#DejaVuSans-115"/>
     </g>
    </g>
    <g id="line2d_24">
     <path d="M 293.78125 274.382187 
L 313.78125 274.382187 
" style="fill:none;stroke:#d62728;stroke-linecap:square;stroke-width:1.5;"/>
    </g>
    <g id="line2d_25"/>
    <g id="text_18">
     <!-- QSGD-MN-TS (4,8) bits -->
     <g transform="translate(321.78125 277.882187)scale(0.1 -0.1)">
      <use xlink:href="#DejaVuSans-81"/>
      <use x="78.710938" xlink:href="#DejaVuSans-83"/>
      <use x="142.1875" xlink:href="#DejaVuSans-71"/>
      <use x="219.677734" xlink:href="#DejaVuSans-68"/>
      <use x="296.679688" xlink:href="#DejaVuSans-45"/>
      <use x="332.763672" xlink:href="#DejaVuSans-77"/>
      <use x="419.042969" xlink:href="#DejaVuSans-78"/>
      <use x="493.847656" xlink:href="#DejaVuSans-45"/>
      <use x="520.806641" xlink:href="#DejaVuSans-84"/>
      <use x="581.890625" xlink:href="#DejaVuSans-83"/>
      <use x="645.367188" xlink:href="#DejaVuSans-32"/>
      <use x="677.154297" xlink:href="#DejaVuSans-40"/>
      <use x="716.167969" xlink:href="#DejaVuSans-52"/>
      <use x="779.791016" xlink:href="#DejaVuSans-44"/>
      <use x="811.578125" xlink:href="#DejaVuSans-56"/>
      <use x="875.201172" xlink:href="#DejaVuSans-41"/>
      <use x="914.214844" xlink:href="#DejaVuSans-32"/>
      <use x="946.001953" xlink:href="#DejaVuSans-98"/>
      <use x="1009.478516" xlink:href="#DejaVuSans-105"/>
      <use x="1037.261719" xlink:href="#DejaVuSans-116"/>
      <use x="1076.470703" xlink:href="#DejaVuSans-115"/>
     </g>
    </g>
    <g id="line2d_26">
     <path d="M 293.78125 289.060312 
L 313.78125 289.060312 
" style="fill:none;stroke:#9467bd;stroke-linecap:square;stroke-width:1.5;"/>
    </g>
    <g id="line2d_27"/>
    <g id="text_19">
     <!-- QSGD-MN-TS (2,6) bits -->
     <g transform="translate(321.78125 292.560312)scale(0.1 -0.1)">
      <use xlink:href="#DejaVuSans-81"/>
      <use x="78.710938" xlink:href="#DejaVuSans-83"/>
      <use x="142.1875" xlink:href="#DejaVuSans-71"/>
      <use x="219.677734" xlink:href="#DejaVuSans-68"/>
      <use x="296.679688" xlink:href="#DejaVuSans-45"/>
      <use x="332.763672" xlink:href="#DejaVuSans-77"/>
      <use x="419.042969" xlink:href="#DejaVuSans-78"/>
      <use x="493.847656" xlink:href="#DejaVuSans-45"/>
      <use x="520.806641" xlink:href="#DejaVuSans-84"/>
      <use x="581.890625" xlink:href="#DejaVuSans-83"/>
      <use x="645.367188" xlink:href="#DejaVuSans-32"/>
      <use x="677.154297" xlink:href="#DejaVuSans-40"/>
      <use x="716.167969" xlink:href="#DejaVuSans-50"/>
      <use x="779.791016" xlink:href="#DejaVuSans-44"/>
      <use x="811.578125" xlink:href="#DejaVuSans-54"/>
      <use x="875.201172" xlink:href="#DejaVuSans-41"/>
      <use x="914.214844" xlink:href="#DejaVuSans-32"/>
      <use x="946.001953" xlink:href="#DejaVuSans-98"/>
      <use x="1009.478516" xlink:href="#DejaVuSans-105"/>
      <use x="1037.261719" xlink:href="#DejaVuSans-116"/>
      <use x="1076.470703" xlink:href="#DejaVuSans-115"/>
     </g>
    </g>
   </g>
  </g>
 </g>
 <defs>
  <clipPath id="p7178141f03">
   <rect height="292.84" width="405.43" x="44.57" y="10.8"/>
  </clipPath>
 </defs>
</svg>
