<?xml version="1.0" encoding="utf-8" standalone="no"?>
<!DOCTYPE svg PUBLIC "-//W3C//DTD SVG 1.1//EN"
  "http://www.w3.org/Graphics/SVG/1.1/DTD/svg11.dtd">
<!-- Created with matplotlib (https://matplotlib.org/) -->
<svg height="345.6pt" version="1.1" viewBox="0 0 460.8 345.6" width="460.8pt" xmlns="http://www.w3.org/2000/svg" xmlns:xlink="http://www.w3.org/1999/xlink">
 <metadata>
  <rdf:RDF xmlns:cc="http://creativecommons.org/ns#" xmlns:dc="http://purl.org/dc/elements/1.1/" xmlns:rdf="http://www.w3.org/1999/02/22-rdf-syntax-ns#">
   <cc:Work>
    <dc:type rdf:resource="http://purl.org/dc/dcmitype/StillImage"/>
    <dc:date>2021-06-10T08:57:47.656823</dc:date>
    <dc:format>image/svg+xml</dc:format>
    <dc:creator>
     <cc:Agent>
      <dc:title>Matplotlib v3.3.1, https://matplotlib.org/</dc:title>
     </cc:Agent>
    </dc:creator>
   </cc:Work>
  </rdf:RDF>
 </metadata>
 <defs>
  <style type="text/css">*{stroke-linecap:butt;stroke-linejoin:round;}</style>
 </defs>
 <g id="figure_1">
  <g id="patch_1">
   <path d="M 0 345.6 
L 460.8 345.6 
L 460.8 0 
L 0 0 
z
" style="fill:#ffffff;"/>
  </g>
  <g id="axes_1">
   <g id="patch_2">
    <path d="M 44.57 303.64 
L 450 303.64 
L 450 10.8 
L 44.57 10.8 
z
" style="fill:#ffffff;"/>
   </g>
   <g id="PolyCollection_1">
    <path clip-path="url(#p8062669d37)" d="M 62.998636 268.541686 
L 62.998636 276.396184 
L 65.472279 262.97944 
L 67.945921 246.955901 
L 70.419564 236.603185 
L 72.893206 207.66635 
L 75.366849 169.057462 
L 77.840491 129.11682 
L 80.314134 121.000202 
L 82.787776 117.799894 
L 85.261419 89.85249 
L 87.735061 83.950033 
L 90.208703 94.85311 
L 92.682346 87.049285 
L 95.155988 80.896128 
L 97.629631 80.778725 
L 100.103273 67.667883 
L 102.576916 72.48651 
L 105.050558 66.663159 
L 107.524201 55.081346 
L 109.997843 73.544092 
L 112.471486 61.407837 
L 114.945128 64.961524 
L 117.418771 68.325465 
L 119.892413 70.707671 
L 122.366056 69.388992 
L 124.839698 59.136884 
L 127.31334 64.202323 
L 129.786983 59.114722 
L 132.260625 63.878593 
L 134.734268 53.577365 
L 137.20791 60.027315 
L 139.681553 60.153548 
L 142.155195 58.336678 
L 144.628838 57.502025 
L 147.10248 56.204534 
L 149.576123 60.267461 
L 152.049765 66.372628 
L 154.523408 67.538485 
L 156.99705 52.86398 
L 159.470692 65.438109 
L 161.944335 52.615367 
L 164.417977 50.344469 
L 166.89162 53.612162 
L 169.365262 53.779369 
L 171.838905 53.412138 
L 174.312547 51.0297 
L 176.78619 49.211604 
L 179.259832 53.230831 
L 181.733475 56.717876 
L 184.207117 52.998543 
L 186.68076 54.568731 
L 189.154402 57.219579 
L 191.628045 55.702695 
L 194.101687 54.844645 
L 196.575329 51.570452 
L 199.048972 47.898601 
L 201.522614 57.41322 
L 203.996257 63.133571 
L 206.469899 53.893789 
L 208.943542 42.88804 
L 211.417184 54.549628 
L 213.890827 50.799466 
L 216.364469 46.870441 
L 218.838112 48.013482 
L 221.311754 54.01758 
L 223.785397 55.805186 
L 226.259039 42.900088 
L 228.732682 52.105911 
L 231.206324 52.565967 
L 233.679966 46.126658 
L 236.153609 49.499377 
L 238.627251 51.185371 
L 241.100894 46.639888 
L 243.574536 50.525127 
L 246.048179 46.452009 
L 248.521821 49.232654 
L 250.995464 48.243445 
L 253.469106 45.430724 
L 255.942749 44.57069 
L 258.416391 44.425935 
L 260.890034 43.371553 
L 263.363676 42.813928 
L 265.837318 45.564475 
L 268.310961 46.578678 
L 270.784603 43.195648 
L 273.258246 48.746253 
L 275.731888 41.61185 
L 278.205531 42.490103 
L 280.679173 40.015393 
L 283.152816 42.709372 
L 285.626458 41.823348 
L 288.100101 46.840334 
L 290.573743 40.502487 
L 293.047386 44.153155 
L 295.521028 37.747337 
L 297.994671 39.123933 
L 300.468313 40.392388 
L 302.941955 38.374282 
L 305.415598 41.018511 
L 307.88924 38.902348 
L 310.362883 41.619282 
L 312.836525 38.447431 
L 315.310168 39.157872 
L 317.78381 35.869313 
L 320.257453 44.563704 
L 322.731095 37.91053 
L 325.204738 35.103943 
L 327.67838 36.547404 
L 330.152023 36.507646 
L 332.625665 34.303298 
L 335.099308 36.001313 
L 337.57295 37.694274 
L 340.046592 36.505034 
L 342.520235 35.55774 
L 344.993877 34.733944 
L 347.46752 37.491798 
L 349.941162 34.076835 
L 352.414805 33.462476 
L 354.888447 34.504715 
L 357.36209 33.405743 
L 359.835732 32.544282 
L 362.309375 33.287343 
L 364.783017 32.045464 
L 367.25666 30.432314 
L 369.730302 32.700158 
L 372.203944 32.642147 
L 374.677587 32.133996 
L 377.151229 33.469155 
L 379.624872 30.441238 
L 382.098514 30.427299 
L 384.572157 29.661952 
L 387.045799 30.497936 
L 389.519442 30.720082 
L 391.993084 30.625903 
L 394.466727 30.792379 
L 396.940369 31.245745 
L 399.414012 29.887824 
L 401.887654 31.008086 
L 404.361297 29.455415 
L 406.834939 31.139284 
L 409.308581 31.281379 
L 411.782224 30.915711 
L 414.255866 30.700125 
L 416.729509 29.567613 
L 419.203151 30.617853 
L 421.676794 30.558437 
L 424.150436 31.140012 
L 426.624079 30.321709 
L 429.097721 30.327287 
L 431.571364 30.442643 
L 431.571364 24.225404 
L 431.571364 24.225404 
L 429.097721 24.401475 
L 426.624079 24.346338 
L 424.150436 24.378038 
L 421.676794 24.77747 
L 419.203151 24.110909 
L 416.729509 24.918291 
L 414.255866 25.000069 
L 411.782224 25.027341 
L 409.308581 25.208104 
L 406.834939 26.260917 
L 404.361297 25.637634 
L 401.887654 25.481397 
L 399.414012 26.48023 
L 396.940369 25.972312 
L 394.466727 26.911395 
L 391.993084 26.592155 
L 389.519442 27.894409 
L 387.045799 25.445116 
L 384.572157 28.709682 
L 382.098514 27.519333 
L 379.624872 28.719684 
L 377.151229 28.181063 
L 374.677587 26.116209 
L 372.203944 28.036639 
L 369.730302 29.982207 
L 367.25666 27.939319 
L 364.783017 26.569027 
L 362.309375 30.487883 
L 359.835732 28.438076 
L 357.36209 29.944482 
L 354.888447 27.995506 
L 352.414805 30.737753 
L 349.941162 30.912682 
L 347.46752 30.229873 
L 344.993877 30.802004 
L 342.520235 29.917494 
L 340.046592 32.06664 
L 337.57295 30.027397 
L 335.099308 30.445353 
L 332.625665 31.171935 
L 330.152023 31.031882 
L 327.67838 31.842126 
L 325.204738 30.917721 
L 322.731095 31.693291 
L 320.257453 33.236579 
L 317.78381 31.913073 
L 315.310168 32.388814 
L 312.836525 34.617119 
L 310.362883 30.655979 
L 307.88924 32.219336 
L 305.415598 32.835327 
L 302.941955 34.99384 
L 300.468313 32.611447 
L 297.994671 35.276336 
L 295.521028 34.163636 
L 293.047386 33.464984 
L 290.573743 36.872794 
L 288.100101 36.545685 
L 285.626458 37.676941 
L 283.152816 33.208761 
L 280.679173 36.206312 
L 278.205531 38.467336 
L 275.731888 36.674149 
L 273.258246 37.614778 
L 270.784603 38.186792 
L 268.310961 36.625198 
L 265.837318 39.76441 
L 263.363676 36.807791 
L 260.890034 39.52875 
L 258.416391 40.842235 
L 255.942749 40.454621 
L 253.469106 35.405286 
L 250.995464 43.460465 
L 248.521821 36.703376 
L 246.048179 40.091166 
L 243.574536 41.54307 
L 241.100894 39.842572 
L 238.627251 40.579253 
L 236.153609 42.204532 
L 233.679966 39.930801 
L 231.206324 44.72368 
L 228.732682 39.294426 
L 226.259039 40.607361 
L 223.785397 42.516608 
L 221.311754 42.482778 
L 218.838112 34.097532 
L 216.364469 40.947739 
L 213.890827 46.975897 
L 211.417184 43.650736 
L 208.943542 39.222974 
L 206.469899 44.488719 
L 203.996257 50.184712 
L 201.522614 45.644307 
L 199.048972 40.344581 
L 196.575329 49.119208 
L 194.101687 43.416435 
L 191.628045 44.926251 
L 189.154402 44.441514 
L 186.68076 44.78521 
L 184.207117 44.230389 
L 181.733475 42.757494 
L 179.259832 43.390956 
L 176.78619 44.617315 
L 174.312547 43.102791 
L 171.838905 45.881088 
L 169.365262 42.720988 
L 166.89162 47.563215 
L 164.417977 45.245171 
L 161.944335 47.467148 
L 159.470692 53.344481 
L 156.99705 43.697092 
L 154.523408 46.265514 
L 152.049765 56.477836 
L 149.576123 53.900825 
L 147.10248 43.938696 
L 144.628838 45.859074 
L 142.155195 47.695861 
L 139.681553 46.00042 
L 137.20791 46.976657 
L 134.734268 49.540876 
L 132.260625 53.143275 
L 129.786983 53.353557 
L 127.31334 54.580267 
L 124.839698 51.570674 
L 122.366056 55.768624 
L 119.892413 51.83922 
L 117.418771 57.925012 
L 114.945128 47.44604 
L 112.471486 49.664008 
L 109.997843 58.352836 
L 107.524201 49.190472 
L 105.050558 49.812279 
L 102.576916 59.349704 
L 100.103273 53.786146 
L 97.629631 61.075386 
L 95.155988 67.940154 
L 92.682346 65.490583 
L 90.208703 70.436809 
L 87.735061 71.20056 
L 85.261419 73.069562 
L 82.787776 94.422356 
L 80.314134 106.52211 
L 77.840491 116.862709 
L 75.366849 132.536575 
L 72.893206 180.597678 
L 70.419564 208.277141 
L 67.945921 225.883466 
L 65.472279 240.915409 
L 62.998636 268.541686 
z
" style="fill:#1f77b4;fill-opacity:0.25;"/>
   </g>
   <g id="PolyCollection_2">
    <path clip-path="url(#p8062669d37)" d="M 62.998636 287.161851 
L 62.998636 287.647567 
L 65.472279 289.83329 
L 67.945921 285.149514 
L 70.419564 280.700703 
L 72.893206 276.620665 
L 75.366849 258.886869 
L 77.840491 224.674015 
L 80.314134 220.617246 
L 82.787776 206.532081 
L 85.261419 196.527201 
L 87.735061 132.025672 
L 90.208703 122.00484 
L 92.682346 121.159781 
L 95.155988 104.888685 
L 97.629631 75.89377 
L 100.103273 86.261623 
L 102.576916 89.920992 
L 105.050558 80.311035 
L 107.524201 69.475395 
L 109.997843 72.983722 
L 112.471486 66.097374 
L 114.945128 66.527493 
L 117.418771 80.088813 
L 119.892413 63.819342 
L 122.366056 71.325462 
L 124.839698 69.635441 
L 127.31334 67.629779 
L 129.786983 61.65486 
L 132.260625 70.299821 
L 134.734268 62.315798 
L 137.20791 60.680683 
L 139.681553 58.85485 
L 142.155195 60.044396 
L 144.628838 68.045909 
L 147.10248 58.046767 
L 149.576123 62.982878 
L 152.049765 64.797397 
L 154.523408 62.047687 
L 156.99705 54.828059 
L 159.470692 60.667164 
L 161.944335 53.196453 
L 164.417977 57.913499 
L 166.89162 56.809008 
L 169.365262 59.286585 
L 171.838905 65.851372 
L 174.312547 66.792523 
L 176.78619 52.84383 
L 179.259832 55.515033 
L 181.733475 58.875414 
L 184.207117 52.439092 
L 186.68076 65.50887 
L 189.154402 48.004835 
L 191.628045 67.564924 
L 194.101687 52.454867 
L 196.575329 59.299094 
L 199.048972 49.40202 
L 201.522614 51.876724 
L 203.996257 54.372326 
L 206.469899 50.749927 
L 208.943542 46.428034 
L 211.417184 58.515421 
L 213.890827 58.152522 
L 216.364469 58.0387 
L 218.838112 45.384423 
L 221.311754 56.405588 
L 223.785397 55.265216 
L 226.259039 47.087257 
L 228.732682 50.503259 
L 231.206324 54.255763 
L 233.679966 54.041278 
L 236.153609 52.462244 
L 238.627251 54.860761 
L 241.100894 47.483116 
L 243.574536 49.108719 
L 246.048179 47.239155 
L 248.521821 45.416967 
L 250.995464 51.115398 
L 253.469106 45.194257 
L 255.942749 47.816737 
L 258.416391 48.115863 
L 260.890034 41.835678 
L 263.363676 47.473429 
L 265.837318 42.900174 
L 268.310961 48.125686 
L 270.784603 43.994888 
L 273.258246 50.640331 
L 275.731888 41.64827 
L 278.205531 44.528592 
L 280.679173 39.551495 
L 283.152816 44.37249 
L 285.626458 41.278965 
L 288.100101 43.679157 
L 290.573743 43.50411 
L 293.047386 40.500319 
L 295.521028 39.979869 
L 297.994671 41.272791 
L 300.468313 43.914904 
L 302.941955 40.986338 
L 305.415598 41.354826 
L 307.88924 42.052234 
L 310.362883 40.053975 
L 312.836525 39.208612 
L 315.310168 37.935024 
L 317.78381 36.838014 
L 320.257453 39.692821 
L 322.731095 38.407002 
L 325.204738 39.638392 
L 327.67838 37.741502 
L 330.152023 36.994916 
L 332.625665 38.416593 
L 335.099308 41.212407 
L 337.57295 37.548893 
L 340.046592 37.073027 
L 342.520235 38.433869 
L 344.993877 32.387704 
L 347.46752 33.471072 
L 349.941162 34.148045 
L 352.414805 34.780274 
L 354.888447 33.195472 
L 357.36209 33.736226 
L 359.835732 32.796589 
L 362.309375 34.170239 
L 364.783017 33.638975 
L 367.25666 31.209198 
L 369.730302 32.402456 
L 372.203944 31.556296 
L 374.677587 31.978685 
L 377.151229 30.435944 
L 379.624872 32.887025 
L 382.098514 31.097265 
L 384.572157 31.552056 
L 387.045799 31.334007 
L 389.519442 32.13669 
L 391.993084 29.972424 
L 394.466727 30.350195 
L 396.940369 30.659745 
L 399.414012 29.749124 
L 401.887654 31.755386 
L 404.361297 29.329138 
L 406.834939 29.833699 
L 409.308581 31.104969 
L 411.782224 29.695255 
L 414.255866 30.018175 
L 416.729509 29.844542 
L 419.203151 29.116135 
L 421.676794 29.512579 
L 424.150436 29.516852 
L 426.624079 28.790329 
L 429.097721 28.661857 
L 431.571364 29.123721 
L 431.571364 27.122904 
L 431.571364 27.122904 
L 429.097721 26.916908 
L 426.624079 26.606293 
L 424.150436 26.972631 
L 421.676794 27.46262 
L 419.203151 27.069776 
L 416.729509 26.827085 
L 414.255866 27.685599 
L 411.782224 27.340659 
L 409.308581 27.630952 
L 406.834939 27.870074 
L 404.361297 27.160345 
L 401.887654 28.437683 
L 399.414012 27.711792 
L 396.940369 27.347602 
L 394.466727 27.353578 
L 391.993084 27.913494 
L 389.519442 27.388519 
L 387.045799 28.130488 
L 384.572157 28.155297 
L 382.098514 28.488659 
L 379.624872 27.852476 
L 377.151229 27.571402 
L 374.677587 27.728668 
L 372.203944 29.790349 
L 369.730302 27.912043 
L 367.25666 28.862442 
L 364.783017 28.921961 
L 362.309375 29.422844 
L 359.835732 29.096488 
L 357.36209 31.131862 
L 354.888447 28.394031 
L 352.414805 30.755674 
L 349.941162 30.841472 
L 347.46752 29.879152 
L 344.993877 29.808944 
L 342.520235 29.409231 
L 340.046592 31.073645 
L 337.57295 31.629927 
L 335.099308 30.394993 
L 332.625665 32.887235 
L 330.152023 32.305333 
L 327.67838 31.012316 
L 325.204738 35.247594 
L 322.731095 33.200399 
L 320.257453 34.525305 
L 317.78381 34.708673 
L 315.310168 33.550948 
L 312.836525 35.252372 
L 310.362883 32.889146 
L 307.88924 35.323048 
L 305.415598 36.809744 
L 302.941955 37.724662 
L 300.468313 36.617533 
L 297.994671 38.956073 
L 295.521028 36.484694 
L 293.047386 33.35352 
L 290.573743 35.935465 
L 288.100101 37.035423 
L 285.626458 37.735608 
L 283.152816 36.34209 
L 280.679173 35.213061 
L 278.205531 34.000265 
L 275.731888 37.305589 
L 273.258246 42.885015 
L 270.784603 35.262543 
L 268.310961 34.592473 
L 265.837318 36.053685 
L 263.363676 41.801899 
L 260.890034 34.264598 
L 258.416391 40.977322 
L 255.942749 38.544294 
L 253.469106 40.377486 
L 250.995464 40.649227 
L 248.521821 41.55121 
L 246.048179 40.761168 
L 243.574536 39.923752 
L 241.100894 45.677943 
L 238.627251 42.246742 
L 236.153609 42.520251 
L 233.679966 39.848355 
L 231.206324 47.466044 
L 228.732682 41.200651 
L 226.259039 43.64522 
L 223.785397 47.549453 
L 221.311754 48.230517 
L 218.838112 40.551607 
L 216.364469 40.525952 
L 213.890827 51.40146 
L 211.417184 49.884984 
L 208.943542 39.932998 
L 206.469899 43.686137 
L 203.996257 42.978035 
L 201.522614 43.652202 
L 199.048972 40.905456 
L 196.575329 44.608436 
L 194.101687 44.652636 
L 191.628045 45.389072 
L 189.154402 44.670507 
L 186.68076 50.177279 
L 184.207117 45.336271 
L 181.733475 49.282134 
L 179.259832 44.506767 
L 176.78619 43.717242 
L 174.312547 45.250755 
L 171.838905 44.734757 
L 169.365262 51.056686 
L 166.89162 46.248519 
L 164.417977 53.158346 
L 161.944335 49.436072 
L 159.470692 53.197549 
L 156.99705 49.2009 
L 154.523408 49.813446 
L 152.049765 50.099464 
L 149.576123 53.978276 
L 147.10248 49.685779 
L 144.628838 48.247386 
L 142.155195 51.816737 
L 139.681553 48.877696 
L 137.20791 48.812584 
L 134.734268 49.302478 
L 132.260625 54.493507 
L 129.786983 56.095583 
L 127.31334 54.977827 
L 124.839698 52.729306 
L 122.366056 56.625022 
L 119.892413 51.50252 
L 117.418771 59.51886 
L 114.945128 52.133668 
L 112.471486 54.567367 
L 109.997843 59.581067 
L 107.524201 55.196504 
L 105.050558 64.882375 
L 102.576916 75.126069 
L 100.103273 70.710405 
L 97.629631 68.146064 
L 95.155988 83.412041 
L 92.682346 88.39103 
L 90.208703 89.367407 
L 87.735061 109.339552 
L 85.261419 152.909886 
L 82.787776 165.217595 
L 80.314134 210.663025 
L 77.840491 212.677709 
L 75.366849 240.621355 
L 72.893206 263.217185 
L 70.419564 274.922925 
L 67.945921 278.002715 
L 65.472279 288.861858 
L 62.998636 287.161851 
z
" style="fill:#ff7f0e;fill-opacity:0.25;"/>
   </g>
   <g id="PolyCollection_3">
    <path clip-path="url(#p8062669d37)" d="M 62.998636 285.061659 
L 62.998636 287.562036 
L 65.472279 278.720933 
L 67.945921 290.329091 
L 70.419564 277.215217 
L 72.893206 264.475522 
L 75.366849 247.769334 
L 77.840491 236.976179 
L 80.314134 236.853458 
L 82.787776 173.60002 
L 85.261419 162.35271 
L 87.735061 125.906591 
L 90.208703 129.905452 
L 92.682346 116.748756 
L 95.155988 97.85684 
L 97.629631 90.811873 
L 100.103273 92.515012 
L 102.576916 82.751617 
L 105.050558 71.943101 
L 107.524201 69.224916 
L 109.997843 89.383358 
L 112.471486 71.470891 
L 114.945128 72.768086 
L 117.418771 81.408988 
L 119.892413 71.270033 
L 122.366056 82.377986 
L 124.839698 71.698048 
L 127.31334 62.542944 
L 129.786983 63.229152 
L 132.260625 63.863192 
L 134.734268 61.767046 
L 137.20791 64.381664 
L 139.681553 62.330823 
L 142.155195 64.774638 
L 144.628838 60.082222 
L 147.10248 59.572959 
L 149.576123 56.401044 
L 152.049765 59.203595 
L 154.523408 60.500686 
L 156.99705 49.606026 
L 159.470692 73.060923 
L 161.944335 54.959134 
L 164.417977 54.766829 
L 166.89162 59.926196 
L 169.365262 62.982325 
L 171.838905 52.43706 
L 174.312547 62.61474 
L 176.78619 56.648584 
L 179.259832 57.669142 
L 181.733475 54.084225 
L 184.207117 60.481736 
L 186.68076 56.598808 
L 189.154402 51.038862 
L 191.628045 56.58585 
L 194.101687 57.927167 
L 196.575329 55.354239 
L 199.048972 51.777882 
L 201.522614 55.548991 
L 203.996257 49.243477 
L 206.469899 49.193891 
L 208.943542 47.741856 
L 211.417184 56.490106 
L 213.890827 51.822065 
L 216.364469 51.930985 
L 218.838112 49.812041 
L 221.311754 52.202137 
L 223.785397 60.644523 
L 226.259039 49.920345 
L 228.732682 53.74535 
L 231.206324 52.44274 
L 233.679966 46.755987 
L 236.153609 51.184904 
L 238.627251 54.055377 
L 241.100894 52.803233 
L 243.574536 53.380267 
L 246.048179 46.094049 
L 248.521821 50.958361 
L 250.995464 48.500533 
L 253.469106 49.798176 
L 255.942749 44.867769 
L 258.416391 49.991318 
L 260.890034 43.972052 
L 263.363676 49.514808 
L 265.837318 45.708074 
L 268.310961 47.236178 
L 270.784603 45.433811 
L 273.258246 49.003565 
L 275.731888 45.476238 
L 278.205531 45.892783 
L 280.679173 46.40183 
L 283.152816 42.632277 
L 285.626458 43.668399 
L 288.100101 49.811521 
L 290.573743 46.162152 
L 293.047386 39.718728 
L 295.521028 39.801514 
L 297.994671 44.049562 
L 300.468313 43.214562 
L 302.941955 39.541143 
L 305.415598 42.462344 
L 307.88924 43.6482 
L 310.362883 39.149377 
L 312.836525 38.6846 
L 315.310168 41.090513 
L 317.78381 44.659814 
L 320.257453 42.580325 
L 322.731095 39.033092 
L 325.204738 43.505029 
L 327.67838 43.406705 
L 330.152023 41.37972 
L 332.625665 39.889376 
L 335.099308 38.861988 
L 337.57295 39.850164 
L 340.046592 41.212426 
L 342.520235 37.398899 
L 344.993877 39.243781 
L 347.46752 33.967929 
L 349.941162 35.789418 
L 352.414805 38.073906 
L 354.888447 37.049458 
L 357.36209 37.728896 
L 359.835732 37.062763 
L 362.309375 35.557297 
L 364.783017 35.161131 
L 367.25666 35.165186 
L 369.730302 34.005446 
L 372.203944 35.648557 
L 374.677587 34.413396 
L 377.151229 31.396608 
L 379.624872 34.843519 
L 382.098514 33.030825 
L 384.572157 34.008773 
L 387.045799 32.313138 
L 389.519442 33.711484 
L 391.993084 33.448758 
L 394.466727 33.391072 
L 396.940369 33.450622 
L 399.414012 32.518156 
L 401.887654 32.555473 
L 404.361297 32.351798 
L 406.834939 32.591566 
L 409.308581 32.271515 
L 411.782224 32.691279 
L 414.255866 31.873952 
L 416.729509 32.532955 
L 419.203151 32.377249 
L 421.676794 32.391585 
L 424.150436 32.717575 
L 426.624079 32.356555 
L 429.097721 32.986307 
L 431.571364 32.57099 
L 431.571364 27.804223 
L 431.571364 27.804223 
L 429.097721 27.449621 
L 426.624079 27.593656 
L 424.150436 26.989778 
L 421.676794 27.07291 
L 419.203151 26.965817 
L 416.729509 27.235112 
L 414.255866 27.165541 
L 411.782224 27.805363 
L 409.308581 28.164412 
L 406.834939 28.087219 
L 404.361297 26.809124 
L 401.887654 29.03403 
L 399.414012 28.949918 
L 396.940369 28.138881 
L 394.466727 28.927006 
L 391.993084 28.444319 
L 389.519442 28.788737 
L 387.045799 28.790649 
L 384.572157 29.462881 
L 382.098514 28.862252 
L 379.624872 28.68885 
L 377.151229 28.614318 
L 374.677587 28.693971 
L 372.203944 29.887391 
L 369.730302 30.801927 
L 367.25666 30.61362 
L 364.783017 31.528393 
L 362.309375 31.921516 
L 359.835732 31.933913 
L 357.36209 33.93922 
L 354.888447 34.557942 
L 352.414805 34.444213 
L 349.941162 31.932253 
L 347.46752 32.053735 
L 344.993877 34.488628 
L 342.520235 33.722786 
L 340.046592 33.127129 
L 337.57295 32.425097 
L 335.099308 31.895409 
L 332.625665 35.057324 
L 330.152023 33.991982 
L 327.67838 33.361431 
L 325.204738 34.902399 
L 322.731095 34.942176 
L 320.257453 37.40568 
L 317.78381 38.604776 
L 315.310168 33.552614 
L 312.836525 36.869245 
L 310.362883 32.640168 
L 307.88924 38.4021 
L 305.415598 37.402233 
L 302.941955 36.37699 
L 300.468313 38.714309 
L 297.994671 35.997158 
L 295.521028 36.359477 
L 293.047386 37.110122 
L 290.573743 39.895307 
L 288.100101 37.156656 
L 285.626458 39.414048 
L 283.152816 37.535872 
L 280.679173 36.498473 
L 278.205531 39.193243 
L 275.731888 37.666924 
L 273.258246 41.364625 
L 270.784603 40.320076 
L 268.310961 42.342723 
L 265.837318 38.588664 
L 263.363676 40.731953 
L 260.890034 40.688973 
L 258.416391 40.316158 
L 255.942749 40.400401 
L 253.469106 41.541447 
L 250.995464 42.960519 
L 248.521821 44.024134 
L 246.048179 37.656258 
L 243.574536 43.848666 
L 241.100894 42.482834 
L 238.627251 46.634283 
L 236.153609 45.254739 
L 233.679966 40.697906 
L 231.206324 42.539755 
L 228.732682 42.815723 
L 226.259039 40.994276 
L 223.785397 47.209452 
L 221.311754 46.848231 
L 218.838112 44.866881 
L 216.364469 47.301527 
L 213.890827 45.103295 
L 211.417184 44.8067 
L 208.943542 39.529893 
L 206.469899 46.395748 
L 203.996257 44.585442 
L 201.522614 44.958525 
L 199.048972 45.147477 
L 196.575329 49.34258 
L 194.101687 48.955375 
L 191.628045 48.171684 
L 189.154402 43.336487 
L 186.68076 44.515854 
L 184.207117 47.918669 
L 181.733475 46.301863 
L 179.259832 48.120539 
L 176.78619 51.508964 
L 174.312547 49.549966 
L 171.838905 48.2526 
L 169.365262 54.768118 
L 166.89162 46.3492 
L 164.417977 45.254972 
L 161.944335 50.466259 
L 159.470692 41.532364 
L 156.99705 45.9229 
L 154.523408 53.849743 
L 152.049765 49.257525 
L 149.576123 52.606507 
L 147.10248 48.038157 
L 144.628838 47.953896 
L 142.155195 56.375819 
L 139.681553 52.808895 
L 137.20791 59.440232 
L 134.734268 44.811923 
L 132.260625 53.34082 
L 129.786983 52.881999 
L 127.31334 58.364655 
L 124.839698 58.620302 
L 122.366056 64.211858 
L 119.892413 63.723336 
L 117.418771 60.687981 
L 114.945128 51.114524 
L 112.471486 57.268882 
L 109.997843 69.227963 
L 107.524201 61.882724 
L 105.050558 59.710969 
L 102.576916 69.727537 
L 100.103273 73.807054 
L 97.629631 72.595896 
L 95.155988 87.651018 
L 92.682346 88.916326 
L 90.208703 109.941909 
L 87.735061 114.244343 
L 85.261419 129.041286 
L 82.787776 163.390587 
L 80.314134 197.583969 
L 77.840491 213.732742 
L 75.366849 242.980819 
L 72.893206 250.347941 
L 70.419564 266.022646 
L 67.945921 287.394625 
L 65.472279 276.416978 
L 62.998636 285.061659 
z
" style="fill:#2ca02c;fill-opacity:0.25;"/>
   </g>
   <g id="PolyCollection_4">
    <path clip-path="url(#p8062669d37)" d="M 62.998636 286.472489 
L 62.998636 289.065504 
L 65.472279 287.476749 
L 67.945921 290.268861 
L 70.419564 287.773154 
L 72.893206 277.384928 
L 75.366849 258.556785 
L 77.840491 253.894336 
L 80.314134 255.485069 
L 82.787776 210.759526 
L 85.261419 184.63418 
L 87.735061 161.526813 
L 90.208703 129.61612 
L 92.682346 122.891317 
L 95.155988 95.856366 
L 97.629631 104.940117 
L 100.103273 91.708036 
L 102.576916 85.445707 
L 105.050558 86.700307 
L 107.524201 74.158989 
L 109.997843 86.948856 
L 112.471486 71.448412 
L 114.945128 69.3352 
L 117.418771 73.359798 
L 119.892413 67.708361 
L 122.366056 72.761723 
L 124.839698 68.014105 
L 127.31334 68.469957 
L 129.786983 75.726059 
L 132.260625 63.832711 
L 134.734268 60.899786 
L 137.20791 58.411053 
L 139.681553 61.61038 
L 142.155195 69.761518 
L 144.628838 64.022273 
L 147.10248 61.236713 
L 149.576123 64.768846 
L 152.049765 60.10254 
L 154.523408 54.848578 
L 156.99705 53.947194 
L 159.470692 62.309221 
L 161.944335 55.520038 
L 164.417977 54.985193 
L 166.89162 58.149659 
L 169.365262 57.791089 
L 171.838905 56.490746 
L 174.312547 58.189877 
L 176.78619 60.140314 
L 179.259832 56.859602 
L 181.733475 56.310411 
L 184.207117 49.469844 
L 186.68076 53.808539 
L 189.154402 51.714158 
L 191.628045 53.178508 
L 194.101687 51.482507 
L 196.575329 58.928757 
L 199.048972 57.540659 
L 201.522614 56.832476 
L 203.996257 49.599629 
L 206.469899 50.948011 
L 208.943542 50.378577 
L 211.417184 56.207792 
L 213.890827 60.624096 
L 216.364469 52.79735 
L 218.838112 49.523644 
L 221.311754 50.912495 
L 223.785397 54.034035 
L 226.259039 48.85094 
L 228.732682 54.600157 
L 231.206324 49.348854 
L 233.679966 47.289569 
L 236.153609 51.76508 
L 238.627251 49.835978 
L 241.100894 48.088204 
L 243.574536 56.08831 
L 246.048179 49.40478 
L 248.521821 50.595825 
L 250.995464 51.549769 
L 253.469106 47.455191 
L 255.942749 48.230877 
L 258.416391 48.301444 
L 260.890034 42.678458 
L 263.363676 46.20849 
L 265.837318 45.453558 
L 268.310961 47.588402 
L 270.784603 44.060042 
L 273.258246 48.369485 
L 275.731888 43.495488 
L 278.205531 43.61639 
L 280.679173 39.707779 
L 283.152816 44.233897 
L 285.626458 41.941653 
L 288.100101 46.876603 
L 290.573743 39.227552 
L 293.047386 43.781378 
L 295.521028 43.597914 
L 297.994671 45.028581 
L 300.468313 41.98661 
L 302.941955 43.741645 
L 305.415598 40.351177 
L 307.88924 43.122925 
L 310.362883 39.128884 
L 312.836525 42.43894 
L 315.310168 40.486834 
L 317.78381 41.638881 
L 320.257453 40.54931 
L 322.731095 37.483574 
L 325.204738 37.895954 
L 327.67838 38.012869 
L 330.152023 37.438971 
L 332.625665 39.209355 
L 335.099308 36.407568 
L 337.57295 38.729992 
L 340.046592 35.617755 
L 342.520235 36.066551 
L 344.993877 35.882758 
L 347.46752 33.800893 
L 349.941162 35.498796 
L 352.414805 34.772116 
L 354.888447 35.546819 
L 357.36209 34.84472 
L 359.835732 37.876328 
L 362.309375 34.669833 
L 364.783017 34.338529 
L 367.25666 33.893689 
L 369.730302 31.176673 
L 372.203944 33.568074 
L 374.677587 31.802911 
L 377.151229 33.018167 
L 379.624872 33.151387 
L 382.098514 32.942296 
L 384.572157 33.009895 
L 387.045799 34.674571 
L 389.519442 31.739059 
L 391.993084 31.36335 
L 394.466727 32.847255 
L 396.940369 33.154822 
L 399.414012 33.348896 
L 401.887654 33.668347 
L 404.361297 32.838126 
L 406.834939 32.565697 
L 409.308581 32.354493 
L 411.782224 32.378383 
L 414.255866 32.503041 
L 416.729509 34.287841 
L 419.203151 32.613617 
L 421.676794 32.609928 
L 424.150436 32.456105 
L 426.624079 32.994288 
L 429.097721 32.67557 
L 431.571364 32.654959 
L 431.571364 28.813115 
L 431.571364 28.813115 
L 429.097721 29.217506 
L 426.624079 28.777359 
L 424.150436 28.465539 
L 421.676794 28.493859 
L 419.203151 28.672314 
L 416.729509 27.848093 
L 414.255866 27.932886 
L 411.782224 28.178974 
L 409.308581 28.263578 
L 406.834939 27.688087 
L 404.361297 28.629948 
L 401.887654 29.135447 
L 399.414012 30.001328 
L 396.940369 28.434682 
L 394.466727 28.560105 
L 391.993084 27.433285 
L 389.519442 28.029009 
L 387.045799 30.314946 
L 384.572157 28.093892 
L 382.098514 30.711502 
L 379.624872 29.470264 
L 377.151229 27.357046 
L 374.677587 27.600869 
L 372.203944 29.721436 
L 369.730302 29.016396 
L 367.25666 29.092248 
L 364.783017 31.015275 
L 362.309375 29.833968 
L 359.835732 33.002498 
L 357.36209 29.355508 
L 354.888447 30.960561 
L 352.414805 29.853114 
L 349.941162 32.040732 
L 347.46752 30.217192 
L 344.993877 31.292482 
L 342.520235 31.897978 
L 340.046592 33.682494 
L 337.57295 34.030985 
L 335.099308 33.317682 
L 332.625665 31.851615 
L 330.152023 33.318427 
L 327.67838 34.019533 
L 325.204738 33.286445 
L 322.731095 32.605964 
L 320.257453 36.340255 
L 317.78381 35.614971 
L 315.310168 34.459866 
L 312.836525 32.38633 
L 310.362883 35.87853 
L 307.88924 34.859501 
L 305.415598 35.081239 
L 302.941955 35.576501 
L 300.468313 38.485113 
L 297.994671 41.818166 
L 295.521028 39.484533 
L 293.047386 39.240354 
L 290.573743 36.265579 
L 288.100101 37.298705 
L 285.626458 38.590783 
L 283.152816 39.091408 
L 280.679173 33.963915 
L 278.205531 38.858912 
L 275.731888 37.097663 
L 273.258246 42.727279 
L 270.784603 38.536688 
L 268.310961 34.401184 
L 265.837318 40.300328 
L 263.363676 34.566805 
L 260.890034 39.311127 
L 258.416391 38.36316 
L 255.942749 40.133734 
L 253.469106 42.609426 
L 250.995464 43.675584 
L 248.521821 44.811671 
L 246.048179 40.416979 
L 243.574536 44.479921 
L 241.100894 42.219272 
L 238.627251 42.171505 
L 236.153609 43.460273 
L 233.679966 41.3179 
L 231.206324 42.051483 
L 228.732682 42.446631 
L 226.259039 40.485103 
L 223.785397 45.077047 
L 221.311754 45.770007 
L 218.838112 41.148119 
L 216.364469 44.188724 
L 213.890827 47.412023 
L 211.417184 44.481869 
L 208.943542 38.957466 
L 206.469899 38.63089 
L 203.996257 44.350718 
L 201.522614 48.471488 
L 199.048972 43.209715 
L 196.575329 45.585919 
L 194.101687 46.049998 
L 191.628045 46.114718 
L 189.154402 46.607636 
L 186.68076 47.002551 
L 184.207117 41.74835 
L 181.733475 47.172118 
L 179.259832 47.533645 
L 176.78619 47.227945 
L 174.312547 44.503363 
L 171.838905 46.02035 
L 169.365262 44.902151 
L 166.89162 42.540002 
L 164.417977 48.55805 
L 161.944335 47.355345 
L 159.470692 51.130491 
L 156.99705 50.688911 
L 154.523408 50.0911 
L 152.049765 54.855034 
L 149.576123 51.524448 
L 147.10248 51.41371 
L 144.628838 51.84602 
L 142.155195 58.37111 
L 139.681553 49.340035 
L 137.20791 46.285767 
L 134.734268 53.632787 
L 132.260625 51.974867 
L 129.786983 58.05302 
L 127.31334 60.45196 
L 124.839698 57.750656 
L 122.366056 62.231646 
L 119.892413 56.538537 
L 117.418771 66.490733 
L 114.945128 54.911697 
L 112.471486 57.837791 
L 109.997843 69.294599 
L 107.524201 65.691543 
L 105.050558 74.27888 
L 102.576916 80.876359 
L 100.103273 69.999726 
L 97.629631 82.753463 
L 95.155988 78.176445 
L 92.682346 90.788082 
L 90.208703 105.677651 
L 87.735061 122.793941 
L 85.261419 146.34569 
L 82.787776 193.047421 
L 80.314134 190.047938 
L 77.840491 217.457525 
L 75.366849 248.252361 
L 72.893206 259.781483 
L 70.419564 270.036196 
L 67.945921 285.026274 
L 65.472279 277.375486 
L 62.998636 286.472489 
z
" style="fill:#d62728;fill-opacity:0.25;"/>
   </g>
   <g id="PolyCollection_5">
    <path clip-path="url(#p8062669d37)" d="M 62.998636 271.63575 
L 62.998636 283.016445 
L 65.472279 282.755929 
L 67.945921 281.704681 
L 70.419564 278.851377 
L 72.893206 258.13036 
L 75.366849 248.944138 
L 77.840491 223.7644 
L 80.314134 192.497879 
L 82.787776 194.771677 
L 85.261419 169.196651 
L 87.735061 121.822883 
L 90.208703 104.612134 
L 92.682346 120.133296 
L 95.155988 90.315994 
L 97.629631 86.116505 
L 100.103273 83.386522 
L 102.576916 81.844241 
L 105.050558 82.485502 
L 107.524201 78.572636 
L 109.997843 87.900905 
L 112.471486 71.749231 
L 114.945128 65.311621 
L 117.418771 79.045145 
L 119.892413 84.137808 
L 122.366056 89.793316 
L 124.839698 75.48205 
L 127.31334 75.279616 
L 129.786983 66.401461 
L 132.260625 69.096253 
L 134.734268 68.588908 
L 137.20791 64.239672 
L 139.681553 60.110497 
L 142.155195 71.017098 
L 144.628838 70.410268 
L 147.10248 63.795939 
L 149.576123 63.750753 
L 152.049765 75.204827 
L 154.523408 54.773487 
L 156.99705 61.338906 
L 159.470692 72.634371 
L 161.944335 61.531791 
L 164.417977 61.081099 
L 166.89162 56.854954 
L 169.365262 59.14551 
L 171.838905 56.652358 
L 174.312547 71.244777 
L 176.78619 51.70718 
L 179.259832 60.049857 
L 181.733475 52.190842 
L 184.207117 57.104639 
L 186.68076 59.438123 
L 189.154402 52.976414 
L 191.628045 68.303118 
L 194.101687 63.838064 
L 196.575329 58.910003 
L 199.048972 54.969571 
L 201.522614 60.370816 
L 203.996257 55.121781 
L 206.469899 55.263345 
L 208.943542 51.306999 
L 211.417184 53.822113 
L 213.890827 54.467548 
L 216.364469 59.138444 
L 218.838112 52.749579 
L 221.311754 51.040878 
L 223.785397 50.981695 
L 226.259039 53.610928 
L 228.732682 58.703419 
L 231.206324 49.632901 
L 233.679966 48.498899 
L 236.153609 57.700175 
L 238.627251 56.158894 
L 241.100894 49.618457 
L 243.574536 54.405799 
L 246.048179 48.234961 
L 248.521821 58.666706 
L 250.995464 56.14443 
L 253.469106 52.419133 
L 255.942749 50.838365 
L 258.416391 47.973834 
L 260.890034 48.150944 
L 263.363676 46.898097 
L 265.837318 48.914919 
L 268.310961 47.531134 
L 270.784603 46.731443 
L 273.258246 51.064504 
L 275.731888 49.205402 
L 278.205531 48.060439 
L 280.679173 41.305942 
L 283.152816 45.158262 
L 285.626458 49.705641 
L 288.100101 47.380769 
L 290.573743 43.436669 
L 293.047386 43.956514 
L 295.521028 41.549998 
L 297.994671 44.363774 
L 300.468313 43.384259 
L 302.941955 42.641303 
L 305.415598 44.175495 
L 307.88924 44.212188 
L 310.362883 41.852955 
L 312.836525 41.808237 
L 315.310168 43.514087 
L 317.78381 43.662168 
L 320.257453 45.717252 
L 322.731095 42.426342 
L 325.204738 39.603851 
L 327.67838 40.782292 
L 330.152023 40.565535 
L 332.625665 38.049815 
L 335.099308 36.706505 
L 337.57295 38.821164 
L 340.046592 37.773842 
L 342.520235 40.97931 
L 344.993877 37.735874 
L 347.46752 36.367901 
L 349.941162 38.828053 
L 352.414805 37.874437 
L 354.888447 37.801909 
L 357.36209 36.903415 
L 359.835732 38.25058 
L 362.309375 37.161058 
L 364.783017 36.867819 
L 367.25666 38.14212 
L 369.730302 35.410906 
L 372.203944 35.023435 
L 374.677587 35.94471 
L 377.151229 34.608569 
L 379.624872 37.09216 
L 382.098514 35.880507 
L 384.572157 35.684224 
L 387.045799 35.5912 
L 389.519442 34.313796 
L 391.993084 32.90953 
L 394.466727 33.876332 
L 396.940369 33.782853 
L 399.414012 32.759474 
L 401.887654 33.627942 
L 404.361297 33.803101 
L 406.834939 33.702811 
L 409.308581 34.291309 
L 411.782224 34.367918 
L 414.255866 32.16981 
L 416.729509 32.481492 
L 419.203151 33.18947 
L 421.676794 32.035294 
L 424.150436 32.402168 
L 426.624079 32.841336 
L 429.097721 33.337318 
L 431.571364 32.856475 
L 431.571364 28.915172 
L 431.571364 28.915172 
L 429.097721 27.402182 
L 426.624079 28.38388 
L 424.150436 28.762334 
L 421.676794 27.550631 
L 419.203151 28.460748 
L 416.729509 28.743725 
L 414.255866 28.56969 
L 411.782224 28.739449 
L 409.308581 28.391056 
L 406.834939 27.947407 
L 404.361297 26.997113 
L 401.887654 28.993709 
L 399.414012 28.647886 
L 396.940369 29.263799 
L 394.466727 28.806033 
L 391.993084 29.226404 
L 389.519442 30.857865 
L 387.045799 29.641176 
L 384.572157 29.548151 
L 382.098514 30.080442 
L 379.624872 29.475935 
L 377.151229 29.105943 
L 374.677587 29.712666 
L 372.203944 29.601795 
L 369.730302 30.428614 
L 367.25666 32.068846 
L 364.783017 31.157425 
L 362.309375 29.771324 
L 359.835732 31.231812 
L 357.36209 28.693248 
L 354.888447 31.801912 
L 352.414805 33.00439 
L 349.941162 28.711475 
L 347.46752 31.475199 
L 344.993877 33.264382 
L 342.520235 34.149533 
L 340.046592 29.401398 
L 337.57295 35.761248 
L 335.099308 33.686605 
L 332.625665 32.343295 
L 330.152023 37.53832 
L 327.67838 33.496548 
L 325.204738 35.403564 
L 322.731095 36.223944 
L 320.257453 38.093769 
L 317.78381 35.048833 
L 315.310168 35.804059 
L 312.836525 35.870617 
L 310.362883 37.100904 
L 307.88924 36.441677 
L 305.415598 37.146231 
L 302.941955 37.526847 
L 300.468313 36.23746 
L 297.994671 38.900816 
L 295.521028 35.764569 
L 293.047386 37.243782 
L 290.573743 39.40292 
L 288.100101 41.2267 
L 285.626458 42.605415 
L 283.152816 38.227758 
L 280.679173 36.676484 
L 278.205531 39.575597 
L 275.731888 41.830648 
L 273.258246 44.342992 
L 270.784603 41.451024 
L 268.310961 41.622765 
L 265.837318 40.056837 
L 263.363676 43.591523 
L 260.890034 40.820812 
L 258.416391 40.02649 
L 255.942749 45.054848 
L 253.469106 43.109792 
L 250.995464 46.670239 
L 248.521821 45.483682 
L 246.048179 42.315373 
L 243.574536 45.737431 
L 241.100894 41.660452 
L 238.627251 45.137911 
L 236.153609 50.639516 
L 233.679966 43.933586 
L 231.206324 46.017454 
L 228.732682 45.32554 
L 226.259039 48.900169 
L 223.785397 43.757942 
L 221.311754 42.970184 
L 218.838112 41.443627 
L 216.364469 47.804813 
L 213.890827 44.58282 
L 211.417184 47.292549 
L 208.943542 41.368344 
L 206.469899 48.03704 
L 203.996257 47.389315 
L 201.522614 51.24746 
L 199.048972 51.427255 
L 196.575329 53.07256 
L 194.101687 53.730235 
L 191.628045 52.483051 
L 189.154402 45.223951 
L 186.68076 52.483725 
L 184.207117 49.170758 
L 181.733475 45.341662 
L 179.259832 53.814856 
L 176.78619 48.496764 
L 174.312547 56.705707 
L 171.838905 49.865897 
L 169.365262 49.072752 
L 166.89162 45.716857 
L 164.417977 48.897885 
L 161.944335 50.329343 
L 159.470692 54.34468 
L 156.99705 49.49008 
L 154.523408 45.309028 
L 152.049765 62.459981 
L 149.576123 53.99969 
L 147.10248 52.436641 
L 144.628838 49.768756 
L 142.155195 56.690528 
L 139.681553 52.843498 
L 137.20791 56.485783 
L 134.734268 61.365155 
L 132.260625 57.397082 
L 129.786983 58.209723 
L 127.31334 66.270922 
L 124.839698 55.139873 
L 122.366056 65.842993 
L 119.892413 53.769859 
L 117.418771 58.133947 
L 114.945128 61.120999 
L 112.471486 60.086983 
L 109.997843 66.521113 
L 107.524201 64.495766 
L 105.050558 70.479367 
L 102.576916 74.034927 
L 100.103273 69.821206 
L 97.629631 81.419852 
L 95.155988 78.009652 
L 92.682346 88.203225 
L 90.208703 78.224284 
L 87.735061 90.460082 
L 85.261419 94.997236 
L 82.787776 102.754487 
L 80.314134 118.567624 
L 77.840491 161.934439 
L 75.366849 179.406657 
L 72.893206 201.80717 
L 70.419564 234.029222 
L 67.945921 245.003652 
L 65.472279 259.267644 
L 62.998636 271.63575 
z
" style="fill:#9467bd;fill-opacity:0.25;"/>
   </g>
   <g id="matplotlib.axis_1">
    <g id="xtick_1">
     <g id="line2d_1">
      <defs>
       <path d="M 0 0 
L 0 3.5 
" id="m447ab04383" style="stroke:#000000;stroke-width:0.8;"/>
      </defs>
      <g>
       <use style="stroke:#000000;stroke-width:0.8;" x="62.998636" xlink:href="#m447ab04383" y="303.64"/>
      </g>
     </g>
     <g id="text_1">
      <!-- 0 -->
      <g transform="translate(59.817386 318.238437)scale(0.1 -0.1)">
       <defs>
        <path d="M 31.78125 66.40625 
Q 24.171875 66.40625 20.328125 58.90625 
Q 16.5 51.421875 16.5 36.375 
Q 16.5 21.390625 20.328125 13.890625 
Q 24.171875 6.390625 31.78125 6.390625 
Q 39.453125 6.390625 43.28125 13.890625 
Q 47.125 21.390625 47.125 36.375 
Q 47.125 51.421875 43.28125 58.90625 
Q 39.453125 66.40625 31.78125 66.40625 
z
M 31.78125 74.21875 
Q 44.046875 74.21875 50.515625 64.515625 
Q 56.984375 54.828125 56.984375 36.375 
Q 56.984375 17.96875 50.515625 8.265625 
Q 44.046875 -1.421875 31.78125 -1.421875 
Q 19.53125 -1.421875 13.0625 8.265625 
Q 6.59375 17.96875 6.59375 36.375 
Q 6.59375 54.828125 13.0625 64.515625 
Q 19.53125 74.21875 31.78125 74.21875 
z
" id="DejaVuSans-48"/>
       </defs>
       <use xlink:href="#DejaVuSans-48"/>
      </g>
     </g>
    </g>
    <g id="xtick_2">
     <g id="line2d_2">
      <g>
       <use style="stroke:#000000;stroke-width:0.8;" x="112.471486" xlink:href="#m447ab04383" y="303.64"/>
      </g>
     </g>
     <g id="text_2">
      <!-- 20 -->
      <g transform="translate(106.108986 318.238437)scale(0.1 -0.1)">
       <defs>
        <path d="M 19.1875 8.296875 
L 53.609375 8.296875 
L 53.609375 0 
L 7.328125 0 
L 7.328125 8.296875 
Q 12.9375 14.109375 22.625 23.890625 
Q 32.328125 33.6875 34.8125 36.53125 
Q 39.546875 41.84375 41.421875 45.53125 
Q 43.3125 49.21875 43.3125 52.78125 
Q 43.3125 58.59375 39.234375 62.25 
Q 35.15625 65.921875 28.609375 65.921875 
Q 23.96875 65.921875 18.8125 64.3125 
Q 13.671875 62.703125 7.8125 59.421875 
L 7.8125 69.390625 
Q 13.765625 71.78125 18.9375 73 
Q 24.125 74.21875 28.421875 74.21875 
Q 39.75 74.21875 46.484375 68.546875 
Q 53.21875 62.890625 53.21875 53.421875 
Q 53.21875 48.921875 51.53125 44.890625 
Q 49.859375 40.875 45.40625 35.40625 
Q 44.1875 33.984375 37.640625 27.21875 
Q 31.109375 20.453125 19.1875 8.296875 
z
" id="DejaVuSans-50"/>
       </defs>
       <use xlink:href="#DejaVuSans-50"/>
       <use x="63.623047" xlink:href="#DejaVuSans-48"/>
      </g>
     </g>
    </g>
    <g id="xtick_3">
     <g id="line2d_3">
      <g>
       <use style="stroke:#000000;stroke-width:0.8;" x="161.944335" xlink:href="#m447ab04383" y="303.64"/>
      </g>
     </g>
     <g id="text_3">
      <!-- 40 -->
      <g transform="translate(155.581835 318.238437)scale(0.1 -0.1)">
       <defs>
        <path d="M 37.796875 64.3125 
L 12.890625 25.390625 
L 37.796875 25.390625 
z
M 35.203125 72.90625 
L 47.609375 72.90625 
L 47.609375 25.390625 
L 58.015625 25.390625 
L 58.015625 17.1875 
L 47.609375 17.1875 
L 47.609375 0 
L 37.796875 0 
L 37.796875 17.1875 
L 4.890625 17.1875 
L 4.890625 26.703125 
z
" id="DejaVuSans-52"/>
       </defs>
       <use xlink:href="#DejaVuSans-52"/>
       <use x="63.623047" xlink:href="#DejaVuSans-48"/>
      </g>
     </g>
    </g>
    <g id="xtick_4">
     <g id="line2d_4">
      <g>
       <use style="stroke:#000000;stroke-width:0.8;" x="211.417184" xlink:href="#m447ab04383" y="303.64"/>
      </g>
     </g>
     <g id="text_4">
      <!-- 60 -->
      <g transform="translate(205.054684 318.238437)scale(0.1 -0.1)">
       <defs>
        <path d="M 33.015625 40.375 
Q 26.375 40.375 22.484375 35.828125 
Q 18.609375 31.296875 18.609375 23.390625 
Q 18.609375 15.53125 22.484375 10.953125 
Q 26.375 6.390625 33.015625 6.390625 
Q 39.65625 6.390625 43.53125 10.953125 
Q 47.40625 15.53125 47.40625 23.390625 
Q 47.40625 31.296875 43.53125 35.828125 
Q 39.65625 40.375 33.015625 40.375 
z
M 52.59375 71.296875 
L 52.59375 62.3125 
Q 48.875 64.0625 45.09375 64.984375 
Q 41.3125 65.921875 37.59375 65.921875 
Q 27.828125 65.921875 22.671875 59.328125 
Q 17.53125 52.734375 16.796875 39.40625 
Q 19.671875 43.65625 24.015625 45.921875 
Q 28.375 48.1875 33.59375 48.1875 
Q 44.578125 48.1875 50.953125 41.515625 
Q 57.328125 34.859375 57.328125 23.390625 
Q 57.328125 12.15625 50.6875 5.359375 
Q 44.046875 -1.421875 33.015625 -1.421875 
Q 20.359375 -1.421875 13.671875 8.265625 
Q 6.984375 17.96875 6.984375 36.375 
Q 6.984375 53.65625 15.1875 63.9375 
Q 23.390625 74.21875 37.203125 74.21875 
Q 40.921875 74.21875 44.703125 73.484375 
Q 48.484375 72.75 52.59375 71.296875 
z
" id="DejaVuSans-54"/>
       </defs>
       <use xlink:href="#DejaVuSans-54"/>
       <use x="63.623047" xlink:href="#DejaVuSans-48"/>
      </g>
     </g>
    </g>
    <g id="xtick_5">
     <g id="line2d_5">
      <g>
       <use style="stroke:#000000;stroke-width:0.8;" x="260.890034" xlink:href="#m447ab04383" y="303.64"/>
      </g>
     </g>
     <g id="text_5">
      <!-- 80 -->
      <g transform="translate(254.527534 318.238437)scale(0.1 -0.1)">
       <defs>
        <path d="M 31.78125 34.625 
Q 24.75 34.625 20.71875 30.859375 
Q 16.703125 27.09375 16.703125 20.515625 
Q 16.703125 13.921875 20.71875 10.15625 
Q 24.75 6.390625 31.78125 6.390625 
Q 38.8125 6.390625 42.859375 10.171875 
Q 46.921875 13.96875 46.921875 20.515625 
Q 46.921875 27.09375 42.890625 30.859375 
Q 38.875 34.625 31.78125 34.625 
z
M 21.921875 38.8125 
Q 15.578125 40.375 12.03125 44.71875 
Q 8.5 49.078125 8.5 55.328125 
Q 8.5 64.0625 14.71875 69.140625 
Q 20.953125 74.21875 31.78125 74.21875 
Q 42.671875 74.21875 48.875 69.140625 
Q 55.078125 64.0625 55.078125 55.328125 
Q 55.078125 49.078125 51.53125 44.71875 
Q 48 40.375 41.703125 38.8125 
Q 48.828125 37.15625 52.796875 32.3125 
Q 56.78125 27.484375 56.78125 20.515625 
Q 56.78125 9.90625 50.3125 4.234375 
Q 43.84375 -1.421875 31.78125 -1.421875 
Q 19.734375 -1.421875 13.25 4.234375 
Q 6.78125 9.90625 6.78125 20.515625 
Q 6.78125 27.484375 10.78125 32.3125 
Q 14.796875 37.15625 21.921875 38.8125 
z
M 18.3125 54.390625 
Q 18.3125 48.734375 21.84375 45.5625 
Q 25.390625 42.390625 31.78125 42.390625 
Q 38.140625 42.390625 41.71875 45.5625 
Q 45.3125 48.734375 45.3125 54.390625 
Q 45.3125 60.0625 41.71875 63.234375 
Q 38.140625 66.40625 31.78125 66.40625 
Q 25.390625 66.40625 21.84375 63.234375 
Q 18.3125 60.0625 18.3125 54.390625 
z
" id="DejaVuSans-56"/>
       </defs>
       <use xlink:href="#DejaVuSans-56"/>
       <use x="63.623047" xlink:href="#DejaVuSans-48"/>
      </g>
     </g>
    </g>
    <g id="xtick_6">
     <g id="line2d_6">
      <g>
       <use style="stroke:#000000;stroke-width:0.8;" x="310.362883" xlink:href="#m447ab04383" y="303.64"/>
      </g>
     </g>
     <g id="text_6">
      <!-- 100 -->
      <g transform="translate(300.819133 318.238437)scale(0.1 -0.1)">
       <defs>
        <path d="M 12.40625 8.296875 
L 28.515625 8.296875 
L 28.515625 63.921875 
L 10.984375 60.40625 
L 10.984375 69.390625 
L 28.421875 72.90625 
L 38.28125 72.90625 
L 38.28125 8.296875 
L 54.390625 8.296875 
L 54.390625 0 
L 12.40625 0 
z
" id="DejaVuSans-49"/>
       </defs>
       <use xlink:href="#DejaVuSans-49"/>
       <use x="63.623047" xlink:href="#DejaVuSans-48"/>
       <use x="127.246094" xlink:href="#DejaVuSans-48"/>
      </g>
     </g>
    </g>
    <g id="xtick_7">
     <g id="line2d_7">
      <g>
       <use style="stroke:#000000;stroke-width:0.8;" x="359.835732" xlink:href="#m447ab04383" y="303.64"/>
      </g>
     </g>
     <g id="text_7">
      <!-- 120 -->
      <g transform="translate(350.291982 318.238437)scale(0.1 -0.1)">
       <use xlink:href="#DejaVuSans-49"/>
       <use x="63.623047" xlink:href="#DejaVuSans-50"/>
       <use x="127.246094" xlink:href="#DejaVuSans-48"/>
      </g>
     </g>
    </g>
    <g id="xtick_8">
     <g id="line2d_8">
      <g>
       <use style="stroke:#000000;stroke-width:0.8;" x="409.308581" xlink:href="#m447ab04383" y="303.64"/>
      </g>
     </g>
     <g id="text_8">
      <!-- 140 -->
      <g transform="translate(399.764831 318.238437)scale(0.1 -0.1)">
       <use xlink:href="#DejaVuSans-49"/>
       <use x="63.623047" xlink:href="#DejaVuSans-52"/>
       <use x="127.246094" xlink:href="#DejaVuSans-48"/>
      </g>
     </g>
    </g>
    <g id="text_9">
     <!-- Epochs -->
     <g transform="translate(229.369375 331.916562)scale(0.1 -0.1)">
      <defs>
       <path d="M 9.8125 72.90625 
L 55.90625 72.90625 
L 55.90625 64.59375 
L 19.671875 64.59375 
L 19.671875 43.015625 
L 54.390625 43.015625 
L 54.390625 34.71875 
L 19.671875 34.71875 
L 19.671875 8.296875 
L 56.78125 8.296875 
L 56.78125 0 
L 9.8125 0 
z
" id="DejaVuSans-69"/>
       <path d="M 18.109375 8.203125 
L 18.109375 -20.796875 
L 9.078125 -20.796875 
L 9.078125 54.6875 
L 18.109375 54.6875 
L 18.109375 46.390625 
Q 20.953125 51.265625 25.265625 53.625 
Q 29.59375 56 35.59375 56 
Q 45.5625 56 51.78125 48.09375 
Q 58.015625 40.1875 58.015625 27.296875 
Q 58.015625 14.40625 51.78125 6.484375 
Q 45.5625 -1.421875 35.59375 -1.421875 
Q 29.59375 -1.421875 25.265625 0.953125 
Q 20.953125 3.328125 18.109375 8.203125 
z
M 48.6875 27.296875 
Q 48.6875 37.203125 44.609375 42.84375 
Q 40.53125 48.484375 33.40625 48.484375 
Q 26.265625 48.484375 22.1875 42.84375 
Q 18.109375 37.203125 18.109375 27.296875 
Q 18.109375 17.390625 22.1875 11.75 
Q 26.265625 6.109375 33.40625 6.109375 
Q 40.53125 6.109375 44.609375 11.75 
Q 48.6875 17.390625 48.6875 27.296875 
z
" id="DejaVuSans-112"/>
       <path d="M 30.609375 48.390625 
Q 23.390625 48.390625 19.1875 42.75 
Q 14.984375 37.109375 14.984375 27.296875 
Q 14.984375 17.484375 19.15625 11.84375 
Q 23.34375 6.203125 30.609375 6.203125 
Q 37.796875 6.203125 41.984375 11.859375 
Q 46.1875 17.53125 46.1875 27.296875 
Q 46.1875 37.015625 41.984375 42.703125 
Q 37.796875 48.390625 30.609375 48.390625 
z
M 30.609375 56 
Q 42.328125 56 49.015625 48.375 
Q 55.71875 40.765625 55.71875 27.296875 
Q 55.71875 13.875 49.015625 6.21875 
Q 42.328125 -1.421875 30.609375 -1.421875 
Q 18.84375 -1.421875 12.171875 6.21875 
Q 5.515625 13.875 5.515625 27.296875 
Q 5.515625 40.765625 12.171875 48.375 
Q 18.84375 56 30.609375 56 
z
" id="DejaVuSans-111"/>
       <path d="M 48.78125 52.59375 
L 48.78125 44.1875 
Q 44.96875 46.296875 41.140625 47.34375 
Q 37.3125 48.390625 33.40625 48.390625 
Q 24.65625 48.390625 19.8125 42.84375 
Q 14.984375 37.3125 14.984375 27.296875 
Q 14.984375 17.28125 19.8125 11.734375 
Q 24.65625 6.203125 33.40625 6.203125 
Q 37.3125 6.203125 41.140625 7.25 
Q 44.96875 8.296875 48.78125 10.40625 
L 48.78125 2.09375 
Q 45.015625 0.34375 40.984375 -0.53125 
Q 36.96875 -1.421875 32.421875 -1.421875 
Q 20.0625 -1.421875 12.78125 6.34375 
Q 5.515625 14.109375 5.515625 27.296875 
Q 5.515625 40.671875 12.859375 48.328125 
Q 20.21875 56 33.015625 56 
Q 37.15625 56 41.109375 55.140625 
Q 45.0625 54.296875 48.78125 52.59375 
z
" id="DejaVuSans-99"/>
       <path d="M 54.890625 33.015625 
L 54.890625 0 
L 45.90625 0 
L 45.90625 32.71875 
Q 45.90625 40.484375 42.875 44.328125 
Q 39.84375 48.1875 33.796875 48.1875 
Q 26.515625 48.1875 22.3125 43.546875 
Q 18.109375 38.921875 18.109375 30.90625 
L 18.109375 0 
L 9.078125 0 
L 9.078125 75.984375 
L 18.109375 75.984375 
L 18.109375 46.1875 
Q 21.34375 51.125 25.703125 53.5625 
Q 30.078125 56 35.796875 56 
Q 45.21875 56 50.046875 50.171875 
Q 54.890625 44.34375 54.890625 33.015625 
z
" id="DejaVuSans-104"/>
       <path d="M 44.28125 53.078125 
L 44.28125 44.578125 
Q 40.484375 46.53125 36.375 47.5 
Q 32.28125 48.484375 27.875 48.484375 
Q 21.1875 48.484375 17.84375 46.4375 
Q 14.5 44.390625 14.5 40.28125 
Q 14.5 37.15625 16.890625 35.375 
Q 19.28125 33.59375 26.515625 31.984375 
L 29.59375 31.296875 
Q 39.15625 29.25 43.1875 25.515625 
Q 47.21875 21.78125 47.21875 15.09375 
Q 47.21875 7.46875 41.1875 3.015625 
Q 35.15625 -1.421875 24.609375 -1.421875 
Q 20.21875 -1.421875 15.453125 -0.5625 
Q 10.6875 0.296875 5.421875 2 
L 5.421875 11.28125 
Q 10.40625 8.6875 15.234375 7.390625 
Q 20.0625 6.109375 24.8125 6.109375 
Q 31.15625 6.109375 34.5625 8.28125 
Q 37.984375 10.453125 37.984375 14.40625 
Q 37.984375 18.0625 35.515625 20.015625 
Q 33.0625 21.96875 24.703125 23.78125 
L 21.578125 24.515625 
Q 13.234375 26.265625 9.515625 29.90625 
Q 5.8125 33.546875 5.8125 39.890625 
Q 5.8125 47.609375 11.28125 51.796875 
Q 16.75 56 26.8125 56 
Q 31.78125 56 36.171875 55.265625 
Q 40.578125 54.546875 44.28125 53.078125 
z
" id="DejaVuSans-115"/>
      </defs>
      <use xlink:href="#DejaVuSans-69"/>
      <use x="63.183594" xlink:href="#DejaVuSans-112"/>
      <use x="126.660156" xlink:href="#DejaVuSans-111"/>
      <use x="187.841797" xlink:href="#DejaVuSans-99"/>
      <use x="242.822266" xlink:href="#DejaVuSans-104"/>
      <use x="306.201172" xlink:href="#DejaVuSans-115"/>
     </g>
    </g>
   </g>
   <g id="matplotlib.axis_2">
    <g id="ytick_1">
     <g id="line2d_9">
      <defs>
       <path d="M 0 0 
L -3.5 0 
" id="mb611094fa7" style="stroke:#000000;stroke-width:0.8;"/>
      </defs>
      <g>
       <use style="stroke:#000000;stroke-width:0.8;" x="44.57" xlink:href="#mb611094fa7" y="256.076012"/>
      </g>
     </g>
     <g id="text_10">
      <!-- 20 -->
      <g transform="translate(24.845 259.875231)scale(0.1 -0.1)">
       <use xlink:href="#DejaVuSans-50"/>
       <use x="63.623047" xlink:href="#DejaVuSans-48"/>
      </g>
     </g>
    </g>
    <g id="ytick_2">
     <g id="line2d_10">
      <g>
       <use style="stroke:#000000;stroke-width:0.8;" x="44.57" xlink:href="#mb611094fa7" y="193.904334"/>
      </g>
     </g>
     <g id="text_11">
      <!-- 40 -->
      <g transform="translate(24.845 197.703553)scale(0.1 -0.1)">
       <use xlink:href="#DejaVuSans-52"/>
       <use x="63.623047" xlink:href="#DejaVuSans-48"/>
      </g>
     </g>
    </g>
    <g id="ytick_3">
     <g id="line2d_11">
      <g>
       <use style="stroke:#000000;stroke-width:0.8;" x="44.57" xlink:href="#mb611094fa7" y="131.732657"/>
      </g>
     </g>
     <g id="text_12">
      <!-- 60 -->
      <g transform="translate(24.845 135.531875)scale(0.1 -0.1)">
       <use xlink:href="#DejaVuSans-54"/>
       <use x="63.623047" xlink:href="#DejaVuSans-48"/>
      </g>
     </g>
    </g>
    <g id="ytick_4">
     <g id="line2d_12">
      <g>
       <use style="stroke:#000000;stroke-width:0.8;" x="44.57" xlink:href="#mb611094fa7" y="69.560979"/>
      </g>
     </g>
     <g id="text_13">
      <!-- 80 -->
      <g transform="translate(24.845 73.360197)scale(0.1 -0.1)">
       <use xlink:href="#DejaVuSans-56"/>
       <use x="63.623047" xlink:href="#DejaVuSans-48"/>
      </g>
     </g>
    </g>
    <g id="text_14">
     <!-- Test Accuracy (%) -->
     <g transform="translate(18.765313 201.723906)rotate(-90)scale(0.1 -0.1)">
      <defs>
       <path d="M -0.296875 72.90625 
L 61.375 72.90625 
L 61.375 64.59375 
L 35.5 64.59375 
L 35.5 0 
L 25.59375 0 
L 25.59375 64.59375 
L -0.296875 64.59375 
z
" id="DejaVuSans-84"/>
       <path d="M 56.203125 29.59375 
L 56.203125 25.203125 
L 14.890625 25.203125 
Q 15.484375 15.921875 20.484375 11.0625 
Q 25.484375 6.203125 34.421875 6.203125 
Q 39.59375 6.203125 44.453125 7.46875 
Q 49.3125 8.734375 54.109375 11.28125 
L 54.109375 2.78125 
Q 49.265625 0.734375 44.1875 -0.34375 
Q 39.109375 -1.421875 33.890625 -1.421875 
Q 20.796875 -1.421875 13.15625 6.1875 
Q 5.515625 13.8125 5.515625 26.8125 
Q 5.515625 40.234375 12.765625 48.109375 
Q 20.015625 56 32.328125 56 
Q 43.359375 56 49.78125 48.890625 
Q 56.203125 41.796875 56.203125 29.59375 
z
M 47.21875 32.234375 
Q 47.125 39.59375 43.09375 43.984375 
Q 39.0625 48.390625 32.421875 48.390625 
Q 24.90625 48.390625 20.390625 44.140625 
Q 15.875 39.890625 15.1875 32.171875 
z
" id="DejaVuSans-101"/>
       <path d="M 18.3125 70.21875 
L 18.3125 54.6875 
L 36.8125 54.6875 
L 36.8125 47.703125 
L 18.3125 47.703125 
L 18.3125 18.015625 
Q 18.3125 11.328125 20.140625 9.421875 
Q 21.96875 7.515625 27.59375 7.515625 
L 36.8125 7.515625 
L 36.8125 0 
L 27.59375 0 
Q 17.1875 0 13.234375 3.875 
Q 9.28125 7.765625 9.28125 18.015625 
L 9.28125 47.703125 
L 2.6875 47.703125 
L 2.6875 54.6875 
L 9.28125 54.6875 
L 9.28125 70.21875 
z
" id="DejaVuSans-116"/>
       <path id="DejaVuSans-32"/>
       <path d="M 34.1875 63.1875 
L 20.796875 26.90625 
L 47.609375 26.90625 
z
M 28.609375 72.90625 
L 39.796875 72.90625 
L 67.578125 0 
L 57.328125 0 
L 50.6875 18.703125 
L 17.828125 18.703125 
L 11.1875 0 
L 0.78125 0 
z
" id="DejaVuSans-65"/>
       <path d="M 8.5 21.578125 
L 8.5 54.6875 
L 17.484375 54.6875 
L 17.484375 21.921875 
Q 17.484375 14.15625 20.5 10.265625 
Q 23.53125 6.390625 29.59375 6.390625 
Q 36.859375 6.390625 41.078125 11.03125 
Q 45.3125 15.671875 45.3125 23.6875 
L 45.3125 54.6875 
L 54.296875 54.6875 
L 54.296875 0 
L 45.3125 0 
L 45.3125 8.40625 
Q 42.046875 3.421875 37.71875 1 
Q 33.40625 -1.421875 27.6875 -1.421875 
Q 18.265625 -1.421875 13.375 4.4375 
Q 8.5 10.296875 8.5 21.578125 
z
M 31.109375 56 
z
" id="DejaVuSans-117"/>
       <path d="M 41.109375 46.296875 
Q 39.59375 47.171875 37.8125 47.578125 
Q 36.03125 48 33.890625 48 
Q 26.265625 48 22.1875 43.046875 
Q 18.109375 38.09375 18.109375 28.8125 
L 18.109375 0 
L 9.078125 0 
L 9.078125 54.6875 
L 18.109375 54.6875 
L 18.109375 46.1875 
Q 20.953125 51.171875 25.484375 53.578125 
Q 30.03125 56 36.53125 56 
Q 37.453125 56 38.578125 55.875 
Q 39.703125 55.765625 41.0625 55.515625 
z
" id="DejaVuSans-114"/>
       <path d="M 34.28125 27.484375 
Q 23.390625 27.484375 19.1875 25 
Q 14.984375 22.515625 14.984375 16.5 
Q 14.984375 11.71875 18.140625 8.90625 
Q 21.296875 6.109375 26.703125 6.109375 
Q 34.1875 6.109375 38.703125 11.40625 
Q 43.21875 16.703125 43.21875 25.484375 
L 43.21875 27.484375 
z
M 52.203125 31.203125 
L 52.203125 0 
L 43.21875 0 
L 43.21875 8.296875 
Q 40.140625 3.328125 35.546875 0.953125 
Q 30.953125 -1.421875 24.3125 -1.421875 
Q 15.921875 -1.421875 10.953125 3.296875 
Q 6 8.015625 6 15.921875 
Q 6 25.140625 12.171875 29.828125 
Q 18.359375 34.515625 30.609375 34.515625 
L 43.21875 34.515625 
L 43.21875 35.40625 
Q 43.21875 41.609375 39.140625 45 
Q 35.0625 48.390625 27.6875 48.390625 
Q 23 48.390625 18.546875 47.265625 
Q 14.109375 46.140625 10.015625 43.890625 
L 10.015625 52.203125 
Q 14.9375 54.109375 19.578125 55.046875 
Q 24.21875 56 28.609375 56 
Q 40.484375 56 46.34375 49.84375 
Q 52.203125 43.703125 52.203125 31.203125 
z
" id="DejaVuSans-97"/>
       <path d="M 32.171875 -5.078125 
Q 28.375 -14.84375 24.75 -17.8125 
Q 21.140625 -20.796875 15.09375 -20.796875 
L 7.90625 -20.796875 
L 7.90625 -13.28125 
L 13.1875 -13.28125 
Q 16.890625 -13.28125 18.9375 -11.515625 
Q 21 -9.765625 23.484375 -3.21875 
L 25.09375 0.875 
L 2.984375 54.6875 
L 12.5 54.6875 
L 29.59375 11.921875 
L 46.6875 54.6875 
L 56.203125 54.6875 
z
" id="DejaVuSans-121"/>
       <path d="M 31 75.875 
Q 24.46875 64.65625 21.28125 53.65625 
Q 18.109375 42.671875 18.109375 31.390625 
Q 18.109375 20.125 21.3125 9.0625 
Q 24.515625 -2 31 -13.1875 
L 23.1875 -13.1875 
Q 15.875 -1.703125 12.234375 9.375 
Q 8.59375 20.453125 8.59375 31.390625 
Q 8.59375 42.28125 12.203125 53.3125 
Q 15.828125 64.359375 23.1875 75.875 
z
" id="DejaVuSans-40"/>
       <path d="M 72.703125 32.078125 
Q 68.453125 32.078125 66.03125 28.46875 
Q 63.625 24.859375 63.625 18.40625 
Q 63.625 12.0625 66.03125 8.421875 
Q 68.453125 4.78125 72.703125 4.78125 
Q 76.859375 4.78125 79.265625 8.421875 
Q 81.6875 12.0625 81.6875 18.40625 
Q 81.6875 24.8125 79.265625 28.4375 
Q 76.859375 32.078125 72.703125 32.078125 
z
M 72.703125 38.28125 
Q 80.421875 38.28125 84.953125 32.90625 
Q 89.5 27.546875 89.5 18.40625 
Q 89.5 9.28125 84.9375 3.921875 
Q 80.375 -1.421875 72.703125 -1.421875 
Q 64.890625 -1.421875 60.34375 3.921875 
Q 55.8125 9.28125 55.8125 18.40625 
Q 55.8125 27.59375 60.375 32.9375 
Q 64.9375 38.28125 72.703125 38.28125 
z
M 22.3125 68.015625 
Q 18.109375 68.015625 15.6875 64.375 
Q 13.28125 60.75 13.28125 54.390625 
Q 13.28125 47.953125 15.671875 44.328125 
Q 18.0625 40.71875 22.3125 40.71875 
Q 26.5625 40.71875 28.96875 44.328125 
Q 31.390625 47.953125 31.390625 54.390625 
Q 31.390625 60.6875 28.953125 64.34375 
Q 26.515625 68.015625 22.3125 68.015625 
z
M 66.40625 74.21875 
L 74.21875 74.21875 
L 28.609375 -1.421875 
L 20.796875 -1.421875 
z
M 22.3125 74.21875 
Q 30.03125 74.21875 34.609375 68.875 
Q 39.203125 63.53125 39.203125 54.390625 
Q 39.203125 45.171875 34.640625 39.84375 
Q 30.078125 34.515625 22.3125 34.515625 
Q 14.546875 34.515625 10.03125 39.859375 
Q 5.515625 45.21875 5.515625 54.390625 
Q 5.515625 63.484375 10.046875 68.84375 
Q 14.59375 74.21875 22.3125 74.21875 
z
" id="DejaVuSans-37"/>
       <path d="M 8.015625 75.875 
L 15.828125 75.875 
Q 23.140625 64.359375 26.78125 53.3125 
Q 30.421875 42.28125 30.421875 31.390625 
Q 30.421875 20.453125 26.78125 9.375 
Q 23.140625 -1.703125 15.828125 -13.1875 
L 8.015625 -13.1875 
Q 14.5 -2 17.703125 9.0625 
Q 20.90625 20.125 20.90625 31.390625 
Q 20.90625 42.671875 17.703125 53.65625 
Q 14.5 64.65625 8.015625 75.875 
z
" id="DejaVuSans-41"/>
      </defs>
      <use xlink:href="#DejaVuSans-84"/>
      <use x="44.083984" xlink:href="#DejaVuSans-101"/>
      <use x="105.607422" xlink:href="#DejaVuSans-115"/>
      <use x="157.707031" xlink:href="#DejaVuSans-116"/>
      <use x="196.916016" xlink:href="#DejaVuSans-32"/>
      <use x="228.703125" xlink:href="#DejaVuSans-65"/>
      <use x="295.361328" xlink:href="#DejaVuSans-99"/>
      <use x="350.341797" xlink:href="#DejaVuSans-99"/>
      <use x="405.322266" xlink:href="#DejaVuSans-117"/>
      <use x="468.701172" xlink:href="#DejaVuSans-114"/>
      <use x="509.814453" xlink:href="#DejaVuSans-97"/>
      <use x="571.09375" xlink:href="#DejaVuSans-99"/>
      <use x="626.074219" xlink:href="#DejaVuSans-121"/>
      <use x="685.253906" xlink:href="#DejaVuSans-32"/>
      <use x="717.041016" xlink:href="#DejaVuSans-40"/>
      <use x="756.054688" xlink:href="#DejaVuSans-37"/>
      <use x="851.074219" xlink:href="#DejaVuSans-41"/>
     </g>
    </g>
   </g>
   <g id="line2d_13">
    <path clip-path="url(#p8062669d37)" d="M 62.998636 272.468935 
L 65.472279 251.947424 
L 67.945921 236.419683 
L 70.419564 222.440163 
L 72.893206 194.132014 
L 75.366849 150.797019 
L 77.840491 122.989764 
L 80.314134 113.761156 
L 82.787776 106.111125 
L 85.261419 81.461026 
L 87.735061 77.575296 
L 90.208703 82.64496 
L 92.682346 76.269934 
L 95.155988 74.418141 
L 97.629631 70.927056 
L 100.103273 60.727015 
L 102.576916 65.918107 
L 105.050558 58.237719 
L 107.524201 52.135909 
L 109.997843 65.948464 
L 112.471486 55.535922 
L 114.945128 56.203782 
L 117.418771 63.125239 
L 119.892413 61.273445 
L 122.366056 62.578808 
L 124.839698 55.353779 
L 127.31334 59.391295 
L 129.786983 56.234139 
L 132.260625 58.510934 
L 134.734268 51.559121 
L 137.20791 53.501986 
L 139.681553 53.076984 
L 142.155195 53.016269 
L 144.628838 51.68055 
L 147.10248 50.071615 
L 149.576123 57.084143 
L 152.049765 61.425232 
L 154.523408 56.901999 
L 156.99705 48.280536 
L 159.470692 59.391295 
L 161.944335 50.041258 
L 164.417977 47.79482 
L 166.89162 50.587688 
L 169.365262 48.250179 
L 171.838905 49.646613 
L 174.312547 47.066246 
L 176.78619 46.914459 
L 181.733475 49.737685 
L 184.207117 48.614466 
L 189.154402 50.830546 
L 191.628045 50.314473 
L 194.101687 49.13054 
L 196.575329 50.34483 
L 199.048972 44.121591 
L 201.522614 51.528763 
L 203.996257 56.659141 
L 206.469899 49.191254 
L 208.943542 41.055507 
L 211.417184 49.100182 
L 213.890827 48.887681 
L 216.364469 43.90909 
L 218.838112 41.055507 
L 221.311754 48.250179 
L 223.785397 49.160897 
L 226.259039 41.753724 
L 228.732682 45.700169 
L 231.206324 48.644823 
L 233.679966 43.028729 
L 236.153609 45.851955 
L 238.627251 45.882312 
L 241.100894 43.24123 
L 243.574536 46.034099 
L 246.048179 43.271587 
L 248.521821 42.968015 
L 250.995464 45.851955 
L 253.469106 40.418005 
L 255.942749 42.512656 
L 258.416391 42.634085 
L 260.890034 41.450152 
L 263.363676 39.810859 
L 265.837318 42.664442 
L 268.310961 41.601938 
L 270.784603 40.69122 
L 273.258246 43.180516 
L 275.731888 39.143 
L 278.205531 40.478719 
L 280.679173 38.110853 
L 283.152816 37.959066 
L 285.626458 39.750145 
L 288.100101 41.69301 
L 290.573743 38.687641 
L 293.047386 38.80907 
L 295.521028 35.955487 
L 297.994671 37.200135 
L 300.468313 36.501917 
L 305.415598 36.926919 
L 307.88924 35.560842 
L 310.362883 36.13763 
L 312.836525 36.532275 
L 315.310168 35.773343 
L 317.78381 33.891193 
L 320.257453 38.900141 
L 322.731095 34.801911 
L 325.204738 33.010832 
L 327.67838 34.194765 
L 330.152023 33.769764 
L 332.625665 32.737617 
L 335.099308 33.223333 
L 337.57295 33.860835 
L 340.046592 34.285837 
L 342.520235 32.737617 
L 344.993877 32.767974 
L 347.46752 33.860835 
L 349.941162 32.494759 
L 352.414805 32.100114 
L 354.888447 31.250111 
L 357.36209 31.675112 
L 359.835732 30.491179 
L 362.309375 31.887613 
L 364.783017 29.307246 
L 367.25666 29.185817 
L 369.730302 31.341183 
L 372.203944 30.339393 
L 374.677587 29.125102 
L 377.151229 30.825109 
L 379.624872 29.580461 
L 382.098514 28.973316 
L 384.572157 29.185817 
L 387.045799 27.971526 
L 389.519442 29.307246 
L 391.993084 28.609029 
L 394.466727 28.851887 
L 396.940369 28.609029 
L 399.414012 28.184027 
L 401.887654 28.244742 
L 404.361297 27.546524 
L 406.834939 28.7001 
L 409.308581 28.244742 
L 411.782224 27.971526 
L 414.255866 27.850097 
L 416.729509 27.242952 
L 419.203151 27.364381 
L 421.676794 27.667953 
L 424.150436 27.759025 
L 426.624079 27.334024 
L 431.571364 27.334024 
L 431.571364 27.334024 
" style="fill:none;stroke:#1f77b4;stroke-linecap:square;stroke-width:1.5;"/>
   </g>
   <g id="line2d_14">
    <path clip-path="url(#p8062669d37)" d="M 62.998636 287.404709 
L 65.472279 289.347574 
L 67.945921 281.576115 
L 70.419564 277.811814 
L 72.893206 269.918925 
L 75.366849 249.754112 
L 77.840491 218.675862 
L 80.314134 215.640136 
L 82.787776 185.874838 
L 85.261419 174.718543 
L 87.735061 120.682612 
L 90.208703 105.686123 
L 92.682346 104.775406 
L 95.155988 94.150363 
L 97.629631 72.019917 
L 100.103273 78.486014 
L 102.576916 82.523531 
L 107.524201 62.33595 
L 109.997843 66.282394 
L 112.471486 60.33237 
L 114.945128 59.33058 
L 117.418771 69.803837 
L 119.892413 57.660931 
L 122.366056 63.975242 
L 124.839698 61.182374 
L 127.31334 61.303803 
L 129.786983 58.875221 
L 132.260625 62.396664 
L 134.734268 55.809138 
L 137.20791 54.746634 
L 139.681553 53.866273 
L 142.155195 55.930567 
L 144.628838 58.146647 
L 147.10248 53.866273 
L 149.576123 58.480577 
L 152.049765 57.44843 
L 154.523408 55.930567 
L 156.99705 52.01448 
L 159.470692 56.932357 
L 161.944335 51.316263 
L 164.417977 55.535922 
L 166.89162 51.528763 
L 169.365262 55.171635 
L 171.838905 55.293064 
L 174.312547 56.021639 
L 176.78619 48.280536 
L 179.259832 50.0109 
L 181.733475 54.078774 
L 184.207117 48.887681 
L 186.68076 57.843075 
L 189.154402 46.337671 
L 191.628045 56.476998 
L 194.101687 48.553752 
L 196.575329 51.953765 
L 199.048972 45.153738 
L 201.522614 47.764463 
L 203.996257 48.675181 
L 206.469899 47.218032 
L 208.943542 43.180516 
L 211.417184 54.200203 
L 213.890827 54.776991 
L 216.364469 49.282326 
L 218.838112 42.968015 
L 221.311754 52.318052 
L 223.785397 51.407334 
L 226.259039 45.366239 
L 228.732682 45.851955 
L 231.206324 50.860904 
L 233.679966 46.944817 
L 236.153609 47.491247 
L 238.627251 48.553752 
L 243.574536 44.516235 
L 248.521821 43.484088 
L 250.995464 45.882312 
L 253.469106 42.785871 
L 255.942749 43.180516 
L 258.416391 44.546593 
L 260.890034 38.050138 
L 263.363676 44.637664 
L 265.837318 39.476929 
L 268.310961 41.35908 
L 270.784603 39.628716 
L 273.258246 46.762673 
L 275.731888 39.476929 
L 278.205531 39.264429 
L 280.679173 37.382278 
L 283.152816 40.35729 
L 285.626458 39.507287 
L 288.100101 40.35729 
L 290.573743 39.719788 
L 293.047386 36.926919 
L 295.521028 38.232282 
L 297.994671 40.114432 
L 300.468313 40.266218 
L 302.941955 39.3555 
L 305.415598 39.082285 
L 307.88924 38.687641 
L 310.362883 36.47156 
L 312.836525 37.230492 
L 315.310168 35.742986 
L 317.78381 35.773343 
L 320.257453 37.109063 
L 322.731095 35.8037 
L 325.204738 37.442993 
L 327.67838 34.376909 
L 330.152023 34.650124 
L 332.625665 35.651914 
L 335.099308 35.8037 
L 337.57295 34.58941 
L 340.046592 34.073336 
L 342.520235 33.92155 
L 344.993877 31.098324 
L 347.46752 31.675112 
L 349.941162 32.494759 
L 352.414805 32.767974 
L 354.888447 30.794752 
L 357.36209 32.434044 
L 359.835732 30.946538 
L 362.309375 31.796541 
L 364.783017 31.280468 
L 367.25666 30.03582 
L 369.730302 30.157249 
L 372.203944 30.673323 
L 377.151229 29.003673 
L 379.624872 30.36975 
L 382.098514 29.792962 
L 384.572157 29.853677 
L 387.045799 29.732247 
L 389.519442 29.762605 
L 391.993084 28.942959 
L 394.466727 28.851887 
L 396.940369 29.003673 
L 399.414012 28.730458 
L 401.887654 30.096535 
L 404.361297 28.244742 
L 409.308581 29.36796 
L 411.782224 28.517957 
L 414.255866 28.851887 
L 416.729509 28.335813 
L 419.203151 28.092955 
L 421.676794 28.4876 
L 424.150436 28.244742 
L 426.624079 27.698311 
L 429.097721 27.789383 
L 431.571364 28.123312 
L 431.571364 28.123312 
" style="fill:none;stroke:#ff7f0e;stroke-linecap:square;stroke-width:1.5;"/>
   </g>
   <g id="line2d_15">
    <path clip-path="url(#p8062669d37)" d="M 62.998636 286.311848 
L 65.472279 277.568956 
L 67.945921 288.861858 
L 70.419564 271.618932 
L 72.893206 257.411732 
L 75.366849 245.375076 
L 77.840491 225.35446 
L 80.314134 217.218714 
L 82.787776 168.495304 
L 85.261419 145.696998 
L 87.735061 120.075467 
L 90.208703 119.923681 
L 92.682346 102.832541 
L 95.155988 92.753929 
L 97.629631 81.703884 
L 100.103273 83.161033 
L 102.576916 76.239577 
L 105.050558 65.827035 
L 107.524201 65.55382 
L 109.997843 79.305661 
L 112.471486 64.369886 
L 114.945128 61.941305 
L 117.418771 71.048485 
L 119.892413 67.496685 
L 122.366056 73.294922 
L 124.839698 65.159175 
L 127.31334 60.453799 
L 129.786983 58.055575 
L 132.260625 58.602006 
L 134.734268 53.289485 
L 137.20791 61.910948 
L 139.681553 57.569859 
L 142.155195 60.575228 
L 144.628838 54.018059 
L 147.10248 53.805558 
L 149.576123 54.503775 
L 152.049765 54.23056 
L 154.523408 57.175215 
L 156.99705 47.764463 
L 159.470692 57.296644 
L 161.944335 52.712697 
L 164.417977 50.0109 
L 166.89162 53.137698 
L 169.365262 58.875221 
L 171.838905 50.34483 
L 174.312547 56.082353 
L 176.78619 54.078774 
L 179.259832 52.89484 
L 181.733475 50.193044 
L 184.207117 54.200203 
L 186.68076 50.557331 
L 189.154402 47.187675 
L 191.628045 52.378767 
L 194.101687 53.441271 
L 196.575329 52.34841 
L 199.048972 48.46268 
L 201.522614 50.253758 
L 203.996257 46.914459 
L 206.469899 47.79482 
L 208.943542 43.635875 
L 211.417184 50.648403 
L 213.890827 48.46268 
L 216.364469 49.616256 
L 218.838112 47.339461 
L 221.311754 49.525184 
L 223.785397 53.926987 
L 226.259039 45.457311 
L 228.732682 48.280536 
L 231.206324 47.491247 
L 233.679966 43.726946 
L 236.153609 48.219822 
L 238.627251 50.34483 
L 241.100894 47.643034 
L 243.574536 48.614466 
L 246.048179 41.875153 
L 248.521821 47.491247 
L 250.995464 45.730526 
L 253.469106 45.669811 
L 255.942749 42.634085 
L 258.416391 45.153738 
L 260.890034 42.330512 
L 263.363676 45.123381 
L 265.837318 42.148369 
L 268.310961 44.789451 
L 270.784603 42.876943 
L 273.258246 45.184095 
L 275.731888 41.571581 
L 278.205531 42.543013 
L 280.679173 41.450152 
L 283.152816 40.084075 
L 285.626458 41.541223 
L 288.100101 43.484088 
L 290.573743 43.028729 
L 293.047386 38.414425 
L 295.521028 38.080495 
L 297.994671 40.02336 
L 300.468313 40.964435 
L 302.941955 37.959066 
L 305.415598 39.932288 
L 307.88924 41.02515 
L 310.362883 35.894772 
L 312.836525 37.776923 
L 315.310168 37.321564 
L 317.78381 41.632295 
L 320.257453 39.993003 
L 322.731095 36.987634 
L 325.204738 39.203714 
L 327.67838 38.384068 
L 330.152023 37.685851 
L 332.625665 37.47335 
L 335.099308 35.378699 
L 337.57295 36.13763 
L 340.046592 37.169777 
L 342.520235 35.560842 
L 344.993877 36.866205 
L 347.46752 33.010832 
L 349.941162 33.860835 
L 352.414805 36.259059 
L 354.888447 35.8037 
L 357.36209 35.834058 
L 359.835732 34.498338 
L 362.309375 33.739406 
L 367.25666 32.889403 
L 369.730302 32.403687 
L 372.203944 32.767974 
L 374.677587 31.553683 
L 377.151229 30.005463 
L 379.624872 31.766184 
L 382.098514 30.946538 
L 384.572157 31.735827 
L 387.045799 30.551894 
L 389.519442 31.250111 
L 391.993084 30.946538 
L 394.466727 31.159039 
L 396.940369 30.794752 
L 399.414012 30.734037 
L 401.887654 30.794752 
L 404.361297 29.580461 
L 406.834939 30.339393 
L 409.308581 30.217964 
L 411.782224 30.248321 
L 414.255866 29.519747 
L 416.729509 29.884034 
L 419.203151 29.671533 
L 424.150436 29.853677 
L 426.624079 29.975106 
L 429.097721 30.217964 
L 431.571364 30.187606 
L 431.571364 30.187606 
" style="fill:none;stroke:#2ca02c;stroke-linecap:square;stroke-width:1.5;"/>
   </g>
   <g id="line2d_16">
    <path clip-path="url(#p8062669d37)" d="M 62.998636 287.768996 
L 65.472279 282.426118 
L 67.945921 287.647567 
L 70.419564 278.904675 
L 72.893206 268.583205 
L 75.366849 253.404573 
L 77.840491 235.67593 
L 80.314134 222.766504 
L 82.787776 201.903474 
L 85.261419 165.489935 
L 87.735061 142.160377 
L 90.208703 117.646886 
L 92.682346 106.8397 
L 95.155988 87.016406 
L 97.629631 93.84679 
L 100.103273 80.853881 
L 102.576916 83.161033 
L 105.050558 80.489594 
L 107.524201 69.925266 
L 109.997843 78.121727 
L 112.471486 64.643102 
L 114.945128 62.123449 
L 117.418771 69.925266 
L 119.892413 62.123449 
L 122.366056 67.496685 
L 124.839698 62.88238 
L 127.31334 64.460958 
L 129.786983 66.889539 
L 132.260625 57.903789 
L 134.734268 57.266286 
L 137.20791 52.34841 
L 139.681553 55.475208 
L 142.155195 64.066314 
L 144.628838 57.934146 
L 147.10248 56.325211 
L 149.576123 58.146647 
L 152.049765 57.478787 
L 154.523408 52.469839 
L 156.99705 52.318052 
L 159.470692 56.719856 
L 161.944335 51.437692 
L 164.417977 51.771622 
L 166.89162 50.34483 
L 169.365262 51.34662 
L 171.838905 51.255548 
L 174.312547 51.34662 
L 176.78619 53.684129 
L 179.259832 52.196623 
L 181.733475 51.741264 
L 184.207117 45.609097 
L 186.68076 50.405545 
L 189.154402 49.160897 
L 191.628045 49.646613 
L 194.101687 48.766252 
L 196.575329 52.257338 
L 199.048972 50.375187 
L 201.522614 52.651982 
L 203.996257 46.975174 
L 206.469899 44.789451 
L 208.943542 44.668022 
L 211.417184 50.34483 
L 213.890827 54.018059 
L 216.364469 48.493037 
L 218.838112 45.335881 
L 221.311754 48.341251 
L 223.785397 49.555541 
L 226.259039 44.668022 
L 228.732682 48.523394 
L 231.206324 45.700169 
L 233.679966 44.303734 
L 236.153609 47.612676 
L 238.627251 46.003741 
L 241.100894 45.153738 
L 243.574536 50.284116 
L 246.048179 44.91088 
L 248.521821 47.703748 
L 250.995464 47.612676 
L 253.469106 45.032309 
L 258.416391 43.332302 
L 260.890034 40.994793 
L 263.363676 40.387647 
L 265.837318 42.876943 
L 268.310961 40.994793 
L 270.784603 41.298365 
L 273.258246 45.548382 
L 275.731888 40.296576 
L 278.205531 41.237651 
L 280.679173 36.835847 
L 283.152816 41.662652 
L 285.626458 40.266218 
L 288.100101 42.087654 
L 290.573743 37.746565 
L 293.047386 41.510866 
L 295.521028 41.541223 
L 297.994671 43.423374 
L 300.468313 40.235861 
L 302.941955 39.659073 
L 305.415598 37.716208 
L 307.88924 38.991213 
L 310.362883 37.503707 
L 312.836525 37.412635 
L 315.310168 37.47335 
L 317.78381 38.626926 
L 320.257453 38.444782 
L 322.731095 35.044769 
L 325.204738 35.5912 
L 327.67838 36.016201 
L 330.152023 35.378699 
L 332.625665 35.530485 
L 335.099308 34.862625 
L 337.57295 36.380488 
L 340.046592 34.650124 
L 342.520235 33.982265 
L 344.993877 33.58762 
L 347.46752 32.009042 
L 349.941162 33.769764 
L 352.414805 32.312615 
L 354.888447 33.25369 
L 357.36209 32.100114 
L 359.835732 35.439413 
L 362.309375 32.2519 
L 364.783017 32.676902 
L 367.25666 31.492969 
L 369.730302 30.096535 
L 372.203944 31.644755 
L 374.677587 29.70189 
L 377.151229 30.187606 
L 379.624872 31.310825 
L 382.098514 31.826899 
L 384.572157 30.551894 
L 387.045799 32.494759 
L 389.519442 29.884034 
L 391.993084 29.398318 
L 394.466727 30.70368 
L 396.940369 30.794752 
L 399.414012 31.675112 
L 401.887654 31.401897 
L 406.834939 30.126892 
L 409.308581 30.309036 
L 414.255866 30.217964 
L 416.729509 31.067967 
L 419.203151 30.642965 
L 424.150436 30.460822 
L 426.624079 30.885824 
L 429.097721 30.946538 
L 431.571364 30.734037 
L 431.571364 30.734037 
" style="fill:none;stroke:#d62728;stroke-linecap:square;stroke-width:1.5;"/>
   </g>
   <g id="line2d_17">
    <path clip-path="url(#p8062669d37)" d="M 62.998636 277.326097 
L 65.472279 271.011786 
L 67.945921 263.354166 
L 70.419564 256.440299 
L 72.893206 229.968765 
L 75.366849 214.175398 
L 77.840491 192.849419 
L 80.314134 155.532752 
L 82.787776 148.763082 
L 85.261419 132.096944 
L 87.735061 106.141482 
L 90.208703 91.418209 
L 92.682346 104.16826 
L 95.155988 84.162823 
L 97.629631 83.768178 
L 100.103273 76.603864 
L 102.576916 77.939584 
L 105.050558 76.482435 
L 107.524201 71.534201 
L 109.997843 77.211009 
L 112.471486 65.918107 
L 114.945128 63.21631 
L 117.418771 68.589546 
L 119.892413 68.953833 
L 122.366056 77.818155 
L 124.839698 65.310962 
L 127.31334 70.775269 
L 129.786983 62.305592 
L 132.260625 63.246668 
L 134.734268 64.977032 
L 137.20791 60.362727 
L 139.681553 56.476998 
L 142.155195 63.853813 
L 144.628838 60.089512 
L 147.10248 58.11629 
L 149.576123 58.875221 
L 152.049765 68.832404 
L 154.523408 50.041258 
L 156.99705 55.414493 
L 159.470692 63.489526 
L 161.944335 55.930567 
L 164.417977 54.989492 
L 166.89162 51.285905 
L 169.365262 54.109131 
L 171.838905 53.259128 
L 174.312547 63.975242 
L 176.78619 50.101972 
L 179.259832 56.932357 
L 181.733475 48.766252 
L 184.207117 53.137698 
L 186.68076 55.960924 
L 189.154402 49.100182 
L 191.628045 60.393085 
L 194.101687 58.78415 
L 199.048972 53.198413 
L 201.522614 55.809138 
L 203.996257 51.255548 
L 206.469899 51.650193 
L 208.943542 46.337671 
L 211.417184 50.557331 
L 213.890827 49.525184 
L 216.364469 53.471628 
L 218.838112 47.096603 
L 221.311754 47.005531 
L 223.785397 47.369818 
L 226.259039 51.255548 
L 228.732682 52.01448 
L 231.206324 47.825177 
L 233.679966 46.216242 
L 236.153609 54.169845 
L 238.627251 50.648403 
L 241.100894 45.639454 
L 243.574536 50.071615 
L 246.048179 45.275167 
L 248.521821 52.075194 
L 250.995464 51.407334 
L 253.469106 47.764463 
L 255.942749 47.946606 
L 258.416391 44.000162 
L 260.890034 44.485878 
L 263.363676 45.24481 
L 265.837318 44.485878 
L 268.310961 44.57695 
L 270.784603 44.091234 
L 273.258246 47.703748 
L 275.731888 45.518025 
L 278.205531 43.818018 
L 280.679173 38.991213 
L 283.152816 41.69301 
L 285.626458 46.155528 
L 288.100101 44.303734 
L 290.573743 41.419794 
L 293.047386 40.600148 
L 295.521028 38.657283 
L 297.994671 41.632295 
L 300.468313 39.810859 
L 302.941955 40.084075 
L 305.415598 40.660863 
L 307.88924 40.326933 
L 310.362883 39.476929 
L 312.836525 38.839427 
L 315.310168 39.659073 
L 317.78381 39.3555 
L 320.257453 41.905511 
L 322.731095 39.325143 
L 325.204738 37.503707 
L 327.67838 37.13942 
L 330.152023 39.051928 
L 332.625665 35.196555 
L 335.099308 35.196555 
L 337.57295 37.291206 
L 340.046592 33.58762 
L 342.520235 37.564422 
L 344.993877 35.500128 
L 347.46752 33.92155 
L 349.941162 33.769764 
L 352.414805 35.439413 
L 354.888447 34.801911 
L 357.36209 32.798331 
L 359.835732 34.741196 
L 362.309375 33.466191 
L 364.783017 34.012622 
L 367.25666 35.105483 
L 369.730302 32.91976 
L 372.203944 32.312615 
L 374.677587 32.828688 
L 377.151229 31.857256 
L 379.624872 33.284047 
L 384.572157 32.616188 
L 389.519442 32.58583 
L 391.993084 31.067967 
L 396.940369 31.523326 
L 399.414012 30.70368 
L 401.887654 31.310825 
L 404.361297 30.400107 
L 409.308581 31.341183 
L 411.782224 31.553683 
L 414.255866 30.36975 
L 419.203151 30.825109 
L 421.676794 29.792962 
L 424.150436 30.582251 
L 426.624079 30.612608 
L 429.097721 30.36975 
L 431.571364 30.885824 
L 431.571364 30.885824 
" style="fill:none;stroke:#9467bd;stroke-linecap:square;stroke-width:1.5;"/>
   </g>
   <g id="patch_3">
    <path d="M 44.57 303.64 
L 44.57 10.8 
" style="fill:none;stroke:#000000;stroke-linecap:square;stroke-linejoin:miter;stroke-width:0.8;"/>
   </g>
   <g id="patch_4">
    <path d="M 450 303.64 
L 450 10.8 
" style="fill:none;stroke:#000000;stroke-linecap:square;stroke-linejoin:miter;stroke-width:0.8;"/>
   </g>
   <g id="patch_5">
    <path d="M 44.57 303.64 
L 450 303.64 
" style="fill:none;stroke:#000000;stroke-linecap:square;stroke-linejoin:miter;stroke-width:0.8;"/>
   </g>
   <g id="patch_6">
    <path d="M 44.57 10.8 
L 450 10.8 
" style="fill:none;stroke:#000000;stroke-linecap:square;stroke-linejoin:miter;stroke-width:0.8;"/>
   </g>
   <g id="legend_1">
    <g id="patch_7">
     <path d="M 291.78125 298.64 
L 443 298.64 
Q 445 298.64 445 296.64 
L 445 224.249375 
Q 445 222.249375 443 222.249375 
L 291.78125 222.249375 
Q 289.78125 222.249375 289.78125 224.249375 
L 289.78125 296.64 
Q 289.78125 298.64 291.78125 298.64 
z
" style="fill:#ffffff;opacity:0.8;stroke:#cccccc;stroke-linejoin:miter;"/>
    </g>
    <g id="line2d_18">
     <path d="M 293.78125 230.347812 
L 313.78125 230.347812 
" style="fill:none;stroke:#1f77b4;stroke-linecap:square;stroke-width:1.5;"/>
    </g>
    <g id="line2d_19"/>
    <g id="text_15">
     <!-- AllReduce SGD -->
     <g transform="translate(321.78125 233.847812)scale(0.1 -0.1)">
      <defs>
       <path d="M 9.421875 75.984375 
L 18.40625 75.984375 
L 18.40625 0 
L 9.421875 0 
z
" id="DejaVuSans-108"/>
       <path d="M 44.390625 34.1875 
Q 47.5625 33.109375 50.5625 29.59375 
Q 53.5625 26.078125 56.59375 19.921875 
L 66.609375 0 
L 56 0 
L 46.6875 18.703125 
Q 43.0625 26.03125 39.671875 28.421875 
Q 36.28125 30.8125 30.421875 30.8125 
L 19.671875 30.8125 
L 19.671875 0 
L 9.8125 0 
L 9.8125 72.90625 
L 32.078125 72.90625 
Q 44.578125 72.90625 50.734375 67.671875 
Q 56.890625 62.453125 56.890625 51.90625 
Q 56.890625 45.015625 53.6875 40.46875 
Q 50.484375 35.9375 44.390625 34.1875 
z
M 19.671875 64.796875 
L 19.671875 38.921875 
L 32.078125 38.921875 
Q 39.203125 38.921875 42.84375 42.21875 
Q 46.484375 45.515625 46.484375 51.90625 
Q 46.484375 58.296875 42.84375 61.546875 
Q 39.203125 64.796875 32.078125 64.796875 
z
" id="DejaVuSans-82"/>
       <path d="M 45.40625 46.390625 
L 45.40625 75.984375 
L 54.390625 75.984375 
L 54.390625 0 
L 45.40625 0 
L 45.40625 8.203125 
Q 42.578125 3.328125 38.25 0.953125 
Q 33.9375 -1.421875 27.875 -1.421875 
Q 17.96875 -1.421875 11.734375 6.484375 
Q 5.515625 14.40625 5.515625 27.296875 
Q 5.515625 40.1875 11.734375 48.09375 
Q 17.96875 56 27.875 56 
Q 33.9375 56 38.25 53.625 
Q 42.578125 51.265625 45.40625 46.390625 
z
M 14.796875 27.296875 
Q 14.796875 17.390625 18.875 11.75 
Q 22.953125 6.109375 30.078125 6.109375 
Q 37.203125 6.109375 41.296875 11.75 
Q 45.40625 17.390625 45.40625 27.296875 
Q 45.40625 37.203125 41.296875 42.84375 
Q 37.203125 48.484375 30.078125 48.484375 
Q 22.953125 48.484375 18.875 42.84375 
Q 14.796875 37.203125 14.796875 27.296875 
z
" id="DejaVuSans-100"/>
       <path d="M 53.515625 70.515625 
L 53.515625 60.890625 
Q 47.90625 63.578125 42.921875 64.890625 
Q 37.9375 66.21875 33.296875 66.21875 
Q 25.25 66.21875 20.875 63.09375 
Q 16.5 59.96875 16.5 54.203125 
Q 16.5 49.359375 19.40625 46.890625 
Q 22.3125 44.4375 30.421875 42.921875 
L 36.375 41.703125 
Q 47.40625 39.59375 52.65625 34.296875 
Q 57.90625 29 57.90625 20.125 
Q 57.90625 9.515625 50.796875 4.046875 
Q 43.703125 -1.421875 29.984375 -1.421875 
Q 24.8125 -1.421875 18.96875 -0.25 
Q 13.140625 0.921875 6.890625 3.21875 
L 6.890625 13.375 
Q 12.890625 10.015625 18.65625 8.296875 
Q 24.421875 6.59375 29.984375 6.59375 
Q 38.421875 6.59375 43.015625 9.90625 
Q 47.609375 13.234375 47.609375 19.390625 
Q 47.609375 24.75 44.3125 27.78125 
Q 41.015625 30.8125 33.5 32.328125 
L 27.484375 33.5 
Q 16.453125 35.6875 11.515625 40.375 
Q 6.59375 45.0625 6.59375 53.421875 
Q 6.59375 63.09375 13.40625 68.65625 
Q 20.21875 74.21875 32.171875 74.21875 
Q 37.3125 74.21875 42.625 73.28125 
Q 47.953125 72.359375 53.515625 70.515625 
z
" id="DejaVuSans-83"/>
       <path d="M 59.515625 10.40625 
L 59.515625 29.984375 
L 43.40625 29.984375 
L 43.40625 38.09375 
L 69.28125 38.09375 
L 69.28125 6.78125 
Q 63.578125 2.734375 56.6875 0.65625 
Q 49.8125 -1.421875 42 -1.421875 
Q 24.90625 -1.421875 15.25 8.5625 
Q 5.609375 18.5625 5.609375 36.375 
Q 5.609375 54.25 15.25 64.234375 
Q 24.90625 74.21875 42 74.21875 
Q 49.125 74.21875 55.546875 72.453125 
Q 61.96875 70.703125 67.390625 67.28125 
L 67.390625 56.78125 
Q 61.921875 61.421875 55.765625 63.765625 
Q 49.609375 66.109375 42.828125 66.109375 
Q 29.4375 66.109375 22.71875 58.640625 
Q 16.015625 51.171875 16.015625 36.375 
Q 16.015625 21.625 22.71875 14.15625 
Q 29.4375 6.6875 42.828125 6.6875 
Q 48.046875 6.6875 52.140625 7.59375 
Q 56.25 8.5 59.515625 10.40625 
z
" id="DejaVuSans-71"/>
       <path d="M 19.671875 64.796875 
L 19.671875 8.109375 
L 31.59375 8.109375 
Q 46.6875 8.109375 53.6875 14.9375 
Q 60.6875 21.78125 60.6875 36.53125 
Q 60.6875 51.171875 53.6875 57.984375 
Q 46.6875 64.796875 31.59375 64.796875 
z
M 9.8125 72.90625 
L 30.078125 72.90625 
Q 51.265625 72.90625 61.171875 64.09375 
Q 71.09375 55.28125 71.09375 36.53125 
Q 71.09375 17.671875 61.125 8.828125 
Q 51.171875 0 30.078125 0 
L 9.8125 0 
z
" id="DejaVuSans-68"/>
      </defs>
      <use xlink:href="#DejaVuSans-65"/>
      <use x="68.408203" xlink:href="#DejaVuSans-108"/>
      <use x="96.191406" xlink:href="#DejaVuSans-108"/>
      <use x="123.974609" xlink:href="#DejaVuSans-82"/>
      <use x="188.957031" xlink:href="#DejaVuSans-101"/>
      <use x="250.480469" xlink:href="#DejaVuSans-100"/>
      <use x="313.957031" xlink:href="#DejaVuSans-117"/>
      <use x="377.335938" xlink:href="#DejaVuSans-99"/>
      <use x="432.316406" xlink:href="#DejaVuSans-101"/>
      <use x="493.839844" xlink:href="#DejaVuSans-32"/>
      <use x="525.626953" xlink:href="#DejaVuSans-83"/>
      <use x="589.103516" xlink:href="#DejaVuSans-71"/>
      <use x="666.59375" xlink:href="#DejaVuSans-68"/>
     </g>
    </g>
    <g id="line2d_20">
     <path d="M 293.78125 245.025937 
L 313.78125 245.025937 
" style="fill:none;stroke:#ff7f0e;stroke-linecap:square;stroke-width:1.5;"/>
    </g>
    <g id="line2d_21"/>
    <g id="text_16">
     <!-- QSGD-MN-TS (8,12) bits -->
     <g transform="translate(321.78125 248.525937)scale(0.1 -0.1)">
      <defs>
       <path d="M 39.40625 66.21875 
Q 28.65625 66.21875 22.328125 58.203125 
Q 16.015625 50.203125 16.015625 36.375 
Q 16.015625 22.609375 22.328125 14.59375 
Q 28.65625 6.59375 39.40625 6.59375 
Q 50.140625 6.59375 56.421875 14.59375 
Q 62.703125 22.609375 62.703125 36.375 
Q 62.703125 50.203125 56.421875 58.203125 
Q 50.140625 66.21875 39.40625 66.21875 
z
M 53.21875 1.3125 
L 66.21875 -12.890625 
L 54.296875 -12.890625 
L 43.5 -1.21875 
Q 41.890625 -1.3125 41.03125 -1.359375 
Q 40.1875 -1.421875 39.40625 -1.421875 
Q 24.03125 -1.421875 14.8125 8.859375 
Q 5.609375 19.140625 5.609375 36.375 
Q 5.609375 53.65625 14.8125 63.9375 
Q 24.03125 74.21875 39.40625 74.21875 
Q 54.734375 74.21875 63.90625 63.9375 
Q 73.09375 53.65625 73.09375 36.375 
Q 73.09375 23.6875 67.984375 14.640625 
Q 62.890625 5.609375 53.21875 1.3125 
z
" id="DejaVuSans-81"/>
       <path d="M 4.890625 31.390625 
L 31.203125 31.390625 
L 31.203125 23.390625 
L 4.890625 23.390625 
z
" id="DejaVuSans-45"/>
       <path d="M 9.8125 72.90625 
L 24.515625 72.90625 
L 43.109375 23.296875 
L 61.8125 72.90625 
L 76.515625 72.90625 
L 76.515625 0 
L 66.890625 0 
L 66.890625 64.015625 
L 48.09375 14.015625 
L 38.1875 14.015625 
L 19.390625 64.015625 
L 19.390625 0 
L 9.8125 0 
z
" id="DejaVuSans-77"/>
       <path d="M 9.8125 72.90625 
L 23.09375 72.90625 
L 55.421875 11.921875 
L 55.421875 72.90625 
L 64.984375 72.90625 
L 64.984375 0 
L 51.703125 0 
L 19.390625 60.984375 
L 19.390625 0 
L 9.8125 0 
z
" id="DejaVuSans-78"/>
       <path d="M 11.71875 12.40625 
L 22.015625 12.40625 
L 22.015625 4 
L 14.015625 -11.625 
L 7.71875 -11.625 
L 11.71875 4 
z
" id="DejaVuSans-44"/>
       <path d="M 48.6875 27.296875 
Q 48.6875 37.203125 44.609375 42.84375 
Q 40.53125 48.484375 33.40625 48.484375 
Q 26.265625 48.484375 22.1875 42.84375 
Q 18.109375 37.203125 18.109375 27.296875 
Q 18.109375 17.390625 22.1875 11.75 
Q 26.265625 6.109375 33.40625 6.109375 
Q 40.53125 6.109375 44.609375 11.75 
Q 48.6875 17.390625 48.6875 27.296875 
z
M 18.109375 46.390625 
Q 20.953125 51.265625 25.265625 53.625 
Q 29.59375 56 35.59375 56 
Q 45.5625 56 51.78125 48.09375 
Q 58.015625 40.1875 58.015625 27.296875 
Q 58.015625 14.40625 51.78125 6.484375 
Q 45.5625 -1.421875 35.59375 -1.421875 
Q 29.59375 -1.421875 25.265625 0.953125 
Q 20.953125 3.328125 18.109375 8.203125 
L 18.109375 0 
L 9.078125 0 
L 9.078125 75.984375 
L 18.109375 75.984375 
z
" id="DejaVuSans-98"/>
       <path d="M 9.421875 54.6875 
L 18.40625 54.6875 
L 18.40625 0 
L 9.421875 0 
z
M 9.421875 75.984375 
L 18.40625 75.984375 
L 18.40625 64.59375 
L 9.421875 64.59375 
z
" id="DejaVuSans-105"/>
      </defs>
      <use xlink:href="#DejaVuSans-81"/>
      <use x="78.710938" xlink:href="#DejaVuSans-83"/>
      <use x="142.1875" xlink:href="#DejaVuSans-71"/>
      <use x="219.677734" xlink:href="#DejaVuSans-68"/>
      <use x="296.679688" xlink:href="#DejaVuSans-45"/>
      <use x="332.763672" xlink:href="#DejaVuSans-77"/>
      <use x="419.042969" xlink:href="#DejaVuSans-78"/>
      <use x="493.847656" xlink:href="#DejaVuSans-45"/>
      <use x="520.806641" xlink:href="#DejaVuSans-84"/>
      <use x="581.890625" xlink:href="#DejaVuSans-83"/>
      <use x="645.367188" xlink:href="#DejaVuSans-32"/>
      <use x="677.154297" xlink:href="#DejaVuSans-40"/>
      <use x="716.167969" xlink:href="#DejaVuSans-56"/>
      <use x="779.791016" xlink:href="#DejaVuSans-44"/>
      <use x="811.578125" xlink:href="#DejaVuSans-49"/>
      <use x="875.201172" xlink:href="#DejaVuSans-50"/>
      <use x="938.824219" xlink:href="#DejaVuSans-41"/>
      <use x="977.837891" xlink:href="#DejaVuSans-32"/>
      <use x="1009.625" xlink:href="#DejaVuSans-98"/>
      <use x="1073.101562" xlink:href="#DejaVuSans-105"/>
      <use x="1100.884766" xlink:href="#DejaVuSans-116"/>
      <use x="1140.09375" xlink:href="#DejaVuSans-115"/>
     </g>
    </g>
    <g id="line2d_22">
     <path d="M 293.78125 259.704062 
L 313.78125 259.704062 
" style="fill:none;stroke:#2ca02c;stroke-linecap:square;stroke-width:1.5;"/>
    </g>
    <g id="line2d_23"/>
    <g id="text_17">
     <!-- QSGD-MN-TS (6,10) bits -->
     <g transform="translate(321.78125 263.204062)scale(0.1 -0.1)">
      <use xlink:href="#DejaVuSans-81"/>
      <use x="78.710938" xlink:href="#DejaVuSans-83"/>
      <use x="142.1875" xlink:href="#DejaVuSans-71"/>
      <use x="219.677734" xlink:href="#DejaVuSans-68"/>
      <use x="296.679688" xlink:href="#DejaVuSans-45"/>
      <use x="332.763672" xlink:href="#DejaVuSans-77"/>
      <use x="419.042969" xlink:href="#DejaVuSans-78"/>
      <use x="493.847656" xlink:href="#DejaVuSans-45"/>
      <use x="520.806641" xlink:href="#DejaVuSans-84"/>
      <use x="581.890625" xlink:href="#DejaVuSans-83"/>
      <use x="645.367188" xlink:href="#DejaVuSans-32"/>
      <use x="677.154297" xlink:href="#DejaVuSans-40"/>
      <use x="716.167969" xlink:href="#DejaVuSans-54"/>
      <use x="779.791016" xlink:href="#DejaVuSans-44"/>
      <use x="811.578125" xlink:href="#DejaVuSans-49"/>
      <use x="875.201172" xlink:href="#DejaVuSans-48"/>
      <use x="938.824219" xlink:href="#DejaVuSans-41"/>
      <use x="977.837891" xlink:href="#DejaVuSans-32"/>
      <use x="1009.625" xlink:href="#DejaVuSans-98"/>
      <use x="1073.101562" xlink:href="#DejaVuSans-105"/>
      <use x="1100.884766" xlink:href="#DejaVuSans-116"/>
      <use x="1140.09375" xlink:href="#DejaVuSans-115"/>
     </g>
    </g>
    <g id="line2d_24">
     <path d="M 293.78125 274.382187 
L 313.78125 274.382187 
" style="fill:none;stroke:#d62728;stroke-linecap:square;stroke-width:1.5;"/>
    </g>
    <g id="line2d_25"/>
    <g id="text_18">
     <!-- QSGD-MN-TS (4,8) bits -->
     <g transform="translate(321.78125 277.882187)scale(0.1 -0.1)">
      <use xlink:href="#DejaVuSans-81"/>
      <use x="78.710938" xlink:href="#DejaVuSans-83"/>
      <use x="142.1875" xlink:href="#DejaVuSans-71"/>
      <use x="219.677734" xlink:href="#DejaVuSans-68"/>
      <use x="296.679688" xlink:href="#DejaVuSans-45"/>
      <use x="332.763672" xlink:href="#DejaVuSans-77"/>
      <use x="419.042969" xlink:href="#DejaVuSans-78"/>
      <use x="493.847656" xlink:href="#DejaVuSans-45"/>
      <use x="520.806641" xlink:href="#DejaVuSans-84"/>
      <use x="581.890625" xlink:href="#DejaVuSans-83"/>
      <use x="645.367188" xlink:href="#DejaVuSans-32"/>
      <use x="677.154297" xlink:href="#DejaVuSans-40"/>
      <use x="716.167969" xlink:href="#DejaVuSans-52"/>
      <use x="779.791016" xlink:href="#DejaVuSans-44"/>
      <use x="811.578125" xlink:href="#DejaVuSans-56"/>
      <use x="875.201172" xlink:href="#DejaVuSans-41"/>
      <use x="914.214844" xlink:href="#DejaVuSans-32"/>
      <use x="946.001953" xlink:href="#DejaVuSans-98"/>
      <use x="1009.478516" xlink:href="#DejaVuSans-105"/>
      <use x="1037.261719" xlink:href="#DejaVuSans-116"/>
      <use x="1076.470703" xlink:href="#DejaVuSans-115"/>
     </g>
    </g>
    <g id="line2d_26">
     <path d="M 293.78125 289.060312 
L 313.78125 289.060312 
" style="fill:none;stroke:#9467bd;stroke-linecap:square;stroke-width:1.5;"/>
    </g>
    <g id="line2d_27"/>
    <g id="text_19">
     <!-- QSGD-MN-TS (2,6) bits -->
     <g transform="translate(321.78125 292.560312)scale(0.1 -0.1)">
      <use xlink:href="#DejaVuSans-81"/>
      <use x="78.710938" xlink:href="#DejaVuSans-83"/>
      <use x="142.1875" xlink:href="#DejaVuSans-71"/>
      <use x="219.677734" xlink:href="#DejaVuSans-68"/>
      <use x="296.679688" xlink:href="#DejaVuSans-45"/>
      <use x="332.763672" xlink:href="#DejaVuSans-77"/>
      <use x="419.042969" xlink:href="#DejaVuSans-78"/>
      <use x="493.847656" xlink:href="#DejaVuSans-45"/>
      <use x="520.806641" xlink:href="#DejaVuSans-84"/>
      <use x="581.890625" xlink:href="#DejaVuSans-83"/>
      <use x="645.367188" xlink:href="#DejaVuSans-32"/>
      <use x="677.154297" xlink:href="#DejaVuSans-40"/>
      <use x="716.167969" xlink:href="#DejaVuSans-50"/>
      <use x="779.791016" xlink:href="#DejaVuSans-44"/>
      <use x="811.578125" xlink:href="#DejaVuSans-54"/>
      <use x="875.201172" xlink:href="#DejaVuSans-41"/>
      <use x="914.214844" xlink:href="#DejaVuSans-32"/>
      <use x="946.001953" xlink:href="#DejaVuSans-98"/>
      <use x="1009.478516" xlink:href="#DejaVuSans-105"/>
      <use x="1037.261719" xlink:href="#DejaVuSans-116"/>
      <use x="1076.470703" xlink:href="#DejaVuSans-115"/>
     </g>
    </g>
   </g>
  </g>
 </g>
 <defs>
  <clipPath id="p8062669d37">
   <rect height="292.84" width="405.43" x="44.57" y="10.8"/>
  </clipPath>
 </defs>
</svg>
