<?xml version="1.0" encoding="utf-8" standalone="no"?>
<!DOCTYPE svg PUBLIC "-//W3C//DTD SVG 1.1//EN"
  "http://www.w3.org/Graphics/SVG/1.1/DTD/svg11.dtd">
<!-- Created with matplotlib (https://matplotlib.org/) -->
<svg height="345.6pt" version="1.1" viewBox="0 0 460.8 345.6" width="460.8pt" xmlns="http://www.w3.org/2000/svg" xmlns:xlink="http://www.w3.org/1999/xlink">
 <metadata>
  <rdf:RDF xmlns:cc="http://creativecommons.org/ns#" xmlns:dc="http://purl.org/dc/elements/1.1/" xmlns:rdf="http://www.w3.org/1999/02/22-rdf-syntax-ns#">
   <cc:Work>
    <dc:type rdf:resource="http://purl.org/dc/dcmitype/StillImage"/>
    <dc:date>2021-06-10T08:57:49.633264</dc:date>
    <dc:format>image/svg+xml</dc:format>
    <dc:creator>
     <cc:Agent>
      <dc:title>Matplotlib v3.3.1, https://matplotlib.org/</dc:title>
     </cc:Agent>
    </dc:creator>
   </cc:Work>
  </rdf:RDF>
 </metadata>
 <defs>
  <style type="text/css">*{stroke-linecap:butt;stroke-linejoin:round;}</style>
 </defs>
 <g id="figure_1">
  <g id="patch_1">
   <path d="M 0 345.6 
L 460.8 345.6 
L 460.8 0 
L 0 0 
z
" style="fill:#ffffff;"/>
  </g>
  <g id="axes_1">
   <g id="patch_2">
    <path d="M 50.87 303.64 
L 450 303.64 
L 450 10.8 
L 50.87 10.8 
z
" style="fill:#ffffff;"/>
   </g>
   <g id="PolyCollection_1">
    <path clip-path="url(#p4c02cb4495)" d="M 69.012273 175.250056 
L 69.012273 213.249582 
L 71.447477 141.649631 
L 73.882682 93.874627 
L 76.317886 90.306958 
L 78.75309 70.481829 
L 81.188295 55.567633 
L 83.623499 47.785923 
L 86.058703 54.470992 
L 88.493908 43.205449 
L 90.929112 38.287143 
L 93.364317 36.749632 
L 95.799521 40.035165 
L 98.234725 37.802803 
L 100.66993 35.215749 
L 103.105134 32.286952 
L 105.540339 32.439699 
L 107.975543 36.019607 
L 110.410747 34.253455 
L 112.845952 31.827895 
L 115.281156 34.072487 
L 117.716361 33.386304 
L 120.151565 31.151486 
L 122.586769 29.683406 
L 125.021974 30.112249 
L 127.457178 31.955355 
L 129.892383 34.234271 
L 132.327587 31.999619 
L 134.762791 28.25754 
L 137.197996 30.784692 
L 139.6332 29.529513 
L 142.068405 32.866154 
L 144.503609 31.897471 
L 146.938813 29.251452 
L 149.374018 30.821007 
L 151.809222 30.774673 
L 154.244426 31.514835 
L 156.679631 29.41577 
L 159.114835 33.443024 
L 161.55004 30.58033 
L 163.985244 32.615187 
L 166.420448 30.245429 
L 168.855653 30.077591 
L 171.290857 32.328703 
L 173.726062 31.663858 
L 176.161266 31.320245 
L 178.59647 30.169177 
L 181.031675 29.277654 
L 183.466879 30.339353 
L 185.902084 29.99191 
L 188.337288 29.612644 
L 190.772492 29.824285 
L 193.207697 30.258537 
L 195.642901 31.833115 
L 198.078106 30.884374 
L 200.51331 27.595583 
L 202.948514 27.404242 
L 205.383719 28.580343 
L 207.818923 32.089122 
L 210.254128 29.172352 
L 212.689332 27.74934 
L 215.124536 30.241851 
L 217.559741 28.962749 
L 219.994945 29.104203 
L 222.430149 26.393768 
L 224.865354 28.104419 
L 227.300558 29.62082 
L 229.735763 28.36915 
L 232.170967 27.745929 
L 234.606171 28.660428 
L 237.041376 27.141397 
L 239.47658 30.624929 
L 241.911785 27.804075 
L 244.346989 27.595583 
L 246.782193 29.469964 
L 249.217398 28.015706 
L 251.652602 25.444565 
L 254.087807 27.141397 
L 256.523011 28.529116 
L 258.958215 28.002185 
L 261.39342 28.94549 
L 263.828624 26.413613 
L 266.263829 28.015706 
L 268.699033 27.177149 
L 271.134237 25.911106 
L 273.569442 27.468027 
L 276.004646 28.237579 
L 278.439851 26.849236 
L 280.875055 28.553651 
L 283.310259 27.50528 
L 285.745464 28.021258 
L 288.180668 28.022934 
L 290.615872 27.200065 
L 293.051077 26.745878 
L 295.486281 25.444565 
L 297.921486 26.059334 
L 300.35669 26.002318 
L 302.791894 29.614811 
L 305.227099 27.330898 
L 307.662303 27.573555 
L 310.097508 27.177103 
L 312.532712 26.712771 
L 314.967916 27.485128 
L 317.403121 26.970005 
L 319.838325 27.141397 
L 322.27353 26.817624 
L 324.708734 27.025041 
L 327.143938 25.383319 
L 329.579143 26.849236 
L 332.014347 26.413613 
L 334.449552 25.308309 
L 336.884756 26.059334 
L 339.31996 26.382529 
L 341.755165 26.653147 
L 344.190369 25.308309 
L 346.625574 27.187234 
L 349.060778 25.519575 
L 351.495982 25.911106 
L 353.931187 26.473366 
L 356.366391 27.109915 
L 358.801595 27.329206 
L 361.2368 27.109915 
L 363.672004 28.451945 
L 366.107209 25.110807 
L 368.542413 25.110807 
L 370.977617 26.002318 
L 373.412822 26.33711 
L 375.848026 25.444565 
L 378.283231 25.110807 
L 380.718435 25.308309 
L 383.153639 25.911106 
L 385.588844 25.308309 
L 388.024048 26.002318 
L 390.459253 25.110807 
L 392.894457 25.110807 
L 395.329661 25.110807 
L 397.764866 25.308309 
L 400.20007 25.308309 
L 402.635275 25.110807 
L 405.070479 24.702039 
L 407.505683 25.444565 
L 409.940888 25.444565 
L 412.376092 25.308309 
L 414.811297 25.308309 
L 417.246501 25.308309 
L 419.681705 25.444565 
L 422.11691 25.444565 
L 424.552114 25.308309 
L 426.987318 25.308309 
L 429.422523 25.308309 
L 431.857727 25.308309 
L 431.857727 24.640794 
L 431.857727 24.640794 
L 429.422523 24.640794 
L 426.987318 24.640794 
L 424.552114 24.640794 
L 422.11691 24.77705 
L 419.681705 24.77705 
L 417.246501 24.640794 
L 414.811297 24.640794 
L 412.376092 24.640794 
L 409.940888 24.77705 
L 407.505683 24.77705 
L 405.070479 24.702039 
L 402.635275 24.565783 
L 400.20007 24.640794 
L 397.764866 24.640794 
L 395.329661 24.565783 
L 392.894457 24.565783 
L 390.459253 24.565783 
L 388.024048 24.673483 
L 385.588844 24.640794 
L 383.153639 24.492183 
L 380.718435 24.640794 
L 378.283231 24.565783 
L 375.848026 24.77705 
L 373.412822 24.157016 
L 370.977617 24.673483 
L 368.542413 24.565783 
L 366.107209 24.565783 
L 363.672004 24.313113 
L 361.2368 24.110909 
L 358.801595 24.436642 
L 356.366391 24.110909 
L 353.931187 24.111597 
L 351.495982 24.492183 
L 349.060778 24.974551 
L 346.625574 24.306102 
L 344.190369 24.640794 
L 341.755165 24.47684 
L 339.31996 24.747458 
L 336.884756 24.888978 
L 334.449552 24.640794 
L 332.014347 24.988886 
L 329.579143 25.189124 
L 327.143938 25.383319 
L 324.708734 25.467506 
L 322.27353 24.675712 
L 319.838325 25.441987 
L 317.403121 24.88668 
L 314.967916 25.007418 
L 312.532712 24.689728 
L 310.097508 25.133769 
L 307.662303 24.918992 
L 305.227099 25.43416 
L 302.791894 24.694481 
L 300.35669 24.673483 
L 297.921486 24.888978 
L 295.486281 24.77705 
L 293.051077 25.837505 
L 290.615872 26.291692 
L 288.180668 24.923798 
L 285.745464 25.197986 
L 283.310259 25.895639 
L 280.875055 25.573966 
L 278.439851 25.189124 
L 276.004646 25.345014 
L 273.569442 24.752007 
L 271.134237 24.492183 
L 268.699033 24.679537 
L 266.263829 25.839399 
L 263.828624 24.988886 
L 261.39342 24.909615 
L 258.958215 24.672036 
L 256.523011 25.053477 
L 254.087807 25.441987 
L 251.652602 24.77705 
L 249.217398 25.839399 
L 246.782193 25.475189 
L 244.346989 25.896173 
L 241.911785 24.597634 
L 239.47658 27.590366 
L 237.041376 25.441987 
L 234.606171 26.284725 
L 232.170967 25.291641 
L 229.735763 25.758467 
L 227.300558 26.41438 
L 224.865354 26.568222 
L 222.430149 25.281243 
L 219.994945 26.113462 
L 217.559741 26.345753 
L 215.124536 26.974233 
L 212.689332 24.834044 
L 210.254128 25.409451 
L 207.818923 27.125382 
L 205.383719 26.00146 
L 202.948514 24.90663 
L 200.51331 25.896173 
L 198.078106 27.058409 
L 195.642901 25.927993 
L 193.207697 26.230849 
L 190.772492 25.938403 
L 188.337288 27.694278 
L 185.902084 26.679151 
L 183.466879 24.6058 
L 181.031675 25.576662 
L 178.59647 27.95528 
L 176.161266 29.256819 
L 173.726062 26.642274 
L 171.290857 29.520083 
L 168.855653 26.230121 
L 166.420448 25.789771 
L 163.985244 26.599318 
L 161.55004 26.817429 
L 159.114835 27.315715 
L 156.679631 28.163664 
L 154.244426 28.789717 
L 151.809222 26.804761 
L 149.374018 26.395078 
L 146.938813 26.511236 
L 144.503609 28.13457 
L 142.068405 24.985791 
L 139.6332 26.051501 
L 137.197996 27.793952 
L 134.762791 26.960124 
L 132.327587 28.395771 
L 129.892383 27.705352 
L 127.457178 27.440824 
L 125.021974 28.193883 
L 122.586769 27.16933 
L 120.151565 28.608042 
L 117.716361 26.282387 
L 115.281156 30.138068 
L 112.845952 26.750749 
L 110.410747 26.141935 
L 107.975543 28.826809 
L 105.540339 29.045738 
L 103.105134 29.198485 
L 100.66993 28.631457 
L 98.234725 32.675524 
L 95.799521 34.440002 
L 93.364317 33.728695 
L 90.929112 34.098767 
L 88.493908 35.175721 
L 86.058703 43.167681 
L 83.623499 39.497301 
L 81.188295 48.883836 
L 78.75309 59.222403 
L 76.317886 72.189532 
L 73.882682 80.975733 
L 71.447477 92.789983 
L 69.012273 175.250056 
z
" style="fill:#1f77b4;fill-opacity:0.25;"/>
   </g>
   <g id="PolyCollection_2">
    <path clip-path="url(#p4c02cb4495)" d="M 69.012273 247.905716 
L 69.012273 251.142889 
L 71.447477 248.525093 
L 73.882682 240.399447 
L 76.317886 242.431557 
L 78.75309 227.887793 
L 81.188295 117.351933 
L 83.623499 90.46415 
L 86.058703 87.676699 
L 88.493908 74.672436 
L 90.929112 87.503356 
L 93.364317 48.324078 
L 95.799521 47.41403 
L 98.234725 55.953173 
L 100.66993 44.11987 
L 103.105134 39.80224 
L 105.540339 38.383433 
L 107.975543 39.732645 
L 110.410747 39.975949 
L 112.845952 34.468128 
L 115.281156 34.527775 
L 117.716361 33.123931 
L 120.151565 32.640374 
L 122.586769 33.573322 
L 125.021974 32.525824 
L 127.457178 32.767628 
L 129.892383 35.778206 
L 132.327587 31.801198 
L 134.762791 28.943862 
L 137.197996 35.698957 
L 139.6332 31.671043 
L 142.068405 31.897471 
L 144.503609 32.9652 
L 146.938813 29.380159 
L 149.374018 34.877182 
L 151.809222 30.367943 
L 154.244426 33.609247 
L 156.679631 34.1054 
L 159.114835 35.932015 
L 161.55004 32.12964 
L 163.985244 31.619264 
L 166.420448 32.474026 
L 168.855653 29.590962 
L 171.290857 28.644285 
L 173.726062 30.206502 
L 176.161266 36.383609 
L 178.59647 38.32796 
L 181.031675 30.501362 
L 183.466879 28.787823 
L 185.902084 29.952249 
L 188.337288 32.788905 
L 190.772492 31.636228 
L 193.207697 29.740544 
L 195.642901 30.774673 
L 198.078106 32.689406 
L 200.51331 28.087122 
L 202.948514 29.936502 
L 205.383719 29.27023 
L 207.818923 29.068879 
L 210.254128 28.726698 
L 212.689332 28.677431 
L 215.124536 32.63144 
L 217.559741 29.506259 
L 219.994945 30.013179 
L 222.430149 29.214244 
L 224.865354 30.241851 
L 227.300558 30.001463 
L 229.735763 28.546831 
L 232.170967 28.986187 
L 234.606171 37.731418 
L 237.041376 28.957707 
L 239.47658 30.371787 
L 241.911785 27.177103 
L 244.346989 28.104419 
L 246.782193 30.227618 
L 249.217398 29.050258 
L 251.652602 30.478919 
L 254.087807 29.807325 
L 256.523011 29.286356 
L 258.958215 27.83895 
L 261.39342 29.050258 
L 263.828624 27.955856 
L 266.263829 28.797245 
L 268.699033 27.236917 
L 271.134237 29.212632 
L 273.569442 26.620861 
L 276.004646 29.132626 
L 278.439851 27.981673 
L 280.875055 28.539623 
L 283.310259 28.514679 
L 285.745464 29.458166 
L 288.180668 29.080695 
L 290.615872 26.620861 
L 293.051077 28.801575 
L 295.486281 27.480723 
L 297.921486 29.021343 
L 300.35669 28.306231 
L 302.791894 29.428602 
L 305.227099 27.513857 
L 307.662303 26.850671 
L 310.097508 27.839704 
L 312.532712 27.903867 
L 314.967916 27.595583 
L 317.403121 26.393768 
L 319.838325 29.458166 
L 322.27353 27.779092 
L 324.708734 28.843848 
L 327.143938 29.28009 
L 329.579143 25.308309 
L 332.014347 28.015706 
L 334.449552 27.595583 
L 336.884756 28.746361 
L 339.31996 28.015706 
L 341.755165 27.480723 
L 344.190369 26.972971 
L 346.625574 26.382529 
L 349.060778 25.519575 
L 351.495982 26.682894 
L 353.931187 26.413613 
L 356.366391 26.653147 
L 358.801595 26.318758 
L 361.2368 26.970005 
L 363.672004 27.171776 
L 366.107209 27.441114 
L 368.542413 27.025041 
L 370.977617 27.200065 
L 373.412822 26.413613 
L 375.848026 26.970005 
L 378.283231 26.059334 
L 380.718435 27.441114 
L 383.153639 26.620861 
L 385.588844 26.059334 
L 388.024048 26.413613 
L 390.459253 26.393768 
L 392.894457 26.393768 
L 395.329661 26.682894 
L 397.764866 26.682894 
L 400.20007 26.393768 
L 402.635275 26.620861 
L 405.070479 26.413613 
L 407.505683 26.620861 
L 409.940888 26.682894 
L 412.376092 26.620861 
L 414.811297 26.620861 
L 417.246501 26.682894 
L 419.681705 26.682894 
L 422.11691 26.413613 
L 424.552114 26.393768 
L 426.987318 26.059334 
L 429.422523 26.682894 
L 431.857727 26.682894 
L 431.857727 25.173792 
L 431.857727 25.173792 
L 429.422523 25.173792 
L 426.987318 24.888978 
L 424.552114 25.281243 
L 422.11691 24.988886 
L 419.681705 25.173792 
L 417.246501 25.173792 
L 414.811297 25.508336 
L 412.376092 25.508336 
L 409.940888 25.173792 
L 407.505683 25.508336 
L 405.070479 24.988886 
L 402.635275 25.508336 
L 400.20007 25.281243 
L 397.764866 25.173792 
L 395.329661 25.173792 
L 392.894457 25.281243 
L 390.459253 25.281243 
L 388.024048 24.988886 
L 385.588844 24.888978 
L 383.153639 25.508336 
L 380.718435 25.505619 
L 378.283231 24.888978 
L 375.848026 24.88668 
L 373.412822 24.988886 
L 370.977617 26.291692 
L 368.542413 25.467506 
L 366.107209 25.505619 
L 363.672004 24.866584 
L 361.2368 24.88668 
L 358.801595 24.538718 
L 356.366391 24.47684 
L 353.931187 24.988886 
L 351.495982 25.173792 
L 349.060778 24.974551 
L 346.625574 24.747458 
L 344.190369 25.156226 
L 341.755165 25.193498 
L 339.31996 25.839399 
L 336.884756 26.743816 
L 334.449552 25.896173 
L 332.014347 25.839399 
L 329.579143 24.640794 
L 327.143938 25.937574 
L 324.708734 25.283769 
L 322.27353 25.621827 
L 319.838325 26.577034 
L 317.403121 25.281243 
L 314.967916 25.896173 
L 312.532712 25.133703 
L 310.097508 25.652052 
L 307.662303 24.915177 
L 305.227099 25.523712 
L 302.791894 26.697435 
L 300.35669 25.730549 
L 297.921486 26.741345 
L 295.486281 25.193498 
L 293.051077 24.962693 
L 290.615872 25.508336 
L 288.180668 26.046132 
L 285.745464 26.577034 
L 283.310259 26.067124 
L 280.875055 26.768879 
L 278.439851 25.146735 
L 276.004646 25.721689 
L 273.569442 25.508336 
L 271.134237 24.824148 
L 268.699033 25.800653 
L 266.263829 27.41963 
L 263.828624 25.445063 
L 261.39342 27.166616 
L 258.958215 25.107783 
L 256.523011 27.203031 
L 254.087807 25.864526 
L 251.652602 26.91884 
L 249.217398 27.166616 
L 246.782193 25.716745 
L 244.346989 26.568222 
L 241.911785 25.133769 
L 239.47658 25.75425 
L 237.041376 25.805771 
L 234.606171 26.297462 
L 232.170967 26.322315 
L 229.735763 25.035762 
L 227.300558 28.032157 
L 224.865354 26.974233 
L 222.430149 27.365979 
L 219.994945 27.112069 
L 217.559741 27.8915 
L 215.124536 27.400601 
L 212.689332 25.813535 
L 210.254128 26.400129 
L 207.818923 27.511344 
L 205.383719 27.128319 
L 202.948514 26.280372 
L 200.51331 25.495472 
L 198.078106 26.16175 
L 195.642901 26.804761 
L 193.207697 25.567958 
L 190.772492 27.48744 
L 188.337288 27.515647 
L 185.902084 28.172209 
L 183.466879 26.611516 
L 181.031675 27.623096 
L 178.59647 25.791758 
L 176.161266 27.645271 
L 173.726062 26.918745 
L 171.290857 27.754265 
L 168.855653 25.808377 
L 166.420448 28.648062 
L 163.985244 26.141844 
L 161.55004 27.448214 
L 159.114835 27.006819 
L 156.679631 26.835013 
L 154.244426 29.602098 
L 151.809222 28.57405 
L 149.374018 27.334953 
L 146.938813 28.835136 
L 144.503609 30.246145 
L 142.068405 28.13457 
L 139.6332 26.998438 
L 137.197996 27.966575 
L 134.762791 26.273802 
L 132.327587 28.957541 
L 129.892383 28.886536 
L 127.457178 29.626181 
L 125.021974 27.960403 
L 122.586769 28.911325 
L 120.151565 29.117574 
L 117.716361 29.179041 
L 115.281156 27.775198 
L 112.845952 30.6508 
L 110.410747 30.77489 
L 107.975543 35.560058 
L 105.540339 34.002477 
L 103.105134 33.946229 
L 100.66993 38.439815 
L 98.234725 42.68471 
L 95.799521 38.143286 
L 93.364317 39.776681 
L 90.929112 53.464699 
L 88.493908 56.93938 
L 86.058703 78.362445 
L 83.623499 83.386999 
L 81.188295 101.372832 
L 78.75309 173.692413 
L 76.317886 232.454332 
L 73.882682 237.029886 
L 71.447477 243.438205 
L 69.012273 247.905716 
z
" style="fill:#ff7f0e;fill-opacity:0.25;"/>
   </g>
   <g id="PolyCollection_3">
    <path clip-path="url(#p4c02cb4495)" d="M 69.012273 247.62973 
L 69.012273 252.690597 
L 71.447477 254.023044 
L 73.882682 250.801599 
L 76.317886 214.830917 
L 78.75309 146.577765 
L 81.188295 91.577039 
L 83.623499 92.328723 
L 86.058703 122.276667 
L 88.493908 63.901696 
L 90.929112 73.350209 
L 93.364317 46.968509 
L 95.799521 56.400138 
L 98.234725 48.845784 
L 100.66993 44.828517 
L 103.105134 39.721924 
L 105.540339 37.467196 
L 107.975543 40.87272 
L 110.410747 35.622403 
L 112.845952 33.986148 
L 115.281156 40.947481 
L 117.716361 33.198762 
L 120.151565 36.656094 
L 122.586769 33.423378 
L 125.021974 33.333242 
L 127.457178 36.458431 
L 129.892383 37.581574 
L 132.327587 31.029937 
L 134.762791 33.686775 
L 137.197996 33.542816 
L 139.6332 35.63252 
L 142.068405 30.477328 
L 144.503609 33.673253 
L 146.938813 32.741139 
L 149.374018 31.624741 
L 151.809222 34.092033 
L 154.244426 30.206502 
L 156.679631 30.414751 
L 159.114835 30.972535 
L 161.55004 30.706721 
L 163.985244 34.85241 
L 166.420448 30.6052 
L 168.855653 30.414751 
L 171.290857 30.541035 
L 173.726062 31.15602 
L 176.161266 34.436578 
L 178.59647 30.169177 
L 181.031675 30.701209 
L 183.466879 30.304001 
L 185.902084 29.486615 
L 188.337288 31.229075 
L 190.772492 30.391628 
L 193.207697 29.93237 
L 195.642901 31.823283 
L 198.078106 31.873972 
L 200.51331 28.81224 
L 202.948514 28.626749 
L 205.383719 31.951282 
L 207.818923 27.279103 
L 210.254128 27.984702 
L 212.689332 28.118133 
L 215.124536 29.863216 
L 217.559741 28.546831 
L 219.994945 29.43097 
L 222.430149 30.852575 
L 224.865354 29.238639 
L 227.300558 30.678005 
L 229.735763 27.805907 
L 232.170967 28.818845 
L 234.606171 29.486526 
L 237.041376 28.962749 
L 239.47658 29.626171 
L 241.911785 28.252237 
L 244.346989 28.677431 
L 246.782193 28.546831 
L 249.217398 27.634876 
L 251.652602 27.634876 
L 254.087807 28.866617 
L 256.523011 27.50528 
L 258.958215 27.025041 
L 261.39342 28.580343 
L 263.828624 27.634876 
L 266.263829 28.306231 
L 268.699033 26.059334 
L 271.134237 28.450471 
L 273.569442 28.015706 
L 276.004646 27.595583 
L 278.439851 28.568497 
L 280.875055 29.841581 
L 283.310259 28.52529 
L 285.745464 27.177103 
L 288.180668 29.360753 
L 290.615872 28.939541 
L 293.051077 27.680405 
L 295.486281 28.519972 
L 297.921486 26.620861 
L 300.35669 27.730171 
L 302.791894 29.512494 
L 305.227099 28.433155 
L 307.662303 27.745088 
L 310.097508 26.745878 
L 312.532712 26.393768 
L 314.967916 27.529234 
L 317.403121 26.745878 
L 319.838325 26.393768 
L 322.27353 26.413613 
L 324.708734 29.080695 
L 327.143938 28.536491 
L 329.579143 27.141397 
L 332.014347 27.204597 
L 334.449552 28.338771 
L 336.884756 27.529234 
L 339.31996 27.141397 
L 341.755165 27.404217 
L 344.190369 26.002318 
L 346.625574 27.572116 
L 349.060778 27.981673 
L 351.495982 26.682894 
L 353.931187 27.534377 
L 356.366391 27.141397 
L 358.801595 28.015706 
L 361.2368 27.236917 
L 363.672004 27.50528 
L 366.107209 26.682894 
L 368.542413 27.067047 
L 370.977617 27.200065 
L 373.412822 26.972971 
L 375.848026 28.015706 
L 378.283231 26.393768 
L 380.718435 27.485128 
L 383.153639 26.712771 
L 385.588844 27.236917 
L 388.024048 26.970005 
L 390.459253 26.393768 
L 392.894457 27.236917 
L 395.329661 27.595583 
L 397.764866 27.534377 
L 400.20007 27.595583 
L 402.635275 27.595583 
L 405.070479 27.534377 
L 407.505683 27.534377 
L 409.940888 27.236917 
L 412.376092 27.236917 
L 414.811297 27.534377 
L 417.246501 27.141397 
L 419.681705 27.595583 
L 422.11691 27.141397 
L 424.552114 27.595583 
L 426.987318 27.236917 
L 429.422523 27.595583 
L 431.857727 27.236917 
L 431.857727 25.800653 
L 431.857727 25.800653 
L 429.422523 25.896173 
L 426.987318 25.800653 
L 424.552114 25.896173 
L 422.11691 25.441987 
L 419.681705 25.896173 
L 417.246501 25.441987 
L 414.811297 25.503193 
L 412.376092 25.800653 
L 409.940888 25.800653 
L 407.505683 25.503193 
L 405.070479 25.503193 
L 402.635275 25.896173 
L 400.20007 25.896173 
L 397.764866 25.503193 
L 395.329661 25.896173 
L 392.894457 25.800653 
L 390.459253 25.281243 
L 388.024048 24.88668 
L 385.588844 25.800653 
L 383.153639 24.689728 
L 380.718435 25.007418 
L 378.283231 25.281243 
L 375.848026 25.839399 
L 373.412822 25.156226 
L 370.977617 26.291692 
L 368.542413 25.152987 
L 366.107209 25.173792 
L 363.672004 25.895639 
L 361.2368 25.800653 
L 358.801595 25.839399 
L 356.366391 25.441987 
L 353.931187 25.503193 
L 351.495982 25.173792 
L 349.060778 25.146735 
L 346.625574 25.192942 
L 344.190369 24.673483 
L 341.755165 25.179167 
L 339.31996 25.441987 
L 336.884756 26.416709 
L 334.449552 25.152985 
L 332.014347 24.9246 
L 329.579143 25.441987 
L 327.143938 24.773591 
L 324.708734 26.046132 
L 322.27353 24.988886 
L 319.838325 25.281243 
L 317.403121 25.837505 
L 314.967916 26.416709 
L 312.532712 25.281243 
L 310.097508 25.837505 
L 307.662303 26.110017 
L 305.227099 26.602835 
L 302.791894 26.886055 
L 300.35669 25.670748 
L 297.921486 25.508336 
L 295.486281 24.790109 
L 293.051077 26.628887 
L 290.615872 25.7331 
L 288.180668 25.766075 
L 285.745464 25.133769 
L 283.310259 25.965677 
L 280.875055 25.557758 
L 278.439851 26.104144 
L 276.004646 25.896173 
L 273.569442 25.839399 
L 271.134237 25.858821 
L 268.699033 24.888978 
L 266.263829 25.730549 
L 263.828624 25.311856 
L 261.39342 26.00146 
L 258.958215 25.467506 
L 256.523011 25.895639 
L 254.087807 25.62435 
L 251.652602 25.311856 
L 249.217398 25.311856 
L 246.782193 25.035762 
L 244.346989 25.813535 
L 241.911785 26.057055 
L 239.47658 27.317402 
L 237.041376 26.345753 
L 234.606171 26.548674 
L 232.170967 25.03626 
L 229.735763 26.049198 
L 227.300558 25.993056 
L 224.865354 28.068283 
L 222.430149 27.36272 
L 219.994945 27.512603 
L 217.559741 25.035762 
L 215.124536 27.262032 
L 212.689332 25.555298 
L 210.254128 26.32459 
L 207.818923 24.66842 
L 205.383719 27.899084 
L 202.948514 25.410031 
L 200.51331 26.042075 
L 198.078106 29.429791 
L 195.642901 27.482059 
L 193.207697 26.193668 
L 190.772492 24.826037 
L 188.337288 27.349568 
L 185.902084 27.093609 
L 183.466879 26.821247 
L 181.031675 28.059109 
L 178.59647 27.95528 
L 176.161266 29.592302 
L 173.726062 28.421833 
L 171.290857 27.674259 
L 168.855653 28.163892 
L 166.420448 27.337583 
L 163.985244 28.177261 
L 161.55004 28.507784 
L 159.114835 26.425224 
L 156.679631 28.163892 
L 154.244426 26.918745 
L 151.809222 27.030055 
L 149.374018 26.953903 
L 146.938813 29.289322 
L 144.503609 30.173953 
L 142.068405 27.283781 
L 139.6332 27.215476 
L 137.197996 29.396017 
L 134.762791 28.888709 
L 132.327587 28.911266 
L 129.892383 32.805916 
L 127.457178 28.842171 
L 125.021974 29.605592 
L 122.586769 26.972012 
L 120.151565 29.734556 
L 117.716361 30.194258 
L 115.281156 32.528477 
L 112.845952 30.769431 
L 110.410747 29.587362 
L 107.975543 34.601658 
L 105.540339 35.827087 
L 103.105134 36.569989 
L 100.66993 35.914422 
L 98.234725 41.253396 
L 95.799521 46.870446 
L 93.364317 40.042203 
L 90.929112 45.45355 
L 88.493908 54.720388 
L 86.058703 79.37069 
L 83.623499 79.978193 
L 81.188295 89.359418 
L 78.75309 109.935308 
L 76.317886 144.509955 
L 73.882682 240.435 
L 71.447477 245.933934 
L 69.012273 247.62973 
z
" style="fill:#2ca02c;fill-opacity:0.25;"/>
   </g>
   <g id="PolyCollection_4">
    <path clip-path="url(#p4c02cb4495)" d="M 69.012273 246.629936 
L 69.012273 255.4163 
L 71.447477 263.033314 
L 73.882682 261.088603 
L 76.317886 290.329091 
L 78.75309 196.95814 
L 81.188295 126.08509 
L 83.623499 102.568887 
L 86.058703 93.145889 
L 88.493908 88.280479 
L 90.929112 66.362077 
L 93.364317 56.855389 
L 95.799521 56.805569 
L 98.234725 53.933991 
L 100.66993 43.753145 
L 103.105134 48.229696 
L 105.540339 38.214682 
L 107.975543 42.634099 
L 110.410747 39.839627 
L 112.845952 34.156674 
L 115.281156 37.638772 
L 117.716361 33.823907 
L 120.151565 33.940278 
L 122.586769 35.683201 
L 125.021974 31.01523 
L 127.457178 32.493876 
L 129.892383 34.643163 
L 132.327587 32.103383 
L 134.762791 33.764711 
L 137.197996 33.124378 
L 139.6332 33.3493 
L 142.068405 32.864739 
L 144.503609 36.044126 
L 146.938813 34.344798 
L 149.374018 30.367943 
L 151.809222 31.017293 
L 154.244426 33.230331 
L 156.679631 32.367164 
L 159.114835 31.503409 
L 161.55004 29.305149 
L 163.985244 33.755048 
L 166.420448 30.197695 
L 168.855653 31.374026 
L 171.290857 29.458166 
L 173.726062 28.860634 
L 176.161266 34.707537 
L 178.59647 31.239681 
L 181.031675 29.238639 
L 183.466879 31.858696 
L 185.902084 30.990948 
L 188.337288 29.738244 
L 190.772492 31.679321 
L 193.207697 29.989308 
L 195.642901 30.047104 
L 198.078106 31.658645 
L 200.51331 30.531094 
L 202.948514 33.970352 
L 205.383719 29.41577 
L 207.818923 31.359173 
L 210.254128 30.18685 
L 212.689332 30.856114 
L 215.124536 30.839226 
L 217.559741 30.307644 
L 219.994945 28.787823 
L 222.430149 27.903867 
L 224.865354 29.091561 
L 227.300558 28.478574 
L 229.735763 29.853632 
L 232.170967 29.114385 
L 234.606171 29.238639 
L 237.041376 29.692401 
L 239.47658 29.238639 
L 241.911785 27.404242 
L 244.346989 30.6973 
L 246.782193 29.618058 
L 249.217398 27.236917 
L 251.652602 29.007048 
L 254.087807 27.202127 
L 256.523011 29.960565 
L 258.958215 29.804546 
L 261.39342 28.812266 
L 263.828624 27.984702 
L 266.263829 28.834403 
L 268.699033 28.969941 
L 271.134237 27.981673 
L 273.569442 28.84683 
L 276.004646 27.327144 
L 278.439851 29.490015 
L 280.875055 29.661162 
L 283.310259 28.120413 
L 285.745464 28.36915 
L 288.180668 29.094626 
L 290.615872 29.911688 
L 293.051077 28.36915 
L 295.486281 29.542906 
L 297.921486 28.52529 
L 300.35669 27.981673 
L 302.791894 28.81224 
L 305.227099 28.120413 
L 307.662303 26.393768 
L 310.097508 27.22713 
L 312.532712 27.83895 
L 314.967916 27.141397 
L 317.403121 28.150446 
L 319.838325 28.545058 
L 322.27353 27.279103 
L 324.708734 28.43062 
L 327.143938 28.189771 
L 329.579143 28.015706 
L 332.014347 26.817624 
L 334.449552 27.177103 
L 336.884756 25.911106 
L 339.31996 26.653147 
L 341.755165 26.413613 
L 344.190369 26.972971 
L 346.625574 26.413613 
L 349.060778 25.911106 
L 351.495982 26.382529 
L 353.931187 26.970005 
L 356.366391 27.37719 
L 358.801595 26.970005 
L 361.2368 26.002318 
L 363.672004 26.002318 
L 366.107209 26.059334 
L 368.542413 26.653147 
L 370.977617 27.204597 
L 373.412822 26.520847 
L 375.848026 26.935699 
L 378.283231 26.002318 
L 380.718435 26.57235 
L 383.153639 25.911106 
L 385.588844 26.653147 
L 388.024048 26.935699 
L 390.459253 26.935699 
L 392.894457 26.57235 
L 395.329661 25.110807 
L 397.764866 25.308309 
L 400.20007 25.110807 
L 402.635275 25.308309 
L 405.070479 25.110807 
L 407.505683 25.444565 
L 409.940888 25.308309 
L 412.376092 25.308309 
L 414.811297 25.444565 
L 417.246501 25.444565 
L 419.681705 25.444565 
L 422.11691 25.444565 
L 424.552114 25.444565 
L 426.987318 25.444565 
L 429.422523 25.308309 
L 431.857727 25.308309 
L 431.857727 24.640794 
L 431.857727 24.640794 
L 429.422523 24.640794 
L 426.987318 24.77705 
L 424.552114 24.77705 
L 422.11691 24.77705 
L 419.681705 24.77705 
L 417.246501 24.77705 
L 414.811297 24.77705 
L 412.376092 24.640794 
L 409.940888 24.640794 
L 407.505683 24.77705 
L 405.070479 24.565783 
L 402.635275 24.640794 
L 400.20007 24.565783 
L 397.764866 24.640794 
L 395.329661 24.565783 
L 392.894457 24.285126 
L 390.459253 24.648475 
L 388.024048 24.648475 
L 385.588844 24.47684 
L 383.153639 24.492183 
L 380.718435 24.285126 
L 378.283231 24.673483 
L 375.848026 24.648475 
L 373.412822 24.518302 
L 370.977617 24.9246 
L 368.542413 24.47684 
L 366.107209 24.888978 
L 363.672004 24.673483 
L 361.2368 24.673483 
L 358.801595 24.88668 
L 356.366391 24.66117 
L 353.931187 24.88668 
L 351.495982 24.747458 
L 349.060778 24.492183 
L 346.625574 24.988886 
L 344.190369 25.156226 
L 341.755165 24.988886 
L 339.31996 24.47684 
L 336.884756 24.492183 
L 334.449552 25.133769 
L 332.014347 24.675712 
L 329.579143 25.839399 
L 327.143938 26.028684 
L 324.708734 25.515323 
L 322.27353 24.66842 
L 319.838325 27.035956 
L 317.403121 24.523774 
L 314.967916 25.441987 
L 312.532712 25.107783 
L 310.097508 25.44709 
L 307.662303 25.281243 
L 305.227099 25.007994 
L 302.791894 26.042075 
L 300.35669 25.146735 
L 297.921486 25.965677 
L 295.486281 25.31141 
L 293.051077 25.758467 
L 290.615872 25.033464 
L 288.180668 25.305503 
L 285.745464 25.758467 
L 283.310259 25.007994 
L 280.875055 26.737387 
L 278.439851 26.000161 
L 276.004646 26.437124 
L 273.569442 26.18916 
L 271.134237 25.146735 
L 268.699033 24.703489 
L 266.263829 26.019913 
L 263.828624 26.32459 
L 261.39342 25.587863 
L 258.958215 27.411539 
L 256.523011 27.709706 
L 254.087807 25.199582 
L 251.652602 25.847268 
L 249.217398 25.800653 
L 246.782193 27.50719 
L 244.346989 26.33711 
L 241.911785 24.90663 
L 239.47658 28.068283 
L 237.041376 26.796985 
L 234.606171 28.068283 
L 232.170967 25.73993 
L 229.735763 26.090731 
L 227.300558 26.648253 
L 224.865354 26.671127 
L 222.430149 25.133703 
L 219.994945 26.611516 
L 217.559741 26.726766 
L 215.124536 26.467696 
L 212.689332 27.450018 
L 210.254128 26.393374 
L 207.818923 27.764495 
L 205.383719 28.163664 
L 202.948514 26.879224 
L 200.51331 27.04834 
L 198.078106 28.100884 
L 195.642901 28.622377 
L 193.207697 26.772591 
L 190.772492 26.535974 
L 188.337288 28.567888 
L 185.902084 28.041882 
L 183.466879 28.173344 
L 181.031675 28.068283 
L 178.59647 27.338963 
L 176.161266 26.687063 
L 173.726062 26.084519 
L 171.290857 26.577034 
L 168.855653 29.566387 
L 166.420448 28.925973 
L 163.985244 28.547924 
L 161.55004 28.637634 
L 159.114835 29.709516 
L 156.679631 28.300737 
L 154.244426 27.891757 
L 151.809222 29.014748 
L 149.374018 28.57405 
L 146.938813 30.501618 
L 144.503609 29.165639 
L 142.068405 28.802372 
L 139.6332 30.770417 
L 137.197996 27.089337 
L 134.762791 29.083285 
L 132.327587 29.927077 
L 129.892383 30.566603 
L 127.457178 29.445747 
L 125.021974 28.653461 
L 122.586769 29.799076 
L 120.151565 28.271857 
L 117.716361 29.296601 
L 115.281156 31.658671 
L 112.845952 29.236345 
L 110.410747 32.001259 
L 107.975543 36.927956 
L 105.540339 32.172808 
L 103.105134 32.785756 
L 100.66993 37.353144 
L 98.234725 40.162029 
L 95.799521 34.65617 
L 93.364317 41.964169 
L 90.929112 45.992235 
L 88.493908 71.58173 
L 86.058703 62.810317 
L 83.623499 80.638503 
L 81.188295 95.546468 
L 78.75309 130.044661 
L 76.317886 183.421333 
L 73.882682 240.775958 
L 71.447477 243.827297 
L 69.012273 246.629936 
z
" style="fill:#d62728;fill-opacity:0.25;"/>
   </g>
   <g id="PolyCollection_5">
    <path clip-path="url(#p4c02cb4495)" d="M 69.012273 177.673948 
L 69.012273 245.979716 
L 71.447477 236.447595 
L 73.882682 242.556915 
L 76.317886 244.349452 
L 78.75309 140.181443 
L 81.188295 95.401178 
L 83.623499 84.521735 
L 86.058703 79.203255 
L 88.493908 88.020164 
L 90.929112 62.756461 
L 93.364317 45.879071 
L 95.799521 47.543008 
L 98.234725 57.081668 
L 100.66993 41.468148 
L 103.105134 39.247545 
L 105.540339 38.425796 
L 107.975543 37.216437 
L 110.410747 36.96399 
L 112.845952 36.794196 
L 115.281156 37.942535 
L 117.716361 35.864949 
L 120.151565 31.923603 
L 122.586769 34.888995 
L 125.021974 32.997495 
L 127.457178 36.162366 
L 129.892383 34.757813 
L 132.327587 33.272016 
L 134.762791 30.397089 
L 137.197996 32.324405 
L 139.6332 32.203271 
L 142.068405 31.997462 
L 144.503609 31.863782 
L 146.938813 32.367931 
L 149.374018 32.421623 
L 151.809222 29.845291 
L 154.244426 29.947732 
L 156.679631 32.33777 
L 159.114835 32.174319 
L 161.55004 30.030727 
L 163.985244 31.71204 
L 166.420448 31.761446 
L 168.855653 30.129374 
L 171.290857 28.387838 
L 173.726062 32.373243 
L 176.161266 31.509651 
L 178.59647 32.846192 
L 181.031675 28.471786 
L 183.466879 29.683406 
L 185.902084 32.645971 
L 188.337288 30.338677 
L 190.772492 30.196962 
L 193.207697 27.984702 
L 195.642901 32.621585 
L 198.078106 32.439699 
L 200.51331 31.574837 
L 202.948514 30.483508 
L 205.383719 30.679277 
L 207.818923 28.570152 
L 210.254128 28.169875 
L 212.689332 28.856272 
L 215.124536 31.862547 
L 217.559741 28.305642 
L 219.994945 30.131668 
L 222.430149 28.471786 
L 224.865354 29.895294 
L 227.300558 26.064599 
L 229.735763 30.228426 
L 232.170967 28.954529 
L 234.606171 27.634876 
L 237.041376 29.947767 
L 239.47658 30.202225 
L 241.911785 28.118133 
L 244.346989 27.943415 
L 246.782193 28.087122 
L 249.217398 28.514679 
L 251.652602 28.84683 
L 254.087807 29.216533 
L 256.523011 28.25754 
L 258.958215 29.111899 
L 261.39342 28.756819 
L 263.828624 27.404217 
L 266.263829 29.597192 
L 268.699033 28.986187 
L 271.134237 27.759795 
L 273.569442 27.595583 
L 276.004646 29.277654 
L 278.439851 26.682894 
L 280.875055 30.799083 
L 283.310259 26.620861 
L 285.745464 27.634876 
L 288.180668 28.150446 
L 290.615872 26.064599 
L 293.051077 29.99191 
L 295.486281 26.970005 
L 297.921486 27.441114 
L 300.35669 28.366266 
L 302.791894 27.404242 
L 305.227099 27.955856 
L 307.662303 26.382529 
L 310.097508 27.943415 
L 312.532712 27.248508 
L 314.967916 26.759423 
L 317.403121 28.163552 
L 319.838325 28.015706 
L 322.27353 26.970005 
L 324.708734 27.903867 
L 327.143938 27.648758 
L 329.579143 27.984702 
L 332.014347 26.413613 
L 334.449552 26.059334 
L 336.884756 26.850671 
L 339.31996 27.141397 
L 341.755165 26.972971 
L 344.190369 26.972971 
L 346.625574 27.485128 
L 349.060778 26.817624 
L 351.495982 27.063809 
L 353.931187 28.28147 
L 356.366391 26.970005 
L 358.801595 27.171776 
L 361.2368 26.002318 
L 363.672004 25.444565 
L 366.107209 25.444565 
L 368.542413 26.393768 
L 370.977617 26.970005 
L 373.412822 26.382529 
L 375.848026 26.653147 
L 378.283231 26.935699 
L 380.718435 26.393768 
L 383.153639 25.444565 
L 385.588844 26.609622 
L 388.024048 26.609622 
L 390.459253 26.064599 
L 392.894457 26.972971 
L 395.329661 26.393768 
L 397.764866 26.064599 
L 400.20007 26.413613 
L 402.635275 26.393768 
L 405.070479 26.064599 
L 407.505683 26.579963 
L 409.940888 25.444565 
L 412.376092 25.383319 
L 414.811297 26.059334 
L 417.246501 26.064599 
L 419.681705 26.064599 
L 422.11691 25.383319 
L 424.552114 26.059334 
L 426.987318 26.064599 
L 429.422523 26.064599 
L 431.857727 25.383319 
L 431.857727 25.383319 
L 431.857727 25.383319 
L 429.422523 25.156226 
L 426.987318 25.156226 
L 424.552114 24.888978 
L 422.11691 25.383319 
L 419.681705 25.156226 
L 417.246501 25.156226 
L 414.811297 24.888978 
L 412.376092 25.383319 
L 409.940888 24.77705 
L 407.505683 24.731698 
L 405.070479 25.156226 
L 402.635275 25.281243 
L 400.20007 24.988886 
L 397.764866 25.156226 
L 395.329661 25.281243 
L 392.894457 25.156226 
L 390.459253 25.156226 
L 388.024048 24.974551 
L 385.588844 24.974551 
L 383.153639 24.77705 
L 380.718435 25.281243 
L 378.283231 24.648475 
L 375.848026 24.47684 
L 373.412822 24.747458 
L 370.977617 24.88668 
L 368.542413 25.281243 
L 366.107209 24.77705 
L 363.672004 24.77705 
L 361.2368 24.673483 
L 358.801595 24.866584 
L 356.366391 24.88668 
L 353.931187 25.664473 
L 351.495982 26.33711 
L 349.060778 24.675712 
L 346.625574 25.007418 
L 344.190369 25.156226 
L 341.755165 25.156226 
L 339.31996 25.441987 
L 336.884756 24.915177 
L 334.449552 24.888978 
L 332.014347 24.988886 
L 329.579143 26.32459 
L 327.143938 25.025463 
L 324.708734 25.133703 
L 322.27353 24.88668 
L 319.838325 25.839399 
L 317.403121 25.600717 
L 314.967916 24.461401 
L 312.532712 24.51734 
L 310.097508 25.820853 
L 307.662303 24.747458 
L 305.227099 25.445063 
L 302.791894 24.90663 
L 300.35669 25.852189 
L 297.921486 25.505619 
L 295.486281 24.88668 
L 293.051077 26.679151 
L 290.615872 25.156226 
L 288.180668 24.523774 
L 285.745464 25.311856 
L 283.310259 25.508336 
L 280.875055 27.961236 
L 278.439851 25.173792 
L 276.004646 25.576662 
L 273.569442 25.896173 
L 271.134237 25.641124 
L 268.699033 26.322315 
L 266.263829 25.71131 
L 263.828624 25.179167 
L 261.39342 27.096707 
L 258.958215 26.196603 
L 256.523011 26.960124 
L 254.087807 26.455318 
L 251.652602 26.18916 
L 249.217398 26.067124 
L 246.782193 25.495472 
L 244.346989 25.820853 
L 241.911785 25.555298 
L 239.47658 28.376419 
L 237.041376 25.814921 
L 234.606171 25.311856 
L 232.170967 27.625694 
L 229.735763 26.170124 
L 227.300558 25.156226 
L 224.865354 26.957442 
L 222.430149 26.473366 
L 219.994945 26.448555 
L 217.559741 25.367789 
L 215.124536 27.261121 
L 212.689332 25.907206 
L 210.254128 26.866115 
L 207.818923 27.192536 
L 205.383719 27.263506 
L 202.948514 27.368438 
L 200.51331 27.457994 
L 198.078106 29.045738 
L 195.642901 27.047106 
L 193.207697 26.32459 
L 190.772492 27.382472 
L 188.337288 25.969035 
L 185.902084 28.839466 
L 183.466879 27.16933 
L 181.031675 26.473366 
L 178.59647 30.365153 
L 176.161266 26.342295 
L 173.726062 27.386285 
L 171.290857 26.284803 
L 168.855653 27.45006 
L 166.420448 27.725571 
L 163.985244 28.774187 
L 161.55004 27.912056 
L 159.114835 28.221071 
L 156.679631 28.511806 
L 154.244426 26.723329 
L 151.809222 27.007444 
L 149.374018 28.51879 
L 146.938813 26.937411 
L 144.503609 28.440771 
L 142.068405 27.762067 
L 139.6332 28.737142 
L 137.197996 28.706845 
L 134.762791 27.818206 
L 132.327587 26.57835 
L 129.892383 29.089393 
L 127.457178 28.774888 
L 125.021974 28.033755 
L 122.586769 27.050628 
L 120.151565 30.288532 
L 117.716361 28.708955 
L 115.281156 29.901511 
L 112.845952 29.142267 
L 110.410747 31.243405 
L 107.975543 32.262681 
L 105.540339 32.506718 
L 103.105134 34.410087 
L 100.66993 35.550463 
L 98.234725 38.921935 
L 95.799521 34.562491 
L 93.364317 40.859129 
L 90.929112 40.514123 
L 88.493908 38.504764 
L 86.058703 39.782179 
L 83.623499 56.173808 
L 81.188295 56.921537 
L 78.75309 69.822943 
L 76.317886 72.979179 
L 73.882682 93.620451 
L 71.447477 135.973845 
L 69.012273 177.673948 
z
" style="fill:#9467bd;fill-opacity:0.25;"/>
   </g>
   <g id="matplotlib.axis_1">
    <g id="xtick_1">
     <g id="line2d_1">
      <defs>
       <path d="M 0 0 
L 0 3.5 
" id="m5809ac304c" style="stroke:#000000;stroke-width:0.8;"/>
      </defs>
      <g>
       <use style="stroke:#000000;stroke-width:0.8;" x="69.012273" xlink:href="#m5809ac304c" y="303.64"/>
      </g>
     </g>
     <g id="text_1">
      <!-- 0 -->
      <g transform="translate(65.831023 318.238437)scale(0.1 -0.1)">
       <defs>
        <path d="M 31.78125 66.40625 
Q 24.171875 66.40625 20.328125 58.90625 
Q 16.5 51.421875 16.5 36.375 
Q 16.5 21.390625 20.328125 13.890625 
Q 24.171875 6.390625 31.78125 6.390625 
Q 39.453125 6.390625 43.28125 13.890625 
Q 47.125 21.390625 47.125 36.375 
Q 47.125 51.421875 43.28125 58.90625 
Q 39.453125 66.40625 31.78125 66.40625 
z
M 31.78125 74.21875 
Q 44.046875 74.21875 50.515625 64.515625 
Q 56.984375 54.828125 56.984375 36.375 
Q 56.984375 17.96875 50.515625 8.265625 
Q 44.046875 -1.421875 31.78125 -1.421875 
Q 19.53125 -1.421875 13.0625 8.265625 
Q 6.59375 17.96875 6.59375 36.375 
Q 6.59375 54.828125 13.0625 64.515625 
Q 19.53125 74.21875 31.78125 74.21875 
z
" id="DejaVuSans-48"/>
       </defs>
       <use xlink:href="#DejaVuSans-48"/>
      </g>
     </g>
    </g>
    <g id="xtick_2">
     <g id="line2d_2">
      <g>
       <use style="stroke:#000000;stroke-width:0.8;" x="117.716361" xlink:href="#m5809ac304c" y="303.64"/>
      </g>
     </g>
     <g id="text_2">
      <!-- 20 -->
      <g transform="translate(111.353861 318.238437)scale(0.1 -0.1)">
       <defs>
        <path d="M 19.1875 8.296875 
L 53.609375 8.296875 
L 53.609375 0 
L 7.328125 0 
L 7.328125 8.296875 
Q 12.9375 14.109375 22.625 23.890625 
Q 32.328125 33.6875 34.8125 36.53125 
Q 39.546875 41.84375 41.421875 45.53125 
Q 43.3125 49.21875 43.3125 52.78125 
Q 43.3125 58.59375 39.234375 62.25 
Q 35.15625 65.921875 28.609375 65.921875 
Q 23.96875 65.921875 18.8125 64.3125 
Q 13.671875 62.703125 7.8125 59.421875 
L 7.8125 69.390625 
Q 13.765625 71.78125 18.9375 73 
Q 24.125 74.21875 28.421875 74.21875 
Q 39.75 74.21875 46.484375 68.546875 
Q 53.21875 62.890625 53.21875 53.421875 
Q 53.21875 48.921875 51.53125 44.890625 
Q 49.859375 40.875 45.40625 35.40625 
Q 44.1875 33.984375 37.640625 27.21875 
Q 31.109375 20.453125 19.1875 8.296875 
z
" id="DejaVuSans-50"/>
       </defs>
       <use xlink:href="#DejaVuSans-50"/>
       <use x="63.623047" xlink:href="#DejaVuSans-48"/>
      </g>
     </g>
    </g>
    <g id="xtick_3">
     <g id="line2d_3">
      <g>
       <use style="stroke:#000000;stroke-width:0.8;" x="166.420448" xlink:href="#m5809ac304c" y="303.64"/>
      </g>
     </g>
     <g id="text_3">
      <!-- 40 -->
      <g transform="translate(160.057948 318.238437)scale(0.1 -0.1)">
       <defs>
        <path d="M 37.796875 64.3125 
L 12.890625 25.390625 
L 37.796875 25.390625 
z
M 35.203125 72.90625 
L 47.609375 72.90625 
L 47.609375 25.390625 
L 58.015625 25.390625 
L 58.015625 17.1875 
L 47.609375 17.1875 
L 47.609375 0 
L 37.796875 0 
L 37.796875 17.1875 
L 4.890625 17.1875 
L 4.890625 26.703125 
z
" id="DejaVuSans-52"/>
       </defs>
       <use xlink:href="#DejaVuSans-52"/>
       <use x="63.623047" xlink:href="#DejaVuSans-48"/>
      </g>
     </g>
    </g>
    <g id="xtick_4">
     <g id="line2d_4">
      <g>
       <use style="stroke:#000000;stroke-width:0.8;" x="215.124536" xlink:href="#m5809ac304c" y="303.64"/>
      </g>
     </g>
     <g id="text_4">
      <!-- 60 -->
      <g transform="translate(208.762036 318.238437)scale(0.1 -0.1)">
       <defs>
        <path d="M 33.015625 40.375 
Q 26.375 40.375 22.484375 35.828125 
Q 18.609375 31.296875 18.609375 23.390625 
Q 18.609375 15.53125 22.484375 10.953125 
Q 26.375 6.390625 33.015625 6.390625 
Q 39.65625 6.390625 43.53125 10.953125 
Q 47.40625 15.53125 47.40625 23.390625 
Q 47.40625 31.296875 43.53125 35.828125 
Q 39.65625 40.375 33.015625 40.375 
z
M 52.59375 71.296875 
L 52.59375 62.3125 
Q 48.875 64.0625 45.09375 64.984375 
Q 41.3125 65.921875 37.59375 65.921875 
Q 27.828125 65.921875 22.671875 59.328125 
Q 17.53125 52.734375 16.796875 39.40625 
Q 19.671875 43.65625 24.015625 45.921875 
Q 28.375 48.1875 33.59375 48.1875 
Q 44.578125 48.1875 50.953125 41.515625 
Q 57.328125 34.859375 57.328125 23.390625 
Q 57.328125 12.15625 50.6875 5.359375 
Q 44.046875 -1.421875 33.015625 -1.421875 
Q 20.359375 -1.421875 13.671875 8.265625 
Q 6.984375 17.96875 6.984375 36.375 
Q 6.984375 53.65625 15.1875 63.9375 
Q 23.390625 74.21875 37.203125 74.21875 
Q 40.921875 74.21875 44.703125 73.484375 
Q 48.484375 72.75 52.59375 71.296875 
z
" id="DejaVuSans-54"/>
       </defs>
       <use xlink:href="#DejaVuSans-54"/>
       <use x="63.623047" xlink:href="#DejaVuSans-48"/>
      </g>
     </g>
    </g>
    <g id="xtick_5">
     <g id="line2d_5">
      <g>
       <use style="stroke:#000000;stroke-width:0.8;" x="263.828624" xlink:href="#m5809ac304c" y="303.64"/>
      </g>
     </g>
     <g id="text_5">
      <!-- 80 -->
      <g transform="translate(257.466124 318.238437)scale(0.1 -0.1)">
       <defs>
        <path d="M 31.78125 34.625 
Q 24.75 34.625 20.71875 30.859375 
Q 16.703125 27.09375 16.703125 20.515625 
Q 16.703125 13.921875 20.71875 10.15625 
Q 24.75 6.390625 31.78125 6.390625 
Q 38.8125 6.390625 42.859375 10.171875 
Q 46.921875 13.96875 46.921875 20.515625 
Q 46.921875 27.09375 42.890625 30.859375 
Q 38.875 34.625 31.78125 34.625 
z
M 21.921875 38.8125 
Q 15.578125 40.375 12.03125 44.71875 
Q 8.5 49.078125 8.5 55.328125 
Q 8.5 64.0625 14.71875 69.140625 
Q 20.953125 74.21875 31.78125 74.21875 
Q 42.671875 74.21875 48.875 69.140625 
Q 55.078125 64.0625 55.078125 55.328125 
Q 55.078125 49.078125 51.53125 44.71875 
Q 48 40.375 41.703125 38.8125 
Q 48.828125 37.15625 52.796875 32.3125 
Q 56.78125 27.484375 56.78125 20.515625 
Q 56.78125 9.90625 50.3125 4.234375 
Q 43.84375 -1.421875 31.78125 -1.421875 
Q 19.734375 -1.421875 13.25 4.234375 
Q 6.78125 9.90625 6.78125 20.515625 
Q 6.78125 27.484375 10.78125 32.3125 
Q 14.796875 37.15625 21.921875 38.8125 
z
M 18.3125 54.390625 
Q 18.3125 48.734375 21.84375 45.5625 
Q 25.390625 42.390625 31.78125 42.390625 
Q 38.140625 42.390625 41.71875 45.5625 
Q 45.3125 48.734375 45.3125 54.390625 
Q 45.3125 60.0625 41.71875 63.234375 
Q 38.140625 66.40625 31.78125 66.40625 
Q 25.390625 66.40625 21.84375 63.234375 
Q 18.3125 60.0625 18.3125 54.390625 
z
" id="DejaVuSans-56"/>
       </defs>
       <use xlink:href="#DejaVuSans-56"/>
       <use x="63.623047" xlink:href="#DejaVuSans-48"/>
      </g>
     </g>
    </g>
    <g id="xtick_6">
     <g id="line2d_6">
      <g>
       <use style="stroke:#000000;stroke-width:0.8;" x="312.532712" xlink:href="#m5809ac304c" y="303.64"/>
      </g>
     </g>
     <g id="text_6">
      <!-- 100 -->
      <g transform="translate(302.988962 318.238437)scale(0.1 -0.1)">
       <defs>
        <path d="M 12.40625 8.296875 
L 28.515625 8.296875 
L 28.515625 63.921875 
L 10.984375 60.40625 
L 10.984375 69.390625 
L 28.421875 72.90625 
L 38.28125 72.90625 
L 38.28125 8.296875 
L 54.390625 8.296875 
L 54.390625 0 
L 12.40625 0 
z
" id="DejaVuSans-49"/>
       </defs>
       <use xlink:href="#DejaVuSans-49"/>
       <use x="63.623047" xlink:href="#DejaVuSans-48"/>
       <use x="127.246094" xlink:href="#DejaVuSans-48"/>
      </g>
     </g>
    </g>
    <g id="xtick_7">
     <g id="line2d_7">
      <g>
       <use style="stroke:#000000;stroke-width:0.8;" x="361.2368" xlink:href="#m5809ac304c" y="303.64"/>
      </g>
     </g>
     <g id="text_7">
      <!-- 120 -->
      <g transform="translate(351.69305 318.238437)scale(0.1 -0.1)">
       <use xlink:href="#DejaVuSans-49"/>
       <use x="63.623047" xlink:href="#DejaVuSans-50"/>
       <use x="127.246094" xlink:href="#DejaVuSans-48"/>
      </g>
     </g>
    </g>
    <g id="xtick_8">
     <g id="line2d_8">
      <g>
       <use style="stroke:#000000;stroke-width:0.8;" x="409.940888" xlink:href="#m5809ac304c" y="303.64"/>
      </g>
     </g>
     <g id="text_8">
      <!-- 140 -->
      <g transform="translate(400.397138 318.238437)scale(0.1 -0.1)">
       <use xlink:href="#DejaVuSans-49"/>
       <use x="63.623047" xlink:href="#DejaVuSans-52"/>
       <use x="127.246094" xlink:href="#DejaVuSans-48"/>
      </g>
     </g>
    </g>
    <g id="text_9">
     <!-- Epochs -->
     <g transform="translate(232.519375 331.916562)scale(0.1 -0.1)">
      <defs>
       <path d="M 9.8125 72.90625 
L 55.90625 72.90625 
L 55.90625 64.59375 
L 19.671875 64.59375 
L 19.671875 43.015625 
L 54.390625 43.015625 
L 54.390625 34.71875 
L 19.671875 34.71875 
L 19.671875 8.296875 
L 56.78125 8.296875 
L 56.78125 0 
L 9.8125 0 
z
" id="DejaVuSans-69"/>
       <path d="M 18.109375 8.203125 
L 18.109375 -20.796875 
L 9.078125 -20.796875 
L 9.078125 54.6875 
L 18.109375 54.6875 
L 18.109375 46.390625 
Q 20.953125 51.265625 25.265625 53.625 
Q 29.59375 56 35.59375 56 
Q 45.5625 56 51.78125 48.09375 
Q 58.015625 40.1875 58.015625 27.296875 
Q 58.015625 14.40625 51.78125 6.484375 
Q 45.5625 -1.421875 35.59375 -1.421875 
Q 29.59375 -1.421875 25.265625 0.953125 
Q 20.953125 3.328125 18.109375 8.203125 
z
M 48.6875 27.296875 
Q 48.6875 37.203125 44.609375 42.84375 
Q 40.53125 48.484375 33.40625 48.484375 
Q 26.265625 48.484375 22.1875 42.84375 
Q 18.109375 37.203125 18.109375 27.296875 
Q 18.109375 17.390625 22.1875 11.75 
Q 26.265625 6.109375 33.40625 6.109375 
Q 40.53125 6.109375 44.609375 11.75 
Q 48.6875 17.390625 48.6875 27.296875 
z
" id="DejaVuSans-112"/>
       <path d="M 30.609375 48.390625 
Q 23.390625 48.390625 19.1875 42.75 
Q 14.984375 37.109375 14.984375 27.296875 
Q 14.984375 17.484375 19.15625 11.84375 
Q 23.34375 6.203125 30.609375 6.203125 
Q 37.796875 6.203125 41.984375 11.859375 
Q 46.1875 17.53125 46.1875 27.296875 
Q 46.1875 37.015625 41.984375 42.703125 
Q 37.796875 48.390625 30.609375 48.390625 
z
M 30.609375 56 
Q 42.328125 56 49.015625 48.375 
Q 55.71875 40.765625 55.71875 27.296875 
Q 55.71875 13.875 49.015625 6.21875 
Q 42.328125 -1.421875 30.609375 -1.421875 
Q 18.84375 -1.421875 12.171875 6.21875 
Q 5.515625 13.875 5.515625 27.296875 
Q 5.515625 40.765625 12.171875 48.375 
Q 18.84375 56 30.609375 56 
z
" id="DejaVuSans-111"/>
       <path d="M 48.78125 52.59375 
L 48.78125 44.1875 
Q 44.96875 46.296875 41.140625 47.34375 
Q 37.3125 48.390625 33.40625 48.390625 
Q 24.65625 48.390625 19.8125 42.84375 
Q 14.984375 37.3125 14.984375 27.296875 
Q 14.984375 17.28125 19.8125 11.734375 
Q 24.65625 6.203125 33.40625 6.203125 
Q 37.3125 6.203125 41.140625 7.25 
Q 44.96875 8.296875 48.78125 10.40625 
L 48.78125 2.09375 
Q 45.015625 0.34375 40.984375 -0.53125 
Q 36.96875 -1.421875 32.421875 -1.421875 
Q 20.0625 -1.421875 12.78125 6.34375 
Q 5.515625 14.109375 5.515625 27.296875 
Q 5.515625 40.671875 12.859375 48.328125 
Q 20.21875 56 33.015625 56 
Q 37.15625 56 41.109375 55.140625 
Q 45.0625 54.296875 48.78125 52.59375 
z
" id="DejaVuSans-99"/>
       <path d="M 54.890625 33.015625 
L 54.890625 0 
L 45.90625 0 
L 45.90625 32.71875 
Q 45.90625 40.484375 42.875 44.328125 
Q 39.84375 48.1875 33.796875 48.1875 
Q 26.515625 48.1875 22.3125 43.546875 
Q 18.109375 38.921875 18.109375 30.90625 
L 18.109375 0 
L 9.078125 0 
L 9.078125 75.984375 
L 18.109375 75.984375 
L 18.109375 46.1875 
Q 21.34375 51.125 25.703125 53.5625 
Q 30.078125 56 35.796875 56 
Q 45.21875 56 50.046875 50.171875 
Q 54.890625 44.34375 54.890625 33.015625 
z
" id="DejaVuSans-104"/>
       <path d="M 44.28125 53.078125 
L 44.28125 44.578125 
Q 40.484375 46.53125 36.375 47.5 
Q 32.28125 48.484375 27.875 48.484375 
Q 21.1875 48.484375 17.84375 46.4375 
Q 14.5 44.390625 14.5 40.28125 
Q 14.5 37.15625 16.890625 35.375 
Q 19.28125 33.59375 26.515625 31.984375 
L 29.59375 31.296875 
Q 39.15625 29.25 43.1875 25.515625 
Q 47.21875 21.78125 47.21875 15.09375 
Q 47.21875 7.46875 41.1875 3.015625 
Q 35.15625 -1.421875 24.609375 -1.421875 
Q 20.21875 -1.421875 15.453125 -0.5625 
Q 10.6875 0.296875 5.421875 2 
L 5.421875 11.28125 
Q 10.40625 8.6875 15.234375 7.390625 
Q 20.0625 6.109375 24.8125 6.109375 
Q 31.15625 6.109375 34.5625 8.28125 
Q 37.984375 10.453125 37.984375 14.40625 
Q 37.984375 18.0625 35.515625 20.015625 
Q 33.0625 21.96875 24.703125 23.78125 
L 21.578125 24.515625 
Q 13.234375 26.265625 9.515625 29.90625 
Q 5.8125 33.546875 5.8125 39.890625 
Q 5.8125 47.609375 11.28125 51.796875 
Q 16.75 56 26.8125 56 
Q 31.78125 56 36.171875 55.265625 
Q 40.578125 54.546875 44.28125 53.078125 
z
" id="DejaVuSans-115"/>
      </defs>
      <use xlink:href="#DejaVuSans-69"/>
      <use x="63.183594" xlink:href="#DejaVuSans-112"/>
      <use x="126.660156" xlink:href="#DejaVuSans-111"/>
      <use x="187.841797" xlink:href="#DejaVuSans-99"/>
      <use x="242.822266" xlink:href="#DejaVuSans-104"/>
      <use x="306.201172" xlink:href="#DejaVuSans-115"/>
     </g>
    </g>
   </g>
   <g id="matplotlib.axis_2">
    <g id="ytick_1">
     <g id="line2d_9">
      <defs>
       <path d="M 0 0 
L -3.5 0 
" id="mfc0c1b9501" style="stroke:#000000;stroke-width:0.8;"/>
      </defs>
      <g>
       <use style="stroke:#000000;stroke-width:0.8;" x="50.87" xlink:href="#mfc0c1b9501" y="257.245471"/>
      </g>
     </g>
     <g id="text_10">
      <!-- 50 -->
      <g transform="translate(31.145 261.04469)scale(0.1 -0.1)">
       <defs>
        <path d="M 10.796875 72.90625 
L 49.515625 72.90625 
L 49.515625 64.59375 
L 19.828125 64.59375 
L 19.828125 46.734375 
Q 21.96875 47.46875 24.109375 47.828125 
Q 26.265625 48.1875 28.421875 48.1875 
Q 40.625 48.1875 47.75 41.5 
Q 54.890625 34.8125 54.890625 23.390625 
Q 54.890625 11.625 47.5625 5.09375 
Q 40.234375 -1.421875 26.90625 -1.421875 
Q 22.3125 -1.421875 17.546875 -0.640625 
Q 12.796875 0.140625 7.71875 1.703125 
L 7.71875 11.625 
Q 12.109375 9.234375 16.796875 8.0625 
Q 21.484375 6.890625 26.703125 6.890625 
Q 35.15625 6.890625 40.078125 11.328125 
Q 45.015625 15.765625 45.015625 23.390625 
Q 45.015625 31 40.078125 35.4375 
Q 35.15625 39.890625 26.703125 39.890625 
Q 22.75 39.890625 18.8125 39.015625 
Q 14.890625 38.140625 10.796875 36.28125 
z
" id="DejaVuSans-53"/>
       </defs>
       <use xlink:href="#DejaVuSans-53"/>
       <use x="63.623047" xlink:href="#DejaVuSans-48"/>
      </g>
     </g>
    </g>
    <g id="ytick_2">
     <g id="line2d_10">
      <g>
       <use style="stroke:#000000;stroke-width:0.8;" x="50.87" xlink:href="#mfc0c1b9501" y="210.736785"/>
      </g>
     </g>
     <g id="text_11">
      <!-- 60 -->
      <g transform="translate(31.145 214.536004)scale(0.1 -0.1)">
       <use xlink:href="#DejaVuSans-54"/>
       <use x="63.623047" xlink:href="#DejaVuSans-48"/>
      </g>
     </g>
    </g>
    <g id="ytick_3">
     <g id="line2d_11">
      <g>
       <use style="stroke:#000000;stroke-width:0.8;" x="50.87" xlink:href="#mfc0c1b9501" y="164.228099"/>
      </g>
     </g>
     <g id="text_12">
      <!-- 70 -->
      <g transform="translate(31.145 168.027317)scale(0.1 -0.1)">
       <defs>
        <path d="M 8.203125 72.90625 
L 55.078125 72.90625 
L 55.078125 68.703125 
L 28.609375 0 
L 18.3125 0 
L 43.21875 64.59375 
L 8.203125 64.59375 
z
" id="DejaVuSans-55"/>
       </defs>
       <use xlink:href="#DejaVuSans-55"/>
       <use x="63.623047" xlink:href="#DejaVuSans-48"/>
      </g>
     </g>
    </g>
    <g id="ytick_4">
     <g id="line2d_12">
      <g>
       <use style="stroke:#000000;stroke-width:0.8;" x="50.87" xlink:href="#mfc0c1b9501" y="117.719412"/>
      </g>
     </g>
     <g id="text_13">
      <!-- 80 -->
      <g transform="translate(31.145 121.518631)scale(0.1 -0.1)">
       <use xlink:href="#DejaVuSans-56"/>
       <use x="63.623047" xlink:href="#DejaVuSans-48"/>
      </g>
     </g>
    </g>
    <g id="ytick_5">
     <g id="line2d_13">
      <g>
       <use style="stroke:#000000;stroke-width:0.8;" x="50.87" xlink:href="#mfc0c1b9501" y="71.210726"/>
      </g>
     </g>
     <g id="text_14">
      <!-- 90 -->
      <g transform="translate(31.145 75.009945)scale(0.1 -0.1)">
       <defs>
        <path d="M 10.984375 1.515625 
L 10.984375 10.5 
Q 14.703125 8.734375 18.5 7.8125 
Q 22.3125 6.890625 25.984375 6.890625 
Q 35.75 6.890625 40.890625 13.453125 
Q 46.046875 20.015625 46.78125 33.40625 
Q 43.953125 29.203125 39.59375 26.953125 
Q 35.25 24.703125 29.984375 24.703125 
Q 19.046875 24.703125 12.671875 31.3125 
Q 6.296875 37.9375 6.296875 49.421875 
Q 6.296875 60.640625 12.9375 67.421875 
Q 19.578125 74.21875 30.609375 74.21875 
Q 43.265625 74.21875 49.921875 64.515625 
Q 56.59375 54.828125 56.59375 36.375 
Q 56.59375 19.140625 48.40625 8.859375 
Q 40.234375 -1.421875 26.421875 -1.421875 
Q 22.703125 -1.421875 18.890625 -0.6875 
Q 15.09375 0.046875 10.984375 1.515625 
z
M 30.609375 32.421875 
Q 37.25 32.421875 41.125 36.953125 
Q 45.015625 41.5 45.015625 49.421875 
Q 45.015625 57.28125 41.125 61.84375 
Q 37.25 66.40625 30.609375 66.40625 
Q 23.96875 66.40625 20.09375 61.84375 
Q 16.21875 57.28125 16.21875 49.421875 
Q 16.21875 41.5 20.09375 36.953125 
Q 23.96875 32.421875 30.609375 32.421875 
z
" id="DejaVuSans-57"/>
       </defs>
       <use xlink:href="#DejaVuSans-57"/>
       <use x="63.623047" xlink:href="#DejaVuSans-48"/>
      </g>
     </g>
    </g>
    <g id="ytick_6">
     <g id="line2d_14">
      <g>
       <use style="stroke:#000000;stroke-width:0.8;" x="50.87" xlink:href="#mfc0c1b9501" y="24.702039"/>
      </g>
     </g>
     <g id="text_15">
      <!-- 100 -->
      <g transform="translate(24.7825 28.501258)scale(0.1 -0.1)">
       <use xlink:href="#DejaVuSans-49"/>
       <use x="63.623047" xlink:href="#DejaVuSans-48"/>
       <use x="127.246094" xlink:href="#DejaVuSans-48"/>
      </g>
     </g>
    </g>
    <g id="text_16">
     <!-- Test Accuracy (%) -->
     <g transform="translate(18.702813 201.723906)rotate(-90)scale(0.1 -0.1)">
      <defs>
       <path d="M -0.296875 72.90625 
L 61.375 72.90625 
L 61.375 64.59375 
L 35.5 64.59375 
L 35.5 0 
L 25.59375 0 
L 25.59375 64.59375 
L -0.296875 64.59375 
z
" id="DejaVuSans-84"/>
       <path d="M 56.203125 29.59375 
L 56.203125 25.203125 
L 14.890625 25.203125 
Q 15.484375 15.921875 20.484375 11.0625 
Q 25.484375 6.203125 34.421875 6.203125 
Q 39.59375 6.203125 44.453125 7.46875 
Q 49.3125 8.734375 54.109375 11.28125 
L 54.109375 2.78125 
Q 49.265625 0.734375 44.1875 -0.34375 
Q 39.109375 -1.421875 33.890625 -1.421875 
Q 20.796875 -1.421875 13.15625 6.1875 
Q 5.515625 13.8125 5.515625 26.8125 
Q 5.515625 40.234375 12.765625 48.109375 
Q 20.015625 56 32.328125 56 
Q 43.359375 56 49.78125 48.890625 
Q 56.203125 41.796875 56.203125 29.59375 
z
M 47.21875 32.234375 
Q 47.125 39.59375 43.09375 43.984375 
Q 39.0625 48.390625 32.421875 48.390625 
Q 24.90625 48.390625 20.390625 44.140625 
Q 15.875 39.890625 15.1875 32.171875 
z
" id="DejaVuSans-101"/>
       <path d="M 18.3125 70.21875 
L 18.3125 54.6875 
L 36.8125 54.6875 
L 36.8125 47.703125 
L 18.3125 47.703125 
L 18.3125 18.015625 
Q 18.3125 11.328125 20.140625 9.421875 
Q 21.96875 7.515625 27.59375 7.515625 
L 36.8125 7.515625 
L 36.8125 0 
L 27.59375 0 
Q 17.1875 0 13.234375 3.875 
Q 9.28125 7.765625 9.28125 18.015625 
L 9.28125 47.703125 
L 2.6875 47.703125 
L 2.6875 54.6875 
L 9.28125 54.6875 
L 9.28125 70.21875 
z
" id="DejaVuSans-116"/>
       <path id="DejaVuSans-32"/>
       <path d="M 34.1875 63.1875 
L 20.796875 26.90625 
L 47.609375 26.90625 
z
M 28.609375 72.90625 
L 39.796875 72.90625 
L 67.578125 0 
L 57.328125 0 
L 50.6875 18.703125 
L 17.828125 18.703125 
L 11.1875 0 
L 0.78125 0 
z
" id="DejaVuSans-65"/>
       <path d="M 8.5 21.578125 
L 8.5 54.6875 
L 17.484375 54.6875 
L 17.484375 21.921875 
Q 17.484375 14.15625 20.5 10.265625 
Q 23.53125 6.390625 29.59375 6.390625 
Q 36.859375 6.390625 41.078125 11.03125 
Q 45.3125 15.671875 45.3125 23.6875 
L 45.3125 54.6875 
L 54.296875 54.6875 
L 54.296875 0 
L 45.3125 0 
L 45.3125 8.40625 
Q 42.046875 3.421875 37.71875 1 
Q 33.40625 -1.421875 27.6875 -1.421875 
Q 18.265625 -1.421875 13.375 4.4375 
Q 8.5 10.296875 8.5 21.578125 
z
M 31.109375 56 
z
" id="DejaVuSans-117"/>
       <path d="M 41.109375 46.296875 
Q 39.59375 47.171875 37.8125 47.578125 
Q 36.03125 48 33.890625 48 
Q 26.265625 48 22.1875 43.046875 
Q 18.109375 38.09375 18.109375 28.8125 
L 18.109375 0 
L 9.078125 0 
L 9.078125 54.6875 
L 18.109375 54.6875 
L 18.109375 46.1875 
Q 20.953125 51.171875 25.484375 53.578125 
Q 30.03125 56 36.53125 56 
Q 37.453125 56 38.578125 55.875 
Q 39.703125 55.765625 41.0625 55.515625 
z
" id="DejaVuSans-114"/>
       <path d="M 34.28125 27.484375 
Q 23.390625 27.484375 19.1875 25 
Q 14.984375 22.515625 14.984375 16.5 
Q 14.984375 11.71875 18.140625 8.90625 
Q 21.296875 6.109375 26.703125 6.109375 
Q 34.1875 6.109375 38.703125 11.40625 
Q 43.21875 16.703125 43.21875 25.484375 
L 43.21875 27.484375 
z
M 52.203125 31.203125 
L 52.203125 0 
L 43.21875 0 
L 43.21875 8.296875 
Q 40.140625 3.328125 35.546875 0.953125 
Q 30.953125 -1.421875 24.3125 -1.421875 
Q 15.921875 -1.421875 10.953125 3.296875 
Q 6 8.015625 6 15.921875 
Q 6 25.140625 12.171875 29.828125 
Q 18.359375 34.515625 30.609375 34.515625 
L 43.21875 34.515625 
L 43.21875 35.40625 
Q 43.21875 41.609375 39.140625 45 
Q 35.0625 48.390625 27.6875 48.390625 
Q 23 48.390625 18.546875 47.265625 
Q 14.109375 46.140625 10.015625 43.890625 
L 10.015625 52.203125 
Q 14.9375 54.109375 19.578125 55.046875 
Q 24.21875 56 28.609375 56 
Q 40.484375 56 46.34375 49.84375 
Q 52.203125 43.703125 52.203125 31.203125 
z
" id="DejaVuSans-97"/>
       <path d="M 32.171875 -5.078125 
Q 28.375 -14.84375 24.75 -17.8125 
Q 21.140625 -20.796875 15.09375 -20.796875 
L 7.90625 -20.796875 
L 7.90625 -13.28125 
L 13.1875 -13.28125 
Q 16.890625 -13.28125 18.9375 -11.515625 
Q 21 -9.765625 23.484375 -3.21875 
L 25.09375 0.875 
L 2.984375 54.6875 
L 12.5 54.6875 
L 29.59375 11.921875 
L 46.6875 54.6875 
L 56.203125 54.6875 
z
" id="DejaVuSans-121"/>
       <path d="M 31 75.875 
Q 24.46875 64.65625 21.28125 53.65625 
Q 18.109375 42.671875 18.109375 31.390625 
Q 18.109375 20.125 21.3125 9.0625 
Q 24.515625 -2 31 -13.1875 
L 23.1875 -13.1875 
Q 15.875 -1.703125 12.234375 9.375 
Q 8.59375 20.453125 8.59375 31.390625 
Q 8.59375 42.28125 12.203125 53.3125 
Q 15.828125 64.359375 23.1875 75.875 
z
" id="DejaVuSans-40"/>
       <path d="M 72.703125 32.078125 
Q 68.453125 32.078125 66.03125 28.46875 
Q 63.625 24.859375 63.625 18.40625 
Q 63.625 12.0625 66.03125 8.421875 
Q 68.453125 4.78125 72.703125 4.78125 
Q 76.859375 4.78125 79.265625 8.421875 
Q 81.6875 12.0625 81.6875 18.40625 
Q 81.6875 24.8125 79.265625 28.4375 
Q 76.859375 32.078125 72.703125 32.078125 
z
M 72.703125 38.28125 
Q 80.421875 38.28125 84.953125 32.90625 
Q 89.5 27.546875 89.5 18.40625 
Q 89.5 9.28125 84.9375 3.921875 
Q 80.375 -1.421875 72.703125 -1.421875 
Q 64.890625 -1.421875 60.34375 3.921875 
Q 55.8125 9.28125 55.8125 18.40625 
Q 55.8125 27.59375 60.375 32.9375 
Q 64.9375 38.28125 72.703125 38.28125 
z
M 22.3125 68.015625 
Q 18.109375 68.015625 15.6875 64.375 
Q 13.28125 60.75 13.28125 54.390625 
Q 13.28125 47.953125 15.671875 44.328125 
Q 18.0625 40.71875 22.3125 40.71875 
Q 26.5625 40.71875 28.96875 44.328125 
Q 31.390625 47.953125 31.390625 54.390625 
Q 31.390625 60.6875 28.953125 64.34375 
Q 26.515625 68.015625 22.3125 68.015625 
z
M 66.40625 74.21875 
L 74.21875 74.21875 
L 28.609375 -1.421875 
L 20.796875 -1.421875 
z
M 22.3125 74.21875 
Q 30.03125 74.21875 34.609375 68.875 
Q 39.203125 63.53125 39.203125 54.390625 
Q 39.203125 45.171875 34.640625 39.84375 
Q 30.078125 34.515625 22.3125 34.515625 
Q 14.546875 34.515625 10.03125 39.859375 
Q 5.515625 45.21875 5.515625 54.390625 
Q 5.515625 63.484375 10.046875 68.84375 
Q 14.59375 74.21875 22.3125 74.21875 
z
" id="DejaVuSans-37"/>
       <path d="M 8.015625 75.875 
L 15.828125 75.875 
Q 23.140625 64.359375 26.78125 53.3125 
Q 30.421875 42.28125 30.421875 31.390625 
Q 30.421875 20.453125 26.78125 9.375 
Q 23.140625 -1.703125 15.828125 -13.1875 
L 8.015625 -13.1875 
Q 14.5 -2 17.703125 9.0625 
Q 20.90625 20.125 20.90625 31.390625 
Q 20.90625 42.671875 17.703125 53.65625 
Q 14.5 64.65625 8.015625 75.875 
z
" id="DejaVuSans-41"/>
      </defs>
      <use xlink:href="#DejaVuSans-84"/>
      <use x="44.083984" xlink:href="#DejaVuSans-101"/>
      <use x="105.607422" xlink:href="#DejaVuSans-115"/>
      <use x="157.707031" xlink:href="#DejaVuSans-116"/>
      <use x="196.916016" xlink:href="#DejaVuSans-32"/>
      <use x="228.703125" xlink:href="#DejaVuSans-65"/>
      <use x="295.361328" xlink:href="#DejaVuSans-99"/>
      <use x="350.341797" xlink:href="#DejaVuSans-99"/>
      <use x="405.322266" xlink:href="#DejaVuSans-117"/>
      <use x="468.701172" xlink:href="#DejaVuSans-114"/>
      <use x="509.814453" xlink:href="#DejaVuSans-97"/>
      <use x="571.09375" xlink:href="#DejaVuSans-99"/>
      <use x="626.074219" xlink:href="#DejaVuSans-121"/>
      <use x="685.253906" xlink:href="#DejaVuSans-32"/>
      <use x="717.041016" xlink:href="#DejaVuSans-40"/>
      <use x="756.054688" xlink:href="#DejaVuSans-37"/>
      <use x="851.074219" xlink:href="#DejaVuSans-41"/>
     </g>
    </g>
   </g>
   <g id="line2d_15">
    <path clip-path="url(#p4c02cb4495)" d="M 69.012273 194.249819 
L 71.447477 117.219807 
L 73.882682 87.42518 
L 76.317886 81.248245 
L 78.75309 64.852116 
L 81.188295 52.225735 
L 83.623499 43.641612 
L 86.058703 48.819337 
L 88.493908 39.190585 
L 90.929112 36.192955 
L 93.364317 35.239164 
L 95.799521 37.237584 
L 98.234725 35.239164 
L 100.66993 31.923603 
L 103.105134 30.742718 
L 105.540339 30.742718 
L 107.975543 32.423208 
L 110.410747 30.197695 
L 112.845952 29.289322 
L 115.281156 32.105278 
L 117.716361 29.834346 
L 120.151565 29.879764 
L 122.586769 28.426368 
L 125.021974 29.153066 
L 127.457178 29.69809 
L 129.892383 30.969812 
L 132.327587 30.197695 
L 134.762791 27.608832 
L 137.197996 29.289322 
L 139.6332 27.790507 
L 144.503609 30.01602 
L 146.938813 27.881344 
L 149.374018 28.608042 
L 151.809222 28.789717 
L 154.244426 30.152276 
L 156.679631 28.789717 
L 159.114835 30.379369 
L 161.55004 28.69888 
L 163.985244 29.607252 
L 166.420448 28.0176 
L 168.855653 28.153856 
L 171.290857 30.924393 
L 173.726062 29.153066 
L 176.161266 30.288532 
L 178.59647 29.062229 
L 181.031675 27.427158 
L 183.466879 27.472576 
L 185.902084 28.335531 
L 188.337288 28.653461 
L 190.772492 27.881344 
L 193.207697 28.244693 
L 195.642901 28.880554 
L 198.078106 28.971391 
L 200.51331 26.745878 
L 202.948514 26.155436 
L 205.383719 27.290902 
L 207.818923 29.607252 
L 210.254128 27.290902 
L 212.689332 26.291692 
L 215.124536 28.608042 
L 217.559741 27.654251 
L 219.994945 27.608832 
L 222.430149 25.837505 
L 224.865354 27.33632 
L 227.300558 28.0176 
L 229.735763 27.063809 
L 232.170967 26.518785 
L 234.606171 27.472576 
L 237.041376 26.291692 
L 239.47658 29.107647 
L 241.911785 26.200854 
L 244.346989 26.745878 
L 246.782193 27.472576 
L 249.217398 26.927553 
L 251.652602 25.110807 
L 254.087807 26.291692 
L 256.523011 26.791297 
L 258.958215 26.33711 
L 261.39342 26.927553 
L 263.828624 25.701249 
L 266.263829 26.927553 
L 268.699033 25.928343 
L 271.134237 25.201644 
L 273.569442 26.110017 
L 276.004646 26.791297 
L 278.439851 26.01918 
L 280.875055 27.063809 
L 283.310259 26.70046 
L 288.180668 26.473366 
L 290.615872 26.745878 
L 293.051077 26.291692 
L 295.486281 25.110807 
L 297.921486 25.474156 
L 300.35669 25.3379 
L 302.791894 27.154646 
L 305.227099 26.382529 
L 310.097508 26.155436 
L 312.532712 25.701249 
L 314.967916 26.246273 
L 317.403121 25.928343 
L 319.838325 26.291692 
L 322.27353 25.746668 
L 324.708734 26.246273 
L 327.143938 25.383319 
L 329.579143 26.01918 
L 332.014347 25.701249 
L 334.449552 24.974551 
L 336.884756 25.474156 
L 341.755165 25.564994 
L 344.190369 24.974551 
L 346.625574 25.746668 
L 349.060778 25.247063 
L 351.495982 25.201644 
L 353.931187 25.292482 
L 358.801595 25.882924 
L 361.2368 25.610412 
L 363.672004 26.382529 
L 366.107209 24.838295 
L 368.542413 24.838295 
L 370.977617 25.3379 
L 375.848026 25.110807 
L 378.283231 24.838295 
L 383.153639 25.201644 
L 385.588844 24.974551 
L 388.024048 25.3379 
L 390.459253 24.838295 
L 395.329661 24.838295 
L 397.764866 24.974551 
L 400.20007 24.974551 
L 405.070479 24.702039 
L 407.505683 25.110807 
L 409.940888 25.110807 
L 412.376092 24.974551 
L 417.246501 24.974551 
L 419.681705 25.110807 
L 422.11691 25.110807 
L 424.552114 24.974551 
L 431.857727 24.974551 
L 431.857727 24.974551 
" style="fill:none;stroke:#1f77b4;stroke-linecap:square;stroke-width:1.5;"/>
   </g>
   <g id="line2d_16">
    <path clip-path="url(#p4c02cb4495)" d="M 69.012273 249.524303 
L 71.447477 245.981649 
L 73.882682 238.714667 
L 76.317886 237.442945 
L 78.75309 200.790103 
L 81.188295 109.362383 
L 83.623499 86.925575 
L 86.058703 83.019572 
L 88.493908 65.805908 
L 90.929112 70.484028 
L 93.364317 44.05038 
L 95.799521 42.778658 
L 98.234725 49.318942 
L 100.66993 41.279843 
L 103.105134 36.874235 
L 105.540339 36.192955 
L 107.975543 37.646352 
L 110.410747 35.37542 
L 112.845952 32.559464 
L 115.281156 31.151486 
L 117.716361 31.151486 
L 120.151565 30.878974 
L 122.586769 31.242323 
L 125.021974 30.243113 
L 127.457178 31.196905 
L 129.892383 32.332371 
L 132.327587 30.379369 
L 134.762791 27.608832 
L 137.197996 31.832766 
L 139.6332 29.334741 
L 142.068405 30.01602 
L 144.503609 31.605673 
L 146.938813 29.107647 
L 149.374018 31.106068 
L 151.809222 29.470997 
L 154.244426 31.605673 
L 156.679631 30.470207 
L 159.114835 31.469417 
L 161.55004 29.788927 
L 163.985244 28.880554 
L 166.420448 30.561044 
L 168.855653 27.69967 
L 171.290857 28.199275 
L 173.726062 28.562624 
L 176.161266 32.01444 
L 178.59647 32.059859 
L 181.031675 29.062229 
L 183.466879 27.69967 
L 185.902084 29.062229 
L 188.337288 30.152276 
L 190.772492 29.561834 
L 193.207697 27.654251 
L 195.642901 28.789717 
L 198.078106 29.425578 
L 200.51331 26.791297 
L 202.948514 28.108437 
L 207.818923 28.290112 
L 210.254128 27.563414 
L 212.689332 27.245483 
L 215.124536 30.01602 
L 217.559741 28.69888 
L 219.994945 28.562624 
L 222.430149 28.290112 
L 227.300558 29.01681 
L 229.735763 26.791297 
L 232.170967 27.654251 
L 234.606171 32.01444 
L 237.041376 27.381739 
L 239.47658 28.063019 
L 241.911785 26.155436 
L 244.346989 27.33632 
L 246.782193 27.972181 
L 249.217398 28.108437 
L 251.652602 28.69888 
L 254.087807 27.835925 
L 256.523011 28.244693 
L 258.958215 26.473366 
L 261.39342 28.108437 
L 263.828624 26.70046 
L 266.263829 28.108437 
L 268.699033 26.518785 
L 271.134237 27.01839 
L 273.569442 26.064599 
L 276.004646 27.427158 
L 278.439851 26.564204 
L 280.875055 27.654251 
L 283.310259 27.290902 
L 285.745464 28.0176 
L 288.180668 27.563414 
L 290.615872 26.064599 
L 293.051077 26.882134 
L 295.486281 26.33711 
L 297.921486 27.881344 
L 300.35669 27.01839 
L 302.791894 28.063019 
L 305.227099 26.518785 
L 307.662303 25.882924 
L 310.097508 26.745878 
L 312.532712 26.518785 
L 314.967916 26.745878 
L 317.403121 25.837505 
L 319.838325 28.0176 
L 322.27353 26.70046 
L 324.708734 27.063809 
L 327.143938 27.608832 
L 329.579143 24.974551 
L 332.014347 26.927553 
L 334.449552 26.745878 
L 336.884756 27.745088 
L 339.31996 26.927553 
L 341.755165 26.33711 
L 344.190369 26.064599 
L 346.625574 25.564994 
L 349.060778 25.247063 
L 351.495982 25.928343 
L 356.366391 25.564994 
L 358.801595 25.428738 
L 361.2368 25.928343 
L 363.672004 26.01918 
L 366.107209 26.473366 
L 368.542413 26.246273 
L 370.977617 26.745878 
L 373.412822 25.701249 
L 375.848026 25.928343 
L 378.283231 25.474156 
L 380.718435 26.473366 
L 383.153639 26.064599 
L 385.588844 25.474156 
L 390.459253 25.837505 
L 400.20007 25.837505 
L 402.635275 26.064599 
L 405.070479 25.701249 
L 407.505683 26.064599 
L 409.940888 25.928343 
L 412.376092 26.064599 
L 414.811297 26.064599 
L 417.246501 25.928343 
L 419.681705 25.928343 
L 422.11691 25.701249 
L 424.552114 25.837505 
L 426.987318 25.474156 
L 429.422523 25.928343 
L 431.857727 25.928343 
L 431.857727 25.928343 
" style="fill:none;stroke:#ff7f0e;stroke-linecap:square;stroke-width:1.5;"/>
   </g>
   <g id="line2d_17">
    <path clip-path="url(#p4c02cb4495)" d="M 69.012273 250.160164 
L 71.447477 249.978489 
L 73.882682 245.6183 
L 76.317886 179.670436 
L 78.75309 128.256536 
L 81.188295 90.468229 
L 83.623499 86.153458 
L 86.058703 100.823678 
L 88.493908 59.311042 
L 90.929112 59.40188 
L 93.364317 43.505356 
L 95.799521 51.635292 
L 98.234725 45.04959 
L 100.66993 40.37147 
L 103.105134 38.145957 
L 105.540339 36.647141 
L 107.975543 37.737189 
L 110.410747 32.604883 
L 112.845952 32.377789 
L 115.281156 36.737979 
L 117.716361 31.69651 
L 120.151565 33.195325 
L 122.586769 30.197695 
L 127.457178 32.650301 
L 129.892383 35.193745 
L 132.327587 29.970602 
L 134.762791 31.287742 
L 137.197996 31.469417 
L 139.6332 31.423998 
L 142.068405 28.880554 
L 144.503609 31.923603 
L 146.938813 31.01523 
L 149.374018 29.289322 
L 151.809222 30.561044 
L 154.244426 28.562624 
L 156.679631 29.289322 
L 159.114835 28.69888 
L 161.55004 29.607252 
L 163.985244 31.514835 
L 166.420448 28.971391 
L 168.855653 29.289322 
L 171.290857 29.107647 
L 173.726062 29.788927 
L 176.161266 32.01444 
L 178.59647 29.062229 
L 181.031675 29.380159 
L 183.466879 28.562624 
L 185.902084 28.290112 
L 188.337288 29.289322 
L 190.772492 27.608832 
L 193.207697 28.063019 
L 195.642901 29.652671 
L 198.078106 30.651881 
L 200.51331 27.427158 
L 202.948514 27.01839 
L 205.383719 29.925183 
L 207.818923 25.973761 
L 210.254128 27.154646 
L 212.689332 26.836715 
L 215.124536 28.562624 
L 217.559741 26.791297 
L 219.994945 28.471786 
L 222.430149 29.107647 
L 224.865354 28.653461 
L 227.300558 28.335531 
L 229.735763 26.927553 
L 232.170967 26.927553 
L 234.606171 28.0176 
L 237.041376 27.654251 
L 239.47658 28.471786 
L 241.911785 27.154646 
L 244.346989 27.245483 
L 246.782193 26.791297 
L 249.217398 26.473366 
L 251.652602 26.473366 
L 254.087807 27.245483 
L 258.958215 26.246273 
L 261.39342 27.290902 
L 263.828624 26.473366 
L 266.263829 27.01839 
L 268.699033 25.474156 
L 271.134237 27.154646 
L 276.004646 26.745878 
L 278.439851 27.33632 
L 280.875055 27.69967 
L 283.310259 27.245483 
L 285.745464 26.155436 
L 288.180668 27.563414 
L 293.051077 27.154646 
L 297.921486 26.064599 
L 300.35669 26.70046 
L 302.791894 28.199275 
L 307.662303 26.927553 
L 310.097508 26.291692 
L 312.532712 25.837505 
L 314.967916 26.972971 
L 317.403121 26.291692 
L 319.838325 25.837505 
L 322.27353 25.701249 
L 324.708734 27.563414 
L 327.143938 26.655041 
L 329.579143 26.291692 
L 332.014347 26.064599 
L 334.449552 26.745878 
L 336.884756 26.972971 
L 339.31996 26.291692 
L 341.755165 26.291692 
L 344.190369 25.3379 
L 346.625574 26.382529 
L 349.060778 26.564204 
L 351.495982 25.928343 
L 353.931187 26.518785 
L 356.366391 26.291692 
L 358.801595 26.927553 
L 361.2368 26.518785 
L 363.672004 26.70046 
L 366.107209 25.928343 
L 368.542413 26.110017 
L 370.977617 26.745878 
L 373.412822 26.064599 
L 375.848026 26.927553 
L 378.283231 25.837505 
L 380.718435 26.246273 
L 383.153639 25.701249 
L 385.588844 26.518785 
L 388.024048 25.928343 
L 390.459253 25.837505 
L 392.894457 26.518785 
L 395.329661 26.745878 
L 397.764866 26.518785 
L 400.20007 26.745878 
L 402.635275 26.745878 
L 405.070479 26.518785 
L 414.811297 26.518785 
L 417.246501 26.291692 
L 419.681705 26.745878 
L 422.11691 26.291692 
L 424.552114 26.745878 
L 426.987318 26.518785 
L 429.422523 26.745878 
L 431.857727 26.518785 
L 431.857727 26.518785 
" style="fill:none;stroke:#2ca02c;stroke-linecap:square;stroke-width:1.5;"/>
   </g>
   <g id="line2d_18">
    <path clip-path="url(#p4c02cb4495)" d="M 69.012273 251.023118 
L 71.447477 253.430306 
L 73.882682 250.932281 
L 76.317886 236.875212 
L 78.75309 163.5014 
L 81.188295 110.815779 
L 83.623499 91.603695 
L 86.058703 77.978103 
L 88.493908 79.931104 
L 90.929112 56.177156 
L 93.364317 49.409779 
L 95.799521 45.730869 
L 98.234725 47.04801 
L 100.66993 40.553144 
L 103.105134 40.507726 
L 105.540339 35.193745 
L 107.975543 39.781028 
L 110.410747 35.920443 
L 112.845952 31.69651 
L 115.281156 34.648721 
L 117.716361 31.560254 
L 120.151565 31.106068 
L 122.586769 32.741139 
L 125.021974 29.834346 
L 127.457178 30.969812 
L 129.892383 32.604883 
L 132.327587 31.01523 
L 134.762791 31.423998 
L 137.197996 30.106857 
L 139.6332 32.059859 
L 142.068405 30.833556 
L 144.503609 32.604883 
L 146.938813 32.423208 
L 149.374018 29.470997 
L 154.244426 30.561044 
L 156.679631 30.333951 
L 159.114835 30.606462 
L 161.55004 28.971391 
L 163.985244 31.151486 
L 166.420448 29.561834 
L 168.855653 30.470207 
L 171.290857 28.0176 
L 173.726062 27.472576 
L 176.161266 30.6973 
L 178.59647 29.289322 
L 181.031675 28.653461 
L 183.466879 30.01602 
L 185.902084 29.516415 
L 188.337288 29.153066 
L 190.772492 29.107647 
L 193.207697 28.380949 
L 195.642901 29.334741 
L 198.078106 29.879764 
L 200.51331 28.789717 
L 202.948514 30.424788 
L 205.383719 28.789717 
L 207.818923 29.561834 
L 210.254128 28.290112 
L 212.689332 29.153066 
L 215.124536 28.653461 
L 217.559741 28.517205 
L 219.994945 27.69967 
L 222.430149 26.518785 
L 224.865354 27.881344 
L 227.300558 27.563414 
L 229.735763 27.972181 
L 232.170967 27.427158 
L 234.606171 28.653461 
L 237.041376 28.244693 
L 239.47658 28.653461 
L 241.911785 26.155436 
L 244.346989 28.517205 
L 246.782193 28.562624 
L 249.217398 26.518785 
L 251.652602 27.427158 
L 254.087807 26.200854 
L 256.523011 28.835136 
L 258.958215 28.608042 
L 261.39342 27.200065 
L 263.828624 27.154646 
L 266.263829 27.427158 
L 268.699033 26.836715 
L 271.134237 26.564204 
L 273.569442 27.517995 
L 276.004646 26.882134 
L 278.439851 27.745088 
L 280.875055 28.199275 
L 283.310259 26.564204 
L 285.745464 27.063809 
L 288.180668 27.200065 
L 290.615872 27.472576 
L 293.051077 27.063809 
L 295.486281 27.427158 
L 297.921486 27.245483 
L 300.35669 26.564204 
L 302.791894 27.427158 
L 305.227099 26.564204 
L 307.662303 25.837505 
L 310.097508 26.33711 
L 312.532712 26.473366 
L 314.967916 26.291692 
L 317.403121 26.33711 
L 319.838325 27.790507 
L 322.27353 25.973761 
L 324.708734 26.972971 
L 327.143938 27.109227 
L 329.579143 26.927553 
L 332.014347 25.746668 
L 334.449552 26.155436 
L 336.884756 25.201644 
L 339.31996 25.564994 
L 341.755165 25.701249 
L 344.190369 26.064599 
L 346.625574 25.701249 
L 349.060778 25.201644 
L 353.931187 25.928343 
L 356.366391 26.01918 
L 358.801595 25.928343 
L 361.2368 25.3379 
L 363.672004 25.3379 
L 368.542413 25.564994 
L 370.977617 26.064599 
L 373.412822 25.519575 
L 375.848026 25.792087 
L 378.283231 25.3379 
L 380.718435 25.428738 
L 383.153639 25.201644 
L 385.588844 25.564994 
L 388.024048 25.792087 
L 390.459253 25.792087 
L 392.894457 25.428738 
L 395.329661 24.838295 
L 397.764866 24.974551 
L 400.20007 24.838295 
L 402.635275 24.974551 
L 405.070479 24.838295 
L 407.505683 25.110807 
L 409.940888 24.974551 
L 412.376092 24.974551 
L 414.811297 25.110807 
L 426.987318 25.110807 
L 429.422523 24.974551 
L 431.857727 24.974551 
L 431.857727 24.974551 
" style="fill:none;stroke:#d62728;stroke-linecap:square;stroke-width:1.5;"/>
   </g>
   <g id="line2d_19">
    <path clip-path="url(#p4c02cb4495)" d="M 69.012273 211.826832 
L 71.447477 186.21072 
L 73.882682 168.088683 
L 76.317886 158.664315 
L 78.75309 105.002193 
L 81.188295 76.161357 
L 83.623499 70.347772 
L 86.058703 59.492717 
L 88.493908 63.262464 
L 90.929112 51.635292 
L 93.364317 43.3691 
L 95.799521 41.052749 
L 98.234725 48.001801 
L 100.66993 38.509306 
L 103.105134 36.828816 
L 105.540339 35.466257 
L 110.410747 34.103698 
L 112.845952 32.968232 
L 115.281156 33.922023 
L 117.716361 32.286952 
L 120.151565 31.106068 
L 122.586769 30.969812 
L 125.021974 30.515625 
L 127.457178 32.468627 
L 129.892383 31.923603 
L 132.327587 29.925183 
L 134.762791 29.107647 
L 137.197996 30.515625 
L 139.6332 30.470207 
L 142.068405 29.879764 
L 144.503609 30.152276 
L 146.938813 29.652671 
L 149.374018 30.470207 
L 151.809222 28.426368 
L 154.244426 28.335531 
L 156.679631 30.424788 
L 159.114835 30.197695 
L 161.55004 28.971391 
L 163.985244 30.243113 
L 166.420448 29.743508 
L 168.855653 28.789717 
L 171.290857 27.33632 
L 173.726062 29.879764 
L 176.161266 28.925973 
L 178.59647 31.605673 
L 181.031675 27.472576 
L 183.466879 28.426368 
L 185.902084 30.742718 
L 188.337288 28.153856 
L 190.772492 28.789717 
L 193.207697 27.154646 
L 195.642901 29.834346 
L 198.078106 30.742718 
L 200.51331 29.516415 
L 202.948514 28.925973 
L 205.383719 28.971391 
L 207.818923 27.881344 
L 210.254128 27.517995 
L 212.689332 27.381739 
L 215.124536 29.561834 
L 217.559741 26.836715 
L 219.994945 28.290112 
L 222.430149 27.472576 
L 224.865354 28.426368 
L 227.300558 25.610412 
L 229.735763 28.199275 
L 232.170967 28.290112 
L 234.606171 26.473366 
L 239.47658 29.289322 
L 241.911785 26.836715 
L 244.346989 26.882134 
L 246.782193 26.791297 
L 249.217398 27.290902 
L 254.087807 27.835925 
L 256.523011 27.608832 
L 258.958215 27.654251 
L 261.39342 27.926763 
L 263.828624 26.291692 
L 266.263829 27.654251 
L 268.699033 27.654251 
L 271.134237 26.70046 
L 273.569442 26.745878 
L 276.004646 27.427158 
L 278.439851 25.928343 
L 280.875055 29.380159 
L 283.310259 26.064599 
L 285.745464 26.473366 
L 288.180668 26.33711 
L 290.615872 25.610412 
L 293.051077 28.335531 
L 295.486281 25.928343 
L 300.35669 27.109227 
L 302.791894 26.155436 
L 305.227099 26.70046 
L 307.662303 25.564994 
L 310.097508 26.882134 
L 312.532712 25.882924 
L 314.967916 25.610412 
L 317.403121 26.882134 
L 319.838325 26.927553 
L 322.27353 25.928343 
L 324.708734 26.518785 
L 327.143938 26.33711 
L 329.579143 27.154646 
L 332.014347 25.701249 
L 334.449552 25.474156 
L 339.31996 26.291692 
L 341.755165 26.064599 
L 344.190369 26.064599 
L 346.625574 26.246273 
L 349.060778 25.746668 
L 351.495982 26.70046 
L 353.931187 26.972971 
L 356.366391 25.928343 
L 358.801595 26.01918 
L 361.2368 25.3379 
L 363.672004 25.110807 
L 366.107209 25.110807 
L 368.542413 25.837505 
L 370.977617 25.928343 
L 373.412822 25.564994 
L 375.848026 25.564994 
L 378.283231 25.792087 
L 380.718435 25.837505 
L 383.153639 25.110807 
L 385.588844 25.792087 
L 388.024048 25.792087 
L 390.459253 25.610412 
L 392.894457 26.064599 
L 397.764866 25.610412 
L 402.635275 25.837505 
L 405.070479 25.610412 
L 407.505683 25.655831 
L 409.940888 25.110807 
L 412.376092 25.383319 
L 419.681705 25.610412 
L 422.11691 25.383319 
L 429.422523 25.610412 
L 431.857727 25.383319 
L 431.857727 25.383319 
" style="fill:none;stroke:#9467bd;stroke-linecap:square;stroke-width:1.5;"/>
   </g>
   <g id="patch_3">
    <path d="M 50.87 303.64 
L 50.87 10.8 
" style="fill:none;stroke:#000000;stroke-linecap:square;stroke-linejoin:miter;stroke-width:0.8;"/>
   </g>
   <g id="patch_4">
    <path d="M 450 303.64 
L 450 10.8 
" style="fill:none;stroke:#000000;stroke-linecap:square;stroke-linejoin:miter;stroke-width:0.8;"/>
   </g>
   <g id="patch_5">
    <path d="M 50.87 303.64 
L 450 303.64 
" style="fill:none;stroke:#000000;stroke-linecap:square;stroke-linejoin:miter;stroke-width:0.8;"/>
   </g>
   <g id="patch_6">
    <path d="M 50.87 10.8 
L 450 10.8 
" style="fill:none;stroke:#000000;stroke-linecap:square;stroke-linejoin:miter;stroke-width:0.8;"/>
   </g>
   <g id="legend_1">
    <g id="patch_7">
     <path d="M 291.78125 298.64 
L 443 298.64 
Q 445 298.64 445 296.64 
L 445 224.249375 
Q 445 222.249375 443 222.249375 
L 291.78125 222.249375 
Q 289.78125 222.249375 289.78125 224.249375 
L 289.78125 296.64 
Q 289.78125 298.64 291.78125 298.64 
z
" style="fill:#ffffff;opacity:0.8;stroke:#cccccc;stroke-linejoin:miter;"/>
    </g>
    <g id="line2d_20">
     <path d="M 293.78125 230.347812 
L 313.78125 230.347812 
" style="fill:none;stroke:#1f77b4;stroke-linecap:square;stroke-width:1.5;"/>
    </g>
    <g id="line2d_21"/>
    <g id="text_17">
     <!-- AllReduce SGD -->
     <g transform="translate(321.78125 233.847812)scale(0.1 -0.1)">
      <defs>
       <path d="M 9.421875 75.984375 
L 18.40625 75.984375 
L 18.40625 0 
L 9.421875 0 
z
" id="DejaVuSans-108"/>
       <path d="M 44.390625 34.1875 
Q 47.5625 33.109375 50.5625 29.59375 
Q 53.5625 26.078125 56.59375 19.921875 
L 66.609375 0 
L 56 0 
L 46.6875 18.703125 
Q 43.0625 26.03125 39.671875 28.421875 
Q 36.28125 30.8125 30.421875 30.8125 
L 19.671875 30.8125 
L 19.671875 0 
L 9.8125 0 
L 9.8125 72.90625 
L 32.078125 72.90625 
Q 44.578125 72.90625 50.734375 67.671875 
Q 56.890625 62.453125 56.890625 51.90625 
Q 56.890625 45.015625 53.6875 40.46875 
Q 50.484375 35.9375 44.390625 34.1875 
z
M 19.671875 64.796875 
L 19.671875 38.921875 
L 32.078125 38.921875 
Q 39.203125 38.921875 42.84375 42.21875 
Q 46.484375 45.515625 46.484375 51.90625 
Q 46.484375 58.296875 42.84375 61.546875 
Q 39.203125 64.796875 32.078125 64.796875 
z
" id="DejaVuSans-82"/>
       <path d="M 45.40625 46.390625 
L 45.40625 75.984375 
L 54.390625 75.984375 
L 54.390625 0 
L 45.40625 0 
L 45.40625 8.203125 
Q 42.578125 3.328125 38.25 0.953125 
Q 33.9375 -1.421875 27.875 -1.421875 
Q 17.96875 -1.421875 11.734375 6.484375 
Q 5.515625 14.40625 5.515625 27.296875 
Q 5.515625 40.1875 11.734375 48.09375 
Q 17.96875 56 27.875 56 
Q 33.9375 56 38.25 53.625 
Q 42.578125 51.265625 45.40625 46.390625 
z
M 14.796875 27.296875 
Q 14.796875 17.390625 18.875 11.75 
Q 22.953125 6.109375 30.078125 6.109375 
Q 37.203125 6.109375 41.296875 11.75 
Q 45.40625 17.390625 45.40625 27.296875 
Q 45.40625 37.203125 41.296875 42.84375 
Q 37.203125 48.484375 30.078125 48.484375 
Q 22.953125 48.484375 18.875 42.84375 
Q 14.796875 37.203125 14.796875 27.296875 
z
" id="DejaVuSans-100"/>
       <path d="M 53.515625 70.515625 
L 53.515625 60.890625 
Q 47.90625 63.578125 42.921875 64.890625 
Q 37.9375 66.21875 33.296875 66.21875 
Q 25.25 66.21875 20.875 63.09375 
Q 16.5 59.96875 16.5 54.203125 
Q 16.5 49.359375 19.40625 46.890625 
Q 22.3125 44.4375 30.421875 42.921875 
L 36.375 41.703125 
Q 47.40625 39.59375 52.65625 34.296875 
Q 57.90625 29 57.90625 20.125 
Q 57.90625 9.515625 50.796875 4.046875 
Q 43.703125 -1.421875 29.984375 -1.421875 
Q 24.8125 -1.421875 18.96875 -0.25 
Q 13.140625 0.921875 6.890625 3.21875 
L 6.890625 13.375 
Q 12.890625 10.015625 18.65625 8.296875 
Q 24.421875 6.59375 29.984375 6.59375 
Q 38.421875 6.59375 43.015625 9.90625 
Q 47.609375 13.234375 47.609375 19.390625 
Q 47.609375 24.75 44.3125 27.78125 
Q 41.015625 30.8125 33.5 32.328125 
L 27.484375 33.5 
Q 16.453125 35.6875 11.515625 40.375 
Q 6.59375 45.0625 6.59375 53.421875 
Q 6.59375 63.09375 13.40625 68.65625 
Q 20.21875 74.21875 32.171875 74.21875 
Q 37.3125 74.21875 42.625 73.28125 
Q 47.953125 72.359375 53.515625 70.515625 
z
" id="DejaVuSans-83"/>
       <path d="M 59.515625 10.40625 
L 59.515625 29.984375 
L 43.40625 29.984375 
L 43.40625 38.09375 
L 69.28125 38.09375 
L 69.28125 6.78125 
Q 63.578125 2.734375 56.6875 0.65625 
Q 49.8125 -1.421875 42 -1.421875 
Q 24.90625 -1.421875 15.25 8.5625 
Q 5.609375 18.5625 5.609375 36.375 
Q 5.609375 54.25 15.25 64.234375 
Q 24.90625 74.21875 42 74.21875 
Q 49.125 74.21875 55.546875 72.453125 
Q 61.96875 70.703125 67.390625 67.28125 
L 67.390625 56.78125 
Q 61.921875 61.421875 55.765625 63.765625 
Q 49.609375 66.109375 42.828125 66.109375 
Q 29.4375 66.109375 22.71875 58.640625 
Q 16.015625 51.171875 16.015625 36.375 
Q 16.015625 21.625 22.71875 14.15625 
Q 29.4375 6.6875 42.828125 6.6875 
Q 48.046875 6.6875 52.140625 7.59375 
Q 56.25 8.5 59.515625 10.40625 
z
" id="DejaVuSans-71"/>
       <path d="M 19.671875 64.796875 
L 19.671875 8.109375 
L 31.59375 8.109375 
Q 46.6875 8.109375 53.6875 14.9375 
Q 60.6875 21.78125 60.6875 36.53125 
Q 60.6875 51.171875 53.6875 57.984375 
Q 46.6875 64.796875 31.59375 64.796875 
z
M 9.8125 72.90625 
L 30.078125 72.90625 
Q 51.265625 72.90625 61.171875 64.09375 
Q 71.09375 55.28125 71.09375 36.53125 
Q 71.09375 17.671875 61.125 8.828125 
Q 51.171875 0 30.078125 0 
L 9.8125 0 
z
" id="DejaVuSans-68"/>
      </defs>
      <use xlink:href="#DejaVuSans-65"/>
      <use x="68.408203" xlink:href="#DejaVuSans-108"/>
      <use x="96.191406" xlink:href="#DejaVuSans-108"/>
      <use x="123.974609" xlink:href="#DejaVuSans-82"/>
      <use x="188.957031" xlink:href="#DejaVuSans-101"/>
      <use x="250.480469" xlink:href="#DejaVuSans-100"/>
      <use x="313.957031" xlink:href="#DejaVuSans-117"/>
      <use x="377.335938" xlink:href="#DejaVuSans-99"/>
      <use x="432.316406" xlink:href="#DejaVuSans-101"/>
      <use x="493.839844" xlink:href="#DejaVuSans-32"/>
      <use x="525.626953" xlink:href="#DejaVuSans-83"/>
      <use x="589.103516" xlink:href="#DejaVuSans-71"/>
      <use x="666.59375" xlink:href="#DejaVuSans-68"/>
     </g>
    </g>
    <g id="line2d_22">
     <path d="M 293.78125 245.025937 
L 313.78125 245.025937 
" style="fill:none;stroke:#ff7f0e;stroke-linecap:square;stroke-width:1.5;"/>
    </g>
    <g id="line2d_23"/>
    <g id="text_18">
     <!-- QSGD-MN-TS (8,12) bits -->
     <g transform="translate(321.78125 248.525937)scale(0.1 -0.1)">
      <defs>
       <path d="M 39.40625 66.21875 
Q 28.65625 66.21875 22.328125 58.203125 
Q 16.015625 50.203125 16.015625 36.375 
Q 16.015625 22.609375 22.328125 14.59375 
Q 28.65625 6.59375 39.40625 6.59375 
Q 50.140625 6.59375 56.421875 14.59375 
Q 62.703125 22.609375 62.703125 36.375 
Q 62.703125 50.203125 56.421875 58.203125 
Q 50.140625 66.21875 39.40625 66.21875 
z
M 53.21875 1.3125 
L 66.21875 -12.890625 
L 54.296875 -12.890625 
L 43.5 -1.21875 
Q 41.890625 -1.3125 41.03125 -1.359375 
Q 40.1875 -1.421875 39.40625 -1.421875 
Q 24.03125 -1.421875 14.8125 8.859375 
Q 5.609375 19.140625 5.609375 36.375 
Q 5.609375 53.65625 14.8125 63.9375 
Q 24.03125 74.21875 39.40625 74.21875 
Q 54.734375 74.21875 63.90625 63.9375 
Q 73.09375 53.65625 73.09375 36.375 
Q 73.09375 23.6875 67.984375 14.640625 
Q 62.890625 5.609375 53.21875 1.3125 
z
" id="DejaVuSans-81"/>
       <path d="M 4.890625 31.390625 
L 31.203125 31.390625 
L 31.203125 23.390625 
L 4.890625 23.390625 
z
" id="DejaVuSans-45"/>
       <path d="M 9.8125 72.90625 
L 24.515625 72.90625 
L 43.109375 23.296875 
L 61.8125 72.90625 
L 76.515625 72.90625 
L 76.515625 0 
L 66.890625 0 
L 66.890625 64.015625 
L 48.09375 14.015625 
L 38.1875 14.015625 
L 19.390625 64.015625 
L 19.390625 0 
L 9.8125 0 
z
" id="DejaVuSans-77"/>
       <path d="M 9.8125 72.90625 
L 23.09375 72.90625 
L 55.421875 11.921875 
L 55.421875 72.90625 
L 64.984375 72.90625 
L 64.984375 0 
L 51.703125 0 
L 19.390625 60.984375 
L 19.390625 0 
L 9.8125 0 
z
" id="DejaVuSans-78"/>
       <path d="M 11.71875 12.40625 
L 22.015625 12.40625 
L 22.015625 4 
L 14.015625 -11.625 
L 7.71875 -11.625 
L 11.71875 4 
z
" id="DejaVuSans-44"/>
       <path d="M 48.6875 27.296875 
Q 48.6875 37.203125 44.609375 42.84375 
Q 40.53125 48.484375 33.40625 48.484375 
Q 26.265625 48.484375 22.1875 42.84375 
Q 18.109375 37.203125 18.109375 27.296875 
Q 18.109375 17.390625 22.1875 11.75 
Q 26.265625 6.109375 33.40625 6.109375 
Q 40.53125 6.109375 44.609375 11.75 
Q 48.6875 17.390625 48.6875 27.296875 
z
M 18.109375 46.390625 
Q 20.953125 51.265625 25.265625 53.625 
Q 29.59375 56 35.59375 56 
Q 45.5625 56 51.78125 48.09375 
Q 58.015625 40.1875 58.015625 27.296875 
Q 58.015625 14.40625 51.78125 6.484375 
Q 45.5625 -1.421875 35.59375 -1.421875 
Q 29.59375 -1.421875 25.265625 0.953125 
Q 20.953125 3.328125 18.109375 8.203125 
L 18.109375 0 
L 9.078125 0 
L 9.078125 75.984375 
L 18.109375 75.984375 
z
" id="DejaVuSans-98"/>
       <path d="M 9.421875 54.6875 
L 18.40625 54.6875 
L 18.40625 0 
L 9.421875 0 
z
M 9.421875 75.984375 
L 18.40625 75.984375 
L 18.40625 64.59375 
L 9.421875 64.59375 
z
" id="DejaVuSans-105"/>
      </defs>
      <use xlink:href="#DejaVuSans-81"/>
      <use x="78.710938" xlink:href="#DejaVuSans-83"/>
      <use x="142.1875" xlink:href="#DejaVuSans-71"/>
      <use x="219.677734" xlink:href="#DejaVuSans-68"/>
      <use x="296.679688" xlink:href="#DejaVuSans-45"/>
      <use x="332.763672" xlink:href="#DejaVuSans-77"/>
      <use x="419.042969" xlink:href="#DejaVuSans-78"/>
      <use x="493.847656" xlink:href="#DejaVuSans-45"/>
      <use x="520.806641" xlink:href="#DejaVuSans-84"/>
      <use x="581.890625" xlink:href="#DejaVuSans-83"/>
      <use x="645.367188" xlink:href="#DejaVuSans-32"/>
      <use x="677.154297" xlink:href="#DejaVuSans-40"/>
      <use x="716.167969" xlink:href="#DejaVuSans-56"/>
      <use x="779.791016" xlink:href="#DejaVuSans-44"/>
      <use x="811.578125" xlink:href="#DejaVuSans-49"/>
      <use x="875.201172" xlink:href="#DejaVuSans-50"/>
      <use x="938.824219" xlink:href="#DejaVuSans-41"/>
      <use x="977.837891" xlink:href="#DejaVuSans-32"/>
      <use x="1009.625" xlink:href="#DejaVuSans-98"/>
      <use x="1073.101562" xlink:href="#DejaVuSans-105"/>
      <use x="1100.884766" xlink:href="#DejaVuSans-116"/>
      <use x="1140.09375" xlink:href="#DejaVuSans-115"/>
     </g>
    </g>
    <g id="line2d_24">
     <path d="M 293.78125 259.704062 
L 313.78125 259.704062 
" style="fill:none;stroke:#2ca02c;stroke-linecap:square;stroke-width:1.5;"/>
    </g>
    <g id="line2d_25"/>
    <g id="text_19">
     <!-- QSGD-MN-TS (6,10) bits -->
     <g transform="translate(321.78125 263.204062)scale(0.1 -0.1)">
      <use xlink:href="#DejaVuSans-81"/>
      <use x="78.710938" xlink:href="#DejaVuSans-83"/>
      <use x="142.1875" xlink:href="#DejaVuSans-71"/>
      <use x="219.677734" xlink:href="#DejaVuSans-68"/>
      <use x="296.679688" xlink:href="#DejaVuSans-45"/>
      <use x="332.763672" xlink:href="#DejaVuSans-77"/>
      <use x="419.042969" xlink:href="#DejaVuSans-78"/>
      <use x="493.847656" xlink:href="#DejaVuSans-45"/>
      <use x="520.806641" xlink:href="#DejaVuSans-84"/>
      <use x="581.890625" xlink:href="#DejaVuSans-83"/>
      <use x="645.367188" xlink:href="#DejaVuSans-32"/>
      <use x="677.154297" xlink:href="#DejaVuSans-40"/>
      <use x="716.167969" xlink:href="#DejaVuSans-54"/>
      <use x="779.791016" xlink:href="#DejaVuSans-44"/>
      <use x="811.578125" xlink:href="#DejaVuSans-49"/>
      <use x="875.201172" xlink:href="#DejaVuSans-48"/>
      <use x="938.824219" xlink:href="#DejaVuSans-41"/>
      <use x="977.837891" xlink:href="#DejaVuSans-32"/>
      <use x="1009.625" xlink:href="#DejaVuSans-98"/>
      <use x="1073.101562" xlink:href="#DejaVuSans-105"/>
      <use x="1100.884766" xlink:href="#DejaVuSans-116"/>
      <use x="1140.09375" xlink:href="#DejaVuSans-115"/>
     </g>
    </g>
    <g id="line2d_26">
     <path d="M 293.78125 274.382187 
L 313.78125 274.382187 
" style="fill:none;stroke:#d62728;stroke-linecap:square;stroke-width:1.5;"/>
    </g>
    <g id="line2d_27"/>
    <g id="text_20">
     <!-- QSGD-MN-TS (4,8) bits -->
     <g transform="translate(321.78125 277.882187)scale(0.1 -0.1)">
      <use xlink:href="#DejaVuSans-81"/>
      <use x="78.710938" xlink:href="#DejaVuSans-83"/>
      <use x="142.1875" xlink:href="#DejaVuSans-71"/>
      <use x="219.677734" xlink:href="#DejaVuSans-68"/>
      <use x="296.679688" xlink:href="#DejaVuSans-45"/>
      <use x="332.763672" xlink:href="#DejaVuSans-77"/>
      <use x="419.042969" xlink:href="#DejaVuSans-78"/>
      <use x="493.847656" xlink:href="#DejaVuSans-45"/>
      <use x="520.806641" xlink:href="#DejaVuSans-84"/>
      <use x="581.890625" xlink:href="#DejaVuSans-83"/>
      <use x="645.367188" xlink:href="#DejaVuSans-32"/>
      <use x="677.154297" xlink:href="#DejaVuSans-40"/>
      <use x="716.167969" xlink:href="#DejaVuSans-52"/>
      <use x="779.791016" xlink:href="#DejaVuSans-44"/>
      <use x="811.578125" xlink:href="#DejaVuSans-56"/>
      <use x="875.201172" xlink:href="#DejaVuSans-41"/>
      <use x="914.214844" xlink:href="#DejaVuSans-32"/>
      <use x="946.001953" xlink:href="#DejaVuSans-98"/>
      <use x="1009.478516" xlink:href="#DejaVuSans-105"/>
      <use x="1037.261719" xlink:href="#DejaVuSans-116"/>
      <use x="1076.470703" xlink:href="#DejaVuSans-115"/>
     </g>
    </g>
    <g id="line2d_28">
     <path d="M 293.78125 289.060312 
L 313.78125 289.060312 
" style="fill:none;stroke:#9467bd;stroke-linecap:square;stroke-width:1.5;"/>
    </g>
    <g id="line2d_29"/>
    <g id="text_21">
     <!-- QSGD-MN-TS (2,6) bits -->
     <g transform="translate(321.78125 292.560312)scale(0.1 -0.1)">
      <use xlink:href="#DejaVuSans-81"/>
      <use x="78.710938" xlink:href="#DejaVuSans-83"/>
      <use x="142.1875" xlink:href="#DejaVuSans-71"/>
      <use x="219.677734" xlink:href="#DejaVuSans-68"/>
      <use x="296.679688" xlink:href="#DejaVuSans-45"/>
      <use x="332.763672" xlink:href="#DejaVuSans-77"/>
      <use x="419.042969" xlink:href="#DejaVuSans-78"/>
      <use x="493.847656" xlink:href="#DejaVuSans-45"/>
      <use x="520.806641" xlink:href="#DejaVuSans-84"/>
      <use x="581.890625" xlink:href="#DejaVuSans-83"/>
      <use x="645.367188" xlink:href="#DejaVuSans-32"/>
      <use x="677.154297" xlink:href="#DejaVuSans-40"/>
      <use x="716.167969" xlink:href="#DejaVuSans-50"/>
      <use x="779.791016" xlink:href="#DejaVuSans-44"/>
      <use x="811.578125" xlink:href="#DejaVuSans-54"/>
      <use x="875.201172" xlink:href="#DejaVuSans-41"/>
      <use x="914.214844" xlink:href="#DejaVuSans-32"/>
      <use x="946.001953" xlink:href="#DejaVuSans-98"/>
      <use x="1009.478516" xlink:href="#DejaVuSans-105"/>
      <use x="1037.261719" xlink:href="#DejaVuSans-116"/>
      <use x="1076.470703" xlink:href="#DejaVuSans-115"/>
     </g>
    </g>
   </g>
  </g>
 </g>
 <defs>
  <clipPath id="p4c02cb4495">
   <rect height="292.84" width="399.13" x="50.87" y="10.8"/>
  </clipPath>
 </defs>
</svg>
