<?xml version="1.0" encoding="utf-8" standalone="no"?>
<!DOCTYPE svg PUBLIC "-//W3C//DTD SVG 1.1//EN"
  "http://www.w3.org/Graphics/SVG/1.1/DTD/svg11.dtd">
<!-- Created with matplotlib (https://matplotlib.org/) -->
<svg height="345.6pt" version="1.1" viewBox="0 0 460.8 345.6" width="460.8pt" xmlns="http://www.w3.org/2000/svg" xmlns:xlink="http://www.w3.org/1999/xlink">
 <metadata>
  <rdf:RDF xmlns:cc="http://creativecommons.org/ns#" xmlns:dc="http://purl.org/dc/elements/1.1/" xmlns:rdf="http://www.w3.org/1999/02/22-rdf-syntax-ns#">
   <cc:Work>
    <dc:type rdf:resource="http://purl.org/dc/dcmitype/StillImage"/>
    <dc:date>2021-06-10T08:57:49.094123</dc:date>
    <dc:format>image/svg+xml</dc:format>
    <dc:creator>
     <cc:Agent>
      <dc:title>Matplotlib v3.3.1, https://matplotlib.org/</dc:title>
     </cc:Agent>
    </dc:creator>
   </cc:Work>
  </rdf:RDF>
 </metadata>
 <defs>
  <style type="text/css">*{stroke-linecap:butt;stroke-linejoin:round;}</style>
 </defs>
 <g id="figure_1">
  <g id="patch_1">
   <path d="M 0 345.6 
L 460.8 345.6 
L 460.8 0 
L 0 0 
z
" style="fill:#ffffff;"/>
  </g>
  <g id="axes_1">
   <g id="patch_2">
    <path d="M 50.87 303.64 
L 450 303.64 
L 450 10.8 
L 50.87 10.8 
z
" style="fill:#ffffff;"/>
   </g>
   <g id="PolyCollection_1">
    <path clip-path="url(#p55cea1a510)" d="M 69.012273 173.906656 
L 69.012273 287.24695 
L 71.447477 199.150465 
L 73.882682 127.705916 
L 76.317886 102.702836 
L 78.75309 89.741803 
L 81.188295 73.510461 
L 83.623499 72.13528 
L 86.058703 63.96221 
L 88.493908 54.633568 
L 90.929112 53.747735 
L 93.364317 43.944803 
L 95.799521 48.370694 
L 98.234725 44.422152 
L 100.66993 37.48584 
L 103.105134 41.250222 
L 105.540339 36.063094 
L 107.975543 34.98499 
L 110.410747 38.282699 
L 112.845952 35.268194 
L 115.281156 36.14211 
L 117.716361 34.552456 
L 120.151565 36.223066 
L 122.586769 32.38543 
L 125.021974 32.306813 
L 127.457178 31.437148 
L 129.892383 34.803565 
L 132.327587 31.440811 
L 134.762791 30.611777 
L 137.197996 29.931292 
L 139.6332 29.933808 
L 142.068405 30.783461 
L 144.503609 30.591673 
L 146.938813 30.523473 
L 149.374018 29.729704 
L 151.809222 30.845336 
L 154.244426 31.916735 
L 156.679631 30.407619 
L 159.114835 28.404026 
L 161.55004 30.859802 
L 163.985244 30.119012 
L 166.420448 30.393457 
L 168.855653 29.469153 
L 171.290857 28.879016 
L 173.726062 28.477438 
L 176.161266 30.20727 
L 178.59647 28.44831 
L 181.031675 27.917197 
L 183.466879 29.578679 
L 185.902084 27.529372 
L 188.337288 30.848406 
L 190.772492 28.759103 
L 193.207697 28.51431 
L 195.642901 29.578679 
L 198.078106 30.881326 
L 200.51331 25.699502 
L 202.948514 28.995773 
L 205.383719 27.966961 
L 207.818923 26.942062 
L 210.254128 27.637145 
L 212.689332 27.083116 
L 215.124536 28.016967 
L 217.559741 26.314442 
L 219.994945 29.084791 
L 222.430149 27.083116 
L 224.865354 30.167393 
L 227.300558 28.477438 
L 229.735763 26.708228 
L 232.170967 26.685837 
L 234.606171 28.215302 
L 237.041376 28.334101 
L 239.47658 28.880346 
L 241.911785 28.404161 
L 244.346989 28.015344 
L 246.782193 27.897902 
L 249.217398 26.942062 
L 251.652602 28.782711 
L 254.087807 27.972763 
L 256.523011 28.911367 
L 258.958215 30.63295 
L 261.39342 27.825935 
L 263.828624 27.011164 
L 266.263829 27.398089 
L 268.699033 27.743182 
L 271.134237 28.016967 
L 273.569442 28.860964 
L 276.004646 28.581664 
L 278.439851 27.563648 
L 280.875055 27.339341 
L 283.310259 28.596414 
L 285.745464 26.708228 
L 288.180668 27.637145 
L 290.615872 28.223699 
L 293.051077 27.795412 
L 295.486281 27.917197 
L 297.921486 25.699502 
L 300.35669 27.650223 
L 302.791894 25.61487 
L 305.227099 26.601204 
L 307.662303 25.238298 
L 310.097508 25.61487 
L 312.532712 25.545768 
L 314.967916 25.699502 
L 317.403121 26.708228 
L 319.838325 26.308502 
L 322.27353 25.461135 
L 324.708734 24.777093 
L 327.143938 26.14126 
L 329.579143 25.699502 
L 332.014347 26.673156 
L 334.449552 26.006972 
L 336.884756 26.673156 
L 339.31996 25.699502 
L 341.755165 27.045761 
L 344.190369 26.14126 
L 346.625574 27.297287 
L 349.060778 26.14126 
L 351.495982 26.673156 
L 353.931187 25.461135 
L 356.366391 26.006972 
L 358.801595 26.14126 
L 361.2368 25.461135 
L 363.672004 25.461135 
L 366.107209 25.461135 
L 368.542413 24.777093 
L 370.977617 25.461135 
L 373.412822 25.238298 
L 375.848026 25.238298 
L 378.283231 25.238298 
L 380.718435 24.777093 
L 383.153639 26.006972 
L 385.588844 24.777093 
L 388.024048 24.777093 
L 390.459253 25.238298 
L 392.894457 24.777093 
L 395.329661 25.461135 
L 397.764866 25.238298 
L 400.20007 25.238298 
L 402.635275 25.238298 
L 405.070479 25.238298 
L 407.505683 25.238298 
L 409.940888 25.238298 
L 412.376092 25.238298 
L 414.811297 25.238298 
L 417.246501 25.238298 
L 419.681705 25.238298 
L 422.11691 25.238298 
L 424.552114 25.238298 
L 426.987318 25.238298 
L 429.422523 25.238298 
L 431.857727 25.238298 
L 431.857727 24.623359 
L 431.857727 24.623359 
L 429.422523 24.623359 
L 426.987318 24.623359 
L 424.552114 24.623359 
L 422.11691 24.623359 
L 419.681705 24.623359 
L 417.246501 24.623359 
L 414.811297 24.623359 
L 412.376092 24.623359 
L 409.940888 24.623359 
L 407.505683 24.623359 
L 405.070479 24.623359 
L 402.635275 24.623359 
L 400.20007 24.623359 
L 397.764866 24.623359 
L 395.329661 24.707991 
L 392.894457 24.777093 
L 390.459253 24.623359 
L 388.024048 24.777093 
L 385.588844 24.777093 
L 383.153639 24.367134 
L 380.718435 24.777093 
L 378.283231 24.623359 
L 375.848026 24.623359 
L 373.412822 24.623359 
L 370.977617 24.707991 
L 368.542413 24.777093 
L 366.107209 24.707991 
L 363.672004 24.707991 
L 361.2368 24.707991 
L 358.801595 24.540316 
L 356.366391 24.367134 
L 353.931187 24.707991 
L 351.495982 24.828338 
L 349.060778 24.540316 
L 346.625574 24.716657 
L 344.190369 24.540316 
L 341.755165 24.763203 
L 339.31996 25.084563 
L 336.884756 24.828338 
L 334.449552 24.367134 
L 332.014347 24.828338 
L 329.579143 25.084563 
L 327.143938 24.540316 
L 324.708734 24.777093 
L 322.27353 24.707991 
L 319.838325 24.988013 
L 317.403121 25.100737 
L 314.967916 25.084563 
L 312.532712 25.545768 
L 310.097508 24.861726 
L 307.662303 24.623359 
L 305.227099 24.592821 
L 302.791894 24.861726 
L 300.35669 24.568701 
L 297.921486 25.084563 
L 295.486281 25.121646 
L 293.051077 24.730982 
L 290.615872 25.225104 
L 288.180668 26.016638 
L 285.745464 25.100737 
L 283.310259 25.672308 
L 280.875055 25.289543 
L 278.439851 24.962746 
L 276.004646 24.55967 
L 273.569442 25.202778 
L 271.134237 25.021876 
L 268.699033 25.603131 
L 266.263829 25.640754 
L 263.828624 25.00278 
L 261.39342 25.007929 
L 258.958215 26.095529 
L 256.523011 26.074784 
L 254.087807 25.681019 
L 251.652602 26.30593 
L 249.217398 25.686822 
L 246.782193 24.833471 
L 244.346989 25.330969 
L 241.911785 25.864561 
L 239.47658 25.285886 
L 237.041376 24.704743 
L 234.606171 24.926031 
L 232.170967 25.430597 
L 229.735763 25.100737 
L 227.300558 25.278834 
L 224.865354 26.868556 
L 222.430149 26.058217 
L 219.994945 24.876461 
L 217.559741 25.289543 
L 215.124536 25.021876 
L 212.689332 26.058217 
L 210.254128 26.016638 
L 207.818923 25.686822 
L 205.383719 26.711721 
L 202.948514 26.605318 
L 200.51331 25.084563 
L 198.078106 28.716871 
L 195.642901 26.022412 
L 193.207697 25.651923 
L 190.772492 25.817089 
L 188.337288 25.982564 
L 185.902084 25.611961 
L 183.466879 26.022412 
L 181.031675 25.121646 
L 178.59647 25.615433 
L 176.161266 25.803781 
L 173.726062 25.278834 
L 171.290857 26.619585 
L 168.855653 26.336917 
L 166.420448 25.310124 
L 163.985244 26.097018 
L 161.55004 27.303536 
L 159.114835 26.582126 
L 156.679631 27.140779 
L 154.244426 29.52628 
L 151.809222 29.47029 
L 149.374018 26.998776 
L 146.938813 29.382194 
L 144.503609 27.161705 
L 142.068405 27.584857 
L 139.6332 28.43451 
L 137.197996 27.514616 
L 134.762791 26.629151 
L 132.327587 27.234977 
L 129.892383 30.329086 
L 127.457178 27.033659 
L 125.021974 28.316282 
L 122.586769 28.545135 
L 120.151565 27.474726 
L 117.716361 28.222927 
L 115.281156 29.91295 
L 112.845952 32.119235 
L 110.410747 30.334609 
L 107.975543 28.507823 
L 105.540339 30.196946 
L 103.105134 33.516479 
L 100.66993 34.206164 
L 98.234725 38.64623 
L 95.799521 37.054956 
L 93.364317 37.688721 
L 90.929112 44.899111 
L 88.493908 39.708703 
L 86.058703 48.315792 
L 83.623499 49.059344 
L 81.188295 59.88046 
L 78.75309 73.678657 
L 76.317886 89.312305 
L 73.882682 105.920122 
L 71.447477 135.42812 
L 69.012273 173.906656 
z
" style="fill:#1f77b4;fill-opacity:0.25;"/>
   </g>
   <g id="PolyCollection_2">
    <path clip-path="url(#p55cea1a510)" d="M 69.012273 275.825413 
L 69.012273 290.329091 
L 71.447477 279.806179 
L 73.882682 231.488409 
L 76.317886 225.814085 
L 78.75309 189.885228 
L 81.188295 108.95988 
L 83.623499 93.077528 
L 86.058703 92.283741 
L 88.493908 73.537218 
L 90.929112 61.548459 
L 93.364317 53.061586 
L 95.799521 43.015162 
L 98.234725 43.860171 
L 100.66993 43.200307 
L 103.105134 38.852596 
L 105.540339 38.491238 
L 107.975543 33.303777 
L 110.410747 34.175449 
L 112.845952 33.671872 
L 115.281156 32.70886 
L 117.716361 31.207968 
L 120.151565 33.576953 
L 122.586769 34.788986 
L 125.021974 29.132914 
L 127.457178 30.783461 
L 129.892383 32.380415 
L 132.327587 29.683102 
L 134.762791 29.752651 
L 137.197996 30.570497 
L 139.6332 30.11168 
L 142.068405 31.574291 
L 144.503609 30.710183 
L 146.938813 28.843631 
L 149.374018 29.755373 
L 151.809222 30.873164 
L 154.244426 33.350962 
L 156.679631 28.51431 
L 159.114835 28.522102 
L 161.55004 29.403634 
L 163.985244 27.867537 
L 166.420448 31.994775 
L 168.855653 28.842966 
L 171.290857 29.884411 
L 173.726062 29.558182 
L 176.161266 31.006502 
L 178.59647 31.612253 
L 181.031675 28.5494 
L 183.466879 28.842966 
L 185.902084 29.205265 
L 188.337288 28.015344 
L 190.772492 27.236851 
L 193.207697 31.215588 
L 195.642901 27.339341 
L 198.078106 29.340221 
L 200.51331 27.853391 
L 202.948514 28.041821 
L 205.383719 28.477438 
L 207.818923 26.308502 
L 210.254128 27.743182 
L 212.689332 28.015344 
L 215.124536 26.244172 
L 217.559741 26.708228 
L 219.994945 27.912226 
L 222.430149 29.37768 
L 224.865354 28.515838 
L 227.300558 27.335994 
L 229.735763 28.101817 
L 232.170967 28.880346 
L 234.606171 25.461135 
L 237.041376 26.685837 
L 239.47658 29.159765 
L 241.911785 27.445485 
L 244.346989 28.041821 
L 246.782193 27.788446 
L 249.217398 26.895918 
L 251.652602 29.75341 
L 254.087807 27.867537 
L 256.523011 27.045761 
L 258.958215 29.262449 
L 261.39342 27.529372 
L 263.828624 28.15926 
L 266.263829 26.978489 
L 268.699033 28.041821 
L 271.134237 27.581089 
L 273.569442 29.139541 
L 276.004646 29.751136 
L 278.439851 27.297287 
L 280.875055 27.714649 
L 283.310259 27.637145 
L 285.745464 27.398089 
L 288.180668 26.942062 
L 290.615872 26.775646 
L 293.051077 27.529372 
L 295.486281 27.083116 
L 297.921486 27.698055 
L 300.35669 27.529372 
L 302.791894 26.601204 
L 305.227099 27.917197 
L 307.662303 26.244172 
L 310.097508 26.708228 
L 312.532712 25.699502 
L 314.967916 27.650223 
L 317.403121 28.285834 
L 319.838325 25.461135 
L 322.27353 26.244172 
L 324.708734 25.461135 
L 327.143938 25.61487 
L 329.579143 26.244172 
L 332.014347 27.011164 
L 334.449552 27.201352 
L 336.884756 26.14126 
L 339.31996 25.238298 
L 341.755165 26.708228 
L 344.190369 26.244172 
L 346.625574 25.61487 
L 349.060778 26.314442 
L 351.495982 26.887327 
L 353.931187 25.238298 
L 356.366391 26.006972 
L 358.801595 26.887327 
L 361.2368 25.238298 
L 363.672004 25.461135 
L 366.107209 25.61487 
L 368.542413 26.887327 
L 370.977617 25.61487 
L 373.412822 25.238298 
L 375.848026 25.61487 
L 378.283231 25.61487 
L 380.718435 26.14126 
L 383.153639 25.61487 
L 385.588844 25.238298 
L 388.024048 25.238298 
L 390.459253 26.006972 
L 392.894457 26.14126 
L 395.329661 26.006972 
L 397.764866 26.006972 
L 400.20007 26.006972 
L 402.635275 26.006972 
L 405.070479 26.006972 
L 407.505683 25.238298 
L 409.940888 25.238298 
L 412.376092 25.238298 
L 414.811297 25.238298 
L 417.246501 25.238298 
L 419.681705 25.238298 
L 422.11691 26.006972 
L 424.552114 25.238298 
L 426.987318 25.238298 
L 429.422523 26.006972 
L 431.857727 25.238298 
L 431.857727 24.623359 
L 431.857727 24.623359 
L 429.422523 24.367134 
L 426.987318 24.623359 
L 424.552114 24.623359 
L 422.11691 24.367134 
L 419.681705 24.623359 
L 417.246501 24.623359 
L 414.811297 24.623359 
L 412.376092 24.623359 
L 409.940888 24.623359 
L 407.505683 24.623359 
L 405.070479 24.367134 
L 402.635275 24.367134 
L 400.20007 24.367134 
L 397.764866 24.367134 
L 395.329661 24.367134 
L 392.894457 24.540316 
L 390.459253 24.367134 
L 388.024048 24.623359 
L 385.588844 24.623359 
L 383.153639 24.861726 
L 380.718435 24.540316 
L 378.283231 24.861726 
L 375.848026 24.861726 
L 373.412822 24.623359 
L 370.977617 24.861726 
L 368.542413 24.306698 
L 366.107209 24.861726 
L 363.672004 24.707991 
L 361.2368 24.623359 
L 358.801595 24.306698 
L 356.366391 24.367134 
L 353.931187 24.623359 
L 351.495982 24.306698 
L 349.060778 25.289543 
L 346.625574 24.861726 
L 344.190369 24.744874 
L 341.755165 25.100737 
L 339.31996 24.623359 
L 336.884756 24.540316 
L 334.449552 25.017572 
L 332.014347 25.00278 
L 329.579143 24.744874 
L 327.143938 24.861726 
L 324.708734 24.707991 
L 322.27353 24.744874 
L 319.838325 24.707991 
L 317.403121 24.445539 
L 314.967916 24.568701 
L 312.532712 25.084563 
L 310.097508 25.100737 
L 307.662303 24.744874 
L 305.227099 25.121646 
L 302.791894 24.592821 
L 300.35669 25.611961 
L 297.921486 24.828338 
L 295.486281 26.058217 
L 293.051077 25.611961 
L 290.615872 24.110909 
L 288.180668 25.686822 
L 285.745464 25.640754 
L 283.310259 26.016638 
L 280.875055 25.324194 
L 278.439851 24.716657 
L 276.004646 25.747465 
L 273.569442 26.35906 
L 271.134237 24.330365 
L 268.699033 26.124411 
L 266.263829 24.523006 
L 263.828624 24.674604 
L 261.39342 25.611961 
L 258.958215 26.031172 
L 256.523011 24.763203 
L 254.087807 25.683756 
L 251.652602 27.385029 
L 249.217398 24.810557 
L 246.782193 24.327989 
L 244.346989 26.124411 
L 241.911785 25.285889 
L 239.47658 25.416427 
L 237.041376 25.430597 
L 234.606171 24.707991 
L 232.170967 25.285886 
L 229.735763 25.142006 
L 227.300558 24.98542 
L 224.865354 26.060354 
L 222.430149 27.55578 
L 219.994945 25.331597 
L 217.559741 25.100737 
L 215.124536 24.744874 
L 212.689332 25.330969 
L 210.254128 25.603131 
L 207.818923 24.988013 
L 205.383719 25.278834 
L 202.948514 26.124411 
L 200.51331 24.570513 
L 198.078106 27.080789 
L 195.642901 25.289543 
L 193.207697 26.230321 
L 190.772492 25.597013 
L 188.337288 25.330969 
L 185.902084 25.575907 
L 183.466879 25.528246 
L 181.031675 26.84671 
L 178.59647 25.423696 
L 176.161266 27.874266 
L 173.726062 25.940419 
L 171.290857 26.844069 
L 168.855653 25.528246 
L 166.420448 26.988482 
L 163.985244 25.683756 
L 161.55004 27.939785 
L 159.114835 25.336661 
L 156.679631 25.651923 
L 154.244426 28.399522 
L 151.809222 27.085195 
L 149.374018 26.255677 
L 146.938813 25.937541 
L 144.503609 28.170584 
L 142.068405 27.306476 
L 139.6332 28.051658 
L 137.197996 25.748023 
L 134.762791 26.463379 
L 132.327587 27.557827 
L 129.892383 29.882519 
L 127.457178 27.584857 
L 125.021974 29.132914 
L 122.586769 30.651135 
L 120.151565 28.071042 
L 117.716361 29.415127 
L 115.281156 28.734155 
L 112.845952 28.283593 
L 110.410747 30.957201 
L 107.975543 31.316424 
L 105.540339 32.585827 
L 103.105134 32.326959 
L 100.66993 36.17844 
L 98.234725 37.260904 
L 95.799521 39.950731 
L 93.364317 39.538356 
L 90.929112 48.269786 
L 88.493908 46.427527 
L 86.058703 52.996008 
L 83.623499 54.047039 
L 81.188295 66.041938 
L 78.75309 63.111401 
L 76.317886 63.925172 
L 73.882682 102.116522 
L 71.447477 156.186158 
L 69.012273 275.825413 
z
" style="fill:#ff7f0e;fill-opacity:0.25;"/>
   </g>
   <g id="PolyCollection_3">
    <path clip-path="url(#p55cea1a510)" d="M 69.012273 133.727945 
L 69.012273 239.591821 
L 71.447477 236.128026 
L 73.882682 221.523784 
L 76.317886 227.094239 
L 78.75309 123.337744 
L 81.188295 106.445071 
L 83.623499 97.491431 
L 86.058703 82.429704 
L 88.493908 70.159449 
L 90.929112 65.101486 
L 93.364317 60.087049 
L 95.799521 55.929712 
L 98.234725 50.090854 
L 100.66993 51.597998 
L 103.105134 46.578916 
L 105.540339 41.837998 
L 107.975543 42.701423 
L 110.410747 42.244496 
L 112.845952 39.170173 
L 115.281156 37.394144 
L 117.716361 37.115984 
L 120.151565 41.297446 
L 122.586769 38.826942 
L 125.021974 34.143719 
L 127.457178 33.860488 
L 129.892383 37.478061 
L 132.327587 35.602951 
L 134.762791 31.111609 
L 137.197996 34.323667 
L 139.6332 33.506069 
L 142.068405 31.365985 
L 144.503609 33.160558 
L 146.938813 31.497685 
L 149.374018 32.344576 
L 151.809222 33.531767 
L 154.244426 36.727636 
L 156.679631 28.615931 
L 159.114835 29.387002 
L 161.55004 31.383805 
L 163.985244 29.558182 
L 166.420448 32.044696 
L 168.855653 30.215777 
L 171.290857 29.949486 
L 173.726062 29.556386 
L 176.161266 31.521092 
L 178.59647 28.215302 
L 181.031675 29.970236 
L 183.466879 30.705015 
L 185.902084 29.600745 
L 188.337288 30.326856 
L 190.772492 28.210505 
L 193.207697 29.090791 
L 195.642901 29.126496 
L 198.078106 29.868125 
L 200.51331 27.398089 
L 202.948514 30.197599 
L 205.383719 29.102775 
L 207.818923 29.939668 
L 210.254128 27.972763 
L 212.689332 26.978489 
L 215.124536 28.911367 
L 217.559741 27.569658 
L 219.994945 28.193674 
L 222.430149 28.983976 
L 224.865354 28.480856 
L 227.300558 27.012052 
L 229.735763 28.596414 
L 232.170967 30.359666 
L 234.606171 28.737962 
L 237.041376 27.335994 
L 239.47658 30.39622 
L 241.911785 26.685837 
L 244.346989 28.474249 
L 246.782193 28.361909 
L 249.217398 28.361909 
L 251.652602 28.596414 
L 254.087807 27.012052 
L 256.523011 26.314442 
L 258.958215 26.942062 
L 261.39342 27.563648 
L 263.828624 26.708228 
L 266.263829 28.879016 
L 268.699033 27.825906 
L 271.134237 26.14126 
L 273.569442 28.44831 
L 276.004646 27.236851 
L 278.439851 30.742613 
L 280.875055 27.825906 
L 283.310259 27.297287 
L 285.745464 29.095108 
L 288.180668 27.445485 
L 290.615872 27.529372 
L 293.051077 26.244172 
L 295.486281 26.708228 
L 297.921486 25.238298 
L 300.35669 27.569658 
L 302.791894 27.867537 
L 305.227099 26.673156 
L 307.662303 27.581089 
L 310.097508 25.238298 
L 312.532712 27.012052 
L 314.967916 27.897902 
L 317.403121 27.012052 
L 319.838325 26.708228 
L 322.27353 26.942062 
L 324.708734 26.006972 
L 327.143938 25.461135 
L 329.579143 26.14126 
L 332.014347 28.224992 
L 334.449552 25.238298 
L 336.884756 25.461135 
L 339.31996 25.699502 
L 341.755165 26.673156 
L 344.190369 25.461135 
L 346.625574 26.244172 
L 349.060778 25.461135 
L 351.495982 25.461135 
L 353.931187 26.244172 
L 356.366391 26.14126 
L 358.801595 25.699502 
L 361.2368 26.244172 
L 363.672004 26.244172 
L 366.107209 26.887327 
L 368.542413 26.244172 
L 370.977617 27.56971 
L 373.412822 25.61487 
L 375.848026 25.61487 
L 378.283231 25.61487 
L 380.718435 26.736593 
L 383.153639 25.61487 
L 385.588844 26.708228 
L 388.024048 27.297287 
L 390.459253 27.098398 
L 392.894457 26.673156 
L 395.329661 27.164065 
L 397.764866 27.164065 
L 400.20007 27.098398 
L 402.635275 26.673156 
L 405.070479 26.601204 
L 407.505683 26.14126 
L 409.940888 26.006972 
L 412.376092 26.14126 
L 414.811297 26.006972 
L 417.246501 26.006972 
L 419.681705 26.006972 
L 422.11691 26.006972 
L 424.552114 26.14126 
L 426.987318 26.006972 
L 429.422523 26.006972 
L 431.857727 26.006972 
L 431.857727 24.367134 
L 431.857727 24.367134 
L 429.422523 24.367134 
L 426.987318 24.367134 
L 424.552114 24.540316 
L 422.11691 24.367134 
L 419.681705 24.367134 
L 417.246501 24.367134 
L 414.811297 24.367134 
L 412.376092 24.540316 
L 409.940888 24.367134 
L 407.505683 24.540316 
L 405.070479 24.592821 
L 402.635275 24.828338 
L 400.20007 24.505586 
L 397.764866 24.747389 
L 395.329661 24.747389 
L 392.894457 24.828338 
L 390.459253 24.505586 
L 388.024048 24.716657 
L 385.588844 25.100737 
L 383.153639 24.861726 
L 380.718435 24.354943 
L 378.283231 24.861726 
L 375.848026 24.861726 
L 373.412822 24.861726 
L 370.977617 24.751704 
L 368.542413 24.744874 
L 366.107209 24.306698 
L 363.672004 24.744874 
L 361.2368 24.744874 
L 358.801595 25.084563 
L 356.366391 24.540316 
L 353.931187 24.744874 
L 351.495982 24.707991 
L 349.060778 24.707991 
L 346.625574 24.744874 
L 344.190369 24.707991 
L 341.755165 24.828338 
L 339.31996 25.084563 
L 336.884756 24.707991 
L 334.449552 24.623359 
L 332.014347 24.403892 
L 329.579143 24.540316 
L 327.143938 24.707991 
L 324.708734 24.367134 
L 322.27353 25.686822 
L 319.838325 25.100737 
L 317.403121 25.309362 
L 314.967916 24.833471 
L 312.532712 25.309362 
L 310.097508 24.623359 
L 307.662303 24.330365 
L 305.227099 24.828338 
L 302.791894 25.683756 
L 300.35669 25.264205 
L 297.921486 24.623359 
L 295.486281 25.100737 
L 293.051077 24.744874 
L 290.615872 25.611961 
L 288.180668 25.285889 
L 285.745464 25.173614 
L 283.310259 24.716657 
L 280.875055 25.315427 
L 278.439851 27.113255 
L 276.004646 25.597013 
L 273.569442 25.615433 
L 271.134237 24.540316 
L 268.699033 25.315427 
L 266.263829 26.619585 
L 263.828624 25.100737 
L 261.39342 24.962746 
L 258.958215 25.686822 
L 256.523011 25.289543 
L 254.087807 25.309362 
L 251.652602 25.672308 
L 249.217398 24.984404 
L 246.782193 24.984404 
L 244.346989 24.974553 
L 241.911785 25.430597 
L 239.47658 26.43475 
L 237.041376 24.98542 
L 234.606171 25.223291 
L 232.170967 26.163834 
L 229.735763 25.672308 
L 227.300558 25.309362 
L 224.865354 26.607785 
L 222.430149 25.694705 
L 219.994945 25.870068 
L 217.559741 25.264205 
L 215.124536 26.074784 
L 212.689332 24.523006 
L 210.254128 25.681019 
L 207.818923 25.763912 
L 205.383719 25.473417 
L 202.948514 28.375699 
L 200.51331 25.640754 
L 198.078106 27.782764 
L 195.642901 25.859655 
L 193.207697 26.20283 
L 190.772492 26.365687 
L 188.337288 26.709093 
L 185.902084 26.820264 
L 183.466879 26.740894 
L 181.031675 25.425875 
L 178.59647 24.926031 
L 176.161266 27.667145 
L 173.726062 26.044705 
L 171.290857 27.598912 
L 168.855653 28.25503 
L 166.420448 29.193339 
L 163.985244 25.940419 
L 161.55004 28.009412 
L 159.114835 26.931518 
L 156.679631 26.88267 
L 154.244426 27.687586 
L 151.809222 28.423697 
L 149.374018 27.66358 
L 146.938813 29.74035 
L 144.503609 31.152174 
L 142.068405 28.847151 
L 139.6332 27.731966 
L 137.197996 27.836777 
L 134.762791 28.486587 
L 132.327587 28.81227 
L 129.892383 28.372019 
L 127.457178 28.812405 
L 125.021974 30.169013 
L 122.586769 30.097835 
L 120.151565 35.211583 
L 117.716361 31.706303 
L 115.281156 32.760512 
L 112.845952 33.34175 
L 110.410747 34.879472 
L 107.975543 33.500136 
L 105.540339 36.823319 
L 103.105134 37.309386 
L 100.66993 35.262511 
L 98.234725 39.536882 
L 95.799521 44.356973 
L 93.364317 43.274332 
L 90.929112 56.810567 
L 88.493908 52.265054 
L 86.058703 60.595267 
L 83.623499 58.857227 
L 81.188295 64.047192 
L 78.75309 71.957074 
L 76.317886 63.926141 
L 73.882682 74.467355 
L 71.447477 100.807827 
L 69.012273 133.727945 
z
" style="fill:#2ca02c;fill-opacity:0.25;"/>
   </g>
   <g id="PolyCollection_4">
    <path clip-path="url(#p55cea1a510)" d="M 69.012273 179.420249 
L 69.012273 261.030398 
L 71.447477 225.487663 
L 73.882682 144.811577 
L 76.317886 128.002088 
L 78.75309 93.404209 
L 81.188295 84.259921 
L 83.623499 80.868343 
L 86.058703 72.752697 
L 88.493908 58.493981 
L 90.929112 53.514943 
L 93.364317 45.380517 
L 95.799521 46.082532 
L 98.234725 47.005096 
L 100.66993 41.310831 
L 103.105134 39.797881 
L 105.540339 34.821103 
L 107.975543 36.419527 
L 110.410747 37.702334 
L 112.845952 36.841386 
L 115.281156 34.100254 
L 117.716361 36.467767 
L 120.151565 33.847449 
L 122.586769 33.081253 
L 125.021974 31.065125 
L 127.457178 31.261481 
L 129.892383 31.092413 
L 132.327587 37.022263 
L 134.762791 31.275323 
L 137.197996 31.285934 
L 139.6332 31.882083 
L 142.068405 29.65199 
L 144.503609 30.806179 
L 146.938813 29.403634 
L 149.374018 29.243265 
L 151.809222 29.630267 
L 154.244426 34.300365 
L 156.679631 28.639253 
L 159.114835 29.454239 
L 161.55004 29.678228 
L 163.985244 29.078819 
L 166.420448 29.564212 
L 168.855653 29.884411 
L 171.290857 31.62944 
L 173.726062 26.314442 
L 176.161266 33.375553 
L 178.59647 29.314429 
L 181.031675 28.193674 
L 183.466879 29.656805 
L 185.902084 29.916263 
L 188.337288 29.126496 
L 190.772492 29.752651 
L 193.207697 29.848265 
L 195.642901 29.683102 
L 198.078106 31.086767 
L 200.51331 27.335994 
L 202.948514 29.600745 
L 205.383719 26.708228 
L 207.818923 28.671709 
L 210.254128 28.477438 
L 212.689332 27.650223 
L 215.124536 29.205265 
L 217.559741 27.858735 
L 219.994945 28.975292 
L 222.430149 28.36424 
L 224.865354 28.36424 
L 227.300558 30.026541 
L 229.735763 30.11168 
L 232.170967 27.339341 
L 234.606171 26.308502 
L 237.041376 27.507571 
L 239.47658 29.225525 
L 241.911785 28.041821 
L 244.346989 26.708228 
L 246.782193 26.314442 
L 249.217398 26.685837 
L 251.652602 30.026541 
L 254.087807 26.244172 
L 256.523011 27.897902 
L 258.958215 28.44831 
L 261.39342 25.61487 
L 263.828624 28.717124 
L 266.263829 26.708228 
L 268.699033 28.596414 
L 271.134237 27.083116 
L 273.569442 30.135338 
L 276.004646 29.286649 
L 278.439851 27.569658 
L 280.875055 26.708228 
L 283.310259 28.086155 
L 285.745464 28.334101 
L 288.180668 26.673156 
L 290.615872 28.522102 
L 293.051077 27.867537 
L 295.486281 26.708228 
L 297.921486 28.086155 
L 300.35669 26.006972 
L 302.791894 27.335994 
L 305.227099 25.699502 
L 307.662303 26.244172 
L 310.097508 27.339341 
L 312.532712 26.308502 
L 314.967916 27.445485 
L 317.403121 25.545768 
L 319.838325 27.232098 
L 322.27353 25.461135 
L 324.708734 25.61487 
L 327.143938 25.238298 
L 329.579143 26.308502 
L 332.014347 25.699502 
L 334.449552 26.244172 
L 336.884756 26.244172 
L 339.31996 25.61487 
L 341.755165 27.581089 
L 344.190369 26.308502 
L 346.625574 26.14126 
L 349.060778 26.308502 
L 351.495982 27.335994 
L 353.931187 25.461135 
L 356.366391 25.461135 
L 358.801595 26.244172 
L 361.2368 25.461135 
L 363.672004 26.006972 
L 366.107209 26.006972 
L 368.542413 25.461135 
L 370.977617 25.461135 
L 373.412822 24.777093 
L 375.848026 25.238298 
L 378.283231 25.461135 
L 380.718435 25.461135 
L 383.153639 25.238298 
L 385.588844 24.777093 
L 388.024048 25.238298 
L 390.459253 24.777093 
L 392.894457 25.461135 
L 395.329661 25.238298 
L 397.764866 25.238298 
L 400.20007 24.777093 
L 402.635275 24.777093 
L 405.070479 25.238298 
L 407.505683 24.777093 
L 409.940888 25.238298 
L 412.376092 25.238298 
L 414.811297 24.777093 
L 417.246501 25.238298 
L 419.681705 24.777093 
L 422.11691 24.777093 
L 424.552114 24.777093 
L 426.987318 24.777093 
L 429.422523 25.238298 
L 431.857727 24.777093 
L 431.857727 24.777093 
L 431.857727 24.777093 
L 429.422523 24.623359 
L 426.987318 24.777093 
L 424.552114 24.777093 
L 422.11691 24.777093 
L 419.681705 24.777093 
L 417.246501 24.623359 
L 414.811297 24.777093 
L 412.376092 24.623359 
L 409.940888 24.623359 
L 407.505683 24.777093 
L 405.070479 24.623359 
L 402.635275 24.777093 
L 400.20007 24.777093 
L 397.764866 24.623359 
L 395.329661 24.623359 
L 392.894457 24.707991 
L 390.459253 24.777093 
L 388.024048 24.623359 
L 385.588844 24.777093 
L 383.153639 24.623359 
L 380.718435 24.707991 
L 378.283231 24.707991 
L 375.848026 24.623359 
L 373.412822 24.777093 
L 370.977617 24.707991 
L 368.542413 24.707991 
L 366.107209 24.367134 
L 363.672004 24.367134 
L 361.2368 24.707991 
L 358.801595 24.744874 
L 356.366391 24.707991 
L 353.931187 24.707991 
L 351.495982 24.98542 
L 349.060778 24.988013 
L 346.625574 24.540316 
L 344.190369 24.988013 
L 341.755165 24.330365 
L 339.31996 24.861726 
L 336.884756 24.744874 
L 334.449552 24.744874 
L 332.014347 25.084563 
L 329.579143 24.988013 
L 327.143938 24.623359 
L 324.708734 24.861726 
L 322.27353 24.707991 
L 319.838325 24.474377 
L 317.403121 25.545768 
L 314.967916 25.285889 
L 312.532712 24.988013 
L 310.097508 25.289543 
L 307.662303 24.744874 
L 305.227099 25.084563 
L 302.791894 24.98542 
L 300.35669 24.367134 
L 297.921486 25.465138 
L 295.486281 25.100737 
L 293.051077 25.683756 
L 290.615872 25.336661 
L 288.180668 24.828338 
L 285.745464 24.704743 
L 283.310259 25.465138 
L 280.875055 25.100737 
L 278.439851 25.264205 
L 276.004646 26.006972 
L 273.569442 27.003101 
L 271.134237 26.058217 
L 268.699033 25.672308 
L 266.263829 25.100737 
L 263.828624 24.21923 
L 261.39342 24.861726 
L 258.958215 25.615433 
L 256.523011 24.833471 
L 254.087807 24.744874 
L 251.652602 26.496958 
L 249.217398 25.430597 
L 246.782193 25.289543 
L 244.346989 25.100737 
L 241.911785 26.124411 
L 239.47658 25.248177 
L 237.041376 26.043722 
L 234.606171 24.988013 
L 232.170967 25.289543 
L 229.735763 28.051658 
L 227.300558 26.496958 
L 224.865354 26.314442 
L 222.430149 27.339341 
L 219.994945 25.600899 
L 217.559741 26.717456 
L 215.124536 25.575907 
L 212.689332 24.568701 
L 210.254128 25.278834 
L 207.818923 26.211952 
L 205.383719 25.100737 
L 202.948514 26.820264 
L 200.51331 24.98542 
L 198.078106 26.666612 
L 195.642901 27.557827 
L 193.207697 26.060296 
L 190.772492 26.463379 
L 188.337288 25.859655 
L 185.902084 25.069889 
L 183.466879 26.661715 
L 181.031675 25.870068 
L 178.59647 24.749313 
L 176.161266 26.017664 
L 173.726062 25.289543 
L 171.290857 28.378716 
L 168.855653 26.844069 
L 166.420448 28.189166 
L 163.985244 26.317292 
L 161.55004 25.410413 
L 159.114835 25.839381 
L 156.679631 26.244408 
L 154.244426 27.655099 
L 151.809222 26.688253 
L 149.374018 26.562806 
L 146.938813 27.939785 
L 144.503609 26.844709 
L 142.068405 26.871509 
L 139.6332 27.101174 
L 137.197996 27.697324 
L 134.762791 27.297975 
L 132.327587 25.9581 
L 129.892383 28.710763 
L 127.457178 26.081938 
L 125.021974 28.123112 
L 122.586769 29.899111 
L 120.151565 29.952833 
L 117.716361 30.304723 
L 115.281156 31.032397 
L 112.845952 29.931104 
L 110.410747 29.480115 
L 107.975543 32.40276 
L 105.540339 31.541426 
L 103.105134 36.301188 
L 100.66993 37.043016 
L 98.234725 39.547943 
L 95.799521 35.346012 
L 93.364317 40.045133 
L 90.929112 46.566763 
L 88.493908 47.019689 
L 86.058703 55.206259 
L 83.623499 63.796467 
L 81.188295 69.424 
L 78.75309 74.730786 
L 76.317886 88.303159 
L 73.882682 93.016547 
L 71.447477 111.14072 
L 69.012273 179.420249 
z
" style="fill:#d62728;fill-opacity:0.25;"/>
   </g>
   <g id="PolyCollection_5">
    <path clip-path="url(#p55cea1a510)" d="M 69.012273 136.290889 
L 69.012273 224.01266 
L 71.447477 124.55005 
L 73.882682 111.84137 
L 76.317886 93.453326 
L 78.75309 80.764186 
L 81.188295 65.913965 
L 83.623499 62.559972 
L 86.058703 65.302233 
L 88.493908 60.053145 
L 90.929112 52.960364 
L 93.364317 56.238988 
L 95.799521 41.095498 
L 98.234725 41.177045 
L 100.66993 38.512042 
L 103.105134 39.030552 
L 105.540339 37.483327 
L 107.975543 34.764972 
L 110.410747 35.971957 
L 112.845952 34.477245 
L 115.281156 33.375401 
L 117.716361 34.696625 
L 120.151565 33.721967 
L 122.586769 35.758179 
L 125.021974 31.437513 
L 127.457178 31.111609 
L 129.892383 34.505069 
L 132.327587 30.530654 
L 134.762791 31.437148 
L 137.197996 29.018655 
L 139.6332 28.615931 
L 142.068405 32.181844 
L 144.503609 32.128645 
L 146.938813 31.12762 
L 149.374018 30.033335 
L 151.809222 31.785647 
L 154.244426 33.886366 
L 156.679631 29.634349 
L 159.114835 29.243265 
L 161.55004 30.842222 
L 163.985244 30.839305 
L 166.420448 32.71861 
L 168.855653 28.515838 
L 171.290857 29.387002 
L 173.726062 28.338356 
L 176.161266 30.177997 
L 178.59647 28.334101 
L 181.031675 29.15029 
L 183.466879 29.610812 
L 185.902084 30.742613 
L 188.337288 29.078819 
L 190.772492 30.550129 
L 193.207697 28.434273 
L 195.642901 29.172736 
L 198.078106 29.765475 
L 200.51331 27.083116 
L 202.948514 28.596414 
L 205.383719 26.308502 
L 207.818923 29.453578 
L 210.254128 27.825906 
L 212.689332 28.842038 
L 215.124536 30.223836 
L 217.559741 28.334101 
L 219.994945 28.193674 
L 222.430149 26.708228 
L 224.865354 29.172736 
L 227.300558 30.202786 
L 229.735763 28.911367 
L 232.170967 27.011164 
L 234.606171 28.500582 
L 237.041376 27.045761 
L 239.47658 29.139541 
L 241.911785 27.825935 
L 244.346989 26.308502 
L 246.782193 27.743182 
L 249.217398 27.011164 
L 251.652602 28.086155 
L 254.087807 27.972763 
L 256.523011 26.708228 
L 258.958215 28.515838 
L 261.39342 27.684743 
L 263.828624 26.685837 
L 266.263829 27.569658 
L 268.699033 28.309108 
L 271.134237 28.08544 
L 273.569442 28.515838 
L 276.004646 26.942062 
L 278.439851 27.972763 
L 280.875055 27.339341 
L 283.310259 28.523993 
L 285.745464 27.825935 
L 288.180668 26.942062 
L 290.615872 27.164065 
L 293.051077 27.335994 
L 295.486281 26.314442 
L 297.921486 26.308502 
L 300.35669 26.244172 
L 302.791894 26.308502 
L 305.227099 25.61487 
L 307.662303 26.244172 
L 310.097508 25.699502 
L 312.532712 24.777093 
L 314.967916 26.978489 
L 317.403121 27.581089 
L 319.838325 26.736593 
L 322.27353 27.569658 
L 324.708734 25.699502 
L 327.143938 25.238298 
L 329.579143 26.708228 
L 332.014347 26.314442 
L 334.449552 25.238298 
L 336.884756 26.887327 
L 339.31996 27.045761 
L 341.755165 26.14126 
L 344.190369 25.461135 
L 346.625574 27.650223 
L 349.060778 26.673156 
L 351.495982 25.238298 
L 353.931187 25.461135 
L 356.366391 26.244172 
L 358.801595 26.308502 
L 361.2368 26.308502 
L 363.672004 27.335994 
L 366.107209 25.238298 
L 368.542413 25.461135 
L 370.977617 26.14126 
L 373.412822 25.61487 
L 375.848026 26.244172 
L 378.283231 25.238298 
L 380.718435 26.14126 
L 383.153639 25.461135 
L 385.588844 26.673156 
L 388.024048 26.14126 
L 390.459253 26.14126 
L 392.894457 25.61487 
L 395.329661 25.61487 
L 397.764866 26.244172 
L 400.20007 25.461135 
L 402.635275 25.461135 
L 405.070479 25.461135 
L 407.505683 26.673156 
L 409.940888 25.61487 
L 412.376092 25.61487 
L 414.811297 26.244172 
L 417.246501 25.61487 
L 419.681705 25.61487 
L 422.11691 26.244172 
L 424.552114 26.244172 
L 426.987318 26.14126 
L 429.422523 25.61487 
L 431.857727 26.244172 
L 431.857727 24.744874 
L 431.857727 24.744874 
L 429.422523 24.861726 
L 426.987318 24.540316 
L 424.552114 24.744874 
L 422.11691 24.744874 
L 419.681705 24.861726 
L 417.246501 24.861726 
L 414.811297 24.744874 
L 412.376092 24.861726 
L 409.940888 24.861726 
L 407.505683 24.828338 
L 405.070479 24.707991 
L 402.635275 24.707991 
L 400.20007 24.707991 
L 397.764866 24.744874 
L 395.329661 24.861726 
L 392.894457 24.861726 
L 390.459253 24.540316 
L 388.024048 24.540316 
L 385.588844 24.828338 
L 383.153639 24.707991 
L 380.718435 24.540316 
L 378.283231 24.623359 
L 375.848026 24.744874 
L 373.412822 24.861726 
L 370.977617 24.540316 
L 368.542413 24.707991 
L 366.107209 24.623359 
L 363.672004 24.98542 
L 361.2368 24.988013 
L 358.801595 24.988013 
L 356.366391 24.744874 
L 353.931187 24.707991 
L 351.495982 24.623359 
L 349.060778 24.828338 
L 346.625574 24.568701 
L 344.190369 24.707991 
L 341.755165 24.540316 
L 339.31996 24.763203 
L 336.884756 24.306698 
L 334.449552 24.623359 
L 332.014347 25.289543 
L 329.579143 25.100737 
L 327.143938 24.623359 
L 324.708734 25.084563 
L 322.27353 25.264205 
L 319.838325 24.354943 
L 317.403121 24.330365 
L 314.967916 24.523006 
L 312.532712 24.777093 
L 310.097508 25.084563 
L 307.662303 24.744874 
L 305.227099 24.861726 
L 302.791894 24.988013 
L 300.35669 24.744874 
L 297.921486 24.988013 
L 295.486281 25.289543 
L 293.051077 24.98542 
L 290.615872 24.747389 
L 288.180668 25.686822 
L 285.745464 25.007929 
L 283.310259 25.0273 
L 280.875055 25.289543 
L 278.439851 25.681019 
L 276.004646 25.686822 
L 273.569442 26.060354 
L 271.134237 24.850913 
L 268.699033 24.934715 
L 266.263829 25.264205 
L 263.828624 25.430597 
L 261.39342 24.739161 
L 258.958215 26.060354 
L 256.523011 25.100737 
L 254.087807 25.681019 
L 251.652602 25.465138 
L 249.217398 25.00278 
L 246.782193 25.603131 
L 244.346989 24.988013 
L 241.911785 25.007929 
L 239.47658 26.35906 
L 237.041376 24.763203 
L 234.606171 24.743241 
L 232.170967 25.00278 
L 229.735763 26.074784 
L 227.300558 25.603284 
L 224.865354 25.505946 
L 222.430149 25.100737 
L 219.994945 25.870068 
L 217.559741 24.704743 
L 215.124536 26.299664 
L 212.689332 26.451583 
L 210.254128 25.315427 
L 207.818923 26.454982 
L 205.383719 24.988013 
L 202.948514 25.672308 
L 200.51331 26.058217 
L 198.078106 27.065494 
L 195.642901 25.505946 
L 193.207697 26.039429 
L 190.772492 25.358431 
L 188.337288 26.317292 
L 185.902084 27.113255 
L 183.466879 26.605218 
L 181.031675 27.16823 
L 178.59647 24.704743 
L 176.161266 27.165422 
L 173.726062 25.827876 
L 171.290857 26.931518 
L 168.855653 26.060354 
L 166.420448 27.289547 
L 163.985244 27.221543 
L 161.55004 26.501197 
L 159.114835 26.562806 
L 156.679631 26.069232 
L 154.244426 28.786528 
L 151.809222 28.734958 
L 149.374018 25.875225 
L 146.938813 27.035718 
L 144.503609 29.314369 
L 142.068405 27.621332 
L 139.6332 26.88267 
L 137.197996 27.914805 
L 134.762791 27.033659 
L 132.327587 28.657583 
L 129.892383 31.447501 
L 127.457178 28.486587 
L 125.021974 27.750724 
L 122.586769 29.476962 
L 120.151565 29.975825 
L 117.716361 30.538515 
L 115.281156 28.785043 
L 112.845952 31.987774 
L 110.410747 30.800532 
L 107.975543 30.470169 
L 105.540339 32.261369 
L 103.105134 31.534063 
L 100.66993 32.462533 
L 98.234725 36.151904 
L 95.799521 35.823491 
L 93.364317 34.208667 
L 90.929112 47.531301 
L 88.493908 40.13105 
L 86.058703 47.283239 
L 83.623499 51.255379 
L 81.188295 49.131265 
L 78.75309 65.232993 
L 76.317886 77.038937 
L 73.882682 82.326059 
L 71.447477 97.084671 
L 69.012273 136.290889 
z
" style="fill:#9467bd;fill-opacity:0.25;"/>
   </g>
   <g id="matplotlib.axis_1">
    <g id="xtick_1">
     <g id="line2d_1">
      <defs>
       <path d="M 0 0 
L 0 3.5 
" id="m0ebfcf31e9" style="stroke:#000000;stroke-width:0.8;"/>
      </defs>
      <g>
       <use style="stroke:#000000;stroke-width:0.8;" x="69.012273" xlink:href="#m0ebfcf31e9" y="303.64"/>
      </g>
     </g>
     <g id="text_1">
      <!-- 0 -->
      <g transform="translate(65.831023 318.238437)scale(0.1 -0.1)">
       <defs>
        <path d="M 31.78125 66.40625 
Q 24.171875 66.40625 20.328125 58.90625 
Q 16.5 51.421875 16.5 36.375 
Q 16.5 21.390625 20.328125 13.890625 
Q 24.171875 6.390625 31.78125 6.390625 
Q 39.453125 6.390625 43.28125 13.890625 
Q 47.125 21.390625 47.125 36.375 
Q 47.125 51.421875 43.28125 58.90625 
Q 39.453125 66.40625 31.78125 66.40625 
z
M 31.78125 74.21875 
Q 44.046875 74.21875 50.515625 64.515625 
Q 56.984375 54.828125 56.984375 36.375 
Q 56.984375 17.96875 50.515625 8.265625 
Q 44.046875 -1.421875 31.78125 -1.421875 
Q 19.53125 -1.421875 13.0625 8.265625 
Q 6.59375 17.96875 6.59375 36.375 
Q 6.59375 54.828125 13.0625 64.515625 
Q 19.53125 74.21875 31.78125 74.21875 
z
" id="DejaVuSans-48"/>
       </defs>
       <use xlink:href="#DejaVuSans-48"/>
      </g>
     </g>
    </g>
    <g id="xtick_2">
     <g id="line2d_2">
      <g>
       <use style="stroke:#000000;stroke-width:0.8;" x="117.716361" xlink:href="#m0ebfcf31e9" y="303.64"/>
      </g>
     </g>
     <g id="text_2">
      <!-- 20 -->
      <g transform="translate(111.353861 318.238437)scale(0.1 -0.1)">
       <defs>
        <path d="M 19.1875 8.296875 
L 53.609375 8.296875 
L 53.609375 0 
L 7.328125 0 
L 7.328125 8.296875 
Q 12.9375 14.109375 22.625 23.890625 
Q 32.328125 33.6875 34.8125 36.53125 
Q 39.546875 41.84375 41.421875 45.53125 
Q 43.3125 49.21875 43.3125 52.78125 
Q 43.3125 58.59375 39.234375 62.25 
Q 35.15625 65.921875 28.609375 65.921875 
Q 23.96875 65.921875 18.8125 64.3125 
Q 13.671875 62.703125 7.8125 59.421875 
L 7.8125 69.390625 
Q 13.765625 71.78125 18.9375 73 
Q 24.125 74.21875 28.421875 74.21875 
Q 39.75 74.21875 46.484375 68.546875 
Q 53.21875 62.890625 53.21875 53.421875 
Q 53.21875 48.921875 51.53125 44.890625 
Q 49.859375 40.875 45.40625 35.40625 
Q 44.1875 33.984375 37.640625 27.21875 
Q 31.109375 20.453125 19.1875 8.296875 
z
" id="DejaVuSans-50"/>
       </defs>
       <use xlink:href="#DejaVuSans-50"/>
       <use x="63.623047" xlink:href="#DejaVuSans-48"/>
      </g>
     </g>
    </g>
    <g id="xtick_3">
     <g id="line2d_3">
      <g>
       <use style="stroke:#000000;stroke-width:0.8;" x="166.420448" xlink:href="#m0ebfcf31e9" y="303.64"/>
      </g>
     </g>
     <g id="text_3">
      <!-- 40 -->
      <g transform="translate(160.057948 318.238437)scale(0.1 -0.1)">
       <defs>
        <path d="M 37.796875 64.3125 
L 12.890625 25.390625 
L 37.796875 25.390625 
z
M 35.203125 72.90625 
L 47.609375 72.90625 
L 47.609375 25.390625 
L 58.015625 25.390625 
L 58.015625 17.1875 
L 47.609375 17.1875 
L 47.609375 0 
L 37.796875 0 
L 37.796875 17.1875 
L 4.890625 17.1875 
L 4.890625 26.703125 
z
" id="DejaVuSans-52"/>
       </defs>
       <use xlink:href="#DejaVuSans-52"/>
       <use x="63.623047" xlink:href="#DejaVuSans-48"/>
      </g>
     </g>
    </g>
    <g id="xtick_4">
     <g id="line2d_4">
      <g>
       <use style="stroke:#000000;stroke-width:0.8;" x="215.124536" xlink:href="#m0ebfcf31e9" y="303.64"/>
      </g>
     </g>
     <g id="text_4">
      <!-- 60 -->
      <g transform="translate(208.762036 318.238437)scale(0.1 -0.1)">
       <defs>
        <path d="M 33.015625 40.375 
Q 26.375 40.375 22.484375 35.828125 
Q 18.609375 31.296875 18.609375 23.390625 
Q 18.609375 15.53125 22.484375 10.953125 
Q 26.375 6.390625 33.015625 6.390625 
Q 39.65625 6.390625 43.53125 10.953125 
Q 47.40625 15.53125 47.40625 23.390625 
Q 47.40625 31.296875 43.53125 35.828125 
Q 39.65625 40.375 33.015625 40.375 
z
M 52.59375 71.296875 
L 52.59375 62.3125 
Q 48.875 64.0625 45.09375 64.984375 
Q 41.3125 65.921875 37.59375 65.921875 
Q 27.828125 65.921875 22.671875 59.328125 
Q 17.53125 52.734375 16.796875 39.40625 
Q 19.671875 43.65625 24.015625 45.921875 
Q 28.375 48.1875 33.59375 48.1875 
Q 44.578125 48.1875 50.953125 41.515625 
Q 57.328125 34.859375 57.328125 23.390625 
Q 57.328125 12.15625 50.6875 5.359375 
Q 44.046875 -1.421875 33.015625 -1.421875 
Q 20.359375 -1.421875 13.671875 8.265625 
Q 6.984375 17.96875 6.984375 36.375 
Q 6.984375 53.65625 15.1875 63.9375 
Q 23.390625 74.21875 37.203125 74.21875 
Q 40.921875 74.21875 44.703125 73.484375 
Q 48.484375 72.75 52.59375 71.296875 
z
" id="DejaVuSans-54"/>
       </defs>
       <use xlink:href="#DejaVuSans-54"/>
       <use x="63.623047" xlink:href="#DejaVuSans-48"/>
      </g>
     </g>
    </g>
    <g id="xtick_5">
     <g id="line2d_5">
      <g>
       <use style="stroke:#000000;stroke-width:0.8;" x="263.828624" xlink:href="#m0ebfcf31e9" y="303.64"/>
      </g>
     </g>
     <g id="text_5">
      <!-- 80 -->
      <g transform="translate(257.466124 318.238437)scale(0.1 -0.1)">
       <defs>
        <path d="M 31.78125 34.625 
Q 24.75 34.625 20.71875 30.859375 
Q 16.703125 27.09375 16.703125 20.515625 
Q 16.703125 13.921875 20.71875 10.15625 
Q 24.75 6.390625 31.78125 6.390625 
Q 38.8125 6.390625 42.859375 10.171875 
Q 46.921875 13.96875 46.921875 20.515625 
Q 46.921875 27.09375 42.890625 30.859375 
Q 38.875 34.625 31.78125 34.625 
z
M 21.921875 38.8125 
Q 15.578125 40.375 12.03125 44.71875 
Q 8.5 49.078125 8.5 55.328125 
Q 8.5 64.0625 14.71875 69.140625 
Q 20.953125 74.21875 31.78125 74.21875 
Q 42.671875 74.21875 48.875 69.140625 
Q 55.078125 64.0625 55.078125 55.328125 
Q 55.078125 49.078125 51.53125 44.71875 
Q 48 40.375 41.703125 38.8125 
Q 48.828125 37.15625 52.796875 32.3125 
Q 56.78125 27.484375 56.78125 20.515625 
Q 56.78125 9.90625 50.3125 4.234375 
Q 43.84375 -1.421875 31.78125 -1.421875 
Q 19.734375 -1.421875 13.25 4.234375 
Q 6.78125 9.90625 6.78125 20.515625 
Q 6.78125 27.484375 10.78125 32.3125 
Q 14.796875 37.15625 21.921875 38.8125 
z
M 18.3125 54.390625 
Q 18.3125 48.734375 21.84375 45.5625 
Q 25.390625 42.390625 31.78125 42.390625 
Q 38.140625 42.390625 41.71875 45.5625 
Q 45.3125 48.734375 45.3125 54.390625 
Q 45.3125 60.0625 41.71875 63.234375 
Q 38.140625 66.40625 31.78125 66.40625 
Q 25.390625 66.40625 21.84375 63.234375 
Q 18.3125 60.0625 18.3125 54.390625 
z
" id="DejaVuSans-56"/>
       </defs>
       <use xlink:href="#DejaVuSans-56"/>
       <use x="63.623047" xlink:href="#DejaVuSans-48"/>
      </g>
     </g>
    </g>
    <g id="xtick_6">
     <g id="line2d_6">
      <g>
       <use style="stroke:#000000;stroke-width:0.8;" x="312.532712" xlink:href="#m0ebfcf31e9" y="303.64"/>
      </g>
     </g>
     <g id="text_6">
      <!-- 100 -->
      <g transform="translate(302.988962 318.238437)scale(0.1 -0.1)">
       <defs>
        <path d="M 12.40625 8.296875 
L 28.515625 8.296875 
L 28.515625 63.921875 
L 10.984375 60.40625 
L 10.984375 69.390625 
L 28.421875 72.90625 
L 38.28125 72.90625 
L 38.28125 8.296875 
L 54.390625 8.296875 
L 54.390625 0 
L 12.40625 0 
z
" id="DejaVuSans-49"/>
       </defs>
       <use xlink:href="#DejaVuSans-49"/>
       <use x="63.623047" xlink:href="#DejaVuSans-48"/>
       <use x="127.246094" xlink:href="#DejaVuSans-48"/>
      </g>
     </g>
    </g>
    <g id="xtick_7">
     <g id="line2d_7">
      <g>
       <use style="stroke:#000000;stroke-width:0.8;" x="361.2368" xlink:href="#m0ebfcf31e9" y="303.64"/>
      </g>
     </g>
     <g id="text_7">
      <!-- 120 -->
      <g transform="translate(351.69305 318.238437)scale(0.1 -0.1)">
       <use xlink:href="#DejaVuSans-49"/>
       <use x="63.623047" xlink:href="#DejaVuSans-50"/>
       <use x="127.246094" xlink:href="#DejaVuSans-48"/>
      </g>
     </g>
    </g>
    <g id="xtick_8">
     <g id="line2d_8">
      <g>
       <use style="stroke:#000000;stroke-width:0.8;" x="409.940888" xlink:href="#m0ebfcf31e9" y="303.64"/>
      </g>
     </g>
     <g id="text_8">
      <!-- 140 -->
      <g transform="translate(400.397138 318.238437)scale(0.1 -0.1)">
       <use xlink:href="#DejaVuSans-49"/>
       <use x="63.623047" xlink:href="#DejaVuSans-52"/>
       <use x="127.246094" xlink:href="#DejaVuSans-48"/>
      </g>
     </g>
    </g>
    <g id="text_9">
     <!-- Epochs -->
     <g transform="translate(232.519375 331.916562)scale(0.1 -0.1)">
      <defs>
       <path d="M 9.8125 72.90625 
L 55.90625 72.90625 
L 55.90625 64.59375 
L 19.671875 64.59375 
L 19.671875 43.015625 
L 54.390625 43.015625 
L 54.390625 34.71875 
L 19.671875 34.71875 
L 19.671875 8.296875 
L 56.78125 8.296875 
L 56.78125 0 
L 9.8125 0 
z
" id="DejaVuSans-69"/>
       <path d="M 18.109375 8.203125 
L 18.109375 -20.796875 
L 9.078125 -20.796875 
L 9.078125 54.6875 
L 18.109375 54.6875 
L 18.109375 46.390625 
Q 20.953125 51.265625 25.265625 53.625 
Q 29.59375 56 35.59375 56 
Q 45.5625 56 51.78125 48.09375 
Q 58.015625 40.1875 58.015625 27.296875 
Q 58.015625 14.40625 51.78125 6.484375 
Q 45.5625 -1.421875 35.59375 -1.421875 
Q 29.59375 -1.421875 25.265625 0.953125 
Q 20.953125 3.328125 18.109375 8.203125 
z
M 48.6875 27.296875 
Q 48.6875 37.203125 44.609375 42.84375 
Q 40.53125 48.484375 33.40625 48.484375 
Q 26.265625 48.484375 22.1875 42.84375 
Q 18.109375 37.203125 18.109375 27.296875 
Q 18.109375 17.390625 22.1875 11.75 
Q 26.265625 6.109375 33.40625 6.109375 
Q 40.53125 6.109375 44.609375 11.75 
Q 48.6875 17.390625 48.6875 27.296875 
z
" id="DejaVuSans-112"/>
       <path d="M 30.609375 48.390625 
Q 23.390625 48.390625 19.1875 42.75 
Q 14.984375 37.109375 14.984375 27.296875 
Q 14.984375 17.484375 19.15625 11.84375 
Q 23.34375 6.203125 30.609375 6.203125 
Q 37.796875 6.203125 41.984375 11.859375 
Q 46.1875 17.53125 46.1875 27.296875 
Q 46.1875 37.015625 41.984375 42.703125 
Q 37.796875 48.390625 30.609375 48.390625 
z
M 30.609375 56 
Q 42.328125 56 49.015625 48.375 
Q 55.71875 40.765625 55.71875 27.296875 
Q 55.71875 13.875 49.015625 6.21875 
Q 42.328125 -1.421875 30.609375 -1.421875 
Q 18.84375 -1.421875 12.171875 6.21875 
Q 5.515625 13.875 5.515625 27.296875 
Q 5.515625 40.765625 12.171875 48.375 
Q 18.84375 56 30.609375 56 
z
" id="DejaVuSans-111"/>
       <path d="M 48.78125 52.59375 
L 48.78125 44.1875 
Q 44.96875 46.296875 41.140625 47.34375 
Q 37.3125 48.390625 33.40625 48.390625 
Q 24.65625 48.390625 19.8125 42.84375 
Q 14.984375 37.3125 14.984375 27.296875 
Q 14.984375 17.28125 19.8125 11.734375 
Q 24.65625 6.203125 33.40625 6.203125 
Q 37.3125 6.203125 41.140625 7.25 
Q 44.96875 8.296875 48.78125 10.40625 
L 48.78125 2.09375 
Q 45.015625 0.34375 40.984375 -0.53125 
Q 36.96875 -1.421875 32.421875 -1.421875 
Q 20.0625 -1.421875 12.78125 6.34375 
Q 5.515625 14.109375 5.515625 27.296875 
Q 5.515625 40.671875 12.859375 48.328125 
Q 20.21875 56 33.015625 56 
Q 37.15625 56 41.109375 55.140625 
Q 45.0625 54.296875 48.78125 52.59375 
z
" id="DejaVuSans-99"/>
       <path d="M 54.890625 33.015625 
L 54.890625 0 
L 45.90625 0 
L 45.90625 32.71875 
Q 45.90625 40.484375 42.875 44.328125 
Q 39.84375 48.1875 33.796875 48.1875 
Q 26.515625 48.1875 22.3125 43.546875 
Q 18.109375 38.921875 18.109375 30.90625 
L 18.109375 0 
L 9.078125 0 
L 9.078125 75.984375 
L 18.109375 75.984375 
L 18.109375 46.1875 
Q 21.34375 51.125 25.703125 53.5625 
Q 30.078125 56 35.796875 56 
Q 45.21875 56 50.046875 50.171875 
Q 54.890625 44.34375 54.890625 33.015625 
z
" id="DejaVuSans-104"/>
       <path d="M 44.28125 53.078125 
L 44.28125 44.578125 
Q 40.484375 46.53125 36.375 47.5 
Q 32.28125 48.484375 27.875 48.484375 
Q 21.1875 48.484375 17.84375 46.4375 
Q 14.5 44.390625 14.5 40.28125 
Q 14.5 37.15625 16.890625 35.375 
Q 19.28125 33.59375 26.515625 31.984375 
L 29.59375 31.296875 
Q 39.15625 29.25 43.1875 25.515625 
Q 47.21875 21.78125 47.21875 15.09375 
Q 47.21875 7.46875 41.1875 3.015625 
Q 35.15625 -1.421875 24.609375 -1.421875 
Q 20.21875 -1.421875 15.453125 -0.5625 
Q 10.6875 0.296875 5.421875 2 
L 5.421875 11.28125 
Q 10.40625 8.6875 15.234375 7.390625 
Q 20.0625 6.109375 24.8125 6.109375 
Q 31.15625 6.109375 34.5625 8.28125 
Q 37.984375 10.453125 37.984375 14.40625 
Q 37.984375 18.0625 35.515625 20.015625 
Q 33.0625 21.96875 24.703125 23.78125 
L 21.578125 24.515625 
Q 13.234375 26.265625 9.515625 29.90625 
Q 5.8125 33.546875 5.8125 39.890625 
Q 5.8125 47.609375 11.28125 51.796875 
Q 16.75 56 26.8125 56 
Q 31.78125 56 36.171875 55.265625 
Q 40.578125 54.546875 44.28125 53.078125 
z
" id="DejaVuSans-115"/>
      </defs>
      <use xlink:href="#DejaVuSans-69"/>
      <use x="63.183594" xlink:href="#DejaVuSans-112"/>
      <use x="126.660156" xlink:href="#DejaVuSans-111"/>
      <use x="187.841797" xlink:href="#DejaVuSans-99"/>
      <use x="242.822266" xlink:href="#DejaVuSans-104"/>
      <use x="306.201172" xlink:href="#DejaVuSans-115"/>
     </g>
    </g>
   </g>
   <g id="matplotlib.axis_2">
    <g id="ytick_1">
     <g id="line2d_9">
      <defs>
       <path d="M 0 0 
L -3.5 0 
" id="m7c9b52a6e7" style="stroke:#000000;stroke-width:0.8;"/>
      </defs>
      <g>
       <use style="stroke:#000000;stroke-width:0.8;" x="50.87" xlink:href="#m7c9b52a6e7" y="287.151225"/>
      </g>
     </g>
     <g id="text_10">
      <!-- 50 -->
      <g transform="translate(31.145 290.950444)scale(0.1 -0.1)">
       <defs>
        <path d="M 10.796875 72.90625 
L 49.515625 72.90625 
L 49.515625 64.59375 
L 19.828125 64.59375 
L 19.828125 46.734375 
Q 21.96875 47.46875 24.109375 47.828125 
Q 26.265625 48.1875 28.421875 48.1875 
Q 40.625 48.1875 47.75 41.5 
Q 54.890625 34.8125 54.890625 23.390625 
Q 54.890625 11.625 47.5625 5.09375 
Q 40.234375 -1.421875 26.90625 -1.421875 
Q 22.3125 -1.421875 17.546875 -0.640625 
Q 12.796875 0.140625 7.71875 1.703125 
L 7.71875 11.625 
Q 12.109375 9.234375 16.796875 8.0625 
Q 21.484375 6.890625 26.703125 6.890625 
Q 35.15625 6.890625 40.078125 11.328125 
Q 45.015625 15.765625 45.015625 23.390625 
Q 45.015625 31 40.078125 35.4375 
Q 35.15625 39.890625 26.703125 39.890625 
Q 22.75 39.890625 18.8125 39.015625 
Q 14.890625 38.140625 10.796875 36.28125 
z
" id="DejaVuSans-53"/>
       </defs>
       <use xlink:href="#DejaVuSans-53"/>
       <use x="63.623047" xlink:href="#DejaVuSans-48"/>
      </g>
     </g>
    </g>
    <g id="ytick_2">
     <g id="line2d_10">
      <g>
       <use style="stroke:#000000;stroke-width:0.8;" x="50.87" xlink:href="#m7c9b52a6e7" y="234.676399"/>
      </g>
     </g>
     <g id="text_11">
      <!-- 60 -->
      <g transform="translate(31.145 238.475618)scale(0.1 -0.1)">
       <use xlink:href="#DejaVuSans-54"/>
       <use x="63.623047" xlink:href="#DejaVuSans-48"/>
      </g>
     </g>
    </g>
    <g id="ytick_3">
     <g id="line2d_11">
      <g>
       <use style="stroke:#000000;stroke-width:0.8;" x="50.87" xlink:href="#m7c9b52a6e7" y="182.201572"/>
      </g>
     </g>
     <g id="text_12">
      <!-- 70 -->
      <g transform="translate(31.145 186.000791)scale(0.1 -0.1)">
       <defs>
        <path d="M 8.203125 72.90625 
L 55.078125 72.90625 
L 55.078125 68.703125 
L 28.609375 0 
L 18.3125 0 
L 43.21875 64.59375 
L 8.203125 64.59375 
z
" id="DejaVuSans-55"/>
       </defs>
       <use xlink:href="#DejaVuSans-55"/>
       <use x="63.623047" xlink:href="#DejaVuSans-48"/>
      </g>
     </g>
    </g>
    <g id="ytick_4">
     <g id="line2d_12">
      <g>
       <use style="stroke:#000000;stroke-width:0.8;" x="50.87" xlink:href="#m7c9b52a6e7" y="129.726746"/>
      </g>
     </g>
     <g id="text_13">
      <!-- 80 -->
      <g transform="translate(31.145 133.525965)scale(0.1 -0.1)">
       <use xlink:href="#DejaVuSans-56"/>
       <use x="63.623047" xlink:href="#DejaVuSans-48"/>
      </g>
     </g>
    </g>
    <g id="ytick_5">
     <g id="line2d_13">
      <g>
       <use style="stroke:#000000;stroke-width:0.8;" x="50.87" xlink:href="#m7c9b52a6e7" y="77.25192"/>
      </g>
     </g>
     <g id="text_14">
      <!-- 90 -->
      <g transform="translate(31.145 81.051139)scale(0.1 -0.1)">
       <defs>
        <path d="M 10.984375 1.515625 
L 10.984375 10.5 
Q 14.703125 8.734375 18.5 7.8125 
Q 22.3125 6.890625 25.984375 6.890625 
Q 35.75 6.890625 40.890625 13.453125 
Q 46.046875 20.015625 46.78125 33.40625 
Q 43.953125 29.203125 39.59375 26.953125 
Q 35.25 24.703125 29.984375 24.703125 
Q 19.046875 24.703125 12.671875 31.3125 
Q 6.296875 37.9375 6.296875 49.421875 
Q 6.296875 60.640625 12.9375 67.421875 
Q 19.578125 74.21875 30.609375 74.21875 
Q 43.265625 74.21875 49.921875 64.515625 
Q 56.59375 54.828125 56.59375 36.375 
Q 56.59375 19.140625 48.40625 8.859375 
Q 40.234375 -1.421875 26.421875 -1.421875 
Q 22.703125 -1.421875 18.890625 -0.6875 
Q 15.09375 0.046875 10.984375 1.515625 
z
M 30.609375 32.421875 
Q 37.25 32.421875 41.125 36.953125 
Q 45.015625 41.5 45.015625 49.421875 
Q 45.015625 57.28125 41.125 61.84375 
Q 37.25 66.40625 30.609375 66.40625 
Q 23.96875 66.40625 20.09375 61.84375 
Q 16.21875 57.28125 16.21875 49.421875 
Q 16.21875 41.5 20.09375 36.953125 
Q 23.96875 32.421875 30.609375 32.421875 
z
" id="DejaVuSans-57"/>
       </defs>
       <use xlink:href="#DejaVuSans-57"/>
       <use x="63.623047" xlink:href="#DejaVuSans-48"/>
      </g>
     </g>
    </g>
    <g id="ytick_6">
     <g id="line2d_14">
      <g>
       <use style="stroke:#000000;stroke-width:0.8;" x="50.87" xlink:href="#m7c9b52a6e7" y="24.777093"/>
      </g>
     </g>
     <g id="text_15">
      <!-- 100 -->
      <g transform="translate(24.7825 28.576312)scale(0.1 -0.1)">
       <use xlink:href="#DejaVuSans-49"/>
       <use x="63.623047" xlink:href="#DejaVuSans-48"/>
       <use x="127.246094" xlink:href="#DejaVuSans-48"/>
      </g>
     </g>
    </g>
    <g id="text_16">
     <!-- Test Accuracy (%) -->
     <g transform="translate(18.702813 201.723906)rotate(-90)scale(0.1 -0.1)">
      <defs>
       <path d="M -0.296875 72.90625 
L 61.375 72.90625 
L 61.375 64.59375 
L 35.5 64.59375 
L 35.5 0 
L 25.59375 0 
L 25.59375 64.59375 
L -0.296875 64.59375 
z
" id="DejaVuSans-84"/>
       <path d="M 56.203125 29.59375 
L 56.203125 25.203125 
L 14.890625 25.203125 
Q 15.484375 15.921875 20.484375 11.0625 
Q 25.484375 6.203125 34.421875 6.203125 
Q 39.59375 6.203125 44.453125 7.46875 
Q 49.3125 8.734375 54.109375 11.28125 
L 54.109375 2.78125 
Q 49.265625 0.734375 44.1875 -0.34375 
Q 39.109375 -1.421875 33.890625 -1.421875 
Q 20.796875 -1.421875 13.15625 6.1875 
Q 5.515625 13.8125 5.515625 26.8125 
Q 5.515625 40.234375 12.765625 48.109375 
Q 20.015625 56 32.328125 56 
Q 43.359375 56 49.78125 48.890625 
Q 56.203125 41.796875 56.203125 29.59375 
z
M 47.21875 32.234375 
Q 47.125 39.59375 43.09375 43.984375 
Q 39.0625 48.390625 32.421875 48.390625 
Q 24.90625 48.390625 20.390625 44.140625 
Q 15.875 39.890625 15.1875 32.171875 
z
" id="DejaVuSans-101"/>
       <path d="M 18.3125 70.21875 
L 18.3125 54.6875 
L 36.8125 54.6875 
L 36.8125 47.703125 
L 18.3125 47.703125 
L 18.3125 18.015625 
Q 18.3125 11.328125 20.140625 9.421875 
Q 21.96875 7.515625 27.59375 7.515625 
L 36.8125 7.515625 
L 36.8125 0 
L 27.59375 0 
Q 17.1875 0 13.234375 3.875 
Q 9.28125 7.765625 9.28125 18.015625 
L 9.28125 47.703125 
L 2.6875 47.703125 
L 2.6875 54.6875 
L 9.28125 54.6875 
L 9.28125 70.21875 
z
" id="DejaVuSans-116"/>
       <path id="DejaVuSans-32"/>
       <path d="M 34.1875 63.1875 
L 20.796875 26.90625 
L 47.609375 26.90625 
z
M 28.609375 72.90625 
L 39.796875 72.90625 
L 67.578125 0 
L 57.328125 0 
L 50.6875 18.703125 
L 17.828125 18.703125 
L 11.1875 0 
L 0.78125 0 
z
" id="DejaVuSans-65"/>
       <path d="M 8.5 21.578125 
L 8.5 54.6875 
L 17.484375 54.6875 
L 17.484375 21.921875 
Q 17.484375 14.15625 20.5 10.265625 
Q 23.53125 6.390625 29.59375 6.390625 
Q 36.859375 6.390625 41.078125 11.03125 
Q 45.3125 15.671875 45.3125 23.6875 
L 45.3125 54.6875 
L 54.296875 54.6875 
L 54.296875 0 
L 45.3125 0 
L 45.3125 8.40625 
Q 42.046875 3.421875 37.71875 1 
Q 33.40625 -1.421875 27.6875 -1.421875 
Q 18.265625 -1.421875 13.375 4.4375 
Q 8.5 10.296875 8.5 21.578125 
z
M 31.109375 56 
z
" id="DejaVuSans-117"/>
       <path d="M 41.109375 46.296875 
Q 39.59375 47.171875 37.8125 47.578125 
Q 36.03125 48 33.890625 48 
Q 26.265625 48 22.1875 43.046875 
Q 18.109375 38.09375 18.109375 28.8125 
L 18.109375 0 
L 9.078125 0 
L 9.078125 54.6875 
L 18.109375 54.6875 
L 18.109375 46.1875 
Q 20.953125 51.171875 25.484375 53.578125 
Q 30.03125 56 36.53125 56 
Q 37.453125 56 38.578125 55.875 
Q 39.703125 55.765625 41.0625 55.515625 
z
" id="DejaVuSans-114"/>
       <path d="M 34.28125 27.484375 
Q 23.390625 27.484375 19.1875 25 
Q 14.984375 22.515625 14.984375 16.5 
Q 14.984375 11.71875 18.140625 8.90625 
Q 21.296875 6.109375 26.703125 6.109375 
Q 34.1875 6.109375 38.703125 11.40625 
Q 43.21875 16.703125 43.21875 25.484375 
L 43.21875 27.484375 
z
M 52.203125 31.203125 
L 52.203125 0 
L 43.21875 0 
L 43.21875 8.296875 
Q 40.140625 3.328125 35.546875 0.953125 
Q 30.953125 -1.421875 24.3125 -1.421875 
Q 15.921875 -1.421875 10.953125 3.296875 
Q 6 8.015625 6 15.921875 
Q 6 25.140625 12.171875 29.828125 
Q 18.359375 34.515625 30.609375 34.515625 
L 43.21875 34.515625 
L 43.21875 35.40625 
Q 43.21875 41.609375 39.140625 45 
Q 35.0625 48.390625 27.6875 48.390625 
Q 23 48.390625 18.546875 47.265625 
Q 14.109375 46.140625 10.015625 43.890625 
L 10.015625 52.203125 
Q 14.9375 54.109375 19.578125 55.046875 
Q 24.21875 56 28.609375 56 
Q 40.484375 56 46.34375 49.84375 
Q 52.203125 43.703125 52.203125 31.203125 
z
" id="DejaVuSans-97"/>
       <path d="M 32.171875 -5.078125 
Q 28.375 -14.84375 24.75 -17.8125 
Q 21.140625 -20.796875 15.09375 -20.796875 
L 7.90625 -20.796875 
L 7.90625 -13.28125 
L 13.1875 -13.28125 
Q 16.890625 -13.28125 18.9375 -11.515625 
Q 21 -9.765625 23.484375 -3.21875 
L 25.09375 0.875 
L 2.984375 54.6875 
L 12.5 54.6875 
L 29.59375 11.921875 
L 46.6875 54.6875 
L 56.203125 54.6875 
z
" id="DejaVuSans-121"/>
       <path d="M 31 75.875 
Q 24.46875 64.65625 21.28125 53.65625 
Q 18.109375 42.671875 18.109375 31.390625 
Q 18.109375 20.125 21.3125 9.0625 
Q 24.515625 -2 31 -13.1875 
L 23.1875 -13.1875 
Q 15.875 -1.703125 12.234375 9.375 
Q 8.59375 20.453125 8.59375 31.390625 
Q 8.59375 42.28125 12.203125 53.3125 
Q 15.828125 64.359375 23.1875 75.875 
z
" id="DejaVuSans-40"/>
       <path d="M 72.703125 32.078125 
Q 68.453125 32.078125 66.03125 28.46875 
Q 63.625 24.859375 63.625 18.40625 
Q 63.625 12.0625 66.03125 8.421875 
Q 68.453125 4.78125 72.703125 4.78125 
Q 76.859375 4.78125 79.265625 8.421875 
Q 81.6875 12.0625 81.6875 18.40625 
Q 81.6875 24.8125 79.265625 28.4375 
Q 76.859375 32.078125 72.703125 32.078125 
z
M 72.703125 38.28125 
Q 80.421875 38.28125 84.953125 32.90625 
Q 89.5 27.546875 89.5 18.40625 
Q 89.5 9.28125 84.9375 3.921875 
Q 80.375 -1.421875 72.703125 -1.421875 
Q 64.890625 -1.421875 60.34375 3.921875 
Q 55.8125 9.28125 55.8125 18.40625 
Q 55.8125 27.59375 60.375 32.9375 
Q 64.9375 38.28125 72.703125 38.28125 
z
M 22.3125 68.015625 
Q 18.109375 68.015625 15.6875 64.375 
Q 13.28125 60.75 13.28125 54.390625 
Q 13.28125 47.953125 15.671875 44.328125 
Q 18.0625 40.71875 22.3125 40.71875 
Q 26.5625 40.71875 28.96875 44.328125 
Q 31.390625 47.953125 31.390625 54.390625 
Q 31.390625 60.6875 28.953125 64.34375 
Q 26.515625 68.015625 22.3125 68.015625 
z
M 66.40625 74.21875 
L 74.21875 74.21875 
L 28.609375 -1.421875 
L 20.796875 -1.421875 
z
M 22.3125 74.21875 
Q 30.03125 74.21875 34.609375 68.875 
Q 39.203125 63.53125 39.203125 54.390625 
Q 39.203125 45.171875 34.640625 39.84375 
Q 30.078125 34.515625 22.3125 34.515625 
Q 14.546875 34.515625 10.03125 39.859375 
Q 5.515625 45.21875 5.515625 54.390625 
Q 5.515625 63.484375 10.046875 68.84375 
Q 14.59375 74.21875 22.3125 74.21875 
z
" id="DejaVuSans-37"/>
       <path d="M 8.015625 75.875 
L 15.828125 75.875 
Q 23.140625 64.359375 26.78125 53.3125 
Q 30.421875 42.28125 30.421875 31.390625 
Q 30.421875 20.453125 26.78125 9.375 
Q 23.140625 -1.703125 15.828125 -13.1875 
L 8.015625 -13.1875 
Q 14.5 -2 17.703125 9.0625 
Q 20.90625 20.125 20.90625 31.390625 
Q 20.90625 42.671875 17.703125 53.65625 
Q 14.5 64.65625 8.015625 75.875 
z
" id="DejaVuSans-41"/>
      </defs>
      <use xlink:href="#DejaVuSans-84"/>
      <use x="44.083984" xlink:href="#DejaVuSans-101"/>
      <use x="105.607422" xlink:href="#DejaVuSans-115"/>
      <use x="157.707031" xlink:href="#DejaVuSans-116"/>
      <use x="196.916016" xlink:href="#DejaVuSans-32"/>
      <use x="228.703125" xlink:href="#DejaVuSans-65"/>
      <use x="295.361328" xlink:href="#DejaVuSans-99"/>
      <use x="350.341797" xlink:href="#DejaVuSans-99"/>
      <use x="405.322266" xlink:href="#DejaVuSans-117"/>
      <use x="468.701172" xlink:href="#DejaVuSans-114"/>
      <use x="509.814453" xlink:href="#DejaVuSans-97"/>
      <use x="571.09375" xlink:href="#DejaVuSans-99"/>
      <use x="626.074219" xlink:href="#DejaVuSans-121"/>
      <use x="685.253906" xlink:href="#DejaVuSans-32"/>
      <use x="717.041016" xlink:href="#DejaVuSans-40"/>
      <use x="756.054688" xlink:href="#DejaVuSans-37"/>
      <use x="851.074219" xlink:href="#DejaVuSans-41"/>
     </g>
    </g>
   </g>
   <g id="line2d_15">
    <path clip-path="url(#p55cea1a510)" d="M 69.012273 230.576803 
L 71.447477 167.289293 
L 73.882682 116.813019 
L 76.317886 96.007571 
L 78.75309 81.71023 
L 81.188295 66.695461 
L 83.623499 60.597312 
L 86.058703 56.139001 
L 88.493908 47.171136 
L 90.929112 49.323423 
L 93.364317 40.816762 
L 95.799521 42.712825 
L 98.234725 41.534191 
L 100.66993 35.846002 
L 103.105134 37.383351 
L 105.540339 33.13002 
L 107.975543 31.746406 
L 110.410747 34.308654 
L 115.281156 33.02753 
L 117.716361 31.387692 
L 120.151565 31.848896 
L 122.586769 30.465283 
L 125.021974 30.311548 
L 127.457178 29.235404 
L 129.892383 32.566325 
L 132.327587 29.337894 
L 134.762791 28.620464 
L 137.197996 28.722954 
L 139.6332 29.184159 
L 142.068405 29.184159 
L 144.503609 28.876689 
L 146.938813 29.952833 
L 149.374018 28.36424 
L 151.809222 30.157813 
L 154.244426 30.721507 
L 156.679631 28.774199 
L 159.114835 27.493076 
L 161.55004 29.081669 
L 163.985244 28.108015 
L 166.420448 27.85179 
L 168.855653 27.903035 
L 171.290857 27.7493 
L 173.726062 26.878136 
L 176.161266 28.005525 
L 178.59647 27.031871 
L 181.031675 26.519422 
L 183.466879 27.800545 
L 185.902084 26.570667 
L 188.337288 28.415485 
L 190.772492 27.288096 
L 193.207697 27.083116 
L 195.642901 27.800545 
L 198.078106 29.799098 
L 200.51331 25.392033 
L 202.948514 27.800545 
L 205.383719 27.339341 
L 207.818923 26.314442 
L 210.254128 26.826891 
L 212.689332 26.570667 
L 215.124536 26.519422 
L 217.559741 25.801992 
L 219.994945 26.980626 
L 222.430149 26.570667 
L 224.865354 28.517975 
L 227.300558 26.878136 
L 229.735763 25.904482 
L 232.170967 26.058217 
L 234.606171 26.570667 
L 237.041376 26.519422 
L 239.47658 27.083116 
L 241.911785 27.134361 
L 244.346989 26.673156 
L 246.782193 26.365687 
L 249.217398 26.314442 
L 251.652602 27.544321 
L 254.087807 26.826891 
L 256.523011 27.493076 
L 258.958215 28.36424 
L 261.39342 26.416932 
L 263.828624 26.006972 
L 266.263829 26.519422 
L 268.699033 26.673156 
L 271.134237 26.519422 
L 273.569442 27.031871 
L 276.004646 26.570667 
L 278.439851 26.263197 
L 280.875055 26.314442 
L 283.310259 27.134361 
L 285.745464 25.904482 
L 288.180668 26.826891 
L 290.615872 26.724401 
L 293.051077 26.263197 
L 295.486281 26.519422 
L 297.921486 25.392033 
L 300.35669 26.109462 
L 302.791894 25.238298 
L 305.227099 25.597013 
L 307.662303 24.930828 
L 312.532712 25.545768 
L 314.967916 25.392033 
L 317.403121 25.904482 
L 319.838325 25.648258 
L 322.27353 25.084563 
L 324.708734 24.777093 
L 327.143938 25.340788 
L 329.579143 25.392033 
L 332.014347 25.750747 
L 334.449552 25.187053 
L 336.884756 25.750747 
L 339.31996 25.392033 
L 341.755165 25.904482 
L 344.190369 25.340788 
L 346.625574 26.006972 
L 349.060778 25.340788 
L 351.495982 25.750747 
L 353.931187 25.084563 
L 358.801595 25.340788 
L 361.2368 25.084563 
L 366.107209 25.084563 
L 368.542413 24.777093 
L 370.977617 25.084563 
L 373.412822 24.930828 
L 378.283231 24.930828 
L 380.718435 24.777093 
L 383.153639 25.187053 
L 385.588844 24.777093 
L 388.024048 24.777093 
L 390.459253 24.930828 
L 392.894457 24.777093 
L 395.329661 25.084563 
L 397.764866 24.930828 
L 431.857727 24.930828 
L 431.857727 24.930828 
" style="fill:none;stroke:#1f77b4;stroke-linecap:square;stroke-width:1.5;"/>
   </g>
   <g id="line2d_16">
    <path clip-path="url(#p55cea1a510)" d="M 69.012273 283.077252 
L 71.447477 217.996168 
L 73.882682 166.802466 
L 76.317886 144.869628 
L 78.75309 126.498314 
L 81.188295 87.500909 
L 83.623499 73.562284 
L 86.058703 72.639874 
L 88.493908 59.982372 
L 90.929112 54.909123 
L 93.364317 46.299971 
L 95.799521 41.482946 
L 100.66993 39.689373 
L 103.105134 35.589777 
L 105.540339 35.538532 
L 107.975543 32.310101 
L 110.410747 32.566325 
L 112.845952 30.977732 
L 115.281156 30.721507 
L 117.716361 30.311548 
L 120.151565 30.823997 
L 122.586769 32.72006 
L 125.021974 29.132914 
L 127.457178 29.184159 
L 129.892383 31.131467 
L 132.327587 28.620464 
L 134.762791 28.108015 
L 137.197996 28.15926 
L 139.6332 29.081669 
L 142.068405 29.440384 
L 144.503609 29.440384 
L 146.938813 27.390586 
L 149.374018 28.005525 
L 151.809222 28.979179 
L 154.244426 30.875242 
L 156.679631 27.083116 
L 159.114835 26.929381 
L 161.55004 28.671709 
L 163.985244 26.775646 
L 166.420448 29.491629 
L 168.855653 27.185606 
L 171.290857 28.36424 
L 173.726062 27.7493 
L 176.161266 29.440384 
L 181.031675 27.698055 
L 183.466879 27.185606 
L 185.902084 27.390586 
L 188.337288 26.673156 
L 190.772492 26.416932 
L 193.207697 28.722954 
L 195.642901 26.314442 
L 198.078106 28.210505 
L 200.51331 26.211952 
L 202.948514 27.083116 
L 205.383719 26.878136 
L 207.818923 25.648258 
L 210.254128 26.673156 
L 212.689332 26.673156 
L 215.124536 25.494523 
L 217.559741 25.904482 
L 219.994945 26.621912 
L 222.430149 28.46673 
L 227.300558 26.160707 
L 232.170967 27.083116 
L 234.606171 25.084563 
L 237.041376 26.058217 
L 239.47658 27.288096 
L 241.911785 26.365687 
L 244.346989 27.083116 
L 246.782193 26.058217 
L 249.217398 25.853237 
L 251.652602 28.56922 
L 254.087807 26.775646 
L 256.523011 25.904482 
L 258.958215 27.64681 
L 261.39342 26.570667 
L 263.828624 26.416932 
L 266.263829 25.750747 
L 268.699033 27.083116 
L 271.134237 25.955727 
L 273.569442 27.7493 
L 276.004646 27.7493 
L 278.439851 26.006972 
L 280.875055 26.519422 
L 283.310259 26.826891 
L 288.180668 26.314442 
L 290.615872 25.443278 
L 293.051077 26.570667 
L 295.486281 26.570667 
L 297.921486 26.263197 
L 300.35669 26.570667 
L 302.791894 25.597013 
L 305.227099 26.519422 
L 307.662303 25.494523 
L 310.097508 25.904482 
L 312.532712 25.392033 
L 314.967916 26.109462 
L 317.403121 26.365687 
L 319.838325 25.084563 
L 322.27353 25.494523 
L 324.708734 25.084563 
L 329.579143 25.494523 
L 332.014347 26.006972 
L 334.449552 26.109462 
L 336.884756 25.340788 
L 339.31996 24.930828 
L 341.755165 25.904482 
L 344.190369 25.494523 
L 346.625574 25.238298 
L 349.060778 25.801992 
L 351.495982 25.597013 
L 353.931187 24.930828 
L 356.366391 25.187053 
L 358.801595 25.597013 
L 361.2368 24.930828 
L 366.107209 25.238298 
L 368.542413 25.597013 
L 373.412822 24.930828 
L 375.848026 25.238298 
L 383.153639 25.238298 
L 385.588844 24.930828 
L 388.024048 24.930828 
L 392.894457 25.340788 
L 395.329661 25.187053 
L 405.070479 25.187053 
L 407.505683 24.930828 
L 419.681705 24.930828 
L 422.11691 25.187053 
L 424.552114 24.930828 
L 426.987318 24.930828 
L 429.422523 25.187053 
L 431.857727 24.930828 
L 431.857727 24.930828 
" style="fill:none;stroke:#ff7f0e;stroke-linecap:square;stroke-width:1.5;"/>
   </g>
   <g id="line2d_17">
    <path clip-path="url(#p55cea1a510)" d="M 69.012273 186.659883 
L 71.447477 168.467926 
L 73.882682 147.99557 
L 76.317886 145.51019 
L 78.75309 97.647409 
L 81.188295 85.246132 
L 83.623499 78.174329 
L 86.058703 71.512486 
L 88.493908 61.212251 
L 90.929112 60.956026 
L 93.364317 51.680691 
L 95.799521 50.143342 
L 98.234725 44.813868 
L 103.105134 41.944151 
L 105.540339 39.330659 
L 107.975543 38.10078 
L 110.410747 38.561984 
L 112.845952 36.255962 
L 115.281156 35.077328 
L 117.716361 34.411144 
L 120.151565 38.254515 
L 122.586769 34.462389 
L 125.021974 32.156366 
L 127.457178 31.336447 
L 129.892383 32.92504 
L 132.327587 32.207611 
L 134.762791 29.799098 
L 137.197996 31.080222 
L 142.068405 30.106568 
L 144.503609 32.156366 
L 146.938813 30.619017 
L 149.374018 30.004078 
L 151.809222 30.977732 
L 154.244426 32.207611 
L 156.679631 27.7493 
L 159.114835 28.15926 
L 161.55004 29.696608 
L 163.985244 27.7493 
L 166.420448 30.619017 
L 168.855653 29.235404 
L 171.290857 28.774199 
L 173.726062 27.800545 
L 176.161266 29.594118 
L 178.59647 26.570667 
L 183.466879 28.722954 
L 185.902084 28.210505 
L 188.337288 28.517975 
L 190.772492 27.288096 
L 193.207697 27.64681 
L 195.642901 27.493076 
L 198.078106 28.825444 
L 200.51331 26.519422 
L 202.948514 29.286649 
L 205.383719 27.288096 
L 207.818923 27.85179 
L 212.689332 25.750747 
L 215.124536 27.493076 
L 217.559741 26.416932 
L 219.994945 27.031871 
L 224.865354 27.544321 
L 227.300558 26.160707 
L 229.735763 27.134361 
L 232.170967 28.26175 
L 234.606171 26.980626 
L 237.041376 26.160707 
L 239.47658 28.415485 
L 241.911785 26.058217 
L 244.346989 26.724401 
L 249.217398 26.673156 
L 251.652602 27.134361 
L 254.087807 26.160707 
L 256.523011 25.801992 
L 258.958215 26.314442 
L 261.39342 26.263197 
L 263.828624 25.904482 
L 266.263829 27.7493 
L 271.134237 25.340788 
L 273.569442 27.031871 
L 276.004646 26.416932 
L 278.439851 28.927934 
L 280.875055 26.570667 
L 283.310259 26.006972 
L 285.745464 27.134361 
L 288.180668 26.365687 
L 290.615872 26.570667 
L 293.051077 25.494523 
L 295.486281 25.904482 
L 297.921486 24.930828 
L 300.35669 26.416932 
L 302.791894 26.775646 
L 305.227099 25.750747 
L 307.662303 25.955727 
L 310.097508 24.930828 
L 312.532712 26.160707 
L 314.967916 26.365687 
L 319.838325 25.904482 
L 322.27353 26.314442 
L 324.708734 25.187053 
L 327.143938 25.084563 
L 329.579143 25.340788 
L 332.014347 26.314442 
L 334.449552 24.930828 
L 336.884756 25.084563 
L 341.755165 25.750747 
L 344.190369 25.084563 
L 346.625574 25.494523 
L 349.060778 25.084563 
L 351.495982 25.084563 
L 353.931187 25.494523 
L 356.366391 25.340788 
L 368.542413 25.494523 
L 370.977617 26.160707 
L 373.412822 25.238298 
L 378.283231 25.238298 
L 380.718435 25.545768 
L 383.153639 25.238298 
L 385.588844 25.904482 
L 388.024048 26.006972 
L 390.459253 25.801992 
L 392.894457 25.750747 
L 395.329661 25.955727 
L 397.764866 25.955727 
L 409.940888 25.187053 
L 412.376092 25.340788 
L 414.811297 25.187053 
L 422.11691 25.187053 
L 424.552114 25.340788 
L 426.987318 25.187053 
L 431.857727 25.187053 
L 431.857727 25.187053 
" style="fill:none;stroke:#2ca02c;stroke-linecap:square;stroke-width:1.5;"/>
   </g>
   <g id="line2d_18">
    <path clip-path="url(#p55cea1a510)" d="M 69.012273 220.225324 
L 71.447477 168.314192 
L 73.882682 118.914062 
L 76.317886 108.152623 
L 78.75309 84.067498 
L 81.188295 76.84196 
L 83.623499 72.332405 
L 86.058703 63.979478 
L 88.493908 52.756835 
L 90.929112 50.040853 
L 93.364317 42.712825 
L 95.799521 40.714272 
L 98.234725 43.276519 
L 100.66993 39.176924 
L 103.105134 38.049535 
L 105.540339 33.181265 
L 107.975543 34.411144 
L 110.410747 33.591224 
L 112.845952 33.386245 
L 115.281156 32.566325 
L 117.716361 33.386245 
L 120.151565 31.900141 
L 122.586769 31.490182 
L 125.021974 29.594118 
L 127.457178 28.671709 
L 129.892383 29.901588 
L 132.327587 31.490182 
L 134.762791 29.286649 
L 137.197996 29.491629 
L 139.6332 29.491629 
L 142.068405 28.26175 
L 144.503609 28.825444 
L 146.938813 28.671709 
L 149.374018 27.903035 
L 151.809222 28.15926 
L 154.244426 30.977732 
L 156.679631 27.441831 
L 159.114835 27.64681 
L 161.55004 27.544321 
L 163.985244 27.698055 
L 166.420448 28.876689 
L 168.855653 28.36424 
L 171.290857 30.004078 
L 173.726062 25.801992 
L 176.161266 29.696608 
L 178.59647 27.031871 
L 181.031675 27.031871 
L 183.466879 28.15926 
L 185.902084 27.493076 
L 188.337288 27.493076 
L 190.772492 28.108015 
L 193.207697 27.95428 
L 195.642901 28.620464 
L 198.078106 28.876689 
L 200.51331 26.160707 
L 202.948514 28.210505 
L 205.383719 25.904482 
L 207.818923 27.441831 
L 210.254128 26.878136 
L 212.689332 26.109462 
L 215.124536 27.390586 
L 219.994945 27.288096 
L 222.430149 27.85179 
L 224.865354 27.339341 
L 229.735763 29.081669 
L 232.170967 26.314442 
L 234.606171 25.648258 
L 237.041376 26.775646 
L 239.47658 27.236851 
L 241.911785 27.083116 
L 244.346989 25.904482 
L 246.782193 25.801992 
L 249.217398 26.058217 
L 251.652602 28.26175 
L 254.087807 25.494523 
L 256.523011 26.365687 
L 258.958215 27.031871 
L 261.39342 25.238298 
L 263.828624 26.468177 
L 266.263829 25.904482 
L 268.699033 27.134361 
L 271.134237 26.570667 
L 273.569442 28.56922 
L 276.004646 27.64681 
L 278.439851 26.416932 
L 280.875055 25.904482 
L 283.310259 26.775646 
L 285.745464 26.519422 
L 288.180668 25.750747 
L 290.615872 26.929381 
L 293.051077 26.775646 
L 295.486281 25.904482 
L 297.921486 26.775646 
L 300.35669 25.187053 
L 302.791894 26.160707 
L 305.227099 25.392033 
L 307.662303 25.494523 
L 310.097508 26.314442 
L 312.532712 25.648258 
L 314.967916 26.365687 
L 317.403121 25.545768 
L 319.838325 25.853237 
L 322.27353 25.084563 
L 324.708734 25.238298 
L 327.143938 24.930828 
L 329.579143 25.648258 
L 332.014347 25.392033 
L 336.884756 25.494523 
L 339.31996 25.238298 
L 341.755165 25.955727 
L 346.625574 25.340788 
L 349.060778 25.648258 
L 351.495982 26.160707 
L 353.931187 25.084563 
L 356.366391 25.084563 
L 358.801595 25.494523 
L 361.2368 25.084563 
L 366.107209 25.187053 
L 373.412822 24.777093 
L 378.283231 25.084563 
L 380.718435 25.084563 
L 385.588844 24.777093 
L 388.024048 24.930828 
L 390.459253 24.777093 
L 392.894457 25.084563 
L 395.329661 24.930828 
L 397.764866 24.930828 
L 400.20007 24.777093 
L 402.635275 24.777093 
L 405.070479 24.930828 
L 407.505683 24.777093 
L 409.940888 24.930828 
L 412.376092 24.930828 
L 414.811297 24.777093 
L 417.246501 24.930828 
L 419.681705 24.777093 
L 426.987318 24.777093 
L 429.422523 24.930828 
L 431.857727 24.777093 
L 431.857727 24.777093 
" style="fill:none;stroke:#d62728;stroke-linecap:square;stroke-width:1.5;"/>
   </g>
   <g id="line2d_19">
    <path clip-path="url(#p55cea1a510)" d="M 69.012273 180.151775 
L 71.447477 110.81736 
L 73.882682 97.083714 
L 78.75309 72.998589 
L 81.188295 57.522615 
L 86.058703 56.292736 
L 88.493908 50.092098 
L 90.929112 50.245832 
L 93.364317 45.223828 
L 95.799521 38.459494 
L 98.234725 38.664474 
L 100.66993 35.487287 
L 103.105134 35.282308 
L 105.540339 34.872348 
L 107.975543 32.61757 
L 110.410747 33.386245 
L 112.845952 33.23251 
L 115.281156 31.080222 
L 117.716361 32.61757 
L 120.151565 31.848896 
L 122.586769 32.61757 
L 125.021974 29.594118 
L 127.457178 29.799098 
L 129.892383 32.976285 
L 132.327587 29.594118 
L 134.762791 29.235404 
L 139.6332 27.7493 
L 142.068405 29.901588 
L 144.503609 30.721507 
L 146.938813 29.081669 
L 149.374018 27.95428 
L 151.809222 30.260303 
L 154.244426 31.336447 
L 156.679631 27.85179 
L 159.114835 27.903035 
L 161.55004 28.671709 
L 163.985244 29.030424 
L 166.420448 30.004078 
L 168.855653 27.288096 
L 171.290857 28.15926 
L 173.726062 27.083116 
L 176.161266 28.671709 
L 178.59647 26.519422 
L 181.031675 28.15926 
L 183.466879 28.108015 
L 185.902084 28.927934 
L 188.337288 27.698055 
L 190.772492 27.95428 
L 193.207697 27.236851 
L 195.642901 27.339341 
L 198.078106 28.415485 
L 200.51331 26.570667 
L 202.948514 27.134361 
L 205.383719 25.648258 
L 207.818923 27.95428 
L 210.254128 26.570667 
L 212.689332 27.64681 
L 215.124536 28.26175 
L 217.559741 26.519422 
L 219.994945 27.031871 
L 222.430149 25.904482 
L 224.865354 27.339341 
L 227.300558 27.903035 
L 229.735763 27.493076 
L 232.170967 26.006972 
L 234.606171 26.621912 
L 237.041376 25.904482 
L 239.47658 27.7493 
L 241.911785 26.416932 
L 244.346989 25.648258 
L 246.782193 26.673156 
L 249.217398 26.006972 
L 251.652602 26.775646 
L 254.087807 26.826891 
L 256.523011 25.904482 
L 258.958215 27.288096 
L 261.39342 26.211952 
L 263.828624 26.058217 
L 266.263829 26.416932 
L 268.699033 26.621912 
L 271.134237 26.468177 
L 273.569442 27.288096 
L 276.004646 26.314442 
L 278.439851 26.826891 
L 280.875055 26.314442 
L 283.310259 26.775646 
L 285.745464 26.416932 
L 288.180668 26.314442 
L 290.615872 25.955727 
L 293.051077 26.160707 
L 295.486281 25.801992 
L 300.35669 25.494523 
L 302.791894 25.648258 
L 305.227099 25.238298 
L 307.662303 25.494523 
L 310.097508 25.392033 
L 312.532712 24.777093 
L 314.967916 25.750747 
L 317.403121 25.955727 
L 319.838325 25.545768 
L 322.27353 26.416932 
L 324.708734 25.392033 
L 327.143938 24.930828 
L 329.579143 25.904482 
L 332.014347 25.801992 
L 334.449552 24.930828 
L 336.884756 25.597013 
L 339.31996 25.904482 
L 341.755165 25.340788 
L 344.190369 25.084563 
L 346.625574 26.109462 
L 349.060778 25.750747 
L 351.495982 24.930828 
L 353.931187 25.084563 
L 356.366391 25.494523 
L 358.801595 25.648258 
L 361.2368 25.648258 
L 363.672004 26.160707 
L 366.107209 24.930828 
L 370.977617 25.340788 
L 373.412822 25.238298 
L 375.848026 25.494523 
L 378.283231 24.930828 
L 380.718435 25.340788 
L 383.153639 25.084563 
L 385.588844 25.750747 
L 388.024048 25.340788 
L 395.329661 25.238298 
L 397.764866 25.494523 
L 400.20007 25.084563 
L 405.070479 25.084563 
L 407.505683 25.750747 
L 409.940888 25.238298 
L 412.376092 25.238298 
L 414.811297 25.494523 
L 417.246501 25.238298 
L 419.681705 25.238298 
L 422.11691 25.494523 
L 424.552114 25.494523 
L 429.422523 25.238298 
L 431.857727 25.494523 
L 431.857727 25.494523 
" style="fill:none;stroke:#9467bd;stroke-linecap:square;stroke-width:1.5;"/>
   </g>
   <g id="patch_3">
    <path d="M 50.87 303.64 
L 50.87 10.8 
" style="fill:none;stroke:#000000;stroke-linecap:square;stroke-linejoin:miter;stroke-width:0.8;"/>
   </g>
   <g id="patch_4">
    <path d="M 450 303.64 
L 450 10.8 
" style="fill:none;stroke:#000000;stroke-linecap:square;stroke-linejoin:miter;stroke-width:0.8;"/>
   </g>
   <g id="patch_5">
    <path d="M 50.87 303.64 
L 450 303.64 
" style="fill:none;stroke:#000000;stroke-linecap:square;stroke-linejoin:miter;stroke-width:0.8;"/>
   </g>
   <g id="patch_6">
    <path d="M 50.87 10.8 
L 450 10.8 
" style="fill:none;stroke:#000000;stroke-linecap:square;stroke-linejoin:miter;stroke-width:0.8;"/>
   </g>
   <g id="legend_1">
    <g id="patch_7">
     <path d="M 291.78125 298.64 
L 443 298.64 
Q 445 298.64 445 296.64 
L 445 224.249375 
Q 445 222.249375 443 222.249375 
L 291.78125 222.249375 
Q 289.78125 222.249375 289.78125 224.249375 
L 289.78125 296.64 
Q 289.78125 298.64 291.78125 298.64 
z
" style="fill:#ffffff;opacity:0.8;stroke:#cccccc;stroke-linejoin:miter;"/>
    </g>
    <g id="line2d_20">
     <path d="M 293.78125 230.347812 
L 313.78125 230.347812 
" style="fill:none;stroke:#1f77b4;stroke-linecap:square;stroke-width:1.5;"/>
    </g>
    <g id="line2d_21"/>
    <g id="text_17">
     <!-- AllReduce SGD -->
     <g transform="translate(321.78125 233.847812)scale(0.1 -0.1)">
      <defs>
       <path d="M 9.421875 75.984375 
L 18.40625 75.984375 
L 18.40625 0 
L 9.421875 0 
z
" id="DejaVuSans-108"/>
       <path d="M 44.390625 34.1875 
Q 47.5625 33.109375 50.5625 29.59375 
Q 53.5625 26.078125 56.59375 19.921875 
L 66.609375 0 
L 56 0 
L 46.6875 18.703125 
Q 43.0625 26.03125 39.671875 28.421875 
Q 36.28125 30.8125 30.421875 30.8125 
L 19.671875 30.8125 
L 19.671875 0 
L 9.8125 0 
L 9.8125 72.90625 
L 32.078125 72.90625 
Q 44.578125 72.90625 50.734375 67.671875 
Q 56.890625 62.453125 56.890625 51.90625 
Q 56.890625 45.015625 53.6875 40.46875 
Q 50.484375 35.9375 44.390625 34.1875 
z
M 19.671875 64.796875 
L 19.671875 38.921875 
L 32.078125 38.921875 
Q 39.203125 38.921875 42.84375 42.21875 
Q 46.484375 45.515625 46.484375 51.90625 
Q 46.484375 58.296875 42.84375 61.546875 
Q 39.203125 64.796875 32.078125 64.796875 
z
" id="DejaVuSans-82"/>
       <path d="M 45.40625 46.390625 
L 45.40625 75.984375 
L 54.390625 75.984375 
L 54.390625 0 
L 45.40625 0 
L 45.40625 8.203125 
Q 42.578125 3.328125 38.25 0.953125 
Q 33.9375 -1.421875 27.875 -1.421875 
Q 17.96875 -1.421875 11.734375 6.484375 
Q 5.515625 14.40625 5.515625 27.296875 
Q 5.515625 40.1875 11.734375 48.09375 
Q 17.96875 56 27.875 56 
Q 33.9375 56 38.25 53.625 
Q 42.578125 51.265625 45.40625 46.390625 
z
M 14.796875 27.296875 
Q 14.796875 17.390625 18.875 11.75 
Q 22.953125 6.109375 30.078125 6.109375 
Q 37.203125 6.109375 41.296875 11.75 
Q 45.40625 17.390625 45.40625 27.296875 
Q 45.40625 37.203125 41.296875 42.84375 
Q 37.203125 48.484375 30.078125 48.484375 
Q 22.953125 48.484375 18.875 42.84375 
Q 14.796875 37.203125 14.796875 27.296875 
z
" id="DejaVuSans-100"/>
       <path d="M 53.515625 70.515625 
L 53.515625 60.890625 
Q 47.90625 63.578125 42.921875 64.890625 
Q 37.9375 66.21875 33.296875 66.21875 
Q 25.25 66.21875 20.875 63.09375 
Q 16.5 59.96875 16.5 54.203125 
Q 16.5 49.359375 19.40625 46.890625 
Q 22.3125 44.4375 30.421875 42.921875 
L 36.375 41.703125 
Q 47.40625 39.59375 52.65625 34.296875 
Q 57.90625 29 57.90625 20.125 
Q 57.90625 9.515625 50.796875 4.046875 
Q 43.703125 -1.421875 29.984375 -1.421875 
Q 24.8125 -1.421875 18.96875 -0.25 
Q 13.140625 0.921875 6.890625 3.21875 
L 6.890625 13.375 
Q 12.890625 10.015625 18.65625 8.296875 
Q 24.421875 6.59375 29.984375 6.59375 
Q 38.421875 6.59375 43.015625 9.90625 
Q 47.609375 13.234375 47.609375 19.390625 
Q 47.609375 24.75 44.3125 27.78125 
Q 41.015625 30.8125 33.5 32.328125 
L 27.484375 33.5 
Q 16.453125 35.6875 11.515625 40.375 
Q 6.59375 45.0625 6.59375 53.421875 
Q 6.59375 63.09375 13.40625 68.65625 
Q 20.21875 74.21875 32.171875 74.21875 
Q 37.3125 74.21875 42.625 73.28125 
Q 47.953125 72.359375 53.515625 70.515625 
z
" id="DejaVuSans-83"/>
       <path d="M 59.515625 10.40625 
L 59.515625 29.984375 
L 43.40625 29.984375 
L 43.40625 38.09375 
L 69.28125 38.09375 
L 69.28125 6.78125 
Q 63.578125 2.734375 56.6875 0.65625 
Q 49.8125 -1.421875 42 -1.421875 
Q 24.90625 -1.421875 15.25 8.5625 
Q 5.609375 18.5625 5.609375 36.375 
Q 5.609375 54.25 15.25 64.234375 
Q 24.90625 74.21875 42 74.21875 
Q 49.125 74.21875 55.546875 72.453125 
Q 61.96875 70.703125 67.390625 67.28125 
L 67.390625 56.78125 
Q 61.921875 61.421875 55.765625 63.765625 
Q 49.609375 66.109375 42.828125 66.109375 
Q 29.4375 66.109375 22.71875 58.640625 
Q 16.015625 51.171875 16.015625 36.375 
Q 16.015625 21.625 22.71875 14.15625 
Q 29.4375 6.6875 42.828125 6.6875 
Q 48.046875 6.6875 52.140625 7.59375 
Q 56.25 8.5 59.515625 10.40625 
z
" id="DejaVuSans-71"/>
       <path d="M 19.671875 64.796875 
L 19.671875 8.109375 
L 31.59375 8.109375 
Q 46.6875 8.109375 53.6875 14.9375 
Q 60.6875 21.78125 60.6875 36.53125 
Q 60.6875 51.171875 53.6875 57.984375 
Q 46.6875 64.796875 31.59375 64.796875 
z
M 9.8125 72.90625 
L 30.078125 72.90625 
Q 51.265625 72.90625 61.171875 64.09375 
Q 71.09375 55.28125 71.09375 36.53125 
Q 71.09375 17.671875 61.125 8.828125 
Q 51.171875 0 30.078125 0 
L 9.8125 0 
z
" id="DejaVuSans-68"/>
      </defs>
      <use xlink:href="#DejaVuSans-65"/>
      <use x="68.408203" xlink:href="#DejaVuSans-108"/>
      <use x="96.191406" xlink:href="#DejaVuSans-108"/>
      <use x="123.974609" xlink:href="#DejaVuSans-82"/>
      <use x="188.957031" xlink:href="#DejaVuSans-101"/>
      <use x="250.480469" xlink:href="#DejaVuSans-100"/>
      <use x="313.957031" xlink:href="#DejaVuSans-117"/>
      <use x="377.335938" xlink:href="#DejaVuSans-99"/>
      <use x="432.316406" xlink:href="#DejaVuSans-101"/>
      <use x="493.839844" xlink:href="#DejaVuSans-32"/>
      <use x="525.626953" xlink:href="#DejaVuSans-83"/>
      <use x="589.103516" xlink:href="#DejaVuSans-71"/>
      <use x="666.59375" xlink:href="#DejaVuSans-68"/>
     </g>
    </g>
    <g id="line2d_22">
     <path d="M 293.78125 245.025937 
L 313.78125 245.025937 
" style="fill:none;stroke:#ff7f0e;stroke-linecap:square;stroke-width:1.5;"/>
    </g>
    <g id="line2d_23"/>
    <g id="text_18">
     <!-- QSGD-MN-TS (8,12) bits -->
     <g transform="translate(321.78125 248.525937)scale(0.1 -0.1)">
      <defs>
       <path d="M 39.40625 66.21875 
Q 28.65625 66.21875 22.328125 58.203125 
Q 16.015625 50.203125 16.015625 36.375 
Q 16.015625 22.609375 22.328125 14.59375 
Q 28.65625 6.59375 39.40625 6.59375 
Q 50.140625 6.59375 56.421875 14.59375 
Q 62.703125 22.609375 62.703125 36.375 
Q 62.703125 50.203125 56.421875 58.203125 
Q 50.140625 66.21875 39.40625 66.21875 
z
M 53.21875 1.3125 
L 66.21875 -12.890625 
L 54.296875 -12.890625 
L 43.5 -1.21875 
Q 41.890625 -1.3125 41.03125 -1.359375 
Q 40.1875 -1.421875 39.40625 -1.421875 
Q 24.03125 -1.421875 14.8125 8.859375 
Q 5.609375 19.140625 5.609375 36.375 
Q 5.609375 53.65625 14.8125 63.9375 
Q 24.03125 74.21875 39.40625 74.21875 
Q 54.734375 74.21875 63.90625 63.9375 
Q 73.09375 53.65625 73.09375 36.375 
Q 73.09375 23.6875 67.984375 14.640625 
Q 62.890625 5.609375 53.21875 1.3125 
z
" id="DejaVuSans-81"/>
       <path d="M 4.890625 31.390625 
L 31.203125 31.390625 
L 31.203125 23.390625 
L 4.890625 23.390625 
z
" id="DejaVuSans-45"/>
       <path d="M 9.8125 72.90625 
L 24.515625 72.90625 
L 43.109375 23.296875 
L 61.8125 72.90625 
L 76.515625 72.90625 
L 76.515625 0 
L 66.890625 0 
L 66.890625 64.015625 
L 48.09375 14.015625 
L 38.1875 14.015625 
L 19.390625 64.015625 
L 19.390625 0 
L 9.8125 0 
z
" id="DejaVuSans-77"/>
       <path d="M 9.8125 72.90625 
L 23.09375 72.90625 
L 55.421875 11.921875 
L 55.421875 72.90625 
L 64.984375 72.90625 
L 64.984375 0 
L 51.703125 0 
L 19.390625 60.984375 
L 19.390625 0 
L 9.8125 0 
z
" id="DejaVuSans-78"/>
       <path d="M 11.71875 12.40625 
L 22.015625 12.40625 
L 22.015625 4 
L 14.015625 -11.625 
L 7.71875 -11.625 
L 11.71875 4 
z
" id="DejaVuSans-44"/>
       <path d="M 48.6875 27.296875 
Q 48.6875 37.203125 44.609375 42.84375 
Q 40.53125 48.484375 33.40625 48.484375 
Q 26.265625 48.484375 22.1875 42.84375 
Q 18.109375 37.203125 18.109375 27.296875 
Q 18.109375 17.390625 22.1875 11.75 
Q 26.265625 6.109375 33.40625 6.109375 
Q 40.53125 6.109375 44.609375 11.75 
Q 48.6875 17.390625 48.6875 27.296875 
z
M 18.109375 46.390625 
Q 20.953125 51.265625 25.265625 53.625 
Q 29.59375 56 35.59375 56 
Q 45.5625 56 51.78125 48.09375 
Q 58.015625 40.1875 58.015625 27.296875 
Q 58.015625 14.40625 51.78125 6.484375 
Q 45.5625 -1.421875 35.59375 -1.421875 
Q 29.59375 -1.421875 25.265625 0.953125 
Q 20.953125 3.328125 18.109375 8.203125 
L 18.109375 0 
L 9.078125 0 
L 9.078125 75.984375 
L 18.109375 75.984375 
z
" id="DejaVuSans-98"/>
       <path d="M 9.421875 54.6875 
L 18.40625 54.6875 
L 18.40625 0 
L 9.421875 0 
z
M 9.421875 75.984375 
L 18.40625 75.984375 
L 18.40625 64.59375 
L 9.421875 64.59375 
z
" id="DejaVuSans-105"/>
      </defs>
      <use xlink:href="#DejaVuSans-81"/>
      <use x="78.710938" xlink:href="#DejaVuSans-83"/>
      <use x="142.1875" xlink:href="#DejaVuSans-71"/>
      <use x="219.677734" xlink:href="#DejaVuSans-68"/>
      <use x="296.679688" xlink:href="#DejaVuSans-45"/>
      <use x="332.763672" xlink:href="#DejaVuSans-77"/>
      <use x="419.042969" xlink:href="#DejaVuSans-78"/>
      <use x="493.847656" xlink:href="#DejaVuSans-45"/>
      <use x="520.806641" xlink:href="#DejaVuSans-84"/>
      <use x="581.890625" xlink:href="#DejaVuSans-83"/>
      <use x="645.367188" xlink:href="#DejaVuSans-32"/>
      <use x="677.154297" xlink:href="#DejaVuSans-40"/>
      <use x="716.167969" xlink:href="#DejaVuSans-56"/>
      <use x="779.791016" xlink:href="#DejaVuSans-44"/>
      <use x="811.578125" xlink:href="#DejaVuSans-49"/>
      <use x="875.201172" xlink:href="#DejaVuSans-50"/>
      <use x="938.824219" xlink:href="#DejaVuSans-41"/>
      <use x="977.837891" xlink:href="#DejaVuSans-32"/>
      <use x="1009.625" xlink:href="#DejaVuSans-98"/>
      <use x="1073.101562" xlink:href="#DejaVuSans-105"/>
      <use x="1100.884766" xlink:href="#DejaVuSans-116"/>
      <use x="1140.09375" xlink:href="#DejaVuSans-115"/>
     </g>
    </g>
    <g id="line2d_24">
     <path d="M 293.78125 259.704062 
L 313.78125 259.704062 
" style="fill:none;stroke:#2ca02c;stroke-linecap:square;stroke-width:1.5;"/>
    </g>
    <g id="line2d_25"/>
    <g id="text_19">
     <!-- QSGD-MN-TS (6,10) bits -->
     <g transform="translate(321.78125 263.204062)scale(0.1 -0.1)">
      <use xlink:href="#DejaVuSans-81"/>
      <use x="78.710938" xlink:href="#DejaVuSans-83"/>
      <use x="142.1875" xlink:href="#DejaVuSans-71"/>
      <use x="219.677734" xlink:href="#DejaVuSans-68"/>
      <use x="296.679688" xlink:href="#DejaVuSans-45"/>
      <use x="332.763672" xlink:href="#DejaVuSans-77"/>
      <use x="419.042969" xlink:href="#DejaVuSans-78"/>
      <use x="493.847656" xlink:href="#DejaVuSans-45"/>
      <use x="520.806641" xlink:href="#DejaVuSans-84"/>
      <use x="581.890625" xlink:href="#DejaVuSans-83"/>
      <use x="645.367188" xlink:href="#DejaVuSans-32"/>
      <use x="677.154297" xlink:href="#DejaVuSans-40"/>
      <use x="716.167969" xlink:href="#DejaVuSans-54"/>
      <use x="779.791016" xlink:href="#DejaVuSans-44"/>
      <use x="811.578125" xlink:href="#DejaVuSans-49"/>
      <use x="875.201172" xlink:href="#DejaVuSans-48"/>
      <use x="938.824219" xlink:href="#DejaVuSans-41"/>
      <use x="977.837891" xlink:href="#DejaVuSans-32"/>
      <use x="1009.625" xlink:href="#DejaVuSans-98"/>
      <use x="1073.101562" xlink:href="#DejaVuSans-105"/>
      <use x="1100.884766" xlink:href="#DejaVuSans-116"/>
      <use x="1140.09375" xlink:href="#DejaVuSans-115"/>
     </g>
    </g>
    <g id="line2d_26">
     <path d="M 293.78125 274.382187 
L 313.78125 274.382187 
" style="fill:none;stroke:#d62728;stroke-linecap:square;stroke-width:1.5;"/>
    </g>
    <g id="line2d_27"/>
    <g id="text_20">
     <!-- QSGD-MN-TS (4,8) bits -->
     <g transform="translate(321.78125 277.882187)scale(0.1 -0.1)">
      <use xlink:href="#DejaVuSans-81"/>
      <use x="78.710938" xlink:href="#DejaVuSans-83"/>
      <use x="142.1875" xlink:href="#DejaVuSans-71"/>
      <use x="219.677734" xlink:href="#DejaVuSans-68"/>
      <use x="296.679688" xlink:href="#DejaVuSans-45"/>
      <use x="332.763672" xlink:href="#DejaVuSans-77"/>
      <use x="419.042969" xlink:href="#DejaVuSans-78"/>
      <use x="493.847656" xlink:href="#DejaVuSans-45"/>
      <use x="520.806641" xlink:href="#DejaVuSans-84"/>
      <use x="581.890625" xlink:href="#DejaVuSans-83"/>
      <use x="645.367188" xlink:href="#DejaVuSans-32"/>
      <use x="677.154297" xlink:href="#DejaVuSans-40"/>
      <use x="716.167969" xlink:href="#DejaVuSans-52"/>
      <use x="779.791016" xlink:href="#DejaVuSans-44"/>
      <use x="811.578125" xlink:href="#DejaVuSans-56"/>
      <use x="875.201172" xlink:href="#DejaVuSans-41"/>
      <use x="914.214844" xlink:href="#DejaVuSans-32"/>
      <use x="946.001953" xlink:href="#DejaVuSans-98"/>
      <use x="1009.478516" xlink:href="#DejaVuSans-105"/>
      <use x="1037.261719" xlink:href="#DejaVuSans-116"/>
      <use x="1076.470703" xlink:href="#DejaVuSans-115"/>
     </g>
    </g>
    <g id="line2d_28">
     <path d="M 293.78125 289.060312 
L 313.78125 289.060312 
" style="fill:none;stroke:#9467bd;stroke-linecap:square;stroke-width:1.5;"/>
    </g>
    <g id="line2d_29"/>
    <g id="text_21">
     <!-- QSGD-MN-TS (2,6) bits -->
     <g transform="translate(321.78125 292.560312)scale(0.1 -0.1)">
      <use xlink:href="#DejaVuSans-81"/>
      <use x="78.710938" xlink:href="#DejaVuSans-83"/>
      <use x="142.1875" xlink:href="#DejaVuSans-71"/>
      <use x="219.677734" xlink:href="#DejaVuSans-68"/>
      <use x="296.679688" xlink:href="#DejaVuSans-45"/>
      <use x="332.763672" xlink:href="#DejaVuSans-77"/>
      <use x="419.042969" xlink:href="#DejaVuSans-78"/>
      <use x="493.847656" xlink:href="#DejaVuSans-45"/>
      <use x="520.806641" xlink:href="#DejaVuSans-84"/>
      <use x="581.890625" xlink:href="#DejaVuSans-83"/>
      <use x="645.367188" xlink:href="#DejaVuSans-32"/>
      <use x="677.154297" xlink:href="#DejaVuSans-40"/>
      <use x="716.167969" xlink:href="#DejaVuSans-50"/>
      <use x="779.791016" xlink:href="#DejaVuSans-44"/>
      <use x="811.578125" xlink:href="#DejaVuSans-54"/>
      <use x="875.201172" xlink:href="#DejaVuSans-41"/>
      <use x="914.214844" xlink:href="#DejaVuSans-32"/>
      <use x="946.001953" xlink:href="#DejaVuSans-98"/>
      <use x="1009.478516" xlink:href="#DejaVuSans-105"/>
      <use x="1037.261719" xlink:href="#DejaVuSans-116"/>
      <use x="1076.470703" xlink:href="#DejaVuSans-115"/>
     </g>
    </g>
   </g>
  </g>
 </g>
 <defs>
  <clipPath id="p55cea1a510">
   <rect height="292.84" width="399.13" x="50.87" y="10.8"/>
  </clipPath>
 </defs>
</svg>
