<?xml version="1.0" encoding="utf-8" standalone="no"?>
<!DOCTYPE svg PUBLIC "-//W3C//DTD SVG 1.1//EN"
  "http://www.w3.org/Graphics/SVG/1.1/DTD/svg11.dtd">
<!-- Created with matplotlib (https://matplotlib.org/) -->
<svg height="345.6pt" version="1.1" viewBox="0 0 460.8 345.6" width="460.8pt" xmlns="http://www.w3.org/2000/svg" xmlns:xlink="http://www.w3.org/1999/xlink">
 <metadata>
  <rdf:RDF xmlns:cc="http://creativecommons.org/ns#" xmlns:dc="http://purl.org/dc/elements/1.1/" xmlns:rdf="http://www.w3.org/1999/02/22-rdf-syntax-ns#">
   <cc:Work>
    <dc:type rdf:resource="http://purl.org/dc/dcmitype/StillImage"/>
    <dc:date>2021-06-10T08:57:21.477198</dc:date>
    <dc:format>image/svg+xml</dc:format>
    <dc:creator>
     <cc:Agent>
      <dc:title>Matplotlib v3.3.1, https://matplotlib.org/</dc:title>
     </cc:Agent>
    </dc:creator>
   </cc:Work>
  </rdf:RDF>
 </metadata>
 <defs>
  <style type="text/css">*{stroke-linecap:butt;stroke-linejoin:round;}</style>
 </defs>
 <g id="figure_1">
  <g id="patch_1">
   <path d="M 0 345.6 
L 460.8 345.6 
L 460.8 0 
L 0 0 
z
" style="fill:#ffffff;"/>
  </g>
  <g id="axes_1">
   <g id="patch_2">
    <path d="M 47.72 303.64 
L 450 303.64 
L 450 14.76 
L 47.72 14.76 
z
" style="fill:#ffffff;"/>
   </g>
   <g id="PolyCollection_1">
    <path clip-path="url(#p345b802e21)" d="M 66.005455 40.802604 
L 66.005455 41.979646 
L 68.459878 88.835256 
L 70.914301 97.781353 
L 73.368725 104.679396 
L 75.823148 137.331326 
L 78.277572 187.413644 
L 80.731995 210.747209 
L 83.186419 217.046819 
L 85.640842 220.342012 
L 88.095265 217.943777 
L 90.549689 232.784613 
L 93.004112 247.040387 
L 95.458536 248.401217 
L 97.912959 244.612147 
L 100.367383 252.706133 
L 102.821806 249.178948 
L 105.276229 261.045668 
L 107.730653 252.918326 
L 110.185076 258.530559 
L 112.6395 259.887104 
L 115.093923 254.603387 
L 117.548347 251.628373 
L 120.00277 273.554631 
L 122.457193 254.628374 
L 124.911617 260.513619 
L 127.36604 268.696328 
L 129.820464 267.360066 
L 132.274887 263.336193 
L 134.729311 266.840207 
L 137.183734 274.884038 
L 139.638157 271.540501 
L 142.092581 275.373504 
L 144.547004 278.649971 
L 147.001428 269.765859 
L 149.455851 278.424915 
L 151.910275 275.442379 
L 154.364698 279.617393 
L 156.819121 275.108966 
L 159.273545 272.163921 
L 161.727968 273.810945 
L 164.182392 280.528634 
L 166.636815 275.20428 
L 169.091239 281.171338 
L 171.545662 275.302152 
L 174.000085 285.473329 
L 176.454509 278.549751 
L 178.908932 280.372394 
L 181.363356 280.046105 
L 183.817779 278.381856 
L 186.272203 282.357637 
L 188.726626 280.808635 
L 191.181049 283.514675 
L 193.635473 278.759053 
L 196.089896 284.210639 
L 198.54432 288.87576 
L 200.998743 283.989354 
L 203.453167 281.284608 
L 205.90759 288.672529 
L 208.362013 286.928243 
L 210.816437 280.494637 
L 213.27086 288.957053 
L 215.725284 284.022315 
L 218.179707 279.623706 
L 220.634131 284.198743 
L 223.088554 283.593715 
L 225.542977 293.320146 
L 227.997401 290.608574 
L 230.451824 288.021026 
L 232.906248 290.415334 
L 235.360671 286.410395 
L 237.815095 281.789816 
L 240.269518 290.624992 
L 242.723941 290.648159 
L 245.178365 283.061849 
L 247.632788 289.251348 
L 250.087212 287.381949 
L 252.541635 293.429749 
L 254.996059 292.593902 
L 257.450482 290.986944 
L 259.904905 292.699345 
L 262.359329 291.820514 
L 264.813752 292.286056 
L 267.268176 290.71529 
L 269.722599 291.551953 
L 272.177023 288.34608 
L 274.631446 294.023946 
L 277.085869 292.325256 
L 279.540293 289.062324 
L 281.994716 293.844748 
L 284.44914 290.704628 
L 286.903563 293.892858 
L 289.357987 292.171733 
L 291.81241 296.149879 
L 294.266833 293.350941 
L 296.721257 294.501036 
L 299.17568 296.101413 
L 301.630104 295.814309 
L 304.084527 295.777691 
L 306.538951 297.33294 
L 308.993374 296.47463 
L 311.447797 298.976097 
L 313.902221 299.010856 
L 316.356644 298.374279 
L 318.811068 297.417501 
L 321.265491 300.308499 
L 323.719915 300.549981 
L 326.174338 300.84698 
L 328.628761 298.837703 
L 331.083185 301.91931 
L 333.537608 301.929774 
L 335.992032 301.439175 
L 338.446455 302.125021 
L 340.900879 303.263883 
L 343.355302 301.355604 
L 345.809725 302.820925 
L 348.264149 302.384463 
L 350.718572 303.299534 
L 353.172996 302.206533 
L 355.627419 303.078695 
L 358.081843 302.751963 
L 360.536266 302.242961 
L 362.990689 302.533382 
L 365.445113 303.214266 
L 367.899536 302.86998 
L 370.35396 302.754907 
L 372.808383 303.150657 
L 375.262807 303.476913 
L 377.71723 303.549472 
L 380.171653 303.540276 
L 382.626077 303.502376 
L 385.0805 303.489701 
L 387.534924 303.540081 
L 389.989347 303.545249 
L 392.443771 303.601142 
L 394.898194 303.645018 
L 397.352617 303.580732 
L 399.807041 303.591333 
L 402.261464 303.538841 
L 404.715888 303.541157 
L 407.170311 303.546406 
L 409.624735 303.570919 
L 412.079158 303.543187 
L 414.533581 303.616341 
L 416.988005 303.604025 
L 419.442428 303.568074 
L 421.896852 303.56903 
L 424.351275 303.553094 
L 426.805699 303.551858 
L 429.260122 303.596247 
L 431.714545 303.544533 
L 431.714545 303.512843 
L 431.714545 303.512843 
L 429.260122 303.378766 
L 426.805699 303.50521 
L 424.351275 303.488589 
L 421.896852 303.462184 
L 419.442428 303.393914 
L 416.988005 303.376521 
L 414.533581 303.285501 
L 412.079158 303.532416 
L 409.624735 303.415313 
L 407.170311 303.182334 
L 404.715888 303.353191 
L 402.261464 303.445737 
L 399.807041 303.402965 
L 397.352617 303.044686 
L 394.898194 302.131074 
L 392.443771 303.312997 
L 389.989347 302.921924 
L 387.534924 303.446216 
L 385.0805 302.766506 
L 382.626077 303.056262 
L 380.171653 303.257405 
L 377.71723 303.250347 
L 375.262807 302.087378 
L 372.808383 301.070131 
L 370.35396 302.554206 
L 367.899536 300.146818 
L 365.445113 302.226557 
L 362.990689 301.308763 
L 360.536266 299.910054 
L 358.081843 301.709764 
L 355.627419 300.158854 
L 353.172996 299.842454 
L 350.718572 297.444697 
L 348.264149 298.602911 
L 345.809725 300.282798 
L 343.355302 297.341924 
L 340.900879 299.229426 
L 338.446455 298.405865 
L 335.992032 298.717916 
L 333.537608 299.965464 
L 331.083185 298.496616 
L 328.628761 295.098524 
L 326.174338 295.403249 
L 323.719915 296.390005 
L 321.265491 296.126511 
L 318.811068 293.012106 
L 316.356644 295.690307 
L 313.902221 295.632055 
L 311.447797 295.720414 
L 308.993374 291.156453 
L 306.538951 293.488799 
L 304.084527 294.022812 
L 301.630104 294.508097 
L 299.17568 288.426466 
L 296.721257 291.279409 
L 294.266833 289.611231 
L 291.81241 290.54319 
L 289.357987 287.371274 
L 286.903563 290.81275 
L 284.44914 286.017284 
L 281.994716 287.40502 
L 279.540293 282.615473 
L 277.085869 287.561924 
L 274.631446 288.9749 
L 272.177023 285.66194 
L 269.722599 286.351998 
L 267.268176 283.797706 
L 264.813752 287.536239 
L 262.359329 283.637548 
L 259.904905 289.1626 
L 257.450482 283.607864 
L 254.996059 289.084672 
L 252.541635 287.554836 
L 250.087212 280.38017 
L 247.632788 282.079455 
L 245.178365 277.455701 
L 242.723941 284.115914 
L 240.269518 284.720227 
L 237.815095 276.329805 
L 235.360671 282.451951 
L 232.906248 286.013185 
L 230.451824 285.428418 
L 227.997401 282.175091 
L 225.542977 287.681366 
L 223.088554 275.293242 
L 220.634131 278.874718 
L 218.179707 274.399686 
L 215.725284 279.271191 
L 213.27086 287.40376 
L 210.816437 275.994392 
L 208.362013 282.300844 
L 205.90759 281.306969 
L 203.453167 274.538642 
L 200.998743 278.463466 
L 198.54432 284.342354 
L 196.089896 279.534242 
L 193.635473 277.983873 
L 191.181049 275.456916 
L 188.726626 274.56324 
L 186.272203 273.685659 
L 183.817779 272.132095 
L 181.363356 274.287607 
L 178.908932 267.788765 
L 176.454509 274.136442 
L 174.000085 278.90912 
L 171.545662 268.802274 
L 169.091239 279.058461 
L 166.636815 270.073722 
L 164.182392 273.618887 
L 161.727968 270.767425 
L 159.273545 270.084226 
L 156.819121 269.723303 
L 154.364698 270.185643 
L 151.910275 271.477499 
L 149.455851 275.801596 
L 147.001428 264.086712 
L 144.547004 266.977846 
L 142.092581 272.607105 
L 139.638157 266.859674 
L 137.183734 270.856623 
L 134.729311 260.083759 
L 132.274887 254.334585 
L 129.820464 263.07334 
L 127.36604 262.053041 
L 124.911617 257.913213 
L 122.457193 251.453351 
L 120.00277 267.807693 
L 117.548347 243.372096 
L 115.093923 246.242388 
L 112.6395 250.663234 
L 110.185076 251.827944 
L 107.730653 242.815627 
L 105.276229 252.077507 
L 102.821806 244.523818 
L 100.367383 246.99992 
L 97.912959 240.322659 
L 95.458536 239.523949 
L 93.004112 239.271113 
L 90.549689 229.107499 
L 88.095265 207.206411 
L 85.640842 211.533663 
L 83.186419 203.7476 
L 80.731995 196.235134 
L 78.277572 167.886262 
L 75.823148 104.154374 
L 73.368725 81.783691 
L 70.914301 94.143372 
L 68.459878 70.635606 
L 66.005455 40.802604 
z
" style="fill:#1f77b4;fill-opacity:0.25;"/>
   </g>
   <g id="PolyCollection_2">
    <path clip-path="url(#p345b802e21)" d="M 66.005455 37.58734 
L 66.005455 39.59786 
L 68.459878 44.745469 
L 70.914301 57.345674 
L 73.368725 76.585404 
L 75.823148 91.958392 
L 78.277572 113.675515 
L 80.731995 141.244338 
L 83.186419 159.14481 
L 85.640842 179.666569 
L 88.095265 168.165844 
L 90.549689 210.164502 
L 93.004112 216.072086 
L 95.458536 230.441838 
L 97.912959 230.089858 
L 100.367383 240.656809 
L 102.821806 238.785355 
L 105.276229 244.597135 
L 107.730653 238.292374 
L 110.185076 246.495776 
L 112.6395 249.150581 
L 115.093923 244.685772 
L 117.548347 244.309871 
L 120.00277 264.088646 
L 122.457193 249.549444 
L 124.911617 260.428369 
L 127.36604 258.103515 
L 129.820464 259.437961 
L 132.274887 258.102796 
L 134.729311 259.6142 
L 137.183734 269.742383 
L 139.638157 266.355621 
L 142.092581 266.095989 
L 144.547004 273.052994 
L 147.001428 264.445443 
L 149.455851 274.690648 
L 151.910275 276.05375 
L 154.364698 276.315231 
L 156.819121 268.295679 
L 159.273545 268.537166 
L 161.727968 271.939568 
L 164.182392 267.440747 
L 166.636815 272.769632 
L 169.091239 272.666447 
L 171.545662 269.100993 
L 174.000085 276.210582 
L 176.454509 272.117326 
L 178.908932 274.793542 
L 181.363356 276.00829 
L 183.817779 275.985687 
L 186.272203 276.796832 
L 188.726626 281.190701 
L 191.181049 278.891687 
L 193.635473 278.015946 
L 196.089896 281.573235 
L 198.54432 286.167636 
L 200.998743 281.56535 
L 203.453167 279.573787 
L 205.90759 286.306176 
L 208.362013 284.974758 
L 210.816437 276.708647 
L 213.27086 286.949474 
L 215.725284 277.450756 
L 218.179707 278.770961 
L 220.634131 280.186328 
L 223.088554 278.378667 
L 225.542977 291.112517 
L 227.997401 287.368203 
L 230.451824 285.398323 
L 232.906248 291.495535 
L 235.360671 281.408822 
L 237.815095 283.711742 
L 240.269518 287.102658 
L 242.723941 286.107294 
L 245.178365 281.157376 
L 247.632788 288.276196 
L 250.087212 280.899532 
L 252.541635 288.966017 
L 254.996059 289.280701 
L 257.450482 287.531631 
L 259.904905 291.10133 
L 262.359329 285.887047 
L 264.813752 289.407294 
L 267.268176 289.659642 
L 269.722599 289.44814 
L 272.177023 290.200727 
L 274.631446 288.69103 
L 277.085869 290.424706 
L 279.540293 290.792433 
L 281.994716 294.735263 
L 284.44914 292.611551 
L 286.903563 296.28985 
L 289.357987 291.134212 
L 291.81241 294.739225 
L 294.266833 295.398023 
L 296.721257 293.121762 
L 299.17568 292.230446 
L 301.630104 293.880973 
L 304.084527 295.30931 
L 306.538951 296.42965 
L 308.993374 299.304824 
L 311.447797 297.088132 
L 313.902221 298.899692 
L 316.356644 297.396436 
L 318.811068 297.023457 
L 321.265491 299.986874 
L 323.719915 299.201555 
L 326.174338 298.7276 
L 328.628761 298.704139 
L 331.083185 300.234171 
L 333.537608 301.44624 
L 335.992032 300.866296 
L 338.446455 303.11183 
L 340.900879 302.156376 
L 343.355302 300.239247 
L 345.809725 300.434957 
L 348.264149 301.24121 
L 350.718572 301.523165 
L 353.172996 302.625374 
L 355.627419 301.876515 
L 358.081843 302.590712 
L 360.536266 301.966022 
L 362.990689 301.591494 
L 365.445113 303.414579 
L 367.899536 303.488531 
L 370.35396 303.189432 
L 372.808383 303.533594 
L 375.262807 303.466719 
L 377.71723 303.399605 
L 380.171653 303.702913 
L 382.626077 303.562106 
L 385.0805 303.774291 
L 387.534924 303.519394 
L 389.989347 303.662583 
L 392.443771 303.645939 
L 394.898194 303.583898 
L 397.352617 303.437108 
L 399.807041 303.551515 
L 402.261464 303.594595 
L 404.715888 303.594444 
L 407.170311 303.652303 
L 409.624735 303.849976 
L 412.079158 303.649141 
L 414.533581 303.60327 
L 416.988005 303.59749 
L 419.442428 303.600658 
L 421.896852 303.600872 
L 424.351275 303.594982 
L 426.805699 303.614997 
L 429.260122 303.599124 
L 431.714545 303.632619 
L 431.714545 303.289565 
L 431.714545 303.289565 
L 429.260122 302.944129 
L 426.805699 303.510923 
L 424.351275 303.573739 
L 421.896852 303.515107 
L 419.442428 303.026865 
L 416.988005 303.541741 
L 414.533581 303.539212 
L 412.079158 303.151978 
L 409.624735 302.693575 
L 407.170311 303.16096 
L 404.715888 303.449135 
L 402.261464 303.500259 
L 399.807041 303.318236 
L 397.352617 303.241734 
L 394.898194 303.083748 
L 392.443771 302.638656 
L 389.989347 302.607069 
L 387.534924 302.896514 
L 385.0805 301.769436 
L 382.626077 303.259334 
L 380.171653 302.559663 
L 377.71723 301.758536 
L 375.262807 302.685725 
L 372.808383 302.779829 
L 370.35396 302.289564 
L 367.899536 301.884939 
L 365.445113 300.83777 
L 362.990689 300.530489 
L 360.536266 298.00805 
L 358.081843 297.383713 
L 355.627419 297.956326 
L 353.172996 298.22888 
L 350.718572 301.013871 
L 348.264149 295.355132 
L 345.809725 298.500247 
L 343.355302 294.094048 
L 340.900879 300.979085 
L 338.446455 297.287522 
L 335.992032 296.577256 
L 333.537608 299.550479 
L 331.083185 296.410306 
L 328.628761 295.249014 
L 326.174338 295.929417 
L 323.719915 294.425057 
L 321.265491 293.918321 
L 318.811068 290.321284 
L 316.356644 295.246319 
L 313.902221 294.27625 
L 311.447797 294.344374 
L 308.993374 294.354935 
L 306.538951 289.599051 
L 304.084527 289.399119 
L 301.630104 288.057142 
L 299.17568 289.109597 
L 296.721257 287.394521 
L 294.266833 290.342926 
L 291.81241 288.860514 
L 289.357987 286.64279 
L 286.903563 290.398987 
L 284.44914 286.482901 
L 281.994716 286.737372 
L 279.540293 288.632087 
L 277.085869 284.432464 
L 274.631446 285.201325 
L 272.177023 283.434909 
L 269.722599 283.846144 
L 267.268176 283.171982 
L 264.813752 284.620474 
L 262.359329 280.645075 
L 259.904905 283.942032 
L 257.450482 280.679042 
L 254.996059 280.828568 
L 252.541635 283.20265 
L 250.087212 277.874582 
L 247.632788 281.985412 
L 245.178365 272.138174 
L 242.723941 280.046802 
L 240.269518 279.593087 
L 237.815095 272.912698 
L 235.360671 280.107395 
L 232.906248 287.663802 
L 230.451824 282.922373 
L 227.997401 284.405511 
L 225.542977 283.236856 
L 223.088554 270.504692 
L 220.634131 274.299723 
L 218.179707 271.291616 
L 215.725284 268.56073 
L 213.27086 275.328439 
L 210.816437 269.127931 
L 208.362013 278.854756 
L 205.90759 281.286677 
L 203.453167 273.501718 
L 200.998743 277.276471 
L 198.54432 281.848381 
L 196.089896 275.852396 
L 193.635473 271.098743 
L 191.181049 270.634882 
L 188.726626 275.366034 
L 186.272203 270.094835 
L 183.817779 270.161211 
L 181.363356 268.85219 
L 178.908932 268.142951 
L 176.454509 265.831474 
L 174.000085 269.180263 
L 171.545662 264.435617 
L 169.091239 269.908947 
L 166.636815 268.045399 
L 164.182392 256.853959 
L 161.727968 260.084936 
L 159.273545 261.557709 
L 156.819121 259.158652 
L 154.364698 271.383269 
L 151.910275 271.64475 
L 149.455851 272.274368 
L 147.001428 257.38927 
L 144.547004 266.306353 
L 142.092581 260.94082 
L 139.638157 260.613482 
L 137.183734 263.918355 
L 134.729311 254.558422 
L 132.274887 251.172407 
L 129.820464 257.544471 
L 127.36604 251.893888 
L 124.911617 251.464809 
L 122.457193 245.597721 
L 120.00277 259.314595 
L 117.548347 236.539991 
L 115.093923 239.05289 
L 112.6395 240.647791 
L 110.185076 238.585727 
L 107.730653 231.566508 
L 105.276229 239.954002 
L 102.821806 232.043982 
L 100.367383 235.137654 
L 97.912959 222.436223 
L 95.458536 225.243868 
L 93.004112 207.543427 
L 90.549689 204.96516 
L 88.095265 157.636706 
L 85.640842 158.909894 
L 83.186419 136.099652 
L 80.731995 114.595087 
L 78.277572 96.168797 
L 75.823148 76.088596 
L 73.368725 52.959296 
L 70.914301 41.324976 
L 68.459878 39.842281 
L 66.005455 37.58734 
z
" style="fill:#ff7f0e;fill-opacity:0.25;"/>
   </g>
   <g id="PolyCollection_3">
    <path clip-path="url(#p345b802e21)" d="M 66.005455 39.113961 
L 66.005455 39.335089 
L 68.459878 44.946621 
L 70.914301 57.833237 
L 73.368725 87.440323 
L 75.823148 97.072553 
L 78.277572 142.459342 
L 80.731995 172.055502 
L 83.186419 185.646023 
L 85.640842 202.301215 
L 88.095265 199.556572 
L 90.549689 221.305434 
L 93.004112 229.716589 
L 95.458536 235.531099 
L 97.912959 229.633193 
L 100.367383 238.748761 
L 102.821806 237.201463 
L 105.276229 244.278198 
L 107.730653 237.181899 
L 110.185076 246.828589 
L 112.6395 249.644025 
L 115.093923 243.126646 
L 117.548347 238.690998 
L 120.00277 258.342541 
L 122.457193 241.791665 
L 124.911617 255.285873 
L 127.36604 255.388669 
L 129.820464 254.763687 
L 132.274887 251.754013 
L 134.729311 254.508225 
L 137.183734 264.391585 
L 139.638157 261.17323 
L 142.092581 264.26512 
L 144.547004 270.26829 
L 147.001428 260.394204 
L 149.455851 267.501886 
L 151.910275 267.399686 
L 154.364698 269.437146 
L 156.819121 261.485934 
L 159.273545 262.362857 
L 161.727968 262.462023 
L 164.182392 261.745411 
L 166.636815 263.330628 
L 169.091239 271.627967 
L 171.545662 263.97163 
L 174.000085 271.109217 
L 176.454509 264.025841 
L 178.908932 265.7504 
L 181.363356 270.852396 
L 183.817779 265.288456 
L 186.272203 265.352394 
L 188.726626 271.46389 
L 191.181049 273.201787 
L 193.635473 271.434136 
L 196.089896 276.107783 
L 198.54432 275.041669 
L 200.998743 277.713122 
L 203.453167 266.838455 
L 205.90759 279.430842 
L 208.362013 279.469731 
L 210.816437 264.399988 
L 213.27086 280.856777 
L 215.725284 271.576871 
L 218.179707 268.972821 
L 220.634131 273.063357 
L 223.088554 276.462075 
L 225.542977 284.607527 
L 227.997401 280.080931 
L 230.451824 277.946055 
L 232.906248 279.940606 
L 235.360671 272.393566 
L 237.815095 269.904104 
L 240.269518 275.247216 
L 242.723941 279.525818 
L 245.178365 264.318527 
L 247.632788 275.60111 
L 250.087212 273.108877 
L 252.541635 281.215667 
L 254.996059 279.174148 
L 257.450482 277.514827 
L 259.904905 283.485789 
L 262.359329 281.58573 
L 264.813752 283.63134 
L 267.268176 280.82416 
L 269.722599 281.193059 
L 272.177023 276.712228 
L 274.631446 287.701902 
L 277.085869 284.121269 
L 279.540293 285.239215 
L 281.994716 282.185831 
L 284.44914 280.507554 
L 286.903563 286.614018 
L 289.357987 285.898651 
L 291.81241 288.430358 
L 294.266833 285.414676 
L 296.721257 286.604848 
L 299.17568 285.500697 
L 301.630104 288.083293 
L 304.084527 288.40223 
L 306.538951 290.314188 
L 308.993374 291.615115 
L 311.447797 293.253291 
L 313.902221 289.888587 
L 316.356644 290.201045 
L 318.811068 287.237138 
L 321.265491 294.399653 
L 323.719915 294.665746 
L 326.174338 295.357092 
L 328.628761 294.630493 
L 331.083185 294.635412 
L 333.537608 297.775528 
L 335.992032 297.954794 
L 338.446455 299.882922 
L 340.900879 299.31077 
L 343.355302 293.047517 
L 345.809725 295.828291 
L 348.264149 297.896609 
L 350.718572 297.403439 
L 353.172996 298.090461 
L 355.627419 298.029345 
L 358.081843 298.949991 
L 360.536266 297.294472 
L 362.990689 299.270873 
L 365.445113 300.980337 
L 367.899536 302.257609 
L 370.35396 300.854634 
L 372.808383 300.864567 
L 375.262807 301.710159 
L 377.71723 302.632397 
L 380.171653 302.441056 
L 382.626077 303.402606 
L 385.0805 303.018557 
L 387.534924 303.03953 
L 389.989347 302.364164 
L 392.443771 302.724815 
L 394.898194 302.799703 
L 397.352617 302.661264 
L 399.807041 302.836919 
L 402.261464 303.519469 
L 404.715888 302.683195 
L 407.170311 302.183667 
L 409.624735 303.492923 
L 412.079158 303.395228 
L 414.533581 303.369144 
L 416.988005 303.486402 
L 419.442428 303.398562 
L 421.896852 303.386261 
L 424.351275 303.387943 
L 426.805699 303.408028 
L 429.260122 303.282669 
L 431.714545 303.342282 
L 431.714545 302.511655 
L 431.714545 302.511655 
L 429.260122 302.91002 
L 426.805699 302.412431 
L 424.351275 302.92548 
L 421.896852 302.764993 
L 419.442428 302.556846 
L 416.988005 303.178159 
L 414.533581 302.705235 
L 412.079158 302.904398 
L 409.624735 303.011276 
L 407.170311 298.991133 
L 404.715888 300.678305 
L 402.261464 301.387109 
L 399.807041 301.485781 
L 397.352617 300.707642 
L 394.898194 302.059093 
L 392.443771 301.048213 
L 389.989347 300.001491 
L 387.534924 299.690839 
L 385.0805 299.925599 
L 382.626077 301.389982 
L 380.171653 299.997947 
L 377.71723 301.589714 
L 375.262807 301.22042 
L 372.808383 298.495212 
L 370.35396 296.631939 
L 367.899536 299.274413 
L 365.445113 299.655987 
L 362.990689 296.305819 
L 360.536266 291.941812 
L 358.081843 294.043991 
L 355.627419 292.109689 
L 353.172996 292.793342 
L 350.718572 295.929073 
L 348.264149 291.936337 
L 345.809725 291.371163 
L 343.355302 287.629569 
L 340.900879 295.887896 
L 338.446455 292.431881 
L 335.992032 293.184318 
L 333.537608 291.431134 
L 331.083185 291.686682 
L 328.628761 290.644976 
L 326.174338 288.832255 
L 323.719915 290.716924 
L 321.265491 288.579446 
L 318.811068 283.340432 
L 316.356644 285.293691 
L 313.902221 286.167548 
L 311.447797 284.244422 
L 308.993374 284.401524 
L 306.538951 285.047958 
L 304.084527 283.537928 
L 301.630104 283.487302 
L 299.17568 277.132673 
L 296.721257 281.845617 
L 294.266833 279.678688 
L 291.81241 282.63244 
L 289.357987 278.686916 
L 286.903563 281.593834 
L 284.44914 273.961571 
L 281.994716 271.386186 
L 279.540293 277.140257 
L 277.085869 277.936598 
L 274.631446 280.184344 
L 272.177023 271.099116 
L 269.722599 275.442666 
L 267.268176 272.747858 
L 264.813752 278.4096 
L 262.359329 275.461874 
L 259.904905 279.266067 
L 257.450482 267.695469 
L 254.996059 271.920949 
L 252.541635 273.49043 
L 250.087212 270.40312 
L 247.632788 270.540146 
L 245.178365 261.161039 
L 242.723941 270.474694 
L 240.269518 271.068948 
L 237.815095 265.347731 
L 235.360671 268.398897 
L 232.906248 276.057551 
L 230.451824 271.185561 
L 227.997401 272.10875 
L 225.542977 279.363042 
L 223.088554 271.29849 
L 220.634131 267.729105 
L 218.179707 265.850208 
L 215.725284 265.017804 
L 213.27086 270.537356 
L 210.816437 258.337474 
L 208.362013 271.247339 
L 205.90759 275.608144 
L 203.453167 262.759907 
L 200.998743 273.077297 
L 198.54432 270.241975 
L 196.089896 270.529985 
L 193.635473 264.13366 
L 191.181049 262.75532 
L 188.726626 266.609038 
L 186.272203 256.888556 
L 183.817779 258.904691 
L 181.363356 265.776132 
L 178.908932 256.152019 
L 176.454509 259.964187 
L 174.000085 267.877746 
L 171.545662 255.899602 
L 169.091239 261.85222 
L 166.636815 256.382622 
L 164.182392 253.758767 
L 161.727968 256.134074 
L 159.273545 256.142965 
L 156.819121 258.633553 
L 154.364698 265.758267 
L 151.910275 258.903639 
L 149.455851 261.566111 
L 147.001428 252.8531 
L 144.547004 262.049607 
L 142.092581 254.714645 
L 139.638157 258.303048 
L 137.183734 258.864959 
L 134.729311 249.813138 
L 132.274887 246.50764 
L 129.820464 250.923085 
L 127.36604 250.151406 
L 124.911617 248.268152 
L 122.457193 236.598204 
L 120.00277 248.010009 
L 117.548347 233.244209 
L 115.093923 236.820467 
L 112.6395 236.441788 
L 110.185076 242.168593 
L 107.730653 229.517357 
L 105.276229 241.988165 
L 102.821806 232.318887 
L 100.367383 232.893051 
L 97.912959 224.31472 
L 95.458536 226.225601 
L 93.004112 216.016298 
L 90.549689 218.333891 
L 88.095265 188.310041 
L 85.640842 197.684816 
L 83.186419 177.033864 
L 80.731995 151.715861 
L 78.277572 128.185183 
L 75.823148 91.647409 
L 73.368725 81.283727 
L 70.914301 52.753713 
L 68.459878 43.974329 
L 66.005455 39.113961 
z
" style="fill:#2ca02c;fill-opacity:0.25;"/>
   </g>
   <g id="PolyCollection_4">
    <path clip-path="url(#p345b802e21)" d="M 66.005455 16.186791 
L 66.005455 26.964734 
L 68.459878 91.211732 
L 70.914301 119.205376 
L 73.368725 124.253443 
L 75.823148 138.583604 
L 78.277572 175.07014 
L 80.731995 173.30336 
L 83.186419 176.268589 
L 85.640842 177.502523 
L 88.095265 164.720227 
L 90.549689 189.100291 
L 93.004112 166.729738 
L 95.458536 185.847131 
L 97.912959 174.957646 
L 100.367383 183.062965 
L 102.821806 182.986839 
L 105.276229 198.962221 
L 107.730653 185.642675 
L 110.185076 186.252423 
L 112.6395 188.391209 
L 115.093923 180.363132 
L 117.548347 195.224228 
L 120.00277 193.097182 
L 122.457193 182.502315 
L 124.911617 180.496302 
L 127.36604 202.047187 
L 129.820464 196.218136 
L 132.274887 201.56565 
L 134.729311 195.772838 
L 137.183734 204.796177 
L 139.638157 202.02565 
L 142.092581 204.131897 
L 144.547004 206.361786 
L 147.001428 198.69557 
L 149.455851 200.67983 
L 151.910275 208.438359 
L 154.364698 210.7143 
L 156.819121 201.859305 
L 159.273545 197.604044 
L 161.727968 195.272306 
L 164.182392 190.843326 
L 166.636815 199.622681 
L 169.091239 200.602193 
L 171.545662 204.357875 
L 174.000085 208.395637 
L 176.454509 205.626491 
L 178.908932 203.803705 
L 181.363356 205.104601 
L 183.817779 210.51134 
L 186.272203 205.476965 
L 188.726626 212.676786 
L 191.181049 209.07531 
L 193.635473 222.214708 
L 196.089896 210.216643 
L 198.54432 230.091836 
L 200.998743 216.208716 
L 203.453167 213.399772 
L 205.90759 226.008435 
L 208.362013 217.752125 
L 210.816437 209.366583 
L 213.27086 227.375554 
L 215.725284 205.493505 
L 218.179707 213.904793 
L 220.634131 219.55769 
L 223.088554 212.502031 
L 225.542977 233.304289 
L 227.997401 224.557339 
L 230.451824 229.970359 
L 232.906248 229.180008 
L 235.360671 225.564076 
L 237.815095 217.472477 
L 240.269518 222.48669 
L 242.723941 223.820873 
L 245.178365 227.06796 
L 247.632788 234.790187 
L 250.087212 224.021031 
L 252.541635 230.161243 
L 254.996059 230.069669 
L 257.450482 217.750484 
L 259.904905 229.949268 
L 262.359329 227.853181 
L 264.813752 237.203758 
L 267.268176 229.182948 
L 269.722599 239.609514 
L 272.177023 233.496711 
L 274.631446 241.753554 
L 277.085869 247.876839 
L 279.540293 237.155528 
L 281.994716 233.981021 
L 284.44914 231.680977 
L 286.903563 243.256885 
L 289.357987 232.320852 
L 291.81241 240.576324 
L 294.266833 231.690709 
L 296.721257 240.704583 
L 299.17568 235.013797 
L 301.630104 241.905832 
L 304.084527 239.044425 
L 306.538951 245.957484 
L 308.993374 244.317711 
L 311.447797 250.780051 
L 313.902221 252.425312 
L 316.356644 244.689392 
L 318.811068 248.290452 
L 321.265491 252.039765 
L 323.719915 253.759367 
L 326.174338 250.307348 
L 328.628761 250.074503 
L 331.083185 255.915024 
L 333.537608 263.816209 
L 335.992032 253.26056 
L 338.446455 260.879806 
L 340.900879 263.305135 
L 343.355302 248.142541 
L 345.809725 248.828429 
L 348.264149 253.428149 
L 350.718572 258.295436 
L 353.172996 257.300795 
L 355.627419 266.842949 
L 358.081843 257.260712 
L 360.536266 254.121926 
L 362.990689 260.307887 
L 365.445113 260.206516 
L 367.899536 264.881266 
L 370.35396 260.988426 
L 372.808383 258.443721 
L 375.262807 270.122952 
L 377.71723 264.808395 
L 380.171653 260.477813 
L 382.626077 275.119113 
L 385.0805 268.023359 
L 387.534924 261.804347 
L 389.989347 259.952942 
L 392.443771 264.304401 
L 394.898194 262.526237 
L 397.352617 255.644647 
L 399.807041 275.499602 
L 402.261464 261.738092 
L 404.715888 265.024829 
L 407.170311 263.972703 
L 409.624735 266.817104 
L 412.079158 269.339854 
L 414.533581 277.197771 
L 416.988005 277.618964 
L 419.442428 269.888541 
L 421.896852 272.252806 
L 424.351275 271.838622 
L 426.805699 272.232648 
L 429.260122 267.443583 
L 431.714545 262.582252 
L 431.714545 254.445317 
L 431.714545 254.445317 
L 429.260122 259.649649 
L 426.805699 267.758624 
L 424.351275 266.595406 
L 421.896852 266.756725 
L 419.442428 268.105396 
L 416.988005 269.323483 
L 414.533581 270.748985 
L 412.079158 266.352071 
L 409.624735 264.327218 
L 407.170311 257.828156 
L 404.715888 260.996386 
L 402.261464 254.465717 
L 399.807041 265.93607 
L 397.352617 251.046434 
L 394.898194 257.141875 
L 392.443771 259.505078 
L 389.989347 254.772615 
L 387.534924 252.751943 
L 385.0805 263.786741 
L 382.626077 270.830309 
L 380.171653 255.996822 
L 377.71723 259.982824 
L 375.262807 264.587233 
L 372.808383 255.02927 
L 370.35396 257.483542 
L 367.899536 257.912618 
L 365.445113 255.986009 
L 362.990689 255.252713 
L 360.536266 252.828696 
L 358.081843 252.860819 
L 355.627419 262.541011 
L 353.172996 250.236614 
L 350.718572 248.20381 
L 348.264149 248.083404 
L 345.809725 240.21389 
L 343.355302 245.921324 
L 340.900879 254.738027 
L 338.446455 256.802257 
L 335.992032 247.21283 
L 333.537608 256.528966 
L 331.083185 248.372485 
L 328.628761 247.871187 
L 326.174338 247.333664 
L 323.719915 247.707049 
L 321.265491 243.096116 
L 318.811068 243.900207 
L 316.356644 237.78542 
L 313.902221 243.782585 
L 311.447797 243.182255 
L 308.993374 238.518201 
L 306.538951 243.186394 
L 304.084527 232.100875 
L 301.630104 238.921462 
L 299.17568 228.458128 
L 296.721257 227.58577 
L 294.266833 226.206735 
L 291.81241 233.006401 
L 289.357987 227.156404 
L 286.903563 237.254446 
L 284.44914 221.928404 
L 281.994716 230.393654 
L 279.540293 229.634003 
L 277.085869 237.464204 
L 274.631446 235.46274 
L 272.177023 223.610826 
L 269.722599 233.770092 
L 267.268176 227.608627 
L 264.813752 234.302642 
L 262.359329 225.191982 
L 259.904905 220.207094 
L 257.450482 209.814559 
L 254.996059 222.749806 
L 252.541635 225.005382 
L 250.087212 215.482882 
L 247.632788 229.291094 
L 245.178365 216.408053 
L 242.723941 215.931295 
L 240.269518 215.392272 
L 237.815095 206.707254 
L 235.360671 222.696512 
L 232.906248 222.601304 
L 230.451824 225.602504 
L 227.997401 221.739768 
L 225.542977 223.848386 
L 223.088554 201.905432 
L 220.634131 206.156716 
L 218.179707 210.478057 
L 215.725284 198.712882 
L 213.27086 222.57769 
L 210.816437 204.002717 
L 208.362013 209.338975 
L 205.90759 221.281696 
L 203.453167 201.481634 
L 200.998743 213.83889 
L 198.54432 224.533139 
L 196.089896 202.430457 
L 193.635473 210.902248 
L 191.181049 200.705559 
L 188.726626 207.869377 
L 186.272203 192.613292 
L 183.817779 202.49686 
L 181.363356 200.252792 
L 178.908932 196.565995 
L 176.454509 203.545021 
L 174.000085 205.695863 
L 171.545662 191.881744 
L 169.091239 193.470825 
L 166.636815 192.599701 
L 164.182392 177.772142 
L 161.727968 191.330456 
L 159.273545 180.512868 
L 156.819121 194.041782 
L 154.364698 207.326731 
L 151.910275 200.597741 
L 149.455851 197.275014 
L 147.001428 187.816917 
L 144.547004 192.586083 
L 142.092581 191.475797 
L 139.638157 186.360044 
L 137.183734 186.252629 
L 134.729311 187.241493 
L 132.274887 185.127387 
L 129.820464 181.199146 
L 127.36604 192.838307 
L 124.911617 173.336635 
L 122.457193 171.511172 
L 120.00277 181.544143 
L 117.548347 181.335441 
L 115.093923 166.744318 
L 112.6395 174.175835 
L 110.185076 178.458652 
L 107.730653 172.433187 
L 105.276229 189.536316 
L 102.821806 174.005724 
L 100.367383 174.561523 
L 97.912959 161.723042 
L 95.458536 177.238994 
L 93.004112 157.447862 
L 90.549689 178.770409 
L 88.095265 147.857036 
L 85.640842 174.028402 
L 83.186419 168.175749 
L 80.731995 169.200065 
L 78.277572 159.57936 
L 75.823148 126.463871 
L 73.368725 104.90972 
L 70.914301 96.642224 
L 68.459878 81.439281 
L 66.005455 16.186791 
z
" style="fill:#d62728;fill-opacity:0.25;"/>
   </g>
   <g id="matplotlib.axis_1">
    <g id="xtick_1">
     <g id="line2d_1">
      <defs>
       <path d="M 0 0 
L 0 3.5 
" id="me401b02d1e" style="stroke:#000000;stroke-width:0.8;"/>
      </defs>
      <g>
       <use style="stroke:#000000;stroke-width:0.8;" x="66.005455" xlink:href="#me401b02d1e" y="303.64"/>
      </g>
     </g>
     <g id="text_1">
      <!-- 0 -->
      <g transform="translate(62.824205 318.238437)scale(0.1 -0.1)">
       <defs>
        <path d="M 31.78125 66.40625 
Q 24.171875 66.40625 20.328125 58.90625 
Q 16.5 51.421875 16.5 36.375 
Q 16.5 21.390625 20.328125 13.890625 
Q 24.171875 6.390625 31.78125 6.390625 
Q 39.453125 6.390625 43.28125 13.890625 
Q 47.125 21.390625 47.125 36.375 
Q 47.125 51.421875 43.28125 58.90625 
Q 39.453125 66.40625 31.78125 66.40625 
z
M 31.78125 74.21875 
Q 44.046875 74.21875 50.515625 64.515625 
Q 56.984375 54.828125 56.984375 36.375 
Q 56.984375 17.96875 50.515625 8.265625 
Q 44.046875 -1.421875 31.78125 -1.421875 
Q 19.53125 -1.421875 13.0625 8.265625 
Q 6.59375 17.96875 6.59375 36.375 
Q 6.59375 54.828125 13.0625 64.515625 
Q 19.53125 74.21875 31.78125 74.21875 
z
" id="DejaVuSans-48"/>
       </defs>
       <use xlink:href="#DejaVuSans-48"/>
      </g>
     </g>
    </g>
    <g id="xtick_2">
     <g id="line2d_2">
      <g>
       <use style="stroke:#000000;stroke-width:0.8;" x="115.093923" xlink:href="#me401b02d1e" y="303.64"/>
      </g>
     </g>
     <g id="text_2">
      <!-- 20 -->
      <g transform="translate(108.731423 318.238437)scale(0.1 -0.1)">
       <defs>
        <path d="M 19.1875 8.296875 
L 53.609375 8.296875 
L 53.609375 0 
L 7.328125 0 
L 7.328125 8.296875 
Q 12.9375 14.109375 22.625 23.890625 
Q 32.328125 33.6875 34.8125 36.53125 
Q 39.546875 41.84375 41.421875 45.53125 
Q 43.3125 49.21875 43.3125 52.78125 
Q 43.3125 58.59375 39.234375 62.25 
Q 35.15625 65.921875 28.609375 65.921875 
Q 23.96875 65.921875 18.8125 64.3125 
Q 13.671875 62.703125 7.8125 59.421875 
L 7.8125 69.390625 
Q 13.765625 71.78125 18.9375 73 
Q 24.125 74.21875 28.421875 74.21875 
Q 39.75 74.21875 46.484375 68.546875 
Q 53.21875 62.890625 53.21875 53.421875 
Q 53.21875 48.921875 51.53125 44.890625 
Q 49.859375 40.875 45.40625 35.40625 
Q 44.1875 33.984375 37.640625 27.21875 
Q 31.109375 20.453125 19.1875 8.296875 
z
" id="DejaVuSans-50"/>
       </defs>
       <use xlink:href="#DejaVuSans-50"/>
       <use x="63.623047" xlink:href="#DejaVuSans-48"/>
      </g>
     </g>
    </g>
    <g id="xtick_3">
     <g id="line2d_3">
      <g>
       <use style="stroke:#000000;stroke-width:0.8;" x="164.182392" xlink:href="#me401b02d1e" y="303.64"/>
      </g>
     </g>
     <g id="text_3">
      <!-- 40 -->
      <g transform="translate(157.819892 318.238437)scale(0.1 -0.1)">
       <defs>
        <path d="M 37.796875 64.3125 
L 12.890625 25.390625 
L 37.796875 25.390625 
z
M 35.203125 72.90625 
L 47.609375 72.90625 
L 47.609375 25.390625 
L 58.015625 25.390625 
L 58.015625 17.1875 
L 47.609375 17.1875 
L 47.609375 0 
L 37.796875 0 
L 37.796875 17.1875 
L 4.890625 17.1875 
L 4.890625 26.703125 
z
" id="DejaVuSans-52"/>
       </defs>
       <use xlink:href="#DejaVuSans-52"/>
       <use x="63.623047" xlink:href="#DejaVuSans-48"/>
      </g>
     </g>
    </g>
    <g id="xtick_4">
     <g id="line2d_4">
      <g>
       <use style="stroke:#000000;stroke-width:0.8;" x="213.27086" xlink:href="#me401b02d1e" y="303.64"/>
      </g>
     </g>
     <g id="text_4">
      <!-- 60 -->
      <g transform="translate(206.90836 318.238437)scale(0.1 -0.1)">
       <defs>
        <path d="M 33.015625 40.375 
Q 26.375 40.375 22.484375 35.828125 
Q 18.609375 31.296875 18.609375 23.390625 
Q 18.609375 15.53125 22.484375 10.953125 
Q 26.375 6.390625 33.015625 6.390625 
Q 39.65625 6.390625 43.53125 10.953125 
Q 47.40625 15.53125 47.40625 23.390625 
Q 47.40625 31.296875 43.53125 35.828125 
Q 39.65625 40.375 33.015625 40.375 
z
M 52.59375 71.296875 
L 52.59375 62.3125 
Q 48.875 64.0625 45.09375 64.984375 
Q 41.3125 65.921875 37.59375 65.921875 
Q 27.828125 65.921875 22.671875 59.328125 
Q 17.53125 52.734375 16.796875 39.40625 
Q 19.671875 43.65625 24.015625 45.921875 
Q 28.375 48.1875 33.59375 48.1875 
Q 44.578125 48.1875 50.953125 41.515625 
Q 57.328125 34.859375 57.328125 23.390625 
Q 57.328125 12.15625 50.6875 5.359375 
Q 44.046875 -1.421875 33.015625 -1.421875 
Q 20.359375 -1.421875 13.671875 8.265625 
Q 6.984375 17.96875 6.984375 36.375 
Q 6.984375 53.65625 15.1875 63.9375 
Q 23.390625 74.21875 37.203125 74.21875 
Q 40.921875 74.21875 44.703125 73.484375 
Q 48.484375 72.75 52.59375 71.296875 
z
" id="DejaVuSans-54"/>
       </defs>
       <use xlink:href="#DejaVuSans-54"/>
       <use x="63.623047" xlink:href="#DejaVuSans-48"/>
      </g>
     </g>
    </g>
    <g id="xtick_5">
     <g id="line2d_5">
      <g>
       <use style="stroke:#000000;stroke-width:0.8;" x="262.359329" xlink:href="#me401b02d1e" y="303.64"/>
      </g>
     </g>
     <g id="text_5">
      <!-- 80 -->
      <g transform="translate(255.996829 318.238437)scale(0.1 -0.1)">
       <defs>
        <path d="M 31.78125 34.625 
Q 24.75 34.625 20.71875 30.859375 
Q 16.703125 27.09375 16.703125 20.515625 
Q 16.703125 13.921875 20.71875 10.15625 
Q 24.75 6.390625 31.78125 6.390625 
Q 38.8125 6.390625 42.859375 10.171875 
Q 46.921875 13.96875 46.921875 20.515625 
Q 46.921875 27.09375 42.890625 30.859375 
Q 38.875 34.625 31.78125 34.625 
z
M 21.921875 38.8125 
Q 15.578125 40.375 12.03125 44.71875 
Q 8.5 49.078125 8.5 55.328125 
Q 8.5 64.0625 14.71875 69.140625 
Q 20.953125 74.21875 31.78125 74.21875 
Q 42.671875 74.21875 48.875 69.140625 
Q 55.078125 64.0625 55.078125 55.328125 
Q 55.078125 49.078125 51.53125 44.71875 
Q 48 40.375 41.703125 38.8125 
Q 48.828125 37.15625 52.796875 32.3125 
Q 56.78125 27.484375 56.78125 20.515625 
Q 56.78125 9.90625 50.3125 4.234375 
Q 43.84375 -1.421875 31.78125 -1.421875 
Q 19.734375 -1.421875 13.25 4.234375 
Q 6.78125 9.90625 6.78125 20.515625 
Q 6.78125 27.484375 10.78125 32.3125 
Q 14.796875 37.15625 21.921875 38.8125 
z
M 18.3125 54.390625 
Q 18.3125 48.734375 21.84375 45.5625 
Q 25.390625 42.390625 31.78125 42.390625 
Q 38.140625 42.390625 41.71875 45.5625 
Q 45.3125 48.734375 45.3125 54.390625 
Q 45.3125 60.0625 41.71875 63.234375 
Q 38.140625 66.40625 31.78125 66.40625 
Q 25.390625 66.40625 21.84375 63.234375 
Q 18.3125 60.0625 18.3125 54.390625 
z
" id="DejaVuSans-56"/>
       </defs>
       <use xlink:href="#DejaVuSans-56"/>
       <use x="63.623047" xlink:href="#DejaVuSans-48"/>
      </g>
     </g>
    </g>
    <g id="xtick_6">
     <g id="line2d_6">
      <g>
       <use style="stroke:#000000;stroke-width:0.8;" x="311.447797" xlink:href="#me401b02d1e" y="303.64"/>
      </g>
     </g>
     <g id="text_6">
      <!-- 100 -->
      <g transform="translate(301.904047 318.238437)scale(0.1 -0.1)">
       <defs>
        <path d="M 12.40625 8.296875 
L 28.515625 8.296875 
L 28.515625 63.921875 
L 10.984375 60.40625 
L 10.984375 69.390625 
L 28.421875 72.90625 
L 38.28125 72.90625 
L 38.28125 8.296875 
L 54.390625 8.296875 
L 54.390625 0 
L 12.40625 0 
z
" id="DejaVuSans-49"/>
       </defs>
       <use xlink:href="#DejaVuSans-49"/>
       <use x="63.623047" xlink:href="#DejaVuSans-48"/>
       <use x="127.246094" xlink:href="#DejaVuSans-48"/>
      </g>
     </g>
    </g>
    <g id="xtick_7">
     <g id="line2d_7">
      <g>
       <use style="stroke:#000000;stroke-width:0.8;" x="360.536266" xlink:href="#me401b02d1e" y="303.64"/>
      </g>
     </g>
     <g id="text_7">
      <!-- 120 -->
      <g transform="translate(350.992516 318.238437)scale(0.1 -0.1)">
       <use xlink:href="#DejaVuSans-49"/>
       <use x="63.623047" xlink:href="#DejaVuSans-50"/>
       <use x="127.246094" xlink:href="#DejaVuSans-48"/>
      </g>
     </g>
    </g>
    <g id="xtick_8">
     <g id="line2d_8">
      <g>
       <use style="stroke:#000000;stroke-width:0.8;" x="409.624735" xlink:href="#me401b02d1e" y="303.64"/>
      </g>
     </g>
     <g id="text_8">
      <!-- 140 -->
      <g transform="translate(400.080985 318.238437)scale(0.1 -0.1)">
       <use xlink:href="#DejaVuSans-49"/>
       <use x="63.623047" xlink:href="#DejaVuSans-52"/>
       <use x="127.246094" xlink:href="#DejaVuSans-48"/>
      </g>
     </g>
    </g>
    <g id="text_9">
     <!-- Epochs -->
     <g transform="translate(230.944375 331.916562)scale(0.1 -0.1)">
      <defs>
       <path d="M 9.8125 72.90625 
L 55.90625 72.90625 
L 55.90625 64.59375 
L 19.671875 64.59375 
L 19.671875 43.015625 
L 54.390625 43.015625 
L 54.390625 34.71875 
L 19.671875 34.71875 
L 19.671875 8.296875 
L 56.78125 8.296875 
L 56.78125 0 
L 9.8125 0 
z
" id="DejaVuSans-69"/>
       <path d="M 18.109375 8.203125 
L 18.109375 -20.796875 
L 9.078125 -20.796875 
L 9.078125 54.6875 
L 18.109375 54.6875 
L 18.109375 46.390625 
Q 20.953125 51.265625 25.265625 53.625 
Q 29.59375 56 35.59375 56 
Q 45.5625 56 51.78125 48.09375 
Q 58.015625 40.1875 58.015625 27.296875 
Q 58.015625 14.40625 51.78125 6.484375 
Q 45.5625 -1.421875 35.59375 -1.421875 
Q 29.59375 -1.421875 25.265625 0.953125 
Q 20.953125 3.328125 18.109375 8.203125 
z
M 48.6875 27.296875 
Q 48.6875 37.203125 44.609375 42.84375 
Q 40.53125 48.484375 33.40625 48.484375 
Q 26.265625 48.484375 22.1875 42.84375 
Q 18.109375 37.203125 18.109375 27.296875 
Q 18.109375 17.390625 22.1875 11.75 
Q 26.265625 6.109375 33.40625 6.109375 
Q 40.53125 6.109375 44.609375 11.75 
Q 48.6875 17.390625 48.6875 27.296875 
z
" id="DejaVuSans-112"/>
       <path d="M 30.609375 48.390625 
Q 23.390625 48.390625 19.1875 42.75 
Q 14.984375 37.109375 14.984375 27.296875 
Q 14.984375 17.484375 19.15625 11.84375 
Q 23.34375 6.203125 30.609375 6.203125 
Q 37.796875 6.203125 41.984375 11.859375 
Q 46.1875 17.53125 46.1875 27.296875 
Q 46.1875 37.015625 41.984375 42.703125 
Q 37.796875 48.390625 30.609375 48.390625 
z
M 30.609375 56 
Q 42.328125 56 49.015625 48.375 
Q 55.71875 40.765625 55.71875 27.296875 
Q 55.71875 13.875 49.015625 6.21875 
Q 42.328125 -1.421875 30.609375 -1.421875 
Q 18.84375 -1.421875 12.171875 6.21875 
Q 5.515625 13.875 5.515625 27.296875 
Q 5.515625 40.765625 12.171875 48.375 
Q 18.84375 56 30.609375 56 
z
" id="DejaVuSans-111"/>
       <path d="M 48.78125 52.59375 
L 48.78125 44.1875 
Q 44.96875 46.296875 41.140625 47.34375 
Q 37.3125 48.390625 33.40625 48.390625 
Q 24.65625 48.390625 19.8125 42.84375 
Q 14.984375 37.3125 14.984375 27.296875 
Q 14.984375 17.28125 19.8125 11.734375 
Q 24.65625 6.203125 33.40625 6.203125 
Q 37.3125 6.203125 41.140625 7.25 
Q 44.96875 8.296875 48.78125 10.40625 
L 48.78125 2.09375 
Q 45.015625 0.34375 40.984375 -0.53125 
Q 36.96875 -1.421875 32.421875 -1.421875 
Q 20.0625 -1.421875 12.78125 6.34375 
Q 5.515625 14.109375 5.515625 27.296875 
Q 5.515625 40.671875 12.859375 48.328125 
Q 20.21875 56 33.015625 56 
Q 37.15625 56 41.109375 55.140625 
Q 45.0625 54.296875 48.78125 52.59375 
z
" id="DejaVuSans-99"/>
       <path d="M 54.890625 33.015625 
L 54.890625 0 
L 45.90625 0 
L 45.90625 32.71875 
Q 45.90625 40.484375 42.875 44.328125 
Q 39.84375 48.1875 33.796875 48.1875 
Q 26.515625 48.1875 22.3125 43.546875 
Q 18.109375 38.921875 18.109375 30.90625 
L 18.109375 0 
L 9.078125 0 
L 9.078125 75.984375 
L 18.109375 75.984375 
L 18.109375 46.1875 
Q 21.34375 51.125 25.703125 53.5625 
Q 30.078125 56 35.796875 56 
Q 45.21875 56 50.046875 50.171875 
Q 54.890625 44.34375 54.890625 33.015625 
z
" id="DejaVuSans-104"/>
       <path d="M 44.28125 53.078125 
L 44.28125 44.578125 
Q 40.484375 46.53125 36.375 47.5 
Q 32.28125 48.484375 27.875 48.484375 
Q 21.1875 48.484375 17.84375 46.4375 
Q 14.5 44.390625 14.5 40.28125 
Q 14.5 37.15625 16.890625 35.375 
Q 19.28125 33.59375 26.515625 31.984375 
L 29.59375 31.296875 
Q 39.15625 29.25 43.1875 25.515625 
Q 47.21875 21.78125 47.21875 15.09375 
Q 47.21875 7.46875 41.1875 3.015625 
Q 35.15625 -1.421875 24.609375 -1.421875 
Q 20.21875 -1.421875 15.453125 -0.5625 
Q 10.6875 0.296875 5.421875 2 
L 5.421875 11.28125 
Q 10.40625 8.6875 15.234375 7.390625 
Q 20.0625 6.109375 24.8125 6.109375 
Q 31.15625 6.109375 34.5625 8.28125 
Q 37.984375 10.453125 37.984375 14.40625 
Q 37.984375 18.0625 35.515625 20.015625 
Q 33.0625 21.96875 24.703125 23.78125 
L 21.578125 24.515625 
Q 13.234375 26.265625 9.515625 29.90625 
Q 5.8125 33.546875 5.8125 39.890625 
Q 5.8125 47.609375 11.28125 51.796875 
Q 16.75 56 26.8125 56 
Q 31.78125 56 36.171875 55.265625 
Q 40.578125 54.546875 44.28125 53.078125 
z
" id="DejaVuSans-115"/>
      </defs>
      <use xlink:href="#DejaVuSans-69"/>
      <use x="63.183594" xlink:href="#DejaVuSans-112"/>
      <use x="126.660156" xlink:href="#DejaVuSans-111"/>
      <use x="187.841797" xlink:href="#DejaVuSans-99"/>
      <use x="242.822266" xlink:href="#DejaVuSans-104"/>
      <use x="306.201172" xlink:href="#DejaVuSans-115"/>
     </g>
    </g>
   </g>
   <g id="matplotlib.axis_2">
    <g id="ytick_1">
     <g id="line2d_9">
      <defs>
       <path d="M 0 0 
L -3.5 0 
" id="mb7f42c1438" style="stroke:#000000;stroke-width:0.8;"/>
      </defs>
      <g>
       <use style="stroke:#000000;stroke-width:0.8;" x="47.72" xlink:href="#mb7f42c1438" y="303.64"/>
      </g>
     </g>
     <g id="text_10">
      <!-- 0.0 -->
      <g transform="translate(24.816875 307.439219)scale(0.1 -0.1)">
       <defs>
        <path d="M 10.6875 12.40625 
L 21 12.40625 
L 21 0 
L 10.6875 0 
z
" id="DejaVuSans-46"/>
       </defs>
       <use xlink:href="#DejaVuSans-48"/>
       <use x="63.623047" xlink:href="#DejaVuSans-46"/>
       <use x="95.410156" xlink:href="#DejaVuSans-48"/>
      </g>
     </g>
    </g>
    <g id="ytick_2">
     <g id="line2d_10">
      <g>
       <use style="stroke:#000000;stroke-width:0.8;" x="47.72" xlink:href="#mb7f42c1438" y="245.864"/>
      </g>
     </g>
     <g id="text_11">
      <!-- 0.5 -->
      <g transform="translate(24.816875 249.663219)scale(0.1 -0.1)">
       <defs>
        <path d="M 10.796875 72.90625 
L 49.515625 72.90625 
L 49.515625 64.59375 
L 19.828125 64.59375 
L 19.828125 46.734375 
Q 21.96875 47.46875 24.109375 47.828125 
Q 26.265625 48.1875 28.421875 48.1875 
Q 40.625 48.1875 47.75 41.5 
Q 54.890625 34.8125 54.890625 23.390625 
Q 54.890625 11.625 47.5625 5.09375 
Q 40.234375 -1.421875 26.90625 -1.421875 
Q 22.3125 -1.421875 17.546875 -0.640625 
Q 12.796875 0.140625 7.71875 1.703125 
L 7.71875 11.625 
Q 12.109375 9.234375 16.796875 8.0625 
Q 21.484375 6.890625 26.703125 6.890625 
Q 35.15625 6.890625 40.078125 11.328125 
Q 45.015625 15.765625 45.015625 23.390625 
Q 45.015625 31 40.078125 35.4375 
Q 35.15625 39.890625 26.703125 39.890625 
Q 22.75 39.890625 18.8125 39.015625 
Q 14.890625 38.140625 10.796875 36.28125 
z
" id="DejaVuSans-53"/>
       </defs>
       <use xlink:href="#DejaVuSans-48"/>
       <use x="63.623047" xlink:href="#DejaVuSans-46"/>
       <use x="95.410156" xlink:href="#DejaVuSans-53"/>
      </g>
     </g>
    </g>
    <g id="ytick_3">
     <g id="line2d_11">
      <g>
       <use style="stroke:#000000;stroke-width:0.8;" x="47.72" xlink:href="#mb7f42c1438" y="188.088"/>
      </g>
     </g>
     <g id="text_12">
      <!-- 1.0 -->
      <g transform="translate(24.816875 191.887219)scale(0.1 -0.1)">
       <use xlink:href="#DejaVuSans-49"/>
       <use x="63.623047" xlink:href="#DejaVuSans-46"/>
       <use x="95.410156" xlink:href="#DejaVuSans-48"/>
      </g>
     </g>
    </g>
    <g id="ytick_4">
     <g id="line2d_12">
      <g>
       <use style="stroke:#000000;stroke-width:0.8;" x="47.72" xlink:href="#mb7f42c1438" y="130.312"/>
      </g>
     </g>
     <g id="text_13">
      <!-- 1.5 -->
      <g transform="translate(24.816875 134.111219)scale(0.1 -0.1)">
       <use xlink:href="#DejaVuSans-49"/>
       <use x="63.623047" xlink:href="#DejaVuSans-46"/>
       <use x="95.410156" xlink:href="#DejaVuSans-53"/>
      </g>
     </g>
    </g>
    <g id="ytick_5">
     <g id="line2d_13">
      <g>
       <use style="stroke:#000000;stroke-width:0.8;" x="47.72" xlink:href="#mb7f42c1438" y="72.536"/>
      </g>
     </g>
     <g id="text_14">
      <!-- 2.0 -->
      <g transform="translate(24.816875 76.335219)scale(0.1 -0.1)">
       <use xlink:href="#DejaVuSans-50"/>
       <use x="63.623047" xlink:href="#DejaVuSans-46"/>
       <use x="95.410156" xlink:href="#DejaVuSans-48"/>
      </g>
     </g>
    </g>
    <g id="ytick_6">
     <g id="line2d_14">
      <g>
       <use style="stroke:#000000;stroke-width:0.8;" x="47.72" xlink:href="#mb7f42c1438" y="14.76"/>
      </g>
     </g>
     <g id="text_15">
      <!-- 2.5 -->
      <g transform="translate(24.816875 18.559219)scale(0.1 -0.1)">
       <use xlink:href="#DejaVuSans-50"/>
       <use x="63.623047" xlink:href="#DejaVuSans-46"/>
       <use x="95.410156" xlink:href="#DejaVuSans-53"/>
      </g>
     </g>
    </g>
    <g id="text_16">
     <!-- Loss -->
     <g transform="translate(18.737188 170.167187)rotate(-90)scale(0.1 -0.1)">
      <defs>
       <path d="M 9.8125 72.90625 
L 19.671875 72.90625 
L 19.671875 8.296875 
L 55.171875 8.296875 
L 55.171875 0 
L 9.8125 0 
z
" id="DejaVuSans-76"/>
      </defs>
      <use xlink:href="#DejaVuSans-76"/>
      <use x="53.962891" xlink:href="#DejaVuSans-111"/>
      <use x="115.144531" xlink:href="#DejaVuSans-115"/>
      <use x="167.244141" xlink:href="#DejaVuSans-115"/>
     </g>
    </g>
   </g>
   <g id="line2d_15">
    <path clip-path="url(#p345b802e21)" d="M 66.005455 41.391125 
L 68.459878 79.735431 
L 70.914301 95.962362 
L 73.368725 93.231544 
L 75.823148 120.74285 
L 78.277572 177.649953 
L 80.731995 203.491172 
L 83.186419 210.397209 
L 85.640842 215.937837 
L 88.095265 212.575094 
L 90.549689 230.946056 
L 93.004112 243.15575 
L 95.458536 243.962583 
L 97.912959 242.467403 
L 100.367383 249.853027 
L 102.821806 246.851383 
L 105.276229 256.561587 
L 107.730653 247.866977 
L 110.185076 255.179252 
L 112.6395 255.275169 
L 115.093923 250.422887 
L 117.548347 247.500234 
L 120.00277 270.681162 
L 122.457193 253.040863 
L 127.36604 265.374684 
L 129.820464 265.216703 
L 132.274887 258.835389 
L 134.729311 263.461983 
L 137.183734 272.87033 
L 139.638157 269.200087 
L 142.092581 273.990305 
L 144.547004 272.813909 
L 147.001428 266.926286 
L 149.455851 277.113255 
L 151.910275 273.459939 
L 154.364698 274.901518 
L 156.819121 272.416134 
L 159.273545 271.124073 
L 161.727968 272.289185 
L 164.182392 277.07376 
L 166.636815 272.639001 
L 169.091239 280.114899 
L 171.545662 272.052213 
L 174.000085 282.191224 
L 176.454509 276.343097 
L 178.908932 274.08058 
L 181.363356 277.166856 
L 183.817779 275.256976 
L 186.272203 278.021648 
L 188.726626 277.685937 
L 191.181049 279.485795 
L 193.635473 278.371463 
L 196.089896 281.872441 
L 198.54432 286.609057 
L 200.998743 281.22641 
L 203.453167 277.911625 
L 205.90759 284.989749 
L 208.362013 284.614544 
L 210.816437 278.244514 
L 213.27086 288.180406 
L 215.725284 281.646753 
L 218.179707 277.011696 
L 220.634131 281.53673 
L 223.088554 279.443479 
L 225.542977 290.500756 
L 227.997401 286.391833 
L 230.451824 286.724722 
L 232.906248 288.214259 
L 235.360671 284.431173 
L 237.815095 279.05981 
L 240.269518 287.672609 
L 242.723941 287.382037 
L 245.178365 280.258775 
L 247.632788 285.665401 
L 250.087212 283.881059 
L 252.541635 290.492293 
L 254.996059 290.839287 
L 257.450482 287.297404 
L 259.904905 290.930973 
L 262.359329 287.729031 
L 264.813752 289.911147 
L 267.268176 287.256498 
L 269.722599 288.951975 
L 272.177023 287.00401 
L 274.631446 291.499423 
L 277.085869 289.94359 
L 279.540293 285.838898 
L 281.994716 290.624884 
L 284.44914 288.360956 
L 286.903563 292.352804 
L 289.357987 289.771503 
L 291.81241 293.346534 
L 294.266833 291.481086 
L 296.721257 292.890222 
L 299.17568 292.263939 
L 301.630104 295.161203 
L 304.084527 294.900252 
L 306.538951 295.41087 
L 308.993374 293.815541 
L 311.447797 297.348256 
L 313.902221 297.321455 
L 316.356644 297.032293 
L 318.811068 295.214804 
L 321.265491 298.217505 
L 323.719915 298.469993 
L 326.174338 298.125114 
L 328.628761 296.968113 
L 331.083185 300.207963 
L 333.537608 300.947619 
L 335.992032 300.078545 
L 338.446455 300.265443 
L 340.900879 301.246655 
L 343.355302 299.348764 
L 345.809725 301.551862 
L 348.264149 300.493687 
L 350.718572 300.372116 
L 358.081843 302.230864 
L 360.536266 301.076507 
L 365.445113 302.720412 
L 367.899536 301.508399 
L 370.35396 302.654557 
L 372.808383 302.110394 
L 377.71723 303.399909 
L 380.171653 303.398841 
L 385.0805 303.128104 
L 387.534924 303.493149 
L 389.989347 303.233586 
L 392.443771 303.45707 
L 394.898194 302.888046 
L 397.352617 303.312709 
L 399.807041 303.497149 
L 404.715888 303.447174 
L 407.170311 303.36437 
L 412.079158 303.537801 
L 414.533581 303.450921 
L 424.351275 303.520842 
L 431.714545 303.528688 
L 431.714545 303.528688 
" style="fill:none;stroke:#1f77b4;stroke-linecap:square;stroke-width:1.5;"/>
   </g>
   <g id="line2d_16">
    <path clip-path="url(#p345b802e21)" d="M 66.005455 38.5926 
L 68.459878 42.293875 
L 70.914301 49.335325 
L 73.368725 64.77235 
L 75.823148 84.023494 
L 78.277572 104.922156 
L 80.731995 127.919712 
L 83.186419 147.622231 
L 85.640842 169.288231 
L 88.095265 162.901275 
L 90.549689 207.564831 
L 93.004112 211.807756 
L 95.458536 227.842853 
L 97.912959 226.263041 
L 100.367383 237.897231 
L 102.821806 235.414669 
L 105.276229 242.275569 
L 107.730653 234.929441 
L 110.185076 242.540752 
L 112.6395 244.899186 
L 115.093923 241.869331 
L 117.548347 240.424931 
L 120.00277 261.70162 
L 122.457193 247.573583 
L 124.911617 255.946589 
L 127.36604 254.998702 
L 129.820464 258.491216 
L 132.274887 254.637602 
L 134.729311 257.086311 
L 137.183734 266.830369 
L 139.638157 263.484552 
L 142.092581 263.518405 
L 144.547004 269.679673 
L 147.001428 260.917356 
L 149.455851 273.482508 
L 151.910275 273.84925 
L 154.364698 273.84925 
L 156.819121 263.727166 
L 159.273545 265.047438 
L 161.727968 266.012252 
L 164.182392 262.147353 
L 166.636815 270.407516 
L 169.091239 271.287697 
L 171.545662 266.768305 
L 174.000085 272.695423 
L 176.454509 268.9744 
L 178.908932 271.468247 
L 181.363356 272.43024 
L 183.817779 273.073449 
L 186.272203 273.445834 
L 188.726626 278.278367 
L 191.181049 274.763284 
L 193.635473 274.557345 
L 196.089896 278.712816 
L 198.54432 284.008009 
L 200.998743 279.42091 
L 203.453167 276.537752 
L 205.90759 283.796427 
L 208.362013 281.914757 
L 210.816437 272.918289 
L 213.27086 281.138956 
L 215.725284 273.005743 
L 218.179707 275.031288 
L 220.634131 277.243026 
L 223.088554 274.44168 
L 225.542977 287.174686 
L 227.997401 285.886857 
L 230.451824 284.160348 
L 232.906248 289.579669 
L 235.360671 280.758109 
L 237.815095 278.31222 
L 240.269518 283.347873 
L 242.723941 283.077048 
L 245.178365 276.647775 
L 247.632788 285.130804 
L 250.087212 279.387057 
L 252.541635 286.084334 
L 257.450482 284.105336 
L 259.904905 287.521681 
L 262.359329 283.266061 
L 264.813752 287.013884 
L 267.268176 286.415812 
L 272.177023 286.817818 
L 274.631446 286.946178 
L 277.085869 287.428585 
L 279.540293 289.71226 
L 281.994716 290.736317 
L 284.44914 289.547226 
L 286.903563 293.344418 
L 289.357987 288.888501 
L 291.81241 291.79987 
L 294.266833 292.870475 
L 296.721257 290.258142 
L 299.17568 290.670021 
L 301.630104 290.969057 
L 304.084527 292.354214 
L 306.538951 293.01435 
L 308.993374 296.82988 
L 311.447797 295.716253 
L 313.902221 296.587971 
L 316.356644 296.321378 
L 318.811068 293.672371 
L 321.265491 296.952597 
L 323.719915 296.813306 
L 326.174338 297.328508 
L 328.628761 296.976577 
L 331.083185 298.322238 
L 333.537608 300.498359 
L 335.992032 298.721776 
L 340.900879 301.56773 
L 343.355302 297.166648 
L 345.809725 299.467602 
L 348.264149 298.298171 
L 350.718572 301.268518 
L 353.172996 300.427127 
L 355.627419 299.916421 
L 360.536266 299.987036 
L 365.445113 302.126175 
L 367.899536 302.686735 
L 370.35396 302.739498 
L 372.808383 303.156711 
L 375.262807 303.076222 
L 377.71723 302.57907 
L 380.171653 303.131288 
L 382.626077 303.41072 
L 385.0805 302.771863 
L 387.534924 303.207954 
L 392.443771 303.142297 
L 394.898194 303.333823 
L 399.807041 303.434876 
L 402.261464 303.547427 
L 407.170311 303.406632 
L 409.624735 303.271776 
L 416.988005 303.569616 
L 419.442428 303.313761 
L 421.896852 303.55799 
L 426.805699 303.56296 
L 429.260122 303.271627 
L 431.714545 303.461092 
L 431.714545 303.461092 
" style="fill:none;stroke:#ff7f0e;stroke-linecap:square;stroke-width:1.5;"/>
   </g>
   <g id="line2d_17">
    <path clip-path="url(#p345b802e21)" d="M 66.005455 39.224525 
L 68.459878 44.460475 
L 70.914301 55.293475 
L 73.368725 84.362025 
L 75.823148 94.359981 
L 78.277572 135.322262 
L 80.731995 161.885681 
L 85.640842 199.993016 
L 88.095265 193.933306 
L 90.549689 219.819662 
L 93.004112 222.866444 
L 95.458536 230.87835 
L 97.912959 226.973956 
L 100.367383 235.820906 
L 102.821806 234.760175 
L 105.276229 243.133181 
L 107.730653 233.349628 
L 110.185076 244.498591 
L 112.6395 243.042906 
L 115.093923 239.973556 
L 117.548347 235.967603 
L 120.00277 253.176275 
L 122.457193 239.194934 
L 124.911617 251.777012 
L 127.36604 252.770037 
L 129.820464 252.843386 
L 132.274887 249.130827 
L 134.729311 252.160681 
L 137.183734 261.628272 
L 139.638157 259.738139 
L 142.092581 259.489883 
L 144.547004 266.158948 
L 147.001428 256.623652 
L 149.455851 264.533998 
L 151.910275 263.151662 
L 154.364698 267.597706 
L 156.819121 260.059744 
L 159.273545 259.252911 
L 161.727968 259.298048 
L 164.182392 257.752089 
L 166.636815 259.856625 
L 169.091239 266.740094 
L 171.545662 259.935616 
L 174.000085 269.493481 
L 176.454509 261.995014 
L 178.908932 260.951209 
L 181.363356 268.314264 
L 183.817779 262.096573 
L 186.272203 261.120475 
L 188.726626 269.036464 
L 191.181049 267.978554 
L 193.635473 267.783898 
L 196.089896 273.318884 
L 198.54432 272.641822 
L 200.998743 275.395209 
L 203.453167 264.799181 
L 205.90759 277.519493 
L 208.362013 275.358535 
L 210.816437 261.368731 
L 213.27086 275.697066 
L 215.725284 268.297337 
L 218.179707 267.411514 
L 220.634131 270.396231 
L 223.088554 273.880282 
L 225.542977 281.985284 
L 227.997401 276.094841 
L 230.451824 274.565808 
L 232.906248 277.999079 
L 235.360671 270.396231 
L 237.815095 267.625917 
L 240.269518 273.158082 
L 242.723941 275.000256 
L 245.178365 262.739783 
L 247.632788 273.070628 
L 250.087212 271.755998 
L 252.541635 277.353048 
L 254.996059 275.547548 
L 257.450482 272.605148 
L 259.904905 281.375928 
L 262.359329 278.523802 
L 264.813752 281.02047 
L 267.268176 276.786009 
L 269.722599 278.317862 
L 272.177023 273.905672 
L 274.631446 283.943123 
L 277.085869 281.028934 
L 279.540293 281.189736 
L 281.994716 276.786009 
L 284.44914 277.234562 
L 286.903563 284.103926 
L 289.357987 282.292784 
L 291.81241 285.531399 
L 294.266833 282.546682 
L 296.721257 284.225233 
L 299.17568 281.316685 
L 301.630104 285.785298 
L 304.084527 285.970079 
L 306.538951 287.681073 
L 308.993374 288.00832 
L 311.447797 288.748857 
L 313.902221 288.028067 
L 316.356644 287.747368 
L 318.811068 285.288785 
L 321.265491 291.489549 
L 323.719915 292.691335 
L 326.174338 292.094674 
L 331.083185 293.161047 
L 333.537608 294.603331 
L 335.992032 295.569556 
L 338.446455 296.157401 
L 340.900879 297.599333 
L 343.355302 290.338543 
L 345.809725 293.599727 
L 348.264149 294.916473 
L 350.718572 296.666256 
L 353.172996 295.441902 
L 355.627419 295.069517 
L 358.081843 296.496991 
L 360.536266 294.618142 
L 362.990689 297.788346 
L 365.445113 300.318162 
L 367.899536 300.766011 
L 370.35396 298.743287 
L 372.808383 299.67989 
L 375.262807 301.465289 
L 377.71723 302.111055 
L 380.171653 301.219502 
L 382.626077 302.396294 
L 385.0805 301.472078 
L 389.989347 301.182827 
L 392.443771 301.886514 
L 394.898194 302.429398 
L 397.352617 301.684453 
L 399.807041 302.16135 
L 402.261464 302.453289 
L 404.715888 301.68075 
L 407.170311 300.5874 
L 409.624735 303.2521 
L 414.533581 303.03719 
L 416.988005 303.33228 
L 419.442428 302.977704 
L 424.351275 303.156711 
L 426.805699 302.910229 
L 429.260122 303.096344 
L 431.714545 302.926969 
L 431.714545 302.926969 
" style="fill:none;stroke:#2ca02c;stroke-linecap:square;stroke-width:1.5;"/>
   </g>
   <g id="line2d_18">
    <path clip-path="url(#p345b802e21)" d="M 66.005455 21.575762 
L 68.459878 86.325506 
L 70.914301 107.9238 
L 73.368725 114.581581 
L 75.823148 132.523737 
L 78.277572 167.32475 
L 80.731995 171.251712 
L 83.186419 172.222169 
L 85.640842 175.765462 
L 88.095265 156.288631 
L 90.549689 183.93535 
L 93.004112 162.0888 
L 95.458536 181.543062 
L 97.912959 168.340344 
L 100.367383 178.812244 
L 102.821806 178.496281 
L 105.276229 194.249269 
L 107.730653 179.037931 
L 110.185076 182.355537 
L 112.6395 181.283522 
L 115.093923 173.553725 
L 117.548347 188.279834 
L 120.00277 187.320662 
L 122.457193 177.006744 
L 124.911617 176.916469 
L 127.36604 197.442747 
L 129.820464 188.708641 
L 132.274887 193.346519 
L 134.729311 191.507166 
L 137.183734 195.524403 
L 139.638157 194.192847 
L 142.092581 197.803847 
L 144.547004 199.473934 
L 147.001428 193.256244 
L 151.910275 204.51805 
L 154.364698 209.020516 
L 156.819121 197.950544 
L 159.273545 189.058456 
L 161.727968 193.301381 
L 164.182392 184.307734 
L 166.636815 196.111191 
L 169.091239 197.036509 
L 171.545662 198.119809 
L 174.000085 207.04575 
L 176.454509 204.585756 
L 178.908932 200.18485 
L 181.363356 202.678697 
L 183.817779 206.5041 
L 186.272203 199.045128 
L 188.726626 210.273081 
L 191.181049 204.890434 
L 193.635473 216.558478 
L 196.089896 206.32355 
L 198.54432 227.312487 
L 200.998743 215.023803 
L 203.453167 207.440703 
L 205.90759 223.645066 
L 208.362013 213.54555 
L 210.816437 206.68465 
L 213.27086 224.976622 
L 215.725284 202.103194 
L 218.179707 212.191425 
L 220.634131 212.857203 
L 223.088554 207.203731 
L 225.542977 228.576337 
L 227.997401 223.148553 
L 230.451824 227.786431 
L 235.360671 224.130294 
L 237.815095 212.089866 
L 240.269518 218.939481 
L 242.723941 219.876084 
L 245.178365 221.738006 
L 247.632788 232.040641 
L 250.087212 219.751956 
L 252.541635 227.583312 
L 254.996059 226.409738 
L 257.450482 213.782522 
L 259.904905 225.078181 
L 262.359329 226.522581 
L 264.813752 235.7532 
L 267.268176 228.395787 
L 269.722599 236.689803 
L 272.177023 228.553769 
L 274.631446 238.608147 
L 277.085869 242.670522 
L 279.540293 233.394766 
L 281.994716 232.187337 
L 284.44914 226.804691 
L 286.903563 240.255666 
L 289.357987 229.738628 
L 291.81241 236.791362 
L 294.266833 228.948722 
L 296.721257 234.145177 
L 299.17568 231.735962 
L 301.630104 240.413647 
L 304.084527 235.57265 
L 306.538951 244.571939 
L 308.993374 241.417956 
L 311.447797 246.981153 
L 313.902221 248.103948 
L 316.356644 241.237406 
L 318.811068 246.09533 
L 321.265491 247.567941 
L 323.719915 250.733208 
L 326.174338 248.820506 
L 328.628761 248.972845 
L 331.083185 252.143755 
L 333.537608 260.172587 
L 335.992032 250.236695 
L 338.446455 258.841031 
L 340.900879 259.021581 
L 343.355302 247.031933 
L 345.809725 244.521159 
L 348.264149 250.755777 
L 350.718572 253.249623 
L 353.172996 253.768705 
L 355.627419 264.69198 
L 358.081843 255.060766 
L 360.536266 253.475311 
L 362.990689 257.7803 
L 365.445113 258.096262 
L 367.899536 261.396942 
L 370.35396 259.235984 
L 372.808383 256.736495 
L 375.262807 267.355092 
L 377.71723 262.395609 
L 380.171653 258.237317 
L 382.626077 272.974711 
L 385.0805 265.90505 
L 387.534924 257.278145 
L 389.989347 257.362778 
L 392.443771 261.904739 
L 394.898194 259.834056 
L 397.352617 253.345541 
L 399.807041 270.717836 
L 402.261464 258.101905 
L 404.715888 263.010608 
L 407.170311 260.90043 
L 409.624735 265.572161 
L 412.079158 267.845962 
L 414.533581 273.973378 
L 416.988005 273.471223 
L 419.442428 268.996969 
L 421.896852 269.504766 
L 424.351275 269.217014 
L 426.805699 269.995636 
L 429.260122 263.546616 
L 431.714545 258.513784 
L 431.714545 258.513784 
" style="fill:none;stroke:#d62728;stroke-linecap:square;stroke-width:1.5;"/>
   </g>
   <g id="patch_3">
    <path d="M 47.72 303.64 
L 47.72 14.76 
" style="fill:none;stroke:#000000;stroke-linecap:square;stroke-linejoin:miter;stroke-width:0.8;"/>
   </g>
   <g id="patch_4">
    <path d="M 450 303.64 
L 450 14.76 
" style="fill:none;stroke:#000000;stroke-linecap:square;stroke-linejoin:miter;stroke-width:0.8;"/>
   </g>
   <g id="patch_5">
    <path d="M 47.72 303.64 
L 450 303.64 
" style="fill:none;stroke:#000000;stroke-linecap:square;stroke-linejoin:miter;stroke-width:0.8;"/>
   </g>
   <g id="patch_6">
    <path d="M 47.72 14.76 
L 450 14.76 
" style="fill:none;stroke:#000000;stroke-linecap:square;stroke-linejoin:miter;stroke-width:0.8;"/>
   </g>
   <g id="legend_1">
    <g id="patch_7">
     <path d="M 330.639063 81.4725 
L 443 81.4725 
Q 445 81.4725 445 79.4725 
L 445 21.76 
Q 445 19.76 443 19.76 
L 330.639063 19.76 
Q 328.639063 19.76 328.639063 21.76 
L 328.639063 79.4725 
Q 328.639063 81.4725 330.639063 81.4725 
z
" style="fill:#ffffff;opacity:0.8;stroke:#cccccc;stroke-linejoin:miter;"/>
    </g>
    <g id="line2d_19">
     <path d="M 332.639063 27.858437 
L 352.639063 27.858437 
" style="fill:none;stroke:#1f77b4;stroke-linecap:square;stroke-width:1.5;"/>
    </g>
    <g id="line2d_20"/>
    <g id="text_17">
     <!-- AllReduce SGD -->
     <g transform="translate(360.639063 31.358437)scale(0.1 -0.1)">
      <defs>
       <path d="M 34.1875 63.1875 
L 20.796875 26.90625 
L 47.609375 26.90625 
z
M 28.609375 72.90625 
L 39.796875 72.90625 
L 67.578125 0 
L 57.328125 0 
L 50.6875 18.703125 
L 17.828125 18.703125 
L 11.1875 0 
L 0.78125 0 
z
" id="DejaVuSans-65"/>
       <path d="M 9.421875 75.984375 
L 18.40625 75.984375 
L 18.40625 0 
L 9.421875 0 
z
" id="DejaVuSans-108"/>
       <path d="M 44.390625 34.1875 
Q 47.5625 33.109375 50.5625 29.59375 
Q 53.5625 26.078125 56.59375 19.921875 
L 66.609375 0 
L 56 0 
L 46.6875 18.703125 
Q 43.0625 26.03125 39.671875 28.421875 
Q 36.28125 30.8125 30.421875 30.8125 
L 19.671875 30.8125 
L 19.671875 0 
L 9.8125 0 
L 9.8125 72.90625 
L 32.078125 72.90625 
Q 44.578125 72.90625 50.734375 67.671875 
Q 56.890625 62.453125 56.890625 51.90625 
Q 56.890625 45.015625 53.6875 40.46875 
Q 50.484375 35.9375 44.390625 34.1875 
z
M 19.671875 64.796875 
L 19.671875 38.921875 
L 32.078125 38.921875 
Q 39.203125 38.921875 42.84375 42.21875 
Q 46.484375 45.515625 46.484375 51.90625 
Q 46.484375 58.296875 42.84375 61.546875 
Q 39.203125 64.796875 32.078125 64.796875 
z
" id="DejaVuSans-82"/>
       <path d="M 56.203125 29.59375 
L 56.203125 25.203125 
L 14.890625 25.203125 
Q 15.484375 15.921875 20.484375 11.0625 
Q 25.484375 6.203125 34.421875 6.203125 
Q 39.59375 6.203125 44.453125 7.46875 
Q 49.3125 8.734375 54.109375 11.28125 
L 54.109375 2.78125 
Q 49.265625 0.734375 44.1875 -0.34375 
Q 39.109375 -1.421875 33.890625 -1.421875 
Q 20.796875 -1.421875 13.15625 6.1875 
Q 5.515625 13.8125 5.515625 26.8125 
Q 5.515625 40.234375 12.765625 48.109375 
Q 20.015625 56 32.328125 56 
Q 43.359375 56 49.78125 48.890625 
Q 56.203125 41.796875 56.203125 29.59375 
z
M 47.21875 32.234375 
Q 47.125 39.59375 43.09375 43.984375 
Q 39.0625 48.390625 32.421875 48.390625 
Q 24.90625 48.390625 20.390625 44.140625 
Q 15.875 39.890625 15.1875 32.171875 
z
" id="DejaVuSans-101"/>
       <path d="M 45.40625 46.390625 
L 45.40625 75.984375 
L 54.390625 75.984375 
L 54.390625 0 
L 45.40625 0 
L 45.40625 8.203125 
Q 42.578125 3.328125 38.25 0.953125 
Q 33.9375 -1.421875 27.875 -1.421875 
Q 17.96875 -1.421875 11.734375 6.484375 
Q 5.515625 14.40625 5.515625 27.296875 
Q 5.515625 40.1875 11.734375 48.09375 
Q 17.96875 56 27.875 56 
Q 33.9375 56 38.25 53.625 
Q 42.578125 51.265625 45.40625 46.390625 
z
M 14.796875 27.296875 
Q 14.796875 17.390625 18.875 11.75 
Q 22.953125 6.109375 30.078125 6.109375 
Q 37.203125 6.109375 41.296875 11.75 
Q 45.40625 17.390625 45.40625 27.296875 
Q 45.40625 37.203125 41.296875 42.84375 
Q 37.203125 48.484375 30.078125 48.484375 
Q 22.953125 48.484375 18.875 42.84375 
Q 14.796875 37.203125 14.796875 27.296875 
z
" id="DejaVuSans-100"/>
       <path d="M 8.5 21.578125 
L 8.5 54.6875 
L 17.484375 54.6875 
L 17.484375 21.921875 
Q 17.484375 14.15625 20.5 10.265625 
Q 23.53125 6.390625 29.59375 6.390625 
Q 36.859375 6.390625 41.078125 11.03125 
Q 45.3125 15.671875 45.3125 23.6875 
L 45.3125 54.6875 
L 54.296875 54.6875 
L 54.296875 0 
L 45.3125 0 
L 45.3125 8.40625 
Q 42.046875 3.421875 37.71875 1 
Q 33.40625 -1.421875 27.6875 -1.421875 
Q 18.265625 -1.421875 13.375 4.4375 
Q 8.5 10.296875 8.5 21.578125 
z
M 31.109375 56 
z
" id="DejaVuSans-117"/>
       <path id="DejaVuSans-32"/>
       <path d="M 53.515625 70.515625 
L 53.515625 60.890625 
Q 47.90625 63.578125 42.921875 64.890625 
Q 37.9375 66.21875 33.296875 66.21875 
Q 25.25 66.21875 20.875 63.09375 
Q 16.5 59.96875 16.5 54.203125 
Q 16.5 49.359375 19.40625 46.890625 
Q 22.3125 44.4375 30.421875 42.921875 
L 36.375 41.703125 
Q 47.40625 39.59375 52.65625 34.296875 
Q 57.90625 29 57.90625 20.125 
Q 57.90625 9.515625 50.796875 4.046875 
Q 43.703125 -1.421875 29.984375 -1.421875 
Q 24.8125 -1.421875 18.96875 -0.25 
Q 13.140625 0.921875 6.890625 3.21875 
L 6.890625 13.375 
Q 12.890625 10.015625 18.65625 8.296875 
Q 24.421875 6.59375 29.984375 6.59375 
Q 38.421875 6.59375 43.015625 9.90625 
Q 47.609375 13.234375 47.609375 19.390625 
Q 47.609375 24.75 44.3125 27.78125 
Q 41.015625 30.8125 33.5 32.328125 
L 27.484375 33.5 
Q 16.453125 35.6875 11.515625 40.375 
Q 6.59375 45.0625 6.59375 53.421875 
Q 6.59375 63.09375 13.40625 68.65625 
Q 20.21875 74.21875 32.171875 74.21875 
Q 37.3125 74.21875 42.625 73.28125 
Q 47.953125 72.359375 53.515625 70.515625 
z
" id="DejaVuSans-83"/>
       <path d="M 59.515625 10.40625 
L 59.515625 29.984375 
L 43.40625 29.984375 
L 43.40625 38.09375 
L 69.28125 38.09375 
L 69.28125 6.78125 
Q 63.578125 2.734375 56.6875 0.65625 
Q 49.8125 -1.421875 42 -1.421875 
Q 24.90625 -1.421875 15.25 8.5625 
Q 5.609375 18.5625 5.609375 36.375 
Q 5.609375 54.25 15.25 64.234375 
Q 24.90625 74.21875 42 74.21875 
Q 49.125 74.21875 55.546875 72.453125 
Q 61.96875 70.703125 67.390625 67.28125 
L 67.390625 56.78125 
Q 61.921875 61.421875 55.765625 63.765625 
Q 49.609375 66.109375 42.828125 66.109375 
Q 29.4375 66.109375 22.71875 58.640625 
Q 16.015625 51.171875 16.015625 36.375 
Q 16.015625 21.625 22.71875 14.15625 
Q 29.4375 6.6875 42.828125 6.6875 
Q 48.046875 6.6875 52.140625 7.59375 
Q 56.25 8.5 59.515625 10.40625 
z
" id="DejaVuSans-71"/>
       <path d="M 19.671875 64.796875 
L 19.671875 8.109375 
L 31.59375 8.109375 
Q 46.6875 8.109375 53.6875 14.9375 
Q 60.6875 21.78125 60.6875 36.53125 
Q 60.6875 51.171875 53.6875 57.984375 
Q 46.6875 64.796875 31.59375 64.796875 
z
M 9.8125 72.90625 
L 30.078125 72.90625 
Q 51.265625 72.90625 61.171875 64.09375 
Q 71.09375 55.28125 71.09375 36.53125 
Q 71.09375 17.671875 61.125 8.828125 
Q 51.171875 0 30.078125 0 
L 9.8125 0 
z
" id="DejaVuSans-68"/>
      </defs>
      <use xlink:href="#DejaVuSans-65"/>
      <use x="68.408203" xlink:href="#DejaVuSans-108"/>
      <use x="96.191406" xlink:href="#DejaVuSans-108"/>
      <use x="123.974609" xlink:href="#DejaVuSans-82"/>
      <use x="188.957031" xlink:href="#DejaVuSans-101"/>
      <use x="250.480469" xlink:href="#DejaVuSans-100"/>
      <use x="313.957031" xlink:href="#DejaVuSans-117"/>
      <use x="377.335938" xlink:href="#DejaVuSans-99"/>
      <use x="432.316406" xlink:href="#DejaVuSans-101"/>
      <use x="493.839844" xlink:href="#DejaVuSans-32"/>
      <use x="525.626953" xlink:href="#DejaVuSans-83"/>
      <use x="589.103516" xlink:href="#DejaVuSans-71"/>
      <use x="666.59375" xlink:href="#DejaVuSans-68"/>
     </g>
    </g>
    <g id="line2d_21">
     <path d="M 332.639063 42.536563 
L 352.639063 42.536563 
" style="fill:none;stroke:#ff7f0e;stroke-linecap:square;stroke-width:1.5;"/>
    </g>
    <g id="line2d_22"/>
    <g id="text_18">
     <!-- QSGD-MN 8 bits -->
     <g transform="translate(360.639063 46.036563)scale(0.1 -0.1)">
      <defs>
       <path d="M 39.40625 66.21875 
Q 28.65625 66.21875 22.328125 58.203125 
Q 16.015625 50.203125 16.015625 36.375 
Q 16.015625 22.609375 22.328125 14.59375 
Q 28.65625 6.59375 39.40625 6.59375 
Q 50.140625 6.59375 56.421875 14.59375 
Q 62.703125 22.609375 62.703125 36.375 
Q 62.703125 50.203125 56.421875 58.203125 
Q 50.140625 66.21875 39.40625 66.21875 
z
M 53.21875 1.3125 
L 66.21875 -12.890625 
L 54.296875 -12.890625 
L 43.5 -1.21875 
Q 41.890625 -1.3125 41.03125 -1.359375 
Q 40.1875 -1.421875 39.40625 -1.421875 
Q 24.03125 -1.421875 14.8125 8.859375 
Q 5.609375 19.140625 5.609375 36.375 
Q 5.609375 53.65625 14.8125 63.9375 
Q 24.03125 74.21875 39.40625 74.21875 
Q 54.734375 74.21875 63.90625 63.9375 
Q 73.09375 53.65625 73.09375 36.375 
Q 73.09375 23.6875 67.984375 14.640625 
Q 62.890625 5.609375 53.21875 1.3125 
z
" id="DejaVuSans-81"/>
       <path d="M 4.890625 31.390625 
L 31.203125 31.390625 
L 31.203125 23.390625 
L 4.890625 23.390625 
z
" id="DejaVuSans-45"/>
       <path d="M 9.8125 72.90625 
L 24.515625 72.90625 
L 43.109375 23.296875 
L 61.8125 72.90625 
L 76.515625 72.90625 
L 76.515625 0 
L 66.890625 0 
L 66.890625 64.015625 
L 48.09375 14.015625 
L 38.1875 14.015625 
L 19.390625 64.015625 
L 19.390625 0 
L 9.8125 0 
z
" id="DejaVuSans-77"/>
       <path d="M 9.8125 72.90625 
L 23.09375 72.90625 
L 55.421875 11.921875 
L 55.421875 72.90625 
L 64.984375 72.90625 
L 64.984375 0 
L 51.703125 0 
L 19.390625 60.984375 
L 19.390625 0 
L 9.8125 0 
z
" id="DejaVuSans-78"/>
       <path d="M 48.6875 27.296875 
Q 48.6875 37.203125 44.609375 42.84375 
Q 40.53125 48.484375 33.40625 48.484375 
Q 26.265625 48.484375 22.1875 42.84375 
Q 18.109375 37.203125 18.109375 27.296875 
Q 18.109375 17.390625 22.1875 11.75 
Q 26.265625 6.109375 33.40625 6.109375 
Q 40.53125 6.109375 44.609375 11.75 
Q 48.6875 17.390625 48.6875 27.296875 
z
M 18.109375 46.390625 
Q 20.953125 51.265625 25.265625 53.625 
Q 29.59375 56 35.59375 56 
Q 45.5625 56 51.78125 48.09375 
Q 58.015625 40.1875 58.015625 27.296875 
Q 58.015625 14.40625 51.78125 6.484375 
Q 45.5625 -1.421875 35.59375 -1.421875 
Q 29.59375 -1.421875 25.265625 0.953125 
Q 20.953125 3.328125 18.109375 8.203125 
L 18.109375 0 
L 9.078125 0 
L 9.078125 75.984375 
L 18.109375 75.984375 
z
" id="DejaVuSans-98"/>
       <path d="M 9.421875 54.6875 
L 18.40625 54.6875 
L 18.40625 0 
L 9.421875 0 
z
M 9.421875 75.984375 
L 18.40625 75.984375 
L 18.40625 64.59375 
L 9.421875 64.59375 
z
" id="DejaVuSans-105"/>
       <path d="M 18.3125 70.21875 
L 18.3125 54.6875 
L 36.8125 54.6875 
L 36.8125 47.703125 
L 18.3125 47.703125 
L 18.3125 18.015625 
Q 18.3125 11.328125 20.140625 9.421875 
Q 21.96875 7.515625 27.59375 7.515625 
L 36.8125 7.515625 
L 36.8125 0 
L 27.59375 0 
Q 17.1875 0 13.234375 3.875 
Q 9.28125 7.765625 9.28125 18.015625 
L 9.28125 47.703125 
L 2.6875 47.703125 
L 2.6875 54.6875 
L 9.28125 54.6875 
L 9.28125 70.21875 
z
" id="DejaVuSans-116"/>
      </defs>
      <use xlink:href="#DejaVuSans-81"/>
      <use x="78.710938" xlink:href="#DejaVuSans-83"/>
      <use x="142.1875" xlink:href="#DejaVuSans-71"/>
      <use x="219.677734" xlink:href="#DejaVuSans-68"/>
      <use x="296.679688" xlink:href="#DejaVuSans-45"/>
      <use x="332.763672" xlink:href="#DejaVuSans-77"/>
      <use x="419.042969" xlink:href="#DejaVuSans-78"/>
      <use x="493.847656" xlink:href="#DejaVuSans-32"/>
      <use x="525.634766" xlink:href="#DejaVuSans-56"/>
      <use x="589.257812" xlink:href="#DejaVuSans-32"/>
      <use x="621.044922" xlink:href="#DejaVuSans-98"/>
      <use x="684.521484" xlink:href="#DejaVuSans-105"/>
      <use x="712.304688" xlink:href="#DejaVuSans-116"/>
      <use x="751.513672" xlink:href="#DejaVuSans-115"/>
     </g>
    </g>
    <g id="line2d_23">
     <path d="M 332.639063 57.214687 
L 352.639063 57.214687 
" style="fill:none;stroke:#2ca02c;stroke-linecap:square;stroke-width:1.5;"/>
    </g>
    <g id="line2d_24"/>
    <g id="text_19">
     <!-- QSGD-MN 4 bits -->
     <g transform="translate(360.639063 60.714687)scale(0.1 -0.1)">
      <use xlink:href="#DejaVuSans-81"/>
      <use x="78.710938" xlink:href="#DejaVuSans-83"/>
      <use x="142.1875" xlink:href="#DejaVuSans-71"/>
      <use x="219.677734" xlink:href="#DejaVuSans-68"/>
      <use x="296.679688" xlink:href="#DejaVuSans-45"/>
      <use x="332.763672" xlink:href="#DejaVuSans-77"/>
      <use x="419.042969" xlink:href="#DejaVuSans-78"/>
      <use x="493.847656" xlink:href="#DejaVuSans-32"/>
      <use x="525.634766" xlink:href="#DejaVuSans-52"/>
      <use x="589.257812" xlink:href="#DejaVuSans-32"/>
      <use x="621.044922" xlink:href="#DejaVuSans-98"/>
      <use x="684.521484" xlink:href="#DejaVuSans-105"/>
      <use x="712.304688" xlink:href="#DejaVuSans-116"/>
      <use x="751.513672" xlink:href="#DejaVuSans-115"/>
     </g>
    </g>
    <g id="line2d_25">
     <path d="M 332.639063 71.892812 
L 352.639063 71.892812 
" style="fill:none;stroke:#d62728;stroke-linecap:square;stroke-width:1.5;"/>
    </g>
    <g id="line2d_26"/>
    <g id="text_20">
     <!-- QSGD-MN 2 bits -->
     <g transform="translate(360.639063 75.392812)scale(0.1 -0.1)">
      <use xlink:href="#DejaVuSans-81"/>
      <use x="78.710938" xlink:href="#DejaVuSans-83"/>
      <use x="142.1875" xlink:href="#DejaVuSans-71"/>
      <use x="219.677734" xlink:href="#DejaVuSans-68"/>
      <use x="296.679688" xlink:href="#DejaVuSans-45"/>
      <use x="332.763672" xlink:href="#DejaVuSans-77"/>
      <use x="419.042969" xlink:href="#DejaVuSans-78"/>
      <use x="493.847656" xlink:href="#DejaVuSans-32"/>
      <use x="525.634766" xlink:href="#DejaVuSans-50"/>
      <use x="589.257812" xlink:href="#DejaVuSans-32"/>
      <use x="621.044922" xlink:href="#DejaVuSans-98"/>
      <use x="684.521484" xlink:href="#DejaVuSans-105"/>
      <use x="712.304688" xlink:href="#DejaVuSans-116"/>
      <use x="751.513672" xlink:href="#DejaVuSans-115"/>
     </g>
    </g>
   </g>
  </g>
 </g>
 <defs>
  <clipPath id="p345b802e21">
   <rect height="288.88" width="402.28" x="47.72" y="14.76"/>
  </clipPath>
 </defs>
</svg>
