<?xml version="1.0" encoding="utf-8" standalone="no"?>
<!DOCTYPE svg PUBLIC "-//W3C//DTD SVG 1.1//EN"
  "http://www.w3.org/Graphics/SVG/1.1/DTD/svg11.dtd">
<!-- Created with matplotlib (https://matplotlib.org/) -->
<svg height="345.6pt" version="1.1" viewBox="0 0 460.8 345.6" width="460.8pt" xmlns="http://www.w3.org/2000/svg" xmlns:xlink="http://www.w3.org/1999/xlink">
 <metadata>
  <rdf:RDF xmlns:cc="http://creativecommons.org/ns#" xmlns:dc="http://purl.org/dc/elements/1.1/" xmlns:rdf="http://www.w3.org/1999/02/22-rdf-syntax-ns#">
   <cc:Work>
    <dc:type rdf:resource="http://purl.org/dc/dcmitype/StillImage"/>
    <dc:date>2021-06-10T08:57:21.982093</dc:date>
    <dc:format>image/svg+xml</dc:format>
    <dc:creator>
     <cc:Agent>
      <dc:title>Matplotlib v3.3.1, https://matplotlib.org/</dc:title>
     </cc:Agent>
    </dc:creator>
   </cc:Work>
  </rdf:RDF>
 </metadata>
 <defs>
  <style type="text/css">*{stroke-linecap:butt;stroke-linejoin:round;}</style>
 </defs>
 <g id="figure_1">
  <g id="patch_1">
   <path d="M 0 345.6 
L 460.8 345.6 
L 460.8 0 
L 0 0 
z
" style="fill:#ffffff;"/>
  </g>
  <g id="axes_1">
   <g id="patch_2">
    <path d="M 47.72 303.64 
L 450 303.64 
L 450 14.76 
L 47.72 14.76 
z
" style="fill:#ffffff;"/>
   </g>
   <g id="PolyCollection_1">
    <path clip-path="url(#p39d2d5987a)" d="M 66.041127 36.705705 
L 66.041127 52.756895 
L 68.373712 76.283789 
L 70.704794 90.849332 
L 73.024979 99.001384 
L 75.336101 117.993606 
L 77.661012 148.26022 
L 79.983089 162.338697 
L 82.308773 172.467608 
L 84.641271 184.658613 
L 86.952497 170.8425 
L 89.269024 200.999982 
L 91.580437 202.858666 
L 93.895465 220.928591 
L 96.219662 221.339344 
L 98.511304 230.577193 
L 100.83907 231.147217 
L 103.147551 245.418758 
L 105.461536 231.678067 
L 107.793689 243.289598 
L 110.108387 243.592336 
L 112.416533 236.957601 
L 114.731027 241.358429 
L 117.064691 254.780084 
L 119.371262 248.134076 
L 121.685153 258.897849 
L 123.985887 256.025969 
L 126.313491 259.807077 
L 128.62335 259.305021 
L 130.936276 263.207871 
L 133.267462 263.50163 
L 135.584308 258.679798 
L 137.905231 263.775357 
L 140.208364 272.363457 
L 142.531104 265.177781 
L 144.853344 281.592939 
L 147.156002 271.593068 
L 149.459192 271.587978 
L 151.80269 265.659388 
L 154.104247 265.452992 
L 156.424972 272.205149 
L 158.736505 270.638349 
L 161.052469 271.025714 
L 163.358515 271.140167 
L 165.659195 271.583867 
L 167.99408 277.745464 
L 170.31822 269.124544 
L 172.636078 267.908454 
L 174.95175 279.132672 
L 177.282888 273.333675 
L 179.617156 275.891027 
L 181.92221 274.514894 
L 184.237512 279.095973 
L 186.546588 274.650874 
L 188.869076 281.540878 
L 191.188944 282.243853 
L 193.507236 282.664729 
L 195.824141 275.066041 
L 198.163848 285.556254 
L 200.462898 284.387465 
L 202.777327 278.18504 
L 205.08904 281.411013 
L 207.403727 277.190988 
L 209.715808 279.965614 
L 212.050698 280.05521 
L 214.35652 280.085236 
L 216.689848 287.704561 
L 219.005794 285.91601 
L 221.308 285.551135 
L 223.628562 282.550617 
L 225.92995 278.432467 
L 228.252428 276.022231 
L 230.565505 283.48046 
L 232.89012 287.658729 
L 235.20199 280.738932 
L 237.517695 285.628669 
L 239.836869 284.425706 
L 242.158656 287.984519 
L 244.468321 288.821359 
L 246.773326 287.306359 
L 249.103206 289.651866 
L 251.417081 290.041378 
L 253.741943 294.595242 
L 256.045492 290.568084 
L 258.356157 289.770772 
L 260.667382 284.134268 
L 262.990418 292.474904 
L 265.317417 290.828825 
L 267.664057 292.027236 
L 269.983762 291.910754 
L 272.310629 287.12802 
L 274.610733 297.155058 
L 276.939739 291.08559 
L 279.277116 297.171884 
L 281.594794 292.860705 
L 283.923813 293.573299 
L 286.239938 296.578327 
L 288.560617 295.532302 
L 290.887841 295.547367 
L 293.205989 292.226036 
L 295.535087 296.219477 
L 297.859568 300.365351 
L 300.183787 297.329727 
L 302.486118 298.5765 
L 304.80596 298.329908 
L 307.123029 297.779101 
L 309.451083 299.484721 
L 311.77604 298.570961 
L 314.084547 299.875423 
L 316.406049 300.576075 
L 318.72438 301.134841 
L 321.071817 298.359225 
L 323.382916 300.016902 
L 325.694466 302.261894 
L 328.006046 302.039859 
L 330.32734 301.852002 
L 332.620631 302.291347 
L 334.946644 302.670829 
L 337.262034 302.802904 
L 339.589609 302.619212 
L 341.906384 302.916903 
L 344.218143 302.844699 
L 346.543072 302.683768 
L 348.85961 303.472301 
L 351.199725 303.832087 
L 353.52513 303.492126 
L 355.842591 303.427211 
L 358.14477 303.584801 
L 360.455732 303.451279 
L 362.77369 303.549949 
L 365.106106 303.523129 
L 367.405246 303.556815 
L 369.725053 303.457428 
L 372.03322 303.527084 
L 374.349639 303.529021 
L 376.664165 303.512329 
L 379.002914 303.598676 
L 381.314861 303.589367 
L 383.644839 303.59475 
L 385.984875 303.569425 
L 388.298395 303.472827 
L 390.61155 303.514348 
L 392.931682 303.647131 
L 395.268171 303.53199 
L 397.584456 303.576429 
L 399.900153 303.574956 
L 402.226006 303.558061 
L 404.552679 303.489432 
L 406.876909 303.547601 
L 409.199275 303.569633 
L 411.513747 303.555699 
L 411.513747 303.387776 
L 411.513747 303.387776 
L 409.199275 303.31235 
L 406.876909 303.483812 
L 404.552679 303.384022 
L 402.226006 303.51115 
L 399.900153 303.527932 
L 397.584456 303.515483 
L 395.268171 303.337387 
L 392.931682 303.164457 
L 390.61155 303.303544 
L 388.298395 303.124028 
L 385.984875 303.424895 
L 383.644839 303.330872 
L 381.314861 303.407763 
L 379.002914 302.871802 
L 376.664165 303.426495 
L 374.349639 303.463801 
L 372.03322 303.343901 
L 369.725053 303.138721 
L 367.405246 303.3227 
L 365.106106 302.921255 
L 362.77369 303.260361 
L 360.455732 303.347857 
L 358.14477 303.064993 
L 355.842591 303.182074 
L 353.52513 302.937006 
L 351.199725 302.184504 
L 348.85961 302.658809 
L 346.543072 301.881105 
L 344.218143 302.022737 
L 341.906384 301.149871 
L 339.589609 301.539776 
L 337.262034 299.232683 
L 334.946644 301.424509 
L 332.620631 299.419813 
L 330.32734 298.859434 
L 328.006046 300.302874 
L 325.694466 301.15356 
L 323.382916 298.567782 
L 321.071817 296.163789 
L 318.72438 299.703896 
L 316.406049 299.08274 
L 314.084547 297.807216 
L 311.77604 296.454207 
L 309.451083 296.13852 
L 307.123029 293.424896 
L 304.80596 294.302973 
L 302.486118 295.296252 
L 300.183787 294.386299 
L 297.859568 297.134623 
L 295.535087 290.813533 
L 293.205989 290.267835 
L 290.887841 288.091867 
L 288.560617 288.673972 
L 286.239938 293.055731 
L 283.923813 288.759769 
L 281.594794 289.777041 
L 279.277116 291.683552 
L 276.939739 285.952285 
L 274.610733 291.340689 
L 272.310629 279.957037 
L 269.983762 287.722527 
L 267.664057 288.048957 
L 265.317417 285.469923 
L 262.990418 288.159866 
L 260.667382 282.347074 
L 258.356157 280.019713 
L 256.045492 286.18486 
L 253.741943 292.990702 
L 251.417081 284.584461 
L 249.103206 284.818813 
L 246.773326 285.087996 
L 244.468321 285.49134 
L 242.158656 285.594695 
L 239.836869 279.426377 
L 237.517695 282.020606 
L 235.20199 269.662176 
L 232.89012 280.678893 
L 230.565505 277.62952 
L 228.252428 270.688886 
L 225.92995 272.939097 
L 223.628562 280.663898 
L 221.308 279.372963 
L 219.005794 280.074462 
L 216.689848 283.877319 
L 214.35652 276.178104 
L 212.050698 269.488286 
L 209.715808 274.125484 
L 207.403727 272.493562 
L 205.08904 273.848019 
L 202.777327 270.991713 
L 200.462898 276.147012 
L 198.163848 278.521516 
L 195.824141 267.644765 
L 193.507236 279.438276 
L 191.188944 277.088838 
L 188.869076 278.124702 
L 186.546588 269.876717 
L 184.237512 272.06683 
L 181.92221 268.568296 
L 179.617156 271.846968 
L 177.282888 268.790344 
L 174.95175 273.485815 
L 172.636078 261.20468 
L 170.31822 264.863441 
L 167.99408 274.455502 
L 165.659195 267.109702 
L 163.358515 267.39542 
L 161.052469 268.186936 
L 158.736505 264.861741 
L 156.424972 264.32182 
L 154.104247 262.565558 
L 151.80269 259.176969 
L 149.459192 265.604769 
L 147.156002 265.159588 
L 144.853344 272.52637 
L 142.531104 258.462431 
L 140.208364 264.581033 
L 137.905231 251.20974 
L 135.584308 255.56053 
L 133.267462 260.567389 
L 130.936276 250.829338 
L 128.62335 247.814867 
L 126.313491 247.143545 
L 123.985887 251.940246 
L 121.685153 250.287079 
L 119.371262 240.242465 
L 117.064691 243.583129 
L 114.731027 232.134021 
L 112.416533 225.769555 
L 110.108387 235.011936 
L 107.793689 235.235684 
L 105.461536 224.594427 
L 103.147551 236.345138 
L 100.83907 215.804383 
L 98.511304 209.671488 
L 96.219662 204.623318 
L 93.895465 200.407478 
L 91.580437 191.891415 
L 89.269024 183.07508 
L 86.952497 147.5575 
L 84.641271 154.4595 
L 82.308773 140.470755 
L 79.983089 132.228703 
L 77.661012 115.07203 
L 75.336101 94.017307 
L 73.024979 79.382091 
L 70.704794 75.572705 
L 68.373712 50.372111 
L 66.041127 36.705705 
z
" style="fill:#1f77b4;fill-opacity:0.25;"/>
   </g>
   <g id="PolyCollection_2">
    <path clip-path="url(#p39d2d5987a)" d="M 66.187646 37.757668 
L 66.187646 42.316332 
L 68.641816 72.087488 
L 71.115895 84.565633 
L 73.570901 88.307716 
L 76.016081 101.225443 
L 78.481024 118.813828 
L 80.947537 127.301124 
L 83.39185 128.180423 
L 85.862621 145.867562 
L 88.332805 145.392567 
L 90.788069 176.843399 
L 93.24411 178.646899 
L 95.682674 197.407515 
L 98.163759 205.06824 
L 100.621289 213.538848 
L 103.096611 217.631034 
L 105.538733 236.047315 
L 108.01306 223.637312 
L 110.466421 239.00726 
L 112.927632 234.792534 
L 115.359737 227.965571 
L 117.821044 236.38434 
L 120.274494 248.254962 
L 122.730586 242.747087 
L 125.19847 252.944764 
L 127.66574 255.190804 
L 130.123231 250.283018 
L 132.572249 255.431458 
L 134.997943 256.564298 
L 137.473072 264.761536 
L 139.916471 263.215222 
L 142.392587 260.368129 
L 144.838591 268.088368 
L 147.305363 260.949772 
L 149.738432 272.441406 
L 152.196455 270.317557 
L 154.633629 270.366652 
L 157.076379 266.833378 
L 159.540921 262.514527 
L 162.005483 268.333805 
L 164.474341 267.56214 
L 166.926263 269.389481 
L 169.405982 269.134844 
L 171.86945 272.202184 
L 174.328571 279.7136 
L 176.782894 271.109135 
L 179.269021 266.85403 
L 181.731969 273.363267 
L 184.185371 272.932418 
L 186.637517 274.76488 
L 189.112711 272.574638 
L 191.5795 277.971798 
L 194.004323 273.689154 
L 196.456116 276.751751 
L 198.89874 281.246972 
L 201.367895 284.678663 
L 203.811737 273.892442 
L 206.243441 281.069968 
L 208.675695 280.454317 
L 211.11403 276.161192 
L 213.588706 283.420769 
L 216.063282 278.941082 
L 218.521122 276.988388 
L 220.971188 278.558629 
L 223.419062 278.740565 
L 225.860019 287.678478 
L 228.277916 284.528924 
L 230.727188 282.248844 
L 233.180935 285.010204 
L 235.646361 278.971511 
L 238.089325 273.192238 
L 240.529092 282.51473 
L 242.961526 287.937741 
L 245.400448 282.162007 
L 247.853697 283.452673 
L 250.290938 285.069299 
L 252.748089 288.080919 
L 255.217211 287.237017 
L 257.649919 285.044137 
L 260.107404 289.962481 
L 262.566809 288.356468 
L 265.013764 292.033611 
L 267.452272 286.228611 
L 269.912413 290.886177 
L 272.364979 285.388448 
L 274.833795 293.944713 
L 277.283708 291.136851 
L 279.732669 291.974101 
L 282.199613 292.46308 
L 284.645927 285.555522 
L 287.092456 295.51488 
L 289.569434 290.673588 
L 292.024418 296.155493 
L 294.47035 295.590284 
L 296.920884 292.793774 
L 299.362019 293.427428 
L 301.797519 289.569147 
L 304.2567 296.998372 
L 306.70955 293.144116 
L 309.177672 297.182492 
L 311.603221 299.469608 
L 314.037802 298.568183 
L 316.515962 299.256603 
L 318.962071 297.717187 
L 321.38675 299.343123 
L 323.836077 300.573917 
L 326.298187 300.340165 
L 328.738258 300.198318 
L 331.190103 301.489932 
L 333.645585 302.292842 
L 336.104544 300.979256 
L 338.553465 301.437963 
L 341.012376 302.531971 
L 343.463549 300.644666 
L 345.938026 302.349972 
L 348.390249 302.050963 
L 350.836669 302.198585 
L 353.279296 302.905357 
L 355.711992 303.672638 
L 358.146483 303.32521 
L 360.610401 302.847028 
L 363.042306 302.872835 
L 365.494576 303.341067 
L 367.935194 303.535419 
L 370.390883 303.544516 
L 372.820378 303.545689 
L 375.283046 303.551946 
L 377.747241 303.627849 
L 380.203957 303.573628 
L 382.65742 303.555272 
L 385.104108 303.597323 
L 387.574438 303.523754 
L 390.00821 303.540177 
L 392.458085 303.584318 
L 394.905767 303.529177 
L 397.352771 303.582093 
L 399.793931 303.621922 
L 402.229904 303.685204 
L 404.703508 303.579904 
L 407.163784 303.547819 
L 409.609364 303.671719 
L 412.066593 303.575679 
L 414.513507 303.594865 
L 416.946862 303.595535 
L 419.405293 303.589986 
L 421.859929 303.613534 
L 424.322319 303.562183 
L 426.798668 303.547152 
L 429.252427 303.57336 
L 431.714545 303.482628 
L 431.714545 303.368963 
L 431.714545 303.368963 
L 429.252427 303.372396 
L 426.798668 303.472272 
L 424.322319 303.402934 
L 421.859929 303.221527 
L 419.405293 303.53136 
L 416.946862 303.4439 
L 414.513507 303.416107 
L 412.066593 303.500233 
L 409.609364 303.194219 
L 407.163784 303.36275 
L 404.703508 303.481659 
L 402.229904 302.801474 
L 399.793931 303.448932 
L 397.352771 302.762119 
L 394.905767 303.361468 
L 392.458085 303.354385 
L 390.00821 302.742743 
L 387.574438 303.340818 
L 385.104108 303.54051 
L 382.65742 303.443169 
L 380.203957 303.421772 
L 377.747241 303.273111 
L 375.283046 303.169522 
L 372.820378 303.433798 
L 370.390883 302.604446 
L 367.935194 303.120149 
L 365.494576 302.535307 
L 363.042306 301.895157 
L 360.610401 301.407613 
L 358.146483 301.624743 
L 355.711992 299.964008 
L 353.279296 300.79009 
L 350.836669 300.985187 
L 348.390249 300.197616 
L 345.938026 300.271345 
L 343.463549 298.330034 
L 341.012376 301.256044 
L 338.553465 299.553819 
L 336.104544 298.70636 
L 333.645585 301.014353 
L 331.190103 292.581707 
L 328.738258 295.479934 
L 326.298187 298.609145 
L 323.836077 296.299068 
L 321.38675 293.385675 
L 318.962071 290.963342 
L 316.515962 295.730481 
L 314.037802 291.680874 
L 311.603221 296.432921 
L 309.177672 292.210363 
L 306.70955 284.517221 
L 304.2567 293.34096 
L 301.797519 285.776072 
L 299.362019 289.340088 
L 296.920884 288.636544 
L 294.47035 287.143379 
L 292.024418 290.939581 
L 289.569434 284.118697 
L 287.092456 288.7591 
L 284.645927 274.363956 
L 282.199613 289.009554 
L 279.732669 285.21047 
L 277.283708 288.344091 
L 274.833795 289.341885 
L 272.364979 280.53996 
L 269.912413 286.052959 
L 267.452272 282.661945 
L 265.013764 284.846283 
L 262.566809 282.838922 
L 260.107404 281.720958 
L 257.649919 274.92612 
L 255.217211 281.281155 
L 252.748089 283.269631 
L 250.290938 278.167785 
L 247.853697 277.284923 
L 245.400448 269.277264 
L 242.961526 276.828376 
L 240.529092 275.796725 
L 238.089325 266.483072 
L 235.646361 270.673543 
L 233.180935 279.394813 
L 230.727188 278.940126 
L 228.277916 276.445644 
L 225.860019 280.001829 
L 223.419062 272.918751 
L 220.971188 270.059547 
L 218.521122 269.57039 
L 216.063282 270.004341 
L 213.588706 276.831598 
L 211.11403 271.3624 
L 208.675695 276.593288 
L 206.243441 278.352998 
L 203.811737 268.592677 
L 201.367895 277.294572 
L 198.89874 275.529807 
L 196.456116 272.893303 
L 194.004323 265.258313 
L 191.5795 273.061234 
L 189.112711 265.261318 
L 186.637517 268.160329 
L 184.185371 270.523157 
L 181.731969 267.88057 
L 179.269021 258.63682 
L 176.782894 264.989028 
L 174.328571 271.172736 
L 171.86945 262.711119 
L 169.405982 263.961675 
L 166.926263 263.221809 
L 164.474341 260.670813 
L 162.005483 259.673461 
L 159.540921 258.090189 
L 157.076379 257.743438 
L 154.633629 265.855639 
L 152.196455 262.869237 
L 149.738432 264.31125 
L 147.305363 253.86606 
L 144.838591 256.951107 
L 142.392587 246.00699 
L 139.916471 251.927857 
L 137.473072 255.572354 
L 134.997943 250.160636 
L 132.572249 242.92047 
L 130.123231 243.352041 
L 127.66574 240.949386 
L 125.19847 233.265176 
L 122.730586 226.209044 
L 120.274494 238.507913 
L 117.821044 219.030541 
L 115.359737 212.982742 
L 112.927632 219.877578 
L 110.466421 211.149102 
L 108.01306 203.363513 
L 105.538733 210.430342 
L 103.096611 192.872035 
L 100.621289 188.749195 
L 98.163759 175.98261 
L 95.682674 178.475091 
L 93.24411 154.513063 
L 90.788069 155.007576 
L 88.332805 127.283145 
L 85.862621 131.637863 
L 83.39185 119.57939 
L 80.947537 110.483301 
L 78.481024 102.224584 
L 76.016081 82.574532 
L 73.570901 70.937459 
L 71.115895 52.291342 
L 68.641816 38.815425 
L 66.187646 37.757668 
z
" style="fill:#ff7f0e;fill-opacity:0.25;"/>
   </g>
   <g id="PolyCollection_3">
    <path clip-path="url(#p39d2d5987a)" d="M 66.01508 42.040664 
L 66.01508 68.771974 
L 68.305227 116.845508 
L 70.58555 135.500751 
L 72.871641 138.938336 
L 75.162188 156.512517 
L 77.450244 193.13747 
L 79.734683 204.287118 
L 82.022797 207.836732 
L 84.318062 207.247193 
L 86.603999 202.868529 
L 88.879975 224.624839 
L 91.164591 232.214781 
L 93.450809 232.639513 
L 95.74664 235.896335 
L 98.029716 242.934432 
L 100.332533 236.259327 
L 102.626054 246.091362 
L 104.91102 239.408282 
L 107.193266 252.998814 
L 109.476809 251.932744 
L 111.760481 237.436134 
L 114.032449 244.224193 
L 116.304505 256.286256 
L 118.599784 248.13306 
L 120.88086 258.760619 
L 123.16324 254.323146 
L 125.434499 254.296401 
L 127.716042 254.518946 
L 129.982397 255.391453 
L 132.273831 263.887807 
L 134.539567 262.561109 
L 136.812385 259.679038 
L 139.088846 268.987284 
L 141.358328 262.045747 
L 143.633145 272.189608 
L 145.911392 266.195336 
L 148.191107 267.617752 
L 150.453343 262.809423 
L 152.734148 264.345887 
L 155.003509 266.028069 
L 157.272365 262.621045 
L 159.549891 264.847712 
L 161.81927 263.159498 
L 164.096773 268.324639 
L 166.365398 273.006404 
L 168.635654 265.654881 
L 170.900813 265.529326 
L 173.161228 270.401842 
L 175.439244 270.647669 
L 177.708909 271.144477 
L 179.997447 267.408283 
L 182.272551 272.678605 
L 184.550629 265.615688 
L 186.823556 275.0515 
L 189.086306 277.068945 
L 191.356427 282.070952 
L 193.616523 272.080514 
L 195.885904 279.875102 
L 198.150202 279.524708 
L 200.419536 270.433632 
L 202.677766 278.293369 
L 204.950226 267.788883 
L 207.233121 268.332724 
L 209.506191 273.925853 
L 211.782125 275.716668 
L 214.064579 282.657849 
L 216.334816 278.181742 
L 218.612545 278.335416 
L 220.884156 277.019015 
L 223.176842 265.603288 
L 225.438025 266.857277 
L 227.706451 278.736149 
L 229.980526 277.93884 
L 232.256997 266.898637 
L 234.532818 276.909363 
L 236.803888 276.59354 
L 239.064487 284.753756 
L 241.33742 278.776165 
L 243.609778 274.190271 
L 245.873959 282.211586 
L 248.137032 280.730211 
L 250.402675 288.474693 
L 252.673656 282.584498 
L 254.949625 282.735341 
L 257.223201 276.92603 
L 259.496651 286.524657 
L 261.775008 282.531711 
L 264.064605 285.105477 
L 266.326143 284.436461 
L 268.614026 273.561977 
L 270.884285 288.559996 
L 273.143527 279.438116 
L 275.412477 290.252832 
L 277.68555 286.160752 
L 279.950325 283.585071 
L 282.216528 284.813504 
L 284.489816 283.397028 
L 286.77132 292.044961 
L 289.048193 288.140666 
L 291.319843 289.347416 
L 293.590997 294.60848 
L 295.864375 292.415893 
L 298.137362 292.686704 
L 300.398539 291.328856 
L 302.660346 293.666792 
L 304.929409 291.930169 
L 307.186515 297.1556 
L 309.479717 296.70063 
L 311.749955 295.513122 
L 314.023504 297.443972 
L 316.296074 296.352666 
L 318.563391 298.61472 
L 320.834657 300.246928 
L 323.106745 293.083226 
L 325.364234 295.49 
L 327.629292 297.218824 
L 329.915292 299.580427 
L 332.176975 300.184032 
L 334.442536 298.170124 
L 336.716289 299.590785 
L 338.990508 297.799516 
L 341.265873 299.421985 
L 343.534253 300.988598 
L 345.811979 301.882441 
L 348.079421 301.042161 
L 350.349983 302.499029 
L 352.622019 303.090075 
L 354.901878 302.813571 
L 357.166815 303.138743 
L 359.439659 303.184415 
L 361.716446 303.219092 
L 363.98908 302.80817 
L 366.260391 303.098884 
L 368.528031 303.407494 
L 370.799572 303.28378 
L 373.061898 302.83674 
L 375.332545 303.708118 
L 377.605074 303.19588 
L 379.869426 303.449737 
L 382.138454 302.37882 
L 384.404096 303.079695 
L 386.67627 303.502309 
L 388.946835 303.386031 
L 391.226513 303.460344 
L 393.496943 303.476318 
L 395.766679 303.337913 
L 398.035483 303.253314 
L 400.297142 303.28417 
L 402.573091 303.30559 
L 404.855193 303.464398 
L 404.855193 302.686944 
L 404.855193 302.686944 
L 402.573091 302.866866 
L 400.297142 302.259358 
L 398.035483 302.931308 
L 395.766679 303.120443 
L 393.496943 302.528547 
L 391.226513 303.11835 
L 388.946835 303.223166 
L 386.67627 303.068979 
L 384.404096 302.569977 
L 382.138454 301.073308 
L 379.869426 303.139404 
L 377.605074 301.86198 
L 375.332545 301.997579 
L 373.061898 302.142835 
L 370.799572 302.840762 
L 368.528031 303.042399 
L 366.260391 302.50045 
L 363.98908 300.471519 
L 361.716446 302.417886 
L 359.439659 301.385748 
L 357.166815 302.048005 
L 354.901878 301.283883 
L 352.622019 299.651137 
L 350.349983 301.635451 
L 348.079421 298.930501 
L 345.811979 300.328759 
L 343.534253 298.252695 
L 341.265873 297.039121 
L 338.990508 294.009606 
L 336.716289 297.265273 
L 334.442536 293.454216 
L 332.176975 296.807439 
L 329.915292 295.389731 
L 327.629292 292.466015 
L 325.364234 293.737821 
L 323.106745 290.194908 
L 320.834657 299.165041 
L 318.563391 296.148087 
L 316.296074 292.181166 
L 314.023504 294.851789 
L 311.749955 291.958568 
L 309.479717 286.120487 
L 307.186515 293.265544 
L 304.929409 289.164438 
L 302.660346 289.309485 
L 300.398539 286.405829 
L 298.137362 288.170932 
L 295.864375 284.48939 
L 293.590997 287.041883 
L 291.319843 285.278424 
L 289.048193 285.179007 
L 286.77132 284.437158 
L 284.489816 279.445103 
L 282.216528 279.585871 
L 279.950325 281.824256 
L 277.68555 280.269811 
L 275.412477 287.710362 
L 273.143527 274.472433 
L 270.884285 283.162938 
L 268.614026 270.435248 
L 266.326143 279.150439 
L 264.064605 278.453212 
L 261.775008 278.679828 
L 259.496651 283.172732 
L 257.223201 269.683527 
L 254.949625 276.828679 
L 252.673656 273.588568 
L 250.402675 281.741778 
L 248.137032 275.392075 
L 245.873959 279.231283 
L 243.609778 268.791361 
L 241.33742 270.981733 
L 239.064487 278.110944 
L 236.803888 270.422256 
L 234.532818 273.740001 
L 232.256997 260.104319 
L 229.980526 273.489146 
L 227.706451 270.671934 
L 225.438025 260.360083 
L 223.176842 264.34489 
L 220.884156 273.9181 
L 218.612545 273.278763 
L 216.334816 273.201106 
L 214.064579 278.581901 
L 211.782125 271.953621 
L 209.506191 267.780643 
L 207.233121 265.508563 
L 204.950226 264.641857 
L 202.677766 271.080861 
L 200.419536 266.939665 
L 198.150202 274.758225 
L 195.885904 270.63885 
L 193.616523 265.80058 
L 191.356427 277.030409 
L 189.086306 270.985013 
L 186.823556 269.21655 
L 184.550629 258.994981 
L 182.272551 262.234698 
L 179.997447 261.795126 
L 177.708909 264.16378 
L 175.439244 264.841137 
L 173.161228 264.376049 
L 170.900813 261.338218 
L 168.635654 261.246516 
L 166.365398 268.186654 
L 164.096773 260.765927 
L 161.81927 257.569346 
L 159.549891 257.63021 
L 157.272365 256.550555 
L 155.003509 256.991503 
L 152.734148 258.211026 
L 150.453343 254.330989 
L 148.191107 259.73502 
L 145.911392 262.17303 
L 143.633145 267.824232 
L 141.358328 252.566966 
L 139.088846 259.96787 
L 136.812385 252.101296 
L 134.539567 254.940404 
L 132.273831 255.938287 
L 129.982397 251.908984 
L 127.716042 247.940494 
L 125.434499 248.06148 
L 123.16324 247.876754 
L 120.88086 249.893943 
L 118.599784 242.263384 
L 116.304505 247.70786 
L 114.032449 238.453738 
L 111.760481 230.504404 
L 109.476809 237.357831 
L 107.193266 244.709905 
L 104.91102 230.360324 
L 102.626054 240.253991 
L 100.332533 229.018098 
L 98.029716 237.306074 
L 95.74664 225.747521 
L 93.450809 226.273525 
L 91.164591 211.261231 
L 88.879975 200.999292 
L 86.603999 190.279171 
L 84.318062 188.247657 
L 82.022797 176.102918 
L 79.734683 171.03127 
L 77.450244 158.528868 
L 75.162188 118.916583 
L 72.871641 101.689751 
L 70.58555 85.582799 
L 68.305227 61.944204 
L 66.01508 42.040664 
z
" style="fill:#2ca02c;fill-opacity:0.25;"/>
   </g>
   <g id="PolyCollection_4">
    <path clip-path="url(#p39d2d5987a)" d="M 66.005455 -9944.411168 
L 66.005455 -1610.156832 
L 68.278671 -1669.946835 
L 70.544261 -384.845604 
L 72.81493 -432.320394 
L 75.095179 -49.259048 
L 77.368039 194.343282 
L 79.635005 275.174733 
L 81.915318 173.201539 
L 84.197003 8.319598 
L 86.476668 69.495798 
L 88.749366 86.857667 
L 91.026341 105.092885 
L 93.300291 66.304353 
L 95.571229 100.18075 
L 97.840391 128.215415 
L 100.117203 132.344393 
L 102.392562 141.725887 
L 104.666606 126.006126 
L 106.943137 143.347194 
L 109.222086 152.540769 
L 111.500496 146.376333 
L 113.782581 170.754047 
L 116.046163 172.417269 
L 118.326371 171.384292 
L 120.597676 181.475185 
L 122.875694 203.233451 
L 125.156909 201.53223 
L 127.417137 202.722579 
L 129.68583 210.286625 
L 131.953242 217.308603 
L 134.222226 215.006691 
L 136.491423 224.033873 
L 138.75822 232.339622 
L 141.029607 223.856622 
L 143.292119 233.06748 
L 145.568471 226.250896 
L 147.830634 238.287486 
L 150.102785 220.293782 
L 152.37086 224.744673 
L 154.640152 228.939261 
L 156.898499 223.172301 
L 159.177849 235.113151 
L 161.454895 232.658155 
L 163.711951 236.046828 
L 165.983254 244.396503 
L 168.256879 238.343295 
L 170.509272 231.175113 
L 172.767684 232.156702 
L 175.023615 239.461939 
L 177.29042 243.514607 
L 179.547744 242.58329 
L 181.815774 247.928233 
L 184.078778 242.994037 
L 186.338187 241.148569 
L 188.592462 255.141764 
L 190.854091 246.944387 
L 193.104565 245.787321 
L 195.364103 249.273886 
L 197.630867 249.34628 
L 199.877888 243.936636 
L 202.140162 252.90561 
L 204.394633 238.740573 
L 206.646422 237.152298 
L 208.910576 249.400781 
L 211.171521 244.239142 
L 213.429875 260.489831 
L 215.68444 251.029204 
L 217.945293 253.371846 
L 220.204428 256.451735 
L 222.464366 246.904487 
L 224.717602 235.258009 
L 226.976447 245.96148 
L 229.235924 250.663402 
L 231.491879 239.375875 
L 233.749409 255.820171 
L 236.006489 249.095906 
L 238.257712 258.50243 
L 240.516431 249.286829 
L 242.772115 246.193439 
L 245.036468 249.977035 
L 247.288729 251.781497 
L 249.539546 262.848111 
L 251.797624 254.069861 
L 254.063942 261.319486 
L 256.3191 251.214104 
L 258.570544 262.042995 
L 260.829547 262.41342 
L 263.094986 257.059467 
L 265.348075 254.312357 
L 267.611093 242.026638 
L 269.873943 266.198075 
L 272.126863 251.538543 
L 274.389598 261.812804 
L 276.63874 254.507913 
L 278.893181 262.248407 
L 281.145078 254.781527 
L 283.402193 262.104958 
L 285.6479 263.875304 
L 287.899084 263.424414 
L 290.151263 263.6016 
L 292.409458 266.232756 
L 294.671054 268.312187 
L 296.939066 263.597455 
L 299.193451 267.215712 
L 301.442589 266.038799 
L 303.702165 270.793364 
L 305.964753 274.061807 
L 308.221637 270.240007 
L 310.478487 272.968705 
L 312.743929 279.823135 
L 315.007558 269.642407 
L 317.26742 276.989659 
L 319.517132 279.729278 
L 321.780523 268.511346 
L 324.032958 269.37167 
L 326.293072 274.293042 
L 328.545037 275.731669 
L 330.796152 277.87729 
L 333.054273 278.537205 
L 335.310644 273.338766 
L 337.57961 273.392984 
L 339.840221 275.486894 
L 342.101297 282.747104 
L 344.367993 287.523589 
L 346.631853 280.827132 
L 348.88896 279.486742 
L 351.142013 283.369646 
L 353.395857 284.530202 
L 355.665646 285.49254 
L 357.916955 292.581536 
L 360.170795 291.079663 
L 362.43356 283.598153 
L 364.693199 281.457705 
L 366.964055 288.159092 
L 369.210091 288.522013 
L 371.45741 283.746368 
L 373.714275 294.031986 
L 375.971902 284.177872 
L 378.227207 291.557943 
L 380.491409 281.016028 
L 382.748143 292.409268 
L 385.010767 293.835283 
L 387.259179 292.073898 
L 389.520804 295.320504 
L 391.781378 293.632239 
L 394.04506 294.025095 
L 396.301177 291.931132 
L 398.554991 292.299339 
L 400.802734 289.81009 
L 403.057718 290.623683 
L 403.057718 285.852794 
L 403.057718 285.852794 
L 400.802734 286.708703 
L 398.554991 286.778187 
L 396.301177 288.102745 
L 394.04506 287.156966 
L 391.781378 288.517458 
L 389.520804 288.978867 
L 387.259179 289.508759 
L 385.010767 288.805284 
L 382.748143 289.582448 
L 380.491409 278.745469 
L 378.227207 287.576005 
L 375.971902 279.262331 
L 373.714275 290.634126 
L 371.45741 277.002512 
L 369.210091 287.268939 
L 366.964055 285.188792 
L 364.693199 278.078105 
L 362.43356 275.898161 
L 360.170795 285.456057 
L 357.916955 287.418487 
L 355.665646 278.421607 
L 353.395857 281.144307 
L 351.142013 280.268034 
L 348.88896 278.384622 
L 346.631853 276.897535 
L 344.367993 281.124353 
L 342.101297 279.542093 
L 339.840221 271.241149 
L 337.57961 266.225904 
L 335.310644 266.257553 
L 333.054273 273.951512 
L 330.796152 272.975193 
L 328.545037 267.571567 
L 326.293072 267.571437 
L 324.032958 262.912373 
L 321.780523 264.393338 
L 319.517132 278.170297 
L 317.26742 271.064299 
L 315.007558 266.083371 
L 312.743929 275.323053 
L 310.478487 267.710913 
L 308.221637 266.106412 
L 305.964753 271.391103 
L 303.702165 264.029664 
L 301.442589 262.690666 
L 299.193451 258.049451 
L 296.939066 260.922939 
L 294.671054 265.156716 
L 292.409458 262.2146 
L 290.151263 259.372834 
L 287.899084 259.572589 
L 285.6479 258.839589 
L 283.402193 257.168202 
L 281.145078 248.54681 
L 278.893181 252.296599 
L 276.63874 248.278774 
L 274.389598 258.419527 
L 272.126863 247.693567 
L 269.873943 258.852684 
L 267.611093 234.851124 
L 265.348075 246.759105 
L 263.094986 246.765383 
L 260.829547 255.57332 
L 258.570544 259.599883 
L 256.3191 244.339299 
L 254.063942 254.681204 
L 251.797624 248.603982 
L 249.539546 257.28266 
L 247.288729 244.742362 
L 245.036468 246.512971 
L 242.772115 237.477517 
L 240.516431 240.29714 
L 238.257712 250.817911 
L 236.006489 242.090444 
L 233.749409 252.23632 
L 231.491879 228.948331 
L 229.235924 241.40313 
L 226.976447 240.744973 
L 224.717602 229.184373 
L 222.464366 241.370494 
L 220.204428 248.264581 
L 217.945293 246.356776 
L 215.68444 244.016403 
L 213.429875 253.084719 
L 211.171521 237.310352 
L 208.910576 241.830706 
L 206.646422 229.434115 
L 204.394633 233.284908 
L 202.140162 247.330809 
L 199.877888 234.441949 
L 197.630867 244.706302 
L 195.364103 243.571267 
L 193.104565 238.143175 
L 190.854091 242.696004 
L 188.592462 247.306392 
L 186.338187 233.08865 
L 184.078778 232.078225 
L 181.815774 242.174817 
L 179.547744 240.320329 
L 177.29042 232.731231 
L 175.023615 234.165923 
L 172.767684 230.570454 
L 170.509272 224.330044 
L 168.256879 233.050261 
L 165.983254 234.929969 
L 163.711951 226.251522 
L 161.454895 220.52242 
L 159.177849 222.581174 
L 156.898499 204.054212 
L 154.640152 209.594195 
L 152.37086 201.646795 
L 150.102785 200.726324 
L 147.830634 218.346108 
L 145.568471 197.387185 
L 143.292119 200.026907 
L 141.029607 186.059659 
L 138.75822 194.119553 
L 136.491423 184.550852 
L 134.222226 173.762672 
L 131.953242 174.417265 
L 129.68583 163.45195 
L 127.417137 166.208852 
L 125.156909 158.326564 
L 122.875694 151.79563 
L 120.597676 139.858753 
L 118.326371 126.794108 
L 116.046163 139.392656 
L 113.782581 122.59464 
L 111.500496 100.706417 
L 109.222086 120.225219 
L 106.943137 93.083106 
L 104.666606 96.341274 
L 102.392562 74.573088 
L 100.117203 -14.219481 
L 97.840391 -76.532902 
L 95.571229 63.442762 
L 93.300291 -29.968591 
L 91.026341 -4.842422 
L 88.749366 -77.649542 
L 86.476668 -72.339386 
L 84.197003 -274.721048 
L 81.915318 -671.338914 
L 79.635005 -1385.376608 
L 77.368039 -904.356082 
L 75.095179 -1707.221552 
L 72.81493 -1393.491406 
L 70.544261 -2415.394546 
L 68.278671 -4045.273065 
L 66.005455 -9944.411168 
z
" style="fill:#d62728;fill-opacity:0.25;"/>
   </g>
   <g id="matplotlib.axis_1">
    <g id="xtick_1">
     <g id="line2d_1">
      <defs>
       <path d="M 0 0 
L 0 3.5 
" id="mfb953427e8" style="stroke:#000000;stroke-width:0.8;"/>
      </defs>
      <g>
       <use style="stroke:#000000;stroke-width:0.8;" x="63.62094" xlink:href="#mfb953427e8" y="303.64"/>
      </g>
     </g>
     <g id="text_1">
      <!-- 0 -->
      <g transform="translate(60.43969 318.238437)scale(0.1 -0.1)">
       <defs>
        <path d="M 31.78125 66.40625 
Q 24.171875 66.40625 20.328125 58.90625 
Q 16.5 51.421875 16.5 36.375 
Q 16.5 21.390625 20.328125 13.890625 
Q 24.171875 6.390625 31.78125 6.390625 
Q 39.453125 6.390625 43.28125 13.890625 
Q 47.125 21.390625 47.125 36.375 
Q 47.125 51.421875 43.28125 58.90625 
Q 39.453125 66.40625 31.78125 66.40625 
z
M 31.78125 74.21875 
Q 44.046875 74.21875 50.515625 64.515625 
Q 56.984375 54.828125 56.984375 36.375 
Q 56.984375 17.96875 50.515625 8.265625 
Q 44.046875 -1.421875 31.78125 -1.421875 
Q 19.53125 -1.421875 13.0625 8.265625 
Q 6.59375 17.96875 6.59375 36.375 
Q 6.59375 54.828125 13.0625 64.515625 
Q 19.53125 74.21875 31.78125 74.21875 
z
" id="DejaVuSans-48"/>
       </defs>
       <use xlink:href="#DejaVuSans-48"/>
      </g>
     </g>
    </g>
    <g id="xtick_2">
     <g id="line2d_2">
      <g>
       <use style="stroke:#000000;stroke-width:0.8;" x="148.179199" xlink:href="#mfb953427e8" y="303.64"/>
      </g>
     </g>
     <g id="text_2">
      <!-- 2000 -->
      <g transform="translate(135.454199 318.238437)scale(0.1 -0.1)">
       <defs>
        <path d="M 19.1875 8.296875 
L 53.609375 8.296875 
L 53.609375 0 
L 7.328125 0 
L 7.328125 8.296875 
Q 12.9375 14.109375 22.625 23.890625 
Q 32.328125 33.6875 34.8125 36.53125 
Q 39.546875 41.84375 41.421875 45.53125 
Q 43.3125 49.21875 43.3125 52.78125 
Q 43.3125 58.59375 39.234375 62.25 
Q 35.15625 65.921875 28.609375 65.921875 
Q 23.96875 65.921875 18.8125 64.3125 
Q 13.671875 62.703125 7.8125 59.421875 
L 7.8125 69.390625 
Q 13.765625 71.78125 18.9375 73 
Q 24.125 74.21875 28.421875 74.21875 
Q 39.75 74.21875 46.484375 68.546875 
Q 53.21875 62.890625 53.21875 53.421875 
Q 53.21875 48.921875 51.53125 44.890625 
Q 49.859375 40.875 45.40625 35.40625 
Q 44.1875 33.984375 37.640625 27.21875 
Q 31.109375 20.453125 19.1875 8.296875 
z
" id="DejaVuSans-50"/>
       </defs>
       <use xlink:href="#DejaVuSans-50"/>
       <use x="63.623047" xlink:href="#DejaVuSans-48"/>
       <use x="127.246094" xlink:href="#DejaVuSans-48"/>
       <use x="190.869141" xlink:href="#DejaVuSans-48"/>
      </g>
     </g>
    </g>
    <g id="xtick_3">
     <g id="line2d_3">
      <g>
       <use style="stroke:#000000;stroke-width:0.8;" x="232.737458" xlink:href="#mfb953427e8" y="303.64"/>
      </g>
     </g>
     <g id="text_3">
      <!-- 4000 -->
      <g transform="translate(220.012458 318.238437)scale(0.1 -0.1)">
       <defs>
        <path d="M 37.796875 64.3125 
L 12.890625 25.390625 
L 37.796875 25.390625 
z
M 35.203125 72.90625 
L 47.609375 72.90625 
L 47.609375 25.390625 
L 58.015625 25.390625 
L 58.015625 17.1875 
L 47.609375 17.1875 
L 47.609375 0 
L 37.796875 0 
L 37.796875 17.1875 
L 4.890625 17.1875 
L 4.890625 26.703125 
z
" id="DejaVuSans-52"/>
       </defs>
       <use xlink:href="#DejaVuSans-52"/>
       <use x="63.623047" xlink:href="#DejaVuSans-48"/>
       <use x="127.246094" xlink:href="#DejaVuSans-48"/>
       <use x="190.869141" xlink:href="#DejaVuSans-48"/>
      </g>
     </g>
    </g>
    <g id="xtick_4">
     <g id="line2d_4">
      <g>
       <use style="stroke:#000000;stroke-width:0.8;" x="317.295717" xlink:href="#mfb953427e8" y="303.64"/>
      </g>
     </g>
     <g id="text_4">
      <!-- 6000 -->
      <g transform="translate(304.570717 318.238437)scale(0.1 -0.1)">
       <defs>
        <path d="M 33.015625 40.375 
Q 26.375 40.375 22.484375 35.828125 
Q 18.609375 31.296875 18.609375 23.390625 
Q 18.609375 15.53125 22.484375 10.953125 
Q 26.375 6.390625 33.015625 6.390625 
Q 39.65625 6.390625 43.53125 10.953125 
Q 47.40625 15.53125 47.40625 23.390625 
Q 47.40625 31.296875 43.53125 35.828125 
Q 39.65625 40.375 33.015625 40.375 
z
M 52.59375 71.296875 
L 52.59375 62.3125 
Q 48.875 64.0625 45.09375 64.984375 
Q 41.3125 65.921875 37.59375 65.921875 
Q 27.828125 65.921875 22.671875 59.328125 
Q 17.53125 52.734375 16.796875 39.40625 
Q 19.671875 43.65625 24.015625 45.921875 
Q 28.375 48.1875 33.59375 48.1875 
Q 44.578125 48.1875 50.953125 41.515625 
Q 57.328125 34.859375 57.328125 23.390625 
Q 57.328125 12.15625 50.6875 5.359375 
Q 44.046875 -1.421875 33.015625 -1.421875 
Q 20.359375 -1.421875 13.671875 8.265625 
Q 6.984375 17.96875 6.984375 36.375 
Q 6.984375 53.65625 15.1875 63.9375 
Q 23.390625 74.21875 37.203125 74.21875 
Q 40.921875 74.21875 44.703125 73.484375 
Q 48.484375 72.75 52.59375 71.296875 
z
" id="DejaVuSans-54"/>
       </defs>
       <use xlink:href="#DejaVuSans-54"/>
       <use x="63.623047" xlink:href="#DejaVuSans-48"/>
       <use x="127.246094" xlink:href="#DejaVuSans-48"/>
       <use x="190.869141" xlink:href="#DejaVuSans-48"/>
      </g>
     </g>
    </g>
    <g id="xtick_5">
     <g id="line2d_5">
      <g>
       <use style="stroke:#000000;stroke-width:0.8;" x="401.853976" xlink:href="#mfb953427e8" y="303.64"/>
      </g>
     </g>
     <g id="text_5">
      <!-- 8000 -->
      <g transform="translate(389.128976 318.238437)scale(0.1 -0.1)">
       <defs>
        <path d="M 31.78125 34.625 
Q 24.75 34.625 20.71875 30.859375 
Q 16.703125 27.09375 16.703125 20.515625 
Q 16.703125 13.921875 20.71875 10.15625 
Q 24.75 6.390625 31.78125 6.390625 
Q 38.8125 6.390625 42.859375 10.171875 
Q 46.921875 13.96875 46.921875 20.515625 
Q 46.921875 27.09375 42.890625 30.859375 
Q 38.875 34.625 31.78125 34.625 
z
M 21.921875 38.8125 
Q 15.578125 40.375 12.03125 44.71875 
Q 8.5 49.078125 8.5 55.328125 
Q 8.5 64.0625 14.71875 69.140625 
Q 20.953125 74.21875 31.78125 74.21875 
Q 42.671875 74.21875 48.875 69.140625 
Q 55.078125 64.0625 55.078125 55.328125 
Q 55.078125 49.078125 51.53125 44.71875 
Q 48 40.375 41.703125 38.8125 
Q 48.828125 37.15625 52.796875 32.3125 
Q 56.78125 27.484375 56.78125 20.515625 
Q 56.78125 9.90625 50.3125 4.234375 
Q 43.84375 -1.421875 31.78125 -1.421875 
Q 19.734375 -1.421875 13.25 4.234375 
Q 6.78125 9.90625 6.78125 20.515625 
Q 6.78125 27.484375 10.78125 32.3125 
Q 14.796875 37.15625 21.921875 38.8125 
z
M 18.3125 54.390625 
Q 18.3125 48.734375 21.84375 45.5625 
Q 25.390625 42.390625 31.78125 42.390625 
Q 38.140625 42.390625 41.71875 45.5625 
Q 45.3125 48.734375 45.3125 54.390625 
Q 45.3125 60.0625 41.71875 63.234375 
Q 38.140625 66.40625 31.78125 66.40625 
Q 25.390625 66.40625 21.84375 63.234375 
Q 18.3125 60.0625 18.3125 54.390625 
z
" id="DejaVuSans-56"/>
       </defs>
       <use xlink:href="#DejaVuSans-56"/>
       <use x="63.623047" xlink:href="#DejaVuSans-48"/>
       <use x="127.246094" xlink:href="#DejaVuSans-48"/>
       <use x="190.869141" xlink:href="#DejaVuSans-48"/>
      </g>
     </g>
    </g>
    <g id="text_6">
     <!-- Time -->
     <g transform="translate(236.626406 331.916562)scale(0.1 -0.1)">
      <defs>
       <path d="M -0.296875 72.90625 
L 61.375 72.90625 
L 61.375 64.59375 
L 35.5 64.59375 
L 35.5 0 
L 25.59375 0 
L 25.59375 64.59375 
L -0.296875 64.59375 
z
" id="DejaVuSans-84"/>
       <path d="M 9.421875 54.6875 
L 18.40625 54.6875 
L 18.40625 0 
L 9.421875 0 
z
M 9.421875 75.984375 
L 18.40625 75.984375 
L 18.40625 64.59375 
L 9.421875 64.59375 
z
" id="DejaVuSans-105"/>
       <path d="M 52 44.1875 
Q 55.375 50.25 60.0625 53.125 
Q 64.75 56 71.09375 56 
Q 79.640625 56 84.28125 50.015625 
Q 88.921875 44.046875 88.921875 33.015625 
L 88.921875 0 
L 79.890625 0 
L 79.890625 32.71875 
Q 79.890625 40.578125 77.09375 44.375 
Q 74.3125 48.1875 68.609375 48.1875 
Q 61.625 48.1875 57.5625 43.546875 
Q 53.515625 38.921875 53.515625 30.90625 
L 53.515625 0 
L 44.484375 0 
L 44.484375 32.71875 
Q 44.484375 40.625 41.703125 44.40625 
Q 38.921875 48.1875 33.109375 48.1875 
Q 26.21875 48.1875 22.15625 43.53125 
Q 18.109375 38.875 18.109375 30.90625 
L 18.109375 0 
L 9.078125 0 
L 9.078125 54.6875 
L 18.109375 54.6875 
L 18.109375 46.1875 
Q 21.1875 51.21875 25.484375 53.609375 
Q 29.78125 56 35.6875 56 
Q 41.65625 56 45.828125 52.96875 
Q 50 49.953125 52 44.1875 
z
" id="DejaVuSans-109"/>
       <path d="M 56.203125 29.59375 
L 56.203125 25.203125 
L 14.890625 25.203125 
Q 15.484375 15.921875 20.484375 11.0625 
Q 25.484375 6.203125 34.421875 6.203125 
Q 39.59375 6.203125 44.453125 7.46875 
Q 49.3125 8.734375 54.109375 11.28125 
L 54.109375 2.78125 
Q 49.265625 0.734375 44.1875 -0.34375 
Q 39.109375 -1.421875 33.890625 -1.421875 
Q 20.796875 -1.421875 13.15625 6.1875 
Q 5.515625 13.8125 5.515625 26.8125 
Q 5.515625 40.234375 12.765625 48.109375 
Q 20.015625 56 32.328125 56 
Q 43.359375 56 49.78125 48.890625 
Q 56.203125 41.796875 56.203125 29.59375 
z
M 47.21875 32.234375 
Q 47.125 39.59375 43.09375 43.984375 
Q 39.0625 48.390625 32.421875 48.390625 
Q 24.90625 48.390625 20.390625 44.140625 
Q 15.875 39.890625 15.1875 32.171875 
z
" id="DejaVuSans-101"/>
      </defs>
      <use xlink:href="#DejaVuSans-84"/>
      <use x="57.958984" xlink:href="#DejaVuSans-105"/>
      <use x="85.742188" xlink:href="#DejaVuSans-109"/>
      <use x="183.154297" xlink:href="#DejaVuSans-101"/>
     </g>
    </g>
   </g>
   <g id="matplotlib.axis_2">
    <g id="ytick_1">
     <g id="line2d_6">
      <defs>
       <path d="M 0 0 
L -3.5 0 
" id="m60b98f48a4" style="stroke:#000000;stroke-width:0.8;"/>
      </defs>
      <g>
       <use style="stroke:#000000;stroke-width:0.8;" x="47.72" xlink:href="#m60b98f48a4" y="303.64"/>
      </g>
     </g>
     <g id="text_7">
      <!-- 0.0 -->
      <g transform="translate(24.816875 307.439219)scale(0.1 -0.1)">
       <defs>
        <path d="M 10.6875 12.40625 
L 21 12.40625 
L 21 0 
L 10.6875 0 
z
" id="DejaVuSans-46"/>
       </defs>
       <use xlink:href="#DejaVuSans-48"/>
       <use x="63.623047" xlink:href="#DejaVuSans-46"/>
       <use x="95.410156" xlink:href="#DejaVuSans-48"/>
      </g>
     </g>
    </g>
    <g id="ytick_2">
     <g id="line2d_7">
      <g>
       <use style="stroke:#000000;stroke-width:0.8;" x="47.72" xlink:href="#m60b98f48a4" y="245.864"/>
      </g>
     </g>
     <g id="text_8">
      <!-- 0.5 -->
      <g transform="translate(24.816875 249.663219)scale(0.1 -0.1)">
       <defs>
        <path d="M 10.796875 72.90625 
L 49.515625 72.90625 
L 49.515625 64.59375 
L 19.828125 64.59375 
L 19.828125 46.734375 
Q 21.96875 47.46875 24.109375 47.828125 
Q 26.265625 48.1875 28.421875 48.1875 
Q 40.625 48.1875 47.75 41.5 
Q 54.890625 34.8125 54.890625 23.390625 
Q 54.890625 11.625 47.5625 5.09375 
Q 40.234375 -1.421875 26.90625 -1.421875 
Q 22.3125 -1.421875 17.546875 -0.640625 
Q 12.796875 0.140625 7.71875 1.703125 
L 7.71875 11.625 
Q 12.109375 9.234375 16.796875 8.0625 
Q 21.484375 6.890625 26.703125 6.890625 
Q 35.15625 6.890625 40.078125 11.328125 
Q 45.015625 15.765625 45.015625 23.390625 
Q 45.015625 31 40.078125 35.4375 
Q 35.15625 39.890625 26.703125 39.890625 
Q 22.75 39.890625 18.8125 39.015625 
Q 14.890625 38.140625 10.796875 36.28125 
z
" id="DejaVuSans-53"/>
       </defs>
       <use xlink:href="#DejaVuSans-48"/>
       <use x="63.623047" xlink:href="#DejaVuSans-46"/>
       <use x="95.410156" xlink:href="#DejaVuSans-53"/>
      </g>
     </g>
    </g>
    <g id="ytick_3">
     <g id="line2d_8">
      <g>
       <use style="stroke:#000000;stroke-width:0.8;" x="47.72" xlink:href="#m60b98f48a4" y="188.088"/>
      </g>
     </g>
     <g id="text_9">
      <!-- 1.0 -->
      <g transform="translate(24.816875 191.887219)scale(0.1 -0.1)">
       <defs>
        <path d="M 12.40625 8.296875 
L 28.515625 8.296875 
L 28.515625 63.921875 
L 10.984375 60.40625 
L 10.984375 69.390625 
L 28.421875 72.90625 
L 38.28125 72.90625 
L 38.28125 8.296875 
L 54.390625 8.296875 
L 54.390625 0 
L 12.40625 0 
z
" id="DejaVuSans-49"/>
       </defs>
       <use xlink:href="#DejaVuSans-49"/>
       <use x="63.623047" xlink:href="#DejaVuSans-46"/>
       <use x="95.410156" xlink:href="#DejaVuSans-48"/>
      </g>
     </g>
    </g>
    <g id="ytick_4">
     <g id="line2d_9">
      <g>
       <use style="stroke:#000000;stroke-width:0.8;" x="47.72" xlink:href="#m60b98f48a4" y="130.312"/>
      </g>
     </g>
     <g id="text_10">
      <!-- 1.5 -->
      <g transform="translate(24.816875 134.111219)scale(0.1 -0.1)">
       <use xlink:href="#DejaVuSans-49"/>
       <use x="63.623047" xlink:href="#DejaVuSans-46"/>
       <use x="95.410156" xlink:href="#DejaVuSans-53"/>
      </g>
     </g>
    </g>
    <g id="ytick_5">
     <g id="line2d_10">
      <g>
       <use style="stroke:#000000;stroke-width:0.8;" x="47.72" xlink:href="#m60b98f48a4" y="72.536"/>
      </g>
     </g>
     <g id="text_11">
      <!-- 2.0 -->
      <g transform="translate(24.816875 76.335219)scale(0.1 -0.1)">
       <use xlink:href="#DejaVuSans-50"/>
       <use x="63.623047" xlink:href="#DejaVuSans-46"/>
       <use x="95.410156" xlink:href="#DejaVuSans-48"/>
      </g>
     </g>
    </g>
    <g id="ytick_6">
     <g id="line2d_11">
      <g>
       <use style="stroke:#000000;stroke-width:0.8;" x="47.72" xlink:href="#m60b98f48a4" y="14.76"/>
      </g>
     </g>
     <g id="text_12">
      <!-- 2.5 -->
      <g transform="translate(24.816875 18.559219)scale(0.1 -0.1)">
       <use xlink:href="#DejaVuSans-50"/>
       <use x="63.623047" xlink:href="#DejaVuSans-46"/>
       <use x="95.410156" xlink:href="#DejaVuSans-53"/>
      </g>
     </g>
    </g>
    <g id="text_13">
     <!-- Loss -->
     <g transform="translate(18.737188 170.167187)rotate(-90)scale(0.1 -0.1)">
      <defs>
       <path d="M 9.8125 72.90625 
L 19.671875 72.90625 
L 19.671875 8.296875 
L 55.171875 8.296875 
L 55.171875 0 
L 9.8125 0 
z
" id="DejaVuSans-76"/>
       <path d="M 30.609375 48.390625 
Q 23.390625 48.390625 19.1875 42.75 
Q 14.984375 37.109375 14.984375 27.296875 
Q 14.984375 17.484375 19.15625 11.84375 
Q 23.34375 6.203125 30.609375 6.203125 
Q 37.796875 6.203125 41.984375 11.859375 
Q 46.1875 17.53125 46.1875 27.296875 
Q 46.1875 37.015625 41.984375 42.703125 
Q 37.796875 48.390625 30.609375 48.390625 
z
M 30.609375 56 
Q 42.328125 56 49.015625 48.375 
Q 55.71875 40.765625 55.71875 27.296875 
Q 55.71875 13.875 49.015625 6.21875 
Q 42.328125 -1.421875 30.609375 -1.421875 
Q 18.84375 -1.421875 12.171875 6.21875 
Q 5.515625 13.875 5.515625 27.296875 
Q 5.515625 40.765625 12.171875 48.375 
Q 18.84375 56 30.609375 56 
z
" id="DejaVuSans-111"/>
       <path d="M 44.28125 53.078125 
L 44.28125 44.578125 
Q 40.484375 46.53125 36.375 47.5 
Q 32.28125 48.484375 27.875 48.484375 
Q 21.1875 48.484375 17.84375 46.4375 
Q 14.5 44.390625 14.5 40.28125 
Q 14.5 37.15625 16.890625 35.375 
Q 19.28125 33.59375 26.515625 31.984375 
L 29.59375 31.296875 
Q 39.15625 29.25 43.1875 25.515625 
Q 47.21875 21.78125 47.21875 15.09375 
Q 47.21875 7.46875 41.1875 3.015625 
Q 35.15625 -1.421875 24.609375 -1.421875 
Q 20.21875 -1.421875 15.453125 -0.5625 
Q 10.6875 0.296875 5.421875 2 
L 5.421875 11.28125 
Q 10.40625 8.6875 15.234375 7.390625 
Q 20.0625 6.109375 24.8125 6.109375 
Q 31.15625 6.109375 34.5625 8.28125 
Q 37.984375 10.453125 37.984375 14.40625 
Q 37.984375 18.0625 35.515625 20.015625 
Q 33.0625 21.96875 24.703125 23.78125 
L 21.578125 24.515625 
Q 13.234375 26.265625 9.515625 29.90625 
Q 5.8125 33.546875 5.8125 39.890625 
Q 5.8125 47.609375 11.28125 51.796875 
Q 16.75 56 26.8125 56 
Q 31.78125 56 36.171875 55.265625 
Q 40.578125 54.546875 44.28125 53.078125 
z
" id="DejaVuSans-115"/>
      </defs>
      <use xlink:href="#DejaVuSans-76"/>
      <use x="53.962891" xlink:href="#DejaVuSans-111"/>
      <use x="115.144531" xlink:href="#DejaVuSans-115"/>
      <use x="167.244141" xlink:href="#DejaVuSans-115"/>
     </g>
    </g>
   </g>
   <g id="line2d_12">
    <path clip-path="url(#p39d2d5987a)" d="M 66.041127 44.7313 
L 68.373712 63.32795 
L 70.704794 83.211019 
L 73.024979 89.191737 
L 75.336101 106.005456 
L 77.661012 131.666125 
L 79.983089 147.2837 
L 82.308773 156.469181 
L 84.641271 169.559056 
L 86.952497 159.2 
L 89.269024 192.037531 
L 91.580437 197.375041 
L 93.895465 210.668034 
L 96.219662 212.981331 
L 98.511304 220.124341 
L 100.83907 223.4758 
L 103.147551 240.881948 
L 105.461536 228.136247 
L 107.793689 239.262641 
L 110.108387 239.302136 
L 112.416533 231.363578 
L 114.731027 236.746225 
L 117.064691 249.181606 
L 119.371262 244.18827 
L 121.685153 254.592464 
L 126.313491 253.475311 
L 128.62335 253.559944 
L 130.936276 257.018605 
L 133.267462 262.034509 
L 135.584308 257.120164 
L 137.905231 257.492548 
L 140.208364 268.472245 
L 142.531104 261.820106 
L 144.853344 277.059655 
L 147.156002 268.376328 
L 149.459192 268.596373 
L 151.80269 262.418178 
L 154.104247 264.009275 
L 156.424972 268.263484 
L 158.736505 267.750045 
L 161.052469 269.606325 
L 163.358515 269.267794 
L 165.659195 269.346784 
L 167.99408 276.100483 
L 170.31822 266.993992 
L 172.636078 264.556567 
L 174.95175 276.309244 
L 177.282888 271.062009 
L 179.617156 273.868998 
L 181.92221 271.541595 
L 184.237512 275.581402 
L 186.546588 272.263795 
L 188.869076 279.83279 
L 191.188944 279.666345 
L 193.507236 281.051502 
L 195.824141 271.355403 
L 198.163848 282.038885 
L 200.462898 280.267238 
L 202.777327 274.588377 
L 205.08904 277.629516 
L 207.403727 274.842275 
L 209.715808 277.045549 
L 212.050698 274.771748 
L 214.35652 278.13167 
L 216.689848 285.79094 
L 219.005794 282.995236 
L 221.308 282.462049 
L 223.628562 281.607258 
L 225.92995 275.685782 
L 228.252428 273.355559 
L 230.565505 280.55499 
L 232.89012 284.168811 
L 235.20199 275.200554 
L 237.517695 283.824637 
L 239.836869 281.926041 
L 242.158656 286.789607 
L 244.468321 287.156349 
L 246.773326 286.197177 
L 249.103206 287.23534 
L 251.417081 287.31292 
L 253.741943 293.792972 
L 256.045492 288.376472 
L 258.356157 284.895243 
L 260.667382 283.240671 
L 262.990418 290.317385 
L 265.317417 288.149374 
L 267.664057 290.038096 
L 269.983762 289.816641 
L 272.310629 283.542528 
L 274.610733 294.247874 
L 276.939739 288.518937 
L 279.277116 294.427718 
L 281.594794 291.318873 
L 283.923813 291.166534 
L 286.239938 294.817029 
L 288.560617 292.103137 
L 290.887841 291.819617 
L 293.205989 291.246935 
L 295.535087 293.516505 
L 297.859568 298.749987 
L 300.183787 295.858013 
L 302.486118 296.936376 
L 307.123029 295.601999 
L 309.451083 297.81162 
L 311.77604 297.512584 
L 314.084547 298.84132 
L 316.406049 299.829408 
L 318.72438 300.419369 
L 321.071817 297.261507 
L 323.382916 299.292342 
L 325.694466 301.707727 
L 328.006046 301.171367 
L 330.32734 300.355718 
L 332.620631 300.85558 
L 334.946644 302.047669 
L 337.262034 301.017793 
L 339.589609 302.079494 
L 341.906384 302.033387 
L 344.218143 302.433718 
L 346.543072 302.282437 
L 348.85961 303.065555 
L 351.199725 303.008295 
L 353.52513 303.214566 
L 360.455732 303.399568 
L 362.77369 303.405155 
L 365.106106 303.222192 
L 367.405246 303.439757 
L 369.725053 303.298075 
L 374.349639 303.496411 
L 376.664165 303.469412 
L 379.002914 303.235239 
L 381.314861 303.498565 
L 392.931682 303.405794 
L 402.226006 303.534606 
L 404.552679 303.436727 
L 406.876909 303.515707 
L 411.513747 303.471737 
L 411.513747 303.471737 
" style="fill:none;stroke:#1f77b4;stroke-linecap:square;stroke-width:1.5;"/>
   </g>
   <g id="line2d_13">
    <path clip-path="url(#p39d2d5987a)" d="M 66.187646 40.037 
L 68.641816 55.451456 
L 71.115895 68.428487 
L 73.570901 79.622587 
L 76.016081 91.899987 
L 78.481024 110.519206 
L 80.947537 118.892212 
L 83.39185 123.879906 
L 85.862621 138.752712 
L 88.332805 136.337856 
L 90.788069 165.925487 
L 93.24411 166.579981 
L 95.682674 187.941303 
L 98.163759 190.525425 
L 100.621289 201.144022 
L 103.096611 205.251534 
L 105.538733 223.238828 
L 108.01306 213.500412 
L 110.466421 225.078181 
L 112.927632 227.335056 
L 115.359737 220.474156 
L 117.821044 227.707441 
L 120.274494 243.381437 
L 122.730586 234.478066 
L 125.19847 243.10497 
L 127.66574 248.070095 
L 130.123231 246.81753 
L 132.572249 249.175964 
L 134.997943 253.362467 
L 137.473072 260.166945 
L 139.916471 257.571539 
L 142.392587 253.187559 
L 144.838591 262.519737 
L 147.305363 257.407916 
L 149.738432 268.376328 
L 152.196455 266.593397 
L 154.633629 268.111145 
L 157.076379 262.288408 
L 159.540921 260.302358 
L 162.005483 264.003633 
L 164.474341 264.116477 
L 166.926263 266.305645 
L 169.405982 266.548259 
L 171.86945 267.456652 
L 174.328571 275.443168 
L 176.782894 268.049081 
L 179.269021 262.745425 
L 181.731969 270.621919 
L 184.185371 271.727787 
L 186.637517 271.462605 
L 189.112711 268.917978 
L 191.5795 275.516516 
L 194.004323 269.473734 
L 196.456116 274.822527 
L 198.89874 278.38839 
L 201.367895 280.986617 
L 203.811737 271.242559 
L 206.243441 279.711483 
L 208.675695 278.523802 
L 211.11403 273.761796 
L 213.588706 280.126184 
L 216.063282 274.472712 
L 218.521122 273.279389 
L 220.971188 274.309088 
L 223.419062 275.829658 
L 225.860019 283.840154 
L 228.277916 280.487284 
L 230.727188 280.594485 
L 233.180935 282.202509 
L 235.646361 274.822527 
L 238.089325 269.837655 
L 240.529092 279.155727 
L 242.961526 282.383059 
L 245.400448 275.719635 
L 247.853697 280.368798 
L 250.290938 281.618542 
L 252.748089 285.675275 
L 255.217211 284.259086 
L 257.649919 279.985129 
L 260.107404 285.84172 
L 262.566809 285.597695 
L 265.013764 288.439947 
L 267.452272 284.445278 
L 269.912413 288.469568 
L 272.364979 282.964204 
L 274.833795 291.643299 
L 277.283708 289.740471 
L 279.732669 288.592286 
L 282.199613 290.736317 
L 284.645927 279.959739 
L 287.092456 292.13699 
L 289.569434 287.396142 
L 292.024418 293.547537 
L 294.47035 291.366832 
L 296.920884 290.715159 
L 299.362019 291.383758 
L 301.797519 287.672609 
L 304.2567 295.169666 
L 306.70955 288.830668 
L 309.177672 294.696428 
L 311.603221 297.951264 
L 314.037802 295.124529 
L 316.515962 297.493542 
L 318.962071 294.340264 
L 323.836077 298.436493 
L 326.298187 299.474655 
L 328.738258 297.839126 
L 331.190103 297.03582 
L 333.645585 301.653597 
L 336.104544 299.842808 
L 338.553465 300.495891 
L 341.012376 301.894007 
L 343.463549 299.48735 
L 345.938026 301.310658 
L 348.390249 301.12429 
L 350.836669 301.591886 
L 353.279296 301.847724 
L 355.711992 301.818323 
L 358.146483 302.474976 
L 360.610401 302.127321 
L 363.042306 302.383996 
L 365.494576 302.938187 
L 367.935194 303.327784 
L 370.390883 303.074481 
L 372.820378 303.489744 
L 375.283046 303.360734 
L 380.203957 303.4977 
L 387.574438 303.432286 
L 390.00821 303.14146 
L 392.458085 303.469351 
L 394.905767 303.445322 
L 397.352771 303.172106 
L 399.793931 303.535427 
L 402.229904 303.243339 
L 404.703508 303.530782 
L 409.609364 303.432969 
L 412.066593 303.537956 
L 416.946862 303.519718 
L 419.405293 303.560673 
L 421.859929 303.41753 
L 426.798668 303.509712 
L 431.714545 303.425795 
L 431.714545 303.425795 
" style="fill:none;stroke:#ff7f0e;stroke-linecap:square;stroke-width:1.5;"/>
   </g>
   <g id="line2d_14">
    <path clip-path="url(#p39d2d5987a)" d="M 66.01508 55.406319 
L 68.305227 89.394856 
L 70.58555 110.541775 
L 72.871641 120.314044 
L 75.162188 137.71455 
L 77.450244 175.833169 
L 79.734683 187.659194 
L 82.022797 191.969825 
L 84.318062 197.747425 
L 86.603999 196.57385 
L 88.879975 212.812066 
L 91.164591 221.738006 
L 93.450809 229.456519 
L 95.74664 230.821928 
L 98.029716 240.120253 
L 100.332533 232.638712 
L 102.626054 243.172677 
L 104.91102 234.884303 
L 107.193266 248.854359 
L 109.476809 244.645287 
L 111.760481 233.970269 
L 114.032449 241.338966 
L 116.304505 251.997058 
L 118.599784 245.198222 
L 120.88086 254.327281 
L 123.16324 251.09995 
L 127.716042 251.22972 
L 129.982397 253.650219 
L 132.273831 259.913047 
L 134.539567 258.750756 
L 136.812385 255.890167 
L 139.088846 264.477577 
L 141.358328 257.306356 
L 143.633145 270.00692 
L 145.911392 264.184183 
L 148.191107 263.676386 
L 150.453343 258.570206 
L 152.734148 261.278456 
L 155.003509 261.509786 
L 157.272365 259.5858 
L 159.549891 261.238961 
L 161.81927 260.364422 
L 164.096773 264.545283 
L 166.365398 270.596529 
L 168.635654 263.450698 
L 170.900813 263.433772 
L 173.161228 267.388945 
L 175.439244 267.744403 
L 177.708909 267.654128 
L 179.997447 264.601705 
L 182.272551 267.456652 
L 184.550629 262.305334 
L 186.823556 272.134025 
L 189.086306 274.026979 
L 191.356427 279.55068 
L 193.616523 268.940547 
L 195.885904 275.256976 
L 198.150202 277.141466 
L 200.419536 268.686648 
L 202.677766 274.687115 
L 204.950226 266.21537 
L 207.233121 266.920644 
L 209.506191 270.853248 
L 211.782125 273.835145 
L 214.064579 280.619875 
L 216.334816 275.691424 
L 218.612545 275.807089 
L 220.884156 275.468558 
L 223.176842 264.974089 
L 225.438025 263.60868 
L 227.706451 274.704041 
L 229.980526 275.713993 
L 232.256997 263.501478 
L 234.532818 275.324682 
L 236.803888 273.507898 
L 239.064487 281.43235 
L 241.33742 274.878949 
L 243.609778 271.490816 
L 245.873959 280.721434 
L 248.137032 278.061143 
L 250.402675 285.108235 
L 252.673656 278.086533 
L 254.949625 279.78201 
L 257.223201 273.304779 
L 259.496651 284.848695 
L 261.775008 280.60577 
L 264.064605 281.779345 
L 266.326143 281.79345 
L 268.614026 271.998612 
L 270.884285 285.861467 
L 273.143527 276.955274 
L 275.412477 288.981597 
L 277.68555 283.215281 
L 282.216528 282.199687 
L 284.489816 281.421066 
L 286.77132 288.24106 
L 289.048193 286.659837 
L 291.319843 287.31292 
L 293.590997 290.825182 
L 295.864375 288.452642 
L 298.137362 290.428818 
L 300.398539 288.867343 
L 302.660346 291.488139 
L 304.929409 290.547304 
L 307.186515 295.210572 
L 309.479717 291.410559 
L 314.023504 296.14788 
L 316.296074 294.266916 
L 318.563391 297.381404 
L 320.834657 299.705985 
L 323.106745 291.639067 
L 325.364234 294.613911 
L 327.629292 294.842419 
L 329.915292 297.485079 
L 332.176975 298.495736 
L 334.442536 295.81217 
L 336.716289 298.428029 
L 338.990508 295.904561 
L 341.265873 298.230553 
L 345.811979 301.1056 
L 348.079421 299.986331 
L 350.349983 302.06724 
L 352.622019 301.370606 
L 354.901878 302.048727 
L 357.166815 302.593374 
L 359.439659 302.285082 
L 361.716446 302.818489 
L 363.98908 301.639845 
L 366.260391 302.799667 
L 368.528031 303.224947 
L 370.799572 303.062271 
L 373.061898 302.489787 
L 375.332545 302.852849 
L 377.605074 302.52893 
L 379.869426 303.29457 
L 382.138454 301.726064 
L 384.404096 302.824836 
L 386.67627 303.285644 
L 391.226513 303.289347 
L 393.496943 303.002433 
L 395.766679 303.229178 
L 398.035483 303.092311 
L 400.297142 302.771764 
L 402.573091 303.086228 
L 404.855193 303.075671 
L 404.855193 303.075671 
" style="fill:none;stroke:#2ca02c;stroke-linecap:square;stroke-width:1.5;"/>
   </g>
   <g id="line2d_15">
    <path clip-path="url(#p39d2d5987a)" d="M 86.63575 -1 
L 88.749366 4.604062 
L 91.026341 50.125231 
L 93.300291 18.167881 
L 95.571229 81.811756 
L 97.840391 25.841256 
L 100.117203 59.062456 
L 102.392562 108.149487 
L 104.666606 111.1737 
L 106.943137 118.21515 
L 109.222086 136.382994 
L 111.500496 123.541375 
L 113.782581 146.674344 
L 116.046163 155.904962 
L 118.326371 149.0892 
L 120.597676 160.666969 
L 122.875694 177.514541 
L 125.156909 179.929397 
L 127.417137 184.465716 
L 129.68583 186.869287 
L 131.953242 195.862934 
L 134.222226 194.384681 
L 136.491423 204.292362 
L 138.75822 213.229587 
L 141.029607 204.958141 
L 143.292119 216.547194 
L 145.568471 211.819041 
L 147.830634 228.316797 
L 150.102785 210.510053 
L 152.37086 213.195734 
L 154.640152 219.266728 
L 156.898499 213.613256 
L 159.177849 228.847162 
L 161.454895 226.590287 
L 163.711951 231.149175 
L 165.983254 239.663236 
L 168.256879 235.696778 
L 170.509272 227.752578 
L 172.767684 231.363578 
L 175.023615 236.813931 
L 177.29042 238.122919 
L 179.547744 241.451809 
L 181.815774 245.051525 
L 184.078778 237.536131 
L 186.338187 237.118609 
L 188.592462 251.224078 
L 190.854091 244.820195 
L 193.104565 241.965248 
L 195.364103 246.422577 
L 197.630867 247.026291 
L 199.877888 239.189292 
L 202.140162 250.118209 
L 204.394633 236.012741 
L 206.646422 233.293206 
L 208.910576 245.615744 
L 211.171521 240.774747 
L 213.429875 256.787275 
L 215.68444 247.522803 
L 220.204428 252.358158 
L 222.464366 244.137491 
L 224.717602 232.221191 
L 226.976447 243.353227 
L 229.235924 246.033266 
L 231.491879 234.162103 
L 233.749409 254.028245 
L 236.006489 245.593175 
L 238.257712 254.66017 
L 240.516431 244.791984 
L 242.772115 241.835478 
L 245.036468 248.245003 
L 247.288729 248.26193 
L 249.539546 260.065386 
L 251.797624 251.336922 
L 254.063942 258.000345 
L 256.3191 247.776702 
L 258.570544 260.821439 
L 260.829547 258.99337 
L 263.094986 251.912425 
L 265.348075 250.535731 
L 267.611093 238.438881 
L 269.873943 262.52538 
L 272.126863 249.616055 
L 274.389598 260.116166 
L 276.63874 251.393344 
L 278.893181 257.272503 
L 281.145078 251.664169 
L 283.402193 259.63658 
L 285.6479 261.357447 
L 287.899084 261.498502 
L 290.151263 261.487217 
L 292.409458 264.223678 
L 294.671054 266.734452 
L 296.939066 262.260197 
L 299.193451 262.632581 
L 301.442589 264.364733 
L 303.702165 267.411514 
L 305.964753 272.726455 
L 308.221637 268.173209 
L 310.478487 270.339809 
L 312.743929 277.573094 
L 315.007558 267.862889 
L 317.26742 274.026979 
L 319.517132 278.949787 
L 321.780523 266.452342 
L 324.032958 266.142022 
L 326.293072 270.932239 
L 328.545037 271.651618 
L 330.796152 275.426241 
L 333.054273 276.244359 
L 335.310644 269.798159 
L 337.57961 269.809444 
L 339.840221 273.364022 
L 342.101297 281.144598 
L 344.367993 284.323971 
L 346.631853 278.862334 
L 348.88896 278.935682 
L 351.142013 281.81884 
L 353.395857 282.837255 
L 355.665646 281.957073 
L 357.916955 290.000012 
L 360.170795 288.26786 
L 362.43356 279.748157 
L 364.693199 279.767905 
L 366.964055 286.673942 
L 369.210091 287.895476 
L 371.45741 280.37444 
L 373.714275 292.333056 
L 375.971902 281.720102 
L 378.227207 289.566974 
L 380.491409 279.880748 
L 382.748143 290.995858 
L 385.010767 291.320284 
L 387.259179 290.791329 
L 389.520804 292.149685 
L 391.781378 291.074848 
L 398.554991 289.538763 
L 400.802734 288.259397 
L 403.057718 288.238239 
L 403.057718 288.238239 
" style="fill:none;stroke:#d62728;stroke-linecap:square;stroke-width:1.5;"/>
   </g>
   <g id="patch_3">
    <path d="M 47.72 303.64 
L 47.72 14.76 
" style="fill:none;stroke:#000000;stroke-linecap:square;stroke-linejoin:miter;stroke-width:0.8;"/>
   </g>
   <g id="patch_4">
    <path d="M 450 303.64 
L 450 14.76 
" style="fill:none;stroke:#000000;stroke-linecap:square;stroke-linejoin:miter;stroke-width:0.8;"/>
   </g>
   <g id="patch_5">
    <path d="M 47.72 303.64 
L 450 303.64 
" style="fill:none;stroke:#000000;stroke-linecap:square;stroke-linejoin:miter;stroke-width:0.8;"/>
   </g>
   <g id="patch_6">
    <path d="M 47.72 14.76 
L 450 14.76 
" style="fill:none;stroke:#000000;stroke-linecap:square;stroke-linejoin:miter;stroke-width:0.8;"/>
   </g>
   <g id="legend_1">
    <g id="patch_7">
     <path d="M 330.639063 81.4725 
L 443 81.4725 
Q 445 81.4725 445 79.4725 
L 445 21.76 
Q 445 19.76 443 19.76 
L 330.639063 19.76 
Q 328.639063 19.76 328.639063 21.76 
L 328.639063 79.4725 
Q 328.639063 81.4725 330.639063 81.4725 
z
" style="fill:#ffffff;opacity:0.8;stroke:#cccccc;stroke-linejoin:miter;"/>
    </g>
    <g id="line2d_16">
     <path d="M 332.639063 27.858437 
L 352.639063 27.858437 
" style="fill:none;stroke:#1f77b4;stroke-linecap:square;stroke-width:1.5;"/>
    </g>
    <g id="line2d_17"/>
    <g id="text_14">
     <!-- AllReduce SGD -->
     <g transform="translate(360.639063 31.358437)scale(0.1 -0.1)">
      <defs>
       <path d="M 34.1875 63.1875 
L 20.796875 26.90625 
L 47.609375 26.90625 
z
M 28.609375 72.90625 
L 39.796875 72.90625 
L 67.578125 0 
L 57.328125 0 
L 50.6875 18.703125 
L 17.828125 18.703125 
L 11.1875 0 
L 0.78125 0 
z
" id="DejaVuSans-65"/>
       <path d="M 9.421875 75.984375 
L 18.40625 75.984375 
L 18.40625 0 
L 9.421875 0 
z
" id="DejaVuSans-108"/>
       <path d="M 44.390625 34.1875 
Q 47.5625 33.109375 50.5625 29.59375 
Q 53.5625 26.078125 56.59375 19.921875 
L 66.609375 0 
L 56 0 
L 46.6875 18.703125 
Q 43.0625 26.03125 39.671875 28.421875 
Q 36.28125 30.8125 30.421875 30.8125 
L 19.671875 30.8125 
L 19.671875 0 
L 9.8125 0 
L 9.8125 72.90625 
L 32.078125 72.90625 
Q 44.578125 72.90625 50.734375 67.671875 
Q 56.890625 62.453125 56.890625 51.90625 
Q 56.890625 45.015625 53.6875 40.46875 
Q 50.484375 35.9375 44.390625 34.1875 
z
M 19.671875 64.796875 
L 19.671875 38.921875 
L 32.078125 38.921875 
Q 39.203125 38.921875 42.84375 42.21875 
Q 46.484375 45.515625 46.484375 51.90625 
Q 46.484375 58.296875 42.84375 61.546875 
Q 39.203125 64.796875 32.078125 64.796875 
z
" id="DejaVuSans-82"/>
       <path d="M 45.40625 46.390625 
L 45.40625 75.984375 
L 54.390625 75.984375 
L 54.390625 0 
L 45.40625 0 
L 45.40625 8.203125 
Q 42.578125 3.328125 38.25 0.953125 
Q 33.9375 -1.421875 27.875 -1.421875 
Q 17.96875 -1.421875 11.734375 6.484375 
Q 5.515625 14.40625 5.515625 27.296875 
Q 5.515625 40.1875 11.734375 48.09375 
Q 17.96875 56 27.875 56 
Q 33.9375 56 38.25 53.625 
Q 42.578125 51.265625 45.40625 46.390625 
z
M 14.796875 27.296875 
Q 14.796875 17.390625 18.875 11.75 
Q 22.953125 6.109375 30.078125 6.109375 
Q 37.203125 6.109375 41.296875 11.75 
Q 45.40625 17.390625 45.40625 27.296875 
Q 45.40625 37.203125 41.296875 42.84375 
Q 37.203125 48.484375 30.078125 48.484375 
Q 22.953125 48.484375 18.875 42.84375 
Q 14.796875 37.203125 14.796875 27.296875 
z
" id="DejaVuSans-100"/>
       <path d="M 8.5 21.578125 
L 8.5 54.6875 
L 17.484375 54.6875 
L 17.484375 21.921875 
Q 17.484375 14.15625 20.5 10.265625 
Q 23.53125 6.390625 29.59375 6.390625 
Q 36.859375 6.390625 41.078125 11.03125 
Q 45.3125 15.671875 45.3125 23.6875 
L 45.3125 54.6875 
L 54.296875 54.6875 
L 54.296875 0 
L 45.3125 0 
L 45.3125 8.40625 
Q 42.046875 3.421875 37.71875 1 
Q 33.40625 -1.421875 27.6875 -1.421875 
Q 18.265625 -1.421875 13.375 4.4375 
Q 8.5 10.296875 8.5 21.578125 
z
M 31.109375 56 
z
" id="DejaVuSans-117"/>
       <path d="M 48.78125 52.59375 
L 48.78125 44.1875 
Q 44.96875 46.296875 41.140625 47.34375 
Q 37.3125 48.390625 33.40625 48.390625 
Q 24.65625 48.390625 19.8125 42.84375 
Q 14.984375 37.3125 14.984375 27.296875 
Q 14.984375 17.28125 19.8125 11.734375 
Q 24.65625 6.203125 33.40625 6.203125 
Q 37.3125 6.203125 41.140625 7.25 
Q 44.96875 8.296875 48.78125 10.40625 
L 48.78125 2.09375 
Q 45.015625 0.34375 40.984375 -0.53125 
Q 36.96875 -1.421875 32.421875 -1.421875 
Q 20.0625 -1.421875 12.78125 6.34375 
Q 5.515625 14.109375 5.515625 27.296875 
Q 5.515625 40.671875 12.859375 48.328125 
Q 20.21875 56 33.015625 56 
Q 37.15625 56 41.109375 55.140625 
Q 45.0625 54.296875 48.78125 52.59375 
z
" id="DejaVuSans-99"/>
       <path id="DejaVuSans-32"/>
       <path d="M 53.515625 70.515625 
L 53.515625 60.890625 
Q 47.90625 63.578125 42.921875 64.890625 
Q 37.9375 66.21875 33.296875 66.21875 
Q 25.25 66.21875 20.875 63.09375 
Q 16.5 59.96875 16.5 54.203125 
Q 16.5 49.359375 19.40625 46.890625 
Q 22.3125 44.4375 30.421875 42.921875 
L 36.375 41.703125 
Q 47.40625 39.59375 52.65625 34.296875 
Q 57.90625 29 57.90625 20.125 
Q 57.90625 9.515625 50.796875 4.046875 
Q 43.703125 -1.421875 29.984375 -1.421875 
Q 24.8125 -1.421875 18.96875 -0.25 
Q 13.140625 0.921875 6.890625 3.21875 
L 6.890625 13.375 
Q 12.890625 10.015625 18.65625 8.296875 
Q 24.421875 6.59375 29.984375 6.59375 
Q 38.421875 6.59375 43.015625 9.90625 
Q 47.609375 13.234375 47.609375 19.390625 
Q 47.609375 24.75 44.3125 27.78125 
Q 41.015625 30.8125 33.5 32.328125 
L 27.484375 33.5 
Q 16.453125 35.6875 11.515625 40.375 
Q 6.59375 45.0625 6.59375 53.421875 
Q 6.59375 63.09375 13.40625 68.65625 
Q 20.21875 74.21875 32.171875 74.21875 
Q 37.3125 74.21875 42.625 73.28125 
Q 47.953125 72.359375 53.515625 70.515625 
z
" id="DejaVuSans-83"/>
       <path d="M 59.515625 10.40625 
L 59.515625 29.984375 
L 43.40625 29.984375 
L 43.40625 38.09375 
L 69.28125 38.09375 
L 69.28125 6.78125 
Q 63.578125 2.734375 56.6875 0.65625 
Q 49.8125 -1.421875 42 -1.421875 
Q 24.90625 -1.421875 15.25 8.5625 
Q 5.609375 18.5625 5.609375 36.375 
Q 5.609375 54.25 15.25 64.234375 
Q 24.90625 74.21875 42 74.21875 
Q 49.125 74.21875 55.546875 72.453125 
Q 61.96875 70.703125 67.390625 67.28125 
L 67.390625 56.78125 
Q 61.921875 61.421875 55.765625 63.765625 
Q 49.609375 66.109375 42.828125 66.109375 
Q 29.4375 66.109375 22.71875 58.640625 
Q 16.015625 51.171875 16.015625 36.375 
Q 16.015625 21.625 22.71875 14.15625 
Q 29.4375 6.6875 42.828125 6.6875 
Q 48.046875 6.6875 52.140625 7.59375 
Q 56.25 8.5 59.515625 10.40625 
z
" id="DejaVuSans-71"/>
       <path d="M 19.671875 64.796875 
L 19.671875 8.109375 
L 31.59375 8.109375 
Q 46.6875 8.109375 53.6875 14.9375 
Q 60.6875 21.78125 60.6875 36.53125 
Q 60.6875 51.171875 53.6875 57.984375 
Q 46.6875 64.796875 31.59375 64.796875 
z
M 9.8125 72.90625 
L 30.078125 72.90625 
Q 51.265625 72.90625 61.171875 64.09375 
Q 71.09375 55.28125 71.09375 36.53125 
Q 71.09375 17.671875 61.125 8.828125 
Q 51.171875 0 30.078125 0 
L 9.8125 0 
z
" id="DejaVuSans-68"/>
      </defs>
      <use xlink:href="#DejaVuSans-65"/>
      <use x="68.408203" xlink:href="#DejaVuSans-108"/>
      <use x="96.191406" xlink:href="#DejaVuSans-108"/>
      <use x="123.974609" xlink:href="#DejaVuSans-82"/>
      <use x="188.957031" xlink:href="#DejaVuSans-101"/>
      <use x="250.480469" xlink:href="#DejaVuSans-100"/>
      <use x="313.957031" xlink:href="#DejaVuSans-117"/>
      <use x="377.335938" xlink:href="#DejaVuSans-99"/>
      <use x="432.316406" xlink:href="#DejaVuSans-101"/>
      <use x="493.839844" xlink:href="#DejaVuSans-32"/>
      <use x="525.626953" xlink:href="#DejaVuSans-83"/>
      <use x="589.103516" xlink:href="#DejaVuSans-71"/>
      <use x="666.59375" xlink:href="#DejaVuSans-68"/>
     </g>
    </g>
    <g id="line2d_18">
     <path d="M 332.639063 42.536563 
L 352.639063 42.536563 
" style="fill:none;stroke:#ff7f0e;stroke-linecap:square;stroke-width:1.5;"/>
    </g>
    <g id="line2d_19"/>
    <g id="text_15">
     <!-- QSGD-MN 8 bits -->
     <g transform="translate(360.639063 46.036563)scale(0.1 -0.1)">
      <defs>
       <path d="M 39.40625 66.21875 
Q 28.65625 66.21875 22.328125 58.203125 
Q 16.015625 50.203125 16.015625 36.375 
Q 16.015625 22.609375 22.328125 14.59375 
Q 28.65625 6.59375 39.40625 6.59375 
Q 50.140625 6.59375 56.421875 14.59375 
Q 62.703125 22.609375 62.703125 36.375 
Q 62.703125 50.203125 56.421875 58.203125 
Q 50.140625 66.21875 39.40625 66.21875 
z
M 53.21875 1.3125 
L 66.21875 -12.890625 
L 54.296875 -12.890625 
L 43.5 -1.21875 
Q 41.890625 -1.3125 41.03125 -1.359375 
Q 40.1875 -1.421875 39.40625 -1.421875 
Q 24.03125 -1.421875 14.8125 8.859375 
Q 5.609375 19.140625 5.609375 36.375 
Q 5.609375 53.65625 14.8125 63.9375 
Q 24.03125 74.21875 39.40625 74.21875 
Q 54.734375 74.21875 63.90625 63.9375 
Q 73.09375 53.65625 73.09375 36.375 
Q 73.09375 23.6875 67.984375 14.640625 
Q 62.890625 5.609375 53.21875 1.3125 
z
" id="DejaVuSans-81"/>
       <path d="M 4.890625 31.390625 
L 31.203125 31.390625 
L 31.203125 23.390625 
L 4.890625 23.390625 
z
" id="DejaVuSans-45"/>
       <path d="M 9.8125 72.90625 
L 24.515625 72.90625 
L 43.109375 23.296875 
L 61.8125 72.90625 
L 76.515625 72.90625 
L 76.515625 0 
L 66.890625 0 
L 66.890625 64.015625 
L 48.09375 14.015625 
L 38.1875 14.015625 
L 19.390625 64.015625 
L 19.390625 0 
L 9.8125 0 
z
" id="DejaVuSans-77"/>
       <path d="M 9.8125 72.90625 
L 23.09375 72.90625 
L 55.421875 11.921875 
L 55.421875 72.90625 
L 64.984375 72.90625 
L 64.984375 0 
L 51.703125 0 
L 19.390625 60.984375 
L 19.390625 0 
L 9.8125 0 
z
" id="DejaVuSans-78"/>
       <path d="M 48.6875 27.296875 
Q 48.6875 37.203125 44.609375 42.84375 
Q 40.53125 48.484375 33.40625 48.484375 
Q 26.265625 48.484375 22.1875 42.84375 
Q 18.109375 37.203125 18.109375 27.296875 
Q 18.109375 17.390625 22.1875 11.75 
Q 26.265625 6.109375 33.40625 6.109375 
Q 40.53125 6.109375 44.609375 11.75 
Q 48.6875 17.390625 48.6875 27.296875 
z
M 18.109375 46.390625 
Q 20.953125 51.265625 25.265625 53.625 
Q 29.59375 56 35.59375 56 
Q 45.5625 56 51.78125 48.09375 
Q 58.015625 40.1875 58.015625 27.296875 
Q 58.015625 14.40625 51.78125 6.484375 
Q 45.5625 -1.421875 35.59375 -1.421875 
Q 29.59375 -1.421875 25.265625 0.953125 
Q 20.953125 3.328125 18.109375 8.203125 
L 18.109375 0 
L 9.078125 0 
L 9.078125 75.984375 
L 18.109375 75.984375 
z
" id="DejaVuSans-98"/>
       <path d="M 18.3125 70.21875 
L 18.3125 54.6875 
L 36.8125 54.6875 
L 36.8125 47.703125 
L 18.3125 47.703125 
L 18.3125 18.015625 
Q 18.3125 11.328125 20.140625 9.421875 
Q 21.96875 7.515625 27.59375 7.515625 
L 36.8125 7.515625 
L 36.8125 0 
L 27.59375 0 
Q 17.1875 0 13.234375 3.875 
Q 9.28125 7.765625 9.28125 18.015625 
L 9.28125 47.703125 
L 2.6875 47.703125 
L 2.6875 54.6875 
L 9.28125 54.6875 
L 9.28125 70.21875 
z
" id="DejaVuSans-116"/>
      </defs>
      <use xlink:href="#DejaVuSans-81"/>
      <use x="78.710938" xlink:href="#DejaVuSans-83"/>
      <use x="142.1875" xlink:href="#DejaVuSans-71"/>
      <use x="219.677734" xlink:href="#DejaVuSans-68"/>
      <use x="296.679688" xlink:href="#DejaVuSans-45"/>
      <use x="332.763672" xlink:href="#DejaVuSans-77"/>
      <use x="419.042969" xlink:href="#DejaVuSans-78"/>
      <use x="493.847656" xlink:href="#DejaVuSans-32"/>
      <use x="525.634766" xlink:href="#DejaVuSans-56"/>
      <use x="589.257812" xlink:href="#DejaVuSans-32"/>
      <use x="621.044922" xlink:href="#DejaVuSans-98"/>
      <use x="684.521484" xlink:href="#DejaVuSans-105"/>
      <use x="712.304688" xlink:href="#DejaVuSans-116"/>
      <use x="751.513672" xlink:href="#DejaVuSans-115"/>
     </g>
    </g>
    <g id="line2d_20">
     <path d="M 332.639063 57.214687 
L 352.639063 57.214687 
" style="fill:none;stroke:#2ca02c;stroke-linecap:square;stroke-width:1.5;"/>
    </g>
    <g id="line2d_21"/>
    <g id="text_16">
     <!-- QSGD-MN 4 bits -->
     <g transform="translate(360.639063 60.714687)scale(0.1 -0.1)">
      <use xlink:href="#DejaVuSans-81"/>
      <use x="78.710938" xlink:href="#DejaVuSans-83"/>
      <use x="142.1875" xlink:href="#DejaVuSans-71"/>
      <use x="219.677734" xlink:href="#DejaVuSans-68"/>
      <use x="296.679688" xlink:href="#DejaVuSans-45"/>
      <use x="332.763672" xlink:href="#DejaVuSans-77"/>
      <use x="419.042969" xlink:href="#DejaVuSans-78"/>
      <use x="493.847656" xlink:href="#DejaVuSans-32"/>
      <use x="525.634766" xlink:href="#DejaVuSans-52"/>
      <use x="589.257812" xlink:href="#DejaVuSans-32"/>
      <use x="621.044922" xlink:href="#DejaVuSans-98"/>
      <use x="684.521484" xlink:href="#DejaVuSans-105"/>
      <use x="712.304688" xlink:href="#DejaVuSans-116"/>
      <use x="751.513672" xlink:href="#DejaVuSans-115"/>
     </g>
    </g>
    <g id="line2d_22">
     <path d="M 332.639063 71.892812 
L 352.639063 71.892812 
" style="fill:none;stroke:#d62728;stroke-linecap:square;stroke-width:1.5;"/>
    </g>
    <g id="line2d_23"/>
    <g id="text_17">
     <!-- QSGD-MN 2 bits -->
     <g transform="translate(360.639063 75.392812)scale(0.1 -0.1)">
      <use xlink:href="#DejaVuSans-81"/>
      <use x="78.710938" xlink:href="#DejaVuSans-83"/>
      <use x="142.1875" xlink:href="#DejaVuSans-71"/>
      <use x="219.677734" xlink:href="#DejaVuSans-68"/>
      <use x="296.679688" xlink:href="#DejaVuSans-45"/>
      <use x="332.763672" xlink:href="#DejaVuSans-77"/>
      <use x="419.042969" xlink:href="#DejaVuSans-78"/>
      <use x="493.847656" xlink:href="#DejaVuSans-32"/>
      <use x="525.634766" xlink:href="#DejaVuSans-50"/>
      <use x="589.257812" xlink:href="#DejaVuSans-32"/>
      <use x="621.044922" xlink:href="#DejaVuSans-98"/>
      <use x="684.521484" xlink:href="#DejaVuSans-105"/>
      <use x="712.304688" xlink:href="#DejaVuSans-116"/>
      <use x="751.513672" xlink:href="#DejaVuSans-115"/>
     </g>
    </g>
   </g>
  </g>
 </g>
 <defs>
  <clipPath id="p39d2d5987a">
   <rect height="288.88" width="402.28" x="47.72" y="14.76"/>
  </clipPath>
 </defs>
</svg>
