<?xml version="1.0" encoding="utf-8" standalone="no"?>
<!DOCTYPE svg PUBLIC "-//W3C//DTD SVG 1.1//EN"
  "http://www.w3.org/Graphics/SVG/1.1/DTD/svg11.dtd">
<!-- Created with matplotlib (https://matplotlib.org/) -->
<svg height="345.6pt" version="1.1" viewBox="0 0 460.8 345.6" width="460.8pt" xmlns="http://www.w3.org/2000/svg" xmlns:xlink="http://www.w3.org/1999/xlink">
 <metadata>
  <rdf:RDF xmlns:cc="http://creativecommons.org/ns#" xmlns:dc="http://purl.org/dc/elements/1.1/" xmlns:rdf="http://www.w3.org/1999/02/22-rdf-syntax-ns#">
   <cc:Work>
    <dc:type rdf:resource="http://purl.org/dc/dcmitype/StillImage"/>
    <dc:date>2021-06-10T08:57:21.085478</dc:date>
    <dc:format>image/svg+xml</dc:format>
    <dc:creator>
     <cc:Agent>
      <dc:title>Matplotlib v3.3.1, https://matplotlib.org/</dc:title>
     </cc:Agent>
    </dc:creator>
   </cc:Work>
  </rdf:RDF>
 </metadata>
 <defs>
  <style type="text/css">*{stroke-linecap:butt;stroke-linejoin:round;}</style>
 </defs>
 <g id="figure_1">
  <g id="patch_1">
   <path d="M 0 345.6 
L 460.8 345.6 
L 460.8 0 
L 0 0 
z
" style="fill:#ffffff;"/>
  </g>
  <g id="axes_1">
   <g id="patch_2">
    <path d="M 47.72 303.64 
L 450 303.64 
L 450 14.76 
L 47.72 14.76 
z
" style="fill:#ffffff;"/>
   </g>
   <g id="PolyCollection_1">
    <path clip-path="url(#pc9f3971c37)" d="M 66.005455 36.705705 
L 66.005455 52.756895 
L 68.459878 76.283789 
L 70.914301 90.849332 
L 73.368725 99.001384 
L 75.823148 117.993606 
L 78.277572 148.26022 
L 80.731995 162.338697 
L 83.186419 172.467608 
L 85.640842 184.658613 
L 88.095265 170.8425 
L 90.549689 200.999982 
L 93.004112 202.858666 
L 95.458536 220.928591 
L 97.912959 221.339344 
L 100.367383 230.577193 
L 102.821806 231.147217 
L 105.276229 245.418758 
L 107.730653 231.678067 
L 110.185076 243.289598 
L 112.6395 243.592336 
L 115.093923 236.957601 
L 117.548347 241.358429 
L 120.00277 254.780084 
L 122.457193 248.134076 
L 124.911617 258.897849 
L 127.36604 256.025969 
L 129.820464 259.807077 
L 132.274887 259.305021 
L 134.729311 263.207871 
L 137.183734 263.50163 
L 139.638157 258.679798 
L 142.092581 263.775357 
L 144.547004 272.363457 
L 147.001428 265.177781 
L 149.455851 281.592939 
L 151.910275 271.593068 
L 154.364698 271.587978 
L 156.819121 265.659388 
L 159.273545 265.452992 
L 161.727968 272.205149 
L 164.182392 270.638349 
L 166.636815 271.025714 
L 169.091239 271.140167 
L 171.545662 271.583867 
L 174.000085 277.745464 
L 176.454509 269.124544 
L 178.908932 267.908454 
L 181.363356 279.132672 
L 183.817779 273.333675 
L 186.272203 275.891027 
L 188.726626 274.514894 
L 191.181049 279.095973 
L 193.635473 274.650874 
L 196.089896 281.540878 
L 198.54432 282.243853 
L 200.998743 282.664729 
L 203.453167 275.066041 
L 205.90759 285.556254 
L 208.362013 284.387465 
L 210.816437 278.18504 
L 213.27086 281.411013 
L 215.725284 277.190988 
L 218.179707 279.965614 
L 220.634131 280.05521 
L 223.088554 280.085236 
L 225.542977 287.704561 
L 227.997401 285.91601 
L 230.451824 285.551135 
L 232.906248 282.550617 
L 235.360671 278.432467 
L 237.815095 276.022231 
L 240.269518 283.48046 
L 242.723941 287.658729 
L 245.178365 280.738932 
L 247.632788 285.628669 
L 250.087212 284.425706 
L 252.541635 287.984519 
L 254.996059 288.821359 
L 257.450482 287.306359 
L 259.904905 289.651866 
L 262.359329 290.041378 
L 264.813752 294.595242 
L 267.268176 290.568084 
L 269.722599 289.770772 
L 272.177023 284.134268 
L 274.631446 292.474904 
L 277.085869 290.828825 
L 279.540293 292.027236 
L 281.994716 291.910754 
L 284.44914 287.12802 
L 286.903563 297.155058 
L 289.357987 291.08559 
L 291.81241 297.171884 
L 294.266833 292.860705 
L 296.721257 293.573299 
L 299.17568 296.578327 
L 301.630104 295.532302 
L 304.084527 295.547367 
L 306.538951 292.226036 
L 308.993374 296.219477 
L 311.447797 300.365351 
L 313.902221 297.329727 
L 316.356644 298.5765 
L 318.811068 298.329908 
L 321.265491 297.779101 
L 323.719915 299.484721 
L 326.174338 298.570961 
L 328.628761 299.875423 
L 331.083185 300.576075 
L 333.537608 301.134841 
L 335.992032 298.359225 
L 338.446455 300.016902 
L 340.900879 302.261894 
L 343.355302 302.039859 
L 345.809725 301.852002 
L 348.264149 302.291347 
L 350.718572 302.670829 
L 353.172996 302.802904 
L 355.627419 302.619212 
L 358.081843 302.916903 
L 360.536266 302.844699 
L 362.990689 302.683768 
L 365.445113 303.472301 
L 367.899536 303.832087 
L 370.35396 303.492126 
L 372.808383 303.427211 
L 375.262807 303.584801 
L 377.71723 303.451279 
L 380.171653 303.549949 
L 382.626077 303.523129 
L 385.0805 303.556815 
L 387.534924 303.457428 
L 389.989347 303.527084 
L 392.443771 303.529021 
L 394.898194 303.512329 
L 397.352617 303.598676 
L 399.807041 303.589367 
L 402.261464 303.59475 
L 404.715888 303.569425 
L 407.170311 303.472827 
L 409.624735 303.514348 
L 412.079158 303.647131 
L 414.533581 303.53199 
L 416.988005 303.576429 
L 419.442428 303.574956 
L 421.896852 303.558061 
L 424.351275 303.489432 
L 426.805699 303.547601 
L 429.260122 303.569633 
L 431.714545 303.555699 
L 431.714545 303.387776 
L 431.714545 303.387776 
L 429.260122 303.31235 
L 426.805699 303.483812 
L 424.351275 303.384022 
L 421.896852 303.51115 
L 419.442428 303.527932 
L 416.988005 303.515483 
L 414.533581 303.337387 
L 412.079158 303.164457 
L 409.624735 303.303544 
L 407.170311 303.124028 
L 404.715888 303.424895 
L 402.261464 303.330872 
L 399.807041 303.407763 
L 397.352617 302.871802 
L 394.898194 303.426495 
L 392.443771 303.463801 
L 389.989347 303.343901 
L 387.534924 303.138721 
L 385.0805 303.3227 
L 382.626077 302.921255 
L 380.171653 303.260361 
L 377.71723 303.347857 
L 375.262807 303.064993 
L 372.808383 303.182074 
L 370.35396 302.937006 
L 367.899536 302.184504 
L 365.445113 302.658809 
L 362.990689 301.881105 
L 360.536266 302.022737 
L 358.081843 301.149871 
L 355.627419 301.539776 
L 353.172996 299.232683 
L 350.718572 301.424509 
L 348.264149 299.419813 
L 345.809725 298.859434 
L 343.355302 300.302874 
L 340.900879 301.15356 
L 338.446455 298.567782 
L 335.992032 296.163789 
L 333.537608 299.703896 
L 331.083185 299.08274 
L 328.628761 297.807216 
L 326.174338 296.454207 
L 323.719915 296.13852 
L 321.265491 293.424896 
L 318.811068 294.302973 
L 316.356644 295.296252 
L 313.902221 294.386299 
L 311.447797 297.134623 
L 308.993374 290.813533 
L 306.538951 290.267835 
L 304.084527 288.091867 
L 301.630104 288.673972 
L 299.17568 293.055731 
L 296.721257 288.759769 
L 294.266833 289.777041 
L 291.81241 291.683552 
L 289.357987 285.952285 
L 286.903563 291.340689 
L 284.44914 279.957037 
L 281.994716 287.722527 
L 279.540293 288.048957 
L 277.085869 285.469923 
L 274.631446 288.159866 
L 272.177023 282.347074 
L 269.722599 280.019713 
L 267.268176 286.18486 
L 264.813752 292.990702 
L 262.359329 284.584461 
L 259.904905 284.818813 
L 257.450482 285.087996 
L 254.996059 285.49134 
L 252.541635 285.594695 
L 250.087212 279.426377 
L 247.632788 282.020606 
L 245.178365 269.662176 
L 242.723941 280.678893 
L 240.269518 277.62952 
L 237.815095 270.688886 
L 235.360671 272.939097 
L 232.906248 280.663898 
L 230.451824 279.372963 
L 227.997401 280.074462 
L 225.542977 283.877319 
L 223.088554 276.178104 
L 220.634131 269.488286 
L 218.179707 274.125484 
L 215.725284 272.493562 
L 213.27086 273.848019 
L 210.816437 270.991713 
L 208.362013 276.147012 
L 205.90759 278.521516 
L 203.453167 267.644765 
L 200.998743 279.438276 
L 198.54432 277.088838 
L 196.089896 278.124702 
L 193.635473 269.876717 
L 191.181049 272.06683 
L 188.726626 268.568296 
L 186.272203 271.846968 
L 183.817779 268.790344 
L 181.363356 273.485815 
L 178.908932 261.20468 
L 176.454509 264.863441 
L 174.000085 274.455502 
L 171.545662 267.109702 
L 169.091239 267.39542 
L 166.636815 268.186936 
L 164.182392 264.861741 
L 161.727968 264.32182 
L 159.273545 262.565558 
L 156.819121 259.176969 
L 154.364698 265.604769 
L 151.910275 265.159588 
L 149.455851 272.52637 
L 147.001428 258.462431 
L 144.547004 264.581033 
L 142.092581 251.20974 
L 139.638157 255.56053 
L 137.183734 260.567389 
L 134.729311 250.829338 
L 132.274887 247.814867 
L 129.820464 247.143545 
L 127.36604 251.940246 
L 124.911617 250.287079 
L 122.457193 240.242465 
L 120.00277 243.583129 
L 117.548347 232.134021 
L 115.093923 225.769555 
L 112.6395 235.011936 
L 110.185076 235.235684 
L 107.730653 224.594427 
L 105.276229 236.345138 
L 102.821806 215.804383 
L 100.367383 209.671488 
L 97.912959 204.623318 
L 95.458536 200.407478 
L 93.004112 191.891415 
L 90.549689 183.07508 
L 88.095265 147.5575 
L 85.640842 154.4595 
L 83.186419 140.470755 
L 80.731995 132.228703 
L 78.277572 115.07203 
L 75.823148 94.017307 
L 73.368725 79.382091 
L 70.914301 75.572705 
L 68.459878 50.372111 
L 66.005455 36.705705 
z
" style="fill:#1f77b4;fill-opacity:0.25;"/>
   </g>
   <g id="PolyCollection_2">
    <path clip-path="url(#pc9f3971c37)" d="M 66.005455 37.757668 
L 66.005455 42.316332 
L 68.459878 72.087488 
L 70.914301 84.565633 
L 73.368725 88.307716 
L 75.823148 101.225443 
L 78.277572 118.813828 
L 80.731995 127.301124 
L 83.186419 128.180423 
L 85.640842 145.867562 
L 88.095265 145.392567 
L 90.549689 176.843399 
L 93.004112 178.646899 
L 95.458536 197.407515 
L 97.912959 205.06824 
L 100.367383 213.538848 
L 102.821806 217.631034 
L 105.276229 236.047315 
L 107.730653 223.637312 
L 110.185076 239.00726 
L 112.6395 234.792534 
L 115.093923 227.965571 
L 117.548347 236.38434 
L 120.00277 248.254962 
L 122.457193 242.747087 
L 124.911617 252.944764 
L 127.36604 255.190804 
L 129.820464 250.283018 
L 132.274887 255.431458 
L 134.729311 256.564298 
L 137.183734 264.761536 
L 139.638157 263.215222 
L 142.092581 260.368129 
L 144.547004 268.088368 
L 147.001428 260.949772 
L 149.455851 272.441406 
L 151.910275 270.317557 
L 154.364698 270.366652 
L 156.819121 266.833378 
L 159.273545 262.514527 
L 161.727968 268.333805 
L 164.182392 267.56214 
L 166.636815 269.389481 
L 169.091239 269.134844 
L 171.545662 272.202184 
L 174.000085 279.7136 
L 176.454509 271.109135 
L 178.908932 266.85403 
L 181.363356 273.363267 
L 183.817779 272.932418 
L 186.272203 274.76488 
L 188.726626 272.574638 
L 191.181049 277.971798 
L 193.635473 273.689154 
L 196.089896 276.751751 
L 198.54432 281.246972 
L 200.998743 284.678663 
L 203.453167 273.892442 
L 205.90759 281.069968 
L 208.362013 280.454317 
L 210.816437 276.161192 
L 213.27086 283.420769 
L 215.725284 278.941082 
L 218.179707 276.988388 
L 220.634131 278.558629 
L 223.088554 278.740565 
L 225.542977 287.678478 
L 227.997401 284.528924 
L 230.451824 282.248844 
L 232.906248 285.010204 
L 235.360671 278.971511 
L 237.815095 273.192238 
L 240.269518 282.51473 
L 242.723941 287.937741 
L 245.178365 282.162007 
L 247.632788 283.452673 
L 250.087212 285.069299 
L 252.541635 288.080919 
L 254.996059 287.237017 
L 257.450482 285.044137 
L 259.904905 289.962481 
L 262.359329 288.356468 
L 264.813752 292.033611 
L 267.268176 286.228611 
L 269.722599 290.886177 
L 272.177023 285.388448 
L 274.631446 293.944713 
L 277.085869 291.136851 
L 279.540293 291.974101 
L 281.994716 292.46308 
L 284.44914 285.555522 
L 286.903563 295.51488 
L 289.357987 290.673588 
L 291.81241 296.155493 
L 294.266833 295.590284 
L 296.721257 292.793774 
L 299.17568 293.427428 
L 301.630104 289.569147 
L 304.084527 296.998372 
L 306.538951 293.144116 
L 308.993374 297.182492 
L 311.447797 299.469608 
L 313.902221 298.568183 
L 316.356644 299.256603 
L 318.811068 297.717187 
L 321.265491 299.343123 
L 323.719915 300.573917 
L 326.174338 300.340165 
L 328.628761 300.198318 
L 331.083185 301.489932 
L 333.537608 302.292842 
L 335.992032 300.979256 
L 338.446455 301.437963 
L 340.900879 302.531971 
L 343.355302 300.644666 
L 345.809725 302.349972 
L 348.264149 302.050963 
L 350.718572 302.198585 
L 353.172996 302.905357 
L 355.627419 303.672638 
L 358.081843 303.32521 
L 360.536266 302.847028 
L 362.990689 302.872835 
L 365.445113 303.341067 
L 367.899536 303.535419 
L 370.35396 303.544516 
L 372.808383 303.545689 
L 375.262807 303.551946 
L 377.71723 303.627849 
L 380.171653 303.573628 
L 382.626077 303.555272 
L 385.0805 303.597323 
L 387.534924 303.523754 
L 389.989347 303.540177 
L 392.443771 303.584318 
L 394.898194 303.529177 
L 397.352617 303.582093 
L 399.807041 303.621922 
L 402.261464 303.685204 
L 404.715888 303.579904 
L 407.170311 303.547819 
L 409.624735 303.671719 
L 412.079158 303.575679 
L 414.533581 303.594865 
L 416.988005 303.595535 
L 419.442428 303.589986 
L 421.896852 303.613534 
L 424.351275 303.562183 
L 426.805699 303.547152 
L 429.260122 303.57336 
L 431.714545 303.482628 
L 431.714545 303.368963 
L 431.714545 303.368963 
L 429.260122 303.372396 
L 426.805699 303.472272 
L 424.351275 303.402934 
L 421.896852 303.221527 
L 419.442428 303.53136 
L 416.988005 303.4439 
L 414.533581 303.416107 
L 412.079158 303.500233 
L 409.624735 303.194219 
L 407.170311 303.36275 
L 404.715888 303.481659 
L 402.261464 302.801474 
L 399.807041 303.448932 
L 397.352617 302.762119 
L 394.898194 303.361468 
L 392.443771 303.354385 
L 389.989347 302.742743 
L 387.534924 303.340818 
L 385.0805 303.54051 
L 382.626077 303.443169 
L 380.171653 303.421772 
L 377.71723 303.273111 
L 375.262807 303.169522 
L 372.808383 303.433798 
L 370.35396 302.604446 
L 367.899536 303.120149 
L 365.445113 302.535307 
L 362.990689 301.895157 
L 360.536266 301.407613 
L 358.081843 301.624743 
L 355.627419 299.964008 
L 353.172996 300.79009 
L 350.718572 300.985187 
L 348.264149 300.197616 
L 345.809725 300.271345 
L 343.355302 298.330034 
L 340.900879 301.256044 
L 338.446455 299.553819 
L 335.992032 298.70636 
L 333.537608 301.014353 
L 331.083185 292.581707 
L 328.628761 295.479934 
L 326.174338 298.609145 
L 323.719915 296.299068 
L 321.265491 293.385675 
L 318.811068 290.963342 
L 316.356644 295.730481 
L 313.902221 291.680874 
L 311.447797 296.432921 
L 308.993374 292.210363 
L 306.538951 284.517221 
L 304.084527 293.34096 
L 301.630104 285.776072 
L 299.17568 289.340088 
L 296.721257 288.636544 
L 294.266833 287.143379 
L 291.81241 290.939581 
L 289.357987 284.118697 
L 286.903563 288.7591 
L 284.44914 274.363956 
L 281.994716 289.009554 
L 279.540293 285.21047 
L 277.085869 288.344091 
L 274.631446 289.341885 
L 272.177023 280.53996 
L 269.722599 286.052959 
L 267.268176 282.661945 
L 264.813752 284.846283 
L 262.359329 282.838922 
L 259.904905 281.720958 
L 257.450482 274.92612 
L 254.996059 281.281155 
L 252.541635 283.269631 
L 250.087212 278.167785 
L 247.632788 277.284923 
L 245.178365 269.277264 
L 242.723941 276.828376 
L 240.269518 275.796725 
L 237.815095 266.483072 
L 235.360671 270.673543 
L 232.906248 279.394813 
L 230.451824 278.940126 
L 227.997401 276.445644 
L 225.542977 280.001829 
L 223.088554 272.918751 
L 220.634131 270.059547 
L 218.179707 269.57039 
L 215.725284 270.004341 
L 213.27086 276.831598 
L 210.816437 271.3624 
L 208.362013 276.593288 
L 205.90759 278.352998 
L 203.453167 268.592677 
L 200.998743 277.294572 
L 198.54432 275.529807 
L 196.089896 272.893303 
L 193.635473 265.258313 
L 191.181049 273.061234 
L 188.726626 265.261318 
L 186.272203 268.160329 
L 183.817779 270.523157 
L 181.363356 267.88057 
L 178.908932 258.63682 
L 176.454509 264.989028 
L 174.000085 271.172736 
L 171.545662 262.711119 
L 169.091239 263.961675 
L 166.636815 263.221809 
L 164.182392 260.670813 
L 161.727968 259.673461 
L 159.273545 258.090189 
L 156.819121 257.743438 
L 154.364698 265.855639 
L 151.910275 262.869237 
L 149.455851 264.31125 
L 147.001428 253.86606 
L 144.547004 256.951107 
L 142.092581 246.00699 
L 139.638157 251.927857 
L 137.183734 255.572354 
L 134.729311 250.160636 
L 132.274887 242.92047 
L 129.820464 243.352041 
L 127.36604 240.949386 
L 124.911617 233.265176 
L 122.457193 226.209044 
L 120.00277 238.507913 
L 117.548347 219.030541 
L 115.093923 212.982742 
L 112.6395 219.877578 
L 110.185076 211.149102 
L 107.730653 203.363513 
L 105.276229 210.430342 
L 102.821806 192.872035 
L 100.367383 188.749195 
L 97.912959 175.98261 
L 95.458536 178.475091 
L 93.004112 154.513063 
L 90.549689 155.007576 
L 88.095265 127.283145 
L 85.640842 131.637863 
L 83.186419 119.57939 
L 80.731995 110.483301 
L 78.277572 102.224584 
L 75.823148 82.574532 
L 73.368725 70.937459 
L 70.914301 52.291342 
L 68.459878 38.815425 
L 66.005455 37.757668 
z
" style="fill:#ff7f0e;fill-opacity:0.25;"/>
   </g>
   <g id="PolyCollection_3">
    <path clip-path="url(#pc9f3971c37)" d="M 66.005455 42.040664 
L 66.005455 68.771974 
L 68.459878 116.845508 
L 70.914301 135.500751 
L 73.368725 138.938336 
L 75.823148 156.512517 
L 78.277572 193.13747 
L 80.731995 204.287118 
L 83.186419 207.836732 
L 85.640842 207.247193 
L 88.095265 202.868529 
L 90.549689 224.624839 
L 93.004112 232.214781 
L 95.458536 232.639513 
L 97.912959 235.896335 
L 100.367383 242.934432 
L 102.821806 236.259327 
L 105.276229 246.091362 
L 107.730653 239.408282 
L 110.185076 252.998814 
L 112.6395 251.932744 
L 115.093923 237.436134 
L 117.548347 244.224193 
L 120.00277 256.286256 
L 122.457193 248.13306 
L 124.911617 258.760619 
L 127.36604 254.323146 
L 129.820464 254.296401 
L 132.274887 254.518946 
L 134.729311 255.391453 
L 137.183734 263.887807 
L 139.638157 262.561109 
L 142.092581 259.679038 
L 144.547004 268.987284 
L 147.001428 262.045747 
L 149.455851 272.189608 
L 151.910275 266.195336 
L 154.364698 267.617752 
L 156.819121 262.809423 
L 159.273545 264.345887 
L 161.727968 266.028069 
L 164.182392 262.621045 
L 166.636815 264.847712 
L 169.091239 263.159498 
L 171.545662 268.324639 
L 174.000085 273.006404 
L 176.454509 265.654881 
L 178.908932 265.529326 
L 181.363356 270.401842 
L 183.817779 270.647669 
L 186.272203 271.144477 
L 188.726626 267.408283 
L 191.181049 272.678605 
L 193.635473 265.615688 
L 196.089896 275.0515 
L 198.54432 277.068945 
L 200.998743 282.070952 
L 203.453167 272.080514 
L 205.90759 279.875102 
L 208.362013 279.524708 
L 210.816437 270.433632 
L 213.27086 278.293369 
L 215.725284 267.788883 
L 218.179707 268.332724 
L 220.634131 273.925853 
L 223.088554 275.716668 
L 225.542977 282.657849 
L 227.997401 278.181742 
L 230.451824 278.335416 
L 232.906248 277.019015 
L 235.360671 265.603288 
L 237.815095 266.857277 
L 240.269518 278.736149 
L 242.723941 277.93884 
L 245.178365 266.898637 
L 247.632788 276.909363 
L 250.087212 276.59354 
L 252.541635 284.753756 
L 254.996059 278.776165 
L 257.450482 274.190271 
L 259.904905 282.211586 
L 262.359329 280.730211 
L 264.813752 288.474693 
L 267.268176 282.584498 
L 269.722599 282.735341 
L 272.177023 276.92603 
L 274.631446 286.524657 
L 277.085869 282.531711 
L 279.540293 285.105477 
L 281.994716 284.436461 
L 284.44914 273.561977 
L 286.903563 288.559996 
L 289.357987 279.438116 
L 291.81241 290.252832 
L 294.266833 286.160752 
L 296.721257 283.585071 
L 299.17568 284.813504 
L 301.630104 283.397028 
L 304.084527 292.044961 
L 306.538951 288.140666 
L 308.993374 289.347416 
L 311.447797 294.60848 
L 313.902221 292.415893 
L 316.356644 292.686704 
L 318.811068 291.328856 
L 321.265491 293.666792 
L 323.719915 291.930169 
L 326.174338 297.1556 
L 328.628761 296.70063 
L 331.083185 295.513122 
L 333.537608 297.443972 
L 335.992032 296.352666 
L 338.446455 298.61472 
L 340.900879 300.246928 
L 343.355302 293.083226 
L 345.809725 295.49 
L 348.264149 297.218824 
L 350.718572 299.580427 
L 353.172996 300.184032 
L 355.627419 298.170124 
L 358.081843 299.590785 
L 360.536266 297.799516 
L 362.990689 299.421985 
L 365.445113 300.988598 
L 367.899536 301.882441 
L 370.35396 301.042161 
L 372.808383 302.499029 
L 375.262807 303.090075 
L 377.71723 302.813571 
L 380.171653 303.138743 
L 382.626077 303.184415 
L 385.0805 303.219092 
L 387.534924 302.80817 
L 389.989347 303.098884 
L 392.443771 303.407494 
L 394.898194 303.28378 
L 397.352617 302.83674 
L 399.807041 303.708118 
L 402.261464 303.19588 
L 404.715888 303.449737 
L 407.170311 302.37882 
L 409.624735 303.079695 
L 412.079158 303.502309 
L 414.533581 303.386031 
L 416.988005 303.460344 
L 419.442428 303.476318 
L 421.896852 303.337913 
L 424.351275 303.253314 
L 426.805699 303.28417 
L 429.260122 303.30559 
L 431.714545 303.464398 
L 431.714545 302.686944 
L 431.714545 302.686944 
L 429.260122 302.866866 
L 426.805699 302.259358 
L 424.351275 302.931308 
L 421.896852 303.120443 
L 419.442428 302.528547 
L 416.988005 303.11835 
L 414.533581 303.223166 
L 412.079158 303.068979 
L 409.624735 302.569977 
L 407.170311 301.073308 
L 404.715888 303.139404 
L 402.261464 301.86198 
L 399.807041 301.997579 
L 397.352617 302.142835 
L 394.898194 302.840762 
L 392.443771 303.042399 
L 389.989347 302.50045 
L 387.534924 300.471519 
L 385.0805 302.417886 
L 382.626077 301.385748 
L 380.171653 302.048005 
L 377.71723 301.283883 
L 375.262807 299.651137 
L 372.808383 301.635451 
L 370.35396 298.930501 
L 367.899536 300.328759 
L 365.445113 298.252695 
L 362.990689 297.039121 
L 360.536266 294.009606 
L 358.081843 297.265273 
L 355.627419 293.454216 
L 353.172996 296.807439 
L 350.718572 295.389731 
L 348.264149 292.466015 
L 345.809725 293.737821 
L 343.355302 290.194908 
L 340.900879 299.165041 
L 338.446455 296.148087 
L 335.992032 292.181166 
L 333.537608 294.851789 
L 331.083185 291.958568 
L 328.628761 286.120487 
L 326.174338 293.265544 
L 323.719915 289.164438 
L 321.265491 289.309485 
L 318.811068 286.405829 
L 316.356644 288.170932 
L 313.902221 284.48939 
L 311.447797 287.041883 
L 308.993374 285.278424 
L 306.538951 285.179007 
L 304.084527 284.437158 
L 301.630104 279.445103 
L 299.17568 279.585871 
L 296.721257 281.824256 
L 294.266833 280.269811 
L 291.81241 287.710362 
L 289.357987 274.472433 
L 286.903563 283.162938 
L 284.44914 270.435248 
L 281.994716 279.150439 
L 279.540293 278.453212 
L 277.085869 278.679828 
L 274.631446 283.172732 
L 272.177023 269.683527 
L 269.722599 276.828679 
L 267.268176 273.588568 
L 264.813752 281.741778 
L 262.359329 275.392075 
L 259.904905 279.231283 
L 257.450482 268.791361 
L 254.996059 270.981733 
L 252.541635 278.110944 
L 250.087212 270.422256 
L 247.632788 273.740001 
L 245.178365 260.104319 
L 242.723941 273.489146 
L 240.269518 270.671934 
L 237.815095 260.360083 
L 235.360671 264.34489 
L 232.906248 273.9181 
L 230.451824 273.278763 
L 227.997401 273.201106 
L 225.542977 278.581901 
L 223.088554 271.953621 
L 220.634131 267.780643 
L 218.179707 265.508563 
L 215.725284 264.641857 
L 213.27086 271.080861 
L 210.816437 266.939665 
L 208.362013 274.758225 
L 205.90759 270.63885 
L 203.453167 265.80058 
L 200.998743 277.030409 
L 198.54432 270.985013 
L 196.089896 269.21655 
L 193.635473 258.994981 
L 191.181049 262.234698 
L 188.726626 261.795126 
L 186.272203 264.16378 
L 183.817779 264.841137 
L 181.363356 264.376049 
L 178.908932 261.338218 
L 176.454509 261.246516 
L 174.000085 268.186654 
L 171.545662 260.765927 
L 169.091239 257.569346 
L 166.636815 257.63021 
L 164.182392 256.550555 
L 161.727968 256.991503 
L 159.273545 258.211026 
L 156.819121 254.330989 
L 154.364698 259.73502 
L 151.910275 262.17303 
L 149.455851 267.824232 
L 147.001428 252.566966 
L 144.547004 259.96787 
L 142.092581 252.101296 
L 139.638157 254.940404 
L 137.183734 255.938287 
L 134.729311 251.908984 
L 132.274887 247.940494 
L 129.820464 248.06148 
L 127.36604 247.876754 
L 124.911617 249.893943 
L 122.457193 242.263384 
L 120.00277 247.70786 
L 117.548347 238.453738 
L 115.093923 230.504404 
L 112.6395 237.357831 
L 110.185076 244.709905 
L 107.730653 230.360324 
L 105.276229 240.253991 
L 102.821806 229.018098 
L 100.367383 237.306074 
L 97.912959 225.747521 
L 95.458536 226.273525 
L 93.004112 211.261231 
L 90.549689 200.999292 
L 88.095265 190.279171 
L 85.640842 188.247657 
L 83.186419 176.102918 
L 80.731995 171.03127 
L 78.277572 158.528868 
L 75.823148 118.916583 
L 73.368725 101.689751 
L 70.914301 85.582799 
L 68.459878 61.944204 
L 66.005455 42.040664 
z
" style="fill:#2ca02c;fill-opacity:0.25;"/>
   </g>
   <g id="PolyCollection_4">
    <path clip-path="url(#pc9f3971c37)" d="M 66.005455 -9944.411168 
L 66.005455 -1610.156832 
L 68.459878 -1669.946835 
L 70.914301 -384.845604 
L 73.368725 -432.320394 
L 75.823148 -49.259048 
L 78.277572 194.343282 
L 80.731995 275.174733 
L 83.186419 173.201539 
L 85.640842 8.319598 
L 88.095265 69.495798 
L 90.549689 86.857667 
L 93.004112 105.092885 
L 95.458536 66.304353 
L 97.912959 100.18075 
L 100.367383 128.215415 
L 102.821806 132.344393 
L 105.276229 141.725887 
L 107.730653 126.006126 
L 110.185076 143.347194 
L 112.6395 152.540769 
L 115.093923 146.376333 
L 117.548347 170.754047 
L 120.00277 172.417269 
L 122.457193 171.384292 
L 124.911617 181.475185 
L 127.36604 203.233451 
L 129.820464 201.53223 
L 132.274887 202.722579 
L 134.729311 210.286625 
L 137.183734 217.308603 
L 139.638157 215.006691 
L 142.092581 224.033873 
L 144.547004 232.339622 
L 147.001428 223.856622 
L 149.455851 233.06748 
L 151.910275 226.250896 
L 154.364698 238.287486 
L 156.819121 220.293782 
L 159.273545 224.744673 
L 161.727968 228.939261 
L 164.182392 223.172301 
L 166.636815 235.113151 
L 169.091239 232.658155 
L 171.545662 236.046828 
L 174.000085 244.396503 
L 176.454509 238.343295 
L 178.908932 231.175113 
L 181.363356 232.156702 
L 183.817779 239.461939 
L 186.272203 243.514607 
L 188.726626 242.58329 
L 191.181049 247.928233 
L 193.635473 242.994037 
L 196.089896 241.148569 
L 198.54432 255.141764 
L 200.998743 246.944387 
L 203.453167 245.787321 
L 205.90759 249.273886 
L 208.362013 249.34628 
L 210.816437 243.936636 
L 213.27086 252.90561 
L 215.725284 238.740573 
L 218.179707 237.152298 
L 220.634131 249.400781 
L 223.088554 244.239142 
L 225.542977 260.489831 
L 227.997401 251.029204 
L 230.451824 253.371846 
L 232.906248 256.451735 
L 235.360671 246.904487 
L 237.815095 235.258009 
L 240.269518 245.96148 
L 242.723941 250.663402 
L 245.178365 239.375875 
L 247.632788 255.820171 
L 250.087212 249.095906 
L 252.541635 258.50243 
L 254.996059 249.286829 
L 257.450482 246.193439 
L 259.904905 249.977035 
L 262.359329 251.781497 
L 264.813752 262.848111 
L 267.268176 254.069861 
L 269.722599 261.319486 
L 272.177023 251.214104 
L 274.631446 262.042995 
L 277.085869 262.41342 
L 279.540293 257.059467 
L 281.994716 254.312357 
L 284.44914 242.026638 
L 286.903563 266.198075 
L 289.357987 251.538543 
L 291.81241 261.812804 
L 294.266833 254.507913 
L 296.721257 262.248407 
L 299.17568 254.781527 
L 301.630104 262.104958 
L 304.084527 263.875304 
L 306.538951 263.424414 
L 308.993374 263.6016 
L 311.447797 266.232756 
L 313.902221 268.312187 
L 316.356644 263.597455 
L 318.811068 267.215712 
L 321.265491 266.038799 
L 323.719915 270.793364 
L 326.174338 274.061807 
L 328.628761 270.240007 
L 331.083185 272.968705 
L 333.537608 279.823135 
L 335.992032 269.642407 
L 338.446455 276.989659 
L 340.900879 279.729278 
L 343.355302 268.511346 
L 345.809725 269.37167 
L 348.264149 274.293042 
L 350.718572 275.731669 
L 353.172996 277.87729 
L 355.627419 278.537205 
L 358.081843 273.338766 
L 360.536266 273.392984 
L 362.990689 275.486894 
L 365.445113 282.747104 
L 367.899536 287.523589 
L 370.35396 280.827132 
L 372.808383 279.486742 
L 375.262807 283.369646 
L 377.71723 284.530202 
L 380.171653 285.49254 
L 382.626077 292.581536 
L 385.0805 291.079663 
L 387.534924 283.598153 
L 389.989347 281.457705 
L 392.443771 288.159092 
L 394.898194 288.522013 
L 397.352617 283.746368 
L 399.807041 294.031986 
L 402.261464 284.177872 
L 404.715888 291.557943 
L 407.170311 281.016028 
L 409.624735 292.409268 
L 412.079158 293.835283 
L 414.533581 292.073898 
L 416.988005 295.320504 
L 419.442428 293.632239 
L 421.896852 294.025095 
L 424.351275 291.931132 
L 426.805699 292.299339 
L 429.260122 289.81009 
L 431.714545 290.623683 
L 431.714545 285.852794 
L 431.714545 285.852794 
L 429.260122 286.708703 
L 426.805699 286.778187 
L 424.351275 288.102745 
L 421.896852 287.156966 
L 419.442428 288.517458 
L 416.988005 288.978867 
L 414.533581 289.508759 
L 412.079158 288.805284 
L 409.624735 289.582448 
L 407.170311 278.745469 
L 404.715888 287.576005 
L 402.261464 279.262331 
L 399.807041 290.634126 
L 397.352617 277.002512 
L 394.898194 287.268939 
L 392.443771 285.188792 
L 389.989347 278.078105 
L 387.534924 275.898161 
L 385.0805 285.456057 
L 382.626077 287.418487 
L 380.171653 278.421607 
L 377.71723 281.144307 
L 375.262807 280.268034 
L 372.808383 278.384622 
L 370.35396 276.897535 
L 367.899536 281.124353 
L 365.445113 279.542093 
L 362.990689 271.241149 
L 360.536266 266.225904 
L 358.081843 266.257553 
L 355.627419 273.951512 
L 353.172996 272.975193 
L 350.718572 267.571567 
L 348.264149 267.571437 
L 345.809725 262.912373 
L 343.355302 264.393338 
L 340.900879 278.170297 
L 338.446455 271.064299 
L 335.992032 266.083371 
L 333.537608 275.323053 
L 331.083185 267.710913 
L 328.628761 266.106412 
L 326.174338 271.391103 
L 323.719915 264.029664 
L 321.265491 262.690666 
L 318.811068 258.049451 
L 316.356644 260.922939 
L 313.902221 265.156716 
L 311.447797 262.2146 
L 308.993374 259.372834 
L 306.538951 259.572589 
L 304.084527 258.839589 
L 301.630104 257.168202 
L 299.17568 248.54681 
L 296.721257 252.296599 
L 294.266833 248.278774 
L 291.81241 258.419527 
L 289.357987 247.693567 
L 286.903563 258.852684 
L 284.44914 234.851124 
L 281.994716 246.759105 
L 279.540293 246.765383 
L 277.085869 255.57332 
L 274.631446 259.599883 
L 272.177023 244.339299 
L 269.722599 254.681204 
L 267.268176 248.603982 
L 264.813752 257.28266 
L 262.359329 244.742362 
L 259.904905 246.512971 
L 257.450482 237.477517 
L 254.996059 240.29714 
L 252.541635 250.817911 
L 250.087212 242.090444 
L 247.632788 252.23632 
L 245.178365 228.948331 
L 242.723941 241.40313 
L 240.269518 240.744973 
L 237.815095 229.184373 
L 235.360671 241.370494 
L 232.906248 248.264581 
L 230.451824 246.356776 
L 227.997401 244.016403 
L 225.542977 253.084719 
L 223.088554 237.310352 
L 220.634131 241.830706 
L 218.179707 229.434115 
L 215.725284 233.284908 
L 213.27086 247.330809 
L 210.816437 234.441949 
L 208.362013 244.706302 
L 205.90759 243.571267 
L 203.453167 238.143175 
L 200.998743 242.696004 
L 198.54432 247.306392 
L 196.089896 233.08865 
L 193.635473 232.078225 
L 191.181049 242.174817 
L 188.726626 240.320329 
L 186.272203 232.731231 
L 183.817779 234.165923 
L 181.363356 230.570454 
L 178.908932 224.330044 
L 176.454509 233.050261 
L 174.000085 234.929969 
L 171.545662 226.251522 
L 169.091239 220.52242 
L 166.636815 222.581174 
L 164.182392 204.054212 
L 161.727968 209.594195 
L 159.273545 201.646795 
L 156.819121 200.726324 
L 154.364698 218.346108 
L 151.910275 197.387185 
L 149.455851 200.026907 
L 147.001428 186.059659 
L 144.547004 194.119553 
L 142.092581 184.550852 
L 139.638157 173.762672 
L 137.183734 174.417265 
L 134.729311 163.45195 
L 132.274887 166.208852 
L 129.820464 158.326564 
L 127.36604 151.79563 
L 124.911617 139.858753 
L 122.457193 126.794108 
L 120.00277 139.392656 
L 117.548347 122.59464 
L 115.093923 100.706417 
L 112.6395 120.225219 
L 110.185076 93.083106 
L 107.730653 96.341274 
L 105.276229 74.573088 
L 102.821806 -14.219481 
L 100.367383 -76.532902 
L 97.912959 63.442762 
L 95.458536 -29.968591 
L 93.004112 -4.842422 
L 90.549689 -77.649542 
L 88.095265 -72.339386 
L 85.640842 -274.721048 
L 83.186419 -671.338914 
L 80.731995 -1385.376608 
L 78.277572 -904.356082 
L 75.823148 -1707.221552 
L 73.368725 -1393.491406 
L 70.914301 -2415.394546 
L 68.459878 -4045.273065 
L 66.005455 -9944.411168 
z
" style="fill:#d62728;fill-opacity:0.25;"/>
   </g>
   <g id="matplotlib.axis_1">
    <g id="xtick_1">
     <g id="line2d_1">
      <defs>
       <path d="M 0 0 
L 0 3.5 
" id="m70dd814bc5" style="stroke:#000000;stroke-width:0.8;"/>
      </defs>
      <g>
       <use style="stroke:#000000;stroke-width:0.8;" x="66.005455" xlink:href="#m70dd814bc5" y="303.64"/>
      </g>
     </g>
     <g id="text_1">
      <!-- 0 -->
      <g transform="translate(62.824205 318.238437)scale(0.1 -0.1)">
       <defs>
        <path d="M 31.78125 66.40625 
Q 24.171875 66.40625 20.328125 58.90625 
Q 16.5 51.421875 16.5 36.375 
Q 16.5 21.390625 20.328125 13.890625 
Q 24.171875 6.390625 31.78125 6.390625 
Q 39.453125 6.390625 43.28125 13.890625 
Q 47.125 21.390625 47.125 36.375 
Q 47.125 51.421875 43.28125 58.90625 
Q 39.453125 66.40625 31.78125 66.40625 
z
M 31.78125 74.21875 
Q 44.046875 74.21875 50.515625 64.515625 
Q 56.984375 54.828125 56.984375 36.375 
Q 56.984375 17.96875 50.515625 8.265625 
Q 44.046875 -1.421875 31.78125 -1.421875 
Q 19.53125 -1.421875 13.0625 8.265625 
Q 6.59375 17.96875 6.59375 36.375 
Q 6.59375 54.828125 13.0625 64.515625 
Q 19.53125 74.21875 31.78125 74.21875 
z
" id="DejaVuSans-48"/>
       </defs>
       <use xlink:href="#DejaVuSans-48"/>
      </g>
     </g>
    </g>
    <g id="xtick_2">
     <g id="line2d_2">
      <g>
       <use style="stroke:#000000;stroke-width:0.8;" x="115.093923" xlink:href="#m70dd814bc5" y="303.64"/>
      </g>
     </g>
     <g id="text_2">
      <!-- 20 -->
      <g transform="translate(108.731423 318.238437)scale(0.1 -0.1)">
       <defs>
        <path d="M 19.1875 8.296875 
L 53.609375 8.296875 
L 53.609375 0 
L 7.328125 0 
L 7.328125 8.296875 
Q 12.9375 14.109375 22.625 23.890625 
Q 32.328125 33.6875 34.8125 36.53125 
Q 39.546875 41.84375 41.421875 45.53125 
Q 43.3125 49.21875 43.3125 52.78125 
Q 43.3125 58.59375 39.234375 62.25 
Q 35.15625 65.921875 28.609375 65.921875 
Q 23.96875 65.921875 18.8125 64.3125 
Q 13.671875 62.703125 7.8125 59.421875 
L 7.8125 69.390625 
Q 13.765625 71.78125 18.9375 73 
Q 24.125 74.21875 28.421875 74.21875 
Q 39.75 74.21875 46.484375 68.546875 
Q 53.21875 62.890625 53.21875 53.421875 
Q 53.21875 48.921875 51.53125 44.890625 
Q 49.859375 40.875 45.40625 35.40625 
Q 44.1875 33.984375 37.640625 27.21875 
Q 31.109375 20.453125 19.1875 8.296875 
z
" id="DejaVuSans-50"/>
       </defs>
       <use xlink:href="#DejaVuSans-50"/>
       <use x="63.623047" xlink:href="#DejaVuSans-48"/>
      </g>
     </g>
    </g>
    <g id="xtick_3">
     <g id="line2d_3">
      <g>
       <use style="stroke:#000000;stroke-width:0.8;" x="164.182392" xlink:href="#m70dd814bc5" y="303.64"/>
      </g>
     </g>
     <g id="text_3">
      <!-- 40 -->
      <g transform="translate(157.819892 318.238437)scale(0.1 -0.1)">
       <defs>
        <path d="M 37.796875 64.3125 
L 12.890625 25.390625 
L 37.796875 25.390625 
z
M 35.203125 72.90625 
L 47.609375 72.90625 
L 47.609375 25.390625 
L 58.015625 25.390625 
L 58.015625 17.1875 
L 47.609375 17.1875 
L 47.609375 0 
L 37.796875 0 
L 37.796875 17.1875 
L 4.890625 17.1875 
L 4.890625 26.703125 
z
" id="DejaVuSans-52"/>
       </defs>
       <use xlink:href="#DejaVuSans-52"/>
       <use x="63.623047" xlink:href="#DejaVuSans-48"/>
      </g>
     </g>
    </g>
    <g id="xtick_4">
     <g id="line2d_4">
      <g>
       <use style="stroke:#000000;stroke-width:0.8;" x="213.27086" xlink:href="#m70dd814bc5" y="303.64"/>
      </g>
     </g>
     <g id="text_4">
      <!-- 60 -->
      <g transform="translate(206.90836 318.238437)scale(0.1 -0.1)">
       <defs>
        <path d="M 33.015625 40.375 
Q 26.375 40.375 22.484375 35.828125 
Q 18.609375 31.296875 18.609375 23.390625 
Q 18.609375 15.53125 22.484375 10.953125 
Q 26.375 6.390625 33.015625 6.390625 
Q 39.65625 6.390625 43.53125 10.953125 
Q 47.40625 15.53125 47.40625 23.390625 
Q 47.40625 31.296875 43.53125 35.828125 
Q 39.65625 40.375 33.015625 40.375 
z
M 52.59375 71.296875 
L 52.59375 62.3125 
Q 48.875 64.0625 45.09375 64.984375 
Q 41.3125 65.921875 37.59375 65.921875 
Q 27.828125 65.921875 22.671875 59.328125 
Q 17.53125 52.734375 16.796875 39.40625 
Q 19.671875 43.65625 24.015625 45.921875 
Q 28.375 48.1875 33.59375 48.1875 
Q 44.578125 48.1875 50.953125 41.515625 
Q 57.328125 34.859375 57.328125 23.390625 
Q 57.328125 12.15625 50.6875 5.359375 
Q 44.046875 -1.421875 33.015625 -1.421875 
Q 20.359375 -1.421875 13.671875 8.265625 
Q 6.984375 17.96875 6.984375 36.375 
Q 6.984375 53.65625 15.1875 63.9375 
Q 23.390625 74.21875 37.203125 74.21875 
Q 40.921875 74.21875 44.703125 73.484375 
Q 48.484375 72.75 52.59375 71.296875 
z
" id="DejaVuSans-54"/>
       </defs>
       <use xlink:href="#DejaVuSans-54"/>
       <use x="63.623047" xlink:href="#DejaVuSans-48"/>
      </g>
     </g>
    </g>
    <g id="xtick_5">
     <g id="line2d_5">
      <g>
       <use style="stroke:#000000;stroke-width:0.8;" x="262.359329" xlink:href="#m70dd814bc5" y="303.64"/>
      </g>
     </g>
     <g id="text_5">
      <!-- 80 -->
      <g transform="translate(255.996829 318.238437)scale(0.1 -0.1)">
       <defs>
        <path d="M 31.78125 34.625 
Q 24.75 34.625 20.71875 30.859375 
Q 16.703125 27.09375 16.703125 20.515625 
Q 16.703125 13.921875 20.71875 10.15625 
Q 24.75 6.390625 31.78125 6.390625 
Q 38.8125 6.390625 42.859375 10.171875 
Q 46.921875 13.96875 46.921875 20.515625 
Q 46.921875 27.09375 42.890625 30.859375 
Q 38.875 34.625 31.78125 34.625 
z
M 21.921875 38.8125 
Q 15.578125 40.375 12.03125 44.71875 
Q 8.5 49.078125 8.5 55.328125 
Q 8.5 64.0625 14.71875 69.140625 
Q 20.953125 74.21875 31.78125 74.21875 
Q 42.671875 74.21875 48.875 69.140625 
Q 55.078125 64.0625 55.078125 55.328125 
Q 55.078125 49.078125 51.53125 44.71875 
Q 48 40.375 41.703125 38.8125 
Q 48.828125 37.15625 52.796875 32.3125 
Q 56.78125 27.484375 56.78125 20.515625 
Q 56.78125 9.90625 50.3125 4.234375 
Q 43.84375 -1.421875 31.78125 -1.421875 
Q 19.734375 -1.421875 13.25 4.234375 
Q 6.78125 9.90625 6.78125 20.515625 
Q 6.78125 27.484375 10.78125 32.3125 
Q 14.796875 37.15625 21.921875 38.8125 
z
M 18.3125 54.390625 
Q 18.3125 48.734375 21.84375 45.5625 
Q 25.390625 42.390625 31.78125 42.390625 
Q 38.140625 42.390625 41.71875 45.5625 
Q 45.3125 48.734375 45.3125 54.390625 
Q 45.3125 60.0625 41.71875 63.234375 
Q 38.140625 66.40625 31.78125 66.40625 
Q 25.390625 66.40625 21.84375 63.234375 
Q 18.3125 60.0625 18.3125 54.390625 
z
" id="DejaVuSans-56"/>
       </defs>
       <use xlink:href="#DejaVuSans-56"/>
       <use x="63.623047" xlink:href="#DejaVuSans-48"/>
      </g>
     </g>
    </g>
    <g id="xtick_6">
     <g id="line2d_6">
      <g>
       <use style="stroke:#000000;stroke-width:0.8;" x="311.447797" xlink:href="#m70dd814bc5" y="303.64"/>
      </g>
     </g>
     <g id="text_6">
      <!-- 100 -->
      <g transform="translate(301.904047 318.238437)scale(0.1 -0.1)">
       <defs>
        <path d="M 12.40625 8.296875 
L 28.515625 8.296875 
L 28.515625 63.921875 
L 10.984375 60.40625 
L 10.984375 69.390625 
L 28.421875 72.90625 
L 38.28125 72.90625 
L 38.28125 8.296875 
L 54.390625 8.296875 
L 54.390625 0 
L 12.40625 0 
z
" id="DejaVuSans-49"/>
       </defs>
       <use xlink:href="#DejaVuSans-49"/>
       <use x="63.623047" xlink:href="#DejaVuSans-48"/>
       <use x="127.246094" xlink:href="#DejaVuSans-48"/>
      </g>
     </g>
    </g>
    <g id="xtick_7">
     <g id="line2d_7">
      <g>
       <use style="stroke:#000000;stroke-width:0.8;" x="360.536266" xlink:href="#m70dd814bc5" y="303.64"/>
      </g>
     </g>
     <g id="text_7">
      <!-- 120 -->
      <g transform="translate(350.992516 318.238437)scale(0.1 -0.1)">
       <use xlink:href="#DejaVuSans-49"/>
       <use x="63.623047" xlink:href="#DejaVuSans-50"/>
       <use x="127.246094" xlink:href="#DejaVuSans-48"/>
      </g>
     </g>
    </g>
    <g id="xtick_8">
     <g id="line2d_8">
      <g>
       <use style="stroke:#000000;stroke-width:0.8;" x="409.624735" xlink:href="#m70dd814bc5" y="303.64"/>
      </g>
     </g>
     <g id="text_8">
      <!-- 140 -->
      <g transform="translate(400.080985 318.238437)scale(0.1 -0.1)">
       <use xlink:href="#DejaVuSans-49"/>
       <use x="63.623047" xlink:href="#DejaVuSans-52"/>
       <use x="127.246094" xlink:href="#DejaVuSans-48"/>
      </g>
     </g>
    </g>
    <g id="text_9">
     <!-- Epochs -->
     <g transform="translate(230.944375 331.916562)scale(0.1 -0.1)">
      <defs>
       <path d="M 9.8125 72.90625 
L 55.90625 72.90625 
L 55.90625 64.59375 
L 19.671875 64.59375 
L 19.671875 43.015625 
L 54.390625 43.015625 
L 54.390625 34.71875 
L 19.671875 34.71875 
L 19.671875 8.296875 
L 56.78125 8.296875 
L 56.78125 0 
L 9.8125 0 
z
" id="DejaVuSans-69"/>
       <path d="M 18.109375 8.203125 
L 18.109375 -20.796875 
L 9.078125 -20.796875 
L 9.078125 54.6875 
L 18.109375 54.6875 
L 18.109375 46.390625 
Q 20.953125 51.265625 25.265625 53.625 
Q 29.59375 56 35.59375 56 
Q 45.5625 56 51.78125 48.09375 
Q 58.015625 40.1875 58.015625 27.296875 
Q 58.015625 14.40625 51.78125 6.484375 
Q 45.5625 -1.421875 35.59375 -1.421875 
Q 29.59375 -1.421875 25.265625 0.953125 
Q 20.953125 3.328125 18.109375 8.203125 
z
M 48.6875 27.296875 
Q 48.6875 37.203125 44.609375 42.84375 
Q 40.53125 48.484375 33.40625 48.484375 
Q 26.265625 48.484375 22.1875 42.84375 
Q 18.109375 37.203125 18.109375 27.296875 
Q 18.109375 17.390625 22.1875 11.75 
Q 26.265625 6.109375 33.40625 6.109375 
Q 40.53125 6.109375 44.609375 11.75 
Q 48.6875 17.390625 48.6875 27.296875 
z
" id="DejaVuSans-112"/>
       <path d="M 30.609375 48.390625 
Q 23.390625 48.390625 19.1875 42.75 
Q 14.984375 37.109375 14.984375 27.296875 
Q 14.984375 17.484375 19.15625 11.84375 
Q 23.34375 6.203125 30.609375 6.203125 
Q 37.796875 6.203125 41.984375 11.859375 
Q 46.1875 17.53125 46.1875 27.296875 
Q 46.1875 37.015625 41.984375 42.703125 
Q 37.796875 48.390625 30.609375 48.390625 
z
M 30.609375 56 
Q 42.328125 56 49.015625 48.375 
Q 55.71875 40.765625 55.71875 27.296875 
Q 55.71875 13.875 49.015625 6.21875 
Q 42.328125 -1.421875 30.609375 -1.421875 
Q 18.84375 -1.421875 12.171875 6.21875 
Q 5.515625 13.875 5.515625 27.296875 
Q 5.515625 40.765625 12.171875 48.375 
Q 18.84375 56 30.609375 56 
z
" id="DejaVuSans-111"/>
       <path d="M 48.78125 52.59375 
L 48.78125 44.1875 
Q 44.96875 46.296875 41.140625 47.34375 
Q 37.3125 48.390625 33.40625 48.390625 
Q 24.65625 48.390625 19.8125 42.84375 
Q 14.984375 37.3125 14.984375 27.296875 
Q 14.984375 17.28125 19.8125 11.734375 
Q 24.65625 6.203125 33.40625 6.203125 
Q 37.3125 6.203125 41.140625 7.25 
Q 44.96875 8.296875 48.78125 10.40625 
L 48.78125 2.09375 
Q 45.015625 0.34375 40.984375 -0.53125 
Q 36.96875 -1.421875 32.421875 -1.421875 
Q 20.0625 -1.421875 12.78125 6.34375 
Q 5.515625 14.109375 5.515625 27.296875 
Q 5.515625 40.671875 12.859375 48.328125 
Q 20.21875 56 33.015625 56 
Q 37.15625 56 41.109375 55.140625 
Q 45.0625 54.296875 48.78125 52.59375 
z
" id="DejaVuSans-99"/>
       <path d="M 54.890625 33.015625 
L 54.890625 0 
L 45.90625 0 
L 45.90625 32.71875 
Q 45.90625 40.484375 42.875 44.328125 
Q 39.84375 48.1875 33.796875 48.1875 
Q 26.515625 48.1875 22.3125 43.546875 
Q 18.109375 38.921875 18.109375 30.90625 
L 18.109375 0 
L 9.078125 0 
L 9.078125 75.984375 
L 18.109375 75.984375 
L 18.109375 46.1875 
Q 21.34375 51.125 25.703125 53.5625 
Q 30.078125 56 35.796875 56 
Q 45.21875 56 50.046875 50.171875 
Q 54.890625 44.34375 54.890625 33.015625 
z
" id="DejaVuSans-104"/>
       <path d="M 44.28125 53.078125 
L 44.28125 44.578125 
Q 40.484375 46.53125 36.375 47.5 
Q 32.28125 48.484375 27.875 48.484375 
Q 21.1875 48.484375 17.84375 46.4375 
Q 14.5 44.390625 14.5 40.28125 
Q 14.5 37.15625 16.890625 35.375 
Q 19.28125 33.59375 26.515625 31.984375 
L 29.59375 31.296875 
Q 39.15625 29.25 43.1875 25.515625 
Q 47.21875 21.78125 47.21875 15.09375 
Q 47.21875 7.46875 41.1875 3.015625 
Q 35.15625 -1.421875 24.609375 -1.421875 
Q 20.21875 -1.421875 15.453125 -0.5625 
Q 10.6875 0.296875 5.421875 2 
L 5.421875 11.28125 
Q 10.40625 8.6875 15.234375 7.390625 
Q 20.0625 6.109375 24.8125 6.109375 
Q 31.15625 6.109375 34.5625 8.28125 
Q 37.984375 10.453125 37.984375 14.40625 
Q 37.984375 18.0625 35.515625 20.015625 
Q 33.0625 21.96875 24.703125 23.78125 
L 21.578125 24.515625 
Q 13.234375 26.265625 9.515625 29.90625 
Q 5.8125 33.546875 5.8125 39.890625 
Q 5.8125 47.609375 11.28125 51.796875 
Q 16.75 56 26.8125 56 
Q 31.78125 56 36.171875 55.265625 
Q 40.578125 54.546875 44.28125 53.078125 
z
" id="DejaVuSans-115"/>
      </defs>
      <use xlink:href="#DejaVuSans-69"/>
      <use x="63.183594" xlink:href="#DejaVuSans-112"/>
      <use x="126.660156" xlink:href="#DejaVuSans-111"/>
      <use x="187.841797" xlink:href="#DejaVuSans-99"/>
      <use x="242.822266" xlink:href="#DejaVuSans-104"/>
      <use x="306.201172" xlink:href="#DejaVuSans-115"/>
     </g>
    </g>
   </g>
   <g id="matplotlib.axis_2">
    <g id="ytick_1">
     <g id="line2d_9">
      <defs>
       <path d="M 0 0 
L -3.5 0 
" id="m48df0802fe" style="stroke:#000000;stroke-width:0.8;"/>
      </defs>
      <g>
       <use style="stroke:#000000;stroke-width:0.8;" x="47.72" xlink:href="#m48df0802fe" y="303.64"/>
      </g>
     </g>
     <g id="text_10">
      <!-- 0.0 -->
      <g transform="translate(24.816875 307.439219)scale(0.1 -0.1)">
       <defs>
        <path d="M 10.6875 12.40625 
L 21 12.40625 
L 21 0 
L 10.6875 0 
z
" id="DejaVuSans-46"/>
       </defs>
       <use xlink:href="#DejaVuSans-48"/>
       <use x="63.623047" xlink:href="#DejaVuSans-46"/>
       <use x="95.410156" xlink:href="#DejaVuSans-48"/>
      </g>
     </g>
    </g>
    <g id="ytick_2">
     <g id="line2d_10">
      <g>
       <use style="stroke:#000000;stroke-width:0.8;" x="47.72" xlink:href="#m48df0802fe" y="245.864"/>
      </g>
     </g>
     <g id="text_11">
      <!-- 0.5 -->
      <g transform="translate(24.816875 249.663219)scale(0.1 -0.1)">
       <defs>
        <path d="M 10.796875 72.90625 
L 49.515625 72.90625 
L 49.515625 64.59375 
L 19.828125 64.59375 
L 19.828125 46.734375 
Q 21.96875 47.46875 24.109375 47.828125 
Q 26.265625 48.1875 28.421875 48.1875 
Q 40.625 48.1875 47.75 41.5 
Q 54.890625 34.8125 54.890625 23.390625 
Q 54.890625 11.625 47.5625 5.09375 
Q 40.234375 -1.421875 26.90625 -1.421875 
Q 22.3125 -1.421875 17.546875 -0.640625 
Q 12.796875 0.140625 7.71875 1.703125 
L 7.71875 11.625 
Q 12.109375 9.234375 16.796875 8.0625 
Q 21.484375 6.890625 26.703125 6.890625 
Q 35.15625 6.890625 40.078125 11.328125 
Q 45.015625 15.765625 45.015625 23.390625 
Q 45.015625 31 40.078125 35.4375 
Q 35.15625 39.890625 26.703125 39.890625 
Q 22.75 39.890625 18.8125 39.015625 
Q 14.890625 38.140625 10.796875 36.28125 
z
" id="DejaVuSans-53"/>
       </defs>
       <use xlink:href="#DejaVuSans-48"/>
       <use x="63.623047" xlink:href="#DejaVuSans-46"/>
       <use x="95.410156" xlink:href="#DejaVuSans-53"/>
      </g>
     </g>
    </g>
    <g id="ytick_3">
     <g id="line2d_11">
      <g>
       <use style="stroke:#000000;stroke-width:0.8;" x="47.72" xlink:href="#m48df0802fe" y="188.088"/>
      </g>
     </g>
     <g id="text_12">
      <!-- 1.0 -->
      <g transform="translate(24.816875 191.887219)scale(0.1 -0.1)">
       <use xlink:href="#DejaVuSans-49"/>
       <use x="63.623047" xlink:href="#DejaVuSans-46"/>
       <use x="95.410156" xlink:href="#DejaVuSans-48"/>
      </g>
     </g>
    </g>
    <g id="ytick_4">
     <g id="line2d_12">
      <g>
       <use style="stroke:#000000;stroke-width:0.8;" x="47.72" xlink:href="#m48df0802fe" y="130.312"/>
      </g>
     </g>
     <g id="text_13">
      <!-- 1.5 -->
      <g transform="translate(24.816875 134.111219)scale(0.1 -0.1)">
       <use xlink:href="#DejaVuSans-49"/>
       <use x="63.623047" xlink:href="#DejaVuSans-46"/>
       <use x="95.410156" xlink:href="#DejaVuSans-53"/>
      </g>
     </g>
    </g>
    <g id="ytick_5">
     <g id="line2d_13">
      <g>
       <use style="stroke:#000000;stroke-width:0.8;" x="47.72" xlink:href="#m48df0802fe" y="72.536"/>
      </g>
     </g>
     <g id="text_14">
      <!-- 2.0 -->
      <g transform="translate(24.816875 76.335219)scale(0.1 -0.1)">
       <use xlink:href="#DejaVuSans-50"/>
       <use x="63.623047" xlink:href="#DejaVuSans-46"/>
       <use x="95.410156" xlink:href="#DejaVuSans-48"/>
      </g>
     </g>
    </g>
    <g id="ytick_6">
     <g id="line2d_14">
      <g>
       <use style="stroke:#000000;stroke-width:0.8;" x="47.72" xlink:href="#m48df0802fe" y="14.76"/>
      </g>
     </g>
     <g id="text_15">
      <!-- 2.5 -->
      <g transform="translate(24.816875 18.559219)scale(0.1 -0.1)">
       <use xlink:href="#DejaVuSans-50"/>
       <use x="63.623047" xlink:href="#DejaVuSans-46"/>
       <use x="95.410156" xlink:href="#DejaVuSans-53"/>
      </g>
     </g>
    </g>
    <g id="text_16">
     <!-- Loss -->
     <g transform="translate(18.737188 170.167187)rotate(-90)scale(0.1 -0.1)">
      <defs>
       <path d="M 9.8125 72.90625 
L 19.671875 72.90625 
L 19.671875 8.296875 
L 55.171875 8.296875 
L 55.171875 0 
L 9.8125 0 
z
" id="DejaVuSans-76"/>
      </defs>
      <use xlink:href="#DejaVuSans-76"/>
      <use x="53.962891" xlink:href="#DejaVuSans-111"/>
      <use x="115.144531" xlink:href="#DejaVuSans-115"/>
      <use x="167.244141" xlink:href="#DejaVuSans-115"/>
     </g>
    </g>
   </g>
   <g id="line2d_15">
    <path clip-path="url(#pc9f3971c37)" d="M 66.005455 44.7313 
L 68.459878 63.32795 
L 70.914301 83.211019 
L 73.368725 89.191737 
L 75.823148 106.005456 
L 78.277572 131.666125 
L 80.731995 147.2837 
L 83.186419 156.469181 
L 85.640842 169.559056 
L 88.095265 159.2 
L 90.549689 192.037531 
L 93.004112 197.375041 
L 95.458536 210.668034 
L 97.912959 212.981331 
L 100.367383 220.124341 
L 102.821806 223.4758 
L 105.276229 240.881948 
L 107.730653 228.136247 
L 110.185076 239.262641 
L 112.6395 239.302136 
L 115.093923 231.363578 
L 117.548347 236.746225 
L 120.00277 249.181606 
L 122.457193 244.18827 
L 124.911617 254.592464 
L 129.820464 253.475311 
L 132.274887 253.559944 
L 134.729311 257.018605 
L 137.183734 262.034509 
L 139.638157 257.120164 
L 142.092581 257.492548 
L 144.547004 268.472245 
L 147.001428 261.820106 
L 149.455851 277.059655 
L 151.910275 268.376328 
L 154.364698 268.596373 
L 156.819121 262.418178 
L 159.273545 264.009275 
L 161.727968 268.263484 
L 164.182392 267.750045 
L 166.636815 269.606325 
L 169.091239 269.267794 
L 171.545662 269.346784 
L 174.000085 276.100483 
L 176.454509 266.993992 
L 178.908932 264.556567 
L 181.363356 276.309244 
L 183.817779 271.062009 
L 186.272203 273.868998 
L 188.726626 271.541595 
L 191.181049 275.581402 
L 193.635473 272.263795 
L 196.089896 279.83279 
L 198.54432 279.666345 
L 200.998743 281.051502 
L 203.453167 271.355403 
L 205.90759 282.038885 
L 208.362013 280.267238 
L 210.816437 274.588377 
L 213.27086 277.629516 
L 215.725284 274.842275 
L 218.179707 277.045549 
L 220.634131 274.771748 
L 223.088554 278.13167 
L 225.542977 285.79094 
L 227.997401 282.995236 
L 230.451824 282.462049 
L 232.906248 281.607258 
L 235.360671 275.685782 
L 237.815095 273.355559 
L 240.269518 280.55499 
L 242.723941 284.168811 
L 245.178365 275.200554 
L 247.632788 283.824637 
L 250.087212 281.926041 
L 252.541635 286.789607 
L 254.996059 287.156349 
L 257.450482 286.197177 
L 259.904905 287.23534 
L 262.359329 287.31292 
L 264.813752 293.792972 
L 267.268176 288.376472 
L 269.722599 284.895243 
L 272.177023 283.240671 
L 274.631446 290.317385 
L 277.085869 288.149374 
L 279.540293 290.038096 
L 281.994716 289.816641 
L 284.44914 283.542528 
L 286.903563 294.247874 
L 289.357987 288.518937 
L 291.81241 294.427718 
L 294.266833 291.318873 
L 296.721257 291.166534 
L 299.17568 294.817029 
L 301.630104 292.103137 
L 304.084527 291.819617 
L 306.538951 291.246935 
L 308.993374 293.516505 
L 311.447797 298.749987 
L 313.902221 295.858013 
L 316.356644 296.936376 
L 321.265491 295.601999 
L 323.719915 297.81162 
L 326.174338 297.512584 
L 328.628761 298.84132 
L 331.083185 299.829408 
L 333.537608 300.419369 
L 335.992032 297.261507 
L 338.446455 299.292342 
L 340.900879 301.707727 
L 343.355302 301.171367 
L 345.809725 300.355718 
L 348.264149 300.85558 
L 350.718572 302.047669 
L 353.172996 301.017793 
L 355.627419 302.079494 
L 358.081843 302.033387 
L 360.536266 302.433718 
L 362.990689 302.282437 
L 365.445113 303.065555 
L 367.899536 303.008295 
L 370.35396 303.214566 
L 377.71723 303.399568 
L 380.171653 303.405155 
L 382.626077 303.222192 
L 385.0805 303.439757 
L 387.534924 303.298075 
L 392.443771 303.496411 
L 394.898194 303.469412 
L 397.352617 303.235239 
L 399.807041 303.498565 
L 412.079158 303.405794 
L 421.896852 303.534606 
L 424.351275 303.436727 
L 426.805699 303.515707 
L 431.714545 303.471737 
L 431.714545 303.471737 
" style="fill:none;stroke:#1f77b4;stroke-linecap:square;stroke-width:1.5;"/>
   </g>
   <g id="line2d_16">
    <path clip-path="url(#pc9f3971c37)" d="M 66.005455 40.037 
L 68.459878 55.451456 
L 70.914301 68.428487 
L 73.368725 79.622587 
L 75.823148 91.899987 
L 78.277572 110.519206 
L 80.731995 118.892212 
L 83.186419 123.879906 
L 85.640842 138.752712 
L 88.095265 136.337856 
L 90.549689 165.925487 
L 93.004112 166.579981 
L 95.458536 187.941303 
L 97.912959 190.525425 
L 100.367383 201.144022 
L 102.821806 205.251534 
L 105.276229 223.238828 
L 107.730653 213.500412 
L 110.185076 225.078181 
L 112.6395 227.335056 
L 115.093923 220.474156 
L 117.548347 227.707441 
L 120.00277 243.381437 
L 122.457193 234.478066 
L 124.911617 243.10497 
L 127.36604 248.070095 
L 129.820464 246.81753 
L 132.274887 249.175964 
L 134.729311 253.362467 
L 137.183734 260.166945 
L 139.638157 257.571539 
L 142.092581 253.187559 
L 144.547004 262.519737 
L 147.001428 257.407916 
L 149.455851 268.376328 
L 151.910275 266.593397 
L 154.364698 268.111145 
L 156.819121 262.288408 
L 159.273545 260.302358 
L 161.727968 264.003633 
L 164.182392 264.116477 
L 166.636815 266.305645 
L 169.091239 266.548259 
L 171.545662 267.456652 
L 174.000085 275.443168 
L 176.454509 268.049081 
L 178.908932 262.745425 
L 181.363356 270.621919 
L 183.817779 271.727787 
L 186.272203 271.462605 
L 188.726626 268.917978 
L 191.181049 275.516516 
L 193.635473 269.473734 
L 196.089896 274.822527 
L 198.54432 278.38839 
L 200.998743 280.986617 
L 203.453167 271.242559 
L 205.90759 279.711483 
L 208.362013 278.523802 
L 210.816437 273.761796 
L 213.27086 280.126184 
L 215.725284 274.472712 
L 218.179707 273.279389 
L 220.634131 274.309088 
L 223.088554 275.829658 
L 225.542977 283.840154 
L 227.997401 280.487284 
L 230.451824 280.594485 
L 232.906248 282.202509 
L 235.360671 274.822527 
L 237.815095 269.837655 
L 240.269518 279.155727 
L 242.723941 282.383059 
L 245.178365 275.719635 
L 247.632788 280.368798 
L 250.087212 281.618542 
L 252.541635 285.675275 
L 254.996059 284.259086 
L 257.450482 279.985129 
L 259.904905 285.84172 
L 262.359329 285.597695 
L 264.813752 288.439947 
L 267.268176 284.445278 
L 269.722599 288.469568 
L 272.177023 282.964204 
L 274.631446 291.643299 
L 277.085869 289.740471 
L 279.540293 288.592286 
L 281.994716 290.736317 
L 284.44914 279.959739 
L 286.903563 292.13699 
L 289.357987 287.396142 
L 291.81241 293.547537 
L 294.266833 291.366832 
L 296.721257 290.715159 
L 299.17568 291.383758 
L 301.630104 287.672609 
L 304.084527 295.169666 
L 306.538951 288.830668 
L 308.993374 294.696428 
L 311.447797 297.951264 
L 313.902221 295.124529 
L 316.356644 297.493542 
L 318.811068 294.340264 
L 323.719915 298.436493 
L 326.174338 299.474655 
L 328.628761 297.839126 
L 331.083185 297.03582 
L 333.537608 301.653597 
L 335.992032 299.842808 
L 338.446455 300.495891 
L 340.900879 301.894007 
L 343.355302 299.48735 
L 345.809725 301.310658 
L 348.264149 301.12429 
L 350.718572 301.591886 
L 353.172996 301.847724 
L 355.627419 301.818323 
L 358.081843 302.474976 
L 360.536266 302.127321 
L 362.990689 302.383996 
L 365.445113 302.938187 
L 367.899536 303.327784 
L 370.35396 303.074481 
L 372.808383 303.489744 
L 375.262807 303.360734 
L 380.171653 303.4977 
L 387.534924 303.432286 
L 389.989347 303.14146 
L 392.443771 303.469351 
L 394.898194 303.445322 
L 397.352617 303.172106 
L 399.807041 303.535427 
L 402.261464 303.243339 
L 404.715888 303.530782 
L 409.624735 303.432969 
L 412.079158 303.537956 
L 416.988005 303.519718 
L 419.442428 303.560673 
L 421.896852 303.41753 
L 426.805699 303.509712 
L 431.714545 303.425795 
L 431.714545 303.425795 
" style="fill:none;stroke:#ff7f0e;stroke-linecap:square;stroke-width:1.5;"/>
   </g>
   <g id="line2d_17">
    <path clip-path="url(#pc9f3971c37)" d="M 66.005455 55.406319 
L 68.459878 89.394856 
L 70.914301 110.541775 
L 73.368725 120.314044 
L 75.823148 137.71455 
L 78.277572 175.833169 
L 80.731995 187.659194 
L 83.186419 191.969825 
L 85.640842 197.747425 
L 88.095265 196.57385 
L 90.549689 212.812066 
L 93.004112 221.738006 
L 95.458536 229.456519 
L 97.912959 230.821928 
L 100.367383 240.120253 
L 102.821806 232.638712 
L 105.276229 243.172677 
L 107.730653 234.884303 
L 110.185076 248.854359 
L 112.6395 244.645287 
L 115.093923 233.970269 
L 117.548347 241.338966 
L 120.00277 251.997058 
L 122.457193 245.198222 
L 124.911617 254.327281 
L 127.36604 251.09995 
L 132.274887 251.22972 
L 134.729311 253.650219 
L 137.183734 259.913047 
L 139.638157 258.750756 
L 142.092581 255.890167 
L 144.547004 264.477577 
L 147.001428 257.306356 
L 149.455851 270.00692 
L 151.910275 264.184183 
L 154.364698 263.676386 
L 156.819121 258.570206 
L 159.273545 261.278456 
L 161.727968 261.509786 
L 164.182392 259.5858 
L 166.636815 261.238961 
L 169.091239 260.364422 
L 171.545662 264.545283 
L 174.000085 270.596529 
L 176.454509 263.450698 
L 178.908932 263.433772 
L 181.363356 267.388945 
L 183.817779 267.744403 
L 186.272203 267.654128 
L 188.726626 264.601705 
L 191.181049 267.456652 
L 193.635473 262.305334 
L 196.089896 272.134025 
L 198.54432 274.026979 
L 200.998743 279.55068 
L 203.453167 268.940547 
L 205.90759 275.256976 
L 208.362013 277.141466 
L 210.816437 268.686648 
L 213.27086 274.687115 
L 215.725284 266.21537 
L 218.179707 266.920644 
L 220.634131 270.853248 
L 223.088554 273.835145 
L 225.542977 280.619875 
L 227.997401 275.691424 
L 230.451824 275.807089 
L 232.906248 275.468558 
L 235.360671 264.974089 
L 237.815095 263.60868 
L 240.269518 274.704041 
L 242.723941 275.713993 
L 245.178365 263.501478 
L 247.632788 275.324682 
L 250.087212 273.507898 
L 252.541635 281.43235 
L 254.996059 274.878949 
L 257.450482 271.490816 
L 259.904905 280.721434 
L 262.359329 278.061143 
L 264.813752 285.108235 
L 267.268176 278.086533 
L 269.722599 279.78201 
L 272.177023 273.304779 
L 274.631446 284.848695 
L 277.085869 280.60577 
L 279.540293 281.779345 
L 281.994716 281.79345 
L 284.44914 271.998612 
L 286.903563 285.861467 
L 289.357987 276.955274 
L 291.81241 288.981597 
L 294.266833 283.215281 
L 299.17568 282.199687 
L 301.630104 281.421066 
L 304.084527 288.24106 
L 306.538951 286.659837 
L 308.993374 287.31292 
L 311.447797 290.825182 
L 313.902221 288.452642 
L 316.356644 290.428818 
L 318.811068 288.867343 
L 321.265491 291.488139 
L 323.719915 290.547304 
L 326.174338 295.210572 
L 328.628761 291.410559 
L 333.537608 296.14788 
L 335.992032 294.266916 
L 338.446455 297.381404 
L 340.900879 299.705985 
L 343.355302 291.639067 
L 345.809725 294.613911 
L 348.264149 294.842419 
L 350.718572 297.485079 
L 353.172996 298.495736 
L 355.627419 295.81217 
L 358.081843 298.428029 
L 360.536266 295.904561 
L 362.990689 298.230553 
L 367.899536 301.1056 
L 370.35396 299.986331 
L 372.808383 302.06724 
L 375.262807 301.370606 
L 377.71723 302.048727 
L 380.171653 302.593374 
L 382.626077 302.285082 
L 385.0805 302.818489 
L 387.534924 301.639845 
L 389.989347 302.799667 
L 392.443771 303.224947 
L 394.898194 303.062271 
L 397.352617 302.489787 
L 399.807041 302.852849 
L 402.261464 302.52893 
L 404.715888 303.29457 
L 407.170311 301.726064 
L 409.624735 302.824836 
L 412.079158 303.285644 
L 416.988005 303.289347 
L 419.442428 303.002433 
L 421.896852 303.229178 
L 424.351275 303.092311 
L 426.805699 302.771764 
L 429.260122 303.086228 
L 431.714545 303.075671 
L 431.714545 303.075671 
" style="fill:none;stroke:#2ca02c;stroke-linecap:square;stroke-width:1.5;"/>
   </g>
   <g id="line2d_18">
    <path clip-path="url(#pc9f3971c37)" d="M 88.267068 -1 
L 90.549689 4.604062 
L 93.004112 50.125231 
L 95.458536 18.167881 
L 97.912959 81.811756 
L 100.367383 25.841256 
L 102.821806 59.062456 
L 105.276229 108.149487 
L 107.730653 111.1737 
L 110.185076 118.21515 
L 112.6395 136.382994 
L 115.093923 123.541375 
L 117.548347 146.674344 
L 120.00277 155.904962 
L 122.457193 149.0892 
L 124.911617 160.666969 
L 127.36604 177.514541 
L 129.820464 179.929397 
L 132.274887 184.465716 
L 134.729311 186.869287 
L 137.183734 195.862934 
L 139.638157 194.384681 
L 142.092581 204.292362 
L 144.547004 213.229587 
L 147.001428 204.958141 
L 149.455851 216.547194 
L 151.910275 211.819041 
L 154.364698 228.316797 
L 156.819121 210.510053 
L 159.273545 213.195734 
L 161.727968 219.266728 
L 164.182392 213.613256 
L 166.636815 228.847162 
L 169.091239 226.590287 
L 171.545662 231.149175 
L 174.000085 239.663236 
L 176.454509 235.696778 
L 178.908932 227.752578 
L 181.363356 231.363578 
L 183.817779 236.813931 
L 186.272203 238.122919 
L 188.726626 241.451809 
L 191.181049 245.051525 
L 193.635473 237.536131 
L 196.089896 237.118609 
L 198.54432 251.224078 
L 200.998743 244.820195 
L 203.453167 241.965248 
L 205.90759 246.422577 
L 208.362013 247.026291 
L 210.816437 239.189292 
L 213.27086 250.118209 
L 215.725284 236.012741 
L 218.179707 233.293206 
L 220.634131 245.615744 
L 223.088554 240.774747 
L 225.542977 256.787275 
L 227.997401 247.522803 
L 232.906248 252.358158 
L 235.360671 244.137491 
L 237.815095 232.221191 
L 240.269518 243.353227 
L 242.723941 246.033266 
L 245.178365 234.162103 
L 247.632788 254.028245 
L 250.087212 245.593175 
L 252.541635 254.66017 
L 254.996059 244.791984 
L 257.450482 241.835478 
L 259.904905 248.245003 
L 262.359329 248.26193 
L 264.813752 260.065386 
L 267.268176 251.336922 
L 269.722599 258.000345 
L 272.177023 247.776702 
L 274.631446 260.821439 
L 277.085869 258.99337 
L 279.540293 251.912425 
L 281.994716 250.535731 
L 284.44914 238.438881 
L 286.903563 262.52538 
L 289.357987 249.616055 
L 291.81241 260.116166 
L 294.266833 251.393344 
L 296.721257 257.272503 
L 299.17568 251.664169 
L 301.630104 259.63658 
L 304.084527 261.357447 
L 306.538951 261.498502 
L 308.993374 261.487217 
L 311.447797 264.223678 
L 313.902221 266.734452 
L 316.356644 262.260197 
L 318.811068 262.632581 
L 321.265491 264.364733 
L 323.719915 267.411514 
L 326.174338 272.726455 
L 328.628761 268.173209 
L 331.083185 270.339809 
L 333.537608 277.573094 
L 335.992032 267.862889 
L 338.446455 274.026979 
L 340.900879 278.949787 
L 343.355302 266.452342 
L 345.809725 266.142022 
L 348.264149 270.932239 
L 350.718572 271.651618 
L 353.172996 275.426241 
L 355.627419 276.244359 
L 358.081843 269.798159 
L 360.536266 269.809444 
L 362.990689 273.364022 
L 365.445113 281.144598 
L 367.899536 284.323971 
L 370.35396 278.862334 
L 372.808383 278.935682 
L 375.262807 281.81884 
L 377.71723 282.837255 
L 380.171653 281.957073 
L 382.626077 290.000012 
L 385.0805 288.26786 
L 387.534924 279.748157 
L 389.989347 279.767905 
L 392.443771 286.673942 
L 394.898194 287.895476 
L 397.352617 280.37444 
L 399.807041 292.333056 
L 402.261464 281.720102 
L 404.715888 289.566974 
L 407.170311 279.880748 
L 409.624735 290.995858 
L 412.079158 291.320284 
L 414.533581 290.791329 
L 416.988005 292.149685 
L 419.442428 291.074848 
L 426.805699 289.538763 
L 429.260122 288.259397 
L 431.714545 288.238239 
L 431.714545 288.238239 
" style="fill:none;stroke:#d62728;stroke-linecap:square;stroke-width:1.5;"/>
   </g>
   <g id="patch_3">
    <path d="M 47.72 303.64 
L 47.72 14.76 
" style="fill:none;stroke:#000000;stroke-linecap:square;stroke-linejoin:miter;stroke-width:0.8;"/>
   </g>
   <g id="patch_4">
    <path d="M 450 303.64 
L 450 14.76 
" style="fill:none;stroke:#000000;stroke-linecap:square;stroke-linejoin:miter;stroke-width:0.8;"/>
   </g>
   <g id="patch_5">
    <path d="M 47.72 303.64 
L 450 303.64 
" style="fill:none;stroke:#000000;stroke-linecap:square;stroke-linejoin:miter;stroke-width:0.8;"/>
   </g>
   <g id="patch_6">
    <path d="M 47.72 14.76 
L 450 14.76 
" style="fill:none;stroke:#000000;stroke-linecap:square;stroke-linejoin:miter;stroke-width:0.8;"/>
   </g>
   <g id="legend_1">
    <g id="patch_7">
     <path d="M 330.639063 81.4725 
L 443 81.4725 
Q 445 81.4725 445 79.4725 
L 445 21.76 
Q 445 19.76 443 19.76 
L 330.639063 19.76 
Q 328.639063 19.76 328.639063 21.76 
L 328.639063 79.4725 
Q 328.639063 81.4725 330.639063 81.4725 
z
" style="fill:#ffffff;opacity:0.8;stroke:#cccccc;stroke-linejoin:miter;"/>
    </g>
    <g id="line2d_19">
     <path d="M 332.639063 27.858437 
L 352.639063 27.858437 
" style="fill:none;stroke:#1f77b4;stroke-linecap:square;stroke-width:1.5;"/>
    </g>
    <g id="line2d_20"/>
    <g id="text_17">
     <!-- AllReduce SGD -->
     <g transform="translate(360.639063 31.358437)scale(0.1 -0.1)">
      <defs>
       <path d="M 34.1875 63.1875 
L 20.796875 26.90625 
L 47.609375 26.90625 
z
M 28.609375 72.90625 
L 39.796875 72.90625 
L 67.578125 0 
L 57.328125 0 
L 50.6875 18.703125 
L 17.828125 18.703125 
L 11.1875 0 
L 0.78125 0 
z
" id="DejaVuSans-65"/>
       <path d="M 9.421875 75.984375 
L 18.40625 75.984375 
L 18.40625 0 
L 9.421875 0 
z
" id="DejaVuSans-108"/>
       <path d="M 44.390625 34.1875 
Q 47.5625 33.109375 50.5625 29.59375 
Q 53.5625 26.078125 56.59375 19.921875 
L 66.609375 0 
L 56 0 
L 46.6875 18.703125 
Q 43.0625 26.03125 39.671875 28.421875 
Q 36.28125 30.8125 30.421875 30.8125 
L 19.671875 30.8125 
L 19.671875 0 
L 9.8125 0 
L 9.8125 72.90625 
L 32.078125 72.90625 
Q 44.578125 72.90625 50.734375 67.671875 
Q 56.890625 62.453125 56.890625 51.90625 
Q 56.890625 45.015625 53.6875 40.46875 
Q 50.484375 35.9375 44.390625 34.1875 
z
M 19.671875 64.796875 
L 19.671875 38.921875 
L 32.078125 38.921875 
Q 39.203125 38.921875 42.84375 42.21875 
Q 46.484375 45.515625 46.484375 51.90625 
Q 46.484375 58.296875 42.84375 61.546875 
Q 39.203125 64.796875 32.078125 64.796875 
z
" id="DejaVuSans-82"/>
       <path d="M 56.203125 29.59375 
L 56.203125 25.203125 
L 14.890625 25.203125 
Q 15.484375 15.921875 20.484375 11.0625 
Q 25.484375 6.203125 34.421875 6.203125 
Q 39.59375 6.203125 44.453125 7.46875 
Q 49.3125 8.734375 54.109375 11.28125 
L 54.109375 2.78125 
Q 49.265625 0.734375 44.1875 -0.34375 
Q 39.109375 -1.421875 33.890625 -1.421875 
Q 20.796875 -1.421875 13.15625 6.1875 
Q 5.515625 13.8125 5.515625 26.8125 
Q 5.515625 40.234375 12.765625 48.109375 
Q 20.015625 56 32.328125 56 
Q 43.359375 56 49.78125 48.890625 
Q 56.203125 41.796875 56.203125 29.59375 
z
M 47.21875 32.234375 
Q 47.125 39.59375 43.09375 43.984375 
Q 39.0625 48.390625 32.421875 48.390625 
Q 24.90625 48.390625 20.390625 44.140625 
Q 15.875 39.890625 15.1875 32.171875 
z
" id="DejaVuSans-101"/>
       <path d="M 45.40625 46.390625 
L 45.40625 75.984375 
L 54.390625 75.984375 
L 54.390625 0 
L 45.40625 0 
L 45.40625 8.203125 
Q 42.578125 3.328125 38.25 0.953125 
Q 33.9375 -1.421875 27.875 -1.421875 
Q 17.96875 -1.421875 11.734375 6.484375 
Q 5.515625 14.40625 5.515625 27.296875 
Q 5.515625 40.1875 11.734375 48.09375 
Q 17.96875 56 27.875 56 
Q 33.9375 56 38.25 53.625 
Q 42.578125 51.265625 45.40625 46.390625 
z
M 14.796875 27.296875 
Q 14.796875 17.390625 18.875 11.75 
Q 22.953125 6.109375 30.078125 6.109375 
Q 37.203125 6.109375 41.296875 11.75 
Q 45.40625 17.390625 45.40625 27.296875 
Q 45.40625 37.203125 41.296875 42.84375 
Q 37.203125 48.484375 30.078125 48.484375 
Q 22.953125 48.484375 18.875 42.84375 
Q 14.796875 37.203125 14.796875 27.296875 
z
" id="DejaVuSans-100"/>
       <path d="M 8.5 21.578125 
L 8.5 54.6875 
L 17.484375 54.6875 
L 17.484375 21.921875 
Q 17.484375 14.15625 20.5 10.265625 
Q 23.53125 6.390625 29.59375 6.390625 
Q 36.859375 6.390625 41.078125 11.03125 
Q 45.3125 15.671875 45.3125 23.6875 
L 45.3125 54.6875 
L 54.296875 54.6875 
L 54.296875 0 
L 45.3125 0 
L 45.3125 8.40625 
Q 42.046875 3.421875 37.71875 1 
Q 33.40625 -1.421875 27.6875 -1.421875 
Q 18.265625 -1.421875 13.375 4.4375 
Q 8.5 10.296875 8.5 21.578125 
z
M 31.109375 56 
z
" id="DejaVuSans-117"/>
       <path id="DejaVuSans-32"/>
       <path d="M 53.515625 70.515625 
L 53.515625 60.890625 
Q 47.90625 63.578125 42.921875 64.890625 
Q 37.9375 66.21875 33.296875 66.21875 
Q 25.25 66.21875 20.875 63.09375 
Q 16.5 59.96875 16.5 54.203125 
Q 16.5 49.359375 19.40625 46.890625 
Q 22.3125 44.4375 30.421875 42.921875 
L 36.375 41.703125 
Q 47.40625 39.59375 52.65625 34.296875 
Q 57.90625 29 57.90625 20.125 
Q 57.90625 9.515625 50.796875 4.046875 
Q 43.703125 -1.421875 29.984375 -1.421875 
Q 24.8125 -1.421875 18.96875 -0.25 
Q 13.140625 0.921875 6.890625 3.21875 
L 6.890625 13.375 
Q 12.890625 10.015625 18.65625 8.296875 
Q 24.421875 6.59375 29.984375 6.59375 
Q 38.421875 6.59375 43.015625 9.90625 
Q 47.609375 13.234375 47.609375 19.390625 
Q 47.609375 24.75 44.3125 27.78125 
Q 41.015625 30.8125 33.5 32.328125 
L 27.484375 33.5 
Q 16.453125 35.6875 11.515625 40.375 
Q 6.59375 45.0625 6.59375 53.421875 
Q 6.59375 63.09375 13.40625 68.65625 
Q 20.21875 74.21875 32.171875 74.21875 
Q 37.3125 74.21875 42.625 73.28125 
Q 47.953125 72.359375 53.515625 70.515625 
z
" id="DejaVuSans-83"/>
       <path d="M 59.515625 10.40625 
L 59.515625 29.984375 
L 43.40625 29.984375 
L 43.40625 38.09375 
L 69.28125 38.09375 
L 69.28125 6.78125 
Q 63.578125 2.734375 56.6875 0.65625 
Q 49.8125 -1.421875 42 -1.421875 
Q 24.90625 -1.421875 15.25 8.5625 
Q 5.609375 18.5625 5.609375 36.375 
Q 5.609375 54.25 15.25 64.234375 
Q 24.90625 74.21875 42 74.21875 
Q 49.125 74.21875 55.546875 72.453125 
Q 61.96875 70.703125 67.390625 67.28125 
L 67.390625 56.78125 
Q 61.921875 61.421875 55.765625 63.765625 
Q 49.609375 66.109375 42.828125 66.109375 
Q 29.4375 66.109375 22.71875 58.640625 
Q 16.015625 51.171875 16.015625 36.375 
Q 16.015625 21.625 22.71875 14.15625 
Q 29.4375 6.6875 42.828125 6.6875 
Q 48.046875 6.6875 52.140625 7.59375 
Q 56.25 8.5 59.515625 10.40625 
z
" id="DejaVuSans-71"/>
       <path d="M 19.671875 64.796875 
L 19.671875 8.109375 
L 31.59375 8.109375 
Q 46.6875 8.109375 53.6875 14.9375 
Q 60.6875 21.78125 60.6875 36.53125 
Q 60.6875 51.171875 53.6875 57.984375 
Q 46.6875 64.796875 31.59375 64.796875 
z
M 9.8125 72.90625 
L 30.078125 72.90625 
Q 51.265625 72.90625 61.171875 64.09375 
Q 71.09375 55.28125 71.09375 36.53125 
Q 71.09375 17.671875 61.125 8.828125 
Q 51.171875 0 30.078125 0 
L 9.8125 0 
z
" id="DejaVuSans-68"/>
      </defs>
      <use xlink:href="#DejaVuSans-65"/>
      <use x="68.408203" xlink:href="#DejaVuSans-108"/>
      <use x="96.191406" xlink:href="#DejaVuSans-108"/>
      <use x="123.974609" xlink:href="#DejaVuSans-82"/>
      <use x="188.957031" xlink:href="#DejaVuSans-101"/>
      <use x="250.480469" xlink:href="#DejaVuSans-100"/>
      <use x="313.957031" xlink:href="#DejaVuSans-117"/>
      <use x="377.335938" xlink:href="#DejaVuSans-99"/>
      <use x="432.316406" xlink:href="#DejaVuSans-101"/>
      <use x="493.839844" xlink:href="#DejaVuSans-32"/>
      <use x="525.626953" xlink:href="#DejaVuSans-83"/>
      <use x="589.103516" xlink:href="#DejaVuSans-71"/>
      <use x="666.59375" xlink:href="#DejaVuSans-68"/>
     </g>
    </g>
    <g id="line2d_21">
     <path d="M 332.639063 42.536563 
L 352.639063 42.536563 
" style="fill:none;stroke:#ff7f0e;stroke-linecap:square;stroke-width:1.5;"/>
    </g>
    <g id="line2d_22"/>
    <g id="text_18">
     <!-- QSGD-MN 8 bits -->
     <g transform="translate(360.639063 46.036563)scale(0.1 -0.1)">
      <defs>
       <path d="M 39.40625 66.21875 
Q 28.65625 66.21875 22.328125 58.203125 
Q 16.015625 50.203125 16.015625 36.375 
Q 16.015625 22.609375 22.328125 14.59375 
Q 28.65625 6.59375 39.40625 6.59375 
Q 50.140625 6.59375 56.421875 14.59375 
Q 62.703125 22.609375 62.703125 36.375 
Q 62.703125 50.203125 56.421875 58.203125 
Q 50.140625 66.21875 39.40625 66.21875 
z
M 53.21875 1.3125 
L 66.21875 -12.890625 
L 54.296875 -12.890625 
L 43.5 -1.21875 
Q 41.890625 -1.3125 41.03125 -1.359375 
Q 40.1875 -1.421875 39.40625 -1.421875 
Q 24.03125 -1.421875 14.8125 8.859375 
Q 5.609375 19.140625 5.609375 36.375 
Q 5.609375 53.65625 14.8125 63.9375 
Q 24.03125 74.21875 39.40625 74.21875 
Q 54.734375 74.21875 63.90625 63.9375 
Q 73.09375 53.65625 73.09375 36.375 
Q 73.09375 23.6875 67.984375 14.640625 
Q 62.890625 5.609375 53.21875 1.3125 
z
" id="DejaVuSans-81"/>
       <path d="M 4.890625 31.390625 
L 31.203125 31.390625 
L 31.203125 23.390625 
L 4.890625 23.390625 
z
" id="DejaVuSans-45"/>
       <path d="M 9.8125 72.90625 
L 24.515625 72.90625 
L 43.109375 23.296875 
L 61.8125 72.90625 
L 76.515625 72.90625 
L 76.515625 0 
L 66.890625 0 
L 66.890625 64.015625 
L 48.09375 14.015625 
L 38.1875 14.015625 
L 19.390625 64.015625 
L 19.390625 0 
L 9.8125 0 
z
" id="DejaVuSans-77"/>
       <path d="M 9.8125 72.90625 
L 23.09375 72.90625 
L 55.421875 11.921875 
L 55.421875 72.90625 
L 64.984375 72.90625 
L 64.984375 0 
L 51.703125 0 
L 19.390625 60.984375 
L 19.390625 0 
L 9.8125 0 
z
" id="DejaVuSans-78"/>
       <path d="M 48.6875 27.296875 
Q 48.6875 37.203125 44.609375 42.84375 
Q 40.53125 48.484375 33.40625 48.484375 
Q 26.265625 48.484375 22.1875 42.84375 
Q 18.109375 37.203125 18.109375 27.296875 
Q 18.109375 17.390625 22.1875 11.75 
Q 26.265625 6.109375 33.40625 6.109375 
Q 40.53125 6.109375 44.609375 11.75 
Q 48.6875 17.390625 48.6875 27.296875 
z
M 18.109375 46.390625 
Q 20.953125 51.265625 25.265625 53.625 
Q 29.59375 56 35.59375 56 
Q 45.5625 56 51.78125 48.09375 
Q 58.015625 40.1875 58.015625 27.296875 
Q 58.015625 14.40625 51.78125 6.484375 
Q 45.5625 -1.421875 35.59375 -1.421875 
Q 29.59375 -1.421875 25.265625 0.953125 
Q 20.953125 3.328125 18.109375 8.203125 
L 18.109375 0 
L 9.078125 0 
L 9.078125 75.984375 
L 18.109375 75.984375 
z
" id="DejaVuSans-98"/>
       <path d="M 9.421875 54.6875 
L 18.40625 54.6875 
L 18.40625 0 
L 9.421875 0 
z
M 9.421875 75.984375 
L 18.40625 75.984375 
L 18.40625 64.59375 
L 9.421875 64.59375 
z
" id="DejaVuSans-105"/>
       <path d="M 18.3125 70.21875 
L 18.3125 54.6875 
L 36.8125 54.6875 
L 36.8125 47.703125 
L 18.3125 47.703125 
L 18.3125 18.015625 
Q 18.3125 11.328125 20.140625 9.421875 
Q 21.96875 7.515625 27.59375 7.515625 
L 36.8125 7.515625 
L 36.8125 0 
L 27.59375 0 
Q 17.1875 0 13.234375 3.875 
Q 9.28125 7.765625 9.28125 18.015625 
L 9.28125 47.703125 
L 2.6875 47.703125 
L 2.6875 54.6875 
L 9.28125 54.6875 
L 9.28125 70.21875 
z
" id="DejaVuSans-116"/>
      </defs>
      <use xlink:href="#DejaVuSans-81"/>
      <use x="78.710938" xlink:href="#DejaVuSans-83"/>
      <use x="142.1875" xlink:href="#DejaVuSans-71"/>
      <use x="219.677734" xlink:href="#DejaVuSans-68"/>
      <use x="296.679688" xlink:href="#DejaVuSans-45"/>
      <use x="332.763672" xlink:href="#DejaVuSans-77"/>
      <use x="419.042969" xlink:href="#DejaVuSans-78"/>
      <use x="493.847656" xlink:href="#DejaVuSans-32"/>
      <use x="525.634766" xlink:href="#DejaVuSans-56"/>
      <use x="589.257812" xlink:href="#DejaVuSans-32"/>
      <use x="621.044922" xlink:href="#DejaVuSans-98"/>
      <use x="684.521484" xlink:href="#DejaVuSans-105"/>
      <use x="712.304688" xlink:href="#DejaVuSans-116"/>
      <use x="751.513672" xlink:href="#DejaVuSans-115"/>
     </g>
    </g>
    <g id="line2d_23">
     <path d="M 332.639063 57.214687 
L 352.639063 57.214687 
" style="fill:none;stroke:#2ca02c;stroke-linecap:square;stroke-width:1.5;"/>
    </g>
    <g id="line2d_24"/>
    <g id="text_19">
     <!-- QSGD-MN 4 bits -->
     <g transform="translate(360.639063 60.714687)scale(0.1 -0.1)">
      <use xlink:href="#DejaVuSans-81"/>
      <use x="78.710938" xlink:href="#DejaVuSans-83"/>
      <use x="142.1875" xlink:href="#DejaVuSans-71"/>
      <use x="219.677734" xlink:href="#DejaVuSans-68"/>
      <use x="296.679688" xlink:href="#DejaVuSans-45"/>
      <use x="332.763672" xlink:href="#DejaVuSans-77"/>
      <use x="419.042969" xlink:href="#DejaVuSans-78"/>
      <use x="493.847656" xlink:href="#DejaVuSans-32"/>
      <use x="525.634766" xlink:href="#DejaVuSans-52"/>
      <use x="589.257812" xlink:href="#DejaVuSans-32"/>
      <use x="621.044922" xlink:href="#DejaVuSans-98"/>
      <use x="684.521484" xlink:href="#DejaVuSans-105"/>
      <use x="712.304688" xlink:href="#DejaVuSans-116"/>
      <use x="751.513672" xlink:href="#DejaVuSans-115"/>
     </g>
    </g>
    <g id="line2d_25">
     <path d="M 332.639063 71.892812 
L 352.639063 71.892812 
" style="fill:none;stroke:#d62728;stroke-linecap:square;stroke-width:1.5;"/>
    </g>
    <g id="line2d_26"/>
    <g id="text_20">
     <!-- QSGD-MN 2 bits -->
     <g transform="translate(360.639063 75.392812)scale(0.1 -0.1)">
      <use xlink:href="#DejaVuSans-81"/>
      <use x="78.710938" xlink:href="#DejaVuSans-83"/>
      <use x="142.1875" xlink:href="#DejaVuSans-71"/>
      <use x="219.677734" xlink:href="#DejaVuSans-68"/>
      <use x="296.679688" xlink:href="#DejaVuSans-45"/>
      <use x="332.763672" xlink:href="#DejaVuSans-77"/>
      <use x="419.042969" xlink:href="#DejaVuSans-78"/>
      <use x="493.847656" xlink:href="#DejaVuSans-32"/>
      <use x="525.634766" xlink:href="#DejaVuSans-50"/>
      <use x="589.257812" xlink:href="#DejaVuSans-32"/>
      <use x="621.044922" xlink:href="#DejaVuSans-98"/>
      <use x="684.521484" xlink:href="#DejaVuSans-105"/>
      <use x="712.304688" xlink:href="#DejaVuSans-116"/>
      <use x="751.513672" xlink:href="#DejaVuSans-115"/>
     </g>
    </g>
   </g>
  </g>
 </g>
 <defs>
  <clipPath id="pc9f3971c37">
   <rect height="288.88" width="402.28" x="47.72" y="14.76"/>
  </clipPath>
 </defs>
</svg>
