<?xml version="1.0" encoding="utf-8" standalone="no"?>
<!DOCTYPE svg PUBLIC "-//W3C//DTD SVG 1.1//EN"
  "http://www.w3.org/Graphics/SVG/1.1/DTD/svg11.dtd">
<!-- Created with matplotlib (https://matplotlib.org/) -->
<svg height="345.6pt" version="1.1" viewBox="0 0 460.8 345.6" width="460.8pt" xmlns="http://www.w3.org/2000/svg" xmlns:xlink="http://www.w3.org/1999/xlink">
 <metadata>
  <rdf:RDF xmlns:cc="http://creativecommons.org/ns#" xmlns:dc="http://purl.org/dc/elements/1.1/" xmlns:rdf="http://www.w3.org/1999/02/22-rdf-syntax-ns#">
   <cc:Work>
    <dc:type rdf:resource="http://purl.org/dc/dcmitype/StillImage"/>
    <dc:date>2021-06-10T08:57:22.454651</dc:date>
    <dc:format>image/svg+xml</dc:format>
    <dc:creator>
     <cc:Agent>
      <dc:title>Matplotlib v3.3.1, https://matplotlib.org/</dc:title>
     </cc:Agent>
    </dc:creator>
   </cc:Work>
  </rdf:RDF>
 </metadata>
 <defs>
  <style type="text/css">*{stroke-linecap:butt;stroke-linejoin:round;}</style>
 </defs>
 <g id="figure_1">
  <g id="patch_1">
   <path d="M 0 345.6 
L 460.8 345.6 
L 460.8 0 
L 0 0 
z
" style="fill:#ffffff;"/>
  </g>
  <g id="axes_1">
   <g id="patch_2">
    <path d="M 47.72 303.64 
L 450 303.64 
L 450 14.76 
L 47.72 14.76 
z
" style="fill:#ffffff;"/>
   </g>
   <g id="PolyCollection_1">
    <path clip-path="url(#p9ceb0f6148)" d="M 66.095869 40.802604 
L 66.095869 41.979646 
L 68.294665 88.835256 
L 70.565173 97.781353 
L 72.798785 104.679396 
L 75.040548 137.331326 
L 77.306528 187.413644 
L 79.549207 210.747209 
L 81.740059 217.046819 
L 83.909832 220.342012 
L 86.115545 217.943777 
L 88.271545 232.784613 
L 90.439595 247.040387 
L 92.653571 248.401217 
L 94.862305 244.612147 
L 97.093126 252.706133 
L 99.383158 249.178948 
L 101.625743 261.045668 
L 103.812857 252.918326 
L 106.014226 258.530559 
L 108.185121 259.887104 
L 110.449759 254.603387 
L 112.69144 251.628373 
L 114.856944 273.554631 
L 117.094792 254.628374 
L 119.28973 260.513619 
L 121.529811 268.696328 
L 123.742701 267.360066 
L 125.962738 263.336193 
L 128.142387 266.840207 
L 130.333836 274.884038 
L 132.53692 271.540501 
L 134.723072 275.373504 
L 136.944113 278.649971 
L 139.167922 269.765859 
L 141.351996 278.424915 
L 143.603262 275.442379 
L 145.826831 279.617393 
L 148.06657 275.108966 
L 150.302119 272.163921 
L 152.525014 273.810945 
L 154.833619 280.528634 
L 157.050483 275.20428 
L 159.260451 281.171338 
L 161.515392 275.302152 
L 163.714107 285.473329 
L 165.929592 278.549751 
L 168.114278 280.372394 
L 170.35115 280.046105 
L 172.52759 278.381856 
L 174.675775 282.357637 
L 176.883038 280.808635 
L 179.113319 283.514675 
L 181.299337 278.759053 
L 183.533352 284.210639 
L 185.705871 288.87576 
L 187.935143 283.989354 
L 190.105479 281.284608 
L 192.289397 288.672529 
L 194.499706 286.928243 
L 196.702501 280.494637 
L 198.95833 288.957053 
L 201.183251 284.022315 
L 203.370815 279.623706 
L 205.603063 284.198743 
L 207.836335 283.593715 
L 210.100253 293.320146 
L 212.305694 290.608574 
L 214.520089 288.021026 
L 216.71729 290.415334 
L 218.93523 286.410395 
L 221.147516 281.789816 
L 223.35571 290.624992 
L 225.547355 290.648159 
L 227.799203 283.061849 
L 230.004492 289.251348 
L 232.191424 287.381949 
L 234.380449 293.429749 
L 236.581243 292.593902 
L 238.809218 290.986944 
L 241.039117 292.699345 
L 243.303299 291.820514 
L 245.565056 292.286056 
L 247.782579 290.71529 
L 249.981276 291.551953 
L 252.253195 288.34608 
L 254.48221 294.023946 
L 256.696686 292.325256 
L 258.838246 289.062324 
L 261.053659 293.844748 
L 263.312204 290.704628 
L 265.537497 293.892858 
L 267.768528 292.171733 
L 270.034446 296.149879 
L 272.234278 293.350941 
L 274.420422 294.501036 
L 276.597904 296.101413 
L 278.777298 295.814309 
L 280.989482 295.777691 
L 283.268353 297.33294 
L 285.47911 296.47463 
L 287.686848 298.976097 
L 289.936216 299.010856 
L 292.171317 298.374279 
L 294.391474 297.417501 
L 296.601221 300.308499 
L 298.836777 300.549981 
L 301.115518 300.84698 
L 303.396144 298.837703 
L 305.643483 301.91931 
L 307.845744 301.929774 
L 310.050782 301.439175 
L 312.270004 302.125021 
L 314.503472 303.263883 
L 316.758584 301.355604 
L 318.955351 302.820925 
L 321.157231 302.384463 
L 323.379514 303.299534 
L 325.545735 302.206533 
L 327.815632 303.078695 
L 330.063283 302.751963 
L 332.297877 302.242961 
L 334.538664 302.533382 
L 336.778854 303.214266 
L 338.942055 302.86998 
L 341.138547 302.754907 
L 343.3618 303.150657 
L 345.574741 303.476913 
L 347.793967 303.549472 
L 349.970609 303.540276 
L 352.169688 303.502376 
L 354.393638 303.489701 
L 356.649406 303.540081 
L 358.871196 303.545249 
L 361.133376 303.601142 
L 363.3469 303.645018 
L 365.600231 303.580732 
L 367.844453 303.591333 
L 370.062861 303.538841 
L 372.291724 303.541157 
L 374.462361 303.546406 
L 376.757995 303.570919 
L 378.953039 303.543187 
L 381.134789 303.616341 
L 383.341722 303.604025 
L 385.534971 303.568074 
L 387.726219 303.56903 
L 389.982201 303.553094 
L 392.240399 303.551858 
L 394.472651 303.596247 
L 396.638531 303.544533 
L 396.638531 303.512843 
L 396.638531 303.512843 
L 394.472651 303.378766 
L 392.240399 303.50521 
L 389.982201 303.488589 
L 387.726219 303.462184 
L 385.534971 303.393914 
L 383.341722 303.376521 
L 381.134789 303.285501 
L 378.953039 303.532416 
L 376.757995 303.415313 
L 374.462361 303.182334 
L 372.291724 303.353191 
L 370.062861 303.445737 
L 367.844453 303.402965 
L 365.600231 303.044686 
L 363.3469 302.131074 
L 361.133376 303.312997 
L 358.871196 302.921924 
L 356.649406 303.446216 
L 354.393638 302.766506 
L 352.169688 303.056262 
L 349.970609 303.257405 
L 347.793967 303.250347 
L 345.574741 302.087378 
L 343.3618 301.070131 
L 341.138547 302.554206 
L 338.942055 300.146818 
L 336.778854 302.226557 
L 334.538664 301.308763 
L 332.297877 299.910054 
L 330.063283 301.709764 
L 327.815632 300.158854 
L 325.545735 299.842454 
L 323.379514 297.444697 
L 321.157231 298.602911 
L 318.955351 300.282798 
L 316.758584 297.341924 
L 314.503472 299.229426 
L 312.270004 298.405865 
L 310.050782 298.717916 
L 307.845744 299.965464 
L 305.643483 298.496616 
L 303.396144 295.098524 
L 301.115518 295.403249 
L 298.836777 296.390005 
L 296.601221 296.126511 
L 294.391474 293.012106 
L 292.171317 295.690307 
L 289.936216 295.632055 
L 287.686848 295.720414 
L 285.47911 291.156453 
L 283.268353 293.488799 
L 280.989482 294.022812 
L 278.777298 294.508097 
L 276.597904 288.426466 
L 274.420422 291.279409 
L 272.234278 289.611231 
L 270.034446 290.54319 
L 267.768528 287.371274 
L 265.537497 290.81275 
L 263.312204 286.017284 
L 261.053659 287.40502 
L 258.838246 282.615473 
L 256.696686 287.561924 
L 254.48221 288.9749 
L 252.253195 285.66194 
L 249.981276 286.351998 
L 247.782579 283.797706 
L 245.565056 287.536239 
L 243.303299 283.637548 
L 241.039117 289.1626 
L 238.809218 283.607864 
L 236.581243 289.084672 
L 234.380449 287.554836 
L 232.191424 280.38017 
L 230.004492 282.079455 
L 227.799203 277.455701 
L 225.547355 284.115914 
L 223.35571 284.720227 
L 221.147516 276.329805 
L 218.93523 282.451951 
L 216.71729 286.013185 
L 214.520089 285.428418 
L 212.305694 282.175091 
L 210.100253 287.681366 
L 207.836335 275.293242 
L 205.603063 278.874718 
L 203.370815 274.399686 
L 201.183251 279.271191 
L 198.95833 287.40376 
L 196.702501 275.994392 
L 194.499706 282.300844 
L 192.289397 281.306969 
L 190.105479 274.538642 
L 187.935143 278.463466 
L 185.705871 284.342354 
L 183.533352 279.534242 
L 181.299337 277.983873 
L 179.113319 275.456916 
L 176.883038 274.56324 
L 174.675775 273.685659 
L 172.52759 272.132095 
L 170.35115 274.287607 
L 168.114278 267.788765 
L 165.929592 274.136442 
L 163.714107 278.90912 
L 161.515392 268.802274 
L 159.260451 279.058461 
L 157.050483 270.073722 
L 154.833619 273.618887 
L 152.525014 270.767425 
L 150.302119 270.084226 
L 148.06657 269.723303 
L 145.826831 270.185643 
L 143.603262 271.477499 
L 141.351996 275.801596 
L 139.167922 264.086712 
L 136.944113 266.977846 
L 134.723072 272.607105 
L 132.53692 266.859674 
L 130.333836 270.856623 
L 128.142387 260.083759 
L 125.962738 254.334585 
L 123.742701 263.07334 
L 121.529811 262.053041 
L 119.28973 257.913213 
L 117.094792 251.453351 
L 114.856944 267.807693 
L 112.69144 243.372096 
L 110.449759 246.242388 
L 108.185121 250.663234 
L 106.014226 251.827944 
L 103.812857 242.815627 
L 101.625743 252.077507 
L 99.383158 244.523818 
L 97.093126 246.99992 
L 94.862305 240.322659 
L 92.653571 239.523949 
L 90.439595 239.271113 
L 88.271545 229.107499 
L 86.115545 207.206411 
L 83.909832 211.533663 
L 81.740059 203.7476 
L 79.549207 196.235134 
L 77.306528 167.886262 
L 75.040548 104.154374 
L 72.798785 81.783691 
L 70.565173 94.143372 
L 68.294665 70.635606 
L 66.095869 40.802604 
z
" style="fill:#1f77b4;fill-opacity:0.25;"/>
   </g>
   <g id="PolyCollection_2">
    <path clip-path="url(#p9ceb0f6148)" d="M 66.395558 37.58734 
L 66.395558 39.59786 
L 68.823787 44.745469 
L 71.331 57.345674 
L 73.804752 76.585404 
L 76.266877 91.958392 
L 78.727177 113.675515 
L 81.188138 141.244338 
L 83.659217 159.14481 
L 86.166202 179.666569 
L 88.651958 168.165844 
L 91.117972 210.164502 
L 93.558979 216.072086 
L 96.024557 230.441838 
L 98.500971 230.089858 
L 100.992866 240.656809 
L 103.427998 238.785355 
L 105.870006 244.597135 
L 108.311895 238.292374 
L 110.764745 246.495776 
L 113.191297 249.150581 
L 115.634435 244.685772 
L 118.069942 244.309871 
L 120.538758 264.088646 
L 122.971995 249.549444 
L 125.419798 260.428369 
L 127.860117 258.103515 
L 130.304607 259.437961 
L 132.722242 258.102796 
L 135.207739 259.6142 
L 137.674942 269.742383 
L 140.096156 266.355621 
L 142.521619 266.095989 
L 144.987341 273.052994 
L 147.480977 264.445443 
L 149.897822 274.690648 
L 152.368416 276.05375 
L 154.808873 276.315231 
L 157.27076 268.295679 
L 159.726401 268.537166 
L 162.162249 271.939568 
L 164.614 267.440747 
L 167.074583 272.769632 
L 169.523696 272.666447 
L 172.022923 269.100993 
L 174.478215 276.210582 
L 176.912102 272.117326 
L 179.336505 274.793542 
L 181.791129 276.00829 
L 184.26247 275.985687 
L 186.772466 276.796832 
L 189.209501 281.190701 
L 191.676274 278.891687 
L 194.104168 278.015946 
L 196.520101 281.573235 
L 198.963673 286.167636 
L 201.409389 281.56535 
L 203.826601 279.573787 
L 206.270434 286.306176 
L 208.721148 284.974758 
L 211.169294 276.708647 
L 213.614064 286.949474 
L 216.065299 277.450756 
L 218.519425 278.770961 
L 220.943893 280.186328 
L 223.383349 278.378667 
L 225.805473 291.112517 
L 228.298427 287.368203 
L 230.738245 285.398323 
L 233.176702 291.495535 
L 235.594699 281.408822 
L 238.064694 283.711742 
L 240.523245 287.102658 
L 242.980341 286.107294 
L 245.42525 281.157376 
L 247.848063 288.276196 
L 250.333623 280.899532 
L 252.768654 288.966017 
L 255.201667 289.280701 
L 257.6411 287.531631 
L 260.087909 291.10133 
L 262.554711 285.887047 
L 265.015089 289.407294 
L 267.485264 289.659642 
L 269.926896 289.44814 
L 272.371651 290.200727 
L 274.820244 288.69103 
L 277.298214 290.424706 
L 279.774811 290.792433 
L 282.208546 294.735263 
L 284.697931 292.611551 
L 287.121216 296.28985 
L 289.562723 291.134212 
L 292.008209 294.739225 
L 294.469256 295.398023 
L 296.914576 293.121762 
L 299.375901 292.230446 
L 301.842135 293.880973 
L 304.304804 295.30931 
L 306.759857 296.42965 
L 309.219021 299.304824 
L 311.658934 297.088132 
L 314.115339 298.899692 
L 316.558891 297.396436 
L 319.015907 297.023457 
L 321.463084 299.986874 
L 323.896469 299.201555 
L 326.336883 298.7276 
L 328.816696 298.704139 
L 331.258623 300.234171 
L 333.703348 301.44624 
L 336.139152 300.866296 
L 338.567055 303.11183 
L 341.024359 302.156376 
L 343.454613 300.239247 
L 345.931704 300.434957 
L 348.359548 301.24121 
L 350.787687 301.523165 
L 353.260894 302.625374 
L 355.714899 301.876515 
L 358.219242 302.590712 
L 360.68204 301.966022 
L 363.157039 301.591494 
L 365.650415 303.414579 
L 368.087612 303.488531 
L 370.506729 303.189432 
L 372.96858 303.533594 
L 375.402695 303.466719 
L 377.84185 303.399605 
L 380.322114 303.702913 
L 382.747877 303.562106 
L 385.218946 303.774291 
L 387.637202 303.519394 
L 390.066771 303.662583 
L 392.558328 303.645939 
L 394.998605 303.583898 
L 397.475386 303.437108 
L 399.94473 303.551515 
L 402.389687 303.594595 
L 404.838093 303.594444 
L 407.263328 303.652303 
L 409.710682 303.849976 
L 412.170122 303.649141 
L 414.589916 303.60327 
L 417.000075 303.59749 
L 419.448322 303.600658 
L 421.932707 303.600872 
L 424.36766 303.594982 
L 426.804856 303.614997 
L 429.230131 303.599124 
L 431.714545 303.632619 
L 431.714545 303.289565 
L 431.714545 303.289565 
L 429.230131 302.944129 
L 426.804856 303.510923 
L 424.36766 303.573739 
L 421.932707 303.515107 
L 419.448322 303.026865 
L 417.000075 303.541741 
L 414.589916 303.539212 
L 412.170122 303.151978 
L 409.710682 302.693575 
L 407.263328 303.16096 
L 404.838093 303.449135 
L 402.389687 303.500259 
L 399.94473 303.318236 
L 397.475386 303.241734 
L 394.998605 303.083748 
L 392.558328 302.638656 
L 390.066771 302.607069 
L 387.637202 302.896514 
L 385.218946 301.769436 
L 382.747877 303.259334 
L 380.322114 302.559663 
L 377.84185 301.758536 
L 375.402695 302.685725 
L 372.96858 302.779829 
L 370.506729 302.289564 
L 368.087612 301.884939 
L 365.650415 300.83777 
L 363.157039 300.530489 
L 360.68204 298.00805 
L 358.219242 297.383713 
L 355.714899 297.956326 
L 353.260894 298.22888 
L 350.787687 301.013871 
L 348.359548 295.355132 
L 345.931704 298.500247 
L 343.454613 294.094048 
L 341.024359 300.979085 
L 338.567055 297.287522 
L 336.139152 296.577256 
L 333.703348 299.550479 
L 331.258623 296.410306 
L 328.816696 295.249014 
L 326.336883 295.929417 
L 323.896469 294.425057 
L 321.463084 293.918321 
L 319.015907 290.321284 
L 316.558891 295.246319 
L 314.115339 294.27625 
L 311.658934 294.344374 
L 309.219021 294.354935 
L 306.759857 289.599051 
L 304.304804 289.399119 
L 301.842135 288.057142 
L 299.375901 289.109597 
L 296.914576 287.394521 
L 294.469256 290.342926 
L 292.008209 288.860514 
L 289.562723 286.64279 
L 287.121216 290.398987 
L 284.697931 286.482901 
L 282.208546 286.737372 
L 279.774811 288.632087 
L 277.298214 284.432464 
L 274.820244 285.201325 
L 272.371651 283.434909 
L 269.926896 283.846144 
L 267.485264 283.171982 
L 265.015089 284.620474 
L 262.554711 280.645075 
L 260.087909 283.942032 
L 257.6411 280.679042 
L 255.201667 280.828568 
L 252.768654 283.20265 
L 250.333623 277.874582 
L 247.848063 281.985412 
L 245.42525 272.138174 
L 242.980341 280.046802 
L 240.523245 279.593087 
L 238.064694 272.912698 
L 235.594699 280.107395 
L 233.176702 287.663802 
L 230.738245 282.922373 
L 228.298427 284.405511 
L 225.805473 283.236856 
L 223.383349 270.504692 
L 220.943893 274.299723 
L 218.519425 271.291616 
L 216.065299 268.56073 
L 213.614064 275.328439 
L 211.169294 269.127931 
L 208.721148 278.854756 
L 206.270434 281.286677 
L 203.826601 273.501718 
L 201.409389 277.276471 
L 198.963673 281.848381 
L 196.520101 275.852396 
L 194.104168 271.098743 
L 191.676274 270.634882 
L 189.209501 275.366034 
L 186.772466 270.094835 
L 184.26247 270.161211 
L 181.791129 268.85219 
L 179.336505 268.142951 
L 176.912102 265.831474 
L 174.478215 269.180263 
L 172.022923 264.435617 
L 169.523696 269.908947 
L 167.074583 268.045399 
L 164.614 256.853959 
L 162.162249 260.084936 
L 159.726401 261.557709 
L 157.27076 259.158652 
L 154.808873 271.383269 
L 152.368416 271.64475 
L 149.897822 272.274368 
L 147.480977 257.38927 
L 144.987341 266.306353 
L 142.521619 260.94082 
L 140.096156 260.613482 
L 137.674942 263.918355 
L 135.207739 254.558422 
L 132.722242 251.172407 
L 130.304607 257.544471 
L 127.860117 251.893888 
L 125.419798 251.464809 
L 122.971995 245.597721 
L 120.538758 259.314595 
L 118.069942 236.539991 
L 115.634435 239.05289 
L 113.191297 240.647791 
L 110.764745 238.585727 
L 108.311895 231.566508 
L 105.870006 239.954002 
L 103.427998 232.043982 
L 100.992866 235.137654 
L 98.500971 222.436223 
L 96.024557 225.243868 
L 93.558979 207.543427 
L 91.117972 204.96516 
L 88.651958 157.636706 
L 86.166202 158.909894 
L 83.659217 136.099652 
L 81.188138 114.595087 
L 78.727177 96.168797 
L 76.266877 76.088596 
L 73.804752 52.959296 
L 71.331 41.324976 
L 68.823787 39.842281 
L 66.395558 37.58734 
z
" style="fill:#ff7f0e;fill-opacity:0.25;"/>
   </g>
   <g id="PolyCollection_3">
    <path clip-path="url(#p9ceb0f6148)" d="M 66.028613 39.113961 
L 66.028613 39.335089 
L 68.101585 44.946621 
L 70.198659 57.833237 
L 72.345802 87.440323 
L 74.455057 97.072553 
L 76.523725 142.459342 
L 78.600338 172.055502 
L 80.721241 185.646023 
L 82.80352 202.301215 
L 84.902512 199.556572 
L 86.984475 221.305434 
L 89.088073 229.716589 
L 91.157118 235.531099 
L 93.238257 229.633193 
L 95.356882 238.748761 
L 97.425182 237.201463 
L 99.550475 244.278198 
L 101.610306 237.181899 
L 103.715422 246.828589 
L 105.851115 249.644025 
L 107.942662 243.126646 
L 110.056117 238.690998 
L 112.137498 258.342541 
L 114.2149 241.791665 
L 116.326393 255.285873 
L 118.390017 255.388669 
L 120.475223 254.763687 
L 122.541713 251.754013 
L 124.665644 254.508225 
L 126.80821 264.391585 
L 128.906305 261.17323 
L 130.953208 264.26512 
L 133.054438 270.26829 
L 135.161627 260.394204 
L 137.273959 267.501886 
L 139.361158 267.399686 
L 141.438675 269.437146 
L 143.560312 261.485934 
L 145.712432 262.362857 
L 147.793258 262.462023 
L 149.869944 261.745411 
L 152.015715 263.330628 
L 154.128265 271.627967 
L 156.198744 263.97163 
L 158.243445 271.109217 
L 160.317204 264.025841 
L 162.443168 265.7504 
L 164.510597 270.852396 
L 166.565384 265.288456 
L 168.65085 265.352394 
L 170.69643 271.46389 
L 172.79322 273.201787 
L 174.832884 271.434136 
L 176.95753 276.107783 
L 179.06349 275.041669 
L 181.124383 277.713122 
L 183.209686 266.838455 
L 185.330698 279.430842 
L 187.406805 279.469731 
L 189.540485 264.399988 
L 191.613249 280.856777 
L 193.709585 271.576871 
L 195.777684 268.972821 
L 197.855911 273.063357 
L 199.935057 276.462075 
L 202.017698 284.607527 
L 204.094877 280.080931 
L 206.209733 277.946055 
L 208.306473 279.940606 
L 210.456711 272.393566 
L 212.565172 269.904104 
L 214.631377 275.247216 
L 216.732146 279.525818 
L 218.879138 264.318527 
L 220.970018 275.60111 
L 223.028614 273.108877 
L 225.094769 281.215667 
L 227.159458 279.174148 
L 229.269875 277.514827 
L 231.362931 283.485789 
L 233.424748 281.58573 
L 235.510353 283.63134 
L 237.54704 280.82416 
L 239.754598 281.193059 
L 241.8333 276.712228 
L 243.920376 287.701902 
L 245.989247 284.121269 
L 248.080844 285.239215 
L 250.187146 282.185831 
L 252.233763 280.507554 
L 254.266433 286.614018 
L 256.305381 285.898651 
L 258.370252 288.430358 
L 260.468981 285.414676 
L 262.544255 286.604848 
L 264.641544 285.500697 
L 266.716136 288.083293 
L 268.785612 288.40223 
L 270.881752 290.314188 
L 272.964948 291.615115 
L 275.07736 293.253291 
L 277.183085 289.888587 
L 279.304455 290.201045 
L 281.400639 287.237138 
L 283.46146 294.399653 
L 285.630119 294.665746 
L 287.679731 295.357092 
L 289.76319 294.630493 
L 291.865799 294.635412 
L 293.973818 297.775528 
L 296.078613 297.954794 
L 298.139965 299.882922 
L 300.291245 299.31077 
L 302.354788 293.047517 
L 304.443032 295.828291 
L 306.519376 297.896609 
L 308.642777 297.403439 
L 310.679845 298.090461 
L 312.76854 298.029345 
L 314.830849 298.949991 
L 316.906544 297.294472 
L 318.992941 299.270873 
L 321.087781 300.980337 
L 323.265507 302.257609 
L 325.345851 300.854634 
L 327.460039 300.864567 
L 329.628568 301.710159 
L 331.718164 302.632397 
L 333.805523 302.441056 
L 335.84184 303.402606 
L 337.895968 303.018557 
L 339.98518 303.03953 
L 342.017802 302.364164 
L 344.074925 302.724815 
L 346.142453 302.799703 
L 348.262516 302.661264 
L 350.405734 302.836919 
L 352.514353 303.519469 
L 354.595032 302.683195 
L 356.694011 302.183667 
L 358.769157 303.492923 
L 360.842108 303.395228 
L 362.962032 303.369144 
L 365.103943 303.486402 
L 367.211206 303.398562 
L 369.260181 303.386261 
L 371.308575 303.387943 
L 373.364576 303.408028 
L 375.449476 303.282669 
L 377.535566 303.342282 
L 377.535566 302.511655 
L 377.535566 302.511655 
L 375.449476 302.91002 
L 373.364576 302.412431 
L 371.308575 302.92548 
L 369.260181 302.764993 
L 367.211206 302.556846 
L 365.103943 303.178159 
L 362.962032 302.705235 
L 360.842108 302.904398 
L 358.769157 303.011276 
L 356.694011 298.991133 
L 354.595032 300.678305 
L 352.514353 301.387109 
L 350.405734 301.485781 
L 348.262516 300.707642 
L 346.142453 302.059093 
L 344.074925 301.048213 
L 342.017802 300.001491 
L 339.98518 299.690839 
L 337.895968 299.925599 
L 335.84184 301.389982 
L 333.805523 299.997947 
L 331.718164 301.589714 
L 329.628568 301.22042 
L 327.460039 298.495212 
L 325.345851 296.631939 
L 323.265507 299.274413 
L 321.087781 299.655987 
L 318.992941 296.305819 
L 316.906544 291.941812 
L 314.830849 294.043991 
L 312.76854 292.109689 
L 310.679845 292.793342 
L 308.642777 295.929073 
L 306.519376 291.936337 
L 304.443032 291.371163 
L 302.354788 287.629569 
L 300.291245 295.887896 
L 298.139965 292.431881 
L 296.078613 293.184318 
L 293.973818 291.431134 
L 291.865799 291.686682 
L 289.76319 290.644976 
L 287.679731 288.832255 
L 285.630119 290.716924 
L 283.46146 288.579446 
L 281.400639 283.340432 
L 279.304455 285.293691 
L 277.183085 286.167548 
L 275.07736 284.244422 
L 272.964948 284.401524 
L 270.881752 285.047958 
L 268.785612 283.537928 
L 266.716136 283.487302 
L 264.641544 277.132673 
L 262.544255 281.845617 
L 260.468981 279.678688 
L 258.370252 282.63244 
L 256.305381 278.686916 
L 254.266433 281.593834 
L 252.233763 273.961571 
L 250.187146 271.386186 
L 248.080844 277.140257 
L 245.989247 277.936598 
L 243.920376 280.184344 
L 241.8333 271.099116 
L 239.754598 275.442666 
L 237.54704 272.747858 
L 235.510353 278.4096 
L 233.424748 275.461874 
L 231.362931 279.266067 
L 229.269875 267.695469 
L 227.159458 271.920949 
L 225.094769 273.49043 
L 223.028614 270.40312 
L 220.970018 270.540146 
L 218.879138 261.161039 
L 216.732146 270.474694 
L 214.631377 271.068948 
L 212.565172 265.347731 
L 210.456711 268.398897 
L 208.306473 276.057551 
L 206.209733 271.185561 
L 204.094877 272.10875 
L 202.017698 279.363042 
L 199.935057 271.29849 
L 197.855911 267.729105 
L 195.777684 265.850208 
L 193.709585 265.017804 
L 191.613249 270.537356 
L 189.540485 258.337474 
L 187.406805 271.247339 
L 185.330698 275.608144 
L 183.209686 262.759907 
L 181.124383 273.077297 
L 179.06349 270.241975 
L 176.95753 270.529985 
L 174.832884 264.13366 
L 172.79322 262.75532 
L 170.69643 266.609038 
L 168.65085 256.888556 
L 166.565384 258.904691 
L 164.510597 265.776132 
L 162.443168 256.152019 
L 160.317204 259.964187 
L 158.243445 267.877746 
L 156.198744 255.899602 
L 154.128265 261.85222 
L 152.015715 256.382622 
L 149.869944 253.758767 
L 147.793258 256.134074 
L 145.712432 256.142965 
L 143.560312 258.633553 
L 141.438675 265.758267 
L 139.361158 258.903639 
L 137.273959 261.566111 
L 135.161627 252.8531 
L 133.054438 262.049607 
L 130.953208 254.714645 
L 128.906305 258.303048 
L 126.80821 258.864959 
L 124.665644 249.813138 
L 122.541713 246.50764 
L 120.475223 250.923085 
L 118.390017 250.151406 
L 116.326393 248.268152 
L 114.2149 236.598204 
L 112.137498 248.010009 
L 110.056117 233.244209 
L 107.942662 236.820467 
L 105.851115 236.441788 
L 103.715422 242.168593 
L 101.610306 229.517357 
L 99.550475 241.988165 
L 97.425182 232.318887 
L 95.356882 232.893051 
L 93.238257 224.31472 
L 91.157118 226.225601 
L 89.088073 216.016298 
L 86.984475 218.333891 
L 84.902512 188.310041 
L 82.80352 197.684816 
L 80.721241 177.033864 
L 78.600338 151.715861 
L 76.523725 128.185183 
L 74.455057 91.647409 
L 72.345802 81.283727 
L 70.198659 52.753713 
L 68.101585 43.974329 
L 66.028613 39.113961 
z
" style="fill:#2ca02c;fill-opacity:0.25;"/>
   </g>
   <g id="PolyCollection_4">
    <path clip-path="url(#p9ceb0f6148)" d="M 66.005455 16.186791 
L 66.005455 26.964734 
L 68.088417 91.211732 
L 70.142333 119.205376 
L 72.211157 124.253443 
L 74.27458 138.583604 
L 76.390913 175.07014 
L 78.495265 173.30336 
L 80.630702 176.268589 
L 82.703326 177.502523 
L 84.778064 164.720227 
L 86.850962 189.100291 
L 88.914745 166.729738 
L 91.079382 185.847131 
L 93.161536 174.957646 
L 95.248191 183.062965 
L 97.311753 182.986839 
L 99.345969 198.962221 
L 101.432976 185.642675 
L 103.471968 186.252423 
L 105.563023 188.391209 
L 107.682485 180.363132 
L 109.73076 195.224228 
L 111.764993 193.097182 
L 113.871627 182.502315 
L 115.944477 180.496302 
L 118.004292 202.047187 
L 120.144295 196.218136 
L 122.197715 201.56565 
L 124.303142 195.772838 
L 126.338119 204.796177 
L 128.523714 202.02565 
L 130.631549 204.131897 
L 132.665783 206.361786 
L 134.6968 198.69557 
L 136.73073 200.67983 
L 138.846119 208.438359 
L 140.904744 210.7143 
L 142.983679 201.859305 
L 145.057741 197.604044 
L 147.107142 195.272306 
L 149.179818 190.843326 
L 151.234493 199.622681 
L 153.370229 200.602193 
L 155.435386 204.357875 
L 157.49663 208.395637 
L 159.593156 205.626491 
L 161.645285 203.803705 
L 163.685592 205.104601 
L 165.725822 210.51134 
L 167.782953 205.476965 
L 169.830958 212.676786 
L 171.905394 209.07531 
L 173.931275 222.214708 
L 175.998124 210.216643 
L 178.048606 230.091836 
L 180.16668 216.208716 
L 182.214741 213.399772 
L 184.297374 226.008435 
L 186.344767 217.752125 
L 188.443993 209.366583 
L 190.516999 227.375554 
L 192.554456 205.493505 
L 194.574831 213.904793 
L 196.622277 219.55769 
L 198.682267 212.502031 
L 200.723156 233.304289 
L 202.772334 224.557339 
L 204.83351 229.970359 
L 206.877707 229.180008 
L 208.946401 225.564076 
L 211.00377 217.472477 
L 213.112374 222.48669 
L 215.145305 223.820873 
L 217.261496 227.06796 
L 219.308022 234.790187 
L 221.363499 224.021031 
L 223.514702 230.161243 
L 225.652479 230.069669 
L 227.690328 217.750484 
L 229.713688 229.949268 
L 231.787905 227.853181 
L 233.877777 237.203758 
L 235.962179 229.182948 
L 238.026961 239.609514 
L 240.123681 233.496711 
L 242.301545 241.753554 
L 244.368042 247.876839 
L 246.461024 237.155528 
L 248.526841 233.981021 
L 250.597815 231.680977 
L 252.695005 243.256885 
L 254.778249 232.320852 
L 256.864407 240.576324 
L 258.946862 231.690709 
L 260.999875 240.704583 
L 263.032857 235.013797 
L 265.109929 241.905832 
L 267.195428 239.044425 
L 269.295248 245.957484 
L 271.322009 244.317711 
L 273.39221 250.780051 
L 275.422661 252.425312 
L 277.499136 244.689392 
L 279.57717 248.290452 
L 281.616892 252.039765 
L 283.655331 253.759367 
L 285.685739 250.307348 
L 287.752719 250.074503 
L 289.792121 255.915024 
L 291.85405 263.816209 
L 293.931447 253.26056 
L 296.058929 260.879806 
L 298.106177 263.305135 
L 300.164745 248.142541 
L 302.259354 248.828429 
L 304.356118 253.428149 
L 306.464464 258.295436 
L 308.570126 257.300795 
L 310.683927 266.842949 
L 312.765657 257.260712 
L 314.835365 254.121926 
L 316.94178 260.307887 
L 319.009868 260.206516 
L 321.075662 264.881266 
L 323.125259 260.988426 
L 325.204417 258.443721 
L 327.243397 270.122952 
L 329.291022 264.808395 
L 331.357425 260.477813 
L 333.421602 275.119113 
L 335.444803 268.023359 
L 337.564786 261.804347 
L 339.60497 259.952942 
L 341.660069 264.304401 
L 343.717849 262.526237 
L 345.736702 255.644647 
L 347.799794 275.499602 
L 349.825899 261.738092 
L 351.936558 265.024829 
L 353.992071 263.972703 
L 356.065058 266.817104 
L 358.219495 269.339854 
L 360.34534 277.197771 
L 362.403509 277.618964 
L 364.479465 269.888541 
L 366.597338 272.252806 
L 368.722305 271.838622 
L 370.787258 272.232648 
L 372.862502 267.443583 
L 374.897619 262.582252 
L 374.897619 254.445317 
L 374.897619 254.445317 
L 372.862502 259.649649 
L 370.787258 267.758624 
L 368.722305 266.595406 
L 366.597338 266.756725 
L 364.479465 268.105396 
L 362.403509 269.323483 
L 360.34534 270.748985 
L 358.219495 266.352071 
L 356.065058 264.327218 
L 353.992071 257.828156 
L 351.936558 260.996386 
L 349.825899 254.465717 
L 347.799794 265.93607 
L 345.736702 251.046434 
L 343.717849 257.141875 
L 341.660069 259.505078 
L 339.60497 254.772615 
L 337.564786 252.751943 
L 335.444803 263.786741 
L 333.421602 270.830309 
L 331.357425 255.996822 
L 329.291022 259.982824 
L 327.243397 264.587233 
L 325.204417 255.02927 
L 323.125259 257.483542 
L 321.075662 257.912618 
L 319.009868 255.986009 
L 316.94178 255.252713 
L 314.835365 252.828696 
L 312.765657 252.860819 
L 310.683927 262.541011 
L 308.570126 250.236614 
L 306.464464 248.20381 
L 304.356118 248.083404 
L 302.259354 240.21389 
L 300.164745 245.921324 
L 298.106177 254.738027 
L 296.058929 256.802257 
L 293.931447 247.21283 
L 291.85405 256.528966 
L 289.792121 248.372485 
L 287.752719 247.871187 
L 285.685739 247.333664 
L 283.655331 247.707049 
L 281.616892 243.096116 
L 279.57717 243.900207 
L 277.499136 237.78542 
L 275.422661 243.782585 
L 273.39221 243.182255 
L 271.322009 238.518201 
L 269.295248 243.186394 
L 267.195428 232.100875 
L 265.109929 238.921462 
L 263.032857 228.458128 
L 260.999875 227.58577 
L 258.946862 226.206735 
L 256.864407 233.006401 
L 254.778249 227.156404 
L 252.695005 237.254446 
L 250.597815 221.928404 
L 248.526841 230.393654 
L 246.461024 229.634003 
L 244.368042 237.464204 
L 242.301545 235.46274 
L 240.123681 223.610826 
L 238.026961 233.770092 
L 235.962179 227.608627 
L 233.877777 234.302642 
L 231.787905 225.191982 
L 229.713688 220.207094 
L 227.690328 209.814559 
L 225.652479 222.749806 
L 223.514702 225.005382 
L 221.363499 215.482882 
L 219.308022 229.291094 
L 217.261496 216.408053 
L 215.145305 215.931295 
L 213.112374 215.392272 
L 211.00377 206.707254 
L 208.946401 222.696512 
L 206.877707 222.601304 
L 204.83351 225.602504 
L 202.772334 221.739768 
L 200.723156 223.848386 
L 198.682267 201.905432 
L 196.622277 206.156716 
L 194.574831 210.478057 
L 192.554456 198.712882 
L 190.516999 222.57769 
L 188.443993 204.002717 
L 186.344767 209.338975 
L 184.297374 221.281696 
L 182.214741 201.481634 
L 180.16668 213.83889 
L 178.048606 224.533139 
L 175.998124 202.430457 
L 173.931275 210.902248 
L 171.905394 200.705559 
L 169.830958 207.869377 
L 167.782953 192.613292 
L 165.725822 202.49686 
L 163.685592 200.252792 
L 161.645285 196.565995 
L 159.593156 203.545021 
L 157.49663 205.695863 
L 155.435386 191.881744 
L 153.370229 193.470825 
L 151.234493 192.599701 
L 149.179818 177.772142 
L 147.107142 191.330456 
L 145.057741 180.512868 
L 142.983679 194.041782 
L 140.904744 207.326731 
L 138.846119 200.597741 
L 136.73073 197.275014 
L 134.6968 187.816917 
L 132.665783 192.586083 
L 130.631549 191.475797 
L 128.523714 186.360044 
L 126.338119 186.252629 
L 124.303142 187.241493 
L 122.197715 185.127387 
L 120.144295 181.199146 
L 118.004292 192.838307 
L 115.944477 173.336635 
L 113.871627 171.511172 
L 111.764993 181.544143 
L 109.73076 181.335441 
L 107.682485 166.744318 
L 105.563023 174.175835 
L 103.471968 178.458652 
L 101.432976 172.433187 
L 99.345969 189.536316 
L 97.311753 174.005724 
L 95.248191 174.561523 
L 93.161536 161.723042 
L 91.079382 177.238994 
L 88.914745 157.447862 
L 86.850962 178.770409 
L 84.778064 147.857036 
L 82.703326 174.028402 
L 80.630702 168.175749 
L 78.495265 169.200065 
L 76.390913 159.57936 
L 74.27458 126.463871 
L 72.211157 104.90972 
L 70.142333 96.642224 
L 68.088417 81.439281 
L 66.005455 16.186791 
z
" style="fill:#d62728;fill-opacity:0.25;"/>
   </g>
   <g id="matplotlib.axis_1">
    <g id="xtick_1">
     <g id="line2d_1">
      <defs>
       <path d="M 0 0 
L 0 3.5 
" id="me1562ba075" style="stroke:#000000;stroke-width:0.8;"/>
      </defs>
      <g>
       <use style="stroke:#000000;stroke-width:0.8;" x="63.521628" xlink:href="#me1562ba075" y="303.64"/>
      </g>
     </g>
     <g id="text_1">
      <!-- 0 -->
      <g transform="translate(60.340378 318.238437)scale(0.1 -0.1)">
       <defs>
        <path d="M 31.78125 66.40625 
Q 24.171875 66.40625 20.328125 58.90625 
Q 16.5 51.421875 16.5 36.375 
Q 16.5 21.390625 20.328125 13.890625 
Q 24.171875 6.390625 31.78125 6.390625 
Q 39.453125 6.390625 43.28125 13.890625 
Q 47.125 21.390625 47.125 36.375 
Q 47.125 51.421875 43.28125 58.90625 
Q 39.453125 66.40625 31.78125 66.40625 
z
M 31.78125 74.21875 
Q 44.046875 74.21875 50.515625 64.515625 
Q 56.984375 54.828125 56.984375 36.375 
Q 56.984375 17.96875 50.515625 8.265625 
Q 44.046875 -1.421875 31.78125 -1.421875 
Q 19.53125 -1.421875 13.0625 8.265625 
Q 6.59375 17.96875 6.59375 36.375 
Q 6.59375 54.828125 13.0625 64.515625 
Q 19.53125 74.21875 31.78125 74.21875 
z
" id="DejaVuSans-48"/>
       </defs>
       <use xlink:href="#DejaVuSans-48"/>
      </g>
     </g>
    </g>
    <g id="xtick_2">
     <g id="line2d_2">
      <g>
       <use style="stroke:#000000;stroke-width:0.8;" x="147.835094" xlink:href="#me1562ba075" y="303.64"/>
      </g>
     </g>
     <g id="text_2">
      <!-- 500 -->
      <g transform="translate(138.291344 318.238437)scale(0.1 -0.1)">
       <defs>
        <path d="M 10.796875 72.90625 
L 49.515625 72.90625 
L 49.515625 64.59375 
L 19.828125 64.59375 
L 19.828125 46.734375 
Q 21.96875 47.46875 24.109375 47.828125 
Q 26.265625 48.1875 28.421875 48.1875 
Q 40.625 48.1875 47.75 41.5 
Q 54.890625 34.8125 54.890625 23.390625 
Q 54.890625 11.625 47.5625 5.09375 
Q 40.234375 -1.421875 26.90625 -1.421875 
Q 22.3125 -1.421875 17.546875 -0.640625 
Q 12.796875 0.140625 7.71875 1.703125 
L 7.71875 11.625 
Q 12.109375 9.234375 16.796875 8.0625 
Q 21.484375 6.890625 26.703125 6.890625 
Q 35.15625 6.890625 40.078125 11.328125 
Q 45.015625 15.765625 45.015625 23.390625 
Q 45.015625 31 40.078125 35.4375 
Q 35.15625 39.890625 26.703125 39.890625 
Q 22.75 39.890625 18.8125 39.015625 
Q 14.890625 38.140625 10.796875 36.28125 
z
" id="DejaVuSans-53"/>
       </defs>
       <use xlink:href="#DejaVuSans-53"/>
       <use x="63.623047" xlink:href="#DejaVuSans-48"/>
       <use x="127.246094" xlink:href="#DejaVuSans-48"/>
      </g>
     </g>
    </g>
    <g id="xtick_3">
     <g id="line2d_3">
      <g>
       <use style="stroke:#000000;stroke-width:0.8;" x="232.148559" xlink:href="#me1562ba075" y="303.64"/>
      </g>
     </g>
     <g id="text_3">
      <!-- 1000 -->
      <g transform="translate(219.423559 318.238437)scale(0.1 -0.1)">
       <defs>
        <path d="M 12.40625 8.296875 
L 28.515625 8.296875 
L 28.515625 63.921875 
L 10.984375 60.40625 
L 10.984375 69.390625 
L 28.421875 72.90625 
L 38.28125 72.90625 
L 38.28125 8.296875 
L 54.390625 8.296875 
L 54.390625 0 
L 12.40625 0 
z
" id="DejaVuSans-49"/>
       </defs>
       <use xlink:href="#DejaVuSans-49"/>
       <use x="63.623047" xlink:href="#DejaVuSans-48"/>
       <use x="127.246094" xlink:href="#DejaVuSans-48"/>
       <use x="190.869141" xlink:href="#DejaVuSans-48"/>
      </g>
     </g>
    </g>
    <g id="xtick_4">
     <g id="line2d_4">
      <g>
       <use style="stroke:#000000;stroke-width:0.8;" x="316.462025" xlink:href="#me1562ba075" y="303.64"/>
      </g>
     </g>
     <g id="text_4">
      <!-- 1500 -->
      <g transform="translate(303.737025 318.238437)scale(0.1 -0.1)">
       <use xlink:href="#DejaVuSans-49"/>
       <use x="63.623047" xlink:href="#DejaVuSans-53"/>
       <use x="127.246094" xlink:href="#DejaVuSans-48"/>
       <use x="190.869141" xlink:href="#DejaVuSans-48"/>
      </g>
     </g>
    </g>
    <g id="xtick_5">
     <g id="line2d_5">
      <g>
       <use style="stroke:#000000;stroke-width:0.8;" x="400.775491" xlink:href="#me1562ba075" y="303.64"/>
      </g>
     </g>
     <g id="text_5">
      <!-- 2000 -->
      <g transform="translate(388.050491 318.238437)scale(0.1 -0.1)">
       <defs>
        <path d="M 19.1875 8.296875 
L 53.609375 8.296875 
L 53.609375 0 
L 7.328125 0 
L 7.328125 8.296875 
Q 12.9375 14.109375 22.625 23.890625 
Q 32.328125 33.6875 34.8125 36.53125 
Q 39.546875 41.84375 41.421875 45.53125 
Q 43.3125 49.21875 43.3125 52.78125 
Q 43.3125 58.59375 39.234375 62.25 
Q 35.15625 65.921875 28.609375 65.921875 
Q 23.96875 65.921875 18.8125 64.3125 
Q 13.671875 62.703125 7.8125 59.421875 
L 7.8125 69.390625 
Q 13.765625 71.78125 18.9375 73 
Q 24.125 74.21875 28.421875 74.21875 
Q 39.75 74.21875 46.484375 68.546875 
Q 53.21875 62.890625 53.21875 53.421875 
Q 53.21875 48.921875 51.53125 44.890625 
Q 49.859375 40.875 45.40625 35.40625 
Q 44.1875 33.984375 37.640625 27.21875 
Q 31.109375 20.453125 19.1875 8.296875 
z
" id="DejaVuSans-50"/>
       </defs>
       <use xlink:href="#DejaVuSans-50"/>
       <use x="63.623047" xlink:href="#DejaVuSans-48"/>
       <use x="127.246094" xlink:href="#DejaVuSans-48"/>
       <use x="190.869141" xlink:href="#DejaVuSans-48"/>
      </g>
     </g>
    </g>
    <g id="text_6">
     <!-- Time -->
     <g transform="translate(236.626406 331.916562)scale(0.1 -0.1)">
      <defs>
       <path d="M -0.296875 72.90625 
L 61.375 72.90625 
L 61.375 64.59375 
L 35.5 64.59375 
L 35.5 0 
L 25.59375 0 
L 25.59375 64.59375 
L -0.296875 64.59375 
z
" id="DejaVuSans-84"/>
       <path d="M 9.421875 54.6875 
L 18.40625 54.6875 
L 18.40625 0 
L 9.421875 0 
z
M 9.421875 75.984375 
L 18.40625 75.984375 
L 18.40625 64.59375 
L 9.421875 64.59375 
z
" id="DejaVuSans-105"/>
       <path d="M 52 44.1875 
Q 55.375 50.25 60.0625 53.125 
Q 64.75 56 71.09375 56 
Q 79.640625 56 84.28125 50.015625 
Q 88.921875 44.046875 88.921875 33.015625 
L 88.921875 0 
L 79.890625 0 
L 79.890625 32.71875 
Q 79.890625 40.578125 77.09375 44.375 
Q 74.3125 48.1875 68.609375 48.1875 
Q 61.625 48.1875 57.5625 43.546875 
Q 53.515625 38.921875 53.515625 30.90625 
L 53.515625 0 
L 44.484375 0 
L 44.484375 32.71875 
Q 44.484375 40.625 41.703125 44.40625 
Q 38.921875 48.1875 33.109375 48.1875 
Q 26.21875 48.1875 22.15625 43.53125 
Q 18.109375 38.875 18.109375 30.90625 
L 18.109375 0 
L 9.078125 0 
L 9.078125 54.6875 
L 18.109375 54.6875 
L 18.109375 46.1875 
Q 21.1875 51.21875 25.484375 53.609375 
Q 29.78125 56 35.6875 56 
Q 41.65625 56 45.828125 52.96875 
Q 50 49.953125 52 44.1875 
z
" id="DejaVuSans-109"/>
       <path d="M 56.203125 29.59375 
L 56.203125 25.203125 
L 14.890625 25.203125 
Q 15.484375 15.921875 20.484375 11.0625 
Q 25.484375 6.203125 34.421875 6.203125 
Q 39.59375 6.203125 44.453125 7.46875 
Q 49.3125 8.734375 54.109375 11.28125 
L 54.109375 2.78125 
Q 49.265625 0.734375 44.1875 -0.34375 
Q 39.109375 -1.421875 33.890625 -1.421875 
Q 20.796875 -1.421875 13.15625 6.1875 
Q 5.515625 13.8125 5.515625 26.8125 
Q 5.515625 40.234375 12.765625 48.109375 
Q 20.015625 56 32.328125 56 
Q 43.359375 56 49.78125 48.890625 
Q 56.203125 41.796875 56.203125 29.59375 
z
M 47.21875 32.234375 
Q 47.125 39.59375 43.09375 43.984375 
Q 39.0625 48.390625 32.421875 48.390625 
Q 24.90625 48.390625 20.390625 44.140625 
Q 15.875 39.890625 15.1875 32.171875 
z
" id="DejaVuSans-101"/>
      </defs>
      <use xlink:href="#DejaVuSans-84"/>
      <use x="57.958984" xlink:href="#DejaVuSans-105"/>
      <use x="85.742188" xlink:href="#DejaVuSans-109"/>
      <use x="183.154297" xlink:href="#DejaVuSans-101"/>
     </g>
    </g>
   </g>
   <g id="matplotlib.axis_2">
    <g id="ytick_1">
     <g id="line2d_6">
      <defs>
       <path d="M 0 0 
L -3.5 0 
" id="mb7cac82785" style="stroke:#000000;stroke-width:0.8;"/>
      </defs>
      <g>
       <use style="stroke:#000000;stroke-width:0.8;" x="47.72" xlink:href="#mb7cac82785" y="303.64"/>
      </g>
     </g>
     <g id="text_7">
      <!-- 0.0 -->
      <g transform="translate(24.816875 307.439219)scale(0.1 -0.1)">
       <defs>
        <path d="M 10.6875 12.40625 
L 21 12.40625 
L 21 0 
L 10.6875 0 
z
" id="DejaVuSans-46"/>
       </defs>
       <use xlink:href="#DejaVuSans-48"/>
       <use x="63.623047" xlink:href="#DejaVuSans-46"/>
       <use x="95.410156" xlink:href="#DejaVuSans-48"/>
      </g>
     </g>
    </g>
    <g id="ytick_2">
     <g id="line2d_7">
      <g>
       <use style="stroke:#000000;stroke-width:0.8;" x="47.72" xlink:href="#mb7cac82785" y="245.864"/>
      </g>
     </g>
     <g id="text_8">
      <!-- 0.5 -->
      <g transform="translate(24.816875 249.663219)scale(0.1 -0.1)">
       <use xlink:href="#DejaVuSans-48"/>
       <use x="63.623047" xlink:href="#DejaVuSans-46"/>
       <use x="95.410156" xlink:href="#DejaVuSans-53"/>
      </g>
     </g>
    </g>
    <g id="ytick_3">
     <g id="line2d_8">
      <g>
       <use style="stroke:#000000;stroke-width:0.8;" x="47.72" xlink:href="#mb7cac82785" y="188.088"/>
      </g>
     </g>
     <g id="text_9">
      <!-- 1.0 -->
      <g transform="translate(24.816875 191.887219)scale(0.1 -0.1)">
       <use xlink:href="#DejaVuSans-49"/>
       <use x="63.623047" xlink:href="#DejaVuSans-46"/>
       <use x="95.410156" xlink:href="#DejaVuSans-48"/>
      </g>
     </g>
    </g>
    <g id="ytick_4">
     <g id="line2d_9">
      <g>
       <use style="stroke:#000000;stroke-width:0.8;" x="47.72" xlink:href="#mb7cac82785" y="130.312"/>
      </g>
     </g>
     <g id="text_10">
      <!-- 1.5 -->
      <g transform="translate(24.816875 134.111219)scale(0.1 -0.1)">
       <use xlink:href="#DejaVuSans-49"/>
       <use x="63.623047" xlink:href="#DejaVuSans-46"/>
       <use x="95.410156" xlink:href="#DejaVuSans-53"/>
      </g>
     </g>
    </g>
    <g id="ytick_5">
     <g id="line2d_10">
      <g>
       <use style="stroke:#000000;stroke-width:0.8;" x="47.72" xlink:href="#mb7cac82785" y="72.536"/>
      </g>
     </g>
     <g id="text_11">
      <!-- 2.0 -->
      <g transform="translate(24.816875 76.335219)scale(0.1 -0.1)">
       <use xlink:href="#DejaVuSans-50"/>
       <use x="63.623047" xlink:href="#DejaVuSans-46"/>
       <use x="95.410156" xlink:href="#DejaVuSans-48"/>
      </g>
     </g>
    </g>
    <g id="ytick_6">
     <g id="line2d_11">
      <g>
       <use style="stroke:#000000;stroke-width:0.8;" x="47.72" xlink:href="#mb7cac82785" y="14.76"/>
      </g>
     </g>
     <g id="text_12">
      <!-- 2.5 -->
      <g transform="translate(24.816875 18.559219)scale(0.1 -0.1)">
       <use xlink:href="#DejaVuSans-50"/>
       <use x="63.623047" xlink:href="#DejaVuSans-46"/>
       <use x="95.410156" xlink:href="#DejaVuSans-53"/>
      </g>
     </g>
    </g>
    <g id="text_13">
     <!-- Loss -->
     <g transform="translate(18.737188 170.167187)rotate(-90)scale(0.1 -0.1)">
      <defs>
       <path d="M 9.8125 72.90625 
L 19.671875 72.90625 
L 19.671875 8.296875 
L 55.171875 8.296875 
L 55.171875 0 
L 9.8125 0 
z
" id="DejaVuSans-76"/>
       <path d="M 30.609375 48.390625 
Q 23.390625 48.390625 19.1875 42.75 
Q 14.984375 37.109375 14.984375 27.296875 
Q 14.984375 17.484375 19.15625 11.84375 
Q 23.34375 6.203125 30.609375 6.203125 
Q 37.796875 6.203125 41.984375 11.859375 
Q 46.1875 17.53125 46.1875 27.296875 
Q 46.1875 37.015625 41.984375 42.703125 
Q 37.796875 48.390625 30.609375 48.390625 
z
M 30.609375 56 
Q 42.328125 56 49.015625 48.375 
Q 55.71875 40.765625 55.71875 27.296875 
Q 55.71875 13.875 49.015625 6.21875 
Q 42.328125 -1.421875 30.609375 -1.421875 
Q 18.84375 -1.421875 12.171875 6.21875 
Q 5.515625 13.875 5.515625 27.296875 
Q 5.515625 40.765625 12.171875 48.375 
Q 18.84375 56 30.609375 56 
z
" id="DejaVuSans-111"/>
       <path d="M 44.28125 53.078125 
L 44.28125 44.578125 
Q 40.484375 46.53125 36.375 47.5 
Q 32.28125 48.484375 27.875 48.484375 
Q 21.1875 48.484375 17.84375 46.4375 
Q 14.5 44.390625 14.5 40.28125 
Q 14.5 37.15625 16.890625 35.375 
Q 19.28125 33.59375 26.515625 31.984375 
L 29.59375 31.296875 
Q 39.15625 29.25 43.1875 25.515625 
Q 47.21875 21.78125 47.21875 15.09375 
Q 47.21875 7.46875 41.1875 3.015625 
Q 35.15625 -1.421875 24.609375 -1.421875 
Q 20.21875 -1.421875 15.453125 -0.5625 
Q 10.6875 0.296875 5.421875 2 
L 5.421875 11.28125 
Q 10.40625 8.6875 15.234375 7.390625 
Q 20.0625 6.109375 24.8125 6.109375 
Q 31.15625 6.109375 34.5625 8.28125 
Q 37.984375 10.453125 37.984375 14.40625 
Q 37.984375 18.0625 35.515625 20.015625 
Q 33.0625 21.96875 24.703125 23.78125 
L 21.578125 24.515625 
Q 13.234375 26.265625 9.515625 29.90625 
Q 5.8125 33.546875 5.8125 39.890625 
Q 5.8125 47.609375 11.28125 51.796875 
Q 16.75 56 26.8125 56 
Q 31.78125 56 36.171875 55.265625 
Q 40.578125 54.546875 44.28125 53.078125 
z
" id="DejaVuSans-115"/>
      </defs>
      <use xlink:href="#DejaVuSans-76"/>
      <use x="53.962891" xlink:href="#DejaVuSans-111"/>
      <use x="115.144531" xlink:href="#DejaVuSans-115"/>
      <use x="167.244141" xlink:href="#DejaVuSans-115"/>
     </g>
    </g>
   </g>
   <g id="line2d_12">
    <path clip-path="url(#p9ceb0f6148)" d="M 66.095869 41.391125 
L 68.294665 79.735431 
L 70.565173 95.962362 
L 72.798785 93.231544 
L 75.040548 120.74285 
L 77.306528 177.649953 
L 79.549207 203.491172 
L 81.740059 210.397209 
L 83.909832 215.937837 
L 86.115545 212.575094 
L 88.271545 230.946056 
L 90.439595 243.15575 
L 92.653571 243.962583 
L 94.862305 242.467403 
L 97.093126 249.853027 
L 99.383158 246.851383 
L 101.625743 256.561587 
L 103.812857 247.866977 
L 106.014226 255.179252 
L 108.185121 255.275169 
L 110.449759 250.422887 
L 112.69144 247.500234 
L 114.856944 270.681162 
L 117.094792 253.040863 
L 121.529811 265.374684 
L 123.742701 265.216703 
L 125.962738 258.835389 
L 128.142387 263.461983 
L 130.333836 272.87033 
L 132.53692 269.200087 
L 134.723072 273.990305 
L 136.944113 272.813909 
L 139.167922 266.926286 
L 141.351996 277.113255 
L 143.603262 273.459939 
L 145.826831 274.901518 
L 148.06657 272.416134 
L 150.302119 271.124073 
L 152.525014 272.289185 
L 154.833619 277.07376 
L 157.050483 272.639001 
L 159.260451 280.114899 
L 161.515392 272.052213 
L 163.714107 282.191224 
L 165.929592 276.343097 
L 168.114278 274.08058 
L 170.35115 277.166856 
L 172.52759 275.256976 
L 174.675775 278.021648 
L 176.883038 277.685937 
L 179.113319 279.485795 
L 181.299337 278.371463 
L 183.533352 281.872441 
L 185.705871 286.609057 
L 187.935143 281.22641 
L 190.105479 277.911625 
L 192.289397 284.989749 
L 194.499706 284.614544 
L 196.702501 278.244514 
L 198.95833 288.180406 
L 201.183251 281.646753 
L 203.370815 277.011696 
L 205.603063 281.53673 
L 207.836335 279.443479 
L 210.100253 290.500756 
L 212.305694 286.391833 
L 214.520089 286.724722 
L 216.71729 288.214259 
L 218.93523 284.431173 
L 221.147516 279.05981 
L 223.35571 287.672609 
L 225.547355 287.382037 
L 227.799203 280.258775 
L 230.004492 285.665401 
L 232.191424 283.881059 
L 234.380449 290.492293 
L 236.581243 290.839287 
L 238.809218 287.297404 
L 241.039117 290.930973 
L 243.303299 287.729031 
L 245.565056 289.911147 
L 247.782579 287.256498 
L 249.981276 288.951975 
L 252.253195 287.00401 
L 254.48221 291.499423 
L 256.696686 289.94359 
L 258.838246 285.838898 
L 261.053659 290.624884 
L 263.312204 288.360956 
L 265.537497 292.352804 
L 267.768528 289.771503 
L 270.034446 293.346534 
L 272.234278 291.481086 
L 274.420422 292.890222 
L 276.597904 292.263939 
L 278.777298 295.161203 
L 280.989482 294.900252 
L 283.268353 295.41087 
L 285.47911 293.815541 
L 287.686848 297.348256 
L 289.936216 297.321455 
L 292.171317 297.032293 
L 294.391474 295.214804 
L 296.601221 298.217505 
L 298.836777 298.469993 
L 301.115518 298.125114 
L 303.396144 296.968113 
L 305.643483 300.207963 
L 307.845744 300.947619 
L 310.050782 300.078545 
L 312.270004 300.265443 
L 314.503472 301.246655 
L 316.758584 299.348764 
L 318.955351 301.551862 
L 321.157231 300.493687 
L 323.379514 300.372116 
L 327.815632 301.618774 
L 330.063283 302.230864 
L 332.297877 301.076507 
L 336.778854 302.720412 
L 338.942055 301.508399 
L 341.138547 302.654557 
L 343.3618 302.110394 
L 347.793967 303.399909 
L 349.970609 303.398841 
L 354.393638 303.128104 
L 356.649406 303.493149 
L 358.871196 303.233586 
L 361.133376 303.45707 
L 363.3469 302.888046 
L 365.600231 303.312709 
L 367.844453 303.497149 
L 372.291724 303.447174 
L 374.462361 303.36437 
L 378.953039 303.537801 
L 381.134789 303.450921 
L 389.982201 303.520842 
L 396.638531 303.528688 
L 396.638531 303.528688 
" style="fill:none;stroke:#1f77b4;stroke-linecap:square;stroke-width:1.5;"/>
   </g>
   <g id="line2d_13">
    <path clip-path="url(#p9ceb0f6148)" d="M 66.395558 38.5926 
L 68.823787 42.293875 
L 71.331 49.335325 
L 73.804752 64.77235 
L 76.266877 84.023494 
L 78.727177 104.922156 
L 81.188138 127.919712 
L 83.659217 147.622231 
L 86.166202 169.288231 
L 88.651958 162.901275 
L 91.117972 207.564831 
L 93.558979 211.807756 
L 96.024557 227.842853 
L 98.500971 226.263041 
L 100.992866 237.897231 
L 103.427998 235.414669 
L 105.870006 242.275569 
L 108.311895 234.929441 
L 110.764745 242.540752 
L 113.191297 244.899186 
L 115.634435 241.869331 
L 118.069942 240.424931 
L 120.538758 261.70162 
L 122.971995 247.573583 
L 125.419798 255.946589 
L 127.860117 254.998702 
L 130.304607 258.491216 
L 132.722242 254.637602 
L 135.207739 257.086311 
L 137.674942 266.830369 
L 140.096156 263.484552 
L 142.521619 263.518405 
L 144.987341 269.679673 
L 147.480977 260.917356 
L 149.897822 273.482508 
L 152.368416 273.84925 
L 154.808873 273.84925 
L 157.27076 263.727166 
L 159.726401 265.047438 
L 162.162249 266.012252 
L 164.614 262.147353 
L 167.074583 270.407516 
L 169.523696 271.287697 
L 172.022923 266.768305 
L 174.478215 272.695423 
L 176.912102 268.9744 
L 179.336505 271.468247 
L 181.791129 272.43024 
L 184.26247 273.073449 
L 186.772466 273.445834 
L 189.209501 278.278367 
L 191.676274 274.763284 
L 194.104168 274.557345 
L 196.520101 278.712816 
L 198.963673 284.008009 
L 201.409389 279.42091 
L 203.826601 276.537752 
L 206.270434 283.796427 
L 208.721148 281.914757 
L 211.169294 272.918289 
L 213.614064 281.138956 
L 216.065299 273.005743 
L 218.519425 275.031288 
L 220.943893 277.243026 
L 223.383349 274.44168 
L 225.805473 287.174686 
L 228.298427 285.886857 
L 230.738245 284.160348 
L 233.176702 289.579669 
L 235.594699 280.758109 
L 238.064694 278.31222 
L 240.523245 283.347873 
L 242.980341 283.077048 
L 245.42525 276.647775 
L 247.848063 285.130804 
L 250.333623 279.387057 
L 252.768654 286.084334 
L 257.6411 284.105336 
L 260.087909 287.521681 
L 262.554711 283.266061 
L 265.015089 287.013884 
L 267.485264 286.415812 
L 272.371651 286.817818 
L 274.820244 286.946178 
L 277.298214 287.428585 
L 279.774811 289.71226 
L 282.208546 290.736317 
L 284.697931 289.547226 
L 287.121216 293.344418 
L 289.562723 288.888501 
L 292.008209 291.79987 
L 294.469256 292.870475 
L 296.914576 290.258142 
L 299.375901 290.670021 
L 301.842135 290.969057 
L 304.304804 292.354214 
L 306.759857 293.01435 
L 309.219021 296.82988 
L 311.658934 295.716253 
L 314.115339 296.587971 
L 316.558891 296.321378 
L 319.015907 293.672371 
L 321.463084 296.952597 
L 323.896469 296.813306 
L 326.336883 297.328508 
L 328.816696 296.976577 
L 331.258623 298.322238 
L 333.703348 300.498359 
L 336.139152 298.721776 
L 341.024359 301.56773 
L 343.454613 297.166648 
L 345.931704 299.467602 
L 348.359548 298.298171 
L 350.787687 301.268518 
L 353.260894 300.427127 
L 355.714899 299.916421 
L 360.68204 299.987036 
L 365.650415 302.126175 
L 368.087612 302.686735 
L 370.506729 302.739498 
L 372.96858 303.156711 
L 375.402695 303.076222 
L 377.84185 302.57907 
L 380.322114 303.131288 
L 382.747877 303.41072 
L 385.218946 302.771863 
L 387.637202 303.207954 
L 392.558328 303.142297 
L 394.998605 303.333823 
L 399.94473 303.434876 
L 402.389687 303.547427 
L 407.263328 303.406632 
L 409.710682 303.271776 
L 417.000075 303.569616 
L 419.448322 303.313761 
L 421.932707 303.55799 
L 426.804856 303.56296 
L 429.230131 303.271627 
L 431.714545 303.461092 
L 431.714545 303.461092 
" style="fill:none;stroke:#ff7f0e;stroke-linecap:square;stroke-width:1.5;"/>
   </g>
   <g id="line2d_14">
    <path clip-path="url(#p9ceb0f6148)" d="M 66.028613 39.224525 
L 68.101585 44.460475 
L 70.198659 55.293475 
L 72.345802 84.362025 
L 74.455057 94.359981 
L 76.523725 135.322262 
L 78.600338 161.885681 
L 82.80352 199.993016 
L 84.902512 193.933306 
L 86.984475 219.819662 
L 89.088073 222.866444 
L 91.157118 230.87835 
L 93.238257 226.973956 
L 95.356882 235.820906 
L 97.425182 234.760175 
L 99.550475 243.133181 
L 101.610306 233.349628 
L 103.715422 244.498591 
L 105.851115 243.042906 
L 107.942662 239.973556 
L 110.056117 235.967603 
L 112.137498 253.176275 
L 114.2149 239.194934 
L 116.326393 251.777012 
L 118.390017 252.770037 
L 120.475223 252.843386 
L 122.541713 249.130827 
L 124.665644 252.160681 
L 126.80821 261.628272 
L 128.906305 259.738139 
L 130.953208 259.489883 
L 133.054438 266.158948 
L 135.161627 256.623652 
L 137.273959 264.533998 
L 139.361158 263.151662 
L 141.438675 267.597706 
L 143.560312 260.059744 
L 145.712432 259.252911 
L 147.793258 259.298048 
L 149.869944 257.752089 
L 152.015715 259.856625 
L 154.128265 266.740094 
L 156.198744 259.935616 
L 158.243445 269.493481 
L 160.317204 261.995014 
L 162.443168 260.951209 
L 164.510597 268.314264 
L 166.565384 262.096573 
L 168.65085 261.120475 
L 170.69643 269.036464 
L 172.79322 267.978554 
L 174.832884 267.783898 
L 176.95753 273.318884 
L 179.06349 272.641822 
L 181.124383 275.395209 
L 183.209686 264.799181 
L 185.330698 277.519493 
L 187.406805 275.358535 
L 189.540485 261.368731 
L 191.613249 275.697066 
L 193.709585 268.297337 
L 195.777684 267.411514 
L 197.855911 270.396231 
L 199.935057 273.880282 
L 202.017698 281.985284 
L 204.094877 276.094841 
L 206.209733 274.565808 
L 208.306473 277.999079 
L 210.456711 270.396231 
L 212.565172 267.625917 
L 214.631377 273.158082 
L 216.732146 275.000256 
L 218.879138 262.739783 
L 220.970018 273.070628 
L 223.028614 271.755998 
L 225.094769 277.353048 
L 227.159458 275.547548 
L 229.269875 272.605148 
L 231.362931 281.375928 
L 233.424748 278.523802 
L 235.510353 281.02047 
L 237.54704 276.786009 
L 239.754598 278.317862 
L 241.8333 273.905672 
L 243.920376 283.943123 
L 245.989247 281.028934 
L 248.080844 281.189736 
L 250.187146 276.786009 
L 252.233763 277.234562 
L 254.266433 284.103926 
L 256.305381 282.292784 
L 258.370252 285.531399 
L 260.468981 282.546682 
L 262.544255 284.225233 
L 264.641544 281.316685 
L 266.716136 285.785298 
L 268.785612 285.970079 
L 270.881752 287.681073 
L 272.964948 288.00832 
L 275.07736 288.748857 
L 277.183085 288.028067 
L 279.304455 287.747368 
L 281.400639 285.288785 
L 283.46146 291.489549 
L 285.630119 292.691335 
L 287.679731 292.094674 
L 291.865799 293.161047 
L 293.973818 294.603331 
L 296.078613 295.569556 
L 298.139965 296.157401 
L 300.291245 297.599333 
L 302.354788 290.338543 
L 304.443032 293.599727 
L 306.519376 294.916473 
L 308.642777 296.666256 
L 310.679845 295.441902 
L 312.76854 295.069517 
L 314.830849 296.496991 
L 316.906544 294.618142 
L 318.992941 297.788346 
L 321.087781 300.318162 
L 323.265507 300.766011 
L 325.345851 298.743287 
L 327.460039 299.67989 
L 329.628568 301.465289 
L 331.718164 302.111055 
L 333.805523 301.219502 
L 335.84184 302.396294 
L 337.895968 301.472078 
L 342.017802 301.182827 
L 344.074925 301.886514 
L 346.142453 302.429398 
L 348.262516 301.684453 
L 350.405734 302.16135 
L 352.514353 302.453289 
L 354.595032 301.68075 
L 356.694011 300.5874 
L 358.769157 303.2521 
L 362.962032 303.03719 
L 365.103943 303.33228 
L 367.211206 302.977704 
L 371.308575 303.156711 
L 373.364576 302.910229 
L 375.449476 303.096344 
L 377.535566 302.926969 
L 377.535566 302.926969 
" style="fill:none;stroke:#2ca02c;stroke-linecap:square;stroke-width:1.5;"/>
   </g>
   <g id="line2d_15">
    <path clip-path="url(#p9ceb0f6148)" d="M 66.005455 21.575762 
L 68.088417 86.325506 
L 70.142333 107.9238 
L 72.211157 114.581581 
L 74.27458 132.523737 
L 76.390913 167.32475 
L 78.495265 171.251712 
L 80.630702 172.222169 
L 82.703326 175.765462 
L 84.778064 156.288631 
L 86.850962 183.93535 
L 88.914745 162.0888 
L 91.079382 181.543062 
L 93.161536 168.340344 
L 95.248191 178.812244 
L 97.311753 178.496281 
L 99.345969 194.249269 
L 101.432976 179.037931 
L 103.471968 182.355537 
L 105.563023 181.283522 
L 107.682485 173.553725 
L 109.73076 188.279834 
L 111.764993 187.320662 
L 113.871627 177.006744 
L 115.944477 176.916469 
L 118.004292 197.442747 
L 120.144295 188.708641 
L 122.197715 193.346519 
L 124.303142 191.507166 
L 126.338119 195.524403 
L 128.523714 194.192847 
L 130.631549 197.803847 
L 132.665783 199.473934 
L 134.6968 193.256244 
L 136.73073 198.977422 
L 138.846119 204.51805 
L 140.904744 209.020516 
L 142.983679 197.950544 
L 145.057741 189.058456 
L 147.107142 193.301381 
L 149.179818 184.307734 
L 151.234493 196.111191 
L 153.370229 197.036509 
L 155.435386 198.119809 
L 157.49663 207.04575 
L 159.593156 204.585756 
L 161.645285 200.18485 
L 163.685592 202.678697 
L 165.725822 206.5041 
L 167.782953 199.045128 
L 169.830958 210.273081 
L 171.905394 204.890434 
L 173.931275 216.558478 
L 175.998124 206.32355 
L 178.048606 227.312487 
L 180.16668 215.023803 
L 182.214741 207.440703 
L 184.297374 223.645066 
L 186.344767 213.54555 
L 188.443993 206.68465 
L 190.516999 224.976622 
L 192.554456 202.103194 
L 194.574831 212.191425 
L 196.622277 212.857203 
L 198.682267 207.203731 
L 200.723156 228.576337 
L 202.772334 223.148553 
L 204.83351 227.786431 
L 206.877707 225.890656 
L 208.946401 224.130294 
L 211.00377 212.089866 
L 213.112374 218.939481 
L 215.145305 219.876084 
L 217.261496 221.738006 
L 219.308022 232.040641 
L 221.363499 219.751956 
L 223.514702 227.583312 
L 225.652479 226.409738 
L 227.690328 213.782522 
L 229.713688 225.078181 
L 231.787905 226.522581 
L 233.877777 235.7532 
L 235.962179 228.395787 
L 238.026961 236.689803 
L 240.123681 228.553769 
L 242.301545 238.608147 
L 244.368042 242.670522 
L 246.461024 233.394766 
L 248.526841 232.187337 
L 250.597815 226.804691 
L 252.695005 240.255666 
L 254.778249 229.738628 
L 256.864407 236.791362 
L 258.946862 228.948722 
L 260.999875 234.145177 
L 263.032857 231.735962 
L 265.109929 240.413647 
L 267.195428 235.57265 
L 269.295248 244.571939 
L 271.322009 241.417956 
L 273.39221 246.981153 
L 275.422661 248.103948 
L 277.499136 241.237406 
L 279.57717 246.09533 
L 281.616892 247.567941 
L 283.655331 250.733208 
L 285.685739 248.820506 
L 287.752719 248.972845 
L 289.792121 252.143755 
L 291.85405 260.172587 
L 293.931447 250.236695 
L 296.058929 258.841031 
L 298.106177 259.021581 
L 300.164745 247.031933 
L 302.259354 244.521159 
L 304.356118 250.755777 
L 306.464464 253.249623 
L 308.570126 253.768705 
L 310.683927 264.69198 
L 312.765657 255.060766 
L 314.835365 253.475311 
L 316.94178 257.7803 
L 319.009868 258.096262 
L 321.075662 261.396942 
L 323.125259 259.235984 
L 325.204417 256.736495 
L 327.243397 267.355092 
L 329.291022 262.395609 
L 331.357425 258.237317 
L 333.421602 272.974711 
L 335.444803 265.90505 
L 337.564786 257.278145 
L 339.60497 257.362778 
L 341.660069 261.904739 
L 343.717849 259.834056 
L 345.736702 253.345541 
L 347.799794 270.717836 
L 349.825899 258.101905 
L 351.936558 263.010608 
L 353.992071 260.90043 
L 356.065058 265.572161 
L 358.219495 267.845962 
L 360.34534 273.973378 
L 362.403509 273.471223 
L 364.479465 268.996969 
L 366.597338 269.504766 
L 368.722305 269.217014 
L 370.787258 269.995636 
L 372.862502 263.546616 
L 374.897619 258.513784 
L 374.897619 258.513784 
" style="fill:none;stroke:#d62728;stroke-linecap:square;stroke-width:1.5;"/>
   </g>
   <g id="patch_3">
    <path d="M 47.72 303.64 
L 47.72 14.76 
" style="fill:none;stroke:#000000;stroke-linecap:square;stroke-linejoin:miter;stroke-width:0.8;"/>
   </g>
   <g id="patch_4">
    <path d="M 450 303.64 
L 450 14.76 
" style="fill:none;stroke:#000000;stroke-linecap:square;stroke-linejoin:miter;stroke-width:0.8;"/>
   </g>
   <g id="patch_5">
    <path d="M 47.72 303.64 
L 450 303.64 
" style="fill:none;stroke:#000000;stroke-linecap:square;stroke-linejoin:miter;stroke-width:0.8;"/>
   </g>
   <g id="patch_6">
    <path d="M 47.72 14.76 
L 450 14.76 
" style="fill:none;stroke:#000000;stroke-linecap:square;stroke-linejoin:miter;stroke-width:0.8;"/>
   </g>
   <g id="legend_1">
    <g id="patch_7">
     <path d="M 330.639063 81.4725 
L 443 81.4725 
Q 445 81.4725 445 79.4725 
L 445 21.76 
Q 445 19.76 443 19.76 
L 330.639063 19.76 
Q 328.639063 19.76 328.639063 21.76 
L 328.639063 79.4725 
Q 328.639063 81.4725 330.639063 81.4725 
z
" style="fill:#ffffff;opacity:0.8;stroke:#cccccc;stroke-linejoin:miter;"/>
    </g>
    <g id="line2d_16">
     <path d="M 332.639063 27.858437 
L 352.639063 27.858437 
" style="fill:none;stroke:#1f77b4;stroke-linecap:square;stroke-width:1.5;"/>
    </g>
    <g id="line2d_17"/>
    <g id="text_14">
     <!-- AllReduce SGD -->
     <g transform="translate(360.639063 31.358437)scale(0.1 -0.1)">
      <defs>
       <path d="M 34.1875 63.1875 
L 20.796875 26.90625 
L 47.609375 26.90625 
z
M 28.609375 72.90625 
L 39.796875 72.90625 
L 67.578125 0 
L 57.328125 0 
L 50.6875 18.703125 
L 17.828125 18.703125 
L 11.1875 0 
L 0.78125 0 
z
" id="DejaVuSans-65"/>
       <path d="M 9.421875 75.984375 
L 18.40625 75.984375 
L 18.40625 0 
L 9.421875 0 
z
" id="DejaVuSans-108"/>
       <path d="M 44.390625 34.1875 
Q 47.5625 33.109375 50.5625 29.59375 
Q 53.5625 26.078125 56.59375 19.921875 
L 66.609375 0 
L 56 0 
L 46.6875 18.703125 
Q 43.0625 26.03125 39.671875 28.421875 
Q 36.28125 30.8125 30.421875 30.8125 
L 19.671875 30.8125 
L 19.671875 0 
L 9.8125 0 
L 9.8125 72.90625 
L 32.078125 72.90625 
Q 44.578125 72.90625 50.734375 67.671875 
Q 56.890625 62.453125 56.890625 51.90625 
Q 56.890625 45.015625 53.6875 40.46875 
Q 50.484375 35.9375 44.390625 34.1875 
z
M 19.671875 64.796875 
L 19.671875 38.921875 
L 32.078125 38.921875 
Q 39.203125 38.921875 42.84375 42.21875 
Q 46.484375 45.515625 46.484375 51.90625 
Q 46.484375 58.296875 42.84375 61.546875 
Q 39.203125 64.796875 32.078125 64.796875 
z
" id="DejaVuSans-82"/>
       <path d="M 45.40625 46.390625 
L 45.40625 75.984375 
L 54.390625 75.984375 
L 54.390625 0 
L 45.40625 0 
L 45.40625 8.203125 
Q 42.578125 3.328125 38.25 0.953125 
Q 33.9375 -1.421875 27.875 -1.421875 
Q 17.96875 -1.421875 11.734375 6.484375 
Q 5.515625 14.40625 5.515625 27.296875 
Q 5.515625 40.1875 11.734375 48.09375 
Q 17.96875 56 27.875 56 
Q 33.9375 56 38.25 53.625 
Q 42.578125 51.265625 45.40625 46.390625 
z
M 14.796875 27.296875 
Q 14.796875 17.390625 18.875 11.75 
Q 22.953125 6.109375 30.078125 6.109375 
Q 37.203125 6.109375 41.296875 11.75 
Q 45.40625 17.390625 45.40625 27.296875 
Q 45.40625 37.203125 41.296875 42.84375 
Q 37.203125 48.484375 30.078125 48.484375 
Q 22.953125 48.484375 18.875 42.84375 
Q 14.796875 37.203125 14.796875 27.296875 
z
" id="DejaVuSans-100"/>
       <path d="M 8.5 21.578125 
L 8.5 54.6875 
L 17.484375 54.6875 
L 17.484375 21.921875 
Q 17.484375 14.15625 20.5 10.265625 
Q 23.53125 6.390625 29.59375 6.390625 
Q 36.859375 6.390625 41.078125 11.03125 
Q 45.3125 15.671875 45.3125 23.6875 
L 45.3125 54.6875 
L 54.296875 54.6875 
L 54.296875 0 
L 45.3125 0 
L 45.3125 8.40625 
Q 42.046875 3.421875 37.71875 1 
Q 33.40625 -1.421875 27.6875 -1.421875 
Q 18.265625 -1.421875 13.375 4.4375 
Q 8.5 10.296875 8.5 21.578125 
z
M 31.109375 56 
z
" id="DejaVuSans-117"/>
       <path d="M 48.78125 52.59375 
L 48.78125 44.1875 
Q 44.96875 46.296875 41.140625 47.34375 
Q 37.3125 48.390625 33.40625 48.390625 
Q 24.65625 48.390625 19.8125 42.84375 
Q 14.984375 37.3125 14.984375 27.296875 
Q 14.984375 17.28125 19.8125 11.734375 
Q 24.65625 6.203125 33.40625 6.203125 
Q 37.3125 6.203125 41.140625 7.25 
Q 44.96875 8.296875 48.78125 10.40625 
L 48.78125 2.09375 
Q 45.015625 0.34375 40.984375 -0.53125 
Q 36.96875 -1.421875 32.421875 -1.421875 
Q 20.0625 -1.421875 12.78125 6.34375 
Q 5.515625 14.109375 5.515625 27.296875 
Q 5.515625 40.671875 12.859375 48.328125 
Q 20.21875 56 33.015625 56 
Q 37.15625 56 41.109375 55.140625 
Q 45.0625 54.296875 48.78125 52.59375 
z
" id="DejaVuSans-99"/>
       <path id="DejaVuSans-32"/>
       <path d="M 53.515625 70.515625 
L 53.515625 60.890625 
Q 47.90625 63.578125 42.921875 64.890625 
Q 37.9375 66.21875 33.296875 66.21875 
Q 25.25 66.21875 20.875 63.09375 
Q 16.5 59.96875 16.5 54.203125 
Q 16.5 49.359375 19.40625 46.890625 
Q 22.3125 44.4375 30.421875 42.921875 
L 36.375 41.703125 
Q 47.40625 39.59375 52.65625 34.296875 
Q 57.90625 29 57.90625 20.125 
Q 57.90625 9.515625 50.796875 4.046875 
Q 43.703125 -1.421875 29.984375 -1.421875 
Q 24.8125 -1.421875 18.96875 -0.25 
Q 13.140625 0.921875 6.890625 3.21875 
L 6.890625 13.375 
Q 12.890625 10.015625 18.65625 8.296875 
Q 24.421875 6.59375 29.984375 6.59375 
Q 38.421875 6.59375 43.015625 9.90625 
Q 47.609375 13.234375 47.609375 19.390625 
Q 47.609375 24.75 44.3125 27.78125 
Q 41.015625 30.8125 33.5 32.328125 
L 27.484375 33.5 
Q 16.453125 35.6875 11.515625 40.375 
Q 6.59375 45.0625 6.59375 53.421875 
Q 6.59375 63.09375 13.40625 68.65625 
Q 20.21875 74.21875 32.171875 74.21875 
Q 37.3125 74.21875 42.625 73.28125 
Q 47.953125 72.359375 53.515625 70.515625 
z
" id="DejaVuSans-83"/>
       <path d="M 59.515625 10.40625 
L 59.515625 29.984375 
L 43.40625 29.984375 
L 43.40625 38.09375 
L 69.28125 38.09375 
L 69.28125 6.78125 
Q 63.578125 2.734375 56.6875 0.65625 
Q 49.8125 -1.421875 42 -1.421875 
Q 24.90625 -1.421875 15.25 8.5625 
Q 5.609375 18.5625 5.609375 36.375 
Q 5.609375 54.25 15.25 64.234375 
Q 24.90625 74.21875 42 74.21875 
Q 49.125 74.21875 55.546875 72.453125 
Q 61.96875 70.703125 67.390625 67.28125 
L 67.390625 56.78125 
Q 61.921875 61.421875 55.765625 63.765625 
Q 49.609375 66.109375 42.828125 66.109375 
Q 29.4375 66.109375 22.71875 58.640625 
Q 16.015625 51.171875 16.015625 36.375 
Q 16.015625 21.625 22.71875 14.15625 
Q 29.4375 6.6875 42.828125 6.6875 
Q 48.046875 6.6875 52.140625 7.59375 
Q 56.25 8.5 59.515625 10.40625 
z
" id="DejaVuSans-71"/>
       <path d="M 19.671875 64.796875 
L 19.671875 8.109375 
L 31.59375 8.109375 
Q 46.6875 8.109375 53.6875 14.9375 
Q 60.6875 21.78125 60.6875 36.53125 
Q 60.6875 51.171875 53.6875 57.984375 
Q 46.6875 64.796875 31.59375 64.796875 
z
M 9.8125 72.90625 
L 30.078125 72.90625 
Q 51.265625 72.90625 61.171875 64.09375 
Q 71.09375 55.28125 71.09375 36.53125 
Q 71.09375 17.671875 61.125 8.828125 
Q 51.171875 0 30.078125 0 
L 9.8125 0 
z
" id="DejaVuSans-68"/>
      </defs>
      <use xlink:href="#DejaVuSans-65"/>
      <use x="68.408203" xlink:href="#DejaVuSans-108"/>
      <use x="96.191406" xlink:href="#DejaVuSans-108"/>
      <use x="123.974609" xlink:href="#DejaVuSans-82"/>
      <use x="188.957031" xlink:href="#DejaVuSans-101"/>
      <use x="250.480469" xlink:href="#DejaVuSans-100"/>
      <use x="313.957031" xlink:href="#DejaVuSans-117"/>
      <use x="377.335938" xlink:href="#DejaVuSans-99"/>
      <use x="432.316406" xlink:href="#DejaVuSans-101"/>
      <use x="493.839844" xlink:href="#DejaVuSans-32"/>
      <use x="525.626953" xlink:href="#DejaVuSans-83"/>
      <use x="589.103516" xlink:href="#DejaVuSans-71"/>
      <use x="666.59375" xlink:href="#DejaVuSans-68"/>
     </g>
    </g>
    <g id="line2d_18">
     <path d="M 332.639063 42.536563 
L 352.639063 42.536563 
" style="fill:none;stroke:#ff7f0e;stroke-linecap:square;stroke-width:1.5;"/>
    </g>
    <g id="line2d_19"/>
    <g id="text_15">
     <!-- QSGD-MN 8 bits -->
     <g transform="translate(360.639063 46.036563)scale(0.1 -0.1)">
      <defs>
       <path d="M 39.40625 66.21875 
Q 28.65625 66.21875 22.328125 58.203125 
Q 16.015625 50.203125 16.015625 36.375 
Q 16.015625 22.609375 22.328125 14.59375 
Q 28.65625 6.59375 39.40625 6.59375 
Q 50.140625 6.59375 56.421875 14.59375 
Q 62.703125 22.609375 62.703125 36.375 
Q 62.703125 50.203125 56.421875 58.203125 
Q 50.140625 66.21875 39.40625 66.21875 
z
M 53.21875 1.3125 
L 66.21875 -12.890625 
L 54.296875 -12.890625 
L 43.5 -1.21875 
Q 41.890625 -1.3125 41.03125 -1.359375 
Q 40.1875 -1.421875 39.40625 -1.421875 
Q 24.03125 -1.421875 14.8125 8.859375 
Q 5.609375 19.140625 5.609375 36.375 
Q 5.609375 53.65625 14.8125 63.9375 
Q 24.03125 74.21875 39.40625 74.21875 
Q 54.734375 74.21875 63.90625 63.9375 
Q 73.09375 53.65625 73.09375 36.375 
Q 73.09375 23.6875 67.984375 14.640625 
Q 62.890625 5.609375 53.21875 1.3125 
z
" id="DejaVuSans-81"/>
       <path d="M 4.890625 31.390625 
L 31.203125 31.390625 
L 31.203125 23.390625 
L 4.890625 23.390625 
z
" id="DejaVuSans-45"/>
       <path d="M 9.8125 72.90625 
L 24.515625 72.90625 
L 43.109375 23.296875 
L 61.8125 72.90625 
L 76.515625 72.90625 
L 76.515625 0 
L 66.890625 0 
L 66.890625 64.015625 
L 48.09375 14.015625 
L 38.1875 14.015625 
L 19.390625 64.015625 
L 19.390625 0 
L 9.8125 0 
z
" id="DejaVuSans-77"/>
       <path d="M 9.8125 72.90625 
L 23.09375 72.90625 
L 55.421875 11.921875 
L 55.421875 72.90625 
L 64.984375 72.90625 
L 64.984375 0 
L 51.703125 0 
L 19.390625 60.984375 
L 19.390625 0 
L 9.8125 0 
z
" id="DejaVuSans-78"/>
       <path d="M 31.78125 34.625 
Q 24.75 34.625 20.71875 30.859375 
Q 16.703125 27.09375 16.703125 20.515625 
Q 16.703125 13.921875 20.71875 10.15625 
Q 24.75 6.390625 31.78125 6.390625 
Q 38.8125 6.390625 42.859375 10.171875 
Q 46.921875 13.96875 46.921875 20.515625 
Q 46.921875 27.09375 42.890625 30.859375 
Q 38.875 34.625 31.78125 34.625 
z
M 21.921875 38.8125 
Q 15.578125 40.375 12.03125 44.71875 
Q 8.5 49.078125 8.5 55.328125 
Q 8.5 64.0625 14.71875 69.140625 
Q 20.953125 74.21875 31.78125 74.21875 
Q 42.671875 74.21875 48.875 69.140625 
Q 55.078125 64.0625 55.078125 55.328125 
Q 55.078125 49.078125 51.53125 44.71875 
Q 48 40.375 41.703125 38.8125 
Q 48.828125 37.15625 52.796875 32.3125 
Q 56.78125 27.484375 56.78125 20.515625 
Q 56.78125 9.90625 50.3125 4.234375 
Q 43.84375 -1.421875 31.78125 -1.421875 
Q 19.734375 -1.421875 13.25 4.234375 
Q 6.78125 9.90625 6.78125 20.515625 
Q 6.78125 27.484375 10.78125 32.3125 
Q 14.796875 37.15625 21.921875 38.8125 
z
M 18.3125 54.390625 
Q 18.3125 48.734375 21.84375 45.5625 
Q 25.390625 42.390625 31.78125 42.390625 
Q 38.140625 42.390625 41.71875 45.5625 
Q 45.3125 48.734375 45.3125 54.390625 
Q 45.3125 60.0625 41.71875 63.234375 
Q 38.140625 66.40625 31.78125 66.40625 
Q 25.390625 66.40625 21.84375 63.234375 
Q 18.3125 60.0625 18.3125 54.390625 
z
" id="DejaVuSans-56"/>
       <path d="M 48.6875 27.296875 
Q 48.6875 37.203125 44.609375 42.84375 
Q 40.53125 48.484375 33.40625 48.484375 
Q 26.265625 48.484375 22.1875 42.84375 
Q 18.109375 37.203125 18.109375 27.296875 
Q 18.109375 17.390625 22.1875 11.75 
Q 26.265625 6.109375 33.40625 6.109375 
Q 40.53125 6.109375 44.609375 11.75 
Q 48.6875 17.390625 48.6875 27.296875 
z
M 18.109375 46.390625 
Q 20.953125 51.265625 25.265625 53.625 
Q 29.59375 56 35.59375 56 
Q 45.5625 56 51.78125 48.09375 
Q 58.015625 40.1875 58.015625 27.296875 
Q 58.015625 14.40625 51.78125 6.484375 
Q 45.5625 -1.421875 35.59375 -1.421875 
Q 29.59375 -1.421875 25.265625 0.953125 
Q 20.953125 3.328125 18.109375 8.203125 
L 18.109375 0 
L 9.078125 0 
L 9.078125 75.984375 
L 18.109375 75.984375 
z
" id="DejaVuSans-98"/>
       <path d="M 18.3125 70.21875 
L 18.3125 54.6875 
L 36.8125 54.6875 
L 36.8125 47.703125 
L 18.3125 47.703125 
L 18.3125 18.015625 
Q 18.3125 11.328125 20.140625 9.421875 
Q 21.96875 7.515625 27.59375 7.515625 
L 36.8125 7.515625 
L 36.8125 0 
L 27.59375 0 
Q 17.1875 0 13.234375 3.875 
Q 9.28125 7.765625 9.28125 18.015625 
L 9.28125 47.703125 
L 2.6875 47.703125 
L 2.6875 54.6875 
L 9.28125 54.6875 
L 9.28125 70.21875 
z
" id="DejaVuSans-116"/>
      </defs>
      <use xlink:href="#DejaVuSans-81"/>
      <use x="78.710938" xlink:href="#DejaVuSans-83"/>
      <use x="142.1875" xlink:href="#DejaVuSans-71"/>
      <use x="219.677734" xlink:href="#DejaVuSans-68"/>
      <use x="296.679688" xlink:href="#DejaVuSans-45"/>
      <use x="332.763672" xlink:href="#DejaVuSans-77"/>
      <use x="419.042969" xlink:href="#DejaVuSans-78"/>
      <use x="493.847656" xlink:href="#DejaVuSans-32"/>
      <use x="525.634766" xlink:href="#DejaVuSans-56"/>
      <use x="589.257812" xlink:href="#DejaVuSans-32"/>
      <use x="621.044922" xlink:href="#DejaVuSans-98"/>
      <use x="684.521484" xlink:href="#DejaVuSans-105"/>
      <use x="712.304688" xlink:href="#DejaVuSans-116"/>
      <use x="751.513672" xlink:href="#DejaVuSans-115"/>
     </g>
    </g>
    <g id="line2d_20">
     <path d="M 332.639063 57.214687 
L 352.639063 57.214687 
" style="fill:none;stroke:#2ca02c;stroke-linecap:square;stroke-width:1.5;"/>
    </g>
    <g id="line2d_21"/>
    <g id="text_16">
     <!-- QSGD-MN 4 bits -->
     <g transform="translate(360.639063 60.714687)scale(0.1 -0.1)">
      <defs>
       <path d="M 37.796875 64.3125 
L 12.890625 25.390625 
L 37.796875 25.390625 
z
M 35.203125 72.90625 
L 47.609375 72.90625 
L 47.609375 25.390625 
L 58.015625 25.390625 
L 58.015625 17.1875 
L 47.609375 17.1875 
L 47.609375 0 
L 37.796875 0 
L 37.796875 17.1875 
L 4.890625 17.1875 
L 4.890625 26.703125 
z
" id="DejaVuSans-52"/>
      </defs>
      <use xlink:href="#DejaVuSans-81"/>
      <use x="78.710938" xlink:href="#DejaVuSans-83"/>
      <use x="142.1875" xlink:href="#DejaVuSans-71"/>
      <use x="219.677734" xlink:href="#DejaVuSans-68"/>
      <use x="296.679688" xlink:href="#DejaVuSans-45"/>
      <use x="332.763672" xlink:href="#DejaVuSans-77"/>
      <use x="419.042969" xlink:href="#DejaVuSans-78"/>
      <use x="493.847656" xlink:href="#DejaVuSans-32"/>
      <use x="525.634766" xlink:href="#DejaVuSans-52"/>
      <use x="589.257812" xlink:href="#DejaVuSans-32"/>
      <use x="621.044922" xlink:href="#DejaVuSans-98"/>
      <use x="684.521484" xlink:href="#DejaVuSans-105"/>
      <use x="712.304688" xlink:href="#DejaVuSans-116"/>
      <use x="751.513672" xlink:href="#DejaVuSans-115"/>
     </g>
    </g>
    <g id="line2d_22">
     <path d="M 332.639063 71.892812 
L 352.639063 71.892812 
" style="fill:none;stroke:#d62728;stroke-linecap:square;stroke-width:1.5;"/>
    </g>
    <g id="line2d_23"/>
    <g id="text_17">
     <!-- QSGD-MN 2 bits -->
     <g transform="translate(360.639063 75.392812)scale(0.1 -0.1)">
      <use xlink:href="#DejaVuSans-81"/>
      <use x="78.710938" xlink:href="#DejaVuSans-83"/>
      <use x="142.1875" xlink:href="#DejaVuSans-71"/>
      <use x="219.677734" xlink:href="#DejaVuSans-68"/>
      <use x="296.679688" xlink:href="#DejaVuSans-45"/>
      <use x="332.763672" xlink:href="#DejaVuSans-77"/>
      <use x="419.042969" xlink:href="#DejaVuSans-78"/>
      <use x="493.847656" xlink:href="#DejaVuSans-32"/>
      <use x="525.634766" xlink:href="#DejaVuSans-50"/>
      <use x="589.257812" xlink:href="#DejaVuSans-32"/>
      <use x="621.044922" xlink:href="#DejaVuSans-98"/>
      <use x="684.521484" xlink:href="#DejaVuSans-105"/>
      <use x="712.304688" xlink:href="#DejaVuSans-116"/>
      <use x="751.513672" xlink:href="#DejaVuSans-115"/>
     </g>
    </g>
   </g>
  </g>
 </g>
 <defs>
  <clipPath id="p9ceb0f6148">
   <rect height="288.88" width="402.28" x="47.72" y="14.76"/>
  </clipPath>
 </defs>
</svg>
