<?xml version="1.0" encoding="utf-8" standalone="no"?>
<!DOCTYPE svg PUBLIC "-//W3C//DTD SVG 1.1//EN"
  "http://www.w3.org/Graphics/SVG/1.1/DTD/svg11.dtd">
<!-- Created with matplotlib (https://matplotlib.org/) -->
<svg height="345.6pt" version="1.1" viewBox="0 0 460.8 345.6" width="460.8pt" xmlns="http://www.w3.org/2000/svg" xmlns:xlink="http://www.w3.org/1999/xlink">
 <metadata>
  <rdf:RDF xmlns:cc="http://creativecommons.org/ns#" xmlns:dc="http://purl.org/dc/elements/1.1/" xmlns:rdf="http://www.w3.org/1999/02/22-rdf-syntax-ns#">
   <cc:Work>
    <dc:type rdf:resource="http://purl.org/dc/dcmitype/StillImage"/>
    <dc:date>2021-06-10T08:57:23.288823</dc:date>
    <dc:format>image/svg+xml</dc:format>
    <dc:creator>
     <cc:Agent>
      <dc:title>Matplotlib v3.3.1, https://matplotlib.org/</dc:title>
     </cc:Agent>
    </dc:creator>
   </cc:Work>
  </rdf:RDF>
 </metadata>
 <defs>
  <style type="text/css">*{stroke-linecap:butt;stroke-linejoin:round;}</style>
 </defs>
 <g id="figure_1">
  <g id="patch_1">
   <path d="M 0 345.6 
L 460.8 345.6 
L 460.8 0 
L 0 0 
z
" style="fill:#ffffff;"/>
  </g>
  <g id="axes_1">
   <g id="patch_2">
    <path d="M 44.57 303.64 
L 450 303.64 
L 450 10.8 
L 44.57 10.8 
z
" style="fill:#ffffff;"/>
   </g>
   <g id="PolyCollection_1">
    <path clip-path="url(#p855c74b098)" d="M 62.998636 269.440779 
L 62.998636 277.324169 
L 65.472279 263.858073 
L 67.945921 247.775595 
L 70.419564 237.384799 
L 72.893206 208.341525 
L 75.366849 169.590621 
L 77.840491 129.503065 
L 80.314134 121.356591 
L 82.787776 118.144512 
L 85.261419 90.094309 
L 87.735061 84.17014 
L 90.208703 95.113322 
L 92.682346 87.280793 
L 95.155988 81.105002 
L 97.629631 80.987167 
L 100.103273 67.828099 
L 102.576916 72.664451 
L 105.050558 66.819679 
L 107.524201 55.195265 
L 109.997843 73.725923 
L 112.471486 61.545027 
L 114.945128 65.111786 
L 117.418771 68.488101 
L 119.892413 70.879068 
L 122.366056 69.555539 
L 124.839698 59.26572 
L 127.31334 64.349792 
L 129.786983 59.243477 
L 132.260625 64.024871 
L 134.734268 53.685752 
L 137.20791 60.159427 
L 139.681553 60.286124 
L 142.155195 58.462571 
L 144.628838 57.624848 
L 147.10248 56.322584 
L 149.576123 60.400456 
L 152.049765 66.52808 
L 154.523408 67.698225 
L 156.99705 52.969743 
L 159.470692 65.590123 
L 161.944335 52.720216 
L 164.417977 50.440964 
L 166.89162 53.720677 
L 169.365262 53.888499 
L 171.838905 53.519917 
L 174.312547 51.128716 
L 176.78619 49.303932 
L 179.259832 53.337943 
L 181.733475 56.837814 
L 184.207117 53.104801 
L 186.68076 54.680764 
L 189.154402 57.341363 
L 191.628045 55.818899 
L 194.101687 54.957693 
L 196.575329 51.671457 
L 199.048972 47.986099 
L 201.522614 57.535716 
L 203.996257 63.277108 
L 206.469899 54.00334 
L 208.943542 42.957108 
L 211.417184 54.661592 
L 213.890827 50.897635 
L 216.364469 46.954158 
L 218.838112 48.101403 
L 221.311754 54.127586 
L 223.785397 55.921768 
L 226.259039 42.9692 
L 228.732682 52.208886 
L 231.206324 52.670633 
L 233.679966 46.207639 
L 236.153609 49.592764 
L 238.627251 51.284959 
L 241.100894 46.722757 
L 243.574536 50.622287 
L 246.048179 46.534187 
L 248.521821 49.32506 
L 250.995464 48.332212 
L 253.469106 45.509145 
L 255.942749 44.645948 
L 258.416391 44.50066 
L 260.890034 43.4424 
L 263.363676 42.882723 
L 265.837318 45.643388 
L 268.310961 46.661321 
L 270.784603 43.265848 
L 273.258246 48.83687 
L 275.731888 41.676224 
L 278.205531 42.557707 
L 280.679173 40.073895 
L 283.152816 42.777783 
L 285.626458 41.8885 
L 288.100101 46.92394 
L 290.573743 40.56278 
L 293.047386 44.226877 
L 295.521028 37.797496 
L 297.994671 39.179155 
L 300.468313 40.452276 
L 302.941955 38.426747 
L 305.415598 41.080702 
L 307.88924 38.956756 
L 310.362883 41.683683 
L 312.836525 38.500165 
L 315.310168 39.213219 
L 317.78381 35.912564 
L 320.257453 44.638936 
L 322.731095 37.96129 
L 325.204738 35.144379 
L 327.67838 36.59315 
L 330.152023 36.553245 
L 332.625665 34.340789 
L 335.099308 36.04505 
L 337.57295 37.744238 
L 340.046592 36.550624 
L 342.520235 35.599845 
L 344.993877 34.773019 
L 347.46752 37.541017 
L 349.941162 34.113493 
L 352.414805 33.496874 
L 354.888447 34.542947 
L 357.36209 33.439932 
L 359.835732 32.575303 
L 362.309375 33.321097 
L 364.783017 32.07465 
L 367.25666 30.455566 
L 369.730302 32.731752 
L 372.203944 32.673527 
L 374.677587 32.163507 
L 377.151229 33.503578 
L 379.624872 30.464523 
L 382.098514 30.450533 
L 384.572157 29.68237 
L 387.045799 30.52143 
L 389.519442 30.744393 
L 391.993084 30.649867 
L 394.466727 30.816955 
L 396.940369 31.27199 
L 399.414012 29.909074 
L 401.887654 31.033456 
L 404.361297 29.475074 
L 406.834939 31.165136 
L 409.308581 31.307754 
L 411.782224 30.940742 
L 414.255866 30.724363 
L 416.729509 29.587684 
L 419.203151 30.641787 
L 421.676794 30.582153 
L 424.150436 31.165868 
L 426.624079 30.344554 
L 429.097721 30.350153 
L 431.571364 30.465933 
L 431.571364 24.225825 
L 431.571364 24.225825 
L 429.097721 24.402543 
L 426.624079 24.347204 
L 424.150436 24.379021 
L 421.676794 24.779922 
L 419.203151 24.110909 
L 416.729509 24.921261 
L 414.255866 25.003339 
L 411.782224 25.030712 
L 409.308581 25.21214 
L 406.834939 26.268826 
L 404.361297 25.64325 
L 401.887654 25.486438 
L 399.414012 26.488945 
L 396.940369 25.979159 
L 394.466727 26.921696 
L 391.993084 26.601281 
L 389.519442 27.908326 
L 387.045799 25.450024 
L 384.572157 28.726597 
L 382.098514 27.53187 
L 379.624872 28.736637 
L 377.151229 28.196034 
L 374.677587 26.123585 
L 372.203944 28.051079 
L 369.730302 30.003804 
L 367.25666 27.953401 
L 364.783017 26.578069 
L 362.309375 30.51134 
L 359.835732 28.453993 
L 357.36209 29.96594 
L 354.888447 28.009795 
L 352.414805 30.762128 
L 349.941162 30.937701 
L 347.46752 30.252381 
L 344.993877 30.826616 
L 342.520235 29.938852 
L 340.046592 32.095904 
L 337.57295 30.04916 
L 335.099308 30.468653 
L 332.625665 31.197908 
L 330.152023 31.057339 
L 327.67838 31.870564 
L 325.204738 30.942759 
L 322.731095 31.721182 
L 320.257453 33.270146 
L 317.78381 31.941772 
L 315.310168 32.419263 
L 312.836525 34.655764 
L 310.362883 30.680054 
L 307.88924 32.249161 
L 305.415598 32.867419 
L 302.941955 35.033871 
L 300.468313 32.642715 
L 297.994671 35.317406 
L 295.521028 34.200614 
L 293.047386 33.499391 
L 290.573743 36.919736 
L 288.100101 36.591424 
L 285.626458 37.726842 
L 283.152816 33.242225 
L 280.679173 36.250803 
L 278.205531 38.520143 
L 275.731888 36.720361 
L 273.258246 37.66445 
L 270.784603 38.238567 
L 268.310961 36.671229 
L 265.837318 39.821988 
L 263.363676 36.854494 
L 260.890034 39.585462 
L 258.416391 40.903778 
L 255.942749 40.514739 
L 253.469106 35.44683 
L 250.995464 43.531639 
L 248.521821 36.749695 
L 246.048179 40.149946 
L 243.574536 41.607191 
L 241.100894 39.900438 
L 238.627251 40.639829 
L 236.153609 42.271087 
L 233.679966 39.988991 
L 231.206324 44.7995 
L 228.732682 39.350276 
L 226.259039 40.66804 
L 223.785397 42.58431 
L 221.311754 42.550355 
L 218.838112 34.134266 
L 216.364469 41.00967 
L 213.890827 47.060001 
L 211.417184 43.72261 
L 208.943542 39.278561 
L 206.469899 44.563675 
L 203.996257 50.280619 
L 201.522614 45.723514 
L 199.048972 40.404294 
L 196.575329 49.211197 
L 194.101687 43.487446 
L 191.628045 45.002816 
L 189.154402 44.516296 
L 186.68076 44.861257 
L 184.207117 44.304395 
L 181.733475 42.826082 
L 179.259832 43.461874 
L 176.78619 44.692744 
L 174.312547 43.172649 
L 171.838905 45.961166 
L 169.365262 42.789442 
L 166.89162 47.64948 
L 164.417977 45.32291 
L 161.944335 47.553059 
L 159.470692 53.452012 
L 156.99705 43.769136 
L 154.523408 46.347005 
L 152.049765 56.596892 
L 149.576123 54.010402 
L 147.10248 44.011629 
L 144.628838 45.939071 
L 142.155195 47.782614 
L 139.681553 46.080936 
L 137.20791 47.060764 
L 134.734268 49.634416 
L 132.260625 53.250066 
L 129.786983 53.46112 
L 127.31334 54.692343 
L 124.839698 51.67168 
L 122.366056 55.885071 
L 119.892413 51.941214 
L 117.418771 58.049391 
L 114.945128 47.531874 
L 112.471486 49.758 
L 109.997843 58.478789 
L 107.524201 49.282722 
L 105.050558 49.906817 
L 102.576916 59.479323 
L 100.103273 53.895301 
L 97.629631 61.211353 
L 95.155988 68.101372 
L 92.682346 65.64279 
L 90.208703 70.60721 
L 87.735061 71.373771 
L 85.261419 73.249648 
L 82.787776 94.680984 
L 80.314134 106.825244 
L 77.840491 117.203879 
L 75.366849 132.935399 
L 72.893206 181.173285 
L 70.419564 208.954562 
L 67.945921 226.625649 
L 65.472279 241.712884 
L 62.998636 269.440779 
z
" style="fill:#1f77b4;fill-opacity:0.25;"/>
   </g>
   <g id="PolyCollection_2">
    <path clip-path="url(#p855c74b098)" d="M 62.998636 284.194939 
L 62.998636 287.676406 
L 65.472279 290.329091 
L 67.945921 287.756636 
L 70.419564 283.29339 
L 72.893206 250.329752 
L 75.366849 250.652549 
L 77.840491 220.320158 
L 80.314134 208.897345 
L 82.787776 175.482967 
L 85.261419 142.958816 
L 87.735061 130.219599 
L 90.208703 122.244749 
L 92.682346 89.221017 
L 95.155988 89.238771 
L 97.629631 75.651716 
L 100.103273 77.049289 
L 102.576916 87.26974 
L 105.050558 86.754421 
L 107.524201 75.790354 
L 109.997843 77.309301 
L 112.471486 89.074609 
L 114.945128 76.191301 
L 117.418771 89.807722 
L 119.892413 73.269322 
L 122.366056 93.42891 
L 124.839698 86.984343 
L 127.31334 71.875836 
L 129.786983 69.158428 
L 132.260625 64.814234 
L 134.734268 58.368024 
L 137.20791 65.051413 
L 139.681553 61.244574 
L 142.155195 66.488636 
L 144.628838 59.858895 
L 147.10248 63.518712 
L 149.576123 64.534908 
L 152.049765 61.962758 
L 154.523408 57.883276 
L 156.99705 55.922068 
L 159.470692 67.897666 
L 161.944335 65.371102 
L 164.417977 59.628625 
L 166.89162 60.329489 
L 169.365262 60.648747 
L 171.838905 62.758202 
L 174.312547 65.333316 
L 176.78619 61.46406 
L 179.259832 57.671595 
L 181.733475 55.495818 
L 184.207117 51.271788 
L 186.68076 52.119562 
L 189.154402 64.43216 
L 191.628045 59.482725 
L 194.101687 57.249175 
L 196.575329 57.179091 
L 199.048972 52.390867 
L 201.522614 55.729524 
L 203.996257 58.371376 
L 206.469899 53.764956 
L 208.943542 48.89993 
L 211.417184 59.20358 
L 213.890827 56.850725 
L 216.364469 61.68895 
L 218.838112 47.754528 
L 221.311754 49.496104 
L 223.785397 52.803226 
L 226.259039 54.536498 
L 228.732682 49.013784 
L 231.206324 50.487547 
L 233.679966 49.334319 
L 236.153609 49.755294 
L 238.627251 53.757207 
L 241.100894 56.770753 
L 243.574536 57.915972 
L 246.048179 44.23151 
L 248.521821 56.651238 
L 250.995464 53.456691 
L 253.469106 47.856969 
L 255.942749 44.015553 
L 258.416391 51.567492 
L 260.890034 45.626559 
L 263.363676 42.184247 
L 265.837318 44.594161 
L 268.310961 47.357915 
L 270.784603 47.834823 
L 273.258246 48.938104 
L 275.731888 46.80179 
L 278.205531 42.451531 
L 280.679173 48.103551 
L 283.152816 46.879821 
L 285.626458 41.744618 
L 288.100101 44.760935 
L 290.573743 42.244634 
L 293.047386 46.574331 
L 295.521028 43.216257 
L 297.994671 45.265285 
L 300.468313 45.026928 
L 302.941955 41.708991 
L 305.415598 42.124049 
L 307.88924 47.477159 
L 310.362883 39.665559 
L 312.836525 40.281422 
L 315.310168 38.782387 
L 317.78381 41.772869 
L 320.257453 39.150739 
L 322.731095 41.299615 
L 325.204738 37.057437 
L 327.67838 39.208976 
L 330.152023 40.452485 
L 332.625665 39.171526 
L 335.099308 39.693794 
L 337.57295 38.79481 
L 340.046592 40.804213 
L 342.520235 40.726589 
L 344.993877 37.513108 
L 347.46752 33.955326 
L 349.941162 35.4106 
L 352.414805 36.140076 
L 354.888447 36.268063 
L 357.36209 36.903791 
L 359.835732 35.007338 
L 362.309375 33.895261 
L 364.783017 35.347929 
L 367.25666 34.806442 
L 369.730302 36.840953 
L 372.203944 35.736006 
L 374.677587 35.876333 
L 377.151229 33.426302 
L 379.624872 35.10132 
L 382.098514 31.309463 
L 384.572157 32.745792 
L 387.045799 31.726126 
L 389.519442 31.28501 
L 391.993084 32.670091 
L 394.466727 32.973571 
L 396.940369 31.902732 
L 399.414012 30.015582 
L 401.887654 30.248018 
L 404.361297 32.41638 
L 406.834939 31.961382 
L 409.308581 30.707327 
L 411.782224 32.04931 
L 414.255866 31.718642 
L 416.729509 31.119143 
L 419.203151 30.442102 
L 421.676794 30.706075 
L 424.150436 31.27263 
L 426.624079 31.157537 
L 429.097721 30.58922 
L 431.571364 30.932795 
L 431.571364 27.963676 
L 431.571364 27.963676 
L 429.097721 28.124437 
L 426.624079 29.323318 
L 424.150436 28.050406 
L 421.676794 28.434147 
L 419.203151 28.454369 
L 416.729509 28.082016 
L 414.255866 28.27471 
L 411.782224 29.223737 
L 409.308581 29.286025 
L 406.834939 28.092908 
L 404.361297 28.003537 
L 401.887654 28.039074 
L 399.414012 29.063702 
L 396.940369 27.78593 
L 394.466727 29.396358 
L 391.993084 30.431091 
L 389.519442 28.159902 
L 387.045799 27.779723 
L 384.572157 28.710068 
L 382.098514 29.537019 
L 379.624872 28.548304 
L 377.151229 31.563955 
L 374.677587 31.4905 
L 372.203944 31.569889 
L 369.730302 32.719643 
L 367.25666 30.732255 
L 364.783017 28.362632 
L 362.309375 30.66843 
L 359.835732 31.0798 
L 357.36209 30.645856 
L 354.888447 31.464397 
L 352.414805 32.872079 
L 349.941162 31.529667 
L 347.46752 31.948998 
L 344.993877 32.778742 
L 342.520235 35.171543 
L 340.046592 34.057976 
L 337.57295 35.031435 
L 335.099308 33.766824 
L 332.625665 34.654719 
L 330.152023 34.653455 
L 327.67838 30.595371 
L 325.204738 35.793803 
L 322.731095 34.111014 
L 320.257453 36.016139 
L 317.78381 36.867467 
L 315.310168 33.459474 
L 312.836525 37.932349 
L 310.362883 32.941929 
L 307.88924 39.572601 
L 305.415598 35.845971 
L 302.941955 37.906351 
L 300.468313 33.247781 
L 297.994671 36.421944 
L 295.521028 35.66783 
L 293.047386 38.951982 
L 290.573743 37.187894 
L 288.100101 38.571616 
L 285.626458 35.859775 
L 283.152816 38.585555 
L 280.679173 39.738401 
L 278.205531 38.443506 
L 275.731888 34.580749 
L 273.258246 40.792922 
L 270.784603 37.14305 
L 268.310961 39.691845 
L 265.837318 40.383712 
L 263.363676 39.25923 
L 260.890034 40.143506 
L 258.416391 40.601048 
L 255.942749 41.084195 
L 253.469106 40.594362 
L 250.995464 42.063431 
L 248.521821 46.486116 
L 246.048179 41.843244 
L 243.574536 46.013575 
L 241.100894 48.194737 
L 238.627251 45.602 
L 236.153609 41.560116 
L 233.679966 42.468594 
L 231.206324 43.75288 
L 228.732682 43.642258 
L 226.259039 42.933636 
L 223.785397 46.555981 
L 221.311754 42.733374 
L 218.838112 39.538984 
L 216.364469 47.725003 
L 213.890827 46.896008 
L 211.417184 47.102543 
L 208.943542 39.246712 
L 206.469899 46.75207 
L 203.996257 40.317514 
L 201.522614 47.773457 
L 199.048972 46.480837 
L 196.575329 49.309845 
L 194.101687 49.544451 
L 191.628045 48.407783 
L 189.154402 45.34742 
L 186.68076 47.178708 
L 184.207117 46.503035 
L 181.733475 46.910282 
L 179.259832 47.903274 
L 176.78619 48.376458 
L 174.312547 53.160378 
L 171.838905 47.752633 
L 169.365262 52.177727 
L 166.89162 47.50008 
L 164.417977 45.702492 
L 161.944335 53.792909 
L 159.470692 50.169463 
L 156.99705 46.301218 
L 154.523408 51.835367 
L 152.049765 55.068427 
L 149.576123 50.485328 
L 147.10248 51.562462 
L 144.628838 48.031612 
L 142.155195 50.420674 
L 139.681553 52.13034 
L 137.20791 58.134496 
L 134.734268 48.059975 
L 132.260625 55.568533 
L 129.786983 52.260283 
L 127.31334 56.672604 
L 124.839698 47.414131 
L 122.366056 70.6463 
L 119.892413 57.899446 
L 117.418771 64.029929 
L 114.945128 64.240022 
L 112.471486 60.923957 
L 109.997843 60.136066 
L 107.524201 61.715951 
L 105.050558 66.351975 
L 102.576916 64.6179 
L 100.103273 59.421072 
L 97.629631 67.156183 
L 95.155988 75.080191 
L 92.682346 80.399539 
L 90.208703 88.386983 
L 87.735061 95.58566 
L 85.261419 132.267044 
L 82.787776 141.180636 
L 80.314134 157.004046 
L 77.840491 206.275337 
L 75.366849 231.259286 
L 72.893206 232.313338 
L 70.419564 264.202813 
L 67.945921 271.195884 
L 65.472279 282.761011 
L 62.998636 284.194939 
z
" style="fill:#ff7f0e;fill-opacity:0.25;"/>
   </g>
   <g id="PolyCollection_3">
    <path clip-path="url(#p855c74b098)" d="M 62.998636 279.868416 
L 62.998636 281.521618 
L 65.472279 284.150007 
L 67.945921 287.123397 
L 70.419564 259.714004 
L 72.893206 233.842417 
L 75.366849 214.822503 
L 77.840491 178.497865 
L 80.314134 155.437633 
L 82.787776 123.542904 
L 85.261419 125.909026 
L 87.735061 114.735509 
L 90.208703 96.699779 
L 92.682346 86.031527 
L 95.155988 88.342216 
L 97.629631 86.296099 
L 100.103273 84.442379 
L 102.576916 80.080211 
L 105.050558 83.963069 
L 107.524201 82.978008 
L 109.997843 76.838176 
L 112.471486 67.636156 
L 114.945128 80.909134 
L 117.418771 85.82355 
L 119.892413 80.604525 
L 122.366056 81.645408 
L 124.839698 71.43877 
L 127.31334 74.91798 
L 129.786983 72.475382 
L 132.260625 68.14341 
L 134.734268 79.62857 
L 137.20791 68.673807 
L 139.681553 70.301613 
L 142.155195 69.908959 
L 144.628838 64.656297 
L 147.10248 59.828382 
L 149.576123 67.753075 
L 152.049765 63.61828 
L 154.523408 63.3477 
L 156.99705 58.066235 
L 159.470692 78.597946 
L 161.944335 71.003898 
L 164.417977 56.707334 
L 166.89162 56.977572 
L 169.365262 56.666863 
L 171.838905 61.176499 
L 174.312547 63.249682 
L 176.78619 65.02178 
L 179.259832 59.767973 
L 181.733475 64.170685 
L 184.207117 54.446682 
L 186.68076 57.07355 
L 189.154402 57.004539 
L 191.628045 61.147967 
L 194.101687 58.529409 
L 196.575329 65.221295 
L 199.048972 50.881341 
L 201.522614 56.868813 
L 203.996257 51.134568 
L 206.469899 57.073304 
L 208.943542 53.498261 
L 211.417184 62.853923 
L 213.890827 58.704784 
L 216.364469 53.760001 
L 218.838112 55.90479 
L 221.311754 55.168736 
L 223.785397 55.344041 
L 226.259039 50.98296 
L 228.732682 58.94969 
L 231.206324 56.7981 
L 233.679966 50.780906 
L 236.153609 57.578256 
L 238.627251 54.593027 
L 241.100894 48.957114 
L 243.574536 54.54078 
L 246.048179 52.514154 
L 248.521821 56.668244 
L 250.995464 55.423643 
L 253.469106 53.877214 
L 255.942749 50.720088 
L 258.416391 43.242762 
L 260.890034 46.403238 
L 263.363676 52.534534 
L 265.837318 48.394706 
L 268.310961 42.904415 
L 270.784603 46.415136 
L 273.258246 56.01737 
L 275.731888 47.657937 
L 278.205531 44.629775 
L 280.679173 45.979876 
L 283.152816 46.590573 
L 285.626458 45.968648 
L 288.100101 51.459338 
L 290.573743 46.048873 
L 293.047386 46.191356 
L 295.521028 48.47753 
L 297.994671 48.921144 
L 300.468313 46.33146 
L 302.941955 44.466837 
L 305.415598 43.004936 
L 307.88924 46.358374 
L 310.362883 43.655946 
L 312.836525 41.765287 
L 315.310168 41.609875 
L 317.78381 46.0545 
L 320.257453 45.899963 
L 322.731095 41.398394 
L 325.204738 44.135379 
L 327.67838 43.505321 
L 330.152023 45.759911 
L 332.625665 38.409327 
L 335.099308 41.498305 
L 337.57295 41.62748 
L 340.046592 42.545653 
L 342.520235 43.569195 
L 344.993877 43.773514 
L 347.46752 40.104511 
L 349.941162 40.17054 
L 352.414805 40.010704 
L 354.888447 39.857437 
L 357.36209 40.485911 
L 359.835732 38.945779 
L 362.309375 38.204727 
L 364.783017 38.818035 
L 367.25666 39.710284 
L 369.730302 37.159181 
L 372.203944 38.485535 
L 374.677587 39.685176 
L 377.151229 39.493202 
L 379.624872 39.903063 
L 382.098514 38.773138 
L 384.572157 38.111092 
L 387.045799 39.938634 
L 389.519442 36.362677 
L 391.993084 36.288462 
L 394.466727 35.811708 
L 396.940369 36.721453 
L 399.414012 36.731594 
L 401.887654 35.701824 
L 404.361297 36.18996 
L 406.834939 34.222477 
L 409.308581 36.459738 
L 411.782224 35.641328 
L 414.255866 34.724295 
L 416.729509 35.465544 
L 419.203151 36.167175 
L 421.676794 36.669495 
L 424.150436 36.423632 
L 426.624079 36.336994 
L 429.097721 35.683893 
L 431.571364 35.198903 
L 431.571364 29.60854 
L 431.571364 29.60854 
L 429.097721 29.489177 
L 426.624079 29.323579 
L 424.150436 29.419754 
L 421.676794 29.173891 
L 419.203151 29.737149 
L 416.729509 28.610644 
L 414.255866 30.205023 
L 411.782224 29.28799 
L 409.308581 29.078959 
L 406.834939 30.767779 
L 404.361297 30.445618 
L 401.887654 29.471245 
L 399.414012 31.671183 
L 396.940369 31.803198 
L 394.466727 31.311374 
L 391.993084 31.38306 
L 389.519442 31.73541 
L 387.045799 31.450097 
L 384.572157 31.388566 
L 382.098514 32.189029 
L 379.624872 30.815351 
L 377.151229 32.383031 
L 374.677587 32.191058 
L 372.203944 32.293817 
L 369.730302 33.132669 
L 367.25666 33.506583 
L 364.783017 33.058199 
L 362.309375 33.671507 
L 359.835732 35.246093 
L 357.36209 34.620029 
L 354.888447 34.882877 
L 352.414805 35.582739 
L 349.941162 33.777581 
L 347.46752 35.854559 
L 344.993877 37.304336 
L 342.520235 36.716463 
L 340.046592 34.632174 
L 337.57295 37.622235 
L 335.099308 36.167026 
L 332.625665 36.391925 
L 330.152023 41.107035 
L 327.67838 38.303783 
L 325.204738 35.84559 
L 322.731095 36.998191 
L 320.257453 39.687289 
L 317.78381 39.410876 
L 315.310168 38.127342 
L 312.836525 37.1188 
L 310.362883 37.787532 
L 307.88924 38.375748 
L 305.415598 37.829163 
L 302.941955 40.511036 
L 300.468313 38.768289 
L 297.994671 40.383317 
L 295.521028 42.228502 
L 293.047386 38.359952 
L 290.573743 37.953995 
L 288.100101 46.559237 
L 285.626458 38.095157 
L 283.152816 39.362306 
L 280.679173 42.776144 
L 278.205531 41.262166 
L 275.731888 40.305891 
L 273.258246 43.890278 
L 270.784603 40.147121 
L 268.310961 37.137491 
L 265.837318 43.225394 
L 263.363676 42.802775 
L 260.890034 38.391822 
L 258.416391 39.724162 
L 255.942749 43.764091 
L 253.469106 44.080423 
L 250.995464 44.301191 
L 248.521821 44.945663 
L 246.048179 42.640341 
L 243.574536 45.30593 
L 241.100894 45.770816 
L 238.627251 51.774034 
L 236.153609 48.545053 
L 233.679966 39.437623 
L 231.206324 46.643944 
L 228.732682 47.356433 
L 226.259039 44.171535 
L 223.785397 48.341754 
L 221.311754 46.323296 
L 218.838112 49.365389 
L 216.364469 47.671093 
L 213.890827 49.673226 
L 211.417184 53.750697 
L 208.943542 44.520313 
L 206.469899 52.645339 
L 203.996257 45.604311 
L 201.522614 49.863875 
L 199.048972 45.552849 
L 196.575329 53.51615 
L 194.101687 45.278262 
L 191.628045 53.506642 
L 189.154402 47.778137 
L 186.68076 49.659138 
L 184.207117 51.432876 
L 181.733475 51.093302 
L 179.259832 49.463167 
L 176.78619 49.632829 
L 174.312547 56.889334 
L 171.838905 52.442167 
L 169.365262 49.700197 
L 166.89162 51.705127 
L 164.417977 47.953467 
L 161.944335 55.04609 
L 159.470692 56.288032 
L 156.99705 51.164905 
L 154.523408 48.747519 
L 152.049765 59.019188 
L 149.576123 58.1141 
L 147.10248 54.521538 
L 144.628838 51.095194 
L 142.155195 60.223865 
L 139.681553 53.798364 
L 137.20791 52.805842 
L 134.734268 53.977713 
L 132.260625 55.408127 
L 129.786983 61.374652 
L 127.31334 61.125817 
L 124.839698 57.779987 
L 122.366056 66.403146 
L 119.892413 65.43308 
L 117.418771 65.576586 
L 114.945128 66.834731 
L 112.471486 61.88729 
L 109.997843 63.105644 
L 107.524201 59.403326 
L 105.050558 72.982412 
L 102.576916 70.405858 
L 100.103273 67.689012 
L 97.629631 77.352547 
L 95.155988 77.01269 
L 92.682346 72.620214 
L 90.208703 76.637986 
L 87.735061 96.139975 
L 85.261419 91.060244 
L 82.787776 115.120243 
L 80.314134 133.438307 
L 77.840491 160.377586 
L 75.366849 194.954145 
L 72.893206 227.365781 
L 70.419564 249.239005 
L 67.945921 272.316626 
L 65.472279 282.358807 
L 62.998636 279.868416 
z
" style="fill:#2ca02c;fill-opacity:0.25;"/>
   </g>
   <g id="PolyCollection_4">
    <path clip-path="url(#p855c74b098)" d="M 62.998636 277.676375 
L 62.998636 283.95741 
L 65.472279 252.015968 
L 67.945921 242.100148 
L 70.419564 200.293537 
L 72.893206 196.544421 
L 75.366849 169.260971 
L 77.840491 158.264132 
L 80.314134 147.940782 
L 82.787776 150.216317 
L 85.261419 148.490188 
L 87.735061 132.715632 
L 90.208703 123.244215 
L 92.682346 126.31016 
L 95.155988 134.765755 
L 97.629631 136.255354 
L 100.103273 139.753063 
L 102.576916 135.236012 
L 105.050558 145.424238 
L 107.524201 132.234352 
L 109.997843 142.9881 
L 112.471486 120.444687 
L 114.945128 147.153563 
L 117.418771 130.361005 
L 119.892413 126.564319 
L 122.366056 123.352932 
L 124.839698 125.330078 
L 127.31334 131.826087 
L 129.786983 130.196025 
L 132.260625 125.738935 
L 134.734268 130.165816 
L 137.20791 127.103971 
L 139.681553 112.326961 
L 142.155195 130.654437 
L 144.628838 113.195646 
L 147.10248 135.238369 
L 149.576123 114.720931 
L 152.049765 131.608342 
L 154.523408 126.136285 
L 156.99705 110.357047 
L 159.470692 130.918742 
L 161.944335 127.775848 
L 164.417977 108.620921 
L 166.89162 118.636009 
L 169.365262 111.742934 
L 171.838905 111.879575 
L 174.312547 109.983615 
L 176.78619 116.467608 
L 179.259832 131.594802 
L 181.733475 106.006267 
L 184.207117 96.369692 
L 186.68076 108.1046 
L 189.154402 109.092109 
L 191.628045 108.833617 
L 194.101687 99.833213 
L 196.575329 109.914619 
L 199.048972 112.977702 
L 201.522614 109.031469 
L 203.996257 97.161469 
L 206.469899 98.623955 
L 208.943542 119.952472 
L 211.417184 104.770496 
L 213.890827 97.776822 
L 216.364469 104.224704 
L 218.838112 102.241551 
L 221.311754 100.276599 
L 223.785397 99.300804 
L 226.259039 98.301446 
L 228.732682 102.504547 
L 231.206324 104.157791 
L 233.679966 93.153237 
L 236.153609 102.117006 
L 238.627251 89.640744 
L 241.100894 93.763498 
L 243.574536 93.140597 
L 246.048179 87.133825 
L 248.521821 98.73989 
L 250.995464 94.217609 
L 253.469106 88.030224 
L 255.942749 83.238361 
L 258.416391 82.028878 
L 260.890034 86.356703 
L 263.363676 82.52222 
L 265.837318 71.614658 
L 268.310961 80.628521 
L 270.784603 81.579235 
L 273.258246 85.940203 
L 275.731888 90.284782 
L 278.205531 75.613339 
L 280.679173 76.510314 
L 283.152816 79.199131 
L 285.626458 74.686071 
L 288.100101 74.961858 
L 290.573743 69.982376 
L 293.047386 71.651532 
L 295.521028 68.44558 
L 297.994671 71.795432 
L 300.468313 71.304583 
L 302.941955 70.404733 
L 305.415598 66.942444 
L 307.88924 71.980008 
L 310.362883 65.48779 
L 312.836525 64.746723 
L 315.310168 65.44988 
L 317.78381 64.280261 
L 320.257453 65.599981 
L 322.731095 63.595828 
L 325.204738 66.233267 
L 327.67838 59.906558 
L 330.152023 61.344364 
L 332.625665 67.93643 
L 335.099308 62.609036 
L 337.57295 62.861618 
L 340.046592 59.905969 
L 342.520235 57.272063 
L 344.993877 56.215738 
L 347.46752 60.550445 
L 349.941162 56.272878 
L 352.414805 55.839822 
L 354.888447 57.782467 
L 357.36209 54.605728 
L 359.835732 56.334123 
L 362.309375 54.021957 
L 364.783017 51.438323 
L 367.25666 54.564105 
L 369.730302 55.142673 
L 372.203944 51.74602 
L 374.677587 57.000513 
L 377.151229 51.064813 
L 379.624872 54.694051 
L 382.098514 53.320599 
L 384.572157 52.200371 
L 387.045799 52.693045 
L 389.519442 52.009753 
L 391.993084 50.838177 
L 394.466727 52.064104 
L 396.940369 50.049891 
L 399.414012 50.505253 
L 401.887654 52.134105 
L 404.361297 51.138654 
L 406.834939 50.569596 
L 409.308581 48.844101 
L 411.782224 49.834864 
L 414.255866 50.066051 
L 416.729509 50.239835 
L 419.203151 48.892747 
L 421.676794 49.787456 
L 424.150436 49.487633 
L 426.624079 48.978818 
L 429.097721 49.965792 
L 431.571364 49.292503 
L 431.571364 43.607292 
L 431.571364 43.607292 
L 429.097721 44.213697 
L 426.624079 44.469417 
L 424.150436 44.326229 
L 421.676794 43.843593 
L 419.203151 44.189861 
L 416.729509 44.244343 
L 414.255866 44.783755 
L 411.782224 44.100874 
L 409.308581 43.507253 
L 406.834939 46.352097 
L 404.361297 43.893965 
L 401.887654 44.848526 
L 399.414012 43.978925 
L 396.940369 44.068661 
L 394.466727 46.198222 
L 391.993084 44.681945 
L 389.519442 46.557262 
L 387.045799 47.092727 
L 384.572157 47.768215 
L 382.098514 47.68393 
L 379.624872 45.944851 
L 377.151229 45.917818 
L 374.677587 47.782164 
L 372.203944 48.527255 
L 369.730302 46.593111 
L 367.25666 50.340447 
L 364.783017 46.519313 
L 362.309375 47.470075 
L 359.835732 52.470452 
L 357.36209 47.069117 
L 354.888447 47.365836 
L 352.414805 51.441307 
L 349.941162 52.775448 
L 347.46752 52.215091 
L 344.993877 53.259153 
L 342.520235 55.310659 
L 340.046592 54.443951 
L 337.57295 54.961759 
L 335.099308 57.347166 
L 332.625665 59.332315 
L 330.152023 53.675873 
L 327.67838 55.540243 
L 325.204738 58.415151 
L 322.731095 57.396318 
L 320.257453 61.120323 
L 317.78381 56.59001 
L 315.310168 56.273521 
L 312.836525 57.829807 
L 310.362883 59.587193 
L 307.88924 62.540342 
L 305.415598 61.118493 
L 302.941955 60.459346 
L 300.468313 65.71422 
L 297.994671 69.184331 
L 295.521028 61.687245 
L 293.047386 62.198501 
L 290.573743 63.319217 
L 288.100101 68.028854 
L 285.626458 66.415567 
L 283.152816 67.752542 
L 280.679173 66.053833 
L 278.205531 66.280492 
L 275.731888 76.045129 
L 273.258246 68.628702 
L 270.784603 67.688077 
L 268.310961 72.234124 
L 265.837318 66.92759 
L 263.363676 73.204505 
L 260.890034 75.829434 
L 258.416391 78.633813 
L 255.942749 79.130589 
L 253.469106 78.909066 
L 250.995464 76.804517 
L 248.521821 85.627627 
L 246.048179 82.547669 
L 243.574536 76.601834 
L 241.100894 80.975837 
L 238.627251 78.456365 
L 236.153609 84.870839 
L 233.679966 88.959579 
L 231.206324 89.655093 
L 228.732682 88.322382 
L 226.259039 83.323868 
L 223.785397 87.016724 
L 221.311754 88.112816 
L 218.838112 85.477548 
L 216.364469 90.746 
L 213.890827 86.834446 
L 211.417184 89.347078 
L 208.943542 89.399566 
L 206.469899 92.507664 
L 203.996257 83.976342 
L 201.522614 92.276772 
L 199.048972 84.064889 
L 196.575329 96.817091 
L 194.101687 89.774959 
L 191.628045 98.141845 
L 189.154402 93.495827 
L 186.68076 94.909901 
L 184.207117 91.593159 
L 181.733475 98.775431 
L 179.259832 91.468253 
L 176.78619 92.0313 
L 174.312547 95.285586 
L 171.838905 97.533401 
L 169.365262 99.376302 
L 166.89162 97.114504 
L 164.417977 97.074845 
L 161.944335 95.774711 
L 159.470692 103.295941 
L 156.99705 95.887161 
L 154.523408 100.583042 
L 152.049765 99.681324 
L 149.576123 95.849864 
L 147.10248 100.682574 
L 144.628838 102.311115 
L 142.155195 111.421229 
L 139.681553 95.136004 
L 137.20791 107.354464 
L 134.734268 113.433297 
L 132.260625 113.716404 
L 129.786983 112.367145 
L 127.31334 104.216732 
L 124.839698 110.956492 
L 122.366056 114.761774 
L 119.892413 112.159765 
L 117.418771 118.783453 
L 114.945128 114.665969 
L 112.471486 105.787137 
L 109.997843 115.723601 
L 107.524201 109.110061 
L 105.050558 120.600007 
L 102.576916 124.389758 
L 100.103273 112.560163 
L 97.629631 118.739138 
L 95.155988 122.666252 
L 92.682346 117.045201 
L 90.208703 108.959519 
L 87.735061 116.855391 
L 85.261419 123.627842 
L 82.787776 125.009544 
L 80.314134 137.949203 
L 77.840491 141.032182 
L 75.366849 145.696372 
L 72.893206 170.057755 
L 70.419564 176.119634 
L 67.945921 212.526761 
L 65.472279 240.118193 
L 62.998636 277.676375 
z
" style="fill:#d62728;fill-opacity:0.25;"/>
   </g>
   <g id="matplotlib.axis_1">
    <g id="xtick_1">
     <g id="line2d_1">
      <defs>
       <path d="M 0 0 
L 0 3.5 
" id="mb6dda61df1" style="stroke:#000000;stroke-width:0.8;"/>
      </defs>
      <g>
       <use style="stroke:#000000;stroke-width:0.8;" x="62.998636" xlink:href="#mb6dda61df1" y="303.64"/>
      </g>
     </g>
     <g id="text_1">
      <!-- 0 -->
      <g transform="translate(59.817386 318.238437)scale(0.1 -0.1)">
       <defs>
        <path d="M 31.78125 66.40625 
Q 24.171875 66.40625 20.328125 58.90625 
Q 16.5 51.421875 16.5 36.375 
Q 16.5 21.390625 20.328125 13.890625 
Q 24.171875 6.390625 31.78125 6.390625 
Q 39.453125 6.390625 43.28125 13.890625 
Q 47.125 21.390625 47.125 36.375 
Q 47.125 51.421875 43.28125 58.90625 
Q 39.453125 66.40625 31.78125 66.40625 
z
M 31.78125 74.21875 
Q 44.046875 74.21875 50.515625 64.515625 
Q 56.984375 54.828125 56.984375 36.375 
Q 56.984375 17.96875 50.515625 8.265625 
Q 44.046875 -1.421875 31.78125 -1.421875 
Q 19.53125 -1.421875 13.0625 8.265625 
Q 6.59375 17.96875 6.59375 36.375 
Q 6.59375 54.828125 13.0625 64.515625 
Q 19.53125 74.21875 31.78125 74.21875 
z
" id="DejaVuSans-48"/>
       </defs>
       <use xlink:href="#DejaVuSans-48"/>
      </g>
     </g>
    </g>
    <g id="xtick_2">
     <g id="line2d_2">
      <g>
       <use style="stroke:#000000;stroke-width:0.8;" x="112.471486" xlink:href="#mb6dda61df1" y="303.64"/>
      </g>
     </g>
     <g id="text_2">
      <!-- 20 -->
      <g transform="translate(106.108986 318.238437)scale(0.1 -0.1)">
       <defs>
        <path d="M 19.1875 8.296875 
L 53.609375 8.296875 
L 53.609375 0 
L 7.328125 0 
L 7.328125 8.296875 
Q 12.9375 14.109375 22.625 23.890625 
Q 32.328125 33.6875 34.8125 36.53125 
Q 39.546875 41.84375 41.421875 45.53125 
Q 43.3125 49.21875 43.3125 52.78125 
Q 43.3125 58.59375 39.234375 62.25 
Q 35.15625 65.921875 28.609375 65.921875 
Q 23.96875 65.921875 18.8125 64.3125 
Q 13.671875 62.703125 7.8125 59.421875 
L 7.8125 69.390625 
Q 13.765625 71.78125 18.9375 73 
Q 24.125 74.21875 28.421875 74.21875 
Q 39.75 74.21875 46.484375 68.546875 
Q 53.21875 62.890625 53.21875 53.421875 
Q 53.21875 48.921875 51.53125 44.890625 
Q 49.859375 40.875 45.40625 35.40625 
Q 44.1875 33.984375 37.640625 27.21875 
Q 31.109375 20.453125 19.1875 8.296875 
z
" id="DejaVuSans-50"/>
       </defs>
       <use xlink:href="#DejaVuSans-50"/>
       <use x="63.623047" xlink:href="#DejaVuSans-48"/>
      </g>
     </g>
    </g>
    <g id="xtick_3">
     <g id="line2d_3">
      <g>
       <use style="stroke:#000000;stroke-width:0.8;" x="161.944335" xlink:href="#mb6dda61df1" y="303.64"/>
      </g>
     </g>
     <g id="text_3">
      <!-- 40 -->
      <g transform="translate(155.581835 318.238437)scale(0.1 -0.1)">
       <defs>
        <path d="M 37.796875 64.3125 
L 12.890625 25.390625 
L 37.796875 25.390625 
z
M 35.203125 72.90625 
L 47.609375 72.90625 
L 47.609375 25.390625 
L 58.015625 25.390625 
L 58.015625 17.1875 
L 47.609375 17.1875 
L 47.609375 0 
L 37.796875 0 
L 37.796875 17.1875 
L 4.890625 17.1875 
L 4.890625 26.703125 
z
" id="DejaVuSans-52"/>
       </defs>
       <use xlink:href="#DejaVuSans-52"/>
       <use x="63.623047" xlink:href="#DejaVuSans-48"/>
      </g>
     </g>
    </g>
    <g id="xtick_4">
     <g id="line2d_4">
      <g>
       <use style="stroke:#000000;stroke-width:0.8;" x="211.417184" xlink:href="#mb6dda61df1" y="303.64"/>
      </g>
     </g>
     <g id="text_4">
      <!-- 60 -->
      <g transform="translate(205.054684 318.238437)scale(0.1 -0.1)">
       <defs>
        <path d="M 33.015625 40.375 
Q 26.375 40.375 22.484375 35.828125 
Q 18.609375 31.296875 18.609375 23.390625 
Q 18.609375 15.53125 22.484375 10.953125 
Q 26.375 6.390625 33.015625 6.390625 
Q 39.65625 6.390625 43.53125 10.953125 
Q 47.40625 15.53125 47.40625 23.390625 
Q 47.40625 31.296875 43.53125 35.828125 
Q 39.65625 40.375 33.015625 40.375 
z
M 52.59375 71.296875 
L 52.59375 62.3125 
Q 48.875 64.0625 45.09375 64.984375 
Q 41.3125 65.921875 37.59375 65.921875 
Q 27.828125 65.921875 22.671875 59.328125 
Q 17.53125 52.734375 16.796875 39.40625 
Q 19.671875 43.65625 24.015625 45.921875 
Q 28.375 48.1875 33.59375 48.1875 
Q 44.578125 48.1875 50.953125 41.515625 
Q 57.328125 34.859375 57.328125 23.390625 
Q 57.328125 12.15625 50.6875 5.359375 
Q 44.046875 -1.421875 33.015625 -1.421875 
Q 20.359375 -1.421875 13.671875 8.265625 
Q 6.984375 17.96875 6.984375 36.375 
Q 6.984375 53.65625 15.1875 63.9375 
Q 23.390625 74.21875 37.203125 74.21875 
Q 40.921875 74.21875 44.703125 73.484375 
Q 48.484375 72.75 52.59375 71.296875 
z
" id="DejaVuSans-54"/>
       </defs>
       <use xlink:href="#DejaVuSans-54"/>
       <use x="63.623047" xlink:href="#DejaVuSans-48"/>
      </g>
     </g>
    </g>
    <g id="xtick_5">
     <g id="line2d_5">
      <g>
       <use style="stroke:#000000;stroke-width:0.8;" x="260.890034" xlink:href="#mb6dda61df1" y="303.64"/>
      </g>
     </g>
     <g id="text_5">
      <!-- 80 -->
      <g transform="translate(254.527534 318.238437)scale(0.1 -0.1)">
       <defs>
        <path d="M 31.78125 34.625 
Q 24.75 34.625 20.71875 30.859375 
Q 16.703125 27.09375 16.703125 20.515625 
Q 16.703125 13.921875 20.71875 10.15625 
Q 24.75 6.390625 31.78125 6.390625 
Q 38.8125 6.390625 42.859375 10.171875 
Q 46.921875 13.96875 46.921875 20.515625 
Q 46.921875 27.09375 42.890625 30.859375 
Q 38.875 34.625 31.78125 34.625 
z
M 21.921875 38.8125 
Q 15.578125 40.375 12.03125 44.71875 
Q 8.5 49.078125 8.5 55.328125 
Q 8.5 64.0625 14.71875 69.140625 
Q 20.953125 74.21875 31.78125 74.21875 
Q 42.671875 74.21875 48.875 69.140625 
Q 55.078125 64.0625 55.078125 55.328125 
Q 55.078125 49.078125 51.53125 44.71875 
Q 48 40.375 41.703125 38.8125 
Q 48.828125 37.15625 52.796875 32.3125 
Q 56.78125 27.484375 56.78125 20.515625 
Q 56.78125 9.90625 50.3125 4.234375 
Q 43.84375 -1.421875 31.78125 -1.421875 
Q 19.734375 -1.421875 13.25 4.234375 
Q 6.78125 9.90625 6.78125 20.515625 
Q 6.78125 27.484375 10.78125 32.3125 
Q 14.796875 37.15625 21.921875 38.8125 
z
M 18.3125 54.390625 
Q 18.3125 48.734375 21.84375 45.5625 
Q 25.390625 42.390625 31.78125 42.390625 
Q 38.140625 42.390625 41.71875 45.5625 
Q 45.3125 48.734375 45.3125 54.390625 
Q 45.3125 60.0625 41.71875 63.234375 
Q 38.140625 66.40625 31.78125 66.40625 
Q 25.390625 66.40625 21.84375 63.234375 
Q 18.3125 60.0625 18.3125 54.390625 
z
" id="DejaVuSans-56"/>
       </defs>
       <use xlink:href="#DejaVuSans-56"/>
       <use x="63.623047" xlink:href="#DejaVuSans-48"/>
      </g>
     </g>
    </g>
    <g id="xtick_6">
     <g id="line2d_6">
      <g>
       <use style="stroke:#000000;stroke-width:0.8;" x="310.362883" xlink:href="#mb6dda61df1" y="303.64"/>
      </g>
     </g>
     <g id="text_6">
      <!-- 100 -->
      <g transform="translate(300.819133 318.238437)scale(0.1 -0.1)">
       <defs>
        <path d="M 12.40625 8.296875 
L 28.515625 8.296875 
L 28.515625 63.921875 
L 10.984375 60.40625 
L 10.984375 69.390625 
L 28.421875 72.90625 
L 38.28125 72.90625 
L 38.28125 8.296875 
L 54.390625 8.296875 
L 54.390625 0 
L 12.40625 0 
z
" id="DejaVuSans-49"/>
       </defs>
       <use xlink:href="#DejaVuSans-49"/>
       <use x="63.623047" xlink:href="#DejaVuSans-48"/>
       <use x="127.246094" xlink:href="#DejaVuSans-48"/>
      </g>
     </g>
    </g>
    <g id="xtick_7">
     <g id="line2d_7">
      <g>
       <use style="stroke:#000000;stroke-width:0.8;" x="359.835732" xlink:href="#mb6dda61df1" y="303.64"/>
      </g>
     </g>
     <g id="text_7">
      <!-- 120 -->
      <g transform="translate(350.291982 318.238437)scale(0.1 -0.1)">
       <use xlink:href="#DejaVuSans-49"/>
       <use x="63.623047" xlink:href="#DejaVuSans-50"/>
       <use x="127.246094" xlink:href="#DejaVuSans-48"/>
      </g>
     </g>
    </g>
    <g id="xtick_8">
     <g id="line2d_8">
      <g>
       <use style="stroke:#000000;stroke-width:0.8;" x="409.308581" xlink:href="#mb6dda61df1" y="303.64"/>
      </g>
     </g>
     <g id="text_8">
      <!-- 140 -->
      <g transform="translate(399.764831 318.238437)scale(0.1 -0.1)">
       <use xlink:href="#DejaVuSans-49"/>
       <use x="63.623047" xlink:href="#DejaVuSans-52"/>
       <use x="127.246094" xlink:href="#DejaVuSans-48"/>
      </g>
     </g>
    </g>
    <g id="text_9">
     <!-- Epochs -->
     <g transform="translate(229.369375 331.916562)scale(0.1 -0.1)">
      <defs>
       <path d="M 9.8125 72.90625 
L 55.90625 72.90625 
L 55.90625 64.59375 
L 19.671875 64.59375 
L 19.671875 43.015625 
L 54.390625 43.015625 
L 54.390625 34.71875 
L 19.671875 34.71875 
L 19.671875 8.296875 
L 56.78125 8.296875 
L 56.78125 0 
L 9.8125 0 
z
" id="DejaVuSans-69"/>
       <path d="M 18.109375 8.203125 
L 18.109375 -20.796875 
L 9.078125 -20.796875 
L 9.078125 54.6875 
L 18.109375 54.6875 
L 18.109375 46.390625 
Q 20.953125 51.265625 25.265625 53.625 
Q 29.59375 56 35.59375 56 
Q 45.5625 56 51.78125 48.09375 
Q 58.015625 40.1875 58.015625 27.296875 
Q 58.015625 14.40625 51.78125 6.484375 
Q 45.5625 -1.421875 35.59375 -1.421875 
Q 29.59375 -1.421875 25.265625 0.953125 
Q 20.953125 3.328125 18.109375 8.203125 
z
M 48.6875 27.296875 
Q 48.6875 37.203125 44.609375 42.84375 
Q 40.53125 48.484375 33.40625 48.484375 
Q 26.265625 48.484375 22.1875 42.84375 
Q 18.109375 37.203125 18.109375 27.296875 
Q 18.109375 17.390625 22.1875 11.75 
Q 26.265625 6.109375 33.40625 6.109375 
Q 40.53125 6.109375 44.609375 11.75 
Q 48.6875 17.390625 48.6875 27.296875 
z
" id="DejaVuSans-112"/>
       <path d="M 30.609375 48.390625 
Q 23.390625 48.390625 19.1875 42.75 
Q 14.984375 37.109375 14.984375 27.296875 
Q 14.984375 17.484375 19.15625 11.84375 
Q 23.34375 6.203125 30.609375 6.203125 
Q 37.796875 6.203125 41.984375 11.859375 
Q 46.1875 17.53125 46.1875 27.296875 
Q 46.1875 37.015625 41.984375 42.703125 
Q 37.796875 48.390625 30.609375 48.390625 
z
M 30.609375 56 
Q 42.328125 56 49.015625 48.375 
Q 55.71875 40.765625 55.71875 27.296875 
Q 55.71875 13.875 49.015625 6.21875 
Q 42.328125 -1.421875 30.609375 -1.421875 
Q 18.84375 -1.421875 12.171875 6.21875 
Q 5.515625 13.875 5.515625 27.296875 
Q 5.515625 40.765625 12.171875 48.375 
Q 18.84375 56 30.609375 56 
z
" id="DejaVuSans-111"/>
       <path d="M 48.78125 52.59375 
L 48.78125 44.1875 
Q 44.96875 46.296875 41.140625 47.34375 
Q 37.3125 48.390625 33.40625 48.390625 
Q 24.65625 48.390625 19.8125 42.84375 
Q 14.984375 37.3125 14.984375 27.296875 
Q 14.984375 17.28125 19.8125 11.734375 
Q 24.65625 6.203125 33.40625 6.203125 
Q 37.3125 6.203125 41.140625 7.25 
Q 44.96875 8.296875 48.78125 10.40625 
L 48.78125 2.09375 
Q 45.015625 0.34375 40.984375 -0.53125 
Q 36.96875 -1.421875 32.421875 -1.421875 
Q 20.0625 -1.421875 12.78125 6.34375 
Q 5.515625 14.109375 5.515625 27.296875 
Q 5.515625 40.671875 12.859375 48.328125 
Q 20.21875 56 33.015625 56 
Q 37.15625 56 41.109375 55.140625 
Q 45.0625 54.296875 48.78125 52.59375 
z
" id="DejaVuSans-99"/>
       <path d="M 54.890625 33.015625 
L 54.890625 0 
L 45.90625 0 
L 45.90625 32.71875 
Q 45.90625 40.484375 42.875 44.328125 
Q 39.84375 48.1875 33.796875 48.1875 
Q 26.515625 48.1875 22.3125 43.546875 
Q 18.109375 38.921875 18.109375 30.90625 
L 18.109375 0 
L 9.078125 0 
L 9.078125 75.984375 
L 18.109375 75.984375 
L 18.109375 46.1875 
Q 21.34375 51.125 25.703125 53.5625 
Q 30.078125 56 35.796875 56 
Q 45.21875 56 50.046875 50.171875 
Q 54.890625 44.34375 54.890625 33.015625 
z
" id="DejaVuSans-104"/>
       <path d="M 44.28125 53.078125 
L 44.28125 44.578125 
Q 40.484375 46.53125 36.375 47.5 
Q 32.28125 48.484375 27.875 48.484375 
Q 21.1875 48.484375 17.84375 46.4375 
Q 14.5 44.390625 14.5 40.28125 
Q 14.5 37.15625 16.890625 35.375 
Q 19.28125 33.59375 26.515625 31.984375 
L 29.59375 31.296875 
Q 39.15625 29.25 43.1875 25.515625 
Q 47.21875 21.78125 47.21875 15.09375 
Q 47.21875 7.46875 41.1875 3.015625 
Q 35.15625 -1.421875 24.609375 -1.421875 
Q 20.21875 -1.421875 15.453125 -0.5625 
Q 10.6875 0.296875 5.421875 2 
L 5.421875 11.28125 
Q 10.40625 8.6875 15.234375 7.390625 
Q 20.0625 6.109375 24.8125 6.109375 
Q 31.15625 6.109375 34.5625 8.28125 
Q 37.984375 10.453125 37.984375 14.40625 
Q 37.984375 18.0625 35.515625 20.015625 
Q 33.0625 21.96875 24.703125 23.78125 
L 21.578125 24.515625 
Q 13.234375 26.265625 9.515625 29.90625 
Q 5.8125 33.546875 5.8125 39.890625 
Q 5.8125 47.609375 11.28125 51.796875 
Q 16.75 56 26.8125 56 
Q 31.78125 56 36.171875 55.265625 
Q 40.578125 54.546875 44.28125 53.078125 
z
" id="DejaVuSans-115"/>
      </defs>
      <use xlink:href="#DejaVuSans-69"/>
      <use x="63.183594" xlink:href="#DejaVuSans-112"/>
      <use x="126.660156" xlink:href="#DejaVuSans-111"/>
      <use x="187.841797" xlink:href="#DejaVuSans-99"/>
      <use x="242.822266" xlink:href="#DejaVuSans-104"/>
      <use x="306.201172" xlink:href="#DejaVuSans-115"/>
     </g>
    </g>
   </g>
   <g id="matplotlib.axis_2">
    <g id="ytick_1">
     <g id="line2d_9">
      <defs>
       <path d="M 0 0 
L -3.5 0 
" id="ma1326c32fd" style="stroke:#000000;stroke-width:0.8;"/>
      </defs>
      <g>
       <use style="stroke:#000000;stroke-width:0.8;" x="44.57" xlink:href="#ma1326c32fd" y="256.929253"/>
      </g>
     </g>
     <g id="text_10">
      <!-- 20 -->
      <g transform="translate(24.845 260.728472)scale(0.1 -0.1)">
       <use xlink:href="#DejaVuSans-50"/>
       <use x="63.623047" xlink:href="#DejaVuSans-48"/>
      </g>
     </g>
    </g>
    <g id="ytick_2">
     <g id="line2d_10">
      <g>
       <use style="stroke:#000000;stroke-width:0.8;" x="44.57" xlink:href="#ma1326c32fd" y="194.528888"/>
      </g>
     </g>
     <g id="text_11">
      <!-- 40 -->
      <g transform="translate(24.845 198.328107)scale(0.1 -0.1)">
       <use xlink:href="#DejaVuSans-52"/>
       <use x="63.623047" xlink:href="#DejaVuSans-48"/>
      </g>
     </g>
    </g>
    <g id="ytick_3">
     <g id="line2d_11">
      <g>
       <use style="stroke:#000000;stroke-width:0.8;" x="44.57" xlink:href="#ma1326c32fd" y="132.128523"/>
      </g>
     </g>
     <g id="text_12">
      <!-- 60 -->
      <g transform="translate(24.845 135.927742)scale(0.1 -0.1)">
       <use xlink:href="#DejaVuSans-54"/>
       <use x="63.623047" xlink:href="#DejaVuSans-48"/>
      </g>
     </g>
    </g>
    <g id="ytick_4">
     <g id="line2d_12">
      <g>
       <use style="stroke:#000000;stroke-width:0.8;" x="44.57" xlink:href="#ma1326c32fd" y="69.728158"/>
      </g>
     </g>
     <g id="text_13">
      <!-- 80 -->
      <g transform="translate(24.845 73.527377)scale(0.1 -0.1)">
       <use xlink:href="#DejaVuSans-56"/>
       <use x="63.623047" xlink:href="#DejaVuSans-48"/>
      </g>
     </g>
    </g>
    <g id="text_14">
     <!-- Test Accuracy (%) -->
     <g transform="translate(18.765313 201.723906)rotate(-90)scale(0.1 -0.1)">
      <defs>
       <path d="M -0.296875 72.90625 
L 61.375 72.90625 
L 61.375 64.59375 
L 35.5 64.59375 
L 35.5 0 
L 25.59375 0 
L 25.59375 64.59375 
L -0.296875 64.59375 
z
" id="DejaVuSans-84"/>
       <path d="M 56.203125 29.59375 
L 56.203125 25.203125 
L 14.890625 25.203125 
Q 15.484375 15.921875 20.484375 11.0625 
Q 25.484375 6.203125 34.421875 6.203125 
Q 39.59375 6.203125 44.453125 7.46875 
Q 49.3125 8.734375 54.109375 11.28125 
L 54.109375 2.78125 
Q 49.265625 0.734375 44.1875 -0.34375 
Q 39.109375 -1.421875 33.890625 -1.421875 
Q 20.796875 -1.421875 13.15625 6.1875 
Q 5.515625 13.8125 5.515625 26.8125 
Q 5.515625 40.234375 12.765625 48.109375 
Q 20.015625 56 32.328125 56 
Q 43.359375 56 49.78125 48.890625 
Q 56.203125 41.796875 56.203125 29.59375 
z
M 47.21875 32.234375 
Q 47.125 39.59375 43.09375 43.984375 
Q 39.0625 48.390625 32.421875 48.390625 
Q 24.90625 48.390625 20.390625 44.140625 
Q 15.875 39.890625 15.1875 32.171875 
z
" id="DejaVuSans-101"/>
       <path d="M 18.3125 70.21875 
L 18.3125 54.6875 
L 36.8125 54.6875 
L 36.8125 47.703125 
L 18.3125 47.703125 
L 18.3125 18.015625 
Q 18.3125 11.328125 20.140625 9.421875 
Q 21.96875 7.515625 27.59375 7.515625 
L 36.8125 7.515625 
L 36.8125 0 
L 27.59375 0 
Q 17.1875 0 13.234375 3.875 
Q 9.28125 7.765625 9.28125 18.015625 
L 9.28125 47.703125 
L 2.6875 47.703125 
L 2.6875 54.6875 
L 9.28125 54.6875 
L 9.28125 70.21875 
z
" id="DejaVuSans-116"/>
       <path id="DejaVuSans-32"/>
       <path d="M 34.1875 63.1875 
L 20.796875 26.90625 
L 47.609375 26.90625 
z
M 28.609375 72.90625 
L 39.796875 72.90625 
L 67.578125 0 
L 57.328125 0 
L 50.6875 18.703125 
L 17.828125 18.703125 
L 11.1875 0 
L 0.78125 0 
z
" id="DejaVuSans-65"/>
       <path d="M 8.5 21.578125 
L 8.5 54.6875 
L 17.484375 54.6875 
L 17.484375 21.921875 
Q 17.484375 14.15625 20.5 10.265625 
Q 23.53125 6.390625 29.59375 6.390625 
Q 36.859375 6.390625 41.078125 11.03125 
Q 45.3125 15.671875 45.3125 23.6875 
L 45.3125 54.6875 
L 54.296875 54.6875 
L 54.296875 0 
L 45.3125 0 
L 45.3125 8.40625 
Q 42.046875 3.421875 37.71875 1 
Q 33.40625 -1.421875 27.6875 -1.421875 
Q 18.265625 -1.421875 13.375 4.4375 
Q 8.5 10.296875 8.5 21.578125 
z
M 31.109375 56 
z
" id="DejaVuSans-117"/>
       <path d="M 41.109375 46.296875 
Q 39.59375 47.171875 37.8125 47.578125 
Q 36.03125 48 33.890625 48 
Q 26.265625 48 22.1875 43.046875 
Q 18.109375 38.09375 18.109375 28.8125 
L 18.109375 0 
L 9.078125 0 
L 9.078125 54.6875 
L 18.109375 54.6875 
L 18.109375 46.1875 
Q 20.953125 51.171875 25.484375 53.578125 
Q 30.03125 56 36.53125 56 
Q 37.453125 56 38.578125 55.875 
Q 39.703125 55.765625 41.0625 55.515625 
z
" id="DejaVuSans-114"/>
       <path d="M 34.28125 27.484375 
Q 23.390625 27.484375 19.1875 25 
Q 14.984375 22.515625 14.984375 16.5 
Q 14.984375 11.71875 18.140625 8.90625 
Q 21.296875 6.109375 26.703125 6.109375 
Q 34.1875 6.109375 38.703125 11.40625 
Q 43.21875 16.703125 43.21875 25.484375 
L 43.21875 27.484375 
z
M 52.203125 31.203125 
L 52.203125 0 
L 43.21875 0 
L 43.21875 8.296875 
Q 40.140625 3.328125 35.546875 0.953125 
Q 30.953125 -1.421875 24.3125 -1.421875 
Q 15.921875 -1.421875 10.953125 3.296875 
Q 6 8.015625 6 15.921875 
Q 6 25.140625 12.171875 29.828125 
Q 18.359375 34.515625 30.609375 34.515625 
L 43.21875 34.515625 
L 43.21875 35.40625 
Q 43.21875 41.609375 39.140625 45 
Q 35.0625 48.390625 27.6875 48.390625 
Q 23 48.390625 18.546875 47.265625 
Q 14.109375 46.140625 10.015625 43.890625 
L 10.015625 52.203125 
Q 14.9375 54.109375 19.578125 55.046875 
Q 24.21875 56 28.609375 56 
Q 40.484375 56 46.34375 49.84375 
Q 52.203125 43.703125 52.203125 31.203125 
z
" id="DejaVuSans-97"/>
       <path d="M 32.171875 -5.078125 
Q 28.375 -14.84375 24.75 -17.8125 
Q 21.140625 -20.796875 15.09375 -20.796875 
L 7.90625 -20.796875 
L 7.90625 -13.28125 
L 13.1875 -13.28125 
Q 16.890625 -13.28125 18.9375 -11.515625 
Q 21 -9.765625 23.484375 -3.21875 
L 25.09375 0.875 
L 2.984375 54.6875 
L 12.5 54.6875 
L 29.59375 11.921875 
L 46.6875 54.6875 
L 56.203125 54.6875 
z
" id="DejaVuSans-121"/>
       <path d="M 31 75.875 
Q 24.46875 64.65625 21.28125 53.65625 
Q 18.109375 42.671875 18.109375 31.390625 
Q 18.109375 20.125 21.3125 9.0625 
Q 24.515625 -2 31 -13.1875 
L 23.1875 -13.1875 
Q 15.875 -1.703125 12.234375 9.375 
Q 8.59375 20.453125 8.59375 31.390625 
Q 8.59375 42.28125 12.203125 53.3125 
Q 15.828125 64.359375 23.1875 75.875 
z
" id="DejaVuSans-40"/>
       <path d="M 72.703125 32.078125 
Q 68.453125 32.078125 66.03125 28.46875 
Q 63.625 24.859375 63.625 18.40625 
Q 63.625 12.0625 66.03125 8.421875 
Q 68.453125 4.78125 72.703125 4.78125 
Q 76.859375 4.78125 79.265625 8.421875 
Q 81.6875 12.0625 81.6875 18.40625 
Q 81.6875 24.8125 79.265625 28.4375 
Q 76.859375 32.078125 72.703125 32.078125 
z
M 72.703125 38.28125 
Q 80.421875 38.28125 84.953125 32.90625 
Q 89.5 27.546875 89.5 18.40625 
Q 89.5 9.28125 84.9375 3.921875 
Q 80.375 -1.421875 72.703125 -1.421875 
Q 64.890625 -1.421875 60.34375 3.921875 
Q 55.8125 9.28125 55.8125 18.40625 
Q 55.8125 27.59375 60.375 32.9375 
Q 64.9375 38.28125 72.703125 38.28125 
z
M 22.3125 68.015625 
Q 18.109375 68.015625 15.6875 64.375 
Q 13.28125 60.75 13.28125 54.390625 
Q 13.28125 47.953125 15.671875 44.328125 
Q 18.0625 40.71875 22.3125 40.71875 
Q 26.5625 40.71875 28.96875 44.328125 
Q 31.390625 47.953125 31.390625 54.390625 
Q 31.390625 60.6875 28.953125 64.34375 
Q 26.515625 68.015625 22.3125 68.015625 
z
M 66.40625 74.21875 
L 74.21875 74.21875 
L 28.609375 -1.421875 
L 20.796875 -1.421875 
z
M 22.3125 74.21875 
Q 30.03125 74.21875 34.609375 68.875 
Q 39.203125 63.53125 39.203125 54.390625 
Q 39.203125 45.171875 34.640625 39.84375 
Q 30.078125 34.515625 22.3125 34.515625 
Q 14.546875 34.515625 10.03125 39.859375 
Q 5.515625 45.21875 5.515625 54.390625 
Q 5.515625 63.484375 10.046875 68.84375 
Q 14.59375 74.21875 22.3125 74.21875 
z
" id="DejaVuSans-37"/>
       <path d="M 8.015625 75.875 
L 15.828125 75.875 
Q 23.140625 64.359375 26.78125 53.3125 
Q 30.421875 42.28125 30.421875 31.390625 
Q 30.421875 20.453125 26.78125 9.375 
Q 23.140625 -1.703125 15.828125 -13.1875 
L 8.015625 -13.1875 
Q 14.5 -2 17.703125 9.0625 
Q 20.90625 20.125 20.90625 31.390625 
Q 20.90625 42.671875 17.703125 53.65625 
Q 14.5 64.65625 8.015625 75.875 
z
" id="DejaVuSans-41"/>
      </defs>
      <use xlink:href="#DejaVuSans-84"/>
      <use x="44.083984" xlink:href="#DejaVuSans-101"/>
      <use x="105.607422" xlink:href="#DejaVuSans-115"/>
      <use x="157.707031" xlink:href="#DejaVuSans-116"/>
      <use x="196.916016" xlink:href="#DejaVuSans-32"/>
      <use x="228.703125" xlink:href="#DejaVuSans-65"/>
      <use x="295.361328" xlink:href="#DejaVuSans-99"/>
      <use x="350.341797" xlink:href="#DejaVuSans-99"/>
      <use x="405.322266" xlink:href="#DejaVuSans-117"/>
      <use x="468.701172" xlink:href="#DejaVuSans-114"/>
      <use x="509.814453" xlink:href="#DejaVuSans-97"/>
      <use x="571.09375" xlink:href="#DejaVuSans-99"/>
      <use x="626.074219" xlink:href="#DejaVuSans-121"/>
      <use x="685.253906" xlink:href="#DejaVuSans-32"/>
      <use x="717.041016" xlink:href="#DejaVuSans-40"/>
      <use x="756.054688" xlink:href="#DejaVuSans-37"/>
      <use x="851.074219" xlink:href="#DejaVuSans-41"/>
     </g>
    </g>
   </g>
   <g id="line2d_13">
    <path clip-path="url(#p855c74b098)" d="M 62.998636 273.382474 
L 65.472279 252.785479 
L 67.945921 237.200622 
L 70.419564 223.169681 
L 72.893206 194.757405 
L 75.366849 151.26301 
L 77.840491 123.353472 
L 80.314134 114.090918 
L 82.787776 106.412748 
L 85.261419 81.671978 
L 87.735061 77.771955 
L 90.208703 82.860266 
L 92.682346 76.461791 
L 95.155988 74.603187 
L 97.629631 71.09926 
L 100.103273 60.8617 
L 102.576916 66.071887 
L 105.050558 58.363248 
L 107.524201 52.238994 
L 109.997843 66.102356 
L 112.471486 55.651513 
L 114.945128 56.32183 
L 117.418771 63.268746 
L 119.892413 61.410141 
L 122.366056 62.720305 
L 124.839698 55.4687 
L 127.31334 59.521067 
L 129.786983 56.352299 
L 132.260625 58.637468 
L 134.734268 51.660084 
L 137.20791 53.610095 
L 139.681553 53.18353 
L 142.155195 53.122592 
L 144.628838 51.78196 
L 147.10248 50.167106 
L 149.576123 57.205429 
L 152.049765 61.562486 
L 154.523408 57.022615 
L 156.99705 48.36944 
L 159.470692 59.521067 
L 161.944335 50.136637 
L 164.417977 47.881937 
L 166.89162 50.685078 
L 169.365262 48.338971 
L 171.838905 49.740541 
L 174.312547 47.150683 
L 176.78619 46.998338 
L 181.733475 49.831948 
L 184.207117 48.704598 
L 189.154402 50.92883 
L 191.628045 50.410858 
L 194.101687 49.22257 
L 196.575329 50.441327 
L 199.048972 44.195197 
L 201.522614 51.629615 
L 203.996257 56.778864 
L 206.469899 49.283508 
L 208.943542 41.117835 
L 211.417184 49.192101 
L 213.890827 48.978818 
L 216.364469 43.981914 
L 218.838112 41.117835 
L 221.311754 48.338971 
L 223.785397 49.253039 
L 226.259039 41.81862 
L 228.732682 45.779581 
L 231.206324 48.735067 
L 233.679966 43.098315 
L 236.153609 45.931925 
L 238.627251 45.962394 
L 241.100894 43.311598 
L 243.574536 46.114739 
L 246.048179 43.342067 
L 248.521821 43.037377 
L 250.995464 45.931925 
L 253.469106 40.477987 
L 255.942749 42.580343 
L 258.416391 42.702219 
L 260.890034 41.513931 
L 263.363676 39.868609 
L 265.837318 42.732688 
L 268.310961 41.666275 
L 270.784603 40.752208 
L 273.258246 43.25066 
L 275.731888 39.198292 
L 278.205531 40.538925 
L 280.679173 38.162349 
L 283.152816 38.010004 
L 285.626458 39.807671 
L 288.100101 41.757682 
L 290.573743 38.741258 
L 293.047386 38.863134 
L 295.521028 35.999055 
L 297.994671 37.248281 
L 300.468313 36.547496 
L 305.415598 36.974061 
L 307.88924 35.602959 
L 310.362883 36.181868 
L 312.836525 36.577964 
L 315.310168 35.816241 
L 317.78381 33.927168 
L 320.257453 38.954541 
L 322.731095 34.841236 
L 325.204738 33.043569 
L 327.67838 34.231857 
L 330.152023 33.805292 
L 332.625665 32.769348 
L 335.099308 33.256851 
L 337.57295 33.896699 
L 340.046592 34.323264 
L 342.520235 32.769348 
L 344.993877 32.799817 
L 347.46752 33.896699 
L 349.941162 32.525597 
L 352.414805 32.129501 
L 354.888447 31.276371 
L 357.36209 31.702936 
L 359.835732 30.514648 
L 362.309375 31.916218 
L 364.783017 29.32636 
L 367.25666 29.204484 
L 369.730302 31.367778 
L 372.203944 30.362303 
L 374.677587 29.143546 
L 377.151229 30.849806 
L 379.624872 29.60058 
L 382.098514 28.991201 
L 384.572157 29.204484 
L 387.045799 27.985727 
L 389.519442 29.32636 
L 391.993084 28.625574 
L 394.466727 28.869326 
L 396.940369 28.625574 
L 399.414012 28.199009 
L 401.887654 28.259947 
L 404.361297 27.559162 
L 406.834939 28.716981 
L 409.308581 28.259947 
L 411.782224 27.985727 
L 414.255866 27.863851 
L 416.729509 27.254472 
L 419.203151 27.376348 
L 421.676794 27.681037 
L 424.150436 27.772444 
L 426.624079 27.345879 
L 431.571364 27.345879 
L 431.571364 27.345879 
" style="fill:none;stroke:#1f77b4;stroke-linecap:square;stroke-width:1.5;"/>
   </g>
   <g id="line2d_14">
    <path clip-path="url(#p855c74b098)" d="M 62.998636 285.935673 
L 65.472279 286.545051 
L 67.945921 279.47626 
L 70.419564 273.748101 
L 72.893206 241.321545 
L 75.366849 240.955917 
L 77.840491 213.297748 
L 80.314134 182.950695 
L 82.787776 158.331801 
L 85.261419 137.61293 
L 87.735061 112.90263 
L 90.208703 105.315866 
L 92.682346 84.810278 
L 95.155988 82.159481 
L 97.629631 71.403949 
L 100.103273 68.235181 
L 102.576916 75.94382 
L 105.050558 76.553198 
L 107.524201 68.753153 
L 109.997843 68.722684 
L 112.471486 74.999283 
L 114.945128 70.215661 
L 117.418771 76.918825 
L 119.892413 65.584384 
L 122.366056 82.037605 
L 124.839698 67.199237 
L 127.31334 64.27422 
L 129.786983 60.709356 
L 132.260625 60.191384 
L 134.734268 53.213999 
L 137.20791 61.592954 
L 139.681553 56.687457 
L 142.155195 58.454655 
L 144.628838 53.945254 
L 147.10248 57.540587 
L 149.576123 57.510118 
L 152.049765 58.515593 
L 156.99705 51.111643 
L 159.470692 59.033565 
L 161.944335 59.582005 
L 164.417977 52.665559 
L 166.89162 53.914785 
L 169.365262 56.413237 
L 171.838905 55.255417 
L 174.312547 59.246847 
L 176.78619 54.920259 
L 179.259832 52.787434 
L 181.733475 51.20305 
L 184.207117 48.887411 
L 186.68076 49.649135 
L 189.154402 54.88979 
L 191.628045 53.945254 
L 194.101687 53.396813 
L 196.575329 53.244468 
L 199.048972 49.435852 
L 201.522614 51.751491 
L 203.996257 49.344445 
L 206.469899 50.258513 
L 208.943542 44.073321 
L 211.417184 53.153061 
L 213.890827 51.873366 
L 216.364469 54.706977 
L 218.838112 43.646756 
L 221.311754 46.114739 
L 223.785397 49.679604 
L 226.259039 48.735067 
L 228.732682 46.328021 
L 231.206324 47.120214 
L 233.679966 45.901456 
L 236.153609 45.657705 
L 238.627251 49.679604 
L 241.100894 52.482745 
L 243.574536 51.964773 
L 246.048179 43.037377 
L 248.521821 51.568677 
L 250.995464 47.760061 
L 253.469106 44.225665 
L 255.942749 42.549874 
L 258.416391 46.08427 
L 260.890034 42.885033 
L 263.363676 40.721739 
L 265.837318 42.488937 
L 268.310961 43.52488 
L 270.784603 42.488937 
L 273.258246 44.865513 
L 275.731888 40.69127 
L 278.205531 40.447518 
L 280.679173 43.920976 
L 283.152816 42.732688 
L 285.626458 38.802196 
L 288.100101 41.666275 
L 290.573743 39.716264 
L 293.047386 42.763157 
L 295.521028 39.442044 
L 297.994671 40.843614 
L 300.468313 39.137354 
L 302.941955 39.807671 
L 305.415598 38.98501 
L 307.88924 43.52488 
L 310.362883 36.303744 
L 312.836525 39.106885 
L 315.310168 36.120931 
L 317.78381 39.320168 
L 320.257453 37.583439 
L 322.731095 37.705315 
L 325.204738 36.42562 
L 327.67838 34.902173 
L 330.152023 37.55297 
L 332.625665 36.913123 
L 335.099308 36.730309 
L 337.57295 36.913123 
L 342.520235 37.949066 
L 344.993877 35.145925 
L 347.46752 32.952162 
L 349.941162 33.470134 
L 352.414805 34.506077 
L 354.888447 33.86623 
L 357.36209 33.774823 
L 362.309375 32.281846 
L 364.783017 31.855281 
L 367.25666 32.769348 
L 369.730302 34.780298 
L 372.203944 33.652947 
L 374.677587 33.683416 
L 377.151229 32.495128 
L 379.624872 31.824812 
L 382.098514 30.423241 
L 384.572157 30.72793 
L 387.045799 29.752925 
L 389.519442 29.722456 
L 391.993084 31.550591 
L 394.466727 31.184964 
L 396.940369 29.844331 
L 401.887654 29.143546 
L 404.361297 30.209958 
L 406.834939 30.027145 
L 409.308581 29.996676 
L 411.782224 30.636523 
L 414.255866 29.996676 
L 416.729509 29.60058 
L 419.203151 29.448235 
L 424.150436 29.661518 
L 426.624079 30.240427 
L 429.097721 29.356828 
L 431.571364 29.448235 
L 431.571364 29.448235 
" style="fill:none;stroke:#ff7f0e;stroke-linecap:square;stroke-width:1.5;"/>
   </g>
   <g id="line2d_15">
    <path clip-path="url(#p855c74b098)" d="M 62.998636 280.695017 
L 65.472279 283.254407 
L 67.945921 279.720011 
L 70.419564 254.476504 
L 72.893206 230.604099 
L 75.366849 204.888324 
L 77.840491 169.437726 
L 82.787776 119.331573 
L 85.261419 108.484635 
L 87.735061 105.437742 
L 90.208703 86.668882 
L 92.682346 79.325871 
L 95.155988 82.677453 
L 97.629631 81.824323 
L 100.103273 76.065695 
L 102.576916 75.243034 
L 105.050558 78.472741 
L 107.524201 71.190667 
L 109.997843 69.97191 
L 112.471486 64.761723 
L 114.945128 73.871933 
L 117.418771 75.700068 
L 119.892413 73.018803 
L 122.366056 74.024277 
L 124.839698 64.609378 
L 127.31334 68.021898 
L 129.786983 66.925017 
L 132.260625 61.775768 
L 134.734268 66.803141 
L 137.20791 60.739824 
L 139.681553 62.049988 
L 142.155195 65.066412 
L 144.628838 57.875745 
L 147.10248 57.17496 
L 149.576123 62.933587 
L 152.049765 61.318734 
L 154.523408 56.04761 
L 156.99705 54.61557 
L 159.470692 67.442989 
L 161.944335 63.024994 
L 164.417977 52.3304 
L 166.89162 54.34135 
L 169.365262 53.18353 
L 171.838905 56.809333 
L 174.312547 60.069508 
L 179.259832 54.61557 
L 181.733475 57.631994 
L 184.207117 52.939779 
L 186.68076 53.366344 
L 189.154402 52.391338 
L 191.628045 57.327305 
L 194.101687 51.903835 
L 196.575329 59.368723 
L 199.048972 48.217095 
L 201.522614 53.366344 
L 203.996257 48.36944 
L 206.469899 54.859321 
L 208.943542 49.009287 
L 211.417184 58.30231 
L 213.890827 54.189005 
L 216.364469 50.715547 
L 218.838112 52.63509 
L 221.311754 50.746016 
L 223.785397 51.842897 
L 226.259039 47.577248 
L 228.732682 53.153061 
L 231.206324 51.721022 
L 233.679966 45.109264 
L 236.153609 53.061655 
L 238.627251 53.18353 
L 241.100894 47.363965 
L 243.574536 49.923355 
L 246.048179 47.577248 
L 248.521821 50.806954 
L 253.469106 48.978818 
L 255.942749 47.242089 
L 258.416391 41.483462 
L 260.890034 42.39753 
L 263.363676 47.668654 
L 265.837318 45.81005 
L 268.310961 40.020953 
L 270.784603 43.281129 
L 273.258246 49.953824 
L 275.731888 43.981914 
L 278.205531 42.94597 
L 280.679173 44.37801 
L 283.152816 42.976439 
L 285.626458 42.031903 
L 288.100101 49.009287 
L 290.573743 42.001434 
L 293.047386 42.275654 
L 295.521028 45.353016 
L 297.994671 44.65223 
L 300.468313 42.549874 
L 302.941955 42.488937 
L 305.415598 40.417049 
L 307.88924 42.367061 
L 310.362883 40.721739 
L 312.836525 39.442044 
L 315.310168 39.868609 
L 317.78381 42.732688 
L 320.257453 42.793626 
L 322.731095 39.198292 
L 325.204738 39.990484 
L 327.67838 40.904552 
L 330.152023 43.433473 
L 332.625665 37.400626 
L 335.099308 38.832665 
L 337.57295 39.624857 
L 340.046592 38.588914 
L 342.520235 40.142829 
L 344.993877 40.538925 
L 347.46752 37.979535 
L 349.941162 36.974061 
L 352.414805 37.796722 
L 354.888447 37.370157 
L 357.36209 37.55297 
L 359.835732 37.095936 
L 362.309375 35.938117 
L 364.783017 35.938117 
L 367.25666 36.608433 
L 369.730302 35.145925 
L 372.203944 35.389676 
L 374.677587 35.938117 
L 377.151229 35.938117 
L 379.624872 35.359207 
L 382.098514 35.481083 
L 384.572157 34.749829 
L 387.045799 35.694366 
L 389.519442 34.049043 
L 394.466727 33.561541 
L 396.940369 34.262326 
L 399.414012 34.201388 
L 401.887654 32.586535 
L 404.361297 33.317789 
L 406.834939 32.495128 
L 409.308581 32.769348 
L 411.782224 32.464659 
L 414.255866 32.464659 
L 416.729509 32.038094 
L 419.203151 32.952162 
L 426.624079 32.830286 
L 431.571364 32.403721 
L 431.571364 32.403721 
" style="fill:none;stroke:#2ca02c;stroke-linecap:square;stroke-width:1.5;"/>
   </g>
   <g id="line2d_16">
    <path clip-path="url(#p855c74b098)" d="M 62.998636 280.816893 
L 65.472279 246.06708 
L 67.945921 227.313455 
L 70.419564 188.206586 
L 72.893206 183.301088 
L 75.366849 157.478671 
L 77.840491 149.648157 
L 80.314134 142.944993 
L 82.787776 137.61293 
L 85.261419 136.059015 
L 87.735061 124.785512 
L 90.208703 116.101867 
L 92.682346 121.677681 
L 95.155988 128.716003 
L 100.103273 126.156613 
L 102.576916 129.812885 
L 105.050558 133.012122 
L 107.524201 120.672206 
L 109.997843 129.355851 
L 112.471486 113.115912 
L 114.945128 130.909766 
L 117.418771 124.572229 
L 119.892413 119.362042 
L 122.366056 119.057353 
L 124.839698 118.143285 
L 127.31334 118.021409 
L 129.786983 121.281585 
L 132.260625 119.727669 
L 134.734268 121.799557 
L 137.20791 117.229217 
L 139.681553 103.731482 
L 142.155195 121.037833 
L 144.628838 107.753381 
L 147.10248 117.960472 
L 149.576123 105.285397 
L 152.049765 115.644833 
L 154.523408 113.359663 
L 156.99705 103.122104 
L 159.470692 117.107342 
L 161.944335 111.775279 
L 164.417977 102.847883 
L 166.89162 107.875256 
L 169.365262 105.559618 
L 171.838905 104.706488 
L 174.312547 102.634601 
L 176.78619 104.249454 
L 179.259832 111.531528 
L 181.733475 102.390849 
L 184.207117 93.981425 
L 186.68076 101.50725 
L 189.154402 101.293968 
L 191.628045 103.487731 
L 194.101687 94.804086 
L 196.575329 103.365855 
L 199.048972 98.521295 
L 201.522614 100.65412 
L 203.996257 90.568905 
L 206.469899 95.565809 
L 208.943542 104.676019 
L 211.417184 97.058787 
L 213.890827 92.305634 
L 216.364469 97.485352 
L 218.838112 93.859549 
L 221.311754 94.194708 
L 223.785397 93.158764 
L 226.259039 90.812657 
L 228.732682 95.413465 
L 231.206324 96.906442 
L 233.679966 91.056408 
L 236.153609 93.493922 
L 238.627251 84.048555 
L 241.100894 87.369668 
L 243.574536 84.871216 
L 246.048179 84.840747 
L 248.521821 92.183758 
L 250.995464 85.511063 
L 253.469106 83.469645 
L 255.942749 81.184475 
L 258.416391 80.331345 
L 260.890034 81.093069 
L 263.363676 77.863362 
L 265.837318 69.271124 
L 268.310961 76.431323 
L 270.784603 74.633656 
L 273.258246 77.284452 
L 275.731888 83.164956 
L 278.205531 70.946915 
L 280.679173 71.282074 
L 283.152816 73.475836 
L 285.626458 70.550819 
L 288.100101 71.495356 
L 290.573743 66.650797 
L 293.047386 66.925017 
L 295.521028 65.066412 
L 297.994671 70.489882 
L 300.468313 68.509401 
L 302.941955 65.432039 
L 305.415598 64.030469 
L 307.88924 67.260175 
L 310.362883 62.537491 
L 312.836525 61.288265 
L 317.78381 60.435135 
L 320.257453 63.360152 
L 322.731095 60.496073 
L 325.204738 62.324209 
L 327.67838 57.723401 
L 330.152023 57.510118 
L 332.625665 63.634373 
L 335.099308 59.978101 
L 337.57295 58.911689 
L 340.046592 57.17496 
L 342.520235 56.291361 
L 344.993877 54.737446 
L 347.46752 56.382768 
L 349.941162 54.524163 
L 352.414805 53.640564 
L 354.888447 52.574152 
L 357.36209 50.837423 
L 359.835732 54.402287 
L 362.309375 50.746016 
L 364.783017 48.978818 
L 367.25666 52.452276 
L 369.730302 50.867892 
L 372.203944 50.136637 
L 374.677587 52.391338 
L 377.151229 48.491315 
L 379.624872 50.319451 
L 382.098514 50.502265 
L 384.572157 49.984293 
L 387.045799 49.892886 
L 389.519442 49.283508 
L 391.993084 47.760061 
L 394.466727 49.131163 
L 396.940369 47.059276 
L 399.414012 47.242089 
L 401.887654 48.491315 
L 404.361297 47.51631 
L 406.834939 48.460846 
L 409.308581 46.175677 
L 411.782224 46.967869 
L 414.255866 47.424903 
L 416.729509 47.242089 
L 419.203151 46.541304 
L 421.676794 46.815524 
L 424.150436 46.906931 
L 426.624079 46.724118 
L 429.097721 47.089745 
L 431.571364 46.449897 
L 431.571364 46.449897 
" style="fill:none;stroke:#d62728;stroke-linecap:square;stroke-width:1.5;"/>
   </g>
   <g id="patch_3">
    <path d="M 44.57 303.64 
L 44.57 10.8 
" style="fill:none;stroke:#000000;stroke-linecap:square;stroke-linejoin:miter;stroke-width:0.8;"/>
   </g>
   <g id="patch_4">
    <path d="M 450 303.64 
L 450 10.8 
" style="fill:none;stroke:#000000;stroke-linecap:square;stroke-linejoin:miter;stroke-width:0.8;"/>
   </g>
   <g id="patch_5">
    <path d="M 44.57 303.64 
L 450 303.64 
" style="fill:none;stroke:#000000;stroke-linecap:square;stroke-linejoin:miter;stroke-width:0.8;"/>
   </g>
   <g id="patch_6">
    <path d="M 44.57 10.8 
L 450 10.8 
" style="fill:none;stroke:#000000;stroke-linecap:square;stroke-linejoin:miter;stroke-width:0.8;"/>
   </g>
   <g id="legend_1">
    <g id="patch_7">
     <path d="M 330.639062 298.64 
L 443 298.64 
Q 445 298.64 445 296.64 
L 445 238.9275 
Q 445 236.9275 443 236.9275 
L 330.639062 236.9275 
Q 328.639062 236.9275 328.639062 238.9275 
L 328.639062 296.64 
Q 328.639062 298.64 330.639062 298.64 
z
" style="fill:#ffffff;opacity:0.8;stroke:#cccccc;stroke-linejoin:miter;"/>
    </g>
    <g id="line2d_17">
     <path d="M 332.639062 245.025937 
L 352.639062 245.025937 
" style="fill:none;stroke:#1f77b4;stroke-linecap:square;stroke-width:1.5;"/>
    </g>
    <g id="line2d_18"/>
    <g id="text_15">
     <!-- AllReduce SGD -->
     <g transform="translate(360.639062 248.525937)scale(0.1 -0.1)">
      <defs>
       <path d="M 9.421875 75.984375 
L 18.40625 75.984375 
L 18.40625 0 
L 9.421875 0 
z
" id="DejaVuSans-108"/>
       <path d="M 44.390625 34.1875 
Q 47.5625 33.109375 50.5625 29.59375 
Q 53.5625 26.078125 56.59375 19.921875 
L 66.609375 0 
L 56 0 
L 46.6875 18.703125 
Q 43.0625 26.03125 39.671875 28.421875 
Q 36.28125 30.8125 30.421875 30.8125 
L 19.671875 30.8125 
L 19.671875 0 
L 9.8125 0 
L 9.8125 72.90625 
L 32.078125 72.90625 
Q 44.578125 72.90625 50.734375 67.671875 
Q 56.890625 62.453125 56.890625 51.90625 
Q 56.890625 45.015625 53.6875 40.46875 
Q 50.484375 35.9375 44.390625 34.1875 
z
M 19.671875 64.796875 
L 19.671875 38.921875 
L 32.078125 38.921875 
Q 39.203125 38.921875 42.84375 42.21875 
Q 46.484375 45.515625 46.484375 51.90625 
Q 46.484375 58.296875 42.84375 61.546875 
Q 39.203125 64.796875 32.078125 64.796875 
z
" id="DejaVuSans-82"/>
       <path d="M 45.40625 46.390625 
L 45.40625 75.984375 
L 54.390625 75.984375 
L 54.390625 0 
L 45.40625 0 
L 45.40625 8.203125 
Q 42.578125 3.328125 38.25 0.953125 
Q 33.9375 -1.421875 27.875 -1.421875 
Q 17.96875 -1.421875 11.734375 6.484375 
Q 5.515625 14.40625 5.515625 27.296875 
Q 5.515625 40.1875 11.734375 48.09375 
Q 17.96875 56 27.875 56 
Q 33.9375 56 38.25 53.625 
Q 42.578125 51.265625 45.40625 46.390625 
z
M 14.796875 27.296875 
Q 14.796875 17.390625 18.875 11.75 
Q 22.953125 6.109375 30.078125 6.109375 
Q 37.203125 6.109375 41.296875 11.75 
Q 45.40625 17.390625 45.40625 27.296875 
Q 45.40625 37.203125 41.296875 42.84375 
Q 37.203125 48.484375 30.078125 48.484375 
Q 22.953125 48.484375 18.875 42.84375 
Q 14.796875 37.203125 14.796875 27.296875 
z
" id="DejaVuSans-100"/>
       <path d="M 53.515625 70.515625 
L 53.515625 60.890625 
Q 47.90625 63.578125 42.921875 64.890625 
Q 37.9375 66.21875 33.296875 66.21875 
Q 25.25 66.21875 20.875 63.09375 
Q 16.5 59.96875 16.5 54.203125 
Q 16.5 49.359375 19.40625 46.890625 
Q 22.3125 44.4375 30.421875 42.921875 
L 36.375 41.703125 
Q 47.40625 39.59375 52.65625 34.296875 
Q 57.90625 29 57.90625 20.125 
Q 57.90625 9.515625 50.796875 4.046875 
Q 43.703125 -1.421875 29.984375 -1.421875 
Q 24.8125 -1.421875 18.96875 -0.25 
Q 13.140625 0.921875 6.890625 3.21875 
L 6.890625 13.375 
Q 12.890625 10.015625 18.65625 8.296875 
Q 24.421875 6.59375 29.984375 6.59375 
Q 38.421875 6.59375 43.015625 9.90625 
Q 47.609375 13.234375 47.609375 19.390625 
Q 47.609375 24.75 44.3125 27.78125 
Q 41.015625 30.8125 33.5 32.328125 
L 27.484375 33.5 
Q 16.453125 35.6875 11.515625 40.375 
Q 6.59375 45.0625 6.59375 53.421875 
Q 6.59375 63.09375 13.40625 68.65625 
Q 20.21875 74.21875 32.171875 74.21875 
Q 37.3125 74.21875 42.625 73.28125 
Q 47.953125 72.359375 53.515625 70.515625 
z
" id="DejaVuSans-83"/>
       <path d="M 59.515625 10.40625 
L 59.515625 29.984375 
L 43.40625 29.984375 
L 43.40625 38.09375 
L 69.28125 38.09375 
L 69.28125 6.78125 
Q 63.578125 2.734375 56.6875 0.65625 
Q 49.8125 -1.421875 42 -1.421875 
Q 24.90625 -1.421875 15.25 8.5625 
Q 5.609375 18.5625 5.609375 36.375 
Q 5.609375 54.25 15.25 64.234375 
Q 24.90625 74.21875 42 74.21875 
Q 49.125 74.21875 55.546875 72.453125 
Q 61.96875 70.703125 67.390625 67.28125 
L 67.390625 56.78125 
Q 61.921875 61.421875 55.765625 63.765625 
Q 49.609375 66.109375 42.828125 66.109375 
Q 29.4375 66.109375 22.71875 58.640625 
Q 16.015625 51.171875 16.015625 36.375 
Q 16.015625 21.625 22.71875 14.15625 
Q 29.4375 6.6875 42.828125 6.6875 
Q 48.046875 6.6875 52.140625 7.59375 
Q 56.25 8.5 59.515625 10.40625 
z
" id="DejaVuSans-71"/>
       <path d="M 19.671875 64.796875 
L 19.671875 8.109375 
L 31.59375 8.109375 
Q 46.6875 8.109375 53.6875 14.9375 
Q 60.6875 21.78125 60.6875 36.53125 
Q 60.6875 51.171875 53.6875 57.984375 
Q 46.6875 64.796875 31.59375 64.796875 
z
M 9.8125 72.90625 
L 30.078125 72.90625 
Q 51.265625 72.90625 61.171875 64.09375 
Q 71.09375 55.28125 71.09375 36.53125 
Q 71.09375 17.671875 61.125 8.828125 
Q 51.171875 0 30.078125 0 
L 9.8125 0 
z
" id="DejaVuSans-68"/>
      </defs>
      <use xlink:href="#DejaVuSans-65"/>
      <use x="68.408203" xlink:href="#DejaVuSans-108"/>
      <use x="96.191406" xlink:href="#DejaVuSans-108"/>
      <use x="123.974609" xlink:href="#DejaVuSans-82"/>
      <use x="188.957031" xlink:href="#DejaVuSans-101"/>
      <use x="250.480469" xlink:href="#DejaVuSans-100"/>
      <use x="313.957031" xlink:href="#DejaVuSans-117"/>
      <use x="377.335938" xlink:href="#DejaVuSans-99"/>
      <use x="432.316406" xlink:href="#DejaVuSans-101"/>
      <use x="493.839844" xlink:href="#DejaVuSans-32"/>
      <use x="525.626953" xlink:href="#DejaVuSans-83"/>
      <use x="589.103516" xlink:href="#DejaVuSans-71"/>
      <use x="666.59375" xlink:href="#DejaVuSans-68"/>
     </g>
    </g>
    <g id="line2d_19">
     <path d="M 332.639062 259.704062 
L 352.639062 259.704062 
" style="fill:none;stroke:#ff7f0e;stroke-linecap:square;stroke-width:1.5;"/>
    </g>
    <g id="line2d_20"/>
    <g id="text_16">
     <!-- QSGD-MN 8 bits -->
     <g transform="translate(360.639062 263.204062)scale(0.1 -0.1)">
      <defs>
       <path d="M 39.40625 66.21875 
Q 28.65625 66.21875 22.328125 58.203125 
Q 16.015625 50.203125 16.015625 36.375 
Q 16.015625 22.609375 22.328125 14.59375 
Q 28.65625 6.59375 39.40625 6.59375 
Q 50.140625 6.59375 56.421875 14.59375 
Q 62.703125 22.609375 62.703125 36.375 
Q 62.703125 50.203125 56.421875 58.203125 
Q 50.140625 66.21875 39.40625 66.21875 
z
M 53.21875 1.3125 
L 66.21875 -12.890625 
L 54.296875 -12.890625 
L 43.5 -1.21875 
Q 41.890625 -1.3125 41.03125 -1.359375 
Q 40.1875 -1.421875 39.40625 -1.421875 
Q 24.03125 -1.421875 14.8125 8.859375 
Q 5.609375 19.140625 5.609375 36.375 
Q 5.609375 53.65625 14.8125 63.9375 
Q 24.03125 74.21875 39.40625 74.21875 
Q 54.734375 74.21875 63.90625 63.9375 
Q 73.09375 53.65625 73.09375 36.375 
Q 73.09375 23.6875 67.984375 14.640625 
Q 62.890625 5.609375 53.21875 1.3125 
z
" id="DejaVuSans-81"/>
       <path d="M 4.890625 31.390625 
L 31.203125 31.390625 
L 31.203125 23.390625 
L 4.890625 23.390625 
z
" id="DejaVuSans-45"/>
       <path d="M 9.8125 72.90625 
L 24.515625 72.90625 
L 43.109375 23.296875 
L 61.8125 72.90625 
L 76.515625 72.90625 
L 76.515625 0 
L 66.890625 0 
L 66.890625 64.015625 
L 48.09375 14.015625 
L 38.1875 14.015625 
L 19.390625 64.015625 
L 19.390625 0 
L 9.8125 0 
z
" id="DejaVuSans-77"/>
       <path d="M 9.8125 72.90625 
L 23.09375 72.90625 
L 55.421875 11.921875 
L 55.421875 72.90625 
L 64.984375 72.90625 
L 64.984375 0 
L 51.703125 0 
L 19.390625 60.984375 
L 19.390625 0 
L 9.8125 0 
z
" id="DejaVuSans-78"/>
       <path d="M 48.6875 27.296875 
Q 48.6875 37.203125 44.609375 42.84375 
Q 40.53125 48.484375 33.40625 48.484375 
Q 26.265625 48.484375 22.1875 42.84375 
Q 18.109375 37.203125 18.109375 27.296875 
Q 18.109375 17.390625 22.1875 11.75 
Q 26.265625 6.109375 33.40625 6.109375 
Q 40.53125 6.109375 44.609375 11.75 
Q 48.6875 17.390625 48.6875 27.296875 
z
M 18.109375 46.390625 
Q 20.953125 51.265625 25.265625 53.625 
Q 29.59375 56 35.59375 56 
Q 45.5625 56 51.78125 48.09375 
Q 58.015625 40.1875 58.015625 27.296875 
Q 58.015625 14.40625 51.78125 6.484375 
Q 45.5625 -1.421875 35.59375 -1.421875 
Q 29.59375 -1.421875 25.265625 0.953125 
Q 20.953125 3.328125 18.109375 8.203125 
L 18.109375 0 
L 9.078125 0 
L 9.078125 75.984375 
L 18.109375 75.984375 
z
" id="DejaVuSans-98"/>
       <path d="M 9.421875 54.6875 
L 18.40625 54.6875 
L 18.40625 0 
L 9.421875 0 
z
M 9.421875 75.984375 
L 18.40625 75.984375 
L 18.40625 64.59375 
L 9.421875 64.59375 
z
" id="DejaVuSans-105"/>
      </defs>
      <use xlink:href="#DejaVuSans-81"/>
      <use x="78.710938" xlink:href="#DejaVuSans-83"/>
      <use x="142.1875" xlink:href="#DejaVuSans-71"/>
      <use x="219.677734" xlink:href="#DejaVuSans-68"/>
      <use x="296.679688" xlink:href="#DejaVuSans-45"/>
      <use x="332.763672" xlink:href="#DejaVuSans-77"/>
      <use x="419.042969" xlink:href="#DejaVuSans-78"/>
      <use x="493.847656" xlink:href="#DejaVuSans-32"/>
      <use x="525.634766" xlink:href="#DejaVuSans-56"/>
      <use x="589.257812" xlink:href="#DejaVuSans-32"/>
      <use x="621.044922" xlink:href="#DejaVuSans-98"/>
      <use x="684.521484" xlink:href="#DejaVuSans-105"/>
      <use x="712.304688" xlink:href="#DejaVuSans-116"/>
      <use x="751.513672" xlink:href="#DejaVuSans-115"/>
     </g>
    </g>
    <g id="line2d_21">
     <path d="M 332.639062 274.382187 
L 352.639062 274.382187 
" style="fill:none;stroke:#2ca02c;stroke-linecap:square;stroke-width:1.5;"/>
    </g>
    <g id="line2d_22"/>
    <g id="text_17">
     <!-- QSGD-MN 4 bits -->
     <g transform="translate(360.639062 277.882187)scale(0.1 -0.1)">
      <use xlink:href="#DejaVuSans-81"/>
      <use x="78.710938" xlink:href="#DejaVuSans-83"/>
      <use x="142.1875" xlink:href="#DejaVuSans-71"/>
      <use x="219.677734" xlink:href="#DejaVuSans-68"/>
      <use x="296.679688" xlink:href="#DejaVuSans-45"/>
      <use x="332.763672" xlink:href="#DejaVuSans-77"/>
      <use x="419.042969" xlink:href="#DejaVuSans-78"/>
      <use x="493.847656" xlink:href="#DejaVuSans-32"/>
      <use x="525.634766" xlink:href="#DejaVuSans-52"/>
      <use x="589.257812" xlink:href="#DejaVuSans-32"/>
      <use x="621.044922" xlink:href="#DejaVuSans-98"/>
      <use x="684.521484" xlink:href="#DejaVuSans-105"/>
      <use x="712.304688" xlink:href="#DejaVuSans-116"/>
      <use x="751.513672" xlink:href="#DejaVuSans-115"/>
     </g>
    </g>
    <g id="line2d_23">
     <path d="M 332.639062 289.060312 
L 352.639062 289.060312 
" style="fill:none;stroke:#d62728;stroke-linecap:square;stroke-width:1.5;"/>
    </g>
    <g id="line2d_24"/>
    <g id="text_18">
     <!-- QSGD-MN 2 bits -->
     <g transform="translate(360.639062 292.560312)scale(0.1 -0.1)">
      <use xlink:href="#DejaVuSans-81"/>
      <use x="78.710938" xlink:href="#DejaVuSans-83"/>
      <use x="142.1875" xlink:href="#DejaVuSans-71"/>
      <use x="219.677734" xlink:href="#DejaVuSans-68"/>
      <use x="296.679688" xlink:href="#DejaVuSans-45"/>
      <use x="332.763672" xlink:href="#DejaVuSans-77"/>
      <use x="419.042969" xlink:href="#DejaVuSans-78"/>
      <use x="493.847656" xlink:href="#DejaVuSans-32"/>
      <use x="525.634766" xlink:href="#DejaVuSans-50"/>
      <use x="589.257812" xlink:href="#DejaVuSans-32"/>
      <use x="621.044922" xlink:href="#DejaVuSans-98"/>
      <use x="684.521484" xlink:href="#DejaVuSans-105"/>
      <use x="712.304688" xlink:href="#DejaVuSans-116"/>
      <use x="751.513672" xlink:href="#DejaVuSans-115"/>
     </g>
    </g>
   </g>
  </g>
 </g>
 <defs>
  <clipPath id="p855c74b098">
   <rect height="292.84" width="405.43" x="44.57" y="10.8"/>
  </clipPath>
 </defs>
</svg>
