<?xml version="1.0" encoding="utf-8" standalone="no"?>
<!DOCTYPE svg PUBLIC "-//W3C//DTD SVG 1.1//EN"
  "http://www.w3.org/Graphics/SVG/1.1/DTD/svg11.dtd">
<!-- Created with matplotlib (https://matplotlib.org/) -->
<svg height="345.6pt" version="1.1" viewBox="0 0 460.8 345.6" width="460.8pt" xmlns="http://www.w3.org/2000/svg" xmlns:xlink="http://www.w3.org/1999/xlink">
 <metadata>
  <rdf:RDF xmlns:cc="http://creativecommons.org/ns#" xmlns:dc="http://purl.org/dc/elements/1.1/" xmlns:rdf="http://www.w3.org/1999/02/22-rdf-syntax-ns#">
   <cc:Work>
    <dc:type rdf:resource="http://purl.org/dc/dcmitype/StillImage"/>
    <dc:date>2021-06-10T08:57:23.723976</dc:date>
    <dc:format>image/svg+xml</dc:format>
    <dc:creator>
     <cc:Agent>
      <dc:title>Matplotlib v3.3.1, https://matplotlib.org/</dc:title>
     </cc:Agent>
    </dc:creator>
   </cc:Work>
  </rdf:RDF>
 </metadata>
 <defs>
  <style type="text/css">*{stroke-linecap:butt;stroke-linejoin:round;}</style>
 </defs>
 <g id="figure_1">
  <g id="patch_1">
   <path d="M 0 345.6 
L 460.8 345.6 
L 460.8 0 
L 0 0 
z
" style="fill:#ffffff;"/>
  </g>
  <g id="axes_1">
   <g id="patch_2">
    <path d="M 44.57 303.64 
L 450 303.64 
L 450 10.8 
L 44.57 10.8 
z
" style="fill:#ffffff;"/>
   </g>
   <g id="PolyCollection_1">
    <path clip-path="url(#p4273a2ff9e)" d="M 63.034588 262.098415 
L 63.034588 285.524456 
L 65.385439 270.145466 
L 67.734773 253.913897 
L 70.073126 237.309633 
L 72.402345 216.375079 
L 74.745461 200.299982 
L 77.085721 179.107389 
L 79.429615 169.935184 
L 81.780378 153.048383 
L 84.109702 143.94608 
L 86.444368 114.023873 
L 88.773881 129.50361 
L 91.107036 122.897457 
L 93.449432 99.103932 
L 95.759018 102.946061 
L 98.105012 97.187306 
L 100.431569 87.497186 
L 102.763674 86.473049 
L 105.114089 74.559252 
L 107.446911 85.948067 
L 109.773131 82.340223 
L 112.105748 91.109565 
L 114.457685 93.367084 
L 116.782318 77.377072 
L 119.114327 82.823286 
L 121.433077 80.14214 
L 123.778907 74.346363 
L 126.106853 71.151335 
L 128.43789 75.646244 
L 130.78733 67.556883 
L 133.122318 69.120596 
L 135.461415 61.638618 
L 137.782582 71.023212 
L 140.12351 64.259306 
L 142.463934 62.336188 
L 144.784622 68.492734 
L 147.105847 65.475974 
L 149.467695 64.652519 
L 151.787275 64.002265 
L 154.126172 75.665545 
L 156.455805 53.543814 
L 158.789903 57.131754 
L 161.114007 62.890014 
L 163.432702 57.927861 
L 165.78587 63.375702 
L 168.128209 70.673046 
L 170.464217 60.198112 
L 172.798021 59.633721 
L 175.147412 60.407271 
L 177.499959 60.968284 
L 179.823063 57.735427 
L 182.156494 58.476205 
L 184.483651 65.358495 
L 186.824325 60.161867 
L 189.162358 57.714934 
L 191.498804 65.01177 
L 193.833851 58.569147 
L 196.191878 49.598126 
L 198.508931 53.956715 
L 200.841483 53.958225 
L 203.171297 56.503692 
L 205.504109 56.106467 
L 207.834294 48.006712 
L 210.187468 53.580474 
L 212.511345 53.953659 
L 214.862944 55.526429 
L 217.197025 55.018874 
L 219.517258 52.243945 
L 221.85599 51.672986 
L 224.1754 53.2333 
L 226.516063 52.863281 
L 228.847253 55.011631 
L 231.19007 46.52627 
L 233.520043 49.045336 
L 235.853881 46.345493 
L 238.191215 47.120951 
L 240.531182 45.72002 
L 242.858932 47.773734 
L 245.181987 44.688506 
L 247.530111 42.533765 
L 249.862104 44.099994 
L 252.205171 48.627027 
L 254.526757 47.672679 
L 256.855516 43.606507 
L 259.184838 48.306404 
L 261.526065 53.20837 
L 263.871285 43.029158 
L 266.2363 39.630367 
L 268.574169 43.375455 
L 270.919256 44.283195 
L 273.23737 43.795051 
L 275.584614 47.271126 
L 277.940293 44.095458 
L 280.276119 40.794078 
L 282.623376 37.07095 
L 284.957636 44.561381 
L 287.296488 40.771574 
L 289.641935 42.036566 
L 291.978234 38.498039 
L 294.32557 38.684564 
L 296.668253 37.756112 
L 299.010671 36.753955 
L 301.33103 36.456682 
L 303.669038 38.576437 
L 306.00425 40.171086 
L 308.350533 38.673206 
L 310.693695 36.440342 
L 313.020279 38.420732 
L 315.359959 40.093136 
L 317.696444 39.376669 
L 320.062262 33.875028 
L 322.391458 40.153957 
L 324.721109 34.75439 
L 327.050789 34.267499 
L 329.390259 33.319486 
L 331.701508 33.786662 
L 334.045734 33.508577 
L 336.379254 35.354841 
L 338.725055 30.803507 
L 341.059971 35.338144 
L 343.389832 32.632524 
L 345.732966 33.001301 
L 348.067643 31.465212 
L 350.426082 31.763889 
L 352.769696 31.948047 
L 355.105304 31.071466 
L 357.42551 31.08206 
L 359.754567 31.274243 
L 362.090676 30.39739 
L 364.441355 31.533201 
L 366.758499 29.475959 
L 369.096471 29.844133 
L 371.422711 30.240218 
L 373.757269 28.45555 
L 376.089919 29.017536 
L 378.446981 29.843089 
L 380.777031 28.646194 
L 383.125254 29.280923 
L 385.483613 29.021006 
L 387.815248 30.38152 
L 390.146516 30.110241 
L 392.484816 29.315016 
L 394.839601 29.232957 
L 397.174023 29.589911 
L 399.507853 29.241307 
L 401.851919 28.752656 
L 404.19681 29.772954 
L 406.53924 28.954283 
L 408.87979 28.043291 
L 411.212386 28.832986 
L 411.212386 25.516179 
L 411.212386 25.516179 
L 408.87979 24.110909 
L 406.53924 25.038942 
L 404.19681 25.703354 
L 401.851919 24.350719 
L 399.507853 25.582445 
L 397.174023 25.293164 
L 394.839601 24.641621 
L 392.484816 25.271442 
L 390.146516 25.959301 
L 387.815248 25.569375 
L 385.483613 25.446805 
L 383.125254 24.415685 
L 380.777031 24.516504 
L 378.446981 25.63322 
L 376.089919 26.102833 
L 373.757269 25.419028 
L 371.422711 26.956468 
L 369.096471 25.928792 
L 366.758499 24.813883 
L 364.441355 24.595665 
L 362.090676 25.375535 
L 359.754567 25.447856 
L 357.42551 26.055302 
L 355.105304 27.133717 
L 352.769696 27.265633 
L 350.426082 26.975204 
L 348.067643 29.172228 
L 345.732966 29.94975 
L 343.389832 28.06424 
L 341.059971 29.333284 
L 338.725055 29.2407 
L 336.379254 30.384408 
L 334.045734 29.383151 
L 331.701508 31.65597 
L 329.390259 30.106152 
L 327.050789 31.234457 
L 324.721109 32.112003 
L 322.391458 32.882065 
L 320.062262 31.033694 
L 317.696444 32.650855 
L 315.359959 34.42597 
L 313.020279 31.174535 
L 310.693695 31.375225 
L 308.350533 34.24417 
L 306.00425 35.475164 
L 303.669038 33.332441 
L 301.33103 34.265729 
L 299.010671 34.798983 
L 296.668253 31.127275 
L 294.32557 33.758224 
L 291.978234 31.037905 
L 289.641935 33.72833 
L 287.296488 35.823849 
L 284.957636 39.508786 
L 282.623376 34.185371 
L 280.276119 36.928489 
L 277.940293 34.398312 
L 275.584614 42.909346 
L 273.23737 39.088648 
L 270.919256 34.744486 
L 268.574169 38.02516 
L 266.2363 36.727763 
L 263.871285 39.261307 
L 261.526065 42.370527 
L 259.184838 41.577451 
L 256.855516 38.150048 
L 254.526757 38.295835 
L 252.205171 40.011037 
L 249.862104 40.563406 
L 247.530111 36.849856 
L 245.181987 40.44948 
L 242.858932 39.559216 
L 240.531182 40.604434 
L 238.191215 42.169671 
L 235.853881 38.436553 
L 233.520043 39.711375 
L 231.19007 39.56089 
L 228.847253 46.440278 
L 226.516063 42.419 
L 224.1754 40.26928 
L 221.85599 40.999067 
L 219.517258 44.52142 
L 217.197025 46.255065 
L 214.862944 45.272923 
L 212.511345 46.489753 
L 210.187468 45.023915 
L 207.834294 41.877143 
L 205.504109 45.760705 
L 203.171297 49.516116 
L 200.841483 48.798798 
L 198.508931 44.647673 
L 196.191878 41.887459 
L 193.833851 41.043738 
L 191.498804 54.65241 
L 189.162358 47.17773 
L 186.824325 49.595313 
L 184.483651 49.322523 
L 182.156494 48.077513 
L 179.823063 47.809794 
L 177.499959 47.543105 
L 175.147412 51.604196 
L 172.798021 46.326764 
L 170.464217 50.152301 
L 168.128209 47.389403 
L 165.78587 50.296819 
L 163.432702 51.651349 
L 161.114007 50.189273 
L 158.789903 49.303318 
L 156.455805 49.509826 
L 154.126172 59.363384 
L 151.787275 50.44146 
L 149.467695 47.892858 
L 147.105847 51.459332 
L 144.784622 52.951147 
L 142.463934 53.116033 
L 140.12351 56.176077 
L 137.782582 62.99722 
L 135.461415 56.364508 
L 133.122318 56.11998 
L 130.78733 51.336094 
L 128.43789 61.696296 
L 126.106853 57.945258 
L 123.778907 67.089489 
L 121.433077 67.166724 
L 119.114327 62.349937 
L 116.782318 61.863816 
L 114.457685 57.797797 
L 112.105748 60.885844 
L 109.773131 65.027964 
L 107.446911 77.971336 
L 105.114089 63.495168 
L 102.763674 72.641163 
L 100.431569 75.23575 
L 98.105012 72.664434 
L 95.759018 86.185769 
L 93.449432 79.112401 
L 91.107036 91.98071 
L 88.773881 96.764641 
L 86.444368 105.422191 
L 84.109702 113.22964 
L 81.780378 115.250466 
L 79.429615 139.919676 
L 77.085721 150.235193 
L 74.745461 172.230003 
L 72.402345 188.842075 
L 70.073126 215.158575 
L 67.734773 234.830543 
L 65.385439 244.493619 
L 63.034588 262.098415 
z
" style="fill:#1f77b4;fill-opacity:0.25;"/>
   </g>
   <g id="PolyCollection_2">
    <path clip-path="url(#p4273a2ff9e)" d="M 63.182254 257.748179 
L 63.182254 285.366117 
L 65.655641 286.641843 
L 68.149093 275.105825 
L 70.623323 256.113528 
L 73.087649 236.043662 
L 75.571894 214.899473 
L 78.057721 205.709083 
L 80.521174 201.257363 
L 83.011292 189.111956 
L 85.500819 177.260095 
L 87.975308 162.748222 
L 90.450581 148.342377 
L 92.908239 148.336042 
L 95.408752 143.791705 
L 97.885526 146.989243 
L 100.38023 117.755794 
L 102.841475 108.213776 
L 105.335177 102.808185 
L 107.807748 118.412841 
L 110.288232 93.346453 
L 112.739381 101.961842 
L 115.219961 91.811836 
L 117.692623 85.411939 
L 120.167946 88.883451 
L 122.655155 76.657057 
L 125.141745 75.902476 
L 127.618478 78.940301 
L 130.086673 73.837625 
L 132.531361 76.911489 
L 135.025871 68.350334 
L 137.488403 69.236044 
L 139.983908 73.488108 
L 142.449065 68.716736 
L 144.935153 72.780571 
L 147.387274 62.852707 
L 149.864544 69.097599 
L 152.320802 70.288988 
L 154.782679 62.502716 
L 157.26652 59.397119 
L 159.75038 63.235503 
L 162.23857 61.200112 
L 164.709692 63.043269 
L 167.208828 60.881139 
L 169.691586 65.351207 
L 172.169962 71.468476 
L 174.643503 61.804569 
L 177.149098 58.935786 
L 179.631332 56.104931 
L 182.103945 53.657604 
L 184.575292 64.523155 
L 187.069867 57.434434 
L 189.555973 57.436144 
L 191.999783 60.858805 
L 194.470775 58.319425 
L 196.932525 59.388606 
L 199.421015 56.618655 
L 201.883993 52.616175 
L 204.334737 50.946816 
L 206.786037 56.862853 
L 209.243465 57.25208 
L 211.737518 57.832396 
L 214.231471 58.135166 
L 216.708558 53.887424 
L 219.177808 65.078086 
L 221.644851 55.077017 
L 224.104921 54.020787 
L 226.541751 55.890013 
L 229.010201 59.29617 
L 231.483162 56.851959 
L 233.967894 52.091469 
L 236.429987 53.511397 
L 238.888858 54.352436 
L 241.340339 48.244001 
L 243.798358 52.811117 
L 246.270817 49.306657 
L 248.727143 47.041154 
L 251.203534 52.743627 
L 253.691991 55.700601 
L 256.143747 55.385702 
L 258.620475 46.188284 
L 261.099138 45.786235 
L 263.565254 49.079418 
L 266.022857 43.256566 
L 268.502261 48.520578 
L 270.974031 53.015006 
L 273.462179 51.052678 
L 275.931276 48.665699 
L 278.399413 46.371657 
L 280.885674 42.026169 
L 283.351144 44.339786 
L 285.81683 47.376727 
L 288.313203 47.243217 
L 290.787412 42.318036 
L 293.252496 47.021088 
L 295.722219 45.424787 
L 298.182468 42.920944 
L 300.637039 41.725323 
L 303.115477 41.010227 
L 305.587533 39.481871 
L 308.074981 40.792954 
L 310.519524 41.982455 
L 312.973168 42.322279 
L 315.470733 40.609004 
L 317.935996 42.435739 
L 320.379661 43.351198 
L 322.848167 38.2202 
L 325.329556 40.897941 
L 327.788734 35.648844 
L 330.259778 40.41058 
L 332.734487 40.299845 
L 335.212701 38.932418 
L 337.680798 37.127096 
L 340.158963 34.7633 
L 342.629329 34.289712 
L 345.123183 35.267829 
L 347.594607 36.306521 
L 350.060184 34.601059 
L 352.521938 35.882669 
L 354.973682 35.59924 
L 357.427236 36.61975 
L 359.910448 34.340262 
L 362.361395 35.411136 
L 364.832868 33.9225 
L 367.292596 33.468554 
L 369.767514 33.048375 
L 372.216033 33.841031 
L 374.697985 32.712391 
L 377.181475 32.490634 
L 379.657429 31.320417 
L 382.130103 31.858273 
L 384.59595 31.867909 
L 387.085623 32.121217 
L 389.538452 31.929477 
L 392.007511 30.212914 
L 394.474359 31.501476 
L 396.940524 32.37682 
L 399.400799 31.582475 
L 401.855846 30.48989 
L 404.34882 31.61971 
L 406.828361 31.885142 
L 409.293091 30.685609 
L 411.769561 31.231432 
L 414.235635 31.676226 
L 416.688044 31.546782 
L 419.165725 31.434391 
L 421.639582 31.765342 
L 424.121253 32.040998 
L 426.616993 32.493473 
L 429.089966 30.282488 
L 431.571364 32.330766 
L 431.571364 27.535471 
L 431.571364 27.535471 
L 429.089966 27.744724 
L 426.616993 26.898177 
L 424.121253 27.409975 
L 421.639582 28.278865 
L 419.165725 27.304702 
L 416.688044 28.438102 
L 414.235635 27.240838 
L 411.769561 27.744954 
L 409.293091 27.460251 
L 406.828361 27.684478 
L 404.34882 27.356676 
L 401.855846 27.003412 
L 399.400799 27.156618 
L 396.940524 26.599566 
L 394.474359 27.237617 
L 392.007511 26.568509 
L 389.538452 27.046909 
L 387.085623 26.617876 
L 384.59595 29.006825 
L 382.130103 28.779168 
L 379.657429 27.833939 
L 377.181475 29.689214 
L 374.697985 29.764074 
L 372.216033 29.821901 
L 369.767514 28.538239 
L 367.292596 29.601144 
L 364.832868 31.994719 
L 362.361395 30.26879 
L 359.910448 29.263347 
L 357.427236 31.43311 
L 354.973682 28.478955 
L 352.521938 30.805754 
L 350.060184 29.417813 
L 347.594607 30.381902 
L 345.123183 31.064653 
L 342.629329 28.305399 
L 340.158963 32.696326 
L 337.680798 33.891932 
L 335.212701 33.035784 
L 332.734487 33.032794 
L 330.259778 35.294993 
L 327.788734 30.268376 
L 325.329556 34.748309 
L 322.848167 36.061612 
L 320.379661 40.540998 
L 317.935996 35.524122 
L 315.470733 36.816946 
L 312.973168 38.129162 
L 310.519524 33.960411 
L 308.074981 35.743146 
L 305.587533 34.147385 
L 303.115477 35.110609 
L 300.637039 38.726118 
L 298.182468 37.411851 
L 295.722219 35.738535 
L 293.252496 38.354192 
L 290.787412 36.472352 
L 288.313203 39.615147 
L 285.81683 39.066374 
L 283.351144 36.052332 
L 280.885674 37.001512 
L 278.399413 37.817155 
L 275.931276 40.268982 
L 273.462179 39.187117 
L 270.974031 45.767352 
L 268.502261 42.193804 
L 266.022857 40.45766 
L 263.565254 42.762108 
L 261.099138 38.877165 
L 258.620475 38.415792 
L 256.143747 41.557632 
L 253.691991 38.454535 
L 251.203534 43.665797 
L 248.727143 43.139318 
L 246.270817 44.373893 
L 243.798358 44.844098 
L 241.340339 44.487375 
L 238.888858 49.353761 
L 236.429987 45.211638 
L 233.967894 41.470434 
L 231.483162 48.989879 
L 229.010201 50.105069 
L 226.541751 46.86701 
L 224.104921 43.693751 
L 221.644851 47.9173 
L 219.177808 45.86556 
L 216.708558 49.047569 
L 214.231471 46.520205 
L 211.737518 55.068921 
L 209.243465 47.759231 
L 206.786037 46.546728 
L 204.334737 42.021854 
L 201.883993 44.50513 
L 199.421015 48.689272 
L 196.932525 50.84316 
L 194.470775 47.463089 
L 191.999783 49.491608 
L 189.555973 48.1684 
L 187.069867 51.017632 
L 184.575292 56.149521 
L 182.103945 47.141749 
L 179.631332 49.202996 
L 177.149098 50.76207 
L 174.643503 52.164569 
L 172.169962 53.000895 
L 169.691586 51.584098 
L 167.208828 52.791382 
L 164.709692 48.671581 
L 162.23857 52.116468 
L 159.75038 56.369353 
L 157.26652 52.139761 
L 154.782679 54.313943 
L 152.320802 56.790611 
L 149.864544 59.22779 
L 147.387274 54.735156 
L 144.935153 48.66331 
L 142.449065 56.286546 
L 139.983908 62.371348 
L 137.488403 60.453783 
L 135.025871 55.169864 
L 132.531361 58.176764 
L 130.086673 57.157315 
L 127.618478 70.26691 
L 125.141745 67.313077 
L 122.655155 71.600981 
L 120.167946 75.51054 
L 117.692623 71.685278 
L 115.219961 72.463507 
L 112.739381 77.381634 
L 110.288232 72.234005 
L 107.807748 85.312535 
L 105.335177 75.526794 
L 102.841475 86.019863 
L 100.38023 83.062737 
L 97.885526 107.813543 
L 95.408752 98.523514 
L 92.908239 110.144791 
L 90.450581 126.393056 
L 87.975308 137.140314 
L 85.500819 141.344959 
L 83.011292 162.684516 
L 80.521174 176.493077 
L 78.057721 176.312639 
L 75.571894 184.889594 
L 73.087649 204.322581 
L 70.623323 216.524621 
L 68.149093 235.736565 
L 65.655641 233.929578 
L 63.182254 257.748179 
z
" style="fill:#ff7f0e;fill-opacity:0.25;"/>
   </g>
   <g id="PolyCollection_3">
    <path clip-path="url(#p4273a2ff9e)" d="M 63.008338 237.949443 
L 63.008338 271.469187 
L 65.316417 250.911099 
L 67.614595 233.529802 
L 69.918588 205.159046 
L 72.227071 180.345363 
L 74.533043 158.338695 
L 76.83537 148.679481 
L 79.1414 139.234144 
L 81.454638 125.488607 
L 83.758475 110.958703 
L 86.052273 94.909114 
L 88.354778 94.858021 
L 90.658898 90.728957 
L 92.972706 83.267275 
L 95.27366 79.93083 
L 97.594509 75.456744 
L 99.905988 71.070193 
L 102.208847 70.953772 
L 104.508963 71.253051 
L 106.810387 80.220962 
L 109.111941 71.061349 
L 111.4017 70.403873 
L 113.691547 77.361129 
L 116.004799 66.744436 
L 118.303737 74.045815 
L 120.603988 82.522905 
L 122.893032 74.732543 
L 125.19244 69.02419 
L 127.476542 82.908704 
L 129.785919 56.747083 
L 132.069396 67.476884 
L 134.360011 66.846361 
L 136.654298 61.423012 
L 138.94155 68.829021 
L 141.23418 61.813855 
L 143.530267 79.952482 
L 145.827833 67.058173 
L 148.107783 69.694995 
L 150.406448 65.895899 
L 152.693578 71.108375 
L 154.9802 65.248003 
L 157.27556 56.948203 
L 159.562709 57.027533 
L 161.858046 63.316555 
L 164.144435 62.12166 
L 166.432468 66.150303 
L 168.715364 67.80875 
L 170.993479 61.089647 
L 173.289333 57.455648 
L 175.57677 57.637998 
L 177.883228 49.03479 
L 180.176146 60.013903 
L 182.472063 65.595548 
L 184.762787 58.820513 
L 187.043256 64.242832 
L 189.331153 60.478739 
L 191.608946 62.177744 
L 193.896097 55.811551 
L 196.178126 53.142916 
L 198.465229 56.507206 
L 200.741142 62.451561 
L 203.031397 55.422754 
L 205.332168 58.728279 
L 207.623036 54.080341 
L 209.916792 54.043754 
L 212.217118 52.392335 
L 214.505132 54.058004 
L 216.800696 56.003503 
L 219.090095 54.337307 
L 221.400733 51.342685 
L 223.679623 56.520374 
L 225.965811 60.422455 
L 228.257693 50.271223 
L 230.55199 53.240075 
L 232.845631 48.140314 
L 235.134484 51.552511 
L 237.412785 56.491485 
L 239.703515 55.468856 
L 241.993666 55.868965 
L 244.275577 45.237821 
L 246.55637 47.354122 
L 248.839755 50.274065 
L 251.128519 46.076816 
L 253.422309 44.422683 
L 255.713688 48.858446 
L 258.00494 51.810089 
L 260.301138 49.11422 
L 262.608663 44.440807 
L 264.887909 47.798266 
L 267.193708 40.604711 
L 269.481743 50.75599 
L 271.758676 51.108693 
L 274.045393 45.548105 
L 276.336264 43.179427 
L 278.618774 42.013296 
L 280.902722 46.812731 
L 283.19381 45.666232 
L 285.493179 48.380312 
L 287.787881 44.575076 
L 290.077319 42.975792 
L 292.366257 42.087195 
L 294.657437 44.006072 
L 296.948222 40.57718 
L 299.227104 43.041288 
L 301.506623 40.68744 
L 303.793453 42.750333 
L 306.068233 40.767605 
L 308.379392 37.723283 
L 310.667406 42.314215 
L 312.958758 42.519038 
L 315.249124 38.961131 
L 317.534194 36.84655 
L 319.823245 40.720264 
L 322.113124 38.221473 
L 324.38829 39.358265 
L 326.671085 37.96524 
L 328.974985 35.927532 
L 331.254378 39.506843 
L 333.537679 35.390318 
L 335.829236 36.904231 
L 338.121263 35.079828 
L 340.414445 32.59573 
L 342.700587 32.443722 
L 344.996148 31.394816 
L 347.281346 35.454976 
L 349.569686 32.89711 
L 351.859513 34.976188 
L 354.157225 34.188686 
L 356.439898 34.255037 
L 358.730539 34.727502 
L 361.025153 33.140413 
L 363.315583 32.908533 
L 365.604679 31.278214 
L 367.890075 33.389483 
L 370.179403 34.156836 
L 372.459444 34.043011 
L 374.747871 32.501057 
L 377.038195 32.88342 
L 379.320277 32.639065 
L 381.607073 33.06619 
L 383.890456 33.27975 
L 386.180422 32.094515 
L 388.468767 31.847859 
L 390.766295 33.033249 
L 393.054503 32.747652 
L 395.342012 32.196163 
L 397.628582 32.804945 
L 399.90795 32.873265 
L 402.201721 33.165005 
L 404.501692 32.036597 
L 404.501692 26.76182 
L 404.501692 26.76182 
L 402.201721 26.048675 
L 399.90795 26.103121 
L 397.628582 27.061292 
L 395.342012 26.661577 
L 393.054503 25.872794 
L 390.766295 26.239754 
L 388.468767 26.357323 
L 386.180422 27.593752 
L 383.890456 27.120397 
L 381.607073 27.511927 
L 379.320277 26.752585 
L 377.038195 27.576051 
L 374.747871 27.009239 
L 372.459444 27.12834 
L 370.179403 27.785718 
L 367.890075 26.892018 
L 365.604679 28.113436 
L 363.315583 29.093345 
L 361.025153 26.251237 
L 358.730539 29.528663 
L 356.439898 27.984134 
L 354.157225 25.974168 
L 351.859513 27.440954 
L 349.569686 28.452211 
L 347.281346 31.589387 
L 344.996148 27.878187 
L 342.700587 29.973419 
L 340.414445 29.940058 
L 338.121263 31.311978 
L 335.829236 31.207953 
L 333.537679 32.187955 
L 331.254378 31.215568 
L 328.974985 29.218483 
L 326.671085 35.130105 
L 324.38829 33.796404 
L 322.113124 35.585753 
L 319.823245 33.205608 
L 317.534194 33.341951 
L 315.249124 30.040902 
L 312.958758 36.686613 
L 310.667406 38.255873 
L 308.379392 31.575368 
L 306.068233 35.353231 
L 303.793453 34.912911 
L 301.506623 37.213097 
L 299.227104 35.749099 
L 296.948222 34.297866 
L 294.657437 38.0471 
L 292.366257 35.872666 
L 290.077319 37.47565 
L 287.787881 37.893359 
L 285.493179 38.359405 
L 283.19381 36.802203 
L 280.902722 39.333752 
L 278.618774 40.217846 
L 276.336264 38.814421 
L 274.045393 37.038977 
L 271.758676 44.351557 
L 269.481743 43.695763 
L 267.193708 38.482294 
L 264.887909 42.500853 
L 262.608663 37.968305 
L 260.301138 40.769635 
L 258.00494 47.209563 
L 255.713688 45.118721 
L 253.422309 43.088237 
L 251.128519 43.569746 
L 248.839755 46.4913 
L 246.55637 42.944996 
L 244.275577 40.374753 
L 241.993666 43.506627 
L 239.703515 43.906736 
L 237.412785 43.477341 
L 235.134484 43.136536 
L 232.845631 43.463918 
L 230.55199 48.923715 
L 228.257693 47.858578 
L 225.965811 49.690665 
L 223.679623 49.736728 
L 221.400733 43.642979 
L 219.090095 45.394225 
L 216.800696 46.93149 
L 214.505132 45.020971 
L 212.217118 44.788293 
L 209.916792 46.696275 
L 207.623036 44.998634 
L 205.332168 51.088223 
L 203.031397 47.69021 
L 200.741142 50.449756 
L 198.465229 47.317637 
L 196.178126 45.105532 
L 193.896097 45.462388 
L 191.608946 50.723573 
L 189.331153 47.67671 
L 187.043256 51.92127 
L 184.762787 52.538397 
L 182.472063 51.458405 
L 180.176146 51.997564 
L 177.883228 45.120347 
L 175.57677 52.593768 
L 173.289333 50.937094 
L 170.993479 50.684526 
L 168.715364 51.202872 
L 166.432468 50.191769 
L 164.144435 55.228909 
L 161.858046 56.288302 
L 159.562709 51.127916 
L 157.27556 45.27491 
L 154.9802 53.40768 
L 152.693578 52.589793 
L 150.406448 59.641293 
L 148.107783 56.96934 
L 145.827833 53.911121 
L 143.530267 58.339232 
L 141.23418 56.129947 
L 138.94155 54.7505 
L 136.654298 56.224174 
L 134.360011 59.165418 
L 132.069396 60.373919 
L 129.785919 47.611671 
L 127.476542 57.222034 
L 125.19244 55.919769 
L 122.893032 67.711805 
L 120.603988 63.421521 
L 118.303737 65.669659 
L 116.004799 54.758768 
L 113.691547 62.591639 
L 111.4017 61.540241 
L 109.111941 58.984419 
L 106.810387 64.714967 
L 104.508963 60.394446 
L 102.208847 66.092151 
L 99.905988 65.08588 
L 97.594509 65.979107 
L 95.27366 69.276381 
L 92.972706 70.745128 
L 90.658898 77.461729 
L 88.354778 75.942892 
L 86.052273 84.908949 
L 83.758475 84.105463 
L 81.454638 99.177913 
L 79.1414 104.94976 
L 76.83537 108.496238 
L 74.533043 122.566367 
L 72.227071 146.090375 
L 69.918588 155.17999 
L 67.614595 177.886644 
L 65.316417 195.38748 
L 63.008338 237.949443 
z
" style="fill:#2ca02c;fill-opacity:0.25;"/>
   </g>
   <g id="PolyCollection_4">
    <path clip-path="url(#p4273a2ff9e)" d="M 62.998636 277.60813 
L 62.998636 285.20152 
L 65.289652 283.253728 
L 67.572983 286.018345 
L 69.861432 290.329091 
L 72.159537 271.12096 
L 74.450194 268.791715 
L 76.734912 270.032177 
L 79.03308 258.698072 
L 81.332631 250.120849 
L 83.630147 236.926475 
L 85.920641 229.321148 
L 88.215445 222.87269 
L 90.507201 207.284166 
L 92.795922 204.795349 
L 95.082852 207.737295 
L 97.377492 206.702411 
L 99.670669 204.164682 
L 101.962519 197.022685 
L 104.256876 185.003701 
L 106.55367 179.936075 
L 108.84992 180.199626 
L 111.149875 171.934734 
L 113.431182 173.058447 
L 115.729245 164.455252 
L 118.018335 162.438894 
L 120.31419 152.569666 
L 122.613268 145.557205 
L 124.891195 152.572541 
L 127.177652 144.729349 
L 129.462819 146.293844 
L 131.749571 142.56258 
L 134.036536 133.85187 
L 136.321083 139.089214 
L 138.610256 121.701474 
L 140.890483 133.256949 
L 143.184661 106.630262 
L 145.464537 117.535226 
L 147.75448 105.65273 
L 150.040315 108.646875 
L 152.327376 95.711159 
L 154.603407 99.012339 
L 156.900604 91.252611 
L 159.195481 94.951259 
L 161.470211 83.630609 
L 163.759298 97.601663 
L 166.050727 108.436553 
L 168.320757 100.958776 
L 170.596853 98.277861 
L 172.870449 96.758254 
L 175.155004 94.563697 
L 177.430004 90.336459 
L 179.715793 86.612611 
L 181.996518 91.156837 
L 184.273618 86.544164 
L 186.545545 87.4461 
L 188.824884 89.709895 
L 191.092979 104.814013 
L 193.37021 82.587488 
L 195.654724 75.677163 
L 197.91934 87.439385 
L 200.199329 89.436305 
L 202.471453 89.730832 
L 204.740874 81.48716 
L 207.022757 72.636771 
L 209.301406 79.470064 
L 211.577444 82.738896 
L 213.849663 78.472321 
L 216.12822 79.166243 
L 218.405044 81.157401 
L 220.682678 81.149377 
L 222.953559 79.584188 
L 225.230091 80.091971 
L 227.50726 72.027593 
L 229.78088 71.984471 
L 232.056087 72.225723 
L 234.330841 75.58709 
L 236.599692 73.292972 
L 238.876098 74.637736 
L 241.149445 75.930495 
L 243.431528 64.583316 
L 245.701425 65.321681 
L 247.969867 67.174342 
L 250.245627 65.186861 
L 252.529691 71.730331 
L 254.802508 68.96663 
L 257.071582 67.373387 
L 259.348273 67.096234 
L 261.631452 65.423485 
L 263.902183 68.649307 
L 266.182921 65.700108 
L 268.46349 59.895951 
L 270.734051 65.611406 
L 273.014504 61.691976 
L 275.281258 63.173621 
L 277.553352 59.628935 
L 279.822882 66.031484 
L 282.097671 54.787378 
L 284.360963 58.029205 
L 286.629774 64.789691 
L 288.899588 61.952118 
L 291.175466 56.656828 
L 293.454771 56.158221 
L 295.740542 54.195629 
L 298.01258 58.181084 
L 300.279329 57.484251 
L 302.556599 57.134906 
L 304.836904 50.250528 
L 307.11146 51.945172 
L 309.385983 53.965427 
L 311.669164 55.731814 
L 313.950517 54.859454 
L 316.228075 53.354088 
L 318.495403 56.217219 
L 320.776517 51.531875 
L 323.04659 51.956317 
L 325.324402 51.252444 
L 327.594 46.39725 
L 329.862742 46.526938 
L 332.138545 44.131473 
L 334.412584 45.051013 
L 336.699317 43.001556 
L 338.97763 43.638621 
L 341.25641 43.984882 
L 343.540855 45.487382 
L 345.822443 42.995925 
L 348.097224 44.000338 
L 350.367919 44.961831 
L 352.639412 42.014282 
L 354.926974 41.727843 
L 357.195911 41.68192 
L 359.467399 44.55388 
L 361.747882 41.655171 
L 364.025215 40.850339 
L 366.313854 39.199739 
L 368.577476 40.178535 
L 370.842393 41.823439 
L 373.11693 40.410989 
L 375.392235 40.651218 
L 377.665199 39.651936 
L 379.947131 40.99233 
L 382.221536 41.093479 
L 384.501877 41.089118 
L 386.767895 42.149057 
L 389.04723 41.507029 
L 391.325505 40.428402 
L 393.606912 40.792821 
L 395.880696 40.227967 
L 398.152158 40.336156 
L 400.417501 41.08747 
L 402.690143 39.900554 
L 402.690143 35.152462 
L 402.690143 35.152462 
L 400.417501 36.575774 
L 398.152158 35.844003 
L 395.880696 36.308133 
L 393.606912 35.802602 
L 391.325505 36.878902 
L 389.04723 36.393508 
L 386.767895 35.75148 
L 384.501877 35.328335 
L 382.221536 35.739238 
L 379.947131 36.018357 
L 377.665199 36.64687 
L 375.392235 37.545936 
L 373.11693 36.184434 
L 370.842393 37.441535 
L 368.577476 36.179595 
L 366.313854 35.141397 
L 364.025215 38.295988 
L 361.747882 39.33018 
L 359.467399 39.160346 
L 357.195911 39.778019 
L 354.926974 38.011719 
L 352.639412 39.920243 
L 350.367919 41.184652 
L 348.097224 39.120654 
L 345.822443 39.591157 
L 343.540855 38.464138 
L 341.25641 40.975135 
L 338.97763 41.202749 
L 336.699317 40.949963 
L 334.412584 41.748028 
L 332.138545 42.489598 
L 329.862742 41.755186 
L 327.594 44.079839 
L 325.324402 41.538256 
L 323.04659 45.698898 
L 320.776517 46.47928 
L 318.495403 50.277176 
L 316.228075 46.555414 
L 313.950517 49.4993 
L 311.669164 51.949048 
L 309.385983 48.13904 
L 307.11146 46.243953 
L 304.836904 47.10807 
L 302.556599 45.85941 
L 300.279329 49.781347 
L 298.01258 47.838724 
L 295.740542 47.07831 
L 293.454771 51.522641 
L 291.175466 52.447795 
L 288.899588 54.923865 
L 286.629774 53.628699 
L 284.360963 54.219555 
L 282.097671 52.418897 
L 279.822882 57.548037 
L 277.553352 50.780801 
L 275.281258 52.871834 
L 273.014504 51.802575 
L 270.734051 58.146085 
L 268.46349 51.166342 
L 266.182921 53.548808 
L 263.902183 64.184658 
L 261.631452 56.317012 
L 259.348273 57.907048 
L 257.071582 59.943506 
L 254.802508 61.968988 
L 252.529691 57.544232 
L 250.245627 54.951906 
L 247.969867 60.261198 
L 245.701425 57.249344 
L 243.431528 54.724924 
L 241.149445 58.979787 
L 238.876098 62.230217 
L 236.599692 66.125886 
L 234.330841 69.526809 
L 232.056087 66.540577 
L 229.78088 62.510548 
L 227.50726 62.942013 
L 225.230091 66.267719 
L 222.953559 68.67385 
L 220.682678 62.184822 
L 218.405044 75.6432 
L 216.12822 62.447578 
L 213.849663 67.650076 
L 211.577444 69.078542 
L 209.301406 70.864291 
L 207.022757 63.044715 
L 204.740874 67.720051 
L 202.471453 70.569847 
L 200.199329 72.881368 
L 197.91934 74.581672 
L 195.654724 68.309593 
L 193.37021 70.891004 
L 191.092979 86.572105 
L 188.824884 68.57379 
L 186.545545 72.676609 
L 184.273618 71.442903 
L 181.996518 78.932195 
L 179.715793 73.332127 
L 177.430004 79.040694 
L 175.155004 81.872935 
L 172.870449 83.356426 
L 170.596853 85.811484 
L 168.320757 78.3847 
L 166.050727 68.237373 
L 163.759298 75.631508 
L 161.470211 80.763382 
L 159.195481 81.307403 
L 156.900604 79.251685 
L 154.603407 81.280311 
L 152.327376 75.860958 
L 150.040315 79.951045 
L 147.75448 79.207818 
L 145.464537 88.622407 
L 143.184661 81.315101 
L 140.890483 86.248439 
L 138.610256 87.066387 
L 136.321083 91.984228 
L 134.036536 90.45871 
L 131.749571 91.536354 
L 129.462819 103.110516 
L 127.177652 109.124263 
L 124.891195 119.789958 
L 122.613268 110.550694 
L 120.31419 127.326899 
L 118.018335 122.707788 
L 115.729245 120.51346 
L 113.431182 134.364155 
L 111.149875 147.411862 
L 108.84992 148.638708 
L 106.55367 163.139864 
L 104.256876 162.373182 
L 101.962519 161.922252 
L 99.670669 166.911881 
L 97.377492 175.556604 
L 95.082852 182.085448 
L 92.795922 182.654461 
L 90.507201 187.52174 
L 88.215445 190.679396 
L 85.920641 197.756663 
L 83.630147 210.083984 
L 81.332631 218.023555 
L 79.03308 228.177682 
L 76.734912 229.405298 
L 74.450194 236.103509 
L 72.159537 257.518437 
L 69.861432 268.446571 
L 67.572983 270.621676 
L 65.289652 272.199827 
L 62.998636 277.60813 
z
" style="fill:#d62728;fill-opacity:0.25;"/>
   </g>
   <g id="matplotlib.axis_1">
    <g id="xtick_1">
     <g id="line2d_1">
      <defs>
       <path d="M 0 0 
L 0 3.5 
" id="md9aa3682af" style="stroke:#000000;stroke-width:0.8;"/>
      </defs>
      <g>
       <use style="stroke:#000000;stroke-width:0.8;" x="60.59545" xlink:href="#md9aa3682af" y="303.64"/>
      </g>
     </g>
     <g id="text_1">
      <!-- 0 -->
      <g transform="translate(57.4142 318.238437)scale(0.1 -0.1)">
       <defs>
        <path d="M 31.78125 66.40625 
Q 24.171875 66.40625 20.328125 58.90625 
Q 16.5 51.421875 16.5 36.375 
Q 16.5 21.390625 20.328125 13.890625 
Q 24.171875 6.390625 31.78125 6.390625 
Q 39.453125 6.390625 43.28125 13.890625 
Q 47.125 21.390625 47.125 36.375 
Q 47.125 51.421875 43.28125 58.90625 
Q 39.453125 66.40625 31.78125 66.40625 
z
M 31.78125 74.21875 
Q 44.046875 74.21875 50.515625 64.515625 
Q 56.984375 54.828125 56.984375 36.375 
Q 56.984375 17.96875 50.515625 8.265625 
Q 44.046875 -1.421875 31.78125 -1.421875 
Q 19.53125 -1.421875 13.0625 8.265625 
Q 6.59375 17.96875 6.59375 36.375 
Q 6.59375 54.828125 13.0625 64.515625 
Q 19.53125 74.21875 31.78125 74.21875 
z
" id="DejaVuSans-48"/>
       </defs>
       <use xlink:href="#DejaVuSans-48"/>
      </g>
     </g>
    </g>
    <g id="xtick_2">
     <g id="line2d_2">
      <g>
       <use style="stroke:#000000;stroke-width:0.8;" x="145.815831" xlink:href="#md9aa3682af" y="303.64"/>
      </g>
     </g>
     <g id="text_2">
      <!-- 2000 -->
      <g transform="translate(133.090831 318.238437)scale(0.1 -0.1)">
       <defs>
        <path d="M 19.1875 8.296875 
L 53.609375 8.296875 
L 53.609375 0 
L 7.328125 0 
L 7.328125 8.296875 
Q 12.9375 14.109375 22.625 23.890625 
Q 32.328125 33.6875 34.8125 36.53125 
Q 39.546875 41.84375 41.421875 45.53125 
Q 43.3125 49.21875 43.3125 52.78125 
Q 43.3125 58.59375 39.234375 62.25 
Q 35.15625 65.921875 28.609375 65.921875 
Q 23.96875 65.921875 18.8125 64.3125 
Q 13.671875 62.703125 7.8125 59.421875 
L 7.8125 69.390625 
Q 13.765625 71.78125 18.9375 73 
Q 24.125 74.21875 28.421875 74.21875 
Q 39.75 74.21875 46.484375 68.546875 
Q 53.21875 62.890625 53.21875 53.421875 
Q 53.21875 48.921875 51.53125 44.890625 
Q 49.859375 40.875 45.40625 35.40625 
Q 44.1875 33.984375 37.640625 27.21875 
Q 31.109375 20.453125 19.1875 8.296875 
z
" id="DejaVuSans-50"/>
       </defs>
       <use xlink:href="#DejaVuSans-50"/>
       <use x="63.623047" xlink:href="#DejaVuSans-48"/>
       <use x="127.246094" xlink:href="#DejaVuSans-48"/>
       <use x="190.869141" xlink:href="#DejaVuSans-48"/>
      </g>
     </g>
    </g>
    <g id="xtick_3">
     <g id="line2d_3">
      <g>
       <use style="stroke:#000000;stroke-width:0.8;" x="231.036212" xlink:href="#md9aa3682af" y="303.64"/>
      </g>
     </g>
     <g id="text_3">
      <!-- 4000 -->
      <g transform="translate(218.311212 318.238437)scale(0.1 -0.1)">
       <defs>
        <path d="M 37.796875 64.3125 
L 12.890625 25.390625 
L 37.796875 25.390625 
z
M 35.203125 72.90625 
L 47.609375 72.90625 
L 47.609375 25.390625 
L 58.015625 25.390625 
L 58.015625 17.1875 
L 47.609375 17.1875 
L 47.609375 0 
L 37.796875 0 
L 37.796875 17.1875 
L 4.890625 17.1875 
L 4.890625 26.703125 
z
" id="DejaVuSans-52"/>
       </defs>
       <use xlink:href="#DejaVuSans-52"/>
       <use x="63.623047" xlink:href="#DejaVuSans-48"/>
       <use x="127.246094" xlink:href="#DejaVuSans-48"/>
       <use x="190.869141" xlink:href="#DejaVuSans-48"/>
      </g>
     </g>
    </g>
    <g id="xtick_4">
     <g id="line2d_4">
      <g>
       <use style="stroke:#000000;stroke-width:0.8;" x="316.256593" xlink:href="#md9aa3682af" y="303.64"/>
      </g>
     </g>
     <g id="text_4">
      <!-- 6000 -->
      <g transform="translate(303.531593 318.238437)scale(0.1 -0.1)">
       <defs>
        <path d="M 33.015625 40.375 
Q 26.375 40.375 22.484375 35.828125 
Q 18.609375 31.296875 18.609375 23.390625 
Q 18.609375 15.53125 22.484375 10.953125 
Q 26.375 6.390625 33.015625 6.390625 
Q 39.65625 6.390625 43.53125 10.953125 
Q 47.40625 15.53125 47.40625 23.390625 
Q 47.40625 31.296875 43.53125 35.828125 
Q 39.65625 40.375 33.015625 40.375 
z
M 52.59375 71.296875 
L 52.59375 62.3125 
Q 48.875 64.0625 45.09375 64.984375 
Q 41.3125 65.921875 37.59375 65.921875 
Q 27.828125 65.921875 22.671875 59.328125 
Q 17.53125 52.734375 16.796875 39.40625 
Q 19.671875 43.65625 24.015625 45.921875 
Q 28.375 48.1875 33.59375 48.1875 
Q 44.578125 48.1875 50.953125 41.515625 
Q 57.328125 34.859375 57.328125 23.390625 
Q 57.328125 12.15625 50.6875 5.359375 
Q 44.046875 -1.421875 33.015625 -1.421875 
Q 20.359375 -1.421875 13.671875 8.265625 
Q 6.984375 17.96875 6.984375 36.375 
Q 6.984375 53.65625 15.1875 63.9375 
Q 23.390625 74.21875 37.203125 74.21875 
Q 40.921875 74.21875 44.703125 73.484375 
Q 48.484375 72.75 52.59375 71.296875 
z
" id="DejaVuSans-54"/>
       </defs>
       <use xlink:href="#DejaVuSans-54"/>
       <use x="63.623047" xlink:href="#DejaVuSans-48"/>
       <use x="127.246094" xlink:href="#DejaVuSans-48"/>
       <use x="190.869141" xlink:href="#DejaVuSans-48"/>
      </g>
     </g>
    </g>
    <g id="xtick_5">
     <g id="line2d_5">
      <g>
       <use style="stroke:#000000;stroke-width:0.8;" x="401.476975" xlink:href="#md9aa3682af" y="303.64"/>
      </g>
     </g>
     <g id="text_5">
      <!-- 8000 -->
      <g transform="translate(388.751975 318.238437)scale(0.1 -0.1)">
       <defs>
        <path d="M 31.78125 34.625 
Q 24.75 34.625 20.71875 30.859375 
Q 16.703125 27.09375 16.703125 20.515625 
Q 16.703125 13.921875 20.71875 10.15625 
Q 24.75 6.390625 31.78125 6.390625 
Q 38.8125 6.390625 42.859375 10.171875 
Q 46.921875 13.96875 46.921875 20.515625 
Q 46.921875 27.09375 42.890625 30.859375 
Q 38.875 34.625 31.78125 34.625 
z
M 21.921875 38.8125 
Q 15.578125 40.375 12.03125 44.71875 
Q 8.5 49.078125 8.5 55.328125 
Q 8.5 64.0625 14.71875 69.140625 
Q 20.953125 74.21875 31.78125 74.21875 
Q 42.671875 74.21875 48.875 69.140625 
Q 55.078125 64.0625 55.078125 55.328125 
Q 55.078125 49.078125 51.53125 44.71875 
Q 48 40.375 41.703125 38.8125 
Q 48.828125 37.15625 52.796875 32.3125 
Q 56.78125 27.484375 56.78125 20.515625 
Q 56.78125 9.90625 50.3125 4.234375 
Q 43.84375 -1.421875 31.78125 -1.421875 
Q 19.734375 -1.421875 13.25 4.234375 
Q 6.78125 9.90625 6.78125 20.515625 
Q 6.78125 27.484375 10.78125 32.3125 
Q 14.796875 37.15625 21.921875 38.8125 
z
M 18.3125 54.390625 
Q 18.3125 48.734375 21.84375 45.5625 
Q 25.390625 42.390625 31.78125 42.390625 
Q 38.140625 42.390625 41.71875 45.5625 
Q 45.3125 48.734375 45.3125 54.390625 
Q 45.3125 60.0625 41.71875 63.234375 
Q 38.140625 66.40625 31.78125 66.40625 
Q 25.390625 66.40625 21.84375 63.234375 
Q 18.3125 60.0625 18.3125 54.390625 
z
" id="DejaVuSans-56"/>
       </defs>
       <use xlink:href="#DejaVuSans-56"/>
       <use x="63.623047" xlink:href="#DejaVuSans-48"/>
       <use x="127.246094" xlink:href="#DejaVuSans-48"/>
       <use x="190.869141" xlink:href="#DejaVuSans-48"/>
      </g>
     </g>
    </g>
    <g id="text_6">
     <!-- Time (sec) -->
     <g transform="translate(221.130313 331.916562)scale(0.1 -0.1)">
      <defs>
       <path d="M -0.296875 72.90625 
L 61.375 72.90625 
L 61.375 64.59375 
L 35.5 64.59375 
L 35.5 0 
L 25.59375 0 
L 25.59375 64.59375 
L -0.296875 64.59375 
z
" id="DejaVuSans-84"/>
       <path d="M 9.421875 54.6875 
L 18.40625 54.6875 
L 18.40625 0 
L 9.421875 0 
z
M 9.421875 75.984375 
L 18.40625 75.984375 
L 18.40625 64.59375 
L 9.421875 64.59375 
z
" id="DejaVuSans-105"/>
       <path d="M 52 44.1875 
Q 55.375 50.25 60.0625 53.125 
Q 64.75 56 71.09375 56 
Q 79.640625 56 84.28125 50.015625 
Q 88.921875 44.046875 88.921875 33.015625 
L 88.921875 0 
L 79.890625 0 
L 79.890625 32.71875 
Q 79.890625 40.578125 77.09375 44.375 
Q 74.3125 48.1875 68.609375 48.1875 
Q 61.625 48.1875 57.5625 43.546875 
Q 53.515625 38.921875 53.515625 30.90625 
L 53.515625 0 
L 44.484375 0 
L 44.484375 32.71875 
Q 44.484375 40.625 41.703125 44.40625 
Q 38.921875 48.1875 33.109375 48.1875 
Q 26.21875 48.1875 22.15625 43.53125 
Q 18.109375 38.875 18.109375 30.90625 
L 18.109375 0 
L 9.078125 0 
L 9.078125 54.6875 
L 18.109375 54.6875 
L 18.109375 46.1875 
Q 21.1875 51.21875 25.484375 53.609375 
Q 29.78125 56 35.6875 56 
Q 41.65625 56 45.828125 52.96875 
Q 50 49.953125 52 44.1875 
z
" id="DejaVuSans-109"/>
       <path d="M 56.203125 29.59375 
L 56.203125 25.203125 
L 14.890625 25.203125 
Q 15.484375 15.921875 20.484375 11.0625 
Q 25.484375 6.203125 34.421875 6.203125 
Q 39.59375 6.203125 44.453125 7.46875 
Q 49.3125 8.734375 54.109375 11.28125 
L 54.109375 2.78125 
Q 49.265625 0.734375 44.1875 -0.34375 
Q 39.109375 -1.421875 33.890625 -1.421875 
Q 20.796875 -1.421875 13.15625 6.1875 
Q 5.515625 13.8125 5.515625 26.8125 
Q 5.515625 40.234375 12.765625 48.109375 
Q 20.015625 56 32.328125 56 
Q 43.359375 56 49.78125 48.890625 
Q 56.203125 41.796875 56.203125 29.59375 
z
M 47.21875 32.234375 
Q 47.125 39.59375 43.09375 43.984375 
Q 39.0625 48.390625 32.421875 48.390625 
Q 24.90625 48.390625 20.390625 44.140625 
Q 15.875 39.890625 15.1875 32.171875 
z
" id="DejaVuSans-101"/>
       <path id="DejaVuSans-32"/>
       <path d="M 31 75.875 
Q 24.46875 64.65625 21.28125 53.65625 
Q 18.109375 42.671875 18.109375 31.390625 
Q 18.109375 20.125 21.3125 9.0625 
Q 24.515625 -2 31 -13.1875 
L 23.1875 -13.1875 
Q 15.875 -1.703125 12.234375 9.375 
Q 8.59375 20.453125 8.59375 31.390625 
Q 8.59375 42.28125 12.203125 53.3125 
Q 15.828125 64.359375 23.1875 75.875 
z
" id="DejaVuSans-40"/>
       <path d="M 44.28125 53.078125 
L 44.28125 44.578125 
Q 40.484375 46.53125 36.375 47.5 
Q 32.28125 48.484375 27.875 48.484375 
Q 21.1875 48.484375 17.84375 46.4375 
Q 14.5 44.390625 14.5 40.28125 
Q 14.5 37.15625 16.890625 35.375 
Q 19.28125 33.59375 26.515625 31.984375 
L 29.59375 31.296875 
Q 39.15625 29.25 43.1875 25.515625 
Q 47.21875 21.78125 47.21875 15.09375 
Q 47.21875 7.46875 41.1875 3.015625 
Q 35.15625 -1.421875 24.609375 -1.421875 
Q 20.21875 -1.421875 15.453125 -0.5625 
Q 10.6875 0.296875 5.421875 2 
L 5.421875 11.28125 
Q 10.40625 8.6875 15.234375 7.390625 
Q 20.0625 6.109375 24.8125 6.109375 
Q 31.15625 6.109375 34.5625 8.28125 
Q 37.984375 10.453125 37.984375 14.40625 
Q 37.984375 18.0625 35.515625 20.015625 
Q 33.0625 21.96875 24.703125 23.78125 
L 21.578125 24.515625 
Q 13.234375 26.265625 9.515625 29.90625 
Q 5.8125 33.546875 5.8125 39.890625 
Q 5.8125 47.609375 11.28125 51.796875 
Q 16.75 56 26.8125 56 
Q 31.78125 56 36.171875 55.265625 
Q 40.578125 54.546875 44.28125 53.078125 
z
" id="DejaVuSans-115"/>
       <path d="M 48.78125 52.59375 
L 48.78125 44.1875 
Q 44.96875 46.296875 41.140625 47.34375 
Q 37.3125 48.390625 33.40625 48.390625 
Q 24.65625 48.390625 19.8125 42.84375 
Q 14.984375 37.3125 14.984375 27.296875 
Q 14.984375 17.28125 19.8125 11.734375 
Q 24.65625 6.203125 33.40625 6.203125 
Q 37.3125 6.203125 41.140625 7.25 
Q 44.96875 8.296875 48.78125 10.40625 
L 48.78125 2.09375 
Q 45.015625 0.34375 40.984375 -0.53125 
Q 36.96875 -1.421875 32.421875 -1.421875 
Q 20.0625 -1.421875 12.78125 6.34375 
Q 5.515625 14.109375 5.515625 27.296875 
Q 5.515625 40.671875 12.859375 48.328125 
Q 20.21875 56 33.015625 56 
Q 37.15625 56 41.109375 55.140625 
Q 45.0625 54.296875 48.78125 52.59375 
z
" id="DejaVuSans-99"/>
       <path d="M 8.015625 75.875 
L 15.828125 75.875 
Q 23.140625 64.359375 26.78125 53.3125 
Q 30.421875 42.28125 30.421875 31.390625 
Q 30.421875 20.453125 26.78125 9.375 
Q 23.140625 -1.703125 15.828125 -13.1875 
L 8.015625 -13.1875 
Q 14.5 -2 17.703125 9.0625 
Q 20.90625 20.125 20.90625 31.390625 
Q 20.90625 42.671875 17.703125 53.65625 
Q 14.5 64.65625 8.015625 75.875 
z
" id="DejaVuSans-41"/>
      </defs>
      <use xlink:href="#DejaVuSans-84"/>
      <use x="57.958984" xlink:href="#DejaVuSans-105"/>
      <use x="85.742188" xlink:href="#DejaVuSans-109"/>
      <use x="183.154297" xlink:href="#DejaVuSans-101"/>
      <use x="244.677734" xlink:href="#DejaVuSans-32"/>
      <use x="276.464844" xlink:href="#DejaVuSans-40"/>
      <use x="315.478516" xlink:href="#DejaVuSans-115"/>
      <use x="367.578125" xlink:href="#DejaVuSans-101"/>
      <use x="429.101562" xlink:href="#DejaVuSans-99"/>
      <use x="484.082031" xlink:href="#DejaVuSans-41"/>
     </g>
    </g>
   </g>
   <g id="matplotlib.axis_2">
    <g id="ytick_1">
     <g id="line2d_6">
      <defs>
       <path d="M 0 0 
L -3.5 0 
" id="m2fcb6db58a" style="stroke:#000000;stroke-width:0.8;"/>
      </defs>
      <g>
       <use style="stroke:#000000;stroke-width:0.8;" x="44.57" xlink:href="#m2fcb6db58a" y="253.760141"/>
      </g>
     </g>
     <g id="text_7">
      <!-- 20 -->
      <g transform="translate(24.845 257.55936)scale(0.1 -0.1)">
       <use xlink:href="#DejaVuSans-50"/>
       <use x="63.623047" xlink:href="#DejaVuSans-48"/>
      </g>
     </g>
    </g>
    <g id="ytick_2">
     <g id="line2d_7">
      <g>
       <use style="stroke:#000000;stroke-width:0.8;" x="44.57" xlink:href="#m2fcb6db58a" y="193.013024"/>
      </g>
     </g>
     <g id="text_8">
      <!-- 40 -->
      <g transform="translate(24.845 196.812243)scale(0.1 -0.1)">
       <use xlink:href="#DejaVuSans-52"/>
       <use x="63.623047" xlink:href="#DejaVuSans-48"/>
      </g>
     </g>
    </g>
    <g id="ytick_3">
     <g id="line2d_8">
      <g>
       <use style="stroke:#000000;stroke-width:0.8;" x="44.57" xlink:href="#m2fcb6db58a" y="132.265908"/>
      </g>
     </g>
     <g id="text_9">
      <!-- 60 -->
      <g transform="translate(24.845 136.065127)scale(0.1 -0.1)">
       <use xlink:href="#DejaVuSans-54"/>
       <use x="63.623047" xlink:href="#DejaVuSans-48"/>
      </g>
     </g>
    </g>
    <g id="ytick_4">
     <g id="line2d_9">
      <g>
       <use style="stroke:#000000;stroke-width:0.8;" x="44.57" xlink:href="#m2fcb6db58a" y="71.518791"/>
      </g>
     </g>
     <g id="text_10">
      <!-- 80 -->
      <g transform="translate(24.845 75.31801)scale(0.1 -0.1)">
       <use xlink:href="#DejaVuSans-56"/>
       <use x="63.623047" xlink:href="#DejaVuSans-48"/>
      </g>
     </g>
    </g>
    <g id="text_11">
     <!-- Test Accuracy (%) -->
     <g transform="translate(18.765313 201.723906)rotate(-90)scale(0.1 -0.1)">
      <defs>
       <path d="M 18.3125 70.21875 
L 18.3125 54.6875 
L 36.8125 54.6875 
L 36.8125 47.703125 
L 18.3125 47.703125 
L 18.3125 18.015625 
Q 18.3125 11.328125 20.140625 9.421875 
Q 21.96875 7.515625 27.59375 7.515625 
L 36.8125 7.515625 
L 36.8125 0 
L 27.59375 0 
Q 17.1875 0 13.234375 3.875 
Q 9.28125 7.765625 9.28125 18.015625 
L 9.28125 47.703125 
L 2.6875 47.703125 
L 2.6875 54.6875 
L 9.28125 54.6875 
L 9.28125 70.21875 
z
" id="DejaVuSans-116"/>
       <path d="M 34.1875 63.1875 
L 20.796875 26.90625 
L 47.609375 26.90625 
z
M 28.609375 72.90625 
L 39.796875 72.90625 
L 67.578125 0 
L 57.328125 0 
L 50.6875 18.703125 
L 17.828125 18.703125 
L 11.1875 0 
L 0.78125 0 
z
" id="DejaVuSans-65"/>
       <path d="M 8.5 21.578125 
L 8.5 54.6875 
L 17.484375 54.6875 
L 17.484375 21.921875 
Q 17.484375 14.15625 20.5 10.265625 
Q 23.53125 6.390625 29.59375 6.390625 
Q 36.859375 6.390625 41.078125 11.03125 
Q 45.3125 15.671875 45.3125 23.6875 
L 45.3125 54.6875 
L 54.296875 54.6875 
L 54.296875 0 
L 45.3125 0 
L 45.3125 8.40625 
Q 42.046875 3.421875 37.71875 1 
Q 33.40625 -1.421875 27.6875 -1.421875 
Q 18.265625 -1.421875 13.375 4.4375 
Q 8.5 10.296875 8.5 21.578125 
z
M 31.109375 56 
z
" id="DejaVuSans-117"/>
       <path d="M 41.109375 46.296875 
Q 39.59375 47.171875 37.8125 47.578125 
Q 36.03125 48 33.890625 48 
Q 26.265625 48 22.1875 43.046875 
Q 18.109375 38.09375 18.109375 28.8125 
L 18.109375 0 
L 9.078125 0 
L 9.078125 54.6875 
L 18.109375 54.6875 
L 18.109375 46.1875 
Q 20.953125 51.171875 25.484375 53.578125 
Q 30.03125 56 36.53125 56 
Q 37.453125 56 38.578125 55.875 
Q 39.703125 55.765625 41.0625 55.515625 
z
" id="DejaVuSans-114"/>
       <path d="M 34.28125 27.484375 
Q 23.390625 27.484375 19.1875 25 
Q 14.984375 22.515625 14.984375 16.5 
Q 14.984375 11.71875 18.140625 8.90625 
Q 21.296875 6.109375 26.703125 6.109375 
Q 34.1875 6.109375 38.703125 11.40625 
Q 43.21875 16.703125 43.21875 25.484375 
L 43.21875 27.484375 
z
M 52.203125 31.203125 
L 52.203125 0 
L 43.21875 0 
L 43.21875 8.296875 
Q 40.140625 3.328125 35.546875 0.953125 
Q 30.953125 -1.421875 24.3125 -1.421875 
Q 15.921875 -1.421875 10.953125 3.296875 
Q 6 8.015625 6 15.921875 
Q 6 25.140625 12.171875 29.828125 
Q 18.359375 34.515625 30.609375 34.515625 
L 43.21875 34.515625 
L 43.21875 35.40625 
Q 43.21875 41.609375 39.140625 45 
Q 35.0625 48.390625 27.6875 48.390625 
Q 23 48.390625 18.546875 47.265625 
Q 14.109375 46.140625 10.015625 43.890625 
L 10.015625 52.203125 
Q 14.9375 54.109375 19.578125 55.046875 
Q 24.21875 56 28.609375 56 
Q 40.484375 56 46.34375 49.84375 
Q 52.203125 43.703125 52.203125 31.203125 
z
" id="DejaVuSans-97"/>
       <path d="M 32.171875 -5.078125 
Q 28.375 -14.84375 24.75 -17.8125 
Q 21.140625 -20.796875 15.09375 -20.796875 
L 7.90625 -20.796875 
L 7.90625 -13.28125 
L 13.1875 -13.28125 
Q 16.890625 -13.28125 18.9375 -11.515625 
Q 21 -9.765625 23.484375 -3.21875 
L 25.09375 0.875 
L 2.984375 54.6875 
L 12.5 54.6875 
L 29.59375 11.921875 
L 46.6875 54.6875 
L 56.203125 54.6875 
z
" id="DejaVuSans-121"/>
       <path d="M 72.703125 32.078125 
Q 68.453125 32.078125 66.03125 28.46875 
Q 63.625 24.859375 63.625 18.40625 
Q 63.625 12.0625 66.03125 8.421875 
Q 68.453125 4.78125 72.703125 4.78125 
Q 76.859375 4.78125 79.265625 8.421875 
Q 81.6875 12.0625 81.6875 18.40625 
Q 81.6875 24.8125 79.265625 28.4375 
Q 76.859375 32.078125 72.703125 32.078125 
z
M 72.703125 38.28125 
Q 80.421875 38.28125 84.953125 32.90625 
Q 89.5 27.546875 89.5 18.40625 
Q 89.5 9.28125 84.9375 3.921875 
Q 80.375 -1.421875 72.703125 -1.421875 
Q 64.890625 -1.421875 60.34375 3.921875 
Q 55.8125 9.28125 55.8125 18.40625 
Q 55.8125 27.59375 60.375 32.9375 
Q 64.9375 38.28125 72.703125 38.28125 
z
M 22.3125 68.015625 
Q 18.109375 68.015625 15.6875 64.375 
Q 13.28125 60.75 13.28125 54.390625 
Q 13.28125 47.953125 15.671875 44.328125 
Q 18.0625 40.71875 22.3125 40.71875 
Q 26.5625 40.71875 28.96875 44.328125 
Q 31.390625 47.953125 31.390625 54.390625 
Q 31.390625 60.6875 28.953125 64.34375 
Q 26.515625 68.015625 22.3125 68.015625 
z
M 66.40625 74.21875 
L 74.21875 74.21875 
L 28.609375 -1.421875 
L 20.796875 -1.421875 
z
M 22.3125 74.21875 
Q 30.03125 74.21875 34.609375 68.875 
Q 39.203125 63.53125 39.203125 54.390625 
Q 39.203125 45.171875 34.640625 39.84375 
Q 30.078125 34.515625 22.3125 34.515625 
Q 14.546875 34.515625 10.03125 39.859375 
Q 5.515625 45.21875 5.515625 54.390625 
Q 5.515625 63.484375 10.046875 68.84375 
Q 14.59375 74.21875 22.3125 74.21875 
z
" id="DejaVuSans-37"/>
      </defs>
      <use xlink:href="#DejaVuSans-84"/>
      <use x="44.083984" xlink:href="#DejaVuSans-101"/>
      <use x="105.607422" xlink:href="#DejaVuSans-115"/>
      <use x="157.707031" xlink:href="#DejaVuSans-116"/>
      <use x="196.916016" xlink:href="#DejaVuSans-32"/>
      <use x="228.703125" xlink:href="#DejaVuSans-65"/>
      <use x="295.361328" xlink:href="#DejaVuSans-99"/>
      <use x="350.341797" xlink:href="#DejaVuSans-99"/>
      <use x="405.322266" xlink:href="#DejaVuSans-117"/>
      <use x="468.701172" xlink:href="#DejaVuSans-114"/>
      <use x="509.814453" xlink:href="#DejaVuSans-97"/>
      <use x="571.09375" xlink:href="#DejaVuSans-99"/>
      <use x="626.074219" xlink:href="#DejaVuSans-121"/>
      <use x="685.253906" xlink:href="#DejaVuSans-32"/>
      <use x="717.041016" xlink:href="#DejaVuSans-40"/>
      <use x="756.054688" xlink:href="#DejaVuSans-37"/>
      <use x="851.074219" xlink:href="#DejaVuSans-41"/>
     </g>
    </g>
   </g>
   <g id="line2d_10">
    <path clip-path="url(#p4273a2ff9e)" d="M 63.034588 273.811436 
L 65.385439 257.319543 
L 67.734773 244.37222 
L 70.073126 226.234104 
L 72.402345 202.608577 
L 74.745461 186.264993 
L 77.085721 164.671291 
L 79.429615 154.92743 
L 81.780378 134.149424 
L 84.109702 128.58786 
L 86.444368 109.723032 
L 88.773881 113.134125 
L 91.107036 107.439083 
L 93.449432 89.108166 
L 95.759018 94.565915 
L 98.105012 84.92587 
L 100.431569 81.366468 
L 102.763674 79.557106 
L 105.114089 69.02721 
L 107.446911 81.959702 
L 109.773131 73.684094 
L 112.105748 75.997704 
L 114.457685 75.582441 
L 116.782318 69.620444 
L 119.114327 72.586611 
L 121.433077 73.654432 
L 123.778907 70.717926 
L 126.106853 64.548297 
L 128.43789 68.67127 
L 130.78733 59.446488 
L 133.122318 62.620288 
L 135.461415 59.001563 
L 137.782582 67.010216 
L 140.12351 60.217692 
L 142.463934 57.726111 
L 144.784622 60.72194 
L 149.467695 56.272689 
L 151.787275 57.221862 
L 154.126172 67.514465 
L 156.455805 51.52682 
L 158.789903 53.217536 
L 161.114007 56.539644 
L 163.432702 54.789605 
L 165.78587 56.83626 
L 168.128209 59.031225 
L 170.464217 55.175206 
L 172.798021 52.980242 
L 175.147412 56.005733 
L 177.499959 54.255694 
L 179.823063 52.772611 
L 182.156494 53.276859 
L 184.483651 57.340509 
L 189.162358 52.446332 
L 191.498804 59.83209 
L 193.833851 49.806443 
L 196.191878 45.742793 
L 198.508931 49.302194 
L 200.841483 51.378512 
L 203.171297 53.009904 
L 205.504109 50.933586 
L 207.834294 44.941928 
L 210.187468 49.302194 
L 212.511345 50.221706 
L 217.197025 50.63697 
L 219.517258 48.382682 
L 221.85599 46.336026 
L 224.1754 46.75129 
L 226.516063 47.64114 
L 228.847253 50.725955 
L 231.19007 43.04358 
L 233.520043 44.378356 
L 235.853881 42.391023 
L 238.191215 44.645311 
L 240.531182 43.162227 
L 242.858932 43.666475 
L 245.181987 42.568993 
L 247.530111 39.691811 
L 249.862104 42.3317 
L 252.205171 44.319032 
L 254.526757 42.984257 
L 256.855516 40.878278 
L 259.184838 44.941928 
L 261.526065 47.789449 
L 263.871285 41.145233 
L 266.2363 38.179065 
L 268.574169 40.700308 
L 270.919256 39.51384 
L 273.23737 41.44185 
L 275.584614 45.090236 
L 277.940293 39.246885 
L 280.276119 38.861284 
L 282.623376 35.628161 
L 284.957636 42.035083 
L 287.296488 38.297712 
L 289.641935 37.882448 
L 291.978234 34.767972 
L 294.32557 36.221394 
L 296.668253 34.441693 
L 299.010671 35.776469 
L 301.33103 35.361206 
L 303.669038 35.954439 
L 306.00425 37.823125 
L 308.350533 36.458688 
L 310.693695 33.907783 
L 313.020279 34.797634 
L 315.359959 37.259553 
L 317.696444 36.013762 
L 320.062262 32.454361 
L 322.391458 36.518011 
L 324.721109 33.433196 
L 327.050789 32.750978 
L 329.390259 31.712819 
L 331.701508 32.721316 
L 334.045734 31.445864 
L 336.379254 32.869625 
L 338.725055 30.022103 
L 341.059971 32.335714 
L 343.389832 30.348382 
L 345.732966 31.475526 
L 348.067643 30.31872 
L 350.426082 29.369547 
L 352.769696 29.60684 
L 357.42551 28.568681 
L 359.754567 28.361049 
L 362.090676 27.886463 
L 364.441355 28.064433 
L 366.758499 27.144921 
L 371.422711 28.598343 
L 373.757269 26.937289 
L 376.089919 27.560184 
L 378.446981 27.738154 
L 380.777031 26.581349 
L 383.125254 26.848304 
L 385.483613 27.233906 
L 387.815248 27.975448 
L 390.146516 28.034771 
L 392.484816 27.293229 
L 394.839601 26.937289 
L 397.174023 27.441537 
L 399.507853 27.411876 
L 401.851919 26.551687 
L 404.19681 27.738154 
L 406.53924 26.996612 
L 408.87979 26.0771 
L 411.212386 27.174582 
L 411.212386 27.174582 
" style="fill:none;stroke:#1f77b4;stroke-linecap:square;stroke-width:1.5;"/>
   </g>
   <g id="line2d_11">
    <path clip-path="url(#p4273a2ff9e)" d="M 63.182254 271.557148 
L 65.655641 260.28571 
L 68.149093 255.421195 
L 70.623323 236.319074 
L 73.087649 220.183122 
L 75.571894 199.894534 
L 78.057721 191.010861 
L 80.521174 188.87522 
L 83.011292 175.898236 
L 85.500819 159.302527 
L 87.975308 149.944268 
L 90.450581 137.367716 
L 95.408752 121.157609 
L 97.885526 127.401393 
L 100.38023 100.409266 
L 102.841475 97.116819 
L 105.335177 89.16749 
L 107.807748 101.862688 
L 110.288232 82.790229 
L 112.739381 89.671738 
L 115.219961 82.137672 
L 117.692623 78.548609 
L 120.167946 82.196995 
L 122.655155 74.129019 
L 125.141745 71.607776 
L 127.618478 74.603606 
L 130.086673 65.49747 
L 132.531361 67.544126 
L 135.025871 61.760099 
L 139.983908 67.929728 
L 142.449065 62.501641 
L 144.935153 60.72194 
L 147.387274 58.793931 
L 149.864544 64.162695 
L 152.320802 63.5398 
L 154.782679 58.408329 
L 157.26652 55.76844 
L 159.75038 59.802428 
L 162.23857 56.65829 
L 164.709692 55.857425 
L 167.208828 56.83626 
L 169.691586 58.467653 
L 172.169962 62.234686 
L 174.643503 56.984569 
L 179.631332 52.653964 
L 182.103945 50.399676 
L 184.575292 60.336338 
L 187.069867 54.226033 
L 189.555973 52.802272 
L 191.999783 55.175206 
L 194.470775 52.891257 
L 196.932525 55.115883 
L 199.421015 52.653964 
L 201.883993 48.560652 
L 204.334737 46.484335 
L 206.786037 51.70479 
L 209.243465 52.505655 
L 211.737518 56.450659 
L 214.231471 52.327685 
L 216.708558 51.467497 
L 219.177808 55.471823 
L 221.644851 51.497158 
L 224.104921 48.857269 
L 226.541751 51.378512 
L 229.010201 54.70062 
L 231.483162 52.920919 
L 233.967894 46.780952 
L 238.888858 51.853099 
L 241.340339 46.365688 
L 243.798358 48.827607 
L 246.270817 46.840275 
L 248.727143 45.090236 
L 251.203534 48.204712 
L 253.691991 47.077568 
L 256.143747 48.471667 
L 258.620475 42.302038 
L 261.099138 42.3317 
L 263.565254 45.920763 
L 266.022857 41.857113 
L 268.502261 45.357191 
L 270.974031 49.391179 
L 273.462179 45.119898 
L 275.931276 44.467341 
L 278.399413 42.094406 
L 280.885674 39.51384 
L 283.351144 40.196059 
L 285.81683 43.22155 
L 288.313203 43.429182 
L 290.787412 39.395194 
L 293.252496 42.68764 
L 295.722219 40.581661 
L 298.182468 40.166397 
L 300.637039 40.225721 
L 303.115477 38.060418 
L 305.587533 36.814628 
L 308.074981 38.26805 
L 310.519524 37.971433 
L 312.973168 40.225721 
L 315.470733 38.712975 
L 317.935996 38.97993 
L 320.379661 41.946098 
L 322.848167 37.140906 
L 325.329556 37.823125 
L 327.788734 32.95861 
L 330.259778 37.852786 
L 332.734487 36.666319 
L 335.212701 35.984101 
L 337.680798 35.509514 
L 340.158963 33.729813 
L 342.629329 31.297556 
L 345.123183 33.166241 
L 347.594607 33.344211 
L 350.060184 32.009436 
L 352.521938 33.344211 
L 354.973682 32.039098 
L 357.427236 34.02643 
L 359.910448 31.801804 
L 362.361395 32.839963 
L 364.832868 32.95861 
L 367.292596 31.534849 
L 369.767514 30.793307 
L 372.216033 31.831466 
L 374.697985 31.238232 
L 377.181475 31.089924 
L 379.657429 29.577178 
L 382.130103 30.31872 
L 384.59595 30.437367 
L 387.085623 29.369547 
L 389.538452 29.488193 
L 392.007511 28.390711 
L 394.474359 29.369547 
L 396.940524 29.488193 
L 399.400799 29.369547 
L 401.855846 28.746651 
L 404.34882 29.488193 
L 406.828361 29.78481 
L 409.293091 29.07293 
L 411.769561 29.488193 
L 414.235635 29.458532 
L 416.688044 29.992442 
L 419.165725 29.369547 
L 421.639582 30.022103 
L 424.121253 29.725487 
L 426.616993 29.695825 
L 429.089966 29.013606 
L 431.571364 29.933118 
L 431.571364 29.933118 
" style="fill:none;stroke:#ff7f0e;stroke-linecap:square;stroke-width:1.5;"/>
   </g>
   <g id="line2d_12">
    <path clip-path="url(#p4273a2ff9e)" d="M 63.008338 254.709315 
L 65.316417 223.149289 
L 67.614595 205.708223 
L 69.918588 180.169518 
L 72.227071 163.217869 
L 74.533043 140.452531 
L 76.83537 128.58786 
L 79.1414 122.091952 
L 81.454638 112.33326 
L 83.758475 97.532083 
L 86.052273 89.909031 
L 88.354778 85.400456 
L 90.658898 84.095343 
L 92.972706 77.006202 
L 95.27366 74.603606 
L 97.594509 70.717926 
L 99.905988 68.078036 
L 102.208847 68.522962 
L 104.508963 65.823749 
L 106.810387 72.467965 
L 109.111941 65.022884 
L 111.4017 65.972057 
L 113.691547 69.976384 
L 116.004799 60.751602 
L 118.303737 69.857737 
L 120.603988 72.972213 
L 122.893032 71.222174 
L 125.19244 62.471979 
L 127.476542 70.065369 
L 129.785919 52.179377 
L 132.069396 63.925401 
L 134.360011 63.005889 
L 136.654298 58.823593 
L 138.94155 61.789761 
L 141.23418 58.971901 
L 143.530267 69.145857 
L 145.827833 60.484647 
L 148.107783 63.332168 
L 150.406448 62.768596 
L 152.693578 61.849084 
L 154.9802 59.327841 
L 157.27556 51.111557 
L 159.562709 54.077724 
L 161.858046 59.802428 
L 164.144435 58.675284 
L 166.432468 58.171036 
L 168.715364 59.505811 
L 170.993479 55.887087 
L 173.289333 54.196371 
L 175.57677 55.115883 
L 177.883228 47.077568 
L 180.176146 56.005733 
L 182.472063 58.526976 
L 184.762787 55.679455 
L 187.043256 58.082051 
L 189.331153 54.077724 
L 191.608946 56.450659 
L 193.896097 50.63697 
L 196.178126 49.124224 
L 198.465229 51.912422 
L 200.741142 56.450659 
L 203.031397 51.556482 
L 205.332168 54.908251 
L 207.623036 49.539488 
L 209.916792 50.370015 
L 212.217118 48.590314 
L 214.505132 49.539488 
L 216.800696 51.467497 
L 219.090095 49.865766 
L 221.400733 47.492832 
L 223.679623 53.128551 
L 225.965811 55.05656 
L 228.257693 49.064901 
L 230.55199 51.081895 
L 232.845631 45.802116 
L 235.134484 47.344523 
L 237.412785 49.984413 
L 239.703515 49.687796 
L 241.993666 49.687796 
L 244.275577 42.806287 
L 246.55637 45.149559 
L 248.839755 48.382682 
L 251.128519 44.823281 
L 253.422309 43.75546 
L 255.713688 46.988583 
L 258.00494 49.509826 
L 260.301138 44.941928 
L 262.608663 41.204556 
L 264.887909 45.149559 
L 267.193708 39.543502 
L 269.481743 47.225877 
L 271.758676 47.730125 
L 274.045393 41.293541 
L 276.336264 40.996924 
L 278.618774 41.115571 
L 280.902722 43.073242 
L 283.19381 41.234218 
L 285.493179 43.369859 
L 287.787881 41.234218 
L 290.077319 40.225721 
L 292.366257 38.97993 
L 294.657437 41.026586 
L 296.948222 37.437523 
L 299.227104 39.395194 
L 301.506623 38.950269 
L 303.793453 38.831622 
L 306.068233 38.060418 
L 308.379392 34.649325 
L 310.667406 40.285044 
L 312.958758 39.602825 
L 315.249124 34.501017 
L 317.534194 35.09425 
L 319.823245 36.962936 
L 322.113124 36.903613 
L 324.38829 36.577334 
L 326.671085 36.547673 
L 328.974985 32.573008 
L 331.254378 35.361206 
L 333.537679 33.789137 
L 335.829236 34.056092 
L 338.121263 33.195903 
L 340.414445 31.267894 
L 342.700587 31.208571 
L 344.996148 29.636502 
L 347.281346 33.522181 
L 349.569686 30.67466 
L 351.859513 31.208571 
L 354.157225 30.081427 
L 358.730539 32.128083 
L 361.025153 29.695825 
L 363.315583 31.000939 
L 365.604679 29.695825 
L 367.890075 30.14075 
L 370.179403 30.971277 
L 372.459444 30.585675 
L 374.747871 29.755148 
L 377.038195 30.229735 
L 379.320277 29.695825 
L 381.607073 30.289059 
L 383.890456 30.200074 
L 386.180422 29.844133 
L 388.468767 29.102591 
L 390.766295 29.636502 
L 393.054503 29.310223 
L 395.342012 29.42887 
L 397.628582 29.933118 
L 399.90795 29.488193 
L 402.201721 29.60684 
L 404.501692 29.399208 
L 404.501692 29.399208 
" style="fill:none;stroke:#2ca02c;stroke-linecap:square;stroke-width:1.5;"/>
   </g>
   <g id="line2d_13">
    <path clip-path="url(#p4273a2ff9e)" d="M 62.998636 281.404825 
L 65.289652 277.726777 
L 67.572983 278.320011 
L 69.861432 279.387831 
L 72.159537 264.319699 
L 74.450194 252.447612 
L 76.734912 249.718738 
L 79.03308 243.437877 
L 81.332631 234.072202 
L 83.630147 223.50523 
L 85.920641 213.538906 
L 88.215445 206.776043 
L 90.507201 197.402953 
L 92.795922 193.724905 
L 95.082852 194.911372 
L 97.377492 191.129508 
L 99.670669 185.538282 
L 104.256876 173.688441 
L 106.55367 171.53797 
L 108.84992 164.419167 
L 111.149875 159.673298 
L 113.431182 153.711301 
L 115.729245 142.484356 
L 118.018335 142.573341 
L 120.31419 139.948282 
L 122.613268 128.053949 
L 124.891195 136.181249 
L 127.177652 126.926806 
L 129.462819 124.70218 
L 131.749571 117.049467 
L 134.036536 112.15529 
L 136.321083 115.536721 
L 138.610256 104.38393 
L 140.890483 109.752694 
L 143.184661 93.972681 
L 145.464537 103.078817 
L 147.75448 92.430274 
L 150.040315 94.29896 
L 152.327376 85.786058 
L 154.603407 90.146325 
L 156.900604 85.252148 
L 159.195481 88.129331 
L 161.470211 82.196995 
L 163.759298 86.616585 
L 166.050727 88.336963 
L 168.320757 89.671738 
L 170.596853 92.044672 
L 172.870449 90.05734 
L 175.155004 88.218316 
L 177.430004 84.688576 
L 179.715793 79.972369 
L 181.996518 85.044516 
L 184.273618 78.993534 
L 186.545545 80.061354 
L 188.824884 79.141842 
L 191.092979 95.693059 
L 193.37021 76.739246 
L 195.654724 71.993378 
L 197.91934 81.010528 
L 200.199329 81.158836 
L 202.471453 80.150339 
L 204.740874 74.603606 
L 207.022757 67.840743 
L 209.301406 75.167177 
L 211.577444 75.908719 
L 213.849663 73.061198 
L 216.12822 70.806911 
L 218.405044 78.4003 
L 220.682678 71.667099 
L 222.953559 74.129019 
L 225.230091 73.179845 
L 227.50726 67.484803 
L 229.78088 67.247509 
L 232.056087 69.38315 
L 234.330841 72.55695 
L 236.599692 69.709429 
L 238.876098 68.433977 
L 241.149445 67.455141 
L 243.431528 59.65412 
L 245.701425 61.285512 
L 247.969867 63.71777 
L 250.245627 60.069383 
L 252.529691 64.637282 
L 254.802508 65.467809 
L 257.071582 63.658446 
L 259.348273 62.501641 
L 261.631452 60.870249 
L 263.902183 66.416982 
L 266.182921 59.624458 
L 268.46349 55.531147 
L 270.734051 61.878746 
L 273.014504 56.747275 
L 275.281258 58.022728 
L 277.553352 55.204868 
L 279.822882 61.789761 
L 282.097671 53.603138 
L 284.360963 56.12438 
L 286.629774 59.209195 
L 288.899588 58.437991 
L 291.175466 54.552311 
L 293.454771 53.840431 
L 295.740542 50.63697 
L 298.01258 53.009904 
L 300.279329 53.632799 
L 302.556599 51.497158 
L 304.836904 48.679299 
L 307.11146 49.094562 
L 309.385983 51.052233 
L 311.669164 53.840431 
L 313.950517 52.179377 
L 316.228075 49.954751 
L 318.495403 53.247197 
L 320.776517 49.005577 
L 323.04659 48.827607 
L 325.324402 46.39535 
L 329.862742 44.141062 
L 332.138545 43.310535 
L 334.412584 43.39952 
L 336.699317 41.97576 
L 338.97763 42.420685 
L 341.25641 42.480008 
L 343.540855 41.97576 
L 345.822443 41.293541 
L 348.097224 41.560496 
L 350.367919 43.073242 
L 352.639412 40.967263 
L 354.926974 39.869781 
L 357.195911 40.729969 
L 359.467399 41.857113 
L 361.747882 40.492676 
L 364.025215 39.573164 
L 366.313854 37.170568 
L 368.577476 38.179065 
L 370.842393 39.632487 
L 373.11693 38.297712 
L 375.392235 39.098577 
L 377.665199 38.149403 
L 379.947131 38.505343 
L 382.221536 38.416358 
L 384.501877 38.208727 
L 386.767895 38.950269 
L 389.04723 38.950269 
L 393.606912 38.297712 
L 395.880696 38.26805 
L 398.152158 38.09008 
L 400.417501 38.831622 
L 402.690143 37.526508 
L 402.690143 37.526508 
" style="fill:none;stroke:#d62728;stroke-linecap:square;stroke-width:1.5;"/>
   </g>
   <g id="patch_3">
    <path d="M 44.57 303.64 
L 44.57 10.8 
" style="fill:none;stroke:#000000;stroke-linecap:square;stroke-linejoin:miter;stroke-width:0.8;"/>
   </g>
   <g id="patch_4">
    <path d="M 450 303.64 
L 450 10.8 
" style="fill:none;stroke:#000000;stroke-linecap:square;stroke-linejoin:miter;stroke-width:0.8;"/>
   </g>
   <g id="patch_5">
    <path d="M 44.57 303.64 
L 450 303.64 
" style="fill:none;stroke:#000000;stroke-linecap:square;stroke-linejoin:miter;stroke-width:0.8;"/>
   </g>
   <g id="patch_6">
    <path d="M 44.57 10.8 
L 450 10.8 
" style="fill:none;stroke:#000000;stroke-linecap:square;stroke-linejoin:miter;stroke-width:0.8;"/>
   </g>
   <g id="legend_1">
    <g id="patch_7">
     <path d="M 330.639062 298.64 
L 443 298.64 
Q 445 298.64 445 296.64 
L 445 238.9275 
Q 445 236.9275 443 236.9275 
L 330.639062 236.9275 
Q 328.639062 236.9275 328.639062 238.9275 
L 328.639062 296.64 
Q 328.639062 298.64 330.639062 298.64 
z
" style="fill:#ffffff;opacity:0.8;stroke:#cccccc;stroke-linejoin:miter;"/>
    </g>
    <g id="line2d_14">
     <path d="M 332.639062 245.025937 
L 352.639062 245.025937 
" style="fill:none;stroke:#1f77b4;stroke-linecap:square;stroke-width:1.5;"/>
    </g>
    <g id="line2d_15"/>
    <g id="text_12">
     <!-- AllReduce SGD -->
     <g transform="translate(360.639062 248.525937)scale(0.1 -0.1)">
      <defs>
       <path d="M 9.421875 75.984375 
L 18.40625 75.984375 
L 18.40625 0 
L 9.421875 0 
z
" id="DejaVuSans-108"/>
       <path d="M 44.390625 34.1875 
Q 47.5625 33.109375 50.5625 29.59375 
Q 53.5625 26.078125 56.59375 19.921875 
L 66.609375 0 
L 56 0 
L 46.6875 18.703125 
Q 43.0625 26.03125 39.671875 28.421875 
Q 36.28125 30.8125 30.421875 30.8125 
L 19.671875 30.8125 
L 19.671875 0 
L 9.8125 0 
L 9.8125 72.90625 
L 32.078125 72.90625 
Q 44.578125 72.90625 50.734375 67.671875 
Q 56.890625 62.453125 56.890625 51.90625 
Q 56.890625 45.015625 53.6875 40.46875 
Q 50.484375 35.9375 44.390625 34.1875 
z
M 19.671875 64.796875 
L 19.671875 38.921875 
L 32.078125 38.921875 
Q 39.203125 38.921875 42.84375 42.21875 
Q 46.484375 45.515625 46.484375 51.90625 
Q 46.484375 58.296875 42.84375 61.546875 
Q 39.203125 64.796875 32.078125 64.796875 
z
" id="DejaVuSans-82"/>
       <path d="M 45.40625 46.390625 
L 45.40625 75.984375 
L 54.390625 75.984375 
L 54.390625 0 
L 45.40625 0 
L 45.40625 8.203125 
Q 42.578125 3.328125 38.25 0.953125 
Q 33.9375 -1.421875 27.875 -1.421875 
Q 17.96875 -1.421875 11.734375 6.484375 
Q 5.515625 14.40625 5.515625 27.296875 
Q 5.515625 40.1875 11.734375 48.09375 
Q 17.96875 56 27.875 56 
Q 33.9375 56 38.25 53.625 
Q 42.578125 51.265625 45.40625 46.390625 
z
M 14.796875 27.296875 
Q 14.796875 17.390625 18.875 11.75 
Q 22.953125 6.109375 30.078125 6.109375 
Q 37.203125 6.109375 41.296875 11.75 
Q 45.40625 17.390625 45.40625 27.296875 
Q 45.40625 37.203125 41.296875 42.84375 
Q 37.203125 48.484375 30.078125 48.484375 
Q 22.953125 48.484375 18.875 42.84375 
Q 14.796875 37.203125 14.796875 27.296875 
z
" id="DejaVuSans-100"/>
       <path d="M 53.515625 70.515625 
L 53.515625 60.890625 
Q 47.90625 63.578125 42.921875 64.890625 
Q 37.9375 66.21875 33.296875 66.21875 
Q 25.25 66.21875 20.875 63.09375 
Q 16.5 59.96875 16.5 54.203125 
Q 16.5 49.359375 19.40625 46.890625 
Q 22.3125 44.4375 30.421875 42.921875 
L 36.375 41.703125 
Q 47.40625 39.59375 52.65625 34.296875 
Q 57.90625 29 57.90625 20.125 
Q 57.90625 9.515625 50.796875 4.046875 
Q 43.703125 -1.421875 29.984375 -1.421875 
Q 24.8125 -1.421875 18.96875 -0.25 
Q 13.140625 0.921875 6.890625 3.21875 
L 6.890625 13.375 
Q 12.890625 10.015625 18.65625 8.296875 
Q 24.421875 6.59375 29.984375 6.59375 
Q 38.421875 6.59375 43.015625 9.90625 
Q 47.609375 13.234375 47.609375 19.390625 
Q 47.609375 24.75 44.3125 27.78125 
Q 41.015625 30.8125 33.5 32.328125 
L 27.484375 33.5 
Q 16.453125 35.6875 11.515625 40.375 
Q 6.59375 45.0625 6.59375 53.421875 
Q 6.59375 63.09375 13.40625 68.65625 
Q 20.21875 74.21875 32.171875 74.21875 
Q 37.3125 74.21875 42.625 73.28125 
Q 47.953125 72.359375 53.515625 70.515625 
z
" id="DejaVuSans-83"/>
       <path d="M 59.515625 10.40625 
L 59.515625 29.984375 
L 43.40625 29.984375 
L 43.40625 38.09375 
L 69.28125 38.09375 
L 69.28125 6.78125 
Q 63.578125 2.734375 56.6875 0.65625 
Q 49.8125 -1.421875 42 -1.421875 
Q 24.90625 -1.421875 15.25 8.5625 
Q 5.609375 18.5625 5.609375 36.375 
Q 5.609375 54.25 15.25 64.234375 
Q 24.90625 74.21875 42 74.21875 
Q 49.125 74.21875 55.546875 72.453125 
Q 61.96875 70.703125 67.390625 67.28125 
L 67.390625 56.78125 
Q 61.921875 61.421875 55.765625 63.765625 
Q 49.609375 66.109375 42.828125 66.109375 
Q 29.4375 66.109375 22.71875 58.640625 
Q 16.015625 51.171875 16.015625 36.375 
Q 16.015625 21.625 22.71875 14.15625 
Q 29.4375 6.6875 42.828125 6.6875 
Q 48.046875 6.6875 52.140625 7.59375 
Q 56.25 8.5 59.515625 10.40625 
z
" id="DejaVuSans-71"/>
       <path d="M 19.671875 64.796875 
L 19.671875 8.109375 
L 31.59375 8.109375 
Q 46.6875 8.109375 53.6875 14.9375 
Q 60.6875 21.78125 60.6875 36.53125 
Q 60.6875 51.171875 53.6875 57.984375 
Q 46.6875 64.796875 31.59375 64.796875 
z
M 9.8125 72.90625 
L 30.078125 72.90625 
Q 51.265625 72.90625 61.171875 64.09375 
Q 71.09375 55.28125 71.09375 36.53125 
Q 71.09375 17.671875 61.125 8.828125 
Q 51.171875 0 30.078125 0 
L 9.8125 0 
z
" id="DejaVuSans-68"/>
      </defs>
      <use xlink:href="#DejaVuSans-65"/>
      <use x="68.408203" xlink:href="#DejaVuSans-108"/>
      <use x="96.191406" xlink:href="#DejaVuSans-108"/>
      <use x="123.974609" xlink:href="#DejaVuSans-82"/>
      <use x="188.957031" xlink:href="#DejaVuSans-101"/>
      <use x="250.480469" xlink:href="#DejaVuSans-100"/>
      <use x="313.957031" xlink:href="#DejaVuSans-117"/>
      <use x="377.335938" xlink:href="#DejaVuSans-99"/>
      <use x="432.316406" xlink:href="#DejaVuSans-101"/>
      <use x="493.839844" xlink:href="#DejaVuSans-32"/>
      <use x="525.626953" xlink:href="#DejaVuSans-83"/>
      <use x="589.103516" xlink:href="#DejaVuSans-71"/>
      <use x="666.59375" xlink:href="#DejaVuSans-68"/>
     </g>
    </g>
    <g id="line2d_16">
     <path d="M 332.639062 259.704062 
L 352.639062 259.704062 
" style="fill:none;stroke:#ff7f0e;stroke-linecap:square;stroke-width:1.5;"/>
    </g>
    <g id="line2d_17"/>
    <g id="text_13">
     <!-- QSGD-MN 8 bits -->
     <g transform="translate(360.639062 263.204062)scale(0.1 -0.1)">
      <defs>
       <path d="M 39.40625 66.21875 
Q 28.65625 66.21875 22.328125 58.203125 
Q 16.015625 50.203125 16.015625 36.375 
Q 16.015625 22.609375 22.328125 14.59375 
Q 28.65625 6.59375 39.40625 6.59375 
Q 50.140625 6.59375 56.421875 14.59375 
Q 62.703125 22.609375 62.703125 36.375 
Q 62.703125 50.203125 56.421875 58.203125 
Q 50.140625 66.21875 39.40625 66.21875 
z
M 53.21875 1.3125 
L 66.21875 -12.890625 
L 54.296875 -12.890625 
L 43.5 -1.21875 
Q 41.890625 -1.3125 41.03125 -1.359375 
Q 40.1875 -1.421875 39.40625 -1.421875 
Q 24.03125 -1.421875 14.8125 8.859375 
Q 5.609375 19.140625 5.609375 36.375 
Q 5.609375 53.65625 14.8125 63.9375 
Q 24.03125 74.21875 39.40625 74.21875 
Q 54.734375 74.21875 63.90625 63.9375 
Q 73.09375 53.65625 73.09375 36.375 
Q 73.09375 23.6875 67.984375 14.640625 
Q 62.890625 5.609375 53.21875 1.3125 
z
" id="DejaVuSans-81"/>
       <path d="M 4.890625 31.390625 
L 31.203125 31.390625 
L 31.203125 23.390625 
L 4.890625 23.390625 
z
" id="DejaVuSans-45"/>
       <path d="M 9.8125 72.90625 
L 24.515625 72.90625 
L 43.109375 23.296875 
L 61.8125 72.90625 
L 76.515625 72.90625 
L 76.515625 0 
L 66.890625 0 
L 66.890625 64.015625 
L 48.09375 14.015625 
L 38.1875 14.015625 
L 19.390625 64.015625 
L 19.390625 0 
L 9.8125 0 
z
" id="DejaVuSans-77"/>
       <path d="M 9.8125 72.90625 
L 23.09375 72.90625 
L 55.421875 11.921875 
L 55.421875 72.90625 
L 64.984375 72.90625 
L 64.984375 0 
L 51.703125 0 
L 19.390625 60.984375 
L 19.390625 0 
L 9.8125 0 
z
" id="DejaVuSans-78"/>
       <path d="M 48.6875 27.296875 
Q 48.6875 37.203125 44.609375 42.84375 
Q 40.53125 48.484375 33.40625 48.484375 
Q 26.265625 48.484375 22.1875 42.84375 
Q 18.109375 37.203125 18.109375 27.296875 
Q 18.109375 17.390625 22.1875 11.75 
Q 26.265625 6.109375 33.40625 6.109375 
Q 40.53125 6.109375 44.609375 11.75 
Q 48.6875 17.390625 48.6875 27.296875 
z
M 18.109375 46.390625 
Q 20.953125 51.265625 25.265625 53.625 
Q 29.59375 56 35.59375 56 
Q 45.5625 56 51.78125 48.09375 
Q 58.015625 40.1875 58.015625 27.296875 
Q 58.015625 14.40625 51.78125 6.484375 
Q 45.5625 -1.421875 35.59375 -1.421875 
Q 29.59375 -1.421875 25.265625 0.953125 
Q 20.953125 3.328125 18.109375 8.203125 
L 18.109375 0 
L 9.078125 0 
L 9.078125 75.984375 
L 18.109375 75.984375 
z
" id="DejaVuSans-98"/>
      </defs>
      <use xlink:href="#DejaVuSans-81"/>
      <use x="78.710938" xlink:href="#DejaVuSans-83"/>
      <use x="142.1875" xlink:href="#DejaVuSans-71"/>
      <use x="219.677734" xlink:href="#DejaVuSans-68"/>
      <use x="296.679688" xlink:href="#DejaVuSans-45"/>
      <use x="332.763672" xlink:href="#DejaVuSans-77"/>
      <use x="419.042969" xlink:href="#DejaVuSans-78"/>
      <use x="493.847656" xlink:href="#DejaVuSans-32"/>
      <use x="525.634766" xlink:href="#DejaVuSans-56"/>
      <use x="589.257812" xlink:href="#DejaVuSans-32"/>
      <use x="621.044922" xlink:href="#DejaVuSans-98"/>
      <use x="684.521484" xlink:href="#DejaVuSans-105"/>
      <use x="712.304688" xlink:href="#DejaVuSans-116"/>
      <use x="751.513672" xlink:href="#DejaVuSans-115"/>
     </g>
    </g>
    <g id="line2d_18">
     <path d="M 332.639062 274.382187 
L 352.639062 274.382187 
" style="fill:none;stroke:#2ca02c;stroke-linecap:square;stroke-width:1.5;"/>
    </g>
    <g id="line2d_19"/>
    <g id="text_14">
     <!-- QSGD-MN 4 bits -->
     <g transform="translate(360.639062 277.882187)scale(0.1 -0.1)">
      <use xlink:href="#DejaVuSans-81"/>
      <use x="78.710938" xlink:href="#DejaVuSans-83"/>
      <use x="142.1875" xlink:href="#DejaVuSans-71"/>
      <use x="219.677734" xlink:href="#DejaVuSans-68"/>
      <use x="296.679688" xlink:href="#DejaVuSans-45"/>
      <use x="332.763672" xlink:href="#DejaVuSans-77"/>
      <use x="419.042969" xlink:href="#DejaVuSans-78"/>
      <use x="493.847656" xlink:href="#DejaVuSans-32"/>
      <use x="525.634766" xlink:href="#DejaVuSans-52"/>
      <use x="589.257812" xlink:href="#DejaVuSans-32"/>
      <use x="621.044922" xlink:href="#DejaVuSans-98"/>
      <use x="684.521484" xlink:href="#DejaVuSans-105"/>
      <use x="712.304688" xlink:href="#DejaVuSans-116"/>
      <use x="751.513672" xlink:href="#DejaVuSans-115"/>
     </g>
    </g>
    <g id="line2d_20">
     <path d="M 332.639062 289.060312 
L 352.639062 289.060312 
" style="fill:none;stroke:#d62728;stroke-linecap:square;stroke-width:1.5;"/>
    </g>
    <g id="line2d_21"/>
    <g id="text_15">
     <!-- QSGD-MN 2 bits -->
     <g transform="translate(360.639062 292.560312)scale(0.1 -0.1)">
      <use xlink:href="#DejaVuSans-81"/>
      <use x="78.710938" xlink:href="#DejaVuSans-83"/>
      <use x="142.1875" xlink:href="#DejaVuSans-71"/>
      <use x="219.677734" xlink:href="#DejaVuSans-68"/>
      <use x="296.679688" xlink:href="#DejaVuSans-45"/>
      <use x="332.763672" xlink:href="#DejaVuSans-77"/>
      <use x="419.042969" xlink:href="#DejaVuSans-78"/>
      <use x="493.847656" xlink:href="#DejaVuSans-32"/>
      <use x="525.634766" xlink:href="#DejaVuSans-50"/>
      <use x="589.257812" xlink:href="#DejaVuSans-32"/>
      <use x="621.044922" xlink:href="#DejaVuSans-98"/>
      <use x="684.521484" xlink:href="#DejaVuSans-105"/>
      <use x="712.304688" xlink:href="#DejaVuSans-116"/>
      <use x="751.513672" xlink:href="#DejaVuSans-115"/>
     </g>
    </g>
   </g>
  </g>
 </g>
 <defs>
  <clipPath id="p4273a2ff9e">
   <rect height="292.84" width="405.43" x="44.57" y="10.8"/>
  </clipPath>
 </defs>
</svg>
