<?xml version="1.0" encoding="utf-8" standalone="no"?>
<!DOCTYPE svg PUBLIC "-//W3C//DTD SVG 1.1//EN"
  "http://www.w3.org/Graphics/SVG/1.1/DTD/svg11.dtd">
<!-- Created with matplotlib (https://matplotlib.org/) -->
<svg height="345.6pt" version="1.1" viewBox="0 0 460.8 345.6" width="460.8pt" xmlns="http://www.w3.org/2000/svg" xmlns:xlink="http://www.w3.org/1999/xlink">
 <metadata>
  <rdf:RDF xmlns:cc="http://creativecommons.org/ns#" xmlns:dc="http://purl.org/dc/elements/1.1/" xmlns:rdf="http://www.w3.org/1999/02/22-rdf-syntax-ns#">
   <cc:Work>
    <dc:type rdf:resource="http://purl.org/dc/dcmitype/StillImage"/>
    <dc:date>2021-06-10T08:57:24.177891</dc:date>
    <dc:format>image/svg+xml</dc:format>
    <dc:creator>
     <cc:Agent>
      <dc:title>Matplotlib v3.3.1, https://matplotlib.org/</dc:title>
     </cc:Agent>
    </dc:creator>
   </cc:Work>
  </rdf:RDF>
 </metadata>
 <defs>
  <style type="text/css">*{stroke-linecap:butt;stroke-linejoin:round;}</style>
 </defs>
 <g id="figure_1">
  <g id="patch_1">
   <path d="M 0 345.6 
L 460.8 345.6 
L 460.8 0 
L 0 0 
z
" style="fill:#ffffff;"/>
  </g>
  <g id="axes_1">
   <g id="patch_2">
    <path d="M 44.57 303.64 
L 450 303.64 
L 450 10.8 
L 44.57 10.8 
z
" style="fill:#ffffff;"/>
   </g>
   <g id="PolyCollection_1">
    <path clip-path="url(#p98c9503bed)" d="M 63.089759 269.440779 
L 63.089759 277.324169 
L 65.305772 263.858073 
L 67.594059 247.775595 
L 69.845162 237.384799 
L 72.104478 208.341525 
L 74.388202 169.590621 
L 76.648441 129.503065 
L 78.856449 121.356591 
L 81.043212 118.144512 
L 83.266196 90.094309 
L 85.439079 84.17014 
L 87.624105 95.113322 
L 89.855417 87.280793 
L 92.081446 81.105002 
L 94.329735 80.987167 
L 96.637699 67.828099 
L 98.897844 72.664451 
L 101.102084 66.819679 
L 103.320692 55.195265 
L 105.508586 73.725923 
L 107.790956 61.545027 
L 110.050191 65.111786 
L 112.232651 68.488101 
L 114.488022 70.879068 
L 116.700147 69.555539 
L 118.957769 59.26572 
L 121.187986 64.349792 
L 123.425408 59.243477 
L 125.622124 64.024871 
L 127.830732 53.685752 
L 130.051068 60.159427 
L 132.254338 60.286124 
L 134.492771 58.462571 
L 136.733992 57.624848 
L 138.935169 56.322584 
L 141.204063 60.400456 
L 143.445043 66.52808 
L 145.702321 67.698225 
L 147.955374 52.969743 
L 150.195675 65.590123 
L 152.522358 52.720216 
L 154.756581 50.440964 
L 156.983854 53.720677 
L 159.256451 53.888499 
L 161.472384 53.519917 
L 163.705217 51.128716 
L 165.90701 49.303932 
L 168.161396 53.337943 
L 170.354879 56.837814 
L 172.519886 53.104801 
L 174.744432 54.680764 
L 176.992176 57.341363 
L 179.195312 55.818899 
L 181.446821 54.957693 
L 183.636351 51.671457 
L 185.883079 47.986099 
L 188.070409 57.535716 
L 190.271429 63.277108 
L 192.499045 54.00334 
L 194.719089 42.957108 
L 196.992581 54.661592 
L 199.234925 50.897635 
L 201.439618 46.954158 
L 203.689346 48.101403 
L 205.940104 54.127586 
L 208.22175 55.921768 
L 210.44446 42.9692 
L 212.676195 52.208886 
L 214.890601 52.670633 
L 217.125908 46.207639 
L 219.355517 49.592764 
L 221.581002 51.284959 
L 223.789808 46.722757 
L 226.059289 50.622287 
L 228.281847 46.534187 
L 230.485903 49.32506 
L 232.692068 48.332212 
L 234.910096 45.509145 
L 237.155516 44.645948 
L 239.402876 44.50066 
L 241.684788 43.4424 
L 243.964255 42.882723 
L 246.199142 45.643388 
L 248.415056 46.661321 
L 250.704765 43.265848 
L 252.951234 48.83687 
L 255.18305 41.676224 
L 257.341379 42.557707 
L 259.57414 40.073895 
L 261.85037 42.777783 
L 264.093088 41.8885 
L 266.341588 46.92394 
L 268.62525 40.56278 
L 270.842307 44.226877 
L 273.045569 37.797496 
L 275.240102 39.179155 
L 277.436562 40.452276 
L 279.666068 38.426747 
L 281.962783 41.080702 
L 284.190851 38.956756 
L 286.415877 41.683683 
L 288.682858 38.500165 
L 290.93546 39.213219 
L 293.173002 35.912564 
L 295.400052 44.638936 
L 297.653113 37.96129 
L 299.949698 35.144379 
L 302.248182 36.59315 
L 304.513119 36.553245 
L 306.732624 34.340789 
L 308.954928 36.04505 
L 311.191527 37.744238 
L 313.442484 36.550624 
L 315.715255 35.599845 
L 317.929223 34.773019 
L 320.148344 37.541017 
L 322.388029 34.113493 
L 324.571212 33.496874 
L 326.858884 34.542947 
L 329.124135 33.439932 
L 331.376227 32.575303 
L 333.634559 33.321097 
L 335.892291 32.07465 
L 338.07243 30.455566 
L 340.286121 32.731752 
L 342.526784 32.673527 
L 344.757053 32.163507 
L 346.993656 33.503578 
L 349.187342 30.464523 
L 351.403641 30.450533 
L 353.645006 29.68237 
L 355.918437 30.52143 
L 358.157624 30.744393 
L 360.437517 30.649867 
L 362.668374 30.816955 
L 364.93935 31.27199 
L 367.201144 29.909074 
L 369.436924 31.033456 
L 371.683239 29.475074 
L 373.870873 31.165136 
L 376.184483 31.307754 
L 378.396715 30.940742 
L 380.595549 30.724363 
L 382.819763 29.587684 
L 385.030186 30.641787 
L 387.238592 30.582153 
L 389.51224 31.165868 
L 391.788121 30.344554 
L 394.037852 30.350153 
L 396.220691 30.465933 
L 396.220691 24.225825 
L 396.220691 24.225825 
L 394.037852 24.402543 
L 391.788121 24.347204 
L 389.51224 24.379021 
L 387.238592 24.779922 
L 385.030186 24.110909 
L 382.819763 24.921261 
L 380.595549 25.003339 
L 378.396715 25.030712 
L 376.184483 25.21214 
L 373.870873 26.268826 
L 371.683239 25.64325 
L 369.436924 25.486438 
L 367.201144 26.488945 
L 364.93935 25.979159 
L 362.668374 26.921696 
L 360.437517 26.601281 
L 358.157624 27.908326 
L 355.918437 25.450024 
L 353.645006 28.726597 
L 351.403641 27.53187 
L 349.187342 28.736637 
L 346.993656 28.196034 
L 344.757053 26.123585 
L 342.526784 28.051079 
L 340.286121 30.003804 
L 338.07243 27.953401 
L 335.892291 26.578069 
L 333.634559 30.51134 
L 331.376227 28.453993 
L 329.124135 29.96594 
L 326.858884 28.009795 
L 324.571212 30.762128 
L 322.388029 30.937701 
L 320.148344 30.252381 
L 317.929223 30.826616 
L 315.715255 29.938852 
L 313.442484 32.095904 
L 311.191527 30.04916 
L 308.954928 30.468653 
L 306.732624 31.197908 
L 304.513119 31.057339 
L 302.248182 31.870564 
L 299.949698 30.942759 
L 297.653113 31.721182 
L 295.400052 33.270146 
L 293.173002 31.941772 
L 290.93546 32.419263 
L 288.682858 34.655764 
L 286.415877 30.680054 
L 284.190851 32.249161 
L 281.962783 32.867419 
L 279.666068 35.033871 
L 277.436562 32.642715 
L 275.240102 35.317406 
L 273.045569 34.200614 
L 270.842307 33.499391 
L 268.62525 36.919736 
L 266.341588 36.591424 
L 264.093088 37.726842 
L 261.85037 33.242225 
L 259.57414 36.250803 
L 257.341379 38.520143 
L 255.18305 36.720361 
L 252.951234 37.66445 
L 250.704765 38.238567 
L 248.415056 36.671229 
L 246.199142 39.821988 
L 243.964255 36.854494 
L 241.684788 39.585462 
L 239.402876 40.903778 
L 237.155516 40.514739 
L 234.910096 35.44683 
L 232.692068 43.531639 
L 230.485903 36.749695 
L 228.281847 40.149946 
L 226.059289 41.607191 
L 223.789808 39.900438 
L 221.581002 40.639829 
L 219.355517 42.271087 
L 217.125908 39.988991 
L 214.890601 44.7995 
L 212.676195 39.350276 
L 210.44446 40.66804 
L 208.22175 42.58431 
L 205.940104 42.550355 
L 203.689346 34.134266 
L 201.439618 41.00967 
L 199.234925 47.060001 
L 196.992581 43.72261 
L 194.719089 39.278561 
L 192.499045 44.563675 
L 190.271429 50.280619 
L 188.070409 45.723514 
L 185.883079 40.404294 
L 183.636351 49.211197 
L 181.446821 43.487446 
L 179.195312 45.002816 
L 176.992176 44.516296 
L 174.744432 44.861257 
L 172.519886 44.304395 
L 170.354879 42.826082 
L 168.161396 43.461874 
L 165.90701 44.692744 
L 163.705217 43.172649 
L 161.472384 45.961166 
L 159.256451 42.789442 
L 156.983854 47.64948 
L 154.756581 45.32291 
L 152.522358 47.553059 
L 150.195675 53.452012 
L 147.955374 43.769136 
L 145.702321 46.347005 
L 143.445043 56.596892 
L 141.204063 54.010402 
L 138.935169 44.011629 
L 136.733992 45.939071 
L 134.492771 47.782614 
L 132.254338 46.080936 
L 130.051068 47.060764 
L 127.830732 49.634416 
L 125.622124 53.250066 
L 123.425408 53.46112 
L 121.187986 54.692343 
L 118.957769 51.67168 
L 116.700147 55.885071 
L 114.488022 51.941214 
L 112.232651 58.049391 
L 110.050191 47.531874 
L 107.790956 49.758 
L 105.508586 58.478789 
L 103.320692 49.282722 
L 101.102084 49.906817 
L 98.897844 59.479323 
L 96.637699 53.895301 
L 94.329735 61.211353 
L 92.081446 68.101372 
L 89.855417 65.64279 
L 87.624105 70.60721 
L 85.439079 71.373771 
L 83.266196 73.249648 
L 81.043212 94.680984 
L 78.856449 106.825244 
L 76.648441 117.203879 
L 74.388202 132.935399 
L 72.104478 181.173285 
L 69.845162 208.954562 
L 67.594059 226.625649 
L 65.305772 241.712884 
L 63.089759 269.440779 
z
" style="fill:#1f77b4;fill-opacity:0.25;"/>
   </g>
   <g id="PolyCollection_2">
    <path clip-path="url(#p98c9503bed)" d="M 63.391794 284.194939 
L 63.391794 287.676406 
L 65.839038 290.329091 
L 68.365883 287.756636 
L 70.859005 283.29339 
L 73.340409 250.329752 
L 75.819974 250.652549 
L 78.300205 220.320158 
L 80.790634 208.897345 
L 83.31725 175.482967 
L 85.82247 142.958816 
L 88.307794 130.219599 
L 90.767915 122.244749 
L 93.2528 89.221017 
L 95.748604 89.238771 
L 98.260012 75.651716 
L 100.714212 77.049289 
L 103.175342 87.26974 
L 105.636352 86.754421 
L 108.108408 75.790354 
L 110.553961 77.309301 
L 113.01623 89.074609 
L 115.470807 76.191301 
L 117.958956 89.807722 
L 120.411246 73.269322 
L 122.878216 93.42891 
L 125.337644 86.984343 
L 127.801274 71.875836 
L 130.237841 69.158428 
L 132.7428 64.814234 
L 135.229322 58.368024 
L 137.669495 65.051413 
L 140.11395 61.244574 
L 142.59898 66.488636 
L 145.112142 59.858895 
L 147.547912 63.518712 
L 150.037852 64.534908 
L 152.497419 61.962758 
L 154.978582 57.883276 
L 157.453453 55.922068 
L 159.908374 67.897666 
L 162.379323 65.371102 
L 164.859173 59.628625 
L 167.327463 60.329489 
L 169.846261 60.648747 
L 172.320778 62.758202 
L 174.773724 65.333316 
L 177.21711 61.46406 
L 179.690955 57.671595 
L 182.181648 55.495818 
L 184.711297 51.271788 
L 187.167416 52.119562 
L 189.653504 64.43216 
L 192.10041 59.482725 
L 194.53526 57.249175 
L 196.997966 57.179091 
L 199.462833 52.390867 
L 201.898973 55.729524 
L 204.361942 58.371376 
L 206.831846 53.764956 
L 209.299162 48.89993 
L 211.763075 59.20358 
L 214.233505 56.850725 
L 216.706848 61.68895 
L 219.1503 47.754528 
L 221.608858 49.496104 
L 224.049947 52.803226 
L 226.562423 54.536498 
L 229.021345 49.013784 
L 231.478896 50.487547 
L 233.915827 49.334319 
L 236.405163 49.755294 
L 238.882965 53.757207 
L 241.359301 56.770753 
L 243.823355 57.915972 
L 246.26514 44.23151 
L 248.770162 56.651238 
L 251.22426 53.456691 
L 253.676324 47.856969 
L 256.134859 44.015553 
L 258.600827 51.567492 
L 261.086945 45.626559 
L 263.56659 42.184247 
L 266.056107 44.594161 
L 268.516857 47.357915 
L 270.980756 47.834823 
L 273.448522 48.938104 
L 275.945896 46.80179 
L 278.441885 42.451531 
L 280.894678 48.103551 
L 283.403555 46.879821 
L 285.845815 41.744618 
L 288.30644 44.760935 
L 290.771076 42.244634 
L 293.251393 46.574331 
L 295.715861 43.216257 
L 298.196459 45.265285 
L 300.682005 45.026928 
L 303.163957 41.708991 
L 305.638234 42.124049 
L 308.116654 47.477159 
L 310.575672 39.665559 
L 313.051312 40.281422 
L 315.513998 38.782387 
L 317.990253 41.772869 
L 320.456593 39.150739 
L 322.909032 41.299615 
L 325.368556 37.057437 
L 327.867787 39.208976 
L 330.328834 40.452485 
L 332.792703 39.171526 
L 335.247579 39.693794 
L 337.694494 38.79481 
L 340.17104 40.804213 
L 342.620323 40.726589 
L 345.116811 37.513108 
L 347.563666 33.955326 
L 350.010818 35.4106 
L 352.503391 36.140076 
L 354.976612 36.268063 
L 357.500565 36.903791 
L 359.982647 35.007338 
L 362.477027 33.895261 
L 364.989926 35.347929 
L 367.446208 34.806442 
L 369.884268 36.840953 
L 372.365396 35.736006 
L 374.818571 35.876333 
L 377.276826 33.426302 
L 379.776511 35.10132 
L 382.221268 31.309463 
L 384.711687 32.745792 
L 387.148878 31.726126 
L 389.597472 31.28501 
L 392.108539 32.670091 
L 394.567924 32.973571 
L 397.064099 31.902732 
L 399.552779 30.015582 
L 402.016881 30.248018 
L 404.484458 32.41638 
L 406.928684 31.961382 
L 409.395202 30.707327 
L 411.8739 32.04931 
L 414.312643 31.718642 
L 416.741673 31.119143 
L 419.209091 30.442102 
L 421.712929 30.706075 
L 424.16695 31.27263 
L 426.62323 31.157537 
L 429.067495 30.58922 
L 431.571364 30.932795 
L 431.571364 27.963676 
L 431.571364 27.963676 
L 429.067495 28.124437 
L 426.62323 29.323318 
L 424.16695 28.050406 
L 421.712929 28.434147 
L 419.209091 28.454369 
L 416.741673 28.082016 
L 414.312643 28.27471 
L 411.8739 29.223737 
L 409.395202 29.286025 
L 406.928684 28.092908 
L 404.484458 28.003537 
L 402.016881 28.039074 
L 399.552779 29.063702 
L 397.064099 27.78593 
L 394.567924 29.396358 
L 392.108539 30.431091 
L 389.597472 28.159902 
L 387.148878 27.779723 
L 384.711687 28.710068 
L 382.221268 29.537019 
L 379.776511 28.548304 
L 377.276826 31.563955 
L 374.818571 31.4905 
L 372.365396 31.569889 
L 369.884268 32.719643 
L 367.446208 30.732255 
L 364.989926 28.362632 
L 362.477027 30.66843 
L 359.982647 31.0798 
L 357.500565 30.645856 
L 354.976612 31.464397 
L 352.503391 32.872079 
L 350.010818 31.529667 
L 347.563666 31.948998 
L 345.116811 32.778742 
L 342.620323 35.171543 
L 340.17104 34.057976 
L 337.694494 35.031435 
L 335.247579 33.766824 
L 332.792703 34.654719 
L 330.328834 34.653455 
L 327.867787 30.595371 
L 325.368556 35.793803 
L 322.909032 34.111014 
L 320.456593 36.016139 
L 317.990253 36.867467 
L 315.513998 33.459474 
L 313.051312 37.932349 
L 310.575672 32.941929 
L 308.116654 39.572601 
L 305.638234 35.845971 
L 303.163957 37.906351 
L 300.682005 33.247781 
L 298.196459 36.421944 
L 295.715861 35.66783 
L 293.251393 38.951982 
L 290.771076 37.187894 
L 288.30644 38.571616 
L 285.845815 35.859775 
L 283.403555 38.585555 
L 280.894678 39.738401 
L 278.441885 38.443506 
L 275.945896 34.580749 
L 273.448522 40.792922 
L 270.980756 37.14305 
L 268.516857 39.691845 
L 266.056107 40.383712 
L 263.56659 39.25923 
L 261.086945 40.143506 
L 258.600827 40.601048 
L 256.134859 41.084195 
L 253.676324 40.594362 
L 251.22426 42.063431 
L 248.770162 46.486116 
L 246.26514 41.843244 
L 243.823355 46.013575 
L 241.359301 48.194737 
L 238.882965 45.602 
L 236.405163 41.560116 
L 233.915827 42.468594 
L 231.478896 43.75288 
L 229.021345 43.642258 
L 226.562423 42.933636 
L 224.049947 46.555981 
L 221.608858 42.733374 
L 219.1503 39.538984 
L 216.706848 47.725003 
L 214.233505 46.896008 
L 211.763075 47.102543 
L 209.299162 39.246712 
L 206.831846 46.75207 
L 204.361942 40.317514 
L 201.898973 47.773457 
L 199.462833 46.480837 
L 196.997966 49.309845 
L 194.53526 49.544451 
L 192.10041 48.407783 
L 189.653504 45.34742 
L 187.167416 47.178708 
L 184.711297 46.503035 
L 182.181648 46.910282 
L 179.690955 47.903274 
L 177.21711 48.376458 
L 174.773724 53.160378 
L 172.320778 47.752633 
L 169.846261 52.177727 
L 167.327463 47.50008 
L 164.859173 45.702492 
L 162.379323 53.792909 
L 159.908374 50.169463 
L 157.453453 46.301218 
L 154.978582 51.835367 
L 152.497419 55.068427 
L 150.037852 50.485328 
L 147.547912 51.562462 
L 145.112142 48.031612 
L 142.59898 50.420674 
L 140.11395 52.13034 
L 137.669495 58.134496 
L 135.229322 48.059975 
L 132.7428 55.568533 
L 130.237841 52.260283 
L 127.801274 56.672604 
L 125.337644 47.414131 
L 122.878216 70.6463 
L 120.411246 57.899446 
L 117.958956 64.029929 
L 115.470807 64.240022 
L 113.01623 60.923957 
L 110.553961 60.136066 
L 108.108408 61.715951 
L 105.636352 66.351975 
L 103.175342 64.6179 
L 100.714212 59.421072 
L 98.260012 67.156183 
L 95.748604 75.080191 
L 93.2528 80.399539 
L 90.767915 88.386983 
L 88.307794 95.58566 
L 85.82247 132.267044 
L 83.31725 141.180636 
L 80.790634 157.004046 
L 78.300205 206.275337 
L 75.819974 231.259286 
L 73.340409 232.313338 
L 70.859005 264.202813 
L 68.365883 271.195884 
L 65.839038 282.761011 
L 63.391794 284.194939 
z
" style="fill:#ff7f0e;fill-opacity:0.25;"/>
   </g>
   <g id="PolyCollection_3">
    <path clip-path="url(#p98c9503bed)" d="M 63.021976 279.868416 
L 63.021976 281.521618 
L 65.11118 284.150007 
L 67.224675 287.123397 
L 69.388631 259.714004 
L 71.514402 233.842417 
L 73.599268 214.822503 
L 75.692142 178.497865 
L 77.829653 155.437633 
L 79.928237 123.542904 
L 82.043665 125.909026 
L 84.14193 114.735509 
L 86.262 96.699779 
L 88.347247 86.031527 
L 90.444682 88.342216 
L 92.579896 86.296099 
L 94.664391 84.442379 
L 96.806327 80.080211 
L 98.882287 83.963069 
L 101.003887 82.978008 
L 103.156303 76.838176 
L 105.264228 67.636156 
L 107.394232 80.909134 
L 109.49191 85.82355 
L 111.58558 80.604525 
L 113.713607 81.645408 
L 115.793389 71.43877 
L 117.894923 74.91798 
L 119.977595 72.475382 
L 122.118157 68.14341 
L 124.277499 79.62857 
L 126.392024 68.673807 
L 128.454955 70.301613 
L 130.572638 69.908959 
L 132.696327 64.656297 
L 134.8252 59.828382 
L 136.928742 67.753075 
L 139.022527 63.61828 
L 141.160776 63.3477 
L 143.329749 58.066235 
L 145.426868 78.597946 
L 147.519816 71.003898 
L 149.682389 56.707334 
L 151.811481 56.977572 
L 153.898172 56.666863 
L 155.958885 61.176499 
L 158.048881 63.249682 
L 160.191492 65.02178 
L 162.27511 59.767973 
L 164.345987 64.170685 
L 166.447782 54.446682 
L 168.50938 57.07355 
L 170.622589 57.004539 
L 172.678225 61.147967 
L 174.819507 58.529409 
L 176.941957 65.221295 
L 179.018988 50.881341 
L 181.12062 56.868813 
L 183.258241 51.134568 
L 185.350604 57.073304 
L 187.500992 53.498261 
L 189.589985 62.853923 
L 191.702737 58.704784 
L 193.78703 53.760001 
L 195.88153 55.90479 
L 197.976956 55.168736 
L 200.075905 55.344041 
L 202.16935 50.98296 
L 204.300766 58.94969 
L 206.413924 56.7981 
L 208.580999 50.780906 
L 210.70597 57.578256 
L 212.788355 54.593027 
L 214.905573 48.957114 
L 217.069377 54.54078 
L 219.176629 52.514154 
L 221.251345 56.668244 
L 223.333679 55.423643 
L 225.414535 53.877214 
L 227.541477 50.720088 
L 229.650922 43.242762 
L 231.728884 46.403238 
L 233.830821 52.534534 
L 235.883456 48.394706 
L 238.108299 42.904415 
L 240.203278 46.415136 
L 242.306697 56.01737 
L 244.391768 47.657937 
L 246.499743 44.629775 
L 248.622538 45.979876 
L 250.685181 46.590573 
L 252.733767 45.968648 
L 254.788681 51.459338 
L 256.869721 46.048873 
L 258.984884 46.191356 
L 261.076408 48.47753 
L 263.190119 48.921144 
L 265.280956 46.33146 
L 267.366637 44.466837 
L 269.479191 43.004936 
L 271.578699 46.358374 
L 273.707651 43.655946 
L 275.829865 41.765287 
L 277.967846 41.609875 
L 280.080444 46.0545 
L 282.157402 45.899963 
L 284.343042 41.398394 
L 286.408704 44.135379 
L 288.508477 43.505321 
L 290.62755 45.759911 
L 292.752076 38.409327 
L 294.873352 41.498305 
L 296.950846 41.62748 
L 299.11897 42.545653 
L 301.198672 43.569195 
L 303.303268 43.773514 
L 305.39587 40.104511 
L 307.535898 40.17054 
L 309.588918 40.010704 
L 311.693967 39.857437 
L 313.772425 40.485911 
L 315.864373 38.945779 
L 317.967108 38.204727 
L 320.078351 38.818035 
L 322.273129 39.710284 
L 324.369764 37.159181 
L 326.500506 38.485535 
L 328.686015 39.685176 
L 330.791973 39.493202 
L 332.895678 39.903063 
L 334.94794 38.773138 
L 337.018152 38.111092 
L 339.123723 39.938634 
L 341.172262 36.362677 
L 343.245492 36.288462 
L 345.32921 35.811708 
L 347.465874 36.721453 
L 349.625875 36.731594 
L 351.751005 35.701824 
L 353.847976 36.18996 
L 355.963391 34.222477 
L 358.054786 36.459738 
L 360.143969 35.641328 
L 362.280492 34.724295 
L 364.439176 35.465544 
L 366.562939 36.167175 
L 368.627958 36.669495 
L 370.692392 36.423632 
L 372.764493 36.336994 
L 374.865718 35.683893 
L 376.968143 35.198903 
L 376.968143 29.60854 
L 376.968143 29.60854 
L 374.865718 29.489177 
L 372.764493 29.323579 
L 370.692392 29.419754 
L 368.627958 29.173891 
L 366.562939 29.737149 
L 364.439176 28.610644 
L 362.280492 30.205023 
L 360.143969 29.28799 
L 358.054786 29.078959 
L 355.963391 30.767779 
L 353.847976 30.445618 
L 351.751005 29.471245 
L 349.625875 31.671183 
L 347.465874 31.803198 
L 345.32921 31.311374 
L 343.245492 31.38306 
L 341.172262 31.73541 
L 339.123723 31.450097 
L 337.018152 31.388566 
L 334.94794 32.189029 
L 332.895678 30.815351 
L 330.791973 32.383031 
L 328.686015 32.191058 
L 326.500506 32.293817 
L 324.369764 33.132669 
L 322.273129 33.506583 
L 320.078351 33.058199 
L 317.967108 33.671507 
L 315.864373 35.246093 
L 313.772425 34.620029 
L 311.693967 34.882877 
L 309.588918 35.582739 
L 307.535898 33.777581 
L 305.39587 35.854559 
L 303.303268 37.304336 
L 301.198672 36.716463 
L 299.11897 34.632174 
L 296.950846 37.622235 
L 294.873352 36.167026 
L 292.752076 36.391925 
L 290.62755 41.107035 
L 288.508477 38.303783 
L 286.408704 35.84559 
L 284.343042 36.998191 
L 282.157402 39.687289 
L 280.080444 39.410876 
L 277.967846 38.127342 
L 275.829865 37.1188 
L 273.707651 37.787532 
L 271.578699 38.375748 
L 269.479191 37.829163 
L 267.366637 40.511036 
L 265.280956 38.768289 
L 263.190119 40.383317 
L 261.076408 42.228502 
L 258.984884 38.359952 
L 256.869721 37.953995 
L 254.788681 46.559237 
L 252.733767 38.095157 
L 250.685181 39.362306 
L 248.622538 42.776144 
L 246.499743 41.262166 
L 244.391768 40.305891 
L 242.306697 43.890278 
L 240.203278 40.147121 
L 238.108299 37.137491 
L 235.883456 43.225394 
L 233.830821 42.802775 
L 231.728884 38.391822 
L 229.650922 39.724162 
L 227.541477 43.764091 
L 225.414535 44.080423 
L 223.333679 44.301191 
L 221.251345 44.945663 
L 219.176629 42.640341 
L 217.069377 45.30593 
L 214.905573 45.770816 
L 212.788355 51.774034 
L 210.70597 48.545053 
L 208.580999 39.437623 
L 206.413924 46.643944 
L 204.300766 47.356433 
L 202.16935 44.171535 
L 200.075905 48.341754 
L 197.976956 46.323296 
L 195.88153 49.365389 
L 193.78703 47.671093 
L 191.702737 49.673226 
L 189.589985 53.750697 
L 187.500992 44.520313 
L 185.350604 52.645339 
L 183.258241 45.604311 
L 181.12062 49.863875 
L 179.018988 45.552849 
L 176.941957 53.51615 
L 174.819507 45.278262 
L 172.678225 53.506642 
L 170.622589 47.778137 
L 168.50938 49.659138 
L 166.447782 51.432876 
L 164.345987 51.093302 
L 162.27511 49.463167 
L 160.191492 49.632829 
L 158.048881 56.889334 
L 155.958885 52.442167 
L 153.898172 49.700197 
L 151.811481 51.705127 
L 149.682389 47.953467 
L 147.519816 55.04609 
L 145.426868 56.288032 
L 143.329749 51.164905 
L 141.160776 48.747519 
L 139.022527 59.019188 
L 136.928742 58.1141 
L 134.8252 54.521538 
L 132.696327 51.095194 
L 130.572638 60.223865 
L 128.454955 53.798364 
L 126.392024 52.805842 
L 124.277499 53.977713 
L 122.118157 55.408127 
L 119.977595 61.374652 
L 117.894923 61.125817 
L 115.793389 57.779987 
L 113.713607 66.403146 
L 111.58558 65.43308 
L 109.49191 65.576586 
L 107.394232 66.834731 
L 105.264228 61.88729 
L 103.156303 63.105644 
L 101.003887 59.403326 
L 98.882287 72.982412 
L 96.806327 70.405858 
L 94.664391 67.689012 
L 92.579896 77.352547 
L 90.444682 77.01269 
L 88.347247 72.620214 
L 86.262 76.637986 
L 84.14193 96.139975 
L 82.043665 91.060244 
L 79.928237 115.120243 
L 77.829653 133.438307 
L 75.692142 160.377586 
L 73.599268 194.954145 
L 71.514402 227.365781 
L 69.388631 249.239005 
L 67.224675 272.316626 
L 65.11118 282.358807 
L 63.021976 279.868416 
z
" style="fill:#2ca02c;fill-opacity:0.25;"/>
   </g>
   <g id="PolyCollection_4">
    <path clip-path="url(#p98c9503bed)" d="M 62.998636 277.676375 
L 62.998636 283.95741 
L 65.09791 252.015968 
L 67.167908 242.100148 
L 69.252931 200.293537 
L 71.332512 196.544421 
L 73.465417 169.260971 
L 75.586247 158.264132 
L 77.738405 147.940782 
L 79.827258 150.216317 
L 81.918242 148.490188 
L 84.007371 132.715632 
L 86.087315 123.244215 
L 88.268902 126.31016 
L 90.36736 134.765755 
L 92.470354 136.255354 
L 94.550075 139.753063 
L 96.600219 135.236012 
L 98.703569 145.424238 
L 100.758526 132.234352 
L 102.865955 142.9881 
L 105.002013 120.444687 
L 107.066327 147.153563 
L 109.116489 130.361005 
L 111.239619 126.564319 
L 113.328699 123.352932 
L 115.404644 125.330078 
L 117.561404 131.826087 
L 119.630903 130.196025 
L 121.752816 125.738935 
L 123.803728 130.165816 
L 126.006437 127.103971 
L 128.130776 112.326961 
L 130.180939 130.654437 
L 132.22786 113.195646 
L 134.277716 135.238369 
L 136.40967 114.720931 
L 138.484415 131.608342 
L 140.579629 126.136285 
L 142.669931 110.357047 
L 144.73538 130.918742 
L 146.824285 127.775848 
L 148.89505 108.620921 
L 151.047509 118.636009 
L 153.128837 111.742934 
L 155.206222 111.879575 
L 157.319164 109.983615 
L 159.387362 116.467608 
L 161.443645 131.594802 
L 163.499851 106.006267 
L 165.57309 96.369692 
L 167.637132 108.1046 
L 169.727812 109.092109 
L 171.769556 108.833617 
L 173.852589 99.833213 
L 175.919126 109.914619 
L 178.053786 112.977702 
L 180.117884 109.031469 
L 182.216825 97.161469 
L 184.280249 98.623955 
L 186.395913 119.952472 
L 188.485152 104.770496 
L 190.538563 97.776822 
L 192.574758 104.224704 
L 194.638236 102.241551 
L 196.714357 100.276599 
L 198.771227 99.300804 
L 200.836451 98.301446 
L 202.913766 102.504547 
L 204.973971 104.157791 
L 207.058863 93.153237 
L 209.132342 102.117006 
L 211.257457 89.640744 
L 213.306307 93.763498 
L 215.439068 93.140597 
L 217.50162 87.133825 
L 219.573191 98.73989 
L 221.741239 94.217609 
L 223.895756 88.030224 
L 225.949562 83.238361 
L 227.988766 82.028878 
L 230.079224 86.356703 
L 232.18546 82.52222 
L 234.286184 71.614658 
L 236.367134 80.628521 
L 238.480272 81.579235 
L 240.67519 85.940203 
L 242.757868 90.284782 
L 244.86724 75.613339 
L 246.949232 76.510314 
L 249.036422 79.199131 
L 251.150035 74.686071 
L 253.249591 74.961858 
L 255.352084 69.982376 
L 257.450846 71.651532 
L 259.519935 68.44558 
L 261.568835 71.795432 
L 263.662172 71.304583 
L 265.764001 70.404733 
L 267.880263 66.942444 
L 269.922895 71.980008 
L 272.009306 65.48779 
L 274.055656 64.746723 
L 276.148391 65.44988 
L 278.242696 64.280261 
L 280.298391 65.599981 
L 282.352791 63.595828 
L 284.399098 66.233267 
L 286.482263 59.906558 
L 288.537635 61.344364 
L 290.615709 67.93643 
L 292.709373 62.609036 
L 294.853514 62.861618 
L 296.916792 59.905969 
L 298.99148 57.272063 
L 301.10249 56.215738 
L 303.215673 60.550445 
L 305.340528 56.272878 
L 307.462678 55.839822 
L 309.593031 57.782467 
L 311.691061 54.605728 
L 313.776976 56.334123 
L 315.899885 54.021957 
L 317.984167 51.438323 
L 320.066137 54.564105 
L 322.131783 55.142673 
L 324.227221 51.74602 
L 326.282168 57.000513 
L 328.345827 51.064813 
L 330.42841 54.694051 
L 332.50875 53.320599 
L 334.547794 52.200371 
L 336.684377 52.693045 
L 338.740537 52.009753 
L 340.811728 50.838177 
L 342.885621 52.064104 
L 344.920282 50.049891 
L 346.999529 50.505253 
L 349.041499 52.134105 
L 351.168686 51.138654 
L 353.240294 50.569596 
L 355.329513 48.844101 
L 357.50082 49.834864 
L 359.643311 50.066051 
L 361.717597 50.239835 
L 363.809808 48.892747 
L 365.944264 49.787456 
L 368.085871 49.487633 
L 370.166993 48.978818 
L 372.258487 49.965792 
L 374.30954 49.292503 
L 374.30954 43.607292 
L 374.30954 43.607292 
L 372.258487 44.213697 
L 370.166993 44.469417 
L 368.085871 44.326229 
L 365.944264 43.843593 
L 363.809808 44.189861 
L 361.717597 44.244343 
L 359.643311 44.783755 
L 357.50082 44.100874 
L 355.329513 43.507253 
L 353.240294 46.352097 
L 351.168686 43.893965 
L 349.041499 44.848526 
L 346.999529 43.978925 
L 344.920282 44.068661 
L 342.885621 46.198222 
L 340.811728 44.681945 
L 338.740537 46.557262 
L 336.684377 47.092727 
L 334.547794 47.768215 
L 332.50875 47.68393 
L 330.42841 45.944851 
L 328.345827 45.917818 
L 326.282168 47.782164 
L 324.227221 48.527255 
L 322.131783 46.593111 
L 320.066137 50.340447 
L 317.984167 46.519313 
L 315.899885 47.470075 
L 313.776976 52.470452 
L 311.691061 47.069117 
L 309.593031 47.365836 
L 307.462678 51.441307 
L 305.340528 52.775448 
L 303.215673 52.215091 
L 301.10249 53.259153 
L 298.99148 55.310659 
L 296.916792 54.443951 
L 294.853514 54.961759 
L 292.709373 57.347166 
L 290.615709 59.332315 
L 288.537635 53.675873 
L 286.482263 55.540243 
L 284.399098 58.415151 
L 282.352791 57.396318 
L 280.298391 61.120323 
L 278.242696 56.59001 
L 276.148391 56.273521 
L 274.055656 57.829807 
L 272.009306 59.587193 
L 269.922895 62.540342 
L 267.880263 61.118493 
L 265.764001 60.459346 
L 263.662172 65.71422 
L 261.568835 69.184331 
L 259.519935 61.687245 
L 257.450846 62.198501 
L 255.352084 63.319217 
L 253.249591 68.028854 
L 251.150035 66.415567 
L 249.036422 67.752542 
L 246.949232 66.053833 
L 244.86724 66.280492 
L 242.757868 76.045129 
L 240.67519 68.628702 
L 238.480272 67.688077 
L 236.367134 72.234124 
L 234.286184 66.92759 
L 232.18546 73.204505 
L 230.079224 75.829434 
L 227.988766 78.633813 
L 225.949562 79.130589 
L 223.895756 78.909066 
L 221.741239 76.804517 
L 219.573191 85.627627 
L 217.50162 82.547669 
L 215.439068 76.601834 
L 213.306307 80.975837 
L 211.257457 78.456365 
L 209.132342 84.870839 
L 207.058863 88.959579 
L 204.973971 89.655093 
L 202.913766 88.322382 
L 200.836451 83.323868 
L 198.771227 87.016724 
L 196.714357 88.112816 
L 194.638236 85.477548 
L 192.574758 90.746 
L 190.538563 86.834446 
L 188.485152 89.347078 
L 186.395913 89.399566 
L 184.280249 92.507664 
L 182.216825 83.976342 
L 180.117884 92.276772 
L 178.053786 84.064889 
L 175.919126 96.817091 
L 173.852589 89.774959 
L 171.769556 98.141845 
L 169.727812 93.495827 
L 167.637132 94.909901 
L 165.57309 91.593159 
L 163.499851 98.775431 
L 161.443645 91.468253 
L 159.387362 92.0313 
L 157.319164 95.285586 
L 155.206222 97.533401 
L 153.128837 99.376302 
L 151.047509 97.114504 
L 148.89505 97.074845 
L 146.824285 95.774711 
L 144.73538 103.295941 
L 142.669931 95.887161 
L 140.579629 100.583042 
L 138.484415 99.681324 
L 136.40967 95.849864 
L 134.277716 100.682574 
L 132.22786 102.311115 
L 130.180939 111.421229 
L 128.130776 95.136004 
L 126.006437 107.354464 
L 123.803728 113.433297 
L 121.752816 113.716404 
L 119.630903 112.367145 
L 117.561404 104.216732 
L 115.404644 110.956492 
L 113.328699 114.761774 
L 111.239619 112.159765 
L 109.116489 118.783453 
L 107.066327 114.665969 
L 105.002013 105.787137 
L 102.865955 115.723601 
L 100.758526 109.110061 
L 98.703569 120.600007 
L 96.600219 124.389758 
L 94.550075 112.560163 
L 92.470354 118.739138 
L 90.36736 122.666252 
L 88.268902 117.045201 
L 86.087315 108.959519 
L 84.007371 116.855391 
L 81.918242 123.627842 
L 79.827258 125.009544 
L 77.738405 137.949203 
L 75.586247 141.032182 
L 73.465417 145.696372 
L 71.332512 170.057755 
L 69.252931 176.119634 
L 67.167908 212.526761 
L 65.09791 240.118193 
L 62.998636 277.676375 
z
" style="fill:#d62728;fill-opacity:0.25;"/>
   </g>
   <g id="matplotlib.axis_1">
    <g id="xtick_1">
     <g id="line2d_1">
      <defs>
       <path d="M 0 0 
L 0 3.5 
" id="m50148cefd3" style="stroke:#000000;stroke-width:0.8;"/>
      </defs>
      <g>
       <use style="stroke:#000000;stroke-width:0.8;" x="60.49536" xlink:href="#m50148cefd3" y="303.64"/>
      </g>
     </g>
     <g id="text_1">
      <!-- 0 -->
      <g transform="translate(57.31411 318.238437)scale(0.1 -0.1)">
       <defs>
        <path d="M 31.78125 66.40625 
Q 24.171875 66.40625 20.328125 58.90625 
Q 16.5 51.421875 16.5 36.375 
Q 16.5 21.390625 20.328125 13.890625 
Q 24.171875 6.390625 31.78125 6.390625 
Q 39.453125 6.390625 43.28125 13.890625 
Q 47.125 21.390625 47.125 36.375 
Q 47.125 51.421875 43.28125 58.90625 
Q 39.453125 66.40625 31.78125 66.40625 
z
M 31.78125 74.21875 
Q 44.046875 74.21875 50.515625 64.515625 
Q 56.984375 54.828125 56.984375 36.375 
Q 56.984375 17.96875 50.515625 8.265625 
Q 44.046875 -1.421875 31.78125 -1.421875 
Q 19.53125 -1.421875 13.0625 8.265625 
Q 6.59375 17.96875 6.59375 36.375 
Q 6.59375 54.828125 13.0625 64.515625 
Q 19.53125 74.21875 31.78125 74.21875 
z
" id="DejaVuSans-48"/>
       </defs>
       <use xlink:href="#DejaVuSans-48"/>
      </g>
     </g>
    </g>
    <g id="xtick_2">
     <g id="line2d_2">
      <g>
       <use style="stroke:#000000;stroke-width:0.8;" x="145.469032" xlink:href="#m50148cefd3" y="303.64"/>
      </g>
     </g>
     <g id="text_2">
      <!-- 500 -->
      <g transform="translate(135.925282 318.238437)scale(0.1 -0.1)">
       <defs>
        <path d="M 10.796875 72.90625 
L 49.515625 72.90625 
L 49.515625 64.59375 
L 19.828125 64.59375 
L 19.828125 46.734375 
Q 21.96875 47.46875 24.109375 47.828125 
Q 26.265625 48.1875 28.421875 48.1875 
Q 40.625 48.1875 47.75 41.5 
Q 54.890625 34.8125 54.890625 23.390625 
Q 54.890625 11.625 47.5625 5.09375 
Q 40.234375 -1.421875 26.90625 -1.421875 
Q 22.3125 -1.421875 17.546875 -0.640625 
Q 12.796875 0.140625 7.71875 1.703125 
L 7.71875 11.625 
Q 12.109375 9.234375 16.796875 8.0625 
Q 21.484375 6.890625 26.703125 6.890625 
Q 35.15625 6.890625 40.078125 11.328125 
Q 45.015625 15.765625 45.015625 23.390625 
Q 45.015625 31 40.078125 35.4375 
Q 35.15625 39.890625 26.703125 39.890625 
Q 22.75 39.890625 18.8125 39.015625 
Q 14.890625 38.140625 10.796875 36.28125 
z
" id="DejaVuSans-53"/>
       </defs>
       <use xlink:href="#DejaVuSans-53"/>
       <use x="63.623047" xlink:href="#DejaVuSans-48"/>
       <use x="127.246094" xlink:href="#DejaVuSans-48"/>
      </g>
     </g>
    </g>
    <g id="xtick_3">
     <g id="line2d_3">
      <g>
       <use style="stroke:#000000;stroke-width:0.8;" x="230.442703" xlink:href="#m50148cefd3" y="303.64"/>
      </g>
     </g>
     <g id="text_3">
      <!-- 1000 -->
      <g transform="translate(217.717703 318.238437)scale(0.1 -0.1)">
       <defs>
        <path d="M 12.40625 8.296875 
L 28.515625 8.296875 
L 28.515625 63.921875 
L 10.984375 60.40625 
L 10.984375 69.390625 
L 28.421875 72.90625 
L 38.28125 72.90625 
L 38.28125 8.296875 
L 54.390625 8.296875 
L 54.390625 0 
L 12.40625 0 
z
" id="DejaVuSans-49"/>
       </defs>
       <use xlink:href="#DejaVuSans-49"/>
       <use x="63.623047" xlink:href="#DejaVuSans-48"/>
       <use x="127.246094" xlink:href="#DejaVuSans-48"/>
       <use x="190.869141" xlink:href="#DejaVuSans-48"/>
      </g>
     </g>
    </g>
    <g id="xtick_4">
     <g id="line2d_4">
      <g>
       <use style="stroke:#000000;stroke-width:0.8;" x="315.416374" xlink:href="#m50148cefd3" y="303.64"/>
      </g>
     </g>
     <g id="text_4">
      <!-- 1500 -->
      <g transform="translate(302.691374 318.238437)scale(0.1 -0.1)">
       <use xlink:href="#DejaVuSans-49"/>
       <use x="63.623047" xlink:href="#DejaVuSans-53"/>
       <use x="127.246094" xlink:href="#DejaVuSans-48"/>
       <use x="190.869141" xlink:href="#DejaVuSans-48"/>
      </g>
     </g>
    </g>
    <g id="xtick_5">
     <g id="line2d_5">
      <g>
       <use style="stroke:#000000;stroke-width:0.8;" x="400.390045" xlink:href="#m50148cefd3" y="303.64"/>
      </g>
     </g>
     <g id="text_5">
      <!-- 2000 -->
      <g transform="translate(387.665045 318.238437)scale(0.1 -0.1)">
       <defs>
        <path d="M 19.1875 8.296875 
L 53.609375 8.296875 
L 53.609375 0 
L 7.328125 0 
L 7.328125 8.296875 
Q 12.9375 14.109375 22.625 23.890625 
Q 32.328125 33.6875 34.8125 36.53125 
Q 39.546875 41.84375 41.421875 45.53125 
Q 43.3125 49.21875 43.3125 52.78125 
Q 43.3125 58.59375 39.234375 62.25 
Q 35.15625 65.921875 28.609375 65.921875 
Q 23.96875 65.921875 18.8125 64.3125 
Q 13.671875 62.703125 7.8125 59.421875 
L 7.8125 69.390625 
Q 13.765625 71.78125 18.9375 73 
Q 24.125 74.21875 28.421875 74.21875 
Q 39.75 74.21875 46.484375 68.546875 
Q 53.21875 62.890625 53.21875 53.421875 
Q 53.21875 48.921875 51.53125 44.890625 
Q 49.859375 40.875 45.40625 35.40625 
Q 44.1875 33.984375 37.640625 27.21875 
Q 31.109375 20.453125 19.1875 8.296875 
z
" id="DejaVuSans-50"/>
       </defs>
       <use xlink:href="#DejaVuSans-50"/>
       <use x="63.623047" xlink:href="#DejaVuSans-48"/>
       <use x="127.246094" xlink:href="#DejaVuSans-48"/>
       <use x="190.869141" xlink:href="#DejaVuSans-48"/>
      </g>
     </g>
    </g>
    <g id="text_6">
     <!-- Time (sec) -->
     <g transform="translate(221.130313 331.916562)scale(0.1 -0.1)">
      <defs>
       <path d="M -0.296875 72.90625 
L 61.375 72.90625 
L 61.375 64.59375 
L 35.5 64.59375 
L 35.5 0 
L 25.59375 0 
L 25.59375 64.59375 
L -0.296875 64.59375 
z
" id="DejaVuSans-84"/>
       <path d="M 9.421875 54.6875 
L 18.40625 54.6875 
L 18.40625 0 
L 9.421875 0 
z
M 9.421875 75.984375 
L 18.40625 75.984375 
L 18.40625 64.59375 
L 9.421875 64.59375 
z
" id="DejaVuSans-105"/>
       <path d="M 52 44.1875 
Q 55.375 50.25 60.0625 53.125 
Q 64.75 56 71.09375 56 
Q 79.640625 56 84.28125 50.015625 
Q 88.921875 44.046875 88.921875 33.015625 
L 88.921875 0 
L 79.890625 0 
L 79.890625 32.71875 
Q 79.890625 40.578125 77.09375 44.375 
Q 74.3125 48.1875 68.609375 48.1875 
Q 61.625 48.1875 57.5625 43.546875 
Q 53.515625 38.921875 53.515625 30.90625 
L 53.515625 0 
L 44.484375 0 
L 44.484375 32.71875 
Q 44.484375 40.625 41.703125 44.40625 
Q 38.921875 48.1875 33.109375 48.1875 
Q 26.21875 48.1875 22.15625 43.53125 
Q 18.109375 38.875 18.109375 30.90625 
L 18.109375 0 
L 9.078125 0 
L 9.078125 54.6875 
L 18.109375 54.6875 
L 18.109375 46.1875 
Q 21.1875 51.21875 25.484375 53.609375 
Q 29.78125 56 35.6875 56 
Q 41.65625 56 45.828125 52.96875 
Q 50 49.953125 52 44.1875 
z
" id="DejaVuSans-109"/>
       <path d="M 56.203125 29.59375 
L 56.203125 25.203125 
L 14.890625 25.203125 
Q 15.484375 15.921875 20.484375 11.0625 
Q 25.484375 6.203125 34.421875 6.203125 
Q 39.59375 6.203125 44.453125 7.46875 
Q 49.3125 8.734375 54.109375 11.28125 
L 54.109375 2.78125 
Q 49.265625 0.734375 44.1875 -0.34375 
Q 39.109375 -1.421875 33.890625 -1.421875 
Q 20.796875 -1.421875 13.15625 6.1875 
Q 5.515625 13.8125 5.515625 26.8125 
Q 5.515625 40.234375 12.765625 48.109375 
Q 20.015625 56 32.328125 56 
Q 43.359375 56 49.78125 48.890625 
Q 56.203125 41.796875 56.203125 29.59375 
z
M 47.21875 32.234375 
Q 47.125 39.59375 43.09375 43.984375 
Q 39.0625 48.390625 32.421875 48.390625 
Q 24.90625 48.390625 20.390625 44.140625 
Q 15.875 39.890625 15.1875 32.171875 
z
" id="DejaVuSans-101"/>
       <path id="DejaVuSans-32"/>
       <path d="M 31 75.875 
Q 24.46875 64.65625 21.28125 53.65625 
Q 18.109375 42.671875 18.109375 31.390625 
Q 18.109375 20.125 21.3125 9.0625 
Q 24.515625 -2 31 -13.1875 
L 23.1875 -13.1875 
Q 15.875 -1.703125 12.234375 9.375 
Q 8.59375 20.453125 8.59375 31.390625 
Q 8.59375 42.28125 12.203125 53.3125 
Q 15.828125 64.359375 23.1875 75.875 
z
" id="DejaVuSans-40"/>
       <path d="M 44.28125 53.078125 
L 44.28125 44.578125 
Q 40.484375 46.53125 36.375 47.5 
Q 32.28125 48.484375 27.875 48.484375 
Q 21.1875 48.484375 17.84375 46.4375 
Q 14.5 44.390625 14.5 40.28125 
Q 14.5 37.15625 16.890625 35.375 
Q 19.28125 33.59375 26.515625 31.984375 
L 29.59375 31.296875 
Q 39.15625 29.25 43.1875 25.515625 
Q 47.21875 21.78125 47.21875 15.09375 
Q 47.21875 7.46875 41.1875 3.015625 
Q 35.15625 -1.421875 24.609375 -1.421875 
Q 20.21875 -1.421875 15.453125 -0.5625 
Q 10.6875 0.296875 5.421875 2 
L 5.421875 11.28125 
Q 10.40625 8.6875 15.234375 7.390625 
Q 20.0625 6.109375 24.8125 6.109375 
Q 31.15625 6.109375 34.5625 8.28125 
Q 37.984375 10.453125 37.984375 14.40625 
Q 37.984375 18.0625 35.515625 20.015625 
Q 33.0625 21.96875 24.703125 23.78125 
L 21.578125 24.515625 
Q 13.234375 26.265625 9.515625 29.90625 
Q 5.8125 33.546875 5.8125 39.890625 
Q 5.8125 47.609375 11.28125 51.796875 
Q 16.75 56 26.8125 56 
Q 31.78125 56 36.171875 55.265625 
Q 40.578125 54.546875 44.28125 53.078125 
z
" id="DejaVuSans-115"/>
       <path d="M 48.78125 52.59375 
L 48.78125 44.1875 
Q 44.96875 46.296875 41.140625 47.34375 
Q 37.3125 48.390625 33.40625 48.390625 
Q 24.65625 48.390625 19.8125 42.84375 
Q 14.984375 37.3125 14.984375 27.296875 
Q 14.984375 17.28125 19.8125 11.734375 
Q 24.65625 6.203125 33.40625 6.203125 
Q 37.3125 6.203125 41.140625 7.25 
Q 44.96875 8.296875 48.78125 10.40625 
L 48.78125 2.09375 
Q 45.015625 0.34375 40.984375 -0.53125 
Q 36.96875 -1.421875 32.421875 -1.421875 
Q 20.0625 -1.421875 12.78125 6.34375 
Q 5.515625 14.109375 5.515625 27.296875 
Q 5.515625 40.671875 12.859375 48.328125 
Q 20.21875 56 33.015625 56 
Q 37.15625 56 41.109375 55.140625 
Q 45.0625 54.296875 48.78125 52.59375 
z
" id="DejaVuSans-99"/>
       <path d="M 8.015625 75.875 
L 15.828125 75.875 
Q 23.140625 64.359375 26.78125 53.3125 
Q 30.421875 42.28125 30.421875 31.390625 
Q 30.421875 20.453125 26.78125 9.375 
Q 23.140625 -1.703125 15.828125 -13.1875 
L 8.015625 -13.1875 
Q 14.5 -2 17.703125 9.0625 
Q 20.90625 20.125 20.90625 31.390625 
Q 20.90625 42.671875 17.703125 53.65625 
Q 14.5 64.65625 8.015625 75.875 
z
" id="DejaVuSans-41"/>
      </defs>
      <use xlink:href="#DejaVuSans-84"/>
      <use x="57.958984" xlink:href="#DejaVuSans-105"/>
      <use x="85.742188" xlink:href="#DejaVuSans-109"/>
      <use x="183.154297" xlink:href="#DejaVuSans-101"/>
      <use x="244.677734" xlink:href="#DejaVuSans-32"/>
      <use x="276.464844" xlink:href="#DejaVuSans-40"/>
      <use x="315.478516" xlink:href="#DejaVuSans-115"/>
      <use x="367.578125" xlink:href="#DejaVuSans-101"/>
      <use x="429.101562" xlink:href="#DejaVuSans-99"/>
      <use x="484.082031" xlink:href="#DejaVuSans-41"/>
     </g>
    </g>
   </g>
   <g id="matplotlib.axis_2">
    <g id="ytick_1">
     <g id="line2d_6">
      <defs>
       <path d="M 0 0 
L -3.5 0 
" id="mbaa21d5301" style="stroke:#000000;stroke-width:0.8;"/>
      </defs>
      <g>
       <use style="stroke:#000000;stroke-width:0.8;" x="44.57" xlink:href="#mbaa21d5301" y="256.929253"/>
      </g>
     </g>
     <g id="text_7">
      <!-- 20 -->
      <g transform="translate(24.845 260.728472)scale(0.1 -0.1)">
       <use xlink:href="#DejaVuSans-50"/>
       <use x="63.623047" xlink:href="#DejaVuSans-48"/>
      </g>
     </g>
    </g>
    <g id="ytick_2">
     <g id="line2d_7">
      <g>
       <use style="stroke:#000000;stroke-width:0.8;" x="44.57" xlink:href="#mbaa21d5301" y="194.528888"/>
      </g>
     </g>
     <g id="text_8">
      <!-- 40 -->
      <g transform="translate(24.845 198.328107)scale(0.1 -0.1)">
       <defs>
        <path d="M 37.796875 64.3125 
L 12.890625 25.390625 
L 37.796875 25.390625 
z
M 35.203125 72.90625 
L 47.609375 72.90625 
L 47.609375 25.390625 
L 58.015625 25.390625 
L 58.015625 17.1875 
L 47.609375 17.1875 
L 47.609375 0 
L 37.796875 0 
L 37.796875 17.1875 
L 4.890625 17.1875 
L 4.890625 26.703125 
z
" id="DejaVuSans-52"/>
       </defs>
       <use xlink:href="#DejaVuSans-52"/>
       <use x="63.623047" xlink:href="#DejaVuSans-48"/>
      </g>
     </g>
    </g>
    <g id="ytick_3">
     <g id="line2d_8">
      <g>
       <use style="stroke:#000000;stroke-width:0.8;" x="44.57" xlink:href="#mbaa21d5301" y="132.128523"/>
      </g>
     </g>
     <g id="text_9">
      <!-- 60 -->
      <g transform="translate(24.845 135.927742)scale(0.1 -0.1)">
       <defs>
        <path d="M 33.015625 40.375 
Q 26.375 40.375 22.484375 35.828125 
Q 18.609375 31.296875 18.609375 23.390625 
Q 18.609375 15.53125 22.484375 10.953125 
Q 26.375 6.390625 33.015625 6.390625 
Q 39.65625 6.390625 43.53125 10.953125 
Q 47.40625 15.53125 47.40625 23.390625 
Q 47.40625 31.296875 43.53125 35.828125 
Q 39.65625 40.375 33.015625 40.375 
z
M 52.59375 71.296875 
L 52.59375 62.3125 
Q 48.875 64.0625 45.09375 64.984375 
Q 41.3125 65.921875 37.59375 65.921875 
Q 27.828125 65.921875 22.671875 59.328125 
Q 17.53125 52.734375 16.796875 39.40625 
Q 19.671875 43.65625 24.015625 45.921875 
Q 28.375 48.1875 33.59375 48.1875 
Q 44.578125 48.1875 50.953125 41.515625 
Q 57.328125 34.859375 57.328125 23.390625 
Q 57.328125 12.15625 50.6875 5.359375 
Q 44.046875 -1.421875 33.015625 -1.421875 
Q 20.359375 -1.421875 13.671875 8.265625 
Q 6.984375 17.96875 6.984375 36.375 
Q 6.984375 53.65625 15.1875 63.9375 
Q 23.390625 74.21875 37.203125 74.21875 
Q 40.921875 74.21875 44.703125 73.484375 
Q 48.484375 72.75 52.59375 71.296875 
z
" id="DejaVuSans-54"/>
       </defs>
       <use xlink:href="#DejaVuSans-54"/>
       <use x="63.623047" xlink:href="#DejaVuSans-48"/>
      </g>
     </g>
    </g>
    <g id="ytick_4">
     <g id="line2d_9">
      <g>
       <use style="stroke:#000000;stroke-width:0.8;" x="44.57" xlink:href="#mbaa21d5301" y="69.728158"/>
      </g>
     </g>
     <g id="text_10">
      <!-- 80 -->
      <g transform="translate(24.845 73.527377)scale(0.1 -0.1)">
       <defs>
        <path d="M 31.78125 34.625 
Q 24.75 34.625 20.71875 30.859375 
Q 16.703125 27.09375 16.703125 20.515625 
Q 16.703125 13.921875 20.71875 10.15625 
Q 24.75 6.390625 31.78125 6.390625 
Q 38.8125 6.390625 42.859375 10.171875 
Q 46.921875 13.96875 46.921875 20.515625 
Q 46.921875 27.09375 42.890625 30.859375 
Q 38.875 34.625 31.78125 34.625 
z
M 21.921875 38.8125 
Q 15.578125 40.375 12.03125 44.71875 
Q 8.5 49.078125 8.5 55.328125 
Q 8.5 64.0625 14.71875 69.140625 
Q 20.953125 74.21875 31.78125 74.21875 
Q 42.671875 74.21875 48.875 69.140625 
Q 55.078125 64.0625 55.078125 55.328125 
Q 55.078125 49.078125 51.53125 44.71875 
Q 48 40.375 41.703125 38.8125 
Q 48.828125 37.15625 52.796875 32.3125 
Q 56.78125 27.484375 56.78125 20.515625 
Q 56.78125 9.90625 50.3125 4.234375 
Q 43.84375 -1.421875 31.78125 -1.421875 
Q 19.734375 -1.421875 13.25 4.234375 
Q 6.78125 9.90625 6.78125 20.515625 
Q 6.78125 27.484375 10.78125 32.3125 
Q 14.796875 37.15625 21.921875 38.8125 
z
M 18.3125 54.390625 
Q 18.3125 48.734375 21.84375 45.5625 
Q 25.390625 42.390625 31.78125 42.390625 
Q 38.140625 42.390625 41.71875 45.5625 
Q 45.3125 48.734375 45.3125 54.390625 
Q 45.3125 60.0625 41.71875 63.234375 
Q 38.140625 66.40625 31.78125 66.40625 
Q 25.390625 66.40625 21.84375 63.234375 
Q 18.3125 60.0625 18.3125 54.390625 
z
" id="DejaVuSans-56"/>
       </defs>
       <use xlink:href="#DejaVuSans-56"/>
       <use x="63.623047" xlink:href="#DejaVuSans-48"/>
      </g>
     </g>
    </g>
    <g id="text_11">
     <!-- Test Accuracy (%) -->
     <g transform="translate(18.765313 201.723906)rotate(-90)scale(0.1 -0.1)">
      <defs>
       <path d="M 18.3125 70.21875 
L 18.3125 54.6875 
L 36.8125 54.6875 
L 36.8125 47.703125 
L 18.3125 47.703125 
L 18.3125 18.015625 
Q 18.3125 11.328125 20.140625 9.421875 
Q 21.96875 7.515625 27.59375 7.515625 
L 36.8125 7.515625 
L 36.8125 0 
L 27.59375 0 
Q 17.1875 0 13.234375 3.875 
Q 9.28125 7.765625 9.28125 18.015625 
L 9.28125 47.703125 
L 2.6875 47.703125 
L 2.6875 54.6875 
L 9.28125 54.6875 
L 9.28125 70.21875 
z
" id="DejaVuSans-116"/>
       <path d="M 34.1875 63.1875 
L 20.796875 26.90625 
L 47.609375 26.90625 
z
M 28.609375 72.90625 
L 39.796875 72.90625 
L 67.578125 0 
L 57.328125 0 
L 50.6875 18.703125 
L 17.828125 18.703125 
L 11.1875 0 
L 0.78125 0 
z
" id="DejaVuSans-65"/>
       <path d="M 8.5 21.578125 
L 8.5 54.6875 
L 17.484375 54.6875 
L 17.484375 21.921875 
Q 17.484375 14.15625 20.5 10.265625 
Q 23.53125 6.390625 29.59375 6.390625 
Q 36.859375 6.390625 41.078125 11.03125 
Q 45.3125 15.671875 45.3125 23.6875 
L 45.3125 54.6875 
L 54.296875 54.6875 
L 54.296875 0 
L 45.3125 0 
L 45.3125 8.40625 
Q 42.046875 3.421875 37.71875 1 
Q 33.40625 -1.421875 27.6875 -1.421875 
Q 18.265625 -1.421875 13.375 4.4375 
Q 8.5 10.296875 8.5 21.578125 
z
M 31.109375 56 
z
" id="DejaVuSans-117"/>
       <path d="M 41.109375 46.296875 
Q 39.59375 47.171875 37.8125 47.578125 
Q 36.03125 48 33.890625 48 
Q 26.265625 48 22.1875 43.046875 
Q 18.109375 38.09375 18.109375 28.8125 
L 18.109375 0 
L 9.078125 0 
L 9.078125 54.6875 
L 18.109375 54.6875 
L 18.109375 46.1875 
Q 20.953125 51.171875 25.484375 53.578125 
Q 30.03125 56 36.53125 56 
Q 37.453125 56 38.578125 55.875 
Q 39.703125 55.765625 41.0625 55.515625 
z
" id="DejaVuSans-114"/>
       <path d="M 34.28125 27.484375 
Q 23.390625 27.484375 19.1875 25 
Q 14.984375 22.515625 14.984375 16.5 
Q 14.984375 11.71875 18.140625 8.90625 
Q 21.296875 6.109375 26.703125 6.109375 
Q 34.1875 6.109375 38.703125 11.40625 
Q 43.21875 16.703125 43.21875 25.484375 
L 43.21875 27.484375 
z
M 52.203125 31.203125 
L 52.203125 0 
L 43.21875 0 
L 43.21875 8.296875 
Q 40.140625 3.328125 35.546875 0.953125 
Q 30.953125 -1.421875 24.3125 -1.421875 
Q 15.921875 -1.421875 10.953125 3.296875 
Q 6 8.015625 6 15.921875 
Q 6 25.140625 12.171875 29.828125 
Q 18.359375 34.515625 30.609375 34.515625 
L 43.21875 34.515625 
L 43.21875 35.40625 
Q 43.21875 41.609375 39.140625 45 
Q 35.0625 48.390625 27.6875 48.390625 
Q 23 48.390625 18.546875 47.265625 
Q 14.109375 46.140625 10.015625 43.890625 
L 10.015625 52.203125 
Q 14.9375 54.109375 19.578125 55.046875 
Q 24.21875 56 28.609375 56 
Q 40.484375 56 46.34375 49.84375 
Q 52.203125 43.703125 52.203125 31.203125 
z
" id="DejaVuSans-97"/>
       <path d="M 32.171875 -5.078125 
Q 28.375 -14.84375 24.75 -17.8125 
Q 21.140625 -20.796875 15.09375 -20.796875 
L 7.90625 -20.796875 
L 7.90625 -13.28125 
L 13.1875 -13.28125 
Q 16.890625 -13.28125 18.9375 -11.515625 
Q 21 -9.765625 23.484375 -3.21875 
L 25.09375 0.875 
L 2.984375 54.6875 
L 12.5 54.6875 
L 29.59375 11.921875 
L 46.6875 54.6875 
L 56.203125 54.6875 
z
" id="DejaVuSans-121"/>
       <path d="M 72.703125 32.078125 
Q 68.453125 32.078125 66.03125 28.46875 
Q 63.625 24.859375 63.625 18.40625 
Q 63.625 12.0625 66.03125 8.421875 
Q 68.453125 4.78125 72.703125 4.78125 
Q 76.859375 4.78125 79.265625 8.421875 
Q 81.6875 12.0625 81.6875 18.40625 
Q 81.6875 24.8125 79.265625 28.4375 
Q 76.859375 32.078125 72.703125 32.078125 
z
M 72.703125 38.28125 
Q 80.421875 38.28125 84.953125 32.90625 
Q 89.5 27.546875 89.5 18.40625 
Q 89.5 9.28125 84.9375 3.921875 
Q 80.375 -1.421875 72.703125 -1.421875 
Q 64.890625 -1.421875 60.34375 3.921875 
Q 55.8125 9.28125 55.8125 18.40625 
Q 55.8125 27.59375 60.375 32.9375 
Q 64.9375 38.28125 72.703125 38.28125 
z
M 22.3125 68.015625 
Q 18.109375 68.015625 15.6875 64.375 
Q 13.28125 60.75 13.28125 54.390625 
Q 13.28125 47.953125 15.671875 44.328125 
Q 18.0625 40.71875 22.3125 40.71875 
Q 26.5625 40.71875 28.96875 44.328125 
Q 31.390625 47.953125 31.390625 54.390625 
Q 31.390625 60.6875 28.953125 64.34375 
Q 26.515625 68.015625 22.3125 68.015625 
z
M 66.40625 74.21875 
L 74.21875 74.21875 
L 28.609375 -1.421875 
L 20.796875 -1.421875 
z
M 22.3125 74.21875 
Q 30.03125 74.21875 34.609375 68.875 
Q 39.203125 63.53125 39.203125 54.390625 
Q 39.203125 45.171875 34.640625 39.84375 
Q 30.078125 34.515625 22.3125 34.515625 
Q 14.546875 34.515625 10.03125 39.859375 
Q 5.515625 45.21875 5.515625 54.390625 
Q 5.515625 63.484375 10.046875 68.84375 
Q 14.59375 74.21875 22.3125 74.21875 
z
" id="DejaVuSans-37"/>
      </defs>
      <use xlink:href="#DejaVuSans-84"/>
      <use x="44.083984" xlink:href="#DejaVuSans-101"/>
      <use x="105.607422" xlink:href="#DejaVuSans-115"/>
      <use x="157.707031" xlink:href="#DejaVuSans-116"/>
      <use x="196.916016" xlink:href="#DejaVuSans-32"/>
      <use x="228.703125" xlink:href="#DejaVuSans-65"/>
      <use x="295.361328" xlink:href="#DejaVuSans-99"/>
      <use x="350.341797" xlink:href="#DejaVuSans-99"/>
      <use x="405.322266" xlink:href="#DejaVuSans-117"/>
      <use x="468.701172" xlink:href="#DejaVuSans-114"/>
      <use x="509.814453" xlink:href="#DejaVuSans-97"/>
      <use x="571.09375" xlink:href="#DejaVuSans-99"/>
      <use x="626.074219" xlink:href="#DejaVuSans-121"/>
      <use x="685.253906" xlink:href="#DejaVuSans-32"/>
      <use x="717.041016" xlink:href="#DejaVuSans-40"/>
      <use x="756.054688" xlink:href="#DejaVuSans-37"/>
      <use x="851.074219" xlink:href="#DejaVuSans-41"/>
     </g>
    </g>
   </g>
   <g id="line2d_10">
    <path clip-path="url(#p98c9503bed)" d="M 63.089759 273.382474 
L 65.305772 252.785479 
L 67.594059 237.200622 
L 69.845162 223.169681 
L 72.104478 194.757405 
L 74.388202 151.26301 
L 76.648441 123.353472 
L 78.856449 114.090918 
L 81.043212 106.412748 
L 83.266196 81.671978 
L 85.439079 77.771955 
L 87.624105 82.860266 
L 89.855417 76.461791 
L 92.081446 74.603187 
L 94.329735 71.09926 
L 96.637699 60.8617 
L 98.897844 66.071887 
L 101.102084 58.363248 
L 103.320692 52.238994 
L 105.508586 66.102356 
L 107.790956 55.651513 
L 110.050191 56.32183 
L 112.232651 63.268746 
L 114.488022 61.410141 
L 116.700147 62.720305 
L 118.957769 55.4687 
L 121.187986 59.521067 
L 123.425408 56.352299 
L 125.622124 58.637468 
L 127.830732 51.660084 
L 130.051068 53.610095 
L 132.254338 53.18353 
L 134.492771 53.122592 
L 136.733992 51.78196 
L 138.935169 50.167106 
L 141.204063 57.205429 
L 143.445043 61.562486 
L 145.702321 57.022615 
L 147.955374 48.36944 
L 150.195675 59.521067 
L 152.522358 50.136637 
L 154.756581 47.881937 
L 156.983854 50.685078 
L 159.256451 48.338971 
L 161.472384 49.740541 
L 163.705217 47.150683 
L 165.90701 46.998338 
L 170.354879 49.831948 
L 172.519886 48.704598 
L 176.992176 50.92883 
L 179.195312 50.410858 
L 181.446821 49.22257 
L 183.636351 50.441327 
L 185.883079 44.195197 
L 188.070409 51.629615 
L 190.271429 56.778864 
L 192.499045 49.283508 
L 194.719089 41.117835 
L 196.992581 49.192101 
L 199.234925 48.978818 
L 201.439618 43.981914 
L 203.689346 41.117835 
L 205.940104 48.338971 
L 208.22175 49.253039 
L 210.44446 41.81862 
L 212.676195 45.779581 
L 214.890601 48.735067 
L 217.125908 43.098315 
L 219.355517 45.931925 
L 221.581002 45.962394 
L 223.789808 43.311598 
L 226.059289 46.114739 
L 228.281847 43.342067 
L 230.485903 43.037377 
L 232.692068 45.931925 
L 234.910096 40.477987 
L 237.155516 42.580343 
L 239.402876 42.702219 
L 241.684788 41.513931 
L 243.964255 39.868609 
L 246.199142 42.732688 
L 248.415056 41.666275 
L 250.704765 40.752208 
L 252.951234 43.25066 
L 255.18305 39.198292 
L 257.341379 40.538925 
L 259.57414 38.162349 
L 261.85037 38.010004 
L 264.093088 39.807671 
L 266.341588 41.757682 
L 268.62525 38.741258 
L 270.842307 38.863134 
L 273.045569 35.999055 
L 275.240102 37.248281 
L 277.436562 36.547496 
L 281.962783 36.974061 
L 284.190851 35.602959 
L 286.415877 36.181868 
L 288.682858 36.577964 
L 290.93546 35.816241 
L 293.173002 33.927168 
L 295.400052 38.954541 
L 297.653113 34.841236 
L 299.949698 33.043569 
L 302.248182 34.231857 
L 304.513119 33.805292 
L 306.732624 32.769348 
L 308.954928 33.256851 
L 311.191527 33.896699 
L 313.442484 34.323264 
L 315.715255 32.769348 
L 317.929223 32.799817 
L 320.148344 33.896699 
L 322.388029 32.525597 
L 324.571212 32.129501 
L 326.858884 31.276371 
L 329.124135 31.702936 
L 331.376227 30.514648 
L 333.634559 31.916218 
L 335.892291 29.32636 
L 338.07243 29.204484 
L 340.286121 31.367778 
L 342.526784 30.362303 
L 344.757053 29.143546 
L 346.993656 30.849806 
L 349.187342 29.60058 
L 351.403641 28.991201 
L 353.645006 29.204484 
L 355.918437 27.985727 
L 358.157624 29.32636 
L 360.437517 28.625574 
L 362.668374 28.869326 
L 364.93935 28.625574 
L 367.201144 28.199009 
L 369.436924 28.259947 
L 371.683239 27.559162 
L 373.870873 28.716981 
L 376.184483 28.259947 
L 378.396715 27.985727 
L 380.595549 27.863851 
L 382.819763 27.254472 
L 385.030186 27.376348 
L 387.238592 27.681037 
L 389.51224 27.772444 
L 391.788121 27.345879 
L 396.220691 27.345879 
L 396.220691 27.345879 
" style="fill:none;stroke:#1f77b4;stroke-linecap:square;stroke-width:1.5;"/>
   </g>
   <g id="line2d_11">
    <path clip-path="url(#p98c9503bed)" d="M 63.391794 285.935673 
L 65.839038 286.545051 
L 68.365883 279.47626 
L 70.859005 273.748101 
L 73.340409 241.321545 
L 75.819974 240.955917 
L 78.300205 213.297748 
L 80.790634 182.950695 
L 83.31725 158.331801 
L 85.82247 137.61293 
L 88.307794 112.90263 
L 90.767915 105.315866 
L 93.2528 84.810278 
L 95.748604 82.159481 
L 98.260012 71.403949 
L 100.714212 68.235181 
L 103.175342 75.94382 
L 105.636352 76.553198 
L 108.108408 68.753153 
L 110.553961 68.722684 
L 113.01623 74.999283 
L 115.470807 70.215661 
L 117.958956 76.918825 
L 120.411246 65.584384 
L 122.878216 82.037605 
L 125.337644 67.199237 
L 127.801274 64.27422 
L 130.237841 60.709356 
L 132.7428 60.191384 
L 135.229322 53.213999 
L 137.669495 61.592954 
L 140.11395 56.687457 
L 142.59898 58.454655 
L 145.112142 53.945254 
L 147.547912 57.540587 
L 150.037852 57.510118 
L 152.497419 58.515593 
L 157.453453 51.111643 
L 159.908374 59.033565 
L 162.379323 59.582005 
L 164.859173 52.665559 
L 167.327463 53.914785 
L 169.846261 56.413237 
L 172.320778 55.255417 
L 174.773724 59.246847 
L 177.21711 54.920259 
L 179.690955 52.787434 
L 182.181648 51.20305 
L 184.711297 48.887411 
L 187.167416 49.649135 
L 189.653504 54.88979 
L 192.10041 53.945254 
L 194.53526 53.396813 
L 196.997966 53.244468 
L 199.462833 49.435852 
L 201.898973 51.751491 
L 204.361942 49.344445 
L 206.831846 50.258513 
L 209.299162 44.073321 
L 211.763075 53.153061 
L 214.233505 51.873366 
L 216.706848 54.706977 
L 219.1503 43.646756 
L 221.608858 46.114739 
L 224.049947 49.679604 
L 226.562423 48.735067 
L 229.021345 46.328021 
L 231.478896 47.120214 
L 233.915827 45.901456 
L 236.405163 45.657705 
L 238.882965 49.679604 
L 241.359301 52.482745 
L 243.823355 51.964773 
L 246.26514 43.037377 
L 248.770162 51.568677 
L 251.22426 47.760061 
L 253.676324 44.225665 
L 256.134859 42.549874 
L 258.600827 46.08427 
L 261.086945 42.885033 
L 263.56659 40.721739 
L 266.056107 42.488937 
L 268.516857 43.52488 
L 270.980756 42.488937 
L 273.448522 44.865513 
L 275.945896 40.69127 
L 278.441885 40.447518 
L 280.894678 43.920976 
L 283.403555 42.732688 
L 285.845815 38.802196 
L 288.30644 41.666275 
L 290.771076 39.716264 
L 293.251393 42.763157 
L 295.715861 39.442044 
L 298.196459 40.843614 
L 300.682005 39.137354 
L 303.163957 39.807671 
L 305.638234 38.98501 
L 308.116654 43.52488 
L 310.575672 36.303744 
L 313.051312 39.106885 
L 315.513998 36.120931 
L 317.990253 39.320168 
L 320.456593 37.583439 
L 322.909032 37.705315 
L 325.368556 36.42562 
L 327.867787 34.902173 
L 330.328834 37.55297 
L 332.792703 36.913123 
L 335.247579 36.730309 
L 337.694494 36.913123 
L 342.620323 37.949066 
L 345.116811 35.145925 
L 347.563666 32.952162 
L 350.010818 33.470134 
L 352.503391 34.506077 
L 354.976612 33.86623 
L 357.500565 33.774823 
L 362.477027 32.281846 
L 364.989926 31.855281 
L 367.446208 32.769348 
L 369.884268 34.780298 
L 372.365396 33.652947 
L 374.818571 33.683416 
L 377.276826 32.495128 
L 379.776511 31.824812 
L 382.221268 30.423241 
L 384.711687 30.72793 
L 387.148878 29.752925 
L 389.597472 29.722456 
L 392.108539 31.550591 
L 394.567924 31.184964 
L 397.064099 29.844331 
L 402.016881 29.143546 
L 404.484458 30.209958 
L 406.928684 30.027145 
L 409.395202 29.996676 
L 411.8739 30.636523 
L 414.312643 29.996676 
L 416.741673 29.60058 
L 419.209091 29.448235 
L 424.16695 29.661518 
L 426.62323 30.240427 
L 429.067495 29.356828 
L 431.571364 29.448235 
L 431.571364 29.448235 
" style="fill:none;stroke:#ff7f0e;stroke-linecap:square;stroke-width:1.5;"/>
   </g>
   <g id="line2d_12">
    <path clip-path="url(#p98c9503bed)" d="M 63.021976 280.695017 
L 65.11118 283.254407 
L 67.224675 279.720011 
L 73.599268 204.888324 
L 75.692142 169.437726 
L 79.928237 119.331573 
L 82.043665 108.484635 
L 84.14193 105.437742 
L 86.262 86.668882 
L 88.347247 79.325871 
L 90.444682 82.677453 
L 92.579896 81.824323 
L 94.664391 76.065695 
L 96.806327 75.243034 
L 98.882287 78.472741 
L 101.003887 71.190667 
L 103.156303 69.97191 
L 105.264228 64.761723 
L 107.394232 73.871933 
L 109.49191 75.700068 
L 111.58558 73.018803 
L 113.713607 74.024277 
L 115.793389 64.609378 
L 117.894923 68.021898 
L 119.977595 66.925017 
L 122.118157 61.775768 
L 124.277499 66.803141 
L 126.392024 60.739824 
L 128.454955 62.049988 
L 130.572638 65.066412 
L 132.696327 57.875745 
L 134.8252 57.17496 
L 136.928742 62.933587 
L 139.022527 61.318734 
L 141.160776 56.04761 
L 143.329749 54.61557 
L 145.426868 67.442989 
L 147.519816 63.024994 
L 149.682389 52.3304 
L 151.811481 54.34135 
L 153.898172 53.18353 
L 155.958885 56.809333 
L 158.048881 60.069508 
L 162.27511 54.61557 
L 164.345987 57.631994 
L 166.447782 52.939779 
L 168.50938 53.366344 
L 170.622589 52.391338 
L 172.678225 57.327305 
L 174.819507 51.903835 
L 176.941957 59.368723 
L 179.018988 48.217095 
L 181.12062 53.366344 
L 183.258241 48.36944 
L 185.350604 54.859321 
L 187.500992 49.009287 
L 189.589985 58.30231 
L 191.702737 54.189005 
L 193.78703 50.715547 
L 195.88153 52.63509 
L 197.976956 50.746016 
L 200.075905 51.842897 
L 202.16935 47.577248 
L 204.300766 53.153061 
L 206.413924 51.721022 
L 208.580999 45.109264 
L 210.70597 53.061655 
L 212.788355 53.18353 
L 214.905573 47.363965 
L 217.069377 49.923355 
L 219.176629 47.577248 
L 221.251345 50.806954 
L 225.414535 48.978818 
L 227.541477 47.242089 
L 229.650922 41.483462 
L 231.728884 42.39753 
L 233.830821 47.668654 
L 235.883456 45.81005 
L 238.108299 40.020953 
L 240.203278 43.281129 
L 242.306697 49.953824 
L 244.391768 43.981914 
L 246.499743 42.94597 
L 248.622538 44.37801 
L 250.685181 42.976439 
L 252.733767 42.031903 
L 254.788681 49.009287 
L 256.869721 42.001434 
L 258.984884 42.275654 
L 261.076408 45.353016 
L 263.190119 44.65223 
L 265.280956 42.549874 
L 267.366637 42.488937 
L 269.479191 40.417049 
L 271.578699 42.367061 
L 273.707651 40.721739 
L 275.829865 39.442044 
L 277.967846 39.868609 
L 280.080444 42.732688 
L 282.157402 42.793626 
L 284.343042 39.198292 
L 288.508477 40.904552 
L 290.62755 43.433473 
L 292.752076 37.400626 
L 294.873352 38.832665 
L 296.950846 39.624857 
L 299.11897 38.588914 
L 301.198672 40.142829 
L 303.303268 40.538925 
L 305.39587 37.979535 
L 307.535898 36.974061 
L 309.588918 37.796722 
L 311.693967 37.370157 
L 313.772425 37.55297 
L 315.864373 37.095936 
L 317.967108 35.938117 
L 320.078351 35.938117 
L 322.273129 36.608433 
L 324.369764 35.145925 
L 326.500506 35.389676 
L 328.686015 35.938117 
L 330.791973 35.938117 
L 332.895678 35.359207 
L 334.94794 35.481083 
L 337.018152 34.749829 
L 339.123723 35.694366 
L 341.172262 34.049043 
L 345.32921 33.561541 
L 347.465874 34.262326 
L 349.625875 34.201388 
L 351.751005 32.586535 
L 353.847976 33.317789 
L 355.963391 32.495128 
L 358.054786 32.769348 
L 360.143969 32.464659 
L 362.280492 32.464659 
L 364.439176 32.038094 
L 366.562939 32.952162 
L 372.764493 32.830286 
L 376.968143 32.403721 
L 376.968143 32.403721 
" style="fill:none;stroke:#2ca02c;stroke-linecap:square;stroke-width:1.5;"/>
   </g>
   <g id="line2d_13">
    <path clip-path="url(#p98c9503bed)" d="M 62.998636 280.816893 
L 65.09791 246.06708 
L 67.167908 227.313455 
L 69.252931 188.206586 
L 71.332512 183.301088 
L 73.465417 157.478671 
L 75.586247 149.648157 
L 77.738405 142.944993 
L 79.827258 137.61293 
L 81.918242 136.059015 
L 84.007371 124.785512 
L 86.087315 116.101867 
L 88.268902 121.677681 
L 90.36736 128.716003 
L 92.470354 127.497246 
L 94.550075 126.156613 
L 96.600219 129.812885 
L 98.703569 133.012122 
L 100.758526 120.672206 
L 102.865955 129.355851 
L 105.002013 113.115912 
L 107.066327 130.909766 
L 109.116489 124.572229 
L 111.239619 119.362042 
L 113.328699 119.057353 
L 115.404644 118.143285 
L 117.561404 118.021409 
L 119.630903 121.281585 
L 121.752816 119.727669 
L 123.803728 121.799557 
L 126.006437 117.229217 
L 128.130776 103.731482 
L 130.180939 121.037833 
L 132.22786 107.753381 
L 134.277716 117.960472 
L 136.40967 105.285397 
L 138.484415 115.644833 
L 140.579629 113.359663 
L 142.669931 103.122104 
L 144.73538 117.107342 
L 146.824285 111.775279 
L 148.89505 102.847883 
L 151.047509 107.875256 
L 153.128837 105.559618 
L 155.206222 104.706488 
L 157.319164 102.634601 
L 159.387362 104.249454 
L 161.443645 111.531528 
L 163.499851 102.390849 
L 165.57309 93.981425 
L 167.637132 101.50725 
L 169.727812 101.293968 
L 171.769556 103.487731 
L 173.852589 94.804086 
L 175.919126 103.365855 
L 178.053786 98.521295 
L 180.117884 100.65412 
L 182.216825 90.568905 
L 184.280249 95.565809 
L 186.395913 104.676019 
L 188.485152 97.058787 
L 190.538563 92.305634 
L 192.574758 97.485352 
L 194.638236 93.859549 
L 196.714357 94.194708 
L 198.771227 93.158764 
L 200.836451 90.812657 
L 202.913766 95.413465 
L 204.973971 96.906442 
L 207.058863 91.056408 
L 209.132342 93.493922 
L 211.257457 84.048555 
L 213.306307 87.369668 
L 215.439068 84.871216 
L 217.50162 84.840747 
L 219.573191 92.183758 
L 221.741239 85.511063 
L 223.895756 83.469645 
L 225.949562 81.184475 
L 227.988766 80.331345 
L 230.079224 81.093069 
L 232.18546 77.863362 
L 234.286184 69.271124 
L 236.367134 76.431323 
L 238.480272 74.633656 
L 240.67519 77.284452 
L 242.757868 83.164956 
L 244.86724 70.946915 
L 246.949232 71.282074 
L 249.036422 73.475836 
L 251.150035 70.550819 
L 253.249591 71.495356 
L 255.352084 66.650797 
L 257.450846 66.925017 
L 259.519935 65.066412 
L 261.568835 70.489882 
L 263.662172 68.509401 
L 265.764001 65.432039 
L 267.880263 64.030469 
L 269.922895 67.260175 
L 272.009306 62.537491 
L 274.055656 61.288265 
L 278.242696 60.435135 
L 280.298391 63.360152 
L 282.352791 60.496073 
L 284.399098 62.324209 
L 286.482263 57.723401 
L 288.537635 57.510118 
L 290.615709 63.634373 
L 292.709373 59.978101 
L 294.853514 58.911689 
L 296.916792 57.17496 
L 298.99148 56.291361 
L 301.10249 54.737446 
L 303.215673 56.382768 
L 305.340528 54.524163 
L 307.462678 53.640564 
L 309.593031 52.574152 
L 311.691061 50.837423 
L 313.776976 54.402287 
L 315.899885 50.746016 
L 317.984167 48.978818 
L 320.066137 52.452276 
L 322.131783 50.867892 
L 324.227221 50.136637 
L 326.282168 52.391338 
L 328.345827 48.491315 
L 330.42841 50.319451 
L 332.50875 50.502265 
L 334.547794 49.984293 
L 336.684377 49.892886 
L 338.740537 49.283508 
L 340.811728 47.760061 
L 342.885621 49.131163 
L 344.920282 47.059276 
L 346.999529 47.242089 
L 349.041499 48.491315 
L 351.168686 47.51631 
L 353.240294 48.460846 
L 355.329513 46.175677 
L 357.50082 46.967869 
L 359.643311 47.424903 
L 361.717597 47.242089 
L 363.809808 46.541304 
L 365.944264 46.815524 
L 368.085871 46.906931 
L 370.166993 46.724118 
L 372.258487 47.089745 
L 374.30954 46.449897 
L 374.30954 46.449897 
" style="fill:none;stroke:#d62728;stroke-linecap:square;stroke-width:1.5;"/>
   </g>
   <g id="patch_3">
    <path d="M 44.57 303.64 
L 44.57 10.8 
" style="fill:none;stroke:#000000;stroke-linecap:square;stroke-linejoin:miter;stroke-width:0.8;"/>
   </g>
   <g id="patch_4">
    <path d="M 450 303.64 
L 450 10.8 
" style="fill:none;stroke:#000000;stroke-linecap:square;stroke-linejoin:miter;stroke-width:0.8;"/>
   </g>
   <g id="patch_5">
    <path d="M 44.57 303.64 
L 450 303.64 
" style="fill:none;stroke:#000000;stroke-linecap:square;stroke-linejoin:miter;stroke-width:0.8;"/>
   </g>
   <g id="patch_6">
    <path d="M 44.57 10.8 
L 450 10.8 
" style="fill:none;stroke:#000000;stroke-linecap:square;stroke-linejoin:miter;stroke-width:0.8;"/>
   </g>
   <g id="legend_1">
    <g id="patch_7">
     <path d="M 330.639062 298.64 
L 443 298.64 
Q 445 298.64 445 296.64 
L 445 238.9275 
Q 445 236.9275 443 236.9275 
L 330.639062 236.9275 
Q 328.639062 236.9275 328.639062 238.9275 
L 328.639062 296.64 
Q 328.639062 298.64 330.639062 298.64 
z
" style="fill:#ffffff;opacity:0.8;stroke:#cccccc;stroke-linejoin:miter;"/>
    </g>
    <g id="line2d_14">
     <path d="M 332.639062 245.025937 
L 352.639062 245.025937 
" style="fill:none;stroke:#1f77b4;stroke-linecap:square;stroke-width:1.5;"/>
    </g>
    <g id="line2d_15"/>
    <g id="text_12">
     <!-- AllReduce SGD -->
     <g transform="translate(360.639062 248.525937)scale(0.1 -0.1)">
      <defs>
       <path d="M 9.421875 75.984375 
L 18.40625 75.984375 
L 18.40625 0 
L 9.421875 0 
z
" id="DejaVuSans-108"/>
       <path d="M 44.390625 34.1875 
Q 47.5625 33.109375 50.5625 29.59375 
Q 53.5625 26.078125 56.59375 19.921875 
L 66.609375 0 
L 56 0 
L 46.6875 18.703125 
Q 43.0625 26.03125 39.671875 28.421875 
Q 36.28125 30.8125 30.421875 30.8125 
L 19.671875 30.8125 
L 19.671875 0 
L 9.8125 0 
L 9.8125 72.90625 
L 32.078125 72.90625 
Q 44.578125 72.90625 50.734375 67.671875 
Q 56.890625 62.453125 56.890625 51.90625 
Q 56.890625 45.015625 53.6875 40.46875 
Q 50.484375 35.9375 44.390625 34.1875 
z
M 19.671875 64.796875 
L 19.671875 38.921875 
L 32.078125 38.921875 
Q 39.203125 38.921875 42.84375 42.21875 
Q 46.484375 45.515625 46.484375 51.90625 
Q 46.484375 58.296875 42.84375 61.546875 
Q 39.203125 64.796875 32.078125 64.796875 
z
" id="DejaVuSans-82"/>
       <path d="M 45.40625 46.390625 
L 45.40625 75.984375 
L 54.390625 75.984375 
L 54.390625 0 
L 45.40625 0 
L 45.40625 8.203125 
Q 42.578125 3.328125 38.25 0.953125 
Q 33.9375 -1.421875 27.875 -1.421875 
Q 17.96875 -1.421875 11.734375 6.484375 
Q 5.515625 14.40625 5.515625 27.296875 
Q 5.515625 40.1875 11.734375 48.09375 
Q 17.96875 56 27.875 56 
Q 33.9375 56 38.25 53.625 
Q 42.578125 51.265625 45.40625 46.390625 
z
M 14.796875 27.296875 
Q 14.796875 17.390625 18.875 11.75 
Q 22.953125 6.109375 30.078125 6.109375 
Q 37.203125 6.109375 41.296875 11.75 
Q 45.40625 17.390625 45.40625 27.296875 
Q 45.40625 37.203125 41.296875 42.84375 
Q 37.203125 48.484375 30.078125 48.484375 
Q 22.953125 48.484375 18.875 42.84375 
Q 14.796875 37.203125 14.796875 27.296875 
z
" id="DejaVuSans-100"/>
       <path d="M 53.515625 70.515625 
L 53.515625 60.890625 
Q 47.90625 63.578125 42.921875 64.890625 
Q 37.9375 66.21875 33.296875 66.21875 
Q 25.25 66.21875 20.875 63.09375 
Q 16.5 59.96875 16.5 54.203125 
Q 16.5 49.359375 19.40625 46.890625 
Q 22.3125 44.4375 30.421875 42.921875 
L 36.375 41.703125 
Q 47.40625 39.59375 52.65625 34.296875 
Q 57.90625 29 57.90625 20.125 
Q 57.90625 9.515625 50.796875 4.046875 
Q 43.703125 -1.421875 29.984375 -1.421875 
Q 24.8125 -1.421875 18.96875 -0.25 
Q 13.140625 0.921875 6.890625 3.21875 
L 6.890625 13.375 
Q 12.890625 10.015625 18.65625 8.296875 
Q 24.421875 6.59375 29.984375 6.59375 
Q 38.421875 6.59375 43.015625 9.90625 
Q 47.609375 13.234375 47.609375 19.390625 
Q 47.609375 24.75 44.3125 27.78125 
Q 41.015625 30.8125 33.5 32.328125 
L 27.484375 33.5 
Q 16.453125 35.6875 11.515625 40.375 
Q 6.59375 45.0625 6.59375 53.421875 
Q 6.59375 63.09375 13.40625 68.65625 
Q 20.21875 74.21875 32.171875 74.21875 
Q 37.3125 74.21875 42.625 73.28125 
Q 47.953125 72.359375 53.515625 70.515625 
z
" id="DejaVuSans-83"/>
       <path d="M 59.515625 10.40625 
L 59.515625 29.984375 
L 43.40625 29.984375 
L 43.40625 38.09375 
L 69.28125 38.09375 
L 69.28125 6.78125 
Q 63.578125 2.734375 56.6875 0.65625 
Q 49.8125 -1.421875 42 -1.421875 
Q 24.90625 -1.421875 15.25 8.5625 
Q 5.609375 18.5625 5.609375 36.375 
Q 5.609375 54.25 15.25 64.234375 
Q 24.90625 74.21875 42 74.21875 
Q 49.125 74.21875 55.546875 72.453125 
Q 61.96875 70.703125 67.390625 67.28125 
L 67.390625 56.78125 
Q 61.921875 61.421875 55.765625 63.765625 
Q 49.609375 66.109375 42.828125 66.109375 
Q 29.4375 66.109375 22.71875 58.640625 
Q 16.015625 51.171875 16.015625 36.375 
Q 16.015625 21.625 22.71875 14.15625 
Q 29.4375 6.6875 42.828125 6.6875 
Q 48.046875 6.6875 52.140625 7.59375 
Q 56.25 8.5 59.515625 10.40625 
z
" id="DejaVuSans-71"/>
       <path d="M 19.671875 64.796875 
L 19.671875 8.109375 
L 31.59375 8.109375 
Q 46.6875 8.109375 53.6875 14.9375 
Q 60.6875 21.78125 60.6875 36.53125 
Q 60.6875 51.171875 53.6875 57.984375 
Q 46.6875 64.796875 31.59375 64.796875 
z
M 9.8125 72.90625 
L 30.078125 72.90625 
Q 51.265625 72.90625 61.171875 64.09375 
Q 71.09375 55.28125 71.09375 36.53125 
Q 71.09375 17.671875 61.125 8.828125 
Q 51.171875 0 30.078125 0 
L 9.8125 0 
z
" id="DejaVuSans-68"/>
      </defs>
      <use xlink:href="#DejaVuSans-65"/>
      <use x="68.408203" xlink:href="#DejaVuSans-108"/>
      <use x="96.191406" xlink:href="#DejaVuSans-108"/>
      <use x="123.974609" xlink:href="#DejaVuSans-82"/>
      <use x="188.957031" xlink:href="#DejaVuSans-101"/>
      <use x="250.480469" xlink:href="#DejaVuSans-100"/>
      <use x="313.957031" xlink:href="#DejaVuSans-117"/>
      <use x="377.335938" xlink:href="#DejaVuSans-99"/>
      <use x="432.316406" xlink:href="#DejaVuSans-101"/>
      <use x="493.839844" xlink:href="#DejaVuSans-32"/>
      <use x="525.626953" xlink:href="#DejaVuSans-83"/>
      <use x="589.103516" xlink:href="#DejaVuSans-71"/>
      <use x="666.59375" xlink:href="#DejaVuSans-68"/>
     </g>
    </g>
    <g id="line2d_16">
     <path d="M 332.639062 259.704062 
L 352.639062 259.704062 
" style="fill:none;stroke:#ff7f0e;stroke-linecap:square;stroke-width:1.5;"/>
    </g>
    <g id="line2d_17"/>
    <g id="text_13">
     <!-- QSGD-MN 8 bits -->
     <g transform="translate(360.639062 263.204062)scale(0.1 -0.1)">
      <defs>
       <path d="M 39.40625 66.21875 
Q 28.65625 66.21875 22.328125 58.203125 
Q 16.015625 50.203125 16.015625 36.375 
Q 16.015625 22.609375 22.328125 14.59375 
Q 28.65625 6.59375 39.40625 6.59375 
Q 50.140625 6.59375 56.421875 14.59375 
Q 62.703125 22.609375 62.703125 36.375 
Q 62.703125 50.203125 56.421875 58.203125 
Q 50.140625 66.21875 39.40625 66.21875 
z
M 53.21875 1.3125 
L 66.21875 -12.890625 
L 54.296875 -12.890625 
L 43.5 -1.21875 
Q 41.890625 -1.3125 41.03125 -1.359375 
Q 40.1875 -1.421875 39.40625 -1.421875 
Q 24.03125 -1.421875 14.8125 8.859375 
Q 5.609375 19.140625 5.609375 36.375 
Q 5.609375 53.65625 14.8125 63.9375 
Q 24.03125 74.21875 39.40625 74.21875 
Q 54.734375 74.21875 63.90625 63.9375 
Q 73.09375 53.65625 73.09375 36.375 
Q 73.09375 23.6875 67.984375 14.640625 
Q 62.890625 5.609375 53.21875 1.3125 
z
" id="DejaVuSans-81"/>
       <path d="M 4.890625 31.390625 
L 31.203125 31.390625 
L 31.203125 23.390625 
L 4.890625 23.390625 
z
" id="DejaVuSans-45"/>
       <path d="M 9.8125 72.90625 
L 24.515625 72.90625 
L 43.109375 23.296875 
L 61.8125 72.90625 
L 76.515625 72.90625 
L 76.515625 0 
L 66.890625 0 
L 66.890625 64.015625 
L 48.09375 14.015625 
L 38.1875 14.015625 
L 19.390625 64.015625 
L 19.390625 0 
L 9.8125 0 
z
" id="DejaVuSans-77"/>
       <path d="M 9.8125 72.90625 
L 23.09375 72.90625 
L 55.421875 11.921875 
L 55.421875 72.90625 
L 64.984375 72.90625 
L 64.984375 0 
L 51.703125 0 
L 19.390625 60.984375 
L 19.390625 0 
L 9.8125 0 
z
" id="DejaVuSans-78"/>
       <path d="M 48.6875 27.296875 
Q 48.6875 37.203125 44.609375 42.84375 
Q 40.53125 48.484375 33.40625 48.484375 
Q 26.265625 48.484375 22.1875 42.84375 
Q 18.109375 37.203125 18.109375 27.296875 
Q 18.109375 17.390625 22.1875 11.75 
Q 26.265625 6.109375 33.40625 6.109375 
Q 40.53125 6.109375 44.609375 11.75 
Q 48.6875 17.390625 48.6875 27.296875 
z
M 18.109375 46.390625 
Q 20.953125 51.265625 25.265625 53.625 
Q 29.59375 56 35.59375 56 
Q 45.5625 56 51.78125 48.09375 
Q 58.015625 40.1875 58.015625 27.296875 
Q 58.015625 14.40625 51.78125 6.484375 
Q 45.5625 -1.421875 35.59375 -1.421875 
Q 29.59375 -1.421875 25.265625 0.953125 
Q 20.953125 3.328125 18.109375 8.203125 
L 18.109375 0 
L 9.078125 0 
L 9.078125 75.984375 
L 18.109375 75.984375 
z
" id="DejaVuSans-98"/>
      </defs>
      <use xlink:href="#DejaVuSans-81"/>
      <use x="78.710938" xlink:href="#DejaVuSans-83"/>
      <use x="142.1875" xlink:href="#DejaVuSans-71"/>
      <use x="219.677734" xlink:href="#DejaVuSans-68"/>
      <use x="296.679688" xlink:href="#DejaVuSans-45"/>
      <use x="332.763672" xlink:href="#DejaVuSans-77"/>
      <use x="419.042969" xlink:href="#DejaVuSans-78"/>
      <use x="493.847656" xlink:href="#DejaVuSans-32"/>
      <use x="525.634766" xlink:href="#DejaVuSans-56"/>
      <use x="589.257812" xlink:href="#DejaVuSans-32"/>
      <use x="621.044922" xlink:href="#DejaVuSans-98"/>
      <use x="684.521484" xlink:href="#DejaVuSans-105"/>
      <use x="712.304688" xlink:href="#DejaVuSans-116"/>
      <use x="751.513672" xlink:href="#DejaVuSans-115"/>
     </g>
    </g>
    <g id="line2d_18">
     <path d="M 332.639062 274.382187 
L 352.639062 274.382187 
" style="fill:none;stroke:#2ca02c;stroke-linecap:square;stroke-width:1.5;"/>
    </g>
    <g id="line2d_19"/>
    <g id="text_14">
     <!-- QSGD-MN 4 bits -->
     <g transform="translate(360.639062 277.882187)scale(0.1 -0.1)">
      <use xlink:href="#DejaVuSans-81"/>
      <use x="78.710938" xlink:href="#DejaVuSans-83"/>
      <use x="142.1875" xlink:href="#DejaVuSans-71"/>
      <use x="219.677734" xlink:href="#DejaVuSans-68"/>
      <use x="296.679688" xlink:href="#DejaVuSans-45"/>
      <use x="332.763672" xlink:href="#DejaVuSans-77"/>
      <use x="419.042969" xlink:href="#DejaVuSans-78"/>
      <use x="493.847656" xlink:href="#DejaVuSans-32"/>
      <use x="525.634766" xlink:href="#DejaVuSans-52"/>
      <use x="589.257812" xlink:href="#DejaVuSans-32"/>
      <use x="621.044922" xlink:href="#DejaVuSans-98"/>
      <use x="684.521484" xlink:href="#DejaVuSans-105"/>
      <use x="712.304688" xlink:href="#DejaVuSans-116"/>
      <use x="751.513672" xlink:href="#DejaVuSans-115"/>
     </g>
    </g>
    <g id="line2d_20">
     <path d="M 332.639062 289.060312 
L 352.639062 289.060312 
" style="fill:none;stroke:#d62728;stroke-linecap:square;stroke-width:1.5;"/>
    </g>
    <g id="line2d_21"/>
    <g id="text_15">
     <!-- QSGD-MN 2 bits -->
     <g transform="translate(360.639062 292.560312)scale(0.1 -0.1)">
      <use xlink:href="#DejaVuSans-81"/>
      <use x="78.710938" xlink:href="#DejaVuSans-83"/>
      <use x="142.1875" xlink:href="#DejaVuSans-71"/>
      <use x="219.677734" xlink:href="#DejaVuSans-68"/>
      <use x="296.679688" xlink:href="#DejaVuSans-45"/>
      <use x="332.763672" xlink:href="#DejaVuSans-77"/>
      <use x="419.042969" xlink:href="#DejaVuSans-78"/>
      <use x="493.847656" xlink:href="#DejaVuSans-32"/>
      <use x="525.634766" xlink:href="#DejaVuSans-50"/>
      <use x="589.257812" xlink:href="#DejaVuSans-32"/>
      <use x="621.044922" xlink:href="#DejaVuSans-98"/>
      <use x="684.521484" xlink:href="#DejaVuSans-105"/>
      <use x="712.304688" xlink:href="#DejaVuSans-116"/>
      <use x="751.513672" xlink:href="#DejaVuSans-115"/>
     </g>
    </g>
   </g>
  </g>
 </g>
 <defs>
  <clipPath id="p98c9503bed">
   <rect height="292.84" width="405.43" x="44.57" y="10.8"/>
  </clipPath>
 </defs>
</svg>
