<?xml version="1.0" encoding="utf-8" standalone="no"?>
<!DOCTYPE svg PUBLIC "-//W3C//DTD SVG 1.1//EN"
  "http://www.w3.org/Graphics/SVG/1.1/DTD/svg11.dtd">
<!-- Created with matplotlib (https://matplotlib.org/) -->
<svg height="345.6pt" version="1.1" viewBox="0 0 460.8 345.6" width="460.8pt" xmlns="http://www.w3.org/2000/svg" xmlns:xlink="http://www.w3.org/1999/xlink">
 <metadata>
  <rdf:RDF xmlns:cc="http://creativecommons.org/ns#" xmlns:dc="http://purl.org/dc/elements/1.1/" xmlns:rdf="http://www.w3.org/1999/02/22-rdf-syntax-ns#">
   <cc:Work>
    <dc:type rdf:resource="http://purl.org/dc/dcmitype/StillImage"/>
    <dc:date>2021-06-10T08:57:22.764703</dc:date>
    <dc:format>image/svg+xml</dc:format>
    <dc:creator>
     <cc:Agent>
      <dc:title>Matplotlib v3.3.1, https://matplotlib.org/</dc:title>
     </cc:Agent>
    </dc:creator>
   </cc:Work>
  </rdf:RDF>
 </metadata>
 <defs>
  <style type="text/css">*{stroke-linecap:butt;stroke-linejoin:round;}</style>
 </defs>
 <g id="figure_1">
  <g id="patch_1">
   <path d="M 0 345.6 
L 460.8 345.6 
L 460.8 0 
L 0 0 
z
" style="fill:#ffffff;"/>
  </g>
  <g id="axes_1">
   <g id="patch_2">
    <path d="M 44.57 303.64 
L 450 303.64 
L 450 10.8 
L 44.57 10.8 
z
" style="fill:#ffffff;"/>
   </g>
   <g id="PolyCollection_1">
    <path clip-path="url(#p1b47c40c63)" d="M 62.998636 262.098415 
L 62.998636 285.524456 
L 65.472279 270.145466 
L 67.945921 253.913897 
L 70.419564 237.309633 
L 72.893206 216.375079 
L 75.366849 200.299982 
L 77.840491 179.107389 
L 80.314134 169.935184 
L 82.787776 153.048383 
L 85.261419 143.94608 
L 87.735061 114.023873 
L 90.208703 129.50361 
L 92.682346 122.897457 
L 95.155988 99.103932 
L 97.629631 102.946061 
L 100.103273 97.187306 
L 102.576916 87.497186 
L 105.050558 86.473049 
L 107.524201 74.559252 
L 109.997843 85.948067 
L 112.471486 82.340223 
L 114.945128 91.109565 
L 117.418771 93.367084 
L 119.892413 77.377072 
L 122.366056 82.823286 
L 124.839698 80.14214 
L 127.31334 74.346363 
L 129.786983 71.151335 
L 132.260625 75.646244 
L 134.734268 67.556883 
L 137.20791 69.120596 
L 139.681553 61.638618 
L 142.155195 71.023212 
L 144.628838 64.259306 
L 147.10248 62.336188 
L 149.576123 68.492734 
L 152.049765 65.475974 
L 154.523408 64.652519 
L 156.99705 64.002265 
L 159.470692 75.665545 
L 161.944335 53.543814 
L 164.417977 57.131754 
L 166.89162 62.890014 
L 169.365262 57.927861 
L 171.838905 63.375702 
L 174.312547 70.673046 
L 176.78619 60.198112 
L 179.259832 59.633721 
L 181.733475 60.407271 
L 184.207117 60.968284 
L 186.68076 57.735427 
L 189.154402 58.476205 
L 191.628045 65.358495 
L 194.101687 60.161867 
L 196.575329 57.714934 
L 199.048972 65.01177 
L 201.522614 58.569147 
L 203.996257 49.598126 
L 206.469899 53.956715 
L 208.943542 53.958225 
L 211.417184 56.503692 
L 213.890827 56.106467 
L 216.364469 48.006712 
L 218.838112 53.580474 
L 221.311754 53.953659 
L 223.785397 55.526429 
L 226.259039 55.018874 
L 228.732682 52.243945 
L 231.206324 51.672986 
L 233.679966 53.2333 
L 236.153609 52.863281 
L 238.627251 55.011631 
L 241.100894 46.52627 
L 243.574536 49.045336 
L 246.048179 46.345493 
L 248.521821 47.120951 
L 250.995464 45.72002 
L 253.469106 47.773734 
L 255.942749 44.688506 
L 258.416391 42.533765 
L 260.890034 44.099994 
L 263.363676 48.627027 
L 265.837318 47.672679 
L 268.310961 43.606507 
L 270.784603 48.306404 
L 273.258246 53.20837 
L 275.731888 43.029158 
L 278.205531 39.630367 
L 280.679173 43.375455 
L 283.152816 44.283195 
L 285.626458 43.795051 
L 288.100101 47.271126 
L 290.573743 44.095458 
L 293.047386 40.794078 
L 295.521028 37.07095 
L 297.994671 44.561381 
L 300.468313 40.771574 
L 302.941955 42.036566 
L 305.415598 38.498039 
L 307.88924 38.684564 
L 310.362883 37.756112 
L 312.836525 36.753955 
L 315.310168 36.456682 
L 317.78381 38.576437 
L 320.257453 40.171086 
L 322.731095 38.673206 
L 325.204738 36.440342 
L 327.67838 38.420732 
L 330.152023 40.093136 
L 332.625665 39.376669 
L 335.099308 33.875028 
L 337.57295 40.153957 
L 340.046592 34.75439 
L 342.520235 34.267499 
L 344.993877 33.319486 
L 347.46752 33.786662 
L 349.941162 33.508577 
L 352.414805 35.354841 
L 354.888447 30.803507 
L 357.36209 35.338144 
L 359.835732 32.632524 
L 362.309375 33.001301 
L 364.783017 31.465212 
L 367.25666 31.763889 
L 369.730302 31.948047 
L 372.203944 31.071466 
L 374.677587 31.08206 
L 377.151229 31.274243 
L 379.624872 30.39739 
L 382.098514 31.533201 
L 384.572157 29.475959 
L 387.045799 29.844133 
L 389.519442 30.240218 
L 391.993084 28.45555 
L 394.466727 29.017536 
L 396.940369 29.843089 
L 399.414012 28.646194 
L 401.887654 29.280923 
L 404.361297 29.021006 
L 406.834939 30.38152 
L 409.308581 30.110241 
L 411.782224 29.315016 
L 414.255866 29.232957 
L 416.729509 29.589911 
L 419.203151 29.241307 
L 421.676794 28.752656 
L 424.150436 29.772954 
L 426.624079 28.954283 
L 429.097721 28.043291 
L 431.571364 28.832986 
L 431.571364 25.516179 
L 431.571364 25.516179 
L 429.097721 24.110909 
L 426.624079 25.038942 
L 424.150436 25.703354 
L 421.676794 24.350719 
L 419.203151 25.582445 
L 416.729509 25.293164 
L 414.255866 24.641621 
L 411.782224 25.271442 
L 409.308581 25.959301 
L 406.834939 25.569375 
L 404.361297 25.446805 
L 401.887654 24.415685 
L 399.414012 24.516504 
L 396.940369 25.63322 
L 394.466727 26.102833 
L 391.993084 25.419028 
L 389.519442 26.956468 
L 387.045799 25.928792 
L 384.572157 24.813883 
L 382.098514 24.595665 
L 379.624872 25.375535 
L 377.151229 25.447856 
L 374.677587 26.055302 
L 372.203944 27.133717 
L 369.730302 27.265633 
L 367.25666 26.975204 
L 364.783017 29.172228 
L 362.309375 29.94975 
L 359.835732 28.06424 
L 357.36209 29.333284 
L 354.888447 29.2407 
L 352.414805 30.384408 
L 349.941162 29.383151 
L 347.46752 31.65597 
L 344.993877 30.106152 
L 342.520235 31.234457 
L 340.046592 32.112003 
L 337.57295 32.882065 
L 335.099308 31.033694 
L 332.625665 32.650855 
L 330.152023 34.42597 
L 327.67838 31.174535 
L 325.204738 31.375225 
L 322.731095 34.24417 
L 320.257453 35.475164 
L 317.78381 33.332441 
L 315.310168 34.265729 
L 312.836525 34.798983 
L 310.362883 31.127275 
L 307.88924 33.758224 
L 305.415598 31.037905 
L 302.941955 33.72833 
L 300.468313 35.823849 
L 297.994671 39.508786 
L 295.521028 34.185371 
L 293.047386 36.928489 
L 290.573743 34.398312 
L 288.100101 42.909346 
L 285.626458 39.088648 
L 283.152816 34.744486 
L 280.679173 38.02516 
L 278.205531 36.727763 
L 275.731888 39.261307 
L 273.258246 42.370527 
L 270.784603 41.577451 
L 268.310961 38.150048 
L 265.837318 38.295835 
L 263.363676 40.011037 
L 260.890034 40.563406 
L 258.416391 36.849856 
L 255.942749 40.44948 
L 253.469106 39.559216 
L 250.995464 40.604434 
L 248.521821 42.169671 
L 246.048179 38.436553 
L 243.574536 39.711375 
L 241.100894 39.56089 
L 238.627251 46.440278 
L 236.153609 42.419 
L 233.679966 40.26928 
L 231.206324 40.999067 
L 228.732682 44.52142 
L 226.259039 46.255065 
L 223.785397 45.272923 
L 221.311754 46.489753 
L 218.838112 45.023915 
L 216.364469 41.877143 
L 213.890827 45.760705 
L 211.417184 49.516116 
L 208.943542 48.798798 
L 206.469899 44.647673 
L 203.996257 41.887459 
L 201.522614 41.043738 
L 199.048972 54.65241 
L 196.575329 47.17773 
L 194.101687 49.595313 
L 191.628045 49.322523 
L 189.154402 48.077513 
L 186.68076 47.809794 
L 184.207117 47.543105 
L 181.733475 51.604196 
L 179.259832 46.326764 
L 176.78619 50.152301 
L 174.312547 47.389403 
L 171.838905 50.296819 
L 169.365262 51.651349 
L 166.89162 50.189273 
L 164.417977 49.303318 
L 161.944335 49.509826 
L 159.470692 59.363384 
L 156.99705 50.44146 
L 154.523408 47.892858 
L 152.049765 51.459332 
L 149.576123 52.951147 
L 147.10248 53.116033 
L 144.628838 56.176077 
L 142.155195 62.99722 
L 139.681553 56.364508 
L 137.20791 56.11998 
L 134.734268 51.336094 
L 132.260625 61.696296 
L 129.786983 57.945258 
L 127.31334 67.089489 
L 124.839698 67.166724 
L 122.366056 62.349937 
L 119.892413 61.863816 
L 117.418771 57.797797 
L 114.945128 60.885844 
L 112.471486 65.027964 
L 109.997843 77.971336 
L 107.524201 63.495168 
L 105.050558 72.641163 
L 102.576916 75.23575 
L 100.103273 72.664434 
L 97.629631 86.185769 
L 95.155988 79.112401 
L 92.682346 91.98071 
L 90.208703 96.764641 
L 87.735061 105.422191 
L 85.261419 113.22964 
L 82.787776 115.250466 
L 80.314134 139.919676 
L 77.840491 150.235193 
L 75.366849 172.230003 
L 72.893206 188.842075 
L 70.419564 215.158575 
L 67.945921 234.830543 
L 65.472279 244.493619 
L 62.998636 262.098415 
z
" style="fill:#1f77b4;fill-opacity:0.25;"/>
   </g>
   <g id="PolyCollection_2">
    <path clip-path="url(#p1b47c40c63)" d="M 62.998636 257.748179 
L 62.998636 285.366117 
L 65.472279 286.641843 
L 67.945921 275.105825 
L 70.419564 256.113528 
L 72.893206 236.043662 
L 75.366849 214.899473 
L 77.840491 205.709083 
L 80.314134 201.257363 
L 82.787776 189.111956 
L 85.261419 177.260095 
L 87.735061 162.748222 
L 90.208703 148.342377 
L 92.682346 148.336042 
L 95.155988 143.791705 
L 97.629631 146.989243 
L 100.103273 117.755794 
L 102.576916 108.213776 
L 105.050558 102.808185 
L 107.524201 118.412841 
L 109.997843 93.346453 
L 112.471486 101.961842 
L 114.945128 91.811836 
L 117.418771 85.411939 
L 119.892413 88.883451 
L 122.366056 76.657057 
L 124.839698 75.902476 
L 127.31334 78.940301 
L 129.786983 73.837625 
L 132.260625 76.911489 
L 134.734268 68.350334 
L 137.20791 69.236044 
L 139.681553 73.488108 
L 142.155195 68.716736 
L 144.628838 72.780571 
L 147.10248 62.852707 
L 149.576123 69.097599 
L 152.049765 70.288988 
L 154.523408 62.502716 
L 156.99705 59.397119 
L 159.470692 63.235503 
L 161.944335 61.200112 
L 164.417977 63.043269 
L 166.89162 60.881139 
L 169.365262 65.351207 
L 171.838905 71.468476 
L 174.312547 61.804569 
L 176.78619 58.935786 
L 179.259832 56.104931 
L 181.733475 53.657604 
L 184.207117 64.523155 
L 186.68076 57.434434 
L 189.154402 57.436144 
L 191.628045 60.858805 
L 194.101687 58.319425 
L 196.575329 59.388606 
L 199.048972 56.618655 
L 201.522614 52.616175 
L 203.996257 50.946816 
L 206.469899 56.862853 
L 208.943542 57.25208 
L 211.417184 57.832396 
L 213.890827 58.135166 
L 216.364469 53.887424 
L 218.838112 65.078086 
L 221.311754 55.077017 
L 223.785397 54.020787 
L 226.259039 55.890013 
L 228.732682 59.29617 
L 231.206324 56.851959 
L 233.679966 52.091469 
L 236.153609 53.511397 
L 238.627251 54.352436 
L 241.100894 48.244001 
L 243.574536 52.811117 
L 246.048179 49.306657 
L 248.521821 47.041154 
L 250.995464 52.743627 
L 253.469106 55.700601 
L 255.942749 55.385702 
L 258.416391 46.188284 
L 260.890034 45.786235 
L 263.363676 49.079418 
L 265.837318 43.256566 
L 268.310961 48.520578 
L 270.784603 53.015006 
L 273.258246 51.052678 
L 275.731888 48.665699 
L 278.205531 46.371657 
L 280.679173 42.026169 
L 283.152816 44.339786 
L 285.626458 47.376727 
L 288.100101 47.243217 
L 290.573743 42.318036 
L 293.047386 47.021088 
L 295.521028 45.424787 
L 297.994671 42.920944 
L 300.468313 41.725323 
L 302.941955 41.010227 
L 305.415598 39.481871 
L 307.88924 40.792954 
L 310.362883 41.982455 
L 312.836525 42.322279 
L 315.310168 40.609004 
L 317.78381 42.435739 
L 320.257453 43.351198 
L 322.731095 38.2202 
L 325.204738 40.897941 
L 327.67838 35.648844 
L 330.152023 40.41058 
L 332.625665 40.299845 
L 335.099308 38.932418 
L 337.57295 37.127096 
L 340.046592 34.7633 
L 342.520235 34.289712 
L 344.993877 35.267829 
L 347.46752 36.306521 
L 349.941162 34.601059 
L 352.414805 35.882669 
L 354.888447 35.59924 
L 357.36209 36.61975 
L 359.835732 34.340262 
L 362.309375 35.411136 
L 364.783017 33.9225 
L 367.25666 33.468554 
L 369.730302 33.048375 
L 372.203944 33.841031 
L 374.677587 32.712391 
L 377.151229 32.490634 
L 379.624872 31.320417 
L 382.098514 31.858273 
L 384.572157 31.867909 
L 387.045799 32.121217 
L 389.519442 31.929477 
L 391.993084 30.212914 
L 394.466727 31.501476 
L 396.940369 32.37682 
L 399.414012 31.582475 
L 401.887654 30.48989 
L 404.361297 31.61971 
L 406.834939 31.885142 
L 409.308581 30.685609 
L 411.782224 31.231432 
L 414.255866 31.676226 
L 416.729509 31.546782 
L 419.203151 31.434391 
L 421.676794 31.765342 
L 424.150436 32.040998 
L 426.624079 32.493473 
L 429.097721 30.282488 
L 431.571364 32.330766 
L 431.571364 27.535471 
L 431.571364 27.535471 
L 429.097721 27.744724 
L 426.624079 26.898177 
L 424.150436 27.409975 
L 421.676794 28.278865 
L 419.203151 27.304702 
L 416.729509 28.438102 
L 414.255866 27.240838 
L 411.782224 27.744954 
L 409.308581 27.460251 
L 406.834939 27.684478 
L 404.361297 27.356676 
L 401.887654 27.003412 
L 399.414012 27.156618 
L 396.940369 26.599566 
L 394.466727 27.237617 
L 391.993084 26.568509 
L 389.519442 27.046909 
L 387.045799 26.617876 
L 384.572157 29.006825 
L 382.098514 28.779168 
L 379.624872 27.833939 
L 377.151229 29.689214 
L 374.677587 29.764074 
L 372.203944 29.821901 
L 369.730302 28.538239 
L 367.25666 29.601144 
L 364.783017 31.994719 
L 362.309375 30.26879 
L 359.835732 29.263347 
L 357.36209 31.43311 
L 354.888447 28.478955 
L 352.414805 30.805754 
L 349.941162 29.417813 
L 347.46752 30.381902 
L 344.993877 31.064653 
L 342.520235 28.305399 
L 340.046592 32.696326 
L 337.57295 33.891932 
L 335.099308 33.035784 
L 332.625665 33.032794 
L 330.152023 35.294993 
L 327.67838 30.268376 
L 325.204738 34.748309 
L 322.731095 36.061612 
L 320.257453 40.540998 
L 317.78381 35.524122 
L 315.310168 36.816946 
L 312.836525 38.129162 
L 310.362883 33.960411 
L 307.88924 35.743146 
L 305.415598 34.147385 
L 302.941955 35.110609 
L 300.468313 38.726118 
L 297.994671 37.411851 
L 295.521028 35.738535 
L 293.047386 38.354192 
L 290.573743 36.472352 
L 288.100101 39.615147 
L 285.626458 39.066374 
L 283.152816 36.052332 
L 280.679173 37.001512 
L 278.205531 37.817155 
L 275.731888 40.268982 
L 273.258246 39.187117 
L 270.784603 45.767352 
L 268.310961 42.193804 
L 265.837318 40.45766 
L 263.363676 42.762108 
L 260.890034 38.877165 
L 258.416391 38.415792 
L 255.942749 41.557632 
L 253.469106 38.454535 
L 250.995464 43.665797 
L 248.521821 43.139318 
L 246.048179 44.373893 
L 243.574536 44.844098 
L 241.100894 44.487375 
L 238.627251 49.353761 
L 236.153609 45.211638 
L 233.679966 41.470434 
L 231.206324 48.989879 
L 228.732682 50.105069 
L 226.259039 46.86701 
L 223.785397 43.693751 
L 221.311754 47.9173 
L 218.838112 45.86556 
L 216.364469 49.047569 
L 213.890827 46.520205 
L 211.417184 55.068921 
L 208.943542 47.759231 
L 206.469899 46.546728 
L 203.996257 42.021854 
L 201.522614 44.50513 
L 199.048972 48.689272 
L 196.575329 50.84316 
L 194.101687 47.463089 
L 191.628045 49.491608 
L 189.154402 48.1684 
L 186.68076 51.017632 
L 184.207117 56.149521 
L 181.733475 47.141749 
L 179.259832 49.202996 
L 176.78619 50.76207 
L 174.312547 52.164569 
L 171.838905 53.000895 
L 169.365262 51.584098 
L 166.89162 52.791382 
L 164.417977 48.671581 
L 161.944335 52.116468 
L 159.470692 56.369353 
L 156.99705 52.139761 
L 154.523408 54.313943 
L 152.049765 56.790611 
L 149.576123 59.22779 
L 147.10248 54.735156 
L 144.628838 48.66331 
L 142.155195 56.286546 
L 139.681553 62.371348 
L 137.20791 60.453783 
L 134.734268 55.169864 
L 132.260625 58.176764 
L 129.786983 57.157315 
L 127.31334 70.26691 
L 124.839698 67.313077 
L 122.366056 71.600981 
L 119.892413 75.51054 
L 117.418771 71.685278 
L 114.945128 72.463507 
L 112.471486 77.381634 
L 109.997843 72.234005 
L 107.524201 85.312535 
L 105.050558 75.526794 
L 102.576916 86.019863 
L 100.103273 83.062737 
L 97.629631 107.813543 
L 95.155988 98.523514 
L 92.682346 110.144791 
L 90.208703 126.393056 
L 87.735061 137.140314 
L 85.261419 141.344959 
L 82.787776 162.684516 
L 80.314134 176.493077 
L 77.840491 176.312639 
L 75.366849 184.889594 
L 72.893206 204.322581 
L 70.419564 216.524621 
L 67.945921 235.736565 
L 65.472279 233.929578 
L 62.998636 257.748179 
z
" style="fill:#ff7f0e;fill-opacity:0.25;"/>
   </g>
   <g id="PolyCollection_3">
    <path clip-path="url(#p1b47c40c63)" d="M 62.998636 237.949443 
L 62.998636 271.469187 
L 65.472279 250.911099 
L 67.945921 233.529802 
L 70.419564 205.159046 
L 72.893206 180.345363 
L 75.366849 158.338695 
L 77.840491 148.679481 
L 80.314134 139.234144 
L 82.787776 125.488607 
L 85.261419 110.958703 
L 87.735061 94.909114 
L 90.208703 94.858021 
L 92.682346 90.728957 
L 95.155988 83.267275 
L 97.629631 79.93083 
L 100.103273 75.456744 
L 102.576916 71.070193 
L 105.050558 70.953772 
L 107.524201 71.253051 
L 109.997843 80.220962 
L 112.471486 71.061349 
L 114.945128 70.403873 
L 117.418771 77.361129 
L 119.892413 66.744436 
L 122.366056 74.045815 
L 124.839698 82.522905 
L 127.31334 74.732543 
L 129.786983 69.02419 
L 132.260625 82.908704 
L 134.734268 56.747083 
L 137.20791 67.476884 
L 139.681553 66.846361 
L 142.155195 61.423012 
L 144.628838 68.829021 
L 147.10248 61.813855 
L 149.576123 79.952482 
L 152.049765 67.058173 
L 154.523408 69.694995 
L 156.99705 65.895899 
L 159.470692 71.108375 
L 161.944335 65.248003 
L 164.417977 56.948203 
L 166.89162 57.027533 
L 169.365262 63.316555 
L 171.838905 62.12166 
L 174.312547 66.150303 
L 176.78619 67.80875 
L 179.259832 61.089647 
L 181.733475 57.455648 
L 184.207117 57.637998 
L 186.68076 49.03479 
L 189.154402 60.013903 
L 191.628045 65.595548 
L 194.101687 58.820513 
L 196.575329 64.242832 
L 199.048972 60.478739 
L 201.522614 62.177744 
L 203.996257 55.811551 
L 206.469899 53.142916 
L 208.943542 56.507206 
L 211.417184 62.451561 
L 213.890827 55.422754 
L 216.364469 58.728279 
L 218.838112 54.080341 
L 221.311754 54.043754 
L 223.785397 52.392335 
L 226.259039 54.058004 
L 228.732682 56.003503 
L 231.206324 54.337307 
L 233.679966 51.342685 
L 236.153609 56.520374 
L 238.627251 60.422455 
L 241.100894 50.271223 
L 243.574536 53.240075 
L 246.048179 48.140314 
L 248.521821 51.552511 
L 250.995464 56.491485 
L 253.469106 55.468856 
L 255.942749 55.868965 
L 258.416391 45.237821 
L 260.890034 47.354122 
L 263.363676 50.274065 
L 265.837318 46.076816 
L 268.310961 44.422683 
L 270.784603 48.858446 
L 273.258246 51.810089 
L 275.731888 49.11422 
L 278.205531 44.440807 
L 280.679173 47.798266 
L 283.152816 40.604711 
L 285.626458 50.75599 
L 288.100101 51.108693 
L 290.573743 45.548105 
L 293.047386 43.179427 
L 295.521028 42.013296 
L 297.994671 46.812731 
L 300.468313 45.666232 
L 302.941955 48.380312 
L 305.415598 44.575076 
L 307.88924 42.975792 
L 310.362883 42.087195 
L 312.836525 44.006072 
L 315.310168 40.57718 
L 317.78381 43.041288 
L 320.257453 40.68744 
L 322.731095 42.750333 
L 325.204738 40.767605 
L 327.67838 37.723283 
L 330.152023 42.314215 
L 332.625665 42.519038 
L 335.099308 38.961131 
L 337.57295 36.84655 
L 340.046592 40.720264 
L 342.520235 38.221473 
L 344.993877 39.358265 
L 347.46752 37.96524 
L 349.941162 35.927532 
L 352.414805 39.506843 
L 354.888447 35.390318 
L 357.36209 36.904231 
L 359.835732 35.079828 
L 362.309375 32.59573 
L 364.783017 32.443722 
L 367.25666 31.394816 
L 369.730302 35.454976 
L 372.203944 32.89711 
L 374.677587 34.976188 
L 377.151229 34.188686 
L 379.624872 34.255037 
L 382.098514 34.727502 
L 384.572157 33.140413 
L 387.045799 32.908533 
L 389.519442 31.278214 
L 391.993084 33.389483 
L 394.466727 34.156836 
L 396.940369 34.043011 
L 399.414012 32.501057 
L 401.887654 32.88342 
L 404.361297 32.639065 
L 406.834939 33.06619 
L 409.308581 33.27975 
L 411.782224 32.094515 
L 414.255866 31.847859 
L 416.729509 33.033249 
L 419.203151 32.747652 
L 421.676794 32.196163 
L 424.150436 32.804945 
L 426.624079 32.873265 
L 429.097721 33.165005 
L 431.571364 32.036597 
L 431.571364 26.76182 
L 431.571364 26.76182 
L 429.097721 26.048675 
L 426.624079 26.103121 
L 424.150436 27.061292 
L 421.676794 26.661577 
L 419.203151 25.872794 
L 416.729509 26.239754 
L 414.255866 26.357323 
L 411.782224 27.593752 
L 409.308581 27.120397 
L 406.834939 27.511927 
L 404.361297 26.752585 
L 401.887654 27.576051 
L 399.414012 27.009239 
L 396.940369 27.12834 
L 394.466727 27.785718 
L 391.993084 26.892018 
L 389.519442 28.113436 
L 387.045799 29.093345 
L 384.572157 26.251237 
L 382.098514 29.528663 
L 379.624872 27.984134 
L 377.151229 25.974168 
L 374.677587 27.440954 
L 372.203944 28.452211 
L 369.730302 31.589387 
L 367.25666 27.878187 
L 364.783017 29.973419 
L 362.309375 29.940058 
L 359.835732 31.311978 
L 357.36209 31.207953 
L 354.888447 32.187955 
L 352.414805 31.215568 
L 349.941162 29.218483 
L 347.46752 35.130105 
L 344.993877 33.796404 
L 342.520235 35.585753 
L 340.046592 33.205608 
L 337.57295 33.341951 
L 335.099308 30.040902 
L 332.625665 36.686613 
L 330.152023 38.255873 
L 327.67838 31.575368 
L 325.204738 35.353231 
L 322.731095 34.912911 
L 320.257453 37.213097 
L 317.78381 35.749099 
L 315.310168 34.297866 
L 312.836525 38.0471 
L 310.362883 35.872666 
L 307.88924 37.47565 
L 305.415598 37.893359 
L 302.941955 38.359405 
L 300.468313 36.802203 
L 297.994671 39.333752 
L 295.521028 40.217846 
L 293.047386 38.814421 
L 290.573743 37.038977 
L 288.100101 44.351557 
L 285.626458 43.695763 
L 283.152816 38.482294 
L 280.679173 42.500853 
L 278.205531 37.968305 
L 275.731888 40.769635 
L 273.258246 47.209563 
L 270.784603 45.118721 
L 268.310961 43.088237 
L 265.837318 43.569746 
L 263.363676 46.4913 
L 260.890034 42.944996 
L 258.416391 40.374753 
L 255.942749 43.506627 
L 253.469106 43.906736 
L 250.995464 43.477341 
L 248.521821 43.136536 
L 246.048179 43.463918 
L 243.574536 48.923715 
L 241.100894 47.858578 
L 238.627251 49.690665 
L 236.153609 49.736728 
L 233.679966 43.642979 
L 231.206324 45.394225 
L 228.732682 46.93149 
L 226.259039 45.020971 
L 223.785397 44.788293 
L 221.311754 46.696275 
L 218.838112 44.998634 
L 216.364469 51.088223 
L 213.890827 47.69021 
L 211.417184 50.449756 
L 208.943542 47.317637 
L 206.469899 45.105532 
L 203.996257 45.462388 
L 201.522614 50.723573 
L 199.048972 47.67671 
L 196.575329 51.92127 
L 194.101687 52.538397 
L 191.628045 51.458405 
L 189.154402 51.997564 
L 186.68076 45.120347 
L 184.207117 52.593768 
L 181.733475 50.937094 
L 179.259832 50.684526 
L 176.78619 51.202872 
L 174.312547 50.191769 
L 171.838905 55.228909 
L 169.365262 56.288302 
L 166.89162 51.127916 
L 164.417977 45.27491 
L 161.944335 53.40768 
L 159.470692 52.589793 
L 156.99705 59.641293 
L 154.523408 56.96934 
L 152.049765 53.911121 
L 149.576123 58.339232 
L 147.10248 56.129947 
L 144.628838 54.7505 
L 142.155195 56.224174 
L 139.681553 59.165418 
L 137.20791 60.373919 
L 134.734268 47.611671 
L 132.260625 57.222034 
L 129.786983 55.919769 
L 127.31334 67.711805 
L 124.839698 63.421521 
L 122.366056 65.669659 
L 119.892413 54.758768 
L 117.418771 62.591639 
L 114.945128 61.540241 
L 112.471486 58.984419 
L 109.997843 64.714967 
L 107.524201 60.394446 
L 105.050558 66.092151 
L 102.576916 65.08588 
L 100.103273 65.979107 
L 97.629631 69.276381 
L 95.155988 70.745128 
L 92.682346 77.461729 
L 90.208703 75.942892 
L 87.735061 84.908949 
L 85.261419 84.105463 
L 82.787776 99.177913 
L 80.314134 104.94976 
L 77.840491 108.496238 
L 75.366849 122.566367 
L 72.893206 146.090375 
L 70.419564 155.17999 
L 67.945921 177.886644 
L 65.472279 195.38748 
L 62.998636 237.949443 
z
" style="fill:#2ca02c;fill-opacity:0.25;"/>
   </g>
   <g id="PolyCollection_4">
    <path clip-path="url(#p1b47c40c63)" d="M 62.998636 277.60813 
L 62.998636 285.20152 
L 65.472279 283.253728 
L 67.945921 286.018345 
L 70.419564 290.329091 
L 72.893206 271.12096 
L 75.366849 268.791715 
L 77.840491 270.032177 
L 80.314134 258.698072 
L 82.787776 250.120849 
L 85.261419 236.926475 
L 87.735061 229.321148 
L 90.208703 222.87269 
L 92.682346 207.284166 
L 95.155988 204.795349 
L 97.629631 207.737295 
L 100.103273 206.702411 
L 102.576916 204.164682 
L 105.050558 197.022685 
L 107.524201 185.003701 
L 109.997843 179.936075 
L 112.471486 180.199626 
L 114.945128 171.934734 
L 117.418771 173.058447 
L 119.892413 164.455252 
L 122.366056 162.438894 
L 124.839698 152.569666 
L 127.31334 145.557205 
L 129.786983 152.572541 
L 132.260625 144.729349 
L 134.734268 146.293844 
L 137.20791 142.56258 
L 139.681553 133.85187 
L 142.155195 139.089214 
L 144.628838 121.701474 
L 147.10248 133.256949 
L 149.576123 106.630262 
L 152.049765 117.535226 
L 154.523408 105.65273 
L 156.99705 108.646875 
L 159.470692 95.711159 
L 161.944335 99.012339 
L 164.417977 91.252611 
L 166.89162 94.951259 
L 169.365262 83.630609 
L 171.838905 97.601663 
L 174.312547 108.436553 
L 176.78619 100.958776 
L 179.259832 98.277861 
L 181.733475 96.758254 
L 184.207117 94.563697 
L 186.68076 90.336459 
L 189.154402 86.612611 
L 191.628045 91.156837 
L 194.101687 86.544164 
L 196.575329 87.4461 
L 199.048972 89.709895 
L 201.522614 104.814013 
L 203.996257 82.587488 
L 206.469899 75.677163 
L 208.943542 87.439385 
L 211.417184 89.436305 
L 213.890827 89.730832 
L 216.364469 81.48716 
L 218.838112 72.636771 
L 221.311754 79.470064 
L 223.785397 82.738896 
L 226.259039 78.472321 
L 228.732682 79.166243 
L 231.206324 81.157401 
L 233.679966 81.149377 
L 236.153609 79.584188 
L 238.627251 80.091971 
L 241.100894 72.027593 
L 243.574536 71.984471 
L 246.048179 72.225723 
L 248.521821 75.58709 
L 250.995464 73.292972 
L 253.469106 74.637736 
L 255.942749 75.930495 
L 258.416391 64.583316 
L 260.890034 65.321681 
L 263.363676 67.174342 
L 265.837318 65.186861 
L 268.310961 71.730331 
L 270.784603 68.96663 
L 273.258246 67.373387 
L 275.731888 67.096234 
L 278.205531 65.423485 
L 280.679173 68.649307 
L 283.152816 65.700108 
L 285.626458 59.895951 
L 288.100101 65.611406 
L 290.573743 61.691976 
L 293.047386 63.173621 
L 295.521028 59.628935 
L 297.994671 66.031484 
L 300.468313 54.787378 
L 302.941955 58.029205 
L 305.415598 64.789691 
L 307.88924 61.952118 
L 310.362883 56.656828 
L 312.836525 56.158221 
L 315.310168 54.195629 
L 317.78381 58.181084 
L 320.257453 57.484251 
L 322.731095 57.134906 
L 325.204738 50.250528 
L 327.67838 51.945172 
L 330.152023 53.965427 
L 332.625665 55.731814 
L 335.099308 54.859454 
L 337.57295 53.354088 
L 340.046592 56.217219 
L 342.520235 51.531875 
L 344.993877 51.956317 
L 347.46752 51.252444 
L 349.941162 46.39725 
L 352.414805 46.526938 
L 354.888447 44.131473 
L 357.36209 45.051013 
L 359.835732 43.001556 
L 362.309375 43.638621 
L 364.783017 43.984882 
L 367.25666 45.487382 
L 369.730302 42.995925 
L 372.203944 44.000338 
L 374.677587 44.961831 
L 377.151229 42.014282 
L 379.624872 41.727843 
L 382.098514 41.68192 
L 384.572157 44.55388 
L 387.045799 41.655171 
L 389.519442 40.850339 
L 391.993084 39.199739 
L 394.466727 40.178535 
L 396.940369 41.823439 
L 399.414012 40.410989 
L 401.887654 40.651218 
L 404.361297 39.651936 
L 406.834939 40.99233 
L 409.308581 41.093479 
L 411.782224 41.089118 
L 414.255866 42.149057 
L 416.729509 41.507029 
L 419.203151 40.428402 
L 421.676794 40.792821 
L 424.150436 40.227967 
L 426.624079 40.336156 
L 429.097721 41.08747 
L 431.571364 39.900554 
L 431.571364 35.152462 
L 431.571364 35.152462 
L 429.097721 36.575774 
L 426.624079 35.844003 
L 424.150436 36.308133 
L 421.676794 35.802602 
L 419.203151 36.878902 
L 416.729509 36.393508 
L 414.255866 35.75148 
L 411.782224 35.328335 
L 409.308581 35.739238 
L 406.834939 36.018357 
L 404.361297 36.64687 
L 401.887654 37.545936 
L 399.414012 36.184434 
L 396.940369 37.441535 
L 394.466727 36.179595 
L 391.993084 35.141397 
L 389.519442 38.295988 
L 387.045799 39.33018 
L 384.572157 39.160346 
L 382.098514 39.778019 
L 379.624872 38.011719 
L 377.151229 39.920243 
L 374.677587 41.184652 
L 372.203944 39.120654 
L 369.730302 39.591157 
L 367.25666 38.464138 
L 364.783017 40.975135 
L 362.309375 41.202749 
L 359.835732 40.949963 
L 357.36209 41.748028 
L 354.888447 42.489598 
L 352.414805 41.755186 
L 349.941162 44.079839 
L 347.46752 41.538256 
L 344.993877 45.698898 
L 342.520235 46.47928 
L 340.046592 50.277176 
L 337.57295 46.555414 
L 335.099308 49.4993 
L 332.625665 51.949048 
L 330.152023 48.13904 
L 327.67838 46.243953 
L 325.204738 47.10807 
L 322.731095 45.85941 
L 320.257453 49.781347 
L 317.78381 47.838724 
L 315.310168 47.07831 
L 312.836525 51.522641 
L 310.362883 52.447795 
L 307.88924 54.923865 
L 305.415598 53.628699 
L 302.941955 54.219555 
L 300.468313 52.418897 
L 297.994671 57.548037 
L 295.521028 50.780801 
L 293.047386 52.871834 
L 290.573743 51.802575 
L 288.100101 58.146085 
L 285.626458 51.166342 
L 283.152816 53.548808 
L 280.679173 64.184658 
L 278.205531 56.317012 
L 275.731888 57.907048 
L 273.258246 59.943506 
L 270.784603 61.968988 
L 268.310961 57.544232 
L 265.837318 54.951906 
L 263.363676 60.261198 
L 260.890034 57.249344 
L 258.416391 54.724924 
L 255.942749 58.979787 
L 253.469106 62.230217 
L 250.995464 66.125886 
L 248.521821 69.526809 
L 246.048179 66.540577 
L 243.574536 62.510548 
L 241.100894 62.942013 
L 238.627251 66.267719 
L 236.153609 68.67385 
L 233.679966 62.184822 
L 231.206324 75.6432 
L 228.732682 62.447578 
L 226.259039 67.650076 
L 223.785397 69.078542 
L 221.311754 70.864291 
L 218.838112 63.044715 
L 216.364469 67.720051 
L 213.890827 70.569847 
L 211.417184 72.881368 
L 208.943542 74.581672 
L 206.469899 68.309593 
L 203.996257 70.891004 
L 201.522614 86.572105 
L 199.048972 68.57379 
L 196.575329 72.676609 
L 194.101687 71.442903 
L 191.628045 78.932195 
L 189.154402 73.332127 
L 186.68076 79.040694 
L 184.207117 81.872935 
L 181.733475 83.356426 
L 179.259832 85.811484 
L 176.78619 78.3847 
L 174.312547 68.237373 
L 171.838905 75.631508 
L 169.365262 80.763382 
L 166.89162 81.307403 
L 164.417977 79.251685 
L 161.944335 81.280311 
L 159.470692 75.860958 
L 156.99705 79.951045 
L 154.523408 79.207818 
L 152.049765 88.622407 
L 149.576123 81.315101 
L 147.10248 86.248439 
L 144.628838 87.066387 
L 142.155195 91.984228 
L 139.681553 90.45871 
L 137.20791 91.536354 
L 134.734268 103.110516 
L 132.260625 109.124263 
L 129.786983 119.789958 
L 127.31334 110.550694 
L 124.839698 127.326899 
L 122.366056 122.707788 
L 119.892413 120.51346 
L 117.418771 134.364155 
L 114.945128 147.411862 
L 112.471486 148.638708 
L 109.997843 163.139864 
L 107.524201 162.373182 
L 105.050558 161.922252 
L 102.576916 166.911881 
L 100.103273 175.556604 
L 97.629631 182.085448 
L 95.155988 182.654461 
L 92.682346 187.52174 
L 90.208703 190.679396 
L 87.735061 197.756663 
L 85.261419 210.083984 
L 82.787776 218.023555 
L 80.314134 228.177682 
L 77.840491 229.405298 
L 75.366849 236.103509 
L 72.893206 257.518437 
L 70.419564 268.446571 
L 67.945921 270.621676 
L 65.472279 272.199827 
L 62.998636 277.60813 
z
" style="fill:#d62728;fill-opacity:0.25;"/>
   </g>
   <g id="matplotlib.axis_1">
    <g id="xtick_1">
     <g id="line2d_1">
      <defs>
       <path d="M 0 0 
L 0 3.5 
" id="med7ec27f52" style="stroke:#000000;stroke-width:0.8;"/>
      </defs>
      <g>
       <use style="stroke:#000000;stroke-width:0.8;" x="62.998636" xlink:href="#med7ec27f52" y="303.64"/>
      </g>
     </g>
     <g id="text_1">
      <!-- 0 -->
      <g transform="translate(59.817386 318.238437)scale(0.1 -0.1)">
       <defs>
        <path d="M 31.78125 66.40625 
Q 24.171875 66.40625 20.328125 58.90625 
Q 16.5 51.421875 16.5 36.375 
Q 16.5 21.390625 20.328125 13.890625 
Q 24.171875 6.390625 31.78125 6.390625 
Q 39.453125 6.390625 43.28125 13.890625 
Q 47.125 21.390625 47.125 36.375 
Q 47.125 51.421875 43.28125 58.90625 
Q 39.453125 66.40625 31.78125 66.40625 
z
M 31.78125 74.21875 
Q 44.046875 74.21875 50.515625 64.515625 
Q 56.984375 54.828125 56.984375 36.375 
Q 56.984375 17.96875 50.515625 8.265625 
Q 44.046875 -1.421875 31.78125 -1.421875 
Q 19.53125 -1.421875 13.0625 8.265625 
Q 6.59375 17.96875 6.59375 36.375 
Q 6.59375 54.828125 13.0625 64.515625 
Q 19.53125 74.21875 31.78125 74.21875 
z
" id="DejaVuSans-48"/>
       </defs>
       <use xlink:href="#DejaVuSans-48"/>
      </g>
     </g>
    </g>
    <g id="xtick_2">
     <g id="line2d_2">
      <g>
       <use style="stroke:#000000;stroke-width:0.8;" x="112.471486" xlink:href="#med7ec27f52" y="303.64"/>
      </g>
     </g>
     <g id="text_2">
      <!-- 20 -->
      <g transform="translate(106.108986 318.238437)scale(0.1 -0.1)">
       <defs>
        <path d="M 19.1875 8.296875 
L 53.609375 8.296875 
L 53.609375 0 
L 7.328125 0 
L 7.328125 8.296875 
Q 12.9375 14.109375 22.625 23.890625 
Q 32.328125 33.6875 34.8125 36.53125 
Q 39.546875 41.84375 41.421875 45.53125 
Q 43.3125 49.21875 43.3125 52.78125 
Q 43.3125 58.59375 39.234375 62.25 
Q 35.15625 65.921875 28.609375 65.921875 
Q 23.96875 65.921875 18.8125 64.3125 
Q 13.671875 62.703125 7.8125 59.421875 
L 7.8125 69.390625 
Q 13.765625 71.78125 18.9375 73 
Q 24.125 74.21875 28.421875 74.21875 
Q 39.75 74.21875 46.484375 68.546875 
Q 53.21875 62.890625 53.21875 53.421875 
Q 53.21875 48.921875 51.53125 44.890625 
Q 49.859375 40.875 45.40625 35.40625 
Q 44.1875 33.984375 37.640625 27.21875 
Q 31.109375 20.453125 19.1875 8.296875 
z
" id="DejaVuSans-50"/>
       </defs>
       <use xlink:href="#DejaVuSans-50"/>
       <use x="63.623047" xlink:href="#DejaVuSans-48"/>
      </g>
     </g>
    </g>
    <g id="xtick_3">
     <g id="line2d_3">
      <g>
       <use style="stroke:#000000;stroke-width:0.8;" x="161.944335" xlink:href="#med7ec27f52" y="303.64"/>
      </g>
     </g>
     <g id="text_3">
      <!-- 40 -->
      <g transform="translate(155.581835 318.238437)scale(0.1 -0.1)">
       <defs>
        <path d="M 37.796875 64.3125 
L 12.890625 25.390625 
L 37.796875 25.390625 
z
M 35.203125 72.90625 
L 47.609375 72.90625 
L 47.609375 25.390625 
L 58.015625 25.390625 
L 58.015625 17.1875 
L 47.609375 17.1875 
L 47.609375 0 
L 37.796875 0 
L 37.796875 17.1875 
L 4.890625 17.1875 
L 4.890625 26.703125 
z
" id="DejaVuSans-52"/>
       </defs>
       <use xlink:href="#DejaVuSans-52"/>
       <use x="63.623047" xlink:href="#DejaVuSans-48"/>
      </g>
     </g>
    </g>
    <g id="xtick_4">
     <g id="line2d_4">
      <g>
       <use style="stroke:#000000;stroke-width:0.8;" x="211.417184" xlink:href="#med7ec27f52" y="303.64"/>
      </g>
     </g>
     <g id="text_4">
      <!-- 60 -->
      <g transform="translate(205.054684 318.238437)scale(0.1 -0.1)">
       <defs>
        <path d="M 33.015625 40.375 
Q 26.375 40.375 22.484375 35.828125 
Q 18.609375 31.296875 18.609375 23.390625 
Q 18.609375 15.53125 22.484375 10.953125 
Q 26.375 6.390625 33.015625 6.390625 
Q 39.65625 6.390625 43.53125 10.953125 
Q 47.40625 15.53125 47.40625 23.390625 
Q 47.40625 31.296875 43.53125 35.828125 
Q 39.65625 40.375 33.015625 40.375 
z
M 52.59375 71.296875 
L 52.59375 62.3125 
Q 48.875 64.0625 45.09375 64.984375 
Q 41.3125 65.921875 37.59375 65.921875 
Q 27.828125 65.921875 22.671875 59.328125 
Q 17.53125 52.734375 16.796875 39.40625 
Q 19.671875 43.65625 24.015625 45.921875 
Q 28.375 48.1875 33.59375 48.1875 
Q 44.578125 48.1875 50.953125 41.515625 
Q 57.328125 34.859375 57.328125 23.390625 
Q 57.328125 12.15625 50.6875 5.359375 
Q 44.046875 -1.421875 33.015625 -1.421875 
Q 20.359375 -1.421875 13.671875 8.265625 
Q 6.984375 17.96875 6.984375 36.375 
Q 6.984375 53.65625 15.1875 63.9375 
Q 23.390625 74.21875 37.203125 74.21875 
Q 40.921875 74.21875 44.703125 73.484375 
Q 48.484375 72.75 52.59375 71.296875 
z
" id="DejaVuSans-54"/>
       </defs>
       <use xlink:href="#DejaVuSans-54"/>
       <use x="63.623047" xlink:href="#DejaVuSans-48"/>
      </g>
     </g>
    </g>
    <g id="xtick_5">
     <g id="line2d_5">
      <g>
       <use style="stroke:#000000;stroke-width:0.8;" x="260.890034" xlink:href="#med7ec27f52" y="303.64"/>
      </g>
     </g>
     <g id="text_5">
      <!-- 80 -->
      <g transform="translate(254.527534 318.238437)scale(0.1 -0.1)">
       <defs>
        <path d="M 31.78125 34.625 
Q 24.75 34.625 20.71875 30.859375 
Q 16.703125 27.09375 16.703125 20.515625 
Q 16.703125 13.921875 20.71875 10.15625 
Q 24.75 6.390625 31.78125 6.390625 
Q 38.8125 6.390625 42.859375 10.171875 
Q 46.921875 13.96875 46.921875 20.515625 
Q 46.921875 27.09375 42.890625 30.859375 
Q 38.875 34.625 31.78125 34.625 
z
M 21.921875 38.8125 
Q 15.578125 40.375 12.03125 44.71875 
Q 8.5 49.078125 8.5 55.328125 
Q 8.5 64.0625 14.71875 69.140625 
Q 20.953125 74.21875 31.78125 74.21875 
Q 42.671875 74.21875 48.875 69.140625 
Q 55.078125 64.0625 55.078125 55.328125 
Q 55.078125 49.078125 51.53125 44.71875 
Q 48 40.375 41.703125 38.8125 
Q 48.828125 37.15625 52.796875 32.3125 
Q 56.78125 27.484375 56.78125 20.515625 
Q 56.78125 9.90625 50.3125 4.234375 
Q 43.84375 -1.421875 31.78125 -1.421875 
Q 19.734375 -1.421875 13.25 4.234375 
Q 6.78125 9.90625 6.78125 20.515625 
Q 6.78125 27.484375 10.78125 32.3125 
Q 14.796875 37.15625 21.921875 38.8125 
z
M 18.3125 54.390625 
Q 18.3125 48.734375 21.84375 45.5625 
Q 25.390625 42.390625 31.78125 42.390625 
Q 38.140625 42.390625 41.71875 45.5625 
Q 45.3125 48.734375 45.3125 54.390625 
Q 45.3125 60.0625 41.71875 63.234375 
Q 38.140625 66.40625 31.78125 66.40625 
Q 25.390625 66.40625 21.84375 63.234375 
Q 18.3125 60.0625 18.3125 54.390625 
z
" id="DejaVuSans-56"/>
       </defs>
       <use xlink:href="#DejaVuSans-56"/>
       <use x="63.623047" xlink:href="#DejaVuSans-48"/>
      </g>
     </g>
    </g>
    <g id="xtick_6">
     <g id="line2d_6">
      <g>
       <use style="stroke:#000000;stroke-width:0.8;" x="310.362883" xlink:href="#med7ec27f52" y="303.64"/>
      </g>
     </g>
     <g id="text_6">
      <!-- 100 -->
      <g transform="translate(300.819133 318.238437)scale(0.1 -0.1)">
       <defs>
        <path d="M 12.40625 8.296875 
L 28.515625 8.296875 
L 28.515625 63.921875 
L 10.984375 60.40625 
L 10.984375 69.390625 
L 28.421875 72.90625 
L 38.28125 72.90625 
L 38.28125 8.296875 
L 54.390625 8.296875 
L 54.390625 0 
L 12.40625 0 
z
" id="DejaVuSans-49"/>
       </defs>
       <use xlink:href="#DejaVuSans-49"/>
       <use x="63.623047" xlink:href="#DejaVuSans-48"/>
       <use x="127.246094" xlink:href="#DejaVuSans-48"/>
      </g>
     </g>
    </g>
    <g id="xtick_7">
     <g id="line2d_7">
      <g>
       <use style="stroke:#000000;stroke-width:0.8;" x="359.835732" xlink:href="#med7ec27f52" y="303.64"/>
      </g>
     </g>
     <g id="text_7">
      <!-- 120 -->
      <g transform="translate(350.291982 318.238437)scale(0.1 -0.1)">
       <use xlink:href="#DejaVuSans-49"/>
       <use x="63.623047" xlink:href="#DejaVuSans-50"/>
       <use x="127.246094" xlink:href="#DejaVuSans-48"/>
      </g>
     </g>
    </g>
    <g id="xtick_8">
     <g id="line2d_8">
      <g>
       <use style="stroke:#000000;stroke-width:0.8;" x="409.308581" xlink:href="#med7ec27f52" y="303.64"/>
      </g>
     </g>
     <g id="text_8">
      <!-- 140 -->
      <g transform="translate(399.764831 318.238437)scale(0.1 -0.1)">
       <use xlink:href="#DejaVuSans-49"/>
       <use x="63.623047" xlink:href="#DejaVuSans-52"/>
       <use x="127.246094" xlink:href="#DejaVuSans-48"/>
      </g>
     </g>
    </g>
    <g id="text_9">
     <!-- Epochs -->
     <g transform="translate(229.369375 331.916562)scale(0.1 -0.1)">
      <defs>
       <path d="M 9.8125 72.90625 
L 55.90625 72.90625 
L 55.90625 64.59375 
L 19.671875 64.59375 
L 19.671875 43.015625 
L 54.390625 43.015625 
L 54.390625 34.71875 
L 19.671875 34.71875 
L 19.671875 8.296875 
L 56.78125 8.296875 
L 56.78125 0 
L 9.8125 0 
z
" id="DejaVuSans-69"/>
       <path d="M 18.109375 8.203125 
L 18.109375 -20.796875 
L 9.078125 -20.796875 
L 9.078125 54.6875 
L 18.109375 54.6875 
L 18.109375 46.390625 
Q 20.953125 51.265625 25.265625 53.625 
Q 29.59375 56 35.59375 56 
Q 45.5625 56 51.78125 48.09375 
Q 58.015625 40.1875 58.015625 27.296875 
Q 58.015625 14.40625 51.78125 6.484375 
Q 45.5625 -1.421875 35.59375 -1.421875 
Q 29.59375 -1.421875 25.265625 0.953125 
Q 20.953125 3.328125 18.109375 8.203125 
z
M 48.6875 27.296875 
Q 48.6875 37.203125 44.609375 42.84375 
Q 40.53125 48.484375 33.40625 48.484375 
Q 26.265625 48.484375 22.1875 42.84375 
Q 18.109375 37.203125 18.109375 27.296875 
Q 18.109375 17.390625 22.1875 11.75 
Q 26.265625 6.109375 33.40625 6.109375 
Q 40.53125 6.109375 44.609375 11.75 
Q 48.6875 17.390625 48.6875 27.296875 
z
" id="DejaVuSans-112"/>
       <path d="M 30.609375 48.390625 
Q 23.390625 48.390625 19.1875 42.75 
Q 14.984375 37.109375 14.984375 27.296875 
Q 14.984375 17.484375 19.15625 11.84375 
Q 23.34375 6.203125 30.609375 6.203125 
Q 37.796875 6.203125 41.984375 11.859375 
Q 46.1875 17.53125 46.1875 27.296875 
Q 46.1875 37.015625 41.984375 42.703125 
Q 37.796875 48.390625 30.609375 48.390625 
z
M 30.609375 56 
Q 42.328125 56 49.015625 48.375 
Q 55.71875 40.765625 55.71875 27.296875 
Q 55.71875 13.875 49.015625 6.21875 
Q 42.328125 -1.421875 30.609375 -1.421875 
Q 18.84375 -1.421875 12.171875 6.21875 
Q 5.515625 13.875 5.515625 27.296875 
Q 5.515625 40.765625 12.171875 48.375 
Q 18.84375 56 30.609375 56 
z
" id="DejaVuSans-111"/>
       <path d="M 48.78125 52.59375 
L 48.78125 44.1875 
Q 44.96875 46.296875 41.140625 47.34375 
Q 37.3125 48.390625 33.40625 48.390625 
Q 24.65625 48.390625 19.8125 42.84375 
Q 14.984375 37.3125 14.984375 27.296875 
Q 14.984375 17.28125 19.8125 11.734375 
Q 24.65625 6.203125 33.40625 6.203125 
Q 37.3125 6.203125 41.140625 7.25 
Q 44.96875 8.296875 48.78125 10.40625 
L 48.78125 2.09375 
Q 45.015625 0.34375 40.984375 -0.53125 
Q 36.96875 -1.421875 32.421875 -1.421875 
Q 20.0625 -1.421875 12.78125 6.34375 
Q 5.515625 14.109375 5.515625 27.296875 
Q 5.515625 40.671875 12.859375 48.328125 
Q 20.21875 56 33.015625 56 
Q 37.15625 56 41.109375 55.140625 
Q 45.0625 54.296875 48.78125 52.59375 
z
" id="DejaVuSans-99"/>
       <path d="M 54.890625 33.015625 
L 54.890625 0 
L 45.90625 0 
L 45.90625 32.71875 
Q 45.90625 40.484375 42.875 44.328125 
Q 39.84375 48.1875 33.796875 48.1875 
Q 26.515625 48.1875 22.3125 43.546875 
Q 18.109375 38.921875 18.109375 30.90625 
L 18.109375 0 
L 9.078125 0 
L 9.078125 75.984375 
L 18.109375 75.984375 
L 18.109375 46.1875 
Q 21.34375 51.125 25.703125 53.5625 
Q 30.078125 56 35.796875 56 
Q 45.21875 56 50.046875 50.171875 
Q 54.890625 44.34375 54.890625 33.015625 
z
" id="DejaVuSans-104"/>
       <path d="M 44.28125 53.078125 
L 44.28125 44.578125 
Q 40.484375 46.53125 36.375 47.5 
Q 32.28125 48.484375 27.875 48.484375 
Q 21.1875 48.484375 17.84375 46.4375 
Q 14.5 44.390625 14.5 40.28125 
Q 14.5 37.15625 16.890625 35.375 
Q 19.28125 33.59375 26.515625 31.984375 
L 29.59375 31.296875 
Q 39.15625 29.25 43.1875 25.515625 
Q 47.21875 21.78125 47.21875 15.09375 
Q 47.21875 7.46875 41.1875 3.015625 
Q 35.15625 -1.421875 24.609375 -1.421875 
Q 20.21875 -1.421875 15.453125 -0.5625 
Q 10.6875 0.296875 5.421875 2 
L 5.421875 11.28125 
Q 10.40625 8.6875 15.234375 7.390625 
Q 20.0625 6.109375 24.8125 6.109375 
Q 31.15625 6.109375 34.5625 8.28125 
Q 37.984375 10.453125 37.984375 14.40625 
Q 37.984375 18.0625 35.515625 20.015625 
Q 33.0625 21.96875 24.703125 23.78125 
L 21.578125 24.515625 
Q 13.234375 26.265625 9.515625 29.90625 
Q 5.8125 33.546875 5.8125 39.890625 
Q 5.8125 47.609375 11.28125 51.796875 
Q 16.75 56 26.8125 56 
Q 31.78125 56 36.171875 55.265625 
Q 40.578125 54.546875 44.28125 53.078125 
z
" id="DejaVuSans-115"/>
      </defs>
      <use xlink:href="#DejaVuSans-69"/>
      <use x="63.183594" xlink:href="#DejaVuSans-112"/>
      <use x="126.660156" xlink:href="#DejaVuSans-111"/>
      <use x="187.841797" xlink:href="#DejaVuSans-99"/>
      <use x="242.822266" xlink:href="#DejaVuSans-104"/>
      <use x="306.201172" xlink:href="#DejaVuSans-115"/>
     </g>
    </g>
   </g>
   <g id="matplotlib.axis_2">
    <g id="ytick_1">
     <g id="line2d_9">
      <defs>
       <path d="M 0 0 
L -3.5 0 
" id="mfabadf8567" style="stroke:#000000;stroke-width:0.8;"/>
      </defs>
      <g>
       <use style="stroke:#000000;stroke-width:0.8;" x="44.57" xlink:href="#mfabadf8567" y="253.760141"/>
      </g>
     </g>
     <g id="text_10">
      <!-- 20 -->
      <g transform="translate(24.845 257.55936)scale(0.1 -0.1)">
       <use xlink:href="#DejaVuSans-50"/>
       <use x="63.623047" xlink:href="#DejaVuSans-48"/>
      </g>
     </g>
    </g>
    <g id="ytick_2">
     <g id="line2d_10">
      <g>
       <use style="stroke:#000000;stroke-width:0.8;" x="44.57" xlink:href="#mfabadf8567" y="193.013024"/>
      </g>
     </g>
     <g id="text_11">
      <!-- 40 -->
      <g transform="translate(24.845 196.812243)scale(0.1 -0.1)">
       <use xlink:href="#DejaVuSans-52"/>
       <use x="63.623047" xlink:href="#DejaVuSans-48"/>
      </g>
     </g>
    </g>
    <g id="ytick_3">
     <g id="line2d_11">
      <g>
       <use style="stroke:#000000;stroke-width:0.8;" x="44.57" xlink:href="#mfabadf8567" y="132.265908"/>
      </g>
     </g>
     <g id="text_12">
      <!-- 60 -->
      <g transform="translate(24.845 136.065127)scale(0.1 -0.1)">
       <use xlink:href="#DejaVuSans-54"/>
       <use x="63.623047" xlink:href="#DejaVuSans-48"/>
      </g>
     </g>
    </g>
    <g id="ytick_4">
     <g id="line2d_12">
      <g>
       <use style="stroke:#000000;stroke-width:0.8;" x="44.57" xlink:href="#mfabadf8567" y="71.518791"/>
      </g>
     </g>
     <g id="text_13">
      <!-- 80 -->
      <g transform="translate(24.845 75.31801)scale(0.1 -0.1)">
       <use xlink:href="#DejaVuSans-56"/>
       <use x="63.623047" xlink:href="#DejaVuSans-48"/>
      </g>
     </g>
    </g>
    <g id="text_14">
     <!-- Test Accuracy (%) -->
     <g transform="translate(18.765313 201.723906)rotate(-90)scale(0.1 -0.1)">
      <defs>
       <path d="M -0.296875 72.90625 
L 61.375 72.90625 
L 61.375 64.59375 
L 35.5 64.59375 
L 35.5 0 
L 25.59375 0 
L 25.59375 64.59375 
L -0.296875 64.59375 
z
" id="DejaVuSans-84"/>
       <path d="M 56.203125 29.59375 
L 56.203125 25.203125 
L 14.890625 25.203125 
Q 15.484375 15.921875 20.484375 11.0625 
Q 25.484375 6.203125 34.421875 6.203125 
Q 39.59375 6.203125 44.453125 7.46875 
Q 49.3125 8.734375 54.109375 11.28125 
L 54.109375 2.78125 
Q 49.265625 0.734375 44.1875 -0.34375 
Q 39.109375 -1.421875 33.890625 -1.421875 
Q 20.796875 -1.421875 13.15625 6.1875 
Q 5.515625 13.8125 5.515625 26.8125 
Q 5.515625 40.234375 12.765625 48.109375 
Q 20.015625 56 32.328125 56 
Q 43.359375 56 49.78125 48.890625 
Q 56.203125 41.796875 56.203125 29.59375 
z
M 47.21875 32.234375 
Q 47.125 39.59375 43.09375 43.984375 
Q 39.0625 48.390625 32.421875 48.390625 
Q 24.90625 48.390625 20.390625 44.140625 
Q 15.875 39.890625 15.1875 32.171875 
z
" id="DejaVuSans-101"/>
       <path d="M 18.3125 70.21875 
L 18.3125 54.6875 
L 36.8125 54.6875 
L 36.8125 47.703125 
L 18.3125 47.703125 
L 18.3125 18.015625 
Q 18.3125 11.328125 20.140625 9.421875 
Q 21.96875 7.515625 27.59375 7.515625 
L 36.8125 7.515625 
L 36.8125 0 
L 27.59375 0 
Q 17.1875 0 13.234375 3.875 
Q 9.28125 7.765625 9.28125 18.015625 
L 9.28125 47.703125 
L 2.6875 47.703125 
L 2.6875 54.6875 
L 9.28125 54.6875 
L 9.28125 70.21875 
z
" id="DejaVuSans-116"/>
       <path id="DejaVuSans-32"/>
       <path d="M 34.1875 63.1875 
L 20.796875 26.90625 
L 47.609375 26.90625 
z
M 28.609375 72.90625 
L 39.796875 72.90625 
L 67.578125 0 
L 57.328125 0 
L 50.6875 18.703125 
L 17.828125 18.703125 
L 11.1875 0 
L 0.78125 0 
z
" id="DejaVuSans-65"/>
       <path d="M 8.5 21.578125 
L 8.5 54.6875 
L 17.484375 54.6875 
L 17.484375 21.921875 
Q 17.484375 14.15625 20.5 10.265625 
Q 23.53125 6.390625 29.59375 6.390625 
Q 36.859375 6.390625 41.078125 11.03125 
Q 45.3125 15.671875 45.3125 23.6875 
L 45.3125 54.6875 
L 54.296875 54.6875 
L 54.296875 0 
L 45.3125 0 
L 45.3125 8.40625 
Q 42.046875 3.421875 37.71875 1 
Q 33.40625 -1.421875 27.6875 -1.421875 
Q 18.265625 -1.421875 13.375 4.4375 
Q 8.5 10.296875 8.5 21.578125 
z
M 31.109375 56 
z
" id="DejaVuSans-117"/>
       <path d="M 41.109375 46.296875 
Q 39.59375 47.171875 37.8125 47.578125 
Q 36.03125 48 33.890625 48 
Q 26.265625 48 22.1875 43.046875 
Q 18.109375 38.09375 18.109375 28.8125 
L 18.109375 0 
L 9.078125 0 
L 9.078125 54.6875 
L 18.109375 54.6875 
L 18.109375 46.1875 
Q 20.953125 51.171875 25.484375 53.578125 
Q 30.03125 56 36.53125 56 
Q 37.453125 56 38.578125 55.875 
Q 39.703125 55.765625 41.0625 55.515625 
z
" id="DejaVuSans-114"/>
       <path d="M 34.28125 27.484375 
Q 23.390625 27.484375 19.1875 25 
Q 14.984375 22.515625 14.984375 16.5 
Q 14.984375 11.71875 18.140625 8.90625 
Q 21.296875 6.109375 26.703125 6.109375 
Q 34.1875 6.109375 38.703125 11.40625 
Q 43.21875 16.703125 43.21875 25.484375 
L 43.21875 27.484375 
z
M 52.203125 31.203125 
L 52.203125 0 
L 43.21875 0 
L 43.21875 8.296875 
Q 40.140625 3.328125 35.546875 0.953125 
Q 30.953125 -1.421875 24.3125 -1.421875 
Q 15.921875 -1.421875 10.953125 3.296875 
Q 6 8.015625 6 15.921875 
Q 6 25.140625 12.171875 29.828125 
Q 18.359375 34.515625 30.609375 34.515625 
L 43.21875 34.515625 
L 43.21875 35.40625 
Q 43.21875 41.609375 39.140625 45 
Q 35.0625 48.390625 27.6875 48.390625 
Q 23 48.390625 18.546875 47.265625 
Q 14.109375 46.140625 10.015625 43.890625 
L 10.015625 52.203125 
Q 14.9375 54.109375 19.578125 55.046875 
Q 24.21875 56 28.609375 56 
Q 40.484375 56 46.34375 49.84375 
Q 52.203125 43.703125 52.203125 31.203125 
z
" id="DejaVuSans-97"/>
       <path d="M 32.171875 -5.078125 
Q 28.375 -14.84375 24.75 -17.8125 
Q 21.140625 -20.796875 15.09375 -20.796875 
L 7.90625 -20.796875 
L 7.90625 -13.28125 
L 13.1875 -13.28125 
Q 16.890625 -13.28125 18.9375 -11.515625 
Q 21 -9.765625 23.484375 -3.21875 
L 25.09375 0.875 
L 2.984375 54.6875 
L 12.5 54.6875 
L 29.59375 11.921875 
L 46.6875 54.6875 
L 56.203125 54.6875 
z
" id="DejaVuSans-121"/>
       <path d="M 31 75.875 
Q 24.46875 64.65625 21.28125 53.65625 
Q 18.109375 42.671875 18.109375 31.390625 
Q 18.109375 20.125 21.3125 9.0625 
Q 24.515625 -2 31 -13.1875 
L 23.1875 -13.1875 
Q 15.875 -1.703125 12.234375 9.375 
Q 8.59375 20.453125 8.59375 31.390625 
Q 8.59375 42.28125 12.203125 53.3125 
Q 15.828125 64.359375 23.1875 75.875 
z
" id="DejaVuSans-40"/>
       <path d="M 72.703125 32.078125 
Q 68.453125 32.078125 66.03125 28.46875 
Q 63.625 24.859375 63.625 18.40625 
Q 63.625 12.0625 66.03125 8.421875 
Q 68.453125 4.78125 72.703125 4.78125 
Q 76.859375 4.78125 79.265625 8.421875 
Q 81.6875 12.0625 81.6875 18.40625 
Q 81.6875 24.8125 79.265625 28.4375 
Q 76.859375 32.078125 72.703125 32.078125 
z
M 72.703125 38.28125 
Q 80.421875 38.28125 84.953125 32.90625 
Q 89.5 27.546875 89.5 18.40625 
Q 89.5 9.28125 84.9375 3.921875 
Q 80.375 -1.421875 72.703125 -1.421875 
Q 64.890625 -1.421875 60.34375 3.921875 
Q 55.8125 9.28125 55.8125 18.40625 
Q 55.8125 27.59375 60.375 32.9375 
Q 64.9375 38.28125 72.703125 38.28125 
z
M 22.3125 68.015625 
Q 18.109375 68.015625 15.6875 64.375 
Q 13.28125 60.75 13.28125 54.390625 
Q 13.28125 47.953125 15.671875 44.328125 
Q 18.0625 40.71875 22.3125 40.71875 
Q 26.5625 40.71875 28.96875 44.328125 
Q 31.390625 47.953125 31.390625 54.390625 
Q 31.390625 60.6875 28.953125 64.34375 
Q 26.515625 68.015625 22.3125 68.015625 
z
M 66.40625 74.21875 
L 74.21875 74.21875 
L 28.609375 -1.421875 
L 20.796875 -1.421875 
z
M 22.3125 74.21875 
Q 30.03125 74.21875 34.609375 68.875 
Q 39.203125 63.53125 39.203125 54.390625 
Q 39.203125 45.171875 34.640625 39.84375 
Q 30.078125 34.515625 22.3125 34.515625 
Q 14.546875 34.515625 10.03125 39.859375 
Q 5.515625 45.21875 5.515625 54.390625 
Q 5.515625 63.484375 10.046875 68.84375 
Q 14.59375 74.21875 22.3125 74.21875 
z
" id="DejaVuSans-37"/>
       <path d="M 8.015625 75.875 
L 15.828125 75.875 
Q 23.140625 64.359375 26.78125 53.3125 
Q 30.421875 42.28125 30.421875 31.390625 
Q 30.421875 20.453125 26.78125 9.375 
Q 23.140625 -1.703125 15.828125 -13.1875 
L 8.015625 -13.1875 
Q 14.5 -2 17.703125 9.0625 
Q 20.90625 20.125 20.90625 31.390625 
Q 20.90625 42.671875 17.703125 53.65625 
Q 14.5 64.65625 8.015625 75.875 
z
" id="DejaVuSans-41"/>
      </defs>
      <use xlink:href="#DejaVuSans-84"/>
      <use x="44.083984" xlink:href="#DejaVuSans-101"/>
      <use x="105.607422" xlink:href="#DejaVuSans-115"/>
      <use x="157.707031" xlink:href="#DejaVuSans-116"/>
      <use x="196.916016" xlink:href="#DejaVuSans-32"/>
      <use x="228.703125" xlink:href="#DejaVuSans-65"/>
      <use x="295.361328" xlink:href="#DejaVuSans-99"/>
      <use x="350.341797" xlink:href="#DejaVuSans-99"/>
      <use x="405.322266" xlink:href="#DejaVuSans-117"/>
      <use x="468.701172" xlink:href="#DejaVuSans-114"/>
      <use x="509.814453" xlink:href="#DejaVuSans-97"/>
      <use x="571.09375" xlink:href="#DejaVuSans-99"/>
      <use x="626.074219" xlink:href="#DejaVuSans-121"/>
      <use x="685.253906" xlink:href="#DejaVuSans-32"/>
      <use x="717.041016" xlink:href="#DejaVuSans-40"/>
      <use x="756.054688" xlink:href="#DejaVuSans-37"/>
      <use x="851.074219" xlink:href="#DejaVuSans-41"/>
     </g>
    </g>
   </g>
   <g id="line2d_13">
    <path clip-path="url(#p1b47c40c63)" d="M 62.998636 273.811436 
L 65.472279 257.319543 
L 67.945921 244.37222 
L 70.419564 226.234104 
L 72.893206 202.608577 
L 75.366849 186.264993 
L 77.840491 164.671291 
L 80.314134 154.92743 
L 82.787776 134.149424 
L 85.261419 128.58786 
L 87.735061 109.723032 
L 90.208703 113.134125 
L 92.682346 107.439083 
L 95.155988 89.108166 
L 97.629631 94.565915 
L 100.103273 84.92587 
L 102.576916 81.366468 
L 105.050558 79.557106 
L 107.524201 69.02721 
L 109.997843 81.959702 
L 112.471486 73.684094 
L 114.945128 75.997704 
L 117.418771 75.582441 
L 119.892413 69.620444 
L 122.366056 72.586611 
L 124.839698 73.654432 
L 127.31334 70.717926 
L 129.786983 64.548297 
L 132.260625 68.67127 
L 134.734268 59.446488 
L 137.20791 62.620288 
L 139.681553 59.001563 
L 142.155195 67.010216 
L 144.628838 60.217692 
L 147.10248 57.726111 
L 149.576123 60.72194 
L 154.523408 56.272689 
L 156.99705 57.221862 
L 159.470692 67.514465 
L 161.944335 51.52682 
L 164.417977 53.217536 
L 166.89162 56.539644 
L 169.365262 54.789605 
L 171.838905 56.83626 
L 174.312547 59.031225 
L 176.78619 55.175206 
L 179.259832 52.980242 
L 181.733475 56.005733 
L 184.207117 54.255694 
L 186.68076 52.772611 
L 189.154402 53.276859 
L 191.628045 57.340509 
L 196.575329 52.446332 
L 199.048972 59.83209 
L 201.522614 49.806443 
L 203.996257 45.742793 
L 206.469899 49.302194 
L 208.943542 51.378512 
L 211.417184 53.009904 
L 213.890827 50.933586 
L 216.364469 44.941928 
L 218.838112 49.302194 
L 221.311754 50.221706 
L 226.259039 50.63697 
L 228.732682 48.382682 
L 231.206324 46.336026 
L 233.679966 46.75129 
L 236.153609 47.64114 
L 238.627251 50.725955 
L 241.100894 43.04358 
L 243.574536 44.378356 
L 246.048179 42.391023 
L 248.521821 44.645311 
L 250.995464 43.162227 
L 253.469106 43.666475 
L 255.942749 42.568993 
L 258.416391 39.691811 
L 260.890034 42.3317 
L 263.363676 44.319032 
L 265.837318 42.984257 
L 268.310961 40.878278 
L 270.784603 44.941928 
L 273.258246 47.789449 
L 275.731888 41.145233 
L 278.205531 38.179065 
L 280.679173 40.700308 
L 283.152816 39.51384 
L 285.626458 41.44185 
L 288.100101 45.090236 
L 290.573743 39.246885 
L 293.047386 38.861284 
L 295.521028 35.628161 
L 297.994671 42.035083 
L 300.468313 38.297712 
L 302.941955 37.882448 
L 305.415598 34.767972 
L 307.88924 36.221394 
L 310.362883 34.441693 
L 312.836525 35.776469 
L 315.310168 35.361206 
L 317.78381 35.954439 
L 320.257453 37.823125 
L 322.731095 36.458688 
L 325.204738 33.907783 
L 327.67838 34.797634 
L 330.152023 37.259553 
L 332.625665 36.013762 
L 335.099308 32.454361 
L 337.57295 36.518011 
L 340.046592 33.433196 
L 342.520235 32.750978 
L 344.993877 31.712819 
L 347.46752 32.721316 
L 349.941162 31.445864 
L 352.414805 32.869625 
L 354.888447 30.022103 
L 357.36209 32.335714 
L 359.835732 30.348382 
L 362.309375 31.475526 
L 364.783017 30.31872 
L 367.25666 29.369547 
L 369.730302 29.60684 
L 374.677587 28.568681 
L 377.151229 28.361049 
L 379.624872 27.886463 
L 382.098514 28.064433 
L 384.572157 27.144921 
L 389.519442 28.598343 
L 391.993084 26.937289 
L 394.466727 27.560184 
L 396.940369 27.738154 
L 399.414012 26.581349 
L 401.887654 26.848304 
L 404.361297 27.233906 
L 406.834939 27.975448 
L 409.308581 28.034771 
L 411.782224 27.293229 
L 414.255866 26.937289 
L 416.729509 27.441537 
L 419.203151 27.411876 
L 421.676794 26.551687 
L 424.150436 27.738154 
L 426.624079 26.996612 
L 429.097721 26.0771 
L 431.571364 27.174582 
L 431.571364 27.174582 
" style="fill:none;stroke:#1f77b4;stroke-linecap:square;stroke-width:1.5;"/>
   </g>
   <g id="line2d_14">
    <path clip-path="url(#p1b47c40c63)" d="M 62.998636 271.557148 
L 65.472279 260.28571 
L 67.945921 255.421195 
L 70.419564 236.319074 
L 72.893206 220.183122 
L 75.366849 199.894534 
L 77.840491 191.010861 
L 80.314134 188.87522 
L 82.787776 175.898236 
L 85.261419 159.302527 
L 87.735061 149.944268 
L 90.208703 137.367716 
L 95.155988 121.157609 
L 97.629631 127.401393 
L 100.103273 100.409266 
L 102.576916 97.116819 
L 105.050558 89.16749 
L 107.524201 101.862688 
L 109.997843 82.790229 
L 112.471486 89.671738 
L 114.945128 82.137672 
L 117.418771 78.548609 
L 119.892413 82.196995 
L 122.366056 74.129019 
L 124.839698 71.607776 
L 127.31334 74.603606 
L 129.786983 65.49747 
L 132.260625 67.544126 
L 134.734268 61.760099 
L 139.681553 67.929728 
L 142.155195 62.501641 
L 144.628838 60.72194 
L 147.10248 58.793931 
L 149.576123 64.162695 
L 152.049765 63.5398 
L 154.523408 58.408329 
L 156.99705 55.76844 
L 159.470692 59.802428 
L 161.944335 56.65829 
L 164.417977 55.857425 
L 166.89162 56.83626 
L 169.365262 58.467653 
L 171.838905 62.234686 
L 174.312547 56.984569 
L 179.259832 52.653964 
L 181.733475 50.399676 
L 184.207117 60.336338 
L 186.68076 54.226033 
L 189.154402 52.802272 
L 191.628045 55.175206 
L 194.101687 52.891257 
L 196.575329 55.115883 
L 199.048972 52.653964 
L 201.522614 48.560652 
L 203.996257 46.484335 
L 206.469899 51.70479 
L 208.943542 52.505655 
L 211.417184 56.450659 
L 213.890827 52.327685 
L 216.364469 51.467497 
L 218.838112 55.471823 
L 221.311754 51.497158 
L 223.785397 48.857269 
L 226.259039 51.378512 
L 228.732682 54.70062 
L 231.206324 52.920919 
L 233.679966 46.780952 
L 238.627251 51.853099 
L 241.100894 46.365688 
L 243.574536 48.827607 
L 246.048179 46.840275 
L 248.521821 45.090236 
L 250.995464 48.204712 
L 253.469106 47.077568 
L 255.942749 48.471667 
L 258.416391 42.302038 
L 260.890034 42.3317 
L 263.363676 45.920763 
L 265.837318 41.857113 
L 268.310961 45.357191 
L 270.784603 49.391179 
L 273.258246 45.119898 
L 275.731888 44.467341 
L 278.205531 42.094406 
L 280.679173 39.51384 
L 283.152816 40.196059 
L 285.626458 43.22155 
L 288.100101 43.429182 
L 290.573743 39.395194 
L 293.047386 42.68764 
L 295.521028 40.581661 
L 297.994671 40.166397 
L 300.468313 40.225721 
L 302.941955 38.060418 
L 305.415598 36.814628 
L 307.88924 38.26805 
L 310.362883 37.971433 
L 312.836525 40.225721 
L 315.310168 38.712975 
L 317.78381 38.97993 
L 320.257453 41.946098 
L 322.731095 37.140906 
L 325.204738 37.823125 
L 327.67838 32.95861 
L 330.152023 37.852786 
L 332.625665 36.666319 
L 335.099308 35.984101 
L 337.57295 35.509514 
L 340.046592 33.729813 
L 342.520235 31.297556 
L 344.993877 33.166241 
L 347.46752 33.344211 
L 349.941162 32.009436 
L 352.414805 33.344211 
L 354.888447 32.039098 
L 357.36209 34.02643 
L 359.835732 31.801804 
L 362.309375 32.839963 
L 364.783017 32.95861 
L 367.25666 31.534849 
L 369.730302 30.793307 
L 372.203944 31.831466 
L 374.677587 31.238232 
L 377.151229 31.089924 
L 379.624872 29.577178 
L 382.098514 30.31872 
L 384.572157 30.437367 
L 387.045799 29.369547 
L 389.519442 29.488193 
L 391.993084 28.390711 
L 394.466727 29.369547 
L 396.940369 29.488193 
L 399.414012 29.369547 
L 401.887654 28.746651 
L 404.361297 29.488193 
L 406.834939 29.78481 
L 409.308581 29.07293 
L 411.782224 29.488193 
L 414.255866 29.458532 
L 416.729509 29.992442 
L 419.203151 29.369547 
L 421.676794 30.022103 
L 424.150436 29.725487 
L 426.624079 29.695825 
L 429.097721 29.013606 
L 431.571364 29.933118 
L 431.571364 29.933118 
" style="fill:none;stroke:#ff7f0e;stroke-linecap:square;stroke-width:1.5;"/>
   </g>
   <g id="line2d_15">
    <path clip-path="url(#p1b47c40c63)" d="M 62.998636 254.709315 
L 65.472279 223.149289 
L 67.945921 205.708223 
L 70.419564 180.169518 
L 72.893206 163.217869 
L 75.366849 140.452531 
L 77.840491 128.58786 
L 80.314134 122.091952 
L 82.787776 112.33326 
L 85.261419 97.532083 
L 87.735061 89.909031 
L 90.208703 85.400456 
L 92.682346 84.095343 
L 95.155988 77.006202 
L 97.629631 74.603606 
L 100.103273 70.717926 
L 102.576916 68.078036 
L 105.050558 68.522962 
L 107.524201 65.823749 
L 109.997843 72.467965 
L 112.471486 65.022884 
L 114.945128 65.972057 
L 117.418771 69.976384 
L 119.892413 60.751602 
L 122.366056 69.857737 
L 124.839698 72.972213 
L 127.31334 71.222174 
L 129.786983 62.471979 
L 132.260625 70.065369 
L 134.734268 52.179377 
L 137.20791 63.925401 
L 139.681553 63.005889 
L 142.155195 58.823593 
L 144.628838 61.789761 
L 147.10248 58.971901 
L 149.576123 69.145857 
L 152.049765 60.484647 
L 154.523408 63.332168 
L 156.99705 62.768596 
L 159.470692 61.849084 
L 161.944335 59.327841 
L 164.417977 51.111557 
L 166.89162 54.077724 
L 169.365262 59.802428 
L 171.838905 58.675284 
L 174.312547 58.171036 
L 176.78619 59.505811 
L 179.259832 55.887087 
L 181.733475 54.196371 
L 184.207117 55.115883 
L 186.68076 47.077568 
L 189.154402 56.005733 
L 191.628045 58.526976 
L 194.101687 55.679455 
L 196.575329 58.082051 
L 199.048972 54.077724 
L 201.522614 56.450659 
L 203.996257 50.63697 
L 206.469899 49.124224 
L 208.943542 51.912422 
L 211.417184 56.450659 
L 213.890827 51.556482 
L 216.364469 54.908251 
L 218.838112 49.539488 
L 221.311754 50.370015 
L 223.785397 48.590314 
L 226.259039 49.539488 
L 228.732682 51.467497 
L 231.206324 49.865766 
L 233.679966 47.492832 
L 236.153609 53.128551 
L 238.627251 55.05656 
L 241.100894 49.064901 
L 243.574536 51.081895 
L 246.048179 45.802116 
L 248.521821 47.344523 
L 250.995464 49.984413 
L 253.469106 49.687796 
L 255.942749 49.687796 
L 258.416391 42.806287 
L 260.890034 45.149559 
L 263.363676 48.382682 
L 265.837318 44.823281 
L 268.310961 43.75546 
L 270.784603 46.988583 
L 273.258246 49.509826 
L 275.731888 44.941928 
L 278.205531 41.204556 
L 280.679173 45.149559 
L 283.152816 39.543502 
L 285.626458 47.225877 
L 288.100101 47.730125 
L 290.573743 41.293541 
L 293.047386 40.996924 
L 295.521028 41.115571 
L 297.994671 43.073242 
L 300.468313 41.234218 
L 302.941955 43.369859 
L 305.415598 41.234218 
L 307.88924 40.225721 
L 310.362883 38.97993 
L 312.836525 41.026586 
L 315.310168 37.437523 
L 317.78381 39.395194 
L 320.257453 38.950269 
L 322.731095 38.831622 
L 325.204738 38.060418 
L 327.67838 34.649325 
L 330.152023 40.285044 
L 332.625665 39.602825 
L 335.099308 34.501017 
L 337.57295 35.09425 
L 340.046592 36.962936 
L 342.520235 36.903613 
L 344.993877 36.577334 
L 347.46752 36.547673 
L 349.941162 32.573008 
L 352.414805 35.361206 
L 354.888447 33.789137 
L 357.36209 34.056092 
L 359.835732 33.195903 
L 362.309375 31.267894 
L 364.783017 31.208571 
L 367.25666 29.636502 
L 369.730302 33.522181 
L 372.203944 30.67466 
L 374.677587 31.208571 
L 377.151229 30.081427 
L 382.098514 32.128083 
L 384.572157 29.695825 
L 387.045799 31.000939 
L 389.519442 29.695825 
L 391.993084 30.14075 
L 394.466727 30.971277 
L 396.940369 30.585675 
L 399.414012 29.755148 
L 401.887654 30.229735 
L 404.361297 29.695825 
L 406.834939 30.289059 
L 409.308581 30.200074 
L 411.782224 29.844133 
L 414.255866 29.102591 
L 416.729509 29.636502 
L 419.203151 29.310223 
L 421.676794 29.42887 
L 424.150436 29.933118 
L 426.624079 29.488193 
L 429.097721 29.60684 
L 431.571364 29.399208 
L 431.571364 29.399208 
" style="fill:none;stroke:#2ca02c;stroke-linecap:square;stroke-width:1.5;"/>
   </g>
   <g id="line2d_16">
    <path clip-path="url(#p1b47c40c63)" d="M 62.998636 281.404825 
L 65.472279 277.726777 
L 67.945921 278.320011 
L 70.419564 279.387831 
L 72.893206 264.319699 
L 75.366849 252.447612 
L 77.840491 249.718738 
L 80.314134 243.437877 
L 82.787776 234.072202 
L 85.261419 223.50523 
L 87.735061 213.538906 
L 90.208703 206.776043 
L 92.682346 197.402953 
L 95.155988 193.724905 
L 97.629631 194.911372 
L 100.103273 191.129508 
L 102.576916 185.538282 
L 107.524201 173.688441 
L 109.997843 171.53797 
L 112.471486 164.419167 
L 114.945128 159.673298 
L 117.418771 153.711301 
L 119.892413 142.484356 
L 122.366056 142.573341 
L 124.839698 139.948282 
L 127.31334 128.053949 
L 129.786983 136.181249 
L 132.260625 126.926806 
L 134.734268 124.70218 
L 137.20791 117.049467 
L 139.681553 112.15529 
L 142.155195 115.536721 
L 144.628838 104.38393 
L 147.10248 109.752694 
L 149.576123 93.972681 
L 152.049765 103.078817 
L 154.523408 92.430274 
L 156.99705 94.29896 
L 159.470692 85.786058 
L 161.944335 90.146325 
L 164.417977 85.252148 
L 166.89162 88.129331 
L 169.365262 82.196995 
L 171.838905 86.616585 
L 174.312547 88.336963 
L 176.78619 89.671738 
L 179.259832 92.044672 
L 181.733475 90.05734 
L 184.207117 88.218316 
L 186.68076 84.688576 
L 189.154402 79.972369 
L 191.628045 85.044516 
L 194.101687 78.993534 
L 196.575329 80.061354 
L 199.048972 79.141842 
L 201.522614 95.693059 
L 203.996257 76.739246 
L 206.469899 71.993378 
L 208.943542 81.010528 
L 211.417184 81.158836 
L 213.890827 80.150339 
L 216.364469 74.603606 
L 218.838112 67.840743 
L 221.311754 75.167177 
L 223.785397 75.908719 
L 226.259039 73.061198 
L 228.732682 70.806911 
L 231.206324 78.4003 
L 233.679966 71.667099 
L 236.153609 74.129019 
L 238.627251 73.179845 
L 241.100894 67.484803 
L 243.574536 67.247509 
L 246.048179 69.38315 
L 248.521821 72.55695 
L 250.995464 69.709429 
L 253.469106 68.433977 
L 255.942749 67.455141 
L 258.416391 59.65412 
L 260.890034 61.285512 
L 263.363676 63.71777 
L 265.837318 60.069383 
L 268.310961 64.637282 
L 270.784603 65.467809 
L 273.258246 63.658446 
L 275.731888 62.501641 
L 278.205531 60.870249 
L 280.679173 66.416982 
L 283.152816 59.624458 
L 285.626458 55.531147 
L 288.100101 61.878746 
L 290.573743 56.747275 
L 293.047386 58.022728 
L 295.521028 55.204868 
L 297.994671 61.789761 
L 300.468313 53.603138 
L 302.941955 56.12438 
L 305.415598 59.209195 
L 307.88924 58.437991 
L 310.362883 54.552311 
L 312.836525 53.840431 
L 315.310168 50.63697 
L 317.78381 53.009904 
L 320.257453 53.632799 
L 322.731095 51.497158 
L 325.204738 48.679299 
L 327.67838 49.094562 
L 330.152023 51.052233 
L 332.625665 53.840431 
L 335.099308 52.179377 
L 337.57295 49.954751 
L 340.046592 53.247197 
L 342.520235 49.005577 
L 344.993877 48.827607 
L 347.46752 46.39535 
L 352.414805 44.141062 
L 354.888447 43.310535 
L 357.36209 43.39952 
L 359.835732 41.97576 
L 362.309375 42.420685 
L 364.783017 42.480008 
L 367.25666 41.97576 
L 369.730302 41.293541 
L 372.203944 41.560496 
L 374.677587 43.073242 
L 377.151229 40.967263 
L 379.624872 39.869781 
L 382.098514 40.729969 
L 384.572157 41.857113 
L 387.045799 40.492676 
L 389.519442 39.573164 
L 391.993084 37.170568 
L 394.466727 38.179065 
L 396.940369 39.632487 
L 399.414012 38.297712 
L 401.887654 39.098577 
L 404.361297 38.149403 
L 406.834939 38.505343 
L 409.308581 38.416358 
L 411.782224 38.208727 
L 414.255866 38.950269 
L 416.729509 38.950269 
L 421.676794 38.297712 
L 424.150436 38.26805 
L 426.624079 38.09008 
L 429.097721 38.831622 
L 431.571364 37.526508 
L 431.571364 37.526508 
" style="fill:none;stroke:#d62728;stroke-linecap:square;stroke-width:1.5;"/>
   </g>
   <g id="patch_3">
    <path d="M 44.57 303.64 
L 44.57 10.8 
" style="fill:none;stroke:#000000;stroke-linecap:square;stroke-linejoin:miter;stroke-width:0.8;"/>
   </g>
   <g id="patch_4">
    <path d="M 450 303.64 
L 450 10.8 
" style="fill:none;stroke:#000000;stroke-linecap:square;stroke-linejoin:miter;stroke-width:0.8;"/>
   </g>
   <g id="patch_5">
    <path d="M 44.57 303.64 
L 450 303.64 
" style="fill:none;stroke:#000000;stroke-linecap:square;stroke-linejoin:miter;stroke-width:0.8;"/>
   </g>
   <g id="patch_6">
    <path d="M 44.57 10.8 
L 450 10.8 
" style="fill:none;stroke:#000000;stroke-linecap:square;stroke-linejoin:miter;stroke-width:0.8;"/>
   </g>
   <g id="legend_1">
    <g id="patch_7">
     <path d="M 330.639062 298.64 
L 443 298.64 
Q 445 298.64 445 296.64 
L 445 238.9275 
Q 445 236.9275 443 236.9275 
L 330.639062 236.9275 
Q 328.639062 236.9275 328.639062 238.9275 
L 328.639062 296.64 
Q 328.639062 298.64 330.639062 298.64 
z
" style="fill:#ffffff;opacity:0.8;stroke:#cccccc;stroke-linejoin:miter;"/>
    </g>
    <g id="line2d_17">
     <path d="M 332.639062 245.025937 
L 352.639062 245.025937 
" style="fill:none;stroke:#1f77b4;stroke-linecap:square;stroke-width:1.5;"/>
    </g>
    <g id="line2d_18"/>
    <g id="text_15">
     <!-- AllReduce SGD -->
     <g transform="translate(360.639062 248.525937)scale(0.1 -0.1)">
      <defs>
       <path d="M 9.421875 75.984375 
L 18.40625 75.984375 
L 18.40625 0 
L 9.421875 0 
z
" id="DejaVuSans-108"/>
       <path d="M 44.390625 34.1875 
Q 47.5625 33.109375 50.5625 29.59375 
Q 53.5625 26.078125 56.59375 19.921875 
L 66.609375 0 
L 56 0 
L 46.6875 18.703125 
Q 43.0625 26.03125 39.671875 28.421875 
Q 36.28125 30.8125 30.421875 30.8125 
L 19.671875 30.8125 
L 19.671875 0 
L 9.8125 0 
L 9.8125 72.90625 
L 32.078125 72.90625 
Q 44.578125 72.90625 50.734375 67.671875 
Q 56.890625 62.453125 56.890625 51.90625 
Q 56.890625 45.015625 53.6875 40.46875 
Q 50.484375 35.9375 44.390625 34.1875 
z
M 19.671875 64.796875 
L 19.671875 38.921875 
L 32.078125 38.921875 
Q 39.203125 38.921875 42.84375 42.21875 
Q 46.484375 45.515625 46.484375 51.90625 
Q 46.484375 58.296875 42.84375 61.546875 
Q 39.203125 64.796875 32.078125 64.796875 
z
" id="DejaVuSans-82"/>
       <path d="M 45.40625 46.390625 
L 45.40625 75.984375 
L 54.390625 75.984375 
L 54.390625 0 
L 45.40625 0 
L 45.40625 8.203125 
Q 42.578125 3.328125 38.25 0.953125 
Q 33.9375 -1.421875 27.875 -1.421875 
Q 17.96875 -1.421875 11.734375 6.484375 
Q 5.515625 14.40625 5.515625 27.296875 
Q 5.515625 40.1875 11.734375 48.09375 
Q 17.96875 56 27.875 56 
Q 33.9375 56 38.25 53.625 
Q 42.578125 51.265625 45.40625 46.390625 
z
M 14.796875 27.296875 
Q 14.796875 17.390625 18.875 11.75 
Q 22.953125 6.109375 30.078125 6.109375 
Q 37.203125 6.109375 41.296875 11.75 
Q 45.40625 17.390625 45.40625 27.296875 
Q 45.40625 37.203125 41.296875 42.84375 
Q 37.203125 48.484375 30.078125 48.484375 
Q 22.953125 48.484375 18.875 42.84375 
Q 14.796875 37.203125 14.796875 27.296875 
z
" id="DejaVuSans-100"/>
       <path d="M 53.515625 70.515625 
L 53.515625 60.890625 
Q 47.90625 63.578125 42.921875 64.890625 
Q 37.9375 66.21875 33.296875 66.21875 
Q 25.25 66.21875 20.875 63.09375 
Q 16.5 59.96875 16.5 54.203125 
Q 16.5 49.359375 19.40625 46.890625 
Q 22.3125 44.4375 30.421875 42.921875 
L 36.375 41.703125 
Q 47.40625 39.59375 52.65625 34.296875 
Q 57.90625 29 57.90625 20.125 
Q 57.90625 9.515625 50.796875 4.046875 
Q 43.703125 -1.421875 29.984375 -1.421875 
Q 24.8125 -1.421875 18.96875 -0.25 
Q 13.140625 0.921875 6.890625 3.21875 
L 6.890625 13.375 
Q 12.890625 10.015625 18.65625 8.296875 
Q 24.421875 6.59375 29.984375 6.59375 
Q 38.421875 6.59375 43.015625 9.90625 
Q 47.609375 13.234375 47.609375 19.390625 
Q 47.609375 24.75 44.3125 27.78125 
Q 41.015625 30.8125 33.5 32.328125 
L 27.484375 33.5 
Q 16.453125 35.6875 11.515625 40.375 
Q 6.59375 45.0625 6.59375 53.421875 
Q 6.59375 63.09375 13.40625 68.65625 
Q 20.21875 74.21875 32.171875 74.21875 
Q 37.3125 74.21875 42.625 73.28125 
Q 47.953125 72.359375 53.515625 70.515625 
z
" id="DejaVuSans-83"/>
       <path d="M 59.515625 10.40625 
L 59.515625 29.984375 
L 43.40625 29.984375 
L 43.40625 38.09375 
L 69.28125 38.09375 
L 69.28125 6.78125 
Q 63.578125 2.734375 56.6875 0.65625 
Q 49.8125 -1.421875 42 -1.421875 
Q 24.90625 -1.421875 15.25 8.5625 
Q 5.609375 18.5625 5.609375 36.375 
Q 5.609375 54.25 15.25 64.234375 
Q 24.90625 74.21875 42 74.21875 
Q 49.125 74.21875 55.546875 72.453125 
Q 61.96875 70.703125 67.390625 67.28125 
L 67.390625 56.78125 
Q 61.921875 61.421875 55.765625 63.765625 
Q 49.609375 66.109375 42.828125 66.109375 
Q 29.4375 66.109375 22.71875 58.640625 
Q 16.015625 51.171875 16.015625 36.375 
Q 16.015625 21.625 22.71875 14.15625 
Q 29.4375 6.6875 42.828125 6.6875 
Q 48.046875 6.6875 52.140625 7.59375 
Q 56.25 8.5 59.515625 10.40625 
z
" id="DejaVuSans-71"/>
       <path d="M 19.671875 64.796875 
L 19.671875 8.109375 
L 31.59375 8.109375 
Q 46.6875 8.109375 53.6875 14.9375 
Q 60.6875 21.78125 60.6875 36.53125 
Q 60.6875 51.171875 53.6875 57.984375 
Q 46.6875 64.796875 31.59375 64.796875 
z
M 9.8125 72.90625 
L 30.078125 72.90625 
Q 51.265625 72.90625 61.171875 64.09375 
Q 71.09375 55.28125 71.09375 36.53125 
Q 71.09375 17.671875 61.125 8.828125 
Q 51.171875 0 30.078125 0 
L 9.8125 0 
z
" id="DejaVuSans-68"/>
      </defs>
      <use xlink:href="#DejaVuSans-65"/>
      <use x="68.408203" xlink:href="#DejaVuSans-108"/>
      <use x="96.191406" xlink:href="#DejaVuSans-108"/>
      <use x="123.974609" xlink:href="#DejaVuSans-82"/>
      <use x="188.957031" xlink:href="#DejaVuSans-101"/>
      <use x="250.480469" xlink:href="#DejaVuSans-100"/>
      <use x="313.957031" xlink:href="#DejaVuSans-117"/>
      <use x="377.335938" xlink:href="#DejaVuSans-99"/>
      <use x="432.316406" xlink:href="#DejaVuSans-101"/>
      <use x="493.839844" xlink:href="#DejaVuSans-32"/>
      <use x="525.626953" xlink:href="#DejaVuSans-83"/>
      <use x="589.103516" xlink:href="#DejaVuSans-71"/>
      <use x="666.59375" xlink:href="#DejaVuSans-68"/>
     </g>
    </g>
    <g id="line2d_19">
     <path d="M 332.639062 259.704062 
L 352.639062 259.704062 
" style="fill:none;stroke:#ff7f0e;stroke-linecap:square;stroke-width:1.5;"/>
    </g>
    <g id="line2d_20"/>
    <g id="text_16">
     <!-- QSGD-MN 8 bits -->
     <g transform="translate(360.639062 263.204062)scale(0.1 -0.1)">
      <defs>
       <path d="M 39.40625 66.21875 
Q 28.65625 66.21875 22.328125 58.203125 
Q 16.015625 50.203125 16.015625 36.375 
Q 16.015625 22.609375 22.328125 14.59375 
Q 28.65625 6.59375 39.40625 6.59375 
Q 50.140625 6.59375 56.421875 14.59375 
Q 62.703125 22.609375 62.703125 36.375 
Q 62.703125 50.203125 56.421875 58.203125 
Q 50.140625 66.21875 39.40625 66.21875 
z
M 53.21875 1.3125 
L 66.21875 -12.890625 
L 54.296875 -12.890625 
L 43.5 -1.21875 
Q 41.890625 -1.3125 41.03125 -1.359375 
Q 40.1875 -1.421875 39.40625 -1.421875 
Q 24.03125 -1.421875 14.8125 8.859375 
Q 5.609375 19.140625 5.609375 36.375 
Q 5.609375 53.65625 14.8125 63.9375 
Q 24.03125 74.21875 39.40625 74.21875 
Q 54.734375 74.21875 63.90625 63.9375 
Q 73.09375 53.65625 73.09375 36.375 
Q 73.09375 23.6875 67.984375 14.640625 
Q 62.890625 5.609375 53.21875 1.3125 
z
" id="DejaVuSans-81"/>
       <path d="M 4.890625 31.390625 
L 31.203125 31.390625 
L 31.203125 23.390625 
L 4.890625 23.390625 
z
" id="DejaVuSans-45"/>
       <path d="M 9.8125 72.90625 
L 24.515625 72.90625 
L 43.109375 23.296875 
L 61.8125 72.90625 
L 76.515625 72.90625 
L 76.515625 0 
L 66.890625 0 
L 66.890625 64.015625 
L 48.09375 14.015625 
L 38.1875 14.015625 
L 19.390625 64.015625 
L 19.390625 0 
L 9.8125 0 
z
" id="DejaVuSans-77"/>
       <path d="M 9.8125 72.90625 
L 23.09375 72.90625 
L 55.421875 11.921875 
L 55.421875 72.90625 
L 64.984375 72.90625 
L 64.984375 0 
L 51.703125 0 
L 19.390625 60.984375 
L 19.390625 0 
L 9.8125 0 
z
" id="DejaVuSans-78"/>
       <path d="M 48.6875 27.296875 
Q 48.6875 37.203125 44.609375 42.84375 
Q 40.53125 48.484375 33.40625 48.484375 
Q 26.265625 48.484375 22.1875 42.84375 
Q 18.109375 37.203125 18.109375 27.296875 
Q 18.109375 17.390625 22.1875 11.75 
Q 26.265625 6.109375 33.40625 6.109375 
Q 40.53125 6.109375 44.609375 11.75 
Q 48.6875 17.390625 48.6875 27.296875 
z
M 18.109375 46.390625 
Q 20.953125 51.265625 25.265625 53.625 
Q 29.59375 56 35.59375 56 
Q 45.5625 56 51.78125 48.09375 
Q 58.015625 40.1875 58.015625 27.296875 
Q 58.015625 14.40625 51.78125 6.484375 
Q 45.5625 -1.421875 35.59375 -1.421875 
Q 29.59375 -1.421875 25.265625 0.953125 
Q 20.953125 3.328125 18.109375 8.203125 
L 18.109375 0 
L 9.078125 0 
L 9.078125 75.984375 
L 18.109375 75.984375 
z
" id="DejaVuSans-98"/>
       <path d="M 9.421875 54.6875 
L 18.40625 54.6875 
L 18.40625 0 
L 9.421875 0 
z
M 9.421875 75.984375 
L 18.40625 75.984375 
L 18.40625 64.59375 
L 9.421875 64.59375 
z
" id="DejaVuSans-105"/>
      </defs>
      <use xlink:href="#DejaVuSans-81"/>
      <use x="78.710938" xlink:href="#DejaVuSans-83"/>
      <use x="142.1875" xlink:href="#DejaVuSans-71"/>
      <use x="219.677734" xlink:href="#DejaVuSans-68"/>
      <use x="296.679688" xlink:href="#DejaVuSans-45"/>
      <use x="332.763672" xlink:href="#DejaVuSans-77"/>
      <use x="419.042969" xlink:href="#DejaVuSans-78"/>
      <use x="493.847656" xlink:href="#DejaVuSans-32"/>
      <use x="525.634766" xlink:href="#DejaVuSans-56"/>
      <use x="589.257812" xlink:href="#DejaVuSans-32"/>
      <use x="621.044922" xlink:href="#DejaVuSans-98"/>
      <use x="684.521484" xlink:href="#DejaVuSans-105"/>
      <use x="712.304688" xlink:href="#DejaVuSans-116"/>
      <use x="751.513672" xlink:href="#DejaVuSans-115"/>
     </g>
    </g>
    <g id="line2d_21">
     <path d="M 332.639062 274.382187 
L 352.639062 274.382187 
" style="fill:none;stroke:#2ca02c;stroke-linecap:square;stroke-width:1.5;"/>
    </g>
    <g id="line2d_22"/>
    <g id="text_17">
     <!-- QSGD-MN 4 bits -->
     <g transform="translate(360.639062 277.882187)scale(0.1 -0.1)">
      <use xlink:href="#DejaVuSans-81"/>
      <use x="78.710938" xlink:href="#DejaVuSans-83"/>
      <use x="142.1875" xlink:href="#DejaVuSans-71"/>
      <use x="219.677734" xlink:href="#DejaVuSans-68"/>
      <use x="296.679688" xlink:href="#DejaVuSans-45"/>
      <use x="332.763672" xlink:href="#DejaVuSans-77"/>
      <use x="419.042969" xlink:href="#DejaVuSans-78"/>
      <use x="493.847656" xlink:href="#DejaVuSans-32"/>
      <use x="525.634766" xlink:href="#DejaVuSans-52"/>
      <use x="589.257812" xlink:href="#DejaVuSans-32"/>
      <use x="621.044922" xlink:href="#DejaVuSans-98"/>
      <use x="684.521484" xlink:href="#DejaVuSans-105"/>
      <use x="712.304688" xlink:href="#DejaVuSans-116"/>
      <use x="751.513672" xlink:href="#DejaVuSans-115"/>
     </g>
    </g>
    <g id="line2d_23">
     <path d="M 332.639062 289.060312 
L 352.639062 289.060312 
" style="fill:none;stroke:#d62728;stroke-linecap:square;stroke-width:1.5;"/>
    </g>
    <g id="line2d_24"/>
    <g id="text_18">
     <!-- QSGD-MN 2 bits -->
     <g transform="translate(360.639062 292.560312)scale(0.1 -0.1)">
      <use xlink:href="#DejaVuSans-81"/>
      <use x="78.710938" xlink:href="#DejaVuSans-83"/>
      <use x="142.1875" xlink:href="#DejaVuSans-71"/>
      <use x="219.677734" xlink:href="#DejaVuSans-68"/>
      <use x="296.679688" xlink:href="#DejaVuSans-45"/>
      <use x="332.763672" xlink:href="#DejaVuSans-77"/>
      <use x="419.042969" xlink:href="#DejaVuSans-78"/>
      <use x="493.847656" xlink:href="#DejaVuSans-32"/>
      <use x="525.634766" xlink:href="#DejaVuSans-50"/>
      <use x="589.257812" xlink:href="#DejaVuSans-32"/>
      <use x="621.044922" xlink:href="#DejaVuSans-98"/>
      <use x="684.521484" xlink:href="#DejaVuSans-105"/>
      <use x="712.304688" xlink:href="#DejaVuSans-116"/>
      <use x="751.513672" xlink:href="#DejaVuSans-115"/>
     </g>
    </g>
   </g>
  </g>
 </g>
 <defs>
  <clipPath id="p1b47c40c63">
   <rect height="292.84" width="405.43" x="44.57" y="10.8"/>
  </clipPath>
 </defs>
</svg>
