<?xml version="1.0" encoding="utf-8" standalone="no"?>
<!DOCTYPE svg PUBLIC "-//W3C//DTD SVG 1.1//EN"
  "http://www.w3.org/Graphics/SVG/1.1/DTD/svg11.dtd">
<!-- Created with matplotlib (https://matplotlib.org/) -->
<svg height="345.6pt" version="1.1" viewBox="0 0 460.8 345.6" width="460.8pt" xmlns="http://www.w3.org/2000/svg" xmlns:xlink="http://www.w3.org/1999/xlink">
 <metadata>
  <rdf:RDF xmlns:cc="http://creativecommons.org/ns#" xmlns:dc="http://purl.org/dc/elements/1.1/" xmlns:rdf="http://www.w3.org/1999/02/22-rdf-syntax-ns#">
   <cc:Work>
    <dc:type rdf:resource="http://purl.org/dc/dcmitype/StillImage"/>
    <dc:date>2021-06-10T08:57:25.312721</dc:date>
    <dc:format>image/svg+xml</dc:format>
    <dc:creator>
     <cc:Agent>
      <dc:title>Matplotlib v3.3.1, https://matplotlib.org/</dc:title>
     </cc:Agent>
    </dc:creator>
   </cc:Work>
  </rdf:RDF>
 </metadata>
 <defs>
  <style type="text/css">*{stroke-linecap:butt;stroke-linejoin:round;}</style>
 </defs>
 <g id="figure_1">
  <g id="patch_1">
   <path d="M 0 345.6 
L 460.8 345.6 
L 460.8 0 
L 0 0 
z
" style="fill:#ffffff;"/>
  </g>
  <g id="axes_1">
   <g id="patch_2">
    <path d="M 50.87 303.64 
L 450 303.64 
L 450 10.8 
L 50.87 10.8 
z
" style="fill:#ffffff;"/>
   </g>
   <g id="PolyCollection_1">
    <path clip-path="url(#pfb7b32393f)" d="M 69.012273 196.426154 
L 69.012273 239.749791 
L 71.447477 158.117975 
L 73.882682 103.649217 
L 76.317886 99.581683 
L 78.75309 76.978857 
L 81.188295 59.975033 
L 83.623499 51.103028 
L 86.058703 58.724742 
L 88.493908 45.880784 
L 90.929112 40.273375 
L 93.364317 38.520443 
L 95.799521 42.266312 
L 98.234725 39.721174 
L 100.66993 36.771648 
L 103.105134 33.432497 
L 105.540339 33.606645 
L 107.975543 37.688134 
L 110.410747 35.674526 
L 112.845952 32.909121 
L 115.281156 35.468203 
L 117.716361 34.685879 
L 120.151565 32.137941 
L 122.586769 30.464168 
L 125.021974 30.953097 
L 127.457178 33.05444 
L 129.892383 35.652655 
L 132.327587 33.104905 
L 134.762791 28.838524 
L 137.197996 31.719756 
L 139.6332 30.288713 
L 142.068405 34.092851 
L 144.503609 32.988445 
L 146.938813 29.971693 
L 149.374018 31.761158 
L 151.809222 31.708332 
L 154.244426 32.552199 
L 156.679631 30.159033 
L 159.114835 34.750546 
L 161.55004 31.48676 
L 163.985244 33.806721 
L 166.420448 31.104937 
L 168.855653 30.913583 
L 171.290857 33.480098 
L 173.726062 32.722102 
L 176.161266 32.330345 
L 178.59647 31.018001 
L 181.031675 30.001566 
L 183.466879 31.212019 
L 185.902084 30.815897 
L 188.337288 30.383492 
L 190.772492 30.624786 
L 193.207697 31.119881 
L 195.642901 32.915073 
L 198.078106 31.833403 
L 200.51331 28.083821 
L 202.948514 27.865671 
L 205.383719 29.206555 
L 207.818923 33.206949 
L 210.254128 29.881511 
L 212.689332 28.25912 
L 215.124536 31.100857 
L 217.559741 29.64254 
L 219.994945 29.803813 
L 222.430149 26.713619 
L 224.865354 28.66395 
L 227.300558 30.392813 
L 229.735763 28.965772 
L 232.170967 28.255231 
L 234.606171 29.297861 
L 237.041376 27.565998 
L 239.47658 31.537608 
L 241.911785 28.321524 
L 244.346989 28.083821 
L 246.782193 30.220821 
L 249.217398 28.562807 
L 251.652602 25.631423 
L 254.087807 27.565998 
L 256.523011 29.148151 
L 258.958215 28.547392 
L 261.39342 29.622863 
L 263.828624 26.736245 
L 266.263829 28.562807 
L 268.699033 27.606759 
L 271.134237 26.163332 
L 273.569442 27.938393 
L 276.004646 28.815767 
L 278.439851 27.232903 
L 280.875055 29.176123 
L 283.310259 27.980865 
L 285.745464 28.569137 
L 288.180668 28.571048 
L 290.615872 27.632886 
L 293.051077 27.115064 
L 295.486281 25.631423 
L 297.921486 26.332328 
L 300.35669 26.267323 
L 302.791894 30.385962 
L 305.227099 27.782051 
L 307.662303 28.058706 
L 310.097508 27.606707 
L 312.532712 27.077317 
L 314.967916 27.95789 
L 317.403121 27.370593 
L 319.838325 27.565998 
L 322.27353 27.196861 
L 324.708734 27.433339 
L 327.143938 25.561596 
L 329.579143 27.232903 
L 332.014347 26.736245 
L 334.449552 25.476076 
L 336.884756 26.332328 
L 339.31996 26.700806 
L 341.755165 27.00934 
L 344.190369 25.476076 
L 346.625574 27.618258 
L 349.060778 25.716943 
L 351.495982 26.163332 
L 353.931187 26.80437 
L 356.366391 27.530106 
L 358.801595 27.780122 
L 361.2368 27.530106 
L 363.672004 29.060167 
L 366.107209 25.250903 
L 368.542413 25.250903 
L 370.977617 26.267323 
L 373.412822 26.649023 
L 375.848026 25.631423 
L 378.283231 25.250903 
L 380.718435 25.476076 
L 383.153639 26.163332 
L 385.588844 25.476076 
L 388.024048 26.267323 
L 390.459253 25.250903 
L 392.894457 25.250903 
L 395.329661 25.250903 
L 397.764866 25.476076 
L 400.20007 25.476076 
L 402.635275 25.250903 
L 405.070479 24.784863 
L 407.505683 25.631423 
L 409.940888 25.631423 
L 412.376092 25.476076 
L 414.811297 25.476076 
L 417.246501 25.476076 
L 419.681705 25.631423 
L 422.11691 25.631423 
L 424.552114 25.476076 
L 426.987318 25.476076 
L 429.422523 25.476076 
L 431.857727 25.476076 
L 431.857727 24.715036 
L 431.857727 24.715036 
L 429.422523 24.715036 
L 426.987318 24.715036 
L 424.552114 24.715036 
L 422.11691 24.870383 
L 419.681705 24.870383 
L 417.246501 24.715036 
L 414.811297 24.715036 
L 412.376092 24.715036 
L 409.940888 24.870383 
L 407.505683 24.870383 
L 405.070479 24.784863 
L 402.635275 24.629516 
L 400.20007 24.715036 
L 397.764866 24.715036 
L 395.329661 24.629516 
L 392.894457 24.629516 
L 390.459253 24.629516 
L 388.024048 24.752305 
L 385.588844 24.715036 
L 383.153639 24.545603 
L 380.718435 24.715036 
L 378.283231 24.629516 
L 375.848026 24.870383 
L 373.412822 24.163476 
L 370.977617 24.752305 
L 368.542413 24.629516 
L 366.107209 24.629516 
L 363.672004 24.341444 
L 361.2368 24.110909 
L 358.801595 24.48228 
L 356.366391 24.110909 
L 353.931187 24.111693 
L 351.495982 24.545603 
L 349.060778 25.095556 
L 346.625574 24.333451 
L 344.190369 24.715036 
L 341.755165 24.528111 
L 339.31996 24.836645 
L 336.884756 24.997993 
L 334.449552 24.715036 
L 332.014347 25.111899 
L 329.579143 25.340193 
L 327.143938 25.561596 
L 324.708734 25.657578 
L 322.27353 24.754847 
L 319.838325 25.628484 
L 317.403121 24.995374 
L 314.967916 25.133028 
L 312.532712 24.770827 
L 310.097508 25.277082 
L 307.662303 25.032212 
L 305.227099 25.619561 
L 302.791894 24.776246 
L 300.35669 24.752305 
L 297.921486 24.997993 
L 295.486281 24.870383 
L 293.051077 26.079419 
L 290.615872 26.597241 
L 288.180668 25.037692 
L 285.745464 25.350297 
L 283.310259 26.145698 
L 280.875055 25.778955 
L 278.439851 25.340193 
L 276.004646 25.517925 
L 273.569442 24.841832 
L 271.134237 24.545603 
L 268.699033 24.759207 
L 266.263829 26.081578 
L 263.828624 25.111899 
L 261.39342 25.021522 
L 258.958215 24.750655 
L 256.523011 25.185541 
L 254.087807 25.628484 
L 251.652602 24.870383 
L 249.217398 26.081578 
L 246.782193 25.666338 
L 244.346989 26.146306 
L 241.911785 24.665829 
L 239.47658 28.077872 
L 237.041376 25.628484 
L 234.606171 26.589298 
L 232.170967 25.457073 
L 229.735763 25.989306 
L 227.300558 26.737119 
L 224.865354 26.912516 
L 222.430149 25.445218 
L 219.994945 26.39404 
L 217.559741 26.658876 
L 215.124536 27.375414 
L 212.689332 24.935362 
L 210.254128 25.59139 
L 207.818923 27.54774 
L 205.383719 26.266345 
L 202.948514 25.018118 
L 200.51331 26.146306 
L 198.078106 27.471383 
L 195.642901 26.182585 
L 193.207697 26.527874 
L 190.772492 26.194453 
L 188.337288 28.196343 
L 185.902084 27.038987 
L 183.466879 24.675139 
L 181.031675 25.782028 
L 178.59647 28.493915 
L 176.161266 29.977812 
L 173.726062 26.996943 
L 171.290857 30.277962 
L 168.855653 26.527043 
L 166.420448 26.024996 
L 163.985244 26.947968 
L 161.55004 27.19664 
L 159.114835 27.76474 
L 156.679631 28.731495 
L 154.244426 29.445264 
L 151.809222 27.182197 
L 149.374018 26.715112 
L 146.938813 26.847546 
L 144.503609 28.698325 
L 142.068405 25.108371 
L 139.6332 26.323397 
L 137.197996 28.309983 
L 134.762791 27.359328 
L 132.327587 28.996122 
L 129.892383 28.208969 
L 127.457178 27.907379 
L 125.021974 28.765948 
L 122.586769 27.597845 
L 120.151565 29.238135 
L 117.716361 26.586633 
L 115.281156 30.982533 
L 112.845952 27.120617 
L 110.410747 26.426502 
L 107.975543 29.487553 
L 105.540339 29.737157 
L 103.105134 29.911305 
L 100.66993 29.26483 
L 98.234725 33.875512 
L 95.799521 35.887211 
L 93.364317 35.076243 
L 90.929112 35.498165 
L 88.493908 36.726012 
L 86.058703 45.837724 
L 83.623499 41.653088 
L 81.188295 52.35477 
L 78.75309 64.141873 
L 76.317886 78.925825 
L 73.882682 88.943061 
L 71.447477 102.412604 
L 69.012273 196.426154 
z
" style="fill:#1f77b4;fill-opacity:0.25;"/>
   </g>
   <g id="PolyCollection_2">
    <path clip-path="url(#pfb7b32393f)" d="M 69.012273 271.776373 
L 69.012273 279.459714 
L 71.447477 277.358365 
L 73.882682 272.499771 
L 76.317886 247.72265 
L 78.75309 122.56773 
L 81.188295 128.823279 
L 83.623499 89.269735 
L 86.058703 85.190902 
L 88.493908 66.944681 
L 90.929112 61.076174 
L 93.364317 57.433527 
L 95.799521 54.352898 
L 98.234725 43.55193 
L 100.66993 48.886012 
L 103.105134 40.142063 
L 105.540339 38.380971 
L 107.975543 36.465715 
L 110.410747 39.441359 
L 112.845952 34.589459 
L 115.281156 35.722754 
L 117.716361 40.1989 
L 120.151565 38.355507 
L 122.586769 39.320691 
L 125.021974 37.430634 
L 127.457178 43.902651 
L 129.892383 44.75638 
L 132.327587 29.433685 
L 134.762791 29.774193 
L 137.197996 31.523572 
L 139.6332 36.253753 
L 142.068405 34.649092 
L 144.503609 33.633036 
L 146.938813 29.74231 
L 149.374018 34.139544 
L 151.809222 33.255867 
L 154.244426 37.494105 
L 156.679631 32.35894 
L 159.114835 34.614834 
L 161.55004 30.392813 
L 163.985244 34.82164 
L 166.420448 32.187564 
L 168.855653 30.602281 
L 171.290857 30.52669 
L 173.726062 34.690653 
L 176.161266 36.807866 
L 178.59647 32.878996 
L 181.031675 34.092149 
L 183.466879 32.801382 
L 185.902084 32.423718 
L 188.337288 33.841818 
L 190.772492 29.812588 
L 193.207697 30.522709 
L 195.642901 35.570339 
L 198.078106 33.07187 
L 200.51331 29.515015 
L 202.948514 32.462027 
L 205.383719 30.522709 
L 207.818923 32.137941 
L 210.254128 30.648735 
L 212.689332 28.569137 
L 215.124536 32.187564 
L 217.559741 29.652393 
L 219.994945 29.827243 
L 222.430149 30.277276 
L 224.865354 29.710872 
L 227.300558 29.166326 
L 229.735763 29.515015 
L 232.170967 29.467516 
L 234.606171 33.977463 
L 237.041376 30.915563 
L 239.47658 29.995644 
L 241.911785 30.271973 
L 244.346989 29.74231 
L 246.782193 30.389053 
L 249.217398 28.480387 
L 251.652602 28.562807 
L 254.087807 29.929273 
L 256.523011 27.865671 
L 258.958215 27.606707 
L 261.39342 30.239514 
L 263.828624 29.562409 
L 266.263829 28.40674 
L 268.699033 28.078378 
L 271.134237 28.731367 
L 273.569442 28.35391 
L 276.004646 29.909204 
L 278.439851 28.430674 
L 280.875055 30.445257 
L 283.310259 29.443105 
L 285.745464 27.433339 
L 288.180668 28.527459 
L 290.615872 30.001566 
L 293.051077 26.97253 
L 295.486281 28.480387 
L 297.921486 31.125963 
L 300.35669 27.980865 
L 302.791894 27.043254 
L 305.227099 27.481232 
L 307.662303 27.600634 
L 310.097508 29.289918 
L 312.532712 26.027636 
L 314.967916 28.832478 
L 317.403121 27.00934 
L 319.838325 28.965772 
L 322.27353 28.083821 
L 324.708734 27.433339 
L 327.143938 26.764907 
L 329.579143 26.97253 
L 332.014347 28.832478 
L 334.449552 26.163332 
L 336.884756 25.631423 
L 339.31996 26.700806 
L 341.755165 26.736245 
L 344.190369 25.716943 
L 346.625574 26.858504 
L 349.060778 26.267323 
L 351.495982 26.163332 
L 353.931187 26.736245 
L 356.366391 26.97253 
L 358.801595 26.700806 
L 361.2368 26.163332 
L 363.672004 25.476076 
L 366.107209 26.027636 
L 368.542413 27.938393 
L 370.977617 27.370593 
L 373.412822 27.043254 
L 375.848026 25.631423 
L 378.283231 27.00934 
L 380.718435 27.33148 
L 383.153639 27.827788 
L 385.588844 25.250903 
L 388.024048 25.250903 
L 390.459253 25.631423 
L 392.894457 24.784863 
L 395.329661 26.163332 
L 397.764866 25.476076 
L 400.20007 25.476076 
L 402.635275 25.631423 
L 405.070479 25.476076 
L 407.505683 25.476076 
L 409.940888 25.476076 
L 412.376092 25.631423 
L 414.811297 25.631423 
L 417.246501 25.250903 
L 419.681705 25.631423 
L 422.11691 25.631423 
L 424.552114 25.631423 
L 426.987318 25.631423 
L 429.422523 25.631423 
L 431.857727 25.476076 
L 431.857727 24.715036 
L 431.857727 24.715036 
L 429.422523 24.870383 
L 426.987318 24.870383 
L 424.552114 24.870383 
L 422.11691 24.870383 
L 419.681705 24.870383 
L 417.246501 24.629516 
L 414.811297 24.870383 
L 412.376092 24.870383 
L 409.940888 24.715036 
L 407.505683 24.715036 
L 405.070479 24.715036 
L 402.635275 24.870383 
L 400.20007 24.715036 
L 397.764866 24.715036 
L 395.329661 24.545603 
L 392.894457 24.784863 
L 390.459253 24.870383 
L 388.024048 24.629516 
L 385.588844 24.629516 
L 383.153639 24.331049 
L 380.718435 24.723793 
L 378.283231 24.528111 
L 375.848026 24.870383 
L 373.412822 25.322712 
L 370.977617 24.995374 
L 368.542413 24.841832 
L 366.107209 24.370605 
L 363.672004 24.715036 
L 361.2368 24.545603 
L 358.801595 24.836645 
L 356.366391 25.70413 
L 353.931187 25.111899 
L 351.495982 24.545603 
L 349.060778 24.752305 
L 346.625574 24.575382 
L 344.190369 25.095556 
L 341.755165 25.111899 
L 339.31996 24.836645 
L 336.884756 24.870383 
L 334.449552 24.545603 
L 332.014347 26.329729 
L 329.579143 25.70413 
L 327.143938 24.358286 
L 324.708734 25.657578 
L 322.27353 26.146306 
L 319.838325 25.989306 
L 317.403121 24.528111 
L 314.967916 26.329729 
L 312.532712 24.370605 
L 310.097508 24.318822 
L 307.662303 24.972462 
L 305.227099 25.298993 
L 302.791894 25.322712 
L 300.35669 26.145698 
L 297.921486 26.003969 
L 295.486281 26.060433 
L 293.051077 25.70413 
L 290.615872 25.782028 
L 288.180668 26.634749 
L 285.745464 25.657578 
L 283.310259 26.961876 
L 280.875055 25.441902 
L 278.439851 24.970938 
L 276.004646 26.081519 
L 273.569442 24.944137 
L 271.134237 25.809453 
L 268.699033 24.184023 
L 266.263829 25.616258 
L 263.828624 25.599798 
L 261.39342 24.404871 
L 258.958215 25.277082 
L 256.523011 25.018118 
L 254.087807 27.822047 
L 251.652602 26.081578 
L 249.217398 26.060433 
L 246.782193 28.087218 
L 244.346989 27.594751 
L 241.911785 25.822315 
L 239.47658 28.480627 
L 237.041376 27.871401 
L 234.606171 25.94871 
L 232.170967 24.866175 
L 229.735763 27.407789 
L 227.300558 27.445784 
L 224.865354 26.901238 
L 222.430149 26.438399 
L 219.994945 26.370609 
L 217.559741 29.031006 
L 215.124536 29.706335 
L 212.689332 25.350297 
L 210.254128 27.413278 
L 207.818923 27.581104 
L 205.383719 26.503659 
L 202.948514 26.842759 
L 200.51331 27.407789 
L 198.078106 30.168368 
L 195.642901 26.841382 
L 193.207697 26.503659 
L 190.772492 26.488829 
L 188.337288 29.501984 
L 185.902084 27.606021 
L 183.466879 27.849743 
L 181.031675 26.766105 
L 178.59647 29.532725 
L 176.161266 30.885644 
L 173.726062 33.106421 
L 171.290857 29.192355 
L 168.855653 27.87399 
L 166.420448 29.706335 
L 163.985244 29.454242 
L 161.55004 26.737119 
L 159.114835 31.525209 
L 156.679631 29.638523 
L 154.244426 29.16376 
L 151.809222 28.741596 
L 149.374018 29.514952 
L 146.938813 27.594751 
L 144.503609 27.535911 
L 142.068405 32.319467 
L 139.6332 29.368467 
L 137.197996 30.370327 
L 134.762791 25.491579 
L 132.327587 27.592683 
L 129.892383 30.08308 
L 127.457178 30.936808 
L 125.021974 28.812973 
L 122.586769 31.997576 
L 120.151565 30.373648 
L 117.716361 32.362141 
L 115.281156 30.727982 
L 112.845952 27.925827 
L 110.410747 33.119682 
L 107.975543 33.920472 
L 105.540339 33.662247 
L 103.105134 36.043735 
L 100.66993 33.306526 
L 98.234725 38.019221 
L 95.799521 40.060249 
L 93.364317 40.293683 
L 90.929112 49.078775 
L 88.493908 50.977604 
L 86.058703 51.580119 
L 83.623499 72.978149 
L 81.188295 94.838344 
L 78.75309 103.475876 
L 76.317886 139.467294 
L 73.882682 199.198792 
L 71.447477 252.647002 
L 69.012273 271.776373 
z
" style="fill:#ff7f0e;fill-opacity:0.25;"/>
   </g>
   <g id="PolyCollection_3">
    <path clip-path="url(#pfb7b32393f)" d="M 69.012273 265.758364 
L 69.012273 269.218099 
L 71.447477 254.469964 
L 73.882682 245.342316 
L 76.317886 121.806075 
L 78.75309 97.671048 
L 81.188295 94.244993 
L 83.623499 81.836318 
L 86.058703 69.248337 
L 88.493908 47.529928 
L 90.929112 52.50769 
L 93.364317 43.972144 
L 95.799521 41.31433 
L 98.234725 40.964794 
L 100.66993 38.874806 
L 103.105134 36.360078 
L 105.540339 38.882533 
L 107.975543 36.220583 
L 110.410747 39.02697 
L 112.845952 34.908184 
L 115.281156 35.005648 
L 117.716361 39.910453 
L 120.151565 38.983195 
L 122.586769 38.409435 
L 125.021974 31.361207 
L 127.457178 33.413013 
L 129.892383 32.391661 
L 132.327587 32.545716 
L 134.762791 30.389053 
L 137.197996 30.392813 
L 139.6332 33.286831 
L 142.068405 35.479645 
L 144.503609 32.86735 
L 146.938813 30.602281 
L 149.374018 29.206555 
L 151.809222 30.7868 
L 154.244426 30.038047 
L 156.679631 31.93635 
L 159.114835 32.841995 
L 161.55004 31.964347 
L 163.985244 34.056005 
L 166.420448 31.460844 
L 168.855653 30.656652 
L 171.290857 31.460844 
L 173.726062 31.30707 
L 176.161266 33.998177 
L 178.59647 32.225271 
L 181.031675 31.813945 
L 183.466879 27.898815 
L 185.902084 32.364275 
L 188.337288 29.715737 
L 190.772492 29.026289 
L 193.207697 27.980865 
L 195.642901 32.207432 
L 198.078106 29.279935 
L 200.51331 29.614265 
L 202.948514 28.90463 
L 205.383719 29.19305 
L 207.818923 29.778643 
L 210.254128 29.038745 
L 212.689332 29.785192 
L 215.124536 29.785974 
L 217.559741 34.000503 
L 219.994945 28.144446 
L 222.430149 27.33148 
L 224.865354 30.262201 
L 227.300558 28.902727 
L 229.735763 29.194936 
L 232.170967 32.948049 
L 234.606171 28.014038 
L 237.041376 29.136922 
L 239.47658 28.727895 
L 241.911785 28.087033 
L 244.346989 28.957458 
L 246.782193 27.33148 
L 249.217398 27.565998 
L 251.652602 28.40962 
L 254.087807 28.494571 
L 256.523011 29.179868 
L 258.958215 28.25912 
L 261.39342 29.259463 
L 263.828624 27.893415 
L 266.263829 29.221237 
L 268.699033 27.600634 
L 271.134237 27.663744 
L 273.569442 27.565998 
L 276.004646 26.713619 
L 278.439851 28.953134 
L 280.875055 28.144446 
L 283.310259 26.700806 
L 285.745464 28.65179 
L 288.180668 26.713619 
L 290.615872 28.438914 
L 293.051077 28.128619 
L 295.486281 26.267323 
L 297.921486 28.524005 
L 300.35669 29.137726 
L 302.791894 27.481232 
L 305.227099 28.562807 
L 307.662303 27.115064 
L 310.097508 28.562807 
L 312.532712 26.97253 
L 314.967916 26.332328 
L 317.403121 27.373975 
L 319.838325 28.571048 
L 322.27353 27.893415 
L 324.708734 25.716943 
L 327.143938 27.565998 
L 329.579143 28.144446 
L 332.014347 27.370593 
L 334.449552 27.618258 
L 336.884756 26.736245 
L 339.31996 28.35391 
L 341.755165 25.476076 
L 344.190369 26.332328 
L 346.625574 27.370593 
L 349.060778 25.631423 
L 351.495982 26.736245 
L 353.931187 26.332328 
L 356.366391 26.736245 
L 358.801595 26.713619 
L 361.2368 27.234539 
L 363.672004 27.865671 
L 366.107209 27.042357 
L 368.542413 27.373975 
L 370.977617 27.370593 
L 373.412822 27.782051 
L 375.848026 27.196861 
L 378.283231 28.191655 
L 380.718435 27.663744 
L 383.153639 27.600634 
L 385.588844 26.267323 
L 388.024048 27.265607 
L 390.459253 27.265607 
L 392.894457 25.716943 
L 395.329661 27.130506 
L 397.764866 27.265607 
L 400.20007 27.043254 
L 402.635275 26.736245 
L 405.070479 26.267323 
L 407.505683 27.042357 
L 409.940888 26.267323 
L 412.376092 26.700806 
L 414.811297 26.700806 
L 417.246501 26.700806 
L 419.681705 27.600634 
L 422.11691 27.265607 
L 424.552114 27.33148 
L 426.987318 27.042357 
L 429.422523 27.938393 
L 431.857727 27.893415 
L 431.857727 24.576116 
L 431.857727 24.576116 
L 429.422523 24.841832 
L 426.987318 25.012916 
L 424.552114 24.723793 
L 422.11691 24.478972 
L 419.681705 24.972462 
L 417.246501 24.836645 
L 414.811297 24.836645 
L 412.376092 24.836645 
L 409.940888 24.752305 
L 407.505683 25.012916 
L 405.070479 24.752305 
L 402.635275 25.111899 
L 400.20007 25.322712 
L 397.764866 24.478972 
L 395.329661 24.510509 
L 392.894457 25.095556 
L 390.459253 24.478972 
L 388.024048 24.478972 
L 385.588844 24.752305 
L 383.153639 24.972462 
L 380.718435 25.634303 
L 378.283231 25.727778 
L 375.848026 24.754847 
L 373.412822 25.619561 
L 370.977617 24.995374 
L 368.542413 25.302685 
L 366.107209 25.012916 
L 363.672004 25.018118 
L 361.2368 25.027862 
L 358.801595 25.445218 
L 356.366391 25.111899 
L 353.931187 24.997993 
L 351.495982 25.111899 
L 349.060778 24.870383 
L 346.625574 24.995374 
L 344.190369 24.997993 
L 341.755165 24.715036 
L 339.31996 24.944137 
L 336.884756 25.111899 
L 334.449552 24.333451 
L 332.014347 24.995374 
L 329.579143 25.153601 
L 327.143938 25.628484 
L 324.708734 25.095556 
L 322.27353 24.576116 
L 319.838325 25.037692 
L 317.403121 25.302685 
L 314.967916 24.997993 
L 312.532712 25.70413 
L 310.097508 26.081578 
L 307.662303 25.043774 
L 305.227099 26.081578 
L 302.791894 25.298993 
L 300.35669 24.885272 
L 297.921486 25.291864 
L 295.486281 24.752305 
L 293.051077 25.480121 
L 290.615872 25.48052 
L 288.180668 25.445218 
L 285.745464 25.785466 
L 283.310259 24.836645 
L 280.875055 25.153601 
L 278.439851 25.587687 
L 276.004646 25.445218 
L 273.569442 25.628484 
L 271.134237 25.634303 
L 268.699033 24.972462 
L 266.263829 25.112454 
L 263.828624 24.576116 
L 261.39342 25.592051 
L 258.958215 24.935362 
L 256.523011 25.878775 
L 254.087807 25.631992 
L 251.652602 26.33833 
L 249.217398 25.628484 
L 246.782193 24.723793 
L 244.346989 26.515443 
L 241.911785 26.97161 
L 239.47658 26.952134 
L 237.041376 26.853801 
L 234.606171 25.698266 
L 232.170967 28.013769 
L 229.735763 27.624303 
L 227.300558 24.913142 
L 224.865354 28.421199 
L 222.430149 24.723793 
L 219.994945 25.153601 
L 217.559741 25.614977 
L 215.124536 27.343959 
L 212.689332 25.169886 
L 210.254128 26.951978 
L 207.818923 24.555049 
L 205.383719 26.383416 
L 202.948514 25.63619 
L 200.51331 26.065765 
L 198.078106 25.260886 
L 195.642901 26.890226 
L 193.207697 26.145698 
L 190.772492 26.757305 
L 188.337288 26.689244 
L 185.902084 27.458334 
L 183.466879 26.74557 
L 181.031675 27.594407 
L 178.59647 27.286645 
L 176.161266 27.170771 
L 173.726062 27.894153 
L 171.290857 28.051071 
L 168.855653 27.61249 
L 166.420448 28.051071 
L 163.985244 27.734329 
L 161.55004 27.133311 
L 159.114835 27.602001 
L 156.679631 29.025469 
L 154.244426 27.816837 
L 151.809222 28.000165 
L 149.374018 26.266345 
L 146.938813 27.87399 
L 144.503609 29.855065 
L 142.068405 29.728318 
L 139.6332 29.953406 
L 137.197996 26.737119 
L 134.762791 28.087218 
L 132.327587 28.416103 
L 129.892383 30.330754 
L 127.457178 27.65237 
L 125.021974 27.840015 
L 122.586769 28.766252 
L 120.151565 31.195862 
L 117.716361 29.025831 
L 115.281156 28.855976 
L 112.845952 28.642747 
L 110.410747 32.291297 
L 107.975543 32.612137 
L 105.540339 35.12841 
L 103.105134 31.022738 
L 100.66993 33.168412 
L 98.234725 35.324569 
L 95.799521 35.907113 
L 93.364317 38.841781 
L 90.929112 40.973377 
L 88.493908 42.222817 
L 86.058703 50.848802 
L 83.623499 56.902429 
L 81.188295 63.342489 
L 78.75309 85.91112 
L 76.317886 116.665269 
L 73.882682 194.665515 
L 71.447477 252.440523 
L 69.012273 265.758364 
z
" style="fill:#2ca02c;fill-opacity:0.25;"/>
   </g>
   <g id="PolyCollection_4">
    <path clip-path="url(#pfb7b32393f)" d="M 69.012273 249.204209 
L 69.012273 290.329091 
L 71.447477 144.630561 
L 73.882682 123.380339 
L 76.317886 89.562382 
L 78.75309 88.479581 
L 81.188295 69.713089 
L 83.623499 65.535464 
L 86.058703 59.829345 
L 88.493908 60.608016 
L 90.929112 53.251757 
L 93.364317 58.522228 
L 95.799521 51.996926 
L 98.234725 52.433228 
L 100.66993 51.586486 
L 103.105134 50.715483 
L 105.540339 51.556282 
L 107.975543 54.270442 
L 110.410747 63.233885 
L 112.845952 45.512971 
L 115.281156 52.204221 
L 117.716361 43.753789 
L 120.151565 64.662736 
L 122.586769 52.627255 
L 125.021974 46.308553 
L 127.457178 43.804857 
L 129.892383 50.540726 
L 132.327587 47.674832 
L 134.762791 52.213237 
L 137.197996 50.408433 
L 139.6332 53.175776 
L 142.068405 48.565334 
L 144.503609 48.757535 
L 146.938813 47.760378 
L 149.374018 41.038149 
L 151.809222 48.172843 
L 154.244426 47.249933 
L 156.679631 47.030311 
L 159.114835 45.986029 
L 161.55004 43.753789 
L 163.985244 50.338446 
L 166.420448 48.978131 
L 168.855653 42.912342 
L 171.290857 45.702445 
L 173.726062 45.603481 
L 176.161266 45.16669 
L 178.59647 48.091955 
L 181.031675 41.716217 
L 183.466879 49.990274 
L 185.902084 42.3937 
L 188.337288 41.09483 
L 190.772492 40.058524 
L 193.207697 42.346361 
L 195.642901 46.362487 
L 198.078106 40.503852 
L 200.51331 48.026591 
L 202.948514 40.847056 
L 205.383719 40.427947 
L 207.818923 41.824596 
L 210.254128 42.590099 
L 212.689332 47.056978 
L 215.124536 42.272044 
L 217.559741 38.624996 
L 219.994945 41.326613 
L 222.430149 41.49795 
L 224.865354 43.997369 
L 227.300558 43.546539 
L 229.735763 39.769434 
L 232.170967 44.712385 
L 234.606171 38.168779 
L 237.041376 40.62193 
L 239.47658 44.812591 
L 241.911785 38.324126 
L 244.346989 37.148115 
L 246.782193 38.444254 
L 249.217398 38.043704 
L 251.652602 41.832704 
L 254.087807 36.973719 
L 256.523011 39.468075 
L 258.958215 36.501519 
L 261.39342 36.890667 
L 263.828624 38.431571 
L 266.263829 34.068896 
L 268.699033 36.277508 
L 271.134237 33.479476 
L 273.569442 34.134078 
L 276.004646 35.744976 
L 278.439851 35.616803 
L 280.875055 35.589523 
L 283.310259 34.934182 
L 285.745464 34.975202 
L 288.180668 32.377201 
L 290.615872 35.043284 
L 293.051077 31.769464 
L 295.486281 32.663957 
L 297.921486 34.622023 
L 300.35669 35.159327 
L 302.791894 32.555891 
L 305.227099 32.144731 
L 307.662303 32.406786 
L 310.097508 33.765928 
L 312.532712 31.8669 
L 314.967916 30.598748 
L 317.403121 31.601505 
L 319.838325 31.837989 
L 322.27353 33.567618 
L 324.708734 30.438808 
L 327.143938 30.878824 
L 329.579143 29.459911 
L 332.014347 29.74231 
L 334.449552 30.79419 
L 336.884756 31.400625 
L 339.31996 30.08935 
L 341.755165 29.906118 
L 344.190369 29.971693 
L 346.625574 30.567877 
L 349.060778 30.815897 
L 351.495982 29.297861 
L 353.931187 30.443402 
L 356.366391 30.004344 
L 358.801595 28.480387 
L 361.2368 30.243682 
L 363.672004 29.720087 
L 366.107209 29.136922 
L 368.542413 28.92406 
L 370.977617 28.524005 
L 373.412822 29.082789 
L 375.848026 28.527459 
L 378.283231 29.346486 
L 380.718435 28.66395 
L 383.153639 28.92406 
L 385.588844 27.777771 
L 388.024048 27.115064 
L 390.459253 27.795971 
L 392.894457 28.40674 
L 395.329661 28.40674 
L 397.764866 27.481232 
L 400.20007 28.407264 
L 402.635275 27.73645 
L 405.070479 28.679585 
L 407.505683 27.9849 
L 409.940888 27.232903 
L 412.376092 27.980865 
L 414.811297 28.562807 
L 417.246501 28.128619 
L 419.681705 28.237266 
L 422.11691 27.95789 
L 424.552114 28.727895 
L 426.987318 28.929793 
L 429.422523 27.95789 
L 431.857727 28.128619 
L 431.857727 25.480121 
L 431.857727 25.480121 
L 429.422523 25.133028 
L 426.987318 26.646672 
L 424.552114 26.952134 
L 422.11691 25.133028 
L 419.681705 25.889297 
L 417.246501 25.480121 
L 414.811297 26.081578 
L 412.376092 26.145698 
L 409.940888 25.340193 
L 407.505683 26.970179 
L 405.070479 25.757671 
L 402.635275 24.836645 
L 400.20007 24.994347 
L 397.764866 25.298993 
L 395.329661 25.616258 
L 392.894457 25.616258 
L 390.459253 25.709205 
L 388.024048 26.079419 
L 385.588844 26.76305 
L 383.153639 26.548841 
L 380.718435 26.912516 
L 378.283231 26.540672 
L 375.848026 26.634749 
L 373.412822 26.80437 
L 370.977617 25.291864 
L 368.542413 26.548841 
L 366.107209 26.853801 
L 363.672004 27.51341 
L 361.2368 26.264864 
L 358.801595 26.060433 
L 356.366391 26.193508 
L 353.931187 28.550692 
L 351.495982 26.589298 
L 349.060778 27.038987 
L 346.625574 28.322652 
L 344.190369 26.847546 
L 341.755165 26.809557 
L 339.31996 26.52276 
L 336.884756 27.075646 
L 334.449552 26.646436 
L 332.014347 27.594751 
L 329.579143 27.980715 
L 327.143938 29.254479 
L 324.708734 27.105383 
L 322.27353 28.947667 
L 319.838325 29.330958 
L 317.403121 28.738926 
L 314.967916 28.706038 
L 312.532712 28.784225 
L 310.097508 31.856293 
L 307.662303 28.347904 
L 305.227099 30.163426 
L 302.791894 30.373652 
L 300.35669 29.634378 
L 297.921486 29.136037 
L 295.486281 28.401426 
L 293.051077 30.435129 
L 290.615872 32.132403 
L 288.180668 30.759472 
L 285.745464 30.750583 
L 283.310259 31.620119 
L 280.875055 30.343391 
L 278.439851 31.351756 
L 276.004646 31.223583 
L 273.569442 30.141804 
L 271.134237 30.692841 
L 268.699033 31.83026 
L 266.263829 31.553324 
L 263.828624 33.611648 
L 261.39342 30.699278 
L 258.958215 33.781103 
L 256.523011 34.232175 
L 254.087807 33.205338 
L 251.652602 36.217255 
L 249.217398 33.89595 
L 246.782193 33.391835 
L 244.346989 32.305991 
L 241.911785 34.961867 
L 239.47658 33.651626 
L 237.041376 35.460303 
L 234.606171 34.80652 
L 232.170967 37.894411 
L 229.735763 36.312799 
L 227.300558 36.056886 
L 224.865354 35.709621 
L 222.430149 38.312605 
L 219.994945 35.066314 
L 217.559741 36.732286 
L 215.124536 36.295736 
L 212.689332 33.996351 
L 210.254128 35.770553 
L 207.818923 34.671895 
L 205.383719 37.104189 
L 202.948514 32.542501 
L 200.51331 35.098027 
L 198.078106 37.235412 
L 195.642901 39.661937 
L 193.207697 36.842807 
L 190.772492 36.230839 
L 188.337288 37.369386 
L 185.902084 37.727548 
L 183.466879 37.173359 
L 181.031675 37.990773 
L 178.59647 36.482566 
L 176.161266 38.475751 
L 173.726062 38.142524 
L 171.290857 40.218414 
L 168.855653 39.280195 
L 166.420448 36.7356 
L 163.985244 38.378654 
L 161.55004 39.060135 
L 159.114835 38.484928 
L 156.679631 39.615499 
L 154.244426 38.98162 
L 151.809222 39.197919 
L 149.374018 36.390422 
L 146.938813 38.781868 
L 144.503609 35.920551 
L 142.068405 40.566025 
L 139.6332 38.855388 
L 137.197996 42.036989 
L 134.762791 43.960506 
L 132.327587 40.420881 
L 129.892383 42.111824 
L 127.457178 41.59818 
L 125.021974 41.78716 
L 122.586769 43.028666 
L 120.151565 41.453198 
L 117.716361 39.060135 
L 115.281156 45.108731 
L 112.845952 41.443533 
L 110.410747 41.432146 
L 107.975543 44.388849 
L 105.540339 43.478252 
L 103.105134 42.869149 
L 100.66993 43.03379 
L 98.234725 43.636951 
L 95.799521 42.519785 
L 93.364317 41.69053 
L 90.929112 42.611293 
L 88.493908 39.501178 
L 86.058703 48.979266 
L 83.623499 52.283256 
L 81.188295 54.008807 
L 78.75309 60.201356 
L 76.317886 72.685502 
L 73.882682 97.692172 
L 71.447477 113.310907 
L 69.012273 249.204209 
z
" style="fill:#d62728;fill-opacity:0.25;"/>
   </g>
   <g id="matplotlib.axis_1">
    <g id="xtick_1">
     <g id="line2d_1">
      <defs>
       <path d="M 0 0 
L 0 3.5 
" id="mce3afdbcf7" style="stroke:#000000;stroke-width:0.8;"/>
      </defs>
      <g>
       <use style="stroke:#000000;stroke-width:0.8;" x="69.012273" xlink:href="#mce3afdbcf7" y="303.64"/>
      </g>
     </g>
     <g id="text_1">
      <!-- 0 -->
      <g transform="translate(65.831023 318.238437)scale(0.1 -0.1)">
       <defs>
        <path d="M 31.78125 66.40625 
Q 24.171875 66.40625 20.328125 58.90625 
Q 16.5 51.421875 16.5 36.375 
Q 16.5 21.390625 20.328125 13.890625 
Q 24.171875 6.390625 31.78125 6.390625 
Q 39.453125 6.390625 43.28125 13.890625 
Q 47.125 21.390625 47.125 36.375 
Q 47.125 51.421875 43.28125 58.90625 
Q 39.453125 66.40625 31.78125 66.40625 
z
M 31.78125 74.21875 
Q 44.046875 74.21875 50.515625 64.515625 
Q 56.984375 54.828125 56.984375 36.375 
Q 56.984375 17.96875 50.515625 8.265625 
Q 44.046875 -1.421875 31.78125 -1.421875 
Q 19.53125 -1.421875 13.0625 8.265625 
Q 6.59375 17.96875 6.59375 36.375 
Q 6.59375 54.828125 13.0625 64.515625 
Q 19.53125 74.21875 31.78125 74.21875 
z
" id="DejaVuSans-48"/>
       </defs>
       <use xlink:href="#DejaVuSans-48"/>
      </g>
     </g>
    </g>
    <g id="xtick_2">
     <g id="line2d_2">
      <g>
       <use style="stroke:#000000;stroke-width:0.8;" x="117.716361" xlink:href="#mce3afdbcf7" y="303.64"/>
      </g>
     </g>
     <g id="text_2">
      <!-- 20 -->
      <g transform="translate(111.353861 318.238437)scale(0.1 -0.1)">
       <defs>
        <path d="M 19.1875 8.296875 
L 53.609375 8.296875 
L 53.609375 0 
L 7.328125 0 
L 7.328125 8.296875 
Q 12.9375 14.109375 22.625 23.890625 
Q 32.328125 33.6875 34.8125 36.53125 
Q 39.546875 41.84375 41.421875 45.53125 
Q 43.3125 49.21875 43.3125 52.78125 
Q 43.3125 58.59375 39.234375 62.25 
Q 35.15625 65.921875 28.609375 65.921875 
Q 23.96875 65.921875 18.8125 64.3125 
Q 13.671875 62.703125 7.8125 59.421875 
L 7.8125 69.390625 
Q 13.765625 71.78125 18.9375 73 
Q 24.125 74.21875 28.421875 74.21875 
Q 39.75 74.21875 46.484375 68.546875 
Q 53.21875 62.890625 53.21875 53.421875 
Q 53.21875 48.921875 51.53125 44.890625 
Q 49.859375 40.875 45.40625 35.40625 
Q 44.1875 33.984375 37.640625 27.21875 
Q 31.109375 20.453125 19.1875 8.296875 
z
" id="DejaVuSans-50"/>
       </defs>
       <use xlink:href="#DejaVuSans-50"/>
       <use x="63.623047" xlink:href="#DejaVuSans-48"/>
      </g>
     </g>
    </g>
    <g id="xtick_3">
     <g id="line2d_3">
      <g>
       <use style="stroke:#000000;stroke-width:0.8;" x="166.420448" xlink:href="#mce3afdbcf7" y="303.64"/>
      </g>
     </g>
     <g id="text_3">
      <!-- 40 -->
      <g transform="translate(160.057948 318.238437)scale(0.1 -0.1)">
       <defs>
        <path d="M 37.796875 64.3125 
L 12.890625 25.390625 
L 37.796875 25.390625 
z
M 35.203125 72.90625 
L 47.609375 72.90625 
L 47.609375 25.390625 
L 58.015625 25.390625 
L 58.015625 17.1875 
L 47.609375 17.1875 
L 47.609375 0 
L 37.796875 0 
L 37.796875 17.1875 
L 4.890625 17.1875 
L 4.890625 26.703125 
z
" id="DejaVuSans-52"/>
       </defs>
       <use xlink:href="#DejaVuSans-52"/>
       <use x="63.623047" xlink:href="#DejaVuSans-48"/>
      </g>
     </g>
    </g>
    <g id="xtick_4">
     <g id="line2d_4">
      <g>
       <use style="stroke:#000000;stroke-width:0.8;" x="215.124536" xlink:href="#mce3afdbcf7" y="303.64"/>
      </g>
     </g>
     <g id="text_4">
      <!-- 60 -->
      <g transform="translate(208.762036 318.238437)scale(0.1 -0.1)">
       <defs>
        <path d="M 33.015625 40.375 
Q 26.375 40.375 22.484375 35.828125 
Q 18.609375 31.296875 18.609375 23.390625 
Q 18.609375 15.53125 22.484375 10.953125 
Q 26.375 6.390625 33.015625 6.390625 
Q 39.65625 6.390625 43.53125 10.953125 
Q 47.40625 15.53125 47.40625 23.390625 
Q 47.40625 31.296875 43.53125 35.828125 
Q 39.65625 40.375 33.015625 40.375 
z
M 52.59375 71.296875 
L 52.59375 62.3125 
Q 48.875 64.0625 45.09375 64.984375 
Q 41.3125 65.921875 37.59375 65.921875 
Q 27.828125 65.921875 22.671875 59.328125 
Q 17.53125 52.734375 16.796875 39.40625 
Q 19.671875 43.65625 24.015625 45.921875 
Q 28.375 48.1875 33.59375 48.1875 
Q 44.578125 48.1875 50.953125 41.515625 
Q 57.328125 34.859375 57.328125 23.390625 
Q 57.328125 12.15625 50.6875 5.359375 
Q 44.046875 -1.421875 33.015625 -1.421875 
Q 20.359375 -1.421875 13.671875 8.265625 
Q 6.984375 17.96875 6.984375 36.375 
Q 6.984375 53.65625 15.1875 63.9375 
Q 23.390625 74.21875 37.203125 74.21875 
Q 40.921875 74.21875 44.703125 73.484375 
Q 48.484375 72.75 52.59375 71.296875 
z
" id="DejaVuSans-54"/>
       </defs>
       <use xlink:href="#DejaVuSans-54"/>
       <use x="63.623047" xlink:href="#DejaVuSans-48"/>
      </g>
     </g>
    </g>
    <g id="xtick_5">
     <g id="line2d_5">
      <g>
       <use style="stroke:#000000;stroke-width:0.8;" x="263.828624" xlink:href="#mce3afdbcf7" y="303.64"/>
      </g>
     </g>
     <g id="text_5">
      <!-- 80 -->
      <g transform="translate(257.466124 318.238437)scale(0.1 -0.1)">
       <defs>
        <path d="M 31.78125 34.625 
Q 24.75 34.625 20.71875 30.859375 
Q 16.703125 27.09375 16.703125 20.515625 
Q 16.703125 13.921875 20.71875 10.15625 
Q 24.75 6.390625 31.78125 6.390625 
Q 38.8125 6.390625 42.859375 10.171875 
Q 46.921875 13.96875 46.921875 20.515625 
Q 46.921875 27.09375 42.890625 30.859375 
Q 38.875 34.625 31.78125 34.625 
z
M 21.921875 38.8125 
Q 15.578125 40.375 12.03125 44.71875 
Q 8.5 49.078125 8.5 55.328125 
Q 8.5 64.0625 14.71875 69.140625 
Q 20.953125 74.21875 31.78125 74.21875 
Q 42.671875 74.21875 48.875 69.140625 
Q 55.078125 64.0625 55.078125 55.328125 
Q 55.078125 49.078125 51.53125 44.71875 
Q 48 40.375 41.703125 38.8125 
Q 48.828125 37.15625 52.796875 32.3125 
Q 56.78125 27.484375 56.78125 20.515625 
Q 56.78125 9.90625 50.3125 4.234375 
Q 43.84375 -1.421875 31.78125 -1.421875 
Q 19.734375 -1.421875 13.25 4.234375 
Q 6.78125 9.90625 6.78125 20.515625 
Q 6.78125 27.484375 10.78125 32.3125 
Q 14.796875 37.15625 21.921875 38.8125 
z
M 18.3125 54.390625 
Q 18.3125 48.734375 21.84375 45.5625 
Q 25.390625 42.390625 31.78125 42.390625 
Q 38.140625 42.390625 41.71875 45.5625 
Q 45.3125 48.734375 45.3125 54.390625 
Q 45.3125 60.0625 41.71875 63.234375 
Q 38.140625 66.40625 31.78125 66.40625 
Q 25.390625 66.40625 21.84375 63.234375 
Q 18.3125 60.0625 18.3125 54.390625 
z
" id="DejaVuSans-56"/>
       </defs>
       <use xlink:href="#DejaVuSans-56"/>
       <use x="63.623047" xlink:href="#DejaVuSans-48"/>
      </g>
     </g>
    </g>
    <g id="xtick_6">
     <g id="line2d_6">
      <g>
       <use style="stroke:#000000;stroke-width:0.8;" x="312.532712" xlink:href="#mce3afdbcf7" y="303.64"/>
      </g>
     </g>
     <g id="text_6">
      <!-- 100 -->
      <g transform="translate(302.988962 318.238437)scale(0.1 -0.1)">
       <defs>
        <path d="M 12.40625 8.296875 
L 28.515625 8.296875 
L 28.515625 63.921875 
L 10.984375 60.40625 
L 10.984375 69.390625 
L 28.421875 72.90625 
L 38.28125 72.90625 
L 38.28125 8.296875 
L 54.390625 8.296875 
L 54.390625 0 
L 12.40625 0 
z
" id="DejaVuSans-49"/>
       </defs>
       <use xlink:href="#DejaVuSans-49"/>
       <use x="63.623047" xlink:href="#DejaVuSans-48"/>
       <use x="127.246094" xlink:href="#DejaVuSans-48"/>
      </g>
     </g>
    </g>
    <g id="xtick_7">
     <g id="line2d_7">
      <g>
       <use style="stroke:#000000;stroke-width:0.8;" x="361.2368" xlink:href="#mce3afdbcf7" y="303.64"/>
      </g>
     </g>
     <g id="text_7">
      <!-- 120 -->
      <g transform="translate(351.69305 318.238437)scale(0.1 -0.1)">
       <use xlink:href="#DejaVuSans-49"/>
       <use x="63.623047" xlink:href="#DejaVuSans-50"/>
       <use x="127.246094" xlink:href="#DejaVuSans-48"/>
      </g>
     </g>
    </g>
    <g id="xtick_8">
     <g id="line2d_8">
      <g>
       <use style="stroke:#000000;stroke-width:0.8;" x="409.940888" xlink:href="#mce3afdbcf7" y="303.64"/>
      </g>
     </g>
     <g id="text_8">
      <!-- 140 -->
      <g transform="translate(400.397138 318.238437)scale(0.1 -0.1)">
       <use xlink:href="#DejaVuSans-49"/>
       <use x="63.623047" xlink:href="#DejaVuSans-52"/>
       <use x="127.246094" xlink:href="#DejaVuSans-48"/>
      </g>
     </g>
    </g>
    <g id="text_9">
     <!-- Epochs -->
     <g transform="translate(232.519375 331.916562)scale(0.1 -0.1)">
      <defs>
       <path d="M 9.8125 72.90625 
L 55.90625 72.90625 
L 55.90625 64.59375 
L 19.671875 64.59375 
L 19.671875 43.015625 
L 54.390625 43.015625 
L 54.390625 34.71875 
L 19.671875 34.71875 
L 19.671875 8.296875 
L 56.78125 8.296875 
L 56.78125 0 
L 9.8125 0 
z
" id="DejaVuSans-69"/>
       <path d="M 18.109375 8.203125 
L 18.109375 -20.796875 
L 9.078125 -20.796875 
L 9.078125 54.6875 
L 18.109375 54.6875 
L 18.109375 46.390625 
Q 20.953125 51.265625 25.265625 53.625 
Q 29.59375 56 35.59375 56 
Q 45.5625 56 51.78125 48.09375 
Q 58.015625 40.1875 58.015625 27.296875 
Q 58.015625 14.40625 51.78125 6.484375 
Q 45.5625 -1.421875 35.59375 -1.421875 
Q 29.59375 -1.421875 25.265625 0.953125 
Q 20.953125 3.328125 18.109375 8.203125 
z
M 48.6875 27.296875 
Q 48.6875 37.203125 44.609375 42.84375 
Q 40.53125 48.484375 33.40625 48.484375 
Q 26.265625 48.484375 22.1875 42.84375 
Q 18.109375 37.203125 18.109375 27.296875 
Q 18.109375 17.390625 22.1875 11.75 
Q 26.265625 6.109375 33.40625 6.109375 
Q 40.53125 6.109375 44.609375 11.75 
Q 48.6875 17.390625 48.6875 27.296875 
z
" id="DejaVuSans-112"/>
       <path d="M 30.609375 48.390625 
Q 23.390625 48.390625 19.1875 42.75 
Q 14.984375 37.109375 14.984375 27.296875 
Q 14.984375 17.484375 19.15625 11.84375 
Q 23.34375 6.203125 30.609375 6.203125 
Q 37.796875 6.203125 41.984375 11.859375 
Q 46.1875 17.53125 46.1875 27.296875 
Q 46.1875 37.015625 41.984375 42.703125 
Q 37.796875 48.390625 30.609375 48.390625 
z
M 30.609375 56 
Q 42.328125 56 49.015625 48.375 
Q 55.71875 40.765625 55.71875 27.296875 
Q 55.71875 13.875 49.015625 6.21875 
Q 42.328125 -1.421875 30.609375 -1.421875 
Q 18.84375 -1.421875 12.171875 6.21875 
Q 5.515625 13.875 5.515625 27.296875 
Q 5.515625 40.765625 12.171875 48.375 
Q 18.84375 56 30.609375 56 
z
" id="DejaVuSans-111"/>
       <path d="M 48.78125 52.59375 
L 48.78125 44.1875 
Q 44.96875 46.296875 41.140625 47.34375 
Q 37.3125 48.390625 33.40625 48.390625 
Q 24.65625 48.390625 19.8125 42.84375 
Q 14.984375 37.3125 14.984375 27.296875 
Q 14.984375 17.28125 19.8125 11.734375 
Q 24.65625 6.203125 33.40625 6.203125 
Q 37.3125 6.203125 41.140625 7.25 
Q 44.96875 8.296875 48.78125 10.40625 
L 48.78125 2.09375 
Q 45.015625 0.34375 40.984375 -0.53125 
Q 36.96875 -1.421875 32.421875 -1.421875 
Q 20.0625 -1.421875 12.78125 6.34375 
Q 5.515625 14.109375 5.515625 27.296875 
Q 5.515625 40.671875 12.859375 48.328125 
Q 20.21875 56 33.015625 56 
Q 37.15625 56 41.109375 55.140625 
Q 45.0625 54.296875 48.78125 52.59375 
z
" id="DejaVuSans-99"/>
       <path d="M 54.890625 33.015625 
L 54.890625 0 
L 45.90625 0 
L 45.90625 32.71875 
Q 45.90625 40.484375 42.875 44.328125 
Q 39.84375 48.1875 33.796875 48.1875 
Q 26.515625 48.1875 22.3125 43.546875 
Q 18.109375 38.921875 18.109375 30.90625 
L 18.109375 0 
L 9.078125 0 
L 9.078125 75.984375 
L 18.109375 75.984375 
L 18.109375 46.1875 
Q 21.34375 51.125 25.703125 53.5625 
Q 30.078125 56 35.796875 56 
Q 45.21875 56 50.046875 50.171875 
Q 54.890625 44.34375 54.890625 33.015625 
z
" id="DejaVuSans-104"/>
       <path d="M 44.28125 53.078125 
L 44.28125 44.578125 
Q 40.484375 46.53125 36.375 47.5 
Q 32.28125 48.484375 27.875 48.484375 
Q 21.1875 48.484375 17.84375 46.4375 
Q 14.5 44.390625 14.5 40.28125 
Q 14.5 37.15625 16.890625 35.375 
Q 19.28125 33.59375 26.515625 31.984375 
L 29.59375 31.296875 
Q 39.15625 29.25 43.1875 25.515625 
Q 47.21875 21.78125 47.21875 15.09375 
Q 47.21875 7.46875 41.1875 3.015625 
Q 35.15625 -1.421875 24.609375 -1.421875 
Q 20.21875 -1.421875 15.453125 -0.5625 
Q 10.6875 0.296875 5.421875 2 
L 5.421875 11.28125 
Q 10.40625 8.6875 15.234375 7.390625 
Q 20.0625 6.109375 24.8125 6.109375 
Q 31.15625 6.109375 34.5625 8.28125 
Q 37.984375 10.453125 37.984375 14.40625 
Q 37.984375 18.0625 35.515625 20.015625 
Q 33.0625 21.96875 24.703125 23.78125 
L 21.578125 24.515625 
Q 13.234375 26.265625 9.515625 29.90625 
Q 5.8125 33.546875 5.8125 39.890625 
Q 5.8125 47.609375 11.28125 51.796875 
Q 16.75 56 26.8125 56 
Q 31.78125 56 36.171875 55.265625 
Q 40.578125 54.546875 44.28125 53.078125 
z
" id="DejaVuSans-115"/>
      </defs>
      <use xlink:href="#DejaVuSans-69"/>
      <use x="63.183594" xlink:href="#DejaVuSans-112"/>
      <use x="126.660156" xlink:href="#DejaVuSans-111"/>
      <use x="187.841797" xlink:href="#DejaVuSans-99"/>
      <use x="242.822266" xlink:href="#DejaVuSans-104"/>
      <use x="306.201172" xlink:href="#DejaVuSans-115"/>
     </g>
    </g>
   </g>
   <g id="matplotlib.axis_2">
    <g id="ytick_1">
     <g id="line2d_9">
      <defs>
       <path d="M 0 0 
L -3.5 0 
" id="m3d1783bbc6" style="stroke:#000000;stroke-width:0.8;"/>
      </defs>
      <g>
       <use style="stroke:#000000;stroke-width:0.8;" x="50.87" xlink:href="#m3d1783bbc6" y="289.909942"/>
      </g>
     </g>
     <g id="text_10">
      <!-- 50 -->
      <g transform="translate(31.145 293.709161)scale(0.1 -0.1)">
       <defs>
        <path d="M 10.796875 72.90625 
L 49.515625 72.90625 
L 49.515625 64.59375 
L 19.828125 64.59375 
L 19.828125 46.734375 
Q 21.96875 47.46875 24.109375 47.828125 
Q 26.265625 48.1875 28.421875 48.1875 
Q 40.625 48.1875 47.75 41.5 
Q 54.890625 34.8125 54.890625 23.390625 
Q 54.890625 11.625 47.5625 5.09375 
Q 40.234375 -1.421875 26.90625 -1.421875 
Q 22.3125 -1.421875 17.546875 -0.640625 
Q 12.796875 0.140625 7.71875 1.703125 
L 7.71875 11.625 
Q 12.109375 9.234375 16.796875 8.0625 
Q 21.484375 6.890625 26.703125 6.890625 
Q 35.15625 6.890625 40.078125 11.328125 
Q 45.015625 15.765625 45.015625 23.390625 
Q 45.015625 31 40.078125 35.4375 
Q 35.15625 39.890625 26.703125 39.890625 
Q 22.75 39.890625 18.8125 39.015625 
Q 14.890625 38.140625 10.796875 36.28125 
z
" id="DejaVuSans-53"/>
       </defs>
       <use xlink:href="#DejaVuSans-53"/>
       <use x="63.623047" xlink:href="#DejaVuSans-48"/>
      </g>
     </g>
    </g>
    <g id="ytick_2">
     <g id="line2d_10">
      <g>
       <use style="stroke:#000000;stroke-width:0.8;" x="50.87" xlink:href="#m3d1783bbc6" y="236.884926"/>
      </g>
     </g>
     <g id="text_11">
      <!-- 60 -->
      <g transform="translate(31.145 240.684145)scale(0.1 -0.1)">
       <use xlink:href="#DejaVuSans-54"/>
       <use x="63.623047" xlink:href="#DejaVuSans-48"/>
      </g>
     </g>
    </g>
    <g id="ytick_3">
     <g id="line2d_11">
      <g>
       <use style="stroke:#000000;stroke-width:0.8;" x="50.87" xlink:href="#m3d1783bbc6" y="183.85991"/>
      </g>
     </g>
     <g id="text_12">
      <!-- 70 -->
      <g transform="translate(31.145 187.659129)scale(0.1 -0.1)">
       <defs>
        <path d="M 8.203125 72.90625 
L 55.078125 72.90625 
L 55.078125 68.703125 
L 28.609375 0 
L 18.3125 0 
L 43.21875 64.59375 
L 8.203125 64.59375 
z
" id="DejaVuSans-55"/>
       </defs>
       <use xlink:href="#DejaVuSans-55"/>
       <use x="63.623047" xlink:href="#DejaVuSans-48"/>
      </g>
     </g>
    </g>
    <g id="ytick_4">
     <g id="line2d_12">
      <g>
       <use style="stroke:#000000;stroke-width:0.8;" x="50.87" xlink:href="#m3d1783bbc6" y="130.834894"/>
      </g>
     </g>
     <g id="text_13">
      <!-- 80 -->
      <g transform="translate(31.145 134.634113)scale(0.1 -0.1)">
       <use xlink:href="#DejaVuSans-56"/>
       <use x="63.623047" xlink:href="#DejaVuSans-48"/>
      </g>
     </g>
    </g>
    <g id="ytick_5">
     <g id="line2d_13">
      <g>
       <use style="stroke:#000000;stroke-width:0.8;" x="50.87" xlink:href="#m3d1783bbc6" y="77.809879"/>
      </g>
     </g>
     <g id="text_14">
      <!-- 90 -->
      <g transform="translate(31.145 81.609097)scale(0.1 -0.1)">
       <defs>
        <path d="M 10.984375 1.515625 
L 10.984375 10.5 
Q 14.703125 8.734375 18.5 7.8125 
Q 22.3125 6.890625 25.984375 6.890625 
Q 35.75 6.890625 40.890625 13.453125 
Q 46.046875 20.015625 46.78125 33.40625 
Q 43.953125 29.203125 39.59375 26.953125 
Q 35.25 24.703125 29.984375 24.703125 
Q 19.046875 24.703125 12.671875 31.3125 
Q 6.296875 37.9375 6.296875 49.421875 
Q 6.296875 60.640625 12.9375 67.421875 
Q 19.578125 74.21875 30.609375 74.21875 
Q 43.265625 74.21875 49.921875 64.515625 
Q 56.59375 54.828125 56.59375 36.375 
Q 56.59375 19.140625 48.40625 8.859375 
Q 40.234375 -1.421875 26.421875 -1.421875 
Q 22.703125 -1.421875 18.890625 -0.6875 
Q 15.09375 0.046875 10.984375 1.515625 
z
M 30.609375 32.421875 
Q 37.25 32.421875 41.125 36.953125 
Q 45.015625 41.5 45.015625 49.421875 
Q 45.015625 57.28125 41.125 61.84375 
Q 37.25 66.40625 30.609375 66.40625 
Q 23.96875 66.40625 20.09375 61.84375 
Q 16.21875 57.28125 16.21875 49.421875 
Q 16.21875 41.5 20.09375 36.953125 
Q 23.96875 32.421875 30.609375 32.421875 
z
" id="DejaVuSans-57"/>
       </defs>
       <use xlink:href="#DejaVuSans-57"/>
       <use x="63.623047" xlink:href="#DejaVuSans-48"/>
      </g>
     </g>
    </g>
    <g id="ytick_6">
     <g id="line2d_14">
      <g>
       <use style="stroke:#000000;stroke-width:0.8;" x="50.87" xlink:href="#m3d1783bbc6" y="24.784863"/>
      </g>
     </g>
     <g id="text_15">
      <!-- 100 -->
      <g transform="translate(24.7825 28.584081)scale(0.1 -0.1)">
       <use xlink:href="#DejaVuSans-49"/>
       <use x="63.623047" xlink:href="#DejaVuSans-48"/>
       <use x="127.246094" xlink:href="#DejaVuSans-48"/>
      </g>
     </g>
    </g>
    <g id="text_16">
     <!-- Test Accuracy (%) -->
     <g transform="translate(18.702813 201.723906)rotate(-90)scale(0.1 -0.1)">
      <defs>
       <path d="M -0.296875 72.90625 
L 61.375 72.90625 
L 61.375 64.59375 
L 35.5 64.59375 
L 35.5 0 
L 25.59375 0 
L 25.59375 64.59375 
L -0.296875 64.59375 
z
" id="DejaVuSans-84"/>
       <path d="M 56.203125 29.59375 
L 56.203125 25.203125 
L 14.890625 25.203125 
Q 15.484375 15.921875 20.484375 11.0625 
Q 25.484375 6.203125 34.421875 6.203125 
Q 39.59375 6.203125 44.453125 7.46875 
Q 49.3125 8.734375 54.109375 11.28125 
L 54.109375 2.78125 
Q 49.265625 0.734375 44.1875 -0.34375 
Q 39.109375 -1.421875 33.890625 -1.421875 
Q 20.796875 -1.421875 13.15625 6.1875 
Q 5.515625 13.8125 5.515625 26.8125 
Q 5.515625 40.234375 12.765625 48.109375 
Q 20.015625 56 32.328125 56 
Q 43.359375 56 49.78125 48.890625 
Q 56.203125 41.796875 56.203125 29.59375 
z
M 47.21875 32.234375 
Q 47.125 39.59375 43.09375 43.984375 
Q 39.0625 48.390625 32.421875 48.390625 
Q 24.90625 48.390625 20.390625 44.140625 
Q 15.875 39.890625 15.1875 32.171875 
z
" id="DejaVuSans-101"/>
       <path d="M 18.3125 70.21875 
L 18.3125 54.6875 
L 36.8125 54.6875 
L 36.8125 47.703125 
L 18.3125 47.703125 
L 18.3125 18.015625 
Q 18.3125 11.328125 20.140625 9.421875 
Q 21.96875 7.515625 27.59375 7.515625 
L 36.8125 7.515625 
L 36.8125 0 
L 27.59375 0 
Q 17.1875 0 13.234375 3.875 
Q 9.28125 7.765625 9.28125 18.015625 
L 9.28125 47.703125 
L 2.6875 47.703125 
L 2.6875 54.6875 
L 9.28125 54.6875 
L 9.28125 70.21875 
z
" id="DejaVuSans-116"/>
       <path id="DejaVuSans-32"/>
       <path d="M 34.1875 63.1875 
L 20.796875 26.90625 
L 47.609375 26.90625 
z
M 28.609375 72.90625 
L 39.796875 72.90625 
L 67.578125 0 
L 57.328125 0 
L 50.6875 18.703125 
L 17.828125 18.703125 
L 11.1875 0 
L 0.78125 0 
z
" id="DejaVuSans-65"/>
       <path d="M 8.5 21.578125 
L 8.5 54.6875 
L 17.484375 54.6875 
L 17.484375 21.921875 
Q 17.484375 14.15625 20.5 10.265625 
Q 23.53125 6.390625 29.59375 6.390625 
Q 36.859375 6.390625 41.078125 11.03125 
Q 45.3125 15.671875 45.3125 23.6875 
L 45.3125 54.6875 
L 54.296875 54.6875 
L 54.296875 0 
L 45.3125 0 
L 45.3125 8.40625 
Q 42.046875 3.421875 37.71875 1 
Q 33.40625 -1.421875 27.6875 -1.421875 
Q 18.265625 -1.421875 13.375 4.4375 
Q 8.5 10.296875 8.5 21.578125 
z
M 31.109375 56 
z
" id="DejaVuSans-117"/>
       <path d="M 41.109375 46.296875 
Q 39.59375 47.171875 37.8125 47.578125 
Q 36.03125 48 33.890625 48 
Q 26.265625 48 22.1875 43.046875 
Q 18.109375 38.09375 18.109375 28.8125 
L 18.109375 0 
L 9.078125 0 
L 9.078125 54.6875 
L 18.109375 54.6875 
L 18.109375 46.1875 
Q 20.953125 51.171875 25.484375 53.578125 
Q 30.03125 56 36.53125 56 
Q 37.453125 56 38.578125 55.875 
Q 39.703125 55.765625 41.0625 55.515625 
z
" id="DejaVuSans-114"/>
       <path d="M 34.28125 27.484375 
Q 23.390625 27.484375 19.1875 25 
Q 14.984375 22.515625 14.984375 16.5 
Q 14.984375 11.71875 18.140625 8.90625 
Q 21.296875 6.109375 26.703125 6.109375 
Q 34.1875 6.109375 38.703125 11.40625 
Q 43.21875 16.703125 43.21875 25.484375 
L 43.21875 27.484375 
z
M 52.203125 31.203125 
L 52.203125 0 
L 43.21875 0 
L 43.21875 8.296875 
Q 40.140625 3.328125 35.546875 0.953125 
Q 30.953125 -1.421875 24.3125 -1.421875 
Q 15.921875 -1.421875 10.953125 3.296875 
Q 6 8.015625 6 15.921875 
Q 6 25.140625 12.171875 29.828125 
Q 18.359375 34.515625 30.609375 34.515625 
L 43.21875 34.515625 
L 43.21875 35.40625 
Q 43.21875 41.609375 39.140625 45 
Q 35.0625 48.390625 27.6875 48.390625 
Q 23 48.390625 18.546875 47.265625 
Q 14.109375 46.140625 10.015625 43.890625 
L 10.015625 52.203125 
Q 14.9375 54.109375 19.578125 55.046875 
Q 24.21875 56 28.609375 56 
Q 40.484375 56 46.34375 49.84375 
Q 52.203125 43.703125 52.203125 31.203125 
z
" id="DejaVuSans-97"/>
       <path d="M 32.171875 -5.078125 
Q 28.375 -14.84375 24.75 -17.8125 
Q 21.140625 -20.796875 15.09375 -20.796875 
L 7.90625 -20.796875 
L 7.90625 -13.28125 
L 13.1875 -13.28125 
Q 16.890625 -13.28125 18.9375 -11.515625 
Q 21 -9.765625 23.484375 -3.21875 
L 25.09375 0.875 
L 2.984375 54.6875 
L 12.5 54.6875 
L 29.59375 11.921875 
L 46.6875 54.6875 
L 56.203125 54.6875 
z
" id="DejaVuSans-121"/>
       <path d="M 31 75.875 
Q 24.46875 64.65625 21.28125 53.65625 
Q 18.109375 42.671875 18.109375 31.390625 
Q 18.109375 20.125 21.3125 9.0625 
Q 24.515625 -2 31 -13.1875 
L 23.1875 -13.1875 
Q 15.875 -1.703125 12.234375 9.375 
Q 8.59375 20.453125 8.59375 31.390625 
Q 8.59375 42.28125 12.203125 53.3125 
Q 15.828125 64.359375 23.1875 75.875 
z
" id="DejaVuSans-40"/>
       <path d="M 72.703125 32.078125 
Q 68.453125 32.078125 66.03125 28.46875 
Q 63.625 24.859375 63.625 18.40625 
Q 63.625 12.0625 66.03125 8.421875 
Q 68.453125 4.78125 72.703125 4.78125 
Q 76.859375 4.78125 79.265625 8.421875 
Q 81.6875 12.0625 81.6875 18.40625 
Q 81.6875 24.8125 79.265625 28.4375 
Q 76.859375 32.078125 72.703125 32.078125 
z
M 72.703125 38.28125 
Q 80.421875 38.28125 84.953125 32.90625 
Q 89.5 27.546875 89.5 18.40625 
Q 89.5 9.28125 84.9375 3.921875 
Q 80.375 -1.421875 72.703125 -1.421875 
Q 64.890625 -1.421875 60.34375 3.921875 
Q 55.8125 9.28125 55.8125 18.40625 
Q 55.8125 27.59375 60.375 32.9375 
Q 64.9375 38.28125 72.703125 38.28125 
z
M 22.3125 68.015625 
Q 18.109375 68.015625 15.6875 64.375 
Q 13.28125 60.75 13.28125 54.390625 
Q 13.28125 47.953125 15.671875 44.328125 
Q 18.0625 40.71875 22.3125 40.71875 
Q 26.5625 40.71875 28.96875 44.328125 
Q 31.390625 47.953125 31.390625 54.390625 
Q 31.390625 60.6875 28.953125 64.34375 
Q 26.515625 68.015625 22.3125 68.015625 
z
M 66.40625 74.21875 
L 74.21875 74.21875 
L 28.609375 -1.421875 
L 20.796875 -1.421875 
z
M 22.3125 74.21875 
Q 30.03125 74.21875 34.609375 68.875 
Q 39.203125 63.53125 39.203125 54.390625 
Q 39.203125 45.171875 34.640625 39.84375 
Q 30.078125 34.515625 22.3125 34.515625 
Q 14.546875 34.515625 10.03125 39.859375 
Q 5.515625 45.21875 5.515625 54.390625 
Q 5.515625 63.484375 10.046875 68.84375 
Q 14.59375 74.21875 22.3125 74.21875 
z
" id="DejaVuSans-37"/>
       <path d="M 8.015625 75.875 
L 15.828125 75.875 
Q 23.140625 64.359375 26.78125 53.3125 
Q 30.421875 42.28125 30.421875 31.390625 
Q 30.421875 20.453125 26.78125 9.375 
Q 23.140625 -1.703125 15.828125 -13.1875 
L 8.015625 -13.1875 
Q 14.5 -2 17.703125 9.0625 
Q 20.90625 20.125 20.90625 31.390625 
Q 20.90625 42.671875 17.703125 53.65625 
Q 14.5 64.65625 8.015625 75.875 
z
" id="DejaVuSans-41"/>
      </defs>
      <use xlink:href="#DejaVuSans-84"/>
      <use x="44.083984" xlink:href="#DejaVuSans-101"/>
      <use x="105.607422" xlink:href="#DejaVuSans-115"/>
      <use x="157.707031" xlink:href="#DejaVuSans-116"/>
      <use x="196.916016" xlink:href="#DejaVuSans-32"/>
      <use x="228.703125" xlink:href="#DejaVuSans-65"/>
      <use x="295.361328" xlink:href="#DejaVuSans-99"/>
      <use x="350.341797" xlink:href="#DejaVuSans-99"/>
      <use x="405.322266" xlink:href="#DejaVuSans-117"/>
      <use x="468.701172" xlink:href="#DejaVuSans-114"/>
      <use x="509.814453" xlink:href="#DejaVuSans-97"/>
      <use x="571.09375" xlink:href="#DejaVuSans-99"/>
      <use x="626.074219" xlink:href="#DejaVuSans-121"/>
      <use x="685.253906" xlink:href="#DejaVuSans-32"/>
      <use x="717.041016" xlink:href="#DejaVuSans-40"/>
      <use x="756.054688" xlink:href="#DejaVuSans-37"/>
      <use x="851.074219" xlink:href="#DejaVuSans-41"/>
     </g>
    </g>
   </g>
   <g id="line2d_15">
    <path clip-path="url(#pfb7b32393f)" d="M 69.012273 218.087972 
L 71.447477 130.26529 
L 73.882682 96.296139 
L 76.317886 89.253754 
L 78.75309 70.560365 
L 81.188295 56.164901 
L 83.623499 46.378058 
L 86.058703 52.281233 
L 88.493908 41.303398 
L 90.929112 37.88577 
L 93.364317 36.798343 
L 95.799521 39.076761 
L 98.234725 36.798343 
L 100.66993 33.018239 
L 103.105134 31.671901 
L 105.540339 31.671901 
L 107.975543 33.587844 
L 110.410747 31.050514 
L 112.845952 30.014869 
L 115.281156 33.225368 
L 117.716361 30.636256 
L 120.151565 30.688038 
L 122.586769 29.031006 
L 125.021974 29.859522 
L 127.457178 30.480909 
L 129.892383 31.930812 
L 132.327587 31.050514 
L 134.762791 28.098926 
L 137.197996 30.014869 
L 139.6332 28.306055 
L 144.503609 30.843385 
L 146.938813 28.40962 
L 149.374018 29.238135 
L 151.809222 29.445264 
L 154.244426 30.998732 
L 156.679631 29.445264 
L 159.114835 31.257643 
L 161.55004 29.3417 
L 163.985244 30.377345 
L 166.420448 28.564966 
L 168.855653 28.720313 
L 171.290857 31.87903 
L 173.726062 29.859522 
L 176.161266 31.154078 
L 178.59647 29.755958 
L 181.031675 27.891797 
L 183.466879 27.943579 
L 185.902084 28.927442 
L 188.337288 29.289918 
L 190.772492 28.40962 
L 193.207697 28.823878 
L 195.642901 29.548829 
L 198.078106 29.652393 
L 200.51331 27.115064 
L 202.948514 26.441894 
L 205.383719 27.73645 
L 207.818923 30.377345 
L 210.254128 27.73645 
L 212.689332 26.597241 
L 215.124536 29.238135 
L 217.559741 28.150708 
L 219.994945 28.098926 
L 222.430149 26.079419 
L 224.865354 27.788233 
L 227.300558 28.564966 
L 229.735763 27.477539 
L 232.170967 26.856152 
L 234.606171 27.943579 
L 237.041376 26.597241 
L 239.47658 29.80774 
L 241.911785 26.493677 
L 244.346989 27.115064 
L 246.782193 27.943579 
L 249.217398 27.322193 
L 251.652602 25.250903 
L 254.087807 26.597241 
L 256.523011 27.166846 
L 258.958215 26.649023 
L 261.39342 27.322193 
L 263.828624 25.924072 
L 266.263829 27.322193 
L 268.699033 26.182983 
L 271.134237 25.354467 
L 273.569442 26.390112 
L 276.004646 27.166846 
L 278.439851 26.286548 
L 280.875055 27.477539 
L 283.310259 27.063281 
L 288.180668 26.80437 
L 290.615872 27.115064 
L 293.051077 26.597241 
L 295.486281 25.250903 
L 297.921486 25.665161 
L 300.35669 25.509814 
L 302.791894 27.581104 
L 305.227099 26.700806 
L 310.097508 26.441894 
L 312.532712 25.924072 
L 314.967916 26.545459 
L 317.403121 26.182983 
L 319.838325 26.597241 
L 322.27353 25.975854 
L 324.708734 26.545459 
L 327.143938 25.561596 
L 329.579143 26.286548 
L 332.014347 25.924072 
L 334.449552 25.095556 
L 336.884756 25.665161 
L 341.755165 25.768725 
L 344.190369 25.095556 
L 346.625574 25.975854 
L 349.060778 25.40625 
L 351.495982 25.354467 
L 353.931187 25.458032 
L 358.801595 26.131201 
L 361.2368 25.820507 
L 363.672004 26.700806 
L 366.107209 24.940209 
L 368.542413 24.940209 
L 370.977617 25.509814 
L 375.848026 25.250903 
L 378.283231 24.940209 
L 383.153639 25.354467 
L 385.588844 25.095556 
L 388.024048 25.509814 
L 390.459253 24.940209 
L 395.329661 24.940209 
L 397.764866 25.095556 
L 400.20007 25.095556 
L 405.070479 24.784863 
L 407.505683 25.250903 
L 409.940888 25.250903 
L 412.376092 25.095556 
L 417.246501 25.095556 
L 419.681705 25.250903 
L 422.11691 25.250903 
L 424.552114 25.095556 
L 431.857727 25.095556 
L 431.857727 25.095556 
" style="fill:none;stroke:#1f77b4;stroke-linecap:square;stroke-width:1.5;"/>
   </g>
   <g id="line2d_16">
    <path clip-path="url(#pfb7b32393f)" d="M 69.012273 275.618043 
L 71.447477 265.002684 
L 73.882682 235.849282 
L 76.317886 193.594972 
L 78.75309 113.021803 
L 81.188295 111.830812 
L 83.623499 81.123942 
L 86.058703 68.385511 
L 88.493908 58.961142 
L 90.929112 55.077474 
L 93.364317 48.863605 
L 95.799521 47.206573 
L 98.234725 40.785575 
L 100.66993 41.096269 
L 103.105134 38.092899 
L 105.540339 36.021609 
L 107.975543 35.193093 
L 110.410747 36.28052 
L 112.845952 31.257643 
L 115.281156 33.225368 
L 117.716361 36.28052 
L 120.151565 34.364577 
L 122.586769 35.659133 
L 125.021974 33.121804 
L 127.457178 37.41973 
L 129.892383 37.41973 
L 132.327587 28.513184 
L 134.762791 27.632886 
L 137.197996 30.946949 
L 139.6332 32.81111 
L 142.068405 33.484279 
L 144.503609 30.584474 
L 146.938813 28.668531 
L 149.374018 31.827248 
L 151.809222 30.998732 
L 154.244426 33.328933 
L 156.679631 30.998732 
L 159.114835 33.070021 
L 161.55004 28.564966 
L 163.985244 32.137941 
L 166.420448 30.946949 
L 168.855653 29.238135 
L 171.290857 29.859522 
L 173.726062 33.898537 
L 176.161266 33.846755 
L 178.59647 31.205861 
L 181.031675 30.429127 
L 183.466879 30.325563 
L 185.902084 30.014869 
L 188.337288 31.671901 
L 190.772492 28.150708 
L 193.207697 28.513184 
L 195.642901 31.205861 
L 198.078106 31.620119 
L 200.51331 28.461402 
L 202.948514 29.652393 
L 205.383719 28.513184 
L 207.818923 29.859522 
L 210.254128 29.031006 
L 212.689332 26.959717 
L 215.124536 30.946949 
L 217.559741 29.3417 
L 219.994945 28.098926 
L 222.430149 28.357837 
L 227.300558 28.306055 
L 229.735763 28.461402 
L 232.170967 27.166846 
L 234.606171 29.963087 
L 237.041376 29.393482 
L 239.47658 29.238135 
L 241.911785 28.047144 
L 246.782193 29.238135 
L 249.217398 27.27041 
L 251.652602 27.322193 
L 254.087807 28.87566 
L 256.523011 26.441894 
L 258.958215 26.441894 
L 261.39342 27.322193 
L 263.828624 27.581104 
L 266.263829 27.011499 
L 268.699033 26.131201 
L 271.134237 27.27041 
L 273.569442 26.649023 
L 276.004646 27.995362 
L 278.439851 26.700806 
L 280.875055 27.943579 
L 283.310259 28.202491 
L 285.745464 26.545459 
L 288.180668 27.581104 
L 290.615872 27.891797 
L 293.051077 26.33833 
L 295.486281 27.27041 
L 297.921486 28.564966 
L 300.35669 27.063281 
L 302.791894 26.182983 
L 305.227099 26.390112 
L 307.662303 26.286548 
L 310.097508 26.80437 
L 312.532712 25.199121 
L 314.967916 27.581104 
L 317.403121 25.768725 
L 319.838325 27.477539 
L 322.27353 27.115064 
L 324.708734 26.545459 
L 327.143938 25.561596 
L 329.579143 26.33833 
L 332.014347 27.581104 
L 334.449552 25.354467 
L 336.884756 25.250903 
L 339.31996 25.768725 
L 341.755165 25.924072 
L 344.190369 25.40625 
L 346.625574 25.716943 
L 351.495982 25.354467 
L 353.931187 25.924072 
L 356.366391 26.33833 
L 358.801595 25.768725 
L 361.2368 25.354467 
L 363.672004 25.095556 
L 366.107209 25.199121 
L 368.542413 26.390112 
L 370.977617 26.182983 
L 373.412822 26.182983 
L 375.848026 25.250903 
L 378.283231 25.768725 
L 380.718435 26.027636 
L 383.153639 26.079419 
L 385.588844 24.940209 
L 388.024048 24.940209 
L 390.459253 25.250903 
L 392.894457 24.784863 
L 395.329661 25.354467 
L 397.764866 25.095556 
L 400.20007 25.095556 
L 402.635275 25.250903 
L 405.070479 25.095556 
L 409.940888 25.095556 
L 412.376092 25.250903 
L 414.811297 25.250903 
L 417.246501 24.940209 
L 419.681705 25.250903 
L 429.422523 25.250903 
L 431.857727 25.095556 
L 431.857727 25.095556 
" style="fill:none;stroke:#ff7f0e;stroke-linecap:square;stroke-width:1.5;"/>
   </g>
   <g id="line2d_17">
    <path clip-path="url(#pfb7b32393f)" d="M 69.012273 267.488231 
L 71.447477 253.455244 
L 73.882682 220.003915 
L 76.317886 119.235672 
L 78.75309 91.791084 
L 81.188295 78.793741 
L 86.058703 60.04857 
L 88.493908 44.876373 
L 90.929112 46.740533 
L 93.364317 41.406962 
L 95.799521 38.610721 
L 98.234725 38.144681 
L 100.66993 36.021609 
L 103.105134 33.691408 
L 105.540339 37.005472 
L 107.975543 34.41636 
L 110.410747 35.659133 
L 112.845952 31.775465 
L 115.281156 31.930812 
L 117.716361 34.468142 
L 120.151565 35.089529 
L 122.586769 33.587844 
L 125.021974 29.600611 
L 129.892383 31.361207 
L 132.327587 30.480909 
L 134.762791 29.238135 
L 137.197996 28.564966 
L 139.6332 31.620119 
L 142.068405 32.603981 
L 144.503609 31.361207 
L 146.938813 29.238135 
L 149.374018 27.73645 
L 151.809222 29.393482 
L 154.244426 28.927442 
L 156.679631 30.480909 
L 159.114835 30.221998 
L 161.55004 29.548829 
L 163.985244 30.895167 
L 166.420448 29.755958 
L 168.855653 29.134571 
L 171.290857 29.755958 
L 173.726062 29.600611 
L 176.161266 30.584474 
L 178.59647 29.755958 
L 181.031675 29.704176 
L 183.466879 27.322193 
L 185.902084 29.911305 
L 188.337288 28.202491 
L 190.772492 27.891797 
L 193.207697 27.063281 
L 195.642901 29.548829 
L 198.078106 27.27041 
L 200.51331 27.840015 
L 202.948514 27.27041 
L 205.383719 27.788233 
L 207.818923 27.166846 
L 210.254128 27.995362 
L 212.689332 27.477539 
L 215.124536 28.564966 
L 217.559741 29.80774 
L 219.994945 26.649023 
L 222.430149 26.027636 
L 224.865354 29.3417 
L 227.300558 26.907935 
L 229.735763 28.40962 
L 232.170967 30.480909 
L 234.606171 26.856152 
L 237.041376 27.995362 
L 239.47658 27.840015 
L 241.911785 27.529321 
L 244.346989 27.73645 
L 246.782193 26.027636 
L 249.217398 26.597241 
L 251.652602 27.373975 
L 254.087807 27.063281 
L 256.523011 27.529321 
L 258.958215 26.597241 
L 261.39342 27.425757 
L 263.828624 26.234765 
L 266.263829 27.166846 
L 268.699033 26.286548 
L 271.134237 26.649023 
L 273.569442 26.597241 
L 276.004646 26.079419 
L 278.439851 27.27041 
L 280.875055 26.649023 
L 283.310259 25.768725 
L 285.745464 27.218628 
L 288.180668 26.079419 
L 290.615872 26.959717 
L 293.051077 26.80437 
L 295.486281 25.509814 
L 297.921486 26.907935 
L 300.35669 27.011499 
L 302.791894 26.390112 
L 305.227099 27.322193 
L 307.662303 26.079419 
L 310.097508 27.322193 
L 312.532712 26.33833 
L 314.967916 25.665161 
L 317.403121 26.33833 
L 319.838325 26.80437 
L 322.27353 26.234765 
L 324.708734 25.40625 
L 327.143938 26.597241 
L 329.579143 26.649023 
L 332.014347 26.182983 
L 334.449552 25.975854 
L 336.884756 25.924072 
L 339.31996 26.649023 
L 341.755165 25.095556 
L 346.625574 26.182983 
L 349.060778 25.250903 
L 351.495982 25.924072 
L 353.931187 25.665161 
L 358.801595 26.079419 
L 361.2368 26.131201 
L 363.672004 26.441894 
L 366.107209 26.027636 
L 368.542413 26.33833 
L 370.977617 26.182983 
L 373.412822 26.700806 
L 375.848026 25.975854 
L 378.283231 26.959717 
L 383.153639 26.286548 
L 385.588844 25.509814 
L 388.024048 25.87229 
L 390.459253 25.87229 
L 392.894457 25.40625 
L 395.329661 25.820507 
L 397.764866 25.87229 
L 400.20007 26.182983 
L 402.635275 25.924072 
L 405.070479 25.509814 
L 407.505683 26.027636 
L 409.940888 25.509814 
L 412.376092 25.768725 
L 417.246501 25.768725 
L 419.681705 26.286548 
L 422.11691 25.87229 
L 424.552114 26.027636 
L 426.987318 26.027636 
L 429.422523 26.390112 
L 431.857727 26.234765 
L 431.857727 26.234765 
" style="fill:none;stroke:#2ca02c;stroke-linecap:square;stroke-width:1.5;"/>
   </g>
   <g id="line2d_18">
    <path clip-path="url(#pfb7b32393f)" d="M 69.012273 269.76665 
L 71.447477 128.970734 
L 73.882682 110.536256 
L 76.317886 81.123942 
L 78.75309 74.340468 
L 81.188295 61.860948 
L 83.623499 58.90936 
L 88.493908 50.054597 
L 90.929112 47.931525 
L 93.364317 50.106379 
L 95.799521 47.258356 
L 98.234725 48.035089 
L 100.66993 47.310138 
L 103.105134 46.792316 
L 105.540339 47.517267 
L 107.975543 49.329645 
L 110.410747 52.333015 
L 112.845952 43.478252 
L 115.281156 48.656476 
L 117.716361 41.406962 
L 120.151565 53.057967 
L 122.586769 47.82796 
L 125.021974 44.047857 
L 127.457178 42.701518 
L 129.892383 46.326275 
L 132.327587 44.047857 
L 134.762791 48.086872 
L 137.197996 46.222711 
L 139.6332 46.015582 
L 142.068405 44.565679 
L 144.503609 42.339043 
L 146.938813 43.271123 
L 149.374018 38.714286 
L 151.809222 43.685381 
L 154.244426 43.115776 
L 156.679631 43.322905 
L 159.114835 42.235478 
L 161.55004 41.406962 
L 163.985244 44.35855 
L 166.420448 42.856865 
L 168.855653 41.096269 
L 171.290857 42.96043 
L 173.726062 41.873003 
L 176.161266 41.82122 
L 178.59647 42.28726 
L 181.031675 39.853495 
L 183.466879 43.581817 
L 185.902084 40.060624 
L 188.337288 39.232108 
L 190.772492 38.144681 
L 193.207697 39.594584 
L 195.642901 43.012212 
L 198.078106 38.869632 
L 200.51331 41.562309 
L 202.948514 36.694778 
L 205.383719 38.766068 
L 207.818923 38.248246 
L 210.254128 39.180326 
L 212.689332 40.526664 
L 215.124536 39.28389 
L 217.559741 37.678641 
L 219.994945 38.196463 
L 222.430149 39.905277 
L 227.300558 39.801713 
L 229.735763 38.041117 
L 232.170967 41.303398 
L 234.606171 36.487649 
L 237.041376 38.041117 
L 239.47658 39.232108 
L 241.911785 36.642996 
L 244.346989 34.727053 
L 246.782193 35.918045 
L 249.217398 35.969827 
L 251.652602 39.024979 
L 254.087807 35.089529 
L 256.523011 36.850125 
L 258.958215 35.141311 
L 261.39342 33.794973 
L 263.828624 36.021609 
L 266.263829 32.81111 
L 268.699033 34.053884 
L 271.134237 32.086159 
L 273.569442 32.137941 
L 276.004646 33.484279 
L 278.439851 33.484279 
L 280.875055 32.966457 
L 283.310259 33.27715 
L 285.745464 32.862892 
L 288.180668 31.568336 
L 290.615872 33.587844 
L 293.051077 31.102296 
L 295.486281 30.532692 
L 297.921486 31.87903 
L 300.35669 32.396852 
L 302.791894 31.464772 
L 305.227099 31.154078 
L 307.662303 30.377345 
L 310.097508 32.81111 
L 312.532712 30.325563 
L 314.967916 29.652393 
L 322.27353 31.257643 
L 324.708734 28.772095 
L 327.143938 30.066651 
L 329.579143 28.720313 
L 334.449552 28.720313 
L 336.884756 29.238135 
L 339.31996 28.306055 
L 344.190369 28.40962 
L 346.625574 29.445264 
L 349.060778 28.927442 
L 351.495982 27.943579 
L 353.931187 29.497047 
L 356.366391 28.098926 
L 358.801595 27.27041 
L 361.2368 28.254273 
L 363.672004 28.616749 
L 366.107209 27.995362 
L 368.542413 27.73645 
L 370.977617 26.907935 
L 373.412822 27.943579 
L 375.848026 27.581104 
L 378.283231 27.943579 
L 383.153639 27.73645 
L 385.588844 27.27041 
L 388.024048 26.597241 
L 395.329661 27.011499 
L 397.764866 26.390112 
L 400.20007 26.700806 
L 402.635275 26.286548 
L 405.070479 27.218628 
L 407.505683 27.477539 
L 409.940888 26.286548 
L 412.376092 27.063281 
L 414.811297 27.322193 
L 417.246501 26.80437 
L 419.681705 27.063281 
L 422.11691 26.545459 
L 424.552114 27.840015 
L 426.987318 27.788233 
L 429.422523 26.545459 
L 431.857727 26.80437 
L 431.857727 26.80437 
" style="fill:none;stroke:#d62728;stroke-linecap:square;stroke-width:1.5;"/>
   </g>
   <g id="patch_3">
    <path d="M 50.87 303.64 
L 50.87 10.8 
" style="fill:none;stroke:#000000;stroke-linecap:square;stroke-linejoin:miter;stroke-width:0.8;"/>
   </g>
   <g id="patch_4">
    <path d="M 450 303.64 
L 450 10.8 
" style="fill:none;stroke:#000000;stroke-linecap:square;stroke-linejoin:miter;stroke-width:0.8;"/>
   </g>
   <g id="patch_5">
    <path d="M 50.87 303.64 
L 450 303.64 
" style="fill:none;stroke:#000000;stroke-linecap:square;stroke-linejoin:miter;stroke-width:0.8;"/>
   </g>
   <g id="patch_6">
    <path d="M 50.87 10.8 
L 450 10.8 
" style="fill:none;stroke:#000000;stroke-linecap:square;stroke-linejoin:miter;stroke-width:0.8;"/>
   </g>
   <g id="legend_1">
    <g id="patch_7">
     <path d="M 330.639063 298.64 
L 443 298.64 
Q 445 298.64 445 296.64 
L 445 238.9275 
Q 445 236.9275 443 236.9275 
L 330.639063 236.9275 
Q 328.639063 236.9275 328.639063 238.9275 
L 328.639063 296.64 
Q 328.639063 298.64 330.639063 298.64 
z
" style="fill:#ffffff;opacity:0.8;stroke:#cccccc;stroke-linejoin:miter;"/>
    </g>
    <g id="line2d_19">
     <path d="M 332.639063 245.025937 
L 352.639063 245.025937 
" style="fill:none;stroke:#1f77b4;stroke-linecap:square;stroke-width:1.5;"/>
    </g>
    <g id="line2d_20"/>
    <g id="text_17">
     <!-- AllReduce SGD -->
     <g transform="translate(360.639063 248.525937)scale(0.1 -0.1)">
      <defs>
       <path d="M 9.421875 75.984375 
L 18.40625 75.984375 
L 18.40625 0 
L 9.421875 0 
z
" id="DejaVuSans-108"/>
       <path d="M 44.390625 34.1875 
Q 47.5625 33.109375 50.5625 29.59375 
Q 53.5625 26.078125 56.59375 19.921875 
L 66.609375 0 
L 56 0 
L 46.6875 18.703125 
Q 43.0625 26.03125 39.671875 28.421875 
Q 36.28125 30.8125 30.421875 30.8125 
L 19.671875 30.8125 
L 19.671875 0 
L 9.8125 0 
L 9.8125 72.90625 
L 32.078125 72.90625 
Q 44.578125 72.90625 50.734375 67.671875 
Q 56.890625 62.453125 56.890625 51.90625 
Q 56.890625 45.015625 53.6875 40.46875 
Q 50.484375 35.9375 44.390625 34.1875 
z
M 19.671875 64.796875 
L 19.671875 38.921875 
L 32.078125 38.921875 
Q 39.203125 38.921875 42.84375 42.21875 
Q 46.484375 45.515625 46.484375 51.90625 
Q 46.484375 58.296875 42.84375 61.546875 
Q 39.203125 64.796875 32.078125 64.796875 
z
" id="DejaVuSans-82"/>
       <path d="M 45.40625 46.390625 
L 45.40625 75.984375 
L 54.390625 75.984375 
L 54.390625 0 
L 45.40625 0 
L 45.40625 8.203125 
Q 42.578125 3.328125 38.25 0.953125 
Q 33.9375 -1.421875 27.875 -1.421875 
Q 17.96875 -1.421875 11.734375 6.484375 
Q 5.515625 14.40625 5.515625 27.296875 
Q 5.515625 40.1875 11.734375 48.09375 
Q 17.96875 56 27.875 56 
Q 33.9375 56 38.25 53.625 
Q 42.578125 51.265625 45.40625 46.390625 
z
M 14.796875 27.296875 
Q 14.796875 17.390625 18.875 11.75 
Q 22.953125 6.109375 30.078125 6.109375 
Q 37.203125 6.109375 41.296875 11.75 
Q 45.40625 17.390625 45.40625 27.296875 
Q 45.40625 37.203125 41.296875 42.84375 
Q 37.203125 48.484375 30.078125 48.484375 
Q 22.953125 48.484375 18.875 42.84375 
Q 14.796875 37.203125 14.796875 27.296875 
z
" id="DejaVuSans-100"/>
       <path d="M 53.515625 70.515625 
L 53.515625 60.890625 
Q 47.90625 63.578125 42.921875 64.890625 
Q 37.9375 66.21875 33.296875 66.21875 
Q 25.25 66.21875 20.875 63.09375 
Q 16.5 59.96875 16.5 54.203125 
Q 16.5 49.359375 19.40625 46.890625 
Q 22.3125 44.4375 30.421875 42.921875 
L 36.375 41.703125 
Q 47.40625 39.59375 52.65625 34.296875 
Q 57.90625 29 57.90625 20.125 
Q 57.90625 9.515625 50.796875 4.046875 
Q 43.703125 -1.421875 29.984375 -1.421875 
Q 24.8125 -1.421875 18.96875 -0.25 
Q 13.140625 0.921875 6.890625 3.21875 
L 6.890625 13.375 
Q 12.890625 10.015625 18.65625 8.296875 
Q 24.421875 6.59375 29.984375 6.59375 
Q 38.421875 6.59375 43.015625 9.90625 
Q 47.609375 13.234375 47.609375 19.390625 
Q 47.609375 24.75 44.3125 27.78125 
Q 41.015625 30.8125 33.5 32.328125 
L 27.484375 33.5 
Q 16.453125 35.6875 11.515625 40.375 
Q 6.59375 45.0625 6.59375 53.421875 
Q 6.59375 63.09375 13.40625 68.65625 
Q 20.21875 74.21875 32.171875 74.21875 
Q 37.3125 74.21875 42.625 73.28125 
Q 47.953125 72.359375 53.515625 70.515625 
z
" id="DejaVuSans-83"/>
       <path d="M 59.515625 10.40625 
L 59.515625 29.984375 
L 43.40625 29.984375 
L 43.40625 38.09375 
L 69.28125 38.09375 
L 69.28125 6.78125 
Q 63.578125 2.734375 56.6875 0.65625 
Q 49.8125 -1.421875 42 -1.421875 
Q 24.90625 -1.421875 15.25 8.5625 
Q 5.609375 18.5625 5.609375 36.375 
Q 5.609375 54.25 15.25 64.234375 
Q 24.90625 74.21875 42 74.21875 
Q 49.125 74.21875 55.546875 72.453125 
Q 61.96875 70.703125 67.390625 67.28125 
L 67.390625 56.78125 
Q 61.921875 61.421875 55.765625 63.765625 
Q 49.609375 66.109375 42.828125 66.109375 
Q 29.4375 66.109375 22.71875 58.640625 
Q 16.015625 51.171875 16.015625 36.375 
Q 16.015625 21.625 22.71875 14.15625 
Q 29.4375 6.6875 42.828125 6.6875 
Q 48.046875 6.6875 52.140625 7.59375 
Q 56.25 8.5 59.515625 10.40625 
z
" id="DejaVuSans-71"/>
       <path d="M 19.671875 64.796875 
L 19.671875 8.109375 
L 31.59375 8.109375 
Q 46.6875 8.109375 53.6875 14.9375 
Q 60.6875 21.78125 60.6875 36.53125 
Q 60.6875 51.171875 53.6875 57.984375 
Q 46.6875 64.796875 31.59375 64.796875 
z
M 9.8125 72.90625 
L 30.078125 72.90625 
Q 51.265625 72.90625 61.171875 64.09375 
Q 71.09375 55.28125 71.09375 36.53125 
Q 71.09375 17.671875 61.125 8.828125 
Q 51.171875 0 30.078125 0 
L 9.8125 0 
z
" id="DejaVuSans-68"/>
      </defs>
      <use xlink:href="#DejaVuSans-65"/>
      <use x="68.408203" xlink:href="#DejaVuSans-108"/>
      <use x="96.191406" xlink:href="#DejaVuSans-108"/>
      <use x="123.974609" xlink:href="#DejaVuSans-82"/>
      <use x="188.957031" xlink:href="#DejaVuSans-101"/>
      <use x="250.480469" xlink:href="#DejaVuSans-100"/>
      <use x="313.957031" xlink:href="#DejaVuSans-117"/>
      <use x="377.335938" xlink:href="#DejaVuSans-99"/>
      <use x="432.316406" xlink:href="#DejaVuSans-101"/>
      <use x="493.839844" xlink:href="#DejaVuSans-32"/>
      <use x="525.626953" xlink:href="#DejaVuSans-83"/>
      <use x="589.103516" xlink:href="#DejaVuSans-71"/>
      <use x="666.59375" xlink:href="#DejaVuSans-68"/>
     </g>
    </g>
    <g id="line2d_21">
     <path d="M 332.639063 259.704062 
L 352.639063 259.704062 
" style="fill:none;stroke:#ff7f0e;stroke-linecap:square;stroke-width:1.5;"/>
    </g>
    <g id="line2d_22"/>
    <g id="text_18">
     <!-- QSGD-MN 8 bits -->
     <g transform="translate(360.639063 263.204062)scale(0.1 -0.1)">
      <defs>
       <path d="M 39.40625 66.21875 
Q 28.65625 66.21875 22.328125 58.203125 
Q 16.015625 50.203125 16.015625 36.375 
Q 16.015625 22.609375 22.328125 14.59375 
Q 28.65625 6.59375 39.40625 6.59375 
Q 50.140625 6.59375 56.421875 14.59375 
Q 62.703125 22.609375 62.703125 36.375 
Q 62.703125 50.203125 56.421875 58.203125 
Q 50.140625 66.21875 39.40625 66.21875 
z
M 53.21875 1.3125 
L 66.21875 -12.890625 
L 54.296875 -12.890625 
L 43.5 -1.21875 
Q 41.890625 -1.3125 41.03125 -1.359375 
Q 40.1875 -1.421875 39.40625 -1.421875 
Q 24.03125 -1.421875 14.8125 8.859375 
Q 5.609375 19.140625 5.609375 36.375 
Q 5.609375 53.65625 14.8125 63.9375 
Q 24.03125 74.21875 39.40625 74.21875 
Q 54.734375 74.21875 63.90625 63.9375 
Q 73.09375 53.65625 73.09375 36.375 
Q 73.09375 23.6875 67.984375 14.640625 
Q 62.890625 5.609375 53.21875 1.3125 
z
" id="DejaVuSans-81"/>
       <path d="M 4.890625 31.390625 
L 31.203125 31.390625 
L 31.203125 23.390625 
L 4.890625 23.390625 
z
" id="DejaVuSans-45"/>
       <path d="M 9.8125 72.90625 
L 24.515625 72.90625 
L 43.109375 23.296875 
L 61.8125 72.90625 
L 76.515625 72.90625 
L 76.515625 0 
L 66.890625 0 
L 66.890625 64.015625 
L 48.09375 14.015625 
L 38.1875 14.015625 
L 19.390625 64.015625 
L 19.390625 0 
L 9.8125 0 
z
" id="DejaVuSans-77"/>
       <path d="M 9.8125 72.90625 
L 23.09375 72.90625 
L 55.421875 11.921875 
L 55.421875 72.90625 
L 64.984375 72.90625 
L 64.984375 0 
L 51.703125 0 
L 19.390625 60.984375 
L 19.390625 0 
L 9.8125 0 
z
" id="DejaVuSans-78"/>
       <path d="M 48.6875 27.296875 
Q 48.6875 37.203125 44.609375 42.84375 
Q 40.53125 48.484375 33.40625 48.484375 
Q 26.265625 48.484375 22.1875 42.84375 
Q 18.109375 37.203125 18.109375 27.296875 
Q 18.109375 17.390625 22.1875 11.75 
Q 26.265625 6.109375 33.40625 6.109375 
Q 40.53125 6.109375 44.609375 11.75 
Q 48.6875 17.390625 48.6875 27.296875 
z
M 18.109375 46.390625 
Q 20.953125 51.265625 25.265625 53.625 
Q 29.59375 56 35.59375 56 
Q 45.5625 56 51.78125 48.09375 
Q 58.015625 40.1875 58.015625 27.296875 
Q 58.015625 14.40625 51.78125 6.484375 
Q 45.5625 -1.421875 35.59375 -1.421875 
Q 29.59375 -1.421875 25.265625 0.953125 
Q 20.953125 3.328125 18.109375 8.203125 
L 18.109375 0 
L 9.078125 0 
L 9.078125 75.984375 
L 18.109375 75.984375 
z
" id="DejaVuSans-98"/>
       <path d="M 9.421875 54.6875 
L 18.40625 54.6875 
L 18.40625 0 
L 9.421875 0 
z
M 9.421875 75.984375 
L 18.40625 75.984375 
L 18.40625 64.59375 
L 9.421875 64.59375 
z
" id="DejaVuSans-105"/>
      </defs>
      <use xlink:href="#DejaVuSans-81"/>
      <use x="78.710938" xlink:href="#DejaVuSans-83"/>
      <use x="142.1875" xlink:href="#DejaVuSans-71"/>
      <use x="219.677734" xlink:href="#DejaVuSans-68"/>
      <use x="296.679688" xlink:href="#DejaVuSans-45"/>
      <use x="332.763672" xlink:href="#DejaVuSans-77"/>
      <use x="419.042969" xlink:href="#DejaVuSans-78"/>
      <use x="493.847656" xlink:href="#DejaVuSans-32"/>
      <use x="525.634766" xlink:href="#DejaVuSans-56"/>
      <use x="589.257812" xlink:href="#DejaVuSans-32"/>
      <use x="621.044922" xlink:href="#DejaVuSans-98"/>
      <use x="684.521484" xlink:href="#DejaVuSans-105"/>
      <use x="712.304688" xlink:href="#DejaVuSans-116"/>
      <use x="751.513672" xlink:href="#DejaVuSans-115"/>
     </g>
    </g>
    <g id="line2d_23">
     <path d="M 332.639063 274.382187 
L 352.639063 274.382187 
" style="fill:none;stroke:#2ca02c;stroke-linecap:square;stroke-width:1.5;"/>
    </g>
    <g id="line2d_24"/>
    <g id="text_19">
     <!-- QSGD-MN 4 bits -->
     <g transform="translate(360.639063 277.882187)scale(0.1 -0.1)">
      <use xlink:href="#DejaVuSans-81"/>
      <use x="78.710938" xlink:href="#DejaVuSans-83"/>
      <use x="142.1875" xlink:href="#DejaVuSans-71"/>
      <use x="219.677734" xlink:href="#DejaVuSans-68"/>
      <use x="296.679688" xlink:href="#DejaVuSans-45"/>
      <use x="332.763672" xlink:href="#DejaVuSans-77"/>
      <use x="419.042969" xlink:href="#DejaVuSans-78"/>
      <use x="493.847656" xlink:href="#DejaVuSans-32"/>
      <use x="525.634766" xlink:href="#DejaVuSans-52"/>
      <use x="589.257812" xlink:href="#DejaVuSans-32"/>
      <use x="621.044922" xlink:href="#DejaVuSans-98"/>
      <use x="684.521484" xlink:href="#DejaVuSans-105"/>
      <use x="712.304688" xlink:href="#DejaVuSans-116"/>
      <use x="751.513672" xlink:href="#DejaVuSans-115"/>
     </g>
    </g>
    <g id="line2d_25">
     <path d="M 332.639063 289.060312 
L 352.639063 289.060312 
" style="fill:none;stroke:#d62728;stroke-linecap:square;stroke-width:1.5;"/>
    </g>
    <g id="line2d_26"/>
    <g id="text_20">
     <!-- QSGD-MN 2 bits -->
     <g transform="translate(360.639063 292.560312)scale(0.1 -0.1)">
      <use xlink:href="#DejaVuSans-81"/>
      <use x="78.710938" xlink:href="#DejaVuSans-83"/>
      <use x="142.1875" xlink:href="#DejaVuSans-71"/>
      <use x="219.677734" xlink:href="#DejaVuSans-68"/>
      <use x="296.679688" xlink:href="#DejaVuSans-45"/>
      <use x="332.763672" xlink:href="#DejaVuSans-77"/>
      <use x="419.042969" xlink:href="#DejaVuSans-78"/>
      <use x="493.847656" xlink:href="#DejaVuSans-32"/>
      <use x="525.634766" xlink:href="#DejaVuSans-50"/>
      <use x="589.257812" xlink:href="#DejaVuSans-32"/>
      <use x="621.044922" xlink:href="#DejaVuSans-98"/>
      <use x="684.521484" xlink:href="#DejaVuSans-105"/>
      <use x="712.304688" xlink:href="#DejaVuSans-116"/>
      <use x="751.513672" xlink:href="#DejaVuSans-115"/>
     </g>
    </g>
   </g>
  </g>
 </g>
 <defs>
  <clipPath id="pfb7b32393f">
   <rect height="292.84" width="399.13" x="50.87" y="10.8"/>
  </clipPath>
 </defs>
</svg>
