<?xml version="1.0" encoding="utf-8" standalone="no"?>
<!DOCTYPE svg PUBLIC "-//W3C//DTD SVG 1.1//EN"
  "http://www.w3.org/Graphics/SVG/1.1/DTD/svg11.dtd">
<!-- Created with matplotlib (https://matplotlib.org/) -->
<svg height="345.6pt" version="1.1" viewBox="0 0 460.8 345.6" width="460.8pt" xmlns="http://www.w3.org/2000/svg" xmlns:xlink="http://www.w3.org/1999/xlink">
 <metadata>
  <rdf:RDF xmlns:cc="http://creativecommons.org/ns#" xmlns:dc="http://purl.org/dc/elements/1.1/" xmlns:rdf="http://www.w3.org/1999/02/22-rdf-syntax-ns#">
   <cc:Work>
    <dc:type rdf:resource="http://purl.org/dc/dcmitype/StillImage"/>
    <dc:date>2021-06-10T08:56:48.120203</dc:date>
    <dc:format>image/svg+xml</dc:format>
    <dc:creator>
     <cc:Agent>
      <dc:title>Matplotlib v3.3.1, https://matplotlib.org/</dc:title>
     </cc:Agent>
    </dc:creator>
   </cc:Work>
  </rdf:RDF>
 </metadata>
 <defs>
  <style type="text/css">*{stroke-linecap:butt;stroke-linejoin:round;}</style>
 </defs>
 <g id="figure_1">
  <g id="patch_1">
   <path d="M 0 345.6 
L 460.8 345.6 
L 460.8 0 
L 0 0 
z
" style="fill:#ffffff;"/>
  </g>
  <g id="axes_1">
   <g id="patch_2">
    <path d="M 47.72 303.64 
L 450 303.64 
L 450 14.76 
L 47.72 14.76 
z
" style="fill:#ffffff;"/>
   </g>
   <g id="PolyCollection_1">
    <path clip-path="url(#pc494435bf2)" d="M 66.005455 40.802604 
L 66.005455 41.979646 
L 68.459878 88.835256 
L 70.914301 97.781353 
L 73.368725 104.679396 
L 75.823148 137.331326 
L 78.277572 187.413644 
L 80.731995 210.747209 
L 83.186419 217.046819 
L 85.640842 220.342012 
L 88.095265 217.943777 
L 90.549689 232.784613 
L 93.004112 247.040387 
L 95.458536 248.401217 
L 97.912959 244.612147 
L 100.367383 252.706133 
L 102.821806 249.178948 
L 105.276229 261.045668 
L 107.730653 252.918326 
L 110.185076 258.530559 
L 112.6395 259.887104 
L 115.093923 254.603387 
L 117.548347 251.628373 
L 120.00277 273.554631 
L 122.457193 254.628374 
L 124.911617 260.513619 
L 127.36604 268.696328 
L 129.820464 267.360066 
L 132.274887 263.336193 
L 134.729311 266.840207 
L 137.183734 274.884038 
L 139.638157 271.540501 
L 142.092581 275.373504 
L 144.547004 278.649971 
L 147.001428 269.765859 
L 149.455851 278.424915 
L 151.910275 275.442379 
L 154.364698 279.617393 
L 156.819121 275.108966 
L 159.273545 272.163921 
L 161.727968 273.810945 
L 164.182392 280.528634 
L 166.636815 275.20428 
L 169.091239 281.171338 
L 171.545662 275.302152 
L 174.000085 285.473329 
L 176.454509 278.549751 
L 178.908932 280.372394 
L 181.363356 280.046105 
L 183.817779 278.381856 
L 186.272203 282.357637 
L 188.726626 280.808635 
L 191.181049 283.514675 
L 193.635473 278.759053 
L 196.089896 284.210639 
L 198.54432 288.87576 
L 200.998743 283.989354 
L 203.453167 281.284608 
L 205.90759 288.672529 
L 208.362013 286.928243 
L 210.816437 280.494637 
L 213.27086 288.957053 
L 215.725284 284.022315 
L 218.179707 279.623706 
L 220.634131 284.198743 
L 223.088554 283.593715 
L 225.542977 293.320146 
L 227.997401 290.608574 
L 230.451824 288.021026 
L 232.906248 290.415334 
L 235.360671 286.410395 
L 237.815095 281.789816 
L 240.269518 290.624992 
L 242.723941 290.648159 
L 245.178365 283.061849 
L 247.632788 289.251348 
L 250.087212 287.381949 
L 252.541635 293.429749 
L 254.996059 292.593902 
L 257.450482 290.986944 
L 259.904905 292.699345 
L 262.359329 291.820514 
L 264.813752 292.286056 
L 267.268176 290.71529 
L 269.722599 291.551953 
L 272.177023 288.34608 
L 274.631446 294.023946 
L 277.085869 292.325256 
L 279.540293 289.062324 
L 281.994716 293.844748 
L 284.44914 290.704628 
L 286.903563 293.892858 
L 289.357987 292.171733 
L 291.81241 296.149879 
L 294.266833 293.350941 
L 296.721257 294.501036 
L 299.17568 296.101413 
L 301.630104 295.814309 
L 304.084527 295.777691 
L 306.538951 297.33294 
L 308.993374 296.47463 
L 311.447797 298.976097 
L 313.902221 299.010856 
L 316.356644 298.374279 
L 318.811068 297.417501 
L 321.265491 300.308499 
L 323.719915 300.549981 
L 326.174338 300.84698 
L 328.628761 298.837703 
L 331.083185 301.91931 
L 333.537608 301.929774 
L 335.992032 301.439175 
L 338.446455 302.125021 
L 340.900879 303.263883 
L 343.355302 301.355604 
L 345.809725 302.820925 
L 348.264149 302.384463 
L 350.718572 303.299534 
L 353.172996 302.206533 
L 355.627419 303.078695 
L 358.081843 302.751963 
L 360.536266 302.242961 
L 362.990689 302.533382 
L 365.445113 303.214266 
L 367.899536 302.86998 
L 370.35396 302.754907 
L 372.808383 303.150657 
L 375.262807 303.476913 
L 377.71723 303.549472 
L 380.171653 303.540276 
L 382.626077 303.502376 
L 385.0805 303.489701 
L 387.534924 303.540081 
L 389.989347 303.545249 
L 392.443771 303.601142 
L 394.898194 303.645018 
L 397.352617 303.580732 
L 399.807041 303.591333 
L 402.261464 303.538841 
L 404.715888 303.541157 
L 407.170311 303.546406 
L 409.624735 303.570919 
L 412.079158 303.543187 
L 414.533581 303.616341 
L 416.988005 303.604025 
L 419.442428 303.568074 
L 421.896852 303.56903 
L 424.351275 303.553094 
L 426.805699 303.551858 
L 429.260122 303.596247 
L 431.714545 303.544533 
L 431.714545 303.512843 
L 431.714545 303.512843 
L 429.260122 303.378766 
L 426.805699 303.50521 
L 424.351275 303.488589 
L 421.896852 303.462184 
L 419.442428 303.393914 
L 416.988005 303.376521 
L 414.533581 303.285501 
L 412.079158 303.532416 
L 409.624735 303.415313 
L 407.170311 303.182334 
L 404.715888 303.353191 
L 402.261464 303.445737 
L 399.807041 303.402965 
L 397.352617 303.044686 
L 394.898194 302.131074 
L 392.443771 303.312997 
L 389.989347 302.921924 
L 387.534924 303.446216 
L 385.0805 302.766506 
L 382.626077 303.056262 
L 380.171653 303.257405 
L 377.71723 303.250347 
L 375.262807 302.087378 
L 372.808383 301.070131 
L 370.35396 302.554206 
L 367.899536 300.146818 
L 365.445113 302.226557 
L 362.990689 301.308763 
L 360.536266 299.910054 
L 358.081843 301.709764 
L 355.627419 300.158854 
L 353.172996 299.842454 
L 350.718572 297.444697 
L 348.264149 298.602911 
L 345.809725 300.282798 
L 343.355302 297.341924 
L 340.900879 299.229426 
L 338.446455 298.405865 
L 335.992032 298.717916 
L 333.537608 299.965464 
L 331.083185 298.496616 
L 328.628761 295.098524 
L 326.174338 295.403249 
L 323.719915 296.390005 
L 321.265491 296.126511 
L 318.811068 293.012106 
L 316.356644 295.690307 
L 313.902221 295.632055 
L 311.447797 295.720414 
L 308.993374 291.156453 
L 306.538951 293.488799 
L 304.084527 294.022812 
L 301.630104 294.508097 
L 299.17568 288.426466 
L 296.721257 291.279409 
L 294.266833 289.611231 
L 291.81241 290.54319 
L 289.357987 287.371274 
L 286.903563 290.81275 
L 284.44914 286.017284 
L 281.994716 287.40502 
L 279.540293 282.615473 
L 277.085869 287.561924 
L 274.631446 288.9749 
L 272.177023 285.66194 
L 269.722599 286.351998 
L 267.268176 283.797706 
L 264.813752 287.536239 
L 262.359329 283.637548 
L 259.904905 289.1626 
L 257.450482 283.607864 
L 254.996059 289.084672 
L 252.541635 287.554836 
L 250.087212 280.38017 
L 247.632788 282.079455 
L 245.178365 277.455701 
L 242.723941 284.115914 
L 240.269518 284.720227 
L 237.815095 276.329805 
L 235.360671 282.451951 
L 232.906248 286.013185 
L 230.451824 285.428418 
L 227.997401 282.175091 
L 225.542977 287.681366 
L 223.088554 275.293242 
L 220.634131 278.874718 
L 218.179707 274.399686 
L 215.725284 279.271191 
L 213.27086 287.40376 
L 210.816437 275.994392 
L 208.362013 282.300844 
L 205.90759 281.306969 
L 203.453167 274.538642 
L 200.998743 278.463466 
L 198.54432 284.342354 
L 196.089896 279.534242 
L 193.635473 277.983873 
L 191.181049 275.456916 
L 188.726626 274.56324 
L 186.272203 273.685659 
L 183.817779 272.132095 
L 181.363356 274.287607 
L 178.908932 267.788765 
L 176.454509 274.136442 
L 174.000085 278.90912 
L 171.545662 268.802274 
L 169.091239 279.058461 
L 166.636815 270.073722 
L 164.182392 273.618887 
L 161.727968 270.767425 
L 159.273545 270.084226 
L 156.819121 269.723303 
L 154.364698 270.185643 
L 151.910275 271.477499 
L 149.455851 275.801596 
L 147.001428 264.086712 
L 144.547004 266.977846 
L 142.092581 272.607105 
L 139.638157 266.859674 
L 137.183734 270.856623 
L 134.729311 260.083759 
L 132.274887 254.334585 
L 129.820464 263.07334 
L 127.36604 262.053041 
L 124.911617 257.913213 
L 122.457193 251.453351 
L 120.00277 267.807693 
L 117.548347 243.372096 
L 115.093923 246.242388 
L 112.6395 250.663234 
L 110.185076 251.827944 
L 107.730653 242.815627 
L 105.276229 252.077507 
L 102.821806 244.523818 
L 100.367383 246.99992 
L 97.912959 240.322659 
L 95.458536 239.523949 
L 93.004112 239.271113 
L 90.549689 229.107499 
L 88.095265 207.206411 
L 85.640842 211.533663 
L 83.186419 203.7476 
L 80.731995 196.235134 
L 78.277572 167.886262 
L 75.823148 104.154374 
L 73.368725 81.783691 
L 70.914301 94.143372 
L 68.459878 70.635606 
L 66.005455 40.802604 
z
" style="fill:#1f77b4;fill-opacity:0.25;"/>
   </g>
   <g id="PolyCollection_2">
    <path clip-path="url(#pc494435bf2)" d="M 66.005455 38.107554 
L 66.005455 38.806821 
L 68.459878 46.003007 
L 70.914301 62.873063 
L 73.368725 61.698696 
L 75.823148 78.426776 
L 78.277572 103.106208 
L 80.731995 116.516265 
L 83.186419 140.748828 
L 85.640842 156.133517 
L 88.095265 149.089804 
L 90.549689 188.335141 
L 93.004112 187.91531 
L 95.458536 206.850999 
L 97.912959 202.01587 
L 100.367383 219.152647 
L 102.821806 225.007282 
L 105.276229 228.807336 
L 107.730653 218.515274 
L 110.185076 237.329815 
L 112.6395 231.403912 
L 115.093923 233.352731 
L 117.548347 228.617369 
L 120.00277 235.535773 
L 122.457193 230.995989 
L 124.911617 239.999549 
L 127.36604 249.003282 
L 129.820464 235.569104 
L 132.274887 238.097647 
L 134.729311 242.297529 
L 137.183734 246.559624 
L 139.638157 248.076491 
L 142.092581 248.151178 
L 144.547004 257.591842 
L 147.001428 255.329979 
L 149.455851 261.760319 
L 151.910275 259.979704 
L 154.364698 256.229195 
L 156.819121 251.827306 
L 159.273545 251.546791 
L 161.727968 248.170688 
L 164.182392 254.550714 
L 166.636815 247.411329 
L 169.091239 256.566596 
L 171.545662 263.32023 
L 174.000085 265.384231 
L 176.454509 262.094048 
L 178.908932 253.493544 
L 181.363356 260.6461 
L 183.817779 259.369332 
L 186.272203 258.247141 
L 188.726626 263.831356 
L 191.181049 259.216624 
L 193.635473 257.640488 
L 196.089896 272.547899 
L 198.54432 270.963357 
L 200.998743 274.268473 
L 203.453167 258.395887 
L 205.90759 273.714959 
L 208.362013 275.257544 
L 210.816437 264.146035 
L 213.27086 274.384426 
L 215.725284 261.165538 
L 218.179707 264.632983 
L 220.634131 265.313023 
L 223.088554 269.960082 
L 225.542977 283.708012 
L 227.997401 271.9351 
L 230.451824 269.557172 
L 232.906248 270.166141 
L 235.360671 267.425983 
L 237.815095 261.744844 
L 240.269518 270.33159 
L 242.723941 275.775393 
L 245.178365 265.6563 
L 247.632788 277.313972 
L 250.087212 273.317611 
L 252.541635 277.546535 
L 254.996059 278.183929 
L 257.450482 266.666411 
L 259.904905 278.387963 
L 262.359329 275.687222 
L 264.813752 278.582297 
L 267.268176 279.162788 
L 269.722599 275.087421 
L 272.177023 275.086216 
L 274.631446 283.061476 
L 277.085869 282.226418 
L 279.540293 273.253321 
L 281.994716 278.529115 
L 284.44914 264.83533 
L 286.903563 286.135132 
L 289.357987 279.154503 
L 291.81241 289.777829 
L 294.266833 284.048665 
L 296.721257 280.870997 
L 299.17568 280.184031 
L 301.630104 287.372114 
L 304.084527 282.518808 
L 306.538951 283.30921 
L 308.993374 290.862814 
L 311.447797 288.572735 
L 313.902221 291.317823 
L 316.356644 289.760887 
L 318.811068 284.763728 
L 321.265491 289.590019 
L 323.719915 290.656371 
L 326.174338 295.256897 
L 328.628761 292.054277 
L 331.083185 292.902098 
L 333.537608 294.03344 
L 335.992032 293.158637 
L 338.446455 296.033427 
L 340.900879 298.330109 
L 343.355302 290.471769 
L 345.809725 295.475018 
L 348.264149 292.89761 
L 350.718572 295.169509 
L 353.172996 295.952107 
L 355.627419 297.240576 
L 358.081843 295.980102 
L 360.536266 296.156884 
L 362.990689 302.064691 
L 365.445113 301.722682 
L 367.899536 300.896203 
L 370.35396 300.05971 
L 372.808383 299.301714 
L 375.262807 302.142791 
L 377.71723 302.446268 
L 380.171653 302.651379 
L 382.626077 302.214641 
L 385.0805 302.006889 
L 387.534924 302.432502 
L 389.989347 302.735676 
L 392.443771 303.086003 
L 394.898194 303.213428 
L 397.352617 300.951577 
L 399.807041 303.324477 
L 402.261464 303.351368 
L 404.715888 302.337145 
L 407.170311 302.781983 
L 409.624735 302.764909 
L 412.079158 303.228759 
L 414.533581 303.270993 
L 416.988005 303.297768 
L 419.442428 303.415982 
L 421.896852 303.257847 
L 424.351275 303.314568 
L 426.805699 303.428125 
L 429.260122 303.238908 
L 431.714545 302.619122 
L 431.714545 301.267631 
L 431.714545 301.267631 
L 429.260122 302.888323 
L 426.805699 303.244326 
L 424.351275 302.185939 
L 421.896852 302.081329 
L 419.442428 302.702521 
L 416.988005 302.118546 
L 414.533581 302.684989 
L 412.079158 301.743233 
L 409.624735 300.093027 
L 407.170311 302.321014 
L 404.715888 300.52749 
L 402.261464 302.58491 
L 399.807041 302.841323 
L 397.352617 297.197954 
L 394.898194 302.292897 
L 392.443771 300.100061 
L 389.989347 301.597339 
L 387.534924 299.028816 
L 385.0805 300.27572 
L 382.626077 300.503651 
L 380.171653 302.004652 
L 377.71723 301.642723 
L 375.262807 300.704213 
L 372.808383 297.062063 
L 370.35396 297.057299 
L 367.899536 299.099733 
L 365.445113 297.893816 
L 362.990689 298.424231 
L 360.536266 292.94822 
L 358.081843 293.009336 
L 355.627419 293.692596 
L 353.172996 291.467393 
L 350.718572 289.426076 
L 348.264149 288.865597 
L 345.809725 291.479001 
L 343.355302 286.247323 
L 340.900879 295.738709 
L 338.446455 290.566546 
L 335.992032 287.885191 
L 333.537608 291.512853 
L 331.083185 292.060229 
L 328.628761 287.071208 
L 326.174338 289.120053 
L 323.719915 287.188337 
L 321.265491 283.771971 
L 318.811068 280.950277 
L 316.356644 282.791449 
L 313.902221 288.893783 
L 311.447797 284.966984 
L 308.993374 287.74641 
L 306.538951 280.745992 
L 304.084527 278.709658 
L 301.630104 283.713253 
L 299.17568 274.877524 
L 296.721257 276.396653 
L 294.266833 276.762279 
L 291.81241 284.478448 
L 289.357987 271.918025 
L 286.903563 278.484288 
L 284.44914 259.49323 
L 281.994716 275.556341 
L 279.540293 270.145832 
L 277.085869 273.072108 
L 274.631446 279.317996 
L 272.177023 270.10151 
L 269.722599 269.581224 
L 267.268176 275.317622 
L 264.813752 273.488898 
L 262.359329 271.932288 
L 259.904905 274.879376 
L 257.450482 260.573517 
L 254.996059 274.287861 
L 252.541635 273.272095 
L 250.087212 268.795124 
L 247.632788 268.99655 
L 245.178365 261.662619 
L 242.723941 269.440545 
L 240.269518 265.405472 
L 237.815095 253.544931 
L 235.360671 261.484033 
L 232.906248 266.056149 
L 230.451824 262.726871 
L 227.997401 262.154443 
L 225.542977 274.659864 
L 223.088554 265.133771 
L 220.634131 260.730761 
L 218.179707 250.679361 
L 215.725284 255.162399 
L 213.27086 270.481696 
L 210.816437 255.804187 
L 208.362013 270.816006 
L 205.90759 267.980253 
L 203.453167 255.742882 
L 200.998743 264.594361 
L 198.54432 268.102596 
L 196.089896 265.378332 
L 193.635473 253.925443 
L 191.181049 250.690504 
L 188.726626 257.416569 
L 186.272203 249.357975 
L 183.817779 252.726965 
L 181.363356 259.022012 
L 178.908932 246.596178 
L 176.454509 255.226915 
L 174.000085 257.928734 
L 171.545662 256.663845 
L 169.091239 248.33027 
L 166.636815 241.134477 
L 164.182392 248.156983 
L 161.727968 242.406305 
L 159.273545 241.919003 
L 156.819121 248.228563 
L 154.364698 251.737021 
L 151.910275 251.969896 
L 149.455851 257.772381 
L 147.001428 245.809189 
L 144.547004 249.922999 
L 142.092581 242.549944 
L 139.638157 241.699312 
L 137.183734 240.327379 
L 134.729311 234.760783 
L 132.274887 234.37921 
L 129.820464 229.144102 
L 127.36604 241.178758 
L 124.911617 237.690688 
L 122.457193 223.74183 
L 120.00277 229.222571 
L 117.548347 218.853313 
L 115.093923 228.629657 
L 112.6395 224.755738 
L 110.185076 228.173297 
L 107.730653 210.426463 
L 105.276229 226.404426 
L 102.821806 213.684155 
L 100.367383 210.714409 
L 97.912959 200.114193 
L 95.458536 200.131345 
L 93.004112 181.03869 
L 90.549689 180.912252 
L 88.095265 144.033196 
L 85.640842 150.801558 
L 83.186419 130.617897 
L 80.731995 109.081035 
L 78.277572 95.950242 
L 75.823148 72.287412 
L 73.368725 57.915754 
L 70.914301 50.692962 
L 68.459878 42.105468 
L 66.005455 38.107554 
z
" style="fill:#ff7f0e;fill-opacity:0.25;"/>
   </g>
   <g id="PolyCollection_3">
    <path clip-path="url(#pc494435bf2)" d="M 66.005455 37.672214 
L 66.005455 39.422711 
L 68.459878 46.922724 
L 70.914301 66.966961 
L 73.368725 64.793019 
L 75.823148 84.676127 
L 78.277572 105.520825 
L 80.731995 130.759802 
L 83.186419 144.957652 
L 85.640842 164.69601 
L 88.095265 157.432502 
L 90.549689 188.39483 
L 93.004112 192.686997 
L 95.458536 212.184743 
L 97.912959 201.41616 
L 100.367383 220.843473 
L 102.821806 227.304262 
L 105.276229 230.729729 
L 107.730653 219.641957 
L 110.185076 243.212983 
L 112.6395 227.541705 
L 115.093923 232.057519 
L 117.548347 235.897918 
L 120.00277 238.926852 
L 122.457193 229.150307 
L 124.911617 238.71602 
L 127.36604 249.267789 
L 129.820464 239.505642 
L 132.274887 240.143578 
L 134.729311 248.302871 
L 137.183734 252.121321 
L 139.638157 247.016117 
L 142.092581 253.8178 
L 144.547004 260.524345 
L 147.001428 256.380325 
L 149.455851 263.469266 
L 151.910275 259.074446 
L 154.364698 257.482094 
L 156.819121 252.448008 
L 159.273545 255.301251 
L 161.727968 248.8083 
L 164.182392 254.938163 
L 166.636815 253.722174 
L 169.091239 259.453292 
L 171.545662 259.172597 
L 174.000085 264.343558 
L 176.454509 259.831787 
L 178.908932 254.060833 
L 181.363356 264.873102 
L 183.817779 255.225884 
L 186.272203 258.55088 
L 188.726626 264.057953 
L 191.181049 258.148726 
L 193.635473 259.522673 
L 196.089896 272.48234 
L 198.54432 270.995889 
L 200.998743 274.421188 
L 203.453167 256.570315 
L 205.90759 269.284683 
L 208.362013 271.480411 
L 210.816437 261.062574 
L 213.27086 275.103798 
L 215.725284 266.515988 
L 218.179707 264.4436 
L 220.634131 263.170508 
L 223.088554 268.442514 
L 225.542977 281.497936 
L 227.997401 271.680485 
L 230.451824 266.952254 
L 232.906248 272.947346 
L 235.360671 261.90124 
L 237.815095 260.687711 
L 240.269518 266.334208 
L 242.723941 274.173608 
L 245.178365 263.1888 
L 247.632788 273.370084 
L 250.087212 273.17977 
L 252.541635 276.275969 
L 254.996059 273.99062 
L 257.450482 267.090055 
L 259.904905 279.466675 
L 262.359329 281.271521 
L 264.813752 281.990956 
L 267.268176 275.448327 
L 269.722599 276.923576 
L 272.177023 275.76563 
L 274.631446 284.674943 
L 277.085869 281.602494 
L 279.540293 277.921627 
L 281.994716 278.898157 
L 284.44914 268.174922 
L 286.903563 283.314068 
L 289.357987 280.589089 
L 291.81241 290.427687 
L 294.266833 283.978016 
L 296.721257 280.79555 
L 299.17568 282.798048 
L 301.630104 285.068493 
L 304.084527 284.857438 
L 306.538951 284.240646 
L 308.993374 292.569341 
L 311.447797 290.907833 
L 313.902221 289.731936 
L 316.356644 291.065162 
L 318.811068 286.387006 
L 321.265491 291.114322 
L 323.719915 292.255706 
L 326.174338 294.220531 
L 328.628761 294.02329 
L 331.083185 294.195713 
L 333.537608 296.610621 
L 335.992032 291.614936 
L 338.446455 297.513391 
L 340.900879 299.924623 
L 343.355302 290.804526 
L 345.809725 294.399991 
L 348.264149 295.04543 
L 350.718572 293.078061 
L 353.172996 298.211991 
L 355.627419 297.673459 
L 358.081843 297.363437 
L 360.536266 300.643483 
L 362.990689 299.840198 
L 365.445113 300.267334 
L 367.899536 302.197943 
L 370.35396 299.528704 
L 372.808383 302.045631 
L 375.262807 302.84349 
L 377.71723 302.735132 
L 380.171653 303.011503 
L 382.626077 301.024863 
L 385.0805 301.671765 
L 387.534924 302.251129 
L 389.989347 302.681019 
L 392.443771 301.835697 
L 394.898194 303.043811 
L 397.352617 301.578669 
L 399.807041 303.460951 
L 402.261464 302.547921 
L 404.715888 302.938952 
L 407.170311 302.826808 
L 409.624735 302.266794 
L 412.079158 303.077551 
L 414.533581 303.400398 
L 416.988005 303.454337 
L 419.442428 303.493778 
L 421.896852 303.446504 
L 424.351275 303.118365 
L 426.805699 303.466599 
L 429.260122 303.353791 
L 431.714545 303.270925 
L 431.714545 302.926833 
L 431.714545 302.926833 
L 429.260122 302.848639 
L 426.805699 303.263244 
L 424.351275 302.485905 
L 421.896852 302.756588 
L 419.442428 302.785747 
L 416.988005 302.798962 
L 414.533581 303.08974 
L 412.079158 302.391571 
L 409.624735 299.49691 
L 407.170311 301.470767 
L 404.715888 302.585622 
L 402.261464 300.884107 
L 399.807041 301.176566 
L 397.352617 299.683233 
L 394.898194 301.452298 
L 392.443771 300.456256 
L 389.989347 299.088679 
L 387.534924 298.80307 
L 385.0805 300.337374 
L 382.626077 299.044421 
L 380.171653 301.303175 
L 377.71723 301.204341 
L 375.262807 298.189198 
L 372.808383 299.925071 
L 370.35396 296.794873 
L 367.899536 299.731147 
L 365.445113 298.365309 
L 362.990689 297.651312 
L 360.536266 294.23781 
L 358.081843 293.727717 
L 355.627419 290.396303 
L 353.172996 295.19387 
L 350.718572 290.216999 
L 348.264149 291.000198 
L 345.809725 289.854242 
L 343.355302 283.353012 
L 340.900879 296.751591 
L 338.446455 292.653854 
L 335.992032 288.884421 
L 333.537608 292.621431 
L 331.083185 290.1629 
L 328.628761 288.732942 
L 326.174338 288.473637 
L 323.719915 288.407275 
L 321.265491 286.270548 
L 318.811068 281.459745 
L 316.356644 286.040419 
L 313.902221 285.793833 
L 311.447797 286.71965 
L 308.993374 288.844051 
L 306.538951 278.511211 
L 304.084527 280.884777 
L 301.630104 282.648488 
L 299.17568 269.89943 
L 296.721257 277.775445 
L 294.266833 279.253426 
L 291.81241 288.483394 
L 289.357987 277.06223 
L 286.903563 277.587151 
L 284.44914 259.90005 
L 281.994716 273.443863 
L 279.540293 272.722095 
L 277.085869 277.831756 
L 274.631446 280.474843 
L 272.177023 274.093828 
L 269.722599 266.080624 
L 267.268176 267.482525 
L 264.813752 275.965041 
L 262.359329 273.840813 
L 259.904905 274.02071 
L 257.450482 261.63941 
L 254.996059 268.759682 
L 252.541635 267.377082 
L 250.087212 266.089302 
L 247.632788 269.047329 
L 245.178365 258.115547 
L 242.723941 270.32013 
L 240.269518 262.259845 
L 237.815095 255.470961 
L 235.360671 257.947423 
L 232.906248 264.403382 
L 230.451824 260.581068 
L 227.997401 264.699787 
L 225.542977 274.810542 
L 223.088554 262.47612 
L 220.634131 259.420257 
L 218.179707 254.152497 
L 215.725284 259.934034 
L 213.27086 271.432411 
L 210.816437 258.267008 
L 208.362013 260.002443 
L 205.90759 268.43843 
L 203.453167 250.323885 
L 200.998743 265.773203 
L 198.54432 267.641258 
L 196.089896 267.520216 
L 193.635473 251.55803 
L 191.181049 253.496196 
L 188.726626 258.7585 
L 186.272203 253.432573 
L 183.817779 248.835938 
L 181.363356 259.918117 
L 178.908932 249.685026 
L 176.454509 256.383307 
L 174.000085 259.477205 
L 171.545662 250.7571 
L 169.091239 252.699426 
L 166.636815 247.574976 
L 164.182392 248.153203 
L 161.727968 244.318962 
L 159.273545 248.320481 
L 156.819121 244.662639 
L 154.364698 253.835581 
L 151.910275 255.865514 
L 149.455851 253.806559 
L 147.001428 246.327372 
L 144.547004 248.717005 
L 142.092581 242.514225 
L 139.638157 244.03482 
L 137.183734 247.404182 
L 134.729311 238.482573 
L 132.274887 234.251622 
L 129.820464 234.325339 
L 127.36604 244.954058 
L 124.911617 236.107986 
L 122.457193 220.848074 
L 120.00277 232.331292 
L 117.548347 226.310157 
L 115.093923 226.133319 
L 112.6395 221.982733 
L 110.185076 235.673399 
L 107.730653 214.535731 
L 105.276229 226.693771 
L 102.821806 217.4356 
L 100.367383 214.620634 
L 97.912959 199.766015 
L 95.458536 204.073357 
L 93.004112 184.030653 
L 90.549689 182.770908 
L 88.095265 148.374136 
L 85.640842 157.089303 
L 83.186419 135.933086 
L 80.731995 114.65286 
L 78.277572 98.906987 
L 75.823148 80.572336 
L 73.368725 60.237931 
L 70.914301 52.828039 
L 68.459878 43.532901 
L 66.005455 37.672214 
z
" style="fill:#2ca02c;fill-opacity:0.25;"/>
   </g>
   <g id="PolyCollection_4">
    <path clip-path="url(#pc494435bf2)" d="M 66.005455 38.272889 
L 66.005455 39.363686 
L 68.459878 46.019208 
L 70.914301 67.684044 
L 73.368725 63.758178 
L 75.823148 85.537269 
L 78.277572 109.014633 
L 80.731995 130.623626 
L 83.186419 141.547999 
L 85.640842 159.696881 
L 88.095265 153.782674 
L 90.549689 187.139874 
L 93.004112 190.604874 
L 95.458536 210.688858 
L 97.912959 203.797268 
L 100.367383 219.535046 
L 102.821806 226.700775 
L 105.276229 230.547796 
L 107.730653 216.726894 
L 110.185076 241.423922 
L 112.6395 227.878756 
L 115.093923 232.641055 
L 117.548347 228.969422 
L 120.00277 236.040508 
L 122.457193 233.813427 
L 124.911617 243.316653 
L 127.36604 248.939044 
L 129.820464 238.017724 
L 132.274887 239.79374 
L 134.729311 243.543545 
L 137.183734 252.095957 
L 139.638157 249.840314 
L 142.092581 253.964561 
L 144.547004 259.162113 
L 147.001428 254.624225 
L 149.455851 262.418836 
L 151.910275 256.635816 
L 154.364698 262.263487 
L 156.819121 250.589543 
L 159.273545 251.478909 
L 161.727968 252.510116 
L 164.182392 255.529969 
L 166.636815 251.94414 
L 169.091239 258.908141 
L 171.545662 254.6118 
L 174.000085 266.695649 
L 176.454509 263.464444 
L 178.908932 251.977376 
L 181.363356 266.758096 
L 183.817779 260.743387 
L 186.272203 256.400235 
L 188.726626 266.337949 
L 191.181049 262.649894 
L 193.635473 262.449067 
L 196.089896 267.931382 
L 198.54432 274.410553 
L 200.998743 271.372539 
L 203.453167 259.115681 
L 205.90759 274.259006 
L 208.362013 270.578433 
L 210.816437 260.539514 
L 213.27086 273.903214 
L 215.725284 264.657769 
L 218.179707 259.408426 
L 220.634131 265.861992 
L 223.088554 268.081472 
L 225.542977 280.199642 
L 227.997401 273.984748 
L 230.451824 267.469459 
L 232.906248 271.845197 
L 235.360671 266.859993 
L 237.815095 260.169952 
L 240.269518 273.037804 
L 242.723941 277.184888 
L 245.178365 270.465342 
L 247.632788 272.796341 
L 250.087212 270.688797 
L 252.541635 277.295114 
L 254.996059 276.19492 
L 257.450482 269.803025 
L 259.904905 279.745556 
L 262.359329 281.500814 
L 264.813752 281.900625 
L 267.268176 274.92136 
L 269.722599 277.166833 
L 272.177023 274.069822 
L 274.631446 282.494503 
L 277.085869 277.032099 
L 279.540293 277.694986 
L 281.994716 278.32464 
L 284.44914 273.457821 
L 286.903563 283.757989 
L 289.357987 281.808642 
L 291.81241 289.095493 
L 294.266833 283.903771 
L 296.721257 281.767224 
L 299.17568 283.307189 
L 301.630104 288.021851 
L 304.084527 284.503085 
L 306.538951 282.934082 
L 308.993374 290.798269 
L 311.447797 289.81509 
L 313.902221 292.302642 
L 316.356644 288.635706 
L 318.811068 289.044024 
L 321.265491 290.908049 
L 323.719915 291.463812 
L 326.174338 293.969953 
L 328.628761 292.204231 
L 331.083185 294.51155 
L 333.537608 293.493394 
L 335.992032 291.777926 
L 338.446455 294.498608 
L 340.900879 298.998272 
L 343.355302 290.178067 
L 345.809725 293.945057 
L 348.264149 295.020697 
L 350.718572 296.354006 
L 353.172996 297.856281 
L 355.627419 297.82122 
L 358.081843 297.805905 
L 360.536266 300.21125 
L 362.990689 301.177206 
L 365.445113 300.904483 
L 367.899536 301.638093 
L 370.35396 301.603795 
L 372.808383 300.162327 
L 375.262807 302.320979 
L 377.71723 302.481024 
L 380.171653 303.593618 
L 382.626077 301.572439 
L 385.0805 300.65708 
L 387.534924 301.763451 
L 389.989347 302.585246 
L 392.443771 302.520818 
L 394.898194 303.113497 
L 397.352617 301.566901 
L 399.807041 303.396638 
L 402.261464 302.210937 
L 404.715888 303.299641 
L 407.170311 303.501597 
L 409.624735 302.692822 
L 412.079158 303.269262 
L 414.533581 303.4428 
L 416.988005 303.545994 
L 419.442428 303.484943 
L 421.896852 303.474247 
L 424.351275 303.093117 
L 426.805699 303.472824 
L 429.260122 303.33464 
L 431.714545 303.073267 
L 431.714545 301.736777 
L 431.714545 301.736777 
L 429.260122 301.906944 
L 426.805699 303.203991 
L 424.351275 301.905059 
L 421.896852 302.696931 
L 419.442428 302.954107 
L 416.988005 303.01401 
L 414.533581 303.320455 
L 412.079158 302.621349 
L 409.624735 300.49906 
L 407.170311 301.486352 
L 404.715888 301.973063 
L 402.261464 300.92664 
L 399.807041 301.88541 
L 397.352617 300.510649 
L 394.898194 301.474475 
L 392.443771 301.008538 
L 389.989347 300.93741 
L 387.534924 300.24604 
L 385.0805 298.925566 
L 382.626077 299.7011 
L 380.171653 300.896321 
L 377.71723 301.487541 
L 375.262807 299.941001 
L 372.808383 297.772095 
L 370.35396 299.861931 
L 367.899536 299.146339 
L 365.445113 298.583656 
L 362.990689 297.201538 
L 360.536266 297.077141 
L 358.081843 292.579975 
L 355.627419 294.714334 
L 353.172996 293.656626 
L 350.718572 290.559108 
L 348.264149 288.043034 
L 345.809725 290.091951 
L 343.355302 284.292613 
L 340.900879 295.064904 
L 338.446455 293.126831 
L 335.992032 288.394184 
L 333.537608 289.149994 
L 331.083185 286.958263 
L 328.628761 289.254298 
L 326.174338 290.320954 
L 323.719915 285.176289 
L 321.265491 288.787296 
L 318.811068 283.607051 
L 316.356644 282.618927 
L 313.902221 285.739542 
L 311.447797 285.496276 
L 308.993374 286.157794 
L 306.538951 272.150042 
L 304.084527 277.086481 
L 301.630104 285.664564 
L 299.17568 275.726466 
L 296.721257 274.592034 
L 294.266833 278.944002 
L 291.81241 285.978901 
L 289.357987 275.616989 
L 286.903563 279.055931 
L 284.44914 259.706404 
L 281.994716 272.477063 
L 279.540293 271.464841 
L 277.085869 274.48052 
L 274.631446 279.777768 
L 272.177023 270.322356 
L 269.722599 270.20442 
L 267.268176 266.514312 
L 264.813752 278.656421 
L 262.359329 273.961336 
L 259.904905 272.257933 
L 257.450482 265.539084 
L 254.996059 267.864369 
L 252.541635 270.849118 
L 250.087212 262.227171 
L 247.632788 269.508228 
L 245.178365 261.559161 
L 242.723941 271.348656 
L 240.269518 265.64448 
L 237.815095 253.336892 
L 235.360671 261.068282 
L 232.906248 266.374428 
L 230.451824 262.65927 
L 227.997401 266.931842 
L 225.542977 274.05508 
L 223.088554 263.728628 
L 220.634131 258.207026 
L 218.179707 255.666946 
L 215.725284 257.887859 
L 213.27086 265.851086 
L 210.816437 257.955023 
L 208.362013 264.312302 
L 205.90759 271.80326 
L 203.453167 254.109054 
L 200.998743 266.813233 
L 198.54432 267.719108 
L 196.089896 260.482121 
L 193.635473 255.740793 
L 191.181049 251.928966 
L 188.726626 256.681623 
L 186.272203 252.683134 
L 183.817779 247.8209 
L 181.363356 258.292663 
L 178.908932 248.213906 
L 176.454509 256.5422 
L 174.000085 261.368038 
L 171.545662 249.49516 
L 169.091239 256.505762 
L 166.636815 243.75596 
L 164.182392 252.176706 
L 161.727968 249.170703 
L 159.273545 243.555413 
L 156.819121 247.299726 
L 154.364698 253.872616 
L 151.910275 254.501309 
L 149.455851 258.061752 
L 147.001428 247.034025 
L 144.547004 254.897665 
L 142.092581 245.910758 
L 139.638157 237.735036 
L 137.183734 249.381743 
L 134.729311 236.132743 
L 132.274887 230.245691 
L 129.820464 229.020064 
L 127.36604 244.018953 
L 124.911617 237.691191 
L 122.457193 229.342535 
L 120.00277 230.229942 
L 117.548347 222.495928 
L 115.093923 228.235464 
L 112.6395 219.86275 
L 110.185076 235.228153 
L 107.730653 209.235769 
L 105.276229 222.271679 
L 102.821806 216.865512 
L 100.367383 211.663566 
L 97.912959 199.754626 
L 95.458536 205.07273 
L 93.004112 185.052044 
L 90.549689 176.442763 
L 88.095265 146.381776 
L 85.640842 152.790106 
L 83.186419 135.731738 
L 80.731995 114.653624 
L 78.277572 97.850604 
L 75.823148 77.905694 
L 73.368725 58.383972 
L 70.914301 56.714981 
L 68.459878 43.623942 
L 66.005455 38.272889 
z
" style="fill:#d62728;fill-opacity:0.25;"/>
   </g>
   <g id="PolyCollection_5">
    <path clip-path="url(#pc494435bf2)" d="M 66.005455 37.825263 
L 66.005455 38.366913 
L 68.459878 43.783412 
L 70.914301 60.897031 
L 73.368725 60.001119 
L 75.823148 72.624125 
L 78.277572 98.314252 
L 80.731995 120.250936 
L 83.186419 142.165408 
L 85.640842 161.043899 
L 88.095265 150.298697 
L 90.549689 189.179489 
L 93.004112 185.923558 
L 95.458536 211.208186 
L 97.912959 209.44806 
L 100.367383 219.208561 
L 102.821806 224.654114 
L 105.276229 229.940371 
L 107.730653 219.157845 
L 110.185076 241.340445 
L 112.6395 233.138918 
L 115.093923 238.144272 
L 117.548347 228.403844 
L 120.00277 238.023691 
L 122.457193 231.129041 
L 124.911617 242.280165 
L 127.36604 247.056147 
L 129.820464 236.257974 
L 132.274887 239.721715 
L 134.729311 243.565877 
L 137.183734 253.806856 
L 139.638157 249.653069 
L 142.092581 251.233521 
L 144.547004 257.814071 
L 147.001428 255.800026 
L 149.455851 263.572627 
L 151.910275 261.234142 
L 154.364698 258.877251 
L 156.819121 252.137147 
L 159.273545 254.060096 
L 161.727968 252.305715 
L 164.182392 253.07831 
L 166.636815 248.668053 
L 169.091239 257.597675 
L 171.545662 254.824484 
L 174.000085 263.163691 
L 176.454509 261.375505 
L 178.908932 254.047456 
L 181.363356 263.536674 
L 183.817779 253.735158 
L 186.272203 255.520702 
L 188.726626 268.454546 
L 191.181049 257.682696 
L 193.635473 260.552424 
L 196.089896 269.452969 
L 198.54432 274.921599 
L 200.998743 272.086303 
L 203.453167 259.547777 
L 205.90759 274.744205 
L 208.362013 275.996792 
L 210.816437 261.944798 
L 213.27086 275.665734 
L 215.725284 265.525697 
L 218.179707 262.350146 
L 220.634131 264.028487 
L 223.088554 269.823947 
L 225.542977 282.710122 
L 227.997401 270.027304 
L 230.451824 270.524158 
L 232.906248 272.681903 
L 235.360671 269.99808 
L 237.815095 264.560582 
L 240.269518 270.647744 
L 242.723941 274.972029 
L 245.178365 265.064024 
L 247.632788 276.198424 
L 250.087212 270.811909 
L 252.541635 276.727539 
L 254.996059 274.496921 
L 257.450482 265.801964 
L 259.904905 278.993886 
L 262.359329 275.401152 
L 264.813752 280.105043 
L 267.268176 271.193831 
L 269.722599 278.312088 
L 272.177023 274.982781 
L 274.631446 280.829131 
L 277.085869 277.909573 
L 279.540293 276.498055 
L 281.994716 277.170753 
L 284.44914 267.700064 
L 286.903563 285.169465 
L 289.357987 279.444833 
L 291.81241 288.645883 
L 294.266833 282.069445 
L 296.721257 279.750136 
L 299.17568 279.805246 
L 301.630104 285.436856 
L 304.084527 286.576282 
L 306.538951 283.393195 
L 308.993374 293.151227 
L 311.447797 290.106914 
L 313.902221 287.777906 
L 316.356644 289.871682 
L 318.811068 285.922935 
L 321.265491 291.85742 
L 323.719915 291.547146 
L 326.174338 294.760655 
L 328.628761 293.472166 
L 331.083185 290.86205 
L 333.537608 293.654749 
L 335.992032 291.078775 
L 338.446455 296.899836 
L 340.900879 298.713947 
L 343.355302 289.914182 
L 345.809725 293.901138 
L 348.264149 294.745039 
L 350.718572 293.590587 
L 353.172996 298.842623 
L 355.627419 298.663526 
L 358.081843 298.028725 
L 360.536266 297.61999 
L 362.990689 298.853643 
L 365.445113 300.986153 
L 367.899536 301.092085 
L 370.35396 300.11696 
L 372.808383 301.219874 
L 375.262807 302.632325 
L 377.71723 302.691224 
L 380.171653 303.576289 
L 382.626077 302.242905 
L 385.0805 302.636891 
L 387.534924 301.633989 
L 389.989347 302.924054 
L 392.443771 303.145682 
L 394.898194 302.276191 
L 397.352617 302.131689 
L 399.807041 303.367161 
L 402.261464 302.827755 
L 404.715888 303.460628 
L 407.170311 302.782586 
L 409.624735 303.24302 
L 412.079158 303.321424 
L 414.533581 303.131239 
L 416.988005 303.411501 
L 419.442428 303.376059 
L 421.896852 303.341578 
L 424.351275 302.436655 
L 426.805699 303.545187 
L 429.260122 303.330153 
L 431.714545 302.954038 
L 431.714545 302.376233 
L 431.714545 302.376233 
L 429.260122 303.054414 
L 426.805699 302.280186 
L 424.351275 300.105318 
L 421.896852 302.759778 
L 419.442428 303.249359 
L 416.988005 303.067706 
L 414.533581 301.964177 
L 412.079158 303.197498 
L 409.624735 301.130195 
L 407.170311 302.483859 
L 404.715888 302.439328 
L 402.261464 301.50385 
L 399.807041 301.412115 
L 397.352617 299.645768 
L 394.898194 300.530612 
L 392.443771 300.305036 
L 389.989347 301.759834 
L 387.534924 298.698363 
L 385.0805 299.715011 
L 382.626077 300.740217 
L 380.171653 301.086441 
L 377.71723 300.073616 
L 375.262807 300.798205 
L 372.808383 297.769637 
L 370.35396 297.5417 
L 367.899536 299.465249 
L 365.445113 295.879074 
L 362.990689 297.18853 
L 360.536266 291.47806 
L 358.081843 293.01447 
L 355.627419 295.131645 
L 353.172996 294.168284 
L 350.718572 289.04998 
L 348.264149 288.650171 
L 345.809725 291.06401 
L 343.355302 288.012338 
L 340.900879 295.651086 
L 338.446455 289.250171 
L 335.992032 288.842258 
L 333.537608 290.946478 
L 331.083185 288.427058 
L 328.628761 286.651986 
L 326.174338 289.899815 
L 323.719915 285.383527 
L 321.265491 286.644603 
L 318.811068 279.475107 
L 316.356644 286.934863 
L 313.902221 284.943696 
L 311.447797 285.308832 
L 308.993374 286.552581 
L 306.538951 276.599631 
L 304.084527 283.843307 
L 301.630104 280.158663 
L 299.17568 271.216502 
L 296.721257 274.036285 
L 294.266833 279.49191 
L 291.81241 284.718928 
L 289.357987 272.033932 
L 286.903563 280.115734 
L 284.44914 258.727389 
L 281.994716 268.947935 
L 279.540293 272.91567 
L 277.085869 275.301344 
L 274.631446 275.699393 
L 272.177023 265.990231 
L 269.722599 271.474022 
L 267.268176 268.289644 
L 264.813752 274.933942 
L 262.359329 270.982718 
L 259.904905 272.829053 
L 257.450482 262.758236 
L 254.996059 267.102374 
L 252.541635 271.97527 
L 250.087212 266.324416 
L 247.632788 269.559163 
L 245.178365 261.318291 
L 242.723941 266.852954 
L 240.269518 263.791615 
L 237.815095 254.48689 
L 235.360671 263.730364 
L 232.906248 267.044186 
L 230.451824 262.391811 
L 227.997401 266.838196 
L 225.542977 276.210689 
L 223.088554 266.319353 
L 220.634131 260.683741 
L 218.179707 255.027239 
L 215.725284 259.694328 
L 213.27086 269.155251 
L 210.816437 258.840467 
L 208.362013 268.903183 
L 205.90759 268.756507 
L 203.453167 251.611917 
L 200.998743 267.814694 
L 198.54432 268.421133 
L 196.089896 261.691353 
L 193.635473 250.088188 
L 191.181049 251.118564 
L 188.726626 262.272254 
L 186.272203 247.841488 
L 183.817779 246.670526 
L 181.363356 258.839689 
L 178.908932 245.376488 
L 176.454509 255.606926 
L 174.000085 258.072949 
L 171.545662 246.246978 
L 169.091239 252.490003 
L 166.636815 243.917559 
L 164.182392 249.877643 
L 161.727968 245.606122 
L 159.273545 247.22577 
L 156.819121 245.210471 
L 154.364698 255.916011 
L 151.910275 257.790761 
L 149.455851 252.93586 
L 147.001428 250.089865 
L 144.547004 253.954979 
L 142.092581 242.988326 
L 139.638157 243.316212 
L 137.183734 248.596162 
L 134.729311 238.028755 
L 132.274887 233.296792 
L 129.820464 230.531557 
L 127.36604 243.204884 
L 124.911617 233.243473 
L 122.457193 224.850059 
L 120.00277 231.632071 
L 117.548347 219.766468 
L 115.093923 225.779028 
L 112.6395 226.067513 
L 110.185076 236.259518 
L 107.730653 213.688286 
L 105.276229 220.870485 
L 102.821806 217.851442 
L 100.367383 213.592433 
L 97.912959 198.346758 
L 95.458536 206.110645 
L 93.004112 177.65908 
L 90.549689 180.790105 
L 88.095265 144.449253 
L 85.640842 143.363476 
L 83.186419 134.437267 
L 80.731995 109.724701 
L 78.277572 87.562048 
L 75.823148 61.253775 
L 73.368725 59.071681 
L 70.914301 51.495419 
L 68.459878 42.700112 
L 66.005455 37.825263 
z
" style="fill:#9467bd;fill-opacity:0.25;"/>
   </g>
   <g id="matplotlib.axis_1">
    <g id="xtick_1">
     <g id="line2d_1">
      <defs>
       <path d="M 0 0 
L 0 3.5 
" id="m70876bc9d2" style="stroke:#000000;stroke-width:0.8;"/>
      </defs>
      <g>
       <use style="stroke:#000000;stroke-width:0.8;" x="66.005455" xlink:href="#m70876bc9d2" y="303.64"/>
      </g>
     </g>
     <g id="text_1">
      <!-- 0 -->
      <g transform="translate(62.824205 318.238437)scale(0.1 -0.1)">
       <defs>
        <path d="M 31.78125 66.40625 
Q 24.171875 66.40625 20.328125 58.90625 
Q 16.5 51.421875 16.5 36.375 
Q 16.5 21.390625 20.328125 13.890625 
Q 24.171875 6.390625 31.78125 6.390625 
Q 39.453125 6.390625 43.28125 13.890625 
Q 47.125 21.390625 47.125 36.375 
Q 47.125 51.421875 43.28125 58.90625 
Q 39.453125 66.40625 31.78125 66.40625 
z
M 31.78125 74.21875 
Q 44.046875 74.21875 50.515625 64.515625 
Q 56.984375 54.828125 56.984375 36.375 
Q 56.984375 17.96875 50.515625 8.265625 
Q 44.046875 -1.421875 31.78125 -1.421875 
Q 19.53125 -1.421875 13.0625 8.265625 
Q 6.59375 17.96875 6.59375 36.375 
Q 6.59375 54.828125 13.0625 64.515625 
Q 19.53125 74.21875 31.78125 74.21875 
z
" id="DejaVuSans-48"/>
       </defs>
       <use xlink:href="#DejaVuSans-48"/>
      </g>
     </g>
    </g>
    <g id="xtick_2">
     <g id="line2d_2">
      <g>
       <use style="stroke:#000000;stroke-width:0.8;" x="115.093923" xlink:href="#m70876bc9d2" y="303.64"/>
      </g>
     </g>
     <g id="text_2">
      <!-- 20 -->
      <g transform="translate(108.731423 318.238437)scale(0.1 -0.1)">
       <defs>
        <path d="M 19.1875 8.296875 
L 53.609375 8.296875 
L 53.609375 0 
L 7.328125 0 
L 7.328125 8.296875 
Q 12.9375 14.109375 22.625 23.890625 
Q 32.328125 33.6875 34.8125 36.53125 
Q 39.546875 41.84375 41.421875 45.53125 
Q 43.3125 49.21875 43.3125 52.78125 
Q 43.3125 58.59375 39.234375 62.25 
Q 35.15625 65.921875 28.609375 65.921875 
Q 23.96875 65.921875 18.8125 64.3125 
Q 13.671875 62.703125 7.8125 59.421875 
L 7.8125 69.390625 
Q 13.765625 71.78125 18.9375 73 
Q 24.125 74.21875 28.421875 74.21875 
Q 39.75 74.21875 46.484375 68.546875 
Q 53.21875 62.890625 53.21875 53.421875 
Q 53.21875 48.921875 51.53125 44.890625 
Q 49.859375 40.875 45.40625 35.40625 
Q 44.1875 33.984375 37.640625 27.21875 
Q 31.109375 20.453125 19.1875 8.296875 
z
" id="DejaVuSans-50"/>
       </defs>
       <use xlink:href="#DejaVuSans-50"/>
       <use x="63.623047" xlink:href="#DejaVuSans-48"/>
      </g>
     </g>
    </g>
    <g id="xtick_3">
     <g id="line2d_3">
      <g>
       <use style="stroke:#000000;stroke-width:0.8;" x="164.182392" xlink:href="#m70876bc9d2" y="303.64"/>
      </g>
     </g>
     <g id="text_3">
      <!-- 40 -->
      <g transform="translate(157.819892 318.238437)scale(0.1 -0.1)">
       <defs>
        <path d="M 37.796875 64.3125 
L 12.890625 25.390625 
L 37.796875 25.390625 
z
M 35.203125 72.90625 
L 47.609375 72.90625 
L 47.609375 25.390625 
L 58.015625 25.390625 
L 58.015625 17.1875 
L 47.609375 17.1875 
L 47.609375 0 
L 37.796875 0 
L 37.796875 17.1875 
L 4.890625 17.1875 
L 4.890625 26.703125 
z
" id="DejaVuSans-52"/>
       </defs>
       <use xlink:href="#DejaVuSans-52"/>
       <use x="63.623047" xlink:href="#DejaVuSans-48"/>
      </g>
     </g>
    </g>
    <g id="xtick_4">
     <g id="line2d_4">
      <g>
       <use style="stroke:#000000;stroke-width:0.8;" x="213.27086" xlink:href="#m70876bc9d2" y="303.64"/>
      </g>
     </g>
     <g id="text_4">
      <!-- 60 -->
      <g transform="translate(206.90836 318.238437)scale(0.1 -0.1)">
       <defs>
        <path d="M 33.015625 40.375 
Q 26.375 40.375 22.484375 35.828125 
Q 18.609375 31.296875 18.609375 23.390625 
Q 18.609375 15.53125 22.484375 10.953125 
Q 26.375 6.390625 33.015625 6.390625 
Q 39.65625 6.390625 43.53125 10.953125 
Q 47.40625 15.53125 47.40625 23.390625 
Q 47.40625 31.296875 43.53125 35.828125 
Q 39.65625 40.375 33.015625 40.375 
z
M 52.59375 71.296875 
L 52.59375 62.3125 
Q 48.875 64.0625 45.09375 64.984375 
Q 41.3125 65.921875 37.59375 65.921875 
Q 27.828125 65.921875 22.671875 59.328125 
Q 17.53125 52.734375 16.796875 39.40625 
Q 19.671875 43.65625 24.015625 45.921875 
Q 28.375 48.1875 33.59375 48.1875 
Q 44.578125 48.1875 50.953125 41.515625 
Q 57.328125 34.859375 57.328125 23.390625 
Q 57.328125 12.15625 50.6875 5.359375 
Q 44.046875 -1.421875 33.015625 -1.421875 
Q 20.359375 -1.421875 13.671875 8.265625 
Q 6.984375 17.96875 6.984375 36.375 
Q 6.984375 53.65625 15.1875 63.9375 
Q 23.390625 74.21875 37.203125 74.21875 
Q 40.921875 74.21875 44.703125 73.484375 
Q 48.484375 72.75 52.59375 71.296875 
z
" id="DejaVuSans-54"/>
       </defs>
       <use xlink:href="#DejaVuSans-54"/>
       <use x="63.623047" xlink:href="#DejaVuSans-48"/>
      </g>
     </g>
    </g>
    <g id="xtick_5">
     <g id="line2d_5">
      <g>
       <use style="stroke:#000000;stroke-width:0.8;" x="262.359329" xlink:href="#m70876bc9d2" y="303.64"/>
      </g>
     </g>
     <g id="text_5">
      <!-- 80 -->
      <g transform="translate(255.996829 318.238437)scale(0.1 -0.1)">
       <defs>
        <path d="M 31.78125 34.625 
Q 24.75 34.625 20.71875 30.859375 
Q 16.703125 27.09375 16.703125 20.515625 
Q 16.703125 13.921875 20.71875 10.15625 
Q 24.75 6.390625 31.78125 6.390625 
Q 38.8125 6.390625 42.859375 10.171875 
Q 46.921875 13.96875 46.921875 20.515625 
Q 46.921875 27.09375 42.890625 30.859375 
Q 38.875 34.625 31.78125 34.625 
z
M 21.921875 38.8125 
Q 15.578125 40.375 12.03125 44.71875 
Q 8.5 49.078125 8.5 55.328125 
Q 8.5 64.0625 14.71875 69.140625 
Q 20.953125 74.21875 31.78125 74.21875 
Q 42.671875 74.21875 48.875 69.140625 
Q 55.078125 64.0625 55.078125 55.328125 
Q 55.078125 49.078125 51.53125 44.71875 
Q 48 40.375 41.703125 38.8125 
Q 48.828125 37.15625 52.796875 32.3125 
Q 56.78125 27.484375 56.78125 20.515625 
Q 56.78125 9.90625 50.3125 4.234375 
Q 43.84375 -1.421875 31.78125 -1.421875 
Q 19.734375 -1.421875 13.25 4.234375 
Q 6.78125 9.90625 6.78125 20.515625 
Q 6.78125 27.484375 10.78125 32.3125 
Q 14.796875 37.15625 21.921875 38.8125 
z
M 18.3125 54.390625 
Q 18.3125 48.734375 21.84375 45.5625 
Q 25.390625 42.390625 31.78125 42.390625 
Q 38.140625 42.390625 41.71875 45.5625 
Q 45.3125 48.734375 45.3125 54.390625 
Q 45.3125 60.0625 41.71875 63.234375 
Q 38.140625 66.40625 31.78125 66.40625 
Q 25.390625 66.40625 21.84375 63.234375 
Q 18.3125 60.0625 18.3125 54.390625 
z
" id="DejaVuSans-56"/>
       </defs>
       <use xlink:href="#DejaVuSans-56"/>
       <use x="63.623047" xlink:href="#DejaVuSans-48"/>
      </g>
     </g>
    </g>
    <g id="xtick_6">
     <g id="line2d_6">
      <g>
       <use style="stroke:#000000;stroke-width:0.8;" x="311.447797" xlink:href="#m70876bc9d2" y="303.64"/>
      </g>
     </g>
     <g id="text_6">
      <!-- 100 -->
      <g transform="translate(301.904047 318.238437)scale(0.1 -0.1)">
       <defs>
        <path d="M 12.40625 8.296875 
L 28.515625 8.296875 
L 28.515625 63.921875 
L 10.984375 60.40625 
L 10.984375 69.390625 
L 28.421875 72.90625 
L 38.28125 72.90625 
L 38.28125 8.296875 
L 54.390625 8.296875 
L 54.390625 0 
L 12.40625 0 
z
" id="DejaVuSans-49"/>
       </defs>
       <use xlink:href="#DejaVuSans-49"/>
       <use x="63.623047" xlink:href="#DejaVuSans-48"/>
       <use x="127.246094" xlink:href="#DejaVuSans-48"/>
      </g>
     </g>
    </g>
    <g id="xtick_7">
     <g id="line2d_7">
      <g>
       <use style="stroke:#000000;stroke-width:0.8;" x="360.536266" xlink:href="#m70876bc9d2" y="303.64"/>
      </g>
     </g>
     <g id="text_7">
      <!-- 120 -->
      <g transform="translate(350.992516 318.238437)scale(0.1 -0.1)">
       <use xlink:href="#DejaVuSans-49"/>
       <use x="63.623047" xlink:href="#DejaVuSans-50"/>
       <use x="127.246094" xlink:href="#DejaVuSans-48"/>
      </g>
     </g>
    </g>
    <g id="xtick_8">
     <g id="line2d_8">
      <g>
       <use style="stroke:#000000;stroke-width:0.8;" x="409.624735" xlink:href="#m70876bc9d2" y="303.64"/>
      </g>
     </g>
     <g id="text_8">
      <!-- 140 -->
      <g transform="translate(400.080985 318.238437)scale(0.1 -0.1)">
       <use xlink:href="#DejaVuSans-49"/>
       <use x="63.623047" xlink:href="#DejaVuSans-52"/>
       <use x="127.246094" xlink:href="#DejaVuSans-48"/>
      </g>
     </g>
    </g>
    <g id="text_9">
     <!-- Epochs -->
     <g transform="translate(230.944375 331.916562)scale(0.1 -0.1)">
      <defs>
       <path d="M 9.8125 72.90625 
L 55.90625 72.90625 
L 55.90625 64.59375 
L 19.671875 64.59375 
L 19.671875 43.015625 
L 54.390625 43.015625 
L 54.390625 34.71875 
L 19.671875 34.71875 
L 19.671875 8.296875 
L 56.78125 8.296875 
L 56.78125 0 
L 9.8125 0 
z
" id="DejaVuSans-69"/>
       <path d="M 18.109375 8.203125 
L 18.109375 -20.796875 
L 9.078125 -20.796875 
L 9.078125 54.6875 
L 18.109375 54.6875 
L 18.109375 46.390625 
Q 20.953125 51.265625 25.265625 53.625 
Q 29.59375 56 35.59375 56 
Q 45.5625 56 51.78125 48.09375 
Q 58.015625 40.1875 58.015625 27.296875 
Q 58.015625 14.40625 51.78125 6.484375 
Q 45.5625 -1.421875 35.59375 -1.421875 
Q 29.59375 -1.421875 25.265625 0.953125 
Q 20.953125 3.328125 18.109375 8.203125 
z
M 48.6875 27.296875 
Q 48.6875 37.203125 44.609375 42.84375 
Q 40.53125 48.484375 33.40625 48.484375 
Q 26.265625 48.484375 22.1875 42.84375 
Q 18.109375 37.203125 18.109375 27.296875 
Q 18.109375 17.390625 22.1875 11.75 
Q 26.265625 6.109375 33.40625 6.109375 
Q 40.53125 6.109375 44.609375 11.75 
Q 48.6875 17.390625 48.6875 27.296875 
z
" id="DejaVuSans-112"/>
       <path d="M 30.609375 48.390625 
Q 23.390625 48.390625 19.1875 42.75 
Q 14.984375 37.109375 14.984375 27.296875 
Q 14.984375 17.484375 19.15625 11.84375 
Q 23.34375 6.203125 30.609375 6.203125 
Q 37.796875 6.203125 41.984375 11.859375 
Q 46.1875 17.53125 46.1875 27.296875 
Q 46.1875 37.015625 41.984375 42.703125 
Q 37.796875 48.390625 30.609375 48.390625 
z
M 30.609375 56 
Q 42.328125 56 49.015625 48.375 
Q 55.71875 40.765625 55.71875 27.296875 
Q 55.71875 13.875 49.015625 6.21875 
Q 42.328125 -1.421875 30.609375 -1.421875 
Q 18.84375 -1.421875 12.171875 6.21875 
Q 5.515625 13.875 5.515625 27.296875 
Q 5.515625 40.765625 12.171875 48.375 
Q 18.84375 56 30.609375 56 
z
" id="DejaVuSans-111"/>
       <path d="M 48.78125 52.59375 
L 48.78125 44.1875 
Q 44.96875 46.296875 41.140625 47.34375 
Q 37.3125 48.390625 33.40625 48.390625 
Q 24.65625 48.390625 19.8125 42.84375 
Q 14.984375 37.3125 14.984375 27.296875 
Q 14.984375 17.28125 19.8125 11.734375 
Q 24.65625 6.203125 33.40625 6.203125 
Q 37.3125 6.203125 41.140625 7.25 
Q 44.96875 8.296875 48.78125 10.40625 
L 48.78125 2.09375 
Q 45.015625 0.34375 40.984375 -0.53125 
Q 36.96875 -1.421875 32.421875 -1.421875 
Q 20.0625 -1.421875 12.78125 6.34375 
Q 5.515625 14.109375 5.515625 27.296875 
Q 5.515625 40.671875 12.859375 48.328125 
Q 20.21875 56 33.015625 56 
Q 37.15625 56 41.109375 55.140625 
Q 45.0625 54.296875 48.78125 52.59375 
z
" id="DejaVuSans-99"/>
       <path d="M 54.890625 33.015625 
L 54.890625 0 
L 45.90625 0 
L 45.90625 32.71875 
Q 45.90625 40.484375 42.875 44.328125 
Q 39.84375 48.1875 33.796875 48.1875 
Q 26.515625 48.1875 22.3125 43.546875 
Q 18.109375 38.921875 18.109375 30.90625 
L 18.109375 0 
L 9.078125 0 
L 9.078125 75.984375 
L 18.109375 75.984375 
L 18.109375 46.1875 
Q 21.34375 51.125 25.703125 53.5625 
Q 30.078125 56 35.796875 56 
Q 45.21875 56 50.046875 50.171875 
Q 54.890625 44.34375 54.890625 33.015625 
z
" id="DejaVuSans-104"/>
       <path d="M 44.28125 53.078125 
L 44.28125 44.578125 
Q 40.484375 46.53125 36.375 47.5 
Q 32.28125 48.484375 27.875 48.484375 
Q 21.1875 48.484375 17.84375 46.4375 
Q 14.5 44.390625 14.5 40.28125 
Q 14.5 37.15625 16.890625 35.375 
Q 19.28125 33.59375 26.515625 31.984375 
L 29.59375 31.296875 
Q 39.15625 29.25 43.1875 25.515625 
Q 47.21875 21.78125 47.21875 15.09375 
Q 47.21875 7.46875 41.1875 3.015625 
Q 35.15625 -1.421875 24.609375 -1.421875 
Q 20.21875 -1.421875 15.453125 -0.5625 
Q 10.6875 0.296875 5.421875 2 
L 5.421875 11.28125 
Q 10.40625 8.6875 15.234375 7.390625 
Q 20.0625 6.109375 24.8125 6.109375 
Q 31.15625 6.109375 34.5625 8.28125 
Q 37.984375 10.453125 37.984375 14.40625 
Q 37.984375 18.0625 35.515625 20.015625 
Q 33.0625 21.96875 24.703125 23.78125 
L 21.578125 24.515625 
Q 13.234375 26.265625 9.515625 29.90625 
Q 5.8125 33.546875 5.8125 39.890625 
Q 5.8125 47.609375 11.28125 51.796875 
Q 16.75 56 26.8125 56 
Q 31.78125 56 36.171875 55.265625 
Q 40.578125 54.546875 44.28125 53.078125 
z
" id="DejaVuSans-115"/>
      </defs>
      <use xlink:href="#DejaVuSans-69"/>
      <use x="63.183594" xlink:href="#DejaVuSans-112"/>
      <use x="126.660156" xlink:href="#DejaVuSans-111"/>
      <use x="187.841797" xlink:href="#DejaVuSans-99"/>
      <use x="242.822266" xlink:href="#DejaVuSans-104"/>
      <use x="306.201172" xlink:href="#DejaVuSans-115"/>
     </g>
    </g>
   </g>
   <g id="matplotlib.axis_2">
    <g id="ytick_1">
     <g id="line2d_9">
      <defs>
       <path d="M 0 0 
L -3.5 0 
" id="m20292dc27b" style="stroke:#000000;stroke-width:0.8;"/>
      </defs>
      <g>
       <use style="stroke:#000000;stroke-width:0.8;" x="47.72" xlink:href="#m20292dc27b" y="303.64"/>
      </g>
     </g>
     <g id="text_10">
      <!-- 0.0 -->
      <g transform="translate(24.816875 307.439219)scale(0.1 -0.1)">
       <defs>
        <path d="M 10.6875 12.40625 
L 21 12.40625 
L 21 0 
L 10.6875 0 
z
" id="DejaVuSans-46"/>
       </defs>
       <use xlink:href="#DejaVuSans-48"/>
       <use x="63.623047" xlink:href="#DejaVuSans-46"/>
       <use x="95.410156" xlink:href="#DejaVuSans-48"/>
      </g>
     </g>
    </g>
    <g id="ytick_2">
     <g id="line2d_10">
      <g>
       <use style="stroke:#000000;stroke-width:0.8;" x="47.72" xlink:href="#m20292dc27b" y="245.864"/>
      </g>
     </g>
     <g id="text_11">
      <!-- 0.5 -->
      <g transform="translate(24.816875 249.663219)scale(0.1 -0.1)">
       <defs>
        <path d="M 10.796875 72.90625 
L 49.515625 72.90625 
L 49.515625 64.59375 
L 19.828125 64.59375 
L 19.828125 46.734375 
Q 21.96875 47.46875 24.109375 47.828125 
Q 26.265625 48.1875 28.421875 48.1875 
Q 40.625 48.1875 47.75 41.5 
Q 54.890625 34.8125 54.890625 23.390625 
Q 54.890625 11.625 47.5625 5.09375 
Q 40.234375 -1.421875 26.90625 -1.421875 
Q 22.3125 -1.421875 17.546875 -0.640625 
Q 12.796875 0.140625 7.71875 1.703125 
L 7.71875 11.625 
Q 12.109375 9.234375 16.796875 8.0625 
Q 21.484375 6.890625 26.703125 6.890625 
Q 35.15625 6.890625 40.078125 11.328125 
Q 45.015625 15.765625 45.015625 23.390625 
Q 45.015625 31 40.078125 35.4375 
Q 35.15625 39.890625 26.703125 39.890625 
Q 22.75 39.890625 18.8125 39.015625 
Q 14.890625 38.140625 10.796875 36.28125 
z
" id="DejaVuSans-53"/>
       </defs>
       <use xlink:href="#DejaVuSans-48"/>
       <use x="63.623047" xlink:href="#DejaVuSans-46"/>
       <use x="95.410156" xlink:href="#DejaVuSans-53"/>
      </g>
     </g>
    </g>
    <g id="ytick_3">
     <g id="line2d_11">
      <g>
       <use style="stroke:#000000;stroke-width:0.8;" x="47.72" xlink:href="#m20292dc27b" y="188.088"/>
      </g>
     </g>
     <g id="text_12">
      <!-- 1.0 -->
      <g transform="translate(24.816875 191.887219)scale(0.1 -0.1)">
       <use xlink:href="#DejaVuSans-49"/>
       <use x="63.623047" xlink:href="#DejaVuSans-46"/>
       <use x="95.410156" xlink:href="#DejaVuSans-48"/>
      </g>
     </g>
    </g>
    <g id="ytick_4">
     <g id="line2d_12">
      <g>
       <use style="stroke:#000000;stroke-width:0.8;" x="47.72" xlink:href="#m20292dc27b" y="130.312"/>
      </g>
     </g>
     <g id="text_13">
      <!-- 1.5 -->
      <g transform="translate(24.816875 134.111219)scale(0.1 -0.1)">
       <use xlink:href="#DejaVuSans-49"/>
       <use x="63.623047" xlink:href="#DejaVuSans-46"/>
       <use x="95.410156" xlink:href="#DejaVuSans-53"/>
      </g>
     </g>
    </g>
    <g id="ytick_5">
     <g id="line2d_13">
      <g>
       <use style="stroke:#000000;stroke-width:0.8;" x="47.72" xlink:href="#m20292dc27b" y="72.536"/>
      </g>
     </g>
     <g id="text_14">
      <!-- 2.0 -->
      <g transform="translate(24.816875 76.335219)scale(0.1 -0.1)">
       <use xlink:href="#DejaVuSans-50"/>
       <use x="63.623047" xlink:href="#DejaVuSans-46"/>
       <use x="95.410156" xlink:href="#DejaVuSans-48"/>
      </g>
     </g>
    </g>
    <g id="ytick_6">
     <g id="line2d_14">
      <g>
       <use style="stroke:#000000;stroke-width:0.8;" x="47.72" xlink:href="#m20292dc27b" y="14.76"/>
      </g>
     </g>
     <g id="text_15">
      <!-- 2.5 -->
      <g transform="translate(24.816875 18.559219)scale(0.1 -0.1)">
       <use xlink:href="#DejaVuSans-50"/>
       <use x="63.623047" xlink:href="#DejaVuSans-46"/>
       <use x="95.410156" xlink:href="#DejaVuSans-53"/>
      </g>
     </g>
    </g>
    <g id="text_16">
     <!-- Loss -->
     <g transform="translate(18.737188 170.167187)rotate(-90)scale(0.1 -0.1)">
      <defs>
       <path d="M 9.8125 72.90625 
L 19.671875 72.90625 
L 19.671875 8.296875 
L 55.171875 8.296875 
L 55.171875 0 
L 9.8125 0 
z
" id="DejaVuSans-76"/>
      </defs>
      <use xlink:href="#DejaVuSans-76"/>
      <use x="53.962891" xlink:href="#DejaVuSans-111"/>
      <use x="115.144531" xlink:href="#DejaVuSans-115"/>
      <use x="167.244141" xlink:href="#DejaVuSans-115"/>
     </g>
    </g>
   </g>
   <g id="line2d_15">
    <path clip-path="url(#pc494435bf2)" d="M 66.005455 41.391125 
L 68.459878 79.735431 
L 70.914301 95.962362 
L 73.368725 93.231544 
L 75.823148 120.74285 
L 78.277572 177.649953 
L 80.731995 203.491172 
L 83.186419 210.397209 
L 85.640842 215.937837 
L 88.095265 212.575094 
L 90.549689 230.946056 
L 93.004112 243.15575 
L 95.458536 243.962583 
L 97.912959 242.467403 
L 100.367383 249.853027 
L 102.821806 246.851383 
L 105.276229 256.561587 
L 107.730653 247.866977 
L 110.185076 255.179252 
L 112.6395 255.275169 
L 115.093923 250.422887 
L 117.548347 247.500234 
L 120.00277 270.681162 
L 122.457193 253.040863 
L 127.36604 265.374684 
L 129.820464 265.216703 
L 132.274887 258.835389 
L 134.729311 263.461983 
L 137.183734 272.87033 
L 139.638157 269.200087 
L 142.092581 273.990305 
L 144.547004 272.813909 
L 147.001428 266.926286 
L 149.455851 277.113255 
L 151.910275 273.459939 
L 154.364698 274.901518 
L 156.819121 272.416134 
L 159.273545 271.124073 
L 161.727968 272.289185 
L 164.182392 277.07376 
L 166.636815 272.639001 
L 169.091239 280.114899 
L 171.545662 272.052213 
L 174.000085 282.191224 
L 176.454509 276.343097 
L 178.908932 274.08058 
L 181.363356 277.166856 
L 183.817779 275.256976 
L 186.272203 278.021648 
L 188.726626 277.685937 
L 191.181049 279.485795 
L 193.635473 278.371463 
L 196.089896 281.872441 
L 198.54432 286.609057 
L 200.998743 281.22641 
L 203.453167 277.911625 
L 205.90759 284.989749 
L 208.362013 284.614544 
L 210.816437 278.244514 
L 213.27086 288.180406 
L 215.725284 281.646753 
L 218.179707 277.011696 
L 220.634131 281.53673 
L 223.088554 279.443479 
L 225.542977 290.500756 
L 227.997401 286.391833 
L 230.451824 286.724722 
L 232.906248 288.214259 
L 235.360671 284.431173 
L 237.815095 279.05981 
L 240.269518 287.672609 
L 242.723941 287.382037 
L 245.178365 280.258775 
L 247.632788 285.665401 
L 250.087212 283.881059 
L 252.541635 290.492293 
L 254.996059 290.839287 
L 257.450482 287.297404 
L 259.904905 290.930973 
L 262.359329 287.729031 
L 264.813752 289.911147 
L 267.268176 287.256498 
L 269.722599 288.951975 
L 272.177023 287.00401 
L 274.631446 291.499423 
L 277.085869 289.94359 
L 279.540293 285.838898 
L 281.994716 290.624884 
L 284.44914 288.360956 
L 286.903563 292.352804 
L 289.357987 289.771503 
L 291.81241 293.346534 
L 294.266833 291.481086 
L 296.721257 292.890222 
L 299.17568 292.263939 
L 301.630104 295.161203 
L 304.084527 294.900252 
L 306.538951 295.41087 
L 308.993374 293.815541 
L 311.447797 297.348256 
L 313.902221 297.321455 
L 316.356644 297.032293 
L 318.811068 295.214804 
L 321.265491 298.217505 
L 323.719915 298.469993 
L 326.174338 298.125114 
L 328.628761 296.968113 
L 331.083185 300.207963 
L 333.537608 300.947619 
L 335.992032 300.078545 
L 338.446455 300.265443 
L 340.900879 301.246655 
L 343.355302 299.348764 
L 345.809725 301.551862 
L 348.264149 300.493687 
L 350.718572 300.372116 
L 358.081843 302.230864 
L 360.536266 301.076507 
L 365.445113 302.720412 
L 367.899536 301.508399 
L 370.35396 302.654557 
L 372.808383 302.110394 
L 377.71723 303.399909 
L 380.171653 303.398841 
L 385.0805 303.128104 
L 387.534924 303.493149 
L 389.989347 303.233586 
L 392.443771 303.45707 
L 394.898194 302.888046 
L 397.352617 303.312709 
L 399.807041 303.497149 
L 404.715888 303.447174 
L 407.170311 303.36437 
L 412.079158 303.537801 
L 414.533581 303.450921 
L 424.351275 303.520842 
L 431.714545 303.528688 
L 431.714545 303.528688 
" style="fill:none;stroke:#1f77b4;stroke-linecap:square;stroke-width:1.5;"/>
   </g>
   <g id="line2d_16">
    <path clip-path="url(#pc494435bf2)" d="M 66.005455 38.457187 
L 68.459878 44.054237 
L 70.914301 56.783012 
L 73.368725 59.807225 
L 75.823148 75.357094 
L 78.277572 99.528225 
L 80.731995 112.79865 
L 83.186419 135.683362 
L 85.640842 153.467537 
L 88.095265 146.5615 
L 90.549689 184.623697 
L 93.004112 184.477 
L 95.458536 203.491172 
L 97.912959 201.065031 
L 100.367383 214.933528 
L 102.821806 219.345719 
L 105.276229 227.605881 
L 107.730653 214.470869 
L 110.185076 232.751556 
L 112.6395 228.079825 
L 115.093923 230.991194 
L 117.548347 223.735341 
L 120.00277 232.379172 
L 122.457193 227.368909 
L 124.911617 238.845119 
L 127.36604 245.09102 
L 129.820464 232.356603 
L 132.274887 236.238428 
L 134.729311 238.529156 
L 137.183734 243.443502 
L 139.638157 244.887902 
L 142.092581 245.350561 
L 144.547004 253.75742 
L 147.001428 250.569584 
L 149.455851 259.76635 
L 151.910275 255.9748 
L 154.364698 253.983108 
L 156.819121 250.027934 
L 159.273545 246.732897 
L 161.727968 245.288497 
L 164.182392 251.353848 
L 166.636815 244.272903 
L 169.091239 252.448433 
L 171.545662 259.992037 
L 174.000085 261.656483 
L 176.454509 258.660481 
L 178.908932 250.044861 
L 181.363356 259.834056 
L 183.817779 256.048148 
L 186.272203 253.802558 
L 188.726626 260.623963 
L 191.181049 254.953564 
L 193.635473 255.782966 
L 196.089896 268.963116 
L 198.54432 269.532977 
L 200.998743 269.431417 
L 203.453167 257.069384 
L 205.90759 270.847606 
L 208.362013 273.036775 
L 210.816437 259.975111 
L 213.27086 272.433061 
L 215.725284 258.163969 
L 218.179707 257.656172 
L 220.634131 263.021892 
L 223.088554 267.546927 
L 225.542977 279.183938 
L 227.997401 267.044772 
L 230.451824 266.142022 
L 232.906248 268.111145 
L 235.360671 264.455008 
L 237.815095 257.644887 
L 240.269518 267.868531 
L 242.723941 272.607969 
L 245.178365 263.659459 
L 247.632788 273.155261 
L 250.087212 271.056367 
L 252.541635 275.409315 
L 254.996059 276.235895 
L 257.450482 263.619964 
L 259.904905 276.63367 
L 262.359329 273.809755 
L 264.813752 276.035598 
L 267.268176 277.240205 
L 269.722599 272.334323 
L 272.177023 272.593863 
L 274.631446 281.189736 
L 277.085869 277.649263 
L 279.540293 271.699577 
L 281.994716 277.042728 
L 284.44914 262.16428 
L 286.903563 282.30971 
L 289.357987 275.536264 
L 291.81241 287.128138 
L 294.266833 280.405472 
L 296.721257 278.633825 
L 299.17568 277.530777 
L 301.630104 285.542684 
L 304.084527 280.614233 
L 306.538951 282.027601 
L 308.993374 289.304612 
L 311.447797 286.769859 
L 313.902221 290.105803 
L 316.356644 286.276168 
L 318.811068 282.857002 
L 321.265491 286.680995 
L 323.719915 288.922354 
L 326.174338 292.188475 
L 328.628761 289.562742 
L 331.083185 292.481164 
L 333.537608 292.773147 
L 335.992032 290.521914 
L 338.446455 293.299986 
L 340.900879 297.034409 
L 343.355302 288.359546 
L 345.809725 293.47701 
L 348.264149 290.881604 
L 353.172996 293.70975 
L 355.627419 295.466586 
L 358.081843 294.494719 
L 360.536266 294.552552 
L 362.990689 300.244461 
L 365.445113 299.808249 
L 367.899536 299.997968 
L 370.35396 298.558505 
L 372.808383 298.181889 
L 375.262807 301.423502 
L 377.71723 302.044495 
L 380.171653 302.328015 
L 382.626077 301.359146 
L 385.0805 301.141304 
L 387.534924 300.730659 
L 389.989347 302.166507 
L 392.443771 301.593032 
L 394.898194 302.753163 
L 397.352617 299.074765 
L 399.807041 303.0829 
L 402.261464 302.968139 
L 404.715888 301.432318 
L 407.170311 302.551499 
L 409.624735 301.428968 
L 412.079158 302.485996 
L 414.533581 302.977991 
L 416.988005 302.708157 
L 419.442428 303.059251 
L 421.896852 302.669588 
L 424.351275 302.750253 
L 426.805699 303.336226 
L 429.260122 303.063615 
L 431.714545 301.943377 
L 431.714545 301.943377 
" style="fill:none;stroke:#ff7f0e;stroke-linecap:square;stroke-width:1.5;"/>
   </g>
   <g id="line2d_17">
    <path clip-path="url(#pc494435bf2)" d="M 66.005455 38.547462 
L 68.459878 45.227812 
L 70.914301 59.8975 
L 73.368725 62.515475 
L 80.731995 122.706331 
L 83.186419 140.445369 
L 85.640842 160.892656 
L 88.095265 152.903319 
L 90.549689 185.582869 
L 93.004112 188.358825 
L 95.458536 208.12905 
L 97.912959 200.591087 
L 100.367383 217.732053 
L 102.821806 222.369931 
L 105.276229 228.71175 
L 107.730653 217.088844 
L 110.185076 239.443191 
L 112.6395 224.762219 
L 115.093923 229.095419 
L 117.548347 231.104038 
L 120.00277 235.629072 
L 122.457193 224.999191 
L 124.911617 237.412003 
L 127.36604 247.110923 
L 129.820464 236.915491 
L 132.274887 237.1976 
L 137.183734 249.762752 
L 139.638157 245.525469 
L 142.092581 248.166012 
L 144.547004 254.620675 
L 147.001428 251.353848 
L 149.455851 258.637912 
L 151.910275 257.46998 
L 154.364698 255.658837 
L 156.819121 248.555323 
L 159.273545 251.810866 
L 161.727968 246.563631 
L 164.182392 251.545683 
L 166.636815 250.648575 
L 169.091239 256.076359 
L 171.545662 254.964848 
L 174.000085 261.910381 
L 176.454509 258.107547 
L 178.908932 251.87293 
L 181.363356 262.395609 
L 183.817779 252.030911 
L 186.272203 255.991727 
L 188.726626 261.408227 
L 191.181049 255.822461 
L 193.635473 255.540352 
L 196.089896 270.001278 
L 198.54432 269.318573 
L 200.998743 270.097195 
L 203.453167 253.4471 
L 205.90759 268.861556 
L 208.362013 265.741427 
L 210.816437 259.664791 
L 213.27086 273.268105 
L 215.725284 263.225011 
L 218.179707 259.298048 
L 220.634131 261.295383 
L 223.088554 265.459317 
L 225.542977 278.154239 
L 227.997401 268.190136 
L 230.451824 263.766661 
L 232.906248 268.675364 
L 235.360671 259.924331 
L 237.815095 258.079336 
L 240.269518 264.297027 
L 242.723941 272.246869 
L 245.178365 260.652173 
L 247.632788 271.208706 
L 250.087212 269.634536 
L 252.541635 271.826526 
L 254.996059 271.375151 
L 257.450482 264.364733 
L 259.904905 276.743692 
L 262.359329 277.556167 
L 264.813752 278.977998 
L 267.268176 271.465426 
L 269.722599 271.5021 
L 272.177023 274.929729 
L 274.631446 282.574893 
L 277.085869 279.717125 
L 279.540293 275.321861 
L 281.994716 276.17101 
L 284.44914 264.037486 
L 286.903563 280.450609 
L 289.357987 278.825659 
L 291.81241 289.455541 
L 294.266833 281.615721 
L 296.721257 279.285498 
L 299.17568 276.348739 
L 301.630104 283.858491 
L 304.084527 282.871108 
L 306.538951 281.375928 
L 308.993374 290.706696 
L 311.447797 288.813742 
L 313.902221 287.762884 
L 316.356644 288.552791 
L 318.811068 283.923376 
L 321.265491 288.692435 
L 323.719915 290.33149 
L 326.174338 291.347084 
L 328.628761 291.378116 
L 331.083185 292.179307 
L 333.537608 294.616026 
L 335.992032 290.249679 
L 338.446455 295.083623 
L 340.900879 298.338107 
L 343.355302 287.078769 
L 345.809725 292.127116 
L 348.264149 293.022814 
L 350.718572 291.64753 
L 353.172996 296.70293 
L 355.627419 294.034881 
L 358.081843 295.545577 
L 360.536266 297.440646 
L 362.990689 298.745755 
L 365.445113 299.316321 
L 367.899536 300.964545 
L 370.35396 298.161789 
L 372.808383 300.985351 
L 375.262807 300.516344 
L 377.71723 301.969736 
L 380.171653 302.157339 
L 382.626077 300.034642 
L 385.0805 301.004569 
L 387.534924 300.527099 
L 392.443771 301.145977 
L 394.898194 302.248055 
L 397.352617 300.630951 
L 399.807041 302.318758 
L 402.261464 301.716014 
L 404.715888 302.762287 
L 407.170311 302.148787 
L 409.624735 300.881852 
L 412.079158 302.734561 
L 414.533581 303.245069 
L 416.988005 303.126649 
L 421.896852 303.101546 
L 424.351275 302.802135 
L 426.805699 303.364921 
L 429.260122 303.101215 
L 431.714545 303.098879 
L 431.714545 303.098879 
" style="fill:none;stroke:#2ca02c;stroke-linecap:square;stroke-width:1.5;"/>
   </g>
   <g id="line2d_18">
    <path clip-path="url(#pc494435bf2)" d="M 66.005455 38.818287 
L 68.459878 44.821575 
L 70.914301 62.199512 
L 73.368725 61.071075 
L 75.823148 81.721481 
L 78.277572 103.432619 
L 80.731995 122.638625 
L 83.186419 138.639869 
L 85.640842 156.243494 
L 88.095265 150.082225 
L 90.549689 181.791319 
L 93.004112 187.828459 
L 95.458536 207.880794 
L 97.912959 201.775947 
L 100.367383 215.599306 
L 102.821806 221.783144 
L 105.276229 226.409738 
L 107.730653 212.981331 
L 110.185076 238.326037 
L 112.6395 223.870753 
L 115.093923 230.438259 
L 117.548347 225.732675 
L 120.00277 233.135225 
L 122.457193 231.577981 
L 124.911617 240.503922 
L 127.36604 246.478998 
L 129.820464 233.518894 
L 132.274887 235.019716 
L 134.729311 239.838144 
L 137.183734 250.73885 
L 139.638157 243.787675 
L 142.092581 249.937659 
L 144.547004 257.029889 
L 147.001428 250.829125 
L 149.455851 260.240294 
L 151.910275 255.568562 
L 154.364698 258.068052 
L 156.819121 248.944634 
L 159.273545 247.517161 
L 161.727968 250.840409 
L 164.182392 253.853337 
L 166.636815 247.85005 
L 169.091239 257.706952 
L 171.545662 252.05348 
L 174.000085 264.031844 
L 176.454509 260.003322 
L 178.908932 250.095641 
L 181.363356 262.52538 
L 183.817779 254.282144 
L 186.272203 254.541684 
L 188.726626 261.509786 
L 191.181049 257.28943 
L 193.635473 259.09493 
L 196.089896 264.206752 
L 198.54432 271.06483 
L 200.998743 269.092886 
L 203.453167 256.612367 
L 205.90759 273.031133 
L 208.362013 267.445367 
L 210.816437 259.247269 
L 213.27086 269.87715 
L 215.725284 261.272814 
L 218.179707 257.537686 
L 220.634131 262.034509 
L 223.088554 265.90505 
L 225.542977 277.127361 
L 227.997401 270.458295 
L 230.451824 265.064364 
L 232.906248 269.109812 
L 235.360671 263.964137 
L 237.815095 256.753422 
L 240.269518 269.341142 
L 242.723941 274.266772 
L 245.178365 266.012252 
L 247.632788 271.152284 
L 250.087212 266.457984 
L 252.541635 274.072116 
L 254.996059 272.029645 
L 257.450482 267.671055 
L 259.904905 276.001745 
L 262.359329 277.731075 
L 264.813752 280.278523 
L 267.268176 270.717836 
L 269.722599 273.685627 
L 272.177023 272.196089 
L 274.631446 281.136135 
L 277.085869 275.756309 
L 279.540293 274.579913 
L 281.994716 275.400852 
L 284.44914 266.582112 
L 286.903563 281.40696 
L 289.357987 278.712816 
L 291.81241 287.537197 
L 294.266833 281.423887 
L 296.721257 278.179629 
L 299.17568 279.516827 
L 301.630104 286.843208 
L 304.084527 280.794783 
L 306.538951 277.542062 
L 308.993374 288.478032 
L 311.447797 287.655683 
L 313.902221 289.021092 
L 316.356644 285.627316 
L 318.811068 286.325537 
L 321.265491 289.847673 
L 323.719915 288.32005 
L 326.174338 292.145454 
L 328.628761 290.729264 
L 331.083185 290.734907 
L 333.537608 291.321694 
L 335.992032 290.086055 
L 338.446455 293.81272 
L 340.900879 297.031588 
L 343.355302 287.23534 
L 345.809725 292.018504 
L 348.264149 291.531866 
L 350.718572 293.456557 
L 353.172996 295.756454 
L 355.627419 296.267777 
L 358.081843 295.19294 
L 360.536266 298.644196 
L 370.35396 300.732863 
L 372.808383 298.967211 
L 375.262807 301.13099 
L 377.71723 301.984282 
L 380.171653 302.244969 
L 382.626077 300.636769 
L 385.0805 299.791323 
L 387.534924 301.004746 
L 389.989347 301.761328 
L 392.443771 301.764678 
L 394.898194 302.293986 
L 397.352617 301.038775 
L 399.807041 302.641024 
L 402.261464 301.568788 
L 404.715888 302.636352 
L 407.170311 302.493975 
L 409.624735 301.595941 
L 412.079158 302.945306 
L 414.533581 303.381627 
L 421.896852 303.085589 
L 424.351275 302.499088 
L 426.805699 303.338407 
L 429.260122 302.620792 
L 431.714545 302.405022 
L 431.714545 302.405022 
" style="fill:none;stroke:#d62728;stroke-linecap:square;stroke-width:1.5;"/>
   </g>
   <g id="line2d_19">
    <path clip-path="url(#pc494435bf2)" d="M 66.005455 38.096088 
L 68.459878 43.241762 
L 70.914301 56.196225 
L 73.368725 59.5364 
L 75.823148 66.93895 
L 78.277572 92.93815 
L 80.731995 114.987819 
L 83.186419 138.301337 
L 85.640842 152.203687 
L 88.095265 147.373975 
L 90.549689 184.984797 
L 93.004112 181.791319 
L 95.458536 208.659416 
L 97.912959 203.897409 
L 100.367383 216.400497 
L 102.821806 221.252778 
L 105.276229 225.405428 
L 107.730653 216.423066 
L 110.185076 238.799981 
L 112.6395 229.603216 
L 115.093923 231.96165 
L 117.548347 224.085156 
L 120.00277 234.827881 
L 122.457193 227.98955 
L 124.911617 237.761819 
L 127.36604 245.130516 
L 129.820464 233.394766 
L 132.274887 236.509253 
L 134.729311 240.797316 
L 137.183734 251.201509 
L 139.638157 246.484641 
L 142.092581 247.110923 
L 144.547004 255.884525 
L 147.001428 252.944945 
L 149.455851 258.254244 
L 151.910275 259.512452 
L 154.364698 257.396631 
L 156.819121 248.673809 
L 159.273545 250.642933 
L 161.727968 248.955919 
L 164.182392 251.477977 
L 166.636815 246.292806 
L 169.091239 255.043839 
L 171.545662 250.535731 
L 174.000085 260.61832 
L 176.454509 258.491216 
L 178.908932 249.711972 
L 181.363356 261.188181 
L 183.817779 250.202842 
L 186.272203 251.681095 
L 188.726626 265.3634 
L 191.181049 254.40063 
L 193.635473 255.320306 
L 196.089896 265.572161 
L 198.54432 271.671366 
L 200.998743 269.950498 
L 203.453167 255.579847 
L 205.90759 271.750356 
L 208.362013 272.449987 
L 210.816437 260.392633 
L 213.27086 272.410492 
L 215.725284 262.610012 
L 218.179707 258.688692 
L 220.634131 262.356114 
L 223.088554 268.07165 
L 225.542977 279.460405 
L 227.997401 268.43275 
L 230.451824 266.457984 
L 232.906248 269.863045 
L 235.360671 266.864222 
L 237.815095 259.523736 
L 240.269518 267.21968 
L 242.723941 270.912491 
L 245.178365 263.191158 
L 247.632788 272.878794 
L 250.087212 268.568162 
L 252.541635 274.351405 
L 254.996059 270.799648 
L 257.450482 264.2801 
L 259.904905 275.91147 
L 262.359329 273.191935 
L 264.813752 277.519493 
L 267.268176 269.741737 
L 269.722599 274.893055 
L 272.177023 270.486506 
L 274.631446 278.264262 
L 277.085869 276.605459 
L 279.540293 274.706862 
L 281.994716 273.059344 
L 284.44914 263.213727 
L 286.903563 282.642599 
L 289.357987 275.739383 
L 291.81241 286.682405 
L 294.266833 280.780677 
L 296.721257 276.89321 
L 299.17568 275.510874 
L 301.630104 282.797759 
L 304.084527 285.209795 
L 306.538951 279.996413 
L 308.993374 289.851904 
L 311.447797 287.707873 
L 313.902221 286.360801 
L 316.356644 288.403273 
L 318.811068 282.699021 
L 321.265491 289.251011 
L 323.719915 288.465337 
L 326.174338 292.330235 
L 328.628761 290.062076 
L 331.083185 289.644554 
L 333.537608 292.300614 
L 335.992032 289.960516 
L 338.446455 293.075004 
L 340.900879 297.182516 
L 343.355302 288.96326 
L 345.809725 292.482574 
L 348.264149 291.697605 
L 350.718572 291.320284 
L 353.172996 296.505454 
L 355.627419 296.897586 
L 358.081843 295.521597 
L 360.536266 294.549025 
L 362.990689 298.021087 
L 365.445113 298.432614 
L 367.899536 300.278667 
L 370.35396 298.82933 
L 372.808383 299.494755 
L 375.262807 301.715265 
L 377.71723 301.38242 
L 380.171653 302.331365 
L 382.626077 301.491561 
L 385.0805 301.175951 
L 387.534924 300.166176 
L 389.989347 302.341944 
L 392.443771 301.725359 
L 394.898194 301.403402 
L 397.352617 300.888728 
L 399.807041 302.389638 
L 402.261464 302.165802 
L 404.715888 302.949978 
L 407.170311 302.633222 
L 409.624735 302.186608 
L 412.079158 303.259461 
L 414.533581 302.547708 
L 416.988005 303.239603 
L 419.442428 303.312709 
L 421.896852 303.050678 
L 424.351275 301.270987 
L 426.805699 302.912687 
L 429.260122 303.192284 
L 431.714545 302.665136 
L 431.714545 302.665136 
" style="fill:none;stroke:#9467bd;stroke-linecap:square;stroke-width:1.5;"/>
   </g>
   <g id="patch_3">
    <path d="M 47.72 303.64 
L 47.72 14.76 
" style="fill:none;stroke:#000000;stroke-linecap:square;stroke-linejoin:miter;stroke-width:0.8;"/>
   </g>
   <g id="patch_4">
    <path d="M 450 303.64 
L 450 14.76 
" style="fill:none;stroke:#000000;stroke-linecap:square;stroke-linejoin:miter;stroke-width:0.8;"/>
   </g>
   <g id="patch_5">
    <path d="M 47.72 303.64 
L 450 303.64 
" style="fill:none;stroke:#000000;stroke-linecap:square;stroke-linejoin:miter;stroke-width:0.8;"/>
   </g>
   <g id="patch_6">
    <path d="M 47.72 14.76 
L 450 14.76 
" style="fill:none;stroke:#000000;stroke-linecap:square;stroke-linejoin:miter;stroke-width:0.8;"/>
   </g>
   <g id="legend_1">
    <g id="patch_7">
     <path d="M 282.65625 96.150625 
L 443 96.150625 
Q 445 96.150625 445 94.150625 
L 445 21.76 
Q 445 19.76 443 19.76 
L 282.65625 19.76 
Q 280.65625 19.76 280.65625 21.76 
L 280.65625 94.150625 
Q 280.65625 96.150625 282.65625 96.150625 
z
" style="fill:#ffffff;opacity:0.8;stroke:#cccccc;stroke-linejoin:miter;"/>
    </g>
    <g id="line2d_20">
     <path d="M 284.65625 27.858437 
L 304.65625 27.858437 
" style="fill:none;stroke:#1f77b4;stroke-linecap:square;stroke-width:1.5;"/>
    </g>
    <g id="line2d_21"/>
    <g id="text_17">
     <!-- AllReduce SGD -->
     <g transform="translate(312.65625 31.358437)scale(0.1 -0.1)">
      <defs>
       <path d="M 34.1875 63.1875 
L 20.796875 26.90625 
L 47.609375 26.90625 
z
M 28.609375 72.90625 
L 39.796875 72.90625 
L 67.578125 0 
L 57.328125 0 
L 50.6875 18.703125 
L 17.828125 18.703125 
L 11.1875 0 
L 0.78125 0 
z
" id="DejaVuSans-65"/>
       <path d="M 9.421875 75.984375 
L 18.40625 75.984375 
L 18.40625 0 
L 9.421875 0 
z
" id="DejaVuSans-108"/>
       <path d="M 44.390625 34.1875 
Q 47.5625 33.109375 50.5625 29.59375 
Q 53.5625 26.078125 56.59375 19.921875 
L 66.609375 0 
L 56 0 
L 46.6875 18.703125 
Q 43.0625 26.03125 39.671875 28.421875 
Q 36.28125 30.8125 30.421875 30.8125 
L 19.671875 30.8125 
L 19.671875 0 
L 9.8125 0 
L 9.8125 72.90625 
L 32.078125 72.90625 
Q 44.578125 72.90625 50.734375 67.671875 
Q 56.890625 62.453125 56.890625 51.90625 
Q 56.890625 45.015625 53.6875 40.46875 
Q 50.484375 35.9375 44.390625 34.1875 
z
M 19.671875 64.796875 
L 19.671875 38.921875 
L 32.078125 38.921875 
Q 39.203125 38.921875 42.84375 42.21875 
Q 46.484375 45.515625 46.484375 51.90625 
Q 46.484375 58.296875 42.84375 61.546875 
Q 39.203125 64.796875 32.078125 64.796875 
z
" id="DejaVuSans-82"/>
       <path d="M 56.203125 29.59375 
L 56.203125 25.203125 
L 14.890625 25.203125 
Q 15.484375 15.921875 20.484375 11.0625 
Q 25.484375 6.203125 34.421875 6.203125 
Q 39.59375 6.203125 44.453125 7.46875 
Q 49.3125 8.734375 54.109375 11.28125 
L 54.109375 2.78125 
Q 49.265625 0.734375 44.1875 -0.34375 
Q 39.109375 -1.421875 33.890625 -1.421875 
Q 20.796875 -1.421875 13.15625 6.1875 
Q 5.515625 13.8125 5.515625 26.8125 
Q 5.515625 40.234375 12.765625 48.109375 
Q 20.015625 56 32.328125 56 
Q 43.359375 56 49.78125 48.890625 
Q 56.203125 41.796875 56.203125 29.59375 
z
M 47.21875 32.234375 
Q 47.125 39.59375 43.09375 43.984375 
Q 39.0625 48.390625 32.421875 48.390625 
Q 24.90625 48.390625 20.390625 44.140625 
Q 15.875 39.890625 15.1875 32.171875 
z
" id="DejaVuSans-101"/>
       <path d="M 45.40625 46.390625 
L 45.40625 75.984375 
L 54.390625 75.984375 
L 54.390625 0 
L 45.40625 0 
L 45.40625 8.203125 
Q 42.578125 3.328125 38.25 0.953125 
Q 33.9375 -1.421875 27.875 -1.421875 
Q 17.96875 -1.421875 11.734375 6.484375 
Q 5.515625 14.40625 5.515625 27.296875 
Q 5.515625 40.1875 11.734375 48.09375 
Q 17.96875 56 27.875 56 
Q 33.9375 56 38.25 53.625 
Q 42.578125 51.265625 45.40625 46.390625 
z
M 14.796875 27.296875 
Q 14.796875 17.390625 18.875 11.75 
Q 22.953125 6.109375 30.078125 6.109375 
Q 37.203125 6.109375 41.296875 11.75 
Q 45.40625 17.390625 45.40625 27.296875 
Q 45.40625 37.203125 41.296875 42.84375 
Q 37.203125 48.484375 30.078125 48.484375 
Q 22.953125 48.484375 18.875 42.84375 
Q 14.796875 37.203125 14.796875 27.296875 
z
" id="DejaVuSans-100"/>
       <path d="M 8.5 21.578125 
L 8.5 54.6875 
L 17.484375 54.6875 
L 17.484375 21.921875 
Q 17.484375 14.15625 20.5 10.265625 
Q 23.53125 6.390625 29.59375 6.390625 
Q 36.859375 6.390625 41.078125 11.03125 
Q 45.3125 15.671875 45.3125 23.6875 
L 45.3125 54.6875 
L 54.296875 54.6875 
L 54.296875 0 
L 45.3125 0 
L 45.3125 8.40625 
Q 42.046875 3.421875 37.71875 1 
Q 33.40625 -1.421875 27.6875 -1.421875 
Q 18.265625 -1.421875 13.375 4.4375 
Q 8.5 10.296875 8.5 21.578125 
z
M 31.109375 56 
z
" id="DejaVuSans-117"/>
       <path id="DejaVuSans-32"/>
       <path d="M 53.515625 70.515625 
L 53.515625 60.890625 
Q 47.90625 63.578125 42.921875 64.890625 
Q 37.9375 66.21875 33.296875 66.21875 
Q 25.25 66.21875 20.875 63.09375 
Q 16.5 59.96875 16.5 54.203125 
Q 16.5 49.359375 19.40625 46.890625 
Q 22.3125 44.4375 30.421875 42.921875 
L 36.375 41.703125 
Q 47.40625 39.59375 52.65625 34.296875 
Q 57.90625 29 57.90625 20.125 
Q 57.90625 9.515625 50.796875 4.046875 
Q 43.703125 -1.421875 29.984375 -1.421875 
Q 24.8125 -1.421875 18.96875 -0.25 
Q 13.140625 0.921875 6.890625 3.21875 
L 6.890625 13.375 
Q 12.890625 10.015625 18.65625 8.296875 
Q 24.421875 6.59375 29.984375 6.59375 
Q 38.421875 6.59375 43.015625 9.90625 
Q 47.609375 13.234375 47.609375 19.390625 
Q 47.609375 24.75 44.3125 27.78125 
Q 41.015625 30.8125 33.5 32.328125 
L 27.484375 33.5 
Q 16.453125 35.6875 11.515625 40.375 
Q 6.59375 45.0625 6.59375 53.421875 
Q 6.59375 63.09375 13.40625 68.65625 
Q 20.21875 74.21875 32.171875 74.21875 
Q 37.3125 74.21875 42.625 73.28125 
Q 47.953125 72.359375 53.515625 70.515625 
z
" id="DejaVuSans-83"/>
       <path d="M 59.515625 10.40625 
L 59.515625 29.984375 
L 43.40625 29.984375 
L 43.40625 38.09375 
L 69.28125 38.09375 
L 69.28125 6.78125 
Q 63.578125 2.734375 56.6875 0.65625 
Q 49.8125 -1.421875 42 -1.421875 
Q 24.90625 -1.421875 15.25 8.5625 
Q 5.609375 18.5625 5.609375 36.375 
Q 5.609375 54.25 15.25 64.234375 
Q 24.90625 74.21875 42 74.21875 
Q 49.125 74.21875 55.546875 72.453125 
Q 61.96875 70.703125 67.390625 67.28125 
L 67.390625 56.78125 
Q 61.921875 61.421875 55.765625 63.765625 
Q 49.609375 66.109375 42.828125 66.109375 
Q 29.4375 66.109375 22.71875 58.640625 
Q 16.015625 51.171875 16.015625 36.375 
Q 16.015625 21.625 22.71875 14.15625 
Q 29.4375 6.6875 42.828125 6.6875 
Q 48.046875 6.6875 52.140625 7.59375 
Q 56.25 8.5 59.515625 10.40625 
z
" id="DejaVuSans-71"/>
       <path d="M 19.671875 64.796875 
L 19.671875 8.109375 
L 31.59375 8.109375 
Q 46.6875 8.109375 53.6875 14.9375 
Q 60.6875 21.78125 60.6875 36.53125 
Q 60.6875 51.171875 53.6875 57.984375 
Q 46.6875 64.796875 31.59375 64.796875 
z
M 9.8125 72.90625 
L 30.078125 72.90625 
Q 51.265625 72.90625 61.171875 64.09375 
Q 71.09375 55.28125 71.09375 36.53125 
Q 71.09375 17.671875 61.125 8.828125 
Q 51.171875 0 30.078125 0 
L 9.8125 0 
z
" id="DejaVuSans-68"/>
      </defs>
      <use xlink:href="#DejaVuSans-65"/>
      <use x="68.408203" xlink:href="#DejaVuSans-108"/>
      <use x="96.191406" xlink:href="#DejaVuSans-108"/>
      <use x="123.974609" xlink:href="#DejaVuSans-82"/>
      <use x="188.957031" xlink:href="#DejaVuSans-101"/>
      <use x="250.480469" xlink:href="#DejaVuSans-100"/>
      <use x="313.957031" xlink:href="#DejaVuSans-117"/>
      <use x="377.335938" xlink:href="#DejaVuSans-99"/>
      <use x="432.316406" xlink:href="#DejaVuSans-101"/>
      <use x="493.839844" xlink:href="#DejaVuSans-32"/>
      <use x="525.626953" xlink:href="#DejaVuSans-83"/>
      <use x="589.103516" xlink:href="#DejaVuSans-71"/>
      <use x="666.59375" xlink:href="#DejaVuSans-68"/>
     </g>
    </g>
    <g id="line2d_22">
     <path d="M 284.65625 42.536563 
L 304.65625 42.536563 
" style="fill:none;stroke:#ff7f0e;stroke-linecap:square;stroke-width:1.5;"/>
    </g>
    <g id="line2d_23"/>
    <g id="text_18">
     <!-- GRandK-MN-TS (8,12) bits -->
     <g transform="translate(312.65625 46.036563)scale(0.1 -0.1)">
      <defs>
       <path d="M 34.28125 27.484375 
Q 23.390625 27.484375 19.1875 25 
Q 14.984375 22.515625 14.984375 16.5 
Q 14.984375 11.71875 18.140625 8.90625 
Q 21.296875 6.109375 26.703125 6.109375 
Q 34.1875 6.109375 38.703125 11.40625 
Q 43.21875 16.703125 43.21875 25.484375 
L 43.21875 27.484375 
z
M 52.203125 31.203125 
L 52.203125 0 
L 43.21875 0 
L 43.21875 8.296875 
Q 40.140625 3.328125 35.546875 0.953125 
Q 30.953125 -1.421875 24.3125 -1.421875 
Q 15.921875 -1.421875 10.953125 3.296875 
Q 6 8.015625 6 15.921875 
Q 6 25.140625 12.171875 29.828125 
Q 18.359375 34.515625 30.609375 34.515625 
L 43.21875 34.515625 
L 43.21875 35.40625 
Q 43.21875 41.609375 39.140625 45 
Q 35.0625 48.390625 27.6875 48.390625 
Q 23 48.390625 18.546875 47.265625 
Q 14.109375 46.140625 10.015625 43.890625 
L 10.015625 52.203125 
Q 14.9375 54.109375 19.578125 55.046875 
Q 24.21875 56 28.609375 56 
Q 40.484375 56 46.34375 49.84375 
Q 52.203125 43.703125 52.203125 31.203125 
z
" id="DejaVuSans-97"/>
       <path d="M 54.890625 33.015625 
L 54.890625 0 
L 45.90625 0 
L 45.90625 32.71875 
Q 45.90625 40.484375 42.875 44.328125 
Q 39.84375 48.1875 33.796875 48.1875 
Q 26.515625 48.1875 22.3125 43.546875 
Q 18.109375 38.921875 18.109375 30.90625 
L 18.109375 0 
L 9.078125 0 
L 9.078125 54.6875 
L 18.109375 54.6875 
L 18.109375 46.1875 
Q 21.34375 51.125 25.703125 53.5625 
Q 30.078125 56 35.796875 56 
Q 45.21875 56 50.046875 50.171875 
Q 54.890625 44.34375 54.890625 33.015625 
z
" id="DejaVuSans-110"/>
       <path d="M 9.8125 72.90625 
L 19.671875 72.90625 
L 19.671875 42.09375 
L 52.390625 72.90625 
L 65.09375 72.90625 
L 28.90625 38.921875 
L 67.671875 0 
L 54.6875 0 
L 19.671875 35.109375 
L 19.671875 0 
L 9.8125 0 
z
" id="DejaVuSans-75"/>
       <path d="M 4.890625 31.390625 
L 31.203125 31.390625 
L 31.203125 23.390625 
L 4.890625 23.390625 
z
" id="DejaVuSans-45"/>
       <path d="M 9.8125 72.90625 
L 24.515625 72.90625 
L 43.109375 23.296875 
L 61.8125 72.90625 
L 76.515625 72.90625 
L 76.515625 0 
L 66.890625 0 
L 66.890625 64.015625 
L 48.09375 14.015625 
L 38.1875 14.015625 
L 19.390625 64.015625 
L 19.390625 0 
L 9.8125 0 
z
" id="DejaVuSans-77"/>
       <path d="M 9.8125 72.90625 
L 23.09375 72.90625 
L 55.421875 11.921875 
L 55.421875 72.90625 
L 64.984375 72.90625 
L 64.984375 0 
L 51.703125 0 
L 19.390625 60.984375 
L 19.390625 0 
L 9.8125 0 
z
" id="DejaVuSans-78"/>
       <path d="M -0.296875 72.90625 
L 61.375 72.90625 
L 61.375 64.59375 
L 35.5 64.59375 
L 35.5 0 
L 25.59375 0 
L 25.59375 64.59375 
L -0.296875 64.59375 
z
" id="DejaVuSans-84"/>
       <path d="M 31 75.875 
Q 24.46875 64.65625 21.28125 53.65625 
Q 18.109375 42.671875 18.109375 31.390625 
Q 18.109375 20.125 21.3125 9.0625 
Q 24.515625 -2 31 -13.1875 
L 23.1875 -13.1875 
Q 15.875 -1.703125 12.234375 9.375 
Q 8.59375 20.453125 8.59375 31.390625 
Q 8.59375 42.28125 12.203125 53.3125 
Q 15.828125 64.359375 23.1875 75.875 
z
" id="DejaVuSans-40"/>
       <path d="M 11.71875 12.40625 
L 22.015625 12.40625 
L 22.015625 4 
L 14.015625 -11.625 
L 7.71875 -11.625 
L 11.71875 4 
z
" id="DejaVuSans-44"/>
       <path d="M 8.015625 75.875 
L 15.828125 75.875 
Q 23.140625 64.359375 26.78125 53.3125 
Q 30.421875 42.28125 30.421875 31.390625 
Q 30.421875 20.453125 26.78125 9.375 
Q 23.140625 -1.703125 15.828125 -13.1875 
L 8.015625 -13.1875 
Q 14.5 -2 17.703125 9.0625 
Q 20.90625 20.125 20.90625 31.390625 
Q 20.90625 42.671875 17.703125 53.65625 
Q 14.5 64.65625 8.015625 75.875 
z
" id="DejaVuSans-41"/>
       <path d="M 48.6875 27.296875 
Q 48.6875 37.203125 44.609375 42.84375 
Q 40.53125 48.484375 33.40625 48.484375 
Q 26.265625 48.484375 22.1875 42.84375 
Q 18.109375 37.203125 18.109375 27.296875 
Q 18.109375 17.390625 22.1875 11.75 
Q 26.265625 6.109375 33.40625 6.109375 
Q 40.53125 6.109375 44.609375 11.75 
Q 48.6875 17.390625 48.6875 27.296875 
z
M 18.109375 46.390625 
Q 20.953125 51.265625 25.265625 53.625 
Q 29.59375 56 35.59375 56 
Q 45.5625 56 51.78125 48.09375 
Q 58.015625 40.1875 58.015625 27.296875 
Q 58.015625 14.40625 51.78125 6.484375 
Q 45.5625 -1.421875 35.59375 -1.421875 
Q 29.59375 -1.421875 25.265625 0.953125 
Q 20.953125 3.328125 18.109375 8.203125 
L 18.109375 0 
L 9.078125 0 
L 9.078125 75.984375 
L 18.109375 75.984375 
z
" id="DejaVuSans-98"/>
       <path d="M 9.421875 54.6875 
L 18.40625 54.6875 
L 18.40625 0 
L 9.421875 0 
z
M 9.421875 75.984375 
L 18.40625 75.984375 
L 18.40625 64.59375 
L 9.421875 64.59375 
z
" id="DejaVuSans-105"/>
       <path d="M 18.3125 70.21875 
L 18.3125 54.6875 
L 36.8125 54.6875 
L 36.8125 47.703125 
L 18.3125 47.703125 
L 18.3125 18.015625 
Q 18.3125 11.328125 20.140625 9.421875 
Q 21.96875 7.515625 27.59375 7.515625 
L 36.8125 7.515625 
L 36.8125 0 
L 27.59375 0 
Q 17.1875 0 13.234375 3.875 
Q 9.28125 7.765625 9.28125 18.015625 
L 9.28125 47.703125 
L 2.6875 47.703125 
L 2.6875 54.6875 
L 9.28125 54.6875 
L 9.28125 70.21875 
z
" id="DejaVuSans-116"/>
      </defs>
      <use xlink:href="#DejaVuSans-71"/>
      <use x="77.490234" xlink:href="#DejaVuSans-82"/>
      <use x="144.722656" xlink:href="#DejaVuSans-97"/>
      <use x="206.001953" xlink:href="#DejaVuSans-110"/>
      <use x="269.380859" xlink:href="#DejaVuSans-100"/>
      <use x="332.857422" xlink:href="#DejaVuSans-75"/>
      <use x="387.933594" xlink:href="#DejaVuSans-45"/>
      <use x="424.017578" xlink:href="#DejaVuSans-77"/>
      <use x="510.296875" xlink:href="#DejaVuSans-78"/>
      <use x="585.101562" xlink:href="#DejaVuSans-45"/>
      <use x="612.060547" xlink:href="#DejaVuSans-84"/>
      <use x="673.144531" xlink:href="#DejaVuSans-83"/>
      <use x="736.621094" xlink:href="#DejaVuSans-32"/>
      <use x="768.408203" xlink:href="#DejaVuSans-40"/>
      <use x="807.421875" xlink:href="#DejaVuSans-56"/>
      <use x="871.044922" xlink:href="#DejaVuSans-44"/>
      <use x="902.832031" xlink:href="#DejaVuSans-49"/>
      <use x="966.455078" xlink:href="#DejaVuSans-50"/>
      <use x="1030.078125" xlink:href="#DejaVuSans-41"/>
      <use x="1069.091797" xlink:href="#DejaVuSans-32"/>
      <use x="1100.878906" xlink:href="#DejaVuSans-98"/>
      <use x="1164.355469" xlink:href="#DejaVuSans-105"/>
      <use x="1192.138672" xlink:href="#DejaVuSans-116"/>
      <use x="1231.347656" xlink:href="#DejaVuSans-115"/>
     </g>
    </g>
    <g id="line2d_24">
     <path d="M 284.65625 57.214687 
L 304.65625 57.214687 
" style="fill:none;stroke:#2ca02c;stroke-linecap:square;stroke-width:1.5;"/>
    </g>
    <g id="line2d_25"/>
    <g id="text_19">
     <!-- GRandK-MN-TS (6,10) bits -->
     <g transform="translate(312.65625 60.714687)scale(0.1 -0.1)">
      <use xlink:href="#DejaVuSans-71"/>
      <use x="77.490234" xlink:href="#DejaVuSans-82"/>
      <use x="144.722656" xlink:href="#DejaVuSans-97"/>
      <use x="206.001953" xlink:href="#DejaVuSans-110"/>
      <use x="269.380859" xlink:href="#DejaVuSans-100"/>
      <use x="332.857422" xlink:href="#DejaVuSans-75"/>
      <use x="387.933594" xlink:href="#DejaVuSans-45"/>
      <use x="424.017578" xlink:href="#DejaVuSans-77"/>
      <use x="510.296875" xlink:href="#DejaVuSans-78"/>
      <use x="585.101562" xlink:href="#DejaVuSans-45"/>
      <use x="612.060547" xlink:href="#DejaVuSans-84"/>
      <use x="673.144531" xlink:href="#DejaVuSans-83"/>
      <use x="736.621094" xlink:href="#DejaVuSans-32"/>
      <use x="768.408203" xlink:href="#DejaVuSans-40"/>
      <use x="807.421875" xlink:href="#DejaVuSans-54"/>
      <use x="871.044922" xlink:href="#DejaVuSans-44"/>
      <use x="902.832031" xlink:href="#DejaVuSans-49"/>
      <use x="966.455078" xlink:href="#DejaVuSans-48"/>
      <use x="1030.078125" xlink:href="#DejaVuSans-41"/>
      <use x="1069.091797" xlink:href="#DejaVuSans-32"/>
      <use x="1100.878906" xlink:href="#DejaVuSans-98"/>
      <use x="1164.355469" xlink:href="#DejaVuSans-105"/>
      <use x="1192.138672" xlink:href="#DejaVuSans-116"/>
      <use x="1231.347656" xlink:href="#DejaVuSans-115"/>
     </g>
    </g>
    <g id="line2d_26">
     <path d="M 284.65625 71.892812 
L 304.65625 71.892812 
" style="fill:none;stroke:#d62728;stroke-linecap:square;stroke-width:1.5;"/>
    </g>
    <g id="line2d_27"/>
    <g id="text_20">
     <!-- GRandK-MN-TS (4,8) bits -->
     <g transform="translate(312.65625 75.392812)scale(0.1 -0.1)">
      <use xlink:href="#DejaVuSans-71"/>
      <use x="77.490234" xlink:href="#DejaVuSans-82"/>
      <use x="144.722656" xlink:href="#DejaVuSans-97"/>
      <use x="206.001953" xlink:href="#DejaVuSans-110"/>
      <use x="269.380859" xlink:href="#DejaVuSans-100"/>
      <use x="332.857422" xlink:href="#DejaVuSans-75"/>
      <use x="387.933594" xlink:href="#DejaVuSans-45"/>
      <use x="424.017578" xlink:href="#DejaVuSans-77"/>
      <use x="510.296875" xlink:href="#DejaVuSans-78"/>
      <use x="585.101562" xlink:href="#DejaVuSans-45"/>
      <use x="612.060547" xlink:href="#DejaVuSans-84"/>
      <use x="673.144531" xlink:href="#DejaVuSans-83"/>
      <use x="736.621094" xlink:href="#DejaVuSans-32"/>
      <use x="768.408203" xlink:href="#DejaVuSans-40"/>
      <use x="807.421875" xlink:href="#DejaVuSans-52"/>
      <use x="871.044922" xlink:href="#DejaVuSans-44"/>
      <use x="902.832031" xlink:href="#DejaVuSans-56"/>
      <use x="966.455078" xlink:href="#DejaVuSans-41"/>
      <use x="1005.46875" xlink:href="#DejaVuSans-32"/>
      <use x="1037.255859" xlink:href="#DejaVuSans-98"/>
      <use x="1100.732422" xlink:href="#DejaVuSans-105"/>
      <use x="1128.515625" xlink:href="#DejaVuSans-116"/>
      <use x="1167.724609" xlink:href="#DejaVuSans-115"/>
     </g>
    </g>
    <g id="line2d_28">
     <path d="M 284.65625 86.570937 
L 304.65625 86.570937 
" style="fill:none;stroke:#9467bd;stroke-linecap:square;stroke-width:1.5;"/>
    </g>
    <g id="line2d_29"/>
    <g id="text_21">
     <!-- GRandK-MN-TS (2,6) bits -->
     <g transform="translate(312.65625 90.070937)scale(0.1 -0.1)">
      <use xlink:href="#DejaVuSans-71"/>
      <use x="77.490234" xlink:href="#DejaVuSans-82"/>
      <use x="144.722656" xlink:href="#DejaVuSans-97"/>
      <use x="206.001953" xlink:href="#DejaVuSans-110"/>
      <use x="269.380859" xlink:href="#DejaVuSans-100"/>
      <use x="332.857422" xlink:href="#DejaVuSans-75"/>
      <use x="387.933594" xlink:href="#DejaVuSans-45"/>
      <use x="424.017578" xlink:href="#DejaVuSans-77"/>
      <use x="510.296875" xlink:href="#DejaVuSans-78"/>
      <use x="585.101562" xlink:href="#DejaVuSans-45"/>
      <use x="612.060547" xlink:href="#DejaVuSans-84"/>
      <use x="673.144531" xlink:href="#DejaVuSans-83"/>
      <use x="736.621094" xlink:href="#DejaVuSans-32"/>
      <use x="768.408203" xlink:href="#DejaVuSans-40"/>
      <use x="807.421875" xlink:href="#DejaVuSans-50"/>
      <use x="871.044922" xlink:href="#DejaVuSans-44"/>
      <use x="902.832031" xlink:href="#DejaVuSans-54"/>
      <use x="966.455078" xlink:href="#DejaVuSans-41"/>
      <use x="1005.46875" xlink:href="#DejaVuSans-32"/>
      <use x="1037.255859" xlink:href="#DejaVuSans-98"/>
      <use x="1100.732422" xlink:href="#DejaVuSans-105"/>
      <use x="1128.515625" xlink:href="#DejaVuSans-116"/>
      <use x="1167.724609" xlink:href="#DejaVuSans-115"/>
     </g>
    </g>
   </g>
  </g>
 </g>
 <defs>
  <clipPath id="pc494435bf2">
   <rect height="288.88" width="402.28" x="47.72" y="14.76"/>
  </clipPath>
 </defs>
</svg>
