<?xml version="1.0" encoding="utf-8" standalone="no"?>
<!DOCTYPE svg PUBLIC "-//W3C//DTD SVG 1.1//EN"
  "http://www.w3.org/Graphics/SVG/1.1/DTD/svg11.dtd">
<!-- Created with matplotlib (https://matplotlib.org/) -->
<svg height="345.6pt" version="1.1" viewBox="0 0 460.8 345.6" width="460.8pt" xmlns="http://www.w3.org/2000/svg" xmlns:xlink="http://www.w3.org/1999/xlink">
 <metadata>
  <rdf:RDF xmlns:cc="http://creativecommons.org/ns#" xmlns:dc="http://purl.org/dc/elements/1.1/" xmlns:rdf="http://www.w3.org/1999/02/22-rdf-syntax-ns#">
   <cc:Work>
    <dc:type rdf:resource="http://purl.org/dc/dcmitype/StillImage"/>
    <dc:date>2021-06-10T08:56:48.760186</dc:date>
    <dc:format>image/svg+xml</dc:format>
    <dc:creator>
     <cc:Agent>
      <dc:title>Matplotlib v3.3.1, https://matplotlib.org/</dc:title>
     </cc:Agent>
    </dc:creator>
   </cc:Work>
  </rdf:RDF>
 </metadata>
 <defs>
  <style type="text/css">*{stroke-linecap:butt;stroke-linejoin:round;}</style>
 </defs>
 <g id="figure_1">
  <g id="patch_1">
   <path d="M 0 345.6 
L 460.8 345.6 
L 460.8 0 
L 0 0 
z
" style="fill:#ffffff;"/>
  </g>
  <g id="axes_1">
   <g id="patch_2">
    <path d="M 47.72 303.64 
L 450 303.64 
L 450 14.76 
L 47.72 14.76 
z
" style="fill:#ffffff;"/>
   </g>
   <g id="PolyCollection_1">
    <path clip-path="url(#p1d25508ae2)" d="M 66.115166 36.705705 
L 66.115166 52.756895 
L 68.583645 76.283789 
L 71.050532 90.849332 
L 73.505888 99.001384 
L 75.951652 117.993606 
L 78.41201 148.26022 
L 80.869368 162.338697 
L 83.330543 172.467608 
L 85.798929 184.658613 
L 88.244804 170.8425 
L 90.696289 200.999982 
L 93.142362 202.858666 
L 95.59226 220.928591 
L 98.051861 221.339344 
L 100.477011 230.577193 
L 102.94039 231.147217 
L 105.38336 245.418758 
L 107.832154 231.678067 
L 110.300176 243.289598 
L 112.749725 243.592336 
L 115.19234 236.957601 
L 117.641673 241.358429 
L 120.111293 254.780084 
L 122.552241 248.134076 
L 125.000937 258.897849 
L 127.435709 256.025969 
L 129.898915 259.807077 
L 132.343344 259.305021 
L 134.791017 263.207871 
L 137.258015 263.50163 
L 139.709837 258.679798 
L 142.165974 263.775357 
L 144.603285 272.363457 
L 147.061344 265.177781 
L 149.518875 281.592939 
L 151.955682 271.593068 
L 154.393053 271.587978 
L 156.873079 265.659388 
L 159.308723 265.452992 
L 161.76465 272.205149 
L 164.210849 270.638349 
L 166.661738 271.025714 
L 169.102131 271.140167 
L 171.536845 271.583867 
L 174.007757 277.745464 
L 176.467299 269.124544 
L 178.920192 267.908454 
L 181.370772 279.132672 
L 183.837718 273.333675 
L 186.307978 275.891027 
L 188.747322 274.514894 
L 191.197509 279.095973 
L 193.641109 274.650874 
L 196.098902 281.540878 
L 198.553922 282.243853 
L 201.007275 282.664729 
L 203.45916 275.066041 
L 205.935175 285.556254 
L 208.368164 284.387465 
L 210.817429 278.18504 
L 213.263819 281.411013 
L 215.713357 277.190988 
L 218.160136 279.965614 
L 220.631054 280.05521 
L 223.071209 280.085236 
L 225.540474 287.704561 
L 227.991344 285.91601 
L 230.427673 285.551135 
L 232.883428 282.550617 
L 235.318892 278.432467 
L 237.776674 276.022231 
L 240.224508 283.48046 
L 242.684552 287.658729 
L 245.131108 280.738932 
L 247.581723 285.628669 
L 250.036009 284.425706 
L 252.49306 287.984519 
L 254.937283 288.821359 
L 257.376574 287.306359 
L 259.84219 289.651866 
L 262.290868 290.041378 
L 264.751173 294.595242 
L 267.188924 290.568084 
L 269.634205 289.770772 
L 272.080078 284.134268 
L 274.538452 292.474904 
L 277.001018 290.828825 
L 279.48437 292.027236 
L 281.939218 291.910754 
L 284.401645 287.12802 
L 286.83575 297.155058 
L 289.300441 291.08559 
L 291.77399 297.171884 
L 294.226692 292.860705 
L 296.691398 293.573299 
L 299.142456 296.578327 
L 301.598336 295.532302 
L 304.06114 295.547367 
L 306.51434 292.226036 
L 308.979128 296.219477 
L 311.43903 300.365351 
L 313.898655 297.329727 
L 316.335117 298.5765 
L 318.79011 298.329908 
L 321.242168 297.779101 
L 323.705851 299.484721 
L 326.166256 298.570961 
L 328.609254 299.875423 
L 331.066004 300.576075 
L 333.519398 301.134841 
L 336.003593 298.359225 
L 338.449333 300.016902 
L 340.895551 302.261894 
L 343.341801 302.039859 
L 345.79833 301.852002 
L 348.225225 302.291347 
L 350.686748 302.670829 
L 353.13703 302.802904 
L 355.600206 302.619212 
L 358.051953 302.916903 
L 360.498391 302.844699 
L 362.958768 302.683768 
L 365.410264 303.472301 
L 367.886711 303.832087 
L 370.347591 303.492126 
L 372.800064 303.427211 
L 375.236365 303.584801 
L 377.68196 303.451279 
L 380.134959 303.549949 
L 382.603258 303.523129 
L 385.036343 303.556815 
L 387.491299 303.457428 
L 389.933936 303.527084 
L 392.385307 303.529021 
L 394.834674 303.512329 
L 397.309675 303.598676 
L 399.756313 303.589367 
L 402.222033 303.59475 
L 404.698396 303.569425 
L 407.146698 303.472827 
L 409.594615 303.514348 
L 412.049914 303.647131 
L 414.522524 303.53199 
L 416.973753 303.576429 
L 419.424359 303.574956 
L 421.885713 303.558061 
L 424.347935 303.489432 
L 426.807572 303.547601 
L 429.265235 303.569633 
L 431.714545 303.555699 
L 431.714545 303.387776 
L 431.714545 303.387776 
L 429.265235 303.31235 
L 426.807572 303.483812 
L 424.347935 303.384022 
L 421.885713 303.51115 
L 419.424359 303.527932 
L 416.973753 303.515483 
L 414.522524 303.337387 
L 412.049914 303.164457 
L 409.594615 303.303544 
L 407.146698 303.124028 
L 404.698396 303.424895 
L 402.222033 303.330872 
L 399.756313 303.407763 
L 397.309675 302.871802 
L 394.834674 303.426495 
L 392.385307 303.463801 
L 389.933936 303.343901 
L 387.491299 303.138721 
L 385.036343 303.3227 
L 382.603258 302.921255 
L 380.134959 303.260361 
L 377.68196 303.347857 
L 375.236365 303.064993 
L 372.800064 303.182074 
L 370.347591 302.937006 
L 367.886711 302.184504 
L 365.410264 302.658809 
L 362.958768 301.881105 
L 360.498391 302.022737 
L 358.051953 301.149871 
L 355.600206 301.539776 
L 353.13703 299.232683 
L 350.686748 301.424509 
L 348.225225 299.419813 
L 345.79833 298.859434 
L 343.341801 300.302874 
L 340.895551 301.15356 
L 338.449333 298.567782 
L 336.003593 296.163789 
L 333.519398 299.703896 
L 331.066004 299.08274 
L 328.609254 297.807216 
L 326.166256 296.454207 
L 323.705851 296.13852 
L 321.242168 293.424896 
L 318.79011 294.302973 
L 316.335117 295.296252 
L 313.898655 294.386299 
L 311.43903 297.134623 
L 308.979128 290.813533 
L 306.51434 290.267835 
L 304.06114 288.091867 
L 301.598336 288.673972 
L 299.142456 293.055731 
L 296.691398 288.759769 
L 294.226692 289.777041 
L 291.77399 291.683552 
L 289.300441 285.952285 
L 286.83575 291.340689 
L 284.401645 279.957037 
L 281.939218 287.722527 
L 279.48437 288.048957 
L 277.001018 285.469923 
L 274.538452 288.159866 
L 272.080078 282.347074 
L 269.634205 280.019713 
L 267.188924 286.18486 
L 264.751173 292.990702 
L 262.290868 284.584461 
L 259.84219 284.818813 
L 257.376574 285.087996 
L 254.937283 285.49134 
L 252.49306 285.594695 
L 250.036009 279.426377 
L 247.581723 282.020606 
L 245.131108 269.662176 
L 242.684552 280.678893 
L 240.224508 277.62952 
L 237.776674 270.688886 
L 235.318892 272.939097 
L 232.883428 280.663898 
L 230.427673 279.372963 
L 227.991344 280.074462 
L 225.540474 283.877319 
L 223.071209 276.178104 
L 220.631054 269.488286 
L 218.160136 274.125484 
L 215.713357 272.493562 
L 213.263819 273.848019 
L 210.817429 270.991713 
L 208.368164 276.147012 
L 205.935175 278.521516 
L 203.45916 267.644765 
L 201.007275 279.438276 
L 198.553922 277.088838 
L 196.098902 278.124702 
L 193.641109 269.876717 
L 191.197509 272.06683 
L 188.747322 268.568296 
L 186.307978 271.846968 
L 183.837718 268.790344 
L 181.370772 273.485815 
L 178.920192 261.20468 
L 176.467299 264.863441 
L 174.007757 274.455502 
L 171.536845 267.109702 
L 169.102131 267.39542 
L 166.661738 268.186936 
L 164.210849 264.861741 
L 161.76465 264.32182 
L 159.308723 262.565558 
L 156.873079 259.176969 
L 154.393053 265.604769 
L 151.955682 265.159588 
L 149.518875 272.52637 
L 147.061344 258.462431 
L 144.603285 264.581033 
L 142.165974 251.20974 
L 139.709837 255.56053 
L 137.258015 260.567389 
L 134.791017 250.829338 
L 132.343344 247.814867 
L 129.898915 247.143545 
L 127.435709 251.940246 
L 125.000937 250.287079 
L 122.552241 240.242465 
L 120.111293 243.583129 
L 117.641673 232.134021 
L 115.19234 225.769555 
L 112.749725 235.011936 
L 110.300176 235.235684 
L 107.832154 224.594427 
L 105.38336 236.345138 
L 102.94039 215.804383 
L 100.477011 209.671488 
L 98.051861 204.623318 
L 95.59226 200.407478 
L 93.142362 191.891415 
L 90.696289 183.07508 
L 88.244804 147.5575 
L 85.798929 154.4595 
L 83.330543 140.470755 
L 80.869368 132.228703 
L 78.41201 115.07203 
L 75.951652 94.017307 
L 73.505888 79.382091 
L 71.050532 75.572705 
L 68.583645 50.372111 
L 66.115166 36.705705 
z
" style="fill:#1f77b4;fill-opacity:0.25;"/>
   </g>
   <g id="PolyCollection_2">
    <path clip-path="url(#p1d25508ae2)" d="M 66.005455 40.667883 
L 66.005455 58.273592 
L 68.323881 96.714191 
L 70.64756 116.039301 
L 72.957248 114.498596 
L 75.284895 132.825058 
L 77.610567 152.081764 
L 79.957929 168.201203 
L 82.276069 173.194281 
L 84.581672 178.750653 
L 86.889418 165.417672 
L 89.214901 190.562691 
L 91.507177 200.550714 
L 93.878404 210.677331 
L 96.220454 204.872586 
L 98.539756 218.602432 
L 100.868855 217.186023 
L 103.187003 227.427945 
L 105.514314 214.92235 
L 107.815733 234.075807 
L 110.133244 228.276387 
L 112.435218 222.948356 
L 114.747218 229.917414 
L 117.057587 229.691933 
L 119.408789 235.20925 
L 121.818548 236.714265 
L 124.135245 245.098177 
L 126.431606 239.584075 
L 128.764518 244.065038 
L 131.075639 245.87366 
L 133.388975 250.631237 
L 135.749578 248.480042 
L 138.059995 247.202315 
L 140.36957 251.655103 
L 142.704557 251.154681 
L 145.025939 259.113462 
L 147.358306 258.918005 
L 149.725588 255.956596 
L 152.042603 250.213751 
L 154.364939 244.138372 
L 156.688269 251.196323 
L 159.013923 250.049961 
L 161.353103 251.641872 
L 163.657226 255.363253 
L 165.975979 256.891653 
L 168.288938 262.527781 
L 170.593653 255.119182 
L 172.930133 258.48079 
L 175.235547 260.520486 
L 177.626723 261.507648 
L 179.94551 258.711 
L 182.266811 261.490788 
L 184.591239 260.021532 
L 186.898247 262.511146 
L 189.203815 268.334135 
L 191.519527 269.905043 
L 193.865092 270.056425 
L 196.176699 263.395624 
L 198.507961 264.038119 
L 200.833868 271.69812 
L 203.155707 263.756684 
L 205.505157 273.96748 
L 207.814397 259.201318 
L 210.129565 259.394513 
L 212.477665 266.644024 
L 214.810113 269.169814 
L 217.124781 277.883783 
L 219.466163 271.038452 
L 221.787848 272.522931 
L 224.120567 273.03545 
L 226.430345 262.688063 
L 228.771005 263.876548 
L 231.076625 272.992293 
L 233.408866 275.392251 
L 235.700271 264.5958 
L 238.021295 270.249029 
L 240.320258 273.297574 
L 242.622198 275.17404 
L 244.948066 275.870921 
L 247.252681 267.881653 
L 249.553384 274.562582 
L 251.867838 275.931205 
L 254.168713 281.016226 
L 256.493844 276.248024 
L 258.818721 279.865493 
L 261.162625 270.223745 
L 263.467184 280.267062 
L 265.782596 276.841519 
L 268.118583 279.5783 
L 270.438425 276.381284 
L 272.75094 270.092586 
L 275.059062 281.18161 
L 277.351207 280.861807 
L 279.691064 289.169702 
L 282.006117 281.480028 
L 284.329962 283.323583 
L 286.657445 278.097582 
L 289.004515 284.725742 
L 291.344329 284.907216 
L 293.647765 283.833621 
L 295.966254 289.855503 
L 298.287034 292.020688 
L 300.581174 287.82751 
L 302.908532 288.872576 
L 305.225092 286.767904 
L 307.538771 291.651814 
L 309.877565 291.633513 
L 312.214046 293.86028 
L 314.535355 289.330406 
L 316.873554 293.940435 
L 319.191679 295.013511 
L 321.51086 291.616799 
L 323.826736 296.407901 
L 326.133935 296.169269 
L 328.440226 291.496303 
L 330.738132 295.926988 
L 333.048026 296.718279 
L 335.362478 296.2831 
L 337.697032 297.581221 
L 339.99041 297.876006 
L 342.331478 296.788852 
L 344.689135 299.048462 
L 346.997548 297.966334 
L 349.340415 300.203779 
L 351.637167 300.827619 
L 353.951012 298.352599 
L 356.243556 301.256876 
L 358.559899 300.877118 
L 360.8961 302.90541 
L 363.219652 301.944005 
L 365.550835 303.195977 
L 367.865837 302.758214 
L 370.177365 302.448236 
L 372.567006 302.252393 
L 374.87423 303.49941 
L 377.186561 303.017414 
L 379.471149 302.846955 
L 381.797743 303.385719 
L 384.129253 303.144102 
L 386.44477 302.890198 
L 388.747714 302.46908 
L 391.099845 302.850329 
L 393.41932 303.26159 
L 395.705553 303.354267 
L 398.022119 303.45668 
L 400.406022 303.193392 
L 402.71893 303.199679 
L 405.036216 303.076789 
L 407.351862 303.382782 
L 409.679784 303.445849 
L 412.013953 302.930191 
L 412.013953 302.274894 
L 412.013953 302.274894 
L 409.679784 302.51723 
L 407.351862 302.926233 
L 405.036216 302.793722 
L 402.71893 302.889643 
L 400.406022 302.932164 
L 398.022119 303.001367 
L 395.705553 302.267547 
L 393.41932 302.917566 
L 391.099845 301.353092 
L 388.747714 300.32256 
L 386.44477 302.321764 
L 384.129253 301.72977 
L 381.797743 303.1831 
L 379.471149 299.768719 
L 377.186561 302.045735 
L 374.87423 301.026144 
L 372.567006 301.036465 
L 370.177365 300.734125 
L 367.865837 300.979021 
L 365.550835 302.532774 
L 363.219652 301.053575 
L 360.8961 301.818679 
L 358.559899 299.965852 
L 356.243556 299.635462 
L 353.951012 295.504637 
L 351.637167 297.132193 
L 349.340415 299.20678 
L 346.997548 293.449245 
L 344.689135 295.98658 
L 342.331478 294.58159 
L 339.99041 294.710327 
L 337.697032 292.873776 
L 335.362478 293.81926 
L 333.048026 294.062554 
L 330.738132 292.124437 
L 328.440226 288.850715 
L 326.133935 294.318171 
L 323.826736 293.30938 
L 321.51086 287.316851 
L 319.191679 294.200204 
L 316.873554 288.728343 
L 314.535355 285.23337 
L 312.214046 289.942578 
L 309.877565 288.259308 
L 307.538771 286.178788 
L 305.225092 282.732008 
L 302.908532 283.685402 
L 300.581174 281.796531 
L 298.287034 288.173991 
L 295.966254 285.004488 
L 293.647765 277.840577 
L 291.344329 279.317251 
L 289.004515 278.409783 
L 286.657445 269.809679 
L 284.329962 278.141855 
L 282.006117 279.83307 
L 279.691064 283.944031 
L 277.351207 273.61296 
L 275.059062 278.139796 
L 272.75094 261.187148 
L 270.438425 273.918264 
L 268.118583 271.025927 
L 265.782596 272.859957 
L 263.467184 277.017515 
L 261.162625 264.791118 
L 258.818721 275.167851 
L 256.493844 268.516539 
L 254.168713 277.154174 
L 251.867838 273.234263 
L 249.553384 267.804051 
L 247.252681 262.111662 
L 244.948066 272.002487 
L 242.622198 272.287489 
L 240.320258 267.099935 
L 238.021295 268.106008 
L 235.700271 259.9923 
L 233.408866 268.430066 
L 231.076625 265.464304 
L 228.771005 258.172567 
L 226.430345 256.7995 
L 224.120567 267.119445 
L 221.787848 262.063125 
L 219.466163 264.472923 
L 217.124781 273.634478 
L 214.810113 265.235692 
L 212.477665 263.518557 
L 210.129565 253.988202 
L 207.814397 253.526904 
L 205.505157 265.1154 
L 203.155707 257.739498 
L 200.833868 263.440871 
L 198.507961 261.825115 
L 196.176699 253.327267 
L 193.865092 267.136322 
L 191.519527 263.293035 
L 189.203815 265.304034 
L 186.898247 251.018266 
L 184.591239 257.11888 
L 182.266811 256.236412 
L 179.94551 249.684022 
L 177.626723 253.319467 
L 175.235547 255.175527 
L 172.930133 251.471476 
L 170.593653 249.100621 
L 168.288938 255.989325 
L 165.975979 253.624831 
L 163.657226 250.425078 
L 161.353103 243.573 
L 159.013923 246.586742 
L 156.688269 241.558555 
L 154.364939 241.247809 
L 152.042603 241.728652 
L 149.725588 249.854304 
L 147.358306 256.236357 
L 145.025939 255.284848 
L 142.704557 246.034956 
L 140.36957 248.366913 
L 138.059995 238.274142 
L 135.749578 244.760064 
L 133.388975 241.119332 
L 131.075639 244.601775 
L 128.764518 240.689218 
L 126.431606 236.413507 
L 124.135245 238.369661 
L 121.818548 230.052698 
L 119.408789 226.299194 
L 117.057587 227.077073 
L 114.747218 227.032142 
L 112.435218 217.977387 
L 110.133244 220.999794 
L 107.815733 225.175761 
L 105.514314 213.725994 
L 103.187003 221.870805 
L 100.868855 212.365071 
L 98.539756 208.804631 
L 96.220454 196.82867 
L 93.878404 198.6973 
L 91.507177 190.656074 
L 89.214901 181.641209 
L 86.889418 158.53424 
L 84.581672 169.665785 
L 82.276069 163.350994 
L 79.957929 158.504097 
L 77.610567 146.593148 
L 75.284895 125.812892 
L 72.957248 104.779454 
L 70.64756 105.089386 
L 68.323881 86.318446 
L 66.005455 40.667883 
z
" style="fill:#ff7f0e;fill-opacity:0.25;"/>
   </g>
   <g id="PolyCollection_3">
    <path clip-path="url(#p1d25508ae2)" d="M 66.012666 43.130935 
L 66.012666 57.525765 
L 68.34351 96.222005 
L 70.687675 116.423264 
L 73.009296 117.095406 
L 75.329349 131.283165 
L 77.660068 155.489224 
L 79.992454 171.825479 
L 82.343236 174.065419 
L 84.673623 177.097675 
L 87.006493 170.059489 
L 89.36296 190.525986 
L 91.712034 192.721783 
L 94.107827 210.629173 
L 96.446802 203.1421 
L 98.765441 216.532483 
L 101.115993 221.429688 
L 103.452781 228.813865 
L 105.802486 221.970311 
L 108.123679 234.666158 
L 110.45841 226.960904 
L 112.775655 220.776905 
L 115.136205 233.03056 
L 117.483336 233.537974 
L 119.798002 233.640427 
L 122.165807 236.788767 
L 124.489801 246.20387 
L 126.799873 240.735248 
L 129.123175 242.022336 
L 131.453793 247.506875 
L 133.811645 250.902999 
L 136.169328 249.111253 
L 138.51693 246.326777 
L 140.834491 255.960372 
L 143.186341 250.393006 
L 145.502318 253.524167 
L 147.860496 261.298925 
L 150.235262 258.832858 
L 152.557457 249.169639 
L 154.885292 244.956007 
L 157.192484 253.507253 
L 159.512871 249.596703 
L 161.863826 251.270166 
L 164.210835 252.473625 
L 166.54898 255.65838 
L 168.908571 261.599 
L 171.26105 258.877716 
L 173.582114 260.071893 
L 175.921751 259.410476 
L 178.316391 261.282981 
L 180.638499 255.588611 
L 183.005559 264.840201 
L 185.344279 259.740669 
L 187.650222 257.762183 
L 190.0174 264.872199 
L 192.364433 269.272764 
L 194.718984 270.823168 
L 197.058015 262.032019 
L 199.401886 272.047393 
L 201.724609 270.771742 
L 204.064792 261.867294 
L 206.489017 270.66553 
L 208.831621 262.100727 
L 211.160715 260.318991 
L 213.470044 264.372112 
L 215.814101 268.102348 
L 218.151664 278.135501 
L 220.471456 266.859508 
L 222.822001 273.741384 
L 225.147702 272.853767 
L 227.435363 263.871779 
L 229.779922 261.368679 
L 232.108422 270.983135 
L 234.48745 277.176598 
L 236.79678 265.728286 
L 239.136174 272.106552 
L 241.482476 275.932421 
L 243.823432 279.930875 
L 246.200109 276.084726 
L 248.504093 267.512306 
L 250.8795 279.287287 
L 253.182502 277.425892 
L 255.505626 281.530768 
L 257.880105 271.700401 
L 260.2327 278.814116 
L 262.621775 271.744031 
L 264.972119 278.272812 
L 267.301798 278.517116 
L 269.653336 282.180395 
L 271.984261 274.534709 
L 274.319184 266.910327 
L 276.684603 287.128009 
L 279.035264 278.318786 
L 281.366618 286.06927 
L 283.692227 281.798518 
L 286.024297 281.467304 
L 288.376815 274.011605 
L 290.759032 283.368991 
L 293.114276 285.161305 
L 295.437621 284.445087 
L 297.766428 288.706763 
L 300.074662 290.666562 
L 302.421396 284.263533 
L 304.732303 288.702641 
L 307.086676 289.359623 
L 309.395908 291.329091 
L 311.7439 292.163613 
L 314.110987 294.6403 
L 316.431769 289.788255 
L 318.817089 294.092263 
L 321.140929 295.328601 
L 323.466787 292.62621 
L 325.786045 296.099158 
L 328.122498 296.858981 
L 330.439726 293.044323 
L 332.760706 294.791752 
L 335.112768 298.187157 
L 337.435084 297.717914 
L 339.772111 297.429788 
L 342.12319 299.035687 
L 344.437581 297.609039 
L 346.829413 296.834004 
L 349.159249 298.904755 
L 351.494713 300.217528 
L 353.82474 301.287091 
L 356.138162 299.307648 
L 358.512528 301.609002 
L 360.845384 302.311424 
L 363.221056 302.87946 
L 365.576087 302.326922 
L 367.921124 303.125739 
L 370.222293 302.633785 
L 372.574984 302.005139 
L 374.928717 302.161898 
L 377.249314 302.873184 
L 379.593142 303.09479 
L 381.926406 302.849401 
L 384.264903 303.415251 
L 386.609814 302.877183 
L 388.974736 302.872629 
L 391.291935 302.287858 
L 393.619938 303.361858 
L 395.954978 303.3206 
L 398.26969 302.446949 
L 400.647624 303.427204 
L 403.02932 303.311296 
L 405.376005 303.280167 
L 407.697848 303.242751 
L 410.037266 303.248832 
L 412.399038 303.293059 
L 414.739617 303.120184 
L 414.739617 301.66403 
L 414.739617 301.66403 
L 412.399038 302.447682 
L 410.037266 302.824445 
L 407.697848 302.925121 
L 405.376005 302.886382 
L 403.02932 303.157287 
L 400.647624 302.820716 
L 398.26969 301.65791 
L 395.954978 302.872574 
L 393.619938 301.698823 
L 391.291935 301.009815 
L 388.974736 302.164073 
L 386.609814 302.355056 
L 384.264903 303.201528 
L 381.926406 301.034002 
L 379.593142 302.518826 
L 377.249314 302.200897 
L 374.928717 301.369221 
L 372.574984 300.756527 
L 370.222293 300.996602 
L 367.921124 301.606284 
L 365.576087 301.515575 
L 363.221056 301.924413 
L 360.845384 301.030329 
L 358.512528 300.045032 
L 356.138162 296.462994 
L 353.82474 299.514267 
L 351.494713 298.875658 
L 349.159249 294.455968 
L 346.829413 294.272665 
L 344.437581 293.946184 
L 342.12319 295.538107 
L 339.772111 294.339839 
L 337.435084 294.45654 
L 335.112768 294.222858 
L 332.760706 291.053578 
L 330.439726 283.285457 
L 328.122498 294.294237 
L 325.786045 292.977735 
L 323.466787 288.443008 
L 321.140929 290.869366 
L 318.817089 289.823438 
L 316.431769 283.438322 
L 314.110987 290.082235 
L 311.7439 287.159348 
L 309.395908 286.955708 
L 307.086676 284.642755 
L 304.732303 285.232031 
L 302.421396 280.434878 
L 300.074662 287.948304 
L 297.766428 284.81885 
L 295.437621 276.913149 
L 293.114276 283.317371 
L 290.759032 278.090804 
L 288.376815 269.421402 
L 286.024297 279.405704 
L 283.692227 275.497343 
L 281.366618 282.093445 
L 279.035264 275.439423 
L 276.684603 279.127646 
L 274.319184 259.934648 
L 271.984261 271.538841 
L 269.653336 274.91799 
L 267.301798 275.224166 
L 264.972119 276.433285 
L 262.621775 270.346134 
L 260.2327 271.186396 
L 257.880105 268.223165 
L 255.505626 275.223443 
L 253.182502 269.482702 
L 250.8795 270.764005 
L 248.504093 262.11991 
L 246.200109 268.22282 
L 243.823432 272.890731 
L 241.482476 270.073423 
L 239.136174 266.970686 
L 236.79678 262.042007 
L 234.48745 270.149517 
L 232.108422 261.944118 
L 229.779922 253.988802 
L 227.435363 259.305774 
L 225.147702 269.021995 
L 222.822001 266.509429 
L 220.471456 263.122523 
L 218.151664 274.037253 
L 215.814101 263.120964 
L 213.470044 260.667363 
L 211.160715 256.087937 
L 208.831621 257.183717 
L 206.489017 268.163451 
L 204.064792 255.826053 
L 201.724609 265.585961 
L 199.401886 264.31031 
L 197.058015 257.816644 
L 194.718984 265.545819 
L 192.364433 264.297698 
L 190.0174 262.469289 
L 187.650222 253.002557 
L 185.344279 255.345988 
L 183.005559 258.303499 
L 180.638499 250.538251 
L 178.316391 258.035316 
L 175.921751 256.736912 
L 173.582114 253.626786 
L 171.26105 247.813365 
L 168.908571 258.599478 
L 166.54898 249.678577 
L 164.210835 248.891231 
L 161.863826 246.912497 
L 159.512871 246.724037 
L 157.192484 243.716238 
L 154.885292 238.568253 
L 152.557457 238.304151 
L 150.235262 252.484817 
L 147.860496 255.920479 
L 145.502318 251.970771 
L 143.186341 245.91645 
L 140.834491 251.983274 
L 138.51693 242.275451 
L 136.169328 245.494263 
L 133.811645 247.268379 
L 131.453793 239.887925 
L 129.123175 239.391745 
L 126.799873 232.599221 
L 124.489801 240.615427 
L 122.165807 232.866996 
L 119.798002 228.883611 
L 117.483336 227.519095 
L 115.136205 221.797533 
L 112.775655 211.933814 
L 110.45841 223.218028 
L 108.123679 226.503755 
L 105.802486 209.724814 
L 103.452781 219.649841 
L 101.115993 211.010206 
L 98.765441 209.994398 
L 96.446802 192.014219 
L 94.107827 206.260852 
L 91.712034 189.118973 
L 89.36296 186.214233 
L 87.006493 161.610936 
L 84.673623 169.332713 
L 82.343236 165.729756 
L 79.992454 158.265134 
L 77.660068 145.848801 
L 75.329349 123.382685 
L 73.009296 105.251994 
L 70.687675 107.729636 
L 68.34351 87.487695 
L 66.012666 43.130935 
z
" style="fill:#2ca02c;fill-opacity:0.25;"/>
   </g>
   <g id="PolyCollection_4">
    <path clip-path="url(#p1d25508ae2)" d="M 66.057127 23.097098 
L 66.057127 56.254702 
L 68.372147 89.127586 
L 70.721369 117.978962 
L 73.039458 109.340718 
L 75.37296 126.055652 
L 77.685961 155.631501 
L 80.023773 171.136501 
L 82.366546 170.051747 
L 84.721001 174.635016 
L 87.03713 159.053028 
L 89.379488 187.690615 
L 91.716999 193.224369 
L 94.108056 202.650823 
L 96.436102 195.32989 
L 98.785716 210.048557 
L 101.120086 220.055651 
L 103.447337 225.929978 
L 105.778586 214.737406 
L 108.112521 232.551816 
L 110.408768 229.718507 
L 112.760757 220.68461 
L 115.107235 228.183693 
L 117.42762 232.561893 
L 119.741336 229.214052 
L 122.111149 233.760816 
L 124.422798 245.172586 
L 126.745449 241.099319 
L 129.080563 239.938186 
L 131.418361 243.881384 
L 133.733017 246.834536 
L 136.078538 248.038074 
L 138.411107 245.662829 
L 140.759187 253.343982 
L 143.11884 250.178436 
L 145.451021 258.991593 
L 147.780336 256.393893 
L 150.160504 254.524229 
L 152.499032 248.6977 
L 154.83049 244.217088 
L 157.161889 249.894233 
L 159.517543 253.28021 
L 161.864532 249.260204 
L 164.208056 255.99942 
L 166.530861 257.747331 
L 168.850966 259.175815 
L 171.174797 253.798968 
L 173.486054 253.894138 
L 175.846313 257.561141 
L 178.212011 259.237047 
L 180.545906 257.037098 
L 182.85566 261.465806 
L 185.176714 258.903005 
L 187.516056 259.697012 
L 189.881799 266.139953 
L 192.211293 266.704525 
L 194.562563 271.487452 
L 196.899717 259.332212 
L 199.251788 271.779944 
L 201.601267 266.336053 
L 203.950504 259.919995 
L 206.314437 273.520692 
L 208.667224 258.885646 
L 211.011139 262.764192 
L 213.316027 263.901396 
L 215.650127 266.113057 
L 217.981618 279.91149 
L 220.286408 270.487684 
L 222.616778 268.511095 
L 224.943424 273.562515 
L 227.269561 265.964828 
L 229.585531 260.489101 
L 231.928886 272.337331 
L 234.344937 274.846386 
L 236.682319 261.452289 
L 239.012528 274.174708 
L 241.365608 271.860855 
L 243.671008 274.805129 
L 246.001753 274.65283 
L 248.314949 270.89013 
L 250.669876 273.080562 
L 253.003068 273.313762 
L 255.320909 278.129548 
L 257.675379 272.772881 
L 260.0118 279.744684 
L 262.370091 268.949029 
L 264.715814 283.890381 
L 267.068157 278.237657 
L 269.407801 277.330836 
L 271.755647 276.473324 
L 274.096645 270.231288 
L 276.416638 283.87498 
L 278.754006 276.94815 
L 281.109461 286.997029 
L 283.444874 281.307578 
L 285.81098 282.167679 
L 288.131814 275.668888 
L 290.514431 281.896874 
L 292.831807 288.181434 
L 295.189137 283.726477 
L 297.537048 290.649261 
L 299.893761 288.520329 
L 302.210925 288.39989 
L 304.550925 288.22457 
L 306.89871 287.786435 
L 309.249135 289.948356 
L 311.566009 289.690695 
L 313.88384 291.269653 
L 316.225588 288.228911 
L 318.591745 291.871697 
L 320.941467 294.495493 
L 323.278921 290.501375 
L 325.611009 294.832036 
L 327.94252 295.556987 
L 330.274716 291.078248 
L 332.604906 294.115733 
L 334.935191 295.824767 
L 337.275326 297.254098 
L 339.627286 297.696402 
L 341.984392 297.888412 
L 344.31703 296.583648 
L 346.690707 298.343033 
L 349.047286 297.015402 
L 351.380084 300.904141 
L 353.71388 300.373513 
L 356.056404 299.741054 
L 358.405088 301.310886 
L 360.737489 301.971313 
L 363.072767 302.226933 
L 365.41 302.940278 
L 367.773586 303.254054 
L 370.10531 302.69285 
L 372.440367 301.737999 
L 374.831095 301.937385 
L 377.148957 302.375098 
L 379.499701 303.086592 
L 381.854452 302.350829 
L 384.192495 303.387196 
L 386.521593 302.844874 
L 388.840649 303.048649 
L 391.190979 302.866758 
L 393.534492 303.017219 
L 395.870721 303.267983 
L 398.205488 303.294816 
L 400.520066 303.327137 
L 402.911079 302.940109 
L 405.259569 303.246524 
L 407.590084 303.194805 
L 409.907172 303.397821 
L 412.240254 303.238746 
L 414.588325 302.601927 
L 414.588325 301.58298 
L 414.588325 301.58298 
L 412.240254 302.424591 
L 409.907172 302.609337 
L 407.590084 302.37332 
L 405.259569 302.705006 
L 402.911079 302.481143 
L 400.520066 302.916816 
L 398.205488 302.864945 
L 395.870721 302.202814 
L 393.534492 301.668256 
L 391.190979 301.356763 
L 388.840649 302.184383 
L 386.521593 301.757556 
L 384.192495 302.357424 
L 381.854452 301.215553 
L 379.499701 301.795831 
L 377.148957 302.006933 
L 374.831095 299.807981 
L 372.440367 300.588865 
L 370.10531 301.348182 
L 367.773586 300.497111 
L 365.41 300.03438 
L 363.072767 300.710698 
L 360.737489 300.845717 
L 358.405088 298.35604 
L 356.056404 295.418117 
L 353.71388 296.608084 
L 351.380084 297.053555 
L 349.047286 293.996761 
L 346.690707 293.954138 
L 344.31703 290.581954 
L 341.984392 292.493237 
L 339.627286 293.994234 
L 337.275326 288.839488 
L 334.935191 292.240763 
L 332.604906 290.090541 
L 330.274716 285.595705 
L 327.94252 290.92591 
L 325.611009 292.153016 
L 323.278921 285.977924 
L 320.941467 292.57137 
L 318.591745 289.643254 
L 316.225588 286.219199 
L 313.88384 287.02643 
L 311.566009 286.16232 
L 309.249135 285.458927 
L 306.89871 281.465221 
L 304.550925 283.670451 
L 302.210925 280.44835 
L 299.893761 285.961635 
L 297.537048 281.911538 
L 295.189137 278.145198 
L 292.831807 283.403267 
L 290.514431 276.578204 
L 288.131814 271.97319 
L 285.81098 277.480974 
L 283.444874 278.651396 
L 281.109461 284.347879 
L 278.754006 273.136995 
L 276.416638 278.363437 
L 274.096645 263.959815 
L 271.755647 270.497334 
L 269.407801 273.707839 
L 267.068157 272.377854 
L 264.715814 275.526942 
L 262.370091 262.590246 
L 260.0118 271.040092 
L 257.675379 267.782609 
L 255.320909 273.117888 
L 253.003068 270.130528 
L 250.669876 267.542635 
L 248.314949 260.163917 
L 246.001753 268.390866 
L 243.671008 267.364027 
L 241.365608 265.049783 
L 239.012528 266.899864 
L 236.682319 256.421608 
L 234.344937 268.090108 
L 231.928886 265.374497 
L 229.585531 252.52123 
L 227.269561 260.507762 
L 224.943424 266.857563 
L 222.616778 263.186161 
L 220.286408 265.836166 
L 217.981618 274.484286 
L 215.650127 258.813575 
L 213.316027 258.734507 
L 211.011139 255.357961 
L 208.667224 250.96506 
L 206.314437 264.292695 
L 203.950504 252.729236 
L 201.601267 262.551394 
L 199.251788 267.895365 
L 196.899717 254.716282 
L 194.562563 262.90677 
L 192.211293 261.122191 
L 189.881799 259.633006 
L 187.516056 250.921032 
L 185.176714 253.260998 
L 182.85566 257.062585 
L 180.545906 245.862433 
L 178.212011 254.890438 
L 175.846313 251.273972 
L 173.486054 247.673837 
L 171.174797 247.825429 
L 168.850966 253.462132 
L 166.530861 254.360251 
L 164.208056 244.993052 
L 161.864532 245.616137 
L 159.517543 244.834746 
L 157.161889 244.49688 
L 154.83049 239.442584 
L 152.499032 240.750856 
L 150.160504 248.386587 
L 147.780336 251.651313 
L 145.451021 249.606547 
L 143.11884 243.648458 
L 140.759187 244.974093 
L 138.411107 238.14354 
L 136.078538 237.472235 
L 133.733017 240.819805 
L 131.418361 238.909391 
L 129.080563 231.297389 
L 126.745449 231.580656 
L 124.422798 235.034067 
L 122.111149 227.454234 
L 119.741336 220.806898 
L 117.42762 221.476294 
L 115.107235 215.495438 
L 112.760757 211.82299 
L 110.408768 220.144462 
L 108.112521 215.889321 
L 105.778586 203.100507 
L 103.447337 216.959247 
L 101.120086 203.604999 
L 98.785716 199.754881 
L 96.436102 185.111604 
L 94.108056 189.910089 
L 91.716999 174.104681 
L 89.379488 173.815697 
L 87.03713 147.475809 
L 84.721001 157.396509 
L 82.366546 147.264953 
L 80.023773 147.263499 
L 77.685961 136.317924 
L 75.37296 105.996311 
L 73.039458 95.764157 
L 70.721369 93.445163 
L 68.372147 72.645289 
L 66.057127 23.097098 
z
" style="fill:#d62728;fill-opacity:0.25;"/>
   </g>
   <g id="PolyCollection_5">
    <path clip-path="url(#p1d25508ae2)" d="M 66.029628 37.268943 
L 66.029628 55.894932 
L 68.350343 91.518037 
L 70.654684 108.436815 
L 72.969389 106.436027 
L 75.322842 123.099775 
L 77.630031 141.621717 
L 79.958651 157.532831 
L 82.292114 166.419816 
L 84.617808 174.597762 
L 86.964454 160.597413 
L 89.289567 185.327609 
L 91.593454 190.927294 
L 93.958404 200.594235 
L 96.314403 191.820859 
L 98.641484 202.499453 
L 100.976139 209.140539 
L 103.311505 220.228326 
L 105.629339 212.95024 
L 107.932712 228.552343 
L 110.28197 226.948872 
L 112.63287 218.179528 
L 114.986205 220.455707 
L 117.338606 224.376725 
L 119.650313 225.106949 
L 122.058081 233.134744 
L 124.363128 244.054409 
L 126.675616 233.859578 
L 128.970513 239.006308 
L 131.279024 247.353926 
L 133.619542 246.51084 
L 135.946199 242.511677 
L 138.290521 245.861202 
L 140.613308 251.100506 
L 142.96659 246.748628 
L 145.269828 258.735191 
L 147.577143 256.677051 
L 149.975851 253.487772 
L 152.294527 243.438941 
L 154.614422 241.84225 
L 156.952344 252.631249 
L 159.294198 248.182532 
L 161.590168 253.208707 
L 163.930006 250.515921 
L 166.262016 258.210087 
L 168.592404 257.789115 
L 170.955923 255.854484 
L 173.278666 253.618948 
L 175.61991 261.395681 
L 178.007605 258.524173 
L 180.342609 255.384783 
L 182.707851 259.768196 
L 185.035977 262.22739 
L 187.377869 258.060607 
L 189.732871 266.406053 
L 192.03908 267.955789 
L 194.336388 270.08959 
L 196.662516 257.938757 
L 199.01152 270.750115 
L 201.339279 270.318794 
L 203.652512 260.823715 
L 206.03406 271.783504 
L 208.367642 260.594687 
L 210.717615 261.617284 
L 213.03016 264.669742 
L 215.381834 269.067718 
L 217.718592 279.133645 
L 220.026394 267.034183 
L 222.354901 267.408783 
L 224.703717 273.714588 
L 227.017845 263.114775 
L 229.329441 259.071535 
L 231.684826 268.221824 
L 234.060181 272.266205 
L 236.388698 264.261814 
L 238.708047 270.653204 
L 241.045676 272.705416 
L 243.368082 276.035473 
L 245.697085 275.303688 
L 248.006936 267.318955 
L 250.34608 276.073018 
L 252.680756 275.626154 
L 255.019716 278.727317 
L 257.354225 278.109611 
L 259.683496 279.526548 
L 262.082548 270.883361 
L 264.371574 279.739626 
L 266.707187 279.283891 
L 269.016107 277.35476 
L 271.329097 280.549957 
L 273.648324 268.630119 
L 275.976741 283.45009 
L 278.28509 277.630853 
L 280.626473 286.077383 
L 282.968871 280.350407 
L 285.28973 279.008281 
L 287.627001 274.26925 
L 289.994797 281.327232 
L 292.332739 287.071847 
L 294.655039 285.20741 
L 296.98646 287.991098 
L 299.304895 290.515884 
L 301.657332 282.312859 
L 303.999174 288.825704 
L 306.325252 289.268037 
L 308.665255 290.113674 
L 311.01674 290.426056 
L 313.350065 292.729023 
L 315.679548 287.601469 
L 318.071863 290.253505 
L 320.383553 294.711987 
L 322.736483 291.749336 
L 325.057746 295.18906 
L 327.40684 295.641715 
L 329.745445 288.074243 
L 332.092826 293.705479 
L 334.41519 295.894687 
L 336.723346 296.899572 
L 339.064718 299.902692 
L 341.392823 297.760556 
L 343.696719 294.989484 
L 346.067331 299.801509 
L 348.379094 297.027091 
L 350.699528 301.392194 
L 353.041393 300.19626 
L 355.368404 298.74409 
L 357.66813 300.553742 
L 360.005493 302.675413 
L 362.344523 302.579114 
L 364.658102 302.784495 
L 366.98902 303.271974 
L 369.313926 302.588442 
L 371.628742 301.747142 
L 374.02318 301.816299 
L 376.364428 302.621208 
L 378.698985 302.940568 
L 381.057544 302.566458 
L 383.39456 303.621066 
L 385.761935 302.808017 
L 388.117754 303.07398 
L 390.449151 302.770722 
L 392.781089 303.163886 
L 395.113243 303.263127 
L 397.456009 303.018766 
L 399.814323 303.507377 
L 402.173656 303.379486 
L 404.505814 303.177467 
L 406.848179 303.00416 
L 409.170294 303.446063 
L 411.48909 303.295511 
L 413.826178 302.716823 
L 413.826178 301.355593 
L 413.826178 301.355593 
L 411.48909 302.756343 
L 409.170294 303.293653 
L 406.848179 302.647188 
L 404.505814 302.899865 
L 402.173656 302.61577 
L 399.814323 303.131309 
L 397.456009 301.922106 
L 395.113243 301.585796 
L 392.781089 301.606399 
L 390.449151 302.411971 
L 388.117754 302.787186 
L 385.761935 301.307068 
L 383.39456 302.626942 
L 381.057544 301.040125 
L 378.698985 301.544257 
L 376.364428 301.646569 
L 374.02318 300.478123 
L 371.628742 299.650172 
L 369.313926 301.56367 
L 366.98902 301.13051 
L 364.658102 300.632898 
L 362.344523 301.537558 
L 360.005493 301.857194 
L 357.66813 299.568438 
L 355.368404 295.385381 
L 353.041393 298.643028 
L 350.699528 298.191157 
L 348.379094 293.735405 
L 346.067331 296.520658 
L 343.696719 290.765571 
L 341.392823 294.428003 
L 339.064718 294.964495 
L 336.723346 291.50449 
L 334.41519 292.371142 
L 332.092826 291.172215 
L 329.745445 285.544466 
L 327.40684 292.765168 
L 325.057746 291.976541 
L 322.736483 287.376149 
L 320.383553 292.425404 
L 318.071863 286.660242 
L 315.679548 282.97046 
L 313.350065 288.469965 
L 311.01674 285.821913 
L 308.665255 287.070898 
L 306.325252 284.931818 
L 303.999174 283.836654 
L 301.657332 276.890062 
L 299.304895 287.509374 
L 296.98646 284.109863 
L 294.655039 279.372515 
L 292.332739 282.918936 
L 289.994797 276.690829 
L 287.627001 268.114309 
L 285.28973 273.373235 
L 282.968871 273.136977 
L 280.626473 283.749777 
L 278.28509 272.375302 
L 275.976741 278.963235 
L 273.648324 265.087041 
L 271.329097 274.505955 
L 269.016107 271.912268 
L 266.707187 274.333264 
L 264.371574 275.400919 
L 262.082548 266.377093 
L 259.683496 274.643541 
L 257.354225 271.309756 
L 255.019716 271.685076 
L 252.680756 270.723863 
L 250.34608 271.856812 
L 248.006936 264.603989 
L 245.697085 269.968672 
L 243.368082 269.140969 
L 241.045676 263.381462 
L 238.708047 266.404131 
L 236.388698 259.039867 
L 234.060181 268.379561 
L 231.684826 264.254054 
L 229.329441 255.563746 
L 227.017845 259.193881 
L 224.703717 270.237499 
L 222.354901 261.817195 
L 220.026394 263.82803 
L 217.718592 269.298339 
L 215.381834 260.225966 
L 213.03016 259.861936 
L 210.717615 255.613403 
L 208.367642 252.370507 
L 206.03406 267.812815 
L 203.652512 253.450466 
L 201.339279 265.091022 
L 199.01152 268.202994 
L 196.662516 251.720115 
L 194.336388 261.641519 
L 192.03908 263.369083 
L 189.732871 262.594238 
L 187.377869 252.252759 
L 185.035977 255.443388 
L 182.707851 253.298557 
L 180.342609 251.622261 
L 178.007605 251.845615 
L 175.61991 253.397582 
L 173.278666 246.910864 
L 170.955923 248.98596 
L 168.592404 255.277638 
L 166.262016 255.578867 
L 163.930006 242.27281 
L 161.590168 248.347983 
L 159.294198 241.931803 
L 156.952344 244.693801 
L 154.614422 238.714218 
L 152.294527 239.081009 
L 149.975851 248.915247 
L 147.577143 253.162371 
L 145.269828 251.013956 
L 142.96659 242.914331 
L 140.613308 247.781787 
L 138.290521 243.451942 
L 135.946199 238.089929 
L 133.619542 242.824872 
L 131.279024 240.46968 
L 128.970513 231.461929 
L 126.675616 228.890147 
L 124.363128 240.790122 
L 122.058081 226.523063 
L 119.650313 217.849982 
L 117.338606 221.378732 
L 114.986205 218.596831 
L 112.63287 208.257078 
L 110.28197 219.054841 
L 107.932712 219.798519 
L 105.629339 200.915572 
L 103.311505 216.49963 
L 100.976139 204.025642 
L 98.641484 198.502172 
L 96.314403 185.032203 
L 93.958404 190.274021 
L 91.593454 179.155143 
L 89.289567 179.879978 
L 86.964454 152.611774 
L 84.617808 161.586413 
L 82.292114 155.230084 
L 79.958651 151.072332 
L 77.630031 136.109395 
L 75.322842 116.941525 
L 72.969389 96.908485 
L 70.654684 104.160885 
L 68.350343 80.546188 
L 66.029628 37.268943 
z
" style="fill:#9467bd;fill-opacity:0.25;"/>
   </g>
   <g id="matplotlib.axis_1">
    <g id="xtick_1">
     <g id="line2d_1">
      <defs>
       <path d="M 0 0 
L 0 3.5 
" id="m37ef339570" style="stroke:#000000;stroke-width:0.8;"/>
      </defs>
      <g>
       <use style="stroke:#000000;stroke-width:0.8;" x="63.553982" xlink:href="#m37ef339570" y="303.64"/>
      </g>
     </g>
     <g id="text_1">
      <!-- 0 -->
      <g transform="translate(60.372732 318.238437)scale(0.1 -0.1)">
       <defs>
        <path d="M 31.78125 66.40625 
Q 24.171875 66.40625 20.328125 58.90625 
Q 16.5 51.421875 16.5 36.375 
Q 16.5 21.390625 20.328125 13.890625 
Q 24.171875 6.390625 31.78125 6.390625 
Q 39.453125 6.390625 43.28125 13.890625 
Q 47.125 21.390625 47.125 36.375 
Q 47.125 51.421875 43.28125 58.90625 
Q 39.453125 66.40625 31.78125 66.40625 
z
M 31.78125 74.21875 
Q 44.046875 74.21875 50.515625 64.515625 
Q 56.984375 54.828125 56.984375 36.375 
Q 56.984375 17.96875 50.515625 8.265625 
Q 44.046875 -1.421875 31.78125 -1.421875 
Q 19.53125 -1.421875 13.0625 8.265625 
Q 6.59375 17.96875 6.59375 36.375 
Q 6.59375 54.828125 13.0625 64.515625 
Q 19.53125 74.21875 31.78125 74.21875 
z
" id="DejaVuSans-48"/>
       </defs>
       <use xlink:href="#DejaVuSans-48"/>
      </g>
     </g>
    </g>
    <g id="xtick_2">
     <g id="line2d_2">
      <g>
       <use style="stroke:#000000;stroke-width:0.8;" x="108.296236" xlink:href="#m37ef339570" y="303.64"/>
      </g>
     </g>
     <g id="text_2">
      <!-- 1000 -->
      <g transform="translate(95.571236 318.238437)scale(0.1 -0.1)">
       <defs>
        <path d="M 12.40625 8.296875 
L 28.515625 8.296875 
L 28.515625 63.921875 
L 10.984375 60.40625 
L 10.984375 69.390625 
L 28.421875 72.90625 
L 38.28125 72.90625 
L 38.28125 8.296875 
L 54.390625 8.296875 
L 54.390625 0 
L 12.40625 0 
z
" id="DejaVuSans-49"/>
       </defs>
       <use xlink:href="#DejaVuSans-49"/>
       <use x="63.623047" xlink:href="#DejaVuSans-48"/>
       <use x="127.246094" xlink:href="#DejaVuSans-48"/>
       <use x="190.869141" xlink:href="#DejaVuSans-48"/>
      </g>
     </g>
    </g>
    <g id="xtick_3">
     <g id="line2d_3">
      <g>
       <use style="stroke:#000000;stroke-width:0.8;" x="153.038489" xlink:href="#m37ef339570" y="303.64"/>
      </g>
     </g>
     <g id="text_3">
      <!-- 2000 -->
      <g transform="translate(140.313489 318.238437)scale(0.1 -0.1)">
       <defs>
        <path d="M 19.1875 8.296875 
L 53.609375 8.296875 
L 53.609375 0 
L 7.328125 0 
L 7.328125 8.296875 
Q 12.9375 14.109375 22.625 23.890625 
Q 32.328125 33.6875 34.8125 36.53125 
Q 39.546875 41.84375 41.421875 45.53125 
Q 43.3125 49.21875 43.3125 52.78125 
Q 43.3125 58.59375 39.234375 62.25 
Q 35.15625 65.921875 28.609375 65.921875 
Q 23.96875 65.921875 18.8125 64.3125 
Q 13.671875 62.703125 7.8125 59.421875 
L 7.8125 69.390625 
Q 13.765625 71.78125 18.9375 73 
Q 24.125 74.21875 28.421875 74.21875 
Q 39.75 74.21875 46.484375 68.546875 
Q 53.21875 62.890625 53.21875 53.421875 
Q 53.21875 48.921875 51.53125 44.890625 
Q 49.859375 40.875 45.40625 35.40625 
Q 44.1875 33.984375 37.640625 27.21875 
Q 31.109375 20.453125 19.1875 8.296875 
z
" id="DejaVuSans-50"/>
       </defs>
       <use xlink:href="#DejaVuSans-50"/>
       <use x="63.623047" xlink:href="#DejaVuSans-48"/>
       <use x="127.246094" xlink:href="#DejaVuSans-48"/>
       <use x="190.869141" xlink:href="#DejaVuSans-48"/>
      </g>
     </g>
    </g>
    <g id="xtick_4">
     <g id="line2d_4">
      <g>
       <use style="stroke:#000000;stroke-width:0.8;" x="197.780742" xlink:href="#m37ef339570" y="303.64"/>
      </g>
     </g>
     <g id="text_4">
      <!-- 3000 -->
      <g transform="translate(185.055742 318.238437)scale(0.1 -0.1)">
       <defs>
        <path d="M 40.578125 39.3125 
Q 47.65625 37.796875 51.625 33 
Q 55.609375 28.21875 55.609375 21.1875 
Q 55.609375 10.40625 48.1875 4.484375 
Q 40.765625 -1.421875 27.09375 -1.421875 
Q 22.515625 -1.421875 17.65625 -0.515625 
Q 12.796875 0.390625 7.625 2.203125 
L 7.625 11.71875 
Q 11.71875 9.328125 16.59375 8.109375 
Q 21.484375 6.890625 26.8125 6.890625 
Q 36.078125 6.890625 40.9375 10.546875 
Q 45.796875 14.203125 45.796875 21.1875 
Q 45.796875 27.640625 41.28125 31.265625 
Q 36.765625 34.90625 28.71875 34.90625 
L 20.21875 34.90625 
L 20.21875 43.015625 
L 29.109375 43.015625 
Q 36.375 43.015625 40.234375 45.921875 
Q 44.09375 48.828125 44.09375 54.296875 
Q 44.09375 59.90625 40.109375 62.90625 
Q 36.140625 65.921875 28.71875 65.921875 
Q 24.65625 65.921875 20.015625 65.03125 
Q 15.375 64.15625 9.8125 62.3125 
L 9.8125 71.09375 
Q 15.4375 72.65625 20.34375 73.4375 
Q 25.25 74.21875 29.59375 74.21875 
Q 40.828125 74.21875 47.359375 69.109375 
Q 53.90625 64.015625 53.90625 55.328125 
Q 53.90625 49.265625 50.4375 45.09375 
Q 46.96875 40.921875 40.578125 39.3125 
z
" id="DejaVuSans-51"/>
       </defs>
       <use xlink:href="#DejaVuSans-51"/>
       <use x="63.623047" xlink:href="#DejaVuSans-48"/>
       <use x="127.246094" xlink:href="#DejaVuSans-48"/>
       <use x="190.869141" xlink:href="#DejaVuSans-48"/>
      </g>
     </g>
    </g>
    <g id="xtick_5">
     <g id="line2d_5">
      <g>
       <use style="stroke:#000000;stroke-width:0.8;" x="242.522995" xlink:href="#m37ef339570" y="303.64"/>
      </g>
     </g>
     <g id="text_5">
      <!-- 4000 -->
      <g transform="translate(229.797995 318.238437)scale(0.1 -0.1)">
       <defs>
        <path d="M 37.796875 64.3125 
L 12.890625 25.390625 
L 37.796875 25.390625 
z
M 35.203125 72.90625 
L 47.609375 72.90625 
L 47.609375 25.390625 
L 58.015625 25.390625 
L 58.015625 17.1875 
L 47.609375 17.1875 
L 47.609375 0 
L 37.796875 0 
L 37.796875 17.1875 
L 4.890625 17.1875 
L 4.890625 26.703125 
z
" id="DejaVuSans-52"/>
       </defs>
       <use xlink:href="#DejaVuSans-52"/>
       <use x="63.623047" xlink:href="#DejaVuSans-48"/>
       <use x="127.246094" xlink:href="#DejaVuSans-48"/>
       <use x="190.869141" xlink:href="#DejaVuSans-48"/>
      </g>
     </g>
    </g>
    <g id="xtick_6">
     <g id="line2d_6">
      <g>
       <use style="stroke:#000000;stroke-width:0.8;" x="287.265249" xlink:href="#m37ef339570" y="303.64"/>
      </g>
     </g>
     <g id="text_6">
      <!-- 5000 -->
      <g transform="translate(274.540249 318.238437)scale(0.1 -0.1)">
       <defs>
        <path d="M 10.796875 72.90625 
L 49.515625 72.90625 
L 49.515625 64.59375 
L 19.828125 64.59375 
L 19.828125 46.734375 
Q 21.96875 47.46875 24.109375 47.828125 
Q 26.265625 48.1875 28.421875 48.1875 
Q 40.625 48.1875 47.75 41.5 
Q 54.890625 34.8125 54.890625 23.390625 
Q 54.890625 11.625 47.5625 5.09375 
Q 40.234375 -1.421875 26.90625 -1.421875 
Q 22.3125 -1.421875 17.546875 -0.640625 
Q 12.796875 0.140625 7.71875 1.703125 
L 7.71875 11.625 
Q 12.109375 9.234375 16.796875 8.0625 
Q 21.484375 6.890625 26.703125 6.890625 
Q 35.15625 6.890625 40.078125 11.328125 
Q 45.015625 15.765625 45.015625 23.390625 
Q 45.015625 31 40.078125 35.4375 
Q 35.15625 39.890625 26.703125 39.890625 
Q 22.75 39.890625 18.8125 39.015625 
Q 14.890625 38.140625 10.796875 36.28125 
z
" id="DejaVuSans-53"/>
       </defs>
       <use xlink:href="#DejaVuSans-53"/>
       <use x="63.623047" xlink:href="#DejaVuSans-48"/>
       <use x="127.246094" xlink:href="#DejaVuSans-48"/>
       <use x="190.869141" xlink:href="#DejaVuSans-48"/>
      </g>
     </g>
    </g>
    <g id="xtick_7">
     <g id="line2d_7">
      <g>
       <use style="stroke:#000000;stroke-width:0.8;" x="332.007502" xlink:href="#m37ef339570" y="303.64"/>
      </g>
     </g>
     <g id="text_7">
      <!-- 6000 -->
      <g transform="translate(319.282502 318.238437)scale(0.1 -0.1)">
       <defs>
        <path d="M 33.015625 40.375 
Q 26.375 40.375 22.484375 35.828125 
Q 18.609375 31.296875 18.609375 23.390625 
Q 18.609375 15.53125 22.484375 10.953125 
Q 26.375 6.390625 33.015625 6.390625 
Q 39.65625 6.390625 43.53125 10.953125 
Q 47.40625 15.53125 47.40625 23.390625 
Q 47.40625 31.296875 43.53125 35.828125 
Q 39.65625 40.375 33.015625 40.375 
z
M 52.59375 71.296875 
L 52.59375 62.3125 
Q 48.875 64.0625 45.09375 64.984375 
Q 41.3125 65.921875 37.59375 65.921875 
Q 27.828125 65.921875 22.671875 59.328125 
Q 17.53125 52.734375 16.796875 39.40625 
Q 19.671875 43.65625 24.015625 45.921875 
Q 28.375 48.1875 33.59375 48.1875 
Q 44.578125 48.1875 50.953125 41.515625 
Q 57.328125 34.859375 57.328125 23.390625 
Q 57.328125 12.15625 50.6875 5.359375 
Q 44.046875 -1.421875 33.015625 -1.421875 
Q 20.359375 -1.421875 13.671875 8.265625 
Q 6.984375 17.96875 6.984375 36.375 
Q 6.984375 53.65625 15.1875 63.9375 
Q 23.390625 74.21875 37.203125 74.21875 
Q 40.921875 74.21875 44.703125 73.484375 
Q 48.484375 72.75 52.59375 71.296875 
z
" id="DejaVuSans-54"/>
       </defs>
       <use xlink:href="#DejaVuSans-54"/>
       <use x="63.623047" xlink:href="#DejaVuSans-48"/>
       <use x="127.246094" xlink:href="#DejaVuSans-48"/>
       <use x="190.869141" xlink:href="#DejaVuSans-48"/>
      </g>
     </g>
    </g>
    <g id="xtick_8">
     <g id="line2d_8">
      <g>
       <use style="stroke:#000000;stroke-width:0.8;" x="376.749755" xlink:href="#m37ef339570" y="303.64"/>
      </g>
     </g>
     <g id="text_8">
      <!-- 7000 -->
      <g transform="translate(364.024755 318.238437)scale(0.1 -0.1)">
       <defs>
        <path d="M 8.203125 72.90625 
L 55.078125 72.90625 
L 55.078125 68.703125 
L 28.609375 0 
L 18.3125 0 
L 43.21875 64.59375 
L 8.203125 64.59375 
z
" id="DejaVuSans-55"/>
       </defs>
       <use xlink:href="#DejaVuSans-55"/>
       <use x="63.623047" xlink:href="#DejaVuSans-48"/>
       <use x="127.246094" xlink:href="#DejaVuSans-48"/>
       <use x="190.869141" xlink:href="#DejaVuSans-48"/>
      </g>
     </g>
    </g>
    <g id="xtick_9">
     <g id="line2d_9">
      <g>
       <use style="stroke:#000000;stroke-width:0.8;" x="421.492009" xlink:href="#m37ef339570" y="303.64"/>
      </g>
     </g>
     <g id="text_9">
      <!-- 8000 -->
      <g transform="translate(408.767009 318.238437)scale(0.1 -0.1)">
       <defs>
        <path d="M 31.78125 34.625 
Q 24.75 34.625 20.71875 30.859375 
Q 16.703125 27.09375 16.703125 20.515625 
Q 16.703125 13.921875 20.71875 10.15625 
Q 24.75 6.390625 31.78125 6.390625 
Q 38.8125 6.390625 42.859375 10.171875 
Q 46.921875 13.96875 46.921875 20.515625 
Q 46.921875 27.09375 42.890625 30.859375 
Q 38.875 34.625 31.78125 34.625 
z
M 21.921875 38.8125 
Q 15.578125 40.375 12.03125 44.71875 
Q 8.5 49.078125 8.5 55.328125 
Q 8.5 64.0625 14.71875 69.140625 
Q 20.953125 74.21875 31.78125 74.21875 
Q 42.671875 74.21875 48.875 69.140625 
Q 55.078125 64.0625 55.078125 55.328125 
Q 55.078125 49.078125 51.53125 44.71875 
Q 48 40.375 41.703125 38.8125 
Q 48.828125 37.15625 52.796875 32.3125 
Q 56.78125 27.484375 56.78125 20.515625 
Q 56.78125 9.90625 50.3125 4.234375 
Q 43.84375 -1.421875 31.78125 -1.421875 
Q 19.734375 -1.421875 13.25 4.234375 
Q 6.78125 9.90625 6.78125 20.515625 
Q 6.78125 27.484375 10.78125 32.3125 
Q 14.796875 37.15625 21.921875 38.8125 
z
M 18.3125 54.390625 
Q 18.3125 48.734375 21.84375 45.5625 
Q 25.390625 42.390625 31.78125 42.390625 
Q 38.140625 42.390625 41.71875 45.5625 
Q 45.3125 48.734375 45.3125 54.390625 
Q 45.3125 60.0625 41.71875 63.234375 
Q 38.140625 66.40625 31.78125 66.40625 
Q 25.390625 66.40625 21.84375 63.234375 
Q 18.3125 60.0625 18.3125 54.390625 
z
" id="DejaVuSans-56"/>
       </defs>
       <use xlink:href="#DejaVuSans-56"/>
       <use x="63.623047" xlink:href="#DejaVuSans-48"/>
       <use x="127.246094" xlink:href="#DejaVuSans-48"/>
       <use x="190.869141" xlink:href="#DejaVuSans-48"/>
      </g>
     </g>
    </g>
    <g id="text_10">
     <!-- Time -->
     <g transform="translate(236.626406 331.916562)scale(0.1 -0.1)">
      <defs>
       <path d="M -0.296875 72.90625 
L 61.375 72.90625 
L 61.375 64.59375 
L 35.5 64.59375 
L 35.5 0 
L 25.59375 0 
L 25.59375 64.59375 
L -0.296875 64.59375 
z
" id="DejaVuSans-84"/>
       <path d="M 9.421875 54.6875 
L 18.40625 54.6875 
L 18.40625 0 
L 9.421875 0 
z
M 9.421875 75.984375 
L 18.40625 75.984375 
L 18.40625 64.59375 
L 9.421875 64.59375 
z
" id="DejaVuSans-105"/>
       <path d="M 52 44.1875 
Q 55.375 50.25 60.0625 53.125 
Q 64.75 56 71.09375 56 
Q 79.640625 56 84.28125 50.015625 
Q 88.921875 44.046875 88.921875 33.015625 
L 88.921875 0 
L 79.890625 0 
L 79.890625 32.71875 
Q 79.890625 40.578125 77.09375 44.375 
Q 74.3125 48.1875 68.609375 48.1875 
Q 61.625 48.1875 57.5625 43.546875 
Q 53.515625 38.921875 53.515625 30.90625 
L 53.515625 0 
L 44.484375 0 
L 44.484375 32.71875 
Q 44.484375 40.625 41.703125 44.40625 
Q 38.921875 48.1875 33.109375 48.1875 
Q 26.21875 48.1875 22.15625 43.53125 
Q 18.109375 38.875 18.109375 30.90625 
L 18.109375 0 
L 9.078125 0 
L 9.078125 54.6875 
L 18.109375 54.6875 
L 18.109375 46.1875 
Q 21.1875 51.21875 25.484375 53.609375 
Q 29.78125 56 35.6875 56 
Q 41.65625 56 45.828125 52.96875 
Q 50 49.953125 52 44.1875 
z
" id="DejaVuSans-109"/>
       <path d="M 56.203125 29.59375 
L 56.203125 25.203125 
L 14.890625 25.203125 
Q 15.484375 15.921875 20.484375 11.0625 
Q 25.484375 6.203125 34.421875 6.203125 
Q 39.59375 6.203125 44.453125 7.46875 
Q 49.3125 8.734375 54.109375 11.28125 
L 54.109375 2.78125 
Q 49.265625 0.734375 44.1875 -0.34375 
Q 39.109375 -1.421875 33.890625 -1.421875 
Q 20.796875 -1.421875 13.15625 6.1875 
Q 5.515625 13.8125 5.515625 26.8125 
Q 5.515625 40.234375 12.765625 48.109375 
Q 20.015625 56 32.328125 56 
Q 43.359375 56 49.78125 48.890625 
Q 56.203125 41.796875 56.203125 29.59375 
z
M 47.21875 32.234375 
Q 47.125 39.59375 43.09375 43.984375 
Q 39.0625 48.390625 32.421875 48.390625 
Q 24.90625 48.390625 20.390625 44.140625 
Q 15.875 39.890625 15.1875 32.171875 
z
" id="DejaVuSans-101"/>
      </defs>
      <use xlink:href="#DejaVuSans-84"/>
      <use x="57.958984" xlink:href="#DejaVuSans-105"/>
      <use x="85.742188" xlink:href="#DejaVuSans-109"/>
      <use x="183.154297" xlink:href="#DejaVuSans-101"/>
     </g>
    </g>
   </g>
   <g id="matplotlib.axis_2">
    <g id="ytick_1">
     <g id="line2d_10">
      <defs>
       <path d="M 0 0 
L -3.5 0 
" id="m40a3f9938e" style="stroke:#000000;stroke-width:0.8;"/>
      </defs>
      <g>
       <use style="stroke:#000000;stroke-width:0.8;" x="47.72" xlink:href="#m40a3f9938e" y="303.64"/>
      </g>
     </g>
     <g id="text_11">
      <!-- 0.0 -->
      <g transform="translate(24.816875 307.439219)scale(0.1 -0.1)">
       <defs>
        <path d="M 10.6875 12.40625 
L 21 12.40625 
L 21 0 
L 10.6875 0 
z
" id="DejaVuSans-46"/>
       </defs>
       <use xlink:href="#DejaVuSans-48"/>
       <use x="63.623047" xlink:href="#DejaVuSans-46"/>
       <use x="95.410156" xlink:href="#DejaVuSans-48"/>
      </g>
     </g>
    </g>
    <g id="ytick_2">
     <g id="line2d_11">
      <g>
       <use style="stroke:#000000;stroke-width:0.8;" x="47.72" xlink:href="#m40a3f9938e" y="245.864"/>
      </g>
     </g>
     <g id="text_12">
      <!-- 0.5 -->
      <g transform="translate(24.816875 249.663219)scale(0.1 -0.1)">
       <use xlink:href="#DejaVuSans-48"/>
       <use x="63.623047" xlink:href="#DejaVuSans-46"/>
       <use x="95.410156" xlink:href="#DejaVuSans-53"/>
      </g>
     </g>
    </g>
    <g id="ytick_3">
     <g id="line2d_12">
      <g>
       <use style="stroke:#000000;stroke-width:0.8;" x="47.72" xlink:href="#m40a3f9938e" y="188.088"/>
      </g>
     </g>
     <g id="text_13">
      <!-- 1.0 -->
      <g transform="translate(24.816875 191.887219)scale(0.1 -0.1)">
       <use xlink:href="#DejaVuSans-49"/>
       <use x="63.623047" xlink:href="#DejaVuSans-46"/>
       <use x="95.410156" xlink:href="#DejaVuSans-48"/>
      </g>
     </g>
    </g>
    <g id="ytick_4">
     <g id="line2d_13">
      <g>
       <use style="stroke:#000000;stroke-width:0.8;" x="47.72" xlink:href="#m40a3f9938e" y="130.312"/>
      </g>
     </g>
     <g id="text_14">
      <!-- 1.5 -->
      <g transform="translate(24.816875 134.111219)scale(0.1 -0.1)">
       <use xlink:href="#DejaVuSans-49"/>
       <use x="63.623047" xlink:href="#DejaVuSans-46"/>
       <use x="95.410156" xlink:href="#DejaVuSans-53"/>
      </g>
     </g>
    </g>
    <g id="ytick_5">
     <g id="line2d_14">
      <g>
       <use style="stroke:#000000;stroke-width:0.8;" x="47.72" xlink:href="#m40a3f9938e" y="72.536"/>
      </g>
     </g>
     <g id="text_15">
      <!-- 2.0 -->
      <g transform="translate(24.816875 76.335219)scale(0.1 -0.1)">
       <use xlink:href="#DejaVuSans-50"/>
       <use x="63.623047" xlink:href="#DejaVuSans-46"/>
       <use x="95.410156" xlink:href="#DejaVuSans-48"/>
      </g>
     </g>
    </g>
    <g id="ytick_6">
     <g id="line2d_15">
      <g>
       <use style="stroke:#000000;stroke-width:0.8;" x="47.72" xlink:href="#m40a3f9938e" y="14.76"/>
      </g>
     </g>
     <g id="text_16">
      <!-- 2.5 -->
      <g transform="translate(24.816875 18.559219)scale(0.1 -0.1)">
       <use xlink:href="#DejaVuSans-50"/>
       <use x="63.623047" xlink:href="#DejaVuSans-46"/>
       <use x="95.410156" xlink:href="#DejaVuSans-53"/>
      </g>
     </g>
    </g>
    <g id="text_17">
     <!-- Loss -->
     <g transform="translate(18.737188 170.167187)rotate(-90)scale(0.1 -0.1)">
      <defs>
       <path d="M 9.8125 72.90625 
L 19.671875 72.90625 
L 19.671875 8.296875 
L 55.171875 8.296875 
L 55.171875 0 
L 9.8125 0 
z
" id="DejaVuSans-76"/>
       <path d="M 30.609375 48.390625 
Q 23.390625 48.390625 19.1875 42.75 
Q 14.984375 37.109375 14.984375 27.296875 
Q 14.984375 17.484375 19.15625 11.84375 
Q 23.34375 6.203125 30.609375 6.203125 
Q 37.796875 6.203125 41.984375 11.859375 
Q 46.1875 17.53125 46.1875 27.296875 
Q 46.1875 37.015625 41.984375 42.703125 
Q 37.796875 48.390625 30.609375 48.390625 
z
M 30.609375 56 
Q 42.328125 56 49.015625 48.375 
Q 55.71875 40.765625 55.71875 27.296875 
Q 55.71875 13.875 49.015625 6.21875 
Q 42.328125 -1.421875 30.609375 -1.421875 
Q 18.84375 -1.421875 12.171875 6.21875 
Q 5.515625 13.875 5.515625 27.296875 
Q 5.515625 40.765625 12.171875 48.375 
Q 18.84375 56 30.609375 56 
z
" id="DejaVuSans-111"/>
       <path d="M 44.28125 53.078125 
L 44.28125 44.578125 
Q 40.484375 46.53125 36.375 47.5 
Q 32.28125 48.484375 27.875 48.484375 
Q 21.1875 48.484375 17.84375 46.4375 
Q 14.5 44.390625 14.5 40.28125 
Q 14.5 37.15625 16.890625 35.375 
Q 19.28125 33.59375 26.515625 31.984375 
L 29.59375 31.296875 
Q 39.15625 29.25 43.1875 25.515625 
Q 47.21875 21.78125 47.21875 15.09375 
Q 47.21875 7.46875 41.1875 3.015625 
Q 35.15625 -1.421875 24.609375 -1.421875 
Q 20.21875 -1.421875 15.453125 -0.5625 
Q 10.6875 0.296875 5.421875 2 
L 5.421875 11.28125 
Q 10.40625 8.6875 15.234375 7.390625 
Q 20.0625 6.109375 24.8125 6.109375 
Q 31.15625 6.109375 34.5625 8.28125 
Q 37.984375 10.453125 37.984375 14.40625 
Q 37.984375 18.0625 35.515625 20.015625 
Q 33.0625 21.96875 24.703125 23.78125 
L 21.578125 24.515625 
Q 13.234375 26.265625 9.515625 29.90625 
Q 5.8125 33.546875 5.8125 39.890625 
Q 5.8125 47.609375 11.28125 51.796875 
Q 16.75 56 26.8125 56 
Q 31.78125 56 36.171875 55.265625 
Q 40.578125 54.546875 44.28125 53.078125 
z
" id="DejaVuSans-115"/>
      </defs>
      <use xlink:href="#DejaVuSans-76"/>
      <use x="53.962891" xlink:href="#DejaVuSans-111"/>
      <use x="115.144531" xlink:href="#DejaVuSans-115"/>
      <use x="167.244141" xlink:href="#DejaVuSans-115"/>
     </g>
    </g>
   </g>
   <g id="line2d_16">
    <path clip-path="url(#p1d25508ae2)" d="M 66.115166 44.7313 
L 68.583645 63.32795 
L 71.050532 83.211019 
L 73.505888 89.191737 
L 75.951652 106.005456 
L 78.41201 131.666125 
L 80.869368 147.2837 
L 83.330543 156.469181 
L 85.798929 169.559056 
L 88.244804 159.2 
L 90.696289 192.037531 
L 93.142362 197.375041 
L 95.59226 210.668034 
L 98.051861 212.981331 
L 100.477011 220.124341 
L 102.94039 223.4758 
L 105.38336 240.881948 
L 107.832154 228.136247 
L 110.300176 239.262641 
L 112.749725 239.302136 
L 115.19234 231.363578 
L 117.641673 236.746225 
L 120.111293 249.181606 
L 122.552241 244.18827 
L 125.000937 254.592464 
L 129.898915 253.475311 
L 132.343344 253.559944 
L 134.791017 257.018605 
L 137.258015 262.034509 
L 139.709837 257.120164 
L 142.165974 257.492548 
L 144.603285 268.472245 
L 147.061344 261.820106 
L 149.518875 277.059655 
L 151.955682 268.376328 
L 154.393053 268.596373 
L 156.873079 262.418178 
L 159.308723 264.009275 
L 161.76465 268.263484 
L 164.210849 267.750045 
L 166.661738 269.606325 
L 169.102131 269.267794 
L 171.536845 269.346784 
L 174.007757 276.100483 
L 176.467299 266.993992 
L 178.920192 264.556567 
L 181.370772 276.309244 
L 183.837718 271.062009 
L 186.307978 273.868998 
L 188.747322 271.541595 
L 191.197509 275.581402 
L 193.641109 272.263795 
L 196.098902 279.83279 
L 198.553922 279.666345 
L 201.007275 281.051502 
L 203.45916 271.355403 
L 205.935175 282.038885 
L 208.368164 280.267238 
L 210.817429 274.588377 
L 213.263819 277.629516 
L 215.713357 274.842275 
L 218.160136 277.045549 
L 220.631054 274.771748 
L 223.071209 278.13167 
L 225.540474 285.79094 
L 227.991344 282.995236 
L 230.427673 282.462049 
L 232.883428 281.607258 
L 235.318892 275.685782 
L 237.776674 273.355559 
L 240.224508 280.55499 
L 242.684552 284.168811 
L 245.131108 275.200554 
L 247.581723 283.824637 
L 250.036009 281.926041 
L 252.49306 286.789607 
L 254.937283 287.156349 
L 257.376574 286.197177 
L 259.84219 287.23534 
L 262.290868 287.31292 
L 264.751173 293.792972 
L 267.188924 288.376472 
L 269.634205 284.895243 
L 272.080078 283.240671 
L 274.538452 290.317385 
L 277.001018 288.149374 
L 279.48437 290.038096 
L 281.939218 289.816641 
L 284.401645 283.542528 
L 286.83575 294.247874 
L 289.300441 288.518937 
L 291.77399 294.427718 
L 294.226692 291.318873 
L 296.691398 291.166534 
L 299.142456 294.817029 
L 301.598336 292.103137 
L 304.06114 291.819617 
L 306.51434 291.246935 
L 308.979128 293.516505 
L 311.43903 298.749987 
L 313.898655 295.858013 
L 316.335117 296.936376 
L 321.242168 295.601999 
L 323.705851 297.81162 
L 326.166256 297.512584 
L 328.609254 298.84132 
L 331.066004 299.829408 
L 333.519398 300.419369 
L 336.003593 297.261507 
L 338.449333 299.292342 
L 340.895551 301.707727 
L 343.341801 301.171367 
L 345.79833 300.355718 
L 348.225225 300.85558 
L 350.686748 302.047669 
L 353.13703 301.017793 
L 355.600206 302.079494 
L 358.051953 302.033387 
L 360.498391 302.433718 
L 362.958768 302.282437 
L 365.410264 303.065555 
L 367.886711 303.008295 
L 370.347591 303.214566 
L 377.68196 303.399568 
L 380.134959 303.405155 
L 382.603258 303.222192 
L 385.036343 303.439757 
L 387.491299 303.298075 
L 392.385307 303.496411 
L 394.834674 303.469412 
L 397.309675 303.235239 
L 399.756313 303.498565 
L 412.049914 303.405794 
L 421.885713 303.534606 
L 424.347935 303.436727 
L 426.807572 303.515707 
L 431.714545 303.471737 
L 431.714545 303.471737 
" style="fill:none;stroke:#1f77b4;stroke-linecap:square;stroke-width:1.5;"/>
   </g>
   <g id="line2d_17">
    <path clip-path="url(#p1d25508ae2)" d="M 66.005455 49.470737 
L 68.323881 91.516319 
L 70.64756 110.564344 
L 72.957248 109.639025 
L 77.610567 149.337456 
L 79.957929 163.35265 
L 82.276069 168.272638 
L 84.581672 174.208219 
L 86.889418 161.975956 
L 89.214901 186.10195 
L 91.507177 195.603394 
L 93.878404 204.687316 
L 96.220454 200.850628 
L 98.539756 213.703531 
L 100.868855 214.775547 
L 103.187003 224.649375 
L 105.514314 214.324172 
L 107.815733 229.625784 
L 110.133244 224.638091 
L 112.435218 220.462872 
L 114.747218 228.474778 
L 117.057587 228.384503 
L 119.408789 230.754222 
L 121.818548 233.383481 
L 124.135245 241.733919 
L 126.431606 237.998791 
L 128.764518 242.377128 
L 131.075639 245.237717 
L 135.749578 246.620053 
L 138.059995 242.738228 
L 140.36957 250.011008 
L 142.704557 248.594819 
L 145.025939 257.199155 
L 147.358306 257.577181 
L 149.725588 252.90545 
L 152.042603 245.971202 
L 154.364939 242.693091 
L 156.688269 246.377439 
L 159.013923 248.318352 
L 161.353103 247.607436 
L 163.657226 252.894166 
L 165.975979 255.258242 
L 168.288938 259.258553 
L 170.593653 252.109902 
L 175.235547 257.848006 
L 177.626723 257.413558 
L 179.94551 254.197511 
L 182.266811 258.8636 
L 184.591239 258.570206 
L 186.898247 256.764706 
L 189.203815 266.819084 
L 191.519527 266.599039 
L 193.865092 268.596373 
L 196.176699 258.361445 
L 200.833868 267.569495 
L 203.155707 260.748091 
L 205.505157 269.54144 
L 207.814397 256.364111 
L 210.129565 256.691358 
L 212.477665 265.081291 
L 214.810113 267.202753 
L 217.124781 275.75913 
L 219.466163 267.755687 
L 221.787848 267.293028 
L 224.120567 270.077448 
L 226.430345 259.743781 
L 228.771005 261.024558 
L 231.076625 269.228298 
L 233.408866 271.911159 
L 235.700271 262.29405 
L 238.021295 269.177519 
L 240.320258 270.198755 
L 242.622198 273.730764 
L 244.948066 273.936704 
L 247.252681 264.996658 
L 249.553384 271.183316 
L 251.867838 274.582734 
L 254.168713 279.0852 
L 256.493844 272.382281 
L 258.818721 277.516672 
L 261.162625 267.507431 
L 263.467184 278.642288 
L 265.782596 274.850738 
L 268.118583 275.302113 
L 270.438425 275.149774 
L 272.75094 265.639867 
L 275.059062 279.660703 
L 277.351207 277.237384 
L 279.691064 286.556867 
L 282.006117 280.656549 
L 284.329962 280.732719 
L 286.657445 273.95363 
L 289.004515 281.567762 
L 291.344329 282.112234 
L 293.647765 280.837099 
L 295.966254 287.429995 
L 298.287034 290.097339 
L 300.581174 284.81202 
L 302.908532 286.278989 
L 305.225092 284.749956 
L 307.538771 288.915301 
L 309.877565 289.946411 
L 312.214046 291.901429 
L 314.535355 287.281888 
L 316.873554 291.334389 
L 319.191679 294.606858 
L 321.51086 289.466825 
L 323.826736 294.85864 
L 326.133935 295.24372 
L 328.440226 290.173509 
L 330.738132 294.025712 
L 333.048026 295.390417 
L 335.362478 295.05118 
L 337.697032 295.227498 
L 339.99041 296.293167 
L 342.331478 295.685221 
L 344.689135 297.517521 
L 346.997548 295.70779 
L 349.340415 299.705279 
L 351.637167 298.979906 
L 353.951012 296.928618 
L 356.243556 300.446169 
L 358.559899 300.421485 
L 360.8961 302.362045 
L 363.219652 301.49879 
L 365.550835 302.864376 
L 367.865837 301.868618 
L 370.177365 301.591181 
L 372.567006 301.644429 
L 374.87423 302.262777 
L 377.186561 302.531575 
L 379.471149 301.307837 
L 381.797743 303.28441 
L 384.129253 302.436936 
L 386.44477 302.605981 
L 388.747714 301.39582 
L 391.099845 302.10171 
L 393.41932 303.089578 
L 395.705553 302.810907 
L 398.022119 303.229024 
L 400.406022 303.062778 
L 405.036216 302.935256 
L 407.351862 303.154507 
L 409.679784 302.981539 
L 412.013953 302.602543 
L 412.013953 302.602543 
" style="fill:none;stroke:#ff7f0e;stroke-linecap:square;stroke-width:1.5;"/>
   </g>
   <g id="line2d_18">
    <path clip-path="url(#p1d25508ae2)" d="M 66.012666 50.32835 
L 68.34351 91.85485 
L 70.687675 112.07645 
L 73.009296 111.1737 
L 75.329349 127.332925 
L 77.660068 150.669012 
L 79.992454 165.045306 
L 82.343236 169.897587 
L 84.673623 173.215194 
L 87.006493 165.835212 
L 89.36296 188.370109 
L 91.712034 190.920378 
L 94.107827 208.445012 
L 96.446802 197.578159 
L 98.765441 213.263441 
L 101.115993 216.219947 
L 103.452781 224.231853 
L 105.802486 215.847562 
L 108.123679 230.584956 
L 110.45841 225.089466 
L 112.775655 216.355359 
L 115.136205 227.414047 
L 117.483336 230.528534 
L 119.798002 231.262019 
L 122.165807 234.827881 
L 124.489801 243.409648 
L 126.799873 236.667234 
L 129.123175 240.707041 
L 131.453793 243.6974 
L 133.811645 249.085689 
L 136.169328 247.302758 
L 138.51693 244.301114 
L 140.834491 253.971823 
L 143.186341 248.154728 
L 145.502318 252.747469 
L 147.860496 258.609702 
L 150.235262 255.658837 
L 152.557457 243.736895 
L 154.885292 241.76213 
L 157.192484 248.611745 
L 159.512871 248.16037 
L 161.863826 249.091331 
L 164.210835 250.682428 
L 166.54898 252.668478 
L 168.908571 260.099239 
L 171.26105 253.345541 
L 173.582114 256.849339 
L 175.921751 258.073694 
L 178.316391 259.659148 
L 180.638499 253.063431 
L 183.005559 261.57185 
L 185.344279 257.543328 
L 187.650222 255.38237 
L 190.0174 263.670744 
L 192.364433 266.785231 
L 194.718984 268.184494 
L 197.058015 259.924331 
L 199.401886 268.178852 
L 201.724609 268.178852 
L 204.064792 258.846673 
L 206.489017 269.414491 
L 208.831621 259.642222 
L 211.160715 258.203464 
L 213.470044 262.519737 
L 215.814101 265.611656 
L 218.151664 276.086377 
L 220.471456 264.991016 
L 222.822001 270.125406 
L 225.147702 270.937881 
L 227.435363 261.588777 
L 229.779922 257.678741 
L 232.108422 266.463627 
L 234.48745 273.663058 
L 236.79678 263.885147 
L 239.136174 269.538619 
L 243.823432 276.410803 
L 246.200109 272.153773 
L 248.504093 264.816108 
L 250.8795 275.025646 
L 253.182502 273.454297 
L 255.505626 278.377105 
L 257.880105 269.961783 
L 260.2327 275.000256 
L 262.621775 271.045083 
L 264.972119 277.353048 
L 267.301798 276.870641 
L 269.653336 278.549192 
L 271.984261 273.036775 
L 274.319184 263.422487 
L 276.684603 283.127827 
L 279.035264 276.879105 
L 281.366618 284.081357 
L 283.692227 278.64793 
L 286.024297 280.436504 
L 288.376815 271.716503 
L 290.759032 280.729898 
L 293.114276 284.239338 
L 295.437621 280.679118 
L 297.766428 286.762807 
L 300.074662 289.307433 
L 302.421396 282.349205 
L 304.732303 286.967336 
L 307.086676 287.001189 
L 309.395908 289.142399 
L 311.7439 289.66148 
L 314.110987 292.361267 
L 316.431769 286.613289 
L 318.817089 291.957851 
L 321.140929 293.098983 
L 323.466787 290.534609 
L 325.786045 294.538446 
L 328.122498 295.576609 
L 330.439726 288.16489 
L 332.760706 292.922665 
L 335.112768 296.205007 
L 339.772111 295.884813 
L 342.12319 297.286897 
L 344.437581 295.777612 
L 346.829413 295.553335 
L 349.159249 296.680362 
L 351.494713 299.546593 
L 353.82474 300.400679 
L 356.138162 297.885321 
L 358.512528 300.827017 
L 360.845384 301.670877 
L 363.221056 302.401937 
L 365.576087 301.921249 
L 367.921124 302.366012 
L 370.222293 301.815193 
L 372.574984 301.380833 
L 374.928717 301.76556 
L 377.249314 302.537041 
L 379.593142 302.806808 
L 381.926406 301.941702 
L 384.264903 303.308389 
L 386.609814 302.616119 
L 388.974736 302.518351 
L 391.291935 301.648837 
L 393.619938 302.53034 
L 395.954978 303.096587 
L 398.26969 302.052429 
L 400.647624 303.12396 
L 403.02932 303.234291 
L 405.376005 303.083275 
L 410.037266 303.036639 
L 412.399038 302.87037 
L 414.739617 302.392107 
L 414.739617 302.392107 
" style="fill:none;stroke:#2ca02c;stroke-linecap:square;stroke-width:1.5;"/>
   </g>
   <g id="line2d_19">
    <path clip-path="url(#p1d25508ae2)" d="M 66.057127 39.6759 
L 68.372147 80.886437 
L 70.721369 105.712062 
L 73.039458 102.552437 
L 75.37296 116.025981 
L 77.685961 145.974712 
L 80.023773 159.2 
L 82.366546 158.65835 
L 84.721001 166.015762 
L 87.03713 153.264419 
L 89.379488 180.753156 
L 91.716999 183.664525 
L 94.108056 196.280456 
L 96.436102 190.220747 
L 98.785716 204.901719 
L 101.120086 211.830325 
L 103.447337 221.444613 
L 105.778586 208.918956 
L 108.112521 224.220569 
L 110.408768 224.931484 
L 112.760757 216.2538 
L 115.107235 221.839566 
L 117.42762 227.019094 
L 119.741336 225.010475 
L 122.111149 230.607525 
L 124.422798 240.103327 
L 126.745449 236.339987 
L 129.080563 235.617787 
L 131.418361 241.395387 
L 133.733017 243.82717 
L 136.078538 242.755155 
L 138.411107 241.903184 
L 140.759187 249.159037 
L 143.11884 246.913447 
L 145.451021 254.29907 
L 147.780336 254.022603 
L 150.160504 251.455408 
L 152.499032 244.724278 
L 154.83049 241.829836 
L 157.161889 247.195556 
L 159.517543 249.057478 
L 161.864532 247.43817 
L 164.208056 250.496236 
L 166.530861 256.053791 
L 168.850966 256.318973 
L 171.174797 250.812198 
L 173.486054 250.783987 
L 175.846313 254.417556 
L 178.212011 257.063742 
L 180.545906 251.449766 
L 182.85566 259.264195 
L 185.176714 256.082002 
L 187.516056 255.309022 
L 189.881799 262.88648 
L 192.211293 263.913358 
L 194.562563 267.197111 
L 196.899717 257.024247 
L 199.251788 269.837655 
L 201.601267 264.443723 
L 203.950504 256.324616 
L 206.314437 268.906694 
L 208.667224 254.925353 
L 211.011139 259.061077 
L 213.316027 261.317952 
L 215.650127 262.463316 
L 217.981618 277.197888 
L 220.286408 268.161925 
L 222.616778 265.848628 
L 224.943424 270.210039 
L 229.585531 256.505166 
L 231.928886 268.855914 
L 234.344937 271.468247 
L 236.682319 258.936948 
L 239.012528 270.537286 
L 241.365608 268.455319 
L 243.671008 271.084578 
L 246.001753 271.521848 
L 248.314949 265.527023 
L 250.669876 270.311598 
L 253.003068 271.722145 
L 255.320909 275.623718 
L 257.675379 270.277745 
L 260.0118 275.392388 
L 262.370091 265.769637 
L 264.715814 279.708662 
L 267.068157 275.307755 
L 269.407801 275.519338 
L 271.755647 273.485329 
L 274.096645 267.095552 
L 276.416638 281.119209 
L 278.754006 275.042573 
L 281.109461 285.672454 
L 283.444874 279.979487 
L 285.81098 279.824327 
L 288.131814 273.821039 
L 290.514431 279.237539 
L 292.831807 285.79235 
L 295.189137 280.935837 
L 297.537048 286.2804 
L 299.893761 287.240982 
L 302.210925 284.42412 
L 304.550925 285.947511 
L 306.89871 284.625828 
L 309.249135 287.703641 
L 311.566009 287.926508 
L 313.88384 289.148041 
L 316.225588 287.224055 
L 318.591745 290.757475 
L 320.941467 293.533432 
L 323.278921 288.239649 
L 325.611009 293.492526 
L 327.94252 293.241448 
L 330.274716 288.336977 
L 332.604906 292.103137 
L 334.935191 294.032765 
L 337.275326 293.046793 
L 339.627286 295.845318 
L 341.984392 295.190824 
L 344.31703 293.582801 
L 346.690707 296.148586 
L 349.047286 295.506081 
L 351.380084 298.978848 
L 353.71388 298.490799 
L 356.056404 297.579585 
L 358.405088 299.833463 
L 360.737489 301.408515 
L 365.41 301.487329 
L 367.773586 301.875582 
L 370.10531 302.020516 
L 372.440367 301.163432 
L 374.831095 300.872683 
L 377.148957 302.191016 
L 379.499701 302.441211 
L 381.854452 301.783191 
L 384.192495 302.87231 
L 386.521593 302.301215 
L 388.840649 302.616516 
L 391.190979 302.111761 
L 393.534492 302.342738 
L 398.205488 303.079881 
L 400.520066 303.121977 
L 402.911079 302.710626 
L 405.259569 302.975765 
L 407.590084 302.784063 
L 409.907172 303.003579 
L 412.240254 302.831668 
L 414.588325 302.092454 
L 414.588325 302.092454 
" style="fill:none;stroke:#d62728;stroke-linecap:square;stroke-width:1.5;"/>
   </g>
   <g id="line2d_20">
    <path clip-path="url(#p1d25508ae2)" d="M 66.029628 46.581937 
L 68.350343 86.032112 
L 70.654684 106.29885 
L 72.969389 101.672256 
L 77.630031 138.865556 
L 79.958651 154.302581 
L 82.292114 160.82495 
L 84.617808 168.092087 
L 86.964454 156.604594 
L 89.289567 182.603794 
L 91.593454 185.041219 
L 93.958404 195.434128 
L 96.314403 188.426531 
L 98.641484 200.500812 
L 100.976139 206.583091 
L 103.311505 218.363978 
L 105.629339 206.932906 
L 107.932712 224.175431 
L 110.28197 223.001856 
L 112.63287 213.218303 
L 114.986205 219.526269 
L 117.338606 222.877728 
L 119.650313 221.478466 
L 122.058081 229.828903 
L 124.363128 242.422266 
L 126.675616 231.374862 
L 128.970513 235.234119 
L 131.279024 243.911803 
L 133.619542 244.667856 
L 135.946199 240.300803 
L 138.290521 244.656572 
L 140.613308 249.441147 
L 142.96659 244.83148 
L 145.269828 254.874573 
L 147.577143 254.919711 
L 149.975851 251.201509 
L 152.294527 241.259975 
L 154.614422 240.278234 
L 156.952344 248.662525 
L 159.294198 245.057167 
L 161.590168 250.778345 
L 163.930006 246.394366 
L 166.262016 256.894477 
L 168.592404 256.533377 
L 170.955923 252.420222 
L 173.278666 250.264906 
L 175.61991 257.396631 
L 178.007605 255.184894 
L 180.342609 253.503522 
L 182.707851 256.533377 
L 185.035977 258.835389 
L 187.377869 255.156683 
L 189.732871 264.500145 
L 192.03908 265.662436 
L 194.336388 265.865555 
L 196.662516 254.829436 
L 199.01152 269.476555 
L 201.339279 267.704908 
L 203.652512 257.137091 
L 206.03406 269.798159 
L 208.367642 256.482597 
L 210.717615 258.615344 
L 213.03016 262.265839 
L 215.381834 264.646842 
L 217.718592 274.215992 
L 220.026394 265.431106 
L 222.354901 264.612989 
L 224.703717 271.976044 
L 227.017845 261.154328 
L 229.329441 257.317641 
L 231.684826 266.237939 
L 234.060181 270.322883 
L 236.388698 261.650841 
L 238.708047 268.528667 
L 241.045676 268.043439 
L 243.368082 272.588221 
L 245.697085 272.63618 
L 248.006936 265.961472 
L 250.34608 273.964915 
L 252.680756 273.175009 
L 255.019716 275.206196 
L 257.354225 274.709684 
L 259.683496 277.085045 
L 262.082548 268.630227 
L 264.371574 277.570273 
L 266.707187 276.808577 
L 269.016107 274.633514 
L 271.329097 277.527956 
L 273.648324 266.85858 
L 275.976741 281.206662 
L 278.28509 275.003077 
L 280.626473 284.91358 
L 282.968871 276.743692 
L 285.28973 276.190758 
L 287.627001 271.19178 
L 289.994797 279.00903 
L 292.332739 284.995391 
L 294.655039 282.289963 
L 296.98646 286.05048 
L 299.304895 289.012629 
L 301.657332 279.60146 
L 303.999174 286.331179 
L 306.325252 287.099927 
L 308.665255 288.592286 
L 311.01674 288.123984 
L 313.350065 290.599494 
L 315.679548 285.285964 
L 318.071863 288.456873 
L 320.383553 293.568695 
L 322.736483 289.562742 
L 325.057746 293.582801 
L 327.40684 294.203441 
L 329.745445 286.809355 
L 332.092826 292.438847 
L 334.41519 294.132914 
L 336.723346 294.202031 
L 339.064718 297.433594 
L 341.392823 296.094279 
L 343.696719 292.877527 
L 346.067331 298.161083 
L 348.379094 295.381248 
L 350.699528 299.791675 
L 353.041393 299.419644 
L 355.368404 297.064736 
L 357.66813 300.06109 
L 360.005493 302.266304 
L 362.344523 302.058336 
L 364.658102 301.708697 
L 366.98902 302.201242 
L 369.313926 302.076056 
L 371.628742 300.698657 
L 374.02318 301.147211 
L 376.364428 302.133889 
L 378.698985 302.242413 
L 381.057544 301.803292 
L 383.39456 303.124004 
L 385.761935 302.057543 
L 388.117754 302.930583 
L 390.449151 302.591347 
L 392.781089 302.385142 
L 397.456009 302.470436 
L 399.814323 303.319343 
L 402.173656 302.997628 
L 404.505814 303.038666 
L 406.848179 302.825674 
L 409.170294 303.369858 
L 411.48909 303.025927 
L 413.826178 302.036208 
L 413.826178 302.036208 
" style="fill:none;stroke:#9467bd;stroke-linecap:square;stroke-width:1.5;"/>
   </g>
   <g id="patch_3">
    <path d="M 47.72 303.64 
L 47.72 14.76 
" style="fill:none;stroke:#000000;stroke-linecap:square;stroke-linejoin:miter;stroke-width:0.8;"/>
   </g>
   <g id="patch_4">
    <path d="M 450 303.64 
L 450 14.76 
" style="fill:none;stroke:#000000;stroke-linecap:square;stroke-linejoin:miter;stroke-width:0.8;"/>
   </g>
   <g id="patch_5">
    <path d="M 47.72 303.64 
L 450 303.64 
" style="fill:none;stroke:#000000;stroke-linecap:square;stroke-linejoin:miter;stroke-width:0.8;"/>
   </g>
   <g id="patch_6">
    <path d="M 47.72 14.76 
L 450 14.76 
" style="fill:none;stroke:#000000;stroke-linecap:square;stroke-linejoin:miter;stroke-width:0.8;"/>
   </g>
   <g id="legend_1">
    <g id="patch_7">
     <path d="M 282.65625 96.150625 
L 443 96.150625 
Q 445 96.150625 445 94.150625 
L 445 21.76 
Q 445 19.76 443 19.76 
L 282.65625 19.76 
Q 280.65625 19.76 280.65625 21.76 
L 280.65625 94.150625 
Q 280.65625 96.150625 282.65625 96.150625 
z
" style="fill:#ffffff;opacity:0.8;stroke:#cccccc;stroke-linejoin:miter;"/>
    </g>
    <g id="line2d_21">
     <path d="M 284.65625 27.858437 
L 304.65625 27.858437 
" style="fill:none;stroke:#1f77b4;stroke-linecap:square;stroke-width:1.5;"/>
    </g>
    <g id="line2d_22"/>
    <g id="text_18">
     <!-- AllReduce SGD -->
     <g transform="translate(312.65625 31.358437)scale(0.1 -0.1)">
      <defs>
       <path d="M 34.1875 63.1875 
L 20.796875 26.90625 
L 47.609375 26.90625 
z
M 28.609375 72.90625 
L 39.796875 72.90625 
L 67.578125 0 
L 57.328125 0 
L 50.6875 18.703125 
L 17.828125 18.703125 
L 11.1875 0 
L 0.78125 0 
z
" id="DejaVuSans-65"/>
       <path d="M 9.421875 75.984375 
L 18.40625 75.984375 
L 18.40625 0 
L 9.421875 0 
z
" id="DejaVuSans-108"/>
       <path d="M 44.390625 34.1875 
Q 47.5625 33.109375 50.5625 29.59375 
Q 53.5625 26.078125 56.59375 19.921875 
L 66.609375 0 
L 56 0 
L 46.6875 18.703125 
Q 43.0625 26.03125 39.671875 28.421875 
Q 36.28125 30.8125 30.421875 30.8125 
L 19.671875 30.8125 
L 19.671875 0 
L 9.8125 0 
L 9.8125 72.90625 
L 32.078125 72.90625 
Q 44.578125 72.90625 50.734375 67.671875 
Q 56.890625 62.453125 56.890625 51.90625 
Q 56.890625 45.015625 53.6875 40.46875 
Q 50.484375 35.9375 44.390625 34.1875 
z
M 19.671875 64.796875 
L 19.671875 38.921875 
L 32.078125 38.921875 
Q 39.203125 38.921875 42.84375 42.21875 
Q 46.484375 45.515625 46.484375 51.90625 
Q 46.484375 58.296875 42.84375 61.546875 
Q 39.203125 64.796875 32.078125 64.796875 
z
" id="DejaVuSans-82"/>
       <path d="M 45.40625 46.390625 
L 45.40625 75.984375 
L 54.390625 75.984375 
L 54.390625 0 
L 45.40625 0 
L 45.40625 8.203125 
Q 42.578125 3.328125 38.25 0.953125 
Q 33.9375 -1.421875 27.875 -1.421875 
Q 17.96875 -1.421875 11.734375 6.484375 
Q 5.515625 14.40625 5.515625 27.296875 
Q 5.515625 40.1875 11.734375 48.09375 
Q 17.96875 56 27.875 56 
Q 33.9375 56 38.25 53.625 
Q 42.578125 51.265625 45.40625 46.390625 
z
M 14.796875 27.296875 
Q 14.796875 17.390625 18.875 11.75 
Q 22.953125 6.109375 30.078125 6.109375 
Q 37.203125 6.109375 41.296875 11.75 
Q 45.40625 17.390625 45.40625 27.296875 
Q 45.40625 37.203125 41.296875 42.84375 
Q 37.203125 48.484375 30.078125 48.484375 
Q 22.953125 48.484375 18.875 42.84375 
Q 14.796875 37.203125 14.796875 27.296875 
z
" id="DejaVuSans-100"/>
       <path d="M 8.5 21.578125 
L 8.5 54.6875 
L 17.484375 54.6875 
L 17.484375 21.921875 
Q 17.484375 14.15625 20.5 10.265625 
Q 23.53125 6.390625 29.59375 6.390625 
Q 36.859375 6.390625 41.078125 11.03125 
Q 45.3125 15.671875 45.3125 23.6875 
L 45.3125 54.6875 
L 54.296875 54.6875 
L 54.296875 0 
L 45.3125 0 
L 45.3125 8.40625 
Q 42.046875 3.421875 37.71875 1 
Q 33.40625 -1.421875 27.6875 -1.421875 
Q 18.265625 -1.421875 13.375 4.4375 
Q 8.5 10.296875 8.5 21.578125 
z
M 31.109375 56 
z
" id="DejaVuSans-117"/>
       <path d="M 48.78125 52.59375 
L 48.78125 44.1875 
Q 44.96875 46.296875 41.140625 47.34375 
Q 37.3125 48.390625 33.40625 48.390625 
Q 24.65625 48.390625 19.8125 42.84375 
Q 14.984375 37.3125 14.984375 27.296875 
Q 14.984375 17.28125 19.8125 11.734375 
Q 24.65625 6.203125 33.40625 6.203125 
Q 37.3125 6.203125 41.140625 7.25 
Q 44.96875 8.296875 48.78125 10.40625 
L 48.78125 2.09375 
Q 45.015625 0.34375 40.984375 -0.53125 
Q 36.96875 -1.421875 32.421875 -1.421875 
Q 20.0625 -1.421875 12.78125 6.34375 
Q 5.515625 14.109375 5.515625 27.296875 
Q 5.515625 40.671875 12.859375 48.328125 
Q 20.21875 56 33.015625 56 
Q 37.15625 56 41.109375 55.140625 
Q 45.0625 54.296875 48.78125 52.59375 
z
" id="DejaVuSans-99"/>
       <path id="DejaVuSans-32"/>
       <path d="M 53.515625 70.515625 
L 53.515625 60.890625 
Q 47.90625 63.578125 42.921875 64.890625 
Q 37.9375 66.21875 33.296875 66.21875 
Q 25.25 66.21875 20.875 63.09375 
Q 16.5 59.96875 16.5 54.203125 
Q 16.5 49.359375 19.40625 46.890625 
Q 22.3125 44.4375 30.421875 42.921875 
L 36.375 41.703125 
Q 47.40625 39.59375 52.65625 34.296875 
Q 57.90625 29 57.90625 20.125 
Q 57.90625 9.515625 50.796875 4.046875 
Q 43.703125 -1.421875 29.984375 -1.421875 
Q 24.8125 -1.421875 18.96875 -0.25 
Q 13.140625 0.921875 6.890625 3.21875 
L 6.890625 13.375 
Q 12.890625 10.015625 18.65625 8.296875 
Q 24.421875 6.59375 29.984375 6.59375 
Q 38.421875 6.59375 43.015625 9.90625 
Q 47.609375 13.234375 47.609375 19.390625 
Q 47.609375 24.75 44.3125 27.78125 
Q 41.015625 30.8125 33.5 32.328125 
L 27.484375 33.5 
Q 16.453125 35.6875 11.515625 40.375 
Q 6.59375 45.0625 6.59375 53.421875 
Q 6.59375 63.09375 13.40625 68.65625 
Q 20.21875 74.21875 32.171875 74.21875 
Q 37.3125 74.21875 42.625 73.28125 
Q 47.953125 72.359375 53.515625 70.515625 
z
" id="DejaVuSans-83"/>
       <path d="M 59.515625 10.40625 
L 59.515625 29.984375 
L 43.40625 29.984375 
L 43.40625 38.09375 
L 69.28125 38.09375 
L 69.28125 6.78125 
Q 63.578125 2.734375 56.6875 0.65625 
Q 49.8125 -1.421875 42 -1.421875 
Q 24.90625 -1.421875 15.25 8.5625 
Q 5.609375 18.5625 5.609375 36.375 
Q 5.609375 54.25 15.25 64.234375 
Q 24.90625 74.21875 42 74.21875 
Q 49.125 74.21875 55.546875 72.453125 
Q 61.96875 70.703125 67.390625 67.28125 
L 67.390625 56.78125 
Q 61.921875 61.421875 55.765625 63.765625 
Q 49.609375 66.109375 42.828125 66.109375 
Q 29.4375 66.109375 22.71875 58.640625 
Q 16.015625 51.171875 16.015625 36.375 
Q 16.015625 21.625 22.71875 14.15625 
Q 29.4375 6.6875 42.828125 6.6875 
Q 48.046875 6.6875 52.140625 7.59375 
Q 56.25 8.5 59.515625 10.40625 
z
" id="DejaVuSans-71"/>
       <path d="M 19.671875 64.796875 
L 19.671875 8.109375 
L 31.59375 8.109375 
Q 46.6875 8.109375 53.6875 14.9375 
Q 60.6875 21.78125 60.6875 36.53125 
Q 60.6875 51.171875 53.6875 57.984375 
Q 46.6875 64.796875 31.59375 64.796875 
z
M 9.8125 72.90625 
L 30.078125 72.90625 
Q 51.265625 72.90625 61.171875 64.09375 
Q 71.09375 55.28125 71.09375 36.53125 
Q 71.09375 17.671875 61.125 8.828125 
Q 51.171875 0 30.078125 0 
L 9.8125 0 
z
" id="DejaVuSans-68"/>
      </defs>
      <use xlink:href="#DejaVuSans-65"/>
      <use x="68.408203" xlink:href="#DejaVuSans-108"/>
      <use x="96.191406" xlink:href="#DejaVuSans-108"/>
      <use x="123.974609" xlink:href="#DejaVuSans-82"/>
      <use x="188.957031" xlink:href="#DejaVuSans-101"/>
      <use x="250.480469" xlink:href="#DejaVuSans-100"/>
      <use x="313.957031" xlink:href="#DejaVuSans-117"/>
      <use x="377.335938" xlink:href="#DejaVuSans-99"/>
      <use x="432.316406" xlink:href="#DejaVuSans-101"/>
      <use x="493.839844" xlink:href="#DejaVuSans-32"/>
      <use x="525.626953" xlink:href="#DejaVuSans-83"/>
      <use x="589.103516" xlink:href="#DejaVuSans-71"/>
      <use x="666.59375" xlink:href="#DejaVuSans-68"/>
     </g>
    </g>
    <g id="line2d_23">
     <path d="M 284.65625 42.536563 
L 304.65625 42.536563 
" style="fill:none;stroke:#ff7f0e;stroke-linecap:square;stroke-width:1.5;"/>
    </g>
    <g id="line2d_24"/>
    <g id="text_19">
     <!-- GRandK-MN-TS (8,12) bits -->
     <g transform="translate(312.65625 46.036563)scale(0.1 -0.1)">
      <defs>
       <path d="M 34.28125 27.484375 
Q 23.390625 27.484375 19.1875 25 
Q 14.984375 22.515625 14.984375 16.5 
Q 14.984375 11.71875 18.140625 8.90625 
Q 21.296875 6.109375 26.703125 6.109375 
Q 34.1875 6.109375 38.703125 11.40625 
Q 43.21875 16.703125 43.21875 25.484375 
L 43.21875 27.484375 
z
M 52.203125 31.203125 
L 52.203125 0 
L 43.21875 0 
L 43.21875 8.296875 
Q 40.140625 3.328125 35.546875 0.953125 
Q 30.953125 -1.421875 24.3125 -1.421875 
Q 15.921875 -1.421875 10.953125 3.296875 
Q 6 8.015625 6 15.921875 
Q 6 25.140625 12.171875 29.828125 
Q 18.359375 34.515625 30.609375 34.515625 
L 43.21875 34.515625 
L 43.21875 35.40625 
Q 43.21875 41.609375 39.140625 45 
Q 35.0625 48.390625 27.6875 48.390625 
Q 23 48.390625 18.546875 47.265625 
Q 14.109375 46.140625 10.015625 43.890625 
L 10.015625 52.203125 
Q 14.9375 54.109375 19.578125 55.046875 
Q 24.21875 56 28.609375 56 
Q 40.484375 56 46.34375 49.84375 
Q 52.203125 43.703125 52.203125 31.203125 
z
" id="DejaVuSans-97"/>
       <path d="M 54.890625 33.015625 
L 54.890625 0 
L 45.90625 0 
L 45.90625 32.71875 
Q 45.90625 40.484375 42.875 44.328125 
Q 39.84375 48.1875 33.796875 48.1875 
Q 26.515625 48.1875 22.3125 43.546875 
Q 18.109375 38.921875 18.109375 30.90625 
L 18.109375 0 
L 9.078125 0 
L 9.078125 54.6875 
L 18.109375 54.6875 
L 18.109375 46.1875 
Q 21.34375 51.125 25.703125 53.5625 
Q 30.078125 56 35.796875 56 
Q 45.21875 56 50.046875 50.171875 
Q 54.890625 44.34375 54.890625 33.015625 
z
" id="DejaVuSans-110"/>
       <path d="M 9.8125 72.90625 
L 19.671875 72.90625 
L 19.671875 42.09375 
L 52.390625 72.90625 
L 65.09375 72.90625 
L 28.90625 38.921875 
L 67.671875 0 
L 54.6875 0 
L 19.671875 35.109375 
L 19.671875 0 
L 9.8125 0 
z
" id="DejaVuSans-75"/>
       <path d="M 4.890625 31.390625 
L 31.203125 31.390625 
L 31.203125 23.390625 
L 4.890625 23.390625 
z
" id="DejaVuSans-45"/>
       <path d="M 9.8125 72.90625 
L 24.515625 72.90625 
L 43.109375 23.296875 
L 61.8125 72.90625 
L 76.515625 72.90625 
L 76.515625 0 
L 66.890625 0 
L 66.890625 64.015625 
L 48.09375 14.015625 
L 38.1875 14.015625 
L 19.390625 64.015625 
L 19.390625 0 
L 9.8125 0 
z
" id="DejaVuSans-77"/>
       <path d="M 9.8125 72.90625 
L 23.09375 72.90625 
L 55.421875 11.921875 
L 55.421875 72.90625 
L 64.984375 72.90625 
L 64.984375 0 
L 51.703125 0 
L 19.390625 60.984375 
L 19.390625 0 
L 9.8125 0 
z
" id="DejaVuSans-78"/>
       <path d="M 31 75.875 
Q 24.46875 64.65625 21.28125 53.65625 
Q 18.109375 42.671875 18.109375 31.390625 
Q 18.109375 20.125 21.3125 9.0625 
Q 24.515625 -2 31 -13.1875 
L 23.1875 -13.1875 
Q 15.875 -1.703125 12.234375 9.375 
Q 8.59375 20.453125 8.59375 31.390625 
Q 8.59375 42.28125 12.203125 53.3125 
Q 15.828125 64.359375 23.1875 75.875 
z
" id="DejaVuSans-40"/>
       <path d="M 11.71875 12.40625 
L 22.015625 12.40625 
L 22.015625 4 
L 14.015625 -11.625 
L 7.71875 -11.625 
L 11.71875 4 
z
" id="DejaVuSans-44"/>
       <path d="M 8.015625 75.875 
L 15.828125 75.875 
Q 23.140625 64.359375 26.78125 53.3125 
Q 30.421875 42.28125 30.421875 31.390625 
Q 30.421875 20.453125 26.78125 9.375 
Q 23.140625 -1.703125 15.828125 -13.1875 
L 8.015625 -13.1875 
Q 14.5 -2 17.703125 9.0625 
Q 20.90625 20.125 20.90625 31.390625 
Q 20.90625 42.671875 17.703125 53.65625 
Q 14.5 64.65625 8.015625 75.875 
z
" id="DejaVuSans-41"/>
       <path d="M 48.6875 27.296875 
Q 48.6875 37.203125 44.609375 42.84375 
Q 40.53125 48.484375 33.40625 48.484375 
Q 26.265625 48.484375 22.1875 42.84375 
Q 18.109375 37.203125 18.109375 27.296875 
Q 18.109375 17.390625 22.1875 11.75 
Q 26.265625 6.109375 33.40625 6.109375 
Q 40.53125 6.109375 44.609375 11.75 
Q 48.6875 17.390625 48.6875 27.296875 
z
M 18.109375 46.390625 
Q 20.953125 51.265625 25.265625 53.625 
Q 29.59375 56 35.59375 56 
Q 45.5625 56 51.78125 48.09375 
Q 58.015625 40.1875 58.015625 27.296875 
Q 58.015625 14.40625 51.78125 6.484375 
Q 45.5625 -1.421875 35.59375 -1.421875 
Q 29.59375 -1.421875 25.265625 0.953125 
Q 20.953125 3.328125 18.109375 8.203125 
L 18.109375 0 
L 9.078125 0 
L 9.078125 75.984375 
L 18.109375 75.984375 
z
" id="DejaVuSans-98"/>
       <path d="M 18.3125 70.21875 
L 18.3125 54.6875 
L 36.8125 54.6875 
L 36.8125 47.703125 
L 18.3125 47.703125 
L 18.3125 18.015625 
Q 18.3125 11.328125 20.140625 9.421875 
Q 21.96875 7.515625 27.59375 7.515625 
L 36.8125 7.515625 
L 36.8125 0 
L 27.59375 0 
Q 17.1875 0 13.234375 3.875 
Q 9.28125 7.765625 9.28125 18.015625 
L 9.28125 47.703125 
L 2.6875 47.703125 
L 2.6875 54.6875 
L 9.28125 54.6875 
L 9.28125 70.21875 
z
" id="DejaVuSans-116"/>
      </defs>
      <use xlink:href="#DejaVuSans-71"/>
      <use x="77.490234" xlink:href="#DejaVuSans-82"/>
      <use x="144.722656" xlink:href="#DejaVuSans-97"/>
      <use x="206.001953" xlink:href="#DejaVuSans-110"/>
      <use x="269.380859" xlink:href="#DejaVuSans-100"/>
      <use x="332.857422" xlink:href="#DejaVuSans-75"/>
      <use x="387.933594" xlink:href="#DejaVuSans-45"/>
      <use x="424.017578" xlink:href="#DejaVuSans-77"/>
      <use x="510.296875" xlink:href="#DejaVuSans-78"/>
      <use x="585.101562" xlink:href="#DejaVuSans-45"/>
      <use x="612.060547" xlink:href="#DejaVuSans-84"/>
      <use x="673.144531" xlink:href="#DejaVuSans-83"/>
      <use x="736.621094" xlink:href="#DejaVuSans-32"/>
      <use x="768.408203" xlink:href="#DejaVuSans-40"/>
      <use x="807.421875" xlink:href="#DejaVuSans-56"/>
      <use x="871.044922" xlink:href="#DejaVuSans-44"/>
      <use x="902.832031" xlink:href="#DejaVuSans-49"/>
      <use x="966.455078" xlink:href="#DejaVuSans-50"/>
      <use x="1030.078125" xlink:href="#DejaVuSans-41"/>
      <use x="1069.091797" xlink:href="#DejaVuSans-32"/>
      <use x="1100.878906" xlink:href="#DejaVuSans-98"/>
      <use x="1164.355469" xlink:href="#DejaVuSans-105"/>
      <use x="1192.138672" xlink:href="#DejaVuSans-116"/>
      <use x="1231.347656" xlink:href="#DejaVuSans-115"/>
     </g>
    </g>
    <g id="line2d_25">
     <path d="M 284.65625 57.214687 
L 304.65625 57.214687 
" style="fill:none;stroke:#2ca02c;stroke-linecap:square;stroke-width:1.5;"/>
    </g>
    <g id="line2d_26"/>
    <g id="text_20">
     <!-- GRandK-MN-TS (6,10) bits -->
     <g transform="translate(312.65625 60.714687)scale(0.1 -0.1)">
      <use xlink:href="#DejaVuSans-71"/>
      <use x="77.490234" xlink:href="#DejaVuSans-82"/>
      <use x="144.722656" xlink:href="#DejaVuSans-97"/>
      <use x="206.001953" xlink:href="#DejaVuSans-110"/>
      <use x="269.380859" xlink:href="#DejaVuSans-100"/>
      <use x="332.857422" xlink:href="#DejaVuSans-75"/>
      <use x="387.933594" xlink:href="#DejaVuSans-45"/>
      <use x="424.017578" xlink:href="#DejaVuSans-77"/>
      <use x="510.296875" xlink:href="#DejaVuSans-78"/>
      <use x="585.101562" xlink:href="#DejaVuSans-45"/>
      <use x="612.060547" xlink:href="#DejaVuSans-84"/>
      <use x="673.144531" xlink:href="#DejaVuSans-83"/>
      <use x="736.621094" xlink:href="#DejaVuSans-32"/>
      <use x="768.408203" xlink:href="#DejaVuSans-40"/>
      <use x="807.421875" xlink:href="#DejaVuSans-54"/>
      <use x="871.044922" xlink:href="#DejaVuSans-44"/>
      <use x="902.832031" xlink:href="#DejaVuSans-49"/>
      <use x="966.455078" xlink:href="#DejaVuSans-48"/>
      <use x="1030.078125" xlink:href="#DejaVuSans-41"/>
      <use x="1069.091797" xlink:href="#DejaVuSans-32"/>
      <use x="1100.878906" xlink:href="#DejaVuSans-98"/>
      <use x="1164.355469" xlink:href="#DejaVuSans-105"/>
      <use x="1192.138672" xlink:href="#DejaVuSans-116"/>
      <use x="1231.347656" xlink:href="#DejaVuSans-115"/>
     </g>
    </g>
    <g id="line2d_27">
     <path d="M 284.65625 71.892812 
L 304.65625 71.892812 
" style="fill:none;stroke:#d62728;stroke-linecap:square;stroke-width:1.5;"/>
    </g>
    <g id="line2d_28"/>
    <g id="text_21">
     <!-- GRandK-MN-TS (4,8) bits -->
     <g transform="translate(312.65625 75.392812)scale(0.1 -0.1)">
      <use xlink:href="#DejaVuSans-71"/>
      <use x="77.490234" xlink:href="#DejaVuSans-82"/>
      <use x="144.722656" xlink:href="#DejaVuSans-97"/>
      <use x="206.001953" xlink:href="#DejaVuSans-110"/>
      <use x="269.380859" xlink:href="#DejaVuSans-100"/>
      <use x="332.857422" xlink:href="#DejaVuSans-75"/>
      <use x="387.933594" xlink:href="#DejaVuSans-45"/>
      <use x="424.017578" xlink:href="#DejaVuSans-77"/>
      <use x="510.296875" xlink:href="#DejaVuSans-78"/>
      <use x="585.101562" xlink:href="#DejaVuSans-45"/>
      <use x="612.060547" xlink:href="#DejaVuSans-84"/>
      <use x="673.144531" xlink:href="#DejaVuSans-83"/>
      <use x="736.621094" xlink:href="#DejaVuSans-32"/>
      <use x="768.408203" xlink:href="#DejaVuSans-40"/>
      <use x="807.421875" xlink:href="#DejaVuSans-52"/>
      <use x="871.044922" xlink:href="#DejaVuSans-44"/>
      <use x="902.832031" xlink:href="#DejaVuSans-56"/>
      <use x="966.455078" xlink:href="#DejaVuSans-41"/>
      <use x="1005.46875" xlink:href="#DejaVuSans-32"/>
      <use x="1037.255859" xlink:href="#DejaVuSans-98"/>
      <use x="1100.732422" xlink:href="#DejaVuSans-105"/>
      <use x="1128.515625" xlink:href="#DejaVuSans-116"/>
      <use x="1167.724609" xlink:href="#DejaVuSans-115"/>
     </g>
    </g>
    <g id="line2d_29">
     <path d="M 284.65625 86.570937 
L 304.65625 86.570937 
" style="fill:none;stroke:#9467bd;stroke-linecap:square;stroke-width:1.5;"/>
    </g>
    <g id="line2d_30"/>
    <g id="text_22">
     <!-- GRandK-MN-TS (2,6) bits -->
     <g transform="translate(312.65625 90.070937)scale(0.1 -0.1)">
      <use xlink:href="#DejaVuSans-71"/>
      <use x="77.490234" xlink:href="#DejaVuSans-82"/>
      <use x="144.722656" xlink:href="#DejaVuSans-97"/>
      <use x="206.001953" xlink:href="#DejaVuSans-110"/>
      <use x="269.380859" xlink:href="#DejaVuSans-100"/>
      <use x="332.857422" xlink:href="#DejaVuSans-75"/>
      <use x="387.933594" xlink:href="#DejaVuSans-45"/>
      <use x="424.017578" xlink:href="#DejaVuSans-77"/>
      <use x="510.296875" xlink:href="#DejaVuSans-78"/>
      <use x="585.101562" xlink:href="#DejaVuSans-45"/>
      <use x="612.060547" xlink:href="#DejaVuSans-84"/>
      <use x="673.144531" xlink:href="#DejaVuSans-83"/>
      <use x="736.621094" xlink:href="#DejaVuSans-32"/>
      <use x="768.408203" xlink:href="#DejaVuSans-40"/>
      <use x="807.421875" xlink:href="#DejaVuSans-50"/>
      <use x="871.044922" xlink:href="#DejaVuSans-44"/>
      <use x="902.832031" xlink:href="#DejaVuSans-54"/>
      <use x="966.455078" xlink:href="#DejaVuSans-41"/>
      <use x="1005.46875" xlink:href="#DejaVuSans-32"/>
      <use x="1037.255859" xlink:href="#DejaVuSans-98"/>
      <use x="1100.732422" xlink:href="#DejaVuSans-105"/>
      <use x="1128.515625" xlink:href="#DejaVuSans-116"/>
      <use x="1167.724609" xlink:href="#DejaVuSans-115"/>
     </g>
    </g>
   </g>
  </g>
 </g>
 <defs>
  <clipPath id="p1d25508ae2">
   <rect height="288.88" width="402.28" x="47.72" y="14.76"/>
  </clipPath>
 </defs>
</svg>
