<?xml version="1.0" encoding="utf-8" standalone="no"?>
<!DOCTYPE svg PUBLIC "-//W3C//DTD SVG 1.1//EN"
  "http://www.w3.org/Graphics/SVG/1.1/DTD/svg11.dtd">
<!-- Created with matplotlib (https://matplotlib.org/) -->
<svg height="345.6pt" version="1.1" viewBox="0 0 460.8 345.6" width="460.8pt" xmlns="http://www.w3.org/2000/svg" xmlns:xlink="http://www.w3.org/1999/xlink">
 <metadata>
  <rdf:RDF xmlns:cc="http://creativecommons.org/ns#" xmlns:dc="http://purl.org/dc/elements/1.1/" xmlns:rdf="http://www.w3.org/1999/02/22-rdf-syntax-ns#">
   <cc:Work>
    <dc:type rdf:resource="http://purl.org/dc/dcmitype/StillImage"/>
    <dc:date>2021-06-10T08:56:47.571102</dc:date>
    <dc:format>image/svg+xml</dc:format>
    <dc:creator>
     <cc:Agent>
      <dc:title>Matplotlib v3.3.1, https://matplotlib.org/</dc:title>
     </cc:Agent>
    </dc:creator>
   </cc:Work>
  </rdf:RDF>
 </metadata>
 <defs>
  <style type="text/css">*{stroke-linecap:butt;stroke-linejoin:round;}</style>
 </defs>
 <g id="figure_1">
  <g id="patch_1">
   <path d="M 0 345.6 
L 460.8 345.6 
L 460.8 0 
L 0 0 
z
" style="fill:#ffffff;"/>
  </g>
  <g id="axes_1">
   <g id="patch_2">
    <path d="M 47.72 303.64 
L 450 303.64 
L 450 14.76 
L 47.72 14.76 
z
" style="fill:#ffffff;"/>
   </g>
   <g id="PolyCollection_1">
    <path clip-path="url(#p52922c31c3)" d="M 66.005455 36.705705 
L 66.005455 52.756895 
L 68.459878 76.283789 
L 70.914301 90.849332 
L 73.368725 99.001384 
L 75.823148 117.993606 
L 78.277572 148.26022 
L 80.731995 162.338697 
L 83.186419 172.467608 
L 85.640842 184.658613 
L 88.095265 170.8425 
L 90.549689 200.999982 
L 93.004112 202.858666 
L 95.458536 220.928591 
L 97.912959 221.339344 
L 100.367383 230.577193 
L 102.821806 231.147217 
L 105.276229 245.418758 
L 107.730653 231.678067 
L 110.185076 243.289598 
L 112.6395 243.592336 
L 115.093923 236.957601 
L 117.548347 241.358429 
L 120.00277 254.780084 
L 122.457193 248.134076 
L 124.911617 258.897849 
L 127.36604 256.025969 
L 129.820464 259.807077 
L 132.274887 259.305021 
L 134.729311 263.207871 
L 137.183734 263.50163 
L 139.638157 258.679798 
L 142.092581 263.775357 
L 144.547004 272.363457 
L 147.001428 265.177781 
L 149.455851 281.592939 
L 151.910275 271.593068 
L 154.364698 271.587978 
L 156.819121 265.659388 
L 159.273545 265.452992 
L 161.727968 272.205149 
L 164.182392 270.638349 
L 166.636815 271.025714 
L 169.091239 271.140167 
L 171.545662 271.583867 
L 174.000085 277.745464 
L 176.454509 269.124544 
L 178.908932 267.908454 
L 181.363356 279.132672 
L 183.817779 273.333675 
L 186.272203 275.891027 
L 188.726626 274.514894 
L 191.181049 279.095973 
L 193.635473 274.650874 
L 196.089896 281.540878 
L 198.54432 282.243853 
L 200.998743 282.664729 
L 203.453167 275.066041 
L 205.90759 285.556254 
L 208.362013 284.387465 
L 210.816437 278.18504 
L 213.27086 281.411013 
L 215.725284 277.190988 
L 218.179707 279.965614 
L 220.634131 280.05521 
L 223.088554 280.085236 
L 225.542977 287.704561 
L 227.997401 285.91601 
L 230.451824 285.551135 
L 232.906248 282.550617 
L 235.360671 278.432467 
L 237.815095 276.022231 
L 240.269518 283.48046 
L 242.723941 287.658729 
L 245.178365 280.738932 
L 247.632788 285.628669 
L 250.087212 284.425706 
L 252.541635 287.984519 
L 254.996059 288.821359 
L 257.450482 287.306359 
L 259.904905 289.651866 
L 262.359329 290.041378 
L 264.813752 294.595242 
L 267.268176 290.568084 
L 269.722599 289.770772 
L 272.177023 284.134268 
L 274.631446 292.474904 
L 277.085869 290.828825 
L 279.540293 292.027236 
L 281.994716 291.910754 
L 284.44914 287.12802 
L 286.903563 297.155058 
L 289.357987 291.08559 
L 291.81241 297.171884 
L 294.266833 292.860705 
L 296.721257 293.573299 
L 299.17568 296.578327 
L 301.630104 295.532302 
L 304.084527 295.547367 
L 306.538951 292.226036 
L 308.993374 296.219477 
L 311.447797 300.365351 
L 313.902221 297.329727 
L 316.356644 298.5765 
L 318.811068 298.329908 
L 321.265491 297.779101 
L 323.719915 299.484721 
L 326.174338 298.570961 
L 328.628761 299.875423 
L 331.083185 300.576075 
L 333.537608 301.134841 
L 335.992032 298.359225 
L 338.446455 300.016902 
L 340.900879 302.261894 
L 343.355302 302.039859 
L 345.809725 301.852002 
L 348.264149 302.291347 
L 350.718572 302.670829 
L 353.172996 302.802904 
L 355.627419 302.619212 
L 358.081843 302.916903 
L 360.536266 302.844699 
L 362.990689 302.683768 
L 365.445113 303.472301 
L 367.899536 303.832087 
L 370.35396 303.492126 
L 372.808383 303.427211 
L 375.262807 303.584801 
L 377.71723 303.451279 
L 380.171653 303.549949 
L 382.626077 303.523129 
L 385.0805 303.556815 
L 387.534924 303.457428 
L 389.989347 303.527084 
L 392.443771 303.529021 
L 394.898194 303.512329 
L 397.352617 303.598676 
L 399.807041 303.589367 
L 402.261464 303.59475 
L 404.715888 303.569425 
L 407.170311 303.472827 
L 409.624735 303.514348 
L 412.079158 303.647131 
L 414.533581 303.53199 
L 416.988005 303.576429 
L 419.442428 303.574956 
L 421.896852 303.558061 
L 424.351275 303.489432 
L 426.805699 303.547601 
L 429.260122 303.569633 
L 431.714545 303.555699 
L 431.714545 303.387776 
L 431.714545 303.387776 
L 429.260122 303.31235 
L 426.805699 303.483812 
L 424.351275 303.384022 
L 421.896852 303.51115 
L 419.442428 303.527932 
L 416.988005 303.515483 
L 414.533581 303.337387 
L 412.079158 303.164457 
L 409.624735 303.303544 
L 407.170311 303.124028 
L 404.715888 303.424895 
L 402.261464 303.330872 
L 399.807041 303.407763 
L 397.352617 302.871802 
L 394.898194 303.426495 
L 392.443771 303.463801 
L 389.989347 303.343901 
L 387.534924 303.138721 
L 385.0805 303.3227 
L 382.626077 302.921255 
L 380.171653 303.260361 
L 377.71723 303.347857 
L 375.262807 303.064993 
L 372.808383 303.182074 
L 370.35396 302.937006 
L 367.899536 302.184504 
L 365.445113 302.658809 
L 362.990689 301.881105 
L 360.536266 302.022737 
L 358.081843 301.149871 
L 355.627419 301.539776 
L 353.172996 299.232683 
L 350.718572 301.424509 
L 348.264149 299.419813 
L 345.809725 298.859434 
L 343.355302 300.302874 
L 340.900879 301.15356 
L 338.446455 298.567782 
L 335.992032 296.163789 
L 333.537608 299.703896 
L 331.083185 299.08274 
L 328.628761 297.807216 
L 326.174338 296.454207 
L 323.719915 296.13852 
L 321.265491 293.424896 
L 318.811068 294.302973 
L 316.356644 295.296252 
L 313.902221 294.386299 
L 311.447797 297.134623 
L 308.993374 290.813533 
L 306.538951 290.267835 
L 304.084527 288.091867 
L 301.630104 288.673972 
L 299.17568 293.055731 
L 296.721257 288.759769 
L 294.266833 289.777041 
L 291.81241 291.683552 
L 289.357987 285.952285 
L 286.903563 291.340689 
L 284.44914 279.957037 
L 281.994716 287.722527 
L 279.540293 288.048957 
L 277.085869 285.469923 
L 274.631446 288.159866 
L 272.177023 282.347074 
L 269.722599 280.019713 
L 267.268176 286.18486 
L 264.813752 292.990702 
L 262.359329 284.584461 
L 259.904905 284.818813 
L 257.450482 285.087996 
L 254.996059 285.49134 
L 252.541635 285.594695 
L 250.087212 279.426377 
L 247.632788 282.020606 
L 245.178365 269.662176 
L 242.723941 280.678893 
L 240.269518 277.62952 
L 237.815095 270.688886 
L 235.360671 272.939097 
L 232.906248 280.663898 
L 230.451824 279.372963 
L 227.997401 280.074462 
L 225.542977 283.877319 
L 223.088554 276.178104 
L 220.634131 269.488286 
L 218.179707 274.125484 
L 215.725284 272.493562 
L 213.27086 273.848019 
L 210.816437 270.991713 
L 208.362013 276.147012 
L 205.90759 278.521516 
L 203.453167 267.644765 
L 200.998743 279.438276 
L 198.54432 277.088838 
L 196.089896 278.124702 
L 193.635473 269.876717 
L 191.181049 272.06683 
L 188.726626 268.568296 
L 186.272203 271.846968 
L 183.817779 268.790344 
L 181.363356 273.485815 
L 178.908932 261.20468 
L 176.454509 264.863441 
L 174.000085 274.455502 
L 171.545662 267.109702 
L 169.091239 267.39542 
L 166.636815 268.186936 
L 164.182392 264.861741 
L 161.727968 264.32182 
L 159.273545 262.565558 
L 156.819121 259.176969 
L 154.364698 265.604769 
L 151.910275 265.159588 
L 149.455851 272.52637 
L 147.001428 258.462431 
L 144.547004 264.581033 
L 142.092581 251.20974 
L 139.638157 255.56053 
L 137.183734 260.567389 
L 134.729311 250.829338 
L 132.274887 247.814867 
L 129.820464 247.143545 
L 127.36604 251.940246 
L 124.911617 250.287079 
L 122.457193 240.242465 
L 120.00277 243.583129 
L 117.548347 232.134021 
L 115.093923 225.769555 
L 112.6395 235.011936 
L 110.185076 235.235684 
L 107.730653 224.594427 
L 105.276229 236.345138 
L 102.821806 215.804383 
L 100.367383 209.671488 
L 97.912959 204.623318 
L 95.458536 200.407478 
L 93.004112 191.891415 
L 90.549689 183.07508 
L 88.095265 147.5575 
L 85.640842 154.4595 
L 83.186419 140.470755 
L 80.731995 132.228703 
L 78.277572 115.07203 
L 75.823148 94.017307 
L 73.368725 79.382091 
L 70.914301 75.572705 
L 68.459878 50.372111 
L 66.005455 36.705705 
z
" style="fill:#1f77b4;fill-opacity:0.25;"/>
   </g>
   <g id="PolyCollection_2">
    <path clip-path="url(#p52922c31c3)" d="M 66.005455 40.667883 
L 66.005455 58.273592 
L 68.459878 96.714191 
L 70.914301 116.039301 
L 73.368725 114.498596 
L 75.823148 132.825058 
L 78.277572 152.081764 
L 80.731995 168.201203 
L 83.186419 173.194281 
L 85.640842 178.750653 
L 88.095265 165.417672 
L 90.549689 190.562691 
L 93.004112 200.550714 
L 95.458536 210.677331 
L 97.912959 204.872586 
L 100.367383 218.602432 
L 102.821806 217.186023 
L 105.276229 227.427945 
L 107.730653 214.92235 
L 110.185076 234.075807 
L 112.6395 228.276387 
L 115.093923 222.948356 
L 117.548347 229.917414 
L 120.00277 229.691933 
L 122.457193 235.20925 
L 124.911617 236.714265 
L 127.36604 245.098177 
L 129.820464 239.584075 
L 132.274887 244.065038 
L 134.729311 245.87366 
L 137.183734 250.631237 
L 139.638157 248.480042 
L 142.092581 247.202315 
L 144.547004 251.655103 
L 147.001428 251.154681 
L 149.455851 259.113462 
L 151.910275 258.918005 
L 154.364698 255.956596 
L 156.819121 250.213751 
L 159.273545 244.138372 
L 161.727968 251.196323 
L 164.182392 250.049961 
L 166.636815 251.641872 
L 169.091239 255.363253 
L 171.545662 256.891653 
L 174.000085 262.527781 
L 176.454509 255.119182 
L 178.908932 258.48079 
L 181.363356 260.520486 
L 183.817779 261.507648 
L 186.272203 258.711 
L 188.726626 261.490788 
L 191.181049 260.021532 
L 193.635473 262.511146 
L 196.089896 268.334135 
L 198.54432 269.905043 
L 200.998743 270.056425 
L 203.453167 263.395624 
L 205.90759 264.038119 
L 208.362013 271.69812 
L 210.816437 263.756684 
L 213.27086 273.96748 
L 215.725284 259.201318 
L 218.179707 259.394513 
L 220.634131 266.644024 
L 223.088554 269.169814 
L 225.542977 277.883783 
L 227.997401 271.038452 
L 230.451824 272.522931 
L 232.906248 273.03545 
L 235.360671 262.688063 
L 237.815095 263.876548 
L 240.269518 272.992293 
L 242.723941 275.392251 
L 245.178365 264.5958 
L 247.632788 270.249029 
L 250.087212 273.297574 
L 252.541635 275.17404 
L 254.996059 275.870921 
L 257.450482 267.881653 
L 259.904905 274.562582 
L 262.359329 275.931205 
L 264.813752 281.016226 
L 267.268176 276.248024 
L 269.722599 279.865493 
L 272.177023 270.223745 
L 274.631446 280.267062 
L 277.085869 276.841519 
L 279.540293 279.5783 
L 281.994716 276.381284 
L 284.44914 270.092586 
L 286.903563 281.18161 
L 289.357987 280.861807 
L 291.81241 289.169702 
L 294.266833 281.480028 
L 296.721257 283.323583 
L 299.17568 278.097582 
L 301.630104 284.725742 
L 304.084527 284.907216 
L 306.538951 283.833621 
L 308.993374 289.855503 
L 311.447797 292.020688 
L 313.902221 287.82751 
L 316.356644 288.872576 
L 318.811068 286.767904 
L 321.265491 291.651814 
L 323.719915 291.633513 
L 326.174338 293.86028 
L 328.628761 289.330406 
L 331.083185 293.940435 
L 333.537608 295.013511 
L 335.992032 291.616799 
L 338.446455 296.407901 
L 340.900879 296.169269 
L 343.355302 291.496303 
L 345.809725 295.926988 
L 348.264149 296.718279 
L 350.718572 296.2831 
L 353.172996 297.581221 
L 355.627419 297.876006 
L 358.081843 296.788852 
L 360.536266 299.048462 
L 362.990689 297.966334 
L 365.445113 300.203779 
L 367.899536 300.827619 
L 370.35396 298.352599 
L 372.808383 301.256876 
L 375.262807 300.877118 
L 377.71723 302.90541 
L 380.171653 301.944005 
L 382.626077 303.195977 
L 385.0805 302.758214 
L 387.534924 302.448236 
L 389.989347 302.252393 
L 392.443771 303.49941 
L 394.898194 303.017414 
L 397.352617 302.846955 
L 399.807041 303.385719 
L 402.261464 303.144102 
L 404.715888 302.890198 
L 407.170311 302.46908 
L 409.624735 302.850329 
L 412.079158 303.26159 
L 414.533581 303.354267 
L 416.988005 303.45668 
L 419.442428 303.193392 
L 421.896852 303.199679 
L 424.351275 303.076789 
L 426.805699 303.382782 
L 429.260122 303.445849 
L 431.714545 302.930191 
L 431.714545 302.274894 
L 431.714545 302.274894 
L 429.260122 302.51723 
L 426.805699 302.926233 
L 424.351275 302.793722 
L 421.896852 302.889643 
L 419.442428 302.932164 
L 416.988005 303.001367 
L 414.533581 302.267547 
L 412.079158 302.917566 
L 409.624735 301.353092 
L 407.170311 300.32256 
L 404.715888 302.321764 
L 402.261464 301.72977 
L 399.807041 303.1831 
L 397.352617 299.768719 
L 394.898194 302.045735 
L 392.443771 301.026144 
L 389.989347 301.036465 
L 387.534924 300.734125 
L 385.0805 300.979021 
L 382.626077 302.532774 
L 380.171653 301.053575 
L 377.71723 301.818679 
L 375.262807 299.965852 
L 372.808383 299.635462 
L 370.35396 295.504637 
L 367.899536 297.132193 
L 365.445113 299.20678 
L 362.990689 293.449245 
L 360.536266 295.98658 
L 358.081843 294.58159 
L 355.627419 294.710327 
L 353.172996 292.873776 
L 350.718572 293.81926 
L 348.264149 294.062554 
L 345.809725 292.124437 
L 343.355302 288.850715 
L 340.900879 294.318171 
L 338.446455 293.30938 
L 335.992032 287.316851 
L 333.537608 294.200204 
L 331.083185 288.728343 
L 328.628761 285.23337 
L 326.174338 289.942578 
L 323.719915 288.259308 
L 321.265491 286.178788 
L 318.811068 282.732008 
L 316.356644 283.685402 
L 313.902221 281.796531 
L 311.447797 288.173991 
L 308.993374 285.004488 
L 306.538951 277.840577 
L 304.084527 279.317251 
L 301.630104 278.409783 
L 299.17568 269.809679 
L 296.721257 278.141855 
L 294.266833 279.83307 
L 291.81241 283.944031 
L 289.357987 273.61296 
L 286.903563 278.139796 
L 284.44914 261.187148 
L 281.994716 273.918264 
L 279.540293 271.025927 
L 277.085869 272.859957 
L 274.631446 277.017515 
L 272.177023 264.791118 
L 269.722599 275.167851 
L 267.268176 268.516539 
L 264.813752 277.154174 
L 262.359329 273.234263 
L 259.904905 267.804051 
L 257.450482 262.111662 
L 254.996059 272.002487 
L 252.541635 272.287489 
L 250.087212 267.099935 
L 247.632788 268.106008 
L 245.178365 259.9923 
L 242.723941 268.430066 
L 240.269518 265.464304 
L 237.815095 258.172567 
L 235.360671 256.7995 
L 232.906248 267.119445 
L 230.451824 262.063125 
L 227.997401 264.472923 
L 225.542977 273.634478 
L 223.088554 265.235692 
L 220.634131 263.518557 
L 218.179707 253.988202 
L 215.725284 253.526904 
L 213.27086 265.1154 
L 210.816437 257.739498 
L 208.362013 263.440871 
L 205.90759 261.825115 
L 203.453167 253.327267 
L 200.998743 267.136322 
L 198.54432 263.293035 
L 196.089896 265.304034 
L 193.635473 251.018266 
L 191.181049 257.11888 
L 188.726626 256.236412 
L 186.272203 249.684022 
L 183.817779 253.319467 
L 181.363356 255.175527 
L 178.908932 251.471476 
L 176.454509 249.100621 
L 174.000085 255.989325 
L 171.545662 253.624831 
L 169.091239 250.425078 
L 166.636815 243.573 
L 164.182392 246.586742 
L 161.727968 241.558555 
L 159.273545 241.247809 
L 156.819121 241.728652 
L 154.364698 249.854304 
L 151.910275 256.236357 
L 149.455851 255.284848 
L 147.001428 246.034956 
L 144.547004 248.366913 
L 142.092581 238.274142 
L 139.638157 244.760064 
L 137.183734 241.119332 
L 134.729311 244.601775 
L 132.274887 240.689218 
L 129.820464 236.413507 
L 127.36604 238.369661 
L 124.911617 230.052698 
L 122.457193 226.299194 
L 120.00277 227.077073 
L 117.548347 227.032142 
L 115.093923 217.977387 
L 112.6395 220.999794 
L 110.185076 225.175761 
L 107.730653 213.725994 
L 105.276229 221.870805 
L 102.821806 212.365071 
L 100.367383 208.804631 
L 97.912959 196.82867 
L 95.458536 198.6973 
L 93.004112 190.656074 
L 90.549689 181.641209 
L 88.095265 158.53424 
L 85.640842 169.665785 
L 83.186419 163.350994 
L 80.731995 158.504097 
L 78.277572 146.593148 
L 75.823148 125.812892 
L 73.368725 104.779454 
L 70.914301 105.089386 
L 68.459878 86.318446 
L 66.005455 40.667883 
z
" style="fill:#ff7f0e;fill-opacity:0.25;"/>
   </g>
   <g id="PolyCollection_3">
    <path clip-path="url(#p52922c31c3)" d="M 66.005455 43.130935 
L 66.005455 57.525765 
L 68.459878 96.222005 
L 70.914301 116.423264 
L 73.368725 117.095406 
L 75.823148 131.283165 
L 78.277572 155.489224 
L 80.731995 171.825479 
L 83.186419 174.065419 
L 85.640842 177.097675 
L 88.095265 170.059489 
L 90.549689 190.525986 
L 93.004112 192.721783 
L 95.458536 210.629173 
L 97.912959 203.1421 
L 100.367383 216.532483 
L 102.821806 221.429688 
L 105.276229 228.813865 
L 107.730653 221.970311 
L 110.185076 234.666158 
L 112.6395 226.960904 
L 115.093923 220.776905 
L 117.548347 233.03056 
L 120.00277 233.537974 
L 122.457193 233.640427 
L 124.911617 236.788767 
L 127.36604 246.20387 
L 129.820464 240.735248 
L 132.274887 242.022336 
L 134.729311 247.506875 
L 137.183734 250.902999 
L 139.638157 249.111253 
L 142.092581 246.326777 
L 144.547004 255.960372 
L 147.001428 250.393006 
L 149.455851 253.524167 
L 151.910275 261.298925 
L 154.364698 258.832858 
L 156.819121 249.169639 
L 159.273545 244.956007 
L 161.727968 253.507253 
L 164.182392 249.596703 
L 166.636815 251.270166 
L 169.091239 252.473625 
L 171.545662 255.65838 
L 174.000085 261.599 
L 176.454509 258.877716 
L 178.908932 260.071893 
L 181.363356 259.410476 
L 183.817779 261.282981 
L 186.272203 255.588611 
L 188.726626 264.840201 
L 191.181049 259.740669 
L 193.635473 257.762183 
L 196.089896 264.872199 
L 198.54432 269.272764 
L 200.998743 270.823168 
L 203.453167 262.032019 
L 205.90759 272.047393 
L 208.362013 270.771742 
L 210.816437 261.867294 
L 213.27086 270.66553 
L 215.725284 262.100727 
L 218.179707 260.318991 
L 220.634131 264.372112 
L 223.088554 268.102348 
L 225.542977 278.135501 
L 227.997401 266.859508 
L 230.451824 273.741384 
L 232.906248 272.853767 
L 235.360671 263.871779 
L 237.815095 261.368679 
L 240.269518 270.983135 
L 242.723941 277.176598 
L 245.178365 265.728286 
L 247.632788 272.106552 
L 250.087212 275.932421 
L 252.541635 279.930875 
L 254.996059 276.084726 
L 257.450482 267.512306 
L 259.904905 279.287287 
L 262.359329 277.425892 
L 264.813752 281.530768 
L 267.268176 271.700401 
L 269.722599 278.814116 
L 272.177023 271.744031 
L 274.631446 278.272812 
L 277.085869 278.517116 
L 279.540293 282.180395 
L 281.994716 274.534709 
L 284.44914 266.910327 
L 286.903563 287.128009 
L 289.357987 278.318786 
L 291.81241 286.06927 
L 294.266833 281.798518 
L 296.721257 281.467304 
L 299.17568 274.011605 
L 301.630104 283.368991 
L 304.084527 285.161305 
L 306.538951 284.445087 
L 308.993374 288.706763 
L 311.447797 290.666562 
L 313.902221 284.263533 
L 316.356644 288.702641 
L 318.811068 289.359623 
L 321.265491 291.329091 
L 323.719915 292.163613 
L 326.174338 294.6403 
L 328.628761 289.788255 
L 331.083185 294.092263 
L 333.537608 295.328601 
L 335.992032 292.62621 
L 338.446455 296.099158 
L 340.900879 296.858981 
L 343.355302 293.044323 
L 345.809725 294.791752 
L 348.264149 298.187157 
L 350.718572 297.717914 
L 353.172996 297.429788 
L 355.627419 299.035687 
L 358.081843 297.609039 
L 360.536266 296.834004 
L 362.990689 298.904755 
L 365.445113 300.217528 
L 367.899536 301.287091 
L 370.35396 299.307648 
L 372.808383 301.609002 
L 375.262807 302.311424 
L 377.71723 302.87946 
L 380.171653 302.326922 
L 382.626077 303.125739 
L 385.0805 302.633785 
L 387.534924 302.005139 
L 389.989347 302.161898 
L 392.443771 302.873184 
L 394.898194 303.09479 
L 397.352617 302.849401 
L 399.807041 303.415251 
L 402.261464 302.877183 
L 404.715888 302.872629 
L 407.170311 302.287858 
L 409.624735 303.361858 
L 412.079158 303.3206 
L 414.533581 302.446949 
L 416.988005 303.427204 
L 419.442428 303.311296 
L 421.896852 303.280167 
L 424.351275 303.242751 
L 426.805699 303.248832 
L 429.260122 303.293059 
L 431.714545 303.120184 
L 431.714545 301.66403 
L 431.714545 301.66403 
L 429.260122 302.447682 
L 426.805699 302.824445 
L 424.351275 302.925121 
L 421.896852 302.886382 
L 419.442428 303.157287 
L 416.988005 302.820716 
L 414.533581 301.65791 
L 412.079158 302.872574 
L 409.624735 301.698823 
L 407.170311 301.009815 
L 404.715888 302.164073 
L 402.261464 302.355056 
L 399.807041 303.201528 
L 397.352617 301.034002 
L 394.898194 302.518826 
L 392.443771 302.200897 
L 389.989347 301.369221 
L 387.534924 300.756527 
L 385.0805 300.996602 
L 382.626077 301.606284 
L 380.171653 301.515575 
L 377.71723 301.924413 
L 375.262807 301.030329 
L 372.808383 300.045032 
L 370.35396 296.462994 
L 367.899536 299.514267 
L 365.445113 298.875658 
L 362.990689 294.455968 
L 360.536266 294.272665 
L 358.081843 293.946184 
L 355.627419 295.538107 
L 353.172996 294.339839 
L 350.718572 294.45654 
L 348.264149 294.222858 
L 345.809725 291.053578 
L 343.355302 283.285457 
L 340.900879 294.294237 
L 338.446455 292.977735 
L 335.992032 288.443008 
L 333.537608 290.869366 
L 331.083185 289.823438 
L 328.628761 283.438322 
L 326.174338 290.082235 
L 323.719915 287.159348 
L 321.265491 286.955708 
L 318.811068 284.642755 
L 316.356644 285.232031 
L 313.902221 280.434878 
L 311.447797 287.948304 
L 308.993374 284.81885 
L 306.538951 276.913149 
L 304.084527 283.317371 
L 301.630104 278.090804 
L 299.17568 269.421402 
L 296.721257 279.405704 
L 294.266833 275.497343 
L 291.81241 282.093445 
L 289.357987 275.439423 
L 286.903563 279.127646 
L 284.44914 259.934648 
L 281.994716 271.538841 
L 279.540293 274.91799 
L 277.085869 275.224166 
L 274.631446 276.433285 
L 272.177023 270.346134 
L 269.722599 271.186396 
L 267.268176 268.223165 
L 264.813752 275.223443 
L 262.359329 269.482702 
L 259.904905 270.764005 
L 257.450482 262.11991 
L 254.996059 268.22282 
L 252.541635 272.890731 
L 250.087212 270.073423 
L 247.632788 266.970686 
L 245.178365 262.042007 
L 242.723941 270.149517 
L 240.269518 261.944118 
L 237.815095 253.988802 
L 235.360671 259.305774 
L 232.906248 269.021995 
L 230.451824 266.509429 
L 227.997401 263.122523 
L 225.542977 274.037253 
L 223.088554 263.120964 
L 220.634131 260.667363 
L 218.179707 256.087937 
L 215.725284 257.183717 
L 213.27086 268.163451 
L 210.816437 255.826053 
L 208.362013 265.585961 
L 205.90759 264.31031 
L 203.453167 257.816644 
L 200.998743 265.545819 
L 198.54432 264.297698 
L 196.089896 262.469289 
L 193.635473 253.002557 
L 191.181049 255.345988 
L 188.726626 258.303499 
L 186.272203 250.538251 
L 183.817779 258.035316 
L 181.363356 256.736912 
L 178.908932 253.626786 
L 176.454509 247.813365 
L 174.000085 258.599478 
L 171.545662 249.678577 
L 169.091239 248.891231 
L 166.636815 246.912497 
L 164.182392 246.724037 
L 161.727968 243.716238 
L 159.273545 238.568253 
L 156.819121 238.304151 
L 154.364698 252.484817 
L 151.910275 255.920479 
L 149.455851 251.970771 
L 147.001428 245.91645 
L 144.547004 251.983274 
L 142.092581 242.275451 
L 139.638157 245.494263 
L 137.183734 247.268379 
L 134.729311 239.887925 
L 132.274887 239.391745 
L 129.820464 232.599221 
L 127.36604 240.615427 
L 124.911617 232.866996 
L 122.457193 228.883611 
L 120.00277 227.519095 
L 117.548347 221.797533 
L 115.093923 211.933814 
L 112.6395 223.218028 
L 110.185076 226.503755 
L 107.730653 209.724814 
L 105.276229 219.649841 
L 102.821806 211.010206 
L 100.367383 209.994398 
L 97.912959 192.014219 
L 95.458536 206.260852 
L 93.004112 189.118973 
L 90.549689 186.214233 
L 88.095265 161.610936 
L 85.640842 169.332713 
L 83.186419 165.729756 
L 80.731995 158.265134 
L 78.277572 145.848801 
L 75.823148 123.382685 
L 73.368725 105.251994 
L 70.914301 107.729636 
L 68.459878 87.487695 
L 66.005455 43.130935 
z
" style="fill:#2ca02c;fill-opacity:0.25;"/>
   </g>
   <g id="PolyCollection_4">
    <path clip-path="url(#p52922c31c3)" d="M 66.005455 23.097098 
L 66.005455 56.254702 
L 68.459878 89.127586 
L 70.914301 117.978962 
L 73.368725 109.340718 
L 75.823148 126.055652 
L 78.277572 155.631501 
L 80.731995 171.136501 
L 83.186419 170.051747 
L 85.640842 174.635016 
L 88.095265 159.053028 
L 90.549689 187.690615 
L 93.004112 193.224369 
L 95.458536 202.650823 
L 97.912959 195.32989 
L 100.367383 210.048557 
L 102.821806 220.055651 
L 105.276229 225.929978 
L 107.730653 214.737406 
L 110.185076 232.551816 
L 112.6395 229.718507 
L 115.093923 220.68461 
L 117.548347 228.183693 
L 120.00277 232.561893 
L 122.457193 229.214052 
L 124.911617 233.760816 
L 127.36604 245.172586 
L 129.820464 241.099319 
L 132.274887 239.938186 
L 134.729311 243.881384 
L 137.183734 246.834536 
L 139.638157 248.038074 
L 142.092581 245.662829 
L 144.547004 253.343982 
L 147.001428 250.178436 
L 149.455851 258.991593 
L 151.910275 256.393893 
L 154.364698 254.524229 
L 156.819121 248.6977 
L 159.273545 244.217088 
L 161.727968 249.894233 
L 164.182392 253.28021 
L 166.636815 249.260204 
L 169.091239 255.99942 
L 171.545662 257.747331 
L 174.000085 259.175815 
L 176.454509 253.798968 
L 178.908932 253.894138 
L 181.363356 257.561141 
L 183.817779 259.237047 
L 186.272203 257.037098 
L 188.726626 261.465806 
L 191.181049 258.903005 
L 193.635473 259.697012 
L 196.089896 266.139953 
L 198.54432 266.704525 
L 200.998743 271.487452 
L 203.453167 259.332212 
L 205.90759 271.779944 
L 208.362013 266.336053 
L 210.816437 259.919995 
L 213.27086 273.520692 
L 215.725284 258.885646 
L 218.179707 262.764192 
L 220.634131 263.901396 
L 223.088554 266.113057 
L 225.542977 279.91149 
L 227.997401 270.487684 
L 230.451824 268.511095 
L 232.906248 273.562515 
L 235.360671 265.964828 
L 237.815095 260.489101 
L 240.269518 272.337331 
L 242.723941 274.846386 
L 245.178365 261.452289 
L 247.632788 274.174708 
L 250.087212 271.860855 
L 252.541635 274.805129 
L 254.996059 274.65283 
L 257.450482 270.89013 
L 259.904905 273.080562 
L 262.359329 273.313762 
L 264.813752 278.129548 
L 267.268176 272.772881 
L 269.722599 279.744684 
L 272.177023 268.949029 
L 274.631446 283.890381 
L 277.085869 278.237657 
L 279.540293 277.330836 
L 281.994716 276.473324 
L 284.44914 270.231288 
L 286.903563 283.87498 
L 289.357987 276.94815 
L 291.81241 286.997029 
L 294.266833 281.307578 
L 296.721257 282.167679 
L 299.17568 275.668888 
L 301.630104 281.896874 
L 304.084527 288.181434 
L 306.538951 283.726477 
L 308.993374 290.649261 
L 311.447797 288.520329 
L 313.902221 288.39989 
L 316.356644 288.22457 
L 318.811068 287.786435 
L 321.265491 289.948356 
L 323.719915 289.690695 
L 326.174338 291.269653 
L 328.628761 288.228911 
L 331.083185 291.871697 
L 333.537608 294.495493 
L 335.992032 290.501375 
L 338.446455 294.832036 
L 340.900879 295.556987 
L 343.355302 291.078248 
L 345.809725 294.115733 
L 348.264149 295.824767 
L 350.718572 297.254098 
L 353.172996 297.696402 
L 355.627419 297.888412 
L 358.081843 296.583648 
L 360.536266 298.343033 
L 362.990689 297.015402 
L 365.445113 300.904141 
L 367.899536 300.373513 
L 370.35396 299.741054 
L 372.808383 301.310886 
L 375.262807 301.971313 
L 377.71723 302.226933 
L 380.171653 302.940278 
L 382.626077 303.254054 
L 385.0805 302.69285 
L 387.534924 301.737999 
L 389.989347 301.937385 
L 392.443771 302.375098 
L 394.898194 303.086592 
L 397.352617 302.350829 
L 399.807041 303.387196 
L 402.261464 302.844874 
L 404.715888 303.048649 
L 407.170311 302.866758 
L 409.624735 303.017219 
L 412.079158 303.267983 
L 414.533581 303.294816 
L 416.988005 303.327137 
L 419.442428 302.940109 
L 421.896852 303.246524 
L 424.351275 303.194805 
L 426.805699 303.397821 
L 429.260122 303.238746 
L 431.714545 302.601927 
L 431.714545 301.58298 
L 431.714545 301.58298 
L 429.260122 302.424591 
L 426.805699 302.609337 
L 424.351275 302.37332 
L 421.896852 302.705006 
L 419.442428 302.481143 
L 416.988005 302.916816 
L 414.533581 302.864945 
L 412.079158 302.202814 
L 409.624735 301.668256 
L 407.170311 301.356763 
L 404.715888 302.184383 
L 402.261464 301.757556 
L 399.807041 302.357424 
L 397.352617 301.215553 
L 394.898194 301.795831 
L 392.443771 302.006933 
L 389.989347 299.807981 
L 387.534924 300.588865 
L 385.0805 301.348182 
L 382.626077 300.497111 
L 380.171653 300.03438 
L 377.71723 300.710698 
L 375.262807 300.845717 
L 372.808383 298.35604 
L 370.35396 295.418117 
L 367.899536 296.608084 
L 365.445113 297.053555 
L 362.990689 293.996761 
L 360.536266 293.954138 
L 358.081843 290.581954 
L 355.627419 292.493237 
L 353.172996 293.994234 
L 350.718572 288.839488 
L 348.264149 292.240763 
L 345.809725 290.090541 
L 343.355302 285.595705 
L 340.900879 290.92591 
L 338.446455 292.153016 
L 335.992032 285.977924 
L 333.537608 292.57137 
L 331.083185 289.643254 
L 328.628761 286.219199 
L 326.174338 287.02643 
L 323.719915 286.16232 
L 321.265491 285.458927 
L 318.811068 281.465221 
L 316.356644 283.670451 
L 313.902221 280.44835 
L 311.447797 285.961635 
L 308.993374 281.911538 
L 306.538951 278.145198 
L 304.084527 283.403267 
L 301.630104 276.578204 
L 299.17568 271.97319 
L 296.721257 277.480974 
L 294.266833 278.651396 
L 291.81241 284.347879 
L 289.357987 273.136995 
L 286.903563 278.363437 
L 284.44914 263.959815 
L 281.994716 270.497334 
L 279.540293 273.707839 
L 277.085869 272.377854 
L 274.631446 275.526942 
L 272.177023 262.590246 
L 269.722599 271.040092 
L 267.268176 267.782609 
L 264.813752 273.117888 
L 262.359329 270.130528 
L 259.904905 267.542635 
L 257.450482 260.163917 
L 254.996059 268.390866 
L 252.541635 267.364027 
L 250.087212 265.049783 
L 247.632788 266.899864 
L 245.178365 256.421608 
L 242.723941 268.090108 
L 240.269518 265.374497 
L 237.815095 252.52123 
L 235.360671 260.507762 
L 232.906248 266.857563 
L 230.451824 263.186161 
L 227.997401 265.836166 
L 225.542977 274.484286 
L 223.088554 258.813575 
L 220.634131 258.734507 
L 218.179707 255.357961 
L 215.725284 250.96506 
L 213.27086 264.292695 
L 210.816437 252.729236 
L 208.362013 262.551394 
L 205.90759 267.895365 
L 203.453167 254.716282 
L 200.998743 262.90677 
L 198.54432 261.122191 
L 196.089896 259.633006 
L 193.635473 250.921032 
L 191.181049 253.260998 
L 188.726626 257.062585 
L 186.272203 245.862433 
L 183.817779 254.890438 
L 181.363356 251.273972 
L 178.908932 247.673837 
L 176.454509 247.825429 
L 174.000085 253.462132 
L 171.545662 254.360251 
L 169.091239 244.993052 
L 166.636815 245.616137 
L 164.182392 244.834746 
L 161.727968 244.49688 
L 159.273545 239.442584 
L 156.819121 240.750856 
L 154.364698 248.386587 
L 151.910275 251.651313 
L 149.455851 249.606547 
L 147.001428 243.648458 
L 144.547004 244.974093 
L 142.092581 238.14354 
L 139.638157 237.472235 
L 137.183734 240.819805 
L 134.729311 238.909391 
L 132.274887 231.297389 
L 129.820464 231.580656 
L 127.36604 235.034067 
L 124.911617 227.454234 
L 122.457193 220.806898 
L 120.00277 221.476294 
L 117.548347 215.495438 
L 115.093923 211.82299 
L 112.6395 220.144462 
L 110.185076 215.889321 
L 107.730653 203.100507 
L 105.276229 216.959247 
L 102.821806 203.604999 
L 100.367383 199.754881 
L 97.912959 185.111604 
L 95.458536 189.910089 
L 93.004112 174.104681 
L 90.549689 173.815697 
L 88.095265 147.475809 
L 85.640842 157.396509 
L 83.186419 147.264953 
L 80.731995 147.263499 
L 78.277572 136.317924 
L 75.823148 105.996311 
L 73.368725 95.764157 
L 70.914301 93.445163 
L 68.459878 72.645289 
L 66.005455 23.097098 
z
" style="fill:#d62728;fill-opacity:0.25;"/>
   </g>
   <g id="PolyCollection_5">
    <path clip-path="url(#p52922c31c3)" d="M 66.005455 37.268943 
L 66.005455 55.894932 
L 68.459878 91.518037 
L 70.914301 108.436815 
L 73.368725 106.436027 
L 75.823148 123.099775 
L 78.277572 141.621717 
L 80.731995 157.532831 
L 83.186419 166.419816 
L 85.640842 174.597762 
L 88.095265 160.597413 
L 90.549689 185.327609 
L 93.004112 190.927294 
L 95.458536 200.594235 
L 97.912959 191.820859 
L 100.367383 202.499453 
L 102.821806 209.140539 
L 105.276229 220.228326 
L 107.730653 212.95024 
L 110.185076 228.552343 
L 112.6395 226.948872 
L 115.093923 218.179528 
L 117.548347 220.455707 
L 120.00277 224.376725 
L 122.457193 225.106949 
L 124.911617 233.134744 
L 127.36604 244.054409 
L 129.820464 233.859578 
L 132.274887 239.006308 
L 134.729311 247.353926 
L 137.183734 246.51084 
L 139.638157 242.511677 
L 142.092581 245.861202 
L 144.547004 251.100506 
L 147.001428 246.748628 
L 149.455851 258.735191 
L 151.910275 256.677051 
L 154.364698 253.487772 
L 156.819121 243.438941 
L 159.273545 241.84225 
L 161.727968 252.631249 
L 164.182392 248.182532 
L 166.636815 253.208707 
L 169.091239 250.515921 
L 171.545662 258.210087 
L 174.000085 257.789115 
L 176.454509 255.854484 
L 178.908932 253.618948 
L 181.363356 261.395681 
L 183.817779 258.524173 
L 186.272203 255.384783 
L 188.726626 259.768196 
L 191.181049 262.22739 
L 193.635473 258.060607 
L 196.089896 266.406053 
L 198.54432 267.955789 
L 200.998743 270.08959 
L 203.453167 257.938757 
L 205.90759 270.750115 
L 208.362013 270.318794 
L 210.816437 260.823715 
L 213.27086 271.783504 
L 215.725284 260.594687 
L 218.179707 261.617284 
L 220.634131 264.669742 
L 223.088554 269.067718 
L 225.542977 279.133645 
L 227.997401 267.034183 
L 230.451824 267.408783 
L 232.906248 273.714588 
L 235.360671 263.114775 
L 237.815095 259.071535 
L 240.269518 268.221824 
L 242.723941 272.266205 
L 245.178365 264.261814 
L 247.632788 270.653204 
L 250.087212 272.705416 
L 252.541635 276.035473 
L 254.996059 275.303688 
L 257.450482 267.318955 
L 259.904905 276.073018 
L 262.359329 275.626154 
L 264.813752 278.727317 
L 267.268176 278.109611 
L 269.722599 279.526548 
L 272.177023 270.883361 
L 274.631446 279.739626 
L 277.085869 279.283891 
L 279.540293 277.35476 
L 281.994716 280.549957 
L 284.44914 268.630119 
L 286.903563 283.45009 
L 289.357987 277.630853 
L 291.81241 286.077383 
L 294.266833 280.350407 
L 296.721257 279.008281 
L 299.17568 274.26925 
L 301.630104 281.327232 
L 304.084527 287.071847 
L 306.538951 285.20741 
L 308.993374 287.991098 
L 311.447797 290.515884 
L 313.902221 282.312859 
L 316.356644 288.825704 
L 318.811068 289.268037 
L 321.265491 290.113674 
L 323.719915 290.426056 
L 326.174338 292.729023 
L 328.628761 287.601469 
L 331.083185 290.253505 
L 333.537608 294.711987 
L 335.992032 291.749336 
L 338.446455 295.18906 
L 340.900879 295.641715 
L 343.355302 288.074243 
L 345.809725 293.705479 
L 348.264149 295.894687 
L 350.718572 296.899572 
L 353.172996 299.902692 
L 355.627419 297.760556 
L 358.081843 294.989484 
L 360.536266 299.801509 
L 362.990689 297.027091 
L 365.445113 301.392194 
L 367.899536 300.19626 
L 370.35396 298.74409 
L 372.808383 300.553742 
L 375.262807 302.675413 
L 377.71723 302.579114 
L 380.171653 302.784495 
L 382.626077 303.271974 
L 385.0805 302.588442 
L 387.534924 301.747142 
L 389.989347 301.816299 
L 392.443771 302.621208 
L 394.898194 302.940568 
L 397.352617 302.566458 
L 399.807041 303.621066 
L 402.261464 302.808017 
L 404.715888 303.07398 
L 407.170311 302.770722 
L 409.624735 303.163886 
L 412.079158 303.263127 
L 414.533581 303.018766 
L 416.988005 303.507377 
L 419.442428 303.379486 
L 421.896852 303.177467 
L 424.351275 303.00416 
L 426.805699 303.446063 
L 429.260122 303.295511 
L 431.714545 302.716823 
L 431.714545 301.355593 
L 431.714545 301.355593 
L 429.260122 302.756343 
L 426.805699 303.293653 
L 424.351275 302.647188 
L 421.896852 302.899865 
L 419.442428 302.61577 
L 416.988005 303.131309 
L 414.533581 301.922106 
L 412.079158 301.585796 
L 409.624735 301.606399 
L 407.170311 302.411971 
L 404.715888 302.787186 
L 402.261464 301.307068 
L 399.807041 302.626942 
L 397.352617 301.040125 
L 394.898194 301.544257 
L 392.443771 301.646569 
L 389.989347 300.478123 
L 387.534924 299.650172 
L 385.0805 301.56367 
L 382.626077 301.13051 
L 380.171653 300.632898 
L 377.71723 301.537558 
L 375.262807 301.857194 
L 372.808383 299.568438 
L 370.35396 295.385381 
L 367.899536 298.643028 
L 365.445113 298.191157 
L 362.990689 293.735405 
L 360.536266 296.520658 
L 358.081843 290.765571 
L 355.627419 294.428003 
L 353.172996 294.964495 
L 350.718572 291.50449 
L 348.264149 292.371142 
L 345.809725 291.172215 
L 343.355302 285.544466 
L 340.900879 292.765168 
L 338.446455 291.976541 
L 335.992032 287.376149 
L 333.537608 292.425404 
L 331.083185 286.660242 
L 328.628761 282.97046 
L 326.174338 288.469965 
L 323.719915 285.821913 
L 321.265491 287.070898 
L 318.811068 284.931818 
L 316.356644 283.836654 
L 313.902221 276.890062 
L 311.447797 287.509374 
L 308.993374 284.109863 
L 306.538951 279.372515 
L 304.084527 282.918936 
L 301.630104 276.690829 
L 299.17568 268.114309 
L 296.721257 273.373235 
L 294.266833 273.136977 
L 291.81241 283.749777 
L 289.357987 272.375302 
L 286.903563 278.963235 
L 284.44914 265.087041 
L 281.994716 274.505955 
L 279.540293 271.912268 
L 277.085869 274.333264 
L 274.631446 275.400919 
L 272.177023 266.377093 
L 269.722599 274.643541 
L 267.268176 271.309756 
L 264.813752 271.685076 
L 262.359329 270.723863 
L 259.904905 271.856812 
L 257.450482 264.603989 
L 254.996059 269.968672 
L 252.541635 269.140969 
L 250.087212 263.381462 
L 247.632788 266.404131 
L 245.178365 259.039867 
L 242.723941 268.379561 
L 240.269518 264.254054 
L 237.815095 255.563746 
L 235.360671 259.193881 
L 232.906248 270.237499 
L 230.451824 261.817195 
L 227.997401 263.82803 
L 225.542977 269.298339 
L 223.088554 260.225966 
L 220.634131 259.861936 
L 218.179707 255.613403 
L 215.725284 252.370507 
L 213.27086 267.812815 
L 210.816437 253.450466 
L 208.362013 265.091022 
L 205.90759 268.202994 
L 203.453167 251.720115 
L 200.998743 261.641519 
L 198.54432 263.369083 
L 196.089896 262.594238 
L 193.635473 252.252759 
L 191.181049 255.443388 
L 188.726626 253.298557 
L 186.272203 251.622261 
L 183.817779 251.845615 
L 181.363356 253.397582 
L 178.908932 246.910864 
L 176.454509 248.98596 
L 174.000085 255.277638 
L 171.545662 255.578867 
L 169.091239 242.27281 
L 166.636815 248.347983 
L 164.182392 241.931803 
L 161.727968 244.693801 
L 159.273545 238.714218 
L 156.819121 239.081009 
L 154.364698 248.915247 
L 151.910275 253.162371 
L 149.455851 251.013956 
L 147.001428 242.914331 
L 144.547004 247.781787 
L 142.092581 243.451942 
L 139.638157 238.089929 
L 137.183734 242.824872 
L 134.729311 240.46968 
L 132.274887 231.461929 
L 129.820464 228.890147 
L 127.36604 240.790122 
L 124.911617 226.523063 
L 122.457193 217.849982 
L 120.00277 221.378732 
L 117.548347 218.596831 
L 115.093923 208.257078 
L 112.6395 219.054841 
L 110.185076 219.798519 
L 107.730653 200.915572 
L 105.276229 216.49963 
L 102.821806 204.025642 
L 100.367383 198.502172 
L 97.912959 185.032203 
L 95.458536 190.274021 
L 93.004112 179.155143 
L 90.549689 179.879978 
L 88.095265 152.611774 
L 85.640842 161.586413 
L 83.186419 155.230084 
L 80.731995 151.072332 
L 78.277572 136.109395 
L 75.823148 116.941525 
L 73.368725 96.908485 
L 70.914301 104.160885 
L 68.459878 80.546188 
L 66.005455 37.268943 
z
" style="fill:#9467bd;fill-opacity:0.25;"/>
   </g>
   <g id="matplotlib.axis_1">
    <g id="xtick_1">
     <g id="line2d_1">
      <defs>
       <path d="M 0 0 
L 0 3.5 
" id="m6bf0fcd932" style="stroke:#000000;stroke-width:0.8;"/>
      </defs>
      <g>
       <use style="stroke:#000000;stroke-width:0.8;" x="66.005455" xlink:href="#m6bf0fcd932" y="303.64"/>
      </g>
     </g>
     <g id="text_1">
      <!-- 0 -->
      <g transform="translate(62.824205 318.238437)scale(0.1 -0.1)">
       <defs>
        <path d="M 31.78125 66.40625 
Q 24.171875 66.40625 20.328125 58.90625 
Q 16.5 51.421875 16.5 36.375 
Q 16.5 21.390625 20.328125 13.890625 
Q 24.171875 6.390625 31.78125 6.390625 
Q 39.453125 6.390625 43.28125 13.890625 
Q 47.125 21.390625 47.125 36.375 
Q 47.125 51.421875 43.28125 58.90625 
Q 39.453125 66.40625 31.78125 66.40625 
z
M 31.78125 74.21875 
Q 44.046875 74.21875 50.515625 64.515625 
Q 56.984375 54.828125 56.984375 36.375 
Q 56.984375 17.96875 50.515625 8.265625 
Q 44.046875 -1.421875 31.78125 -1.421875 
Q 19.53125 -1.421875 13.0625 8.265625 
Q 6.59375 17.96875 6.59375 36.375 
Q 6.59375 54.828125 13.0625 64.515625 
Q 19.53125 74.21875 31.78125 74.21875 
z
" id="DejaVuSans-48"/>
       </defs>
       <use xlink:href="#DejaVuSans-48"/>
      </g>
     </g>
    </g>
    <g id="xtick_2">
     <g id="line2d_2">
      <g>
       <use style="stroke:#000000;stroke-width:0.8;" x="115.093923" xlink:href="#m6bf0fcd932" y="303.64"/>
      </g>
     </g>
     <g id="text_2">
      <!-- 20 -->
      <g transform="translate(108.731423 318.238437)scale(0.1 -0.1)">
       <defs>
        <path d="M 19.1875 8.296875 
L 53.609375 8.296875 
L 53.609375 0 
L 7.328125 0 
L 7.328125 8.296875 
Q 12.9375 14.109375 22.625 23.890625 
Q 32.328125 33.6875 34.8125 36.53125 
Q 39.546875 41.84375 41.421875 45.53125 
Q 43.3125 49.21875 43.3125 52.78125 
Q 43.3125 58.59375 39.234375 62.25 
Q 35.15625 65.921875 28.609375 65.921875 
Q 23.96875 65.921875 18.8125 64.3125 
Q 13.671875 62.703125 7.8125 59.421875 
L 7.8125 69.390625 
Q 13.765625 71.78125 18.9375 73 
Q 24.125 74.21875 28.421875 74.21875 
Q 39.75 74.21875 46.484375 68.546875 
Q 53.21875 62.890625 53.21875 53.421875 
Q 53.21875 48.921875 51.53125 44.890625 
Q 49.859375 40.875 45.40625 35.40625 
Q 44.1875 33.984375 37.640625 27.21875 
Q 31.109375 20.453125 19.1875 8.296875 
z
" id="DejaVuSans-50"/>
       </defs>
       <use xlink:href="#DejaVuSans-50"/>
       <use x="63.623047" xlink:href="#DejaVuSans-48"/>
      </g>
     </g>
    </g>
    <g id="xtick_3">
     <g id="line2d_3">
      <g>
       <use style="stroke:#000000;stroke-width:0.8;" x="164.182392" xlink:href="#m6bf0fcd932" y="303.64"/>
      </g>
     </g>
     <g id="text_3">
      <!-- 40 -->
      <g transform="translate(157.819892 318.238437)scale(0.1 -0.1)">
       <defs>
        <path d="M 37.796875 64.3125 
L 12.890625 25.390625 
L 37.796875 25.390625 
z
M 35.203125 72.90625 
L 47.609375 72.90625 
L 47.609375 25.390625 
L 58.015625 25.390625 
L 58.015625 17.1875 
L 47.609375 17.1875 
L 47.609375 0 
L 37.796875 0 
L 37.796875 17.1875 
L 4.890625 17.1875 
L 4.890625 26.703125 
z
" id="DejaVuSans-52"/>
       </defs>
       <use xlink:href="#DejaVuSans-52"/>
       <use x="63.623047" xlink:href="#DejaVuSans-48"/>
      </g>
     </g>
    </g>
    <g id="xtick_4">
     <g id="line2d_4">
      <g>
       <use style="stroke:#000000;stroke-width:0.8;" x="213.27086" xlink:href="#m6bf0fcd932" y="303.64"/>
      </g>
     </g>
     <g id="text_4">
      <!-- 60 -->
      <g transform="translate(206.90836 318.238437)scale(0.1 -0.1)">
       <defs>
        <path d="M 33.015625 40.375 
Q 26.375 40.375 22.484375 35.828125 
Q 18.609375 31.296875 18.609375 23.390625 
Q 18.609375 15.53125 22.484375 10.953125 
Q 26.375 6.390625 33.015625 6.390625 
Q 39.65625 6.390625 43.53125 10.953125 
Q 47.40625 15.53125 47.40625 23.390625 
Q 47.40625 31.296875 43.53125 35.828125 
Q 39.65625 40.375 33.015625 40.375 
z
M 52.59375 71.296875 
L 52.59375 62.3125 
Q 48.875 64.0625 45.09375 64.984375 
Q 41.3125 65.921875 37.59375 65.921875 
Q 27.828125 65.921875 22.671875 59.328125 
Q 17.53125 52.734375 16.796875 39.40625 
Q 19.671875 43.65625 24.015625 45.921875 
Q 28.375 48.1875 33.59375 48.1875 
Q 44.578125 48.1875 50.953125 41.515625 
Q 57.328125 34.859375 57.328125 23.390625 
Q 57.328125 12.15625 50.6875 5.359375 
Q 44.046875 -1.421875 33.015625 -1.421875 
Q 20.359375 -1.421875 13.671875 8.265625 
Q 6.984375 17.96875 6.984375 36.375 
Q 6.984375 53.65625 15.1875 63.9375 
Q 23.390625 74.21875 37.203125 74.21875 
Q 40.921875 74.21875 44.703125 73.484375 
Q 48.484375 72.75 52.59375 71.296875 
z
" id="DejaVuSans-54"/>
       </defs>
       <use xlink:href="#DejaVuSans-54"/>
       <use x="63.623047" xlink:href="#DejaVuSans-48"/>
      </g>
     </g>
    </g>
    <g id="xtick_5">
     <g id="line2d_5">
      <g>
       <use style="stroke:#000000;stroke-width:0.8;" x="262.359329" xlink:href="#m6bf0fcd932" y="303.64"/>
      </g>
     </g>
     <g id="text_5">
      <!-- 80 -->
      <g transform="translate(255.996829 318.238437)scale(0.1 -0.1)">
       <defs>
        <path d="M 31.78125 34.625 
Q 24.75 34.625 20.71875 30.859375 
Q 16.703125 27.09375 16.703125 20.515625 
Q 16.703125 13.921875 20.71875 10.15625 
Q 24.75 6.390625 31.78125 6.390625 
Q 38.8125 6.390625 42.859375 10.171875 
Q 46.921875 13.96875 46.921875 20.515625 
Q 46.921875 27.09375 42.890625 30.859375 
Q 38.875 34.625 31.78125 34.625 
z
M 21.921875 38.8125 
Q 15.578125 40.375 12.03125 44.71875 
Q 8.5 49.078125 8.5 55.328125 
Q 8.5 64.0625 14.71875 69.140625 
Q 20.953125 74.21875 31.78125 74.21875 
Q 42.671875 74.21875 48.875 69.140625 
Q 55.078125 64.0625 55.078125 55.328125 
Q 55.078125 49.078125 51.53125 44.71875 
Q 48 40.375 41.703125 38.8125 
Q 48.828125 37.15625 52.796875 32.3125 
Q 56.78125 27.484375 56.78125 20.515625 
Q 56.78125 9.90625 50.3125 4.234375 
Q 43.84375 -1.421875 31.78125 -1.421875 
Q 19.734375 -1.421875 13.25 4.234375 
Q 6.78125 9.90625 6.78125 20.515625 
Q 6.78125 27.484375 10.78125 32.3125 
Q 14.796875 37.15625 21.921875 38.8125 
z
M 18.3125 54.390625 
Q 18.3125 48.734375 21.84375 45.5625 
Q 25.390625 42.390625 31.78125 42.390625 
Q 38.140625 42.390625 41.71875 45.5625 
Q 45.3125 48.734375 45.3125 54.390625 
Q 45.3125 60.0625 41.71875 63.234375 
Q 38.140625 66.40625 31.78125 66.40625 
Q 25.390625 66.40625 21.84375 63.234375 
Q 18.3125 60.0625 18.3125 54.390625 
z
" id="DejaVuSans-56"/>
       </defs>
       <use xlink:href="#DejaVuSans-56"/>
       <use x="63.623047" xlink:href="#DejaVuSans-48"/>
      </g>
     </g>
    </g>
    <g id="xtick_6">
     <g id="line2d_6">
      <g>
       <use style="stroke:#000000;stroke-width:0.8;" x="311.447797" xlink:href="#m6bf0fcd932" y="303.64"/>
      </g>
     </g>
     <g id="text_6">
      <!-- 100 -->
      <g transform="translate(301.904047 318.238437)scale(0.1 -0.1)">
       <defs>
        <path d="M 12.40625 8.296875 
L 28.515625 8.296875 
L 28.515625 63.921875 
L 10.984375 60.40625 
L 10.984375 69.390625 
L 28.421875 72.90625 
L 38.28125 72.90625 
L 38.28125 8.296875 
L 54.390625 8.296875 
L 54.390625 0 
L 12.40625 0 
z
" id="DejaVuSans-49"/>
       </defs>
       <use xlink:href="#DejaVuSans-49"/>
       <use x="63.623047" xlink:href="#DejaVuSans-48"/>
       <use x="127.246094" xlink:href="#DejaVuSans-48"/>
      </g>
     </g>
    </g>
    <g id="xtick_7">
     <g id="line2d_7">
      <g>
       <use style="stroke:#000000;stroke-width:0.8;" x="360.536266" xlink:href="#m6bf0fcd932" y="303.64"/>
      </g>
     </g>
     <g id="text_7">
      <!-- 120 -->
      <g transform="translate(350.992516 318.238437)scale(0.1 -0.1)">
       <use xlink:href="#DejaVuSans-49"/>
       <use x="63.623047" xlink:href="#DejaVuSans-50"/>
       <use x="127.246094" xlink:href="#DejaVuSans-48"/>
      </g>
     </g>
    </g>
    <g id="xtick_8">
     <g id="line2d_8">
      <g>
       <use style="stroke:#000000;stroke-width:0.8;" x="409.624735" xlink:href="#m6bf0fcd932" y="303.64"/>
      </g>
     </g>
     <g id="text_8">
      <!-- 140 -->
      <g transform="translate(400.080985 318.238437)scale(0.1 -0.1)">
       <use xlink:href="#DejaVuSans-49"/>
       <use x="63.623047" xlink:href="#DejaVuSans-52"/>
       <use x="127.246094" xlink:href="#DejaVuSans-48"/>
      </g>
     </g>
    </g>
    <g id="text_9">
     <!-- Epochs -->
     <g transform="translate(230.944375 331.916562)scale(0.1 -0.1)">
      <defs>
       <path d="M 9.8125 72.90625 
L 55.90625 72.90625 
L 55.90625 64.59375 
L 19.671875 64.59375 
L 19.671875 43.015625 
L 54.390625 43.015625 
L 54.390625 34.71875 
L 19.671875 34.71875 
L 19.671875 8.296875 
L 56.78125 8.296875 
L 56.78125 0 
L 9.8125 0 
z
" id="DejaVuSans-69"/>
       <path d="M 18.109375 8.203125 
L 18.109375 -20.796875 
L 9.078125 -20.796875 
L 9.078125 54.6875 
L 18.109375 54.6875 
L 18.109375 46.390625 
Q 20.953125 51.265625 25.265625 53.625 
Q 29.59375 56 35.59375 56 
Q 45.5625 56 51.78125 48.09375 
Q 58.015625 40.1875 58.015625 27.296875 
Q 58.015625 14.40625 51.78125 6.484375 
Q 45.5625 -1.421875 35.59375 -1.421875 
Q 29.59375 -1.421875 25.265625 0.953125 
Q 20.953125 3.328125 18.109375 8.203125 
z
M 48.6875 27.296875 
Q 48.6875 37.203125 44.609375 42.84375 
Q 40.53125 48.484375 33.40625 48.484375 
Q 26.265625 48.484375 22.1875 42.84375 
Q 18.109375 37.203125 18.109375 27.296875 
Q 18.109375 17.390625 22.1875 11.75 
Q 26.265625 6.109375 33.40625 6.109375 
Q 40.53125 6.109375 44.609375 11.75 
Q 48.6875 17.390625 48.6875 27.296875 
z
" id="DejaVuSans-112"/>
       <path d="M 30.609375 48.390625 
Q 23.390625 48.390625 19.1875 42.75 
Q 14.984375 37.109375 14.984375 27.296875 
Q 14.984375 17.484375 19.15625 11.84375 
Q 23.34375 6.203125 30.609375 6.203125 
Q 37.796875 6.203125 41.984375 11.859375 
Q 46.1875 17.53125 46.1875 27.296875 
Q 46.1875 37.015625 41.984375 42.703125 
Q 37.796875 48.390625 30.609375 48.390625 
z
M 30.609375 56 
Q 42.328125 56 49.015625 48.375 
Q 55.71875 40.765625 55.71875 27.296875 
Q 55.71875 13.875 49.015625 6.21875 
Q 42.328125 -1.421875 30.609375 -1.421875 
Q 18.84375 -1.421875 12.171875 6.21875 
Q 5.515625 13.875 5.515625 27.296875 
Q 5.515625 40.765625 12.171875 48.375 
Q 18.84375 56 30.609375 56 
z
" id="DejaVuSans-111"/>
       <path d="M 48.78125 52.59375 
L 48.78125 44.1875 
Q 44.96875 46.296875 41.140625 47.34375 
Q 37.3125 48.390625 33.40625 48.390625 
Q 24.65625 48.390625 19.8125 42.84375 
Q 14.984375 37.3125 14.984375 27.296875 
Q 14.984375 17.28125 19.8125 11.734375 
Q 24.65625 6.203125 33.40625 6.203125 
Q 37.3125 6.203125 41.140625 7.25 
Q 44.96875 8.296875 48.78125 10.40625 
L 48.78125 2.09375 
Q 45.015625 0.34375 40.984375 -0.53125 
Q 36.96875 -1.421875 32.421875 -1.421875 
Q 20.0625 -1.421875 12.78125 6.34375 
Q 5.515625 14.109375 5.515625 27.296875 
Q 5.515625 40.671875 12.859375 48.328125 
Q 20.21875 56 33.015625 56 
Q 37.15625 56 41.109375 55.140625 
Q 45.0625 54.296875 48.78125 52.59375 
z
" id="DejaVuSans-99"/>
       <path d="M 54.890625 33.015625 
L 54.890625 0 
L 45.90625 0 
L 45.90625 32.71875 
Q 45.90625 40.484375 42.875 44.328125 
Q 39.84375 48.1875 33.796875 48.1875 
Q 26.515625 48.1875 22.3125 43.546875 
Q 18.109375 38.921875 18.109375 30.90625 
L 18.109375 0 
L 9.078125 0 
L 9.078125 75.984375 
L 18.109375 75.984375 
L 18.109375 46.1875 
Q 21.34375 51.125 25.703125 53.5625 
Q 30.078125 56 35.796875 56 
Q 45.21875 56 50.046875 50.171875 
Q 54.890625 44.34375 54.890625 33.015625 
z
" id="DejaVuSans-104"/>
       <path d="M 44.28125 53.078125 
L 44.28125 44.578125 
Q 40.484375 46.53125 36.375 47.5 
Q 32.28125 48.484375 27.875 48.484375 
Q 21.1875 48.484375 17.84375 46.4375 
Q 14.5 44.390625 14.5 40.28125 
Q 14.5 37.15625 16.890625 35.375 
Q 19.28125 33.59375 26.515625 31.984375 
L 29.59375 31.296875 
Q 39.15625 29.25 43.1875 25.515625 
Q 47.21875 21.78125 47.21875 15.09375 
Q 47.21875 7.46875 41.1875 3.015625 
Q 35.15625 -1.421875 24.609375 -1.421875 
Q 20.21875 -1.421875 15.453125 -0.5625 
Q 10.6875 0.296875 5.421875 2 
L 5.421875 11.28125 
Q 10.40625 8.6875 15.234375 7.390625 
Q 20.0625 6.109375 24.8125 6.109375 
Q 31.15625 6.109375 34.5625 8.28125 
Q 37.984375 10.453125 37.984375 14.40625 
Q 37.984375 18.0625 35.515625 20.015625 
Q 33.0625 21.96875 24.703125 23.78125 
L 21.578125 24.515625 
Q 13.234375 26.265625 9.515625 29.90625 
Q 5.8125 33.546875 5.8125 39.890625 
Q 5.8125 47.609375 11.28125 51.796875 
Q 16.75 56 26.8125 56 
Q 31.78125 56 36.171875 55.265625 
Q 40.578125 54.546875 44.28125 53.078125 
z
" id="DejaVuSans-115"/>
      </defs>
      <use xlink:href="#DejaVuSans-69"/>
      <use x="63.183594" xlink:href="#DejaVuSans-112"/>
      <use x="126.660156" xlink:href="#DejaVuSans-111"/>
      <use x="187.841797" xlink:href="#DejaVuSans-99"/>
      <use x="242.822266" xlink:href="#DejaVuSans-104"/>
      <use x="306.201172" xlink:href="#DejaVuSans-115"/>
     </g>
    </g>
   </g>
   <g id="matplotlib.axis_2">
    <g id="ytick_1">
     <g id="line2d_9">
      <defs>
       <path d="M 0 0 
L -3.5 0 
" id="m07490ba4b9" style="stroke:#000000;stroke-width:0.8;"/>
      </defs>
      <g>
       <use style="stroke:#000000;stroke-width:0.8;" x="47.72" xlink:href="#m07490ba4b9" y="303.64"/>
      </g>
     </g>
     <g id="text_10">
      <!-- 0.0 -->
      <g transform="translate(24.816875 307.439219)scale(0.1 -0.1)">
       <defs>
        <path d="M 10.6875 12.40625 
L 21 12.40625 
L 21 0 
L 10.6875 0 
z
" id="DejaVuSans-46"/>
       </defs>
       <use xlink:href="#DejaVuSans-48"/>
       <use x="63.623047" xlink:href="#DejaVuSans-46"/>
       <use x="95.410156" xlink:href="#DejaVuSans-48"/>
      </g>
     </g>
    </g>
    <g id="ytick_2">
     <g id="line2d_10">
      <g>
       <use style="stroke:#000000;stroke-width:0.8;" x="47.72" xlink:href="#m07490ba4b9" y="245.864"/>
      </g>
     </g>
     <g id="text_11">
      <!-- 0.5 -->
      <g transform="translate(24.816875 249.663219)scale(0.1 -0.1)">
       <defs>
        <path d="M 10.796875 72.90625 
L 49.515625 72.90625 
L 49.515625 64.59375 
L 19.828125 64.59375 
L 19.828125 46.734375 
Q 21.96875 47.46875 24.109375 47.828125 
Q 26.265625 48.1875 28.421875 48.1875 
Q 40.625 48.1875 47.75 41.5 
Q 54.890625 34.8125 54.890625 23.390625 
Q 54.890625 11.625 47.5625 5.09375 
Q 40.234375 -1.421875 26.90625 -1.421875 
Q 22.3125 -1.421875 17.546875 -0.640625 
Q 12.796875 0.140625 7.71875 1.703125 
L 7.71875 11.625 
Q 12.109375 9.234375 16.796875 8.0625 
Q 21.484375 6.890625 26.703125 6.890625 
Q 35.15625 6.890625 40.078125 11.328125 
Q 45.015625 15.765625 45.015625 23.390625 
Q 45.015625 31 40.078125 35.4375 
Q 35.15625 39.890625 26.703125 39.890625 
Q 22.75 39.890625 18.8125 39.015625 
Q 14.890625 38.140625 10.796875 36.28125 
z
" id="DejaVuSans-53"/>
       </defs>
       <use xlink:href="#DejaVuSans-48"/>
       <use x="63.623047" xlink:href="#DejaVuSans-46"/>
       <use x="95.410156" xlink:href="#DejaVuSans-53"/>
      </g>
     </g>
    </g>
    <g id="ytick_3">
     <g id="line2d_11">
      <g>
       <use style="stroke:#000000;stroke-width:0.8;" x="47.72" xlink:href="#m07490ba4b9" y="188.088"/>
      </g>
     </g>
     <g id="text_12">
      <!-- 1.0 -->
      <g transform="translate(24.816875 191.887219)scale(0.1 -0.1)">
       <use xlink:href="#DejaVuSans-49"/>
       <use x="63.623047" xlink:href="#DejaVuSans-46"/>
       <use x="95.410156" xlink:href="#DejaVuSans-48"/>
      </g>
     </g>
    </g>
    <g id="ytick_4">
     <g id="line2d_12">
      <g>
       <use style="stroke:#000000;stroke-width:0.8;" x="47.72" xlink:href="#m07490ba4b9" y="130.312"/>
      </g>
     </g>
     <g id="text_13">
      <!-- 1.5 -->
      <g transform="translate(24.816875 134.111219)scale(0.1 -0.1)">
       <use xlink:href="#DejaVuSans-49"/>
       <use x="63.623047" xlink:href="#DejaVuSans-46"/>
       <use x="95.410156" xlink:href="#DejaVuSans-53"/>
      </g>
     </g>
    </g>
    <g id="ytick_5">
     <g id="line2d_13">
      <g>
       <use style="stroke:#000000;stroke-width:0.8;" x="47.72" xlink:href="#m07490ba4b9" y="72.536"/>
      </g>
     </g>
     <g id="text_14">
      <!-- 2.0 -->
      <g transform="translate(24.816875 76.335219)scale(0.1 -0.1)">
       <use xlink:href="#DejaVuSans-50"/>
       <use x="63.623047" xlink:href="#DejaVuSans-46"/>
       <use x="95.410156" xlink:href="#DejaVuSans-48"/>
      </g>
     </g>
    </g>
    <g id="ytick_6">
     <g id="line2d_14">
      <g>
       <use style="stroke:#000000;stroke-width:0.8;" x="47.72" xlink:href="#m07490ba4b9" y="14.76"/>
      </g>
     </g>
     <g id="text_15">
      <!-- 2.5 -->
      <g transform="translate(24.816875 18.559219)scale(0.1 -0.1)">
       <use xlink:href="#DejaVuSans-50"/>
       <use x="63.623047" xlink:href="#DejaVuSans-46"/>
       <use x="95.410156" xlink:href="#DejaVuSans-53"/>
      </g>
     </g>
    </g>
    <g id="text_16">
     <!-- Loss -->
     <g transform="translate(18.737188 170.167187)rotate(-90)scale(0.1 -0.1)">
      <defs>
       <path d="M 9.8125 72.90625 
L 19.671875 72.90625 
L 19.671875 8.296875 
L 55.171875 8.296875 
L 55.171875 0 
L 9.8125 0 
z
" id="DejaVuSans-76"/>
      </defs>
      <use xlink:href="#DejaVuSans-76"/>
      <use x="53.962891" xlink:href="#DejaVuSans-111"/>
      <use x="115.144531" xlink:href="#DejaVuSans-115"/>
      <use x="167.244141" xlink:href="#DejaVuSans-115"/>
     </g>
    </g>
   </g>
   <g id="line2d_15">
    <path clip-path="url(#p52922c31c3)" d="M 66.005455 44.7313 
L 68.459878 63.32795 
L 70.914301 83.211019 
L 73.368725 89.191737 
L 75.823148 106.005456 
L 78.277572 131.666125 
L 80.731995 147.2837 
L 83.186419 156.469181 
L 85.640842 169.559056 
L 88.095265 159.2 
L 90.549689 192.037531 
L 93.004112 197.375041 
L 95.458536 210.668034 
L 97.912959 212.981331 
L 100.367383 220.124341 
L 102.821806 223.4758 
L 105.276229 240.881948 
L 107.730653 228.136247 
L 110.185076 239.262641 
L 112.6395 239.302136 
L 115.093923 231.363578 
L 117.548347 236.746225 
L 120.00277 249.181606 
L 122.457193 244.18827 
L 124.911617 254.592464 
L 129.820464 253.475311 
L 132.274887 253.559944 
L 134.729311 257.018605 
L 137.183734 262.034509 
L 139.638157 257.120164 
L 142.092581 257.492548 
L 144.547004 268.472245 
L 147.001428 261.820106 
L 149.455851 277.059655 
L 151.910275 268.376328 
L 154.364698 268.596373 
L 156.819121 262.418178 
L 159.273545 264.009275 
L 161.727968 268.263484 
L 164.182392 267.750045 
L 166.636815 269.606325 
L 169.091239 269.267794 
L 171.545662 269.346784 
L 174.000085 276.100483 
L 176.454509 266.993992 
L 178.908932 264.556567 
L 181.363356 276.309244 
L 183.817779 271.062009 
L 186.272203 273.868998 
L 188.726626 271.541595 
L 191.181049 275.581402 
L 193.635473 272.263795 
L 196.089896 279.83279 
L 198.54432 279.666345 
L 200.998743 281.051502 
L 203.453167 271.355403 
L 205.90759 282.038885 
L 208.362013 280.267238 
L 210.816437 274.588377 
L 213.27086 277.629516 
L 215.725284 274.842275 
L 218.179707 277.045549 
L 220.634131 274.771748 
L 223.088554 278.13167 
L 225.542977 285.79094 
L 227.997401 282.995236 
L 230.451824 282.462049 
L 232.906248 281.607258 
L 235.360671 275.685782 
L 237.815095 273.355559 
L 240.269518 280.55499 
L 242.723941 284.168811 
L 245.178365 275.200554 
L 247.632788 283.824637 
L 250.087212 281.926041 
L 252.541635 286.789607 
L 254.996059 287.156349 
L 257.450482 286.197177 
L 259.904905 287.23534 
L 262.359329 287.31292 
L 264.813752 293.792972 
L 267.268176 288.376472 
L 269.722599 284.895243 
L 272.177023 283.240671 
L 274.631446 290.317385 
L 277.085869 288.149374 
L 279.540293 290.038096 
L 281.994716 289.816641 
L 284.44914 283.542528 
L 286.903563 294.247874 
L 289.357987 288.518937 
L 291.81241 294.427718 
L 294.266833 291.318873 
L 296.721257 291.166534 
L 299.17568 294.817029 
L 301.630104 292.103137 
L 304.084527 291.819617 
L 306.538951 291.246935 
L 308.993374 293.516505 
L 311.447797 298.749987 
L 313.902221 295.858013 
L 316.356644 296.936376 
L 321.265491 295.601999 
L 323.719915 297.81162 
L 326.174338 297.512584 
L 328.628761 298.84132 
L 331.083185 299.829408 
L 333.537608 300.419369 
L 335.992032 297.261507 
L 338.446455 299.292342 
L 340.900879 301.707727 
L 343.355302 301.171367 
L 345.809725 300.355718 
L 348.264149 300.85558 
L 350.718572 302.047669 
L 353.172996 301.017793 
L 355.627419 302.079494 
L 358.081843 302.033387 
L 360.536266 302.433718 
L 362.990689 302.282437 
L 365.445113 303.065555 
L 367.899536 303.008295 
L 370.35396 303.214566 
L 377.71723 303.399568 
L 380.171653 303.405155 
L 382.626077 303.222192 
L 385.0805 303.439757 
L 387.534924 303.298075 
L 392.443771 303.496411 
L 394.898194 303.469412 
L 397.352617 303.235239 
L 399.807041 303.498565 
L 412.079158 303.405794 
L 421.896852 303.534606 
L 424.351275 303.436727 
L 426.805699 303.515707 
L 431.714545 303.471737 
L 431.714545 303.471737 
" style="fill:none;stroke:#1f77b4;stroke-linecap:square;stroke-width:1.5;"/>
   </g>
   <g id="line2d_16">
    <path clip-path="url(#p52922c31c3)" d="M 66.005455 49.470737 
L 68.459878 91.516319 
L 70.914301 110.564344 
L 73.368725 109.639025 
L 78.277572 149.337456 
L 80.731995 163.35265 
L 83.186419 168.272638 
L 85.640842 174.208219 
L 88.095265 161.975956 
L 90.549689 186.10195 
L 95.458536 204.687316 
L 97.912959 200.850628 
L 100.367383 213.703531 
L 102.821806 214.775547 
L 105.276229 224.649375 
L 107.730653 214.324172 
L 110.185076 229.625784 
L 112.6395 224.638091 
L 115.093923 220.462872 
L 117.548347 228.474778 
L 120.00277 228.384503 
L 122.457193 230.754222 
L 124.911617 233.383481 
L 127.36604 241.733919 
L 129.820464 237.998791 
L 132.274887 242.377128 
L 134.729311 245.237717 
L 139.638157 246.620053 
L 142.092581 242.738228 
L 144.547004 250.011008 
L 147.001428 248.594819 
L 149.455851 257.199155 
L 151.910275 257.577181 
L 154.364698 252.90545 
L 156.819121 245.971202 
L 159.273545 242.693091 
L 161.727968 246.377439 
L 164.182392 248.318352 
L 166.636815 247.607436 
L 169.091239 252.894166 
L 171.545662 255.258242 
L 174.000085 259.258553 
L 176.454509 252.109902 
L 181.363356 257.848006 
L 183.817779 257.413558 
L 186.272203 254.197511 
L 188.726626 258.8636 
L 191.181049 258.570206 
L 193.635473 256.764706 
L 196.089896 266.819084 
L 198.54432 266.599039 
L 200.998743 268.596373 
L 203.453167 258.361445 
L 208.362013 267.569495 
L 210.816437 260.748091 
L 213.27086 269.54144 
L 215.725284 256.364111 
L 218.179707 256.691358 
L 220.634131 265.081291 
L 223.088554 267.202753 
L 225.542977 275.75913 
L 227.997401 267.755687 
L 230.451824 267.293028 
L 232.906248 270.077448 
L 235.360671 259.743781 
L 237.815095 261.024558 
L 240.269518 269.228298 
L 242.723941 271.911159 
L 245.178365 262.29405 
L 247.632788 269.177519 
L 250.087212 270.198755 
L 252.541635 273.730764 
L 254.996059 273.936704 
L 257.450482 264.996658 
L 259.904905 271.183316 
L 262.359329 274.582734 
L 264.813752 279.0852 
L 267.268176 272.382281 
L 269.722599 277.516672 
L 272.177023 267.507431 
L 274.631446 278.642288 
L 277.085869 274.850738 
L 279.540293 275.302113 
L 281.994716 275.149774 
L 284.44914 265.639867 
L 286.903563 279.660703 
L 289.357987 277.237384 
L 291.81241 286.556867 
L 294.266833 280.656549 
L 296.721257 280.732719 
L 299.17568 273.95363 
L 301.630104 281.567762 
L 304.084527 282.112234 
L 306.538951 280.837099 
L 308.993374 287.429995 
L 311.447797 290.097339 
L 313.902221 284.81202 
L 316.356644 286.278989 
L 318.811068 284.749956 
L 321.265491 288.915301 
L 323.719915 289.946411 
L 326.174338 291.901429 
L 328.628761 287.281888 
L 331.083185 291.334389 
L 333.537608 294.606858 
L 335.992032 289.466825 
L 338.446455 294.85864 
L 340.900879 295.24372 
L 343.355302 290.173509 
L 345.809725 294.025712 
L 348.264149 295.390417 
L 350.718572 295.05118 
L 353.172996 295.227498 
L 355.627419 296.293167 
L 358.081843 295.685221 
L 360.536266 297.517521 
L 362.990689 295.70779 
L 365.445113 299.705279 
L 367.899536 298.979906 
L 370.35396 296.928618 
L 372.808383 300.446169 
L 375.262807 300.421485 
L 377.71723 302.362045 
L 380.171653 301.49879 
L 382.626077 302.864376 
L 385.0805 301.868618 
L 387.534924 301.591181 
L 389.989347 301.644429 
L 392.443771 302.262777 
L 394.898194 302.531575 
L 397.352617 301.307837 
L 399.807041 303.28441 
L 402.261464 302.436936 
L 404.715888 302.605981 
L 407.170311 301.39582 
L 409.624735 302.10171 
L 412.079158 303.089578 
L 414.533581 302.810907 
L 416.988005 303.229024 
L 419.442428 303.062778 
L 424.351275 302.935256 
L 426.805699 303.154507 
L 429.260122 302.981539 
L 431.714545 302.602543 
L 431.714545 302.602543 
" style="fill:none;stroke:#ff7f0e;stroke-linecap:square;stroke-width:1.5;"/>
   </g>
   <g id="line2d_17">
    <path clip-path="url(#p52922c31c3)" d="M 66.005455 50.32835 
L 68.459878 91.85485 
L 70.914301 112.07645 
L 73.368725 111.1737 
L 75.823148 127.332925 
L 78.277572 150.669012 
L 80.731995 165.045306 
L 83.186419 169.897587 
L 85.640842 173.215194 
L 88.095265 165.835212 
L 90.549689 188.370109 
L 93.004112 190.920378 
L 95.458536 208.445012 
L 97.912959 197.578159 
L 100.367383 213.263441 
L 102.821806 216.219947 
L 105.276229 224.231853 
L 107.730653 215.847562 
L 110.185076 230.584956 
L 112.6395 225.089466 
L 115.093923 216.355359 
L 117.548347 227.414047 
L 120.00277 230.528534 
L 122.457193 231.262019 
L 124.911617 234.827881 
L 127.36604 243.409648 
L 129.820464 236.667234 
L 132.274887 240.707041 
L 134.729311 243.6974 
L 137.183734 249.085689 
L 139.638157 247.302758 
L 142.092581 244.301114 
L 144.547004 253.971823 
L 147.001428 248.154728 
L 149.455851 252.747469 
L 151.910275 258.609702 
L 154.364698 255.658837 
L 156.819121 243.736895 
L 159.273545 241.76213 
L 161.727968 248.611745 
L 164.182392 248.16037 
L 166.636815 249.091331 
L 169.091239 250.682428 
L 171.545662 252.668478 
L 174.000085 260.099239 
L 176.454509 253.345541 
L 178.908932 256.849339 
L 181.363356 258.073694 
L 183.817779 259.659148 
L 186.272203 253.063431 
L 188.726626 261.57185 
L 191.181049 257.543328 
L 193.635473 255.38237 
L 196.089896 263.670744 
L 198.54432 266.785231 
L 200.998743 268.184494 
L 203.453167 259.924331 
L 205.90759 268.178852 
L 208.362013 268.178852 
L 210.816437 258.846673 
L 213.27086 269.414491 
L 215.725284 259.642222 
L 218.179707 258.203464 
L 220.634131 262.519737 
L 223.088554 265.611656 
L 225.542977 276.086377 
L 227.997401 264.991016 
L 230.451824 270.125406 
L 232.906248 270.937881 
L 235.360671 261.588777 
L 237.815095 257.678741 
L 240.269518 266.463627 
L 242.723941 273.663058 
L 245.178365 263.885147 
L 247.632788 269.538619 
L 252.541635 276.410803 
L 254.996059 272.153773 
L 257.450482 264.816108 
L 259.904905 275.025646 
L 262.359329 273.454297 
L 264.813752 278.377105 
L 267.268176 269.961783 
L 269.722599 275.000256 
L 272.177023 271.045083 
L 274.631446 277.353048 
L 277.085869 276.870641 
L 279.540293 278.549192 
L 281.994716 273.036775 
L 284.44914 263.422487 
L 286.903563 283.127827 
L 289.357987 276.879105 
L 291.81241 284.081357 
L 294.266833 278.64793 
L 296.721257 280.436504 
L 299.17568 271.716503 
L 301.630104 280.729898 
L 304.084527 284.239338 
L 306.538951 280.679118 
L 308.993374 286.762807 
L 311.447797 289.307433 
L 313.902221 282.349205 
L 316.356644 286.967336 
L 318.811068 287.001189 
L 321.265491 289.142399 
L 323.719915 289.66148 
L 326.174338 292.361267 
L 328.628761 286.613289 
L 331.083185 291.957851 
L 333.537608 293.098983 
L 335.992032 290.534609 
L 338.446455 294.538446 
L 340.900879 295.576609 
L 343.355302 288.16489 
L 345.809725 292.922665 
L 348.264149 296.205007 
L 353.172996 295.884813 
L 355.627419 297.286897 
L 358.081843 295.777612 
L 360.536266 295.553335 
L 362.990689 296.680362 
L 365.445113 299.546593 
L 367.899536 300.400679 
L 370.35396 297.885321 
L 372.808383 300.827017 
L 377.71723 302.401937 
L 380.171653 301.921249 
L 382.626077 302.366012 
L 385.0805 301.815193 
L 387.534924 301.380833 
L 389.989347 301.76556 
L 392.443771 302.537041 
L 394.898194 302.806808 
L 397.352617 301.941702 
L 399.807041 303.308389 
L 402.261464 302.616119 
L 404.715888 302.518351 
L 407.170311 301.648837 
L 409.624735 302.53034 
L 412.079158 303.096587 
L 414.533581 302.052429 
L 416.988005 303.12396 
L 419.442428 303.234291 
L 421.896852 303.083275 
L 426.805699 303.036639 
L 429.260122 302.87037 
L 431.714545 302.392107 
L 431.714545 302.392107 
" style="fill:none;stroke:#2ca02c;stroke-linecap:square;stroke-width:1.5;"/>
   </g>
   <g id="line2d_18">
    <path clip-path="url(#p52922c31c3)" d="M 66.005455 39.6759 
L 68.459878 80.886437 
L 70.914301 105.712062 
L 73.368725 102.552437 
L 75.823148 116.025981 
L 78.277572 145.974712 
L 80.731995 159.2 
L 83.186419 158.65835 
L 85.640842 166.015762 
L 88.095265 153.264419 
L 90.549689 180.753156 
L 93.004112 183.664525 
L 95.458536 196.280456 
L 97.912959 190.220747 
L 100.367383 204.901719 
L 102.821806 211.830325 
L 105.276229 221.444613 
L 107.730653 208.918956 
L 110.185076 224.220569 
L 112.6395 224.931484 
L 115.093923 216.2538 
L 117.548347 221.839566 
L 120.00277 227.019094 
L 122.457193 225.010475 
L 124.911617 230.607525 
L 127.36604 240.103327 
L 129.820464 236.339987 
L 132.274887 235.617787 
L 134.729311 241.395387 
L 137.183734 243.82717 
L 139.638157 242.755155 
L 142.092581 241.903184 
L 144.547004 249.159037 
L 147.001428 246.913447 
L 149.455851 254.29907 
L 151.910275 254.022603 
L 154.364698 251.455408 
L 156.819121 244.724278 
L 159.273545 241.829836 
L 161.727968 247.195556 
L 164.182392 249.057478 
L 166.636815 247.43817 
L 169.091239 250.496236 
L 171.545662 256.053791 
L 174.000085 256.318973 
L 176.454509 250.812198 
L 178.908932 250.783987 
L 181.363356 254.417556 
L 183.817779 257.063742 
L 186.272203 251.449766 
L 188.726626 259.264195 
L 191.181049 256.082002 
L 193.635473 255.309022 
L 196.089896 262.88648 
L 198.54432 263.913358 
L 200.998743 267.197111 
L 203.453167 257.024247 
L 205.90759 269.837655 
L 208.362013 264.443723 
L 210.816437 256.324616 
L 213.27086 268.906694 
L 215.725284 254.925353 
L 218.179707 259.061077 
L 220.634131 261.317952 
L 223.088554 262.463316 
L 225.542977 277.197888 
L 227.997401 268.161925 
L 230.451824 265.848628 
L 232.906248 270.210039 
L 237.815095 256.505166 
L 240.269518 268.855914 
L 242.723941 271.468247 
L 245.178365 258.936948 
L 247.632788 270.537286 
L 250.087212 268.455319 
L 252.541635 271.084578 
L 254.996059 271.521848 
L 257.450482 265.527023 
L 259.904905 270.311598 
L 262.359329 271.722145 
L 264.813752 275.623718 
L 267.268176 270.277745 
L 269.722599 275.392388 
L 272.177023 265.769637 
L 274.631446 279.708662 
L 277.085869 275.307755 
L 279.540293 275.519338 
L 281.994716 273.485329 
L 284.44914 267.095552 
L 286.903563 281.119209 
L 289.357987 275.042573 
L 291.81241 285.672454 
L 294.266833 279.979487 
L 296.721257 279.824327 
L 299.17568 273.821039 
L 301.630104 279.237539 
L 304.084527 285.79235 
L 306.538951 280.935837 
L 308.993374 286.2804 
L 311.447797 287.240982 
L 313.902221 284.42412 
L 316.356644 285.947511 
L 318.811068 284.625828 
L 321.265491 287.703641 
L 323.719915 287.926508 
L 326.174338 289.148041 
L 328.628761 287.224055 
L 331.083185 290.757475 
L 333.537608 293.533432 
L 335.992032 288.239649 
L 338.446455 293.492526 
L 340.900879 293.241448 
L 343.355302 288.336977 
L 345.809725 292.103137 
L 348.264149 294.032765 
L 350.718572 293.046793 
L 353.172996 295.845318 
L 355.627419 295.190824 
L 358.081843 293.582801 
L 360.536266 296.148586 
L 362.990689 295.506081 
L 365.445113 298.978848 
L 367.899536 298.490799 
L 370.35396 297.579585 
L 372.808383 299.833463 
L 375.262807 301.408515 
L 380.171653 301.487329 
L 382.626077 301.875582 
L 385.0805 302.020516 
L 387.534924 301.163432 
L 389.989347 300.872683 
L 392.443771 302.191016 
L 394.898194 302.441211 
L 397.352617 301.783191 
L 399.807041 302.87231 
L 402.261464 302.301215 
L 404.715888 302.616516 
L 407.170311 302.111761 
L 409.624735 302.342738 
L 414.533581 303.079881 
L 416.988005 303.121977 
L 419.442428 302.710626 
L 421.896852 302.975765 
L 424.351275 302.784063 
L 426.805699 303.003579 
L 429.260122 302.831668 
L 431.714545 302.092454 
L 431.714545 302.092454 
" style="fill:none;stroke:#d62728;stroke-linecap:square;stroke-width:1.5;"/>
   </g>
   <g id="line2d_19">
    <path clip-path="url(#p52922c31c3)" d="M 66.005455 46.581937 
L 68.459878 86.032112 
L 70.914301 106.29885 
L 73.368725 101.672256 
L 78.277572 138.865556 
L 80.731995 154.302581 
L 83.186419 160.82495 
L 85.640842 168.092087 
L 88.095265 156.604594 
L 90.549689 182.603794 
L 93.004112 185.041219 
L 95.458536 195.434128 
L 97.912959 188.426531 
L 100.367383 200.500812 
L 102.821806 206.583091 
L 105.276229 218.363978 
L 107.730653 206.932906 
L 110.185076 224.175431 
L 112.6395 223.001856 
L 115.093923 213.218303 
L 117.548347 219.526269 
L 120.00277 222.877728 
L 122.457193 221.478466 
L 124.911617 229.828903 
L 127.36604 242.422266 
L 129.820464 231.374862 
L 132.274887 235.234119 
L 134.729311 243.911803 
L 137.183734 244.667856 
L 139.638157 240.300803 
L 142.092581 244.656572 
L 144.547004 249.441147 
L 147.001428 244.83148 
L 149.455851 254.874573 
L 151.910275 254.919711 
L 154.364698 251.201509 
L 156.819121 241.259975 
L 159.273545 240.278234 
L 161.727968 248.662525 
L 164.182392 245.057167 
L 166.636815 250.778345 
L 169.091239 246.394366 
L 171.545662 256.894477 
L 174.000085 256.533377 
L 176.454509 252.420222 
L 178.908932 250.264906 
L 181.363356 257.396631 
L 183.817779 255.184894 
L 186.272203 253.503522 
L 188.726626 256.533377 
L 191.181049 258.835389 
L 193.635473 255.156683 
L 196.089896 264.500145 
L 198.54432 265.662436 
L 200.998743 265.865555 
L 203.453167 254.829436 
L 205.90759 269.476555 
L 208.362013 267.704908 
L 210.816437 257.137091 
L 213.27086 269.798159 
L 215.725284 256.482597 
L 218.179707 258.615344 
L 220.634131 262.265839 
L 223.088554 264.646842 
L 225.542977 274.215992 
L 227.997401 265.431106 
L 230.451824 264.612989 
L 232.906248 271.976044 
L 235.360671 261.154328 
L 237.815095 257.317641 
L 240.269518 266.237939 
L 242.723941 270.322883 
L 245.178365 261.650841 
L 247.632788 268.528667 
L 250.087212 268.043439 
L 252.541635 272.588221 
L 254.996059 272.63618 
L 257.450482 265.961472 
L 259.904905 273.964915 
L 262.359329 273.175009 
L 264.813752 275.206196 
L 267.268176 274.709684 
L 269.722599 277.085045 
L 272.177023 268.630227 
L 274.631446 277.570273 
L 277.085869 276.808577 
L 279.540293 274.633514 
L 281.994716 277.527956 
L 284.44914 266.85858 
L 286.903563 281.206662 
L 289.357987 275.003077 
L 291.81241 284.91358 
L 294.266833 276.743692 
L 296.721257 276.190758 
L 299.17568 271.19178 
L 301.630104 279.00903 
L 304.084527 284.995391 
L 306.538951 282.289963 
L 308.993374 286.05048 
L 311.447797 289.012629 
L 313.902221 279.60146 
L 316.356644 286.331179 
L 318.811068 287.099927 
L 321.265491 288.592286 
L 323.719915 288.123984 
L 326.174338 290.599494 
L 328.628761 285.285964 
L 331.083185 288.456873 
L 333.537608 293.568695 
L 335.992032 289.562742 
L 338.446455 293.582801 
L 340.900879 294.203441 
L 343.355302 286.809355 
L 345.809725 292.438847 
L 348.264149 294.132914 
L 350.718572 294.202031 
L 353.172996 297.433594 
L 355.627419 296.094279 
L 358.081843 292.877527 
L 360.536266 298.161083 
L 362.990689 295.381248 
L 365.445113 299.791675 
L 367.899536 299.419644 
L 370.35396 297.064736 
L 372.808383 300.06109 
L 375.262807 302.266304 
L 377.71723 302.058336 
L 380.171653 301.708697 
L 382.626077 302.201242 
L 385.0805 302.076056 
L 387.534924 300.698657 
L 389.989347 301.147211 
L 392.443771 302.133889 
L 394.898194 302.242413 
L 397.352617 301.803292 
L 399.807041 303.124004 
L 402.261464 302.057543 
L 404.715888 302.930583 
L 407.170311 302.591347 
L 409.624735 302.385142 
L 414.533581 302.470436 
L 416.988005 303.319343 
L 419.442428 302.997628 
L 421.896852 303.038666 
L 424.351275 302.825674 
L 426.805699 303.369858 
L 429.260122 303.025927 
L 431.714545 302.036208 
L 431.714545 302.036208 
" style="fill:none;stroke:#9467bd;stroke-linecap:square;stroke-width:1.5;"/>
   </g>
   <g id="patch_3">
    <path d="M 47.72 303.64 
L 47.72 14.76 
" style="fill:none;stroke:#000000;stroke-linecap:square;stroke-linejoin:miter;stroke-width:0.8;"/>
   </g>
   <g id="patch_4">
    <path d="M 450 303.64 
L 450 14.76 
" style="fill:none;stroke:#000000;stroke-linecap:square;stroke-linejoin:miter;stroke-width:0.8;"/>
   </g>
   <g id="patch_5">
    <path d="M 47.72 303.64 
L 450 303.64 
" style="fill:none;stroke:#000000;stroke-linecap:square;stroke-linejoin:miter;stroke-width:0.8;"/>
   </g>
   <g id="patch_6">
    <path d="M 47.72 14.76 
L 450 14.76 
" style="fill:none;stroke:#000000;stroke-linecap:square;stroke-linejoin:miter;stroke-width:0.8;"/>
   </g>
   <g id="legend_1">
    <g id="patch_7">
     <path d="M 282.65625 96.150625 
L 443 96.150625 
Q 445 96.150625 445 94.150625 
L 445 21.76 
Q 445 19.76 443 19.76 
L 282.65625 19.76 
Q 280.65625 19.76 280.65625 21.76 
L 280.65625 94.150625 
Q 280.65625 96.150625 282.65625 96.150625 
z
" style="fill:#ffffff;opacity:0.8;stroke:#cccccc;stroke-linejoin:miter;"/>
    </g>
    <g id="line2d_20">
     <path d="M 284.65625 27.858437 
L 304.65625 27.858437 
" style="fill:none;stroke:#1f77b4;stroke-linecap:square;stroke-width:1.5;"/>
    </g>
    <g id="line2d_21"/>
    <g id="text_17">
     <!-- AllReduce SGD -->
     <g transform="translate(312.65625 31.358437)scale(0.1 -0.1)">
      <defs>
       <path d="M 34.1875 63.1875 
L 20.796875 26.90625 
L 47.609375 26.90625 
z
M 28.609375 72.90625 
L 39.796875 72.90625 
L 67.578125 0 
L 57.328125 0 
L 50.6875 18.703125 
L 17.828125 18.703125 
L 11.1875 0 
L 0.78125 0 
z
" id="DejaVuSans-65"/>
       <path d="M 9.421875 75.984375 
L 18.40625 75.984375 
L 18.40625 0 
L 9.421875 0 
z
" id="DejaVuSans-108"/>
       <path d="M 44.390625 34.1875 
Q 47.5625 33.109375 50.5625 29.59375 
Q 53.5625 26.078125 56.59375 19.921875 
L 66.609375 0 
L 56 0 
L 46.6875 18.703125 
Q 43.0625 26.03125 39.671875 28.421875 
Q 36.28125 30.8125 30.421875 30.8125 
L 19.671875 30.8125 
L 19.671875 0 
L 9.8125 0 
L 9.8125 72.90625 
L 32.078125 72.90625 
Q 44.578125 72.90625 50.734375 67.671875 
Q 56.890625 62.453125 56.890625 51.90625 
Q 56.890625 45.015625 53.6875 40.46875 
Q 50.484375 35.9375 44.390625 34.1875 
z
M 19.671875 64.796875 
L 19.671875 38.921875 
L 32.078125 38.921875 
Q 39.203125 38.921875 42.84375 42.21875 
Q 46.484375 45.515625 46.484375 51.90625 
Q 46.484375 58.296875 42.84375 61.546875 
Q 39.203125 64.796875 32.078125 64.796875 
z
" id="DejaVuSans-82"/>
       <path d="M 56.203125 29.59375 
L 56.203125 25.203125 
L 14.890625 25.203125 
Q 15.484375 15.921875 20.484375 11.0625 
Q 25.484375 6.203125 34.421875 6.203125 
Q 39.59375 6.203125 44.453125 7.46875 
Q 49.3125 8.734375 54.109375 11.28125 
L 54.109375 2.78125 
Q 49.265625 0.734375 44.1875 -0.34375 
Q 39.109375 -1.421875 33.890625 -1.421875 
Q 20.796875 -1.421875 13.15625 6.1875 
Q 5.515625 13.8125 5.515625 26.8125 
Q 5.515625 40.234375 12.765625 48.109375 
Q 20.015625 56 32.328125 56 
Q 43.359375 56 49.78125 48.890625 
Q 56.203125 41.796875 56.203125 29.59375 
z
M 47.21875 32.234375 
Q 47.125 39.59375 43.09375 43.984375 
Q 39.0625 48.390625 32.421875 48.390625 
Q 24.90625 48.390625 20.390625 44.140625 
Q 15.875 39.890625 15.1875 32.171875 
z
" id="DejaVuSans-101"/>
       <path d="M 45.40625 46.390625 
L 45.40625 75.984375 
L 54.390625 75.984375 
L 54.390625 0 
L 45.40625 0 
L 45.40625 8.203125 
Q 42.578125 3.328125 38.25 0.953125 
Q 33.9375 -1.421875 27.875 -1.421875 
Q 17.96875 -1.421875 11.734375 6.484375 
Q 5.515625 14.40625 5.515625 27.296875 
Q 5.515625 40.1875 11.734375 48.09375 
Q 17.96875 56 27.875 56 
Q 33.9375 56 38.25 53.625 
Q 42.578125 51.265625 45.40625 46.390625 
z
M 14.796875 27.296875 
Q 14.796875 17.390625 18.875 11.75 
Q 22.953125 6.109375 30.078125 6.109375 
Q 37.203125 6.109375 41.296875 11.75 
Q 45.40625 17.390625 45.40625 27.296875 
Q 45.40625 37.203125 41.296875 42.84375 
Q 37.203125 48.484375 30.078125 48.484375 
Q 22.953125 48.484375 18.875 42.84375 
Q 14.796875 37.203125 14.796875 27.296875 
z
" id="DejaVuSans-100"/>
       <path d="M 8.5 21.578125 
L 8.5 54.6875 
L 17.484375 54.6875 
L 17.484375 21.921875 
Q 17.484375 14.15625 20.5 10.265625 
Q 23.53125 6.390625 29.59375 6.390625 
Q 36.859375 6.390625 41.078125 11.03125 
Q 45.3125 15.671875 45.3125 23.6875 
L 45.3125 54.6875 
L 54.296875 54.6875 
L 54.296875 0 
L 45.3125 0 
L 45.3125 8.40625 
Q 42.046875 3.421875 37.71875 1 
Q 33.40625 -1.421875 27.6875 -1.421875 
Q 18.265625 -1.421875 13.375 4.4375 
Q 8.5 10.296875 8.5 21.578125 
z
M 31.109375 56 
z
" id="DejaVuSans-117"/>
       <path id="DejaVuSans-32"/>
       <path d="M 53.515625 70.515625 
L 53.515625 60.890625 
Q 47.90625 63.578125 42.921875 64.890625 
Q 37.9375 66.21875 33.296875 66.21875 
Q 25.25 66.21875 20.875 63.09375 
Q 16.5 59.96875 16.5 54.203125 
Q 16.5 49.359375 19.40625 46.890625 
Q 22.3125 44.4375 30.421875 42.921875 
L 36.375 41.703125 
Q 47.40625 39.59375 52.65625 34.296875 
Q 57.90625 29 57.90625 20.125 
Q 57.90625 9.515625 50.796875 4.046875 
Q 43.703125 -1.421875 29.984375 -1.421875 
Q 24.8125 -1.421875 18.96875 -0.25 
Q 13.140625 0.921875 6.890625 3.21875 
L 6.890625 13.375 
Q 12.890625 10.015625 18.65625 8.296875 
Q 24.421875 6.59375 29.984375 6.59375 
Q 38.421875 6.59375 43.015625 9.90625 
Q 47.609375 13.234375 47.609375 19.390625 
Q 47.609375 24.75 44.3125 27.78125 
Q 41.015625 30.8125 33.5 32.328125 
L 27.484375 33.5 
Q 16.453125 35.6875 11.515625 40.375 
Q 6.59375 45.0625 6.59375 53.421875 
Q 6.59375 63.09375 13.40625 68.65625 
Q 20.21875 74.21875 32.171875 74.21875 
Q 37.3125 74.21875 42.625 73.28125 
Q 47.953125 72.359375 53.515625 70.515625 
z
" id="DejaVuSans-83"/>
       <path d="M 59.515625 10.40625 
L 59.515625 29.984375 
L 43.40625 29.984375 
L 43.40625 38.09375 
L 69.28125 38.09375 
L 69.28125 6.78125 
Q 63.578125 2.734375 56.6875 0.65625 
Q 49.8125 -1.421875 42 -1.421875 
Q 24.90625 -1.421875 15.25 8.5625 
Q 5.609375 18.5625 5.609375 36.375 
Q 5.609375 54.25 15.25 64.234375 
Q 24.90625 74.21875 42 74.21875 
Q 49.125 74.21875 55.546875 72.453125 
Q 61.96875 70.703125 67.390625 67.28125 
L 67.390625 56.78125 
Q 61.921875 61.421875 55.765625 63.765625 
Q 49.609375 66.109375 42.828125 66.109375 
Q 29.4375 66.109375 22.71875 58.640625 
Q 16.015625 51.171875 16.015625 36.375 
Q 16.015625 21.625 22.71875 14.15625 
Q 29.4375 6.6875 42.828125 6.6875 
Q 48.046875 6.6875 52.140625 7.59375 
Q 56.25 8.5 59.515625 10.40625 
z
" id="DejaVuSans-71"/>
       <path d="M 19.671875 64.796875 
L 19.671875 8.109375 
L 31.59375 8.109375 
Q 46.6875 8.109375 53.6875 14.9375 
Q 60.6875 21.78125 60.6875 36.53125 
Q 60.6875 51.171875 53.6875 57.984375 
Q 46.6875 64.796875 31.59375 64.796875 
z
M 9.8125 72.90625 
L 30.078125 72.90625 
Q 51.265625 72.90625 61.171875 64.09375 
Q 71.09375 55.28125 71.09375 36.53125 
Q 71.09375 17.671875 61.125 8.828125 
Q 51.171875 0 30.078125 0 
L 9.8125 0 
z
" id="DejaVuSans-68"/>
      </defs>
      <use xlink:href="#DejaVuSans-65"/>
      <use x="68.408203" xlink:href="#DejaVuSans-108"/>
      <use x="96.191406" xlink:href="#DejaVuSans-108"/>
      <use x="123.974609" xlink:href="#DejaVuSans-82"/>
      <use x="188.957031" xlink:href="#DejaVuSans-101"/>
      <use x="250.480469" xlink:href="#DejaVuSans-100"/>
      <use x="313.957031" xlink:href="#DejaVuSans-117"/>
      <use x="377.335938" xlink:href="#DejaVuSans-99"/>
      <use x="432.316406" xlink:href="#DejaVuSans-101"/>
      <use x="493.839844" xlink:href="#DejaVuSans-32"/>
      <use x="525.626953" xlink:href="#DejaVuSans-83"/>
      <use x="589.103516" xlink:href="#DejaVuSans-71"/>
      <use x="666.59375" xlink:href="#DejaVuSans-68"/>
     </g>
    </g>
    <g id="line2d_22">
     <path d="M 284.65625 42.536563 
L 304.65625 42.536563 
" style="fill:none;stroke:#ff7f0e;stroke-linecap:square;stroke-width:1.5;"/>
    </g>
    <g id="line2d_23"/>
    <g id="text_18">
     <!-- GRandK-MN-TS (8,12) bits -->
     <g transform="translate(312.65625 46.036563)scale(0.1 -0.1)">
      <defs>
       <path d="M 34.28125 27.484375 
Q 23.390625 27.484375 19.1875 25 
Q 14.984375 22.515625 14.984375 16.5 
Q 14.984375 11.71875 18.140625 8.90625 
Q 21.296875 6.109375 26.703125 6.109375 
Q 34.1875 6.109375 38.703125 11.40625 
Q 43.21875 16.703125 43.21875 25.484375 
L 43.21875 27.484375 
z
M 52.203125 31.203125 
L 52.203125 0 
L 43.21875 0 
L 43.21875 8.296875 
Q 40.140625 3.328125 35.546875 0.953125 
Q 30.953125 -1.421875 24.3125 -1.421875 
Q 15.921875 -1.421875 10.953125 3.296875 
Q 6 8.015625 6 15.921875 
Q 6 25.140625 12.171875 29.828125 
Q 18.359375 34.515625 30.609375 34.515625 
L 43.21875 34.515625 
L 43.21875 35.40625 
Q 43.21875 41.609375 39.140625 45 
Q 35.0625 48.390625 27.6875 48.390625 
Q 23 48.390625 18.546875 47.265625 
Q 14.109375 46.140625 10.015625 43.890625 
L 10.015625 52.203125 
Q 14.9375 54.109375 19.578125 55.046875 
Q 24.21875 56 28.609375 56 
Q 40.484375 56 46.34375 49.84375 
Q 52.203125 43.703125 52.203125 31.203125 
z
" id="DejaVuSans-97"/>
       <path d="M 54.890625 33.015625 
L 54.890625 0 
L 45.90625 0 
L 45.90625 32.71875 
Q 45.90625 40.484375 42.875 44.328125 
Q 39.84375 48.1875 33.796875 48.1875 
Q 26.515625 48.1875 22.3125 43.546875 
Q 18.109375 38.921875 18.109375 30.90625 
L 18.109375 0 
L 9.078125 0 
L 9.078125 54.6875 
L 18.109375 54.6875 
L 18.109375 46.1875 
Q 21.34375 51.125 25.703125 53.5625 
Q 30.078125 56 35.796875 56 
Q 45.21875 56 50.046875 50.171875 
Q 54.890625 44.34375 54.890625 33.015625 
z
" id="DejaVuSans-110"/>
       <path d="M 9.8125 72.90625 
L 19.671875 72.90625 
L 19.671875 42.09375 
L 52.390625 72.90625 
L 65.09375 72.90625 
L 28.90625 38.921875 
L 67.671875 0 
L 54.6875 0 
L 19.671875 35.109375 
L 19.671875 0 
L 9.8125 0 
z
" id="DejaVuSans-75"/>
       <path d="M 4.890625 31.390625 
L 31.203125 31.390625 
L 31.203125 23.390625 
L 4.890625 23.390625 
z
" id="DejaVuSans-45"/>
       <path d="M 9.8125 72.90625 
L 24.515625 72.90625 
L 43.109375 23.296875 
L 61.8125 72.90625 
L 76.515625 72.90625 
L 76.515625 0 
L 66.890625 0 
L 66.890625 64.015625 
L 48.09375 14.015625 
L 38.1875 14.015625 
L 19.390625 64.015625 
L 19.390625 0 
L 9.8125 0 
z
" id="DejaVuSans-77"/>
       <path d="M 9.8125 72.90625 
L 23.09375 72.90625 
L 55.421875 11.921875 
L 55.421875 72.90625 
L 64.984375 72.90625 
L 64.984375 0 
L 51.703125 0 
L 19.390625 60.984375 
L 19.390625 0 
L 9.8125 0 
z
" id="DejaVuSans-78"/>
       <path d="M -0.296875 72.90625 
L 61.375 72.90625 
L 61.375 64.59375 
L 35.5 64.59375 
L 35.5 0 
L 25.59375 0 
L 25.59375 64.59375 
L -0.296875 64.59375 
z
" id="DejaVuSans-84"/>
       <path d="M 31 75.875 
Q 24.46875 64.65625 21.28125 53.65625 
Q 18.109375 42.671875 18.109375 31.390625 
Q 18.109375 20.125 21.3125 9.0625 
Q 24.515625 -2 31 -13.1875 
L 23.1875 -13.1875 
Q 15.875 -1.703125 12.234375 9.375 
Q 8.59375 20.453125 8.59375 31.390625 
Q 8.59375 42.28125 12.203125 53.3125 
Q 15.828125 64.359375 23.1875 75.875 
z
" id="DejaVuSans-40"/>
       <path d="M 11.71875 12.40625 
L 22.015625 12.40625 
L 22.015625 4 
L 14.015625 -11.625 
L 7.71875 -11.625 
L 11.71875 4 
z
" id="DejaVuSans-44"/>
       <path d="M 8.015625 75.875 
L 15.828125 75.875 
Q 23.140625 64.359375 26.78125 53.3125 
Q 30.421875 42.28125 30.421875 31.390625 
Q 30.421875 20.453125 26.78125 9.375 
Q 23.140625 -1.703125 15.828125 -13.1875 
L 8.015625 -13.1875 
Q 14.5 -2 17.703125 9.0625 
Q 20.90625 20.125 20.90625 31.390625 
Q 20.90625 42.671875 17.703125 53.65625 
Q 14.5 64.65625 8.015625 75.875 
z
" id="DejaVuSans-41"/>
       <path d="M 48.6875 27.296875 
Q 48.6875 37.203125 44.609375 42.84375 
Q 40.53125 48.484375 33.40625 48.484375 
Q 26.265625 48.484375 22.1875 42.84375 
Q 18.109375 37.203125 18.109375 27.296875 
Q 18.109375 17.390625 22.1875 11.75 
Q 26.265625 6.109375 33.40625 6.109375 
Q 40.53125 6.109375 44.609375 11.75 
Q 48.6875 17.390625 48.6875 27.296875 
z
M 18.109375 46.390625 
Q 20.953125 51.265625 25.265625 53.625 
Q 29.59375 56 35.59375 56 
Q 45.5625 56 51.78125 48.09375 
Q 58.015625 40.1875 58.015625 27.296875 
Q 58.015625 14.40625 51.78125 6.484375 
Q 45.5625 -1.421875 35.59375 -1.421875 
Q 29.59375 -1.421875 25.265625 0.953125 
Q 20.953125 3.328125 18.109375 8.203125 
L 18.109375 0 
L 9.078125 0 
L 9.078125 75.984375 
L 18.109375 75.984375 
z
" id="DejaVuSans-98"/>
       <path d="M 9.421875 54.6875 
L 18.40625 54.6875 
L 18.40625 0 
L 9.421875 0 
z
M 9.421875 75.984375 
L 18.40625 75.984375 
L 18.40625 64.59375 
L 9.421875 64.59375 
z
" id="DejaVuSans-105"/>
       <path d="M 18.3125 70.21875 
L 18.3125 54.6875 
L 36.8125 54.6875 
L 36.8125 47.703125 
L 18.3125 47.703125 
L 18.3125 18.015625 
Q 18.3125 11.328125 20.140625 9.421875 
Q 21.96875 7.515625 27.59375 7.515625 
L 36.8125 7.515625 
L 36.8125 0 
L 27.59375 0 
Q 17.1875 0 13.234375 3.875 
Q 9.28125 7.765625 9.28125 18.015625 
L 9.28125 47.703125 
L 2.6875 47.703125 
L 2.6875 54.6875 
L 9.28125 54.6875 
L 9.28125 70.21875 
z
" id="DejaVuSans-116"/>
      </defs>
      <use xlink:href="#DejaVuSans-71"/>
      <use x="77.490234" xlink:href="#DejaVuSans-82"/>
      <use x="144.722656" xlink:href="#DejaVuSans-97"/>
      <use x="206.001953" xlink:href="#DejaVuSans-110"/>
      <use x="269.380859" xlink:href="#DejaVuSans-100"/>
      <use x="332.857422" xlink:href="#DejaVuSans-75"/>
      <use x="387.933594" xlink:href="#DejaVuSans-45"/>
      <use x="424.017578" xlink:href="#DejaVuSans-77"/>
      <use x="510.296875" xlink:href="#DejaVuSans-78"/>
      <use x="585.101562" xlink:href="#DejaVuSans-45"/>
      <use x="612.060547" xlink:href="#DejaVuSans-84"/>
      <use x="673.144531" xlink:href="#DejaVuSans-83"/>
      <use x="736.621094" xlink:href="#DejaVuSans-32"/>
      <use x="768.408203" xlink:href="#DejaVuSans-40"/>
      <use x="807.421875" xlink:href="#DejaVuSans-56"/>
      <use x="871.044922" xlink:href="#DejaVuSans-44"/>
      <use x="902.832031" xlink:href="#DejaVuSans-49"/>
      <use x="966.455078" xlink:href="#DejaVuSans-50"/>
      <use x="1030.078125" xlink:href="#DejaVuSans-41"/>
      <use x="1069.091797" xlink:href="#DejaVuSans-32"/>
      <use x="1100.878906" xlink:href="#DejaVuSans-98"/>
      <use x="1164.355469" xlink:href="#DejaVuSans-105"/>
      <use x="1192.138672" xlink:href="#DejaVuSans-116"/>
      <use x="1231.347656" xlink:href="#DejaVuSans-115"/>
     </g>
    </g>
    <g id="line2d_24">
     <path d="M 284.65625 57.214687 
L 304.65625 57.214687 
" style="fill:none;stroke:#2ca02c;stroke-linecap:square;stroke-width:1.5;"/>
    </g>
    <g id="line2d_25"/>
    <g id="text_19">
     <!-- GRandK-MN-TS (6,10) bits -->
     <g transform="translate(312.65625 60.714687)scale(0.1 -0.1)">
      <use xlink:href="#DejaVuSans-71"/>
      <use x="77.490234" xlink:href="#DejaVuSans-82"/>
      <use x="144.722656" xlink:href="#DejaVuSans-97"/>
      <use x="206.001953" xlink:href="#DejaVuSans-110"/>
      <use x="269.380859" xlink:href="#DejaVuSans-100"/>
      <use x="332.857422" xlink:href="#DejaVuSans-75"/>
      <use x="387.933594" xlink:href="#DejaVuSans-45"/>
      <use x="424.017578" xlink:href="#DejaVuSans-77"/>
      <use x="510.296875" xlink:href="#DejaVuSans-78"/>
      <use x="585.101562" xlink:href="#DejaVuSans-45"/>
      <use x="612.060547" xlink:href="#DejaVuSans-84"/>
      <use x="673.144531" xlink:href="#DejaVuSans-83"/>
      <use x="736.621094" xlink:href="#DejaVuSans-32"/>
      <use x="768.408203" xlink:href="#DejaVuSans-40"/>
      <use x="807.421875" xlink:href="#DejaVuSans-54"/>
      <use x="871.044922" xlink:href="#DejaVuSans-44"/>
      <use x="902.832031" xlink:href="#DejaVuSans-49"/>
      <use x="966.455078" xlink:href="#DejaVuSans-48"/>
      <use x="1030.078125" xlink:href="#DejaVuSans-41"/>
      <use x="1069.091797" xlink:href="#DejaVuSans-32"/>
      <use x="1100.878906" xlink:href="#DejaVuSans-98"/>
      <use x="1164.355469" xlink:href="#DejaVuSans-105"/>
      <use x="1192.138672" xlink:href="#DejaVuSans-116"/>
      <use x="1231.347656" xlink:href="#DejaVuSans-115"/>
     </g>
    </g>
    <g id="line2d_26">
     <path d="M 284.65625 71.892812 
L 304.65625 71.892812 
" style="fill:none;stroke:#d62728;stroke-linecap:square;stroke-width:1.5;"/>
    </g>
    <g id="line2d_27"/>
    <g id="text_20">
     <!-- GRandK-MN-TS (4,8) bits -->
     <g transform="translate(312.65625 75.392812)scale(0.1 -0.1)">
      <use xlink:href="#DejaVuSans-71"/>
      <use x="77.490234" xlink:href="#DejaVuSans-82"/>
      <use x="144.722656" xlink:href="#DejaVuSans-97"/>
      <use x="206.001953" xlink:href="#DejaVuSans-110"/>
      <use x="269.380859" xlink:href="#DejaVuSans-100"/>
      <use x="332.857422" xlink:href="#DejaVuSans-75"/>
      <use x="387.933594" xlink:href="#DejaVuSans-45"/>
      <use x="424.017578" xlink:href="#DejaVuSans-77"/>
      <use x="510.296875" xlink:href="#DejaVuSans-78"/>
      <use x="585.101562" xlink:href="#DejaVuSans-45"/>
      <use x="612.060547" xlink:href="#DejaVuSans-84"/>
      <use x="673.144531" xlink:href="#DejaVuSans-83"/>
      <use x="736.621094" xlink:href="#DejaVuSans-32"/>
      <use x="768.408203" xlink:href="#DejaVuSans-40"/>
      <use x="807.421875" xlink:href="#DejaVuSans-52"/>
      <use x="871.044922" xlink:href="#DejaVuSans-44"/>
      <use x="902.832031" xlink:href="#DejaVuSans-56"/>
      <use x="966.455078" xlink:href="#DejaVuSans-41"/>
      <use x="1005.46875" xlink:href="#DejaVuSans-32"/>
      <use x="1037.255859" xlink:href="#DejaVuSans-98"/>
      <use x="1100.732422" xlink:href="#DejaVuSans-105"/>
      <use x="1128.515625" xlink:href="#DejaVuSans-116"/>
      <use x="1167.724609" xlink:href="#DejaVuSans-115"/>
     </g>
    </g>
    <g id="line2d_28">
     <path d="M 284.65625 86.570937 
L 304.65625 86.570937 
" style="fill:none;stroke:#9467bd;stroke-linecap:square;stroke-width:1.5;"/>
    </g>
    <g id="line2d_29"/>
    <g id="text_21">
     <!-- GRandK-MN-TS (2,6) bits -->
     <g transform="translate(312.65625 90.070937)scale(0.1 -0.1)">
      <use xlink:href="#DejaVuSans-71"/>
      <use x="77.490234" xlink:href="#DejaVuSans-82"/>
      <use x="144.722656" xlink:href="#DejaVuSans-97"/>
      <use x="206.001953" xlink:href="#DejaVuSans-110"/>
      <use x="269.380859" xlink:href="#DejaVuSans-100"/>
      <use x="332.857422" xlink:href="#DejaVuSans-75"/>
      <use x="387.933594" xlink:href="#DejaVuSans-45"/>
      <use x="424.017578" xlink:href="#DejaVuSans-77"/>
      <use x="510.296875" xlink:href="#DejaVuSans-78"/>
      <use x="585.101562" xlink:href="#DejaVuSans-45"/>
      <use x="612.060547" xlink:href="#DejaVuSans-84"/>
      <use x="673.144531" xlink:href="#DejaVuSans-83"/>
      <use x="736.621094" xlink:href="#DejaVuSans-32"/>
      <use x="768.408203" xlink:href="#DejaVuSans-40"/>
      <use x="807.421875" xlink:href="#DejaVuSans-50"/>
      <use x="871.044922" xlink:href="#DejaVuSans-44"/>
      <use x="902.832031" xlink:href="#DejaVuSans-54"/>
      <use x="966.455078" xlink:href="#DejaVuSans-41"/>
      <use x="1005.46875" xlink:href="#DejaVuSans-32"/>
      <use x="1037.255859" xlink:href="#DejaVuSans-98"/>
      <use x="1100.732422" xlink:href="#DejaVuSans-105"/>
      <use x="1128.515625" xlink:href="#DejaVuSans-116"/>
      <use x="1167.724609" xlink:href="#DejaVuSans-115"/>
     </g>
    </g>
   </g>
  </g>
 </g>
 <defs>
  <clipPath id="p52922c31c3">
   <rect height="288.88" width="402.28" x="47.72" y="14.76"/>
  </clipPath>
 </defs>
</svg>
