<?xml version="1.0" encoding="utf-8" standalone="no"?>
<!DOCTYPE svg PUBLIC "-//W3C//DTD SVG 1.1//EN"
  "http://www.w3.org/Graphics/SVG/1.1/DTD/svg11.dtd">
<!-- Created with matplotlib (https://matplotlib.org/) -->
<svg height="345.6pt" version="1.1" viewBox="0 0 460.8 345.6" width="460.8pt" xmlns="http://www.w3.org/2000/svg" xmlns:xlink="http://www.w3.org/1999/xlink">
 <metadata>
  <rdf:RDF xmlns:cc="http://creativecommons.org/ns#" xmlns:dc="http://purl.org/dc/elements/1.1/" xmlns:rdf="http://www.w3.org/1999/02/22-rdf-syntax-ns#">
   <cc:Work>
    <dc:type rdf:resource="http://purl.org/dc/dcmitype/StillImage"/>
    <dc:date>2021-06-10T08:56:49.191276</dc:date>
    <dc:format>image/svg+xml</dc:format>
    <dc:creator>
     <cc:Agent>
      <dc:title>Matplotlib v3.3.1, https://matplotlib.org/</dc:title>
     </cc:Agent>
    </dc:creator>
   </cc:Work>
  </rdf:RDF>
 </metadata>
 <defs>
  <style type="text/css">*{stroke-linecap:butt;stroke-linejoin:round;}</style>
 </defs>
 <g id="figure_1">
  <g id="patch_1">
   <path d="M 0 345.6 
L 460.8 345.6 
L 460.8 0 
L 0 0 
z
" style="fill:#ffffff;"/>
  </g>
  <g id="axes_1">
   <g id="patch_2">
    <path d="M 47.72 303.64 
L 449.571552 303.64 
L 449.571552 14.76 
L 47.72 14.76 
z
" style="fill:#ffffff;"/>
   </g>
   <g id="PolyCollection_1">
    <path clip-path="url(#paecdc8e618)" d="M 66.174019 40.802604 
L 66.174019 41.979646 
L 68.602903 88.835256 
L 71.111003 97.781353 
L 73.578347 104.679396 
L 76.054694 137.331326 
L 78.557792 187.413644 
L 81.03515 210.747209 
L 83.45526 217.046819 
L 85.852084 220.342012 
L 88.288608 217.943777 
L 90.670219 232.784613 
L 93.065139 247.040387 
L 95.510791 248.401217 
L 97.950653 244.612147 
L 100.414913 252.706133 
L 102.944581 249.178948 
L 105.421836 261.045668 
L 107.837815 252.918326 
L 110.269543 258.530559 
L 112.667606 259.887104 
L 115.169222 254.603387 
L 117.645479 251.628373 
L 120.037587 273.554631 
L 122.509609 254.628374 
L 124.934231 260.513619 
L 127.40872 268.696328 
L 129.853173 267.360066 
L 132.305522 263.336193 
L 134.713255 266.840207 
L 137.134023 274.884038 
L 139.567644 271.540501 
L 141.982561 275.373504 
L 144.436018 278.649971 
L 146.892531 269.765859 
L 149.305153 278.424915 
L 151.791998 275.442379 
L 154.248247 279.617393 
L 156.722359 275.108966 
L 159.191842 272.163921 
L 161.647346 273.810945 
L 164.19753 280.528634 
L 166.646374 275.20428 
L 169.087599 281.171338 
L 171.578502 275.302152 
L 174.007298 285.473329 
L 176.454617 278.549751 
L 178.867915 280.372394 
L 181.338858 280.046105 
L 183.743047 278.381856 
L 186.116025 282.357637 
L 188.554261 280.808635 
L 191.017925 283.514675 
L 193.432694 278.759053 
L 195.900483 284.210639 
L 198.300339 288.87576 
L 200.762889 283.989354 
L 203.160334 281.284608 
L 205.572784 288.672529 
L 208.014386 286.928243 
L 210.447687 280.494637 
L 212.939572 288.957053 
L 215.397316 284.022315 
L 217.813792 279.623706 
L 220.279629 284.198743 
L 222.746596 283.593715 
L 225.247417 293.320146 
L 227.683641 290.608574 
L 230.129757 288.021026 
L 232.556879 290.415334 
L 235.00691 286.410395 
L 237.450695 281.789816 
L 239.889962 290.624992 
L 242.310946 290.648159 
L 244.798433 283.061849 
L 247.23449 289.251348 
L 249.650269 287.381949 
L 252.068359 293.429749 
L 254.499451 292.593902 
L 256.960566 290.986944 
L 259.423808 292.699345 
L 261.92492 291.820514 
L 264.423354 292.286056 
L 266.872924 290.71529 
L 269.301699 291.551953 
L 271.811359 288.34608 
L 274.273624 294.023946 
L 276.719828 292.325256 
L 279.085487 289.062324 
L 281.532727 293.844748 
L 284.027613 290.704628 
L 286.485766 293.892858 
L 288.950258 292.171733 
L 291.453289 296.149879 
L 293.883317 293.350941 
L 296.298225 294.501036 
L 298.703565 296.101413 
L 301.111017 295.814309 
L 303.55469 295.777691 
L 306.072028 297.33294 
L 308.514124 296.47463 
L 310.952887 298.976097 
L 313.437635 299.010856 
L 315.906622 298.374279 
L 318.359102 297.417501 
L 320.800084 300.308499 
L 323.269574 300.549981 
L 325.78677 300.84698 
L 328.306046 298.837703 
L 330.788553 301.91931 
L 333.221265 301.929774 
L 335.657044 301.439175 
L 338.108491 302.125021 
L 340.575675 303.263883 
L 343.066769 301.355604 
L 345.493411 302.820925 
L 347.925702 302.384463 
L 350.380531 303.299534 
L 352.773431 302.206533 
L 355.280856 303.078695 
L 357.763708 302.751963 
L 360.232136 302.242961 
L 362.707405 302.533382 
L 365.182014 303.214266 
L 367.571579 302.86998 
L 369.997917 302.754907 
L 372.453819 303.150657 
L 374.898327 303.476913 
L 377.349779 303.549472 
L 379.754191 303.540276 
L 382.183388 303.502376 
L 384.640058 303.489701 
L 387.131876 303.540081 
L 389.58616 303.545249 
L 392.08506 303.601142 
L 394.530214 303.645018 
L 397.019339 303.580732 
L 399.498403 303.591333 
L 401.948952 303.538841 
L 404.411049 303.541157 
L 406.808827 303.546406 
L 409.344683 303.570919 
L 411.769422 303.543187 
L 414.179477 303.616341 
L 416.617349 303.604025 
L 419.040106 303.568074 
L 421.460652 303.56903 
L 423.952706 303.553094 
L 426.447209 303.551858 
L 428.91305 303.596247 
L 431.305573 303.544533 
L 431.305573 303.512843 
L 431.305573 303.512843 
L 428.91305 303.378766 
L 426.447209 303.50521 
L 423.952706 303.488589 
L 421.460652 303.462184 
L 419.040106 303.393914 
L 416.617349 303.376521 
L 414.179477 303.285501 
L 411.769422 303.532416 
L 409.344683 303.415313 
L 406.808827 303.182334 
L 404.411049 303.353191 
L 401.948952 303.445737 
L 399.498403 303.402965 
L 397.019339 303.044686 
L 394.530214 302.131074 
L 392.08506 303.312997 
L 389.58616 302.921924 
L 387.131876 303.446216 
L 384.640058 302.766506 
L 382.183388 303.056262 
L 379.754191 303.257405 
L 377.349779 303.250347 
L 374.898327 302.087378 
L 372.453819 301.070131 
L 369.997917 302.554206 
L 367.571579 300.146818 
L 365.182014 302.226557 
L 362.707405 301.308763 
L 360.232136 299.910054 
L 357.763708 301.709764 
L 355.280856 300.158854 
L 352.773431 299.842454 
L 350.380531 297.444697 
L 347.925702 298.602911 
L 345.493411 300.282798 
L 343.066769 297.341924 
L 340.575675 299.229426 
L 338.108491 298.405865 
L 335.657044 298.717916 
L 333.221265 299.965464 
L 330.788553 298.496616 
L 328.306046 295.098524 
L 325.78677 295.403249 
L 323.269574 296.390005 
L 320.800084 296.126511 
L 318.359102 293.012106 
L 315.906622 295.690307 
L 313.437635 295.632055 
L 310.952887 295.720414 
L 308.514124 291.156453 
L 306.072028 293.488799 
L 303.55469 294.022812 
L 301.111017 294.508097 
L 298.703565 288.426466 
L 296.298225 291.279409 
L 293.883317 289.611231 
L 291.453289 290.54319 
L 288.950258 287.371274 
L 286.485766 290.81275 
L 284.027613 286.017284 
L 281.532727 287.40502 
L 279.085487 282.615473 
L 276.719828 287.561924 
L 274.273624 288.9749 
L 271.811359 285.66194 
L 269.301699 286.351998 
L 266.872924 283.797706 
L 264.423354 287.536239 
L 261.92492 283.637548 
L 259.423808 289.1626 
L 256.960566 283.607864 
L 254.499451 289.084672 
L 252.068359 287.554836 
L 249.650269 280.38017 
L 247.23449 282.079455 
L 244.798433 277.455701 
L 242.310946 284.115914 
L 239.889962 284.720227 
L 237.450695 276.329805 
L 235.00691 282.451951 
L 232.556879 286.013185 
L 230.129757 285.428418 
L 227.683641 282.175091 
L 225.247417 287.681366 
L 222.746596 275.293242 
L 220.279629 278.874718 
L 217.813792 274.399686 
L 215.397316 279.271191 
L 212.939572 287.40376 
L 210.447687 275.994392 
L 208.014386 282.300844 
L 205.572784 281.306969 
L 203.160334 274.538642 
L 200.762889 278.463466 
L 198.300339 284.342354 
L 195.900483 279.534242 
L 193.432694 277.983873 
L 191.017925 275.456916 
L 188.554261 274.56324 
L 186.116025 273.685659 
L 183.743047 272.132095 
L 181.338858 274.287607 
L 178.867915 267.788765 
L 176.454617 274.136442 
L 174.007298 278.90912 
L 171.578502 268.802274 
L 169.087599 279.058461 
L 166.646374 270.073722 
L 164.19753 273.618887 
L 161.647346 270.767425 
L 159.191842 270.084226 
L 156.722359 269.723303 
L 154.248247 270.185643 
L 151.791998 271.477499 
L 149.305153 275.801596 
L 146.892531 264.086712 
L 144.436018 266.977846 
L 141.982561 272.607105 
L 139.567644 266.859674 
L 137.134023 270.856623 
L 134.713255 260.083759 
L 132.305522 254.334585 
L 129.853173 263.07334 
L 127.40872 262.053041 
L 124.934231 257.913213 
L 122.509609 251.453351 
L 120.037587 267.807693 
L 117.645479 243.372096 
L 115.169222 246.242388 
L 112.667606 250.663234 
L 110.269543 251.827944 
L 107.837815 242.815627 
L 105.421836 252.077507 
L 102.944581 244.523818 
L 100.414913 246.99992 
L 97.950653 240.322659 
L 95.510791 239.523949 
L 93.065139 239.271113 
L 90.670219 229.107499 
L 88.288608 207.206411 
L 85.852084 211.533663 
L 83.45526 203.7476 
L 81.03515 196.235134 
L 78.557792 167.886262 
L 76.054694 104.154374 
L 73.578347 81.783691 
L 71.111003 94.143372 
L 68.602903 70.635606 
L 66.174019 40.802604 
z
" style="fill:#1f77b4;fill-opacity:0.25;"/>
   </g>
   <g id="PolyCollection_2">
    <path clip-path="url(#paecdc8e618)" d="M 65.98598 38.107554 
L 65.98598 38.806821 
L 68.015867 46.003007 
L 70.116408 62.873063 
L 72.134886 61.698696 
L 74.186707 78.426776 
L 76.268342 103.106208 
L 78.385461 116.516265 
L 80.517372 140.748828 
L 82.595255 156.133517 
L 84.673906 149.089804 
L 86.740244 188.335141 
L 88.846259 187.91531 
L 90.837517 206.850999 
L 92.888272 202.01587 
L 94.917765 219.152647 
L 97.160108 225.007282 
L 99.166764 228.807336 
L 101.306762 218.515274 
L 103.483336 237.329815 
L 105.618865 231.403912 
L 107.759591 233.352731 
L 109.804708 228.617369 
L 111.966171 235.535773 
L 114.06621 230.995989 
L 116.091 239.999549 
L 118.150466 249.003282 
L 120.205047 235.569104 
L 122.288224 238.097647 
L 124.338761 242.297529 
L 126.4565 246.559624 
L 128.763262 248.076491 
L 130.884639 248.151178 
L 132.898567 257.591842 
L 134.955099 255.329979 
L 137.157557 261.760319 
L 139.187979 259.979704 
L 141.252421 256.229195 
L 143.479952 251.827306 
L 145.599368 251.546791 
L 147.684734 248.170688 
L 149.832538 254.550714 
L 151.905276 247.411329 
L 154.076323 256.566596 
L 156.216664 263.32023 
L 158.378295 265.384231 
L 160.588522 262.094048 
L 162.632616 253.493544 
L 164.783236 260.6461 
L 166.963355 259.369332 
L 169.117734 258.247141 
L 171.233654 263.831356 
L 173.301015 259.216624 
L 175.526725 257.640488 
L 177.675801 272.547899 
L 179.766452 270.963357 
L 181.906385 274.268473 
L 183.972347 258.395887 
L 186.047399 273.714959 
L 188.088616 275.257544 
L 190.218381 264.146035 
L 192.456223 274.384426 
L 194.587313 261.165538 
L 196.742294 264.632983 
L 198.908585 265.313023 
L 200.963951 269.960082 
L 203.001762 283.708012 
L 205.055879 271.9351 
L 207.320988 269.557172 
L 209.432766 270.166141 
L 211.549135 267.425983 
L 213.674886 261.744844 
L 215.820969 270.33159 
L 217.876131 275.775393 
L 220.040402 265.6563 
L 222.154976 277.313972 
L 224.338421 273.317611 
L 226.436738 277.546535 
L 228.524148 278.183929 
L 230.609445 266.666411 
L 232.672893 278.387963 
L 234.834585 275.687222 
L 236.931907 278.582297 
L 239.062663 279.162788 
L 241.193632 275.087421 
L 243.230165 275.086216 
L 245.362718 283.061476 
L 247.446948 282.226418 
L 249.606946 273.253321 
L 251.708714 278.529115 
L 253.785777 264.83533 
L 255.998298 286.135132 
L 258.048864 279.154503 
L 260.13848 289.777829 
L 262.24795 284.048665 
L 264.42318 280.870997 
L 266.546188 280.184031 
L 268.64312 287.372114 
L 270.768109 282.518808 
L 272.924973 283.30921 
L 274.994744 290.862814 
L 277.127048 288.572735 
L 279.24368 291.317823 
L 281.252441 289.760887 
L 283.437494 284.763728 
L 285.475485 289.590019 
L 287.65968 290.656371 
L 289.718043 295.256897 
L 291.761499 292.054277 
L 293.774759 292.902098 
L 295.8859 294.03344 
L 298.040768 293.158637 
L 300.207559 296.033427 
L 302.326304 298.330109 
L 304.453124 290.471769 
L 306.634799 295.475018 
L 308.759201 292.89761 
L 310.895407 295.169509 
L 313.00376 295.952107 
L 315.069695 297.240576 
L 317.12854 295.980102 
L 319.371558 296.156884 
L 321.482987 302.064691 
L 323.555118 301.722682 
L 325.699538 300.896203 
L 327.83673 300.05971 
L 329.911838 299.301714 
L 331.996917 302.142791 
L 334.032912 302.446268 
L 336.159353 302.651379 
L 338.247504 302.214641 
L 340.428194 302.006889 
L 342.516842 302.432502 
L 344.567432 302.735676 
L 346.663468 303.086003 
L 348.850527 303.213428 
L 351.099081 300.951577 
L 353.160071 303.324477 
L 355.31621 303.351368 
L 357.435272 302.337145 
L 359.467951 302.781983 
L 361.56344 302.764909 
L 363.659502 303.228759 
L 365.693942 303.270993 
L 367.998016 303.297768 
L 370.015658 303.415982 
L 372.059012 303.257847 
L 374.145521 303.314568 
L 376.288947 303.428125 
L 378.342846 303.238908 
L 380.533897 302.619122 
L 380.533897 301.267631 
L 380.533897 301.267631 
L 378.342846 302.888323 
L 376.288947 303.244326 
L 374.145521 302.185939 
L 372.059012 302.081329 
L 370.015658 302.702521 
L 367.998016 302.118546 
L 365.693942 302.684989 
L 363.659502 301.743233 
L 361.56344 300.093027 
L 359.467951 302.321014 
L 357.435272 300.52749 
L 355.31621 302.58491 
L 353.160071 302.841323 
L 351.099081 297.197954 
L 348.850527 302.292897 
L 346.663468 300.100061 
L 344.567432 301.597339 
L 342.516842 299.028816 
L 340.428194 300.27572 
L 338.247504 300.503651 
L 336.159353 302.004652 
L 334.032912 301.642723 
L 331.996917 300.704213 
L 329.911838 297.062063 
L 327.83673 297.057299 
L 325.699538 299.099733 
L 323.555118 297.893816 
L 321.482987 298.424231 
L 319.371558 292.94822 
L 317.12854 293.009336 
L 315.069695 293.692596 
L 313.00376 291.467393 
L 310.895407 289.426076 
L 308.759201 288.865597 
L 306.634799 291.479001 
L 304.453124 286.247323 
L 302.326304 295.738709 
L 300.207559 290.566546 
L 298.040768 287.885191 
L 295.8859 291.512853 
L 293.774759 292.060229 
L 291.761499 287.071208 
L 289.718043 289.120053 
L 287.65968 287.188337 
L 285.475485 283.771971 
L 283.437494 280.950277 
L 281.252441 282.791449 
L 279.24368 288.893783 
L 277.127048 284.966984 
L 274.994744 287.74641 
L 272.924973 280.745992 
L 270.768109 278.709658 
L 268.64312 283.713253 
L 266.546188 274.877524 
L 264.42318 276.396653 
L 262.24795 276.762279 
L 260.13848 284.478448 
L 258.048864 271.918025 
L 255.998298 278.484288 
L 253.785777 259.49323 
L 251.708714 275.556341 
L 249.606946 270.145832 
L 247.446948 273.072108 
L 245.362718 279.317996 
L 243.230165 270.10151 
L 241.193632 269.581224 
L 239.062663 275.317622 
L 236.931907 273.488898 
L 234.834585 271.932288 
L 232.672893 274.879376 
L 230.609445 260.573517 
L 228.524148 274.287861 
L 226.436738 273.272095 
L 224.338421 268.795124 
L 222.154976 268.99655 
L 220.040402 261.662619 
L 217.876131 269.440545 
L 215.820969 265.405472 
L 213.674886 253.544931 
L 211.549135 261.484033 
L 209.432766 266.056149 
L 207.320988 262.726871 
L 205.055879 262.154443 
L 203.001762 274.659864 
L 200.963951 265.133771 
L 198.908585 260.730761 
L 196.742294 250.679361 
L 194.587313 255.162399 
L 192.456223 270.481696 
L 190.218381 255.804187 
L 188.088616 270.816006 
L 186.047399 267.980253 
L 183.972347 255.742882 
L 181.906385 264.594361 
L 179.766452 268.102596 
L 177.675801 265.378332 
L 175.526725 253.925443 
L 173.301015 250.690504 
L 171.233654 257.416569 
L 169.117734 249.357975 
L 166.963355 252.726965 
L 164.783236 259.022012 
L 162.632616 246.596178 
L 160.588522 255.226915 
L 158.378295 257.928734 
L 156.216664 256.663845 
L 154.076323 248.33027 
L 151.905276 241.134477 
L 149.832538 248.156983 
L 147.684734 242.406305 
L 145.599368 241.919003 
L 143.479952 248.228563 
L 141.252421 251.737021 
L 139.187979 251.969896 
L 137.157557 257.772381 
L 134.955099 245.809189 
L 132.898567 249.922999 
L 130.884639 242.549944 
L 128.763262 241.699312 
L 126.4565 240.327379 
L 124.338761 234.760783 
L 122.288224 234.37921 
L 120.205047 229.144102 
L 118.150466 241.178758 
L 116.091 237.690688 
L 114.06621 223.74183 
L 111.966171 229.222571 
L 109.804708 218.853313 
L 107.759591 228.629657 
L 105.618865 224.755738 
L 103.483336 228.173297 
L 101.306762 210.426463 
L 99.166764 226.404426 
L 97.160108 213.684155 
L 94.917765 210.714409 
L 92.888272 200.114193 
L 90.837517 200.131345 
L 88.846259 181.03869 
L 86.740244 180.912252 
L 84.673906 144.033196 
L 82.595255 150.801558 
L 80.517372 130.617897 
L 78.385461 109.081035 
L 76.268342 95.950242 
L 74.186707 72.287412 
L 72.134886 57.915754 
L 70.116408 50.692962 
L 68.015867 42.105468 
L 65.98598 38.107554 
z
" style="fill:#ff7f0e;fill-opacity:0.25;"/>
   </g>
   <g id="PolyCollection_3">
    <path clip-path="url(#paecdc8e618)" d="M 66.017233 37.672214 
L 66.017233 39.422711 
L 68.023544 46.922724 
L 70.155074 66.966961 
L 72.255729 64.793019 
L 74.395068 84.676127 
L 76.53807 105.520825 
L 78.676612 130.759802 
L 80.924971 144.957652 
L 83.075022 164.69601 
L 85.210308 157.432502 
L 87.338322 188.39483 
L 89.396193 192.686997 
L 91.511233 212.184743 
L 93.573819 201.41616 
L 95.716294 220.843473 
L 97.93512 227.304262 
L 100.056861 230.729729 
L 102.222915 219.641957 
L 104.389753 243.212983 
L 106.545565 227.541705 
L 108.675141 232.057519 
L 110.749869 235.897918 
L 112.886359 238.926852 
L 114.988031 229.150307 
L 117.120665 238.71602 
L 119.241167 249.267789 
L 121.373081 239.505642 
L 123.482562 240.143578 
L 125.645765 248.302871 
L 127.715798 252.121321 
L 129.915246 247.016117 
L 132.055334 253.8178 
L 134.146528 260.524345 
L 136.296859 256.380325 
L 138.396372 263.469266 
L 140.544315 259.074446 
L 142.715186 257.482094 
L 144.944976 252.448008 
L 147.012284 255.301251 
L 149.143017 248.8083 
L 151.293111 254.938163 
L 153.431162 253.722174 
L 155.568866 259.453292 
L 157.669271 259.172597 
L 159.817823 264.343558 
L 162.033187 259.831787 
L 164.100763 254.060833 
L 166.21765 264.873102 
L 168.324648 255.225884 
L 170.448433 258.55088 
L 172.588658 264.057953 
L 174.731468 258.148726 
L 176.968595 259.522673 
L 179.136644 272.48234 
L 181.2597 270.995889 
L 183.342738 274.421188 
L 185.508935 256.570315 
L 187.644096 269.284683 
L 189.700786 271.480411 
L 191.773072 261.062574 
L 193.995408 275.103798 
L 196.088194 266.515988 
L 198.177711 264.4436 
L 200.218562 263.170508 
L 202.334187 268.442514 
L 204.400022 281.497936 
L 206.479117 271.680485 
L 208.646 266.952254 
L 210.762584 272.947346 
L 212.839951 261.90124 
L 214.894263 260.687711 
L 217.000182 266.334208 
L 219.122432 274.173608 
L 221.287611 263.1888 
L 223.47717 273.370084 
L 225.681963 273.17977 
L 227.780704 276.275969 
L 229.869938 273.99062 
L 231.989605 267.090055 
L 234.136234 279.466675 
L 236.195206 281.271521 
L 238.242134 281.990956 
L 240.325227 275.448327 
L 242.548125 276.923576 
L 244.689659 275.76563 
L 246.807576 284.674943 
L 248.901232 281.602494 
L 250.930112 277.921627 
L 253.081106 278.898157 
L 255.150893 268.174922 
L 257.394384 283.314068 
L 259.447232 280.589089 
L 261.570791 290.427687 
L 263.682909 283.978016 
L 265.76608 280.79555 
L 267.797906 282.798048 
L 269.861946 285.068493 
L 271.935347 284.857438 
L 274.095028 284.240646 
L 276.26146 292.569341 
L 278.461054 290.907833 
L 280.533373 289.731936 
L 282.654054 291.065162 
L 284.715007 286.387006 
L 286.822352 291.114322 
L 289.021122 292.255706 
L 291.138068 294.220531 
L 293.288836 294.02329 
L 295.399546 294.195713 
L 297.573707 296.610621 
L 299.604808 291.614936 
L 301.666931 297.513391 
L 303.810978 299.924623 
L 305.991508 290.804526 
L 308.144397 294.399991 
L 310.274763 295.04543 
L 312.385217 293.078061 
L 314.50515 298.211991 
L 316.518407 297.673459 
L 318.639278 297.363437 
L 320.865444 300.643483 
L 322.982408 299.840198 
L 325.083296 300.267334 
L 327.180546 302.197943 
L 329.274234 299.528704 
L 331.350867 302.045631 
L 333.474487 302.84349 
L 335.54892 302.735132 
L 337.811936 303.011503 
L 339.899952 301.024863 
L 342.03285 301.671765 
L 344.090872 302.251129 
L 346.150957 302.681019 
L 348.294252 301.835697 
L 350.405776 303.043811 
L 352.630793 301.578669 
L 354.724479 303.460951 
L 356.856398 302.547921 
L 358.991303 302.938952 
L 361.09891 302.826808 
L 363.196493 302.266794 
L 365.33087 303.077551 
L 367.476683 303.400398 
L 369.63611 303.454337 
L 371.755568 303.493778 
L 373.802063 303.446504 
L 375.860564 303.118365 
L 377.938259 303.466599 
L 380.089033 303.353791 
L 382.200857 303.270925 
L 382.200857 302.926833 
L 382.200857 302.926833 
L 380.089033 302.848639 
L 377.938259 303.263244 
L 375.860564 302.485905 
L 373.802063 302.756588 
L 371.755568 302.785747 
L 369.63611 302.798962 
L 367.476683 303.08974 
L 365.33087 302.391571 
L 363.196493 299.49691 
L 361.09891 301.470767 
L 358.991303 302.585622 
L 356.856398 300.884107 
L 354.724479 301.176566 
L 352.630793 299.683233 
L 350.405776 301.452298 
L 348.294252 300.456256 
L 346.150957 299.088679 
L 344.090872 298.80307 
L 342.03285 300.337374 
L 339.899952 299.044421 
L 337.811936 301.303175 
L 335.54892 301.204341 
L 333.474487 298.189198 
L 331.350867 299.925071 
L 329.274234 296.794873 
L 327.180546 299.731147 
L 325.083296 298.365309 
L 322.982408 297.651312 
L 320.865444 294.23781 
L 318.639278 293.727717 
L 316.518407 290.396303 
L 314.50515 295.19387 
L 312.385217 290.216999 
L 310.274763 291.000198 
L 308.144397 289.854242 
L 305.991508 283.353012 
L 303.810978 296.751591 
L 301.666931 292.653854 
L 299.604808 288.884421 
L 297.573707 292.621431 
L 295.399546 290.1629 
L 293.288836 288.732942 
L 291.138068 288.473637 
L 289.021122 288.407275 
L 286.822352 286.270548 
L 284.715007 281.459745 
L 282.654054 286.040419 
L 280.533373 285.793833 
L 278.461054 286.71965 
L 276.26146 288.844051 
L 274.095028 278.511211 
L 271.935347 280.884777 
L 269.861946 282.648488 
L 267.797906 269.89943 
L 265.76608 277.775445 
L 263.682909 279.253426 
L 261.570791 288.483394 
L 259.447232 277.06223 
L 257.394384 277.587151 
L 255.150893 259.90005 
L 253.081106 273.443863 
L 250.930112 272.722095 
L 248.901232 277.831756 
L 246.807576 280.474843 
L 244.689659 274.093828 
L 242.548125 266.080624 
L 240.325227 267.482525 
L 238.242134 275.965041 
L 236.195206 273.840813 
L 234.136234 274.02071 
L 231.989605 261.63941 
L 229.869938 268.759682 
L 227.780704 267.377082 
L 225.681963 266.089302 
L 223.47717 269.047329 
L 221.287611 258.115547 
L 219.122432 270.32013 
L 217.000182 262.259845 
L 214.894263 255.470961 
L 212.839951 257.947423 
L 210.762584 264.403382 
L 208.646 260.581068 
L 206.479117 264.699787 
L 204.400022 274.810542 
L 202.334187 262.47612 
L 200.218562 259.420257 
L 198.177711 254.152497 
L 196.088194 259.934034 
L 193.995408 271.432411 
L 191.773072 258.267008 
L 189.700786 260.002443 
L 187.644096 268.43843 
L 185.508935 250.323885 
L 183.342738 265.773203 
L 181.2597 267.641258 
L 179.136644 267.520216 
L 176.968595 251.55803 
L 174.731468 253.496196 
L 172.588658 258.7585 
L 170.448433 253.432573 
L 168.324648 248.835938 
L 166.21765 259.918117 
L 164.100763 249.685026 
L 162.033187 256.383307 
L 159.817823 259.477205 
L 157.669271 250.7571 
L 155.568866 252.699426 
L 153.431162 247.574976 
L 151.293111 248.153203 
L 149.143017 244.318962 
L 147.012284 248.320481 
L 144.944976 244.662639 
L 142.715186 253.835581 
L 140.544315 255.865514 
L 138.396372 253.806559 
L 136.296859 246.327372 
L 134.146528 248.717005 
L 132.055334 242.514225 
L 129.915246 244.03482 
L 127.715798 247.404182 
L 125.645765 238.482573 
L 123.482562 234.251622 
L 121.373081 234.325339 
L 119.241167 244.954058 
L 117.120665 236.107986 
L 114.988031 220.848074 
L 112.886359 232.331292 
L 110.749869 226.310157 
L 108.675141 226.133319 
L 106.545565 221.982733 
L 104.389753 235.673399 
L 102.222915 214.535731 
L 100.056861 226.693771 
L 97.93512 217.4356 
L 95.716294 214.620634 
L 93.573819 199.766015 
L 91.511233 204.073357 
L 89.396193 184.030653 
L 87.338322 182.770908 
L 85.210308 148.374136 
L 83.075022 157.089303 
L 80.924971 135.933086 
L 78.676612 114.65286 
L 76.53807 98.906987 
L 74.395068 80.572336 
L 72.255729 60.237931 
L 70.155074 52.828039 
L 68.023544 43.532901 
L 66.017233 37.672214 
z
" style="fill:#2ca02c;fill-opacity:0.25;"/>
   </g>
   <g id="PolyCollection_4">
    <path clip-path="url(#paecdc8e618)" d="M 65.994178 38.272889 
L 65.994178 39.363686 
L 68.150705 46.019208 
L 70.229117 67.684044 
L 72.33104 63.758178 
L 74.498623 85.537269 
L 76.637836 109.014633 
L 78.72169 130.623626 
L 80.899195 141.547999 
L 82.924065 159.696881 
L 85.079635 153.782674 
L 87.09406 187.139874 
L 89.14556 190.604874 
L 91.306262 210.688858 
L 93.493384 203.797268 
L 95.593127 219.535046 
L 97.787981 226.700775 
L 99.935145 230.547796 
L 102.046989 216.726894 
L 104.076617 241.423922 
L 106.073002 227.878756 
L 108.179848 232.641055 
L 110.322723 228.969422 
L 112.544918 236.040508 
L 114.600948 233.813427 
L 116.735189 243.316653 
L 118.784657 248.939044 
L 120.919539 238.017724 
L 123.012711 239.79374 
L 125.098968 243.543545 
L 127.22453 252.095957 
L 129.430774 249.840314 
L 131.592773 253.964561 
L 133.757964 259.162113 
L 135.886866 254.624225 
L 138.011146 262.418836 
L 140.132314 256.635816 
L 142.237834 262.263487 
L 144.484369 250.589543 
L 146.685872 251.478909 
L 148.727747 252.510116 
L 150.857463 255.529969 
L 152.866397 251.94414 
L 154.951984 258.908141 
L 157.000935 254.6118 
L 159.157745 266.695649 
L 161.352365 263.464444 
L 163.481115 251.977376 
L 165.497756 266.758096 
L 167.628152 260.743387 
L 169.671314 256.400235 
L 171.756757 266.337949 
L 173.919346 262.649894 
L 176.086608 262.449067 
L 178.212775 267.931382 
L 180.354787 274.410553 
L 182.401445 271.372539 
L 184.434008 259.115681 
L 186.455283 274.259006 
L 188.635266 270.578433 
L 190.77836 260.539514 
L 192.918844 273.903214 
L 194.939235 264.657769 
L 197.060136 259.408426 
L 199.223766 265.861992 
L 201.34621 268.081472 
L 203.472904 280.199642 
L 205.569566 273.984748 
L 207.839144 267.469459 
L 209.945572 271.845197 
L 211.921193 266.859993 
L 214.039963 260.169952 
L 216.134015 273.037804 
L 218.192149 277.184888 
L 220.303807 270.465342 
L 222.414668 272.796341 
L 224.663216 270.688797 
L 226.722896 277.295114 
L 228.875266 276.19492 
L 231.024888 269.803025 
L 233.201343 279.745556 
L 235.249058 281.500814 
L 237.302928 281.900625 
L 239.441145 274.92136 
L 241.618321 277.166833 
L 243.76603 274.069822 
L 245.923094 282.494503 
L 248.037195 277.032099 
L 250.083453 277.694986 
L 252.067654 278.32464 
L 254.202074 273.457821 
L 256.469961 283.757989 
L 258.644339 281.808642 
L 260.696385 289.095493 
L 262.786349 283.903771 
L 264.984747 281.767224 
L 267.185196 283.307189 
L 269.294155 288.021851 
L 271.353576 284.503085 
L 273.517443 282.934082 
L 275.630971 290.798269 
L 277.82319 289.81509 
L 279.866042 292.302642 
L 282.040298 288.635706 
L 284.125113 289.044024 
L 286.175242 290.908049 
L 288.45675 291.463812 
L 290.586578 293.969953 
L 292.703311 292.204231 
L 294.725767 294.51155 
L 296.786174 293.493394 
L 298.852671 291.777926 
L 300.903141 294.498608 
L 303.002072 298.998272 
L 305.274336 290.178067 
L 307.368591 293.945057 
L 309.453312 295.020697 
L 311.486492 296.354006 
L 313.556505 297.856281 
L 315.662296 297.82122 
L 317.696648 297.805905 
L 319.852992 300.21125 
L 321.895211 301.177206 
L 323.971311 300.904483 
L 326.042354 301.638093 
L 328.114637 301.603795 
L 330.295264 300.162327 
L 332.325496 302.320979 
L 334.377392 302.481024 
L 336.528044 303.593618 
L 338.639766 301.572439 
L 340.785391 300.65708 
L 342.937668 301.763451 
L 345.033824 302.585246 
L 347.138707 302.520818 
L 349.205087 303.113497 
L 351.404668 301.566901 
L 353.511558 303.396638 
L 355.582932 302.210937 
L 357.642503 303.299641 
L 359.724057 303.501597 
L 361.773792 302.692822 
L 363.855223 303.269262 
L 365.95794 303.4428 
L 368.13173 303.545994 
L 370.245161 303.484943 
L 372.266463 303.474247 
L 374.311681 303.093117 
L 376.410736 303.472824 
L 378.571517 303.33464 
L 380.704223 303.073267 
L 380.704223 301.736777 
L 380.704223 301.736777 
L 378.571517 301.906944 
L 376.410736 303.203991 
L 374.311681 301.905059 
L 372.266463 302.696931 
L 370.245161 302.954107 
L 368.13173 303.01401 
L 365.95794 303.320455 
L 363.855223 302.621349 
L 361.773792 300.49906 
L 359.724057 301.486352 
L 357.642503 301.973063 
L 355.582932 300.92664 
L 353.511558 301.88541 
L 351.404668 300.510649 
L 349.205087 301.474475 
L 347.138707 301.008538 
L 345.033824 300.93741 
L 342.937668 300.24604 
L 340.785391 298.925566 
L 338.639766 299.7011 
L 336.528044 300.896321 
L 334.377392 301.487541 
L 332.325496 299.941001 
L 330.295264 297.772095 
L 328.114637 299.861931 
L 326.042354 299.146339 
L 323.971311 298.583656 
L 321.895211 297.201538 
L 319.852992 297.077141 
L 317.696648 292.579975 
L 315.662296 294.714334 
L 313.556505 293.656626 
L 311.486492 290.559108 
L 309.453312 288.043034 
L 307.368591 290.091951 
L 305.274336 284.292613 
L 303.002072 295.064904 
L 300.903141 293.126831 
L 298.852671 288.394184 
L 296.786174 289.149994 
L 294.725767 286.958263 
L 292.703311 289.254298 
L 290.586578 290.320954 
L 288.45675 285.176289 
L 286.175242 288.787296 
L 284.125113 283.607051 
L 282.040298 282.618927 
L 279.866042 285.739542 
L 277.82319 285.496276 
L 275.630971 286.157794 
L 273.517443 272.150042 
L 271.353576 277.086481 
L 269.294155 285.664564 
L 267.185196 275.726466 
L 264.984747 274.592034 
L 262.786349 278.944002 
L 260.696385 285.978901 
L 258.644339 275.616989 
L 256.469961 279.055931 
L 254.202074 259.706404 
L 252.067654 272.477063 
L 250.083453 271.464841 
L 248.037195 274.48052 
L 245.923094 279.777768 
L 243.76603 270.322356 
L 241.618321 270.20442 
L 239.441145 266.514312 
L 237.302928 278.656421 
L 235.249058 273.961336 
L 233.201343 272.257933 
L 231.024888 265.539084 
L 228.875266 267.864369 
L 226.722896 270.849118 
L 224.663216 262.227171 
L 222.414668 269.508228 
L 220.303807 261.559161 
L 218.192149 271.348656 
L 216.134015 265.64448 
L 214.039963 253.336892 
L 211.921193 261.068282 
L 209.945572 266.374428 
L 207.839144 262.65927 
L 205.569566 266.931842 
L 203.472904 274.05508 
L 201.34621 263.728628 
L 199.223766 258.207026 
L 197.060136 255.666946 
L 194.939235 257.887859 
L 192.918844 265.851086 
L 190.77836 257.955023 
L 188.635266 264.312302 
L 186.455283 271.80326 
L 184.434008 254.109054 
L 182.401445 266.813233 
L 180.354787 267.719108 
L 178.212775 260.482121 
L 176.086608 255.740793 
L 173.919346 251.928966 
L 171.756757 256.681623 
L 169.671314 252.683134 
L 167.628152 247.8209 
L 165.497756 258.292663 
L 163.481115 248.213906 
L 161.352365 256.5422 
L 159.157745 261.368038 
L 157.000935 249.49516 
L 154.951984 256.505762 
L 152.866397 243.75596 
L 150.857463 252.176706 
L 148.727747 249.170703 
L 146.685872 243.555413 
L 144.484369 247.299726 
L 142.237834 253.872616 
L 140.132314 254.501309 
L 138.011146 258.061752 
L 135.886866 247.034025 
L 133.757964 254.897665 
L 131.592773 245.910758 
L 129.430774 237.735036 
L 127.22453 249.381743 
L 125.098968 236.132743 
L 123.012711 230.245691 
L 120.919539 229.020064 
L 118.784657 244.018953 
L 116.735189 237.691191 
L 114.600948 229.342535 
L 112.544918 230.229942 
L 110.322723 222.495928 
L 108.179848 228.235464 
L 106.073002 219.86275 
L 104.076617 235.228153 
L 102.046989 209.235769 
L 99.935145 222.271679 
L 97.787981 216.865512 
L 95.593127 211.663566 
L 93.493384 199.754626 
L 91.306262 205.07273 
L 89.14556 185.052044 
L 87.09406 176.442763 
L 85.079635 146.381776 
L 82.924065 152.790106 
L 80.899195 135.731738 
L 78.72169 114.653624 
L 76.637836 97.850604 
L 74.498623 77.905694 
L 72.33104 58.383972 
L 70.229117 56.714981 
L 68.150705 43.623942 
L 65.994178 38.272889 
z
" style="fill:#d62728;fill-opacity:0.25;"/>
   </g>
   <g id="PolyCollection_5">
    <path clip-path="url(#paecdc8e618)" d="M 66.069657 37.825263 
L 66.069657 38.366913 
L 68.173335 43.783412 
L 70.256134 60.897031 
L 72.373409 60.001119 
L 74.435865 72.624125 
L 76.556469 98.314252 
L 78.727733 120.250936 
L 80.941133 142.165408 
L 83.054696 161.043899 
L 85.192258 150.298697 
L 87.359814 189.179489 
L 89.485988 185.923558 
L 91.634434 211.208186 
L 93.699216 209.44806 
L 95.811301 219.208561 
L 98.060674 224.654114 
L 100.169892 229.940371 
L 102.339008 219.157845 
L 104.515184 241.340445 
L 106.613755 233.138918 
L 108.731718 238.144272 
L 110.787115 228.403844 
L 113.04192 238.023691 
L 115.105204 231.129041 
L 117.173442 242.280165 
L 119.34334 247.056147 
L 121.394616 236.257974 
L 123.540457 239.721715 
L 125.625921 243.565877 
L 127.710218 253.806856 
L 129.941256 249.653069 
L 132.050988 251.233521 
L 134.231806 257.814071 
L 136.35791 255.800026 
L 138.439577 263.572627 
L 140.469453 261.234142 
L 142.538419 258.877251 
L 144.792058 252.137147 
L 146.93127 254.060096 
L 149.019505 252.305715 
L 151.114427 253.07831 
L 153.170564 248.668053 
L 155.251879 257.597675 
L 157.412878 254.824484 
L 159.509798 263.163691 
L 161.683876 261.375505 
L 163.796856 254.047456 
L 165.970318 263.536674 
L 168.108905 253.735158 
L 170.24926 255.520702 
L 172.38572 268.454546 
L 174.4681 257.682696 
L 176.692423 260.552424 
L 178.7889 269.452969 
L 180.934943 274.921599 
L 183.106233 272.086303 
L 185.207372 259.547777 
L 187.289326 274.744205 
L 189.390404 275.996792 
L 191.513061 261.944798 
L 193.755165 275.665734 
L 195.882359 265.525697 
L 197.955722 262.350146 
L 200.103237 264.028487 
L 202.272898 269.823947 
L 204.401416 282.710122 
L 206.57865 270.027304 
L 208.792548 270.524158 
L 210.909532 272.681903 
L 212.940277 269.99808 
L 215.068278 264.560582 
L 217.159269 270.647744 
L 219.264997 274.972029 
L 221.343076 265.064024 
L 223.374904 276.198424 
L 225.587925 270.811909 
L 227.654081 276.727539 
L 229.655688 274.496921 
L 231.743471 265.801964 
L 233.890259 278.993886 
L 236.03936 275.401152 
L 238.104241 280.105043 
L 240.216647 271.193831 
L 242.453099 278.312088 
L 244.513539 274.982781 
L 246.582048 280.829131 
L 248.645184 277.909573 
L 250.735056 276.498055 
L 252.830937 277.170753 
L 254.953729 267.700064 
L 257.213037 285.169465 
L 259.314251 279.444833 
L 261.363853 288.645883 
L 263.506473 282.069445 
L 265.643638 279.750136 
L 267.726413 279.805246 
L 269.82236 285.436856 
L 271.863131 286.576282 
L 274.094951 283.393195 
L 276.14262 293.151227 
L 278.275929 290.106914 
L 280.383761 287.777906 
L 282.539932 289.871682 
L 284.663902 285.922935 
L 286.739171 291.85742 
L 288.933487 291.547146 
L 291.046468 294.760655 
L 293.138405 293.472166 
L 295.271613 290.86205 
L 297.440115 293.654749 
L 299.518203 291.078775 
L 301.58395 296.899836 
L 303.763189 298.713947 
L 305.987039 289.914182 
L 308.109996 293.901138 
L 310.346394 294.745039 
L 312.476721 293.590587 
L 314.532588 298.842623 
L 316.602389 298.663526 
L 318.695156 298.028725 
L 320.994029 297.61999 
L 323.09165 298.853643 
L 325.207868 300.986153 
L 327.393692 301.092085 
L 329.442085 300.11696 
L 331.558031 301.219874 
L 333.593314 302.632325 
L 335.663729 302.691224 
L 337.930394 303.576289 
L 340.037871 302.242905 
L 342.182344 302.636891 
L 344.284436 301.633989 
L 346.470061 302.924054 
L 348.572266 303.145682 
L 350.694128 302.276191 
L 352.835589 302.131689 
L 354.92634 303.367161 
L 357.033366 302.827755 
L 359.081142 303.460628 
L 361.15371 302.782586 
L 363.312695 303.24302 
L 365.432998 303.321424 
L 367.574691 303.131239 
L 369.754929 303.411501 
L 371.871283 303.376059 
L 373.942867 303.341578 
L 376.008568 302.436655 
L 378.101623 303.545187 
L 380.202819 303.330153 
L 382.362513 302.954038 
L 382.362513 302.376233 
L 382.362513 302.376233 
L 380.202819 303.054414 
L 378.101623 302.280186 
L 376.008568 300.105318 
L 373.942867 302.759778 
L 371.871283 303.249359 
L 369.754929 303.067706 
L 367.574691 301.964177 
L 365.432998 303.197498 
L 363.312695 301.130195 
L 361.15371 302.483859 
L 359.081142 302.439328 
L 357.033366 301.50385 
L 354.92634 301.412115 
L 352.835589 299.645768 
L 350.694128 300.530612 
L 348.572266 300.305036 
L 346.470061 301.759834 
L 344.284436 298.698363 
L 342.182344 299.715011 
L 340.037871 300.740217 
L 337.930394 301.086441 
L 335.663729 300.073616 
L 333.593314 300.798205 
L 331.558031 297.769637 
L 329.442085 297.5417 
L 327.393692 299.465249 
L 325.207868 295.879074 
L 323.09165 297.18853 
L 320.994029 291.47806 
L 318.695156 293.01447 
L 316.602389 295.131645 
L 314.532588 294.168284 
L 312.476721 289.04998 
L 310.346394 288.650171 
L 308.109996 291.06401 
L 305.987039 288.012338 
L 303.763189 295.651086 
L 301.58395 289.250171 
L 299.518203 288.842258 
L 297.440115 290.946478 
L 295.271613 288.427058 
L 293.138405 286.651986 
L 291.046468 289.899815 
L 288.933487 285.383527 
L 286.739171 286.644603 
L 284.663902 279.475107 
L 282.539932 286.934863 
L 280.383761 284.943696 
L 278.275929 285.308832 
L 276.14262 286.552581 
L 274.094951 276.599631 
L 271.863131 283.843307 
L 269.82236 280.158663 
L 267.726413 271.216502 
L 265.643638 274.036285 
L 263.506473 279.49191 
L 261.363853 284.718928 
L 259.314251 272.033932 
L 257.213037 280.115734 
L 254.953729 258.727389 
L 252.830937 268.947935 
L 250.735056 272.91567 
L 248.645184 275.301344 
L 246.582048 275.699393 
L 244.513539 265.990231 
L 242.453099 271.474022 
L 240.216647 268.289644 
L 238.104241 274.933942 
L 236.03936 270.982718 
L 233.890259 272.829053 
L 231.743471 262.758236 
L 229.655688 267.102374 
L 227.654081 271.97527 
L 225.587925 266.324416 
L 223.374904 269.559163 
L 221.343076 261.318291 
L 219.264997 266.852954 
L 217.159269 263.791615 
L 215.068278 254.48689 
L 212.940277 263.730364 
L 210.909532 267.044186 
L 208.792548 262.391811 
L 206.57865 266.838196 
L 204.401416 276.210689 
L 202.272898 266.319353 
L 200.103237 260.683741 
L 197.955722 255.027239 
L 195.882359 259.694328 
L 193.755165 269.155251 
L 191.513061 258.840467 
L 189.390404 268.903183 
L 187.289326 268.756507 
L 185.207372 251.611917 
L 183.106233 267.814694 
L 180.934943 268.421133 
L 178.7889 261.691353 
L 176.692423 250.088188 
L 174.4681 251.118564 
L 172.38572 262.272254 
L 170.24926 247.841488 
L 168.108905 246.670526 
L 165.970318 258.839689 
L 163.796856 245.376488 
L 161.683876 255.606926 
L 159.509798 258.072949 
L 157.412878 246.246978 
L 155.251879 252.490003 
L 153.170564 243.917559 
L 151.114427 249.877643 
L 149.019505 245.606122 
L 146.93127 247.22577 
L 144.792058 245.210471 
L 142.538419 255.916011 
L 140.469453 257.790761 
L 138.439577 252.93586 
L 136.35791 250.089865 
L 134.231806 253.954979 
L 132.050988 242.988326 
L 129.941256 243.316212 
L 127.710218 248.596162 
L 125.625921 238.028755 
L 123.540457 233.296792 
L 121.394616 230.531557 
L 119.34334 243.204884 
L 117.173442 233.243473 
L 115.105204 224.850059 
L 113.04192 231.632071 
L 110.787115 219.766468 
L 108.731718 225.779028 
L 106.613755 226.067513 
L 104.515184 236.259518 
L 102.339008 213.688286 
L 100.169892 220.870485 
L 98.060674 217.851442 
L 95.811301 213.592433 
L 93.699216 198.346758 
L 91.634434 206.110645 
L 89.485988 177.65908 
L 87.359814 180.790105 
L 85.192258 144.449253 
L 83.054696 143.363476 
L 80.941133 134.437267 
L 78.727733 109.724701 
L 76.556469 87.562048 
L 74.435865 61.253775 
L 72.373409 59.071681 
L 70.256134 51.495419 
L 68.173335 42.700112 
L 66.069657 37.825263 
z
" style="fill:#9467bd;fill-opacity:0.25;"/>
   </g>
   <g id="matplotlib.axis_1">
    <g id="xtick_1">
     <g id="line2d_1">
      <defs>
       <path d="M 0 0 
L 0 3.5 
" id="m0ac9ccacb5" style="stroke:#000000;stroke-width:0.8;"/>
      </defs>
      <g>
       <use style="stroke:#000000;stroke-width:0.8;" x="63.330402" xlink:href="#m0ac9ccacb5" y="303.64"/>
      </g>
     </g>
     <g id="text_1">
      <!-- 0 -->
      <g transform="translate(60.149152 318.238437)scale(0.1 -0.1)">
       <defs>
        <path d="M 31.78125 66.40625 
Q 24.171875 66.40625 20.328125 58.90625 
Q 16.5 51.421875 16.5 36.375 
Q 16.5 21.390625 20.328125 13.890625 
Q 24.171875 6.390625 31.78125 6.390625 
Q 39.453125 6.390625 43.28125 13.890625 
Q 47.125 21.390625 47.125 36.375 
Q 47.125 51.421875 43.28125 58.90625 
Q 39.453125 66.40625 31.78125 66.40625 
z
M 31.78125 74.21875 
Q 44.046875 74.21875 50.515625 64.515625 
Q 56.984375 54.828125 56.984375 36.375 
Q 56.984375 17.96875 50.515625 8.265625 
Q 44.046875 -1.421875 31.78125 -1.421875 
Q 19.53125 -1.421875 13.0625 8.265625 
Q 6.59375 17.96875 6.59375 36.375 
Q 6.59375 54.828125 13.0625 64.515625 
Q 19.53125 74.21875 31.78125 74.21875 
z
" id="DejaVuSans-48"/>
       </defs>
       <use xlink:href="#DejaVuSans-48"/>
      </g>
     </g>
    </g>
    <g id="xtick_2">
     <g id="line2d_2">
      <g>
       <use style="stroke:#000000;stroke-width:0.8;" x="109.898531" xlink:href="#m0ac9ccacb5" y="303.64"/>
      </g>
     </g>
     <g id="text_2">
      <!-- 250 -->
      <g transform="translate(100.354781 318.238437)scale(0.1 -0.1)">
       <defs>
        <path d="M 19.1875 8.296875 
L 53.609375 8.296875 
L 53.609375 0 
L 7.328125 0 
L 7.328125 8.296875 
Q 12.9375 14.109375 22.625 23.890625 
Q 32.328125 33.6875 34.8125 36.53125 
Q 39.546875 41.84375 41.421875 45.53125 
Q 43.3125 49.21875 43.3125 52.78125 
Q 43.3125 58.59375 39.234375 62.25 
Q 35.15625 65.921875 28.609375 65.921875 
Q 23.96875 65.921875 18.8125 64.3125 
Q 13.671875 62.703125 7.8125 59.421875 
L 7.8125 69.390625 
Q 13.765625 71.78125 18.9375 73 
Q 24.125 74.21875 28.421875 74.21875 
Q 39.75 74.21875 46.484375 68.546875 
Q 53.21875 62.890625 53.21875 53.421875 
Q 53.21875 48.921875 51.53125 44.890625 
Q 49.859375 40.875 45.40625 35.40625 
Q 44.1875 33.984375 37.640625 27.21875 
Q 31.109375 20.453125 19.1875 8.296875 
z
" id="DejaVuSans-50"/>
        <path d="M 10.796875 72.90625 
L 49.515625 72.90625 
L 49.515625 64.59375 
L 19.828125 64.59375 
L 19.828125 46.734375 
Q 21.96875 47.46875 24.109375 47.828125 
Q 26.265625 48.1875 28.421875 48.1875 
Q 40.625 48.1875 47.75 41.5 
Q 54.890625 34.8125 54.890625 23.390625 
Q 54.890625 11.625 47.5625 5.09375 
Q 40.234375 -1.421875 26.90625 -1.421875 
Q 22.3125 -1.421875 17.546875 -0.640625 
Q 12.796875 0.140625 7.71875 1.703125 
L 7.71875 11.625 
Q 12.109375 9.234375 16.796875 8.0625 
Q 21.484375 6.890625 26.703125 6.890625 
Q 35.15625 6.890625 40.078125 11.328125 
Q 45.015625 15.765625 45.015625 23.390625 
Q 45.015625 31 40.078125 35.4375 
Q 35.15625 39.890625 26.703125 39.890625 
Q 22.75 39.890625 18.8125 39.015625 
Q 14.890625 38.140625 10.796875 36.28125 
z
" id="DejaVuSans-53"/>
       </defs>
       <use xlink:href="#DejaVuSans-50"/>
       <use x="63.623047" xlink:href="#DejaVuSans-53"/>
       <use x="127.246094" xlink:href="#DejaVuSans-48"/>
      </g>
     </g>
    </g>
    <g id="xtick_3">
     <g id="line2d_3">
      <g>
       <use style="stroke:#000000;stroke-width:0.8;" x="156.46666" xlink:href="#m0ac9ccacb5" y="303.64"/>
      </g>
     </g>
     <g id="text_3">
      <!-- 500 -->
      <g transform="translate(146.92291 318.238437)scale(0.1 -0.1)">
       <use xlink:href="#DejaVuSans-53"/>
       <use x="63.623047" xlink:href="#DejaVuSans-48"/>
       <use x="127.246094" xlink:href="#DejaVuSans-48"/>
      </g>
     </g>
    </g>
    <g id="xtick_4">
     <g id="line2d_4">
      <g>
       <use style="stroke:#000000;stroke-width:0.8;" x="203.03479" xlink:href="#m0ac9ccacb5" y="303.64"/>
      </g>
     </g>
     <g id="text_4">
      <!-- 750 -->
      <g transform="translate(193.49104 318.238437)scale(0.1 -0.1)">
       <defs>
        <path d="M 8.203125 72.90625 
L 55.078125 72.90625 
L 55.078125 68.703125 
L 28.609375 0 
L 18.3125 0 
L 43.21875 64.59375 
L 8.203125 64.59375 
z
" id="DejaVuSans-55"/>
       </defs>
       <use xlink:href="#DejaVuSans-55"/>
       <use x="63.623047" xlink:href="#DejaVuSans-53"/>
       <use x="127.246094" xlink:href="#DejaVuSans-48"/>
      </g>
     </g>
    </g>
    <g id="xtick_5">
     <g id="line2d_5">
      <g>
       <use style="stroke:#000000;stroke-width:0.8;" x="249.602919" xlink:href="#m0ac9ccacb5" y="303.64"/>
      </g>
     </g>
     <g id="text_5">
      <!-- 1000 -->
      <g transform="translate(236.877919 318.238437)scale(0.1 -0.1)">
       <defs>
        <path d="M 12.40625 8.296875 
L 28.515625 8.296875 
L 28.515625 63.921875 
L 10.984375 60.40625 
L 10.984375 69.390625 
L 28.421875 72.90625 
L 38.28125 72.90625 
L 38.28125 8.296875 
L 54.390625 8.296875 
L 54.390625 0 
L 12.40625 0 
z
" id="DejaVuSans-49"/>
       </defs>
       <use xlink:href="#DejaVuSans-49"/>
       <use x="63.623047" xlink:href="#DejaVuSans-48"/>
       <use x="127.246094" xlink:href="#DejaVuSans-48"/>
       <use x="190.869141" xlink:href="#DejaVuSans-48"/>
      </g>
     </g>
    </g>
    <g id="xtick_6">
     <g id="line2d_6">
      <g>
       <use style="stroke:#000000;stroke-width:0.8;" x="296.171048" xlink:href="#m0ac9ccacb5" y="303.64"/>
      </g>
     </g>
     <g id="text_6">
      <!-- 1250 -->
      <g transform="translate(283.446048 318.238437)scale(0.1 -0.1)">
       <use xlink:href="#DejaVuSans-49"/>
       <use x="63.623047" xlink:href="#DejaVuSans-50"/>
       <use x="127.246094" xlink:href="#DejaVuSans-53"/>
       <use x="190.869141" xlink:href="#DejaVuSans-48"/>
      </g>
     </g>
    </g>
    <g id="xtick_7">
     <g id="line2d_7">
      <g>
       <use style="stroke:#000000;stroke-width:0.8;" x="342.739177" xlink:href="#m0ac9ccacb5" y="303.64"/>
      </g>
     </g>
     <g id="text_7">
      <!-- 1500 -->
      <g transform="translate(330.014177 318.238437)scale(0.1 -0.1)">
       <use xlink:href="#DejaVuSans-49"/>
       <use x="63.623047" xlink:href="#DejaVuSans-53"/>
       <use x="127.246094" xlink:href="#DejaVuSans-48"/>
       <use x="190.869141" xlink:href="#DejaVuSans-48"/>
      </g>
     </g>
    </g>
    <g id="xtick_8">
     <g id="line2d_8">
      <g>
       <use style="stroke:#000000;stroke-width:0.8;" x="389.307306" xlink:href="#m0ac9ccacb5" y="303.64"/>
      </g>
     </g>
     <g id="text_8">
      <!-- 1750 -->
      <g transform="translate(376.582306 318.238437)scale(0.1 -0.1)">
       <use xlink:href="#DejaVuSans-49"/>
       <use x="63.623047" xlink:href="#DejaVuSans-55"/>
       <use x="127.246094" xlink:href="#DejaVuSans-53"/>
       <use x="190.869141" xlink:href="#DejaVuSans-48"/>
      </g>
     </g>
    </g>
    <g id="xtick_9">
     <g id="line2d_9">
      <g>
       <use style="stroke:#000000;stroke-width:0.8;" x="435.875436" xlink:href="#m0ac9ccacb5" y="303.64"/>
      </g>
     </g>
     <g id="text_9">
      <!-- 2000 -->
      <g transform="translate(423.150436 318.238437)scale(0.1 -0.1)">
       <use xlink:href="#DejaVuSans-50"/>
       <use x="63.623047" xlink:href="#DejaVuSans-48"/>
       <use x="127.246094" xlink:href="#DejaVuSans-48"/>
       <use x="190.869141" xlink:href="#DejaVuSans-48"/>
      </g>
     </g>
    </g>
    <g id="text_10">
     <!-- Time -->
     <g transform="translate(236.412182 331.916562)scale(0.1 -0.1)">
      <defs>
       <path d="M -0.296875 72.90625 
L 61.375 72.90625 
L 61.375 64.59375 
L 35.5 64.59375 
L 35.5 0 
L 25.59375 0 
L 25.59375 64.59375 
L -0.296875 64.59375 
z
" id="DejaVuSans-84"/>
       <path d="M 9.421875 54.6875 
L 18.40625 54.6875 
L 18.40625 0 
L 9.421875 0 
z
M 9.421875 75.984375 
L 18.40625 75.984375 
L 18.40625 64.59375 
L 9.421875 64.59375 
z
" id="DejaVuSans-105"/>
       <path d="M 52 44.1875 
Q 55.375 50.25 60.0625 53.125 
Q 64.75 56 71.09375 56 
Q 79.640625 56 84.28125 50.015625 
Q 88.921875 44.046875 88.921875 33.015625 
L 88.921875 0 
L 79.890625 0 
L 79.890625 32.71875 
Q 79.890625 40.578125 77.09375 44.375 
Q 74.3125 48.1875 68.609375 48.1875 
Q 61.625 48.1875 57.5625 43.546875 
Q 53.515625 38.921875 53.515625 30.90625 
L 53.515625 0 
L 44.484375 0 
L 44.484375 32.71875 
Q 44.484375 40.625 41.703125 44.40625 
Q 38.921875 48.1875 33.109375 48.1875 
Q 26.21875 48.1875 22.15625 43.53125 
Q 18.109375 38.875 18.109375 30.90625 
L 18.109375 0 
L 9.078125 0 
L 9.078125 54.6875 
L 18.109375 54.6875 
L 18.109375 46.1875 
Q 21.1875 51.21875 25.484375 53.609375 
Q 29.78125 56 35.6875 56 
Q 41.65625 56 45.828125 52.96875 
Q 50 49.953125 52 44.1875 
z
" id="DejaVuSans-109"/>
       <path d="M 56.203125 29.59375 
L 56.203125 25.203125 
L 14.890625 25.203125 
Q 15.484375 15.921875 20.484375 11.0625 
Q 25.484375 6.203125 34.421875 6.203125 
Q 39.59375 6.203125 44.453125 7.46875 
Q 49.3125 8.734375 54.109375 11.28125 
L 54.109375 2.78125 
Q 49.265625 0.734375 44.1875 -0.34375 
Q 39.109375 -1.421875 33.890625 -1.421875 
Q 20.796875 -1.421875 13.15625 6.1875 
Q 5.515625 13.8125 5.515625 26.8125 
Q 5.515625 40.234375 12.765625 48.109375 
Q 20.015625 56 32.328125 56 
Q 43.359375 56 49.78125 48.890625 
Q 56.203125 41.796875 56.203125 29.59375 
z
M 47.21875 32.234375 
Q 47.125 39.59375 43.09375 43.984375 
Q 39.0625 48.390625 32.421875 48.390625 
Q 24.90625 48.390625 20.390625 44.140625 
Q 15.875 39.890625 15.1875 32.171875 
z
" id="DejaVuSans-101"/>
      </defs>
      <use xlink:href="#DejaVuSans-84"/>
      <use x="57.958984" xlink:href="#DejaVuSans-105"/>
      <use x="85.742188" xlink:href="#DejaVuSans-109"/>
      <use x="183.154297" xlink:href="#DejaVuSans-101"/>
     </g>
    </g>
   </g>
   <g id="matplotlib.axis_2">
    <g id="ytick_1">
     <g id="line2d_10">
      <defs>
       <path d="M 0 0 
L -3.5 0 
" id="mb23072d4c2" style="stroke:#000000;stroke-width:0.8;"/>
      </defs>
      <g>
       <use style="stroke:#000000;stroke-width:0.8;" x="47.72" xlink:href="#mb23072d4c2" y="303.64"/>
      </g>
     </g>
     <g id="text_11">
      <!-- 0.0 -->
      <g transform="translate(24.816875 307.439219)scale(0.1 -0.1)">
       <defs>
        <path d="M 10.6875 12.40625 
L 21 12.40625 
L 21 0 
L 10.6875 0 
z
" id="DejaVuSans-46"/>
       </defs>
       <use xlink:href="#DejaVuSans-48"/>
       <use x="63.623047" xlink:href="#DejaVuSans-46"/>
       <use x="95.410156" xlink:href="#DejaVuSans-48"/>
      </g>
     </g>
    </g>
    <g id="ytick_2">
     <g id="line2d_11">
      <g>
       <use style="stroke:#000000;stroke-width:0.8;" x="47.72" xlink:href="#mb23072d4c2" y="245.864"/>
      </g>
     </g>
     <g id="text_12">
      <!-- 0.5 -->
      <g transform="translate(24.816875 249.663219)scale(0.1 -0.1)">
       <use xlink:href="#DejaVuSans-48"/>
       <use x="63.623047" xlink:href="#DejaVuSans-46"/>
       <use x="95.410156" xlink:href="#DejaVuSans-53"/>
      </g>
     </g>
    </g>
    <g id="ytick_3">
     <g id="line2d_12">
      <g>
       <use style="stroke:#000000;stroke-width:0.8;" x="47.72" xlink:href="#mb23072d4c2" y="188.088"/>
      </g>
     </g>
     <g id="text_13">
      <!-- 1.0 -->
      <g transform="translate(24.816875 191.887219)scale(0.1 -0.1)">
       <use xlink:href="#DejaVuSans-49"/>
       <use x="63.623047" xlink:href="#DejaVuSans-46"/>
       <use x="95.410156" xlink:href="#DejaVuSans-48"/>
      </g>
     </g>
    </g>
    <g id="ytick_4">
     <g id="line2d_13">
      <g>
       <use style="stroke:#000000;stroke-width:0.8;" x="47.72" xlink:href="#mb23072d4c2" y="130.312"/>
      </g>
     </g>
     <g id="text_14">
      <!-- 1.5 -->
      <g transform="translate(24.816875 134.111219)scale(0.1 -0.1)">
       <use xlink:href="#DejaVuSans-49"/>
       <use x="63.623047" xlink:href="#DejaVuSans-46"/>
       <use x="95.410156" xlink:href="#DejaVuSans-53"/>
      </g>
     </g>
    </g>
    <g id="ytick_5">
     <g id="line2d_14">
      <g>
       <use style="stroke:#000000;stroke-width:0.8;" x="47.72" xlink:href="#mb23072d4c2" y="72.536"/>
      </g>
     </g>
     <g id="text_15">
      <!-- 2.0 -->
      <g transform="translate(24.816875 76.335219)scale(0.1 -0.1)">
       <use xlink:href="#DejaVuSans-50"/>
       <use x="63.623047" xlink:href="#DejaVuSans-46"/>
       <use x="95.410156" xlink:href="#DejaVuSans-48"/>
      </g>
     </g>
    </g>
    <g id="ytick_6">
     <g id="line2d_15">
      <g>
       <use style="stroke:#000000;stroke-width:0.8;" x="47.72" xlink:href="#mb23072d4c2" y="14.76"/>
      </g>
     </g>
     <g id="text_16">
      <!-- 2.5 -->
      <g transform="translate(24.816875 18.559219)scale(0.1 -0.1)">
       <use xlink:href="#DejaVuSans-50"/>
       <use x="63.623047" xlink:href="#DejaVuSans-46"/>
       <use x="95.410156" xlink:href="#DejaVuSans-53"/>
      </g>
     </g>
    </g>
    <g id="text_17">
     <!-- Loss -->
     <g transform="translate(18.737188 170.167187)rotate(-90)scale(0.1 -0.1)">
      <defs>
       <path d="M 9.8125 72.90625 
L 19.671875 72.90625 
L 19.671875 8.296875 
L 55.171875 8.296875 
L 55.171875 0 
L 9.8125 0 
z
" id="DejaVuSans-76"/>
       <path d="M 30.609375 48.390625 
Q 23.390625 48.390625 19.1875 42.75 
Q 14.984375 37.109375 14.984375 27.296875 
Q 14.984375 17.484375 19.15625 11.84375 
Q 23.34375 6.203125 30.609375 6.203125 
Q 37.796875 6.203125 41.984375 11.859375 
Q 46.1875 17.53125 46.1875 27.296875 
Q 46.1875 37.015625 41.984375 42.703125 
Q 37.796875 48.390625 30.609375 48.390625 
z
M 30.609375 56 
Q 42.328125 56 49.015625 48.375 
Q 55.71875 40.765625 55.71875 27.296875 
Q 55.71875 13.875 49.015625 6.21875 
Q 42.328125 -1.421875 30.609375 -1.421875 
Q 18.84375 -1.421875 12.171875 6.21875 
Q 5.515625 13.875 5.515625 27.296875 
Q 5.515625 40.765625 12.171875 48.375 
Q 18.84375 56 30.609375 56 
z
" id="DejaVuSans-111"/>
       <path d="M 44.28125 53.078125 
L 44.28125 44.578125 
Q 40.484375 46.53125 36.375 47.5 
Q 32.28125 48.484375 27.875 48.484375 
Q 21.1875 48.484375 17.84375 46.4375 
Q 14.5 44.390625 14.5 40.28125 
Q 14.5 37.15625 16.890625 35.375 
Q 19.28125 33.59375 26.515625 31.984375 
L 29.59375 31.296875 
Q 39.15625 29.25 43.1875 25.515625 
Q 47.21875 21.78125 47.21875 15.09375 
Q 47.21875 7.46875 41.1875 3.015625 
Q 35.15625 -1.421875 24.609375 -1.421875 
Q 20.21875 -1.421875 15.453125 -0.5625 
Q 10.6875 0.296875 5.421875 2 
L 5.421875 11.28125 
Q 10.40625 8.6875 15.234375 7.390625 
Q 20.0625 6.109375 24.8125 6.109375 
Q 31.15625 6.109375 34.5625 8.28125 
Q 37.984375 10.453125 37.984375 14.40625 
Q 37.984375 18.0625 35.515625 20.015625 
Q 33.0625 21.96875 24.703125 23.78125 
L 21.578125 24.515625 
Q 13.234375 26.265625 9.515625 29.90625 
Q 5.8125 33.546875 5.8125 39.890625 
Q 5.8125 47.609375 11.28125 51.796875 
Q 16.75 56 26.8125 56 
Q 31.78125 56 36.171875 55.265625 
Q 40.578125 54.546875 44.28125 53.078125 
z
" id="DejaVuSans-115"/>
      </defs>
      <use xlink:href="#DejaVuSans-76"/>
      <use x="53.962891" xlink:href="#DejaVuSans-111"/>
      <use x="115.144531" xlink:href="#DejaVuSans-115"/>
      <use x="167.244141" xlink:href="#DejaVuSans-115"/>
     </g>
    </g>
   </g>
   <g id="line2d_16">
    <path clip-path="url(#paecdc8e618)" d="M 66.174019 41.391125 
L 68.602903 79.735431 
L 71.111003 95.962362 
L 73.578347 93.231544 
L 76.054694 120.74285 
L 78.557792 177.649953 
L 81.03515 203.491172 
L 83.45526 210.397209 
L 85.852084 215.937837 
L 88.288608 212.575094 
L 90.670219 230.946056 
L 93.065139 243.15575 
L 95.510791 243.962583 
L 97.950653 242.467403 
L 100.414913 249.853027 
L 102.944581 246.851383 
L 105.421836 256.561587 
L 107.837815 247.866977 
L 110.269543 255.179252 
L 112.667606 255.275169 
L 115.169222 250.422887 
L 117.645479 247.500234 
L 120.037587 270.681162 
L 122.509609 253.040863 
L 127.40872 265.374684 
L 129.853173 265.216703 
L 132.305522 258.835389 
L 134.713255 263.461983 
L 137.134023 272.87033 
L 139.567644 269.200087 
L 141.982561 273.990305 
L 144.436018 272.813909 
L 146.892531 266.926286 
L 149.305153 277.113255 
L 151.791998 273.459939 
L 154.248247 274.901518 
L 156.722359 272.416134 
L 159.191842 271.124073 
L 161.647346 272.289185 
L 164.19753 277.07376 
L 166.646374 272.639001 
L 169.087599 280.114899 
L 171.578502 272.052213 
L 174.007298 282.191224 
L 176.454617 276.343097 
L 178.867915 274.08058 
L 181.338858 277.166856 
L 183.743047 275.256976 
L 186.116025 278.021648 
L 188.554261 277.685937 
L 191.017925 279.485795 
L 193.432694 278.371463 
L 195.900483 281.872441 
L 198.300339 286.609057 
L 200.762889 281.22641 
L 203.160334 277.911625 
L 205.572784 284.989749 
L 208.014386 284.614544 
L 210.447687 278.244514 
L 212.939572 288.180406 
L 215.397316 281.646753 
L 217.813792 277.011696 
L 220.279629 281.53673 
L 222.746596 279.443479 
L 225.247417 290.500756 
L 227.683641 286.391833 
L 230.129757 286.724722 
L 232.556879 288.214259 
L 235.00691 284.431173 
L 237.450695 279.05981 
L 239.889962 287.672609 
L 242.310946 287.382037 
L 244.798433 280.258775 
L 247.23449 285.665401 
L 249.650269 283.881059 
L 252.068359 290.492293 
L 254.499451 290.839287 
L 256.960566 287.297404 
L 259.423808 290.930973 
L 261.92492 287.729031 
L 264.423354 289.911147 
L 266.872924 287.256498 
L 269.301699 288.951975 
L 271.811359 287.00401 
L 274.273624 291.499423 
L 276.719828 289.94359 
L 279.085487 285.838898 
L 281.532727 290.624884 
L 284.027613 288.360956 
L 286.485766 292.352804 
L 288.950258 289.771503 
L 291.453289 293.346534 
L 293.883317 291.481086 
L 296.298225 292.890222 
L 298.703565 292.263939 
L 301.111017 295.161203 
L 303.55469 294.900252 
L 306.072028 295.41087 
L 308.514124 293.815541 
L 310.952887 297.348256 
L 313.437635 297.321455 
L 315.906622 297.032293 
L 318.359102 295.214804 
L 320.800084 298.217505 
L 323.269574 298.469993 
L 325.78677 298.125114 
L 328.306046 296.968113 
L 330.788553 300.207963 
L 333.221265 300.947619 
L 335.657044 300.078545 
L 338.108491 300.265443 
L 340.575675 301.246655 
L 343.066769 299.348764 
L 345.493411 301.551862 
L 347.925702 300.493687 
L 350.380531 300.372116 
L 355.280856 301.618774 
L 357.763708 302.230864 
L 360.232136 301.076507 
L 365.182014 302.720412 
L 367.571579 301.508399 
L 369.997917 302.654557 
L 372.453819 302.110394 
L 377.349779 303.399909 
L 379.754191 303.398841 
L 384.640058 303.128104 
L 387.131876 303.493149 
L 389.58616 303.233586 
L 392.08506 303.45707 
L 394.530214 302.888046 
L 397.019339 303.312709 
L 399.498403 303.497149 
L 404.411049 303.447174 
L 406.808827 303.36437 
L 411.769422 303.537801 
L 414.179477 303.450921 
L 423.952706 303.520842 
L 431.305573 303.528688 
L 431.305573 303.528688 
" style="fill:none;stroke:#1f77b4;stroke-linecap:square;stroke-width:1.5;"/>
   </g>
   <g id="line2d_17">
    <path clip-path="url(#paecdc8e618)" d="M 65.98598 38.457187 
L 68.015867 44.054237 
L 70.116408 56.783012 
L 72.134886 59.807225 
L 74.186707 75.357094 
L 76.268342 99.528225 
L 78.385461 112.79865 
L 80.517372 135.683362 
L 82.595255 153.467537 
L 84.673906 146.5615 
L 86.740244 184.623697 
L 88.846259 184.477 
L 90.837517 203.491172 
L 92.888272 201.065031 
L 94.917765 214.933528 
L 97.160108 219.345719 
L 99.166764 227.605881 
L 101.306762 214.470869 
L 103.483336 232.751556 
L 105.618865 228.079825 
L 107.759591 230.991194 
L 109.804708 223.735341 
L 111.966171 232.379172 
L 114.06621 227.368909 
L 116.091 238.845119 
L 118.150466 245.09102 
L 120.205047 232.356603 
L 122.288224 236.238428 
L 124.338761 238.529156 
L 126.4565 243.443502 
L 128.763262 244.887902 
L 130.884639 245.350561 
L 132.898567 253.75742 
L 134.955099 250.569584 
L 137.157557 259.76635 
L 139.187979 255.9748 
L 141.252421 253.983108 
L 143.479952 250.027934 
L 145.599368 246.732897 
L 147.684734 245.288497 
L 149.832538 251.353848 
L 151.905276 244.272903 
L 154.076323 252.448433 
L 156.216664 259.992037 
L 158.378295 261.656483 
L 160.588522 258.660481 
L 162.632616 250.044861 
L 164.783236 259.834056 
L 166.963355 256.048148 
L 169.117734 253.802558 
L 171.233654 260.623963 
L 173.301015 254.953564 
L 175.526725 255.782966 
L 177.675801 268.963116 
L 179.766452 269.532977 
L 181.906385 269.431417 
L 183.972347 257.069384 
L 186.047399 270.847606 
L 188.088616 273.036775 
L 190.218381 259.975111 
L 192.456223 272.433061 
L 194.587313 258.163969 
L 196.742294 257.656172 
L 198.908585 263.021892 
L 200.963951 267.546927 
L 203.001762 279.183938 
L 205.055879 267.044772 
L 207.320988 266.142022 
L 209.432766 268.111145 
L 211.549135 264.455008 
L 213.674886 257.644887 
L 215.820969 267.868531 
L 217.876131 272.607969 
L 220.040402 263.659459 
L 222.154976 273.155261 
L 224.338421 271.056367 
L 226.436738 275.409315 
L 228.524148 276.235895 
L 230.609445 263.619964 
L 232.672893 276.63367 
L 234.834585 273.809755 
L 236.931907 276.035598 
L 239.062663 277.240205 
L 241.193632 272.334323 
L 243.230165 272.593863 
L 245.362718 281.189736 
L 247.446948 277.649263 
L 249.606946 271.699577 
L 251.708714 277.042728 
L 253.785777 262.16428 
L 255.998298 282.30971 
L 258.048864 275.536264 
L 260.13848 287.128138 
L 262.24795 280.405472 
L 264.42318 278.633825 
L 266.546188 277.530777 
L 268.64312 285.542684 
L 270.768109 280.614233 
L 272.924973 282.027601 
L 274.994744 289.304612 
L 277.127048 286.769859 
L 279.24368 290.105803 
L 281.252441 286.276168 
L 283.437494 282.857002 
L 285.475485 286.680995 
L 287.65968 288.922354 
L 289.718043 292.188475 
L 291.761499 289.562742 
L 293.774759 292.481164 
L 295.8859 292.773147 
L 298.040768 290.521914 
L 300.207559 293.299986 
L 302.326304 297.034409 
L 304.453124 288.359546 
L 306.634799 293.47701 
L 308.759201 290.881604 
L 313.00376 293.70975 
L 315.069695 295.466586 
L 317.12854 294.494719 
L 319.371558 294.552552 
L 321.482987 300.244461 
L 323.555118 299.808249 
L 325.699538 299.997968 
L 327.83673 298.558505 
L 329.911838 298.181889 
L 331.996917 301.423502 
L 334.032912 302.044495 
L 336.159353 302.328015 
L 338.247504 301.359146 
L 340.428194 301.141304 
L 342.516842 300.730659 
L 344.567432 302.166507 
L 346.663468 301.593032 
L 348.850527 302.753163 
L 351.099081 299.074765 
L 353.160071 303.0829 
L 355.31621 302.968139 
L 357.435272 301.432318 
L 359.467951 302.551499 
L 361.56344 301.428968 
L 363.659502 302.485996 
L 365.693942 302.977991 
L 367.998016 302.708157 
L 370.015658 303.059251 
L 372.059012 302.669588 
L 374.145521 302.750253 
L 376.288947 303.336226 
L 378.342846 303.063615 
L 380.533897 301.943377 
L 380.533897 301.943377 
" style="fill:none;stroke:#ff7f0e;stroke-linecap:square;stroke-width:1.5;"/>
   </g>
   <g id="line2d_18">
    <path clip-path="url(#paecdc8e618)" d="M 66.017233 38.547462 
L 68.023544 45.227812 
L 70.155074 59.8975 
L 72.255729 62.515475 
L 78.676612 122.706331 
L 80.924971 140.445369 
L 83.075022 160.892656 
L 85.210308 152.903319 
L 87.338322 185.582869 
L 89.396193 188.358825 
L 91.511233 208.12905 
L 93.573819 200.591087 
L 95.716294 217.732053 
L 97.93512 222.369931 
L 100.056861 228.71175 
L 102.222915 217.088844 
L 104.389753 239.443191 
L 106.545565 224.762219 
L 108.675141 229.095419 
L 110.749869 231.104038 
L 112.886359 235.629072 
L 114.988031 224.999191 
L 117.120665 237.412003 
L 119.241167 247.110923 
L 121.373081 236.915491 
L 123.482562 237.1976 
L 125.645765 243.392722 
L 127.715798 249.762752 
L 129.915246 245.525469 
L 132.055334 248.166012 
L 134.146528 254.620675 
L 136.296859 251.353848 
L 138.396372 258.637912 
L 140.544315 257.46998 
L 142.715186 255.658837 
L 144.944976 248.555323 
L 147.012284 251.810866 
L 149.143017 246.563631 
L 151.293111 251.545683 
L 153.431162 250.648575 
L 155.568866 256.076359 
L 157.669271 254.964848 
L 159.817823 261.910381 
L 162.033187 258.107547 
L 164.100763 251.87293 
L 166.21765 262.395609 
L 168.324648 252.030911 
L 170.448433 255.991727 
L 172.588658 261.408227 
L 174.731468 255.822461 
L 176.968595 255.540352 
L 179.136644 270.001278 
L 181.2597 269.318573 
L 183.342738 270.097195 
L 185.508935 253.4471 
L 187.644096 268.861556 
L 189.700786 265.741427 
L 191.773072 259.664791 
L 193.995408 273.268105 
L 196.088194 263.225011 
L 198.177711 259.298048 
L 200.218562 261.295383 
L 202.334187 265.459317 
L 204.400022 278.154239 
L 206.479117 268.190136 
L 208.646 263.766661 
L 210.762584 268.675364 
L 212.839951 259.924331 
L 214.894263 258.079336 
L 217.000182 264.297027 
L 219.122432 272.246869 
L 221.287611 260.652173 
L 223.47717 271.208706 
L 225.681963 269.634536 
L 227.780704 271.826526 
L 229.869938 271.375151 
L 231.989605 264.364733 
L 234.136234 276.743692 
L 236.195206 277.556167 
L 238.242134 278.977998 
L 240.325227 271.465426 
L 242.548125 271.5021 
L 244.689659 274.929729 
L 246.807576 282.574893 
L 248.901232 279.717125 
L 250.930112 275.321861 
L 253.081106 276.17101 
L 255.150893 264.037486 
L 257.394384 280.450609 
L 259.447232 278.825659 
L 261.570791 289.455541 
L 263.682909 281.615721 
L 265.76608 279.285498 
L 267.797906 276.348739 
L 269.861946 283.858491 
L 271.935347 282.871108 
L 274.095028 281.375928 
L 276.26146 290.706696 
L 278.461054 288.813742 
L 280.533373 287.762884 
L 282.654054 288.552791 
L 284.715007 283.923376 
L 286.822352 288.692435 
L 289.021122 290.33149 
L 291.138068 291.347084 
L 293.288836 291.378116 
L 295.399546 292.179307 
L 297.573707 294.616026 
L 299.604808 290.249679 
L 301.666931 295.083623 
L 303.810978 298.338107 
L 305.991508 287.078769 
L 308.144397 292.127116 
L 310.274763 293.022814 
L 312.385217 291.64753 
L 314.50515 296.70293 
L 316.518407 294.034881 
L 318.639278 295.545577 
L 320.865444 297.440646 
L 322.982408 298.745755 
L 325.083296 299.316321 
L 327.180546 300.964545 
L 329.274234 298.161789 
L 331.350867 300.985351 
L 333.474487 300.516344 
L 335.54892 301.969736 
L 337.811936 302.157339 
L 339.899952 300.034642 
L 342.03285 301.004569 
L 344.090872 300.527099 
L 348.294252 301.145977 
L 350.405776 302.248055 
L 352.630793 300.630951 
L 354.724479 302.318758 
L 356.856398 301.716014 
L 358.991303 302.762287 
L 361.09891 302.148787 
L 363.196493 300.881852 
L 365.33087 302.734561 
L 367.476683 303.245069 
L 369.63611 303.126649 
L 373.802063 303.101546 
L 375.860564 302.802135 
L 377.938259 303.364921 
L 380.089033 303.101215 
L 382.200857 303.098879 
L 382.200857 303.098879 
" style="fill:none;stroke:#2ca02c;stroke-linecap:square;stroke-width:1.5;"/>
   </g>
   <g id="line2d_19">
    <path clip-path="url(#paecdc8e618)" d="M 65.994178 38.818287 
L 68.150705 44.821575 
L 70.229117 62.199512 
L 72.33104 61.071075 
L 74.498623 81.721481 
L 76.637836 103.432619 
L 78.72169 122.638625 
L 80.899195 138.639869 
L 82.924065 156.243494 
L 85.079635 150.082225 
L 87.09406 181.791319 
L 89.14556 187.828459 
L 91.306262 207.880794 
L 93.493384 201.775947 
L 95.593127 215.599306 
L 97.787981 221.783144 
L 99.935145 226.409738 
L 102.046989 212.981331 
L 104.076617 238.326037 
L 106.073002 223.870753 
L 108.179848 230.438259 
L 110.322723 225.732675 
L 112.544918 233.135225 
L 114.600948 231.577981 
L 116.735189 240.503922 
L 118.784657 246.478998 
L 120.919539 233.518894 
L 123.012711 235.019716 
L 125.098968 239.838144 
L 127.22453 250.73885 
L 129.430774 243.787675 
L 131.592773 249.937659 
L 133.757964 257.029889 
L 135.886866 250.829125 
L 138.011146 260.240294 
L 140.132314 255.568562 
L 142.237834 258.068052 
L 144.484369 248.944634 
L 146.685872 247.517161 
L 148.727747 250.840409 
L 150.857463 253.853337 
L 152.866397 247.85005 
L 154.951984 257.706952 
L 157.000935 252.05348 
L 159.157745 264.031844 
L 161.352365 260.003322 
L 163.481115 250.095641 
L 165.497756 262.52538 
L 167.628152 254.282144 
L 169.671314 254.541684 
L 171.756757 261.509786 
L 173.919346 257.28943 
L 176.086608 259.09493 
L 178.212775 264.206752 
L 180.354787 271.06483 
L 182.401445 269.092886 
L 184.434008 256.612367 
L 186.455283 273.031133 
L 188.635266 267.445367 
L 190.77836 259.247269 
L 192.918844 269.87715 
L 194.939235 261.272814 
L 197.060136 257.537686 
L 199.223766 262.034509 
L 201.34621 265.90505 
L 203.472904 277.127361 
L 205.569566 270.458295 
L 207.839144 265.064364 
L 209.945572 269.109812 
L 211.921193 263.964137 
L 214.039963 256.753422 
L 216.134015 269.341142 
L 218.192149 274.266772 
L 220.303807 266.012252 
L 222.414668 271.152284 
L 224.663216 266.457984 
L 226.722896 274.072116 
L 228.875266 272.029645 
L 231.024888 267.671055 
L 233.201343 276.001745 
L 235.249058 277.731075 
L 237.302928 280.278523 
L 239.441145 270.717836 
L 241.618321 273.685627 
L 243.76603 272.196089 
L 245.923094 281.136135 
L 248.037195 275.756309 
L 250.083453 274.579913 
L 252.067654 275.400852 
L 254.202074 266.582112 
L 256.469961 281.40696 
L 258.644339 278.712816 
L 260.696385 287.537197 
L 262.786349 281.423887 
L 264.984747 278.179629 
L 267.185196 279.516827 
L 269.294155 286.843208 
L 271.353576 280.794783 
L 273.517443 277.542062 
L 275.630971 288.478032 
L 277.82319 287.655683 
L 279.866042 289.021092 
L 282.040298 285.627316 
L 284.125113 286.325537 
L 286.175242 289.847673 
L 288.45675 288.32005 
L 290.586578 292.145454 
L 292.703311 290.729264 
L 294.725767 290.734907 
L 296.786174 291.321694 
L 298.852671 290.086055 
L 300.903141 293.81272 
L 303.002072 297.031588 
L 305.274336 287.23534 
L 307.368591 292.018504 
L 309.453312 291.531866 
L 311.486492 293.456557 
L 313.556505 295.756454 
L 315.662296 296.267777 
L 317.696648 295.19294 
L 319.852992 298.644196 
L 326.042354 300.392216 
L 328.114637 300.732863 
L 330.295264 298.967211 
L 332.325496 301.13099 
L 334.377392 301.984282 
L 336.528044 302.244969 
L 338.639766 300.636769 
L 340.785391 299.791323 
L 342.937668 301.004746 
L 345.033824 301.761328 
L 347.138707 301.764678 
L 349.205087 302.293986 
L 351.404668 301.038775 
L 353.511558 302.641024 
L 355.582932 301.568788 
L 357.642503 302.636352 
L 359.724057 302.493975 
L 361.773792 301.595941 
L 363.855223 302.945306 
L 365.95794 303.381627 
L 372.266463 303.085589 
L 374.311681 302.499088 
L 376.410736 303.338407 
L 378.571517 302.620792 
L 380.704223 302.405022 
L 380.704223 302.405022 
" style="fill:none;stroke:#d62728;stroke-linecap:square;stroke-width:1.5;"/>
   </g>
   <g id="line2d_20">
    <path clip-path="url(#paecdc8e618)" d="M 66.069657 38.096088 
L 68.173335 43.241762 
L 70.256134 56.196225 
L 72.373409 59.5364 
L 74.435865 66.93895 
L 76.556469 92.93815 
L 80.941133 138.301337 
L 83.054696 152.203687 
L 85.192258 147.373975 
L 87.359814 184.984797 
L 89.485988 181.791319 
L 91.634434 208.659416 
L 93.699216 203.897409 
L 95.811301 216.400497 
L 98.060674 221.252778 
L 100.169892 225.405428 
L 102.339008 216.423066 
L 104.515184 238.799981 
L 106.613755 229.603216 
L 108.731718 231.96165 
L 110.787115 224.085156 
L 113.04192 234.827881 
L 115.105204 227.98955 
L 117.173442 237.761819 
L 119.34334 245.130516 
L 121.394616 233.394766 
L 123.540457 236.509253 
L 125.625921 240.797316 
L 127.710218 251.201509 
L 129.941256 246.484641 
L 132.050988 247.110923 
L 134.231806 255.884525 
L 136.35791 252.944945 
L 138.439577 258.254244 
L 140.469453 259.512452 
L 142.538419 257.396631 
L 144.792058 248.673809 
L 146.93127 250.642933 
L 149.019505 248.955919 
L 151.114427 251.477977 
L 153.170564 246.292806 
L 155.251879 255.043839 
L 157.412878 250.535731 
L 159.509798 260.61832 
L 161.683876 258.491216 
L 163.796856 249.711972 
L 165.970318 261.188181 
L 168.108905 250.202842 
L 170.24926 251.681095 
L 172.38572 265.3634 
L 174.4681 254.40063 
L 176.692423 255.320306 
L 178.7889 265.572161 
L 180.934943 271.671366 
L 183.106233 269.950498 
L 185.207372 255.579847 
L 187.289326 271.750356 
L 189.390404 272.449987 
L 191.513061 260.392633 
L 193.755165 272.410492 
L 195.882359 262.610012 
L 197.955722 258.688692 
L 200.103237 262.356114 
L 202.272898 268.07165 
L 204.401416 279.460405 
L 206.57865 268.43275 
L 208.792548 266.457984 
L 210.909532 269.863045 
L 212.940277 266.864222 
L 215.068278 259.523736 
L 217.159269 267.21968 
L 219.264997 270.912491 
L 221.343076 263.191158 
L 223.374904 272.878794 
L 225.587925 268.568162 
L 227.654081 274.351405 
L 229.655688 270.799648 
L 231.743471 264.2801 
L 233.890259 275.91147 
L 236.03936 273.191935 
L 238.104241 277.519493 
L 240.216647 269.741737 
L 242.453099 274.893055 
L 244.513539 270.486506 
L 246.582048 278.264262 
L 248.645184 276.605459 
L 250.735056 274.706862 
L 252.830937 273.059344 
L 254.953729 263.213727 
L 257.213037 282.642599 
L 259.314251 275.739383 
L 261.363853 286.682405 
L 263.506473 280.780677 
L 265.643638 276.89321 
L 267.726413 275.510874 
L 269.82236 282.797759 
L 271.863131 285.209795 
L 274.094951 279.996413 
L 276.14262 289.851904 
L 278.275929 287.707873 
L 280.383761 286.360801 
L 282.539932 288.403273 
L 284.663902 282.699021 
L 286.739171 289.251011 
L 288.933487 288.465337 
L 291.046468 292.330235 
L 293.138405 290.062076 
L 295.271613 289.644554 
L 297.440115 292.300614 
L 299.518203 289.960516 
L 301.58395 293.075004 
L 303.763189 297.182516 
L 305.987039 288.96326 
L 308.109996 292.482574 
L 310.346394 291.697605 
L 312.476721 291.320284 
L 314.532588 296.505454 
L 316.602389 296.897586 
L 318.695156 295.521597 
L 320.994029 294.549025 
L 323.09165 298.021087 
L 325.207868 298.432614 
L 327.393692 300.278667 
L 329.442085 298.82933 
L 331.558031 299.494755 
L 333.593314 301.715265 
L 335.663729 301.38242 
L 337.930394 302.331365 
L 340.037871 301.491561 
L 342.182344 301.175951 
L 344.284436 300.166176 
L 346.470061 302.341944 
L 348.572266 301.725359 
L 350.694128 301.403402 
L 352.835589 300.888728 
L 354.92634 302.389638 
L 357.033366 302.165802 
L 359.081142 302.949978 
L 361.15371 302.633222 
L 363.312695 302.186608 
L 365.432998 303.259461 
L 367.574691 302.547708 
L 369.754929 303.239603 
L 371.871283 303.312709 
L 373.942867 303.050678 
L 376.008568 301.270987 
L 378.101623 302.912687 
L 380.202819 303.192284 
L 382.362513 302.665136 
L 382.362513 302.665136 
" style="fill:none;stroke:#9467bd;stroke-linecap:square;stroke-width:1.5;"/>
   </g>
   <g id="patch_3">
    <path d="M 47.72 303.64 
L 47.72 14.76 
" style="fill:none;stroke:#000000;stroke-linecap:square;stroke-linejoin:miter;stroke-width:0.8;"/>
   </g>
   <g id="patch_4">
    <path d="M 449.571552 303.64 
L 449.571552 14.76 
" style="fill:none;stroke:#000000;stroke-linecap:square;stroke-linejoin:miter;stroke-width:0.8;"/>
   </g>
   <g id="patch_5">
    <path d="M 47.72 303.64 
L 449.571552 303.64 
" style="fill:none;stroke:#000000;stroke-linecap:square;stroke-linejoin:miter;stroke-width:0.8;"/>
   </g>
   <g id="patch_6">
    <path d="M 47.72 14.76 
L 449.571552 14.76 
" style="fill:none;stroke:#000000;stroke-linecap:square;stroke-linejoin:miter;stroke-width:0.8;"/>
   </g>
   <g id="legend_1">
    <g id="patch_7">
     <path d="M 282.227802 96.150625 
L 442.571552 96.150625 
Q 444.571552 96.150625 444.571552 94.150625 
L 444.571552 21.76 
Q 444.571552 19.76 442.571552 19.76 
L 282.227802 19.76 
Q 280.227802 19.76 280.227802 21.76 
L 280.227802 94.150625 
Q 280.227802 96.150625 282.227802 96.150625 
z
" style="fill:#ffffff;opacity:0.8;stroke:#cccccc;stroke-linejoin:miter;"/>
    </g>
    <g id="line2d_21">
     <path d="M 284.227802 27.858437 
L 304.227802 27.858437 
" style="fill:none;stroke:#1f77b4;stroke-linecap:square;stroke-width:1.5;"/>
    </g>
    <g id="line2d_22"/>
    <g id="text_18">
     <!-- AllReduce SGD -->
     <g transform="translate(312.227802 31.358437)scale(0.1 -0.1)">
      <defs>
       <path d="M 34.1875 63.1875 
L 20.796875 26.90625 
L 47.609375 26.90625 
z
M 28.609375 72.90625 
L 39.796875 72.90625 
L 67.578125 0 
L 57.328125 0 
L 50.6875 18.703125 
L 17.828125 18.703125 
L 11.1875 0 
L 0.78125 0 
z
" id="DejaVuSans-65"/>
       <path d="M 9.421875 75.984375 
L 18.40625 75.984375 
L 18.40625 0 
L 9.421875 0 
z
" id="DejaVuSans-108"/>
       <path d="M 44.390625 34.1875 
Q 47.5625 33.109375 50.5625 29.59375 
Q 53.5625 26.078125 56.59375 19.921875 
L 66.609375 0 
L 56 0 
L 46.6875 18.703125 
Q 43.0625 26.03125 39.671875 28.421875 
Q 36.28125 30.8125 30.421875 30.8125 
L 19.671875 30.8125 
L 19.671875 0 
L 9.8125 0 
L 9.8125 72.90625 
L 32.078125 72.90625 
Q 44.578125 72.90625 50.734375 67.671875 
Q 56.890625 62.453125 56.890625 51.90625 
Q 56.890625 45.015625 53.6875 40.46875 
Q 50.484375 35.9375 44.390625 34.1875 
z
M 19.671875 64.796875 
L 19.671875 38.921875 
L 32.078125 38.921875 
Q 39.203125 38.921875 42.84375 42.21875 
Q 46.484375 45.515625 46.484375 51.90625 
Q 46.484375 58.296875 42.84375 61.546875 
Q 39.203125 64.796875 32.078125 64.796875 
z
" id="DejaVuSans-82"/>
       <path d="M 45.40625 46.390625 
L 45.40625 75.984375 
L 54.390625 75.984375 
L 54.390625 0 
L 45.40625 0 
L 45.40625 8.203125 
Q 42.578125 3.328125 38.25 0.953125 
Q 33.9375 -1.421875 27.875 -1.421875 
Q 17.96875 -1.421875 11.734375 6.484375 
Q 5.515625 14.40625 5.515625 27.296875 
Q 5.515625 40.1875 11.734375 48.09375 
Q 17.96875 56 27.875 56 
Q 33.9375 56 38.25 53.625 
Q 42.578125 51.265625 45.40625 46.390625 
z
M 14.796875 27.296875 
Q 14.796875 17.390625 18.875 11.75 
Q 22.953125 6.109375 30.078125 6.109375 
Q 37.203125 6.109375 41.296875 11.75 
Q 45.40625 17.390625 45.40625 27.296875 
Q 45.40625 37.203125 41.296875 42.84375 
Q 37.203125 48.484375 30.078125 48.484375 
Q 22.953125 48.484375 18.875 42.84375 
Q 14.796875 37.203125 14.796875 27.296875 
z
" id="DejaVuSans-100"/>
       <path d="M 8.5 21.578125 
L 8.5 54.6875 
L 17.484375 54.6875 
L 17.484375 21.921875 
Q 17.484375 14.15625 20.5 10.265625 
Q 23.53125 6.390625 29.59375 6.390625 
Q 36.859375 6.390625 41.078125 11.03125 
Q 45.3125 15.671875 45.3125 23.6875 
L 45.3125 54.6875 
L 54.296875 54.6875 
L 54.296875 0 
L 45.3125 0 
L 45.3125 8.40625 
Q 42.046875 3.421875 37.71875 1 
Q 33.40625 -1.421875 27.6875 -1.421875 
Q 18.265625 -1.421875 13.375 4.4375 
Q 8.5 10.296875 8.5 21.578125 
z
M 31.109375 56 
z
" id="DejaVuSans-117"/>
       <path d="M 48.78125 52.59375 
L 48.78125 44.1875 
Q 44.96875 46.296875 41.140625 47.34375 
Q 37.3125 48.390625 33.40625 48.390625 
Q 24.65625 48.390625 19.8125 42.84375 
Q 14.984375 37.3125 14.984375 27.296875 
Q 14.984375 17.28125 19.8125 11.734375 
Q 24.65625 6.203125 33.40625 6.203125 
Q 37.3125 6.203125 41.140625 7.25 
Q 44.96875 8.296875 48.78125 10.40625 
L 48.78125 2.09375 
Q 45.015625 0.34375 40.984375 -0.53125 
Q 36.96875 -1.421875 32.421875 -1.421875 
Q 20.0625 -1.421875 12.78125 6.34375 
Q 5.515625 14.109375 5.515625 27.296875 
Q 5.515625 40.671875 12.859375 48.328125 
Q 20.21875 56 33.015625 56 
Q 37.15625 56 41.109375 55.140625 
Q 45.0625 54.296875 48.78125 52.59375 
z
" id="DejaVuSans-99"/>
       <path id="DejaVuSans-32"/>
       <path d="M 53.515625 70.515625 
L 53.515625 60.890625 
Q 47.90625 63.578125 42.921875 64.890625 
Q 37.9375 66.21875 33.296875 66.21875 
Q 25.25 66.21875 20.875 63.09375 
Q 16.5 59.96875 16.5 54.203125 
Q 16.5 49.359375 19.40625 46.890625 
Q 22.3125 44.4375 30.421875 42.921875 
L 36.375 41.703125 
Q 47.40625 39.59375 52.65625 34.296875 
Q 57.90625 29 57.90625 20.125 
Q 57.90625 9.515625 50.796875 4.046875 
Q 43.703125 -1.421875 29.984375 -1.421875 
Q 24.8125 -1.421875 18.96875 -0.25 
Q 13.140625 0.921875 6.890625 3.21875 
L 6.890625 13.375 
Q 12.890625 10.015625 18.65625 8.296875 
Q 24.421875 6.59375 29.984375 6.59375 
Q 38.421875 6.59375 43.015625 9.90625 
Q 47.609375 13.234375 47.609375 19.390625 
Q 47.609375 24.75 44.3125 27.78125 
Q 41.015625 30.8125 33.5 32.328125 
L 27.484375 33.5 
Q 16.453125 35.6875 11.515625 40.375 
Q 6.59375 45.0625 6.59375 53.421875 
Q 6.59375 63.09375 13.40625 68.65625 
Q 20.21875 74.21875 32.171875 74.21875 
Q 37.3125 74.21875 42.625 73.28125 
Q 47.953125 72.359375 53.515625 70.515625 
z
" id="DejaVuSans-83"/>
       <path d="M 59.515625 10.40625 
L 59.515625 29.984375 
L 43.40625 29.984375 
L 43.40625 38.09375 
L 69.28125 38.09375 
L 69.28125 6.78125 
Q 63.578125 2.734375 56.6875 0.65625 
Q 49.8125 -1.421875 42 -1.421875 
Q 24.90625 -1.421875 15.25 8.5625 
Q 5.609375 18.5625 5.609375 36.375 
Q 5.609375 54.25 15.25 64.234375 
Q 24.90625 74.21875 42 74.21875 
Q 49.125 74.21875 55.546875 72.453125 
Q 61.96875 70.703125 67.390625 67.28125 
L 67.390625 56.78125 
Q 61.921875 61.421875 55.765625 63.765625 
Q 49.609375 66.109375 42.828125 66.109375 
Q 29.4375 66.109375 22.71875 58.640625 
Q 16.015625 51.171875 16.015625 36.375 
Q 16.015625 21.625 22.71875 14.15625 
Q 29.4375 6.6875 42.828125 6.6875 
Q 48.046875 6.6875 52.140625 7.59375 
Q 56.25 8.5 59.515625 10.40625 
z
" id="DejaVuSans-71"/>
       <path d="M 19.671875 64.796875 
L 19.671875 8.109375 
L 31.59375 8.109375 
Q 46.6875 8.109375 53.6875 14.9375 
Q 60.6875 21.78125 60.6875 36.53125 
Q 60.6875 51.171875 53.6875 57.984375 
Q 46.6875 64.796875 31.59375 64.796875 
z
M 9.8125 72.90625 
L 30.078125 72.90625 
Q 51.265625 72.90625 61.171875 64.09375 
Q 71.09375 55.28125 71.09375 36.53125 
Q 71.09375 17.671875 61.125 8.828125 
Q 51.171875 0 30.078125 0 
L 9.8125 0 
z
" id="DejaVuSans-68"/>
      </defs>
      <use xlink:href="#DejaVuSans-65"/>
      <use x="68.408203" xlink:href="#DejaVuSans-108"/>
      <use x="96.191406" xlink:href="#DejaVuSans-108"/>
      <use x="123.974609" xlink:href="#DejaVuSans-82"/>
      <use x="188.957031" xlink:href="#DejaVuSans-101"/>
      <use x="250.480469" xlink:href="#DejaVuSans-100"/>
      <use x="313.957031" xlink:href="#DejaVuSans-117"/>
      <use x="377.335938" xlink:href="#DejaVuSans-99"/>
      <use x="432.316406" xlink:href="#DejaVuSans-101"/>
      <use x="493.839844" xlink:href="#DejaVuSans-32"/>
      <use x="525.626953" xlink:href="#DejaVuSans-83"/>
      <use x="589.103516" xlink:href="#DejaVuSans-71"/>
      <use x="666.59375" xlink:href="#DejaVuSans-68"/>
     </g>
    </g>
    <g id="line2d_23">
     <path d="M 284.227802 42.536563 
L 304.227802 42.536563 
" style="fill:none;stroke:#ff7f0e;stroke-linecap:square;stroke-width:1.5;"/>
    </g>
    <g id="line2d_24"/>
    <g id="text_19">
     <!-- GRandK-MN-TS (8,12) bits -->
     <g transform="translate(312.227802 46.036563)scale(0.1 -0.1)">
      <defs>
       <path d="M 34.28125 27.484375 
Q 23.390625 27.484375 19.1875 25 
Q 14.984375 22.515625 14.984375 16.5 
Q 14.984375 11.71875 18.140625 8.90625 
Q 21.296875 6.109375 26.703125 6.109375 
Q 34.1875 6.109375 38.703125 11.40625 
Q 43.21875 16.703125 43.21875 25.484375 
L 43.21875 27.484375 
z
M 52.203125 31.203125 
L 52.203125 0 
L 43.21875 0 
L 43.21875 8.296875 
Q 40.140625 3.328125 35.546875 0.953125 
Q 30.953125 -1.421875 24.3125 -1.421875 
Q 15.921875 -1.421875 10.953125 3.296875 
Q 6 8.015625 6 15.921875 
Q 6 25.140625 12.171875 29.828125 
Q 18.359375 34.515625 30.609375 34.515625 
L 43.21875 34.515625 
L 43.21875 35.40625 
Q 43.21875 41.609375 39.140625 45 
Q 35.0625 48.390625 27.6875 48.390625 
Q 23 48.390625 18.546875 47.265625 
Q 14.109375 46.140625 10.015625 43.890625 
L 10.015625 52.203125 
Q 14.9375 54.109375 19.578125 55.046875 
Q 24.21875 56 28.609375 56 
Q 40.484375 56 46.34375 49.84375 
Q 52.203125 43.703125 52.203125 31.203125 
z
" id="DejaVuSans-97"/>
       <path d="M 54.890625 33.015625 
L 54.890625 0 
L 45.90625 0 
L 45.90625 32.71875 
Q 45.90625 40.484375 42.875 44.328125 
Q 39.84375 48.1875 33.796875 48.1875 
Q 26.515625 48.1875 22.3125 43.546875 
Q 18.109375 38.921875 18.109375 30.90625 
L 18.109375 0 
L 9.078125 0 
L 9.078125 54.6875 
L 18.109375 54.6875 
L 18.109375 46.1875 
Q 21.34375 51.125 25.703125 53.5625 
Q 30.078125 56 35.796875 56 
Q 45.21875 56 50.046875 50.171875 
Q 54.890625 44.34375 54.890625 33.015625 
z
" id="DejaVuSans-110"/>
       <path d="M 9.8125 72.90625 
L 19.671875 72.90625 
L 19.671875 42.09375 
L 52.390625 72.90625 
L 65.09375 72.90625 
L 28.90625 38.921875 
L 67.671875 0 
L 54.6875 0 
L 19.671875 35.109375 
L 19.671875 0 
L 9.8125 0 
z
" id="DejaVuSans-75"/>
       <path d="M 4.890625 31.390625 
L 31.203125 31.390625 
L 31.203125 23.390625 
L 4.890625 23.390625 
z
" id="DejaVuSans-45"/>
       <path d="M 9.8125 72.90625 
L 24.515625 72.90625 
L 43.109375 23.296875 
L 61.8125 72.90625 
L 76.515625 72.90625 
L 76.515625 0 
L 66.890625 0 
L 66.890625 64.015625 
L 48.09375 14.015625 
L 38.1875 14.015625 
L 19.390625 64.015625 
L 19.390625 0 
L 9.8125 0 
z
" id="DejaVuSans-77"/>
       <path d="M 9.8125 72.90625 
L 23.09375 72.90625 
L 55.421875 11.921875 
L 55.421875 72.90625 
L 64.984375 72.90625 
L 64.984375 0 
L 51.703125 0 
L 19.390625 60.984375 
L 19.390625 0 
L 9.8125 0 
z
" id="DejaVuSans-78"/>
       <path d="M 31 75.875 
Q 24.46875 64.65625 21.28125 53.65625 
Q 18.109375 42.671875 18.109375 31.390625 
Q 18.109375 20.125 21.3125 9.0625 
Q 24.515625 -2 31 -13.1875 
L 23.1875 -13.1875 
Q 15.875 -1.703125 12.234375 9.375 
Q 8.59375 20.453125 8.59375 31.390625 
Q 8.59375 42.28125 12.203125 53.3125 
Q 15.828125 64.359375 23.1875 75.875 
z
" id="DejaVuSans-40"/>
       <path d="M 31.78125 34.625 
Q 24.75 34.625 20.71875 30.859375 
Q 16.703125 27.09375 16.703125 20.515625 
Q 16.703125 13.921875 20.71875 10.15625 
Q 24.75 6.390625 31.78125 6.390625 
Q 38.8125 6.390625 42.859375 10.171875 
Q 46.921875 13.96875 46.921875 20.515625 
Q 46.921875 27.09375 42.890625 30.859375 
Q 38.875 34.625 31.78125 34.625 
z
M 21.921875 38.8125 
Q 15.578125 40.375 12.03125 44.71875 
Q 8.5 49.078125 8.5 55.328125 
Q 8.5 64.0625 14.71875 69.140625 
Q 20.953125 74.21875 31.78125 74.21875 
Q 42.671875 74.21875 48.875 69.140625 
Q 55.078125 64.0625 55.078125 55.328125 
Q 55.078125 49.078125 51.53125 44.71875 
Q 48 40.375 41.703125 38.8125 
Q 48.828125 37.15625 52.796875 32.3125 
Q 56.78125 27.484375 56.78125 20.515625 
Q 56.78125 9.90625 50.3125 4.234375 
Q 43.84375 -1.421875 31.78125 -1.421875 
Q 19.734375 -1.421875 13.25 4.234375 
Q 6.78125 9.90625 6.78125 20.515625 
Q 6.78125 27.484375 10.78125 32.3125 
Q 14.796875 37.15625 21.921875 38.8125 
z
M 18.3125 54.390625 
Q 18.3125 48.734375 21.84375 45.5625 
Q 25.390625 42.390625 31.78125 42.390625 
Q 38.140625 42.390625 41.71875 45.5625 
Q 45.3125 48.734375 45.3125 54.390625 
Q 45.3125 60.0625 41.71875 63.234375 
Q 38.140625 66.40625 31.78125 66.40625 
Q 25.390625 66.40625 21.84375 63.234375 
Q 18.3125 60.0625 18.3125 54.390625 
z
" id="DejaVuSans-56"/>
       <path d="M 11.71875 12.40625 
L 22.015625 12.40625 
L 22.015625 4 
L 14.015625 -11.625 
L 7.71875 -11.625 
L 11.71875 4 
z
" id="DejaVuSans-44"/>
       <path d="M 8.015625 75.875 
L 15.828125 75.875 
Q 23.140625 64.359375 26.78125 53.3125 
Q 30.421875 42.28125 30.421875 31.390625 
Q 30.421875 20.453125 26.78125 9.375 
Q 23.140625 -1.703125 15.828125 -13.1875 
L 8.015625 -13.1875 
Q 14.5 -2 17.703125 9.0625 
Q 20.90625 20.125 20.90625 31.390625 
Q 20.90625 42.671875 17.703125 53.65625 
Q 14.5 64.65625 8.015625 75.875 
z
" id="DejaVuSans-41"/>
       <path d="M 48.6875 27.296875 
Q 48.6875 37.203125 44.609375 42.84375 
Q 40.53125 48.484375 33.40625 48.484375 
Q 26.265625 48.484375 22.1875 42.84375 
Q 18.109375 37.203125 18.109375 27.296875 
Q 18.109375 17.390625 22.1875 11.75 
Q 26.265625 6.109375 33.40625 6.109375 
Q 40.53125 6.109375 44.609375 11.75 
Q 48.6875 17.390625 48.6875 27.296875 
z
M 18.109375 46.390625 
Q 20.953125 51.265625 25.265625 53.625 
Q 29.59375 56 35.59375 56 
Q 45.5625 56 51.78125 48.09375 
Q 58.015625 40.1875 58.015625 27.296875 
Q 58.015625 14.40625 51.78125 6.484375 
Q 45.5625 -1.421875 35.59375 -1.421875 
Q 29.59375 -1.421875 25.265625 0.953125 
Q 20.953125 3.328125 18.109375 8.203125 
L 18.109375 0 
L 9.078125 0 
L 9.078125 75.984375 
L 18.109375 75.984375 
z
" id="DejaVuSans-98"/>
       <path d="M 18.3125 70.21875 
L 18.3125 54.6875 
L 36.8125 54.6875 
L 36.8125 47.703125 
L 18.3125 47.703125 
L 18.3125 18.015625 
Q 18.3125 11.328125 20.140625 9.421875 
Q 21.96875 7.515625 27.59375 7.515625 
L 36.8125 7.515625 
L 36.8125 0 
L 27.59375 0 
Q 17.1875 0 13.234375 3.875 
Q 9.28125 7.765625 9.28125 18.015625 
L 9.28125 47.703125 
L 2.6875 47.703125 
L 2.6875 54.6875 
L 9.28125 54.6875 
L 9.28125 70.21875 
z
" id="DejaVuSans-116"/>
      </defs>
      <use xlink:href="#DejaVuSans-71"/>
      <use x="77.490234" xlink:href="#DejaVuSans-82"/>
      <use x="144.722656" xlink:href="#DejaVuSans-97"/>
      <use x="206.001953" xlink:href="#DejaVuSans-110"/>
      <use x="269.380859" xlink:href="#DejaVuSans-100"/>
      <use x="332.857422" xlink:href="#DejaVuSans-75"/>
      <use x="387.933594" xlink:href="#DejaVuSans-45"/>
      <use x="424.017578" xlink:href="#DejaVuSans-77"/>
      <use x="510.296875" xlink:href="#DejaVuSans-78"/>
      <use x="585.101562" xlink:href="#DejaVuSans-45"/>
      <use x="612.060547" xlink:href="#DejaVuSans-84"/>
      <use x="673.144531" xlink:href="#DejaVuSans-83"/>
      <use x="736.621094" xlink:href="#DejaVuSans-32"/>
      <use x="768.408203" xlink:href="#DejaVuSans-40"/>
      <use x="807.421875" xlink:href="#DejaVuSans-56"/>
      <use x="871.044922" xlink:href="#DejaVuSans-44"/>
      <use x="902.832031" xlink:href="#DejaVuSans-49"/>
      <use x="966.455078" xlink:href="#DejaVuSans-50"/>
      <use x="1030.078125" xlink:href="#DejaVuSans-41"/>
      <use x="1069.091797" xlink:href="#DejaVuSans-32"/>
      <use x="1100.878906" xlink:href="#DejaVuSans-98"/>
      <use x="1164.355469" xlink:href="#DejaVuSans-105"/>
      <use x="1192.138672" xlink:href="#DejaVuSans-116"/>
      <use x="1231.347656" xlink:href="#DejaVuSans-115"/>
     </g>
    </g>
    <g id="line2d_25">
     <path d="M 284.227802 57.214687 
L 304.227802 57.214687 
" style="fill:none;stroke:#2ca02c;stroke-linecap:square;stroke-width:1.5;"/>
    </g>
    <g id="line2d_26"/>
    <g id="text_20">
     <!-- GRandK-MN-TS (6,10) bits -->
     <g transform="translate(312.227802 60.714687)scale(0.1 -0.1)">
      <defs>
       <path d="M 33.015625 40.375 
Q 26.375 40.375 22.484375 35.828125 
Q 18.609375 31.296875 18.609375 23.390625 
Q 18.609375 15.53125 22.484375 10.953125 
Q 26.375 6.390625 33.015625 6.390625 
Q 39.65625 6.390625 43.53125 10.953125 
Q 47.40625 15.53125 47.40625 23.390625 
Q 47.40625 31.296875 43.53125 35.828125 
Q 39.65625 40.375 33.015625 40.375 
z
M 52.59375 71.296875 
L 52.59375 62.3125 
Q 48.875 64.0625 45.09375 64.984375 
Q 41.3125 65.921875 37.59375 65.921875 
Q 27.828125 65.921875 22.671875 59.328125 
Q 17.53125 52.734375 16.796875 39.40625 
Q 19.671875 43.65625 24.015625 45.921875 
Q 28.375 48.1875 33.59375 48.1875 
Q 44.578125 48.1875 50.953125 41.515625 
Q 57.328125 34.859375 57.328125 23.390625 
Q 57.328125 12.15625 50.6875 5.359375 
Q 44.046875 -1.421875 33.015625 -1.421875 
Q 20.359375 -1.421875 13.671875 8.265625 
Q 6.984375 17.96875 6.984375 36.375 
Q 6.984375 53.65625 15.1875 63.9375 
Q 23.390625 74.21875 37.203125 74.21875 
Q 40.921875 74.21875 44.703125 73.484375 
Q 48.484375 72.75 52.59375 71.296875 
z
" id="DejaVuSans-54"/>
      </defs>
      <use xlink:href="#DejaVuSans-71"/>
      <use x="77.490234" xlink:href="#DejaVuSans-82"/>
      <use x="144.722656" xlink:href="#DejaVuSans-97"/>
      <use x="206.001953" xlink:href="#DejaVuSans-110"/>
      <use x="269.380859" xlink:href="#DejaVuSans-100"/>
      <use x="332.857422" xlink:href="#DejaVuSans-75"/>
      <use x="387.933594" xlink:href="#DejaVuSans-45"/>
      <use x="424.017578" xlink:href="#DejaVuSans-77"/>
      <use x="510.296875" xlink:href="#DejaVuSans-78"/>
      <use x="585.101562" xlink:href="#DejaVuSans-45"/>
      <use x="612.060547" xlink:href="#DejaVuSans-84"/>
      <use x="673.144531" xlink:href="#DejaVuSans-83"/>
      <use x="736.621094" xlink:href="#DejaVuSans-32"/>
      <use x="768.408203" xlink:href="#DejaVuSans-40"/>
      <use x="807.421875" xlink:href="#DejaVuSans-54"/>
      <use x="871.044922" xlink:href="#DejaVuSans-44"/>
      <use x="902.832031" xlink:href="#DejaVuSans-49"/>
      <use x="966.455078" xlink:href="#DejaVuSans-48"/>
      <use x="1030.078125" xlink:href="#DejaVuSans-41"/>
      <use x="1069.091797" xlink:href="#DejaVuSans-32"/>
      <use x="1100.878906" xlink:href="#DejaVuSans-98"/>
      <use x="1164.355469" xlink:href="#DejaVuSans-105"/>
      <use x="1192.138672" xlink:href="#DejaVuSans-116"/>
      <use x="1231.347656" xlink:href="#DejaVuSans-115"/>
     </g>
    </g>
    <g id="line2d_27">
     <path d="M 284.227802 71.892812 
L 304.227802 71.892812 
" style="fill:none;stroke:#d62728;stroke-linecap:square;stroke-width:1.5;"/>
    </g>
    <g id="line2d_28"/>
    <g id="text_21">
     <!-- GRandK-MN-TS (4,8) bits -->
     <g transform="translate(312.227802 75.392812)scale(0.1 -0.1)">
      <defs>
       <path d="M 37.796875 64.3125 
L 12.890625 25.390625 
L 37.796875 25.390625 
z
M 35.203125 72.90625 
L 47.609375 72.90625 
L 47.609375 25.390625 
L 58.015625 25.390625 
L 58.015625 17.1875 
L 47.609375 17.1875 
L 47.609375 0 
L 37.796875 0 
L 37.796875 17.1875 
L 4.890625 17.1875 
L 4.890625 26.703125 
z
" id="DejaVuSans-52"/>
      </defs>
      <use xlink:href="#DejaVuSans-71"/>
      <use x="77.490234" xlink:href="#DejaVuSans-82"/>
      <use x="144.722656" xlink:href="#DejaVuSans-97"/>
      <use x="206.001953" xlink:href="#DejaVuSans-110"/>
      <use x="269.380859" xlink:href="#DejaVuSans-100"/>
      <use x="332.857422" xlink:href="#DejaVuSans-75"/>
      <use x="387.933594" xlink:href="#DejaVuSans-45"/>
      <use x="424.017578" xlink:href="#DejaVuSans-77"/>
      <use x="510.296875" xlink:href="#DejaVuSans-78"/>
      <use x="585.101562" xlink:href="#DejaVuSans-45"/>
      <use x="612.060547" xlink:href="#DejaVuSans-84"/>
      <use x="673.144531" xlink:href="#DejaVuSans-83"/>
      <use x="736.621094" xlink:href="#DejaVuSans-32"/>
      <use x="768.408203" xlink:href="#DejaVuSans-40"/>
      <use x="807.421875" xlink:href="#DejaVuSans-52"/>
      <use x="871.044922" xlink:href="#DejaVuSans-44"/>
      <use x="902.832031" xlink:href="#DejaVuSans-56"/>
      <use x="966.455078" xlink:href="#DejaVuSans-41"/>
      <use x="1005.46875" xlink:href="#DejaVuSans-32"/>
      <use x="1037.255859" xlink:href="#DejaVuSans-98"/>
      <use x="1100.732422" xlink:href="#DejaVuSans-105"/>
      <use x="1128.515625" xlink:href="#DejaVuSans-116"/>
      <use x="1167.724609" xlink:href="#DejaVuSans-115"/>
     </g>
    </g>
    <g id="line2d_29">
     <path d="M 284.227802 86.570937 
L 304.227802 86.570937 
" style="fill:none;stroke:#9467bd;stroke-linecap:square;stroke-width:1.5;"/>
    </g>
    <g id="line2d_30"/>
    <g id="text_22">
     <!-- GRandK-MN-TS (2,6) bits -->
     <g transform="translate(312.227802 90.070937)scale(0.1 -0.1)">
      <use xlink:href="#DejaVuSans-71"/>
      <use x="77.490234" xlink:href="#DejaVuSans-82"/>
      <use x="144.722656" xlink:href="#DejaVuSans-97"/>
      <use x="206.001953" xlink:href="#DejaVuSans-110"/>
      <use x="269.380859" xlink:href="#DejaVuSans-100"/>
      <use x="332.857422" xlink:href="#DejaVuSans-75"/>
      <use x="387.933594" xlink:href="#DejaVuSans-45"/>
      <use x="424.017578" xlink:href="#DejaVuSans-77"/>
      <use x="510.296875" xlink:href="#DejaVuSans-78"/>
      <use x="585.101562" xlink:href="#DejaVuSans-45"/>
      <use x="612.060547" xlink:href="#DejaVuSans-84"/>
      <use x="673.144531" xlink:href="#DejaVuSans-83"/>
      <use x="736.621094" xlink:href="#DejaVuSans-32"/>
      <use x="768.408203" xlink:href="#DejaVuSans-40"/>
      <use x="807.421875" xlink:href="#DejaVuSans-50"/>
      <use x="871.044922" xlink:href="#DejaVuSans-44"/>
      <use x="902.832031" xlink:href="#DejaVuSans-54"/>
      <use x="966.455078" xlink:href="#DejaVuSans-41"/>
      <use x="1005.46875" xlink:href="#DejaVuSans-32"/>
      <use x="1037.255859" xlink:href="#DejaVuSans-98"/>
      <use x="1100.732422" xlink:href="#DejaVuSans-105"/>
      <use x="1128.515625" xlink:href="#DejaVuSans-116"/>
      <use x="1167.724609" xlink:href="#DejaVuSans-115"/>
     </g>
    </g>
   </g>
  </g>
 </g>
 <defs>
  <clipPath id="paecdc8e618">
   <rect height="288.88" width="401.851552" x="47.72" y="14.76"/>
  </clipPath>
 </defs>
</svg>
