<?xml version="1.0" encoding="utf-8" standalone="no"?>
<!DOCTYPE svg PUBLIC "-//W3C//DTD SVG 1.1//EN"
  "http://www.w3.org/Graphics/SVG/1.1/DTD/svg11.dtd">
<!-- Created with matplotlib (https://matplotlib.org/) -->
<svg height="345.6pt" version="1.1" viewBox="0 0 460.8 345.6" width="460.8pt" xmlns="http://www.w3.org/2000/svg" xmlns:xlink="http://www.w3.org/1999/xlink">
 <metadata>
  <rdf:RDF xmlns:cc="http://creativecommons.org/ns#" xmlns:dc="http://purl.org/dc/elements/1.1/" xmlns:rdf="http://www.w3.org/1999/02/22-rdf-syntax-ns#">
   <cc:Work>
    <dc:type rdf:resource="http://purl.org/dc/dcmitype/StillImage"/>
    <dc:date>2021-06-10T08:56:50.430739</dc:date>
    <dc:format>image/svg+xml</dc:format>
    <dc:creator>
     <cc:Agent>
      <dc:title>Matplotlib v3.3.1, https://matplotlib.org/</dc:title>
     </cc:Agent>
    </dc:creator>
   </cc:Work>
  </rdf:RDF>
 </metadata>
 <defs>
  <style type="text/css">*{stroke-linecap:butt;stroke-linejoin:round;}</style>
 </defs>
 <g id="figure_1">
  <g id="patch_1">
   <path d="M 0 345.6 
L 460.8 345.6 
L 460.8 0 
L 0 0 
z
" style="fill:#ffffff;"/>
  </g>
  <g id="axes_1">
   <g id="patch_2">
    <path d="M 44.57 303.64 
L 450 303.64 
L 450 10.8 
L 44.57 10.8 
z
" style="fill:#ffffff;"/>
   </g>
   <g id="PolyCollection_1">
    <path clip-path="url(#paed18a2e4f)" d="M 63.109207 266.472492 
L 63.109207 290.329091 
L 65.597015 274.667444 
L 68.083219 258.137547 
L 70.557801 241.228106 
L 73.022717 219.908787 
L 75.502339 203.538239 
L 77.978939 181.956138 
L 80.459386 172.615352 
L 82.947101 155.418182 
L 85.412128 146.148583 
L 87.882809 115.676423 
L 90.348035 131.440669 
L 92.817117 124.713098 
L 95.295978 100.482261 
L 97.740118 104.395007 
L 100.222786 98.530409 
L 102.684885 88.66219 
L 105.152855 87.61923 
L 107.640201 75.486465 
L 110.108931 87.084599 
L 112.570673 83.410445 
L 115.039185 92.340963 
L 117.528143 94.639974 
L 119.988205 78.356074 
L 122.456075 83.902387 
L 124.909912 81.171963 
L 127.392406 75.269662 
L 129.855975 72.015912 
L 132.322815 76.593434 
L 134.809131 68.355395 
L 137.280151 69.947848 
L 139.755521 62.328356 
L 142.211916 71.885434 
L 144.689224 64.997211 
L 147.165997 63.038748 
L 149.621885 69.308447 
L 152.078342 66.23624 
L 154.577788 65.397652 
L 157.032503 64.735446 
L 159.507661 76.613091 
L 161.973015 54.084774 
L 164.443095 57.738658 
L 166.902598 63.602753 
L 169.356377 58.549397 
L 171.846637 64.097367 
L 174.325438 71.528832 
L 176.797538 60.861374 
L 179.267306 60.28661 
L 181.75357 61.074377 
L 184.243173 61.645701 
L 186.701617 58.353427 
L 189.170991 59.10782 
L 191.633725 66.116602 
L 194.110764 60.824463 
L 196.585007 58.332557 
L 199.057571 65.763505 
L 201.528655 59.20247 
L 204.024058 50.066567 
L 206.476098 54.505265 
L 208.944541 54.506802 
L 211.410088 57.099053 
L 213.878806 56.694528 
L 216.344744 48.445904 
L 218.835011 54.122108 
L 221.294274 54.502152 
L 223.782874 56.103829 
L 226.252935 55.586945 
L 228.708341 52.761014 
L 231.183325 52.179561 
L 233.63786 53.768553 
L 236.114887 53.391733 
L 238.581889 55.579569 
L 241.061196 46.938252 
L 243.526909 49.503617 
L 245.996714 46.754153 
L 248.470217 47.543862 
L 250.946508 46.117183 
L 253.40987 48.208644 
L 255.868262 45.066711 
L 258.353184 42.872366 
L 260.821036 44.467382 
L 263.300607 49.07762 
L 265.757446 48.105731 
L 268.221875 43.964825 
L 270.6869 48.751104 
L 273.164524 53.743165 
L 275.646373 43.376865 
L 278.14917 39.915606 
L 280.623241 43.729527 
L 283.104949 44.65395 
L 285.558114 44.156834 
L 288.042105 47.696798 
L 290.535023 44.462763 
L 293.00693 41.100705 
L 295.490935 37.309149 
L 297.961186 44.937249 
L 300.436296 41.077788 
L 302.918386 42.366029 
L 305.390794 38.762466 
L 307.874883 38.95242 
L 310.354047 38.006903 
L 312.832932 36.986327 
L 315.288472 36.68359 
L 317.762688 38.842306 
L 320.233947 40.466263 
L 322.716921 38.940852 
L 325.196593 36.66695 
L 327.65872 38.683739 
L 330.134707 40.38688 
L 332.607312 39.657246 
L 335.110959 34.054488 
L 337.57585 40.448819 
L 340.041224 34.950012 
L 342.506628 34.454172 
L 344.982393 33.488734 
L 347.428291 33.964497 
L 349.909089 33.681301 
L 352.378557 35.561498 
L 354.861021 30.926513 
L 357.331966 35.544495 
L 359.797561 32.789146 
L 362.277203 33.164702 
L 364.747895 31.60038 
L 367.243734 31.904546 
L 369.723883 32.092089 
L 372.19556 31.199397 
L 374.650938 31.210186 
L 377.115683 31.405901 
L 379.58789 30.512932 
L 382.075517 31.669618 
L 384.527654 29.574565 
L 387.001833 29.949507 
L 389.463597 30.352871 
L 391.934163 28.535402 
L 394.40271 29.107717 
L 396.897091 29.948443 
L 399.362887 28.72955 
L 401.847914 29.375945 
L 404.343668 29.111251 
L 406.811141 30.49677 
L 409.278226 30.220505 
L 411.752751 29.410664 
L 414.244722 29.327098 
L 416.715145 29.690612 
L 419.18494 29.3356 
L 421.665568 28.837968 
L 424.14707 29.877019 
L 426.625966 29.043302 
L 429.102874 28.115566 
L 431.571364 28.919775 
L 431.571364 25.542007 
L 431.571364 25.542007 
L 429.102874 24.110909 
L 426.625966 25.055998 
L 424.14707 25.732623 
L 421.665568 24.355126 
L 419.18494 25.609491 
L 416.715145 25.314893 
L 414.244722 24.651375 
L 411.752751 25.292772 
L 409.278226 25.993274 
L 406.811141 25.596181 
L 404.343668 25.471358 
L 401.847914 24.421286 
L 399.362887 24.523959 
L 396.897091 25.661199 
L 394.40271 26.139443 
L 391.934163 25.443071 
L 389.463597 27.008768 
L 387.001833 25.962204 
L 384.527654 24.826803 
L 382.075517 24.604574 
L 379.58789 25.398779 
L 377.115683 25.472428 
L 374.650938 26.091039 
L 372.19556 27.189275 
L 369.723883 27.323615 
L 367.243734 27.027848 
L 364.747895 29.265252 
L 362.277203 30.057065 
L 359.797561 28.1369 
L 357.331966 29.429269 
L 354.861021 29.334982 
L 352.378557 30.499711 
L 349.909089 29.480052 
L 347.428291 31.794644 
L 344.982393 30.216342 
L 342.506628 31.365383 
L 340.041224 32.259058 
L 337.57585 33.043274 
L 335.110959 31.160931 
L 332.607312 32.807815 
L 330.134707 34.615555 
L 327.65872 31.304361 
L 325.196593 31.508739 
L 322.716921 34.430413 
L 320.233947 35.684032 
L 317.762688 33.501927 
L 315.288472 34.452369 
L 312.832932 34.995424 
L 310.354047 31.256232 
L 307.874883 33.935537 
L 305.390794 31.16522 
L 302.918386 33.905093 
L 300.436296 36.039127 
L 297.961186 39.79179 
L 295.490935 34.370534 
L 293.00693 37.164069 
L 290.535023 34.587389 
L 288.042105 43.254851 
L 285.558114 39.363931 
L 283.104949 34.939925 
L 280.623241 38.280896 
L 278.14917 36.959654 
L 275.646373 39.539763 
L 273.164524 42.706129 
L 270.6869 41.898476 
L 268.221875 38.40808 
L 265.757446 38.556546 
L 263.300607 40.303273 
L 260.821036 40.865794 
L 258.353184 37.083991 
L 255.868262 40.749774 
L 253.40987 39.843148 
L 250.946508 40.907576 
L 248.470217 42.501581 
L 245.996714 38.69985 
L 243.526909 39.998103 
L 241.061196 39.844852 
L 238.581889 46.85068 
L 236.114887 42.755492 
L 233.63786 40.566262 
L 231.183325 41.309462 
L 228.708341 44.896554 
L 226.252935 46.662063 
L 223.782874 45.661869 
L 221.294274 46.901064 
L 218.835011 45.408284 
L 216.344744 42.203676 
L 213.878806 46.158617 
L 211.410088 49.983049 
L 208.944541 49.252548 
L 206.476098 45.025127 
L 204.024058 42.214182 
L 201.528655 41.354954 
L 199.057571 55.213746 
L 196.585007 47.601685 
L 194.110764 50.063702 
L 191.633725 49.785899 
L 189.170991 48.518006 
L 186.701617 48.245367 
L 184.243173 47.973776 
L 181.75357 52.109507 
L 179.267306 46.735079 
L 176.797538 50.630927 
L 174.325438 47.817249 
L 171.846637 50.778101 
L 169.356377 52.157527 
L 166.902598 50.668579 
L 164.443095 49.76634 
L 161.973015 49.976644 
L 159.507661 60.011304 
L 157.032503 50.9254 
L 154.577788 48.329957 
L 152.078342 51.961981 
L 149.621885 53.481214 
L 147.165997 53.649131 
L 144.689224 56.765417 
L 142.211916 63.711929 
L 139.755521 56.957311 
L 137.280151 56.708289 
L 134.809131 51.836477 
L 132.322815 62.387095 
L 129.855975 58.567114 
L 127.392406 67.879411 
L 124.909912 67.958066 
L 122.456075 63.052749 
L 119.988205 62.557693 
L 117.528143 58.416944 
L 115.039185 61.561746 
L 112.570673 65.779997 
L 110.108931 78.961261 
L 107.640201 64.219029 
L 105.152855 73.533122 
L 102.684885 76.175396 
L 100.222786 73.55682 
L 97.740118 87.32667 
L 95.295978 80.123297 
L 92.817117 93.228119 
L 90.348035 98.099976 
L 87.882809 106.916647 
L 85.412128 114.867592 
L 82.947101 116.92556 
L 80.459386 142.048176 
L 77.978939 152.553286 
L 75.502339 174.952349 
L 73.022717 191.869742 
L 70.557801 218.669924 
L 68.083219 238.703452 
L 65.597015 248.54413 
L 63.109207 266.472492 
z
" style="fill:#1f77b4;fill-opacity:0.25;"/>
   </g>
   <g id="PolyCollection_2">
    <path clip-path="url(#paed18a2e4f)" d="M 62.998636 249.18739 
L 62.998636 258.543176 
L 65.335217 221.83059 
L 67.677092 215.847383 
L 70.004864 201.385597 
L 72.350738 183.71506 
L 74.694621 173.53337 
L 77.060364 167.967396 
L 79.396656 149.542554 
L 81.720313 143.844277 
L 84.046129 132.164923 
L 86.389821 127.373103 
L 88.700047 127.260839 
L 91.089841 117.294248 
L 93.450231 107.366369 
L 95.787693 105.276458 
L 98.13503 102.04932 
L 100.47133 95.678852 
L 102.816864 90.892716 
L 105.136304 93.994942 
L 107.471963 86.653704 
L 109.791962 109.683997 
L 112.122066 98.899345 
L 114.450526 85.757646 
L 116.820139 94.303771 
L 119.248767 80.633684 
L 121.583605 89.278631 
L 123.897946 84.862242 
L 126.249126 85.295328 
L 128.578345 86.391671 
L 130.909794 81.849257 
L 133.288882 73.576567 
L 135.61739 95.35595 
L 137.945051 76.916411 
L 140.298321 70.78638 
L 142.63788 78.447309 
L 144.988511 75.641785 
L 147.374329 76.058901 
L 149.709487 87.590155 
L 152.050008 82.030554 
L 154.39153 80.252415 
L 156.735395 67.325988 
L 159.092891 75.808476 
L 161.415057 74.937531 
L 163.751967 72.822641 
L 166.083037 72.939725 
L 168.405799 74.239659 
L 170.760574 76.366433 
L 173.084041 73.040996 
L 175.493941 66.984813 
L 177.830884 63.988033 
L 180.170362 62.120563 
L 182.512991 63.953144 
L 184.838063 73.619903 
L 187.161685 63.624892 
L 189.49553 73.612027 
L 191.859462 63.441876 
L 194.18917 66.423311 
L 196.538687 61.540517 
L 198.882806 57.210052 
L 201.222826 64.250898 
L 203.590672 69.165912 
L 205.917994 61.009982 
L 208.251292 60.091772 
L 210.617778 64.02137 
L 212.96849 69.645229 
L 215.301283 55.672184 
L 217.660998 61.020665 
L 220.000863 63.057399 
L 222.351848 57.860711 
L 224.679712 59.528067 
L 227.038701 59.76411 
L 229.362374 59.473927 
L 231.712878 57.105966 
L 234.022226 57.342514 
L 236.361424 54.717491 
L 238.678388 51.895115 
L 240.998353 62.332467 
L 243.342434 55.876509 
L 245.665095 54.531224 
L 247.983813 58.473885 
L 250.316391 49.301059 
L 252.635283 53.862525 
L 254.97862 51.400864 
L 257.321701 46.172143 
L 259.683959 48.683723 
L 262.006564 53.905904 
L 264.340107 50.269134 
L 266.694385 48.579138 
L 269.032392 46.850848 
L 271.363015 53.721348 
L 273.68921 44.011702 
L 275.999303 49.873195 
L 278.357482 42.425169 
L 280.690664 41.688322 
L 283.032705 45.05824 
L 285.378413 44.078382 
L 287.743861 50.124449 
L 290.101997 43.917965 
L 292.42347 43.313177 
L 294.760113 42.835528 
L 297.099066 43.731795 
L 299.41117 42.948002 
L 301.756752 39.528921 
L 304.091452 42.667959 
L 306.423247 45.276622 
L 308.780355 41.998659 
L 311.135131 37.006524 
L 313.474617 37.655095 
L 315.831125 40.40004 
L 318.167402 38.024775 
L 320.504743 41.869567 
L 322.838753 37.184653 
L 325.164018 36.787606 
L 327.488369 37.379959 
L 329.804268 39.22375 
L 332.132249 36.497383 
L 334.464824 34.798805 
L 336.817659 35.519366 
L 339.128994 34.11332 
L 341.488394 36.522553 
L 343.864513 33.286348 
L 346.191001 32.305641 
L 348.552214 30.729347 
L 350.86695 32.120274 
L 353.198913 33.0071 
L 355.509408 32.144658 
L 357.843889 33.01144 
L 360.198384 31.59018 
L 362.54013 31.663406 
L 364.889567 31.174302 
L 367.222696 30.830234 
L 369.552325 30.491417 
L 371.960678 32.583222 
L 374.285968 31.532277 
L 376.616405 31.675605 
L 378.918883 30.776932 
L 381.263694 29.835912 
L 383.613461 30.960992 
L 385.947109 29.940208 
L 388.268086 28.885875 
L 390.638635 28.846241 
L 392.976272 29.071217 
L 395.280407 28.275471 
L 397.615113 29.528701 
L 400.017683 29.248806 
L 402.348702 27.662326 
L 404.684133 29.113457 
L 407.017912 28.680819 
L 409.364062 28.928319 
L 411.716508 28.912617 
L 411.716508 26.515784 
L 411.716508 26.515784 
L 409.364062 25.956359 
L 407.017912 26.143445 
L 404.684133 26.012875 
L 402.348702 25.409941 
L 400.017683 25.877527 
L 397.615113 25.597631 
L 395.280407 26.125898 
L 392.976272 27.082148 
L 390.638635 25.978023 
L 388.268086 26.180043 
L 385.947109 26.515226 
L 383.613461 26.340233 
L 381.263694 26.800763 
L 378.918883 27.913808 
L 376.616405 29.129614 
L 374.285968 26.735567 
L 371.960678 29.067789 
L 369.552325 27.474359 
L 367.222696 26.77306 
L 364.889567 26.187336 
L 362.54013 26.121129 
L 360.198384 27.644283 
L 357.843889 29.364535 
L 355.509408 27.935597 
L 353.198913 28.64391 
L 350.86695 29.470323 
L 348.552214 28.263462 
L 346.191001 28.559992 
L 343.864513 31.264519 
L 341.488394 30.626103 
L 339.128994 32.189545 
L 336.817659 30.48143 
L 334.464824 31.685301 
L 332.132249 31.557479 
L 329.804268 35.53703 
L 327.488369 35.266343 
L 325.164018 32.838011 
L 322.838753 34.555443 
L 320.504743 33.49535 
L 318.167402 34.379872 
L 315.831125 35.99191 
L 313.474617 33.480864 
L 311.135131 30.685855 
L 308.780355 36.870252 
L 306.423247 39.452417 
L 304.091452 41.336115 
L 301.756752 36.440133 
L 299.41117 35.679254 
L 297.099066 33.989256 
L 294.760113 39.658204 
L 292.42347 37.488972 
L 290.101997 40.509005 
L 287.743861 43.062505 
L 285.378413 40.288175 
L 283.032705 40.758245 
L 280.690664 36.999348 
L 278.357482 34.691745 
L 275.999303 43.555414 
L 273.68921 38.240376 
L 271.363015 44.057047 
L 269.032392 41.261357 
L 266.694385 39.110172 
L 264.340107 43.038648 
L 262.006564 46.591107 
L 259.683959 45.469851 
L 257.321701 44.417024 
L 254.97862 42.2694 
L 252.635283 45.426212 
L 250.316391 43.523413 
L 247.983813 46.856221 
L 245.665095 48.503161 
L 243.342434 50.601457 
L 240.998353 53.388793 
L 238.678388 47.151967 
L 236.361424 46.866966 
L 234.022226 50.404139 
L 231.712878 48.103313 
L 229.362374 52.803753 
L 227.038701 53.66143 
L 224.679712 51.843408 
L 222.351848 46.56319 
L 220.000863 53.872134 
L 217.660998 56.815074 
L 215.301283 53.463984 
L 212.96849 51.996572 
L 210.617778 53.99561 
L 208.251292 52.427563 
L 205.917994 56.463275 
L 203.590672 59.483877 
L 201.222826 56.001388 
L 198.882806 52.167771 
L 196.538687 53.697433 
L 194.18917 60.47448 
L 191.859462 52.400211 
L 189.49553 57.333481 
L 187.161685 57.71484 
L 184.838063 66.810554 
L 182.512991 56.480383 
L 180.170362 58.554619 
L 177.830884 58.620387 
L 175.493941 56.348572 
L 173.084041 64.24795 
L 170.760574 60.439203 
L 168.405799 69.090655 
L 166.083037 63.624256 
L 163.751967 67.124507 
L 161.415057 63.015965 
L 159.092891 63.897017 
L 156.735395 63.619521 
L 154.39153 62.775831 
L 152.050008 70.543054 
L 149.709487 72.353924 
L 147.374329 69.144238 
L 144.988511 67.446874 
L 142.63788 68.56824 
L 140.298321 60.279956 
L 137.945051 68.830451 
L 135.61739 68.273363 
L 133.288882 67.578854 
L 130.909794 70.422283 
L 128.578345 81.345772 
L 126.249126 79.058949 
L 123.897946 77.135901 
L 121.583605 67.76559 
L 119.248767 74.356472 
L 116.820139 79.958351 
L 114.450526 84.15469 
L 112.122066 80.860422 
L 109.791962 79.74196 
L 107.471963 80.056707 
L 105.136304 81.475453 
L 102.816864 79.01962 
L 100.47133 85.893326 
L 98.13503 86.228776 
L 95.787693 95.869754 
L 93.450231 97.34425 
L 91.089841 105.298822 
L 88.700047 109.166966 
L 86.389821 109.054701 
L 84.046129 121.1183 
L 81.720313 128.288017 
L 79.396656 136.36406 
L 77.060364 142.104693 
L 74.694621 164.812324 
L 72.350738 172.513085 
L 70.004864 189.852278 
L 67.677092 198.377901 
L 65.335217 214.868584 
L 62.998636 249.18739 
z
" style="fill:#ff7f0e;fill-opacity:0.25;"/>
   </g>
   <g id="PolyCollection_3">
    <path clip-path="url(#paed18a2e4f)" d="M 63.005904 250.732464 
L 63.005904 264.972708 
L 65.354999 225.425618 
L 67.71752 212.856919 
L 70.057321 197.632373 
L 72.39554 187.180545 
L 74.74451 169.083007 
L 77.095159 160.361056 
L 79.464348 154.01805 
L 81.812983 136.560625 
L 84.164121 144.397105 
L 86.53904 121.940539 
L 88.906507 126.75407 
L 91.321061 119.453934 
L 93.678351 107.869827 
L 96.015146 105.997363 
L 98.384104 103.914961 
L 100.739189 94.287196 
L 103.107294 86.42044 
L 105.446662 88.71087 
L 107.799675 96.524277 
L 110.135064 98.520085 
L 112.514099 96.408844 
L 114.879609 95.168091 
L 117.212399 99.914103 
L 119.598745 95.081892 
L 121.940936 78.454517 
L 124.269097 79.616353 
L 126.610592 88.305816 
L 128.95946 91.681587 
L 131.335774 83.916243 
L 133.711919 73.721848 
L 136.077903 84.183148 
L 138.413611 84.55809 
L 140.783877 70.102486 
L 143.117989 83.372263 
L 145.494633 77.351406 
L 147.887994 75.352886 
L 150.228373 79.945427 
L 152.574435 78.93307 
L 154.899694 76.839123 
L 157.23825 71.136269 
L 159.607614 76.823865 
L 161.973001 72.286259 
L 164.329455 83.847453 
L 166.707522 69.390044 
L 169.078422 77.36447 
L 171.41766 68.678161 
L 173.775618 73.397288 
L 176.189008 61.816518 
L 178.5293 73.397469 
L 180.914895 61.927577 
L 183.271928 61.873102 
L 185.595927 69.201016 
L 187.981641 63.306901 
L 190.347052 65.630819 
L 192.72004 62.662065 
L 195.077387 66.350385 
L 197.439611 61.402077 
L 199.780521 61.657517 
L 202.139029 65.63069 
L 204.582236 70.901568 
L 206.943185 62.462092 
L 209.290515 59.000336 
L 211.617927 61.691952 
L 213.980339 60.322014 
L 216.336207 58.783108 
L 218.674164 61.377829 
L 221.043114 57.314663 
L 223.387026 56.776982 
L 225.6926 59.913976 
L 228.055518 60.139754 
L 230.402251 59.530675 
L 232.799908 55.6448 
L 235.127321 58.523139 
L 237.485033 56.91388 
L 239.849707 55.853244 
L 242.208994 59.266071 
L 244.604281 51.295506 
L 246.926306 55.536504 
L 249.320313 53.209456 
L 251.641348 51.295014 
L 253.982664 59.291356 
L 256.375735 53.175918 
L 258.746752 53.172192 
L 261.154535 50.168272 
L 263.523283 47.57027 
L 265.871204 51.910601 
L 268.241156 50.21587 
L 270.590333 45.335068 
L 272.943539 47.817306 
L 275.32748 48.200042 
L 277.696547 50.428891 
L 280.046156 44.821477 
L 282.389976 49.994724 
L 284.740307 44.921457 
L 287.111247 45.861663 
L 289.512117 49.955956 
L 291.885803 44.529559 
L 294.227341 43.565433 
L 296.574384 43.073115 
L 298.900691 41.744368 
L 301.265802 42.642335 
L 303.594804 41.747279 
L 305.967612 42.931909 
L 308.294926 43.273622 
L 310.661304 42.498031 
L 313.046927 37.796649 
L 315.385881 37.774337 
L 317.789879 41.435047 
L 320.131915 41.337487 
L 322.475985 43.483653 
L 324.813405 39.540138 
L 327.168152 37.709733 
L 329.503526 37.927842 
L 331.84268 40.59105 
L 334.213158 34.887246 
L 336.55366 36.812347 
L 338.908986 35.801055 
L 341.278475 32.333096 
L 343.610988 34.507346 
L 346.02155 35.055132 
L 348.369629 32.846096 
L 350.72338 34.11571 
L 353.071652 33.190489 
L 355.40319 33.035629 
L 357.796147 32.812282 
L 360.14727 33.512541 
L 362.541545 31.248033 
L 364.915016 32.266984 
L 367.278416 31.409154 
L 369.597604 33.512566 
L 371.968718 29.599419 
L 374.340882 32.390987 
L 376.67965 32.062348 
L 379.041831 31.421967 
L 381.393364 31.387454 
L 383.750173 33.285221 
L 386.113445 32.316347 
L 388.496886 31.508772 
L 390.832229 31.511901 
L 393.178461 31.941974 
L 395.531786 32.069418 
L 397.864623 30.562454 
L 400.261177 29.945782 
L 402.661522 30.567559 
L 405.026583 30.054629 
L 407.366606 30.089122 
L 409.724343 30.744017 
L 412.104609 31.137198 
L 414.463515 31.334342 
L 414.463515 26.268951 
L 414.463515 26.268951 
L 412.104609 25.439063 
L 409.724343 26.738449 
L 407.366606 26.18507 
L 405.026583 26.642459 
L 402.661522 25.767047 
L 400.261177 25.784687 
L 397.864623 25.89298 
L 395.531786 26.017185 
L 393.178461 25.782147 
L 390.832229 26.937184 
L 388.496886 26.517417 
L 386.113445 27.703494 
L 383.750173 27.21793 
L 381.393364 25.611703 
L 379.041831 27.268773 
L 376.67965 27.051288 
L 374.340882 27.205958 
L 371.968718 24.801949 
L 369.597604 26.74893 
L 367.278416 27.644068 
L 364.915016 27.63203 
L 362.541545 28.771808 
L 360.14727 29.527985 
L 357.796147 28.174178 
L 355.40319 30.669447 
L 353.071652 29.366727 
L 350.72338 29.831021 
L 348.369629 28.382019 
L 346.02155 28.227049 
L 343.610988 31.553864 
L 341.278475 31.009498 
L 338.908986 32.193392 
L 336.55366 31.846651 
L 334.213158 32.986374 
L 331.84268 32.538561 
L 329.503526 32.785221 
L 327.168152 33.667881 
L 324.813405 34.072783 
L 322.475985 37.318496 
L 320.131915 36.504392 
L 317.789879 35.379799 
L 315.385881 33.422036 
L 313.046927 34.366343 
L 310.661304 36.37088 
L 308.294926 37.286872 
L 305.967612 38.474377 
L 303.594804 38.209079 
L 301.265802 38.038987 
L 298.900691 37.487025 
L 296.574384 37.124897 
L 294.227341 39.10954 
L 291.885803 39.353689 
L 289.512117 45.345478 
L 287.111247 38.142411 
L 284.740307 42.103302 
L 282.389976 38.41955 
L 280.046156 41.055422 
L 277.696547 44.026751 
L 275.32748 43.95988 
L 272.943539 44.282202 
L 270.590333 39.998108 
L 268.241156 43.454394 
L 265.871204 45.565726 
L 263.523283 42.716828 
L 261.154535 48.576742 
L 258.746752 48.17061 
L 256.375735 46.29406 
L 253.982664 48.99902 
L 251.641348 44.248074 
L 249.320313 46.502177 
L 246.926306 48.94781 
L 244.604281 45.335029 
L 242.208994 52.890781 
L 239.849707 49.356034 
L 237.485033 54.276354 
L 235.127321 49.585996 
L 232.799908 48.59786 
L 230.402251 54.680242 
L 228.055518 55.098196 
L 225.6926 49.765915 
L 223.387026 47.405263 
L 221.043114 51.217368 
L 218.674164 55.491291 
L 216.336207 48.057339 
L 213.980339 52.136907 
L 211.617927 55.05634 
L 209.290515 55.875132 
L 206.943185 53.802891 
L 204.582236 60.829318 
L 202.139029 57.823521 
L 199.780521 57.688564 
L 197.439611 56.73573 
L 195.077387 57.405895 
L 192.72004 56.381947 
L 190.347052 55.890154 
L 187.981641 59.664001 
L 185.595927 62.711112 
L 183.271928 53.72733 
L 180.914895 55.787335 
L 178.5293 62.199894 
L 176.189008 58.798251 
L 173.775618 61.47511 
L 171.41766 65.529686 
L 169.078422 65.059639 
L 166.707522 63.12622 
L 164.329455 65.463816 
L 161.973001 65.546409 
L 159.607614 61.492114 
L 157.23825 63.494475 
L 154.899694 63.349679 
L 152.574435 67.478342 
L 150.228373 71.057426 
L 147.887994 68.400324 
L 145.494633 67.428837 
L 143.117989 72.282443 
L 140.783877 59.936817 
L 138.413611 77.621294 
L 136.077903 66.819704 
L 133.711919 68.158538 
L 131.335774 69.986466 
L 128.95946 73.880964 
L 126.610592 79.492041 
L 124.269097 76.521663 
L 121.940936 65.117452 
L 119.598745 81.596777 
L 117.212399 86.914066 
L 114.879609 79.275272 
L 112.514099 80.209412 
L 110.135064 85.408227 
L 107.799675 82.570939 
L 105.446662 79.026573 
L 103.107294 81.317003 
L 100.739189 88.916151 
L 98.384104 87.081752 
L 96.015146 95.8134 
L 93.678351 99.74065 
L 91.321061 108.2743 
L 88.906507 111.06325 
L 86.53904 115.816367 
L 84.164121 111.061011 
L 81.812983 130.013609 
L 79.464348 135.030076 
L 77.095159 147.022623 
L 74.74451 155.06547 
L 72.39554 167.356017 
L 70.057321 188.56096 
L 67.71752 201.851674 
L 65.354999 214.415068 
L 63.005904 250.732464 
z
" style="fill:#2ca02c;fill-opacity:0.25;"/>
   </g>
   <g id="PolyCollection_4">
    <path clip-path="url(#paed18a2e4f)" d="M 63.050714 245.065155 
L 63.050714 274.023184 
L 65.383861 242.848828 
L 67.751478 236.077068 
L 70.087718 213.225254 
L 72.439493 192.959753 
L 74.770606 181.721094 
L 77.126724 174.171772 
L 79.487841 165.006778 
L 81.860733 157.527371 
L 84.194998 140.945963 
L 86.555697 127.990665 
L 88.911512 136.034828 
L 91.321291 130.454489 
L 93.667567 113.883595 
L 96.035579 108.548507 
L 98.388228 104.417538 
L 100.733702 103.28085 
L 103.083206 92.967421 
L 105.435417 98.129423 
L 107.749644 107.820982 
L 110.12005 96.357836 
L 112.484901 92.822742 
L 114.823456 92.820348 
L 117.15529 95.28009 
L 119.543659 92.264049 
L 121.873409 91.272056 
L 124.214248 95.722171 
L 126.567646 86.0194 
L 128.92375 85.402954 
L 131.256531 81.817532 
L 133.620417 79.932829 
L 135.971252 86.73323 
L 138.337718 83.162447 
L 140.715848 77.214052 
L 143.06629 83.645954 
L 145.413846 82.090097 
L 147.81265 82.322767 
L 150.16949 81.539427 
L 152.519205 78.032603 
L 154.868859 88.709142 
L 157.242959 75.229302 
L 159.608326 73.228883 
L 161.9702 77.358849 
L 164.311193 77.79905 
L 166.649466 75.200698 
L 168.991493 74.288423 
L 171.320848 81.013312 
L 173.699589 72.901515 
L 176.083812 66.777529 
L 178.435981 71.70172 
L 180.763822 66.533368 
L 183.10305 67.779093 
L 185.460711 72.638796 
L 187.844978 66.230367 
L 190.192712 70.987316 
L 192.562394 65.312526 
L 194.917849 68.787185 
L 197.288337 57.691939 
L 199.656214 64.485207 
L 202.023846 66.218811 
L 204.40629 68.700702 
L 206.7775 65.204281 
L 209.139768 60.680897 
L 211.462704 64.959993 
L 213.815081 65.57965 
L 216.164829 56.500651 
L 218.487666 66.226741 
L 220.836283 59.540481 
L 223.181148 54.866104 
L 225.5255 60.452887 
L 227.859604 59.982721 
L 230.221309 63.130071 
L 232.656278 58.087161 
L 235.011963 67.373542 
L 237.360419 56.517886 
L 239.731924 54.216853 
L 242.055376 66.708997 
L 244.404371 57.828485 
L 246.735681 54.707724 
L 249.109048 62.289039 
L 251.46051 55.874423 
L 253.796501 53.808656 
L 256.169406 54.836489 
L 258.524122 51.378841 
L 260.90088 52.658356 
L 263.264971 53.053807 
L 265.635733 54.126991 
L 267.993698 47.510725 
L 270.359929 47.821605 
L 272.719257 51.457941 
L 275.057417 47.069187 
L 277.413087 50.552251 
L 279.786986 45.159998 
L 282.140686 47.169361 
L 284.52532 50.126684 
L 286.864327 46.551502 
L 289.265601 49.528837 
L 291.601122 47.818224 
L 293.976911 42.936461 
L 296.343207 46.528866 
L 298.718374 45.967571 
L 301.053682 43.140258 
L 303.412005 47.135312 
L 305.778175 42.872514 
L 308.147004 48.952046 
L 310.48202 42.355418 
L 312.818001 42.521892 
L 315.178086 39.950704 
L 317.56277 44.163015 
L 319.930891 39.414712 
L 322.286649 43.658903 
L 324.636997 39.694111 
L 326.986765 38.497175 
L 329.337223 39.779476 
L 331.685659 40.043759 
L 334.034192 37.770857 
L 336.39265 38.725504 
L 338.763027 36.307015 
L 341.13859 35.880284 
L 343.489494 35.593138 
L 345.881757 34.171863 
L 348.256789 37.629725 
L 350.607854 34.47445 
L 352.959924 33.77128 
L 355.320791 33.060516 
L 357.687866 32.912572 
L 360.038531 32.155814 
L 362.392095 33.883791 
L 364.747629 31.738023 
L 367.129723 32.706109 
L 369.479705 32.195963 
L 371.833047 30.854452 
L 374.242495 31.299571 
L 376.578507 33.232582 
L 378.947658 32.696107 
L 381.320848 32.069014 
L 383.677198 33.39243 
L 386.024534 33.686078 
L 388.361749 33.153948 
L 390.730483 32.828548 
L 393.092346 32.540499 
L 395.446869 33.114348 
L 397.799918 33.345853 
L 400.13262 33.439092 
L 402.542356 33.383692 
L 404.909235 33.826334 
L 407.257999 32.635336 
L 409.593231 32.732019 
L 411.944581 33.767556 
L 414.311038 33.619937 
L 414.311038 28.272728 
L 414.311038 28.272728 
L 411.944581 28.427178 
L 409.593231 28.798164 
L 407.257999 27.686574 
L 404.909235 28.791296 
L 402.542356 27.663182 
L 400.13262 28.513987 
L 397.799918 28.486399 
L 395.446869 29.140799 
L 393.092346 28.385548 
L 390.730483 28.641221 
L 388.361749 28.799131 
L 386.024534 28.267001 
L 383.677198 27.835685 
L 381.320848 28.252896 
L 378.947658 28.592421 
L 376.578507 30.351666 
L 374.242495 28.841098 
L 371.833047 29.407043 
L 369.479705 28.911325 
L 367.129723 28.944902 
L 364.747629 29.852574 
L 362.392095 27.706806 
L 360.038531 29.132714 
L 357.687866 29.644644 
L 355.320791 29.98001 
L 352.959924 31.14207 
L 350.607854 29.230626 
L 348.256789 30.968859 
L 345.881757 31.828933 
L 343.489494 33.790824 
L 341.13859 32.839128 
L 338.763027 30.781227 
L 336.39265 32.954179 
L 334.034192 33.667171 
L 331.685659 35.623227 
L 329.337223 35.041718 
L 326.986765 33.242921 
L 324.636997 38.510249 
L 322.286649 35.572491 
L 319.930891 35.044 
L 317.56277 38.20989 
L 315.178086 33.601803 
L 312.818001 38.340671 
L 310.48202 40.259142 
L 308.147004 43.328703 
L 305.778175 39.077495 
L 303.412005 41.339375 
L 301.053682 39.836784 
L 298.718374 38.821881 
L 296.343207 40.012584 
L 293.976911 38.348997 
L 291.601122 41.321014 
L 289.265601 42.631086 
L 286.864327 40.050361 
L 284.52532 40.945791 
L 282.140686 42.03029 
L 279.786986 41.260624 
L 277.413087 46.742834 
L 275.057417 45.876113 
L 272.719257 41.245704 
L 270.359929 42.10301 
L 267.993698 43.863819 
L 265.635733 44.618023 
L 263.264971 48.651477 
L 260.90088 48.986515 
L 258.524122 48.272379 
L 256.169406 45.600108 
L 253.796501 45.238426 
L 251.46051 46.79748 
L 249.109048 51.196915 
L 246.735681 49.353694 
L 244.404371 55.476227 
L 242.055376 53.664117 
L 239.731924 46.582226 
L 237.360419 49.174702 
L 235.011963 49.072682 
L 232.656278 47.061704 
L 230.221309 54.161945 
L 227.859604 53.382405 
L 225.5255 55.510028 
L 223.181148 48.107868 
L 220.836283 55.274573 
L 218.487666 53.904718 
L 216.164829 51.064762 
L 213.815081 56.424634 
L 211.462704 57.708841 
L 209.139768 52.563402 
L 206.7775 59.276963 
L 204.40629 60.855292 
L 202.023846 57.71871 
L 199.656214 54.740047 
L 197.288337 53.317053 
L 194.917849 61.010463 
L 192.562394 56.389689 
L 190.192712 58.024955 
L 187.844978 56.136399 
L 185.460711 62.233602 
L 183.10305 56.339669 
L 180.763822 61.391457 
L 178.435981 60.210408 
L 176.083812 57.46206 
L 173.699589 65.595704 
L 171.320848 63.827344 
L 168.991493 66.383689 
L 166.649466 64.988104 
L 164.311193 70.606014 
L 161.9702 64.340296 
L 159.608326 62.851789 
L 157.242959 61.33468 
L 154.868859 74.376448 
L 152.519205 69.647497 
L 150.16949 72.061214 
L 147.81265 74.056903 
L 145.413846 65.771243 
L 143.06629 71.16296 
L 140.715848 69.257774 
L 138.337718 70.498608 
L 135.971252 75.2045 
L 133.620417 68.895131 
L 131.256531 71.662281 
L 128.92375 77.320154 
L 126.567646 73.985091 
L 124.214248 75.640094 
L 121.873409 77.190352 
L 119.543659 77.164978 
L 117.15529 78.559136 
L 114.823456 85.791559 
L 112.484901 84.822546 
L 110.12005 82.012416 
L 107.749644 87.163034 
L 105.435417 83.865651 
L 103.083206 83.892489 
L 100.733702 92.548958 
L 98.388228 88.089517 
L 96.035579 100.511898 
L 93.667567 102.668107 
L 91.321291 116.122815 
L 88.911512 122.08149 
L 86.555697 120.882359 
L 84.194998 124.29917 
L 81.860733 131.550961 
L 79.487841 142.890418 
L 77.126724 150.429808 
L 74.770606 163.783621 
L 72.439493 175.320922 
L 70.087718 192.08901 
L 67.751478 206.180166 
L 65.383861 218.98244 
L 63.050714 245.065155 
z
" style="fill:#d62728;fill-opacity:0.25;"/>
   </g>
   <g id="PolyCollection_5">
    <path clip-path="url(#paed18a2e4f)" d="M 63.022999 254.886164 
L 63.022999 263.235556 
L 65.361886 227.20203 
L 67.684271 225.745899 
L 70.017101 206.358827 
L 72.388983 188.461191 
L 74.714238 179.822938 
L 77.061092 166.013254 
L 79.412826 160.731023 
L 81.756731 150.210923 
L 84.121753 153.547718 
L 86.465072 135.054984 
L 88.786999 131.91793 
L 91.170468 124.462623 
L 93.544915 114.558874 
L 95.890218 115.90355 
L 98.243154 117.26429 
L 100.596807 113.741743 
L 102.93279 94.316271 
L 105.254199 100.786891 
L 107.621853 98.540141 
L 109.991161 93.706067 
L 112.362925 93.399296 
L 114.733745 95.221303 
L 117.063554 99.470796 
L 119.490176 86.025318 
L 121.813272 94.281822 
L 124.143868 83.765587 
L 126.456734 91.92718 
L 128.783322 86.196642 
L 131.142167 83.477973 
L 133.487043 81.249488 
L 135.849721 90.837415 
L 138.190697 89.936223 
L 140.562406 76.052357 
L 142.883679 94.176087 
L 145.209061 79.189847 
L 147.626552 77.667669 
L 149.963384 87.858138 
L 152.301444 83.346334 
L 154.657673 79.406491 
L 157.017865 66.47751 
L 159.331814 74.987441 
L 161.689973 77.58346 
L 164.040244 76.226911 
L 166.388879 73.320272 
L 168.770906 81.213834 
L 171.111836 76.735672 
L 173.471414 69.031756 
L 175.877805 68.40555 
L 178.231093 74.875869 
L 180.614856 70.122468 
L 182.961211 63.516211 
L 185.321441 64.861485 
L 187.694884 64.530986 
L 190.019151 69.418314 
L 192.334448 62.548663 
L 194.67879 66.404036 
L 197.046188 59.268017 
L 199.392174 59.285615 
L 201.723521 65.741752 
L 204.123718 73.991994 
L 206.475572 61.555289 
L 208.843947 62.254555 
L 211.174599 64.302067 
L 213.544688 65.17525 
L 215.899743 58.376878 
L 218.225616 70.201983 
L 220.572356 60.801094 
L 222.939565 58.723013 
L 225.271813 62.944512 
L 227.601509 62.125407 
L 229.975338 57.099288 
L 232.369293 60.835327 
L 234.716043 60.193501 
L 237.053553 56.054001 
L 239.409487 56.463083 
L 241.750079 66.86682 
L 244.097318 58.106471 
L 246.425256 53.41034 
L 248.782716 56.292765 
L 251.135674 52.971958 
L 253.492948 56.97463 
L 255.845738 54.742369 
L 258.193248 51.142035 
L 260.611086 54.675757 
L 262.918035 53.971386 
L 265.271937 51.588945 
L 267.598937 50.141739 
L 269.930038 46.143775 
L 272.267426 46.652698 
L 274.614075 49.405353 
L 276.940499 50.211648 
L 279.300216 47.362419 
L 281.660956 46.472293 
L 283.999988 44.623476 
L 286.355561 46.049353 
L 288.741898 45.973522 
L 291.098146 46.363109 
L 293.438631 43.217107 
L 295.788308 46.177587 
L 298.124897 44.436204 
L 300.495755 40.922267 
L 302.855934 42.936116 
L 305.200226 43.425133 
L 307.558552 42.903628 
L 309.92845 44.627789 
L 312.280045 40.806203 
L 314.62777 40.515474 
L 317.038818 42.420207 
L 319.368609 42.934734 
L 321.739963 40.170937 
L 324.079402 38.082673 
L 326.44689 37.786384 
L 328.803808 40.288906 
L 331.16957 37.961676 
L 333.510119 41.504045 
L 335.836348 34.848913 
L 338.196054 36.660263 
L 340.542389 34.609093 
L 342.864325 34.845869 
L 345.2535 33.638857 
L 347.583365 35.629887 
L 349.921969 33.891031 
L 352.282172 33.683598 
L 354.627404 32.469663 
L 356.945138 33.348655 
L 359.300803 33.245627 
L 361.658148 32.081875 
L 363.989843 33.574328 
L 366.339014 34.053485 
L 368.682125 32.295127 
L 371.015067 33.528629 
L 373.428254 33.417969 
L 375.787834 32.163145 
L 378.140672 32.227847 
L 380.517699 31.874085 
L 382.873015 31.658548 
L 385.258927 30.595384 
L 387.633194 30.934776 
L 389.982846 30.350363 
L 392.333044 31.519408 
L 394.68346 31.072807 
L 397.044571 31.285638 
L 399.421351 31.996734 
L 401.799158 29.9219 
L 404.149577 30.924091 
L 406.510284 31.107625 
L 408.850583 30.928024 
L 411.187535 30.963633 
L 413.542924 31.157781 
L 413.542924 27.412132 
L 413.542924 27.412132 
L 411.187535 28.572899 
L 408.850583 29.152231 
L 406.510284 28.428906 
L 404.149577 28.854095 
L 401.799158 28.164703 
L 399.421351 27.600211 
L 397.044571 28.552962 
L 394.68346 29.128275 
L 392.333044 28.319192 
L 389.982846 28.219549 
L 387.633194 27.393482 
L 385.258927 29.001561 
L 382.873015 27.877983 
L 380.517699 29.35403 
L 378.140672 29.725232 
L 375.787834 28.521247 
L 373.428254 29.139247 
L 371.015067 28.243209 
L 368.682125 27.966369 
L 366.339014 28.564144 
L 363.989843 31.036953 
L 361.658148 27.575484 
L 359.300803 28.647038 
L 356.945138 29.450216 
L 354.627404 27.187696 
L 352.282172 30.142305 
L 349.921969 29.511976 
L 347.583365 30.129255 
L 345.2535 29.643324 
L 342.864325 32.604855 
L 340.542389 29.88136 
L 338.196054 33.448663 
L 335.836348 32.058088 
L 333.510119 33.377562 
L 331.16957 35.349176 
L 328.803808 33.74691 
L 326.44689 34.618263 
L 324.079402 35.892729 
L 321.739963 36.039772 
L 319.368609 35.571695 
L 317.038818 38.563183 
L 314.62777 35.695235 
L 312.280045 34.558715 
L 309.92845 38.530494 
L 307.558552 37.173557 
L 305.200226 38.283222 
L 302.855934 35.5099 
L 300.495755 37.70499 
L 298.124897 38.722079 
L 295.788308 39.397244 
L 293.438631 40.122417 
L 291.098146 37.701379 
L 288.741898 43.105303 
L 286.355561 39.223409 
L 283.999988 41.011768 
L 281.660956 38.800469 
L 279.300216 41.716405 
L 276.940499 41.162896 
L 274.614075 40.760917 
L 272.267426 42.063644 
L 269.930038 39.431056 
L 267.598937 39.420395 
L 265.271937 42.806283 
L 262.918035 45.377765 
L 260.611086 46.364977 
L 258.193248 45.971809 
L 255.845738 48.714912 
L 253.492948 49.503335 
L 251.135674 49.760359 
L 248.782716 50.608097 
L 246.425256 45.757569 
L 244.097318 50.90887 
L 241.750079 54.231258 
L 239.409487 48.746195 
L 237.053553 49.578173 
L 234.716043 50.332181 
L 232.369293 52.408971 
L 229.975338 51.191089 
L 227.601509 54.804126 
L 225.271813 53.743367 
L 222.939565 50.292327 
L 220.572356 53.772305 
L 218.225616 60.50187 
L 215.899743 52.027977 
L 213.544688 54.774968 
L 211.174599 56.010633 
L 208.843947 55.822838 
L 206.475572 55.736727 
L 204.123718 58.947166 
L 201.723521 56.504186 
L 199.392174 54.079511 
L 197.046188 51.438907 
L 194.67879 59.829206 
L 192.334448 56.737004 
L 190.019151 63.339605 
L 187.694884 53.123512 
L 185.321441 62.821684 
L 182.961211 55.709042 
L 180.614856 55.204568 
L 178.231093 65.312934 
L 175.877805 62.056649 
L 173.471414 60.765892 
L 171.111836 73.723457 
L 168.770906 68.822399 
L 166.388879 62.397918 
L 164.040244 63.961891 
L 161.689973 64.53858 
L 159.331814 65.261776 
L 157.017865 60.601522 
L 154.657673 71.233879 
L 152.301444 68.441897 
L 149.963384 76.194071 
L 147.626552 67.233401 
L 145.209061 72.598384 
L 142.883679 73.198875 
L 140.562406 67.942508 
L 138.190697 75.384674 
L 135.849721 73.275207 
L 133.487043 68.84716 
L 131.142167 72.660043 
L 128.783322 82.99073 
L 126.456734 82.093287 
L 124.143868 79.622071 
L 121.813272 76.174237 
L 119.490176 75.670757 
L 117.063554 85.18248 
L 114.733745 87.317494 
L 112.362925 82.554409 
L 109.991161 87.564042 
L 107.621853 88.529682 
L 105.254199 90.632718 
L 102.93279 89.551627 
L 100.596807 93.687493 
L 98.243154 91.494046 
L 95.890218 100.889807 
L 93.544915 108.759161 
L 91.170468 118.006551 
L 88.786999 114.840615 
L 86.465072 121.067683 
L 84.121753 128.49242 
L 81.756731 137.387274 
L 79.412826 146.199554 
L 77.061092 152.456337 
L 74.714238 172.599144 
L 72.388983 179.154934 
L 70.017101 196.267029 
L 67.684271 212.161549 
L 65.361886 215.780168 
L 63.022999 254.886164 
z
" style="fill:#9467bd;fill-opacity:0.25;"/>
   </g>
   <g id="matplotlib.axis_1">
    <g id="xtick_1">
     <g id="line2d_1">
      <defs>
       <path d="M 0 0 
L 0 3.5 
" id="m005bc69cab" style="stroke:#000000;stroke-width:0.8;"/>
      </defs>
      <g>
       <use style="stroke:#000000;stroke-width:0.8;" x="60.527968" xlink:href="#m005bc69cab" y="303.64"/>
      </g>
     </g>
     <g id="text_1">
      <!-- 0 -->
      <g transform="translate(57.346718 318.238437)scale(0.1 -0.1)">
       <defs>
        <path d="M 31.78125 66.40625 
Q 24.171875 66.40625 20.328125 58.90625 
Q 16.5 51.421875 16.5 36.375 
Q 16.5 21.390625 20.328125 13.890625 
Q 24.171875 6.390625 31.78125 6.390625 
Q 39.453125 6.390625 43.28125 13.890625 
Q 47.125 21.390625 47.125 36.375 
Q 47.125 51.421875 43.28125 58.90625 
Q 39.453125 66.40625 31.78125 66.40625 
z
M 31.78125 74.21875 
Q 44.046875 74.21875 50.515625 64.515625 
Q 56.984375 54.828125 56.984375 36.375 
Q 56.984375 17.96875 50.515625 8.265625 
Q 44.046875 -1.421875 31.78125 -1.421875 
Q 19.53125 -1.421875 13.0625 8.265625 
Q 6.59375 17.96875 6.59375 36.375 
Q 6.59375 54.828125 13.0625 64.515625 
Q 19.53125 74.21875 31.78125 74.21875 
z
" id="DejaVuSans-48"/>
       </defs>
       <use xlink:href="#DejaVuSans-48"/>
      </g>
     </g>
    </g>
    <g id="xtick_2">
     <g id="line2d_2">
      <g>
       <use style="stroke:#000000;stroke-width:0.8;" x="105.62057" xlink:href="#m005bc69cab" y="303.64"/>
      </g>
     </g>
     <g id="text_2">
      <!-- 1000 -->
      <g transform="translate(92.89557 318.238437)scale(0.1 -0.1)">
       <defs>
        <path d="M 12.40625 8.296875 
L 28.515625 8.296875 
L 28.515625 63.921875 
L 10.984375 60.40625 
L 10.984375 69.390625 
L 28.421875 72.90625 
L 38.28125 72.90625 
L 38.28125 8.296875 
L 54.390625 8.296875 
L 54.390625 0 
L 12.40625 0 
z
" id="DejaVuSans-49"/>
       </defs>
       <use xlink:href="#DejaVuSans-49"/>
       <use x="63.623047" xlink:href="#DejaVuSans-48"/>
       <use x="127.246094" xlink:href="#DejaVuSans-48"/>
       <use x="190.869141" xlink:href="#DejaVuSans-48"/>
      </g>
     </g>
    </g>
    <g id="xtick_3">
     <g id="line2d_3">
      <g>
       <use style="stroke:#000000;stroke-width:0.8;" x="150.713171" xlink:href="#m005bc69cab" y="303.64"/>
      </g>
     </g>
     <g id="text_3">
      <!-- 2000 -->
      <g transform="translate(137.988171 318.238437)scale(0.1 -0.1)">
       <defs>
        <path d="M 19.1875 8.296875 
L 53.609375 8.296875 
L 53.609375 0 
L 7.328125 0 
L 7.328125 8.296875 
Q 12.9375 14.109375 22.625 23.890625 
Q 32.328125 33.6875 34.8125 36.53125 
Q 39.546875 41.84375 41.421875 45.53125 
Q 43.3125 49.21875 43.3125 52.78125 
Q 43.3125 58.59375 39.234375 62.25 
Q 35.15625 65.921875 28.609375 65.921875 
Q 23.96875 65.921875 18.8125 64.3125 
Q 13.671875 62.703125 7.8125 59.421875 
L 7.8125 69.390625 
Q 13.765625 71.78125 18.9375 73 
Q 24.125 74.21875 28.421875 74.21875 
Q 39.75 74.21875 46.484375 68.546875 
Q 53.21875 62.890625 53.21875 53.421875 
Q 53.21875 48.921875 51.53125 44.890625 
Q 49.859375 40.875 45.40625 35.40625 
Q 44.1875 33.984375 37.640625 27.21875 
Q 31.109375 20.453125 19.1875 8.296875 
z
" id="DejaVuSans-50"/>
       </defs>
       <use xlink:href="#DejaVuSans-50"/>
       <use x="63.623047" xlink:href="#DejaVuSans-48"/>
       <use x="127.246094" xlink:href="#DejaVuSans-48"/>
       <use x="190.869141" xlink:href="#DejaVuSans-48"/>
      </g>
     </g>
    </g>
    <g id="xtick_4">
     <g id="line2d_4">
      <g>
       <use style="stroke:#000000;stroke-width:0.8;" x="195.805773" xlink:href="#m005bc69cab" y="303.64"/>
      </g>
     </g>
     <g id="text_4">
      <!-- 3000 -->
      <g transform="translate(183.080773 318.238437)scale(0.1 -0.1)">
       <defs>
        <path d="M 40.578125 39.3125 
Q 47.65625 37.796875 51.625 33 
Q 55.609375 28.21875 55.609375 21.1875 
Q 55.609375 10.40625 48.1875 4.484375 
Q 40.765625 -1.421875 27.09375 -1.421875 
Q 22.515625 -1.421875 17.65625 -0.515625 
Q 12.796875 0.390625 7.625 2.203125 
L 7.625 11.71875 
Q 11.71875 9.328125 16.59375 8.109375 
Q 21.484375 6.890625 26.8125 6.890625 
Q 36.078125 6.890625 40.9375 10.546875 
Q 45.796875 14.203125 45.796875 21.1875 
Q 45.796875 27.640625 41.28125 31.265625 
Q 36.765625 34.90625 28.71875 34.90625 
L 20.21875 34.90625 
L 20.21875 43.015625 
L 29.109375 43.015625 
Q 36.375 43.015625 40.234375 45.921875 
Q 44.09375 48.828125 44.09375 54.296875 
Q 44.09375 59.90625 40.109375 62.90625 
Q 36.140625 65.921875 28.71875 65.921875 
Q 24.65625 65.921875 20.015625 65.03125 
Q 15.375 64.15625 9.8125 62.3125 
L 9.8125 71.09375 
Q 15.4375 72.65625 20.34375 73.4375 
Q 25.25 74.21875 29.59375 74.21875 
Q 40.828125 74.21875 47.359375 69.109375 
Q 53.90625 64.015625 53.90625 55.328125 
Q 53.90625 49.265625 50.4375 45.09375 
Q 46.96875 40.921875 40.578125 39.3125 
z
" id="DejaVuSans-51"/>
       </defs>
       <use xlink:href="#DejaVuSans-51"/>
       <use x="63.623047" xlink:href="#DejaVuSans-48"/>
       <use x="127.246094" xlink:href="#DejaVuSans-48"/>
       <use x="190.869141" xlink:href="#DejaVuSans-48"/>
      </g>
     </g>
    </g>
    <g id="xtick_5">
     <g id="line2d_5">
      <g>
       <use style="stroke:#000000;stroke-width:0.8;" x="240.898374" xlink:href="#m005bc69cab" y="303.64"/>
      </g>
     </g>
     <g id="text_5">
      <!-- 4000 -->
      <g transform="translate(228.173374 318.238437)scale(0.1 -0.1)">
       <defs>
        <path d="M 37.796875 64.3125 
L 12.890625 25.390625 
L 37.796875 25.390625 
z
M 35.203125 72.90625 
L 47.609375 72.90625 
L 47.609375 25.390625 
L 58.015625 25.390625 
L 58.015625 17.1875 
L 47.609375 17.1875 
L 47.609375 0 
L 37.796875 0 
L 37.796875 17.1875 
L 4.890625 17.1875 
L 4.890625 26.703125 
z
" id="DejaVuSans-52"/>
       </defs>
       <use xlink:href="#DejaVuSans-52"/>
       <use x="63.623047" xlink:href="#DejaVuSans-48"/>
       <use x="127.246094" xlink:href="#DejaVuSans-48"/>
       <use x="190.869141" xlink:href="#DejaVuSans-48"/>
      </g>
     </g>
    </g>
    <g id="xtick_6">
     <g id="line2d_6">
      <g>
       <use style="stroke:#000000;stroke-width:0.8;" x="285.990976" xlink:href="#m005bc69cab" y="303.64"/>
      </g>
     </g>
     <g id="text_6">
      <!-- 5000 -->
      <g transform="translate(273.265976 318.238437)scale(0.1 -0.1)">
       <defs>
        <path d="M 10.796875 72.90625 
L 49.515625 72.90625 
L 49.515625 64.59375 
L 19.828125 64.59375 
L 19.828125 46.734375 
Q 21.96875 47.46875 24.109375 47.828125 
Q 26.265625 48.1875 28.421875 48.1875 
Q 40.625 48.1875 47.75 41.5 
Q 54.890625 34.8125 54.890625 23.390625 
Q 54.890625 11.625 47.5625 5.09375 
Q 40.234375 -1.421875 26.90625 -1.421875 
Q 22.3125 -1.421875 17.546875 -0.640625 
Q 12.796875 0.140625 7.71875 1.703125 
L 7.71875 11.625 
Q 12.109375 9.234375 16.796875 8.0625 
Q 21.484375 6.890625 26.703125 6.890625 
Q 35.15625 6.890625 40.078125 11.328125 
Q 45.015625 15.765625 45.015625 23.390625 
Q 45.015625 31 40.078125 35.4375 
Q 35.15625 39.890625 26.703125 39.890625 
Q 22.75 39.890625 18.8125 39.015625 
Q 14.890625 38.140625 10.796875 36.28125 
z
" id="DejaVuSans-53"/>
       </defs>
       <use xlink:href="#DejaVuSans-53"/>
       <use x="63.623047" xlink:href="#DejaVuSans-48"/>
       <use x="127.246094" xlink:href="#DejaVuSans-48"/>
       <use x="190.869141" xlink:href="#DejaVuSans-48"/>
      </g>
     </g>
    </g>
    <g id="xtick_7">
     <g id="line2d_7">
      <g>
       <use style="stroke:#000000;stroke-width:0.8;" x="331.083577" xlink:href="#m005bc69cab" y="303.64"/>
      </g>
     </g>
     <g id="text_7">
      <!-- 6000 -->
      <g transform="translate(318.358577 318.238437)scale(0.1 -0.1)">
       <defs>
        <path d="M 33.015625 40.375 
Q 26.375 40.375 22.484375 35.828125 
Q 18.609375 31.296875 18.609375 23.390625 
Q 18.609375 15.53125 22.484375 10.953125 
Q 26.375 6.390625 33.015625 6.390625 
Q 39.65625 6.390625 43.53125 10.953125 
Q 47.40625 15.53125 47.40625 23.390625 
Q 47.40625 31.296875 43.53125 35.828125 
Q 39.65625 40.375 33.015625 40.375 
z
M 52.59375 71.296875 
L 52.59375 62.3125 
Q 48.875 64.0625 45.09375 64.984375 
Q 41.3125 65.921875 37.59375 65.921875 
Q 27.828125 65.921875 22.671875 59.328125 
Q 17.53125 52.734375 16.796875 39.40625 
Q 19.671875 43.65625 24.015625 45.921875 
Q 28.375 48.1875 33.59375 48.1875 
Q 44.578125 48.1875 50.953125 41.515625 
Q 57.328125 34.859375 57.328125 23.390625 
Q 57.328125 12.15625 50.6875 5.359375 
Q 44.046875 -1.421875 33.015625 -1.421875 
Q 20.359375 -1.421875 13.671875 8.265625 
Q 6.984375 17.96875 6.984375 36.375 
Q 6.984375 53.65625 15.1875 63.9375 
Q 23.390625 74.21875 37.203125 74.21875 
Q 40.921875 74.21875 44.703125 73.484375 
Q 48.484375 72.75 52.59375 71.296875 
z
" id="DejaVuSans-54"/>
       </defs>
       <use xlink:href="#DejaVuSans-54"/>
       <use x="63.623047" xlink:href="#DejaVuSans-48"/>
       <use x="127.246094" xlink:href="#DejaVuSans-48"/>
       <use x="190.869141" xlink:href="#DejaVuSans-48"/>
      </g>
     </g>
    </g>
    <g id="xtick_8">
     <g id="line2d_8">
      <g>
       <use style="stroke:#000000;stroke-width:0.8;" x="376.176179" xlink:href="#m005bc69cab" y="303.64"/>
      </g>
     </g>
     <g id="text_8">
      <!-- 7000 -->
      <g transform="translate(363.451179 318.238437)scale(0.1 -0.1)">
       <defs>
        <path d="M 8.203125 72.90625 
L 55.078125 72.90625 
L 55.078125 68.703125 
L 28.609375 0 
L 18.3125 0 
L 43.21875 64.59375 
L 8.203125 64.59375 
z
" id="DejaVuSans-55"/>
       </defs>
       <use xlink:href="#DejaVuSans-55"/>
       <use x="63.623047" xlink:href="#DejaVuSans-48"/>
       <use x="127.246094" xlink:href="#DejaVuSans-48"/>
       <use x="190.869141" xlink:href="#DejaVuSans-48"/>
      </g>
     </g>
    </g>
    <g id="xtick_9">
     <g id="line2d_9">
      <g>
       <use style="stroke:#000000;stroke-width:0.8;" x="421.26878" xlink:href="#m005bc69cab" y="303.64"/>
      </g>
     </g>
     <g id="text_9">
      <!-- 8000 -->
      <g transform="translate(408.54378 318.238437)scale(0.1 -0.1)">
       <defs>
        <path d="M 31.78125 34.625 
Q 24.75 34.625 20.71875 30.859375 
Q 16.703125 27.09375 16.703125 20.515625 
Q 16.703125 13.921875 20.71875 10.15625 
Q 24.75 6.390625 31.78125 6.390625 
Q 38.8125 6.390625 42.859375 10.171875 
Q 46.921875 13.96875 46.921875 20.515625 
Q 46.921875 27.09375 42.890625 30.859375 
Q 38.875 34.625 31.78125 34.625 
z
M 21.921875 38.8125 
Q 15.578125 40.375 12.03125 44.71875 
Q 8.5 49.078125 8.5 55.328125 
Q 8.5 64.0625 14.71875 69.140625 
Q 20.953125 74.21875 31.78125 74.21875 
Q 42.671875 74.21875 48.875 69.140625 
Q 55.078125 64.0625 55.078125 55.328125 
Q 55.078125 49.078125 51.53125 44.71875 
Q 48 40.375 41.703125 38.8125 
Q 48.828125 37.15625 52.796875 32.3125 
Q 56.78125 27.484375 56.78125 20.515625 
Q 56.78125 9.90625 50.3125 4.234375 
Q 43.84375 -1.421875 31.78125 -1.421875 
Q 19.734375 -1.421875 13.25 4.234375 
Q 6.78125 9.90625 6.78125 20.515625 
Q 6.78125 27.484375 10.78125 32.3125 
Q 14.796875 37.15625 21.921875 38.8125 
z
M 18.3125 54.390625 
Q 18.3125 48.734375 21.84375 45.5625 
Q 25.390625 42.390625 31.78125 42.390625 
Q 38.140625 42.390625 41.71875 45.5625 
Q 45.3125 48.734375 45.3125 54.390625 
Q 45.3125 60.0625 41.71875 63.234375 
Q 38.140625 66.40625 31.78125 66.40625 
Q 25.390625 66.40625 21.84375 63.234375 
Q 18.3125 60.0625 18.3125 54.390625 
z
" id="DejaVuSans-56"/>
       </defs>
       <use xlink:href="#DejaVuSans-56"/>
       <use x="63.623047" xlink:href="#DejaVuSans-48"/>
       <use x="127.246094" xlink:href="#DejaVuSans-48"/>
       <use x="190.869141" xlink:href="#DejaVuSans-48"/>
      </g>
     </g>
    </g>
    <g id="text_10">
     <!-- Time (sec) -->
     <g transform="translate(221.130313 331.916562)scale(0.1 -0.1)">
      <defs>
       <path d="M -0.296875 72.90625 
L 61.375 72.90625 
L 61.375 64.59375 
L 35.5 64.59375 
L 35.5 0 
L 25.59375 0 
L 25.59375 64.59375 
L -0.296875 64.59375 
z
" id="DejaVuSans-84"/>
       <path d="M 9.421875 54.6875 
L 18.40625 54.6875 
L 18.40625 0 
L 9.421875 0 
z
M 9.421875 75.984375 
L 18.40625 75.984375 
L 18.40625 64.59375 
L 9.421875 64.59375 
z
" id="DejaVuSans-105"/>
       <path d="M 52 44.1875 
Q 55.375 50.25 60.0625 53.125 
Q 64.75 56 71.09375 56 
Q 79.640625 56 84.28125 50.015625 
Q 88.921875 44.046875 88.921875 33.015625 
L 88.921875 0 
L 79.890625 0 
L 79.890625 32.71875 
Q 79.890625 40.578125 77.09375 44.375 
Q 74.3125 48.1875 68.609375 48.1875 
Q 61.625 48.1875 57.5625 43.546875 
Q 53.515625 38.921875 53.515625 30.90625 
L 53.515625 0 
L 44.484375 0 
L 44.484375 32.71875 
Q 44.484375 40.625 41.703125 44.40625 
Q 38.921875 48.1875 33.109375 48.1875 
Q 26.21875 48.1875 22.15625 43.53125 
Q 18.109375 38.875 18.109375 30.90625 
L 18.109375 0 
L 9.078125 0 
L 9.078125 54.6875 
L 18.109375 54.6875 
L 18.109375 46.1875 
Q 21.1875 51.21875 25.484375 53.609375 
Q 29.78125 56 35.6875 56 
Q 41.65625 56 45.828125 52.96875 
Q 50 49.953125 52 44.1875 
z
" id="DejaVuSans-109"/>
       <path d="M 56.203125 29.59375 
L 56.203125 25.203125 
L 14.890625 25.203125 
Q 15.484375 15.921875 20.484375 11.0625 
Q 25.484375 6.203125 34.421875 6.203125 
Q 39.59375 6.203125 44.453125 7.46875 
Q 49.3125 8.734375 54.109375 11.28125 
L 54.109375 2.78125 
Q 49.265625 0.734375 44.1875 -0.34375 
Q 39.109375 -1.421875 33.890625 -1.421875 
Q 20.796875 -1.421875 13.15625 6.1875 
Q 5.515625 13.8125 5.515625 26.8125 
Q 5.515625 40.234375 12.765625 48.109375 
Q 20.015625 56 32.328125 56 
Q 43.359375 56 49.78125 48.890625 
Q 56.203125 41.796875 56.203125 29.59375 
z
M 47.21875 32.234375 
Q 47.125 39.59375 43.09375 43.984375 
Q 39.0625 48.390625 32.421875 48.390625 
Q 24.90625 48.390625 20.390625 44.140625 
Q 15.875 39.890625 15.1875 32.171875 
z
" id="DejaVuSans-101"/>
       <path id="DejaVuSans-32"/>
       <path d="M 31 75.875 
Q 24.46875 64.65625 21.28125 53.65625 
Q 18.109375 42.671875 18.109375 31.390625 
Q 18.109375 20.125 21.3125 9.0625 
Q 24.515625 -2 31 -13.1875 
L 23.1875 -13.1875 
Q 15.875 -1.703125 12.234375 9.375 
Q 8.59375 20.453125 8.59375 31.390625 
Q 8.59375 42.28125 12.203125 53.3125 
Q 15.828125 64.359375 23.1875 75.875 
z
" id="DejaVuSans-40"/>
       <path d="M 44.28125 53.078125 
L 44.28125 44.578125 
Q 40.484375 46.53125 36.375 47.5 
Q 32.28125 48.484375 27.875 48.484375 
Q 21.1875 48.484375 17.84375 46.4375 
Q 14.5 44.390625 14.5 40.28125 
Q 14.5 37.15625 16.890625 35.375 
Q 19.28125 33.59375 26.515625 31.984375 
L 29.59375 31.296875 
Q 39.15625 29.25 43.1875 25.515625 
Q 47.21875 21.78125 47.21875 15.09375 
Q 47.21875 7.46875 41.1875 3.015625 
Q 35.15625 -1.421875 24.609375 -1.421875 
Q 20.21875 -1.421875 15.453125 -0.5625 
Q 10.6875 0.296875 5.421875 2 
L 5.421875 11.28125 
Q 10.40625 8.6875 15.234375 7.390625 
Q 20.0625 6.109375 24.8125 6.109375 
Q 31.15625 6.109375 34.5625 8.28125 
Q 37.984375 10.453125 37.984375 14.40625 
Q 37.984375 18.0625 35.515625 20.015625 
Q 33.0625 21.96875 24.703125 23.78125 
L 21.578125 24.515625 
Q 13.234375 26.265625 9.515625 29.90625 
Q 5.8125 33.546875 5.8125 39.890625 
Q 5.8125 47.609375 11.28125 51.796875 
Q 16.75 56 26.8125 56 
Q 31.78125 56 36.171875 55.265625 
Q 40.578125 54.546875 44.28125 53.078125 
z
" id="DejaVuSans-115"/>
       <path d="M 48.78125 52.59375 
L 48.78125 44.1875 
Q 44.96875 46.296875 41.140625 47.34375 
Q 37.3125 48.390625 33.40625 48.390625 
Q 24.65625 48.390625 19.8125 42.84375 
Q 14.984375 37.3125 14.984375 27.296875 
Q 14.984375 17.28125 19.8125 11.734375 
Q 24.65625 6.203125 33.40625 6.203125 
Q 37.3125 6.203125 41.140625 7.25 
Q 44.96875 8.296875 48.78125 10.40625 
L 48.78125 2.09375 
Q 45.015625 0.34375 40.984375 -0.53125 
Q 36.96875 -1.421875 32.421875 -1.421875 
Q 20.0625 -1.421875 12.78125 6.34375 
Q 5.515625 14.109375 5.515625 27.296875 
Q 5.515625 40.671875 12.859375 48.328125 
Q 20.21875 56 33.015625 56 
Q 37.15625 56 41.109375 55.140625 
Q 45.0625 54.296875 48.78125 52.59375 
z
" id="DejaVuSans-99"/>
       <path d="M 8.015625 75.875 
L 15.828125 75.875 
Q 23.140625 64.359375 26.78125 53.3125 
Q 30.421875 42.28125 30.421875 31.390625 
Q 30.421875 20.453125 26.78125 9.375 
Q 23.140625 -1.703125 15.828125 -13.1875 
L 8.015625 -13.1875 
Q 14.5 -2 17.703125 9.0625 
Q 20.90625 20.125 20.90625 31.390625 
Q 20.90625 42.671875 17.703125 53.65625 
Q 14.5 64.65625 8.015625 75.875 
z
" id="DejaVuSans-41"/>
      </defs>
      <use xlink:href="#DejaVuSans-84"/>
      <use x="57.958984" xlink:href="#DejaVuSans-105"/>
      <use x="85.742188" xlink:href="#DejaVuSans-109"/>
      <use x="183.154297" xlink:href="#DejaVuSans-101"/>
      <use x="244.677734" xlink:href="#DejaVuSans-32"/>
      <use x="276.464844" xlink:href="#DejaVuSans-40"/>
      <use x="315.478516" xlink:href="#DejaVuSans-115"/>
      <use x="367.578125" xlink:href="#DejaVuSans-101"/>
      <use x="429.101562" xlink:href="#DejaVuSans-99"/>
      <use x="484.082031" xlink:href="#DejaVuSans-41"/>
     </g>
    </g>
   </g>
   <g id="matplotlib.axis_2">
    <g id="ytick_1">
     <g id="line2d_10">
      <defs>
       <path d="M 0 0 
L -3.5 0 
" id="m76348f34f0" style="stroke:#000000;stroke-width:0.8;"/>
      </defs>
      <g>
       <use style="stroke:#000000;stroke-width:0.8;" x="44.57" xlink:href="#m76348f34f0" y="257.980965"/>
      </g>
     </g>
     <g id="text_11">
      <!-- 20 -->
      <g transform="translate(24.845 261.780184)scale(0.1 -0.1)">
       <use xlink:href="#DejaVuSans-50"/>
       <use x="63.623047" xlink:href="#DejaVuSans-48"/>
      </g>
     </g>
    </g>
    <g id="ytick_2">
     <g id="line2d_11">
      <g>
       <use style="stroke:#000000;stroke-width:0.8;" x="44.57" xlink:href="#m76348f34f0" y="196.117351"/>
      </g>
     </g>
     <g id="text_12">
      <!-- 40 -->
      <g transform="translate(24.845 199.91657)scale(0.1 -0.1)">
       <use xlink:href="#DejaVuSans-52"/>
       <use x="63.623047" xlink:href="#DejaVuSans-48"/>
      </g>
     </g>
    </g>
    <g id="ytick_3">
     <g id="line2d_12">
      <g>
       <use style="stroke:#000000;stroke-width:0.8;" x="44.57" xlink:href="#m76348f34f0" y="134.253736"/>
      </g>
     </g>
     <g id="text_13">
      <!-- 60 -->
      <g transform="translate(24.845 138.052955)scale(0.1 -0.1)">
       <use xlink:href="#DejaVuSans-54"/>
       <use x="63.623047" xlink:href="#DejaVuSans-48"/>
      </g>
     </g>
    </g>
    <g id="ytick_4">
     <g id="line2d_13">
      <g>
       <use style="stroke:#000000;stroke-width:0.8;" x="44.57" xlink:href="#m76348f34f0" y="72.390121"/>
      </g>
     </g>
     <g id="text_14">
      <!-- 80 -->
      <g transform="translate(24.845 76.18934)scale(0.1 -0.1)">
       <use xlink:href="#DejaVuSans-56"/>
       <use x="63.623047" xlink:href="#DejaVuSans-48"/>
      </g>
     </g>
    </g>
    <g id="text_15">
     <!-- Test Accuracy (%) -->
     <g transform="translate(18.765313 201.723906)rotate(-90)scale(0.1 -0.1)">
      <defs>
       <path d="M 18.3125 70.21875 
L 18.3125 54.6875 
L 36.8125 54.6875 
L 36.8125 47.703125 
L 18.3125 47.703125 
L 18.3125 18.015625 
Q 18.3125 11.328125 20.140625 9.421875 
Q 21.96875 7.515625 27.59375 7.515625 
L 36.8125 7.515625 
L 36.8125 0 
L 27.59375 0 
Q 17.1875 0 13.234375 3.875 
Q 9.28125 7.765625 9.28125 18.015625 
L 9.28125 47.703125 
L 2.6875 47.703125 
L 2.6875 54.6875 
L 9.28125 54.6875 
L 9.28125 70.21875 
z
" id="DejaVuSans-116"/>
       <path d="M 34.1875 63.1875 
L 20.796875 26.90625 
L 47.609375 26.90625 
z
M 28.609375 72.90625 
L 39.796875 72.90625 
L 67.578125 0 
L 57.328125 0 
L 50.6875 18.703125 
L 17.828125 18.703125 
L 11.1875 0 
L 0.78125 0 
z
" id="DejaVuSans-65"/>
       <path d="M 8.5 21.578125 
L 8.5 54.6875 
L 17.484375 54.6875 
L 17.484375 21.921875 
Q 17.484375 14.15625 20.5 10.265625 
Q 23.53125 6.390625 29.59375 6.390625 
Q 36.859375 6.390625 41.078125 11.03125 
Q 45.3125 15.671875 45.3125 23.6875 
L 45.3125 54.6875 
L 54.296875 54.6875 
L 54.296875 0 
L 45.3125 0 
L 45.3125 8.40625 
Q 42.046875 3.421875 37.71875 1 
Q 33.40625 -1.421875 27.6875 -1.421875 
Q 18.265625 -1.421875 13.375 4.4375 
Q 8.5 10.296875 8.5 21.578125 
z
M 31.109375 56 
z
" id="DejaVuSans-117"/>
       <path d="M 41.109375 46.296875 
Q 39.59375 47.171875 37.8125 47.578125 
Q 36.03125 48 33.890625 48 
Q 26.265625 48 22.1875 43.046875 
Q 18.109375 38.09375 18.109375 28.8125 
L 18.109375 0 
L 9.078125 0 
L 9.078125 54.6875 
L 18.109375 54.6875 
L 18.109375 46.1875 
Q 20.953125 51.171875 25.484375 53.578125 
Q 30.03125 56 36.53125 56 
Q 37.453125 56 38.578125 55.875 
Q 39.703125 55.765625 41.0625 55.515625 
z
" id="DejaVuSans-114"/>
       <path d="M 34.28125 27.484375 
Q 23.390625 27.484375 19.1875 25 
Q 14.984375 22.515625 14.984375 16.5 
Q 14.984375 11.71875 18.140625 8.90625 
Q 21.296875 6.109375 26.703125 6.109375 
Q 34.1875 6.109375 38.703125 11.40625 
Q 43.21875 16.703125 43.21875 25.484375 
L 43.21875 27.484375 
z
M 52.203125 31.203125 
L 52.203125 0 
L 43.21875 0 
L 43.21875 8.296875 
Q 40.140625 3.328125 35.546875 0.953125 
Q 30.953125 -1.421875 24.3125 -1.421875 
Q 15.921875 -1.421875 10.953125 3.296875 
Q 6 8.015625 6 15.921875 
Q 6 25.140625 12.171875 29.828125 
Q 18.359375 34.515625 30.609375 34.515625 
L 43.21875 34.515625 
L 43.21875 35.40625 
Q 43.21875 41.609375 39.140625 45 
Q 35.0625 48.390625 27.6875 48.390625 
Q 23 48.390625 18.546875 47.265625 
Q 14.109375 46.140625 10.015625 43.890625 
L 10.015625 52.203125 
Q 14.9375 54.109375 19.578125 55.046875 
Q 24.21875 56 28.609375 56 
Q 40.484375 56 46.34375 49.84375 
Q 52.203125 43.703125 52.203125 31.203125 
z
" id="DejaVuSans-97"/>
       <path d="M 32.171875 -5.078125 
Q 28.375 -14.84375 24.75 -17.8125 
Q 21.140625 -20.796875 15.09375 -20.796875 
L 7.90625 -20.796875 
L 7.90625 -13.28125 
L 13.1875 -13.28125 
Q 16.890625 -13.28125 18.9375 -11.515625 
Q 21 -9.765625 23.484375 -3.21875 
L 25.09375 0.875 
L 2.984375 54.6875 
L 12.5 54.6875 
L 29.59375 11.921875 
L 46.6875 54.6875 
L 56.203125 54.6875 
z
" id="DejaVuSans-121"/>
       <path d="M 72.703125 32.078125 
Q 68.453125 32.078125 66.03125 28.46875 
Q 63.625 24.859375 63.625 18.40625 
Q 63.625 12.0625 66.03125 8.421875 
Q 68.453125 4.78125 72.703125 4.78125 
Q 76.859375 4.78125 79.265625 8.421875 
Q 81.6875 12.0625 81.6875 18.40625 
Q 81.6875 24.8125 79.265625 28.4375 
Q 76.859375 32.078125 72.703125 32.078125 
z
M 72.703125 38.28125 
Q 80.421875 38.28125 84.953125 32.90625 
Q 89.5 27.546875 89.5 18.40625 
Q 89.5 9.28125 84.9375 3.921875 
Q 80.375 -1.421875 72.703125 -1.421875 
Q 64.890625 -1.421875 60.34375 3.921875 
Q 55.8125 9.28125 55.8125 18.40625 
Q 55.8125 27.59375 60.375 32.9375 
Q 64.9375 38.28125 72.703125 38.28125 
z
M 22.3125 68.015625 
Q 18.109375 68.015625 15.6875 64.375 
Q 13.28125 60.75 13.28125 54.390625 
Q 13.28125 47.953125 15.671875 44.328125 
Q 18.0625 40.71875 22.3125 40.71875 
Q 26.5625 40.71875 28.96875 44.328125 
Q 31.390625 47.953125 31.390625 54.390625 
Q 31.390625 60.6875 28.953125 64.34375 
Q 26.515625 68.015625 22.3125 68.015625 
z
M 66.40625 74.21875 
L 74.21875 74.21875 
L 28.609375 -1.421875 
L 20.796875 -1.421875 
z
M 22.3125 74.21875 
Q 30.03125 74.21875 34.609375 68.875 
Q 39.203125 63.53125 39.203125 54.390625 
Q 39.203125 45.171875 34.640625 39.84375 
Q 30.078125 34.515625 22.3125 34.515625 
Q 14.546875 34.515625 10.03125 39.859375 
Q 5.515625 45.21875 5.515625 54.390625 
Q 5.515625 63.484375 10.046875 68.84375 
Q 14.59375 74.21875 22.3125 74.21875 
z
" id="DejaVuSans-37"/>
      </defs>
      <use xlink:href="#DejaVuSans-84"/>
      <use x="44.083984" xlink:href="#DejaVuSans-101"/>
      <use x="105.607422" xlink:href="#DejaVuSans-115"/>
      <use x="157.707031" xlink:href="#DejaVuSans-116"/>
      <use x="196.916016" xlink:href="#DejaVuSans-32"/>
      <use x="228.703125" xlink:href="#DejaVuSans-65"/>
      <use x="295.361328" xlink:href="#DejaVuSans-99"/>
      <use x="350.341797" xlink:href="#DejaVuSans-99"/>
      <use x="405.322266" xlink:href="#DejaVuSans-117"/>
      <use x="468.701172" xlink:href="#DejaVuSans-114"/>
      <use x="509.814453" xlink:href="#DejaVuSans-97"/>
      <use x="571.09375" xlink:href="#DejaVuSans-99"/>
      <use x="626.074219" xlink:href="#DejaVuSans-121"/>
      <use x="685.253906" xlink:href="#DejaVuSans-32"/>
      <use x="717.041016" xlink:href="#DejaVuSans-40"/>
      <use x="756.054688" xlink:href="#DejaVuSans-37"/>
      <use x="851.074219" xlink:href="#DejaVuSans-41"/>
     </g>
    </g>
   </g>
   <g id="line2d_14">
    <path clip-path="url(#paed18a2e4f)" d="M 63.109207 278.400791 
L 65.597015 261.605787 
L 68.083219 248.4205 
L 70.557801 229.949015 
L 73.022717 205.889265 
L 75.502339 189.245294 
L 77.978939 167.254712 
L 80.459386 157.331764 
L 82.947101 136.171871 
L 85.412128 130.508088 
L 87.882809 111.296535 
L 90.348035 114.770322 
L 92.817117 108.970608 
L 95.295978 90.302779 
L 97.740118 95.860839 
L 100.222786 86.043614 
L 102.684885 82.418793 
L 105.152855 80.576176 
L 107.640201 69.852747 
L 110.108931 83.02293 
L 112.570673 74.595221 
L 115.039185 76.951355 
L 117.528143 76.528459 
L 119.988205 70.456883 
L 122.456075 73.477568 
L 124.909912 74.565014 
L 127.392406 71.574537 
L 129.855975 65.291513 
L 132.322815 69.490264 
L 134.809131 60.095936 
L 137.280151 63.328068 
L 139.755521 59.642834 
L 142.211916 67.798681 
L 144.689224 60.881314 
L 147.165997 58.343939 
L 149.621885 61.394831 
L 154.577788 56.863804 
L 157.032503 57.830423 
L 159.507661 68.312198 
L 161.973015 52.030709 
L 164.443095 53.752499 
L 166.902598 57.135666 
L 169.356377 55.353462 
L 171.846637 57.437734 
L 174.325438 59.67304 
L 176.797538 55.746151 
L 179.267306 53.510844 
L 181.75357 56.591942 
L 184.243173 54.809739 
L 186.701617 53.299397 
L 189.170991 53.812913 
L 191.633725 57.95125 
L 196.585007 52.967121 
L 199.057571 60.488625 
L 201.528655 50.278712 
L 204.024058 46.140375 
L 206.476098 49.765196 
L 208.944541 51.879675 
L 211.410088 53.541051 
L 213.878806 51.426572 
L 216.344744 45.32479 
L 218.835011 49.765196 
L 221.294274 50.701608 
L 226.252935 51.124504 
L 228.708341 48.828784 
L 231.183325 46.744512 
L 233.63786 47.167407 
L 236.114887 48.073613 
L 238.581889 51.215124 
L 241.061196 43.391552 
L 243.526909 44.75086 
L 245.996714 42.727001 
L 248.470217 45.022722 
L 250.946508 43.512379 
L 253.40987 44.025896 
L 255.868262 42.908243 
L 258.353184 39.978179 
L 260.821036 42.666588 
L 263.300607 44.690446 
L 265.757446 43.331138 
L 268.221875 41.186452 
L 270.6869 45.32479 
L 273.164524 48.224647 
L 275.646373 41.458314 
L 278.14917 38.43763 
L 280.623241 41.005211 
L 283.104949 39.796938 
L 285.558114 41.760382 
L 288.042105 45.475824 
L 290.535023 39.525076 
L 293.00693 39.132387 
L 295.490935 35.839841 
L 297.961186 42.364519 
L 300.436296 38.558457 
L 302.918386 38.135561 
L 305.390794 34.963843 
L 307.874883 36.443978 
L 310.354047 34.631568 
L 312.832932 35.990875 
L 315.288472 35.56798 
L 317.762688 36.172117 
L 320.233947 38.075148 
L 322.716921 36.685633 
L 325.196593 34.087844 
L 327.65872 34.99405 
L 330.134707 37.501218 
L 332.607312 36.23253 
L 335.110959 32.607709 
L 337.57585 36.746047 
L 340.041224 33.604535 
L 342.506628 32.909777 
L 344.982393 31.852538 
L 347.428291 32.879571 
L 349.909089 31.580676 
L 352.378557 33.030605 
L 354.861021 30.130748 
L 357.331966 32.486882 
L 359.797561 30.463023 
L 362.277203 31.610883 
L 364.747895 30.432816 
L 367.243734 29.466197 
L 369.723883 29.707852 
L 374.650938 28.650613 
L 377.115683 28.439165 
L 379.58789 27.955855 
L 382.075517 28.137096 
L 384.527654 27.200684 
L 389.463597 28.680819 
L 391.934163 26.989236 
L 394.40271 27.62358 
L 396.897091 27.804821 
L 399.362887 26.626754 
L 401.847914 26.898616 
L 404.343668 27.291305 
L 406.811141 28.046476 
L 409.278226 28.106889 
L 411.752751 27.351718 
L 414.244722 26.989236 
L 416.715145 27.502753 
L 419.18494 27.472546 
L 421.665568 26.596547 
L 424.14707 27.804821 
L 426.625966 27.04965 
L 429.102874 26.113238 
L 431.571364 27.230891 
L 431.571364 27.230891 
" style="fill:none;stroke:#1f77b4;stroke-linecap:square;stroke-width:1.5;"/>
   </g>
   <g id="line2d_15">
    <path clip-path="url(#paed18a2e4f)" d="M 62.998636 253.865283 
L 65.335217 218.349587 
L 70.004864 195.618938 
L 72.350738 178.114072 
L 74.694621 169.172847 
L 77.060364 155.036044 
L 79.396656 142.953307 
L 81.720313 136.066147 
L 84.046129 126.641612 
L 86.389821 118.213902 
L 88.700047 118.213902 
L 91.089841 111.296535 
L 93.450231 102.35531 
L 95.787693 100.573106 
L 98.13503 94.139048 
L 100.47133 90.786089 
L 102.816864 84.956168 
L 105.136304 87.735198 
L 107.471963 83.355205 
L 109.791962 94.712978 
L 114.450526 84.956168 
L 116.820139 87.131061 
L 119.248767 77.495078 
L 121.583605 78.522111 
L 123.897946 80.999072 
L 126.249126 82.177139 
L 128.578345 83.868722 
L 130.909794 76.13577 
L 133.288882 70.577711 
L 135.61739 81.814656 
L 137.945051 72.873431 
L 140.298321 65.533168 
L 142.63788 73.507775 
L 144.988511 71.54433 
L 147.374329 72.601569 
L 149.709487 79.972039 
L 152.050008 76.286804 
L 154.39153 71.514123 
L 156.735395 65.472754 
L 159.092891 69.852747 
L 161.415057 68.976748 
L 163.751967 69.973574 
L 166.083037 68.281991 
L 168.405799 71.665157 
L 170.760574 68.402818 
L 173.084041 68.644473 
L 175.493941 61.666692 
L 177.830884 61.30421 
L 180.170362 60.337591 
L 182.512991 60.216764 
L 184.838063 70.215229 
L 187.161685 60.669866 
L 189.49553 65.472754 
L 191.859462 57.921044 
L 194.18917 63.448896 
L 196.538687 57.618975 
L 198.882806 54.688911 
L 201.222826 60.126143 
L 203.590672 64.324894 
L 205.917994 58.736628 
L 208.251292 56.259667 
L 210.617778 59.00849 
L 212.96849 60.8209 
L 215.301283 54.568084 
L 217.660998 58.917869 
L 220.000863 58.464767 
L 222.351848 52.21195 
L 224.679712 55.685737 
L 227.038701 56.71277 
L 229.362374 56.13884 
L 231.712878 52.604639 
L 234.022226 53.873327 
L 236.361424 50.792229 
L 238.678388 49.523541 
L 240.998353 57.86063 
L 243.342434 53.238983 
L 245.665095 51.517193 
L 247.983813 52.665053 
L 250.316391 46.412236 
L 252.635283 49.644369 
L 254.97862 46.835132 
L 257.321701 45.294583 
L 259.683959 47.076787 
L 262.006564 50.248505 
L 264.340107 46.653891 
L 266.694385 43.844655 
L 269.032392 44.056103 
L 271.363015 48.889197 
L 273.68921 41.126039 
L 275.999303 46.714305 
L 278.357482 38.558457 
L 280.690664 39.343835 
L 283.032705 42.908243 
L 285.378413 42.183278 
L 287.743861 46.593477 
L 290.101997 42.213485 
L 292.42347 40.401075 
L 294.760113 41.246866 
L 297.099066 38.860526 
L 299.41117 39.313628 
L 301.756752 37.984527 
L 304.091452 42.002037 
L 306.423247 42.364519 
L 308.780355 39.434456 
L 311.135131 33.84619 
L 313.474617 35.56798 
L 315.831125 38.195975 
L 318.167402 36.202323 
L 320.504743 37.682459 
L 322.838753 35.870048 
L 325.164018 34.812809 
L 327.488369 36.323151 
L 329.804268 37.38039 
L 332.132249 34.027431 
L 334.464824 33.242053 
L 336.817659 33.000398 
L 339.128994 33.151432 
L 341.488394 33.574328 
L 343.864513 32.275434 
L 346.191001 30.432816 
L 348.552214 29.496404 
L 350.86695 30.795298 
L 353.198913 30.825505 
L 355.509408 30.040127 
L 357.843889 31.187987 
L 360.198384 29.617232 
L 362.54013 28.892267 
L 364.889567 28.680819 
L 369.552325 28.982888 
L 371.960678 30.825505 
L 374.285968 29.133922 
L 376.616405 30.402609 
L 381.263694 28.318337 
L 383.613461 28.650613 
L 385.947109 28.227717 
L 388.268086 27.532959 
L 390.638635 27.412132 
L 392.976272 28.076683 
L 395.280407 27.200684 
L 397.615113 27.563166 
L 400.017683 27.563166 
L 402.348702 26.536134 
L 404.684133 27.563166 
L 407.017912 27.412132 
L 409.364062 27.442339 
L 411.716508 27.7142 
L 411.716508 27.7142 
" style="fill:none;stroke:#ff7f0e;stroke-linecap:square;stroke-width:1.5;"/>
   </g>
   <g id="line2d_16">
    <path clip-path="url(#paed18a2e4f)" d="M 63.005904 257.852586 
L 65.354999 219.920343 
L 67.71752 207.354296 
L 70.057321 193.096666 
L 74.74451 162.074239 
L 77.095159 153.69184 
L 79.464348 144.524063 
L 81.812983 133.287117 
L 84.164121 127.729058 
L 86.53904 118.878453 
L 88.906507 118.90866 
L 91.321061 113.864117 
L 93.678351 103.805238 
L 96.015146 100.905381 
L 98.384104 95.498356 
L 100.739189 91.601674 
L 103.107294 83.868722 
L 105.446662 83.868722 
L 107.799675 89.547608 
L 110.135064 91.964156 
L 112.514099 88.309128 
L 114.879609 87.221681 
L 117.212399 93.414084 
L 119.598745 88.339335 
L 121.940936 71.785985 
L 124.269097 78.069008 
L 126.610592 83.898929 
L 128.95946 82.781275 
L 133.711919 70.940193 
L 136.077903 75.501426 
L 138.413611 81.089692 
L 140.783877 65.019652 
L 143.117989 77.827353 
L 145.494633 72.390121 
L 147.887994 71.876605 
L 150.228373 75.501426 
L 152.574435 73.205706 
L 154.899694 70.094401 
L 157.23825 67.315372 
L 159.607614 69.157989 
L 161.973001 68.916334 
L 164.329455 74.655635 
L 166.707522 66.258132 
L 169.078422 71.212055 
L 171.41766 67.103924 
L 173.775618 67.436199 
L 176.189008 60.307384 
L 178.5293 67.798681 
L 180.914895 58.857456 
L 183.271928 57.800216 
L 185.595927 65.956064 
L 187.981641 61.485451 
L 190.347052 60.760487 
L 192.72004 59.522006 
L 195.077387 61.87814 
L 197.439611 59.068904 
L 199.780521 59.67304 
L 202.139029 61.727106 
L 204.582236 65.865443 
L 206.943185 58.132491 
L 209.290515 57.437734 
L 211.617927 58.374146 
L 213.980339 56.22946 
L 216.336207 53.420224 
L 218.674164 58.43456 
L 221.043114 54.266016 
L 223.387026 52.091123 
L 228.055518 57.618975 
L 230.402251 57.105459 
L 232.799908 52.12133 
L 235.127321 54.054568 
L 237.485033 55.595117 
L 239.849707 52.604639 
L 242.208994 56.078426 
L 244.604281 48.315267 
L 246.926306 52.242157 
L 249.320313 49.855816 
L 251.641348 47.771544 
L 253.982664 54.145188 
L 256.375735 49.734989 
L 258.746752 50.671401 
L 261.154535 49.372507 
L 263.523283 45.143549 
L 265.871204 48.738163 
L 268.241156 46.835132 
L 270.590333 42.666588 
L 272.943539 46.049754 
L 275.32748 46.079961 
L 277.696547 47.227821 
L 280.046156 42.938449 
L 282.389976 44.207137 
L 284.740307 43.512379 
L 287.111247 42.002037 
L 289.512117 47.650717 
L 291.885803 41.941624 
L 294.227341 41.337487 
L 296.574384 40.099006 
L 298.900691 39.615697 
L 301.265802 40.340661 
L 303.594804 39.978179 
L 305.967612 40.703143 
L 308.294926 40.280247 
L 310.661304 39.434456 
L 313.046927 36.081496 
L 315.385881 35.598186 
L 317.789879 38.407423 
L 320.131915 38.920939 
L 322.475985 40.401075 
L 324.813405 36.80646 
L 327.168152 35.688807 
L 329.503526 35.356532 
L 331.84268 36.564805 
L 334.213158 33.93681 
L 336.55366 34.329499 
L 338.908986 33.997224 
L 341.278475 31.671297 
L 343.610988 33.030605 
L 346.02155 31.64109 
L 348.369629 30.614057 
L 350.72338 31.973365 
L 353.071652 31.278608 
L 355.40319 31.852538 
L 357.796147 30.49323 
L 360.14727 31.520263 
L 362.541545 30.009921 
L 364.915016 29.949507 
L 367.278416 29.526611 
L 369.597604 30.130748 
L 371.968718 27.200684 
L 374.340882 29.798473 
L 379.041831 29.34537 
L 381.393364 28.499578 
L 383.750173 30.251575 
L 386.113445 30.009921 
L 388.496886 29.013095 
L 390.832229 29.224543 
L 393.178461 28.86206 
L 395.531786 29.043302 
L 397.864623 28.227717 
L 400.261177 27.865235 
L 402.661522 28.167303 
L 405.026583 28.348544 
L 407.366606 28.137096 
L 409.724343 28.741233 
L 412.104609 28.28813 
L 414.463515 28.801647 
L 414.463515 28.801647 
" style="fill:none;stroke:#2ca02c;stroke-linecap:square;stroke-width:1.5;"/>
   </g>
   <g id="line2d_17">
    <path clip-path="url(#paed18a2e4f)" d="M 63.050714 259.54417 
L 65.383861 230.915634 
L 67.751478 221.128617 
L 72.439493 184.140337 
L 74.770606 172.752358 
L 77.126724 162.30079 
L 79.487841 153.948598 
L 81.860733 144.539166 
L 84.194998 132.622567 
L 86.555697 124.436512 
L 88.911512 129.058159 
L 91.321291 123.288652 
L 93.667567 108.275851 
L 96.035579 104.530202 
L 98.388228 96.253527 
L 100.733702 97.914904 
L 103.083206 88.429955 
L 105.435417 90.997537 
L 107.749644 97.492008 
L 110.12005 89.185126 
L 112.484901 88.822644 
L 114.823456 89.305954 
L 117.15529 86.919613 
L 119.543659 84.714513 
L 121.873409 84.231204 
L 124.214248 85.681132 
L 126.567646 80.002246 
L 128.92375 81.361554 
L 131.256531 76.739907 
L 133.620417 74.41398 
L 135.971252 80.968865 
L 138.337718 76.830527 
L 140.715848 73.235913 
L 143.06629 77.404457 
L 145.413846 73.93067 
L 147.81265 78.189835 
L 150.16949 76.800321 
L 152.519205 73.84005 
L 154.868859 81.542795 
L 157.242959 68.281991 
L 159.608326 68.040336 
L 161.9702 70.849572 
L 164.311193 74.202532 
L 166.649466 70.094401 
L 168.991493 70.336056 
L 171.320848 72.420328 
L 173.699589 69.24861 
L 176.083812 62.119795 
L 178.435981 65.956064 
L 183.10305 62.059381 
L 185.460711 67.436199 
L 187.844978 61.183383 
L 190.192712 64.506135 
L 192.562394 60.851107 
L 194.917849 64.898824 
L 197.288337 55.504496 
L 199.656214 59.612627 
L 202.023846 61.968761 
L 204.40629 64.777997 
L 206.7775 62.240622 
L 209.139768 56.622149 
L 211.462704 61.334417 
L 213.815081 61.002142 
L 216.164829 53.782706 
L 218.487666 60.065729 
L 220.836283 57.407527 
L 223.181148 51.486986 
L 225.5255 57.981457 
L 227.859604 56.682563 
L 230.221309 58.646008 
L 232.656278 52.574432 
L 235.011963 58.223112 
L 237.360419 52.846294 
L 239.731924 50.39954 
L 242.055376 60.186557 
L 244.404371 56.652356 
L 246.735681 52.030709 
L 249.109048 56.742977 
L 251.46051 51.335952 
L 253.796501 49.523541 
L 256.169406 50.218299 
L 258.524122 49.82561 
L 260.90088 50.822435 
L 263.264971 50.852642 
L 265.635733 49.372507 
L 267.993698 45.687272 
L 270.359929 44.962308 
L 272.719257 46.351823 
L 275.057417 46.47265 
L 277.413087 48.647543 
L 279.786986 43.210311 
L 282.140686 44.599826 
L 284.52532 45.536238 
L 286.864327 43.300931 
L 289.265601 46.079961 
L 291.601122 44.569619 
L 293.976911 40.642729 
L 296.343207 43.270725 
L 301.053682 41.488521 
L 303.412005 44.237344 
L 305.778175 40.975005 
L 308.147004 46.140375 
L 310.48202 41.30728 
L 312.818001 40.431281 
L 315.178086 36.776253 
L 317.56277 41.186452 
L 319.930891 37.229356 
L 322.286649 39.615697 
L 324.636997 39.10218 
L 326.986765 35.870048 
L 329.337223 37.410597 
L 331.685659 37.833493 
L 334.034192 35.719014 
L 336.39265 35.839841 
L 338.763027 33.544121 
L 341.13859 34.359706 
L 343.489494 34.691981 
L 345.881757 33.000398 
L 348.256789 34.299292 
L 350.607854 31.852538 
L 352.959924 32.456675 
L 355.320791 31.520263 
L 357.687866 31.278608 
L 360.038531 30.644264 
L 362.392095 30.795298 
L 367.129723 30.825505 
L 369.479705 30.553644 
L 371.833047 30.130748 
L 374.242495 30.070334 
L 376.578507 31.792124 
L 378.947658 30.644264 
L 381.320848 30.160955 
L 386.024534 30.97654 
L 388.361749 30.97654 
L 393.092346 30.463023 
L 395.446869 31.127574 
L 397.799918 30.916126 
L 400.13262 30.97654 
L 402.542356 30.523437 
L 404.909235 31.308815 
L 407.257999 30.160955 
L 409.593231 30.765092 
L 411.944581 31.097367 
L 414.311038 30.946333 
L 414.311038 30.946333 
" style="fill:none;stroke:#d62728;stroke-linecap:square;stroke-width:1.5;"/>
   </g>
   <g id="line2d_18">
    <path clip-path="url(#paed18a2e4f)" d="M 63.022999 259.06086 
L 65.361886 221.491099 
L 67.684271 218.953724 
L 72.388983 183.808062 
L 74.714238 176.211041 
L 77.061092 159.234795 
L 79.412826 153.465288 
L 81.756731 143.799099 
L 84.121753 141.020069 
L 86.465072 128.061333 
L 88.786999 123.379273 
L 91.170468 121.234587 
L 93.544915 111.659017 
L 95.890218 108.396678 
L 98.243154 104.379168 
L 100.596807 103.714618 
L 102.93279 91.933949 
L 105.254199 95.709804 
L 107.621853 93.534912 
L 109.991161 90.635055 
L 112.362925 87.976852 
L 114.733745 91.269398 
L 117.063554 92.326638 
L 119.490176 80.848037 
L 121.813272 85.22803 
L 124.143868 81.693829 
L 126.456734 87.010233 
L 128.783322 84.593686 
L 131.142167 78.069008 
L 133.487043 75.048324 
L 135.849721 82.056311 
L 138.190697 82.660448 
L 140.562406 71.997432 
L 142.883679 83.687481 
L 145.209061 75.894115 
L 147.626552 72.450535 
L 149.963384 82.026104 
L 152.301444 75.894115 
L 154.657673 75.320185 
L 157.017865 63.539516 
L 159.331814 70.124608 
L 161.689973 71.06102 
L 164.040244 70.094401 
L 166.388879 67.859095 
L 168.770906 75.018117 
L 171.111836 75.229565 
L 173.471414 64.898824 
L 175.877805 65.2311 
L 178.231093 70.094401 
L 180.614856 62.663518 
L 182.961211 59.612627 
L 185.321441 63.841585 
L 187.694884 58.827249 
L 190.019151 66.37896 
L 192.334448 59.642834 
L 194.67879 63.116621 
L 197.046188 55.353462 
L 199.392174 56.682563 
L 201.723521 61.122969 
L 204.123718 66.46958 
L 206.475572 58.646008 
L 208.843947 59.038697 
L 211.174599 60.15635 
L 213.544688 59.975109 
L 215.899743 55.202428 
L 218.225616 65.351927 
L 220.572356 57.2867 
L 222.939565 54.50767 
L 225.271813 58.343939 
L 227.601509 58.464767 
L 229.975338 54.145188 
L 232.369293 56.622149 
L 234.716043 55.262841 
L 237.053553 52.816087 
L 239.409487 52.604639 
L 241.750079 60.549039 
L 244.097318 54.50767 
L 246.425256 49.583955 
L 248.782716 53.450431 
L 251.135674 51.366159 
L 253.492948 53.238983 
L 255.845738 51.728641 
L 258.193248 48.556922 
L 260.611086 50.520367 
L 262.918035 49.674575 
L 267.598937 44.781067 
L 269.930038 42.787415 
L 272.267426 44.358171 
L 276.940499 45.687272 
L 279.300216 44.539412 
L 281.660956 42.636381 
L 283.999988 42.817622 
L 286.355561 42.636381 
L 288.741898 44.539412 
L 291.098146 42.032244 
L 293.438631 41.669762 
L 295.788308 42.787415 
L 298.124897 41.579141 
L 300.495755 39.313628 
L 302.855934 39.223008 
L 305.200226 40.854177 
L 307.558552 40.038592 
L 309.92845 41.579141 
L 312.280045 37.682459 
L 314.62777 38.105354 
L 317.038818 40.491695 
L 321.739963 38.105354 
L 324.079402 36.987701 
L 326.44689 36.202323 
L 328.803808 37.017908 
L 331.16957 36.655426 
L 333.510119 37.440804 
L 335.836348 33.453501 
L 338.196054 35.054463 
L 340.542389 32.245227 
L 342.864325 33.725362 
L 345.2535 31.64109 
L 347.583365 32.879571 
L 349.921969 31.701504 
L 352.282172 31.912952 
L 354.627404 29.828679 
L 356.945138 31.399435 
L 359.300803 30.946333 
L 361.658148 29.828679 
L 363.989843 32.305641 
L 366.339014 31.308815 
L 368.682125 30.130748 
L 371.015067 30.885919 
L 373.428254 31.278608 
L 375.787834 30.342196 
L 378.140672 30.97654 
L 380.517699 30.614057 
L 382.873015 29.768266 
L 385.258927 29.798473 
L 387.633194 29.164129 
L 389.982846 29.284956 
L 392.333044 29.9193 
L 394.68346 30.100541 
L 399.421351 29.798473 
L 401.799158 29.043302 
L 404.149577 29.889093 
L 406.510284 29.768266 
L 408.850583 30.040127 
L 411.187535 29.768266 
L 413.542924 29.284956 
L 413.542924 29.284956 
" style="fill:none;stroke:#9467bd;stroke-linecap:square;stroke-width:1.5;"/>
   </g>
   <g id="patch_3">
    <path d="M 44.57 303.64 
L 44.57 10.8 
" style="fill:none;stroke:#000000;stroke-linecap:square;stroke-linejoin:miter;stroke-width:0.8;"/>
   </g>
   <g id="patch_4">
    <path d="M 450 303.64 
L 450 10.8 
" style="fill:none;stroke:#000000;stroke-linecap:square;stroke-linejoin:miter;stroke-width:0.8;"/>
   </g>
   <g id="patch_5">
    <path d="M 44.57 303.64 
L 450 303.64 
" style="fill:none;stroke:#000000;stroke-linecap:square;stroke-linejoin:miter;stroke-width:0.8;"/>
   </g>
   <g id="patch_6">
    <path d="M 44.57 10.8 
L 450 10.8 
" style="fill:none;stroke:#000000;stroke-linecap:square;stroke-linejoin:miter;stroke-width:0.8;"/>
   </g>
   <g id="legend_1">
    <g id="patch_7">
     <path d="M 282.65625 298.64 
L 443 298.64 
Q 445 298.64 445 296.64 
L 445 224.249375 
Q 445 222.249375 443 222.249375 
L 282.65625 222.249375 
Q 280.65625 222.249375 280.65625 224.249375 
L 280.65625 296.64 
Q 280.65625 298.64 282.65625 298.64 
z
" style="fill:#ffffff;opacity:0.8;stroke:#cccccc;stroke-linejoin:miter;"/>
    </g>
    <g id="line2d_19">
     <path d="M 284.65625 230.347812 
L 304.65625 230.347812 
" style="fill:none;stroke:#1f77b4;stroke-linecap:square;stroke-width:1.5;"/>
    </g>
    <g id="line2d_20"/>
    <g id="text_16">
     <!-- AllReduce SGD -->
     <g transform="translate(312.65625 233.847812)scale(0.1 -0.1)">
      <defs>
       <path d="M 9.421875 75.984375 
L 18.40625 75.984375 
L 18.40625 0 
L 9.421875 0 
z
" id="DejaVuSans-108"/>
       <path d="M 44.390625 34.1875 
Q 47.5625 33.109375 50.5625 29.59375 
Q 53.5625 26.078125 56.59375 19.921875 
L 66.609375 0 
L 56 0 
L 46.6875 18.703125 
Q 43.0625 26.03125 39.671875 28.421875 
Q 36.28125 30.8125 30.421875 30.8125 
L 19.671875 30.8125 
L 19.671875 0 
L 9.8125 0 
L 9.8125 72.90625 
L 32.078125 72.90625 
Q 44.578125 72.90625 50.734375 67.671875 
Q 56.890625 62.453125 56.890625 51.90625 
Q 56.890625 45.015625 53.6875 40.46875 
Q 50.484375 35.9375 44.390625 34.1875 
z
M 19.671875 64.796875 
L 19.671875 38.921875 
L 32.078125 38.921875 
Q 39.203125 38.921875 42.84375 42.21875 
Q 46.484375 45.515625 46.484375 51.90625 
Q 46.484375 58.296875 42.84375 61.546875 
Q 39.203125 64.796875 32.078125 64.796875 
z
" id="DejaVuSans-82"/>
       <path d="M 45.40625 46.390625 
L 45.40625 75.984375 
L 54.390625 75.984375 
L 54.390625 0 
L 45.40625 0 
L 45.40625 8.203125 
Q 42.578125 3.328125 38.25 0.953125 
Q 33.9375 -1.421875 27.875 -1.421875 
Q 17.96875 -1.421875 11.734375 6.484375 
Q 5.515625 14.40625 5.515625 27.296875 
Q 5.515625 40.1875 11.734375 48.09375 
Q 17.96875 56 27.875 56 
Q 33.9375 56 38.25 53.625 
Q 42.578125 51.265625 45.40625 46.390625 
z
M 14.796875 27.296875 
Q 14.796875 17.390625 18.875 11.75 
Q 22.953125 6.109375 30.078125 6.109375 
Q 37.203125 6.109375 41.296875 11.75 
Q 45.40625 17.390625 45.40625 27.296875 
Q 45.40625 37.203125 41.296875 42.84375 
Q 37.203125 48.484375 30.078125 48.484375 
Q 22.953125 48.484375 18.875 42.84375 
Q 14.796875 37.203125 14.796875 27.296875 
z
" id="DejaVuSans-100"/>
       <path d="M 53.515625 70.515625 
L 53.515625 60.890625 
Q 47.90625 63.578125 42.921875 64.890625 
Q 37.9375 66.21875 33.296875 66.21875 
Q 25.25 66.21875 20.875 63.09375 
Q 16.5 59.96875 16.5 54.203125 
Q 16.5 49.359375 19.40625 46.890625 
Q 22.3125 44.4375 30.421875 42.921875 
L 36.375 41.703125 
Q 47.40625 39.59375 52.65625 34.296875 
Q 57.90625 29 57.90625 20.125 
Q 57.90625 9.515625 50.796875 4.046875 
Q 43.703125 -1.421875 29.984375 -1.421875 
Q 24.8125 -1.421875 18.96875 -0.25 
Q 13.140625 0.921875 6.890625 3.21875 
L 6.890625 13.375 
Q 12.890625 10.015625 18.65625 8.296875 
Q 24.421875 6.59375 29.984375 6.59375 
Q 38.421875 6.59375 43.015625 9.90625 
Q 47.609375 13.234375 47.609375 19.390625 
Q 47.609375 24.75 44.3125 27.78125 
Q 41.015625 30.8125 33.5 32.328125 
L 27.484375 33.5 
Q 16.453125 35.6875 11.515625 40.375 
Q 6.59375 45.0625 6.59375 53.421875 
Q 6.59375 63.09375 13.40625 68.65625 
Q 20.21875 74.21875 32.171875 74.21875 
Q 37.3125 74.21875 42.625 73.28125 
Q 47.953125 72.359375 53.515625 70.515625 
z
" id="DejaVuSans-83"/>
       <path d="M 59.515625 10.40625 
L 59.515625 29.984375 
L 43.40625 29.984375 
L 43.40625 38.09375 
L 69.28125 38.09375 
L 69.28125 6.78125 
Q 63.578125 2.734375 56.6875 0.65625 
Q 49.8125 -1.421875 42 -1.421875 
Q 24.90625 -1.421875 15.25 8.5625 
Q 5.609375 18.5625 5.609375 36.375 
Q 5.609375 54.25 15.25 64.234375 
Q 24.90625 74.21875 42 74.21875 
Q 49.125 74.21875 55.546875 72.453125 
Q 61.96875 70.703125 67.390625 67.28125 
L 67.390625 56.78125 
Q 61.921875 61.421875 55.765625 63.765625 
Q 49.609375 66.109375 42.828125 66.109375 
Q 29.4375 66.109375 22.71875 58.640625 
Q 16.015625 51.171875 16.015625 36.375 
Q 16.015625 21.625 22.71875 14.15625 
Q 29.4375 6.6875 42.828125 6.6875 
Q 48.046875 6.6875 52.140625 7.59375 
Q 56.25 8.5 59.515625 10.40625 
z
" id="DejaVuSans-71"/>
       <path d="M 19.671875 64.796875 
L 19.671875 8.109375 
L 31.59375 8.109375 
Q 46.6875 8.109375 53.6875 14.9375 
Q 60.6875 21.78125 60.6875 36.53125 
Q 60.6875 51.171875 53.6875 57.984375 
Q 46.6875 64.796875 31.59375 64.796875 
z
M 9.8125 72.90625 
L 30.078125 72.90625 
Q 51.265625 72.90625 61.171875 64.09375 
Q 71.09375 55.28125 71.09375 36.53125 
Q 71.09375 17.671875 61.125 8.828125 
Q 51.171875 0 30.078125 0 
L 9.8125 0 
z
" id="DejaVuSans-68"/>
      </defs>
      <use xlink:href="#DejaVuSans-65"/>
      <use x="68.408203" xlink:href="#DejaVuSans-108"/>
      <use x="96.191406" xlink:href="#DejaVuSans-108"/>
      <use x="123.974609" xlink:href="#DejaVuSans-82"/>
      <use x="188.957031" xlink:href="#DejaVuSans-101"/>
      <use x="250.480469" xlink:href="#DejaVuSans-100"/>
      <use x="313.957031" xlink:href="#DejaVuSans-117"/>
      <use x="377.335938" xlink:href="#DejaVuSans-99"/>
      <use x="432.316406" xlink:href="#DejaVuSans-101"/>
      <use x="493.839844" xlink:href="#DejaVuSans-32"/>
      <use x="525.626953" xlink:href="#DejaVuSans-83"/>
      <use x="589.103516" xlink:href="#DejaVuSans-71"/>
      <use x="666.59375" xlink:href="#DejaVuSans-68"/>
     </g>
    </g>
    <g id="line2d_21">
     <path d="M 284.65625 245.025937 
L 304.65625 245.025937 
" style="fill:none;stroke:#ff7f0e;stroke-linecap:square;stroke-width:1.5;"/>
    </g>
    <g id="line2d_22"/>
    <g id="text_17">
     <!-- GRandK-MN-TS (8,12) bits -->
     <g transform="translate(312.65625 248.525937)scale(0.1 -0.1)">
      <defs>
       <path d="M 54.890625 33.015625 
L 54.890625 0 
L 45.90625 0 
L 45.90625 32.71875 
Q 45.90625 40.484375 42.875 44.328125 
Q 39.84375 48.1875 33.796875 48.1875 
Q 26.515625 48.1875 22.3125 43.546875 
Q 18.109375 38.921875 18.109375 30.90625 
L 18.109375 0 
L 9.078125 0 
L 9.078125 54.6875 
L 18.109375 54.6875 
L 18.109375 46.1875 
Q 21.34375 51.125 25.703125 53.5625 
Q 30.078125 56 35.796875 56 
Q 45.21875 56 50.046875 50.171875 
Q 54.890625 44.34375 54.890625 33.015625 
z
" id="DejaVuSans-110"/>
       <path d="M 9.8125 72.90625 
L 19.671875 72.90625 
L 19.671875 42.09375 
L 52.390625 72.90625 
L 65.09375 72.90625 
L 28.90625 38.921875 
L 67.671875 0 
L 54.6875 0 
L 19.671875 35.109375 
L 19.671875 0 
L 9.8125 0 
z
" id="DejaVuSans-75"/>
       <path d="M 4.890625 31.390625 
L 31.203125 31.390625 
L 31.203125 23.390625 
L 4.890625 23.390625 
z
" id="DejaVuSans-45"/>
       <path d="M 9.8125 72.90625 
L 24.515625 72.90625 
L 43.109375 23.296875 
L 61.8125 72.90625 
L 76.515625 72.90625 
L 76.515625 0 
L 66.890625 0 
L 66.890625 64.015625 
L 48.09375 14.015625 
L 38.1875 14.015625 
L 19.390625 64.015625 
L 19.390625 0 
L 9.8125 0 
z
" id="DejaVuSans-77"/>
       <path d="M 9.8125 72.90625 
L 23.09375 72.90625 
L 55.421875 11.921875 
L 55.421875 72.90625 
L 64.984375 72.90625 
L 64.984375 0 
L 51.703125 0 
L 19.390625 60.984375 
L 19.390625 0 
L 9.8125 0 
z
" id="DejaVuSans-78"/>
       <path d="M 11.71875 12.40625 
L 22.015625 12.40625 
L 22.015625 4 
L 14.015625 -11.625 
L 7.71875 -11.625 
L 11.71875 4 
z
" id="DejaVuSans-44"/>
       <path d="M 48.6875 27.296875 
Q 48.6875 37.203125 44.609375 42.84375 
Q 40.53125 48.484375 33.40625 48.484375 
Q 26.265625 48.484375 22.1875 42.84375 
Q 18.109375 37.203125 18.109375 27.296875 
Q 18.109375 17.390625 22.1875 11.75 
Q 26.265625 6.109375 33.40625 6.109375 
Q 40.53125 6.109375 44.609375 11.75 
Q 48.6875 17.390625 48.6875 27.296875 
z
M 18.109375 46.390625 
Q 20.953125 51.265625 25.265625 53.625 
Q 29.59375 56 35.59375 56 
Q 45.5625 56 51.78125 48.09375 
Q 58.015625 40.1875 58.015625 27.296875 
Q 58.015625 14.40625 51.78125 6.484375 
Q 45.5625 -1.421875 35.59375 -1.421875 
Q 29.59375 -1.421875 25.265625 0.953125 
Q 20.953125 3.328125 18.109375 8.203125 
L 18.109375 0 
L 9.078125 0 
L 9.078125 75.984375 
L 18.109375 75.984375 
z
" id="DejaVuSans-98"/>
      </defs>
      <use xlink:href="#DejaVuSans-71"/>
      <use x="77.490234" xlink:href="#DejaVuSans-82"/>
      <use x="144.722656" xlink:href="#DejaVuSans-97"/>
      <use x="206.001953" xlink:href="#DejaVuSans-110"/>
      <use x="269.380859" xlink:href="#DejaVuSans-100"/>
      <use x="332.857422" xlink:href="#DejaVuSans-75"/>
      <use x="387.933594" xlink:href="#DejaVuSans-45"/>
      <use x="424.017578" xlink:href="#DejaVuSans-77"/>
      <use x="510.296875" xlink:href="#DejaVuSans-78"/>
      <use x="585.101562" xlink:href="#DejaVuSans-45"/>
      <use x="612.060547" xlink:href="#DejaVuSans-84"/>
      <use x="673.144531" xlink:href="#DejaVuSans-83"/>
      <use x="736.621094" xlink:href="#DejaVuSans-32"/>
      <use x="768.408203" xlink:href="#DejaVuSans-40"/>
      <use x="807.421875" xlink:href="#DejaVuSans-56"/>
      <use x="871.044922" xlink:href="#DejaVuSans-44"/>
      <use x="902.832031" xlink:href="#DejaVuSans-49"/>
      <use x="966.455078" xlink:href="#DejaVuSans-50"/>
      <use x="1030.078125" xlink:href="#DejaVuSans-41"/>
      <use x="1069.091797" xlink:href="#DejaVuSans-32"/>
      <use x="1100.878906" xlink:href="#DejaVuSans-98"/>
      <use x="1164.355469" xlink:href="#DejaVuSans-105"/>
      <use x="1192.138672" xlink:href="#DejaVuSans-116"/>
      <use x="1231.347656" xlink:href="#DejaVuSans-115"/>
     </g>
    </g>
    <g id="line2d_23">
     <path d="M 284.65625 259.704062 
L 304.65625 259.704062 
" style="fill:none;stroke:#2ca02c;stroke-linecap:square;stroke-width:1.5;"/>
    </g>
    <g id="line2d_24"/>
    <g id="text_18">
     <!-- GRandK-MN-TS (6,10) bits -->
     <g transform="translate(312.65625 263.204062)scale(0.1 -0.1)">
      <use xlink:href="#DejaVuSans-71"/>
      <use x="77.490234" xlink:href="#DejaVuSans-82"/>
      <use x="144.722656" xlink:href="#DejaVuSans-97"/>
      <use x="206.001953" xlink:href="#DejaVuSans-110"/>
      <use x="269.380859" xlink:href="#DejaVuSans-100"/>
      <use x="332.857422" xlink:href="#DejaVuSans-75"/>
      <use x="387.933594" xlink:href="#DejaVuSans-45"/>
      <use x="424.017578" xlink:href="#DejaVuSans-77"/>
      <use x="510.296875" xlink:href="#DejaVuSans-78"/>
      <use x="585.101562" xlink:href="#DejaVuSans-45"/>
      <use x="612.060547" xlink:href="#DejaVuSans-84"/>
      <use x="673.144531" xlink:href="#DejaVuSans-83"/>
      <use x="736.621094" xlink:href="#DejaVuSans-32"/>
      <use x="768.408203" xlink:href="#DejaVuSans-40"/>
      <use x="807.421875" xlink:href="#DejaVuSans-54"/>
      <use x="871.044922" xlink:href="#DejaVuSans-44"/>
      <use x="902.832031" xlink:href="#DejaVuSans-49"/>
      <use x="966.455078" xlink:href="#DejaVuSans-48"/>
      <use x="1030.078125" xlink:href="#DejaVuSans-41"/>
      <use x="1069.091797" xlink:href="#DejaVuSans-32"/>
      <use x="1100.878906" xlink:href="#DejaVuSans-98"/>
      <use x="1164.355469" xlink:href="#DejaVuSans-105"/>
      <use x="1192.138672" xlink:href="#DejaVuSans-116"/>
      <use x="1231.347656" xlink:href="#DejaVuSans-115"/>
     </g>
    </g>
    <g id="line2d_25">
     <path d="M 284.65625 274.382187 
L 304.65625 274.382187 
" style="fill:none;stroke:#d62728;stroke-linecap:square;stroke-width:1.5;"/>
    </g>
    <g id="line2d_26"/>
    <g id="text_19">
     <!-- GRandK-MN-TS (4,8) bits -->
     <g transform="translate(312.65625 277.882187)scale(0.1 -0.1)">
      <use xlink:href="#DejaVuSans-71"/>
      <use x="77.490234" xlink:href="#DejaVuSans-82"/>
      <use x="144.722656" xlink:href="#DejaVuSans-97"/>
      <use x="206.001953" xlink:href="#DejaVuSans-110"/>
      <use x="269.380859" xlink:href="#DejaVuSans-100"/>
      <use x="332.857422" xlink:href="#DejaVuSans-75"/>
      <use x="387.933594" xlink:href="#DejaVuSans-45"/>
      <use x="424.017578" xlink:href="#DejaVuSans-77"/>
      <use x="510.296875" xlink:href="#DejaVuSans-78"/>
      <use x="585.101562" xlink:href="#DejaVuSans-45"/>
      <use x="612.060547" xlink:href="#DejaVuSans-84"/>
      <use x="673.144531" xlink:href="#DejaVuSans-83"/>
      <use x="736.621094" xlink:href="#DejaVuSans-32"/>
      <use x="768.408203" xlink:href="#DejaVuSans-40"/>
      <use x="807.421875" xlink:href="#DejaVuSans-52"/>
      <use x="871.044922" xlink:href="#DejaVuSans-44"/>
      <use x="902.832031" xlink:href="#DejaVuSans-56"/>
      <use x="966.455078" xlink:href="#DejaVuSans-41"/>
      <use x="1005.46875" xlink:href="#DejaVuSans-32"/>
      <use x="1037.255859" xlink:href="#DejaVuSans-98"/>
      <use x="1100.732422" xlink:href="#DejaVuSans-105"/>
      <use x="1128.515625" xlink:href="#DejaVuSans-116"/>
      <use x="1167.724609" xlink:href="#DejaVuSans-115"/>
     </g>
    </g>
    <g id="line2d_27">
     <path d="M 284.65625 289.060312 
L 304.65625 289.060312 
" style="fill:none;stroke:#9467bd;stroke-linecap:square;stroke-width:1.5;"/>
    </g>
    <g id="line2d_28"/>
    <g id="text_20">
     <!-- GRandK-MN-TS (2,6) bits -->
     <g transform="translate(312.65625 292.560312)scale(0.1 -0.1)">
      <use xlink:href="#DejaVuSans-71"/>
      <use x="77.490234" xlink:href="#DejaVuSans-82"/>
      <use x="144.722656" xlink:href="#DejaVuSans-97"/>
      <use x="206.001953" xlink:href="#DejaVuSans-110"/>
      <use x="269.380859" xlink:href="#DejaVuSans-100"/>
      <use x="332.857422" xlink:href="#DejaVuSans-75"/>
      <use x="387.933594" xlink:href="#DejaVuSans-45"/>
      <use x="424.017578" xlink:href="#DejaVuSans-77"/>
      <use x="510.296875" xlink:href="#DejaVuSans-78"/>
      <use x="585.101562" xlink:href="#DejaVuSans-45"/>
      <use x="612.060547" xlink:href="#DejaVuSans-84"/>
      <use x="673.144531" xlink:href="#DejaVuSans-83"/>
      <use x="736.621094" xlink:href="#DejaVuSans-32"/>
      <use x="768.408203" xlink:href="#DejaVuSans-40"/>
      <use x="807.421875" xlink:href="#DejaVuSans-50"/>
      <use x="871.044922" xlink:href="#DejaVuSans-44"/>
      <use x="902.832031" xlink:href="#DejaVuSans-54"/>
      <use x="966.455078" xlink:href="#DejaVuSans-41"/>
      <use x="1005.46875" xlink:href="#DejaVuSans-32"/>
      <use x="1037.255859" xlink:href="#DejaVuSans-98"/>
      <use x="1100.732422" xlink:href="#DejaVuSans-105"/>
      <use x="1128.515625" xlink:href="#DejaVuSans-116"/>
      <use x="1167.724609" xlink:href="#DejaVuSans-115"/>
     </g>
    </g>
   </g>
  </g>
 </g>
 <defs>
  <clipPath id="paed18a2e4f">
   <rect height="292.84" width="405.43" x="44.57" y="10.8"/>
  </clipPath>
 </defs>
</svg>
