<?xml version="1.0" encoding="utf-8" standalone="no"?>
<!DOCTYPE svg PUBLIC "-//W3C//DTD SVG 1.1//EN"
  "http://www.w3.org/Graphics/SVG/1.1/DTD/svg11.dtd">
<!-- Created with matplotlib (https://matplotlib.org/) -->
<svg height="345.6pt" version="1.1" viewBox="0 0 460.8 345.6" width="460.8pt" xmlns="http://www.w3.org/2000/svg" xmlns:xlink="http://www.w3.org/1999/xlink">
 <metadata>
  <rdf:RDF xmlns:cc="http://creativecommons.org/ns#" xmlns:dc="http://purl.org/dc/elements/1.1/" xmlns:rdf="http://www.w3.org/1999/02/22-rdf-syntax-ns#">
   <cc:Work>
    <dc:type rdf:resource="http://purl.org/dc/dcmitype/StillImage"/>
    <dc:date>2021-06-10T08:56:49.927028</dc:date>
    <dc:format>image/svg+xml</dc:format>
    <dc:creator>
     <cc:Agent>
      <dc:title>Matplotlib v3.3.1, https://matplotlib.org/</dc:title>
     </cc:Agent>
    </dc:creator>
   </cc:Work>
  </rdf:RDF>
 </metadata>
 <defs>
  <style type="text/css">*{stroke-linecap:butt;stroke-linejoin:round;}</style>
 </defs>
 <g id="figure_1">
  <g id="patch_1">
   <path d="M 0 345.6 
L 460.8 345.6 
L 460.8 0 
L 0 0 
z
" style="fill:#ffffff;"/>
  </g>
  <g id="axes_1">
   <g id="patch_2">
    <path d="M 44.57 303.64 
L 450 303.64 
L 450 10.8 
L 44.57 10.8 
z
" style="fill:#ffffff;"/>
   </g>
   <g id="PolyCollection_1">
    <path clip-path="url(#p745f1d2282)" d="M 62.998636 272.455795 
L 62.998636 280.434613 
L 65.472279 266.805511 
L 67.945921 250.528356 
L 70.419564 240.01178 
L 72.893206 210.61694 
L 75.366849 171.396959 
L 77.840491 130.824146 
L 80.314134 122.57906 
L 82.787776 119.328099 
L 85.261419 90.93835 
L 87.735061 84.94247 
L 90.208703 96.018119 
L 92.682346 88.090777 
L 95.155988 81.840229 
L 97.629631 81.720967 
L 100.103273 68.40261 
L 102.576916 73.297505 
L 105.050558 67.381984 
L 107.524201 55.616856 
L 109.997843 74.371826 
L 112.471486 62.043481 
L 114.945128 65.653416 
L 117.418771 69.070601 
L 119.892413 71.490511 
L 122.366056 70.15096 
L 124.839698 59.736584 
L 127.31334 64.882198 
L 129.786983 59.714072 
L 132.260625 64.553345 
L 134.734268 54.089071 
L 137.20791 60.641109 
L 139.681553 60.76934 
L 142.155195 58.923713 
L 144.628838 58.07585 
L 147.10248 56.757822 
L 149.576123 60.885056 
L 152.049765 67.086854 
L 154.523408 68.271164 
L 156.99705 53.364395 
L 159.470692 66.137543 
L 161.944335 53.111847 
L 164.417977 50.805005 
L 166.89162 54.124418 
L 169.365262 54.294273 
L 171.838905 53.921229 
L 174.312547 51.501082 
L 176.78619 49.654209 
L 179.259832 53.737052 
L 181.733475 57.279289 
L 184.207117 53.501087 
L 186.68076 55.096128 
L 189.154402 57.788933 
L 191.628045 56.24804 
L 194.101687 55.376409 
L 196.575329 52.050393 
L 199.048972 48.320425 
L 201.522614 57.985639 
L 203.996257 63.79653 
L 206.469899 54.410504 
L 208.943542 43.230558 
L 211.417184 55.076723 
L 213.890827 51.267204 
L 216.364469 47.275991 
L 218.838112 48.437124 
L 221.311754 54.536253 
L 223.785397 56.352153 
L 226.259039 43.242796 
L 228.732682 52.594327 
L 231.206324 53.061665 
L 233.679966 46.520436 
L 236.153609 49.946538 
L 238.627251 51.659217 
L 241.100894 47.04179 
L 243.574536 50.988523 
L 246.048179 46.850937 
L 248.521821 49.675593 
L 250.995464 48.670727 
L 253.469106 45.813486 
L 255.942749 44.939841 
L 258.416391 44.792795 
L 260.890034 43.721724 
L 263.363676 43.155273 
L 265.837318 45.949355 
L 268.310961 46.97961 
L 270.784603 43.543035 
L 273.258246 49.181494 
L 275.731888 41.934168 
L 278.205531 42.826322 
L 280.679173 40.312443 
L 283.152816 43.049062 
L 285.626458 42.149014 
L 288.100101 47.245408 
L 290.573743 40.807247 
L 293.047386 44.515697 
L 295.521028 38.008489 
L 297.994671 39.406873 
L 300.468313 40.695405 
L 302.941955 38.645357 
L 305.415598 41.331438 
L 307.88924 39.181782 
L 310.362883 41.941718 
L 312.836525 38.719664 
L 315.310168 39.44135 
L 317.78381 36.10074 
L 320.257453 44.932744 
L 322.731095 38.174265 
L 325.204738 35.323256 
L 327.67838 36.789564 
L 330.152023 36.749176 
L 332.625665 34.509939 
L 335.099308 36.234829 
L 337.57295 37.954586 
L 340.046592 36.746523 
L 342.520235 35.784235 
L 344.993877 34.947401 
L 347.46752 37.748905 
L 349.941162 34.279891 
L 352.414805 33.655808 
L 354.888447 34.714544 
L 357.36209 33.598177 
L 359.835732 32.723081 
L 362.309375 33.477904 
L 364.783017 32.216369 
L 367.25666 30.577686 
L 369.730302 32.881424 
L 372.203944 32.822495 
L 374.677587 32.306301 
L 377.151229 33.662593 
L 379.624872 30.586751 
L 382.098514 30.572591 
L 384.572157 29.79513 
L 387.045799 30.644347 
L 389.519442 30.870009 
L 391.993084 30.774339 
L 394.466727 30.943449 
L 396.940369 31.403992 
L 399.414012 30.024578 
L 401.887654 31.162571 
L 404.361297 29.585324 
L 406.834939 31.295845 
L 409.308581 31.440189 
L 411.782224 31.068734 
L 414.255866 30.849736 
L 416.729509 29.699298 
L 419.203151 30.766161 
L 421.676794 30.705805 
L 424.150436 31.296585 
L 426.624079 30.46533 
L 429.097721 30.470997 
L 431.571364 30.588178 
L 431.571364 24.272534 
L 431.571364 24.272534 
L 429.097721 24.451391 
L 426.624079 24.395382 
L 424.150436 24.427584 
L 421.676794 24.833338 
L 419.203151 24.156227 
L 416.729509 24.976388 
L 414.255866 25.05946 
L 411.782224 25.087164 
L 409.308581 25.270789 
L 406.834939 26.340265 
L 404.361297 25.707117 
L 401.887654 25.548406 
L 399.414012 26.563049 
L 396.940369 26.047092 
L 394.466727 27.001038 
L 391.993084 26.676745 
L 389.519442 27.999612 
L 387.045799 25.511551 
L 384.572157 28.827788 
L 382.098514 27.618599 
L 379.624872 28.837949 
L 377.151229 28.290802 
L 374.677587 26.193266 
L 372.203944 28.144092 
L 369.730302 30.120455 
L 367.25666 28.045232 
L 364.783017 26.653252 
L 362.309375 30.634134 
L 359.835732 28.551884 
L 357.36209 30.082132 
L 354.888447 28.102309 
L 352.414805 30.887959 
L 349.941162 31.065657 
L 347.46752 30.372041 
L 344.993877 30.953227 
L 342.520235 30.054717 
L 340.046592 32.23788 
L 337.57295 30.16636 
L 335.099308 30.590931 
L 332.625665 31.329013 
L 330.152023 31.186743 
L 327.67838 32.009812 
L 325.204738 31.070776 
L 322.731095 31.858621 
L 320.257453 33.426336 
L 317.78381 32.081882 
L 315.310168 32.565153 
L 312.836525 34.828726 
L 310.362883 30.804891 
L 307.88924 32.392992 
L 305.415598 33.018733 
L 302.941955 35.211411 
L 300.468313 32.79131 
L 297.994671 35.498378 
L 295.521028 34.368067 
L 293.047386 33.658356 
L 290.573743 37.120104 
L 288.100101 36.787818 
L 285.626458 37.936979 
L 283.152816 33.398077 
L 280.679173 36.443073 
L 278.205531 38.739884 
L 275.731888 36.918315 
L 273.258246 37.873832 
L 270.784603 38.454899 
L 268.310961 36.868589 
L 265.837318 40.057488 
L 263.363676 37.054072 
L 260.890034 39.818098 
L 258.416391 41.152372 
L 255.942749 40.758624 
L 253.469106 35.629368 
L 250.995464 43.812043 
L 248.521821 36.948004 
L 246.048179 40.389416 
L 243.574536 41.8643 
L 241.100894 40.136887 
L 238.627251 40.885228 
L 236.153609 42.536232 
L 233.679966 40.226512 
L 231.206324 45.095252 
L 228.732682 39.580065 
L 226.259039 40.91378 
L 223.785397 42.853247 
L 221.311754 42.818881 
L 218.838112 34.300916 
L 216.364469 41.259547 
L 213.890827 47.383116 
L 211.417184 44.005326 
L 208.943542 39.507482 
L 206.469899 44.856572 
L 203.996257 50.642719 
L 201.522614 46.03045 
L 199.048972 40.646842 
L 196.575329 49.560352 
L 194.101687 43.767316 
L 191.628045 45.301029 
L 189.154402 44.80862 
L 186.68076 45.157756 
L 184.207117 44.594154 
L 181.733475 43.097946 
L 179.259832 43.741434 
L 176.78619 44.987203 
L 174.312547 43.448708 
L 171.838905 46.27098 
L 169.365262 43.060862 
L 166.89162 47.97973 
L 164.417977 45.624997 
L 161.944335 47.882143 
L 159.470692 53.852501 
L 156.99705 44.052415 
L 154.523408 46.66149 
L 152.049765 57.03545 
L 149.576123 54.417651 
L 147.10248 44.297843 
L 144.628838 46.248617 
L 142.155195 48.114476 
L 139.681553 46.3922 
L 137.20791 47.383888 
L 134.734268 49.988694 
L 132.260625 53.648111 
L 129.786983 53.86172 
L 127.31334 55.107847 
L 124.839698 52.050619 
L 122.366056 56.315013 
L 119.892413 52.323415 
L 117.418771 58.505531 
L 114.945128 47.860701 
L 112.471486 50.113774 
L 109.997843 58.940127 
L 107.524201 49.632743 
L 105.050558 50.264392 
L 102.576916 59.952773 
L 100.103273 54.301157 
L 97.629631 61.705769 
L 95.155988 68.679191 
L 92.682346 66.190848 
L 90.208703 71.215362 
L 87.735061 71.991202 
L 85.261419 73.889786 
L 82.787776 95.580547 
L 80.314134 107.871812 
L 77.840491 118.37608 
L 75.366849 134.298029 
L 72.893206 183.119831 
L 70.419564 211.237398 
L 67.945921 229.122391 
L 65.472279 244.392256 
L 62.998636 272.455795 
z
" style="fill:#1f77b4;fill-opacity:0.25;"/>
   </g>
   <g id="PolyCollection_2">
    <path clip-path="url(#p745f1d2282)" d="M 62.998636 287.861403 
L 62.998636 288.465697 
L 65.472279 290.329091 
L 67.945921 273.550241 
L 70.419564 267.548835 
L 72.893206 254.380228 
L 75.366849 247.246499 
L 77.840491 221.053577 
L 80.314134 205.400839 
L 82.787776 181.020792 
L 85.261419 168.061779 
L 87.735061 161.631053 
L 90.208703 135.321207 
L 92.682346 107.521193 
L 95.155988 116.778933 
L 97.629631 117.398742 
L 100.103273 123.004883 
L 102.576916 113.409035 
L 105.050558 88.214614 
L 107.524201 85.265805 
L 109.997843 92.349676 
L 112.471486 98.923385 
L 114.945128 94.960538 
L 117.418771 86.889678 
L 119.892413 86.242882 
L 122.366056 96.422678 
L 124.839698 86.125884 
L 127.31334 93.309971 
L 129.786983 86.159893 
L 132.260625 75.859171 
L 134.734268 85.895883 
L 137.20791 72.687439 
L 139.681553 78.937834 
L 142.155195 75.590542 
L 144.628838 76.548903 
L 147.10248 73.738975 
L 149.576123 76.825421 
L 152.049765 75.160519 
L 154.523408 94.144416 
L 156.99705 78.68937 
L 159.470692 76.214693 
L 161.944335 66.527376 
L 164.417977 64.211103 
L 166.89162 79.119885 
L 169.365262 78.132 
L 171.838905 71.656635 
L 174.312547 76.753075 
L 176.78619 78.09035 
L 179.259832 69.809348 
L 181.733475 64.846072 
L 184.207117 63.032901 
L 186.68076 59.990165 
L 189.154402 72.413379 
L 191.628045 66.524243 
L 194.101687 61.054689 
L 196.575329 70.728599 
L 199.048972 62.805643 
L 201.522614 62.144803 
L 203.996257 58.79177 
L 206.469899 61.276722 
L 208.943542 62.394678 
L 211.417184 56.57639 
L 213.890827 58.423226 
L 216.364469 56.222973 
L 218.838112 64.197693 
L 221.311754 59.420707 
L 223.785397 57.508449 
L 226.259039 54.735102 
L 228.732682 60.320545 
L 231.206324 56.513485 
L 233.679966 57.121349 
L 236.153609 57.913687 
L 238.627251 56.549417 
L 241.100894 60.314654 
L 243.574536 54.175843 
L 246.048179 50.090591 
L 248.521821 50.901183 
L 250.995464 52.101842 
L 253.469106 56.217739 
L 255.942749 51.105663 
L 258.416391 51.626962 
L 260.890034 49.684745 
L 263.363676 55.428368 
L 265.837318 45.479492 
L 268.310961 53.214197 
L 270.784603 53.093179 
L 273.258246 47.451108 
L 275.731888 51.517722 
L 278.205531 46.696819 
L 280.679173 48.714514 
L 283.152816 46.673509 
L 285.626458 47.148489 
L 288.100101 48.310552 
L 290.573743 44.785717 
L 293.047386 47.460169 
L 295.521028 44.888955 
L 297.994671 43.780692 
L 300.468313 47.455716 
L 302.941955 41.162641 
L 305.415598 44.81072 
L 307.88924 42.584922 
L 310.362883 41.937038 
L 312.836525 41.984747 
L 315.310168 44.208227 
L 317.78381 40.358779 
L 320.257453 42.676859 
L 322.731095 44.639008 
L 325.204738 44.695032 
L 327.67838 39.213931 
L 330.152023 41.502293 
L 332.625665 43.931234 
L 335.099308 40.23933 
L 337.57295 41.107511 
L 340.046592 38.851976 
L 342.520235 40.934811 
L 344.993877 39.557286 
L 347.46752 39.424073 
L 349.941162 37.37204 
L 352.414805 35.600382 
L 354.888447 35.933852 
L 357.36209 36.635383 
L 359.835732 36.343468 
L 362.309375 32.189843 
L 364.783017 34.511534 
L 367.25666 35.569941 
L 369.730302 32.885883 
L 372.203944 33.193059 
L 374.677587 31.82811 
L 377.151229 33.260852 
L 379.624872 35.152174 
L 382.098514 34.040625 
L 384.572157 31.114912 
L 387.045799 31.734165 
L 389.519442 33.945142 
L 391.993084 31.832923 
L 394.466727 32.714347 
L 396.940369 32.352479 
L 399.414012 31.769193 
L 401.887654 31.658044 
L 404.361297 32.010594 
L 406.834939 31.356902 
L 409.308581 30.660433 
L 411.782224 31.930532 
L 414.255866 31.236347 
L 416.729509 31.985807 
L 419.203151 30.434713 
L 421.676794 31.431971 
L 424.150436 30.84781 
L 426.624079 30.420394 
L 429.097721 30.62199 
L 431.571364 30.852113 
L 431.571364 27.770806 
L 431.571364 27.770806 
L 429.097721 27.384173 
L 426.624079 26.537286 
L 424.150436 27.590082 
L 421.676794 27.005921 
L 419.203151 27.879828 
L 416.729509 27.315542 
L 414.255866 28.065002 
L 411.782224 27.925896 
L 409.308581 27.654108 
L 406.834939 28.067798 
L 404.361297 27.722483 
L 401.887654 27.088226 
L 399.414012 29.320745 
L 396.940369 28.614109 
L 394.466727 27.388783 
L 391.993084 26.975022 
L 389.519442 28.008254 
L 387.045799 27.937237 
L 384.572157 27.261304 
L 382.098514 28.837903 
L 379.624872 30.070023 
L 377.151229 26.657252 
L 374.677587 29.076802 
L 372.203944 28.390283 
L 369.730302 29.437566 
L 367.25666 30.762415 
L 364.783017 28.737047 
L 362.309375 29.455175 
L 359.835732 31.592452 
L 357.36209 31.053835 
L 354.888447 31.755365 
L 352.414805 33.198994 
L 349.941162 31.859065 
L 347.46752 31.533946 
L 344.993877 35.841369 
L 342.520235 32.120175 
L 340.046592 32.229394 
L 337.57295 35.277952 
L 335.099308 36.022782 
L 332.625665 38.251727 
L 330.152023 37.658568 
L 327.67838 36.80148 
L 325.204738 35.329286 
L 322.731095 36.61882 
L 320.257453 37.779187 
L 317.78381 33.929718 
L 315.310168 40.195052 
L 312.836525 36.436008 
L 310.362883 34.941829 
L 307.88924 35.527455 
L 305.415598 39.099155 
L 302.941955 36.641359 
L 300.468313 41.326524 
L 297.994671 36.860381 
L 295.521028 40.377781 
L 293.047386 42.308879 
L 290.573743 41.467827 
L 288.100101 39.854933 
L 285.626458 39.04338 
L 283.152816 41.862029 
L 280.679173 44.816739 
L 278.205531 43.503957 
L 275.731888 48.119407 
L 273.258246 44.476583 
L 270.784603 46.543949 
L 268.310961 45.559474 
L 265.837318 41.267457 
L 263.363676 47.23086 
L 260.890034 42.427972 
L 258.416391 44.309637 
L 255.942749 44.645909 
L 253.469106 45.763059 
L 250.995464 47.658637 
L 248.521821 49.167674 
L 246.048179 44.920874 
L 243.574536 45.337935 
L 241.100894 48.388774 
L 238.627251 46.479864 
L 236.153609 50.11131 
L 233.679966 46.89474 
L 231.206324 48.304385 
L 228.732682 50.541525 
L 226.259039 48.232503 
L 223.785397 51.935085 
L 221.311754 50.39288 
L 218.838112 48.514642 
L 216.364469 47.731441 
L 213.890827 53.302302 
L 211.417184 53.298872 
L 208.943542 47.357234 
L 206.469899 50.572157 
L 203.996257 50.590088 
L 201.522614 52.602824 
L 199.048972 55.210786 
L 196.575329 59.067851 
L 194.101687 56.96174 
L 191.628045 56.549577 
L 189.154402 57.93815 
L 186.68076 53.338926 
L 184.207117 53.133262 
L 181.733475 52.553601 
L 179.259832 54.312956 
L 176.78619 64.349579 
L 174.312547 59.025899 
L 171.838905 65.109147 
L 169.365262 56.413464 
L 166.89162 65.170309 
L 164.417977 56.889101 
L 161.944335 60.555352 
L 159.470692 60.797791 
L 156.99705 61.715267 
L 154.523408 63.467687 
L 152.049765 70.609887 
L 149.576123 68.019852 
L 147.10248 59.511304 
L 144.628838 57.19478 
L 142.155195 65.615876 
L 139.681553 65.845764 
L 137.20791 64.263369 
L 134.734268 69.557577 
L 132.260625 63.558657 
L 129.786983 70.095348 
L 127.31334 70.77806 
L 124.839698 68.58747 
L 122.366056 80.432181 
L 119.892413 73.897917 
L 117.418771 74.237928 
L 114.945128 81.215892 
L 112.471486 82.063734 
L 109.997843 82.593243 
L 107.524201 74.874993 
L 105.050558 77.291953 
L 102.576916 93.605147 
L 100.103273 86.476319 
L 97.629631 96.954824 
L 95.155988 109.231303 
L 92.682346 96.532564 
L 90.208703 119.306464 
L 87.735061 140.425081 
L 85.261419 152.466167 
L 82.787776 174.939731 
L 80.314134 192.314001 
L 77.840491 211.41541 
L 75.366849 234.347027 
L 72.893206 238.052767 
L 70.419564 256.477438 
L 67.945921 266.511663 
L 65.472279 282.050777 
L 62.998636 287.861403 
z
" style="fill:#ff7f0e;fill-opacity:0.25;"/>
   </g>
   <g id="PolyCollection_3">
    <path clip-path="url(#p745f1d2282)" d="M 62.998636 286.855743 
L 62.998636 288.977954 
L 65.472279 289.366083 
L 67.945921 270.321339 
L 70.419564 259.838807 
L 72.893206 257.748049 
L 75.366849 243.152594 
L 77.840491 219.083901 
L 80.314134 200.036997 
L 82.787776 193.503784 
L 85.261419 155.091199 
L 87.735061 138.71681 
L 90.208703 142.404148 
L 92.682346 109.243134 
L 95.155988 112.641399 
L 97.629631 99.566464 
L 100.103273 117.588199 
L 102.576916 116.517225 
L 105.050558 86.260753 
L 107.524201 84.887931 
L 109.997843 84.471203 
L 112.471486 87.468801 
L 114.945128 92.595966 
L 117.418771 99.053502 
L 119.892413 89.629046 
L 122.366056 95.352297 
L 124.839698 93.908695 
L 127.31334 80.95675 
L 129.786983 85.596913 
L 132.260625 77.791006 
L 134.734268 80.964694 
L 137.20791 79.224234 
L 139.681553 78.354897 
L 142.155195 74.927211 
L 144.628838 77.253195 
L 147.10248 75.022139 
L 149.576123 74.576229 
L 152.049765 92.373551 
L 154.523408 91.405599 
L 156.99705 78.51536 
L 159.470692 76.066041 
L 161.944335 61.018364 
L 164.417977 67.845786 
L 166.89162 73.811704 
L 169.365262 69.234514 
L 171.838905 73.620709 
L 174.312547 66.882103 
L 176.78619 69.427212 
L 179.259832 64.58574 
L 181.733475 67.050408 
L 184.207117 61.44695 
L 186.68076 56.825619 
L 189.154402 61.013389 
L 191.628045 69.946132 
L 194.101687 67.334407 
L 196.575329 67.640197 
L 199.048972 63.861541 
L 201.522614 60.785948 
L 203.996257 60.285194 
L 206.469899 61.964081 
L 208.943542 54.816482 
L 211.417184 65.348072 
L 213.890827 62.255148 
L 216.364469 55.092324 
L 218.838112 59.420327 
L 221.311754 57.733163 
L 223.785397 52.373919 
L 226.259039 55.89816 
L 228.732682 60.713625 
L 231.206324 58.56586 
L 233.679966 58.731676 
L 236.153609 54.858246 
L 238.627251 57.985036 
L 241.100894 57.16345 
L 243.574536 60.596483 
L 246.048179 47.629913 
L 248.521821 51.060113 
L 250.995464 55.579714 
L 253.469106 51.810438 
L 255.942749 55.986837 
L 258.416391 52.514645 
L 260.890034 50.126241 
L 263.363676 52.017281 
L 265.837318 50.325034 
L 268.310961 49.515649 
L 270.784603 51.117377 
L 273.258246 52.730263 
L 275.731888 49.631735 
L 278.205531 52.668607 
L 280.679173 45.866743 
L 283.152816 50.985668 
L 285.626458 50.375155 
L 288.100101 45.573856 
L 290.573743 42.851208 
L 293.047386 50.99977 
L 295.521028 44.794579 
L 297.994671 45.02915 
L 300.468313 44.216804 
L 302.941955 42.178495 
L 305.415598 47.116674 
L 307.88924 45.163004 
L 310.362883 42.533954 
L 312.836525 45.08928 
L 315.310168 39.510431 
L 317.78381 43.882743 
L 320.257453 43.441546 
L 322.731095 39.377606 
L 325.204738 42.121578 
L 327.67838 40.381946 
L 330.152023 41.159079 
L 332.625665 40.51433 
L 335.099308 44.718677 
L 337.57295 41.268294 
L 340.046592 40.593755 
L 342.520235 38.055589 
L 344.993877 39.165046 
L 347.46752 40.06311 
L 349.941162 40.289072 
L 352.414805 38.636866 
L 354.888447 37.345403 
L 357.36209 35.510345 
L 359.835732 36.974026 
L 362.309375 35.603584 
L 364.783017 37.146224 
L 367.25666 34.116624 
L 369.730302 37.035263 
L 372.203944 34.198418 
L 374.677587 31.707882 
L 377.151229 35.525219 
L 379.624872 31.918846 
L 382.098514 31.082124 
L 384.572157 32.892631 
L 387.045799 34.577837 
L 389.519442 32.819936 
L 391.993084 31.931382 
L 394.466727 33.059368 
L 396.940369 32.511694 
L 399.414012 32.460193 
L 401.887654 32.892233 
L 404.361297 32.31607 
L 406.834939 31.333826 
L 409.308581 30.945362 
L 411.782224 30.614328 
L 414.255866 30.769556 
L 416.729509 31.203506 
L 419.203151 31.036861 
L 421.676794 31.473768 
L 424.150436 31.727533 
L 426.624079 31.290747 
L 429.097721 30.691668 
L 431.571364 31.979545 
L 431.571364 29.29542 
L 431.571364 29.29542 
L 429.097721 28.794707 
L 426.624079 27.7639 
L 424.150436 28.437273 
L 421.676794 28.876065 
L 419.203151 27.894435 
L 416.729509 29.454704 
L 414.255866 29.888654 
L 411.782224 28.378644 
L 409.308581 29.034417 
L 406.834939 29.139357 
L 404.361297 28.527166 
L 401.887654 29.184514 
L 399.414012 28.691421 
L 396.940369 28.516569 
L 394.466727 29.880835 
L 391.993084 30.453742 
L 389.519442 30.120267 
L 387.045799 28.362366 
L 384.572157 29.554168 
L 382.098514 28.712629 
L 379.624872 28.492662 
L 377.151229 30.437084 
L 374.677587 27.346765 
L 372.203944 29.296865 
L 369.730302 31.394061 
L 367.25666 32.400759 
L 364.783017 32.331583 
L 362.309375 31.71558 
L 359.835732 33.490589 
L 357.36209 31.685469 
L 354.888447 32.317431 
L 352.414805 35.404928 
L 349.941162 32.704239 
L 347.46752 34.842141 
L 344.993877 35.308477 
L 342.520235 35.862854 
L 340.046592 35.976735 
L 337.57295 35.487223 
L 335.099308 38.204389 
L 332.625665 35.624431 
L 330.152023 36.336544 
L 327.67838 33.228119 
L 325.204738 36.915932 
L 322.731095 36.082725 
L 320.257453 41.948541 
L 317.78381 35.894873 
L 315.310168 36.319953 
L 312.836525 38.080489 
L 310.362883 34.961669 
L 307.88924 35.046341 
L 305.415598 39.630274 
L 302.941955 38.462578 
L 300.468313 39.323017 
L 297.994671 39.867533 
L 295.521028 41.088912 
L 293.047386 42.161431 
L 290.573743 38.036567 
L 288.100101 39.631204 
L 285.626458 37.790329 
L 283.152816 41.743804 
L 280.679173 41.311933 
L 278.205531 44.809879 
L 275.731888 44.886327 
L 273.258246 41.849474 
L 270.784603 40.625287 
L 268.310961 39.759995 
L 265.837318 43.761299 
L 263.363676 46.448013 
L 260.890034 44.700198 
L 258.416391 43.853682 
L 255.942749 48.090927 
L 253.469106 46.531505 
L 250.995464 46.956164 
L 248.521821 46.911777 
L 246.048179 41.892433 
L 243.574536 47.243487 
L 241.100894 51.971706 
L 238.627251 43.379006 
L 236.153609 49.774598 
L 233.679966 49.231646 
L 231.206324 51.864482 
L 228.732682 52.55379 
L 226.259039 47.131122 
L 223.785397 46.461428 
L 221.311754 53.745662 
L 218.838112 53.477035 
L 216.364469 45.654964 
L 213.890827 52.492479 
L 211.417184 60.501146 
L 208.943542 48.33615 
L 206.469899 51.118307 
L 203.996257 48.603261 
L 201.522614 52.913196 
L 199.048972 54.339914 
L 196.575329 58.455723 
L 194.101687 57.342976 
L 191.628045 54.916278 
L 189.154402 54.412669 
L 186.68076 55.023259 
L 184.207117 51.388736 
L 181.733475 54.5432 
L 179.259832 54.170795 
L 176.78619 57.778866 
L 174.312547 60.940731 
L 171.838905 59.567894 
L 169.365262 63.460685 
L 166.89162 63.385807 
L 164.417977 56.029815 
L 161.944335 56.504661 
L 159.470692 62.056602 
L 156.99705 68.550232 
L 154.523408 71.88065 
L 152.049765 70.974373 
L 149.576123 67.802024 
L 147.10248 61.681968 
L 144.628838 61.917931 
L 142.155195 65.292399 
L 139.681553 65.010164 
L 137.20791 67.162927 
L 134.734268 65.79252 
L 132.260625 67.547672 
L 129.786983 63.688996 
L 127.31334 70.549477 
L 124.839698 67.280586 
L 122.366056 72.127886 
L 119.892413 80.626535 
L 117.418771 79.096544 
L 114.945128 82.100252 
L 112.471486 71.376812 
L 109.997843 81.837146 
L 107.524201 80.43361 
L 105.050558 72.893237 
L 102.576916 88.52334 
L 100.103273 106.263394 
L 97.629631 83.147569 
L 95.155988 102.575624 
L 92.682346 96.352511 
L 90.208703 98.469885 
L 87.735061 119.549715 
L 85.261419 129.572442 
L 82.787776 166.959052 
L 80.314134 173.007641 
L 77.840491 199.353908 
L 75.366849 226.861356 
L 72.893206 242.826113 
L 70.419564 254.072683 
L 67.945921 265.053226 
L 65.472279 282.52038 
L 62.998636 286.855743 
z
" style="fill:#2ca02c;fill-opacity:0.25;"/>
   </g>
   <g id="PolyCollection_4">
    <path clip-path="url(#p745f1d2282)" d="M 62.998636 288.299362 
L 62.998636 289.50795 
L 65.472279 288.352362 
L 67.945921 268.346456 
L 70.419564 262.077099 
L 72.893206 247.822665 
L 75.366849 242.006683 
L 77.840491 216.421544 
L 80.314134 203.673628 
L 82.787776 186.245454 
L 85.261419 166.961005 
L 87.735061 147.511429 
L 90.208703 136.915875 
L 92.682346 126.934692 
L 95.155988 117.553656 
L 97.629631 109.123812 
L 100.103273 111.999856 
L 102.576916 123.309719 
L 105.050558 90.410448 
L 107.524201 88.577512 
L 109.997843 89.998066 
L 112.471486 91.074456 
L 114.945128 95.871633 
L 117.418771 96.323285 
L 119.892413 100.134462 
L 122.366056 95.640064 
L 124.839698 88.402924 
L 127.31334 87.902798 
L 129.786983 85.592863 
L 132.260625 73.505626 
L 134.734268 83.07159 
L 137.20791 86.998225 
L 139.681553 81.556019 
L 142.155195 74.575842 
L 144.628838 76.586812 
L 147.10248 79.225502 
L 149.576123 75.818951 
L 152.049765 82.41023 
L 154.523408 85.249572 
L 156.99705 72.839148 
L 159.470692 78.625113 
L 161.944335 65.921676 
L 164.417977 69.036191 
L 166.89162 71.336534 
L 169.365262 68.061017 
L 171.838905 73.7287 
L 174.312547 87.632859 
L 176.78619 73.957848 
L 179.259832 68.788271 
L 181.733475 57.287745 
L 184.207117 62.201015 
L 186.68076 68.805363 
L 189.154402 66.011758 
L 191.628045 68.02893 
L 194.101687 66.568752 
L 196.575329 65.235768 
L 199.048972 59.928518 
L 201.522614 69.827921 
L 203.996257 58.559473 
L 206.469899 55.678584 
L 208.943542 60.908263 
L 211.417184 68.314452 
L 213.890827 64.234325 
L 216.364469 63.804122 
L 218.838112 59.957733 
L 221.311754 61.607353 
L 223.785397 53.914953 
L 226.259039 55.370623 
L 228.732682 59.973427 
L 231.206324 59.621003 
L 233.679966 54.850632 
L 236.153609 50.577581 
L 238.627251 59.940678 
L 241.100894 56.165757 
L 243.574536 55.500761 
L 246.048179 52.784411 
L 248.521821 62.887676 
L 250.995464 52.97129 
L 253.469106 52.926667 
L 255.942749 51.912235 
L 258.416391 52.140067 
L 260.890034 48.127111 
L 263.363676 53.169319 
L 265.837318 51.862729 
L 268.310961 48.125015 
L 270.784603 52.766252 
L 273.258246 52.713567 
L 275.731888 51.888077 
L 278.205531 47.01915 
L 280.679173 46.080825 
L 283.152816 47.503934 
L 285.626458 44.472996 
L 288.100101 44.594528 
L 290.573743 48.595937 
L 293.047386 47.64829 
L 295.521028 45.522743 
L 297.994671 47.424699 
L 300.468313 46.842166 
L 302.941955 44.854971 
L 305.415598 46.488932 
L 307.88924 46.09622 
L 310.362883 43.113996 
L 312.836525 43.00287 
L 315.310168 45.507716 
L 317.78381 41.506021 
L 320.257453 44.579542 
L 322.731095 42.740486 
L 325.204738 40.925351 
L 327.67838 37.806192 
L 330.152023 41.790222 
L 332.625665 43.352942 
L 335.099308 41.390962 
L 337.57295 39.837482 
L 340.046592 39.725905 
L 342.520235 40.789444 
L 344.993877 37.337943 
L 347.46752 37.574901 
L 349.941162 37.32295 
L 352.414805 35.55419 
L 354.888447 36.452338 
L 357.36209 32.081448 
L 359.835732 34.705666 
L 362.309375 34.348485 
L 364.783017 33.381372 
L 367.25666 34.339319 
L 369.730302 32.864699 
L 372.203944 33.239618 
L 374.677587 32.972394 
L 377.151229 33.616529 
L 379.624872 34.752282 
L 382.098514 31.925649 
L 384.572157 32.457938 
L 387.045799 33.710638 
L 389.519442 32.264443 
L 391.993084 30.10781 
L 394.466727 31.078042 
L 396.940369 30.38595 
L 399.414012 30.094797 
L 401.887654 29.974359 
L 404.361297 28.903673 
L 406.834939 30.026112 
L 409.308581 29.692709 
L 411.782224 29.977845 
L 414.255866 29.609219 
L 416.729509 30.361734 
L 419.203151 28.889716 
L 421.676794 28.693418 
L 424.150436 29.009836 
L 426.624079 29.810248 
L 429.097721 29.770296 
L 431.571364 29.316294 
L 431.571364 27.147981 
L 431.571364 27.147981 
L 429.097721 27.989165 
L 426.624079 27.332458 
L 424.150436 27.454439 
L 421.676794 27.215778 
L 419.203151 27.451209 
L 416.729509 27.706104 
L 414.255866 26.485003 
L 411.782224 27.226537 
L 409.308581 27.388322 
L 406.834939 27.548322 
L 404.361297 27.807305 
L 401.887654 27.846778 
L 399.414012 26.246127 
L 396.940369 28.421995 
L 394.466727 28.161632 
L 391.993084 27.836677 
L 389.519442 28.948847 
L 387.045799 27.811029 
L 384.572157 27.830219 
L 382.098514 27.190673 
L 379.624872 29.976511 
L 377.151229 30.125456 
L 374.677587 29.289379 
L 372.203944 27.973671 
L 369.730302 29.273723 
L 367.25666 30.697852 
L 364.783017 30.54564 
L 362.309375 31.613818 
L 359.835732 29.15967 
L 357.36209 29.625245 
L 354.888447 31.668608 
L 352.414805 31.456597 
L 349.941162 29.811188 
L 347.46752 34.925006 
L 344.993877 33.928453 
L 342.520235 35.534344 
L 340.046592 32.095571 
L 337.57295 32.292372 
L 335.099308 34.131045 
L 332.625665 35.499541 
L 330.152023 33.670109 
L 327.67838 35.803874 
L 325.204738 35.521788 
L 322.731095 37.777236 
L 320.257453 37.295041 
L 317.78381 38.148244 
L 315.310168 35.750113 
L 312.836525 39.550144 
L 310.362883 34.566653 
L 307.88924 40.712404 
L 305.415598 37.482619 
L 302.941955 40.411765 
L 300.468313 42.988557 
L 297.994671 43.022779 
L 295.521028 38.633834 
L 293.047386 38.66693 
L 290.573743 39.322845 
L 288.100101 40.178804 
L 285.626458 39.745256 
L 283.152816 40.106472 
L 280.679173 39.370938 
L 278.205531 42.133142 
L 275.731888 44.295224 
L 273.258246 44.086489 
L 270.784603 44.342181 
L 268.310961 40.59555 
L 265.837318 46.602565 
L 263.363676 42.643928 
L 260.890034 40.716805 
L 258.416391 42.809723 
L 255.942749 44.702794 
L 253.469106 47.820621 
L 250.995464 44.075467 
L 248.521821 52.908435 
L 246.048179 48.394605 
L 243.574536 45.924957 
L 241.100894 50.872432 
L 238.627251 50.983068 
L 236.153609 46.28415 
L 233.679966 49.843888 
L 231.206324 50.994366 
L 228.732682 50.086861 
L 226.259039 47.843684 
L 223.785397 48.250871 
L 221.311754 50.426552 
L 218.838112 49.794178 
L 216.364469 52.238691 
L 213.890827 57.544309 
L 211.417184 55.807852 
L 208.943542 51.804073 
L 206.469899 50.064419 
L 203.996257 54.831293 
L 201.522614 52.320767 
L 199.048972 51.858685 
L 196.575329 60.120046 
L 194.101687 53.976372 
L 191.628045 57.080182 
L 189.154402 51.634617 
L 186.68076 52.788245 
L 184.207117 53.718447 
L 181.733475 55.362915 
L 179.259832 56.074139 
L 176.78619 65.274954 
L 174.312547 65.600283 
L 171.838905 62.79038 
L 169.365262 56.307989 
L 166.89162 60.125155 
L 164.417977 59.033345 
L 161.944335 62.14786 
L 159.470692 56.290404 
L 156.99705 64.605064 
L 154.523408 67.675192 
L 152.049765 69.281024 
L 149.576123 63.475527 
L 147.10248 58.712114 
L 144.628838 61.597507 
L 142.155195 57.440926 
L 139.681553 67.483188 
L 137.20791 59.820664 
L 134.734268 64.672432 
L 132.260625 68.317547 
L 129.786983 70.415676 
L 127.31334 78.158849 
L 124.839698 79.385636 
L 122.366056 79.981286 
L 119.892413 81.654438 
L 117.418771 79.914819 
L 114.945128 90.912983 
L 112.471486 80.661337 
L 109.997843 80.442542 
L 107.524201 80.01283 
L 105.050558 78.364921 
L 102.576916 94.127623 
L 100.103273 99.393286 
L 97.629631 94.128164 
L 95.155988 109.69009 
L 92.682346 103.824559 
L 90.208703 113.086133 
L 87.735061 130.73796 
L 85.261419 142.681215 
L 82.787776 165.089407 
L 80.314134 178.036419 
L 77.840491 191.161377 
L 75.366849 228.485252 
L 72.893206 241.156502 
L 70.419564 251.834391 
L 67.945921 261.847367 
L 65.472279 281.313784 
L 62.998636 288.299362 
z
" style="fill:#d62728;fill-opacity:0.25;"/>
   </g>
   <g id="PolyCollection_5">
    <path clip-path="url(#p745f1d2282)" d="M 62.998636 287.825364 
L 62.998636 288.748438 
L 65.472279 283.185952 
L 67.945921 275.316473 
L 70.419564 267.595692 
L 72.893206 261.422559 
L 75.366849 249.332374 
L 77.840491 225.977477 
L 80.314134 207.789038 
L 82.787776 181.958332 
L 85.261419 159.43479 
L 87.735061 150.18963 
L 90.208703 126.584762 
L 92.682346 133.462107 
L 95.155988 120.178217 
L 97.629631 117.456408 
L 100.103273 102.219699 
L 102.576916 111.454953 
L 105.050558 85.093817 
L 107.524201 83.017868 
L 109.997843 105.580986 
L 112.471486 96.641611 
L 114.945128 100.119634 
L 117.418771 91.750771 
L 119.892413 100.614986 
L 122.366056 88.45939 
L 124.839698 76.837269 
L 127.31334 86.232304 
L 129.786983 81.846282 
L 132.260625 77.429609 
L 134.734268 75.167744 
L 137.20791 80.211653 
L 139.681553 87.466589 
L 142.155195 85.348989 
L 144.628838 70.172865 
L 147.10248 65.79252 
L 149.576123 69.288674 
L 152.049765 85.252263 
L 154.523408 72.742271 
L 156.99705 72.608445 
L 159.470692 71.162626 
L 161.944335 67.838435 
L 164.417977 67.577101 
L 166.89162 69.583095 
L 169.365262 67.918817 
L 171.838905 75.591911 
L 174.312547 79.863974 
L 176.78619 81.291566 
L 179.259832 68.166466 
L 181.733475 73.625886 
L 184.207117 68.447395 
L 186.68076 59.963681 
L 189.154402 67.743088 
L 191.628045 65.804844 
L 194.101687 60.150239 
L 196.575329 65.844936 
L 199.048972 60.009098 
L 201.522614 63.23244 
L 203.996257 61.129144 
L 206.469899 61.429336 
L 208.943542 62.059489 
L 211.417184 71.439939 
L 213.890827 56.678048 
L 216.364469 60.98287 
L 218.838112 66.086315 
L 221.311754 61.937246 
L 223.785397 54.830311 
L 226.259039 52.310563 
L 228.732682 55.625019 
L 231.206324 56.136771 
L 233.679966 58.205115 
L 236.153609 60.349639 
L 238.627251 58.32154 
L 241.100894 58.022759 
L 243.574536 57.512919 
L 246.048179 51.812445 
L 248.521821 59.84202 
L 250.995464 50.312271 
L 253.469106 52.720437 
L 255.942749 53.246928 
L 258.416391 50.010118 
L 260.890034 49.653267 
L 263.363676 54.653367 
L 265.837318 50.477479 
L 268.310961 48.49526 
L 270.784603 49.267073 
L 273.258246 54.674363 
L 275.731888 50.702305 
L 278.205531 46.595571 
L 280.679173 51.202204 
L 283.152816 48.765691 
L 285.626458 53.283991 
L 288.100101 43.224565 
L 290.573743 45.920846 
L 293.047386 49.071557 
L 295.521028 43.036594 
L 297.994671 44.660232 
L 300.468313 42.170435 
L 302.941955 43.33327 
L 305.415598 38.528462 
L 307.88924 42.364143 
L 310.362883 45.027081 
L 312.836525 41.691223 
L 315.310168 41.50617 
L 317.78381 42.128634 
L 320.257453 40.317643 
L 322.731095 42.202757 
L 325.204738 42.093981 
L 327.67838 38.262383 
L 330.152023 41.634147 
L 332.625665 42.150097 
L 335.099308 43.158916 
L 337.57295 43.733334 
L 340.046592 39.343767 
L 342.520235 37.854702 
L 344.993877 36.544903 
L 347.46752 36.749851 
L 349.941162 34.793338 
L 352.414805 36.367359 
L 354.888447 37.106981 
L 357.36209 36.291988 
L 359.835732 36.357364 
L 362.309375 35.385468 
L 364.783017 33.630008 
L 367.25666 34.615194 
L 369.730302 36.860037 
L 372.203944 33.582034 
L 374.677587 35.32383 
L 377.151229 31.405854 
L 379.624872 35.097715 
L 382.098514 32.02802 
L 384.572157 32.049457 
L 387.045799 33.758422 
L 389.519442 33.299598 
L 391.993084 32.507154 
L 394.466727 31.045216 
L 396.940369 30.485701 
L 399.414012 29.326332 
L 401.887654 29.856812 
L 404.361297 31.428234 
L 406.834939 30.378376 
L 409.308581 30.289731 
L 411.782224 30.774845 
L 414.255866 31.239372 
L 416.729509 29.995491 
L 419.203151 29.928214 
L 421.676794 31.250341 
L 424.150436 30.463023 
L 426.624079 30.662512 
L 429.097721 30.220243 
L 431.571364 30.584911 
L 431.571364 24.830881 
L 431.571364 24.830881 
L 429.097721 25.873979 
L 426.624079 24.938307 
L 424.150436 25.322822 
L 421.676794 25.152259 
L 419.203151 24.624121 
L 416.729509 24.556844 
L 414.255866 24.793175 
L 411.782224 26.552888 
L 409.308581 25.619465 
L 406.834939 25.407469 
L 404.361297 24.110909 
L 401.887654 24.88055 
L 399.414012 25.41103 
L 396.940369 26.533654 
L 394.466727 26.590895 
L 391.993084 26.362466 
L 389.519442 28.283745 
L 387.045799 26.838112 
L 384.572157 27.12854 
L 382.098514 27.335004 
L 379.624872 27.41076 
L 377.151229 28.450574 
L 374.677587 28.603181 
L 372.203944 28.864765 
L 369.730302 31.877664 
L 367.25666 29.311818 
L 364.783017 29.865275 
L 362.309375 30.761862 
L 359.835732 32.256986 
L 357.36209 33.987601 
L 354.888447 28.238567 
L 352.414805 33.973905 
L 349.941162 30.860588 
L 347.46752 31.617797 
L 344.993877 33.796361 
L 342.520235 33.843423 
L 340.046592 33.649544 
L 337.57295 37.58617 
L 335.099308 35.878594 
L 332.625665 34.913797 
L 330.152023 34.751316 
L 327.67838 34.915954 
L 325.204738 36.018396 
L 322.731095 37.944913 
L 320.257453 36.376198 
L 317.78381 36.600499 
L 315.310168 37.839718 
L 312.836525 37.963042 
L 310.362883 39.561225 
L 307.88924 36.179963 
L 305.415598 34.711551 
L 302.941955 39.281419 
L 300.468313 36.990427 
L 297.994671 40.606504 
L 295.521028 38.961341 
L 293.047386 41.499272 
L 290.573743 41.319506 
L 288.100101 38.89672 
L 285.626458 43.269363 
L 283.152816 41.188384 
L 280.679173 40.663811 
L 278.205531 41.816615 
L 275.731888 48.009691 
L 273.258246 41.200559 
L 270.784603 44.757585 
L 268.310961 44.295887 
L 265.837318 42.066966 
L 263.363676 42.640093 
L 260.890034 42.644476 
L 258.416391 42.719354 
L 255.942749 47.932088 
L 253.469106 43.586214 
L 250.995464 44.020765 
L 248.521821 49.416488 
L 246.048179 42.828968 
L 243.574536 46.873224 
L 241.100894 43.958039 
L 238.627251 51.985451 
L 236.153609 46.503523 
L 233.679966 45.934325 
L 231.206324 51.024769 
L 228.732682 44.998918 
L 226.259039 42.577551 
L 223.785397 49.000752 
L 221.311754 53.36546 
L 218.838112 50.449902 
L 216.364469 50.002551 
L 213.890827 51.593651 
L 211.417184 56.629597 
L 208.943542 49.481012 
L 206.469899 51.468026 
L 203.996257 49.794602 
L 201.522614 54.537287 
L 199.048972 48.509303 
L 196.575329 55.686997 
L 194.101687 49.971725 
L 191.628045 51.594829 
L 189.154402 50.766745 
L 186.68076 50.528336 
L 184.207117 54.996478 
L 181.733475 62.091412 
L 179.259832 61.383282 
L 176.78619 61.580091 
L 174.312547 66.153134 
L 171.838905 66.786342 
L 169.365262 59.71899 
L 166.89162 63.420481 
L 164.417977 59.752329 
L 161.944335 57.085651 
L 159.470692 60.854142 
L 156.99705 59.223297 
L 154.523408 67.662366 
L 152.049765 71.681409 
L 149.576123 64.393333 
L 147.10248 63.202149 
L 144.628838 59.870287 
L 142.155195 62.70341 
L 139.681553 68.726977 
L 137.20791 63.461785 
L 134.734268 63.016574 
L 132.260625 72.349704 
L 129.786983 76.3209 
L 127.31334 78.657508 
L 124.839698 70.5367 
L 122.366056 72.359839 
L 119.892413 71.552535 
L 117.418771 77.764703 
L 114.945128 81.48424 
L 112.471486 88.662793 
L 109.997843 81.20363 
L 107.524201 78.479791 
L 105.050558 77.514001 
L 102.576916 96.299335 
L 100.103273 91.719275 
L 97.629631 105.038325 
L 95.155988 108.792444 
L 92.682346 104.821554 
L 90.208703 118.729908 
L 87.735061 125.839441 
L 85.261419 152.304397 
L 82.787776 168.636423 
L 80.314134 185.97857 
L 77.840491 217.130535 
L 75.366849 236.208384 
L 72.893206 241.634043 
L 70.419564 260.377813 
L 67.945921 270.419577 
L 65.472279 278.339027 
L 62.998636 287.825364 
z
" style="fill:#9467bd;fill-opacity:0.25;"/>
   </g>
   <g id="matplotlib.axis_1">
    <g id="xtick_1">
     <g id="line2d_1">
      <defs>
       <path d="M 0 0 
L 0 3.5 
" id="m0abc1c47d1" style="stroke:#000000;stroke-width:0.8;"/>
      </defs>
      <g>
       <use style="stroke:#000000;stroke-width:0.8;" x="62.998636" xlink:href="#m0abc1c47d1" y="303.64"/>
      </g>
     </g>
     <g id="text_1">
      <!-- 0 -->
      <g transform="translate(59.817386 318.238437)scale(0.1 -0.1)">
       <defs>
        <path d="M 31.78125 66.40625 
Q 24.171875 66.40625 20.328125 58.90625 
Q 16.5 51.421875 16.5 36.375 
Q 16.5 21.390625 20.328125 13.890625 
Q 24.171875 6.390625 31.78125 6.390625 
Q 39.453125 6.390625 43.28125 13.890625 
Q 47.125 21.390625 47.125 36.375 
Q 47.125 51.421875 43.28125 58.90625 
Q 39.453125 66.40625 31.78125 66.40625 
z
M 31.78125 74.21875 
Q 44.046875 74.21875 50.515625 64.515625 
Q 56.984375 54.828125 56.984375 36.375 
Q 56.984375 17.96875 50.515625 8.265625 
Q 44.046875 -1.421875 31.78125 -1.421875 
Q 19.53125 -1.421875 13.0625 8.265625 
Q 6.59375 17.96875 6.59375 36.375 
Q 6.59375 54.828125 13.0625 64.515625 
Q 19.53125 74.21875 31.78125 74.21875 
z
" id="DejaVuSans-48"/>
       </defs>
       <use xlink:href="#DejaVuSans-48"/>
      </g>
     </g>
    </g>
    <g id="xtick_2">
     <g id="line2d_2">
      <g>
       <use style="stroke:#000000;stroke-width:0.8;" x="112.471486" xlink:href="#m0abc1c47d1" y="303.64"/>
      </g>
     </g>
     <g id="text_2">
      <!-- 20 -->
      <g transform="translate(106.108986 318.238437)scale(0.1 -0.1)">
       <defs>
        <path d="M 19.1875 8.296875 
L 53.609375 8.296875 
L 53.609375 0 
L 7.328125 0 
L 7.328125 8.296875 
Q 12.9375 14.109375 22.625 23.890625 
Q 32.328125 33.6875 34.8125 36.53125 
Q 39.546875 41.84375 41.421875 45.53125 
Q 43.3125 49.21875 43.3125 52.78125 
Q 43.3125 58.59375 39.234375 62.25 
Q 35.15625 65.921875 28.609375 65.921875 
Q 23.96875 65.921875 18.8125 64.3125 
Q 13.671875 62.703125 7.8125 59.421875 
L 7.8125 69.390625 
Q 13.765625 71.78125 18.9375 73 
Q 24.125 74.21875 28.421875 74.21875 
Q 39.75 74.21875 46.484375 68.546875 
Q 53.21875 62.890625 53.21875 53.421875 
Q 53.21875 48.921875 51.53125 44.890625 
Q 49.859375 40.875 45.40625 35.40625 
Q 44.1875 33.984375 37.640625 27.21875 
Q 31.109375 20.453125 19.1875 8.296875 
z
" id="DejaVuSans-50"/>
       </defs>
       <use xlink:href="#DejaVuSans-50"/>
       <use x="63.623047" xlink:href="#DejaVuSans-48"/>
      </g>
     </g>
    </g>
    <g id="xtick_3">
     <g id="line2d_3">
      <g>
       <use style="stroke:#000000;stroke-width:0.8;" x="161.944335" xlink:href="#m0abc1c47d1" y="303.64"/>
      </g>
     </g>
     <g id="text_3">
      <!-- 40 -->
      <g transform="translate(155.581835 318.238437)scale(0.1 -0.1)">
       <defs>
        <path d="M 37.796875 64.3125 
L 12.890625 25.390625 
L 37.796875 25.390625 
z
M 35.203125 72.90625 
L 47.609375 72.90625 
L 47.609375 25.390625 
L 58.015625 25.390625 
L 58.015625 17.1875 
L 47.609375 17.1875 
L 47.609375 0 
L 37.796875 0 
L 37.796875 17.1875 
L 4.890625 17.1875 
L 4.890625 26.703125 
z
" id="DejaVuSans-52"/>
       </defs>
       <use xlink:href="#DejaVuSans-52"/>
       <use x="63.623047" xlink:href="#DejaVuSans-48"/>
      </g>
     </g>
    </g>
    <g id="xtick_4">
     <g id="line2d_4">
      <g>
       <use style="stroke:#000000;stroke-width:0.8;" x="211.417184" xlink:href="#m0abc1c47d1" y="303.64"/>
      </g>
     </g>
     <g id="text_4">
      <!-- 60 -->
      <g transform="translate(205.054684 318.238437)scale(0.1 -0.1)">
       <defs>
        <path d="M 33.015625 40.375 
Q 26.375 40.375 22.484375 35.828125 
Q 18.609375 31.296875 18.609375 23.390625 
Q 18.609375 15.53125 22.484375 10.953125 
Q 26.375 6.390625 33.015625 6.390625 
Q 39.65625 6.390625 43.53125 10.953125 
Q 47.40625 15.53125 47.40625 23.390625 
Q 47.40625 31.296875 43.53125 35.828125 
Q 39.65625 40.375 33.015625 40.375 
z
M 52.59375 71.296875 
L 52.59375 62.3125 
Q 48.875 64.0625 45.09375 64.984375 
Q 41.3125 65.921875 37.59375 65.921875 
Q 27.828125 65.921875 22.671875 59.328125 
Q 17.53125 52.734375 16.796875 39.40625 
Q 19.671875 43.65625 24.015625 45.921875 
Q 28.375 48.1875 33.59375 48.1875 
Q 44.578125 48.1875 50.953125 41.515625 
Q 57.328125 34.859375 57.328125 23.390625 
Q 57.328125 12.15625 50.6875 5.359375 
Q 44.046875 -1.421875 33.015625 -1.421875 
Q 20.359375 -1.421875 13.671875 8.265625 
Q 6.984375 17.96875 6.984375 36.375 
Q 6.984375 53.65625 15.1875 63.9375 
Q 23.390625 74.21875 37.203125 74.21875 
Q 40.921875 74.21875 44.703125 73.484375 
Q 48.484375 72.75 52.59375 71.296875 
z
" id="DejaVuSans-54"/>
       </defs>
       <use xlink:href="#DejaVuSans-54"/>
       <use x="63.623047" xlink:href="#DejaVuSans-48"/>
      </g>
     </g>
    </g>
    <g id="xtick_5">
     <g id="line2d_5">
      <g>
       <use style="stroke:#000000;stroke-width:0.8;" x="260.890034" xlink:href="#m0abc1c47d1" y="303.64"/>
      </g>
     </g>
     <g id="text_5">
      <!-- 80 -->
      <g transform="translate(254.527534 318.238437)scale(0.1 -0.1)">
       <defs>
        <path d="M 31.78125 34.625 
Q 24.75 34.625 20.71875 30.859375 
Q 16.703125 27.09375 16.703125 20.515625 
Q 16.703125 13.921875 20.71875 10.15625 
Q 24.75 6.390625 31.78125 6.390625 
Q 38.8125 6.390625 42.859375 10.171875 
Q 46.921875 13.96875 46.921875 20.515625 
Q 46.921875 27.09375 42.890625 30.859375 
Q 38.875 34.625 31.78125 34.625 
z
M 21.921875 38.8125 
Q 15.578125 40.375 12.03125 44.71875 
Q 8.5 49.078125 8.5 55.328125 
Q 8.5 64.0625 14.71875 69.140625 
Q 20.953125 74.21875 31.78125 74.21875 
Q 42.671875 74.21875 48.875 69.140625 
Q 55.078125 64.0625 55.078125 55.328125 
Q 55.078125 49.078125 51.53125 44.71875 
Q 48 40.375 41.703125 38.8125 
Q 48.828125 37.15625 52.796875 32.3125 
Q 56.78125 27.484375 56.78125 20.515625 
Q 56.78125 9.90625 50.3125 4.234375 
Q 43.84375 -1.421875 31.78125 -1.421875 
Q 19.734375 -1.421875 13.25 4.234375 
Q 6.78125 9.90625 6.78125 20.515625 
Q 6.78125 27.484375 10.78125 32.3125 
Q 14.796875 37.15625 21.921875 38.8125 
z
M 18.3125 54.390625 
Q 18.3125 48.734375 21.84375 45.5625 
Q 25.390625 42.390625 31.78125 42.390625 
Q 38.140625 42.390625 41.71875 45.5625 
Q 45.3125 48.734375 45.3125 54.390625 
Q 45.3125 60.0625 41.71875 63.234375 
Q 38.140625 66.40625 31.78125 66.40625 
Q 25.390625 66.40625 21.84375 63.234375 
Q 18.3125 60.0625 18.3125 54.390625 
z
" id="DejaVuSans-56"/>
       </defs>
       <use xlink:href="#DejaVuSans-56"/>
       <use x="63.623047" xlink:href="#DejaVuSans-48"/>
      </g>
     </g>
    </g>
    <g id="xtick_6">
     <g id="line2d_6">
      <g>
       <use style="stroke:#000000;stroke-width:0.8;" x="310.362883" xlink:href="#m0abc1c47d1" y="303.64"/>
      </g>
     </g>
     <g id="text_6">
      <!-- 100 -->
      <g transform="translate(300.819133 318.238437)scale(0.1 -0.1)">
       <defs>
        <path d="M 12.40625 8.296875 
L 28.515625 8.296875 
L 28.515625 63.921875 
L 10.984375 60.40625 
L 10.984375 69.390625 
L 28.421875 72.90625 
L 38.28125 72.90625 
L 38.28125 8.296875 
L 54.390625 8.296875 
L 54.390625 0 
L 12.40625 0 
z
" id="DejaVuSans-49"/>
       </defs>
       <use xlink:href="#DejaVuSans-49"/>
       <use x="63.623047" xlink:href="#DejaVuSans-48"/>
       <use x="127.246094" xlink:href="#DejaVuSans-48"/>
      </g>
     </g>
    </g>
    <g id="xtick_7">
     <g id="line2d_7">
      <g>
       <use style="stroke:#000000;stroke-width:0.8;" x="359.835732" xlink:href="#m0abc1c47d1" y="303.64"/>
      </g>
     </g>
     <g id="text_7">
      <!-- 120 -->
      <g transform="translate(350.291982 318.238437)scale(0.1 -0.1)">
       <use xlink:href="#DejaVuSans-49"/>
       <use x="63.623047" xlink:href="#DejaVuSans-50"/>
       <use x="127.246094" xlink:href="#DejaVuSans-48"/>
      </g>
     </g>
    </g>
    <g id="xtick_8">
     <g id="line2d_8">
      <g>
       <use style="stroke:#000000;stroke-width:0.8;" x="409.308581" xlink:href="#m0abc1c47d1" y="303.64"/>
      </g>
     </g>
     <g id="text_8">
      <!-- 140 -->
      <g transform="translate(399.764831 318.238437)scale(0.1 -0.1)">
       <use xlink:href="#DejaVuSans-49"/>
       <use x="63.623047" xlink:href="#DejaVuSans-52"/>
       <use x="127.246094" xlink:href="#DejaVuSans-48"/>
      </g>
     </g>
    </g>
    <g id="text_9">
     <!-- Epochs -->
     <g transform="translate(229.369375 331.916562)scale(0.1 -0.1)">
      <defs>
       <path d="M 9.8125 72.90625 
L 55.90625 72.90625 
L 55.90625 64.59375 
L 19.671875 64.59375 
L 19.671875 43.015625 
L 54.390625 43.015625 
L 54.390625 34.71875 
L 19.671875 34.71875 
L 19.671875 8.296875 
L 56.78125 8.296875 
L 56.78125 0 
L 9.8125 0 
z
" id="DejaVuSans-69"/>
       <path d="M 18.109375 8.203125 
L 18.109375 -20.796875 
L 9.078125 -20.796875 
L 9.078125 54.6875 
L 18.109375 54.6875 
L 18.109375 46.390625 
Q 20.953125 51.265625 25.265625 53.625 
Q 29.59375 56 35.59375 56 
Q 45.5625 56 51.78125 48.09375 
Q 58.015625 40.1875 58.015625 27.296875 
Q 58.015625 14.40625 51.78125 6.484375 
Q 45.5625 -1.421875 35.59375 -1.421875 
Q 29.59375 -1.421875 25.265625 0.953125 
Q 20.953125 3.328125 18.109375 8.203125 
z
M 48.6875 27.296875 
Q 48.6875 37.203125 44.609375 42.84375 
Q 40.53125 48.484375 33.40625 48.484375 
Q 26.265625 48.484375 22.1875 42.84375 
Q 18.109375 37.203125 18.109375 27.296875 
Q 18.109375 17.390625 22.1875 11.75 
Q 26.265625 6.109375 33.40625 6.109375 
Q 40.53125 6.109375 44.609375 11.75 
Q 48.6875 17.390625 48.6875 27.296875 
z
" id="DejaVuSans-112"/>
       <path d="M 30.609375 48.390625 
Q 23.390625 48.390625 19.1875 42.75 
Q 14.984375 37.109375 14.984375 27.296875 
Q 14.984375 17.484375 19.15625 11.84375 
Q 23.34375 6.203125 30.609375 6.203125 
Q 37.796875 6.203125 41.984375 11.859375 
Q 46.1875 17.53125 46.1875 27.296875 
Q 46.1875 37.015625 41.984375 42.703125 
Q 37.796875 48.390625 30.609375 48.390625 
z
M 30.609375 56 
Q 42.328125 56 49.015625 48.375 
Q 55.71875 40.765625 55.71875 27.296875 
Q 55.71875 13.875 49.015625 6.21875 
Q 42.328125 -1.421875 30.609375 -1.421875 
Q 18.84375 -1.421875 12.171875 6.21875 
Q 5.515625 13.875 5.515625 27.296875 
Q 5.515625 40.765625 12.171875 48.375 
Q 18.84375 56 30.609375 56 
z
" id="DejaVuSans-111"/>
       <path d="M 48.78125 52.59375 
L 48.78125 44.1875 
Q 44.96875 46.296875 41.140625 47.34375 
Q 37.3125 48.390625 33.40625 48.390625 
Q 24.65625 48.390625 19.8125 42.84375 
Q 14.984375 37.3125 14.984375 27.296875 
Q 14.984375 17.28125 19.8125 11.734375 
Q 24.65625 6.203125 33.40625 6.203125 
Q 37.3125 6.203125 41.140625 7.25 
Q 44.96875 8.296875 48.78125 10.40625 
L 48.78125 2.09375 
Q 45.015625 0.34375 40.984375 -0.53125 
Q 36.96875 -1.421875 32.421875 -1.421875 
Q 20.0625 -1.421875 12.78125 6.34375 
Q 5.515625 14.109375 5.515625 27.296875 
Q 5.515625 40.671875 12.859375 48.328125 
Q 20.21875 56 33.015625 56 
Q 37.15625 56 41.109375 55.140625 
Q 45.0625 54.296875 48.78125 52.59375 
z
" id="DejaVuSans-99"/>
       <path d="M 54.890625 33.015625 
L 54.890625 0 
L 45.90625 0 
L 45.90625 32.71875 
Q 45.90625 40.484375 42.875 44.328125 
Q 39.84375 48.1875 33.796875 48.1875 
Q 26.515625 48.1875 22.3125 43.546875 
Q 18.109375 38.921875 18.109375 30.90625 
L 18.109375 0 
L 9.078125 0 
L 9.078125 75.984375 
L 18.109375 75.984375 
L 18.109375 46.1875 
Q 21.34375 51.125 25.703125 53.5625 
Q 30.078125 56 35.796875 56 
Q 45.21875 56 50.046875 50.171875 
Q 54.890625 44.34375 54.890625 33.015625 
z
" id="DejaVuSans-104"/>
       <path d="M 44.28125 53.078125 
L 44.28125 44.578125 
Q 40.484375 46.53125 36.375 47.5 
Q 32.28125 48.484375 27.875 48.484375 
Q 21.1875 48.484375 17.84375 46.4375 
Q 14.5 44.390625 14.5 40.28125 
Q 14.5 37.15625 16.890625 35.375 
Q 19.28125 33.59375 26.515625 31.984375 
L 29.59375 31.296875 
Q 39.15625 29.25 43.1875 25.515625 
Q 47.21875 21.78125 47.21875 15.09375 
Q 47.21875 7.46875 41.1875 3.015625 
Q 35.15625 -1.421875 24.609375 -1.421875 
Q 20.21875 -1.421875 15.453125 -0.5625 
Q 10.6875 0.296875 5.421875 2 
L 5.421875 11.28125 
Q 10.40625 8.6875 15.234375 7.390625 
Q 20.0625 6.109375 24.8125 6.109375 
Q 31.15625 6.109375 34.5625 8.28125 
Q 37.984375 10.453125 37.984375 14.40625 
Q 37.984375 18.0625 35.515625 20.015625 
Q 33.0625 21.96875 24.703125 23.78125 
L 21.578125 24.515625 
Q 13.234375 26.265625 9.515625 29.90625 
Q 5.8125 33.546875 5.8125 39.890625 
Q 5.8125 47.609375 11.28125 51.796875 
Q 16.75 56 26.8125 56 
Q 31.78125 56 36.171875 55.265625 
Q 40.578125 54.546875 44.28125 53.078125 
z
" id="DejaVuSans-115"/>
      </defs>
      <use xlink:href="#DejaVuSans-69"/>
      <use x="63.183594" xlink:href="#DejaVuSans-112"/>
      <use x="126.660156" xlink:href="#DejaVuSans-111"/>
      <use x="187.841797" xlink:href="#DejaVuSans-99"/>
      <use x="242.822266" xlink:href="#DejaVuSans-104"/>
      <use x="306.201172" xlink:href="#DejaVuSans-115"/>
     </g>
    </g>
   </g>
   <g id="matplotlib.axis_2">
    <g id="ytick_1">
     <g id="line2d_9">
      <defs>
       <path d="M 0 0 
L -3.5 0 
" id="maf2472b711" style="stroke:#000000;stroke-width:0.8;"/>
      </defs>
      <g>
       <use style="stroke:#000000;stroke-width:0.8;" x="44.57" xlink:href="#maf2472b711" y="259.792818"/>
      </g>
     </g>
     <g id="text_10">
      <!-- 20 -->
      <g transform="translate(24.845 263.592037)scale(0.1 -0.1)">
       <use xlink:href="#DejaVuSans-50"/>
       <use x="63.623047" xlink:href="#DejaVuSans-48"/>
      </g>
     </g>
    </g>
    <g id="ytick_2">
     <g id="line2d_10">
      <g>
       <use style="stroke:#000000;stroke-width:0.8;" x="44.57" xlink:href="#maf2472b711" y="196.637102"/>
      </g>
     </g>
     <g id="text_11">
      <!-- 40 -->
      <g transform="translate(24.845 200.436321)scale(0.1 -0.1)">
       <use xlink:href="#DejaVuSans-52"/>
       <use x="63.623047" xlink:href="#DejaVuSans-48"/>
      </g>
     </g>
    </g>
    <g id="ytick_3">
     <g id="line2d_11">
      <g>
       <use style="stroke:#000000;stroke-width:0.8;" x="44.57" xlink:href="#maf2472b711" y="133.481386"/>
      </g>
     </g>
     <g id="text_12">
      <!-- 60 -->
      <g transform="translate(24.845 137.280604)scale(0.1 -0.1)">
       <use xlink:href="#DejaVuSans-54"/>
       <use x="63.623047" xlink:href="#DejaVuSans-48"/>
      </g>
     </g>
    </g>
    <g id="ytick_4">
     <g id="line2d_12">
      <g>
       <use style="stroke:#000000;stroke-width:0.8;" x="44.57" xlink:href="#maf2472b711" y="70.325669"/>
      </g>
     </g>
     <g id="text_13">
      <!-- 80 -->
      <g transform="translate(24.845 74.124888)scale(0.1 -0.1)">
       <use xlink:href="#DejaVuSans-56"/>
       <use x="63.623047" xlink:href="#DejaVuSans-48"/>
      </g>
     </g>
    </g>
    <g id="text_14">
     <!-- Test Accuracy (%) -->
     <g transform="translate(18.765313 201.723906)rotate(-90)scale(0.1 -0.1)">
      <defs>
       <path d="M -0.296875 72.90625 
L 61.375 72.90625 
L 61.375 64.59375 
L 35.5 64.59375 
L 35.5 0 
L 25.59375 0 
L 25.59375 64.59375 
L -0.296875 64.59375 
z
" id="DejaVuSans-84"/>
       <path d="M 56.203125 29.59375 
L 56.203125 25.203125 
L 14.890625 25.203125 
Q 15.484375 15.921875 20.484375 11.0625 
Q 25.484375 6.203125 34.421875 6.203125 
Q 39.59375 6.203125 44.453125 7.46875 
Q 49.3125 8.734375 54.109375 11.28125 
L 54.109375 2.78125 
Q 49.265625 0.734375 44.1875 -0.34375 
Q 39.109375 -1.421875 33.890625 -1.421875 
Q 20.796875 -1.421875 13.15625 6.1875 
Q 5.515625 13.8125 5.515625 26.8125 
Q 5.515625 40.234375 12.765625 48.109375 
Q 20.015625 56 32.328125 56 
Q 43.359375 56 49.78125 48.890625 
Q 56.203125 41.796875 56.203125 29.59375 
z
M 47.21875 32.234375 
Q 47.125 39.59375 43.09375 43.984375 
Q 39.0625 48.390625 32.421875 48.390625 
Q 24.90625 48.390625 20.390625 44.140625 
Q 15.875 39.890625 15.1875 32.171875 
z
" id="DejaVuSans-101"/>
       <path d="M 18.3125 70.21875 
L 18.3125 54.6875 
L 36.8125 54.6875 
L 36.8125 47.703125 
L 18.3125 47.703125 
L 18.3125 18.015625 
Q 18.3125 11.328125 20.140625 9.421875 
Q 21.96875 7.515625 27.59375 7.515625 
L 36.8125 7.515625 
L 36.8125 0 
L 27.59375 0 
Q 17.1875 0 13.234375 3.875 
Q 9.28125 7.765625 9.28125 18.015625 
L 9.28125 47.703125 
L 2.6875 47.703125 
L 2.6875 54.6875 
L 9.28125 54.6875 
L 9.28125 70.21875 
z
" id="DejaVuSans-116"/>
       <path id="DejaVuSans-32"/>
       <path d="M 34.1875 63.1875 
L 20.796875 26.90625 
L 47.609375 26.90625 
z
M 28.609375 72.90625 
L 39.796875 72.90625 
L 67.578125 0 
L 57.328125 0 
L 50.6875 18.703125 
L 17.828125 18.703125 
L 11.1875 0 
L 0.78125 0 
z
" id="DejaVuSans-65"/>
       <path d="M 8.5 21.578125 
L 8.5 54.6875 
L 17.484375 54.6875 
L 17.484375 21.921875 
Q 17.484375 14.15625 20.5 10.265625 
Q 23.53125 6.390625 29.59375 6.390625 
Q 36.859375 6.390625 41.078125 11.03125 
Q 45.3125 15.671875 45.3125 23.6875 
L 45.3125 54.6875 
L 54.296875 54.6875 
L 54.296875 0 
L 45.3125 0 
L 45.3125 8.40625 
Q 42.046875 3.421875 37.71875 1 
Q 33.40625 -1.421875 27.6875 -1.421875 
Q 18.265625 -1.421875 13.375 4.4375 
Q 8.5 10.296875 8.5 21.578125 
z
M 31.109375 56 
z
" id="DejaVuSans-117"/>
       <path d="M 41.109375 46.296875 
Q 39.59375 47.171875 37.8125 47.578125 
Q 36.03125 48 33.890625 48 
Q 26.265625 48 22.1875 43.046875 
Q 18.109375 38.09375 18.109375 28.8125 
L 18.109375 0 
L 9.078125 0 
L 9.078125 54.6875 
L 18.109375 54.6875 
L 18.109375 46.1875 
Q 20.953125 51.171875 25.484375 53.578125 
Q 30.03125 56 36.53125 56 
Q 37.453125 56 38.578125 55.875 
Q 39.703125 55.765625 41.0625 55.515625 
z
" id="DejaVuSans-114"/>
       <path d="M 34.28125 27.484375 
Q 23.390625 27.484375 19.1875 25 
Q 14.984375 22.515625 14.984375 16.5 
Q 14.984375 11.71875 18.140625 8.90625 
Q 21.296875 6.109375 26.703125 6.109375 
Q 34.1875 6.109375 38.703125 11.40625 
Q 43.21875 16.703125 43.21875 25.484375 
L 43.21875 27.484375 
z
M 52.203125 31.203125 
L 52.203125 0 
L 43.21875 0 
L 43.21875 8.296875 
Q 40.140625 3.328125 35.546875 0.953125 
Q 30.953125 -1.421875 24.3125 -1.421875 
Q 15.921875 -1.421875 10.953125 3.296875 
Q 6 8.015625 6 15.921875 
Q 6 25.140625 12.171875 29.828125 
Q 18.359375 34.515625 30.609375 34.515625 
L 43.21875 34.515625 
L 43.21875 35.40625 
Q 43.21875 41.609375 39.140625 45 
Q 35.0625 48.390625 27.6875 48.390625 
Q 23 48.390625 18.546875 47.265625 
Q 14.109375 46.140625 10.015625 43.890625 
L 10.015625 52.203125 
Q 14.9375 54.109375 19.578125 55.046875 
Q 24.21875 56 28.609375 56 
Q 40.484375 56 46.34375 49.84375 
Q 52.203125 43.703125 52.203125 31.203125 
z
" id="DejaVuSans-97"/>
       <path d="M 32.171875 -5.078125 
Q 28.375 -14.84375 24.75 -17.8125 
Q 21.140625 -20.796875 15.09375 -20.796875 
L 7.90625 -20.796875 
L 7.90625 -13.28125 
L 13.1875 -13.28125 
Q 16.890625 -13.28125 18.9375 -11.515625 
Q 21 -9.765625 23.484375 -3.21875 
L 25.09375 0.875 
L 2.984375 54.6875 
L 12.5 54.6875 
L 29.59375 11.921875 
L 46.6875 54.6875 
L 56.203125 54.6875 
z
" id="DejaVuSans-121"/>
       <path d="M 31 75.875 
Q 24.46875 64.65625 21.28125 53.65625 
Q 18.109375 42.671875 18.109375 31.390625 
Q 18.109375 20.125 21.3125 9.0625 
Q 24.515625 -2 31 -13.1875 
L 23.1875 -13.1875 
Q 15.875 -1.703125 12.234375 9.375 
Q 8.59375 20.453125 8.59375 31.390625 
Q 8.59375 42.28125 12.203125 53.3125 
Q 15.828125 64.359375 23.1875 75.875 
z
" id="DejaVuSans-40"/>
       <path d="M 72.703125 32.078125 
Q 68.453125 32.078125 66.03125 28.46875 
Q 63.625 24.859375 63.625 18.40625 
Q 63.625 12.0625 66.03125 8.421875 
Q 68.453125 4.78125 72.703125 4.78125 
Q 76.859375 4.78125 79.265625 8.421875 
Q 81.6875 12.0625 81.6875 18.40625 
Q 81.6875 24.8125 79.265625 28.4375 
Q 76.859375 32.078125 72.703125 32.078125 
z
M 72.703125 38.28125 
Q 80.421875 38.28125 84.953125 32.90625 
Q 89.5 27.546875 89.5 18.40625 
Q 89.5 9.28125 84.9375 3.921875 
Q 80.375 -1.421875 72.703125 -1.421875 
Q 64.890625 -1.421875 60.34375 3.921875 
Q 55.8125 9.28125 55.8125 18.40625 
Q 55.8125 27.59375 60.375 32.9375 
Q 64.9375 38.28125 72.703125 38.28125 
z
M 22.3125 68.015625 
Q 18.109375 68.015625 15.6875 64.375 
Q 13.28125 60.75 13.28125 54.390625 
Q 13.28125 47.953125 15.671875 44.328125 
Q 18.0625 40.71875 22.3125 40.71875 
Q 26.5625 40.71875 28.96875 44.328125 
Q 31.390625 47.953125 31.390625 54.390625 
Q 31.390625 60.6875 28.953125 64.34375 
Q 26.515625 68.015625 22.3125 68.015625 
z
M 66.40625 74.21875 
L 74.21875 74.21875 
L 28.609375 -1.421875 
L 20.796875 -1.421875 
z
M 22.3125 74.21875 
Q 30.03125 74.21875 34.609375 68.875 
Q 39.203125 63.53125 39.203125 54.390625 
Q 39.203125 45.171875 34.640625 39.84375 
Q 30.078125 34.515625 22.3125 34.515625 
Q 14.546875 34.515625 10.03125 39.859375 
Q 5.515625 45.21875 5.515625 54.390625 
Q 5.515625 63.484375 10.046875 68.84375 
Q 14.59375 74.21875 22.3125 74.21875 
z
" id="DejaVuSans-37"/>
       <path d="M 8.015625 75.875 
L 15.828125 75.875 
Q 23.140625 64.359375 26.78125 53.3125 
Q 30.421875 42.28125 30.421875 31.390625 
Q 30.421875 20.453125 26.78125 9.375 
Q 23.140625 -1.703125 15.828125 -13.1875 
L 8.015625 -13.1875 
Q 14.5 -2 17.703125 9.0625 
Q 20.90625 20.125 20.90625 31.390625 
Q 20.90625 42.671875 17.703125 53.65625 
Q 14.5 64.65625 8.015625 75.875 
z
" id="DejaVuSans-41"/>
      </defs>
      <use xlink:href="#DejaVuSans-84"/>
      <use x="44.083984" xlink:href="#DejaVuSans-101"/>
      <use x="105.607422" xlink:href="#DejaVuSans-115"/>
      <use x="157.707031" xlink:href="#DejaVuSans-116"/>
      <use x="196.916016" xlink:href="#DejaVuSans-32"/>
      <use x="228.703125" xlink:href="#DejaVuSans-65"/>
      <use x="295.361328" xlink:href="#DejaVuSans-99"/>
      <use x="350.341797" xlink:href="#DejaVuSans-99"/>
      <use x="405.322266" xlink:href="#DejaVuSans-117"/>
      <use x="468.701172" xlink:href="#DejaVuSans-114"/>
      <use x="509.814453" xlink:href="#DejaVuSans-97"/>
      <use x="571.09375" xlink:href="#DejaVuSans-99"/>
      <use x="626.074219" xlink:href="#DejaVuSans-121"/>
      <use x="685.253906" xlink:href="#DejaVuSans-32"/>
      <use x="717.041016" xlink:href="#DejaVuSans-40"/>
      <use x="756.054688" xlink:href="#DejaVuSans-37"/>
      <use x="851.074219" xlink:href="#DejaVuSans-41"/>
     </g>
    </g>
   </g>
   <g id="line2d_13">
    <path clip-path="url(#p745f1d2282)" d="M 62.998636 276.445204 
L 65.472279 255.598884 
L 67.945921 239.825374 
L 70.419564 225.624589 
L 72.893206 196.868385 
L 75.366849 152.847494 
L 77.840491 124.600113 
L 80.314134 115.225436 
L 82.787776 107.454323 
L 85.261419 82.414068 
L 87.735061 78.466836 
L 90.208703 83.616741 
L 92.682346 77.140813 
L 95.155988 75.25971 
L 97.629631 71.713368 
L 100.103273 61.351884 
L 102.576916 66.625139 
L 105.050558 58.823188 
L 107.524201 52.6248 
L 109.997843 66.655977 
L 112.471486 56.078628 
L 114.945128 56.757058 
L 117.418771 63.788066 
L 119.892413 61.906963 
L 122.366056 63.232986 
L 124.839698 55.893601 
L 127.31334 59.995022 
L 129.786983 56.787896 
L 132.260625 59.100728 
L 134.734268 52.038882 
L 137.20791 54.012499 
L 139.681553 53.58077 
L 142.155195 53.519095 
L 144.628838 52.162233 
L 147.10248 50.527833 
L 149.576123 57.651353 
L 152.049765 62.061152 
L 154.523408 57.466327 
L 156.99705 48.708405 
L 159.470692 59.995022 
L 161.944335 50.496995 
L 164.417977 48.215001 
L 166.89162 51.052074 
L 169.365262 48.677567 
L 171.838905 50.096104 
L 174.312547 47.474895 
L 176.78619 47.320706 
L 181.733475 50.188617 
L 184.207117 49.04762 
L 189.154402 51.298776 
L 191.628045 50.774535 
L 194.101687 49.571862 
L 196.575329 50.805372 
L 199.048972 44.483633 
L 201.522614 52.008045 
L 203.996257 57.219625 
L 206.469899 49.633538 
L 208.943542 41.36902 
L 211.417184 49.541024 
L 213.890827 49.32516 
L 216.364469 44.267769 
L 218.838112 41.36902 
L 221.311754 48.677567 
L 223.785397 49.6027 
L 226.259039 42.078288 
L 228.732682 46.087196 
L 231.206324 49.078458 
L 233.679966 43.373474 
L 236.153609 46.241385 
L 238.627251 46.272223 
L 241.100894 43.589338 
L 243.574536 46.426412 
L 246.048179 43.620176 
L 248.521821 43.311799 
L 250.995464 46.241385 
L 253.469106 40.721427 
L 255.942749 42.849232 
L 258.416391 42.972583 
L 260.890034 41.769911 
L 263.363676 40.104672 
L 265.837318 43.003421 
L 268.310961 41.9241 
L 270.784603 40.998967 
L 273.258246 43.527663 
L 275.731888 39.426242 
L 278.205531 40.783103 
L 280.679173 38.377758 
L 283.152816 38.223569 
L 285.626458 40.042997 
L 288.100101 42.016613 
L 290.573743 38.963676 
L 293.047386 39.087027 
L 295.521028 36.188278 
L 297.994671 37.452626 
L 300.468313 36.743357 
L 305.415598 37.175086 
L 307.88924 35.787387 
L 310.362883 36.373304 
L 312.836525 36.774195 
L 315.310168 36.003251 
L 317.78381 34.091311 
L 320.257453 39.17954 
L 322.731095 35.016443 
L 325.204738 33.197016 
L 327.67838 34.399688 
L 330.152023 33.96796 
L 332.625665 32.919476 
L 335.099308 33.41288 
L 337.57295 34.060473 
L 340.046592 34.492201 
L 342.520235 32.919476 
L 344.993877 32.950314 
L 347.46752 34.060473 
L 349.941162 32.672774 
L 352.414805 32.271883 
L 354.888447 31.408426 
L 357.36209 31.840155 
L 359.835732 30.637482 
L 362.309375 32.056019 
L 364.783017 29.43481 
L 367.25666 29.311459 
L 369.730302 31.50094 
L 372.203944 30.483294 
L 374.677587 29.249784 
L 377.151229 30.976698 
L 379.624872 29.71235 
L 382.098514 29.095595 
L 384.572157 29.311459 
L 387.045799 28.077949 
L 389.519442 29.43481 
L 391.993084 28.725542 
L 394.466727 28.972244 
L 396.940369 28.725542 
L 399.414012 28.293813 
L 401.887654 28.355489 
L 404.361297 27.646221 
L 406.834939 28.818055 
L 409.308581 28.355489 
L 411.782224 28.077949 
L 414.255866 27.954598 
L 416.729509 27.337843 
L 419.203151 27.461194 
L 421.676794 27.769572 
L 424.150436 27.862085 
L 426.624079 27.430356 
L 431.571364 27.430356 
L 431.571364 27.430356 
" style="fill:none;stroke:#1f77b4;stroke-linecap:square;stroke-width:1.5;"/>
   </g>
   <g id="line2d_14">
    <path clip-path="url(#p745f1d2282)" d="M 62.998636 288.16355 
L 65.472279 286.189934 
L 67.945921 270.030952 
L 70.419564 262.013136 
L 72.893206 246.216498 
L 75.366849 240.796763 
L 77.840491 216.234493 
L 80.314134 198.85742 
L 82.787776 177.980262 
L 85.261419 160.263973 
L 87.735061 151.028067 
L 90.208703 127.313835 
L 92.682346 102.026879 
L 95.155988 113.005118 
L 97.629631 107.176783 
L 100.103273 104.740601 
L 102.576916 103.507091 
L 105.050558 82.753283 
L 107.524201 80.070399 
L 109.997843 87.47146 
L 112.471486 90.493559 
L 114.945128 88.088215 
L 117.418771 80.563803 
L 119.892413 80.070399 
L 122.366056 88.42743 
L 124.839698 77.356677 
L 127.31334 82.044015 
L 129.786983 78.127621 
L 132.260625 69.708914 
L 134.734268 77.72673 
L 137.20791 68.475404 
L 139.681553 72.391799 
L 142.155195 70.603209 
L 144.628838 66.871841 
L 147.10248 66.625139 
L 149.576123 72.422637 
L 152.049765 72.885203 
L 154.523408 78.806051 
L 156.99705 70.202318 
L 159.470692 68.506242 
L 161.944335 63.541364 
L 164.417977 60.550102 
L 166.89162 72.145097 
L 169.365262 67.272732 
L 171.838905 68.382891 
L 174.312547 67.889487 
L 176.78619 71.219964 
L 179.259832 62.061152 
L 181.733475 58.699837 
L 184.207117 58.083082 
L 186.68076 56.664545 
L 189.154402 65.175765 
L 191.628045 61.53691 
L 194.101687 59.008214 
L 196.575329 64.898225 
L 199.048972 59.008214 
L 201.522614 57.373814 
L 203.996257 54.690929 
L 206.469899 55.924439 
L 208.943542 54.875956 
L 211.417184 54.937631 
L 213.890827 55.862764 
L 216.364469 51.977207 
L 218.838112 56.356168 
L 221.311754 54.906793 
L 223.785397 54.721767 
L 226.259039 51.483803 
L 228.732682 55.431035 
L 231.206324 52.408935 
L 233.679966 52.008045 
L 236.153609 54.012499 
L 238.627251 51.514641 
L 241.100894 54.351714 
L 243.574536 49.756889 
L 246.048179 47.505733 
L 248.521821 50.034429 
L 250.995464 49.88024 
L 253.469106 50.990399 
L 255.942749 47.875786 
L 258.416391 47.968299 
L 260.890034 46.056359 
L 263.363676 51.329614 
L 265.837318 43.373474 
L 268.310961 49.386836 
L 270.784603 49.818564 
L 273.258246 45.963845 
L 275.731888 49.818564 
L 278.205531 45.100388 
L 280.679173 46.765627 
L 283.152816 44.267769 
L 285.626458 43.095934 
L 288.100101 44.082742 
L 290.573743 43.126772 
L 293.047386 44.884524 
L 297.994671 40.320537 
L 300.468313 44.39112 
L 302.941955 38.902 
L 305.415598 41.954937 
L 307.88924 39.056189 
L 310.362883 38.439434 
L 312.836525 39.210378 
L 315.310168 42.201639 
L 317.78381 37.144248 
L 320.257453 40.228023 
L 322.731095 40.628914 
L 325.204738 40.012159 
L 327.67838 38.007705 
L 332.625665 41.09148 
L 335.099308 38.131056 
L 337.57295 38.192732 
L 340.046592 35.540685 
L 342.520235 36.527493 
L 344.993877 37.699328 
L 347.46752 35.47901 
L 349.941162 34.615552 
L 352.414805 34.399688 
L 354.888447 33.844609 
L 357.36209 33.844609 
L 359.835732 33.96796 
L 362.309375 30.822509 
L 364.783017 31.624291 
L 367.25666 33.166178 
L 369.730302 31.161724 
L 377.151229 29.959052 
L 379.624872 32.611099 
L 382.098514 31.439264 
L 384.572157 29.188108 
L 387.045799 29.835701 
L 389.519442 30.976698 
L 391.993084 29.403972 
L 394.466727 30.051565 
L 396.940369 30.483294 
L 399.414012 30.544969 
L 401.887654 29.373135 
L 404.361297 29.866539 
L 406.834939 29.71235 
L 409.308581 29.15727 
L 411.782224 29.928214 
L 414.255866 29.650674 
L 416.729509 29.650674 
L 419.203151 29.15727 
L 424.150436 29.218946 
L 426.624079 28.47884 
L 429.097721 29.003082 
L 431.571364 29.311459 
L 431.571364 29.311459 
" style="fill:none;stroke:#ff7f0e;stroke-linecap:square;stroke-width:1.5;"/>
   </g>
   <g id="line2d_15">
    <path clip-path="url(#p745f1d2282)" d="M 62.998636 287.916848 
L 65.472279 285.943232 
L 67.945921 267.687283 
L 70.419564 256.955745 
L 72.893206 250.287081 
L 75.366849 235.006975 
L 77.840491 209.218905 
L 80.314134 186.522319 
L 82.787776 180.231418 
L 85.261419 142.33182 
L 87.735061 129.133263 
L 90.208703 120.437017 
L 92.682346 102.797822 
L 95.155988 107.608512 
L 97.629631 91.357016 
L 100.103273 111.925797 
L 102.576916 102.520283 
L 105.050558 79.576995 
L 107.524201 82.66077 
L 109.997843 83.154174 
L 112.471486 79.422806 
L 114.945128 87.348109 
L 117.418771 89.075023 
L 119.892413 85.12779 
L 122.366056 83.740092 
L 124.839698 80.594641 
L 127.31334 75.753114 
L 129.786983 74.642955 
L 132.260625 72.669339 
L 134.734268 73.378607 
L 137.20791 73.19358 
L 142.155195 70.109805 
L 144.628838 69.585563 
L 147.10248 68.352053 
L 149.576123 71.189126 
L 152.049765 81.673962 
L 154.523408 81.643124 
L 156.99705 73.532796 
L 159.470692 69.061322 
L 161.944335 58.761512 
L 164.417977 61.937801 
L 166.89162 68.598755 
L 169.365262 66.347599 
L 171.838905 66.594301 
L 174.312547 63.911417 
L 176.78619 63.603039 
L 179.259832 59.378267 
L 181.733475 60.796804 
L 184.207117 56.417843 
L 186.68076 55.924439 
L 189.154402 57.713029 
L 191.628045 62.431205 
L 194.101687 62.338692 
L 196.575329 63.04796 
L 199.048972 59.100728 
L 201.522614 56.849572 
L 203.996257 54.444227 
L 206.469899 56.541194 
L 208.943542 51.576316 
L 211.417184 62.924609 
L 213.890827 57.373814 
L 216.364469 50.373644 
L 218.838112 56.448681 
L 221.311754 55.739413 
L 223.785397 49.417673 
L 226.259039 51.514641 
L 228.732682 56.633707 
L 231.206324 55.215171 
L 233.679966 53.981661 
L 238.627251 50.682021 
L 241.100894 54.567578 
L 243.574536 53.919985 
L 246.048179 44.761173 
L 248.521821 48.985945 
L 250.995464 51.267939 
L 253.469106 49.170971 
L 255.942749 52.038882 
L 258.416391 48.184163 
L 260.890034 47.41322 
L 263.363676 49.232647 
L 265.837318 47.043167 
L 268.310961 44.637822 
L 270.784603 45.871332 
L 273.258246 47.289869 
L 275.731888 47.259031 
L 278.205531 48.739243 
L 280.679173 43.589338 
L 283.152816 46.364736 
L 285.626458 44.082742 
L 288.100101 42.60253 
L 290.573743 40.443888 
L 293.047386 46.5806 
L 295.521028 42.941746 
L 297.994671 42.448342 
L 300.468313 41.769911 
L 302.941955 40.320537 
L 305.415598 43.373474 
L 307.88924 40.104672 
L 310.362883 38.747811 
L 312.836525 41.584884 
L 315.310168 37.915192 
L 317.78381 39.888808 
L 320.257453 42.695044 
L 322.731095 37.730165 
L 325.204738 39.518755 
L 327.67838 36.805033 
L 330.152023 38.747811 
L 332.625665 38.069381 
L 335.099308 41.461533 
L 337.57295 38.377758 
L 340.046592 38.285245 
L 342.520235 36.959222 
L 347.46752 37.452626 
L 349.941162 36.496655 
L 352.414805 37.020897 
L 354.888447 34.831417 
L 357.36209 33.597907 
L 359.835732 35.232308 
L 362.309375 33.659582 
L 364.783017 34.738903 
L 367.25666 33.258691 
L 369.730302 34.214662 
L 372.203944 31.747642 
L 374.677587 29.527323 
L 377.151229 32.981152 
L 379.624872 30.205754 
L 382.098514 29.897376 
L 384.572157 31.2234 
L 387.045799 31.470102 
L 389.519442 31.470102 
L 391.993084 31.192562 
L 394.466727 31.470102 
L 396.940369 30.514131 
L 399.414012 30.575807 
L 401.887654 31.038373 
L 404.361297 30.421618 
L 409.308581 29.98989 
L 411.782224 29.496486 
L 414.255866 30.329105 
L 416.729509 30.329105 
L 419.203151 29.465648 
L 421.676794 30.174916 
L 424.150436 30.082403 
L 426.624079 29.527323 
L 429.097721 29.743188 
L 431.571364 30.637482 
L 431.571364 30.637482 
" style="fill:none;stroke:#2ca02c;stroke-linecap:square;stroke-width:1.5;"/>
   </g>
   <g id="line2d_16">
    <path clip-path="url(#p745f1d2282)" d="M 62.998636 288.903656 
L 65.472279 284.833073 
L 67.945921 265.096911 
L 70.419564 256.955745 
L 72.893206 244.489584 
L 75.366849 235.245967 
L 77.840491 203.79146 
L 80.314134 190.855023 
L 82.787776 175.66743 
L 85.261419 154.82111 
L 87.735061 139.124694 
L 90.208703 125.001004 
L 92.682346 115.379625 
L 95.155988 113.621873 
L 97.629631 101.625988 
L 100.103273 105.696571 
L 102.576916 108.718671 
L 105.050558 84.387684 
L 107.524201 84.295171 
L 109.997843 85.220304 
L 112.471486 85.867896 
L 114.945128 93.392308 
L 117.418771 88.119052 
L 119.892413 90.89445 
L 122.366056 87.810675 
L 124.839698 83.89428 
L 127.31334 83.030823 
L 129.786983 78.00427 
L 132.260625 70.911587 
L 134.734268 73.872011 
L 137.20791 73.409445 
L 139.681553 74.519604 
L 142.155195 66.008384 
L 144.628838 69.092159 
L 147.10248 68.968808 
L 149.576123 69.647239 
L 152.049765 75.845627 
L 154.523408 76.462382 
L 156.99705 68.722106 
L 159.470692 67.457758 
L 161.944335 64.034768 
L 164.417977 64.034768 
L 166.89162 65.730844 
L 169.365262 62.184503 
L 171.838905 68.25954 
L 174.312547 76.616571 
L 179.259832 62.431205 
L 181.733475 56.32533 
L 184.207117 57.959731 
L 186.68076 60.796804 
L 189.154402 58.823188 
L 191.628045 62.554556 
L 194.101687 60.272562 
L 196.575329 62.677907 
L 199.048972 55.893601 
L 201.522614 61.074344 
L 203.996257 56.695383 
L 206.469899 52.871502 
L 208.943542 56.356168 
L 211.417184 62.061152 
L 213.890827 60.889317 
L 216.364469 58.021406 
L 218.838112 54.875956 
L 221.311754 56.016952 
L 223.785397 51.082912 
L 226.259039 51.607154 
L 228.732682 55.030144 
L 231.206324 55.307684 
L 233.679966 52.34726 
L 236.153609 48.430865 
L 238.627251 55.461873 
L 241.100894 53.519095 
L 243.574536 50.712859 
L 246.048179 50.589508 
L 248.521821 57.898055 
L 250.995464 48.523379 
L 253.469106 50.373644 
L 255.942749 48.307514 
L 258.416391 47.474895 
L 260.890034 44.421958 
L 263.363676 47.906624 
L 265.837318 49.232647 
L 268.310961 44.360282 
L 270.784603 48.554216 
L 273.258246 48.400028 
L 275.731888 48.09165 
L 278.205531 44.576146 
L 280.679173 42.725881 
L 283.152816 43.805203 
L 285.626458 42.109126 
L 288.100101 42.386666 
L 290.573743 43.959391 
L 293.047386 43.15761 
L 295.521028 42.078288 
L 297.994671 45.223739 
L 300.468313 44.915362 
L 302.941955 42.633368 
L 305.415598 41.985775 
L 307.88924 43.404312 
L 310.362883 38.840325 
L 312.836525 41.276507 
L 315.310168 40.628914 
L 317.78381 39.827133 
L 320.257453 40.937292 
L 322.731095 40.258861 
L 325.204738 38.223569 
L 327.67838 36.805033 
L 330.152023 37.730165 
L 332.625665 39.426242 
L 337.57295 36.064927 
L 340.046592 35.910738 
L 342.520235 38.161894 
L 344.993877 35.633198 
L 347.46752 36.249953 
L 349.941162 33.567069 
L 352.414805 33.505393 
L 354.888447 34.060473 
L 357.36209 30.853347 
L 362.309375 32.981152 
L 364.783017 31.963506 
L 367.25666 32.518585 
L 369.730302 31.069211 
L 372.203944 30.606645 
L 374.677587 31.130887 
L 377.151229 31.870993 
L 379.624872 32.364397 
L 382.098514 29.558161 
L 387.045799 30.760833 
L 389.519442 30.606645 
L 391.993084 28.972244 
L 394.466727 29.619837 
L 396.940369 29.403972 
L 399.414012 28.170462 
L 401.887654 28.910568 
L 404.361297 28.355489 
L 406.834939 28.787217 
L 409.308581 28.540515 
L 411.782224 28.602191 
L 414.255866 28.047111 
L 416.729509 29.033919 
L 419.203151 28.170462 
L 421.676794 27.954598 
L 429.097721 28.879731 
L 431.571364 28.232138 
L 431.571364 28.232138 
" style="fill:none;stroke:#d62728;stroke-linecap:square;stroke-width:1.5;"/>
   </g>
   <g id="line2d_17">
    <path clip-path="url(#p745f1d2282)" d="M 62.998636 288.286901 
L 65.472279 280.76249 
L 67.945921 272.868025 
L 70.419564 263.986752 
L 72.893206 251.528301 
L 75.366849 242.770379 
L 77.840491 221.554006 
L 80.314134 196.883804 
L 82.787776 175.297377 
L 85.261419 155.869594 
L 87.735061 138.014535 
L 90.208703 122.657335 
L 92.682346 119.141831 
L 95.155988 114.48533 
L 97.629631 111.247366 
L 100.103273 96.969487 
L 102.576916 103.877144 
L 105.050558 81.303909 
L 107.524201 80.74883 
L 109.997843 93.392308 
L 112.471486 92.652202 
L 114.945128 90.801937 
L 117.418771 84.757737 
L 119.892413 86.083761 
L 122.366056 80.409614 
L 124.839698 73.686984 
L 127.31334 82.444906 
L 129.786983 79.083591 
L 132.260625 74.889657 
L 134.734268 69.092159 
L 137.20791 71.836719 
L 139.681553 78.096783 
L 142.155195 74.0262 
L 144.628838 65.021576 
L 147.10248 64.497334 
L 149.576123 66.841003 
L 152.049765 78.466836 
L 154.523408 70.202318 
L 156.99705 65.915871 
L 159.470692 66.008384 
L 161.944335 62.462043 
L 164.417977 63.664715 
L 166.89162 66.501788 
L 169.365262 63.818904 
L 171.838905 71.189126 
L 174.312547 73.008554 
L 176.78619 71.435828 
L 179.259832 64.774874 
L 181.733475 67.858649 
L 184.207117 61.721937 
L 186.68076 55.246009 
L 189.154402 59.254916 
L 191.628045 58.699837 
L 194.101687 55.060982 
L 196.575329 60.765966 
L 199.048972 54.259201 
L 201.522614 58.884863 
L 203.996257 55.461873 
L 206.469899 56.448681 
L 208.943542 55.77025 
L 211.417184 64.034768 
L 213.890827 54.13585 
L 216.364469 55.492711 
L 218.838112 58.268108 
L 221.311754 57.651353 
L 223.785397 51.915531 
L 226.259039 47.444057 
L 228.732682 50.311968 
L 231.206324 53.58077 
L 233.679966 52.06972 
L 236.153609 53.426581 
L 238.627251 55.153495 
L 241.100894 50.990399 
L 243.574536 52.193071 
L 246.048179 47.320706 
L 248.521821 54.629254 
L 250.995464 47.166518 
L 253.469106 48.153326 
L 255.942749 50.589508 
L 258.416391 46.364736 
L 260.890034 46.148872 
L 263.363676 48.64673 
L 265.837318 46.272223 
L 268.310961 46.395574 
L 270.784603 47.012329 
L 273.258246 47.937461 
L 275.731888 49.355998 
L 278.205531 44.206093 
L 280.679173 45.933008 
L 283.152816 44.977037 
L 285.626458 48.276677 
L 288.100101 41.060643 
L 290.573743 43.620176 
L 293.047386 45.285415 
L 295.521028 40.998967 
L 297.994671 42.633368 
L 300.468313 39.580431 
L 302.941955 41.307345 
L 305.415598 36.620006 
L 307.88924 39.272053 
L 310.362883 42.294153 
L 312.836525 39.827133 
L 315.310168 39.672944 
L 317.78381 39.364566 
L 320.257453 38.34692 
L 322.731095 40.073835 
L 325.204738 39.056189 
L 327.67838 36.589169 
L 330.152023 38.192732 
L 332.625665 38.531947 
L 335.099308 39.518755 
L 337.57295 40.659752 
L 340.046592 36.496655 
L 344.993877 35.170632 
L 347.46752 34.183824 
L 349.941162 32.826963 
L 352.414805 35.170632 
L 354.888447 32.672774 
L 357.36209 35.139794 
L 359.835732 34.307175 
L 364.783017 31.747642 
L 367.25666 31.963506 
L 369.730302 34.36885 
L 372.203944 31.2234 
L 374.677587 31.963506 
L 377.151229 29.928214 
L 379.624872 31.254238 
L 382.098514 29.681512 
L 384.572157 29.588999 
L 387.045799 30.298267 
L 389.519442 30.791671 
L 391.993084 29.43481 
L 394.466727 28.818055 
L 396.940369 28.509678 
L 399.414012 27.368681 
L 401.887654 27.368681 
L 404.361297 27.769572 
L 409.308581 27.954598 
L 411.782224 28.663866 
L 416.729509 27.276167 
L 419.203151 27.276167 
L 421.676794 28.2013 
L 424.150436 27.892923 
L 426.624079 27.800409 
L 429.097721 28.047111 
L 431.571364 27.707896 
L 431.571364 27.707896 
" style="fill:none;stroke:#9467bd;stroke-linecap:square;stroke-width:1.5;"/>
   </g>
   <g id="patch_3">
    <path d="M 44.57 303.64 
L 44.57 10.8 
" style="fill:none;stroke:#000000;stroke-linecap:square;stroke-linejoin:miter;stroke-width:0.8;"/>
   </g>
   <g id="patch_4">
    <path d="M 450 303.64 
L 450 10.8 
" style="fill:none;stroke:#000000;stroke-linecap:square;stroke-linejoin:miter;stroke-width:0.8;"/>
   </g>
   <g id="patch_5">
    <path d="M 44.57 303.64 
L 450 303.64 
" style="fill:none;stroke:#000000;stroke-linecap:square;stroke-linejoin:miter;stroke-width:0.8;"/>
   </g>
   <g id="patch_6">
    <path d="M 44.57 10.8 
L 450 10.8 
" style="fill:none;stroke:#000000;stroke-linecap:square;stroke-linejoin:miter;stroke-width:0.8;"/>
   </g>
   <g id="legend_1">
    <g id="patch_7">
     <path d="M 282.65625 298.64 
L 443 298.64 
Q 445 298.64 445 296.64 
L 445 224.249375 
Q 445 222.249375 443 222.249375 
L 282.65625 222.249375 
Q 280.65625 222.249375 280.65625 224.249375 
L 280.65625 296.64 
Q 280.65625 298.64 282.65625 298.64 
z
" style="fill:#ffffff;opacity:0.8;stroke:#cccccc;stroke-linejoin:miter;"/>
    </g>
    <g id="line2d_18">
     <path d="M 284.65625 230.347812 
L 304.65625 230.347812 
" style="fill:none;stroke:#1f77b4;stroke-linecap:square;stroke-width:1.5;"/>
    </g>
    <g id="line2d_19"/>
    <g id="text_15">
     <!-- AllReduce SGD -->
     <g transform="translate(312.65625 233.847812)scale(0.1 -0.1)">
      <defs>
       <path d="M 9.421875 75.984375 
L 18.40625 75.984375 
L 18.40625 0 
L 9.421875 0 
z
" id="DejaVuSans-108"/>
       <path d="M 44.390625 34.1875 
Q 47.5625 33.109375 50.5625 29.59375 
Q 53.5625 26.078125 56.59375 19.921875 
L 66.609375 0 
L 56 0 
L 46.6875 18.703125 
Q 43.0625 26.03125 39.671875 28.421875 
Q 36.28125 30.8125 30.421875 30.8125 
L 19.671875 30.8125 
L 19.671875 0 
L 9.8125 0 
L 9.8125 72.90625 
L 32.078125 72.90625 
Q 44.578125 72.90625 50.734375 67.671875 
Q 56.890625 62.453125 56.890625 51.90625 
Q 56.890625 45.015625 53.6875 40.46875 
Q 50.484375 35.9375 44.390625 34.1875 
z
M 19.671875 64.796875 
L 19.671875 38.921875 
L 32.078125 38.921875 
Q 39.203125 38.921875 42.84375 42.21875 
Q 46.484375 45.515625 46.484375 51.90625 
Q 46.484375 58.296875 42.84375 61.546875 
Q 39.203125 64.796875 32.078125 64.796875 
z
" id="DejaVuSans-82"/>
       <path d="M 45.40625 46.390625 
L 45.40625 75.984375 
L 54.390625 75.984375 
L 54.390625 0 
L 45.40625 0 
L 45.40625 8.203125 
Q 42.578125 3.328125 38.25 0.953125 
Q 33.9375 -1.421875 27.875 -1.421875 
Q 17.96875 -1.421875 11.734375 6.484375 
Q 5.515625 14.40625 5.515625 27.296875 
Q 5.515625 40.1875 11.734375 48.09375 
Q 17.96875 56 27.875 56 
Q 33.9375 56 38.25 53.625 
Q 42.578125 51.265625 45.40625 46.390625 
z
M 14.796875 27.296875 
Q 14.796875 17.390625 18.875 11.75 
Q 22.953125 6.109375 30.078125 6.109375 
Q 37.203125 6.109375 41.296875 11.75 
Q 45.40625 17.390625 45.40625 27.296875 
Q 45.40625 37.203125 41.296875 42.84375 
Q 37.203125 48.484375 30.078125 48.484375 
Q 22.953125 48.484375 18.875 42.84375 
Q 14.796875 37.203125 14.796875 27.296875 
z
" id="DejaVuSans-100"/>
       <path d="M 53.515625 70.515625 
L 53.515625 60.890625 
Q 47.90625 63.578125 42.921875 64.890625 
Q 37.9375 66.21875 33.296875 66.21875 
Q 25.25 66.21875 20.875 63.09375 
Q 16.5 59.96875 16.5 54.203125 
Q 16.5 49.359375 19.40625 46.890625 
Q 22.3125 44.4375 30.421875 42.921875 
L 36.375 41.703125 
Q 47.40625 39.59375 52.65625 34.296875 
Q 57.90625 29 57.90625 20.125 
Q 57.90625 9.515625 50.796875 4.046875 
Q 43.703125 -1.421875 29.984375 -1.421875 
Q 24.8125 -1.421875 18.96875 -0.25 
Q 13.140625 0.921875 6.890625 3.21875 
L 6.890625 13.375 
Q 12.890625 10.015625 18.65625 8.296875 
Q 24.421875 6.59375 29.984375 6.59375 
Q 38.421875 6.59375 43.015625 9.90625 
Q 47.609375 13.234375 47.609375 19.390625 
Q 47.609375 24.75 44.3125 27.78125 
Q 41.015625 30.8125 33.5 32.328125 
L 27.484375 33.5 
Q 16.453125 35.6875 11.515625 40.375 
Q 6.59375 45.0625 6.59375 53.421875 
Q 6.59375 63.09375 13.40625 68.65625 
Q 20.21875 74.21875 32.171875 74.21875 
Q 37.3125 74.21875 42.625 73.28125 
Q 47.953125 72.359375 53.515625 70.515625 
z
" id="DejaVuSans-83"/>
       <path d="M 59.515625 10.40625 
L 59.515625 29.984375 
L 43.40625 29.984375 
L 43.40625 38.09375 
L 69.28125 38.09375 
L 69.28125 6.78125 
Q 63.578125 2.734375 56.6875 0.65625 
Q 49.8125 -1.421875 42 -1.421875 
Q 24.90625 -1.421875 15.25 8.5625 
Q 5.609375 18.5625 5.609375 36.375 
Q 5.609375 54.25 15.25 64.234375 
Q 24.90625 74.21875 42 74.21875 
Q 49.125 74.21875 55.546875 72.453125 
Q 61.96875 70.703125 67.390625 67.28125 
L 67.390625 56.78125 
Q 61.921875 61.421875 55.765625 63.765625 
Q 49.609375 66.109375 42.828125 66.109375 
Q 29.4375 66.109375 22.71875 58.640625 
Q 16.015625 51.171875 16.015625 36.375 
Q 16.015625 21.625 22.71875 14.15625 
Q 29.4375 6.6875 42.828125 6.6875 
Q 48.046875 6.6875 52.140625 7.59375 
Q 56.25 8.5 59.515625 10.40625 
z
" id="DejaVuSans-71"/>
       <path d="M 19.671875 64.796875 
L 19.671875 8.109375 
L 31.59375 8.109375 
Q 46.6875 8.109375 53.6875 14.9375 
Q 60.6875 21.78125 60.6875 36.53125 
Q 60.6875 51.171875 53.6875 57.984375 
Q 46.6875 64.796875 31.59375 64.796875 
z
M 9.8125 72.90625 
L 30.078125 72.90625 
Q 51.265625 72.90625 61.171875 64.09375 
Q 71.09375 55.28125 71.09375 36.53125 
Q 71.09375 17.671875 61.125 8.828125 
Q 51.171875 0 30.078125 0 
L 9.8125 0 
z
" id="DejaVuSans-68"/>
      </defs>
      <use xlink:href="#DejaVuSans-65"/>
      <use x="68.408203" xlink:href="#DejaVuSans-108"/>
      <use x="96.191406" xlink:href="#DejaVuSans-108"/>
      <use x="123.974609" xlink:href="#DejaVuSans-82"/>
      <use x="188.957031" xlink:href="#DejaVuSans-101"/>
      <use x="250.480469" xlink:href="#DejaVuSans-100"/>
      <use x="313.957031" xlink:href="#DejaVuSans-117"/>
      <use x="377.335938" xlink:href="#DejaVuSans-99"/>
      <use x="432.316406" xlink:href="#DejaVuSans-101"/>
      <use x="493.839844" xlink:href="#DejaVuSans-32"/>
      <use x="525.626953" xlink:href="#DejaVuSans-83"/>
      <use x="589.103516" xlink:href="#DejaVuSans-71"/>
      <use x="666.59375" xlink:href="#DejaVuSans-68"/>
     </g>
    </g>
    <g id="line2d_20">
     <path d="M 284.65625 245.025937 
L 304.65625 245.025937 
" style="fill:none;stroke:#ff7f0e;stroke-linecap:square;stroke-width:1.5;"/>
    </g>
    <g id="line2d_21"/>
    <g id="text_16">
     <!-- GRandK-MN-TS (8,12) bits -->
     <g transform="translate(312.65625 248.525937)scale(0.1 -0.1)">
      <defs>
       <path d="M 54.890625 33.015625 
L 54.890625 0 
L 45.90625 0 
L 45.90625 32.71875 
Q 45.90625 40.484375 42.875 44.328125 
Q 39.84375 48.1875 33.796875 48.1875 
Q 26.515625 48.1875 22.3125 43.546875 
Q 18.109375 38.921875 18.109375 30.90625 
L 18.109375 0 
L 9.078125 0 
L 9.078125 54.6875 
L 18.109375 54.6875 
L 18.109375 46.1875 
Q 21.34375 51.125 25.703125 53.5625 
Q 30.078125 56 35.796875 56 
Q 45.21875 56 50.046875 50.171875 
Q 54.890625 44.34375 54.890625 33.015625 
z
" id="DejaVuSans-110"/>
       <path d="M 9.8125 72.90625 
L 19.671875 72.90625 
L 19.671875 42.09375 
L 52.390625 72.90625 
L 65.09375 72.90625 
L 28.90625 38.921875 
L 67.671875 0 
L 54.6875 0 
L 19.671875 35.109375 
L 19.671875 0 
L 9.8125 0 
z
" id="DejaVuSans-75"/>
       <path d="M 4.890625 31.390625 
L 31.203125 31.390625 
L 31.203125 23.390625 
L 4.890625 23.390625 
z
" id="DejaVuSans-45"/>
       <path d="M 9.8125 72.90625 
L 24.515625 72.90625 
L 43.109375 23.296875 
L 61.8125 72.90625 
L 76.515625 72.90625 
L 76.515625 0 
L 66.890625 0 
L 66.890625 64.015625 
L 48.09375 14.015625 
L 38.1875 14.015625 
L 19.390625 64.015625 
L 19.390625 0 
L 9.8125 0 
z
" id="DejaVuSans-77"/>
       <path d="M 9.8125 72.90625 
L 23.09375 72.90625 
L 55.421875 11.921875 
L 55.421875 72.90625 
L 64.984375 72.90625 
L 64.984375 0 
L 51.703125 0 
L 19.390625 60.984375 
L 19.390625 0 
L 9.8125 0 
z
" id="DejaVuSans-78"/>
       <path d="M 11.71875 12.40625 
L 22.015625 12.40625 
L 22.015625 4 
L 14.015625 -11.625 
L 7.71875 -11.625 
L 11.71875 4 
z
" id="DejaVuSans-44"/>
       <path d="M 48.6875 27.296875 
Q 48.6875 37.203125 44.609375 42.84375 
Q 40.53125 48.484375 33.40625 48.484375 
Q 26.265625 48.484375 22.1875 42.84375 
Q 18.109375 37.203125 18.109375 27.296875 
Q 18.109375 17.390625 22.1875 11.75 
Q 26.265625 6.109375 33.40625 6.109375 
Q 40.53125 6.109375 44.609375 11.75 
Q 48.6875 17.390625 48.6875 27.296875 
z
M 18.109375 46.390625 
Q 20.953125 51.265625 25.265625 53.625 
Q 29.59375 56 35.59375 56 
Q 45.5625 56 51.78125 48.09375 
Q 58.015625 40.1875 58.015625 27.296875 
Q 58.015625 14.40625 51.78125 6.484375 
Q 45.5625 -1.421875 35.59375 -1.421875 
Q 29.59375 -1.421875 25.265625 0.953125 
Q 20.953125 3.328125 18.109375 8.203125 
L 18.109375 0 
L 9.078125 0 
L 9.078125 75.984375 
L 18.109375 75.984375 
z
" id="DejaVuSans-98"/>
       <path d="M 9.421875 54.6875 
L 18.40625 54.6875 
L 18.40625 0 
L 9.421875 0 
z
M 9.421875 75.984375 
L 18.40625 75.984375 
L 18.40625 64.59375 
L 9.421875 64.59375 
z
" id="DejaVuSans-105"/>
      </defs>
      <use xlink:href="#DejaVuSans-71"/>
      <use x="77.490234" xlink:href="#DejaVuSans-82"/>
      <use x="144.722656" xlink:href="#DejaVuSans-97"/>
      <use x="206.001953" xlink:href="#DejaVuSans-110"/>
      <use x="269.380859" xlink:href="#DejaVuSans-100"/>
      <use x="332.857422" xlink:href="#DejaVuSans-75"/>
      <use x="387.933594" xlink:href="#DejaVuSans-45"/>
      <use x="424.017578" xlink:href="#DejaVuSans-77"/>
      <use x="510.296875" xlink:href="#DejaVuSans-78"/>
      <use x="585.101562" xlink:href="#DejaVuSans-45"/>
      <use x="612.060547" xlink:href="#DejaVuSans-84"/>
      <use x="673.144531" xlink:href="#DejaVuSans-83"/>
      <use x="736.621094" xlink:href="#DejaVuSans-32"/>
      <use x="768.408203" xlink:href="#DejaVuSans-40"/>
      <use x="807.421875" xlink:href="#DejaVuSans-56"/>
      <use x="871.044922" xlink:href="#DejaVuSans-44"/>
      <use x="902.832031" xlink:href="#DejaVuSans-49"/>
      <use x="966.455078" xlink:href="#DejaVuSans-50"/>
      <use x="1030.078125" xlink:href="#DejaVuSans-41"/>
      <use x="1069.091797" xlink:href="#DejaVuSans-32"/>
      <use x="1100.878906" xlink:href="#DejaVuSans-98"/>
      <use x="1164.355469" xlink:href="#DejaVuSans-105"/>
      <use x="1192.138672" xlink:href="#DejaVuSans-116"/>
      <use x="1231.347656" xlink:href="#DejaVuSans-115"/>
     </g>
    </g>
    <g id="line2d_22">
     <path d="M 284.65625 259.704062 
L 304.65625 259.704062 
" style="fill:none;stroke:#2ca02c;stroke-linecap:square;stroke-width:1.5;"/>
    </g>
    <g id="line2d_23"/>
    <g id="text_17">
     <!-- GRandK-MN-TS (6,10) bits -->
     <g transform="translate(312.65625 263.204062)scale(0.1 -0.1)">
      <use xlink:href="#DejaVuSans-71"/>
      <use x="77.490234" xlink:href="#DejaVuSans-82"/>
      <use x="144.722656" xlink:href="#DejaVuSans-97"/>
      <use x="206.001953" xlink:href="#DejaVuSans-110"/>
      <use x="269.380859" xlink:href="#DejaVuSans-100"/>
      <use x="332.857422" xlink:href="#DejaVuSans-75"/>
      <use x="387.933594" xlink:href="#DejaVuSans-45"/>
      <use x="424.017578" xlink:href="#DejaVuSans-77"/>
      <use x="510.296875" xlink:href="#DejaVuSans-78"/>
      <use x="585.101562" xlink:href="#DejaVuSans-45"/>
      <use x="612.060547" xlink:href="#DejaVuSans-84"/>
      <use x="673.144531" xlink:href="#DejaVuSans-83"/>
      <use x="736.621094" xlink:href="#DejaVuSans-32"/>
      <use x="768.408203" xlink:href="#DejaVuSans-40"/>
      <use x="807.421875" xlink:href="#DejaVuSans-54"/>
      <use x="871.044922" xlink:href="#DejaVuSans-44"/>
      <use x="902.832031" xlink:href="#DejaVuSans-49"/>
      <use x="966.455078" xlink:href="#DejaVuSans-48"/>
      <use x="1030.078125" xlink:href="#DejaVuSans-41"/>
      <use x="1069.091797" xlink:href="#DejaVuSans-32"/>
      <use x="1100.878906" xlink:href="#DejaVuSans-98"/>
      <use x="1164.355469" xlink:href="#DejaVuSans-105"/>
      <use x="1192.138672" xlink:href="#DejaVuSans-116"/>
      <use x="1231.347656" xlink:href="#DejaVuSans-115"/>
     </g>
    </g>
    <g id="line2d_24">
     <path d="M 284.65625 274.382187 
L 304.65625 274.382187 
" style="fill:none;stroke:#d62728;stroke-linecap:square;stroke-width:1.5;"/>
    </g>
    <g id="line2d_25"/>
    <g id="text_18">
     <!-- GRandK-MN-TS (4,8) bits -->
     <g transform="translate(312.65625 277.882187)scale(0.1 -0.1)">
      <use xlink:href="#DejaVuSans-71"/>
      <use x="77.490234" xlink:href="#DejaVuSans-82"/>
      <use x="144.722656" xlink:href="#DejaVuSans-97"/>
      <use x="206.001953" xlink:href="#DejaVuSans-110"/>
      <use x="269.380859" xlink:href="#DejaVuSans-100"/>
      <use x="332.857422" xlink:href="#DejaVuSans-75"/>
      <use x="387.933594" xlink:href="#DejaVuSans-45"/>
      <use x="424.017578" xlink:href="#DejaVuSans-77"/>
      <use x="510.296875" xlink:href="#DejaVuSans-78"/>
      <use x="585.101562" xlink:href="#DejaVuSans-45"/>
      <use x="612.060547" xlink:href="#DejaVuSans-84"/>
      <use x="673.144531" xlink:href="#DejaVuSans-83"/>
      <use x="736.621094" xlink:href="#DejaVuSans-32"/>
      <use x="768.408203" xlink:href="#DejaVuSans-40"/>
      <use x="807.421875" xlink:href="#DejaVuSans-52"/>
      <use x="871.044922" xlink:href="#DejaVuSans-44"/>
      <use x="902.832031" xlink:href="#DejaVuSans-56"/>
      <use x="966.455078" xlink:href="#DejaVuSans-41"/>
      <use x="1005.46875" xlink:href="#DejaVuSans-32"/>
      <use x="1037.255859" xlink:href="#DejaVuSans-98"/>
      <use x="1100.732422" xlink:href="#DejaVuSans-105"/>
      <use x="1128.515625" xlink:href="#DejaVuSans-116"/>
      <use x="1167.724609" xlink:href="#DejaVuSans-115"/>
     </g>
    </g>
    <g id="line2d_26">
     <path d="M 284.65625 289.060312 
L 304.65625 289.060312 
" style="fill:none;stroke:#9467bd;stroke-linecap:square;stroke-width:1.5;"/>
    </g>
    <g id="line2d_27"/>
    <g id="text_19">
     <!-- GRandK-MN-TS (2,6) bits -->
     <g transform="translate(312.65625 292.560312)scale(0.1 -0.1)">
      <use xlink:href="#DejaVuSans-71"/>
      <use x="77.490234" xlink:href="#DejaVuSans-82"/>
      <use x="144.722656" xlink:href="#DejaVuSans-97"/>
      <use x="206.001953" xlink:href="#DejaVuSans-110"/>
      <use x="269.380859" xlink:href="#DejaVuSans-100"/>
      <use x="332.857422" xlink:href="#DejaVuSans-75"/>
      <use x="387.933594" xlink:href="#DejaVuSans-45"/>
      <use x="424.017578" xlink:href="#DejaVuSans-77"/>
      <use x="510.296875" xlink:href="#DejaVuSans-78"/>
      <use x="585.101562" xlink:href="#DejaVuSans-45"/>
      <use x="612.060547" xlink:href="#DejaVuSans-84"/>
      <use x="673.144531" xlink:href="#DejaVuSans-83"/>
      <use x="736.621094" xlink:href="#DejaVuSans-32"/>
      <use x="768.408203" xlink:href="#DejaVuSans-40"/>
      <use x="807.421875" xlink:href="#DejaVuSans-50"/>
      <use x="871.044922" xlink:href="#DejaVuSans-44"/>
      <use x="902.832031" xlink:href="#DejaVuSans-54"/>
      <use x="966.455078" xlink:href="#DejaVuSans-41"/>
      <use x="1005.46875" xlink:href="#DejaVuSans-32"/>
      <use x="1037.255859" xlink:href="#DejaVuSans-98"/>
      <use x="1100.732422" xlink:href="#DejaVuSans-105"/>
      <use x="1128.515625" xlink:href="#DejaVuSans-116"/>
      <use x="1167.724609" xlink:href="#DejaVuSans-115"/>
     </g>
    </g>
   </g>
  </g>
 </g>
 <defs>
  <clipPath id="p745f1d2282">
   <rect height="292.84" width="405.43" x="44.57" y="10.8"/>
  </clipPath>
 </defs>
</svg>
