<?xml version="1.0" encoding="utf-8" standalone="no"?>
<!DOCTYPE svg PUBLIC "-//W3C//DTD SVG 1.1//EN"
  "http://www.w3.org/Graphics/SVG/1.1/DTD/svg11.dtd">
<!-- Created with matplotlib (https://matplotlib.org/) -->
<svg height="345.6pt" version="1.1" viewBox="0 0 460.8 345.6" width="460.8pt" xmlns="http://www.w3.org/2000/svg" xmlns:xlink="http://www.w3.org/1999/xlink">
 <metadata>
  <rdf:RDF xmlns:cc="http://creativecommons.org/ns#" xmlns:dc="http://purl.org/dc/elements/1.1/" xmlns:rdf="http://www.w3.org/1999/02/22-rdf-syntax-ns#">
   <cc:Work>
    <dc:type rdf:resource="http://purl.org/dc/dcmitype/StillImage"/>
    <dc:date>2021-06-10T08:56:50.981921</dc:date>
    <dc:format>image/svg+xml</dc:format>
    <dc:creator>
     <cc:Agent>
      <dc:title>Matplotlib v3.3.1, https://matplotlib.org/</dc:title>
     </cc:Agent>
    </dc:creator>
   </cc:Work>
  </rdf:RDF>
 </metadata>
 <defs>
  <style type="text/css">*{stroke-linecap:butt;stroke-linejoin:round;}</style>
 </defs>
 <g id="figure_1">
  <g id="patch_1">
   <path d="M 0 345.6 
L 460.8 345.6 
L 460.8 0 
L 0 0 
z
" style="fill:#ffffff;"/>
  </g>
  <g id="axes_1">
   <g id="patch_2">
    <path d="M 44.57 303.64 
L 449.571552 303.64 
L 449.571552 10.8 
L 44.57 10.8 
z
" style="fill:#ffffff;"/>
   </g>
   <g id="PolyCollection_1">
    <path clip-path="url(#pf9839a6f20)" d="M 63.168674 272.455795 
L 63.168674 280.434613 
L 65.616598 266.805511 
L 68.144358 250.528356 
L 70.631043 240.01178 
L 73.126801 210.61694 
L 75.649521 171.396959 
L 78.146298 130.824146 
L 80.585379 122.57906 
L 83.00099 119.328099 
L 85.456614 90.93835 
L 87.856893 84.94247 
L 90.270586 96.018119 
L 92.735409 88.090777 
L 95.194397 81.840229 
L 97.677974 81.720967 
L 100.227471 68.40261 
L 102.724144 73.297505 
L 105.159062 67.381984 
L 107.609851 55.616856 
L 110.026712 74.371826 
L 112.547937 62.043481 
L 115.043605 65.653416 
L 117.454464 69.070601 
L 119.945863 71.490511 
L 122.389491 70.15096 
L 124.883377 59.736584 
L 127.346992 64.882198 
L 129.818564 59.714072 
L 132.24517 64.553345 
L 134.684914 54.089071 
L 137.137611 60.641109 
L 139.571458 60.76934 
L 142.044147 58.923713 
L 144.519917 58.07585 
L 146.95145 56.757822 
L 149.457788 60.885056 
L 151.933292 67.086854 
L 154.426798 68.271164 
L 156.915638 53.364395 
L 159.390391 66.137543 
L 161.960565 53.111847 
L 164.428604 50.805005 
L 166.888965 54.124418 
L 169.399394 54.294273 
L 171.847228 53.921229 
L 174.313731 51.501082 
L 176.745946 49.654209 
L 179.236258 53.737052 
L 181.659293 57.279289 
L 184.050872 53.501087 
L 186.508221 55.096128 
L 188.991196 57.788933 
L 191.424894 56.24804 
L 193.912027 55.376409 
L 196.330696 52.050393 
L 198.812549 48.320425 
L 201.228787 57.985639 
L 203.660147 63.79653 
L 206.120888 54.410504 
L 208.573263 43.230558 
L 211.084681 55.076723 
L 213.56169 51.267204 
L 215.997109 47.275991 
L 218.482275 48.437124 
L 220.96858 54.536253 
L 223.489004 56.352153 
L 225.944325 43.242796 
L 228.409615 52.594327 
L 230.855762 53.061665 
L 233.324999 46.520436 
L 235.78794 49.946538 
L 238.246327 51.659217 
L 240.686289 47.04179 
L 243.193275 50.988523 
L 245.648428 46.850937 
L 248.083143 49.675593 
L 250.520188 48.670727 
L 252.970336 45.813486 
L 255.450744 44.939841 
L 257.933294 44.792795 
L 260.454012 43.721724 
L 262.97203 43.155273 
L 265.440802 45.949355 
L 267.888615 46.97961 
L 270.417947 43.543035 
L 272.899513 49.181494 
L 275.364893 41.934168 
L 277.749095 42.826322 
L 280.215518 40.312443 
L 282.729961 43.049062 
L 285.207383 42.149014 
L 287.691193 47.245408 
L 290.213845 40.807247 
L 292.662921 44.515697 
L 295.096759 38.008489 
L 297.520954 39.406873 
L 299.947277 40.695405 
L 302.410105 38.645357 
L 304.947176 41.331438 
L 307.408415 39.181782 
L 309.866294 41.941718 
L 312.37052 38.719664 
L 314.858861 39.44135 
L 317.330565 36.10074 
L 319.790681 44.932744 
L 322.279529 38.174265 
L 324.816456 35.323256 
L 327.35548 36.789564 
L 329.857447 36.749176 
L 332.309228 34.509939 
L 334.7641 36.234829 
L 337.234764 37.954586 
L 339.721288 36.746523 
L 342.231908 35.784235 
L 344.677572 34.947401 
L 347.128929 37.748905 
L 349.603001 34.279891 
L 352.014658 33.655808 
L 354.541739 34.714544 
L 357.044052 33.598177 
L 359.53183 32.723081 
L 362.026502 33.477904 
L 364.520509 32.216369 
L 366.928804 30.577686 
L 369.374162 32.881424 
L 371.849315 32.822495 
L 374.312985 32.306301 
L 376.783653 33.662593 
L 379.206913 30.586751 
L 381.655151 30.572591 
L 384.131079 29.79513 
L 386.642429 30.644347 
L 389.115952 30.870009 
L 391.63444 30.774339 
L 394.09876 30.943449 
L 396.607398 31.403992 
L 399.105894 30.024578 
L 401.575652 31.162571 
L 404.057048 29.585324 
L 406.473622 31.295845 
L 409.029356 31.440189 
L 411.473102 31.068734 
L 413.902048 30.849736 
L 416.35903 29.699298 
L 418.800778 30.766161 
L 421.240298 30.705805 
L 423.751888 31.296585 
L 426.265943 30.46533 
L 428.751113 30.470997 
L 431.162391 30.588178 
L 431.162391 24.272534 
L 431.162391 24.272534 
L 428.751113 24.451391 
L 426.265943 24.395382 
L 423.751888 24.427584 
L 421.240298 24.833338 
L 418.800778 24.156227 
L 416.35903 24.976388 
L 413.902048 25.05946 
L 411.473102 25.087164 
L 409.029356 25.270789 
L 406.473622 26.340265 
L 404.057048 25.707117 
L 401.575652 25.548406 
L 399.105894 26.563049 
L 396.607398 26.047092 
L 394.09876 27.001038 
L 391.63444 26.676745 
L 389.115952 27.999612 
L 386.642429 25.511551 
L 384.131079 28.827788 
L 381.655151 27.618599 
L 379.206913 28.837949 
L 376.783653 28.290802 
L 374.312985 26.193266 
L 371.849315 28.144092 
L 369.374162 30.120455 
L 366.928804 28.045232 
L 364.520509 26.653252 
L 362.026502 30.634134 
L 359.53183 28.551884 
L 357.044052 30.082132 
L 354.541739 28.102309 
L 352.014658 30.887959 
L 349.603001 31.065657 
L 347.128929 30.372041 
L 344.677572 30.953227 
L 342.231908 30.054717 
L 339.721288 32.23788 
L 337.234764 30.16636 
L 334.7641 30.590931 
L 332.309228 31.329013 
L 329.857447 31.186743 
L 327.35548 32.009812 
L 324.816456 31.070776 
L 322.279529 31.858621 
L 319.790681 33.426336 
L 317.330565 32.081882 
L 314.858861 32.565153 
L 312.37052 34.828726 
L 309.866294 30.804891 
L 307.408415 32.392992 
L 304.947176 33.018733 
L 302.410105 35.211411 
L 299.947277 32.79131 
L 297.520954 35.498378 
L 295.096759 34.368067 
L 292.662921 33.658356 
L 290.213845 37.120104 
L 287.691193 36.787818 
L 285.207383 37.936979 
L 282.729961 33.398077 
L 280.215518 36.443073 
L 277.749095 38.739884 
L 275.364893 36.918315 
L 272.899513 37.873832 
L 270.417947 38.454899 
L 267.888615 36.868589 
L 265.440802 40.057488 
L 262.97203 37.054072 
L 260.454012 39.818098 
L 257.933294 41.152372 
L 255.450744 40.758624 
L 252.970336 35.629368 
L 250.520188 43.812043 
L 248.083143 36.948004 
L 245.648428 40.389416 
L 243.193275 41.8643 
L 240.686289 40.136887 
L 238.246327 40.885228 
L 235.78794 42.536232 
L 233.324999 40.226512 
L 230.855762 45.095252 
L 228.409615 39.580065 
L 225.944325 40.91378 
L 223.489004 42.853247 
L 220.96858 42.818881 
L 218.482275 34.300916 
L 215.997109 41.259547 
L 213.56169 47.383116 
L 211.084681 44.005326 
L 208.573263 39.507482 
L 206.120888 44.856572 
L 203.660147 50.642719 
L 201.228787 46.03045 
L 198.812549 40.646842 
L 196.330696 49.560352 
L 193.912027 43.767316 
L 191.424894 45.301029 
L 188.991196 44.80862 
L 186.508221 45.157756 
L 184.050872 44.594154 
L 181.659293 43.097946 
L 179.236258 43.741434 
L 176.745946 44.987203 
L 174.313731 43.448708 
L 171.847228 46.27098 
L 169.399394 43.060862 
L 166.888965 47.97973 
L 164.428604 45.624997 
L 161.960565 47.882143 
L 159.390391 53.852501 
L 156.915638 44.052415 
L 154.426798 46.66149 
L 151.933292 57.03545 
L 149.457788 54.417651 
L 146.95145 44.297843 
L 144.519917 46.248617 
L 142.044147 48.114476 
L 139.571458 46.3922 
L 137.137611 47.383888 
L 134.684914 49.988694 
L 132.24517 53.648111 
L 129.818564 53.86172 
L 127.346992 55.107847 
L 124.883377 52.050619 
L 122.389491 56.315013 
L 119.945863 52.323415 
L 117.454464 58.505531 
L 115.043605 47.860701 
L 112.547937 50.113774 
L 110.026712 58.940127 
L 107.609851 49.632743 
L 105.159062 50.264392 
L 102.724144 59.952773 
L 100.227471 54.301157 
L 97.677974 61.705769 
L 95.194397 68.679191 
L 92.735409 66.190848 
L 90.270586 71.215362 
L 87.856893 71.991202 
L 85.456614 73.889786 
L 83.00099 95.580547 
L 80.585379 107.871812 
L 78.146298 118.37608 
L 75.649521 134.298029 
L 73.126801 183.119831 
L 70.631043 211.237398 
L 68.144358 229.122391 
L 65.616598 244.392256 
L 63.168674 272.455795 
z
" style="fill:#1f77b4;fill-opacity:0.25;"/>
   </g>
   <g id="PolyCollection_2">
    <path clip-path="url(#pf9839a6f20)" d="M 62.979161 287.861403 
L 62.979161 288.465697 
L 65.02496 290.329091 
L 67.141967 273.550241 
L 69.176268 267.548835 
L 71.244172 254.380228 
L 73.342124 247.246499 
L 75.475839 221.053577 
L 77.624461 205.400839 
L 79.718632 181.020792 
L 81.813577 168.061779 
L 83.896112 161.631053 
L 86.018636 135.321207 
L 88.025503 107.521193 
L 90.092333 116.778933 
L 92.137734 117.398742 
L 94.397655 123.004883 
L 96.42004 113.409035 
L 98.576813 88.214614 
L 100.770449 85.265805 
L 102.922717 92.349676 
L 105.080224 98.923385 
L 107.141372 94.960538 
L 109.319779 86.889678 
L 111.436279 86.242882 
L 113.47694 96.422678 
L 115.55255 86.125884 
L 117.623237 93.309971 
L 119.722743 86.159893 
L 121.789353 75.859171 
L 123.923693 85.895883 
L 126.248537 72.687439 
L 128.386543 78.937834 
L 130.416258 75.590542 
L 132.488911 76.548903 
L 134.708633 73.738975 
L 136.75497 76.825421 
L 138.835596 75.160519 
L 141.080588 94.144416 
L 143.216617 78.68937 
L 145.318329 76.214693 
L 147.48297 66.527376 
L 149.571954 64.211103 
L 151.76002 79.119885 
L 153.917139 78.132 
L 156.095714 71.656635 
L 158.323267 76.753075 
L 160.383383 78.09035 
L 162.550862 69.809348 
L 164.74807 64.846072 
L 166.919336 63.032901 
L 169.051843 59.990165 
L 171.135409 72.413379 
L 173.378566 66.524243 
L 175.544487 61.054689 
L 177.651526 70.728599 
L 179.808233 62.805643 
L 181.89039 62.144803 
L 183.981708 58.79177 
L 186.038925 61.276722 
L 188.185385 62.394678 
L 190.440769 56.57639 
L 192.588564 58.423226 
L 194.760437 56.222973 
L 196.94371 64.197693 
L 199.015186 59.420707 
L 201.068971 57.508449 
L 203.13919 54.735102 
L 205.422055 60.320545 
L 207.550386 56.513485 
L 209.683345 57.121349 
L 211.825759 57.913687 
L 213.988665 56.549417 
L 216.059936 60.314654 
L 218.241173 54.175843 
L 220.372322 50.090591 
L 222.572882 50.901183 
L 224.687648 52.101842 
L 226.79142 56.217739 
L 228.893064 51.105663 
L 230.972686 51.626962 
L 233.151323 49.684745 
L 235.265086 55.428368 
L 237.412544 45.479492 
L 239.560217 53.214197 
L 241.612714 53.093179 
L 243.761983 47.451108 
L 245.86255 51.517722 
L 248.03948 46.696819 
L 250.157723 48.714514 
L 252.251068 46.673509 
L 254.480932 47.148489 
L 256.547573 48.310552 
L 258.653568 44.785717 
L 260.779574 47.460169 
L 262.971855 44.888955 
L 265.111504 43.780692 
L 267.224873 47.455716 
L 269.36652 41.162641 
L 271.540291 44.81072 
L 273.626286 42.584922 
L 275.775305 41.937038 
L 277.908528 41.984747 
L 279.933035 44.208227 
L 282.135216 40.358779 
L 284.189183 42.676859 
L 286.390499 44.639008 
L 288.464997 44.695032 
L 290.524471 39.213931 
L 292.553512 41.502293 
L 294.681202 43.931234 
L 296.852961 40.23933 
L 299.036738 41.107511 
L 301.17209 38.851976 
L 303.315582 40.934811 
L 305.514358 39.557286 
L 307.655413 39.424073 
L 309.808364 37.37204 
L 311.933244 35.600382 
L 314.015373 35.933852 
L 316.090357 36.635383 
L 318.350957 36.343468 
L 320.478937 32.189843 
L 322.567311 34.511534 
L 324.72854 35.569941 
L 326.882485 32.885883 
L 328.973859 33.193059 
L 331.075282 31.82811 
L 333.127238 33.260852 
L 335.270347 35.152174 
L 337.374867 34.040625 
L 339.57265 31.114912 
L 341.67767 31.734165 
L 343.744335 33.945142 
L 345.856801 31.832923 
L 348.061004 32.714347 
L 350.327183 32.352479 
L 352.404329 31.769193 
L 354.577369 31.658044 
L 356.713042 32.010594 
L 358.761654 31.356902 
L 360.873569 30.660433 
L 362.986062 31.930532 
L 365.036449 31.236347 
L 367.358585 31.985807 
L 369.392042 30.434713 
L 371.451413 31.431971 
L 373.554277 30.84781 
L 375.714506 30.420394 
L 377.784504 30.62199 
L 379.99273 30.852113 
L 379.99273 27.770806 
L 379.99273 27.770806 
L 377.784504 27.384173 
L 375.714506 26.537286 
L 373.554277 27.590082 
L 371.451413 27.005921 
L 369.392042 27.879828 
L 367.358585 27.315542 
L 365.036449 28.065002 
L 362.986062 27.925896 
L 360.873569 27.654108 
L 358.761654 28.067798 
L 356.713042 27.722483 
L 354.577369 27.088226 
L 352.404329 29.320745 
L 350.327183 28.614109 
L 348.061004 27.388783 
L 345.856801 26.975022 
L 343.744335 28.008254 
L 341.67767 27.937237 
L 339.57265 27.261304 
L 337.374867 28.837903 
L 335.270347 30.070023 
L 333.127238 26.657252 
L 331.075282 29.076802 
L 328.973859 28.390283 
L 326.882485 29.437566 
L 324.72854 30.762415 
L 322.567311 28.737047 
L 320.478937 29.455175 
L 318.350957 31.592452 
L 316.090357 31.053835 
L 314.015373 31.755365 
L 311.933244 33.198994 
L 309.808364 31.859065 
L 307.655413 31.533946 
L 305.514358 35.841369 
L 303.315582 32.120175 
L 301.17209 32.229394 
L 299.036738 35.277952 
L 296.852961 36.022782 
L 294.681202 38.251727 
L 292.553512 37.658568 
L 290.524471 36.80148 
L 288.464997 35.329286 
L 286.390499 36.61882 
L 284.189183 37.779187 
L 282.135216 33.929718 
L 279.933035 40.195052 
L 277.908528 36.436008 
L 275.775305 34.941829 
L 273.626286 35.527455 
L 271.540291 39.099155 
L 269.36652 36.641359 
L 267.224873 41.326524 
L 265.111504 36.860381 
L 262.971855 40.377781 
L 260.779574 42.308879 
L 258.653568 41.467827 
L 256.547573 39.854933 
L 254.480932 39.04338 
L 252.251068 41.862029 
L 250.157723 44.816739 
L 248.03948 43.503957 
L 245.86255 48.119407 
L 243.761983 44.476583 
L 241.612714 46.543949 
L 239.560217 45.559474 
L 237.412544 41.267457 
L 235.265086 47.23086 
L 233.151323 42.427972 
L 230.972686 44.309637 
L 228.893064 44.645909 
L 226.79142 45.763059 
L 224.687648 47.658637 
L 222.572882 49.167674 
L 220.372322 44.920874 
L 218.241173 45.337935 
L 216.059936 48.388774 
L 213.988665 46.479864 
L 211.825759 50.11131 
L 209.683345 46.89474 
L 207.550386 48.304385 
L 205.422055 50.541525 
L 203.13919 48.232503 
L 201.068971 51.935085 
L 199.015186 50.39288 
L 196.94371 48.514642 
L 194.760437 47.731441 
L 192.588564 53.302302 
L 190.440769 53.298872 
L 188.185385 47.357234 
L 186.038925 50.572157 
L 183.981708 50.590088 
L 181.89039 52.602824 
L 179.808233 55.210786 
L 177.651526 59.067851 
L 175.544487 56.96174 
L 173.378566 56.549577 
L 171.135409 57.93815 
L 169.051843 53.338926 
L 166.919336 53.133262 
L 164.74807 52.553601 
L 162.550862 54.312956 
L 160.383383 64.349579 
L 158.323267 59.025899 
L 156.095714 65.109147 
L 153.917139 56.413464 
L 151.76002 65.170309 
L 149.571954 56.889101 
L 147.48297 60.555352 
L 145.318329 60.797791 
L 143.216617 61.715267 
L 141.080588 63.467687 
L 138.835596 70.609887 
L 136.75497 68.019852 
L 134.708633 59.511304 
L 132.488911 57.19478 
L 130.416258 65.615876 
L 128.386543 65.845764 
L 126.248537 64.263369 
L 123.923693 69.557577 
L 121.789353 63.558657 
L 119.722743 70.095348 
L 117.623237 70.77806 
L 115.55255 68.58747 
L 113.47694 80.432181 
L 111.436279 73.897917 
L 109.319779 74.237928 
L 107.141372 81.215892 
L 105.080224 82.063734 
L 102.922717 82.593243 
L 100.770449 74.874993 
L 98.576813 77.291953 
L 96.42004 93.605147 
L 94.397655 86.476319 
L 92.137734 96.954824 
L 90.092333 109.231303 
L 88.025503 96.532564 
L 86.018636 119.306464 
L 83.896112 140.425081 
L 81.813577 152.466167 
L 79.718632 174.939731 
L 77.624461 192.314001 
L 75.475839 211.41541 
L 73.342124 234.347027 
L 71.244172 238.052767 
L 69.176268 256.477438 
L 67.141967 266.511663 
L 65.02496 282.050777 
L 62.979161 287.861403 
z
" style="fill:#ff7f0e;fill-opacity:0.25;"/>
   </g>
   <g id="PolyCollection_3">
    <path clip-path="url(#pf9839a6f20)" d="M 63.01066 286.855743 
L 63.01066 288.977954 
L 65.032698 289.366083 
L 67.180936 270.321339 
L 69.298057 259.838807 
L 71.454166 257.748049 
L 73.613967 243.152594 
L 75.769272 219.083901 
L 78.035256 200.036997 
L 80.20216 193.503784 
L 82.354184 155.091199 
L 84.498878 138.71681 
L 86.572881 142.404148 
L 88.7045 109.243134 
L 90.783254 112.641399 
L 92.942523 99.566464 
L 95.178742 117.588199 
L 97.317115 116.517225 
L 99.500148 86.260753 
L 101.683971 84.887931 
L 103.856682 84.471203 
L 106.002951 87.468801 
L 108.093942 92.595966 
L 110.24718 99.053502 
L 112.365326 89.629046 
L 114.514677 95.352297 
L 116.651801 93.908695 
L 118.800427 80.95675 
L 120.926443 85.596913 
L 123.106603 77.791006 
L 125.192862 80.964694 
L 127.409551 79.224234 
L 129.566414 78.354897 
L 131.674001 74.927211 
L 133.841188 77.253195 
L 135.957158 75.022139 
L 138.121938 74.576229 
L 140.309826 92.373551 
L 142.557095 91.405599 
L 144.640608 78.51536 
L 146.788043 76.066041 
L 148.954991 61.018364 
L 151.109802 67.845786 
L 153.264262 73.811704 
L 155.381133 69.234514 
L 157.546526 73.620709 
L 159.779256 66.882103 
L 161.863039 69.427212 
L 163.99652 64.58574 
L 166.120033 67.050408 
L 168.260467 61.44695 
L 170.417468 56.825619 
L 172.577075 61.013389 
L 174.831738 69.946132 
L 177.016782 67.334407 
L 179.15648 67.640197 
L 181.255846 63.861541 
L 183.439023 60.785948 
L 185.590921 60.285194 
L 187.663733 61.964081 
L 189.752263 54.816482 
L 191.992019 65.348072 
L 194.10121 62.255148 
L 196.207106 55.092324 
L 198.263955 59.420327 
L 200.396164 57.733163 
L 202.478192 52.373919 
L 204.573584 55.89816 
L 206.757453 60.713625 
L 208.890628 58.56586 
L 210.98428 58.731676 
L 213.054694 54.858246 
L 215.177122 57.985036 
L 217.316007 57.16345 
L 219.498158 60.596483 
L 221.70488 47.629913 
L 223.926956 51.060113 
L 226.042148 55.579714 
L 228.147759 51.810438 
L 230.284042 55.986837 
L 232.447498 52.514645 
L 234.522609 50.126241 
L 236.585583 52.017281 
L 238.685005 50.325034 
L 240.925327 49.515649 
L 243.083648 51.117377 
L 245.218167 52.730263 
L 247.328235 49.631735 
L 249.373018 52.668607 
L 251.540873 45.866743 
L 253.626885 50.985668 
L 255.887961 50.375155 
L 257.956901 45.573856 
L 260.097106 42.851208 
L 262.225781 50.99977 
L 264.325281 44.794579 
L 266.373035 45.02915 
L 268.453253 44.216804 
L 270.542907 42.178495 
L 272.719517 47.116674 
L 274.902932 45.163004 
L 277.119768 42.533954 
L 279.20833 45.08928 
L 281.345635 39.510431 
L 283.422744 43.882743 
L 285.546607 43.441546 
L 287.762613 39.377606 
L 289.896153 42.121578 
L 292.06378 40.381946 
L 294.191035 41.159079 
L 296.382239 40.51433 
L 298.429261 44.718677 
L 300.507549 41.268294 
L 302.668402 40.593755 
L 304.866025 38.055589 
L 307.03579 39.165046 
L 309.182855 40.06311 
L 311.309853 40.289072 
L 313.446402 38.636866 
L 315.475442 37.345403 
L 317.612937 35.510345 
L 319.856554 36.974026 
L 321.990112 35.603584 
L 324.107468 37.146224 
L 326.221158 34.116624 
L 328.331258 37.035263 
L 330.424169 34.198418 
L 332.564435 31.707882 
L 334.655129 35.525219 
L 336.935884 31.918846 
L 339.040268 31.082124 
L 341.189884 32.892631 
L 343.264039 34.577837 
L 345.340272 32.819936 
L 347.500368 31.931382 
L 349.628444 33.059368 
L 351.870902 32.511694 
L 353.981 32.460193 
L 356.129631 32.892233 
L 358.28127 32.31607 
L 360.405398 31.333826 
L 362.519424 30.945362 
L 364.670531 30.614328 
L 366.833165 30.769556 
L 369.009519 31.203506 
L 371.14559 31.036861 
L 373.208128 31.473768 
L 375.282765 31.727533 
L 377.376746 31.290747 
L 379.544379 30.691668 
L 381.672757 31.979545 
L 381.672757 29.29542 
L 381.672757 29.29542 
L 379.544379 28.794707 
L 377.376746 27.7639 
L 375.282765 28.437273 
L 373.208128 28.876065 
L 371.14559 27.894435 
L 369.009519 29.454704 
L 366.833165 29.888654 
L 364.670531 28.378644 
L 362.519424 29.034417 
L 360.405398 29.139357 
L 358.28127 28.527166 
L 356.129631 29.184514 
L 353.981 28.691421 
L 351.870902 28.516569 
L 349.628444 29.880835 
L 347.500368 30.453742 
L 345.340272 30.120267 
L 343.264039 28.362366 
L 341.189884 29.554168 
L 339.040268 28.712629 
L 336.935884 28.492662 
L 334.655129 30.437084 
L 332.564435 27.346765 
L 330.424169 29.296865 
L 328.331258 31.394061 
L 326.221158 32.400759 
L 324.107468 32.331583 
L 321.990112 31.71558 
L 319.856554 33.490589 
L 317.612937 31.685469 
L 315.475442 32.317431 
L 313.446402 35.404928 
L 311.309853 32.704239 
L 309.182855 34.842141 
L 307.03579 35.308477 
L 304.866025 35.862854 
L 302.668402 35.976735 
L 300.507549 35.487223 
L 298.429261 38.204389 
L 296.382239 35.624431 
L 294.191035 36.336544 
L 292.06378 33.228119 
L 289.896153 36.915932 
L 287.762613 36.082725 
L 285.546607 41.948541 
L 283.422744 35.894873 
L 281.345635 36.319953 
L 279.20833 38.080489 
L 277.119768 34.961669 
L 274.902932 35.046341 
L 272.719517 39.630274 
L 270.542907 38.462578 
L 268.453253 39.323017 
L 266.373035 39.867533 
L 264.325281 41.088912 
L 262.225781 42.161431 
L 260.097106 38.036567 
L 257.956901 39.631204 
L 255.887961 37.790329 
L 253.626885 41.743804 
L 251.540873 41.311933 
L 249.373018 44.809879 
L 247.328235 44.886327 
L 245.218167 41.849474 
L 243.083648 40.625287 
L 240.925327 39.759995 
L 238.685005 43.761299 
L 236.585583 46.448013 
L 234.522609 44.700198 
L 232.447498 43.853682 
L 230.284042 48.090927 
L 228.147759 46.531505 
L 226.042148 46.956164 
L 223.926956 46.911777 
L 221.70488 41.892433 
L 219.498158 47.243487 
L 217.316007 51.971706 
L 215.177122 43.379006 
L 213.054694 49.774598 
L 210.98428 49.231646 
L 208.890628 51.864482 
L 206.757453 52.55379 
L 204.573584 47.131122 
L 202.478192 46.461428 
L 200.396164 53.745662 
L 198.263955 53.477035 
L 196.207106 45.654964 
L 194.10121 52.492479 
L 191.992019 60.501146 
L 189.752263 48.33615 
L 187.663733 51.118307 
L 185.590921 48.603261 
L 183.439023 52.913196 
L 181.255846 54.339914 
L 179.15648 58.455723 
L 177.016782 57.342976 
L 174.831738 54.916278 
L 172.577075 54.412669 
L 170.417468 55.023259 
L 168.260467 51.388736 
L 166.120033 54.5432 
L 163.99652 54.170795 
L 161.863039 57.778866 
L 159.779256 60.940731 
L 157.546526 59.567894 
L 155.381133 63.460685 
L 153.264262 63.385807 
L 151.109802 56.029815 
L 148.954991 56.504661 
L 146.788043 62.056602 
L 144.640608 68.550232 
L 142.557095 71.88065 
L 140.309826 70.974373 
L 138.121938 67.802024 
L 135.957158 61.681968 
L 133.841188 61.917931 
L 131.674001 65.292399 
L 129.566414 65.010164 
L 127.409551 67.162927 
L 125.192862 65.79252 
L 123.106603 67.547672 
L 120.926443 63.688996 
L 118.800427 70.549477 
L 116.651801 67.280586 
L 114.514677 72.127886 
L 112.365326 80.626535 
L 110.24718 79.096544 
L 108.093942 82.100252 
L 106.002951 71.376812 
L 103.856682 81.837146 
L 101.683971 80.43361 
L 99.500148 72.893237 
L 97.317115 88.52334 
L 95.178742 106.263394 
L 92.942523 83.147569 
L 90.783254 102.575624 
L 88.7045 96.352511 
L 86.572881 98.469885 
L 84.498878 119.549715 
L 82.354184 129.572442 
L 80.20216 166.959052 
L 78.035256 173.007641 
L 75.769272 199.353908 
L 73.613967 226.861356 
L 71.454166 242.826113 
L 69.298057 254.072683 
L 67.180936 265.053226 
L 65.032698 282.52038 
L 63.01066 286.855743 
z
" style="fill:#2ca02c;fill-opacity:0.25;"/>
   </g>
   <g id="PolyCollection_4">
    <path clip-path="url(#pf9839a6f20)" d="M 62.987425 288.299362 
L 62.987425 289.50795 
L 65.160855 288.352362 
L 67.25556 268.346456 
L 69.373959 262.077099 
L 71.558533 247.822665 
L 73.714514 242.006683 
L 75.814704 216.421544 
L 78.009277 203.673628 
L 80.050019 186.245454 
L 82.222486 166.961005 
L 84.252702 147.511429 
L 86.320284 136.915875 
L 88.497923 126.934692 
L 90.702188 117.553656 
L 92.818391 109.123812 
L 95.03045 111.999856 
L 97.194445 123.309719 
L 99.322843 90.410448 
L 101.368381 88.577512 
L 103.380415 89.998066 
L 105.503775 91.074456 
L 107.663447 95.871633 
L 109.903062 96.323285 
L 111.975209 100.134462 
L 114.12618 95.640064 
L 116.191713 88.402924 
L 118.34333 87.902798 
L 120.452909 85.592863 
L 122.55552 73.505626 
L 124.697743 83.07159 
L 126.921281 86.998225 
L 129.100228 81.556019 
L 131.282391 74.575842 
L 133.427981 76.586812 
L 135.568912 79.225502 
L 137.706708 75.818951 
L 139.828732 82.41023 
L 142.092877 85.249572 
L 144.311637 72.839148 
L 146.369518 78.625113 
L 148.515928 65.921676 
L 150.54061 69.036191 
L 152.642545 71.336534 
L 154.707557 68.061017 
L 156.881274 73.7287 
L 159.093097 87.632859 
L 161.238534 73.957848 
L 163.270983 68.788271 
L 165.418078 57.287745 
L 167.477256 62.201015 
L 169.579046 68.805363 
L 171.758587 66.011758 
L 173.942837 68.02893 
L 176.085671 66.568752 
L 178.244473 65.235768 
L 180.307175 59.928518 
L 182.35567 69.827921 
L 184.39279 58.559473 
L 186.589861 55.678584 
L 188.749754 60.908263 
L 190.907017 68.314452 
L 192.943244 64.234325 
L 195.080771 63.804122 
L 197.261361 59.957733 
L 199.400442 61.607353 
L 201.543807 53.914953 
L 203.656904 55.370623 
L 205.944272 59.973427 
L 208.067212 59.621003 
L 210.05832 54.850632 
L 212.193697 50.577581 
L 214.304164 59.940678 
L 216.378432 56.165757 
L 218.506642 55.500761 
L 220.63405 52.784411 
L 222.900224 62.887676 
L 224.976049 52.97129 
L 227.145291 52.926667 
L 229.311763 51.912235 
L 231.505278 52.140067 
L 233.569045 48.127111 
L 235.639015 53.169319 
L 237.793993 51.862729 
L 239.988235 48.125015 
L 242.15278 52.766252 
L 244.326752 52.713567 
L 246.457425 51.888077 
L 248.519723 47.01915 
L 250.519477 46.080825 
L 252.670628 47.503934 
L 254.956292 44.472996 
L 257.147715 44.594528 
L 259.215846 48.595937 
L 261.322193 47.64829 
L 263.537823 45.522743 
L 265.755521 47.424699 
L 267.881012 46.842166 
L 269.956576 44.854971 
L 272.137405 46.488932 
L 274.267501 46.09622 
L 276.476903 43.113996 
L 278.535769 43.00287 
L 280.727068 45.507716 
L 282.828225 41.506021 
L 284.894425 44.579542 
L 287.193817 42.740486 
L 289.34034 40.925351 
L 291.473665 37.806192 
L 293.511975 41.790222 
L 295.588533 43.352942 
L 297.671228 41.390962 
L 299.737772 39.837482 
L 301.853155 39.725905 
L 304.143231 40.789444 
L 306.253902 37.337943 
L 308.354965 37.574901 
L 310.404082 37.32295 
L 312.490322 35.55419 
L 314.612619 36.452338 
L 316.662919 32.081448 
L 318.836165 34.705666 
L 320.894393 34.348485 
L 322.986767 33.381372 
L 325.074043 34.339319 
L 327.162571 32.864699 
L 329.360291 33.239618 
L 331.406437 32.972394 
L 333.474417 33.616529 
L 335.641928 34.752282 
L 337.770203 31.925649 
L 339.932648 32.457938 
L 342.101795 33.710638 
L 344.214383 32.264443 
L 346.335765 30.10781 
L 348.418343 31.078042 
L 350.635166 30.38595 
L 352.758571 30.094797 
L 354.846182 29.974359 
L 356.921897 28.903673 
L 359.019768 30.026112 
L 361.08557 29.692709 
L 363.183317 29.977845 
L 365.302517 29.609219 
L 367.493346 30.361734 
L 369.623344 28.889716 
L 371.660491 28.693418 
L 373.72174 29.009836 
L 375.837249 29.810248 
L 378.014968 29.770296 
L 380.164391 29.316294 
L 380.164391 27.147981 
L 380.164391 27.147981 
L 378.014968 27.989165 
L 375.837249 27.332458 
L 373.72174 27.454439 
L 371.660491 27.215778 
L 369.623344 27.451209 
L 367.493346 27.706104 
L 365.302517 26.485003 
L 363.183317 27.226537 
L 361.08557 27.388322 
L 359.019768 27.548322 
L 356.921897 27.807305 
L 354.846182 27.846778 
L 352.758571 26.246127 
L 350.635166 28.421995 
L 348.418343 28.161632 
L 346.335765 27.836677 
L 344.214383 28.948847 
L 342.101795 27.811029 
L 339.932648 27.830219 
L 337.770203 27.190673 
L 335.641928 29.976511 
L 333.474417 30.125456 
L 331.406437 29.289379 
L 329.360291 27.973671 
L 327.162571 29.273723 
L 325.074043 30.697852 
L 322.986767 30.54564 
L 320.894393 31.613818 
L 318.836165 29.15967 
L 316.662919 29.625245 
L 314.612619 31.668608 
L 312.490322 31.456597 
L 310.404082 29.811188 
L 308.354965 34.925006 
L 306.253902 33.928453 
L 304.143231 35.534344 
L 301.853155 32.095571 
L 299.737772 32.292372 
L 297.671228 34.131045 
L 295.588533 35.499541 
L 293.511975 33.670109 
L 291.473665 35.803874 
L 289.34034 35.521788 
L 287.193817 37.777236 
L 284.894425 37.295041 
L 282.828225 38.148244 
L 280.727068 35.750113 
L 278.535769 39.550144 
L 276.476903 34.566653 
L 274.267501 40.712404 
L 272.137405 37.482619 
L 269.956576 40.411765 
L 267.881012 42.988557 
L 265.755521 43.022779 
L 263.537823 38.633834 
L 261.322193 38.66693 
L 259.215846 39.322845 
L 257.147715 40.178804 
L 254.956292 39.745256 
L 252.670628 40.106472 
L 250.519477 39.370938 
L 248.519723 42.133142 
L 246.457425 44.295224 
L 244.326752 44.086489 
L 242.15278 44.342181 
L 239.988235 40.59555 
L 237.793993 46.602565 
L 235.639015 42.643928 
L 233.569045 40.716805 
L 231.505278 42.809723 
L 229.311763 44.702794 
L 227.145291 47.820621 
L 224.976049 44.075467 
L 222.900224 52.908435 
L 220.63405 48.394605 
L 218.506642 45.924957 
L 216.378432 50.872432 
L 214.304164 50.983068 
L 212.193697 46.28415 
L 210.05832 49.843888 
L 208.067212 50.994366 
L 205.944272 50.086861 
L 203.656904 47.843684 
L 201.543807 48.250871 
L 199.400442 50.426552 
L 197.261361 49.794178 
L 195.080771 52.238691 
L 192.943244 57.544309 
L 190.907017 55.807852 
L 188.749754 51.804073 
L 186.589861 50.064419 
L 184.39279 54.831293 
L 182.35567 52.320767 
L 180.307175 51.858685 
L 178.244473 60.120046 
L 176.085671 53.976372 
L 173.942837 57.080182 
L 171.758587 51.634617 
L 169.579046 52.788245 
L 167.477256 53.718447 
L 165.418078 55.362915 
L 163.270983 56.074139 
L 161.238534 65.274954 
L 159.093097 65.600283 
L 156.881274 62.79038 
L 154.707557 56.307989 
L 152.642545 60.125155 
L 150.54061 59.033345 
L 148.515928 62.14786 
L 146.369518 56.290404 
L 144.311637 64.605064 
L 142.092877 67.675192 
L 139.828732 69.281024 
L 137.706708 63.475527 
L 135.568912 58.712114 
L 133.427981 61.597507 
L 131.282391 57.440926 
L 129.100228 67.483188 
L 126.921281 59.820664 
L 124.697743 64.672432 
L 122.55552 68.317547 
L 120.452909 70.415676 
L 118.34333 78.158849 
L 116.191713 79.385636 
L 114.12618 79.981286 
L 111.975209 81.654438 
L 109.903062 79.914819 
L 107.663447 90.912983 
L 105.503775 80.661337 
L 103.380415 80.442542 
L 101.368381 80.01283 
L 99.322843 78.364921 
L 97.194445 94.127623 
L 95.03045 99.393286 
L 92.818391 94.128164 
L 90.702188 109.69009 
L 88.497923 103.824559 
L 86.320284 113.086133 
L 84.252702 130.73796 
L 82.222486 142.681215 
L 80.050019 165.089407 
L 78.009277 178.036419 
L 75.814704 191.161377 
L 73.714514 228.485252 
L 71.558533 241.156502 
L 69.373959 251.834391 
L 67.25556 261.847367 
L 65.160855 281.313784 
L 62.987425 288.299362 
z
" style="fill:#d62728;fill-opacity:0.25;"/>
   </g>
   <g id="PolyCollection_5">
    <path clip-path="url(#pf9839a6f20)" d="M 63.063495 287.825364 
L 63.063495 288.748438 
L 65.183663 283.185952 
L 67.282788 275.316473 
L 69.41666 267.595692 
L 71.495283 261.422559 
L 73.632509 249.332374 
L 75.820793 225.977477 
L 78.051544 207.789038 
L 80.181675 181.958332 
L 82.335992 159.43479 
L 84.52054 150.18963 
L 86.66338 126.584762 
L 88.828667 133.462107 
L 90.909634 120.178217 
L 93.038275 117.456408 
L 95.30528 102.219699 
L 97.431032 111.454953 
L 99.617151 85.093817 
L 101.810386 83.017868 
L 103.925407 105.580986 
L 106.059972 96.641611 
L 108.13148 100.119634 
L 110.40396 91.750771 
L 112.483417 100.614986 
L 114.567868 88.45939 
L 116.754775 76.837269 
L 118.822131 86.232304 
L 120.984792 81.846282 
L 123.086603 77.429609 
L 125.187238 75.167744 
L 127.435765 80.211653 
L 129.562035 87.466589 
L 131.759947 85.348989 
L 133.902718 70.172865 
L 136.000702 65.79252 
L 138.04649 69.288674 
L 140.131674 85.252263 
L 142.402979 72.742271 
L 144.558959 72.608445 
L 146.663563 71.162626 
L 148.774906 67.838435 
L 150.847161 67.577101 
L 152.944791 69.583095 
L 155.122729 67.918817 
L 157.236086 75.591911 
L 159.427206 79.863974 
L 161.55675 81.291566 
L 163.747249 68.166466 
L 165.902599 73.625886 
L 168.059732 68.447395 
L 170.212939 59.963681 
L 172.311643 67.743088 
L 174.553402 65.804844 
L 176.666312 60.150239 
L 178.829177 65.844936 
L 181.017488 60.009098 
L 183.135096 63.23244 
L 185.233371 61.129144 
L 187.350918 61.429336 
L 189.490214 62.059489 
L 191.749893 71.439939 
L 193.893762 56.678048 
L 195.983377 60.98287 
L 198.147726 66.086315 
L 200.334395 61.937246 
L 202.479597 54.830311 
L 204.673898 52.310563 
L 206.905149 55.625019 
L 209.038729 56.136771 
L 211.085391 58.205115 
L 213.230073 60.349639 
L 215.337455 58.32154 
L 217.459689 58.022759 
L 219.554058 57.512919 
L 221.601813 51.812445 
L 223.832181 59.84202 
L 225.914533 50.312271 
L 227.93183 52.720437 
L 230.035979 53.246928 
L 232.199595 50.010118 
L 234.365542 49.653267 
L 236.446609 54.653367 
L 238.575573 50.477479 
L 240.829556 48.49526 
L 242.906147 49.267073 
L 244.990871 54.674363 
L 247.070179 50.702305 
L 249.176433 46.595571 
L 251.288743 51.202204 
L 253.428176 48.765691 
L 255.705193 53.283991 
L 257.822878 43.224565 
L 259.888547 45.920846 
L 262.047961 49.071557 
L 264.20188 43.036594 
L 266.30098 44.660232 
L 268.413357 42.170435 
L 270.470125 43.33327 
L 272.71944 38.528462 
L 274.78316 42.364143 
L 276.933192 45.027081 
L 279.057546 41.691223 
L 281.230619 41.50617 
L 283.371238 42.128634 
L 285.462775 40.317643 
L 287.674291 42.202757 
L 289.803835 42.093981 
L 291.91217 38.262383 
L 294.0621 41.634147 
L 296.2476 42.150097 
L 298.341977 43.158916 
L 300.423918 43.733334 
L 302.620239 39.343767 
L 304.861521 37.854702 
L 307.001119 36.544903 
L 309.255048 36.749851 
L 311.402074 34.793338 
L 313.474056 36.367359 
L 315.560082 37.106981 
L 317.669254 36.291988 
L 319.986147 36.357364 
L 322.10021 35.385468 
L 324.233016 33.630008 
L 326.435975 34.615194 
L 328.500425 36.860037 
L 330.632957 33.582034 
L 332.684194 35.32383 
L 334.770838 31.405854 
L 337.055271 35.097715 
L 339.179268 32.02802 
L 341.34055 32.049457 
L 343.45912 33.758422 
L 345.661877 33.299598 
L 347.780561 32.507154 
L 349.919056 31.045216 
L 352.077303 30.485701 
L 354.184444 29.326332 
L 356.307985 29.856812 
L 358.371813 31.428234 
L 360.460628 30.378376 
L 362.636536 30.289731 
L 364.77346 30.774845 
L 366.931941 31.239372 
L 369.12927 29.995491 
L 371.262213 29.928214 
L 373.350036 31.250341 
L 375.431929 30.463023 
L 377.54139 30.662512 
L 379.659057 30.220243 
L 381.83568 30.584911 
L 381.83568 24.830881 
L 381.83568 24.830881 
L 379.659057 25.873979 
L 377.54139 24.938307 
L 375.431929 25.322822 
L 373.350036 25.152259 
L 371.262213 24.624121 
L 369.12927 24.556844 
L 366.931941 24.793175 
L 364.77346 26.552888 
L 362.636536 25.619465 
L 360.460628 25.407469 
L 358.371813 24.110909 
L 356.307985 24.88055 
L 354.184444 25.41103 
L 352.077303 26.533654 
L 349.919056 26.590895 
L 347.780561 26.362466 
L 345.661877 28.283745 
L 343.45912 26.838112 
L 341.34055 27.12854 
L 339.179268 27.335004 
L 337.055271 27.41076 
L 334.770838 28.450574 
L 332.684194 28.603181 
L 330.632957 28.864765 
L 328.500425 31.877664 
L 326.435975 29.311818 
L 324.233016 29.865275 
L 322.10021 30.761862 
L 319.986147 32.256986 
L 317.669254 33.987601 
L 315.560082 28.238567 
L 313.474056 33.973905 
L 311.402074 30.860588 
L 309.255048 31.617797 
L 307.001119 33.796361 
L 304.861521 33.843423 
L 302.620239 33.649544 
L 300.423918 37.58617 
L 298.341977 35.878594 
L 296.2476 34.913797 
L 294.0621 34.751316 
L 291.91217 34.915954 
L 289.803835 36.018396 
L 287.674291 37.944913 
L 285.462775 36.376198 
L 283.371238 36.600499 
L 281.230619 37.839718 
L 279.057546 37.963042 
L 276.933192 39.561225 
L 274.78316 36.179963 
L 272.71944 34.711551 
L 270.470125 39.281419 
L 268.413357 36.990427 
L 266.30098 40.606504 
L 264.20188 38.961341 
L 262.047961 41.499272 
L 259.888547 41.319506 
L 257.822878 38.89672 
L 255.705193 43.269363 
L 253.428176 41.188384 
L 251.288743 40.663811 
L 249.176433 41.816615 
L 247.070179 48.009691 
L 244.990871 41.200559 
L 242.906147 44.757585 
L 240.829556 44.295887 
L 238.575573 42.066966 
L 236.446609 42.640093 
L 234.365542 42.644476 
L 232.199595 42.719354 
L 230.035979 47.932088 
L 227.93183 43.586214 
L 225.914533 44.020765 
L 223.832181 49.416488 
L 221.601813 42.828968 
L 219.554058 46.873224 
L 217.459689 43.958039 
L 215.337455 51.985451 
L 213.230073 46.503523 
L 211.085391 45.934325 
L 209.038729 51.024769 
L 206.905149 44.998918 
L 204.673898 42.577551 
L 202.479597 49.000752 
L 200.334395 53.36546 
L 198.147726 50.449902 
L 195.983377 50.002551 
L 193.893762 51.593651 
L 191.749893 56.629597 
L 189.490214 49.481012 
L 187.350918 51.468026 
L 185.233371 49.794602 
L 183.135096 54.537287 
L 181.017488 48.509303 
L 178.829177 55.686997 
L 176.666312 49.971725 
L 174.553402 51.594829 
L 172.311643 50.766745 
L 170.212939 50.528336 
L 168.059732 54.996478 
L 165.902599 62.091412 
L 163.747249 61.383282 
L 161.55675 61.580091 
L 159.427206 66.153134 
L 157.236086 66.786342 
L 155.122729 59.71899 
L 152.944791 63.420481 
L 150.847161 59.752329 
L 148.774906 57.085651 
L 146.663563 60.854142 
L 144.558959 59.223297 
L 142.402979 67.662366 
L 140.131674 71.681409 
L 138.04649 64.393333 
L 136.000702 63.202149 
L 133.902718 59.870287 
L 131.759947 62.70341 
L 129.562035 68.726977 
L 127.435765 63.461785 
L 125.187238 63.016574 
L 123.086603 72.349704 
L 120.984792 76.3209 
L 118.822131 78.657508 
L 116.754775 70.5367 
L 114.567868 72.359839 
L 112.483417 71.552535 
L 110.40396 77.764703 
L 108.13148 81.48424 
L 106.059972 88.662793 
L 103.925407 81.20363 
L 101.810386 78.479791 
L 99.617151 77.514001 
L 97.431032 96.299335 
L 95.30528 91.719275 
L 93.038275 105.038325 
L 90.909634 108.792444 
L 88.828667 104.821554 
L 86.66338 118.729908 
L 84.52054 125.839441 
L 82.335992 152.304397 
L 80.181675 168.636423 
L 78.051544 185.97857 
L 75.820793 217.130535 
L 73.632509 236.208384 
L 71.495283 241.634043 
L 69.41666 260.377813 
L 67.282788 270.419577 
L 65.183663 278.339027 
L 63.063495 287.825364 
z
" style="fill:#9467bd;fill-opacity:0.25;"/>
   </g>
   <g id="matplotlib.axis_1">
    <g id="xtick_1">
     <g id="line2d_1">
      <defs>
       <path d="M 0 0 
L 0 3.5 
" id="md62592c8fd" style="stroke:#000000;stroke-width:0.8;"/>
      </defs>
      <g>
       <use style="stroke:#000000;stroke-width:0.8;" x="60.302767" xlink:href="#md62592c8fd" y="303.64"/>
      </g>
     </g>
     <g id="text_1">
      <!-- 0 -->
      <g transform="translate(57.121517 318.238437)scale(0.1 -0.1)">
       <defs>
        <path d="M 31.78125 66.40625 
Q 24.171875 66.40625 20.328125 58.90625 
Q 16.5 51.421875 16.5 36.375 
Q 16.5 21.390625 20.328125 13.890625 
Q 24.171875 6.390625 31.78125 6.390625 
Q 39.453125 6.390625 43.28125 13.890625 
Q 47.125 21.390625 47.125 36.375 
Q 47.125 51.421875 43.28125 58.90625 
Q 39.453125 66.40625 31.78125 66.40625 
z
M 31.78125 74.21875 
Q 44.046875 74.21875 50.515625 64.515625 
Q 56.984375 54.828125 56.984375 36.375 
Q 56.984375 17.96875 50.515625 8.265625 
Q 44.046875 -1.421875 31.78125 -1.421875 
Q 19.53125 -1.421875 13.0625 8.265625 
Q 6.59375 17.96875 6.59375 36.375 
Q 6.59375 54.828125 13.0625 64.515625 
Q 19.53125 74.21875 31.78125 74.21875 
z
" id="DejaVuSans-48"/>
       </defs>
       <use xlink:href="#DejaVuSans-48"/>
      </g>
     </g>
    </g>
    <g id="xtick_2">
     <g id="line2d_2">
      <g>
       <use style="stroke:#000000;stroke-width:0.8;" x="107.235931" xlink:href="#md62592c8fd" y="303.64"/>
      </g>
     </g>
     <g id="text_2">
      <!-- 250 -->
      <g transform="translate(97.692181 318.238437)scale(0.1 -0.1)">
       <defs>
        <path d="M 19.1875 8.296875 
L 53.609375 8.296875 
L 53.609375 0 
L 7.328125 0 
L 7.328125 8.296875 
Q 12.9375 14.109375 22.625 23.890625 
Q 32.328125 33.6875 34.8125 36.53125 
Q 39.546875 41.84375 41.421875 45.53125 
Q 43.3125 49.21875 43.3125 52.78125 
Q 43.3125 58.59375 39.234375 62.25 
Q 35.15625 65.921875 28.609375 65.921875 
Q 23.96875 65.921875 18.8125 64.3125 
Q 13.671875 62.703125 7.8125 59.421875 
L 7.8125 69.390625 
Q 13.765625 71.78125 18.9375 73 
Q 24.125 74.21875 28.421875 74.21875 
Q 39.75 74.21875 46.484375 68.546875 
Q 53.21875 62.890625 53.21875 53.421875 
Q 53.21875 48.921875 51.53125 44.890625 
Q 49.859375 40.875 45.40625 35.40625 
Q 44.1875 33.984375 37.640625 27.21875 
Q 31.109375 20.453125 19.1875 8.296875 
z
" id="DejaVuSans-50"/>
        <path d="M 10.796875 72.90625 
L 49.515625 72.90625 
L 49.515625 64.59375 
L 19.828125 64.59375 
L 19.828125 46.734375 
Q 21.96875 47.46875 24.109375 47.828125 
Q 26.265625 48.1875 28.421875 48.1875 
Q 40.625 48.1875 47.75 41.5 
Q 54.890625 34.8125 54.890625 23.390625 
Q 54.890625 11.625 47.5625 5.09375 
Q 40.234375 -1.421875 26.90625 -1.421875 
Q 22.3125 -1.421875 17.546875 -0.640625 
Q 12.796875 0.140625 7.71875 1.703125 
L 7.71875 11.625 
Q 12.109375 9.234375 16.796875 8.0625 
Q 21.484375 6.890625 26.703125 6.890625 
Q 35.15625 6.890625 40.078125 11.328125 
Q 45.015625 15.765625 45.015625 23.390625 
Q 45.015625 31 40.078125 35.4375 
Q 35.15625 39.890625 26.703125 39.890625 
Q 22.75 39.890625 18.8125 39.015625 
Q 14.890625 38.140625 10.796875 36.28125 
z
" id="DejaVuSans-53"/>
       </defs>
       <use xlink:href="#DejaVuSans-50"/>
       <use x="63.623047" xlink:href="#DejaVuSans-53"/>
       <use x="127.246094" xlink:href="#DejaVuSans-48"/>
      </g>
     </g>
    </g>
    <g id="xtick_3">
     <g id="line2d_3">
      <g>
       <use style="stroke:#000000;stroke-width:0.8;" x="154.169094" xlink:href="#md62592c8fd" y="303.64"/>
      </g>
     </g>
     <g id="text_3">
      <!-- 500 -->
      <g transform="translate(144.625344 318.238437)scale(0.1 -0.1)">
       <use xlink:href="#DejaVuSans-53"/>
       <use x="63.623047" xlink:href="#DejaVuSans-48"/>
       <use x="127.246094" xlink:href="#DejaVuSans-48"/>
      </g>
     </g>
    </g>
    <g id="xtick_4">
     <g id="line2d_4">
      <g>
       <use style="stroke:#000000;stroke-width:0.8;" x="201.102258" xlink:href="#md62592c8fd" y="303.64"/>
      </g>
     </g>
     <g id="text_4">
      <!-- 750 -->
      <g transform="translate(191.558508 318.238437)scale(0.1 -0.1)">
       <defs>
        <path d="M 8.203125 72.90625 
L 55.078125 72.90625 
L 55.078125 68.703125 
L 28.609375 0 
L 18.3125 0 
L 43.21875 64.59375 
L 8.203125 64.59375 
z
" id="DejaVuSans-55"/>
       </defs>
       <use xlink:href="#DejaVuSans-55"/>
       <use x="63.623047" xlink:href="#DejaVuSans-53"/>
       <use x="127.246094" xlink:href="#DejaVuSans-48"/>
      </g>
     </g>
    </g>
    <g id="xtick_5">
     <g id="line2d_5">
      <g>
       <use style="stroke:#000000;stroke-width:0.8;" x="248.035421" xlink:href="#md62592c8fd" y="303.64"/>
      </g>
     </g>
     <g id="text_5">
      <!-- 1000 -->
      <g transform="translate(235.310421 318.238437)scale(0.1 -0.1)">
       <defs>
        <path d="M 12.40625 8.296875 
L 28.515625 8.296875 
L 28.515625 63.921875 
L 10.984375 60.40625 
L 10.984375 69.390625 
L 28.421875 72.90625 
L 38.28125 72.90625 
L 38.28125 8.296875 
L 54.390625 8.296875 
L 54.390625 0 
L 12.40625 0 
z
" id="DejaVuSans-49"/>
       </defs>
       <use xlink:href="#DejaVuSans-49"/>
       <use x="63.623047" xlink:href="#DejaVuSans-48"/>
       <use x="127.246094" xlink:href="#DejaVuSans-48"/>
       <use x="190.869141" xlink:href="#DejaVuSans-48"/>
      </g>
     </g>
    </g>
    <g id="xtick_6">
     <g id="line2d_6">
      <g>
       <use style="stroke:#000000;stroke-width:0.8;" x="294.968585" xlink:href="#md62592c8fd" y="303.64"/>
      </g>
     </g>
     <g id="text_6">
      <!-- 1250 -->
      <g transform="translate(282.243585 318.238437)scale(0.1 -0.1)">
       <use xlink:href="#DejaVuSans-49"/>
       <use x="63.623047" xlink:href="#DejaVuSans-50"/>
       <use x="127.246094" xlink:href="#DejaVuSans-53"/>
       <use x="190.869141" xlink:href="#DejaVuSans-48"/>
      </g>
     </g>
    </g>
    <g id="xtick_7">
     <g id="line2d_7">
      <g>
       <use style="stroke:#000000;stroke-width:0.8;" x="341.901749" xlink:href="#md62592c8fd" y="303.64"/>
      </g>
     </g>
     <g id="text_7">
      <!-- 1500 -->
      <g transform="translate(329.176749 318.238437)scale(0.1 -0.1)">
       <use xlink:href="#DejaVuSans-49"/>
       <use x="63.623047" xlink:href="#DejaVuSans-53"/>
       <use x="127.246094" xlink:href="#DejaVuSans-48"/>
       <use x="190.869141" xlink:href="#DejaVuSans-48"/>
      </g>
     </g>
    </g>
    <g id="xtick_8">
     <g id="line2d_8">
      <g>
       <use style="stroke:#000000;stroke-width:0.8;" x="388.834912" xlink:href="#md62592c8fd" y="303.64"/>
      </g>
     </g>
     <g id="text_8">
      <!-- 1750 -->
      <g transform="translate(376.109912 318.238437)scale(0.1 -0.1)">
       <use xlink:href="#DejaVuSans-49"/>
       <use x="63.623047" xlink:href="#DejaVuSans-55"/>
       <use x="127.246094" xlink:href="#DejaVuSans-53"/>
       <use x="190.869141" xlink:href="#DejaVuSans-48"/>
      </g>
     </g>
    </g>
    <g id="xtick_9">
     <g id="line2d_9">
      <g>
       <use style="stroke:#000000;stroke-width:0.8;" x="435.768076" xlink:href="#md62592c8fd" y="303.64"/>
      </g>
     </g>
     <g id="text_9">
      <!-- 2000 -->
      <g transform="translate(423.043076 318.238437)scale(0.1 -0.1)">
       <use xlink:href="#DejaVuSans-50"/>
       <use x="63.623047" xlink:href="#DejaVuSans-48"/>
       <use x="127.246094" xlink:href="#DejaVuSans-48"/>
       <use x="190.869141" xlink:href="#DejaVuSans-48"/>
      </g>
     </g>
    </g>
    <g id="text_10">
     <!-- Time (sec) -->
     <g transform="translate(220.916089 331.916562)scale(0.1 -0.1)">
      <defs>
       <path d="M -0.296875 72.90625 
L 61.375 72.90625 
L 61.375 64.59375 
L 35.5 64.59375 
L 35.5 0 
L 25.59375 0 
L 25.59375 64.59375 
L -0.296875 64.59375 
z
" id="DejaVuSans-84"/>
       <path d="M 9.421875 54.6875 
L 18.40625 54.6875 
L 18.40625 0 
L 9.421875 0 
z
M 9.421875 75.984375 
L 18.40625 75.984375 
L 18.40625 64.59375 
L 9.421875 64.59375 
z
" id="DejaVuSans-105"/>
       <path d="M 52 44.1875 
Q 55.375 50.25 60.0625 53.125 
Q 64.75 56 71.09375 56 
Q 79.640625 56 84.28125 50.015625 
Q 88.921875 44.046875 88.921875 33.015625 
L 88.921875 0 
L 79.890625 0 
L 79.890625 32.71875 
Q 79.890625 40.578125 77.09375 44.375 
Q 74.3125 48.1875 68.609375 48.1875 
Q 61.625 48.1875 57.5625 43.546875 
Q 53.515625 38.921875 53.515625 30.90625 
L 53.515625 0 
L 44.484375 0 
L 44.484375 32.71875 
Q 44.484375 40.625 41.703125 44.40625 
Q 38.921875 48.1875 33.109375 48.1875 
Q 26.21875 48.1875 22.15625 43.53125 
Q 18.109375 38.875 18.109375 30.90625 
L 18.109375 0 
L 9.078125 0 
L 9.078125 54.6875 
L 18.109375 54.6875 
L 18.109375 46.1875 
Q 21.1875 51.21875 25.484375 53.609375 
Q 29.78125 56 35.6875 56 
Q 41.65625 56 45.828125 52.96875 
Q 50 49.953125 52 44.1875 
z
" id="DejaVuSans-109"/>
       <path d="M 56.203125 29.59375 
L 56.203125 25.203125 
L 14.890625 25.203125 
Q 15.484375 15.921875 20.484375 11.0625 
Q 25.484375 6.203125 34.421875 6.203125 
Q 39.59375 6.203125 44.453125 7.46875 
Q 49.3125 8.734375 54.109375 11.28125 
L 54.109375 2.78125 
Q 49.265625 0.734375 44.1875 -0.34375 
Q 39.109375 -1.421875 33.890625 -1.421875 
Q 20.796875 -1.421875 13.15625 6.1875 
Q 5.515625 13.8125 5.515625 26.8125 
Q 5.515625 40.234375 12.765625 48.109375 
Q 20.015625 56 32.328125 56 
Q 43.359375 56 49.78125 48.890625 
Q 56.203125 41.796875 56.203125 29.59375 
z
M 47.21875 32.234375 
Q 47.125 39.59375 43.09375 43.984375 
Q 39.0625 48.390625 32.421875 48.390625 
Q 24.90625 48.390625 20.390625 44.140625 
Q 15.875 39.890625 15.1875 32.171875 
z
" id="DejaVuSans-101"/>
       <path id="DejaVuSans-32"/>
       <path d="M 31 75.875 
Q 24.46875 64.65625 21.28125 53.65625 
Q 18.109375 42.671875 18.109375 31.390625 
Q 18.109375 20.125 21.3125 9.0625 
Q 24.515625 -2 31 -13.1875 
L 23.1875 -13.1875 
Q 15.875 -1.703125 12.234375 9.375 
Q 8.59375 20.453125 8.59375 31.390625 
Q 8.59375 42.28125 12.203125 53.3125 
Q 15.828125 64.359375 23.1875 75.875 
z
" id="DejaVuSans-40"/>
       <path d="M 44.28125 53.078125 
L 44.28125 44.578125 
Q 40.484375 46.53125 36.375 47.5 
Q 32.28125 48.484375 27.875 48.484375 
Q 21.1875 48.484375 17.84375 46.4375 
Q 14.5 44.390625 14.5 40.28125 
Q 14.5 37.15625 16.890625 35.375 
Q 19.28125 33.59375 26.515625 31.984375 
L 29.59375 31.296875 
Q 39.15625 29.25 43.1875 25.515625 
Q 47.21875 21.78125 47.21875 15.09375 
Q 47.21875 7.46875 41.1875 3.015625 
Q 35.15625 -1.421875 24.609375 -1.421875 
Q 20.21875 -1.421875 15.453125 -0.5625 
Q 10.6875 0.296875 5.421875 2 
L 5.421875 11.28125 
Q 10.40625 8.6875 15.234375 7.390625 
Q 20.0625 6.109375 24.8125 6.109375 
Q 31.15625 6.109375 34.5625 8.28125 
Q 37.984375 10.453125 37.984375 14.40625 
Q 37.984375 18.0625 35.515625 20.015625 
Q 33.0625 21.96875 24.703125 23.78125 
L 21.578125 24.515625 
Q 13.234375 26.265625 9.515625 29.90625 
Q 5.8125 33.546875 5.8125 39.890625 
Q 5.8125 47.609375 11.28125 51.796875 
Q 16.75 56 26.8125 56 
Q 31.78125 56 36.171875 55.265625 
Q 40.578125 54.546875 44.28125 53.078125 
z
" id="DejaVuSans-115"/>
       <path d="M 48.78125 52.59375 
L 48.78125 44.1875 
Q 44.96875 46.296875 41.140625 47.34375 
Q 37.3125 48.390625 33.40625 48.390625 
Q 24.65625 48.390625 19.8125 42.84375 
Q 14.984375 37.3125 14.984375 27.296875 
Q 14.984375 17.28125 19.8125 11.734375 
Q 24.65625 6.203125 33.40625 6.203125 
Q 37.3125 6.203125 41.140625 7.25 
Q 44.96875 8.296875 48.78125 10.40625 
L 48.78125 2.09375 
Q 45.015625 0.34375 40.984375 -0.53125 
Q 36.96875 -1.421875 32.421875 -1.421875 
Q 20.0625 -1.421875 12.78125 6.34375 
Q 5.515625 14.109375 5.515625 27.296875 
Q 5.515625 40.671875 12.859375 48.328125 
Q 20.21875 56 33.015625 56 
Q 37.15625 56 41.109375 55.140625 
Q 45.0625 54.296875 48.78125 52.59375 
z
" id="DejaVuSans-99"/>
       <path d="M 8.015625 75.875 
L 15.828125 75.875 
Q 23.140625 64.359375 26.78125 53.3125 
Q 30.421875 42.28125 30.421875 31.390625 
Q 30.421875 20.453125 26.78125 9.375 
Q 23.140625 -1.703125 15.828125 -13.1875 
L 8.015625 -13.1875 
Q 14.5 -2 17.703125 9.0625 
Q 20.90625 20.125 20.90625 31.390625 
Q 20.90625 42.671875 17.703125 53.65625 
Q 14.5 64.65625 8.015625 75.875 
z
" id="DejaVuSans-41"/>
      </defs>
      <use xlink:href="#DejaVuSans-84"/>
      <use x="57.958984" xlink:href="#DejaVuSans-105"/>
      <use x="85.742188" xlink:href="#DejaVuSans-109"/>
      <use x="183.154297" xlink:href="#DejaVuSans-101"/>
      <use x="244.677734" xlink:href="#DejaVuSans-32"/>
      <use x="276.464844" xlink:href="#DejaVuSans-40"/>
      <use x="315.478516" xlink:href="#DejaVuSans-115"/>
      <use x="367.578125" xlink:href="#DejaVuSans-101"/>
      <use x="429.101562" xlink:href="#DejaVuSans-99"/>
      <use x="484.082031" xlink:href="#DejaVuSans-41"/>
     </g>
    </g>
   </g>
   <g id="matplotlib.axis_2">
    <g id="ytick_1">
     <g id="line2d_10">
      <defs>
       <path d="M 0 0 
L -3.5 0 
" id="m63fb73ff9c" style="stroke:#000000;stroke-width:0.8;"/>
      </defs>
      <g>
       <use style="stroke:#000000;stroke-width:0.8;" x="44.57" xlink:href="#m63fb73ff9c" y="259.792818"/>
      </g>
     </g>
     <g id="text_11">
      <!-- 20 -->
      <g transform="translate(24.845 263.592037)scale(0.1 -0.1)">
       <use xlink:href="#DejaVuSans-50"/>
       <use x="63.623047" xlink:href="#DejaVuSans-48"/>
      </g>
     </g>
    </g>
    <g id="ytick_2">
     <g id="line2d_11">
      <g>
       <use style="stroke:#000000;stroke-width:0.8;" x="44.57" xlink:href="#m63fb73ff9c" y="196.637102"/>
      </g>
     </g>
     <g id="text_12">
      <!-- 40 -->
      <g transform="translate(24.845 200.436321)scale(0.1 -0.1)">
       <defs>
        <path d="M 37.796875 64.3125 
L 12.890625 25.390625 
L 37.796875 25.390625 
z
M 35.203125 72.90625 
L 47.609375 72.90625 
L 47.609375 25.390625 
L 58.015625 25.390625 
L 58.015625 17.1875 
L 47.609375 17.1875 
L 47.609375 0 
L 37.796875 0 
L 37.796875 17.1875 
L 4.890625 17.1875 
L 4.890625 26.703125 
z
" id="DejaVuSans-52"/>
       </defs>
       <use xlink:href="#DejaVuSans-52"/>
       <use x="63.623047" xlink:href="#DejaVuSans-48"/>
      </g>
     </g>
    </g>
    <g id="ytick_3">
     <g id="line2d_12">
      <g>
       <use style="stroke:#000000;stroke-width:0.8;" x="44.57" xlink:href="#m63fb73ff9c" y="133.481386"/>
      </g>
     </g>
     <g id="text_13">
      <!-- 60 -->
      <g transform="translate(24.845 137.280604)scale(0.1 -0.1)">
       <defs>
        <path d="M 33.015625 40.375 
Q 26.375 40.375 22.484375 35.828125 
Q 18.609375 31.296875 18.609375 23.390625 
Q 18.609375 15.53125 22.484375 10.953125 
Q 26.375 6.390625 33.015625 6.390625 
Q 39.65625 6.390625 43.53125 10.953125 
Q 47.40625 15.53125 47.40625 23.390625 
Q 47.40625 31.296875 43.53125 35.828125 
Q 39.65625 40.375 33.015625 40.375 
z
M 52.59375 71.296875 
L 52.59375 62.3125 
Q 48.875 64.0625 45.09375 64.984375 
Q 41.3125 65.921875 37.59375 65.921875 
Q 27.828125 65.921875 22.671875 59.328125 
Q 17.53125 52.734375 16.796875 39.40625 
Q 19.671875 43.65625 24.015625 45.921875 
Q 28.375 48.1875 33.59375 48.1875 
Q 44.578125 48.1875 50.953125 41.515625 
Q 57.328125 34.859375 57.328125 23.390625 
Q 57.328125 12.15625 50.6875 5.359375 
Q 44.046875 -1.421875 33.015625 -1.421875 
Q 20.359375 -1.421875 13.671875 8.265625 
Q 6.984375 17.96875 6.984375 36.375 
Q 6.984375 53.65625 15.1875 63.9375 
Q 23.390625 74.21875 37.203125 74.21875 
Q 40.921875 74.21875 44.703125 73.484375 
Q 48.484375 72.75 52.59375 71.296875 
z
" id="DejaVuSans-54"/>
       </defs>
       <use xlink:href="#DejaVuSans-54"/>
       <use x="63.623047" xlink:href="#DejaVuSans-48"/>
      </g>
     </g>
    </g>
    <g id="ytick_4">
     <g id="line2d_13">
      <g>
       <use style="stroke:#000000;stroke-width:0.8;" x="44.57" xlink:href="#m63fb73ff9c" y="70.325669"/>
      </g>
     </g>
     <g id="text_14">
      <!-- 80 -->
      <g transform="translate(24.845 74.124888)scale(0.1 -0.1)">
       <defs>
        <path d="M 31.78125 34.625 
Q 24.75 34.625 20.71875 30.859375 
Q 16.703125 27.09375 16.703125 20.515625 
Q 16.703125 13.921875 20.71875 10.15625 
Q 24.75 6.390625 31.78125 6.390625 
Q 38.8125 6.390625 42.859375 10.171875 
Q 46.921875 13.96875 46.921875 20.515625 
Q 46.921875 27.09375 42.890625 30.859375 
Q 38.875 34.625 31.78125 34.625 
z
M 21.921875 38.8125 
Q 15.578125 40.375 12.03125 44.71875 
Q 8.5 49.078125 8.5 55.328125 
Q 8.5 64.0625 14.71875 69.140625 
Q 20.953125 74.21875 31.78125 74.21875 
Q 42.671875 74.21875 48.875 69.140625 
Q 55.078125 64.0625 55.078125 55.328125 
Q 55.078125 49.078125 51.53125 44.71875 
Q 48 40.375 41.703125 38.8125 
Q 48.828125 37.15625 52.796875 32.3125 
Q 56.78125 27.484375 56.78125 20.515625 
Q 56.78125 9.90625 50.3125 4.234375 
Q 43.84375 -1.421875 31.78125 -1.421875 
Q 19.734375 -1.421875 13.25 4.234375 
Q 6.78125 9.90625 6.78125 20.515625 
Q 6.78125 27.484375 10.78125 32.3125 
Q 14.796875 37.15625 21.921875 38.8125 
z
M 18.3125 54.390625 
Q 18.3125 48.734375 21.84375 45.5625 
Q 25.390625 42.390625 31.78125 42.390625 
Q 38.140625 42.390625 41.71875 45.5625 
Q 45.3125 48.734375 45.3125 54.390625 
Q 45.3125 60.0625 41.71875 63.234375 
Q 38.140625 66.40625 31.78125 66.40625 
Q 25.390625 66.40625 21.84375 63.234375 
Q 18.3125 60.0625 18.3125 54.390625 
z
" id="DejaVuSans-56"/>
       </defs>
       <use xlink:href="#DejaVuSans-56"/>
       <use x="63.623047" xlink:href="#DejaVuSans-48"/>
      </g>
     </g>
    </g>
    <g id="text_15">
     <!-- Test Accuracy (%) -->
     <g transform="translate(18.765313 201.723906)rotate(-90)scale(0.1 -0.1)">
      <defs>
       <path d="M 18.3125 70.21875 
L 18.3125 54.6875 
L 36.8125 54.6875 
L 36.8125 47.703125 
L 18.3125 47.703125 
L 18.3125 18.015625 
Q 18.3125 11.328125 20.140625 9.421875 
Q 21.96875 7.515625 27.59375 7.515625 
L 36.8125 7.515625 
L 36.8125 0 
L 27.59375 0 
Q 17.1875 0 13.234375 3.875 
Q 9.28125 7.765625 9.28125 18.015625 
L 9.28125 47.703125 
L 2.6875 47.703125 
L 2.6875 54.6875 
L 9.28125 54.6875 
L 9.28125 70.21875 
z
" id="DejaVuSans-116"/>
       <path d="M 34.1875 63.1875 
L 20.796875 26.90625 
L 47.609375 26.90625 
z
M 28.609375 72.90625 
L 39.796875 72.90625 
L 67.578125 0 
L 57.328125 0 
L 50.6875 18.703125 
L 17.828125 18.703125 
L 11.1875 0 
L 0.78125 0 
z
" id="DejaVuSans-65"/>
       <path d="M 8.5 21.578125 
L 8.5 54.6875 
L 17.484375 54.6875 
L 17.484375 21.921875 
Q 17.484375 14.15625 20.5 10.265625 
Q 23.53125 6.390625 29.59375 6.390625 
Q 36.859375 6.390625 41.078125 11.03125 
Q 45.3125 15.671875 45.3125 23.6875 
L 45.3125 54.6875 
L 54.296875 54.6875 
L 54.296875 0 
L 45.3125 0 
L 45.3125 8.40625 
Q 42.046875 3.421875 37.71875 1 
Q 33.40625 -1.421875 27.6875 -1.421875 
Q 18.265625 -1.421875 13.375 4.4375 
Q 8.5 10.296875 8.5 21.578125 
z
M 31.109375 56 
z
" id="DejaVuSans-117"/>
       <path d="M 41.109375 46.296875 
Q 39.59375 47.171875 37.8125 47.578125 
Q 36.03125 48 33.890625 48 
Q 26.265625 48 22.1875 43.046875 
Q 18.109375 38.09375 18.109375 28.8125 
L 18.109375 0 
L 9.078125 0 
L 9.078125 54.6875 
L 18.109375 54.6875 
L 18.109375 46.1875 
Q 20.953125 51.171875 25.484375 53.578125 
Q 30.03125 56 36.53125 56 
Q 37.453125 56 38.578125 55.875 
Q 39.703125 55.765625 41.0625 55.515625 
z
" id="DejaVuSans-114"/>
       <path d="M 34.28125 27.484375 
Q 23.390625 27.484375 19.1875 25 
Q 14.984375 22.515625 14.984375 16.5 
Q 14.984375 11.71875 18.140625 8.90625 
Q 21.296875 6.109375 26.703125 6.109375 
Q 34.1875 6.109375 38.703125 11.40625 
Q 43.21875 16.703125 43.21875 25.484375 
L 43.21875 27.484375 
z
M 52.203125 31.203125 
L 52.203125 0 
L 43.21875 0 
L 43.21875 8.296875 
Q 40.140625 3.328125 35.546875 0.953125 
Q 30.953125 -1.421875 24.3125 -1.421875 
Q 15.921875 -1.421875 10.953125 3.296875 
Q 6 8.015625 6 15.921875 
Q 6 25.140625 12.171875 29.828125 
Q 18.359375 34.515625 30.609375 34.515625 
L 43.21875 34.515625 
L 43.21875 35.40625 
Q 43.21875 41.609375 39.140625 45 
Q 35.0625 48.390625 27.6875 48.390625 
Q 23 48.390625 18.546875 47.265625 
Q 14.109375 46.140625 10.015625 43.890625 
L 10.015625 52.203125 
Q 14.9375 54.109375 19.578125 55.046875 
Q 24.21875 56 28.609375 56 
Q 40.484375 56 46.34375 49.84375 
Q 52.203125 43.703125 52.203125 31.203125 
z
" id="DejaVuSans-97"/>
       <path d="M 32.171875 -5.078125 
Q 28.375 -14.84375 24.75 -17.8125 
Q 21.140625 -20.796875 15.09375 -20.796875 
L 7.90625 -20.796875 
L 7.90625 -13.28125 
L 13.1875 -13.28125 
Q 16.890625 -13.28125 18.9375 -11.515625 
Q 21 -9.765625 23.484375 -3.21875 
L 25.09375 0.875 
L 2.984375 54.6875 
L 12.5 54.6875 
L 29.59375 11.921875 
L 46.6875 54.6875 
L 56.203125 54.6875 
z
" id="DejaVuSans-121"/>
       <path d="M 72.703125 32.078125 
Q 68.453125 32.078125 66.03125 28.46875 
Q 63.625 24.859375 63.625 18.40625 
Q 63.625 12.0625 66.03125 8.421875 
Q 68.453125 4.78125 72.703125 4.78125 
Q 76.859375 4.78125 79.265625 8.421875 
Q 81.6875 12.0625 81.6875 18.40625 
Q 81.6875 24.8125 79.265625 28.4375 
Q 76.859375 32.078125 72.703125 32.078125 
z
M 72.703125 38.28125 
Q 80.421875 38.28125 84.953125 32.90625 
Q 89.5 27.546875 89.5 18.40625 
Q 89.5 9.28125 84.9375 3.921875 
Q 80.375 -1.421875 72.703125 -1.421875 
Q 64.890625 -1.421875 60.34375 3.921875 
Q 55.8125 9.28125 55.8125 18.40625 
Q 55.8125 27.59375 60.375 32.9375 
Q 64.9375 38.28125 72.703125 38.28125 
z
M 22.3125 68.015625 
Q 18.109375 68.015625 15.6875 64.375 
Q 13.28125 60.75 13.28125 54.390625 
Q 13.28125 47.953125 15.671875 44.328125 
Q 18.0625 40.71875 22.3125 40.71875 
Q 26.5625 40.71875 28.96875 44.328125 
Q 31.390625 47.953125 31.390625 54.390625 
Q 31.390625 60.6875 28.953125 64.34375 
Q 26.515625 68.015625 22.3125 68.015625 
z
M 66.40625 74.21875 
L 74.21875 74.21875 
L 28.609375 -1.421875 
L 20.796875 -1.421875 
z
M 22.3125 74.21875 
Q 30.03125 74.21875 34.609375 68.875 
Q 39.203125 63.53125 39.203125 54.390625 
Q 39.203125 45.171875 34.640625 39.84375 
Q 30.078125 34.515625 22.3125 34.515625 
Q 14.546875 34.515625 10.03125 39.859375 
Q 5.515625 45.21875 5.515625 54.390625 
Q 5.515625 63.484375 10.046875 68.84375 
Q 14.59375 74.21875 22.3125 74.21875 
z
" id="DejaVuSans-37"/>
      </defs>
      <use xlink:href="#DejaVuSans-84"/>
      <use x="44.083984" xlink:href="#DejaVuSans-101"/>
      <use x="105.607422" xlink:href="#DejaVuSans-115"/>
      <use x="157.707031" xlink:href="#DejaVuSans-116"/>
      <use x="196.916016" xlink:href="#DejaVuSans-32"/>
      <use x="228.703125" xlink:href="#DejaVuSans-65"/>
      <use x="295.361328" xlink:href="#DejaVuSans-99"/>
      <use x="350.341797" xlink:href="#DejaVuSans-99"/>
      <use x="405.322266" xlink:href="#DejaVuSans-117"/>
      <use x="468.701172" xlink:href="#DejaVuSans-114"/>
      <use x="509.814453" xlink:href="#DejaVuSans-97"/>
      <use x="571.09375" xlink:href="#DejaVuSans-99"/>
      <use x="626.074219" xlink:href="#DejaVuSans-121"/>
      <use x="685.253906" xlink:href="#DejaVuSans-32"/>
      <use x="717.041016" xlink:href="#DejaVuSans-40"/>
      <use x="756.054688" xlink:href="#DejaVuSans-37"/>
      <use x="851.074219" xlink:href="#DejaVuSans-41"/>
     </g>
    </g>
   </g>
   <g id="line2d_14">
    <path clip-path="url(#pf9839a6f20)" d="M 63.168674 276.445204 
L 65.616598 255.598884 
L 68.144358 239.825374 
L 70.631043 225.624589 
L 73.126801 196.868385 
L 75.649521 152.847494 
L 78.146298 124.600113 
L 80.585379 115.225436 
L 83.00099 107.454323 
L 85.456614 82.414068 
L 87.856893 78.466836 
L 90.270586 83.616741 
L 92.735409 77.140813 
L 95.194397 75.25971 
L 97.677974 71.713368 
L 100.227471 61.351884 
L 102.724144 66.625139 
L 105.159062 58.823188 
L 107.609851 52.6248 
L 110.026712 66.655977 
L 112.547937 56.078628 
L 115.043605 56.757058 
L 117.454464 63.788066 
L 119.945863 61.906963 
L 122.389491 63.232986 
L 124.883377 55.893601 
L 127.346992 59.995022 
L 129.818564 56.787896 
L 132.24517 59.100728 
L 134.684914 52.038882 
L 137.137611 54.012499 
L 139.571458 53.58077 
L 142.044147 53.519095 
L 144.519917 52.162233 
L 146.95145 50.527833 
L 149.457788 57.651353 
L 151.933292 62.061152 
L 154.426798 57.466327 
L 156.915638 48.708405 
L 159.390391 59.995022 
L 161.960565 50.496995 
L 164.428604 48.215001 
L 166.888965 51.052074 
L 169.399394 48.677567 
L 171.847228 50.096104 
L 174.313731 47.474895 
L 176.745946 47.320706 
L 181.659293 50.188617 
L 184.050872 49.04762 
L 188.991196 51.298776 
L 191.424894 50.774535 
L 193.912027 49.571862 
L 196.330696 50.805372 
L 198.812549 44.483633 
L 201.228787 52.008045 
L 203.660147 57.219625 
L 206.120888 49.633538 
L 208.573263 41.36902 
L 211.084681 49.541024 
L 213.56169 49.32516 
L 215.997109 44.267769 
L 218.482275 41.36902 
L 220.96858 48.677567 
L 223.489004 49.6027 
L 225.944325 42.078288 
L 228.409615 46.087196 
L 230.855762 49.078458 
L 233.324999 43.373474 
L 235.78794 46.241385 
L 238.246327 46.272223 
L 240.686289 43.589338 
L 243.193275 46.426412 
L 245.648428 43.620176 
L 248.083143 43.311799 
L 250.520188 46.241385 
L 252.970336 40.721427 
L 255.450744 42.849232 
L 257.933294 42.972583 
L 260.454012 41.769911 
L 262.97203 40.104672 
L 265.440802 43.003421 
L 267.888615 41.9241 
L 270.417947 40.998967 
L 272.899513 43.527663 
L 275.364893 39.426242 
L 277.749095 40.783103 
L 280.215518 38.377758 
L 282.729961 38.223569 
L 285.207383 40.042997 
L 287.691193 42.016613 
L 290.213845 38.963676 
L 292.662921 39.087027 
L 295.096759 36.188278 
L 297.520954 37.452626 
L 299.947277 36.743357 
L 304.947176 37.175086 
L 307.408415 35.787387 
L 309.866294 36.373304 
L 312.37052 36.774195 
L 314.858861 36.003251 
L 317.330565 34.091311 
L 319.790681 39.17954 
L 322.279529 35.016443 
L 324.816456 33.197016 
L 327.35548 34.399688 
L 329.857447 33.96796 
L 332.309228 32.919476 
L 334.7641 33.41288 
L 337.234764 34.060473 
L 339.721288 34.492201 
L 342.231908 32.919476 
L 344.677572 32.950314 
L 347.128929 34.060473 
L 349.603001 32.672774 
L 352.014658 32.271883 
L 354.541739 31.408426 
L 357.044052 31.840155 
L 359.53183 30.637482 
L 362.026502 32.056019 
L 364.520509 29.43481 
L 366.928804 29.311459 
L 369.374162 31.50094 
L 371.849315 30.483294 
L 374.312985 29.249784 
L 376.783653 30.976698 
L 379.206913 29.71235 
L 381.655151 29.095595 
L 384.131079 29.311459 
L 386.642429 28.077949 
L 389.115952 29.43481 
L 391.63444 28.725542 
L 394.09876 28.972244 
L 396.607398 28.725542 
L 399.105894 28.293813 
L 401.575652 28.355489 
L 404.057048 27.646221 
L 406.473622 28.818055 
L 409.029356 28.355489 
L 411.473102 28.077949 
L 413.902048 27.954598 
L 416.35903 27.337843 
L 418.800778 27.461194 
L 421.240298 27.769572 
L 423.751888 27.862085 
L 426.265943 27.430356 
L 431.162391 27.430356 
L 431.162391 27.430356 
" style="fill:none;stroke:#1f77b4;stroke-linecap:square;stroke-width:1.5;"/>
   </g>
   <g id="line2d_15">
    <path clip-path="url(#pf9839a6f20)" d="M 62.979161 288.16355 
L 65.02496 286.189934 
L 67.141967 270.030952 
L 69.176268 262.013136 
L 71.244172 246.216498 
L 73.342124 240.796763 
L 75.475839 216.234493 
L 77.624461 198.85742 
L 79.718632 177.980262 
L 81.813577 160.263973 
L 83.896112 151.028067 
L 86.018636 127.313835 
L 88.025503 102.026879 
L 90.092333 113.005118 
L 92.137734 107.176783 
L 94.397655 104.740601 
L 96.42004 103.507091 
L 98.576813 82.753283 
L 100.770449 80.070399 
L 102.922717 87.47146 
L 105.080224 90.493559 
L 107.141372 88.088215 
L 109.319779 80.563803 
L 111.436279 80.070399 
L 113.47694 88.42743 
L 115.55255 77.356677 
L 117.623237 82.044015 
L 119.722743 78.127621 
L 121.789353 69.708914 
L 123.923693 77.72673 
L 126.248537 68.475404 
L 128.386543 72.391799 
L 130.416258 70.603209 
L 132.488911 66.871841 
L 134.708633 66.625139 
L 136.75497 72.422637 
L 138.835596 72.885203 
L 141.080588 78.806051 
L 143.216617 70.202318 
L 145.318329 68.506242 
L 147.48297 63.541364 
L 149.571954 60.550102 
L 151.76002 72.145097 
L 153.917139 67.272732 
L 156.095714 68.382891 
L 158.323267 67.889487 
L 160.383383 71.219964 
L 162.550862 62.061152 
L 164.74807 58.699837 
L 166.919336 58.083082 
L 169.051843 56.664545 
L 171.135409 65.175765 
L 173.378566 61.53691 
L 175.544487 59.008214 
L 177.651526 64.898225 
L 179.808233 59.008214 
L 181.89039 57.373814 
L 183.981708 54.690929 
L 186.038925 55.924439 
L 188.185385 54.875956 
L 190.440769 54.937631 
L 192.588564 55.862764 
L 194.760437 51.977207 
L 196.94371 56.356168 
L 199.015186 54.906793 
L 201.068971 54.721767 
L 203.13919 51.483803 
L 205.422055 55.431035 
L 207.550386 52.408935 
L 209.683345 52.008045 
L 211.825759 54.012499 
L 213.988665 51.514641 
L 216.059936 54.351714 
L 218.241173 49.756889 
L 220.372322 47.505733 
L 222.572882 50.034429 
L 224.687648 49.88024 
L 226.79142 50.990399 
L 228.893064 47.875786 
L 230.972686 47.968299 
L 233.151323 46.056359 
L 235.265086 51.329614 
L 237.412544 43.373474 
L 239.560217 49.386836 
L 241.612714 49.818564 
L 243.761983 45.963845 
L 245.86255 49.818564 
L 248.03948 45.100388 
L 250.157723 46.765627 
L 252.251068 44.267769 
L 254.480932 43.095934 
L 256.547573 44.082742 
L 258.653568 43.126772 
L 260.779574 44.884524 
L 265.111504 40.320537 
L 267.224873 44.39112 
L 269.36652 38.902 
L 271.540291 41.954937 
L 273.626286 39.056189 
L 275.775305 38.439434 
L 277.908528 39.210378 
L 279.933035 42.201639 
L 282.135216 37.144248 
L 284.189183 40.228023 
L 286.390499 40.628914 
L 288.464997 40.012159 
L 290.524471 38.007705 
L 294.681202 41.09148 
L 296.852961 38.131056 
L 299.036738 38.192732 
L 301.17209 35.540685 
L 303.315582 36.527493 
L 305.514358 37.699328 
L 307.655413 35.47901 
L 309.808364 34.615552 
L 311.933244 34.399688 
L 314.015373 33.844609 
L 316.090357 33.844609 
L 318.350957 33.96796 
L 320.478937 30.822509 
L 322.567311 31.624291 
L 324.72854 33.166178 
L 326.882485 31.161724 
L 333.127238 29.959052 
L 335.270347 32.611099 
L 337.374867 31.439264 
L 339.57265 29.188108 
L 341.67767 29.835701 
L 343.744335 30.976698 
L 345.856801 29.403972 
L 348.061004 30.051565 
L 350.327183 30.483294 
L 352.404329 30.544969 
L 354.577369 29.373135 
L 356.713042 29.866539 
L 358.761654 29.71235 
L 360.873569 29.15727 
L 362.986062 29.928214 
L 365.036449 29.650674 
L 367.358585 29.650674 
L 369.392042 29.15727 
L 373.554277 29.218946 
L 375.714506 28.47884 
L 377.784504 29.003082 
L 379.99273 29.311459 
L 379.99273 29.311459 
" style="fill:none;stroke:#ff7f0e;stroke-linecap:square;stroke-width:1.5;"/>
   </g>
   <g id="line2d_16">
    <path clip-path="url(#pf9839a6f20)" d="M 63.01066 287.916848 
L 65.032698 285.943232 
L 67.180936 267.687283 
L 69.298057 256.955745 
L 71.454166 250.287081 
L 73.613967 235.006975 
L 75.769272 209.218905 
L 78.035256 186.522319 
L 80.20216 180.231418 
L 82.354184 142.33182 
L 84.498878 129.133263 
L 86.572881 120.437017 
L 88.7045 102.797822 
L 90.783254 107.608512 
L 92.942523 91.357016 
L 95.178742 111.925797 
L 97.317115 102.520283 
L 99.500148 79.576995 
L 101.683971 82.66077 
L 103.856682 83.154174 
L 106.002951 79.422806 
L 108.093942 87.348109 
L 110.24718 89.075023 
L 112.365326 85.12779 
L 114.514677 83.740092 
L 116.651801 80.594641 
L 118.800427 75.753114 
L 120.926443 74.642955 
L 123.106603 72.669339 
L 125.192862 73.378607 
L 127.409551 73.19358 
L 131.674001 70.109805 
L 133.841188 69.585563 
L 135.957158 68.352053 
L 138.121938 71.189126 
L 140.309826 81.673962 
L 142.557095 81.643124 
L 144.640608 73.532796 
L 146.788043 69.061322 
L 148.954991 58.761512 
L 151.109802 61.937801 
L 153.264262 68.598755 
L 155.381133 66.347599 
L 157.546526 66.594301 
L 159.779256 63.911417 
L 161.863039 63.603039 
L 163.99652 59.378267 
L 166.120033 60.796804 
L 168.260467 56.417843 
L 170.417468 55.924439 
L 172.577075 57.713029 
L 174.831738 62.431205 
L 177.016782 62.338692 
L 179.15648 63.04796 
L 181.255846 59.100728 
L 183.439023 56.849572 
L 185.590921 54.444227 
L 187.663733 56.541194 
L 189.752263 51.576316 
L 191.992019 62.924609 
L 194.10121 57.373814 
L 196.207106 50.373644 
L 198.263955 56.448681 
L 200.396164 55.739413 
L 202.478192 49.417673 
L 204.573584 51.514641 
L 206.757453 56.633707 
L 208.890628 55.215171 
L 210.98428 53.981661 
L 215.177122 50.682021 
L 217.316007 54.567578 
L 219.498158 53.919985 
L 221.70488 44.761173 
L 223.926956 48.985945 
L 226.042148 51.267939 
L 228.147759 49.170971 
L 230.284042 52.038882 
L 232.447498 48.184163 
L 234.522609 47.41322 
L 236.585583 49.232647 
L 240.925327 44.637822 
L 243.083648 45.871332 
L 245.218167 47.289869 
L 247.328235 47.259031 
L 249.373018 48.739243 
L 251.540873 43.589338 
L 253.626885 46.364736 
L 255.887961 44.082742 
L 257.956901 42.60253 
L 260.097106 40.443888 
L 262.225781 46.5806 
L 264.325281 42.941746 
L 266.373035 42.448342 
L 268.453253 41.769911 
L 270.542907 40.320537 
L 272.719517 43.373474 
L 274.902932 40.104672 
L 277.119768 38.747811 
L 279.20833 41.584884 
L 281.345635 37.915192 
L 283.422744 39.888808 
L 285.546607 42.695044 
L 287.762613 37.730165 
L 289.896153 39.518755 
L 292.06378 36.805033 
L 294.191035 38.747811 
L 296.382239 38.069381 
L 298.429261 41.461533 
L 300.507549 38.377758 
L 302.668402 38.285245 
L 304.866025 36.959222 
L 309.182855 37.452626 
L 311.309853 36.496655 
L 313.446402 37.020897 
L 315.475442 34.831417 
L 317.612937 33.597907 
L 319.856554 35.232308 
L 321.990112 33.659582 
L 324.107468 34.738903 
L 326.221158 33.258691 
L 328.331258 34.214662 
L 330.424169 31.747642 
L 332.564435 29.527323 
L 334.655129 32.981152 
L 336.935884 30.205754 
L 339.040268 29.897376 
L 341.189884 31.2234 
L 343.264039 31.470102 
L 345.340272 31.470102 
L 347.500368 31.192562 
L 349.628444 31.470102 
L 351.870902 30.514131 
L 353.981 30.575807 
L 356.129631 31.038373 
L 358.28127 30.421618 
L 362.519424 29.98989 
L 364.670531 29.496486 
L 366.833165 30.329105 
L 369.009519 30.329105 
L 371.14559 29.465648 
L 373.208128 30.174916 
L 375.282765 30.082403 
L 377.376746 29.527323 
L 379.544379 29.743188 
L 381.672757 30.637482 
L 381.672757 30.637482 
" style="fill:none;stroke:#2ca02c;stroke-linecap:square;stroke-width:1.5;"/>
   </g>
   <g id="line2d_17">
    <path clip-path="url(#pf9839a6f20)" d="M 62.987425 288.903656 
L 65.160855 284.833073 
L 67.25556 265.096911 
L 69.373959 256.955745 
L 71.558533 244.489584 
L 73.714514 235.245967 
L 75.814704 203.79146 
L 78.009277 190.855023 
L 80.050019 175.66743 
L 82.222486 154.82111 
L 84.252702 139.124694 
L 86.320284 125.001004 
L 88.497923 115.379625 
L 90.702188 113.621873 
L 92.818391 101.625988 
L 95.03045 105.696571 
L 97.194445 108.718671 
L 99.322843 84.387684 
L 101.368381 84.295171 
L 103.380415 85.220304 
L 105.503775 85.867896 
L 107.663447 93.392308 
L 109.903062 88.119052 
L 111.975209 90.89445 
L 114.12618 87.810675 
L 116.191713 83.89428 
L 118.34333 83.030823 
L 120.452909 78.00427 
L 122.55552 70.911587 
L 124.697743 73.872011 
L 126.921281 73.409445 
L 129.100228 74.519604 
L 131.282391 66.008384 
L 133.427981 69.092159 
L 135.568912 68.968808 
L 137.706708 69.647239 
L 139.828732 75.845627 
L 142.092877 76.462382 
L 144.311637 68.722106 
L 146.369518 67.457758 
L 148.515928 64.034768 
L 150.54061 64.034768 
L 152.642545 65.730844 
L 154.707557 62.184503 
L 156.881274 68.25954 
L 159.093097 76.616571 
L 161.238534 69.616401 
L 163.270983 62.431205 
L 165.418078 56.32533 
L 167.477256 57.959731 
L 169.579046 60.796804 
L 171.758587 58.823188 
L 173.942837 62.554556 
L 176.085671 60.272562 
L 178.244473 62.677907 
L 180.307175 55.893601 
L 182.35567 61.074344 
L 184.39279 56.695383 
L 186.589861 52.871502 
L 188.749754 56.356168 
L 190.907017 62.061152 
L 192.943244 60.889317 
L 195.080771 58.021406 
L 197.261361 54.875956 
L 199.400442 56.016952 
L 201.543807 51.082912 
L 203.656904 51.607154 
L 205.944272 55.030144 
L 208.067212 55.307684 
L 210.05832 52.34726 
L 212.193697 48.430865 
L 214.304164 55.461873 
L 216.378432 53.519095 
L 218.506642 50.712859 
L 220.63405 50.589508 
L 222.900224 57.898055 
L 224.976049 48.523379 
L 227.145291 50.373644 
L 229.311763 48.307514 
L 231.505278 47.474895 
L 233.569045 44.421958 
L 235.639015 47.906624 
L 237.793993 49.232647 
L 239.988235 44.360282 
L 242.15278 48.554216 
L 244.326752 48.400028 
L 246.457425 48.09165 
L 248.519723 44.576146 
L 250.519477 42.725881 
L 252.670628 43.805203 
L 254.956292 42.109126 
L 257.147715 42.386666 
L 259.215846 43.959391 
L 261.322193 43.15761 
L 263.537823 42.078288 
L 265.755521 45.223739 
L 267.881012 44.915362 
L 269.956576 42.633368 
L 272.137405 41.985775 
L 274.267501 43.404312 
L 276.476903 38.840325 
L 278.535769 41.276507 
L 280.727068 40.628914 
L 282.828225 39.827133 
L 284.894425 40.937292 
L 287.193817 40.258861 
L 289.34034 38.223569 
L 291.473665 36.805033 
L 293.511975 37.730165 
L 295.588533 39.426242 
L 299.737772 36.064927 
L 301.853155 35.910738 
L 304.143231 38.161894 
L 306.253902 35.633198 
L 308.354965 36.249953 
L 310.404082 33.567069 
L 312.490322 33.505393 
L 314.612619 34.060473 
L 316.662919 30.853347 
L 320.894393 32.981152 
L 322.986767 31.963506 
L 325.074043 32.518585 
L 327.162571 31.069211 
L 329.360291 30.606645 
L 331.406437 31.130887 
L 333.474417 31.870993 
L 335.641928 32.364397 
L 337.770203 29.558161 
L 342.101795 30.760833 
L 344.214383 30.606645 
L 346.335765 28.972244 
L 348.418343 29.619837 
L 350.635166 29.403972 
L 352.758571 28.170462 
L 354.846182 28.910568 
L 356.921897 28.355489 
L 359.019768 28.787217 
L 361.08557 28.540515 
L 363.183317 28.602191 
L 365.302517 28.047111 
L 367.493346 29.033919 
L 369.623344 28.170462 
L 371.660491 27.954598 
L 378.014968 28.879731 
L 380.164391 28.232138 
L 380.164391 28.232138 
" style="fill:none;stroke:#d62728;stroke-linecap:square;stroke-width:1.5;"/>
   </g>
   <g id="line2d_18">
    <path clip-path="url(#pf9839a6f20)" d="M 63.063495 288.286901 
L 65.183663 280.76249 
L 67.282788 272.868025 
L 69.41666 263.986752 
L 71.495283 251.528301 
L 73.632509 242.770379 
L 75.820793 221.554006 
L 78.051544 196.883804 
L 80.181675 175.297377 
L 82.335992 155.869594 
L 84.52054 138.014535 
L 86.66338 122.657335 
L 88.828667 119.141831 
L 90.909634 114.48533 
L 93.038275 111.247366 
L 95.30528 96.969487 
L 97.431032 103.877144 
L 99.617151 81.303909 
L 101.810386 80.74883 
L 103.925407 93.392308 
L 106.059972 92.652202 
L 108.13148 90.801937 
L 110.40396 84.757737 
L 112.483417 86.083761 
L 114.567868 80.409614 
L 116.754775 73.686984 
L 118.822131 82.444906 
L 120.984792 79.083591 
L 123.086603 74.889657 
L 125.187238 69.092159 
L 127.435765 71.836719 
L 129.562035 78.096783 
L 131.759947 74.0262 
L 133.902718 65.021576 
L 136.000702 64.497334 
L 138.04649 66.841003 
L 140.131674 78.466836 
L 142.402979 70.202318 
L 144.558959 65.915871 
L 146.663563 66.008384 
L 148.774906 62.462043 
L 150.847161 63.664715 
L 152.944791 66.501788 
L 155.122729 63.818904 
L 157.236086 71.189126 
L 159.427206 73.008554 
L 161.55675 71.435828 
L 163.747249 64.774874 
L 165.902599 67.858649 
L 168.059732 61.721937 
L 170.212939 55.246009 
L 172.311643 59.254916 
L 174.553402 58.699837 
L 176.666312 55.060982 
L 178.829177 60.765966 
L 181.017488 54.259201 
L 183.135096 58.884863 
L 185.233371 55.461873 
L 187.350918 56.448681 
L 189.490214 55.77025 
L 191.749893 64.034768 
L 193.893762 54.13585 
L 195.983377 55.492711 
L 198.147726 58.268108 
L 200.334395 57.651353 
L 202.479597 51.915531 
L 204.673898 47.444057 
L 206.905149 50.311968 
L 209.038729 53.58077 
L 211.085391 52.06972 
L 213.230073 53.426581 
L 215.337455 55.153495 
L 217.459689 50.990399 
L 219.554058 52.193071 
L 221.601813 47.320706 
L 223.832181 54.629254 
L 225.914533 47.166518 
L 227.93183 48.153326 
L 230.035979 50.589508 
L 232.199595 46.364736 
L 234.365542 46.148872 
L 236.446609 48.64673 
L 238.575573 46.272223 
L 240.829556 46.395574 
L 242.906147 47.012329 
L 244.990871 47.937461 
L 247.070179 49.355998 
L 249.176433 44.206093 
L 251.288743 45.933008 
L 253.428176 44.977037 
L 255.705193 48.276677 
L 257.822878 41.060643 
L 259.888547 43.620176 
L 262.047961 45.285415 
L 264.20188 40.998967 
L 266.30098 42.633368 
L 268.413357 39.580431 
L 270.470125 41.307345 
L 272.71944 36.620006 
L 274.78316 39.272053 
L 276.933192 42.294153 
L 279.057546 39.827133 
L 281.230619 39.672944 
L 283.371238 39.364566 
L 285.462775 38.34692 
L 287.674291 40.073835 
L 289.803835 39.056189 
L 291.91217 36.589169 
L 294.0621 38.192732 
L 296.2476 38.531947 
L 298.341977 39.518755 
L 300.423918 40.659752 
L 302.620239 36.496655 
L 307.001119 35.170632 
L 309.255048 34.183824 
L 311.402074 32.826963 
L 313.474056 35.170632 
L 315.560082 32.672774 
L 317.669254 35.139794 
L 319.986147 34.307175 
L 324.233016 31.747642 
L 326.435975 31.963506 
L 328.500425 34.36885 
L 330.632957 31.2234 
L 332.684194 31.963506 
L 334.770838 29.928214 
L 337.055271 31.254238 
L 339.179268 29.681512 
L 341.34055 29.588999 
L 343.45912 30.298267 
L 345.661877 30.791671 
L 347.780561 29.43481 
L 349.919056 28.818055 
L 352.077303 28.509678 
L 354.184444 27.368681 
L 356.307985 27.368681 
L 358.371813 27.769572 
L 362.636536 27.954598 
L 364.77346 28.663866 
L 369.12927 27.276167 
L 371.262213 27.276167 
L 373.350036 28.2013 
L 375.431929 27.892923 
L 377.54139 27.800409 
L 379.659057 28.047111 
L 381.83568 27.707896 
L 381.83568 27.707896 
" style="fill:none;stroke:#9467bd;stroke-linecap:square;stroke-width:1.5;"/>
   </g>
   <g id="patch_3">
    <path d="M 44.57 303.64 
L 44.57 10.8 
" style="fill:none;stroke:#000000;stroke-linecap:square;stroke-linejoin:miter;stroke-width:0.8;"/>
   </g>
   <g id="patch_4">
    <path d="M 449.571552 303.64 
L 449.571552 10.8 
" style="fill:none;stroke:#000000;stroke-linecap:square;stroke-linejoin:miter;stroke-width:0.8;"/>
   </g>
   <g id="patch_5">
    <path d="M 44.57 303.64 
L 449.571552 303.64 
" style="fill:none;stroke:#000000;stroke-linecap:square;stroke-linejoin:miter;stroke-width:0.8;"/>
   </g>
   <g id="patch_6">
    <path d="M 44.57 10.8 
L 449.571552 10.8 
" style="fill:none;stroke:#000000;stroke-linecap:square;stroke-linejoin:miter;stroke-width:0.8;"/>
   </g>
   <g id="legend_1">
    <g id="patch_7">
     <path d="M 282.227802 298.64 
L 442.571552 298.64 
Q 444.571552 298.64 444.571552 296.64 
L 444.571552 224.249375 
Q 444.571552 222.249375 442.571552 222.249375 
L 282.227802 222.249375 
Q 280.227802 222.249375 280.227802 224.249375 
L 280.227802 296.64 
Q 280.227802 298.64 282.227802 298.64 
z
" style="fill:#ffffff;opacity:0.8;stroke:#cccccc;stroke-linejoin:miter;"/>
    </g>
    <g id="line2d_19">
     <path d="M 284.227802 230.347812 
L 304.227802 230.347812 
" style="fill:none;stroke:#1f77b4;stroke-linecap:square;stroke-width:1.5;"/>
    </g>
    <g id="line2d_20"/>
    <g id="text_16">
     <!-- AllReduce SGD -->
     <g transform="translate(312.227802 233.847812)scale(0.1 -0.1)">
      <defs>
       <path d="M 9.421875 75.984375 
L 18.40625 75.984375 
L 18.40625 0 
L 9.421875 0 
z
" id="DejaVuSans-108"/>
       <path d="M 44.390625 34.1875 
Q 47.5625 33.109375 50.5625 29.59375 
Q 53.5625 26.078125 56.59375 19.921875 
L 66.609375 0 
L 56 0 
L 46.6875 18.703125 
Q 43.0625 26.03125 39.671875 28.421875 
Q 36.28125 30.8125 30.421875 30.8125 
L 19.671875 30.8125 
L 19.671875 0 
L 9.8125 0 
L 9.8125 72.90625 
L 32.078125 72.90625 
Q 44.578125 72.90625 50.734375 67.671875 
Q 56.890625 62.453125 56.890625 51.90625 
Q 56.890625 45.015625 53.6875 40.46875 
Q 50.484375 35.9375 44.390625 34.1875 
z
M 19.671875 64.796875 
L 19.671875 38.921875 
L 32.078125 38.921875 
Q 39.203125 38.921875 42.84375 42.21875 
Q 46.484375 45.515625 46.484375 51.90625 
Q 46.484375 58.296875 42.84375 61.546875 
Q 39.203125 64.796875 32.078125 64.796875 
z
" id="DejaVuSans-82"/>
       <path d="M 45.40625 46.390625 
L 45.40625 75.984375 
L 54.390625 75.984375 
L 54.390625 0 
L 45.40625 0 
L 45.40625 8.203125 
Q 42.578125 3.328125 38.25 0.953125 
Q 33.9375 -1.421875 27.875 -1.421875 
Q 17.96875 -1.421875 11.734375 6.484375 
Q 5.515625 14.40625 5.515625 27.296875 
Q 5.515625 40.1875 11.734375 48.09375 
Q 17.96875 56 27.875 56 
Q 33.9375 56 38.25 53.625 
Q 42.578125 51.265625 45.40625 46.390625 
z
M 14.796875 27.296875 
Q 14.796875 17.390625 18.875 11.75 
Q 22.953125 6.109375 30.078125 6.109375 
Q 37.203125 6.109375 41.296875 11.75 
Q 45.40625 17.390625 45.40625 27.296875 
Q 45.40625 37.203125 41.296875 42.84375 
Q 37.203125 48.484375 30.078125 48.484375 
Q 22.953125 48.484375 18.875 42.84375 
Q 14.796875 37.203125 14.796875 27.296875 
z
" id="DejaVuSans-100"/>
       <path d="M 53.515625 70.515625 
L 53.515625 60.890625 
Q 47.90625 63.578125 42.921875 64.890625 
Q 37.9375 66.21875 33.296875 66.21875 
Q 25.25 66.21875 20.875 63.09375 
Q 16.5 59.96875 16.5 54.203125 
Q 16.5 49.359375 19.40625 46.890625 
Q 22.3125 44.4375 30.421875 42.921875 
L 36.375 41.703125 
Q 47.40625 39.59375 52.65625 34.296875 
Q 57.90625 29 57.90625 20.125 
Q 57.90625 9.515625 50.796875 4.046875 
Q 43.703125 -1.421875 29.984375 -1.421875 
Q 24.8125 -1.421875 18.96875 -0.25 
Q 13.140625 0.921875 6.890625 3.21875 
L 6.890625 13.375 
Q 12.890625 10.015625 18.65625 8.296875 
Q 24.421875 6.59375 29.984375 6.59375 
Q 38.421875 6.59375 43.015625 9.90625 
Q 47.609375 13.234375 47.609375 19.390625 
Q 47.609375 24.75 44.3125 27.78125 
Q 41.015625 30.8125 33.5 32.328125 
L 27.484375 33.5 
Q 16.453125 35.6875 11.515625 40.375 
Q 6.59375 45.0625 6.59375 53.421875 
Q 6.59375 63.09375 13.40625 68.65625 
Q 20.21875 74.21875 32.171875 74.21875 
Q 37.3125 74.21875 42.625 73.28125 
Q 47.953125 72.359375 53.515625 70.515625 
z
" id="DejaVuSans-83"/>
       <path d="M 59.515625 10.40625 
L 59.515625 29.984375 
L 43.40625 29.984375 
L 43.40625 38.09375 
L 69.28125 38.09375 
L 69.28125 6.78125 
Q 63.578125 2.734375 56.6875 0.65625 
Q 49.8125 -1.421875 42 -1.421875 
Q 24.90625 -1.421875 15.25 8.5625 
Q 5.609375 18.5625 5.609375 36.375 
Q 5.609375 54.25 15.25 64.234375 
Q 24.90625 74.21875 42 74.21875 
Q 49.125 74.21875 55.546875 72.453125 
Q 61.96875 70.703125 67.390625 67.28125 
L 67.390625 56.78125 
Q 61.921875 61.421875 55.765625 63.765625 
Q 49.609375 66.109375 42.828125 66.109375 
Q 29.4375 66.109375 22.71875 58.640625 
Q 16.015625 51.171875 16.015625 36.375 
Q 16.015625 21.625 22.71875 14.15625 
Q 29.4375 6.6875 42.828125 6.6875 
Q 48.046875 6.6875 52.140625 7.59375 
Q 56.25 8.5 59.515625 10.40625 
z
" id="DejaVuSans-71"/>
       <path d="M 19.671875 64.796875 
L 19.671875 8.109375 
L 31.59375 8.109375 
Q 46.6875 8.109375 53.6875 14.9375 
Q 60.6875 21.78125 60.6875 36.53125 
Q 60.6875 51.171875 53.6875 57.984375 
Q 46.6875 64.796875 31.59375 64.796875 
z
M 9.8125 72.90625 
L 30.078125 72.90625 
Q 51.265625 72.90625 61.171875 64.09375 
Q 71.09375 55.28125 71.09375 36.53125 
Q 71.09375 17.671875 61.125 8.828125 
Q 51.171875 0 30.078125 0 
L 9.8125 0 
z
" id="DejaVuSans-68"/>
      </defs>
      <use xlink:href="#DejaVuSans-65"/>
      <use x="68.408203" xlink:href="#DejaVuSans-108"/>
      <use x="96.191406" xlink:href="#DejaVuSans-108"/>
      <use x="123.974609" xlink:href="#DejaVuSans-82"/>
      <use x="188.957031" xlink:href="#DejaVuSans-101"/>
      <use x="250.480469" xlink:href="#DejaVuSans-100"/>
      <use x="313.957031" xlink:href="#DejaVuSans-117"/>
      <use x="377.335938" xlink:href="#DejaVuSans-99"/>
      <use x="432.316406" xlink:href="#DejaVuSans-101"/>
      <use x="493.839844" xlink:href="#DejaVuSans-32"/>
      <use x="525.626953" xlink:href="#DejaVuSans-83"/>
      <use x="589.103516" xlink:href="#DejaVuSans-71"/>
      <use x="666.59375" xlink:href="#DejaVuSans-68"/>
     </g>
    </g>
    <g id="line2d_21">
     <path d="M 284.227802 245.025937 
L 304.227802 245.025937 
" style="fill:none;stroke:#ff7f0e;stroke-linecap:square;stroke-width:1.5;"/>
    </g>
    <g id="line2d_22"/>
    <g id="text_17">
     <!-- GRandK-MN-TS (8,12) bits -->
     <g transform="translate(312.227802 248.525937)scale(0.1 -0.1)">
      <defs>
       <path d="M 54.890625 33.015625 
L 54.890625 0 
L 45.90625 0 
L 45.90625 32.71875 
Q 45.90625 40.484375 42.875 44.328125 
Q 39.84375 48.1875 33.796875 48.1875 
Q 26.515625 48.1875 22.3125 43.546875 
Q 18.109375 38.921875 18.109375 30.90625 
L 18.109375 0 
L 9.078125 0 
L 9.078125 54.6875 
L 18.109375 54.6875 
L 18.109375 46.1875 
Q 21.34375 51.125 25.703125 53.5625 
Q 30.078125 56 35.796875 56 
Q 45.21875 56 50.046875 50.171875 
Q 54.890625 44.34375 54.890625 33.015625 
z
" id="DejaVuSans-110"/>
       <path d="M 9.8125 72.90625 
L 19.671875 72.90625 
L 19.671875 42.09375 
L 52.390625 72.90625 
L 65.09375 72.90625 
L 28.90625 38.921875 
L 67.671875 0 
L 54.6875 0 
L 19.671875 35.109375 
L 19.671875 0 
L 9.8125 0 
z
" id="DejaVuSans-75"/>
       <path d="M 4.890625 31.390625 
L 31.203125 31.390625 
L 31.203125 23.390625 
L 4.890625 23.390625 
z
" id="DejaVuSans-45"/>
       <path d="M 9.8125 72.90625 
L 24.515625 72.90625 
L 43.109375 23.296875 
L 61.8125 72.90625 
L 76.515625 72.90625 
L 76.515625 0 
L 66.890625 0 
L 66.890625 64.015625 
L 48.09375 14.015625 
L 38.1875 14.015625 
L 19.390625 64.015625 
L 19.390625 0 
L 9.8125 0 
z
" id="DejaVuSans-77"/>
       <path d="M 9.8125 72.90625 
L 23.09375 72.90625 
L 55.421875 11.921875 
L 55.421875 72.90625 
L 64.984375 72.90625 
L 64.984375 0 
L 51.703125 0 
L 19.390625 60.984375 
L 19.390625 0 
L 9.8125 0 
z
" id="DejaVuSans-78"/>
       <path d="M 11.71875 12.40625 
L 22.015625 12.40625 
L 22.015625 4 
L 14.015625 -11.625 
L 7.71875 -11.625 
L 11.71875 4 
z
" id="DejaVuSans-44"/>
       <path d="M 48.6875 27.296875 
Q 48.6875 37.203125 44.609375 42.84375 
Q 40.53125 48.484375 33.40625 48.484375 
Q 26.265625 48.484375 22.1875 42.84375 
Q 18.109375 37.203125 18.109375 27.296875 
Q 18.109375 17.390625 22.1875 11.75 
Q 26.265625 6.109375 33.40625 6.109375 
Q 40.53125 6.109375 44.609375 11.75 
Q 48.6875 17.390625 48.6875 27.296875 
z
M 18.109375 46.390625 
Q 20.953125 51.265625 25.265625 53.625 
Q 29.59375 56 35.59375 56 
Q 45.5625 56 51.78125 48.09375 
Q 58.015625 40.1875 58.015625 27.296875 
Q 58.015625 14.40625 51.78125 6.484375 
Q 45.5625 -1.421875 35.59375 -1.421875 
Q 29.59375 -1.421875 25.265625 0.953125 
Q 20.953125 3.328125 18.109375 8.203125 
L 18.109375 0 
L 9.078125 0 
L 9.078125 75.984375 
L 18.109375 75.984375 
z
" id="DejaVuSans-98"/>
      </defs>
      <use xlink:href="#DejaVuSans-71"/>
      <use x="77.490234" xlink:href="#DejaVuSans-82"/>
      <use x="144.722656" xlink:href="#DejaVuSans-97"/>
      <use x="206.001953" xlink:href="#DejaVuSans-110"/>
      <use x="269.380859" xlink:href="#DejaVuSans-100"/>
      <use x="332.857422" xlink:href="#DejaVuSans-75"/>
      <use x="387.933594" xlink:href="#DejaVuSans-45"/>
      <use x="424.017578" xlink:href="#DejaVuSans-77"/>
      <use x="510.296875" xlink:href="#DejaVuSans-78"/>
      <use x="585.101562" xlink:href="#DejaVuSans-45"/>
      <use x="612.060547" xlink:href="#DejaVuSans-84"/>
      <use x="673.144531" xlink:href="#DejaVuSans-83"/>
      <use x="736.621094" xlink:href="#DejaVuSans-32"/>
      <use x="768.408203" xlink:href="#DejaVuSans-40"/>
      <use x="807.421875" xlink:href="#DejaVuSans-56"/>
      <use x="871.044922" xlink:href="#DejaVuSans-44"/>
      <use x="902.832031" xlink:href="#DejaVuSans-49"/>
      <use x="966.455078" xlink:href="#DejaVuSans-50"/>
      <use x="1030.078125" xlink:href="#DejaVuSans-41"/>
      <use x="1069.091797" xlink:href="#DejaVuSans-32"/>
      <use x="1100.878906" xlink:href="#DejaVuSans-98"/>
      <use x="1164.355469" xlink:href="#DejaVuSans-105"/>
      <use x="1192.138672" xlink:href="#DejaVuSans-116"/>
      <use x="1231.347656" xlink:href="#DejaVuSans-115"/>
     </g>
    </g>
    <g id="line2d_23">
     <path d="M 284.227802 259.704062 
L 304.227802 259.704062 
" style="fill:none;stroke:#2ca02c;stroke-linecap:square;stroke-width:1.5;"/>
    </g>
    <g id="line2d_24"/>
    <g id="text_18">
     <!-- GRandK-MN-TS (6,10) bits -->
     <g transform="translate(312.227802 263.204062)scale(0.1 -0.1)">
      <use xlink:href="#DejaVuSans-71"/>
      <use x="77.490234" xlink:href="#DejaVuSans-82"/>
      <use x="144.722656" xlink:href="#DejaVuSans-97"/>
      <use x="206.001953" xlink:href="#DejaVuSans-110"/>
      <use x="269.380859" xlink:href="#DejaVuSans-100"/>
      <use x="332.857422" xlink:href="#DejaVuSans-75"/>
      <use x="387.933594" xlink:href="#DejaVuSans-45"/>
      <use x="424.017578" xlink:href="#DejaVuSans-77"/>
      <use x="510.296875" xlink:href="#DejaVuSans-78"/>
      <use x="585.101562" xlink:href="#DejaVuSans-45"/>
      <use x="612.060547" xlink:href="#DejaVuSans-84"/>
      <use x="673.144531" xlink:href="#DejaVuSans-83"/>
      <use x="736.621094" xlink:href="#DejaVuSans-32"/>
      <use x="768.408203" xlink:href="#DejaVuSans-40"/>
      <use x="807.421875" xlink:href="#DejaVuSans-54"/>
      <use x="871.044922" xlink:href="#DejaVuSans-44"/>
      <use x="902.832031" xlink:href="#DejaVuSans-49"/>
      <use x="966.455078" xlink:href="#DejaVuSans-48"/>
      <use x="1030.078125" xlink:href="#DejaVuSans-41"/>
      <use x="1069.091797" xlink:href="#DejaVuSans-32"/>
      <use x="1100.878906" xlink:href="#DejaVuSans-98"/>
      <use x="1164.355469" xlink:href="#DejaVuSans-105"/>
      <use x="1192.138672" xlink:href="#DejaVuSans-116"/>
      <use x="1231.347656" xlink:href="#DejaVuSans-115"/>
     </g>
    </g>
    <g id="line2d_25">
     <path d="M 284.227802 274.382187 
L 304.227802 274.382187 
" style="fill:none;stroke:#d62728;stroke-linecap:square;stroke-width:1.5;"/>
    </g>
    <g id="line2d_26"/>
    <g id="text_19">
     <!-- GRandK-MN-TS (4,8) bits -->
     <g transform="translate(312.227802 277.882187)scale(0.1 -0.1)">
      <use xlink:href="#DejaVuSans-71"/>
      <use x="77.490234" xlink:href="#DejaVuSans-82"/>
      <use x="144.722656" xlink:href="#DejaVuSans-97"/>
      <use x="206.001953" xlink:href="#DejaVuSans-110"/>
      <use x="269.380859" xlink:href="#DejaVuSans-100"/>
      <use x="332.857422" xlink:href="#DejaVuSans-75"/>
      <use x="387.933594" xlink:href="#DejaVuSans-45"/>
      <use x="424.017578" xlink:href="#DejaVuSans-77"/>
      <use x="510.296875" xlink:href="#DejaVuSans-78"/>
      <use x="585.101562" xlink:href="#DejaVuSans-45"/>
      <use x="612.060547" xlink:href="#DejaVuSans-84"/>
      <use x="673.144531" xlink:href="#DejaVuSans-83"/>
      <use x="736.621094" xlink:href="#DejaVuSans-32"/>
      <use x="768.408203" xlink:href="#DejaVuSans-40"/>
      <use x="807.421875" xlink:href="#DejaVuSans-52"/>
      <use x="871.044922" xlink:href="#DejaVuSans-44"/>
      <use x="902.832031" xlink:href="#DejaVuSans-56"/>
      <use x="966.455078" xlink:href="#DejaVuSans-41"/>
      <use x="1005.46875" xlink:href="#DejaVuSans-32"/>
      <use x="1037.255859" xlink:href="#DejaVuSans-98"/>
      <use x="1100.732422" xlink:href="#DejaVuSans-105"/>
      <use x="1128.515625" xlink:href="#DejaVuSans-116"/>
      <use x="1167.724609" xlink:href="#DejaVuSans-115"/>
     </g>
    </g>
    <g id="line2d_27">
     <path d="M 284.227802 289.060312 
L 304.227802 289.060312 
" style="fill:none;stroke:#9467bd;stroke-linecap:square;stroke-width:1.5;"/>
    </g>
    <g id="line2d_28"/>
    <g id="text_20">
     <!-- GRandK-MN-TS (2,6) bits -->
     <g transform="translate(312.227802 292.560312)scale(0.1 -0.1)">
      <use xlink:href="#DejaVuSans-71"/>
      <use x="77.490234" xlink:href="#DejaVuSans-82"/>
      <use x="144.722656" xlink:href="#DejaVuSans-97"/>
      <use x="206.001953" xlink:href="#DejaVuSans-110"/>
      <use x="269.380859" xlink:href="#DejaVuSans-100"/>
      <use x="332.857422" xlink:href="#DejaVuSans-75"/>
      <use x="387.933594" xlink:href="#DejaVuSans-45"/>
      <use x="424.017578" xlink:href="#DejaVuSans-77"/>
      <use x="510.296875" xlink:href="#DejaVuSans-78"/>
      <use x="585.101562" xlink:href="#DejaVuSans-45"/>
      <use x="612.060547" xlink:href="#DejaVuSans-84"/>
      <use x="673.144531" xlink:href="#DejaVuSans-83"/>
      <use x="736.621094" xlink:href="#DejaVuSans-32"/>
      <use x="768.408203" xlink:href="#DejaVuSans-40"/>
      <use x="807.421875" xlink:href="#DejaVuSans-50"/>
      <use x="871.044922" xlink:href="#DejaVuSans-44"/>
      <use x="902.832031" xlink:href="#DejaVuSans-54"/>
      <use x="966.455078" xlink:href="#DejaVuSans-41"/>
      <use x="1005.46875" xlink:href="#DejaVuSans-32"/>
      <use x="1037.255859" xlink:href="#DejaVuSans-98"/>
      <use x="1100.732422" xlink:href="#DejaVuSans-105"/>
      <use x="1128.515625" xlink:href="#DejaVuSans-116"/>
      <use x="1167.724609" xlink:href="#DejaVuSans-115"/>
     </g>
    </g>
   </g>
  </g>
 </g>
 <defs>
  <clipPath id="pf9839a6f20">
   <rect height="292.84" width="405.001552" x="44.57" y="10.8"/>
  </clipPath>
 </defs>
</svg>
