<?xml version="1.0" encoding="utf-8" standalone="no"?>
<!DOCTYPE svg PUBLIC "-//W3C//DTD SVG 1.1//EN"
  "http://www.w3.org/Graphics/SVG/1.1/DTD/svg11.dtd">
<!-- Created with matplotlib (https://matplotlib.org/) -->
<svg height="345.6pt" version="1.1" viewBox="0 0 460.8 345.6" width="460.8pt" xmlns="http://www.w3.org/2000/svg" xmlns:xlink="http://www.w3.org/1999/xlink">
 <metadata>
  <rdf:RDF xmlns:cc="http://creativecommons.org/ns#" xmlns:dc="http://purl.org/dc/elements/1.1/" xmlns:rdf="http://www.w3.org/1999/02/22-rdf-syntax-ns#">
   <cc:Work>
    <dc:type rdf:resource="http://purl.org/dc/dcmitype/StillImage"/>
    <dc:date>2021-06-10T08:56:49.490921</dc:date>
    <dc:format>image/svg+xml</dc:format>
    <dc:creator>
     <cc:Agent>
      <dc:title>Matplotlib v3.3.1, https://matplotlib.org/</dc:title>
     </cc:Agent>
    </dc:creator>
   </cc:Work>
  </rdf:RDF>
 </metadata>
 <defs>
  <style type="text/css">*{stroke-linecap:butt;stroke-linejoin:round;}</style>
 </defs>
 <g id="figure_1">
  <g id="patch_1">
   <path d="M 0 345.6 
L 460.8 345.6 
L 460.8 0 
L 0 0 
z
" style="fill:#ffffff;"/>
  </g>
  <g id="axes_1">
   <g id="patch_2">
    <path d="M 44.57 303.64 
L 450 303.64 
L 450 10.8 
L 44.57 10.8 
z
" style="fill:#ffffff;"/>
   </g>
   <g id="PolyCollection_1">
    <path clip-path="url(#p0f6ea78af2)" d="M 62.998636 266.472492 
L 62.998636 290.329091 
L 65.472279 274.667444 
L 67.945921 258.137547 
L 70.419564 241.228106 
L 72.893206 219.908787 
L 75.366849 203.538239 
L 77.840491 181.956138 
L 80.314134 172.615352 
L 82.787776 155.418182 
L 85.261419 146.148583 
L 87.735061 115.676423 
L 90.208703 131.440669 
L 92.682346 124.713098 
L 95.155988 100.482261 
L 97.629631 104.395007 
L 100.103273 98.530409 
L 102.576916 88.66219 
L 105.050558 87.61923 
L 107.524201 75.486465 
L 109.997843 87.084599 
L 112.471486 83.410445 
L 114.945128 92.340963 
L 117.418771 94.639974 
L 119.892413 78.356074 
L 122.366056 83.902387 
L 124.839698 81.171963 
L 127.31334 75.269662 
L 129.786983 72.015912 
L 132.260625 76.593434 
L 134.734268 68.355395 
L 137.20791 69.947848 
L 139.681553 62.328356 
L 142.155195 71.885434 
L 144.628838 64.997211 
L 147.10248 63.038748 
L 149.576123 69.308447 
L 152.049765 66.23624 
L 154.523408 65.397652 
L 156.99705 64.735446 
L 159.470692 76.613091 
L 161.944335 54.084774 
L 164.417977 57.738658 
L 166.89162 63.602753 
L 169.365262 58.549397 
L 171.838905 64.097367 
L 174.312547 71.528832 
L 176.78619 60.861374 
L 179.259832 60.28661 
L 181.733475 61.074377 
L 184.207117 61.645701 
L 186.68076 58.353427 
L 189.154402 59.10782 
L 191.628045 66.116602 
L 194.101687 60.824463 
L 196.575329 58.332557 
L 199.048972 65.763505 
L 201.522614 59.20247 
L 203.996257 50.066567 
L 206.469899 54.505265 
L 208.943542 54.506802 
L 211.417184 57.099053 
L 213.890827 56.694528 
L 216.364469 48.445904 
L 218.838112 54.122108 
L 221.311754 54.502152 
L 223.785397 56.103829 
L 226.259039 55.586945 
L 228.732682 52.761014 
L 231.206324 52.179561 
L 233.679966 53.768553 
L 236.153609 53.391733 
L 238.627251 55.579569 
L 241.100894 46.938252 
L 243.574536 49.503617 
L 246.048179 46.754153 
L 248.521821 47.543862 
L 250.995464 46.117183 
L 253.469106 48.208644 
L 255.942749 45.066711 
L 258.416391 42.872366 
L 260.890034 44.467382 
L 263.363676 49.07762 
L 265.837318 48.105731 
L 268.310961 43.964825 
L 270.784603 48.751104 
L 273.258246 53.743165 
L 275.731888 43.376865 
L 278.205531 39.915606 
L 280.679173 43.729527 
L 283.152816 44.65395 
L 285.626458 44.156834 
L 288.100101 47.696798 
L 290.573743 44.462763 
L 293.047386 41.100705 
L 295.521028 37.309149 
L 297.994671 44.937249 
L 300.468313 41.077788 
L 302.941955 42.366029 
L 305.415598 38.762466 
L 307.88924 38.95242 
L 310.362883 38.006903 
L 312.836525 36.986327 
L 315.310168 36.68359 
L 317.78381 38.842306 
L 320.257453 40.466263 
L 322.731095 38.940852 
L 325.204738 36.66695 
L 327.67838 38.683739 
L 330.152023 40.38688 
L 332.625665 39.657246 
L 335.099308 34.054488 
L 337.57295 40.448819 
L 340.046592 34.950012 
L 342.520235 34.454172 
L 344.993877 33.488734 
L 347.46752 33.964497 
L 349.941162 33.681301 
L 352.414805 35.561498 
L 354.888447 30.926513 
L 357.36209 35.544495 
L 359.835732 32.789146 
L 362.309375 33.164702 
L 364.783017 31.60038 
L 367.25666 31.904546 
L 369.730302 32.092089 
L 372.203944 31.199397 
L 374.677587 31.210186 
L 377.151229 31.405901 
L 379.624872 30.512932 
L 382.098514 31.669618 
L 384.572157 29.574565 
L 387.045799 29.949507 
L 389.519442 30.352871 
L 391.993084 28.535402 
L 394.466727 29.107717 
L 396.940369 29.948443 
L 399.414012 28.72955 
L 401.887654 29.375945 
L 404.361297 29.111251 
L 406.834939 30.49677 
L 409.308581 30.220505 
L 411.782224 29.410664 
L 414.255866 29.327098 
L 416.729509 29.690612 
L 419.203151 29.3356 
L 421.676794 28.837968 
L 424.150436 29.877019 
L 426.624079 29.043302 
L 429.097721 28.115566 
L 431.571364 28.919775 
L 431.571364 25.542007 
L 431.571364 25.542007 
L 429.097721 24.110909 
L 426.624079 25.055998 
L 424.150436 25.732623 
L 421.676794 24.355126 
L 419.203151 25.609491 
L 416.729509 25.314893 
L 414.255866 24.651375 
L 411.782224 25.292772 
L 409.308581 25.993274 
L 406.834939 25.596181 
L 404.361297 25.471358 
L 401.887654 24.421286 
L 399.414012 24.523959 
L 396.940369 25.661199 
L 394.466727 26.139443 
L 391.993084 25.443071 
L 389.519442 27.008768 
L 387.045799 25.962204 
L 384.572157 24.826803 
L 382.098514 24.604574 
L 379.624872 25.398779 
L 377.151229 25.472428 
L 374.677587 26.091039 
L 372.203944 27.189275 
L 369.730302 27.323615 
L 367.25666 27.027848 
L 364.783017 29.265252 
L 362.309375 30.057065 
L 359.835732 28.1369 
L 357.36209 29.429269 
L 354.888447 29.334982 
L 352.414805 30.499711 
L 349.941162 29.480052 
L 347.46752 31.794644 
L 344.993877 30.216342 
L 342.520235 31.365383 
L 340.046592 32.259058 
L 337.57295 33.043274 
L 335.099308 31.160931 
L 332.625665 32.807815 
L 330.152023 34.615555 
L 327.67838 31.304361 
L 325.204738 31.508739 
L 322.731095 34.430413 
L 320.257453 35.684032 
L 317.78381 33.501927 
L 315.310168 34.452369 
L 312.836525 34.995424 
L 310.362883 31.256232 
L 307.88924 33.935537 
L 305.415598 31.16522 
L 302.941955 33.905093 
L 300.468313 36.039127 
L 297.994671 39.79179 
L 295.521028 34.370534 
L 293.047386 37.164069 
L 290.573743 34.587389 
L 288.100101 43.254851 
L 285.626458 39.363931 
L 283.152816 34.939925 
L 280.679173 38.280896 
L 278.205531 36.959654 
L 275.731888 39.539763 
L 273.258246 42.706129 
L 270.784603 41.898476 
L 268.310961 38.40808 
L 265.837318 38.556546 
L 263.363676 40.303273 
L 260.890034 40.865794 
L 258.416391 37.083991 
L 255.942749 40.749774 
L 253.469106 39.843148 
L 250.995464 40.907576 
L 248.521821 42.501581 
L 246.048179 38.69985 
L 243.574536 39.998103 
L 241.100894 39.844852 
L 238.627251 46.85068 
L 236.153609 42.755492 
L 233.679966 40.566262 
L 231.206324 41.309462 
L 228.732682 44.896554 
L 226.259039 46.662063 
L 223.785397 45.661869 
L 221.311754 46.901064 
L 218.838112 45.408284 
L 216.364469 42.203676 
L 213.890827 46.158617 
L 211.417184 49.983049 
L 208.943542 49.252548 
L 206.469899 45.025127 
L 203.996257 42.214182 
L 201.522614 41.354954 
L 199.048972 55.213746 
L 196.575329 47.601685 
L 194.101687 50.063702 
L 191.628045 49.785899 
L 189.154402 48.518006 
L 186.68076 48.245367 
L 184.207117 47.973776 
L 181.733475 52.109507 
L 179.259832 46.735079 
L 176.78619 50.630927 
L 174.312547 47.817249 
L 171.838905 50.778101 
L 169.365262 52.157527 
L 166.89162 50.668579 
L 164.417977 49.76634 
L 161.944335 49.976644 
L 159.470692 60.011304 
L 156.99705 50.9254 
L 154.523408 48.329957 
L 152.049765 51.961981 
L 149.576123 53.481214 
L 147.10248 53.649131 
L 144.628838 56.765417 
L 142.155195 63.711929 
L 139.681553 56.957311 
L 137.20791 56.708289 
L 134.734268 51.836477 
L 132.260625 62.387095 
L 129.786983 58.567114 
L 127.31334 67.879411 
L 124.839698 67.958066 
L 122.366056 63.052749 
L 119.892413 62.557693 
L 117.418771 58.416944 
L 114.945128 61.561746 
L 112.471486 65.779997 
L 109.997843 78.961261 
L 107.524201 64.219029 
L 105.050558 73.533122 
L 102.576916 76.175396 
L 100.103273 73.55682 
L 97.629631 87.32667 
L 95.155988 80.123297 
L 92.682346 93.228119 
L 90.208703 98.099976 
L 87.735061 106.916647 
L 85.261419 114.867592 
L 82.787776 116.92556 
L 80.314134 142.048176 
L 77.840491 152.553286 
L 75.366849 174.952349 
L 72.893206 191.869742 
L 70.419564 218.669924 
L 67.945921 238.703452 
L 65.472279 248.54413 
L 62.998636 266.472492 
z
" style="fill:#1f77b4;fill-opacity:0.25;"/>
   </g>
   <g id="PolyCollection_2">
    <path clip-path="url(#p0f6ea78af2)" d="M 62.998636 249.18739 
L 62.998636 258.543176 
L 65.472279 221.83059 
L 67.945921 215.847383 
L 70.419564 201.385597 
L 72.893206 183.71506 
L 75.366849 173.53337 
L 77.840491 167.967396 
L 80.314134 149.542554 
L 82.787776 143.844277 
L 85.261419 132.164923 
L 87.735061 127.373103 
L 90.208703 127.260839 
L 92.682346 117.294248 
L 95.155988 107.366369 
L 97.629631 105.276458 
L 100.103273 102.04932 
L 102.576916 95.678852 
L 105.050558 90.892716 
L 107.524201 93.994942 
L 109.997843 86.653704 
L 112.471486 109.683997 
L 114.945128 98.899345 
L 117.418771 85.757646 
L 119.892413 94.303771 
L 122.366056 80.633684 
L 124.839698 89.278631 
L 127.31334 84.862242 
L 129.786983 85.295328 
L 132.260625 86.391671 
L 134.734268 81.849257 
L 137.20791 73.576567 
L 139.681553 95.35595 
L 142.155195 76.916411 
L 144.628838 70.78638 
L 147.10248 78.447309 
L 149.576123 75.641785 
L 152.049765 76.058901 
L 154.523408 87.590155 
L 156.99705 82.030554 
L 159.470692 80.252415 
L 161.944335 67.325988 
L 164.417977 75.808476 
L 166.89162 74.937531 
L 169.365262 72.822641 
L 171.838905 72.939725 
L 174.312547 74.239659 
L 176.78619 76.366433 
L 179.259832 73.040996 
L 181.733475 66.984813 
L 184.207117 63.988033 
L 186.68076 62.120563 
L 189.154402 63.953144 
L 191.628045 73.619903 
L 194.101687 63.624892 
L 196.575329 73.612027 
L 199.048972 63.441876 
L 201.522614 66.423311 
L 203.996257 61.540517 
L 206.469899 57.210052 
L 208.943542 64.250898 
L 211.417184 69.165912 
L 213.890827 61.009982 
L 216.364469 60.091772 
L 218.838112 64.02137 
L 221.311754 69.645229 
L 223.785397 55.672184 
L 226.259039 61.020665 
L 228.732682 63.057399 
L 231.206324 57.860711 
L 233.679966 59.528067 
L 236.153609 59.76411 
L 238.627251 59.473927 
L 241.100894 57.105966 
L 243.574536 57.342514 
L 246.048179 54.717491 
L 248.521821 51.895115 
L 250.995464 62.332467 
L 253.469106 55.876509 
L 255.942749 54.531224 
L 258.416391 58.473885 
L 260.890034 49.301059 
L 263.363676 53.862525 
L 265.837318 51.400864 
L 268.310961 46.172143 
L 270.784603 48.683723 
L 273.258246 53.905904 
L 275.731888 50.269134 
L 278.205531 48.579138 
L 280.679173 46.850848 
L 283.152816 53.721348 
L 285.626458 44.011702 
L 288.100101 49.873195 
L 290.573743 42.425169 
L 293.047386 41.688322 
L 295.521028 45.05824 
L 297.994671 44.078382 
L 300.468313 50.124449 
L 302.941955 43.917965 
L 305.415598 43.313177 
L 307.88924 42.835528 
L 310.362883 43.731795 
L 312.836525 42.948002 
L 315.310168 39.528921 
L 317.78381 42.667959 
L 320.257453 45.276622 
L 322.731095 41.998659 
L 325.204738 37.006524 
L 327.67838 37.655095 
L 330.152023 40.40004 
L 332.625665 38.024775 
L 335.099308 41.869567 
L 337.57295 37.184653 
L 340.046592 36.787606 
L 342.520235 37.379959 
L 344.993877 39.22375 
L 347.46752 36.497383 
L 349.941162 34.798805 
L 352.414805 35.519366 
L 354.888447 34.11332 
L 357.36209 36.522553 
L 359.835732 33.286348 
L 362.309375 32.305641 
L 364.783017 30.729347 
L 367.25666 32.120274 
L 369.730302 33.0071 
L 372.203944 32.144658 
L 374.677587 33.01144 
L 377.151229 31.59018 
L 379.624872 31.663406 
L 382.098514 31.174302 
L 384.572157 30.830234 
L 387.045799 30.491417 
L 389.519442 32.583222 
L 391.993084 31.532277 
L 394.466727 31.675605 
L 396.940369 30.776932 
L 399.414012 29.835912 
L 401.887654 30.960992 
L 404.361297 29.940208 
L 406.834939 28.885875 
L 409.308581 28.846241 
L 411.782224 29.071217 
L 414.255866 28.275471 
L 416.729509 29.528701 
L 419.203151 29.248806 
L 421.676794 27.662326 
L 424.150436 29.113457 
L 426.624079 28.680819 
L 429.097721 28.928319 
L 431.571364 28.912617 
L 431.571364 26.515784 
L 431.571364 26.515784 
L 429.097721 25.956359 
L 426.624079 26.143445 
L 424.150436 26.012875 
L 421.676794 25.409941 
L 419.203151 25.877527 
L 416.729509 25.597631 
L 414.255866 26.125898 
L 411.782224 27.082148 
L 409.308581 25.978023 
L 406.834939 26.180043 
L 404.361297 26.515226 
L 401.887654 26.340233 
L 399.414012 26.800763 
L 396.940369 27.913808 
L 394.466727 29.129614 
L 391.993084 26.735567 
L 389.519442 29.067789 
L 387.045799 27.474359 
L 384.572157 26.77306 
L 382.098514 26.187336 
L 379.624872 26.121129 
L 377.151229 27.644283 
L 374.677587 29.364535 
L 372.203944 27.935597 
L 369.730302 28.64391 
L 367.25666 29.470323 
L 364.783017 28.263462 
L 362.309375 28.559992 
L 359.835732 31.264519 
L 357.36209 30.626103 
L 354.888447 32.189545 
L 352.414805 30.48143 
L 349.941162 31.685301 
L 347.46752 31.557479 
L 344.993877 35.53703 
L 342.520235 35.266343 
L 340.046592 32.838011 
L 337.57295 34.555443 
L 335.099308 33.49535 
L 332.625665 34.379872 
L 330.152023 35.99191 
L 327.67838 33.480864 
L 325.204738 30.685855 
L 322.731095 36.870252 
L 320.257453 39.452417 
L 317.78381 41.336115 
L 315.310168 36.440133 
L 312.836525 35.679254 
L 310.362883 33.989256 
L 307.88924 39.658204 
L 305.415598 37.488972 
L 302.941955 40.509005 
L 300.468313 43.062505 
L 297.994671 40.288175 
L 295.521028 40.758245 
L 293.047386 36.999348 
L 290.573743 34.691745 
L 288.100101 43.555414 
L 285.626458 38.240376 
L 283.152816 44.057047 
L 280.679173 41.261357 
L 278.205531 39.110172 
L 275.731888 43.038648 
L 273.258246 46.591107 
L 270.784603 45.469851 
L 268.310961 44.417024 
L 265.837318 42.2694 
L 263.363676 45.426212 
L 260.890034 43.523413 
L 258.416391 46.856221 
L 255.942749 48.503161 
L 253.469106 50.601457 
L 250.995464 53.388793 
L 248.521821 47.151967 
L 246.048179 46.866966 
L 243.574536 50.404139 
L 241.100894 48.103313 
L 238.627251 52.803753 
L 236.153609 53.66143 
L 233.679966 51.843408 
L 231.206324 46.56319 
L 228.732682 53.872134 
L 226.259039 56.815074 
L 223.785397 53.463984 
L 221.311754 51.996572 
L 218.838112 53.99561 
L 216.364469 52.427563 
L 213.890827 56.463275 
L 211.417184 59.483877 
L 208.943542 56.001388 
L 206.469899 52.167771 
L 203.996257 53.697433 
L 201.522614 60.47448 
L 199.048972 52.400211 
L 196.575329 57.333481 
L 194.101687 57.71484 
L 191.628045 66.810554 
L 189.154402 56.480383 
L 186.68076 58.554619 
L 184.207117 58.620387 
L 181.733475 56.348572 
L 179.259832 64.24795 
L 176.78619 60.439203 
L 174.312547 69.090655 
L 171.838905 63.624256 
L 169.365262 67.124507 
L 166.89162 63.015965 
L 164.417977 63.897017 
L 161.944335 63.619521 
L 159.470692 62.775831 
L 156.99705 70.543054 
L 154.523408 72.353924 
L 152.049765 69.144238 
L 149.576123 67.446874 
L 147.10248 68.56824 
L 144.628838 60.279956 
L 142.155195 68.830451 
L 139.681553 68.273363 
L 137.20791 67.578854 
L 134.734268 70.422283 
L 132.260625 81.345772 
L 129.786983 79.058949 
L 127.31334 77.135901 
L 124.839698 67.76559 
L 122.366056 74.356472 
L 119.892413 79.958351 
L 117.418771 84.15469 
L 114.945128 80.860422 
L 112.471486 79.74196 
L 109.997843 80.056707 
L 107.524201 81.475453 
L 105.050558 79.01962 
L 102.576916 85.893326 
L 100.103273 86.228776 
L 97.629631 95.869754 
L 95.155988 97.34425 
L 92.682346 105.298822 
L 90.208703 109.166966 
L 87.735061 109.054701 
L 85.261419 121.1183 
L 82.787776 128.288017 
L 80.314134 136.36406 
L 77.840491 142.104693 
L 75.366849 164.812324 
L 72.893206 172.513085 
L 70.419564 189.852278 
L 67.945921 198.377901 
L 65.472279 214.868584 
L 62.998636 249.18739 
z
" style="fill:#ff7f0e;fill-opacity:0.25;"/>
   </g>
   <g id="PolyCollection_3">
    <path clip-path="url(#p0f6ea78af2)" d="M 62.998636 250.732464 
L 62.998636 264.972708 
L 65.472279 225.425618 
L 67.945921 212.856919 
L 70.419564 197.632373 
L 72.893206 187.180545 
L 75.366849 169.083007 
L 77.840491 160.361056 
L 80.314134 154.01805 
L 82.787776 136.560625 
L 85.261419 144.397105 
L 87.735061 121.940539 
L 90.208703 126.75407 
L 92.682346 119.453934 
L 95.155988 107.869827 
L 97.629631 105.997363 
L 100.103273 103.914961 
L 102.576916 94.287196 
L 105.050558 86.42044 
L 107.524201 88.71087 
L 109.997843 96.524277 
L 112.471486 98.520085 
L 114.945128 96.408844 
L 117.418771 95.168091 
L 119.892413 99.914103 
L 122.366056 95.081892 
L 124.839698 78.454517 
L 127.31334 79.616353 
L 129.786983 88.305816 
L 132.260625 91.681587 
L 134.734268 83.916243 
L 137.20791 73.721848 
L 139.681553 84.183148 
L 142.155195 84.55809 
L 144.628838 70.102486 
L 147.10248 83.372263 
L 149.576123 77.351406 
L 152.049765 75.352886 
L 154.523408 79.945427 
L 156.99705 78.93307 
L 159.470692 76.839123 
L 161.944335 71.136269 
L 164.417977 76.823865 
L 166.89162 72.286259 
L 169.365262 83.847453 
L 171.838905 69.390044 
L 174.312547 77.36447 
L 176.78619 68.678161 
L 179.259832 73.397288 
L 181.733475 61.816518 
L 184.207117 73.397469 
L 186.68076 61.927577 
L 189.154402 61.873102 
L 191.628045 69.201016 
L 194.101687 63.306901 
L 196.575329 65.630819 
L 199.048972 62.662065 
L 201.522614 66.350385 
L 203.996257 61.402077 
L 206.469899 61.657517 
L 208.943542 65.63069 
L 211.417184 70.901568 
L 213.890827 62.462092 
L 216.364469 59.000336 
L 218.838112 61.691952 
L 221.311754 60.322014 
L 223.785397 58.783108 
L 226.259039 61.377829 
L 228.732682 57.314663 
L 231.206324 56.776982 
L 233.679966 59.913976 
L 236.153609 60.139754 
L 238.627251 59.530675 
L 241.100894 55.6448 
L 243.574536 58.523139 
L 246.048179 56.91388 
L 248.521821 55.853244 
L 250.995464 59.266071 
L 253.469106 51.295506 
L 255.942749 55.536504 
L 258.416391 53.209456 
L 260.890034 51.295014 
L 263.363676 59.291356 
L 265.837318 53.175918 
L 268.310961 53.172192 
L 270.784603 50.168272 
L 273.258246 47.57027 
L 275.731888 51.910601 
L 278.205531 50.21587 
L 280.679173 45.335068 
L 283.152816 47.817306 
L 285.626458 48.200042 
L 288.100101 50.428891 
L 290.573743 44.821477 
L 293.047386 49.994724 
L 295.521028 44.921457 
L 297.994671 45.861663 
L 300.468313 49.955956 
L 302.941955 44.529559 
L 305.415598 43.565433 
L 307.88924 43.073115 
L 310.362883 41.744368 
L 312.836525 42.642335 
L 315.310168 41.747279 
L 317.78381 42.931909 
L 320.257453 43.273622 
L 322.731095 42.498031 
L 325.204738 37.796649 
L 327.67838 37.774337 
L 330.152023 41.435047 
L 332.625665 41.337487 
L 335.099308 43.483653 
L 337.57295 39.540138 
L 340.046592 37.709733 
L 342.520235 37.927842 
L 344.993877 40.59105 
L 347.46752 34.887246 
L 349.941162 36.812347 
L 352.414805 35.801055 
L 354.888447 32.333096 
L 357.36209 34.507346 
L 359.835732 35.055132 
L 362.309375 32.846096 
L 364.783017 34.11571 
L 367.25666 33.190489 
L 369.730302 33.035629 
L 372.203944 32.812282 
L 374.677587 33.512541 
L 377.151229 31.248033 
L 379.624872 32.266984 
L 382.098514 31.409154 
L 384.572157 33.512566 
L 387.045799 29.599419 
L 389.519442 32.390987 
L 391.993084 32.062348 
L 394.466727 31.421967 
L 396.940369 31.387454 
L 399.414012 33.285221 
L 401.887654 32.316347 
L 404.361297 31.508772 
L 406.834939 31.511901 
L 409.308581 31.941974 
L 411.782224 32.069418 
L 414.255866 30.562454 
L 416.729509 29.945782 
L 419.203151 30.567559 
L 421.676794 30.054629 
L 424.150436 30.089122 
L 426.624079 30.744017 
L 429.097721 31.137198 
L 431.571364 31.334342 
L 431.571364 26.268951 
L 431.571364 26.268951 
L 429.097721 25.439063 
L 426.624079 26.738449 
L 424.150436 26.18507 
L 421.676794 26.642459 
L 419.203151 25.767047 
L 416.729509 25.784687 
L 414.255866 25.89298 
L 411.782224 26.017185 
L 409.308581 25.782147 
L 406.834939 26.937184 
L 404.361297 26.517417 
L 401.887654 27.703494 
L 399.414012 27.21793 
L 396.940369 25.611703 
L 394.466727 27.268773 
L 391.993084 27.051288 
L 389.519442 27.205958 
L 387.045799 24.801949 
L 384.572157 26.74893 
L 382.098514 27.644068 
L 379.624872 27.63203 
L 377.151229 28.771808 
L 374.677587 29.527985 
L 372.203944 28.174178 
L 369.730302 30.669447 
L 367.25666 29.366727 
L 364.783017 29.831021 
L 362.309375 28.382019 
L 359.835732 28.227049 
L 357.36209 31.553864 
L 354.888447 31.009498 
L 352.414805 32.193392 
L 349.941162 31.846651 
L 347.46752 32.986374 
L 344.993877 32.538561 
L 342.520235 32.785221 
L 340.046592 33.667881 
L 337.57295 34.072783 
L 335.099308 37.318496 
L 332.625665 36.504392 
L 330.152023 35.379799 
L 327.67838 33.422036 
L 325.204738 34.366343 
L 322.731095 36.37088 
L 320.257453 37.286872 
L 317.78381 38.474377 
L 315.310168 38.209079 
L 312.836525 38.038987 
L 310.362883 37.487025 
L 307.88924 37.124897 
L 305.415598 39.10954 
L 302.941955 39.353689 
L 300.468313 45.345478 
L 297.994671 38.142411 
L 295.521028 42.103302 
L 293.047386 38.41955 
L 290.573743 41.055422 
L 288.100101 44.026751 
L 285.626458 43.95988 
L 283.152816 44.282202 
L 280.679173 39.998108 
L 278.205531 43.454394 
L 275.731888 45.565726 
L 273.258246 42.716828 
L 270.784603 48.576742 
L 268.310961 48.17061 
L 265.837318 46.29406 
L 263.363676 48.99902 
L 260.890034 44.248074 
L 258.416391 46.502177 
L 255.942749 48.94781 
L 253.469106 45.335029 
L 250.995464 52.890781 
L 248.521821 49.356034 
L 246.048179 54.276354 
L 243.574536 49.585996 
L 241.100894 48.59786 
L 238.627251 54.680242 
L 236.153609 55.098196 
L 233.679966 49.765915 
L 231.206324 47.405263 
L 228.732682 51.217368 
L 226.259039 55.491291 
L 223.785397 48.057339 
L 221.311754 52.136907 
L 218.838112 55.05634 
L 216.364469 55.875132 
L 213.890827 53.802891 
L 211.417184 60.829318 
L 208.943542 57.823521 
L 206.469899 57.688564 
L 203.996257 56.73573 
L 201.522614 57.405895 
L 199.048972 56.381947 
L 196.575329 55.890154 
L 194.101687 59.664001 
L 191.628045 62.711112 
L 189.154402 53.72733 
L 186.68076 55.787335 
L 184.207117 62.199894 
L 181.733475 58.798251 
L 179.259832 61.47511 
L 176.78619 65.529686 
L 174.312547 65.059639 
L 171.838905 63.12622 
L 169.365262 65.463816 
L 166.89162 65.546409 
L 164.417977 61.492114 
L 161.944335 63.494475 
L 159.470692 63.349679 
L 156.99705 67.478342 
L 154.523408 71.057426 
L 152.049765 68.400324 
L 149.576123 67.428837 
L 147.10248 72.282443 
L 144.628838 59.936817 
L 142.155195 77.621294 
L 139.681553 66.819704 
L 137.20791 68.158538 
L 134.734268 69.986466 
L 132.260625 73.880964 
L 129.786983 79.492041 
L 127.31334 76.521663 
L 124.839698 65.117452 
L 122.366056 81.596777 
L 119.892413 86.914066 
L 117.418771 79.275272 
L 114.945128 80.209412 
L 112.471486 85.408227 
L 109.997843 82.570939 
L 107.524201 79.026573 
L 105.050558 81.317003 
L 102.576916 88.916151 
L 100.103273 87.081752 
L 97.629631 95.8134 
L 95.155988 99.74065 
L 92.682346 108.2743 
L 90.208703 111.06325 
L 87.735061 115.816367 
L 85.261419 111.061011 
L 82.787776 130.013609 
L 80.314134 135.030076 
L 77.840491 147.022623 
L 75.366849 155.06547 
L 72.893206 167.356017 
L 70.419564 188.56096 
L 67.945921 201.851674 
L 65.472279 214.415068 
L 62.998636 250.732464 
z
" style="fill:#2ca02c;fill-opacity:0.25;"/>
   </g>
   <g id="PolyCollection_4">
    <path clip-path="url(#p0f6ea78af2)" d="M 62.998636 245.065155 
L 62.998636 274.023184 
L 65.472279 242.848828 
L 67.945921 236.077068 
L 70.419564 213.225254 
L 72.893206 192.959753 
L 75.366849 181.721094 
L 77.840491 174.171772 
L 80.314134 165.006778 
L 82.787776 157.527371 
L 85.261419 140.945963 
L 87.735061 127.990665 
L 90.208703 136.034828 
L 92.682346 130.454489 
L 95.155988 113.883595 
L 97.629631 108.548507 
L 100.103273 104.417538 
L 102.576916 103.28085 
L 105.050558 92.967421 
L 107.524201 98.129423 
L 109.997843 107.820982 
L 112.471486 96.357836 
L 114.945128 92.822742 
L 117.418771 92.820348 
L 119.892413 95.28009 
L 122.366056 92.264049 
L 124.839698 91.272056 
L 127.31334 95.722171 
L 129.786983 86.0194 
L 132.260625 85.402954 
L 134.734268 81.817532 
L 137.20791 79.932829 
L 139.681553 86.73323 
L 142.155195 83.162447 
L 144.628838 77.214052 
L 147.10248 83.645954 
L 149.576123 82.090097 
L 152.049765 82.322767 
L 154.523408 81.539427 
L 156.99705 78.032603 
L 159.470692 88.709142 
L 161.944335 75.229302 
L 164.417977 73.228883 
L 166.89162 77.358849 
L 169.365262 77.79905 
L 171.838905 75.200698 
L 174.312547 74.288423 
L 176.78619 81.013312 
L 179.259832 72.901515 
L 181.733475 66.777529 
L 184.207117 71.70172 
L 186.68076 66.533368 
L 189.154402 67.779093 
L 191.628045 72.638796 
L 194.101687 66.230367 
L 196.575329 70.987316 
L 199.048972 65.312526 
L 201.522614 68.787185 
L 203.996257 57.691939 
L 206.469899 64.485207 
L 208.943542 66.218811 
L 211.417184 68.700702 
L 213.890827 65.204281 
L 216.364469 60.680897 
L 218.838112 64.959993 
L 221.311754 65.57965 
L 223.785397 56.500651 
L 226.259039 66.226741 
L 228.732682 59.540481 
L 231.206324 54.866104 
L 233.679966 60.452887 
L 236.153609 59.982721 
L 238.627251 63.130071 
L 241.100894 58.087161 
L 243.574536 67.373542 
L 246.048179 56.517886 
L 248.521821 54.216853 
L 250.995464 66.708997 
L 253.469106 57.828485 
L 255.942749 54.707724 
L 258.416391 62.289039 
L 260.890034 55.874423 
L 263.363676 53.808656 
L 265.837318 54.836489 
L 268.310961 51.378841 
L 270.784603 52.658356 
L 273.258246 53.053807 
L 275.731888 54.126991 
L 278.205531 47.510725 
L 280.679173 47.821605 
L 283.152816 51.457941 
L 285.626458 47.069187 
L 288.100101 50.552251 
L 290.573743 45.159998 
L 293.047386 47.169361 
L 295.521028 50.126684 
L 297.994671 46.551502 
L 300.468313 49.528837 
L 302.941955 47.818224 
L 305.415598 42.936461 
L 307.88924 46.528866 
L 310.362883 45.967571 
L 312.836525 43.140258 
L 315.310168 47.135312 
L 317.78381 42.872514 
L 320.257453 48.952046 
L 322.731095 42.355418 
L 325.204738 42.521892 
L 327.67838 39.950704 
L 330.152023 44.163015 
L 332.625665 39.414712 
L 335.099308 43.658903 
L 337.57295 39.694111 
L 340.046592 38.497175 
L 342.520235 39.779476 
L 344.993877 40.043759 
L 347.46752 37.770857 
L 349.941162 38.725504 
L 352.414805 36.307015 
L 354.888447 35.880284 
L 357.36209 35.593138 
L 359.835732 34.171863 
L 362.309375 37.629725 
L 364.783017 34.47445 
L 367.25666 33.77128 
L 369.730302 33.060516 
L 372.203944 32.912572 
L 374.677587 32.155814 
L 377.151229 33.883791 
L 379.624872 31.738023 
L 382.098514 32.706109 
L 384.572157 32.195963 
L 387.045799 30.854452 
L 389.519442 31.299571 
L 391.993084 33.232582 
L 394.466727 32.696107 
L 396.940369 32.069014 
L 399.414012 33.39243 
L 401.887654 33.686078 
L 404.361297 33.153948 
L 406.834939 32.828548 
L 409.308581 32.540499 
L 411.782224 33.114348 
L 414.255866 33.345853 
L 416.729509 33.439092 
L 419.203151 33.383692 
L 421.676794 33.826334 
L 424.150436 32.635336 
L 426.624079 32.732019 
L 429.097721 33.767556 
L 431.571364 33.619937 
L 431.571364 28.272728 
L 431.571364 28.272728 
L 429.097721 28.427178 
L 426.624079 28.798164 
L 424.150436 27.686574 
L 421.676794 28.791296 
L 419.203151 27.663182 
L 416.729509 28.513987 
L 414.255866 28.486399 
L 411.782224 29.140799 
L 409.308581 28.385548 
L 406.834939 28.641221 
L 404.361297 28.799131 
L 401.887654 28.267001 
L 399.414012 27.835685 
L 396.940369 28.252896 
L 394.466727 28.592421 
L 391.993084 30.351666 
L 389.519442 28.841098 
L 387.045799 29.407043 
L 384.572157 28.911325 
L 382.098514 28.944902 
L 379.624872 29.852574 
L 377.151229 27.706806 
L 374.677587 29.132714 
L 372.203944 29.644644 
L 369.730302 29.98001 
L 367.25666 31.14207 
L 364.783017 29.230626 
L 362.309375 30.968859 
L 359.835732 31.828933 
L 357.36209 33.790824 
L 354.888447 32.839128 
L 352.414805 30.781227 
L 349.941162 32.954179 
L 347.46752 33.667171 
L 344.993877 35.623227 
L 342.520235 35.041718 
L 340.046592 33.242921 
L 337.57295 38.510249 
L 335.099308 35.572491 
L 332.625665 35.044 
L 330.152023 38.20989 
L 327.67838 33.601803 
L 325.204738 38.340671 
L 322.731095 40.259142 
L 320.257453 43.328703 
L 317.78381 39.077495 
L 315.310168 41.339375 
L 312.836525 39.836784 
L 310.362883 38.821881 
L 307.88924 40.012584 
L 305.415598 38.348997 
L 302.941955 41.321014 
L 300.468313 42.631086 
L 297.994671 40.050361 
L 295.521028 40.945791 
L 293.047386 42.03029 
L 290.573743 41.260624 
L 288.100101 46.742834 
L 285.626458 45.876113 
L 283.152816 41.245704 
L 280.679173 42.10301 
L 278.205531 43.863819 
L 275.731888 44.618023 
L 273.258246 48.651477 
L 270.784603 48.986515 
L 268.310961 48.272379 
L 265.837318 45.600108 
L 263.363676 45.238426 
L 260.890034 46.79748 
L 258.416391 51.196915 
L 255.942749 49.353694 
L 253.469106 55.476227 
L 250.995464 53.664117 
L 248.521821 46.582226 
L 246.048179 49.174702 
L 243.574536 49.072682 
L 241.100894 47.061704 
L 238.627251 54.161945 
L 236.153609 53.382405 
L 233.679966 55.510028 
L 231.206324 48.107868 
L 228.732682 55.274573 
L 226.259039 53.904718 
L 223.785397 51.064762 
L 221.311754 56.424634 
L 218.838112 57.708841 
L 216.364469 52.563402 
L 213.890827 59.276963 
L 211.417184 60.855292 
L 208.943542 57.71871 
L 206.469899 54.740047 
L 203.996257 53.317053 
L 201.522614 61.010463 
L 199.048972 56.389689 
L 196.575329 58.024955 
L 194.101687 56.136399 
L 191.628045 62.233602 
L 189.154402 56.339669 
L 186.68076 61.391457 
L 184.207117 60.210408 
L 181.733475 57.46206 
L 179.259832 65.595704 
L 176.78619 63.827344 
L 174.312547 66.383689 
L 171.838905 64.988104 
L 169.365262 70.606014 
L 166.89162 64.340296 
L 164.417977 62.851789 
L 161.944335 61.33468 
L 159.470692 74.376448 
L 156.99705 69.647497 
L 154.523408 72.061214 
L 152.049765 74.056903 
L 149.576123 65.771243 
L 147.10248 71.16296 
L 144.628838 69.257774 
L 142.155195 70.498608 
L 139.681553 75.2045 
L 137.20791 68.895131 
L 134.734268 71.662281 
L 132.260625 77.320154 
L 129.786983 73.985091 
L 127.31334 75.640094 
L 124.839698 77.190352 
L 122.366056 77.164978 
L 119.892413 78.559136 
L 117.418771 85.791559 
L 114.945128 84.822546 
L 112.471486 82.012416 
L 109.997843 87.163034 
L 107.524201 83.865651 
L 105.050558 83.892489 
L 102.576916 92.548958 
L 100.103273 88.089517 
L 97.629631 100.511898 
L 95.155988 102.668107 
L 92.682346 116.122815 
L 90.208703 122.08149 
L 87.735061 120.882359 
L 85.261419 124.29917 
L 82.787776 131.550961 
L 80.314134 142.890418 
L 77.840491 150.429808 
L 75.366849 163.783621 
L 72.893206 175.320922 
L 70.419564 192.08901 
L 67.945921 206.180166 
L 65.472279 218.98244 
L 62.998636 245.065155 
z
" style="fill:#d62728;fill-opacity:0.25;"/>
   </g>
   <g id="PolyCollection_5">
    <path clip-path="url(#p0f6ea78af2)" d="M 62.998636 254.886164 
L 62.998636 263.235556 
L 65.472279 227.20203 
L 67.945921 225.745899 
L 70.419564 206.358827 
L 72.893206 188.461191 
L 75.366849 179.822938 
L 77.840491 166.013254 
L 80.314134 160.731023 
L 82.787776 150.210923 
L 85.261419 153.547718 
L 87.735061 135.054984 
L 90.208703 131.91793 
L 92.682346 124.462623 
L 95.155988 114.558874 
L 97.629631 115.90355 
L 100.103273 117.26429 
L 102.576916 113.741743 
L 105.050558 94.316271 
L 107.524201 100.786891 
L 109.997843 98.540141 
L 112.471486 93.706067 
L 114.945128 93.399296 
L 117.418771 95.221303 
L 119.892413 99.470796 
L 122.366056 86.025318 
L 124.839698 94.281822 
L 127.31334 83.765587 
L 129.786983 91.92718 
L 132.260625 86.196642 
L 134.734268 83.477973 
L 137.20791 81.249488 
L 139.681553 90.837415 
L 142.155195 89.936223 
L 144.628838 76.052357 
L 147.10248 94.176087 
L 149.576123 79.189847 
L 152.049765 77.667669 
L 154.523408 87.858138 
L 156.99705 83.346334 
L 159.470692 79.406491 
L 161.944335 66.47751 
L 164.417977 74.987441 
L 166.89162 77.58346 
L 169.365262 76.226911 
L 171.838905 73.320272 
L 174.312547 81.213834 
L 176.78619 76.735672 
L 179.259832 69.031756 
L 181.733475 68.40555 
L 184.207117 74.875869 
L 186.68076 70.122468 
L 189.154402 63.516211 
L 191.628045 64.861485 
L 194.101687 64.530986 
L 196.575329 69.418314 
L 199.048972 62.548663 
L 201.522614 66.404036 
L 203.996257 59.268017 
L 206.469899 59.285615 
L 208.943542 65.741752 
L 211.417184 73.991994 
L 213.890827 61.555289 
L 216.364469 62.254555 
L 218.838112 64.302067 
L 221.311754 65.17525 
L 223.785397 58.376878 
L 226.259039 70.201983 
L 228.732682 60.801094 
L 231.206324 58.723013 
L 233.679966 62.944512 
L 236.153609 62.125407 
L 238.627251 57.099288 
L 241.100894 60.835327 
L 243.574536 60.193501 
L 246.048179 56.054001 
L 248.521821 56.463083 
L 250.995464 66.86682 
L 253.469106 58.106471 
L 255.942749 53.41034 
L 258.416391 56.292765 
L 260.890034 52.971958 
L 263.363676 56.97463 
L 265.837318 54.742369 
L 268.310961 51.142035 
L 270.784603 54.675757 
L 273.258246 53.971386 
L 275.731888 51.588945 
L 278.205531 50.141739 
L 280.679173 46.143775 
L 283.152816 46.652698 
L 285.626458 49.405353 
L 288.100101 50.211648 
L 290.573743 47.362419 
L 293.047386 46.472293 
L 295.521028 44.623476 
L 297.994671 46.049353 
L 300.468313 45.973522 
L 302.941955 46.363109 
L 305.415598 43.217107 
L 307.88924 46.177587 
L 310.362883 44.436204 
L 312.836525 40.922267 
L 315.310168 42.936116 
L 317.78381 43.425133 
L 320.257453 42.903628 
L 322.731095 44.627789 
L 325.204738 40.806203 
L 327.67838 40.515474 
L 330.152023 42.420207 
L 332.625665 42.934734 
L 335.099308 40.170937 
L 337.57295 38.082673 
L 340.046592 37.786384 
L 342.520235 40.288906 
L 344.993877 37.961676 
L 347.46752 41.504045 
L 349.941162 34.848913 
L 352.414805 36.660263 
L 354.888447 34.609093 
L 357.36209 34.845869 
L 359.835732 33.638857 
L 362.309375 35.629887 
L 364.783017 33.891031 
L 367.25666 33.683598 
L 369.730302 32.469663 
L 372.203944 33.348655 
L 374.677587 33.245627 
L 377.151229 32.081875 
L 379.624872 33.574328 
L 382.098514 34.053485 
L 384.572157 32.295127 
L 387.045799 33.528629 
L 389.519442 33.417969 
L 391.993084 32.163145 
L 394.466727 32.227847 
L 396.940369 31.874085 
L 399.414012 31.658548 
L 401.887654 30.595384 
L 404.361297 30.934776 
L 406.834939 30.350363 
L 409.308581 31.519408 
L 411.782224 31.072807 
L 414.255866 31.285638 
L 416.729509 31.996734 
L 419.203151 29.9219 
L 421.676794 30.924091 
L 424.150436 31.107625 
L 426.624079 30.928024 
L 429.097721 30.963633 
L 431.571364 31.157781 
L 431.571364 27.412132 
L 431.571364 27.412132 
L 429.097721 28.572899 
L 426.624079 29.152231 
L 424.150436 28.428906 
L 421.676794 28.854095 
L 419.203151 28.164703 
L 416.729509 27.600211 
L 414.255866 28.552962 
L 411.782224 29.128275 
L 409.308581 28.319192 
L 406.834939 28.219549 
L 404.361297 27.393482 
L 401.887654 29.001561 
L 399.414012 27.877983 
L 396.940369 29.35403 
L 394.466727 29.725232 
L 391.993084 28.521247 
L 389.519442 29.139247 
L 387.045799 28.243209 
L 384.572157 27.966369 
L 382.098514 28.564144 
L 379.624872 31.036953 
L 377.151229 27.575484 
L 374.677587 28.647038 
L 372.203944 29.450216 
L 369.730302 27.187696 
L 367.25666 30.142305 
L 364.783017 29.511976 
L 362.309375 30.129255 
L 359.835732 29.643324 
L 357.36209 32.604855 
L 354.888447 29.88136 
L 352.414805 33.448663 
L 349.941162 32.058088 
L 347.46752 33.377562 
L 344.993877 35.349176 
L 342.520235 33.74691 
L 340.046592 34.618263 
L 337.57295 35.892729 
L 335.099308 36.039772 
L 332.625665 35.571695 
L 330.152023 38.563183 
L 327.67838 35.695235 
L 325.204738 34.558715 
L 322.731095 38.530494 
L 320.257453 37.173557 
L 317.78381 38.283222 
L 315.310168 35.5099 
L 312.836525 37.70499 
L 310.362883 38.722079 
L 307.88924 39.397244 
L 305.415598 40.122417 
L 302.941955 37.701379 
L 300.468313 43.105303 
L 297.994671 39.223409 
L 295.521028 41.011768 
L 293.047386 38.800469 
L 290.573743 41.716405 
L 288.100101 41.162896 
L 285.626458 40.760917 
L 283.152816 42.063644 
L 280.679173 39.431056 
L 278.205531 39.420395 
L 275.731888 42.806283 
L 273.258246 45.377765 
L 270.784603 46.364977 
L 268.310961 45.971809 
L 265.837318 48.714912 
L 263.363676 49.503335 
L 260.890034 49.760359 
L 258.416391 50.608097 
L 255.942749 45.757569 
L 253.469106 50.90887 
L 250.995464 54.231258 
L 248.521821 48.746195 
L 246.048179 49.578173 
L 243.574536 50.332181 
L 241.100894 52.408971 
L 238.627251 51.191089 
L 236.153609 54.804126 
L 233.679966 53.743367 
L 231.206324 50.292327 
L 228.732682 53.772305 
L 226.259039 60.50187 
L 223.785397 52.027977 
L 221.311754 54.774968 
L 218.838112 56.010633 
L 216.364469 55.822838 
L 213.890827 55.736727 
L 211.417184 58.947166 
L 208.943542 56.504186 
L 206.469899 54.079511 
L 203.996257 51.438907 
L 201.522614 59.829206 
L 199.048972 56.737004 
L 196.575329 63.339605 
L 194.101687 53.123512 
L 191.628045 62.821684 
L 189.154402 55.709042 
L 186.68076 55.204568 
L 184.207117 65.312934 
L 181.733475 62.056649 
L 179.259832 60.765892 
L 176.78619 73.723457 
L 174.312547 68.822399 
L 171.838905 62.397918 
L 169.365262 63.961891 
L 166.89162 64.53858 
L 164.417977 65.261776 
L 161.944335 60.601522 
L 159.470692 71.233879 
L 156.99705 68.441897 
L 154.523408 76.194071 
L 152.049765 67.233401 
L 149.576123 72.598384 
L 147.10248 73.198875 
L 144.628838 67.942508 
L 142.155195 75.384674 
L 139.681553 73.275207 
L 137.20791 68.84716 
L 134.734268 72.660043 
L 132.260625 82.99073 
L 129.786983 82.093287 
L 127.31334 79.622071 
L 124.839698 76.174237 
L 122.366056 75.670757 
L 119.892413 85.18248 
L 117.418771 87.317494 
L 114.945128 82.554409 
L 112.471486 87.564042 
L 109.997843 88.529682 
L 107.524201 90.632718 
L 105.050558 89.551627 
L 102.576916 93.687493 
L 100.103273 91.494046 
L 97.629631 100.889807 
L 95.155988 108.759161 
L 92.682346 118.006551 
L 90.208703 114.840615 
L 87.735061 121.067683 
L 85.261419 128.49242 
L 82.787776 137.387274 
L 80.314134 146.199554 
L 77.840491 152.456337 
L 75.366849 172.599144 
L 72.893206 179.154934 
L 70.419564 196.267029 
L 67.945921 212.161549 
L 65.472279 215.780168 
L 62.998636 254.886164 
z
" style="fill:#9467bd;fill-opacity:0.25;"/>
   </g>
   <g id="matplotlib.axis_1">
    <g id="xtick_1">
     <g id="line2d_1">
      <defs>
       <path d="M 0 0 
L 0 3.5 
" id="m38f4cbcff3" style="stroke:#000000;stroke-width:0.8;"/>
      </defs>
      <g>
       <use style="stroke:#000000;stroke-width:0.8;" x="62.998636" xlink:href="#m38f4cbcff3" y="303.64"/>
      </g>
     </g>
     <g id="text_1">
      <!-- 0 -->
      <g transform="translate(59.817386 318.238437)scale(0.1 -0.1)">
       <defs>
        <path d="M 31.78125 66.40625 
Q 24.171875 66.40625 20.328125 58.90625 
Q 16.5 51.421875 16.5 36.375 
Q 16.5 21.390625 20.328125 13.890625 
Q 24.171875 6.390625 31.78125 6.390625 
Q 39.453125 6.390625 43.28125 13.890625 
Q 47.125 21.390625 47.125 36.375 
Q 47.125 51.421875 43.28125 58.90625 
Q 39.453125 66.40625 31.78125 66.40625 
z
M 31.78125 74.21875 
Q 44.046875 74.21875 50.515625 64.515625 
Q 56.984375 54.828125 56.984375 36.375 
Q 56.984375 17.96875 50.515625 8.265625 
Q 44.046875 -1.421875 31.78125 -1.421875 
Q 19.53125 -1.421875 13.0625 8.265625 
Q 6.59375 17.96875 6.59375 36.375 
Q 6.59375 54.828125 13.0625 64.515625 
Q 19.53125 74.21875 31.78125 74.21875 
z
" id="DejaVuSans-48"/>
       </defs>
       <use xlink:href="#DejaVuSans-48"/>
      </g>
     </g>
    </g>
    <g id="xtick_2">
     <g id="line2d_2">
      <g>
       <use style="stroke:#000000;stroke-width:0.8;" x="112.471486" xlink:href="#m38f4cbcff3" y="303.64"/>
      </g>
     </g>
     <g id="text_2">
      <!-- 20 -->
      <g transform="translate(106.108986 318.238437)scale(0.1 -0.1)">
       <defs>
        <path d="M 19.1875 8.296875 
L 53.609375 8.296875 
L 53.609375 0 
L 7.328125 0 
L 7.328125 8.296875 
Q 12.9375 14.109375 22.625 23.890625 
Q 32.328125 33.6875 34.8125 36.53125 
Q 39.546875 41.84375 41.421875 45.53125 
Q 43.3125 49.21875 43.3125 52.78125 
Q 43.3125 58.59375 39.234375 62.25 
Q 35.15625 65.921875 28.609375 65.921875 
Q 23.96875 65.921875 18.8125 64.3125 
Q 13.671875 62.703125 7.8125 59.421875 
L 7.8125 69.390625 
Q 13.765625 71.78125 18.9375 73 
Q 24.125 74.21875 28.421875 74.21875 
Q 39.75 74.21875 46.484375 68.546875 
Q 53.21875 62.890625 53.21875 53.421875 
Q 53.21875 48.921875 51.53125 44.890625 
Q 49.859375 40.875 45.40625 35.40625 
Q 44.1875 33.984375 37.640625 27.21875 
Q 31.109375 20.453125 19.1875 8.296875 
z
" id="DejaVuSans-50"/>
       </defs>
       <use xlink:href="#DejaVuSans-50"/>
       <use x="63.623047" xlink:href="#DejaVuSans-48"/>
      </g>
     </g>
    </g>
    <g id="xtick_3">
     <g id="line2d_3">
      <g>
       <use style="stroke:#000000;stroke-width:0.8;" x="161.944335" xlink:href="#m38f4cbcff3" y="303.64"/>
      </g>
     </g>
     <g id="text_3">
      <!-- 40 -->
      <g transform="translate(155.581835 318.238437)scale(0.1 -0.1)">
       <defs>
        <path d="M 37.796875 64.3125 
L 12.890625 25.390625 
L 37.796875 25.390625 
z
M 35.203125 72.90625 
L 47.609375 72.90625 
L 47.609375 25.390625 
L 58.015625 25.390625 
L 58.015625 17.1875 
L 47.609375 17.1875 
L 47.609375 0 
L 37.796875 0 
L 37.796875 17.1875 
L 4.890625 17.1875 
L 4.890625 26.703125 
z
" id="DejaVuSans-52"/>
       </defs>
       <use xlink:href="#DejaVuSans-52"/>
       <use x="63.623047" xlink:href="#DejaVuSans-48"/>
      </g>
     </g>
    </g>
    <g id="xtick_4">
     <g id="line2d_4">
      <g>
       <use style="stroke:#000000;stroke-width:0.8;" x="211.417184" xlink:href="#m38f4cbcff3" y="303.64"/>
      </g>
     </g>
     <g id="text_4">
      <!-- 60 -->
      <g transform="translate(205.054684 318.238437)scale(0.1 -0.1)">
       <defs>
        <path d="M 33.015625 40.375 
Q 26.375 40.375 22.484375 35.828125 
Q 18.609375 31.296875 18.609375 23.390625 
Q 18.609375 15.53125 22.484375 10.953125 
Q 26.375 6.390625 33.015625 6.390625 
Q 39.65625 6.390625 43.53125 10.953125 
Q 47.40625 15.53125 47.40625 23.390625 
Q 47.40625 31.296875 43.53125 35.828125 
Q 39.65625 40.375 33.015625 40.375 
z
M 52.59375 71.296875 
L 52.59375 62.3125 
Q 48.875 64.0625 45.09375 64.984375 
Q 41.3125 65.921875 37.59375 65.921875 
Q 27.828125 65.921875 22.671875 59.328125 
Q 17.53125 52.734375 16.796875 39.40625 
Q 19.671875 43.65625 24.015625 45.921875 
Q 28.375 48.1875 33.59375 48.1875 
Q 44.578125 48.1875 50.953125 41.515625 
Q 57.328125 34.859375 57.328125 23.390625 
Q 57.328125 12.15625 50.6875 5.359375 
Q 44.046875 -1.421875 33.015625 -1.421875 
Q 20.359375 -1.421875 13.671875 8.265625 
Q 6.984375 17.96875 6.984375 36.375 
Q 6.984375 53.65625 15.1875 63.9375 
Q 23.390625 74.21875 37.203125 74.21875 
Q 40.921875 74.21875 44.703125 73.484375 
Q 48.484375 72.75 52.59375 71.296875 
z
" id="DejaVuSans-54"/>
       </defs>
       <use xlink:href="#DejaVuSans-54"/>
       <use x="63.623047" xlink:href="#DejaVuSans-48"/>
      </g>
     </g>
    </g>
    <g id="xtick_5">
     <g id="line2d_5">
      <g>
       <use style="stroke:#000000;stroke-width:0.8;" x="260.890034" xlink:href="#m38f4cbcff3" y="303.64"/>
      </g>
     </g>
     <g id="text_5">
      <!-- 80 -->
      <g transform="translate(254.527534 318.238437)scale(0.1 -0.1)">
       <defs>
        <path d="M 31.78125 34.625 
Q 24.75 34.625 20.71875 30.859375 
Q 16.703125 27.09375 16.703125 20.515625 
Q 16.703125 13.921875 20.71875 10.15625 
Q 24.75 6.390625 31.78125 6.390625 
Q 38.8125 6.390625 42.859375 10.171875 
Q 46.921875 13.96875 46.921875 20.515625 
Q 46.921875 27.09375 42.890625 30.859375 
Q 38.875 34.625 31.78125 34.625 
z
M 21.921875 38.8125 
Q 15.578125 40.375 12.03125 44.71875 
Q 8.5 49.078125 8.5 55.328125 
Q 8.5 64.0625 14.71875 69.140625 
Q 20.953125 74.21875 31.78125 74.21875 
Q 42.671875 74.21875 48.875 69.140625 
Q 55.078125 64.0625 55.078125 55.328125 
Q 55.078125 49.078125 51.53125 44.71875 
Q 48 40.375 41.703125 38.8125 
Q 48.828125 37.15625 52.796875 32.3125 
Q 56.78125 27.484375 56.78125 20.515625 
Q 56.78125 9.90625 50.3125 4.234375 
Q 43.84375 -1.421875 31.78125 -1.421875 
Q 19.734375 -1.421875 13.25 4.234375 
Q 6.78125 9.90625 6.78125 20.515625 
Q 6.78125 27.484375 10.78125 32.3125 
Q 14.796875 37.15625 21.921875 38.8125 
z
M 18.3125 54.390625 
Q 18.3125 48.734375 21.84375 45.5625 
Q 25.390625 42.390625 31.78125 42.390625 
Q 38.140625 42.390625 41.71875 45.5625 
Q 45.3125 48.734375 45.3125 54.390625 
Q 45.3125 60.0625 41.71875 63.234375 
Q 38.140625 66.40625 31.78125 66.40625 
Q 25.390625 66.40625 21.84375 63.234375 
Q 18.3125 60.0625 18.3125 54.390625 
z
" id="DejaVuSans-56"/>
       </defs>
       <use xlink:href="#DejaVuSans-56"/>
       <use x="63.623047" xlink:href="#DejaVuSans-48"/>
      </g>
     </g>
    </g>
    <g id="xtick_6">
     <g id="line2d_6">
      <g>
       <use style="stroke:#000000;stroke-width:0.8;" x="310.362883" xlink:href="#m38f4cbcff3" y="303.64"/>
      </g>
     </g>
     <g id="text_6">
      <!-- 100 -->
      <g transform="translate(300.819133 318.238437)scale(0.1 -0.1)">
       <defs>
        <path d="M 12.40625 8.296875 
L 28.515625 8.296875 
L 28.515625 63.921875 
L 10.984375 60.40625 
L 10.984375 69.390625 
L 28.421875 72.90625 
L 38.28125 72.90625 
L 38.28125 8.296875 
L 54.390625 8.296875 
L 54.390625 0 
L 12.40625 0 
z
" id="DejaVuSans-49"/>
       </defs>
       <use xlink:href="#DejaVuSans-49"/>
       <use x="63.623047" xlink:href="#DejaVuSans-48"/>
       <use x="127.246094" xlink:href="#DejaVuSans-48"/>
      </g>
     </g>
    </g>
    <g id="xtick_7">
     <g id="line2d_7">
      <g>
       <use style="stroke:#000000;stroke-width:0.8;" x="359.835732" xlink:href="#m38f4cbcff3" y="303.64"/>
      </g>
     </g>
     <g id="text_7">
      <!-- 120 -->
      <g transform="translate(350.291982 318.238437)scale(0.1 -0.1)">
       <use xlink:href="#DejaVuSans-49"/>
       <use x="63.623047" xlink:href="#DejaVuSans-50"/>
       <use x="127.246094" xlink:href="#DejaVuSans-48"/>
      </g>
     </g>
    </g>
    <g id="xtick_8">
     <g id="line2d_8">
      <g>
       <use style="stroke:#000000;stroke-width:0.8;" x="409.308581" xlink:href="#m38f4cbcff3" y="303.64"/>
      </g>
     </g>
     <g id="text_8">
      <!-- 140 -->
      <g transform="translate(399.764831 318.238437)scale(0.1 -0.1)">
       <use xlink:href="#DejaVuSans-49"/>
       <use x="63.623047" xlink:href="#DejaVuSans-52"/>
       <use x="127.246094" xlink:href="#DejaVuSans-48"/>
      </g>
     </g>
    </g>
    <g id="text_9">
     <!-- Epochs -->
     <g transform="translate(229.369375 331.916562)scale(0.1 -0.1)">
      <defs>
       <path d="M 9.8125 72.90625 
L 55.90625 72.90625 
L 55.90625 64.59375 
L 19.671875 64.59375 
L 19.671875 43.015625 
L 54.390625 43.015625 
L 54.390625 34.71875 
L 19.671875 34.71875 
L 19.671875 8.296875 
L 56.78125 8.296875 
L 56.78125 0 
L 9.8125 0 
z
" id="DejaVuSans-69"/>
       <path d="M 18.109375 8.203125 
L 18.109375 -20.796875 
L 9.078125 -20.796875 
L 9.078125 54.6875 
L 18.109375 54.6875 
L 18.109375 46.390625 
Q 20.953125 51.265625 25.265625 53.625 
Q 29.59375 56 35.59375 56 
Q 45.5625 56 51.78125 48.09375 
Q 58.015625 40.1875 58.015625 27.296875 
Q 58.015625 14.40625 51.78125 6.484375 
Q 45.5625 -1.421875 35.59375 -1.421875 
Q 29.59375 -1.421875 25.265625 0.953125 
Q 20.953125 3.328125 18.109375 8.203125 
z
M 48.6875 27.296875 
Q 48.6875 37.203125 44.609375 42.84375 
Q 40.53125 48.484375 33.40625 48.484375 
Q 26.265625 48.484375 22.1875 42.84375 
Q 18.109375 37.203125 18.109375 27.296875 
Q 18.109375 17.390625 22.1875 11.75 
Q 26.265625 6.109375 33.40625 6.109375 
Q 40.53125 6.109375 44.609375 11.75 
Q 48.6875 17.390625 48.6875 27.296875 
z
" id="DejaVuSans-112"/>
       <path d="M 30.609375 48.390625 
Q 23.390625 48.390625 19.1875 42.75 
Q 14.984375 37.109375 14.984375 27.296875 
Q 14.984375 17.484375 19.15625 11.84375 
Q 23.34375 6.203125 30.609375 6.203125 
Q 37.796875 6.203125 41.984375 11.859375 
Q 46.1875 17.53125 46.1875 27.296875 
Q 46.1875 37.015625 41.984375 42.703125 
Q 37.796875 48.390625 30.609375 48.390625 
z
M 30.609375 56 
Q 42.328125 56 49.015625 48.375 
Q 55.71875 40.765625 55.71875 27.296875 
Q 55.71875 13.875 49.015625 6.21875 
Q 42.328125 -1.421875 30.609375 -1.421875 
Q 18.84375 -1.421875 12.171875 6.21875 
Q 5.515625 13.875 5.515625 27.296875 
Q 5.515625 40.765625 12.171875 48.375 
Q 18.84375 56 30.609375 56 
z
" id="DejaVuSans-111"/>
       <path d="M 48.78125 52.59375 
L 48.78125 44.1875 
Q 44.96875 46.296875 41.140625 47.34375 
Q 37.3125 48.390625 33.40625 48.390625 
Q 24.65625 48.390625 19.8125 42.84375 
Q 14.984375 37.3125 14.984375 27.296875 
Q 14.984375 17.28125 19.8125 11.734375 
Q 24.65625 6.203125 33.40625 6.203125 
Q 37.3125 6.203125 41.140625 7.25 
Q 44.96875 8.296875 48.78125 10.40625 
L 48.78125 2.09375 
Q 45.015625 0.34375 40.984375 -0.53125 
Q 36.96875 -1.421875 32.421875 -1.421875 
Q 20.0625 -1.421875 12.78125 6.34375 
Q 5.515625 14.109375 5.515625 27.296875 
Q 5.515625 40.671875 12.859375 48.328125 
Q 20.21875 56 33.015625 56 
Q 37.15625 56 41.109375 55.140625 
Q 45.0625 54.296875 48.78125 52.59375 
z
" id="DejaVuSans-99"/>
       <path d="M 54.890625 33.015625 
L 54.890625 0 
L 45.90625 0 
L 45.90625 32.71875 
Q 45.90625 40.484375 42.875 44.328125 
Q 39.84375 48.1875 33.796875 48.1875 
Q 26.515625 48.1875 22.3125 43.546875 
Q 18.109375 38.921875 18.109375 30.90625 
L 18.109375 0 
L 9.078125 0 
L 9.078125 75.984375 
L 18.109375 75.984375 
L 18.109375 46.1875 
Q 21.34375 51.125 25.703125 53.5625 
Q 30.078125 56 35.796875 56 
Q 45.21875 56 50.046875 50.171875 
Q 54.890625 44.34375 54.890625 33.015625 
z
" id="DejaVuSans-104"/>
       <path d="M 44.28125 53.078125 
L 44.28125 44.578125 
Q 40.484375 46.53125 36.375 47.5 
Q 32.28125 48.484375 27.875 48.484375 
Q 21.1875 48.484375 17.84375 46.4375 
Q 14.5 44.390625 14.5 40.28125 
Q 14.5 37.15625 16.890625 35.375 
Q 19.28125 33.59375 26.515625 31.984375 
L 29.59375 31.296875 
Q 39.15625 29.25 43.1875 25.515625 
Q 47.21875 21.78125 47.21875 15.09375 
Q 47.21875 7.46875 41.1875 3.015625 
Q 35.15625 -1.421875 24.609375 -1.421875 
Q 20.21875 -1.421875 15.453125 -0.5625 
Q 10.6875 0.296875 5.421875 2 
L 5.421875 11.28125 
Q 10.40625 8.6875 15.234375 7.390625 
Q 20.0625 6.109375 24.8125 6.109375 
Q 31.15625 6.109375 34.5625 8.28125 
Q 37.984375 10.453125 37.984375 14.40625 
Q 37.984375 18.0625 35.515625 20.015625 
Q 33.0625 21.96875 24.703125 23.78125 
L 21.578125 24.515625 
Q 13.234375 26.265625 9.515625 29.90625 
Q 5.8125 33.546875 5.8125 39.890625 
Q 5.8125 47.609375 11.28125 51.796875 
Q 16.75 56 26.8125 56 
Q 31.78125 56 36.171875 55.265625 
Q 40.578125 54.546875 44.28125 53.078125 
z
" id="DejaVuSans-115"/>
      </defs>
      <use xlink:href="#DejaVuSans-69"/>
      <use x="63.183594" xlink:href="#DejaVuSans-112"/>
      <use x="126.660156" xlink:href="#DejaVuSans-111"/>
      <use x="187.841797" xlink:href="#DejaVuSans-99"/>
      <use x="242.822266" xlink:href="#DejaVuSans-104"/>
      <use x="306.201172" xlink:href="#DejaVuSans-115"/>
     </g>
    </g>
   </g>
   <g id="matplotlib.axis_2">
    <g id="ytick_1">
     <g id="line2d_9">
      <defs>
       <path d="M 0 0 
L -3.5 0 
" id="m26fb0b246f" style="stroke:#000000;stroke-width:0.8;"/>
      </defs>
      <g>
       <use style="stroke:#000000;stroke-width:0.8;" x="44.57" xlink:href="#m26fb0b246f" y="257.980965"/>
      </g>
     </g>
     <g id="text_10">
      <!-- 20 -->
      <g transform="translate(24.845 261.780184)scale(0.1 -0.1)">
       <use xlink:href="#DejaVuSans-50"/>
       <use x="63.623047" xlink:href="#DejaVuSans-48"/>
      </g>
     </g>
    </g>
    <g id="ytick_2">
     <g id="line2d_10">
      <g>
       <use style="stroke:#000000;stroke-width:0.8;" x="44.57" xlink:href="#m26fb0b246f" y="196.117351"/>
      </g>
     </g>
     <g id="text_11">
      <!-- 40 -->
      <g transform="translate(24.845 199.91657)scale(0.1 -0.1)">
       <use xlink:href="#DejaVuSans-52"/>
       <use x="63.623047" xlink:href="#DejaVuSans-48"/>
      </g>
     </g>
    </g>
    <g id="ytick_3">
     <g id="line2d_11">
      <g>
       <use style="stroke:#000000;stroke-width:0.8;" x="44.57" xlink:href="#m26fb0b246f" y="134.253736"/>
      </g>
     </g>
     <g id="text_12">
      <!-- 60 -->
      <g transform="translate(24.845 138.052955)scale(0.1 -0.1)">
       <use xlink:href="#DejaVuSans-54"/>
       <use x="63.623047" xlink:href="#DejaVuSans-48"/>
      </g>
     </g>
    </g>
    <g id="ytick_4">
     <g id="line2d_12">
      <g>
       <use style="stroke:#000000;stroke-width:0.8;" x="44.57" xlink:href="#m26fb0b246f" y="72.390121"/>
      </g>
     </g>
     <g id="text_13">
      <!-- 80 -->
      <g transform="translate(24.845 76.18934)scale(0.1 -0.1)">
       <use xlink:href="#DejaVuSans-56"/>
       <use x="63.623047" xlink:href="#DejaVuSans-48"/>
      </g>
     </g>
    </g>
    <g id="text_14">
     <!-- Test Accuracy (%) -->
     <g transform="translate(18.765313 201.723906)rotate(-90)scale(0.1 -0.1)">
      <defs>
       <path d="M -0.296875 72.90625 
L 61.375 72.90625 
L 61.375 64.59375 
L 35.5 64.59375 
L 35.5 0 
L 25.59375 0 
L 25.59375 64.59375 
L -0.296875 64.59375 
z
" id="DejaVuSans-84"/>
       <path d="M 56.203125 29.59375 
L 56.203125 25.203125 
L 14.890625 25.203125 
Q 15.484375 15.921875 20.484375 11.0625 
Q 25.484375 6.203125 34.421875 6.203125 
Q 39.59375 6.203125 44.453125 7.46875 
Q 49.3125 8.734375 54.109375 11.28125 
L 54.109375 2.78125 
Q 49.265625 0.734375 44.1875 -0.34375 
Q 39.109375 -1.421875 33.890625 -1.421875 
Q 20.796875 -1.421875 13.15625 6.1875 
Q 5.515625 13.8125 5.515625 26.8125 
Q 5.515625 40.234375 12.765625 48.109375 
Q 20.015625 56 32.328125 56 
Q 43.359375 56 49.78125 48.890625 
Q 56.203125 41.796875 56.203125 29.59375 
z
M 47.21875 32.234375 
Q 47.125 39.59375 43.09375 43.984375 
Q 39.0625 48.390625 32.421875 48.390625 
Q 24.90625 48.390625 20.390625 44.140625 
Q 15.875 39.890625 15.1875 32.171875 
z
" id="DejaVuSans-101"/>
       <path d="M 18.3125 70.21875 
L 18.3125 54.6875 
L 36.8125 54.6875 
L 36.8125 47.703125 
L 18.3125 47.703125 
L 18.3125 18.015625 
Q 18.3125 11.328125 20.140625 9.421875 
Q 21.96875 7.515625 27.59375 7.515625 
L 36.8125 7.515625 
L 36.8125 0 
L 27.59375 0 
Q 17.1875 0 13.234375 3.875 
Q 9.28125 7.765625 9.28125 18.015625 
L 9.28125 47.703125 
L 2.6875 47.703125 
L 2.6875 54.6875 
L 9.28125 54.6875 
L 9.28125 70.21875 
z
" id="DejaVuSans-116"/>
       <path id="DejaVuSans-32"/>
       <path d="M 34.1875 63.1875 
L 20.796875 26.90625 
L 47.609375 26.90625 
z
M 28.609375 72.90625 
L 39.796875 72.90625 
L 67.578125 0 
L 57.328125 0 
L 50.6875 18.703125 
L 17.828125 18.703125 
L 11.1875 0 
L 0.78125 0 
z
" id="DejaVuSans-65"/>
       <path d="M 8.5 21.578125 
L 8.5 54.6875 
L 17.484375 54.6875 
L 17.484375 21.921875 
Q 17.484375 14.15625 20.5 10.265625 
Q 23.53125 6.390625 29.59375 6.390625 
Q 36.859375 6.390625 41.078125 11.03125 
Q 45.3125 15.671875 45.3125 23.6875 
L 45.3125 54.6875 
L 54.296875 54.6875 
L 54.296875 0 
L 45.3125 0 
L 45.3125 8.40625 
Q 42.046875 3.421875 37.71875 1 
Q 33.40625 -1.421875 27.6875 -1.421875 
Q 18.265625 -1.421875 13.375 4.4375 
Q 8.5 10.296875 8.5 21.578125 
z
M 31.109375 56 
z
" id="DejaVuSans-117"/>
       <path d="M 41.109375 46.296875 
Q 39.59375 47.171875 37.8125 47.578125 
Q 36.03125 48 33.890625 48 
Q 26.265625 48 22.1875 43.046875 
Q 18.109375 38.09375 18.109375 28.8125 
L 18.109375 0 
L 9.078125 0 
L 9.078125 54.6875 
L 18.109375 54.6875 
L 18.109375 46.1875 
Q 20.953125 51.171875 25.484375 53.578125 
Q 30.03125 56 36.53125 56 
Q 37.453125 56 38.578125 55.875 
Q 39.703125 55.765625 41.0625 55.515625 
z
" id="DejaVuSans-114"/>
       <path d="M 34.28125 27.484375 
Q 23.390625 27.484375 19.1875 25 
Q 14.984375 22.515625 14.984375 16.5 
Q 14.984375 11.71875 18.140625 8.90625 
Q 21.296875 6.109375 26.703125 6.109375 
Q 34.1875 6.109375 38.703125 11.40625 
Q 43.21875 16.703125 43.21875 25.484375 
L 43.21875 27.484375 
z
M 52.203125 31.203125 
L 52.203125 0 
L 43.21875 0 
L 43.21875 8.296875 
Q 40.140625 3.328125 35.546875 0.953125 
Q 30.953125 -1.421875 24.3125 -1.421875 
Q 15.921875 -1.421875 10.953125 3.296875 
Q 6 8.015625 6 15.921875 
Q 6 25.140625 12.171875 29.828125 
Q 18.359375 34.515625 30.609375 34.515625 
L 43.21875 34.515625 
L 43.21875 35.40625 
Q 43.21875 41.609375 39.140625 45 
Q 35.0625 48.390625 27.6875 48.390625 
Q 23 48.390625 18.546875 47.265625 
Q 14.109375 46.140625 10.015625 43.890625 
L 10.015625 52.203125 
Q 14.9375 54.109375 19.578125 55.046875 
Q 24.21875 56 28.609375 56 
Q 40.484375 56 46.34375 49.84375 
Q 52.203125 43.703125 52.203125 31.203125 
z
" id="DejaVuSans-97"/>
       <path d="M 32.171875 -5.078125 
Q 28.375 -14.84375 24.75 -17.8125 
Q 21.140625 -20.796875 15.09375 -20.796875 
L 7.90625 -20.796875 
L 7.90625 -13.28125 
L 13.1875 -13.28125 
Q 16.890625 -13.28125 18.9375 -11.515625 
Q 21 -9.765625 23.484375 -3.21875 
L 25.09375 0.875 
L 2.984375 54.6875 
L 12.5 54.6875 
L 29.59375 11.921875 
L 46.6875 54.6875 
L 56.203125 54.6875 
z
" id="DejaVuSans-121"/>
       <path d="M 31 75.875 
Q 24.46875 64.65625 21.28125 53.65625 
Q 18.109375 42.671875 18.109375 31.390625 
Q 18.109375 20.125 21.3125 9.0625 
Q 24.515625 -2 31 -13.1875 
L 23.1875 -13.1875 
Q 15.875 -1.703125 12.234375 9.375 
Q 8.59375 20.453125 8.59375 31.390625 
Q 8.59375 42.28125 12.203125 53.3125 
Q 15.828125 64.359375 23.1875 75.875 
z
" id="DejaVuSans-40"/>
       <path d="M 72.703125 32.078125 
Q 68.453125 32.078125 66.03125 28.46875 
Q 63.625 24.859375 63.625 18.40625 
Q 63.625 12.0625 66.03125 8.421875 
Q 68.453125 4.78125 72.703125 4.78125 
Q 76.859375 4.78125 79.265625 8.421875 
Q 81.6875 12.0625 81.6875 18.40625 
Q 81.6875 24.8125 79.265625 28.4375 
Q 76.859375 32.078125 72.703125 32.078125 
z
M 72.703125 38.28125 
Q 80.421875 38.28125 84.953125 32.90625 
Q 89.5 27.546875 89.5 18.40625 
Q 89.5 9.28125 84.9375 3.921875 
Q 80.375 -1.421875 72.703125 -1.421875 
Q 64.890625 -1.421875 60.34375 3.921875 
Q 55.8125 9.28125 55.8125 18.40625 
Q 55.8125 27.59375 60.375 32.9375 
Q 64.9375 38.28125 72.703125 38.28125 
z
M 22.3125 68.015625 
Q 18.109375 68.015625 15.6875 64.375 
Q 13.28125 60.75 13.28125 54.390625 
Q 13.28125 47.953125 15.671875 44.328125 
Q 18.0625 40.71875 22.3125 40.71875 
Q 26.5625 40.71875 28.96875 44.328125 
Q 31.390625 47.953125 31.390625 54.390625 
Q 31.390625 60.6875 28.953125 64.34375 
Q 26.515625 68.015625 22.3125 68.015625 
z
M 66.40625 74.21875 
L 74.21875 74.21875 
L 28.609375 -1.421875 
L 20.796875 -1.421875 
z
M 22.3125 74.21875 
Q 30.03125 74.21875 34.609375 68.875 
Q 39.203125 63.53125 39.203125 54.390625 
Q 39.203125 45.171875 34.640625 39.84375 
Q 30.078125 34.515625 22.3125 34.515625 
Q 14.546875 34.515625 10.03125 39.859375 
Q 5.515625 45.21875 5.515625 54.390625 
Q 5.515625 63.484375 10.046875 68.84375 
Q 14.59375 74.21875 22.3125 74.21875 
z
" id="DejaVuSans-37"/>
       <path d="M 8.015625 75.875 
L 15.828125 75.875 
Q 23.140625 64.359375 26.78125 53.3125 
Q 30.421875 42.28125 30.421875 31.390625 
Q 30.421875 20.453125 26.78125 9.375 
Q 23.140625 -1.703125 15.828125 -13.1875 
L 8.015625 -13.1875 
Q 14.5 -2 17.703125 9.0625 
Q 20.90625 20.125 20.90625 31.390625 
Q 20.90625 42.671875 17.703125 53.65625 
Q 14.5 64.65625 8.015625 75.875 
z
" id="DejaVuSans-41"/>
      </defs>
      <use xlink:href="#DejaVuSans-84"/>
      <use x="44.083984" xlink:href="#DejaVuSans-101"/>
      <use x="105.607422" xlink:href="#DejaVuSans-115"/>
      <use x="157.707031" xlink:href="#DejaVuSans-116"/>
      <use x="196.916016" xlink:href="#DejaVuSans-32"/>
      <use x="228.703125" xlink:href="#DejaVuSans-65"/>
      <use x="295.361328" xlink:href="#DejaVuSans-99"/>
      <use x="350.341797" xlink:href="#DejaVuSans-99"/>
      <use x="405.322266" xlink:href="#DejaVuSans-117"/>
      <use x="468.701172" xlink:href="#DejaVuSans-114"/>
      <use x="509.814453" xlink:href="#DejaVuSans-97"/>
      <use x="571.09375" xlink:href="#DejaVuSans-99"/>
      <use x="626.074219" xlink:href="#DejaVuSans-121"/>
      <use x="685.253906" xlink:href="#DejaVuSans-32"/>
      <use x="717.041016" xlink:href="#DejaVuSans-40"/>
      <use x="756.054688" xlink:href="#DejaVuSans-37"/>
      <use x="851.074219" xlink:href="#DejaVuSans-41"/>
     </g>
    </g>
   </g>
   <g id="line2d_13">
    <path clip-path="url(#p0f6ea78af2)" d="M 62.998636 278.400791 
L 65.472279 261.605787 
L 67.945921 248.4205 
L 70.419564 229.949015 
L 72.893206 205.889265 
L 75.366849 189.245294 
L 77.840491 167.254712 
L 80.314134 157.331764 
L 82.787776 136.171871 
L 85.261419 130.508088 
L 87.735061 111.296535 
L 90.208703 114.770322 
L 92.682346 108.970608 
L 95.155988 90.302779 
L 97.629631 95.860839 
L 100.103273 86.043614 
L 102.576916 82.418793 
L 105.050558 80.576176 
L 107.524201 69.852747 
L 109.997843 83.02293 
L 112.471486 74.595221 
L 114.945128 76.951355 
L 117.418771 76.528459 
L 119.892413 70.456883 
L 122.366056 73.477568 
L 124.839698 74.565014 
L 127.31334 71.574537 
L 129.786983 65.291513 
L 132.260625 69.490264 
L 134.734268 60.095936 
L 137.20791 63.328068 
L 139.681553 59.642834 
L 142.155195 67.798681 
L 144.628838 60.881314 
L 147.10248 58.343939 
L 149.576123 61.394831 
L 154.523408 56.863804 
L 156.99705 57.830423 
L 159.470692 68.312198 
L 161.944335 52.030709 
L 164.417977 53.752499 
L 166.89162 57.135666 
L 169.365262 55.353462 
L 171.838905 57.437734 
L 174.312547 59.67304 
L 176.78619 55.746151 
L 179.259832 53.510844 
L 181.733475 56.591942 
L 184.207117 54.809739 
L 186.68076 53.299397 
L 189.154402 53.812913 
L 191.628045 57.95125 
L 196.575329 52.967121 
L 199.048972 60.488625 
L 201.522614 50.278712 
L 203.996257 46.140375 
L 206.469899 49.765196 
L 208.943542 51.879675 
L 211.417184 53.541051 
L 213.890827 51.426572 
L 216.364469 45.32479 
L 218.838112 49.765196 
L 221.311754 50.701608 
L 226.259039 51.124504 
L 228.732682 48.828784 
L 231.206324 46.744512 
L 233.679966 47.167407 
L 236.153609 48.073613 
L 238.627251 51.215124 
L 241.100894 43.391552 
L 243.574536 44.75086 
L 246.048179 42.727001 
L 248.521821 45.022722 
L 250.995464 43.512379 
L 253.469106 44.025896 
L 255.942749 42.908243 
L 258.416391 39.978179 
L 260.890034 42.666588 
L 263.363676 44.690446 
L 265.837318 43.331138 
L 268.310961 41.186452 
L 270.784603 45.32479 
L 273.258246 48.224647 
L 275.731888 41.458314 
L 278.205531 38.43763 
L 280.679173 41.005211 
L 283.152816 39.796938 
L 285.626458 41.760382 
L 288.100101 45.475824 
L 290.573743 39.525076 
L 293.047386 39.132387 
L 295.521028 35.839841 
L 297.994671 42.364519 
L 300.468313 38.558457 
L 302.941955 38.135561 
L 305.415598 34.963843 
L 307.88924 36.443978 
L 310.362883 34.631568 
L 312.836525 35.990875 
L 315.310168 35.56798 
L 317.78381 36.172117 
L 320.257453 38.075148 
L 322.731095 36.685633 
L 325.204738 34.087844 
L 327.67838 34.99405 
L 330.152023 37.501218 
L 332.625665 36.23253 
L 335.099308 32.607709 
L 337.57295 36.746047 
L 340.046592 33.604535 
L 342.520235 32.909777 
L 344.993877 31.852538 
L 347.46752 32.879571 
L 349.941162 31.580676 
L 352.414805 33.030605 
L 354.888447 30.130748 
L 357.36209 32.486882 
L 359.835732 30.463023 
L 362.309375 31.610883 
L 364.783017 30.432816 
L 367.25666 29.466197 
L 369.730302 29.707852 
L 374.677587 28.650613 
L 377.151229 28.439165 
L 379.624872 27.955855 
L 382.098514 28.137096 
L 384.572157 27.200684 
L 389.519442 28.680819 
L 391.993084 26.989236 
L 394.466727 27.62358 
L 396.940369 27.804821 
L 399.414012 26.626754 
L 401.887654 26.898616 
L 404.361297 27.291305 
L 406.834939 28.046476 
L 409.308581 28.106889 
L 411.782224 27.351718 
L 414.255866 26.989236 
L 416.729509 27.502753 
L 419.203151 27.472546 
L 421.676794 26.596547 
L 424.150436 27.804821 
L 426.624079 27.04965 
L 429.097721 26.113238 
L 431.571364 27.230891 
L 431.571364 27.230891 
" style="fill:none;stroke:#1f77b4;stroke-linecap:square;stroke-width:1.5;"/>
   </g>
   <g id="line2d_14">
    <path clip-path="url(#p0f6ea78af2)" d="M 62.998636 253.865283 
L 65.472279 218.349587 
L 70.419564 195.618938 
L 72.893206 178.114072 
L 75.366849 169.172847 
L 77.840491 155.036044 
L 80.314134 142.953307 
L 82.787776 136.066147 
L 85.261419 126.641612 
L 87.735061 118.213902 
L 90.208703 118.213902 
L 92.682346 111.296535 
L 95.155988 102.35531 
L 97.629631 100.573106 
L 100.103273 94.139048 
L 102.576916 90.786089 
L 105.050558 84.956168 
L 107.524201 87.735198 
L 109.997843 83.355205 
L 112.471486 94.712978 
L 117.418771 84.956168 
L 119.892413 87.131061 
L 122.366056 77.495078 
L 124.839698 78.522111 
L 127.31334 80.999072 
L 129.786983 82.177139 
L 132.260625 83.868722 
L 134.734268 76.13577 
L 137.20791 70.577711 
L 139.681553 81.814656 
L 142.155195 72.873431 
L 144.628838 65.533168 
L 147.10248 73.507775 
L 149.576123 71.54433 
L 152.049765 72.601569 
L 154.523408 79.972039 
L 156.99705 76.286804 
L 159.470692 71.514123 
L 161.944335 65.472754 
L 164.417977 69.852747 
L 166.89162 68.976748 
L 169.365262 69.973574 
L 171.838905 68.281991 
L 174.312547 71.665157 
L 176.78619 68.402818 
L 179.259832 68.644473 
L 181.733475 61.666692 
L 184.207117 61.30421 
L 186.68076 60.337591 
L 189.154402 60.216764 
L 191.628045 70.215229 
L 194.101687 60.669866 
L 196.575329 65.472754 
L 199.048972 57.921044 
L 201.522614 63.448896 
L 203.996257 57.618975 
L 206.469899 54.688911 
L 208.943542 60.126143 
L 211.417184 64.324894 
L 213.890827 58.736628 
L 216.364469 56.259667 
L 218.838112 59.00849 
L 221.311754 60.8209 
L 223.785397 54.568084 
L 226.259039 58.917869 
L 228.732682 58.464767 
L 231.206324 52.21195 
L 233.679966 55.685737 
L 236.153609 56.71277 
L 238.627251 56.13884 
L 241.100894 52.604639 
L 243.574536 53.873327 
L 246.048179 50.792229 
L 248.521821 49.523541 
L 250.995464 57.86063 
L 253.469106 53.238983 
L 255.942749 51.517193 
L 258.416391 52.665053 
L 260.890034 46.412236 
L 263.363676 49.644369 
L 265.837318 46.835132 
L 268.310961 45.294583 
L 270.784603 47.076787 
L 273.258246 50.248505 
L 275.731888 46.653891 
L 278.205531 43.844655 
L 280.679173 44.056103 
L 283.152816 48.889197 
L 285.626458 41.126039 
L 288.100101 46.714305 
L 290.573743 38.558457 
L 293.047386 39.343835 
L 295.521028 42.908243 
L 297.994671 42.183278 
L 300.468313 46.593477 
L 302.941955 42.213485 
L 305.415598 40.401075 
L 307.88924 41.246866 
L 310.362883 38.860526 
L 312.836525 39.313628 
L 315.310168 37.984527 
L 317.78381 42.002037 
L 320.257453 42.364519 
L 322.731095 39.434456 
L 325.204738 33.84619 
L 327.67838 35.56798 
L 330.152023 38.195975 
L 332.625665 36.202323 
L 335.099308 37.682459 
L 337.57295 35.870048 
L 340.046592 34.812809 
L 342.520235 36.323151 
L 344.993877 37.38039 
L 347.46752 34.027431 
L 349.941162 33.242053 
L 352.414805 33.000398 
L 354.888447 33.151432 
L 357.36209 33.574328 
L 359.835732 32.275434 
L 362.309375 30.432816 
L 364.783017 29.496404 
L 367.25666 30.795298 
L 369.730302 30.825505 
L 372.203944 30.040127 
L 374.677587 31.187987 
L 377.151229 29.617232 
L 379.624872 28.892267 
L 382.098514 28.680819 
L 387.045799 28.982888 
L 389.519442 30.825505 
L 391.993084 29.133922 
L 394.466727 30.402609 
L 399.414012 28.318337 
L 401.887654 28.650613 
L 404.361297 28.227717 
L 406.834939 27.532959 
L 409.308581 27.412132 
L 411.782224 28.076683 
L 414.255866 27.200684 
L 416.729509 27.563166 
L 419.203151 27.563166 
L 421.676794 26.536134 
L 424.150436 27.563166 
L 426.624079 27.412132 
L 429.097721 27.442339 
L 431.571364 27.7142 
L 431.571364 27.7142 
" style="fill:none;stroke:#ff7f0e;stroke-linecap:square;stroke-width:1.5;"/>
   </g>
   <g id="line2d_15">
    <path clip-path="url(#p0f6ea78af2)" d="M 62.998636 257.852586 
L 65.472279 219.920343 
L 67.945921 207.354296 
L 70.419564 193.096666 
L 75.366849 162.074239 
L 77.840491 153.69184 
L 80.314134 144.524063 
L 82.787776 133.287117 
L 85.261419 127.729058 
L 87.735061 118.878453 
L 90.208703 118.90866 
L 92.682346 113.864117 
L 95.155988 103.805238 
L 97.629631 100.905381 
L 100.103273 95.498356 
L 102.576916 91.601674 
L 105.050558 83.868722 
L 107.524201 83.868722 
L 109.997843 89.547608 
L 112.471486 91.964156 
L 114.945128 88.309128 
L 117.418771 87.221681 
L 119.892413 93.414084 
L 122.366056 88.339335 
L 124.839698 71.785985 
L 127.31334 78.069008 
L 129.786983 83.898929 
L 132.260625 82.781275 
L 137.20791 70.940193 
L 139.681553 75.501426 
L 142.155195 81.089692 
L 144.628838 65.019652 
L 147.10248 77.827353 
L 149.576123 72.390121 
L 152.049765 71.876605 
L 154.523408 75.501426 
L 156.99705 73.205706 
L 159.470692 70.094401 
L 161.944335 67.315372 
L 164.417977 69.157989 
L 166.89162 68.916334 
L 169.365262 74.655635 
L 171.838905 66.258132 
L 174.312547 71.212055 
L 176.78619 67.103924 
L 179.259832 67.436199 
L 181.733475 60.307384 
L 184.207117 67.798681 
L 186.68076 58.857456 
L 189.154402 57.800216 
L 191.628045 65.956064 
L 194.101687 61.485451 
L 196.575329 60.760487 
L 199.048972 59.522006 
L 201.522614 61.87814 
L 203.996257 59.068904 
L 206.469899 59.67304 
L 208.943542 61.727106 
L 211.417184 65.865443 
L 213.890827 58.132491 
L 216.364469 57.437734 
L 218.838112 58.374146 
L 221.311754 56.22946 
L 223.785397 53.420224 
L 226.259039 58.43456 
L 228.732682 54.266016 
L 231.206324 52.091123 
L 236.153609 57.618975 
L 238.627251 57.105459 
L 241.100894 52.12133 
L 243.574536 54.054568 
L 246.048179 55.595117 
L 248.521821 52.604639 
L 250.995464 56.078426 
L 253.469106 48.315267 
L 255.942749 52.242157 
L 258.416391 49.855816 
L 260.890034 47.771544 
L 263.363676 54.145188 
L 265.837318 49.734989 
L 268.310961 50.671401 
L 270.784603 49.372507 
L 273.258246 45.143549 
L 275.731888 48.738163 
L 278.205531 46.835132 
L 280.679173 42.666588 
L 283.152816 46.049754 
L 285.626458 46.079961 
L 288.100101 47.227821 
L 290.573743 42.938449 
L 293.047386 44.207137 
L 295.521028 43.512379 
L 297.994671 42.002037 
L 300.468313 47.650717 
L 302.941955 41.941624 
L 305.415598 41.337487 
L 307.88924 40.099006 
L 310.362883 39.615697 
L 312.836525 40.340661 
L 315.310168 39.978179 
L 317.78381 40.703143 
L 320.257453 40.280247 
L 322.731095 39.434456 
L 325.204738 36.081496 
L 327.67838 35.598186 
L 330.152023 38.407423 
L 332.625665 38.920939 
L 335.099308 40.401075 
L 337.57295 36.80646 
L 340.046592 35.688807 
L 342.520235 35.356532 
L 344.993877 36.564805 
L 347.46752 33.93681 
L 349.941162 34.329499 
L 352.414805 33.997224 
L 354.888447 31.671297 
L 357.36209 33.030605 
L 359.835732 31.64109 
L 362.309375 30.614057 
L 364.783017 31.973365 
L 367.25666 31.278608 
L 369.730302 31.852538 
L 372.203944 30.49323 
L 374.677587 31.520263 
L 377.151229 30.009921 
L 379.624872 29.949507 
L 382.098514 29.526611 
L 384.572157 30.130748 
L 387.045799 27.200684 
L 389.519442 29.798473 
L 394.466727 29.34537 
L 396.940369 28.499578 
L 399.414012 30.251575 
L 401.887654 30.009921 
L 404.361297 29.013095 
L 406.834939 29.224543 
L 409.308581 28.86206 
L 411.782224 29.043302 
L 414.255866 28.227717 
L 416.729509 27.865235 
L 419.203151 28.167303 
L 421.676794 28.348544 
L 424.150436 28.137096 
L 426.624079 28.741233 
L 429.097721 28.28813 
L 431.571364 28.801647 
L 431.571364 28.801647 
" style="fill:none;stroke:#2ca02c;stroke-linecap:square;stroke-width:1.5;"/>
   </g>
   <g id="line2d_16">
    <path clip-path="url(#p0f6ea78af2)" d="M 62.998636 259.54417 
L 65.472279 230.915634 
L 67.945921 221.128617 
L 72.893206 184.140337 
L 75.366849 172.752358 
L 77.840491 162.30079 
L 80.314134 153.948598 
L 82.787776 144.539166 
L 85.261419 132.622567 
L 87.735061 124.436512 
L 90.208703 129.058159 
L 92.682346 123.288652 
L 95.155988 108.275851 
L 97.629631 104.530202 
L 100.103273 96.253527 
L 102.576916 97.914904 
L 105.050558 88.429955 
L 107.524201 90.997537 
L 109.997843 97.492008 
L 112.471486 89.185126 
L 114.945128 88.822644 
L 117.418771 89.305954 
L 119.892413 86.919613 
L 122.366056 84.714513 
L 124.839698 84.231204 
L 127.31334 85.681132 
L 129.786983 80.002246 
L 132.260625 81.361554 
L 134.734268 76.739907 
L 137.20791 74.41398 
L 139.681553 80.968865 
L 142.155195 76.830527 
L 144.628838 73.235913 
L 147.10248 77.404457 
L 149.576123 73.93067 
L 152.049765 78.189835 
L 154.523408 76.800321 
L 156.99705 73.84005 
L 159.470692 81.542795 
L 161.944335 68.281991 
L 164.417977 68.040336 
L 166.89162 70.849572 
L 169.365262 74.202532 
L 171.838905 70.094401 
L 174.312547 70.336056 
L 176.78619 72.420328 
L 179.259832 69.24861 
L 181.733475 62.119795 
L 184.207117 65.956064 
L 189.154402 62.059381 
L 191.628045 67.436199 
L 194.101687 61.183383 
L 196.575329 64.506135 
L 199.048972 60.851107 
L 201.522614 64.898824 
L 203.996257 55.504496 
L 206.469899 59.612627 
L 208.943542 61.968761 
L 211.417184 64.777997 
L 213.890827 62.240622 
L 216.364469 56.622149 
L 218.838112 61.334417 
L 221.311754 61.002142 
L 223.785397 53.782706 
L 226.259039 60.065729 
L 228.732682 57.407527 
L 231.206324 51.486986 
L 233.679966 57.981457 
L 236.153609 56.682563 
L 238.627251 58.646008 
L 241.100894 52.574432 
L 243.574536 58.223112 
L 246.048179 52.846294 
L 248.521821 50.39954 
L 250.995464 60.186557 
L 253.469106 56.652356 
L 255.942749 52.030709 
L 258.416391 56.742977 
L 260.890034 51.335952 
L 263.363676 49.523541 
L 265.837318 50.218299 
L 268.310961 49.82561 
L 270.784603 50.822435 
L 273.258246 50.852642 
L 275.731888 49.372507 
L 278.205531 45.687272 
L 280.679173 44.962308 
L 283.152816 46.351823 
L 285.626458 46.47265 
L 288.100101 48.647543 
L 290.573743 43.210311 
L 293.047386 44.599826 
L 295.521028 45.536238 
L 297.994671 43.300931 
L 300.468313 46.079961 
L 302.941955 44.569619 
L 305.415598 40.642729 
L 307.88924 43.270725 
L 312.836525 41.488521 
L 315.310168 44.237344 
L 317.78381 40.975005 
L 320.257453 46.140375 
L 322.731095 41.30728 
L 325.204738 40.431281 
L 327.67838 36.776253 
L 330.152023 41.186452 
L 332.625665 37.229356 
L 335.099308 39.615697 
L 337.57295 39.10218 
L 340.046592 35.870048 
L 342.520235 37.410597 
L 344.993877 37.833493 
L 347.46752 35.719014 
L 349.941162 35.839841 
L 352.414805 33.544121 
L 354.888447 34.359706 
L 357.36209 34.691981 
L 359.835732 33.000398 
L 362.309375 34.299292 
L 364.783017 31.852538 
L 367.25666 32.456675 
L 369.730302 31.520263 
L 372.203944 31.278608 
L 374.677587 30.644264 
L 377.151229 30.795298 
L 382.098514 30.825505 
L 384.572157 30.553644 
L 387.045799 30.130748 
L 389.519442 30.070334 
L 391.993084 31.792124 
L 394.466727 30.644264 
L 396.940369 30.160955 
L 401.887654 30.97654 
L 404.361297 30.97654 
L 409.308581 30.463023 
L 411.782224 31.127574 
L 414.255866 30.916126 
L 416.729509 30.97654 
L 419.203151 30.523437 
L 421.676794 31.308815 
L 424.150436 30.160955 
L 426.624079 30.765092 
L 429.097721 31.097367 
L 431.571364 30.946333 
L 431.571364 30.946333 
" style="fill:none;stroke:#d62728;stroke-linecap:square;stroke-width:1.5;"/>
   </g>
   <g id="line2d_17">
    <path clip-path="url(#p0f6ea78af2)" d="M 62.998636 259.06086 
L 65.472279 221.491099 
L 67.945921 218.953724 
L 72.893206 183.808062 
L 75.366849 176.211041 
L 77.840491 159.234795 
L 80.314134 153.465288 
L 82.787776 143.799099 
L 85.261419 141.020069 
L 87.735061 128.061333 
L 90.208703 123.379273 
L 92.682346 121.234587 
L 95.155988 111.659017 
L 97.629631 108.396678 
L 100.103273 104.379168 
L 102.576916 103.714618 
L 105.050558 91.933949 
L 107.524201 95.709804 
L 109.997843 93.534912 
L 112.471486 90.635055 
L 114.945128 87.976852 
L 117.418771 91.269398 
L 119.892413 92.326638 
L 122.366056 80.848037 
L 124.839698 85.22803 
L 127.31334 81.693829 
L 129.786983 87.010233 
L 132.260625 84.593686 
L 134.734268 78.069008 
L 137.20791 75.048324 
L 139.681553 82.056311 
L 142.155195 82.660448 
L 144.628838 71.997432 
L 147.10248 83.687481 
L 149.576123 75.894115 
L 152.049765 72.450535 
L 154.523408 82.026104 
L 156.99705 75.894115 
L 159.470692 75.320185 
L 161.944335 63.539516 
L 164.417977 70.124608 
L 166.89162 71.06102 
L 169.365262 70.094401 
L 171.838905 67.859095 
L 174.312547 75.018117 
L 176.78619 75.229565 
L 179.259832 64.898824 
L 181.733475 65.2311 
L 184.207117 70.094401 
L 186.68076 62.663518 
L 189.154402 59.612627 
L 191.628045 63.841585 
L 194.101687 58.827249 
L 196.575329 66.37896 
L 199.048972 59.642834 
L 201.522614 63.116621 
L 203.996257 55.353462 
L 206.469899 56.682563 
L 208.943542 61.122969 
L 211.417184 66.46958 
L 213.890827 58.646008 
L 216.364469 59.038697 
L 218.838112 60.15635 
L 221.311754 59.975109 
L 223.785397 55.202428 
L 226.259039 65.351927 
L 228.732682 57.2867 
L 231.206324 54.50767 
L 233.679966 58.343939 
L 236.153609 58.464767 
L 238.627251 54.145188 
L 241.100894 56.622149 
L 243.574536 55.262841 
L 246.048179 52.816087 
L 248.521821 52.604639 
L 250.995464 60.549039 
L 253.469106 54.50767 
L 255.942749 49.583955 
L 258.416391 53.450431 
L 260.890034 51.366159 
L 263.363676 53.238983 
L 265.837318 51.728641 
L 268.310961 48.556922 
L 270.784603 50.520367 
L 273.258246 49.674575 
L 278.205531 44.781067 
L 280.679173 42.787415 
L 283.152816 44.358171 
L 285.626458 45.083135 
L 288.100101 45.687272 
L 290.573743 44.539412 
L 293.047386 42.636381 
L 295.521028 42.817622 
L 297.994671 42.636381 
L 300.468313 44.539412 
L 302.941955 42.032244 
L 305.415598 41.669762 
L 307.88924 42.787415 
L 310.362883 41.579141 
L 312.836525 39.313628 
L 315.310168 39.223008 
L 317.78381 40.854177 
L 320.257453 40.038592 
L 322.731095 41.579141 
L 325.204738 37.682459 
L 327.67838 38.105354 
L 330.152023 40.491695 
L 335.099308 38.105354 
L 337.57295 36.987701 
L 340.046592 36.202323 
L 342.520235 37.017908 
L 344.993877 36.655426 
L 347.46752 37.440804 
L 349.941162 33.453501 
L 352.414805 35.054463 
L 354.888447 32.245227 
L 357.36209 33.725362 
L 359.835732 31.64109 
L 362.309375 32.879571 
L 364.783017 31.701504 
L 367.25666 31.912952 
L 369.730302 29.828679 
L 372.203944 31.399435 
L 374.677587 30.946333 
L 377.151229 29.828679 
L 379.624872 32.305641 
L 382.098514 31.308815 
L 384.572157 30.130748 
L 387.045799 30.885919 
L 389.519442 31.278608 
L 391.993084 30.342196 
L 394.466727 30.97654 
L 396.940369 30.614057 
L 399.414012 29.768266 
L 401.887654 29.798473 
L 404.361297 29.164129 
L 406.834939 29.284956 
L 409.308581 29.9193 
L 411.782224 30.100541 
L 416.729509 29.798473 
L 419.203151 29.043302 
L 421.676794 29.889093 
L 424.150436 29.768266 
L 426.624079 30.040127 
L 429.097721 29.768266 
L 431.571364 29.284956 
L 431.571364 29.284956 
" style="fill:none;stroke:#9467bd;stroke-linecap:square;stroke-width:1.5;"/>
   </g>
   <g id="patch_3">
    <path d="M 44.57 303.64 
L 44.57 10.8 
" style="fill:none;stroke:#000000;stroke-linecap:square;stroke-linejoin:miter;stroke-width:0.8;"/>
   </g>
   <g id="patch_4">
    <path d="M 450 303.64 
L 450 10.8 
" style="fill:none;stroke:#000000;stroke-linecap:square;stroke-linejoin:miter;stroke-width:0.8;"/>
   </g>
   <g id="patch_5">
    <path d="M 44.57 303.64 
L 450 303.64 
" style="fill:none;stroke:#000000;stroke-linecap:square;stroke-linejoin:miter;stroke-width:0.8;"/>
   </g>
   <g id="patch_6">
    <path d="M 44.57 10.8 
L 450 10.8 
" style="fill:none;stroke:#000000;stroke-linecap:square;stroke-linejoin:miter;stroke-width:0.8;"/>
   </g>
   <g id="legend_1">
    <g id="patch_7">
     <path d="M 282.65625 298.64 
L 443 298.64 
Q 445 298.64 445 296.64 
L 445 224.249375 
Q 445 222.249375 443 222.249375 
L 282.65625 222.249375 
Q 280.65625 222.249375 280.65625 224.249375 
L 280.65625 296.64 
Q 280.65625 298.64 282.65625 298.64 
z
" style="fill:#ffffff;opacity:0.8;stroke:#cccccc;stroke-linejoin:miter;"/>
    </g>
    <g id="line2d_18">
     <path d="M 284.65625 230.347812 
L 304.65625 230.347812 
" style="fill:none;stroke:#1f77b4;stroke-linecap:square;stroke-width:1.5;"/>
    </g>
    <g id="line2d_19"/>
    <g id="text_15">
     <!-- AllReduce SGD -->
     <g transform="translate(312.65625 233.847812)scale(0.1 -0.1)">
      <defs>
       <path d="M 9.421875 75.984375 
L 18.40625 75.984375 
L 18.40625 0 
L 9.421875 0 
z
" id="DejaVuSans-108"/>
       <path d="M 44.390625 34.1875 
Q 47.5625 33.109375 50.5625 29.59375 
Q 53.5625 26.078125 56.59375 19.921875 
L 66.609375 0 
L 56 0 
L 46.6875 18.703125 
Q 43.0625 26.03125 39.671875 28.421875 
Q 36.28125 30.8125 30.421875 30.8125 
L 19.671875 30.8125 
L 19.671875 0 
L 9.8125 0 
L 9.8125 72.90625 
L 32.078125 72.90625 
Q 44.578125 72.90625 50.734375 67.671875 
Q 56.890625 62.453125 56.890625 51.90625 
Q 56.890625 45.015625 53.6875 40.46875 
Q 50.484375 35.9375 44.390625 34.1875 
z
M 19.671875 64.796875 
L 19.671875 38.921875 
L 32.078125 38.921875 
Q 39.203125 38.921875 42.84375 42.21875 
Q 46.484375 45.515625 46.484375 51.90625 
Q 46.484375 58.296875 42.84375 61.546875 
Q 39.203125 64.796875 32.078125 64.796875 
z
" id="DejaVuSans-82"/>
       <path d="M 45.40625 46.390625 
L 45.40625 75.984375 
L 54.390625 75.984375 
L 54.390625 0 
L 45.40625 0 
L 45.40625 8.203125 
Q 42.578125 3.328125 38.25 0.953125 
Q 33.9375 -1.421875 27.875 -1.421875 
Q 17.96875 -1.421875 11.734375 6.484375 
Q 5.515625 14.40625 5.515625 27.296875 
Q 5.515625 40.1875 11.734375 48.09375 
Q 17.96875 56 27.875 56 
Q 33.9375 56 38.25 53.625 
Q 42.578125 51.265625 45.40625 46.390625 
z
M 14.796875 27.296875 
Q 14.796875 17.390625 18.875 11.75 
Q 22.953125 6.109375 30.078125 6.109375 
Q 37.203125 6.109375 41.296875 11.75 
Q 45.40625 17.390625 45.40625 27.296875 
Q 45.40625 37.203125 41.296875 42.84375 
Q 37.203125 48.484375 30.078125 48.484375 
Q 22.953125 48.484375 18.875 42.84375 
Q 14.796875 37.203125 14.796875 27.296875 
z
" id="DejaVuSans-100"/>
       <path d="M 53.515625 70.515625 
L 53.515625 60.890625 
Q 47.90625 63.578125 42.921875 64.890625 
Q 37.9375 66.21875 33.296875 66.21875 
Q 25.25 66.21875 20.875 63.09375 
Q 16.5 59.96875 16.5 54.203125 
Q 16.5 49.359375 19.40625 46.890625 
Q 22.3125 44.4375 30.421875 42.921875 
L 36.375 41.703125 
Q 47.40625 39.59375 52.65625 34.296875 
Q 57.90625 29 57.90625 20.125 
Q 57.90625 9.515625 50.796875 4.046875 
Q 43.703125 -1.421875 29.984375 -1.421875 
Q 24.8125 -1.421875 18.96875 -0.25 
Q 13.140625 0.921875 6.890625 3.21875 
L 6.890625 13.375 
Q 12.890625 10.015625 18.65625 8.296875 
Q 24.421875 6.59375 29.984375 6.59375 
Q 38.421875 6.59375 43.015625 9.90625 
Q 47.609375 13.234375 47.609375 19.390625 
Q 47.609375 24.75 44.3125 27.78125 
Q 41.015625 30.8125 33.5 32.328125 
L 27.484375 33.5 
Q 16.453125 35.6875 11.515625 40.375 
Q 6.59375 45.0625 6.59375 53.421875 
Q 6.59375 63.09375 13.40625 68.65625 
Q 20.21875 74.21875 32.171875 74.21875 
Q 37.3125 74.21875 42.625 73.28125 
Q 47.953125 72.359375 53.515625 70.515625 
z
" id="DejaVuSans-83"/>
       <path d="M 59.515625 10.40625 
L 59.515625 29.984375 
L 43.40625 29.984375 
L 43.40625 38.09375 
L 69.28125 38.09375 
L 69.28125 6.78125 
Q 63.578125 2.734375 56.6875 0.65625 
Q 49.8125 -1.421875 42 -1.421875 
Q 24.90625 -1.421875 15.25 8.5625 
Q 5.609375 18.5625 5.609375 36.375 
Q 5.609375 54.25 15.25 64.234375 
Q 24.90625 74.21875 42 74.21875 
Q 49.125 74.21875 55.546875 72.453125 
Q 61.96875 70.703125 67.390625 67.28125 
L 67.390625 56.78125 
Q 61.921875 61.421875 55.765625 63.765625 
Q 49.609375 66.109375 42.828125 66.109375 
Q 29.4375 66.109375 22.71875 58.640625 
Q 16.015625 51.171875 16.015625 36.375 
Q 16.015625 21.625 22.71875 14.15625 
Q 29.4375 6.6875 42.828125 6.6875 
Q 48.046875 6.6875 52.140625 7.59375 
Q 56.25 8.5 59.515625 10.40625 
z
" id="DejaVuSans-71"/>
       <path d="M 19.671875 64.796875 
L 19.671875 8.109375 
L 31.59375 8.109375 
Q 46.6875 8.109375 53.6875 14.9375 
Q 60.6875 21.78125 60.6875 36.53125 
Q 60.6875 51.171875 53.6875 57.984375 
Q 46.6875 64.796875 31.59375 64.796875 
z
M 9.8125 72.90625 
L 30.078125 72.90625 
Q 51.265625 72.90625 61.171875 64.09375 
Q 71.09375 55.28125 71.09375 36.53125 
Q 71.09375 17.671875 61.125 8.828125 
Q 51.171875 0 30.078125 0 
L 9.8125 0 
z
" id="DejaVuSans-68"/>
      </defs>
      <use xlink:href="#DejaVuSans-65"/>
      <use x="68.408203" xlink:href="#DejaVuSans-108"/>
      <use x="96.191406" xlink:href="#DejaVuSans-108"/>
      <use x="123.974609" xlink:href="#DejaVuSans-82"/>
      <use x="188.957031" xlink:href="#DejaVuSans-101"/>
      <use x="250.480469" xlink:href="#DejaVuSans-100"/>
      <use x="313.957031" xlink:href="#DejaVuSans-117"/>
      <use x="377.335938" xlink:href="#DejaVuSans-99"/>
      <use x="432.316406" xlink:href="#DejaVuSans-101"/>
      <use x="493.839844" xlink:href="#DejaVuSans-32"/>
      <use x="525.626953" xlink:href="#DejaVuSans-83"/>
      <use x="589.103516" xlink:href="#DejaVuSans-71"/>
      <use x="666.59375" xlink:href="#DejaVuSans-68"/>
     </g>
    </g>
    <g id="line2d_20">
     <path d="M 284.65625 245.025937 
L 304.65625 245.025937 
" style="fill:none;stroke:#ff7f0e;stroke-linecap:square;stroke-width:1.5;"/>
    </g>
    <g id="line2d_21"/>
    <g id="text_16">
     <!-- GRandK-MN-TS (8,12) bits -->
     <g transform="translate(312.65625 248.525937)scale(0.1 -0.1)">
      <defs>
       <path d="M 54.890625 33.015625 
L 54.890625 0 
L 45.90625 0 
L 45.90625 32.71875 
Q 45.90625 40.484375 42.875 44.328125 
Q 39.84375 48.1875 33.796875 48.1875 
Q 26.515625 48.1875 22.3125 43.546875 
Q 18.109375 38.921875 18.109375 30.90625 
L 18.109375 0 
L 9.078125 0 
L 9.078125 54.6875 
L 18.109375 54.6875 
L 18.109375 46.1875 
Q 21.34375 51.125 25.703125 53.5625 
Q 30.078125 56 35.796875 56 
Q 45.21875 56 50.046875 50.171875 
Q 54.890625 44.34375 54.890625 33.015625 
z
" id="DejaVuSans-110"/>
       <path d="M 9.8125 72.90625 
L 19.671875 72.90625 
L 19.671875 42.09375 
L 52.390625 72.90625 
L 65.09375 72.90625 
L 28.90625 38.921875 
L 67.671875 0 
L 54.6875 0 
L 19.671875 35.109375 
L 19.671875 0 
L 9.8125 0 
z
" id="DejaVuSans-75"/>
       <path d="M 4.890625 31.390625 
L 31.203125 31.390625 
L 31.203125 23.390625 
L 4.890625 23.390625 
z
" id="DejaVuSans-45"/>
       <path d="M 9.8125 72.90625 
L 24.515625 72.90625 
L 43.109375 23.296875 
L 61.8125 72.90625 
L 76.515625 72.90625 
L 76.515625 0 
L 66.890625 0 
L 66.890625 64.015625 
L 48.09375 14.015625 
L 38.1875 14.015625 
L 19.390625 64.015625 
L 19.390625 0 
L 9.8125 0 
z
" id="DejaVuSans-77"/>
       <path d="M 9.8125 72.90625 
L 23.09375 72.90625 
L 55.421875 11.921875 
L 55.421875 72.90625 
L 64.984375 72.90625 
L 64.984375 0 
L 51.703125 0 
L 19.390625 60.984375 
L 19.390625 0 
L 9.8125 0 
z
" id="DejaVuSans-78"/>
       <path d="M 11.71875 12.40625 
L 22.015625 12.40625 
L 22.015625 4 
L 14.015625 -11.625 
L 7.71875 -11.625 
L 11.71875 4 
z
" id="DejaVuSans-44"/>
       <path d="M 48.6875 27.296875 
Q 48.6875 37.203125 44.609375 42.84375 
Q 40.53125 48.484375 33.40625 48.484375 
Q 26.265625 48.484375 22.1875 42.84375 
Q 18.109375 37.203125 18.109375 27.296875 
Q 18.109375 17.390625 22.1875 11.75 
Q 26.265625 6.109375 33.40625 6.109375 
Q 40.53125 6.109375 44.609375 11.75 
Q 48.6875 17.390625 48.6875 27.296875 
z
M 18.109375 46.390625 
Q 20.953125 51.265625 25.265625 53.625 
Q 29.59375 56 35.59375 56 
Q 45.5625 56 51.78125 48.09375 
Q 58.015625 40.1875 58.015625 27.296875 
Q 58.015625 14.40625 51.78125 6.484375 
Q 45.5625 -1.421875 35.59375 -1.421875 
Q 29.59375 -1.421875 25.265625 0.953125 
Q 20.953125 3.328125 18.109375 8.203125 
L 18.109375 0 
L 9.078125 0 
L 9.078125 75.984375 
L 18.109375 75.984375 
z
" id="DejaVuSans-98"/>
       <path d="M 9.421875 54.6875 
L 18.40625 54.6875 
L 18.40625 0 
L 9.421875 0 
z
M 9.421875 75.984375 
L 18.40625 75.984375 
L 18.40625 64.59375 
L 9.421875 64.59375 
z
" id="DejaVuSans-105"/>
      </defs>
      <use xlink:href="#DejaVuSans-71"/>
      <use x="77.490234" xlink:href="#DejaVuSans-82"/>
      <use x="144.722656" xlink:href="#DejaVuSans-97"/>
      <use x="206.001953" xlink:href="#DejaVuSans-110"/>
      <use x="269.380859" xlink:href="#DejaVuSans-100"/>
      <use x="332.857422" xlink:href="#DejaVuSans-75"/>
      <use x="387.933594" xlink:href="#DejaVuSans-45"/>
      <use x="424.017578" xlink:href="#DejaVuSans-77"/>
      <use x="510.296875" xlink:href="#DejaVuSans-78"/>
      <use x="585.101562" xlink:href="#DejaVuSans-45"/>
      <use x="612.060547" xlink:href="#DejaVuSans-84"/>
      <use x="673.144531" xlink:href="#DejaVuSans-83"/>
      <use x="736.621094" xlink:href="#DejaVuSans-32"/>
      <use x="768.408203" xlink:href="#DejaVuSans-40"/>
      <use x="807.421875" xlink:href="#DejaVuSans-56"/>
      <use x="871.044922" xlink:href="#DejaVuSans-44"/>
      <use x="902.832031" xlink:href="#DejaVuSans-49"/>
      <use x="966.455078" xlink:href="#DejaVuSans-50"/>
      <use x="1030.078125" xlink:href="#DejaVuSans-41"/>
      <use x="1069.091797" xlink:href="#DejaVuSans-32"/>
      <use x="1100.878906" xlink:href="#DejaVuSans-98"/>
      <use x="1164.355469" xlink:href="#DejaVuSans-105"/>
      <use x="1192.138672" xlink:href="#DejaVuSans-116"/>
      <use x="1231.347656" xlink:href="#DejaVuSans-115"/>
     </g>
    </g>
    <g id="line2d_22">
     <path d="M 284.65625 259.704062 
L 304.65625 259.704062 
" style="fill:none;stroke:#2ca02c;stroke-linecap:square;stroke-width:1.5;"/>
    </g>
    <g id="line2d_23"/>
    <g id="text_17">
     <!-- GRandK-MN-TS (6,10) bits -->
     <g transform="translate(312.65625 263.204062)scale(0.1 -0.1)">
      <use xlink:href="#DejaVuSans-71"/>
      <use x="77.490234" xlink:href="#DejaVuSans-82"/>
      <use x="144.722656" xlink:href="#DejaVuSans-97"/>
      <use x="206.001953" xlink:href="#DejaVuSans-110"/>
      <use x="269.380859" xlink:href="#DejaVuSans-100"/>
      <use x="332.857422" xlink:href="#DejaVuSans-75"/>
      <use x="387.933594" xlink:href="#DejaVuSans-45"/>
      <use x="424.017578" xlink:href="#DejaVuSans-77"/>
      <use x="510.296875" xlink:href="#DejaVuSans-78"/>
      <use x="585.101562" xlink:href="#DejaVuSans-45"/>
      <use x="612.060547" xlink:href="#DejaVuSans-84"/>
      <use x="673.144531" xlink:href="#DejaVuSans-83"/>
      <use x="736.621094" xlink:href="#DejaVuSans-32"/>
      <use x="768.408203" xlink:href="#DejaVuSans-40"/>
      <use x="807.421875" xlink:href="#DejaVuSans-54"/>
      <use x="871.044922" xlink:href="#DejaVuSans-44"/>
      <use x="902.832031" xlink:href="#DejaVuSans-49"/>
      <use x="966.455078" xlink:href="#DejaVuSans-48"/>
      <use x="1030.078125" xlink:href="#DejaVuSans-41"/>
      <use x="1069.091797" xlink:href="#DejaVuSans-32"/>
      <use x="1100.878906" xlink:href="#DejaVuSans-98"/>
      <use x="1164.355469" xlink:href="#DejaVuSans-105"/>
      <use x="1192.138672" xlink:href="#DejaVuSans-116"/>
      <use x="1231.347656" xlink:href="#DejaVuSans-115"/>
     </g>
    </g>
    <g id="line2d_24">
     <path d="M 284.65625 274.382187 
L 304.65625 274.382187 
" style="fill:none;stroke:#d62728;stroke-linecap:square;stroke-width:1.5;"/>
    </g>
    <g id="line2d_25"/>
    <g id="text_18">
     <!-- GRandK-MN-TS (4,8) bits -->
     <g transform="translate(312.65625 277.882187)scale(0.1 -0.1)">
      <use xlink:href="#DejaVuSans-71"/>
      <use x="77.490234" xlink:href="#DejaVuSans-82"/>
      <use x="144.722656" xlink:href="#DejaVuSans-97"/>
      <use x="206.001953" xlink:href="#DejaVuSans-110"/>
      <use x="269.380859" xlink:href="#DejaVuSans-100"/>
      <use x="332.857422" xlink:href="#DejaVuSans-75"/>
      <use x="387.933594" xlink:href="#DejaVuSans-45"/>
      <use x="424.017578" xlink:href="#DejaVuSans-77"/>
      <use x="510.296875" xlink:href="#DejaVuSans-78"/>
      <use x="585.101562" xlink:href="#DejaVuSans-45"/>
      <use x="612.060547" xlink:href="#DejaVuSans-84"/>
      <use x="673.144531" xlink:href="#DejaVuSans-83"/>
      <use x="736.621094" xlink:href="#DejaVuSans-32"/>
      <use x="768.408203" xlink:href="#DejaVuSans-40"/>
      <use x="807.421875" xlink:href="#DejaVuSans-52"/>
      <use x="871.044922" xlink:href="#DejaVuSans-44"/>
      <use x="902.832031" xlink:href="#DejaVuSans-56"/>
      <use x="966.455078" xlink:href="#DejaVuSans-41"/>
      <use x="1005.46875" xlink:href="#DejaVuSans-32"/>
      <use x="1037.255859" xlink:href="#DejaVuSans-98"/>
      <use x="1100.732422" xlink:href="#DejaVuSans-105"/>
      <use x="1128.515625" xlink:href="#DejaVuSans-116"/>
      <use x="1167.724609" xlink:href="#DejaVuSans-115"/>
     </g>
    </g>
    <g id="line2d_26">
     <path d="M 284.65625 289.060312 
L 304.65625 289.060312 
" style="fill:none;stroke:#9467bd;stroke-linecap:square;stroke-width:1.5;"/>
    </g>
    <g id="line2d_27"/>
    <g id="text_19">
     <!-- GRandK-MN-TS (2,6) bits -->
     <g transform="translate(312.65625 292.560312)scale(0.1 -0.1)">
      <use xlink:href="#DejaVuSans-71"/>
      <use x="77.490234" xlink:href="#DejaVuSans-82"/>
      <use x="144.722656" xlink:href="#DejaVuSans-97"/>
      <use x="206.001953" xlink:href="#DejaVuSans-110"/>
      <use x="269.380859" xlink:href="#DejaVuSans-100"/>
      <use x="332.857422" xlink:href="#DejaVuSans-75"/>
      <use x="387.933594" xlink:href="#DejaVuSans-45"/>
      <use x="424.017578" xlink:href="#DejaVuSans-77"/>
      <use x="510.296875" xlink:href="#DejaVuSans-78"/>
      <use x="585.101562" xlink:href="#DejaVuSans-45"/>
      <use x="612.060547" xlink:href="#DejaVuSans-84"/>
      <use x="673.144531" xlink:href="#DejaVuSans-83"/>
      <use x="736.621094" xlink:href="#DejaVuSans-32"/>
      <use x="768.408203" xlink:href="#DejaVuSans-40"/>
      <use x="807.421875" xlink:href="#DejaVuSans-50"/>
      <use x="871.044922" xlink:href="#DejaVuSans-44"/>
      <use x="902.832031" xlink:href="#DejaVuSans-54"/>
      <use x="966.455078" xlink:href="#DejaVuSans-41"/>
      <use x="1005.46875" xlink:href="#DejaVuSans-32"/>
      <use x="1037.255859" xlink:href="#DejaVuSans-98"/>
      <use x="1100.732422" xlink:href="#DejaVuSans-105"/>
      <use x="1128.515625" xlink:href="#DejaVuSans-116"/>
      <use x="1167.724609" xlink:href="#DejaVuSans-115"/>
     </g>
    </g>
   </g>
  </g>
 </g>
 <defs>
  <clipPath id="p0f6ea78af2">
   <rect height="292.84" width="405.43" x="44.57" y="10.8"/>
  </clipPath>
 </defs>
</svg>
