<?xml version="1.0" encoding="utf-8" standalone="no"?>
<!DOCTYPE svg PUBLIC "-//W3C//DTD SVG 1.1//EN"
  "http://www.w3.org/Graphics/SVG/1.1/DTD/svg11.dtd">
<!-- Created with matplotlib (https://matplotlib.org/) -->
<svg height="345.6pt" version="1.1" viewBox="0 0 460.8 345.6" width="460.8pt" xmlns="http://www.w3.org/2000/svg" xmlns:xlink="http://www.w3.org/1999/xlink">
 <metadata>
  <rdf:RDF xmlns:cc="http://creativecommons.org/ns#" xmlns:dc="http://purl.org/dc/elements/1.1/" xmlns:rdf="http://www.w3.org/1999/02/22-rdf-syntax-ns#">
   <cc:Work>
    <dc:type rdf:resource="http://purl.org/dc/dcmitype/StillImage"/>
    <dc:date>2021-06-10T08:56:51.547164</dc:date>
    <dc:format>image/svg+xml</dc:format>
    <dc:creator>
     <cc:Agent>
      <dc:title>Matplotlib v3.3.1, https://matplotlib.org/</dc:title>
     </cc:Agent>
    </dc:creator>
   </cc:Work>
  </rdf:RDF>
 </metadata>
 <defs>
  <style type="text/css">*{stroke-linecap:butt;stroke-linejoin:round;}</style>
 </defs>
 <g id="figure_1">
  <g id="patch_1">
   <path d="M 0 345.6 
L 460.8 345.6 
L 460.8 0 
L 0 0 
z
" style="fill:#ffffff;"/>
  </g>
  <g id="axes_1">
   <g id="patch_2">
    <path d="M 50.87 303.64 
L 450 303.64 
L 450 10.8 
L 50.87 10.8 
z
" style="fill:#ffffff;"/>
   </g>
   <g id="PolyCollection_1">
    <path clip-path="url(#p693e8513e4)" d="M 69.012273 175.66123 
L 69.012273 290.329091 
L 71.447477 201.200723 
L 73.882682 128.919336 
L 76.317886 103.623392 
L 78.75309 90.510545 
L 81.188295 74.089083 
L 83.623499 72.697795 
L 86.058703 64.428993 
L 88.493908 54.991084 
L 90.929112 54.094875 
L 93.364317 44.17712 
L 95.799521 48.654852 
L 98.234725 44.66006 
L 100.66993 37.642502 
L 103.105134 41.450977 
L 105.540339 36.203091 
L 107.975543 35.112359 
L 110.410747 38.448694 
L 112.845952 35.39888 
L 115.281156 36.283033 
L 117.716361 34.674759 
L 120.151565 36.364937 
L 122.586769 32.482351 
L 125.021974 32.402813 
L 127.457178 31.522961 
L 129.892383 34.928809 
L 132.327587 31.526667 
L 134.762791 30.687923 
L 137.197996 29.999467 
L 139.6332 30.002012 
L 142.068405 30.861617 
L 144.503609 30.667583 
L 146.938813 30.598584 
L 149.374018 29.795517 
L 151.809222 30.924217 
L 154.244426 32.008165 
L 156.679631 30.481374 
L 159.114835 28.454311 
L 161.55004 30.938853 
L 163.985244 30.189386 
L 166.420448 30.467045 
L 168.855653 29.531915 
L 171.290857 28.934865 
L 173.726062 28.528584 
L 176.161266 30.278677 
L 178.59647 28.499114 
L 181.031675 27.961781 
L 183.466879 29.642723 
L 185.902084 27.569413 
L 188.337288 30.927323 
L 190.772492 28.813547 
L 193.207697 28.565887 
L 195.642901 29.642723 
L 198.078106 30.960628 
L 200.51331 25.71811 
L 202.948514 29.05299 
L 205.383719 28.012127 
L 207.818923 26.975223 
L 210.254128 27.678448 
L 212.689332 27.11793 
L 215.124536 28.062719 
L 217.559741 26.340252 
L 219.994945 29.143051 
L 222.430149 27.11793 
L 224.865354 30.238334 
L 227.300558 28.528584 
L 229.735763 26.738651 
L 232.170967 26.715997 
L 234.606171 28.263377 
L 237.041376 28.383567 
L 239.47658 28.936211 
L 241.911785 28.454448 
L 244.346989 28.061077 
L 246.782193 27.94226 
L 249.217398 26.975223 
L 251.652602 28.837432 
L 254.087807 28.017997 
L 256.523011 28.967595 
L 258.958215 30.709344 
L 261.39342 27.869449 
L 263.828624 27.045135 
L 266.263829 27.436593 
L 268.699033 27.785728 
L 271.134237 28.062719 
L 273.569442 28.916602 
L 276.004646 28.63403 
L 278.439851 27.60409 
L 280.875055 27.377156 
L 283.310259 28.648954 
L 285.745464 26.738651 
L 288.180668 27.678448 
L 290.615872 28.271873 
L 293.051077 27.838569 
L 295.486281 27.961781 
L 297.921486 25.71811 
L 300.35669 27.691679 
L 302.791894 25.632486 
L 305.227099 26.630373 
L 307.662303 25.251503 
L 310.097508 25.632486 
L 312.532712 25.562574 
L 314.967916 25.71811 
L 317.403121 26.738651 
L 319.838325 26.334243 
L 322.27353 25.47695 
L 324.708734 24.784896 
L 327.143938 26.165041 
L 329.579143 25.71811 
L 332.014347 26.703168 
L 334.449552 26.029181 
L 336.884756 26.703168 
L 339.31996 25.71811 
L 341.755165 27.080138 
L 344.190369 26.165041 
L 346.625574 27.334609 
L 349.060778 26.165041 
L 351.495982 26.703168 
L 353.931187 25.47695 
L 356.366391 26.029181 
L 358.801595 26.165041 
L 361.2368 25.47695 
L 363.672004 25.47695 
L 366.107209 25.47695 
L 368.542413 24.784896 
L 370.977617 25.47695 
L 373.412822 25.251503 
L 375.848026 25.251503 
L 378.283231 25.251503 
L 380.718435 24.784896 
L 383.153639 26.029181 
L 385.588844 24.784896 
L 388.024048 24.784896 
L 390.459253 25.251503 
L 392.894457 24.784896 
L 395.329661 25.47695 
L 397.764866 25.251503 
L 400.20007 25.251503 
L 402.635275 25.251503 
L 405.070479 25.251503 
L 407.505683 25.251503 
L 409.940888 25.251503 
L 412.376092 25.251503 
L 414.811297 25.251503 
L 417.246501 25.251503 
L 419.681705 25.251503 
L 422.11691 25.251503 
L 424.552114 25.251503 
L 426.987318 25.251503 
L 429.422523 25.251503 
L 431.857727 25.251503 
L 431.857727 24.629361 
L 431.857727 24.629361 
L 429.422523 24.629361 
L 426.987318 24.629361 
L 424.552114 24.629361 
L 422.11691 24.629361 
L 419.681705 24.629361 
L 417.246501 24.629361 
L 414.811297 24.629361 
L 412.376092 24.629361 
L 409.940888 24.629361 
L 407.505683 24.629361 
L 405.070479 24.629361 
L 402.635275 24.629361 
L 400.20007 24.629361 
L 397.764866 24.629361 
L 395.329661 24.714985 
L 392.894457 24.784896 
L 390.459253 24.629361 
L 388.024048 24.784896 
L 385.588844 24.784896 
L 383.153639 24.370135 
L 380.718435 24.784896 
L 378.283231 24.629361 
L 375.848026 24.629361 
L 373.412822 24.629361 
L 370.977617 24.714985 
L 368.542413 24.784896 
L 366.107209 24.714985 
L 363.672004 24.714985 
L 361.2368 24.714985 
L 358.801595 24.545346 
L 356.366391 24.370135 
L 353.931187 24.714985 
L 351.495982 24.836742 
L 349.060778 24.545346 
L 346.625574 24.723753 
L 344.190369 24.545346 
L 341.755165 24.770843 
L 339.31996 25.095968 
L 336.884756 24.836742 
L 334.449552 24.370135 
L 332.014347 24.836742 
L 329.579143 25.095968 
L 327.143938 24.545346 
L 324.708734 24.784896 
L 322.27353 24.714985 
L 319.838325 24.998286 
L 317.403121 25.112331 
L 314.967916 25.095968 
L 312.532712 25.562574 
L 310.097508 24.87052 
L 307.662303 24.629361 
L 305.227099 24.598465 
L 302.791894 24.87052 
L 300.35669 24.574063 
L 297.921486 25.095968 
L 295.486281 25.133485 
L 293.051077 24.738245 
L 290.615872 25.238154 
L 288.180668 26.03896 
L 285.745464 25.112331 
L 283.310259 25.690596 
L 280.875055 25.303348 
L 278.439851 24.972724 
L 276.004646 24.564926 
L 273.569442 25.215567 
L 271.134237 25.032547 
L 268.699033 25.620609 
L 266.263829 25.658673 
L 263.828624 25.013227 
L 261.39342 25.018436 
L 258.958215 26.118775 
L 256.523011 26.097787 
L 254.087807 25.69941 
L 251.652602 26.331641 
L 249.217398 25.705281 
L 246.782193 24.841935 
L 244.346989 25.34526 
L 241.911785 25.885102 
L 239.47658 25.299649 
L 237.041376 24.711698 
L 234.606171 24.935579 
L 232.170967 25.446055 
L 229.735763 25.112331 
L 227.300558 25.292514 
L 224.865354 26.900856 
L 222.430149 26.081026 
L 219.994945 24.885428 
L 217.559741 25.303348 
L 215.124536 25.032547 
L 212.689332 26.081026 
L 210.254128 26.03896 
L 207.818923 25.705281 
L 205.383719 26.742185 
L 202.948514 26.634535 
L 200.51331 25.095968 
L 198.078106 28.770821 
L 195.642901 26.044802 
L 193.207697 25.669973 
L 190.772492 25.837074 
L 188.337288 26.004487 
L 185.902084 25.629543 
L 183.466879 26.044802 
L 181.031675 25.133485 
L 178.59647 25.633055 
L 176.161266 25.823609 
L 173.726062 25.292514 
L 171.290857 26.648969 
L 168.855653 26.362991 
L 166.420448 25.32417 
L 163.985244 26.120282 
L 161.55004 27.340931 
L 159.114835 26.611071 
L 156.679631 27.176268 
L 154.244426 29.589711 
L 151.809222 29.533065 
L 149.374018 27.032602 
L 146.938813 29.443937 
L 144.503609 27.19744 
L 142.068405 27.625547 
L 139.6332 28.485153 
L 137.197996 27.554484 
L 134.762791 26.658648 
L 132.327587 27.271569 
L 129.892383 30.40192 
L 127.457178 27.067894 
L 125.021974 28.36554 
L 122.586769 28.597074 
L 120.151565 27.514127 
L 117.716361 28.271092 
L 115.281156 29.98091 
L 112.845952 32.213037 
L 110.410747 30.407508 
L 107.975543 28.559324 
L 105.540339 30.268232 
L 103.105134 33.626647 
L 100.66993 34.324411 
L 98.234725 38.816484 
L 95.799521 37.206571 
L 93.364317 37.847759 
L 90.929112 45.142606 
L 88.493908 39.891401 
L 86.058703 48.599307 
L 83.623499 49.351567 
L 81.188295 60.299433 
L 78.75309 74.25925 
L 76.317886 90.076016 
L 73.882682 106.878363 
L 71.447477 136.731991 
L 69.012273 175.66123 
z
" style="fill:#1f77b4;fill-opacity:0.25;"/>
   </g>
   <g id="PolyCollection_2">
    <path clip-path="url(#p693e8513e4)" d="M 69.012273 138.201975 
L 69.012273 170.178983 
L 71.447477 110.016819 
L 73.882682 98.02895 
L 76.317886 78.609995 
L 78.75309 71.215841 
L 81.188295 65.917545 
L 83.623499 56.573247 
L 86.058703 54.254561 
L 88.493908 46.214356 
L 90.929112 45.038892 
L 93.364317 43.914115 
L 95.799521 44.661997 
L 98.234725 40.615258 
L 100.66993 41.952125 
L 103.105134 37.016035 
L 105.540339 39.346564 
L 107.975543 33.841043 
L 110.410747 37.861438 
L 112.845952 38.093519 
L 115.281156 37.537003 
L 117.716361 44.024904 
L 120.151565 37.163177 
L 122.586769 37.804514 
L 125.021974 35.120078 
L 127.457178 36.289723 
L 129.892383 31.853908 
L 132.327587 34.547279 
L 134.762791 33.716925 
L 137.197996 34.804871 
L 139.6332 32.538936 
L 142.068405 33.423485 
L 144.503609 35.147162 
L 146.938813 33.062775 
L 149.374018 30.609386 
L 151.809222 33.989008 
L 154.244426 33.863294 
L 156.679631 36.85095 
L 159.114835 33.415267 
L 161.55004 31.791949 
L 163.985244 30.712035 
L 166.420448 30.861617 
L 168.855653 31.063336 
L 171.290857 31.283373 
L 173.726062 31.559854 
L 176.161266 31.99034 
L 178.59647 31.146581 
L 181.031675 29.639096 
L 183.466879 33.020646 
L 185.902084 30.964407 
L 188.337288 30.258525 
L 190.772492 30.450314 
L 193.207697 28.241496 
L 195.642901 31.894485 
L 198.078106 31.063336 
L 200.51331 30.98358 
L 202.948514 29.842393 
L 205.383719 29.621986 
L 207.818923 29.308257 
L 210.254128 30.937507 
L 212.689332 31.267899 
L 215.124536 31.669768 
L 217.559741 29.74837 
L 219.994945 30.17915 
L 222.430149 29.756025 
L 224.865354 29.23334 
L 227.300558 30.636188 
L 229.735763 29.72612 
L 232.170967 29.459557 
L 234.606171 30.424826 
L 237.041376 28.184688 
L 239.47658 30.054743 
L 241.911785 27.569413 
L 244.346989 28.061077 
L 246.782193 29.890419 
L 249.217398 29.656689 
L 251.652602 29.03227 
L 254.087807 29.181495 
L 256.523011 28.087864 
L 258.958215 27.569413 
L 261.39342 27.956752 
L 263.828624 28.725131 
L 266.263829 26.340252 
L 268.699033 28.082416 
L 271.134237 27.377156 
L 273.569442 28.062719 
L 276.004646 29.699045 
L 278.439851 28.837432 
L 280.875055 28.241496 
L 283.310259 28.132718 
L 285.745464 27.569413 
L 288.180668 26.703168 
L 290.615872 28.153393 
L 293.051077 27.199827 
L 295.486281 25.562574 
L 297.921486 27.569413 
L 300.35669 27.046033 
L 302.791894 26.269159 
L 305.227099 26.919848 
L 307.662303 26.340252 
L 310.097508 27.012077 
L 312.532712 27.37377 
L 314.967916 26.738651 
L 317.403121 25.632486 
L 319.838325 25.251503 
L 322.27353 25.47695 
L 324.708734 25.71811 
L 327.143938 26.861058 
L 329.579143 27.869449 
L 332.014347 27.740072 
L 334.449552 26.165041 
L 336.884756 25.632486 
L 339.31996 25.47695 
L 341.755165 26.334243 
L 344.190369 25.47695 
L 346.625574 26.703168 
L 349.060778 27.199827 
L 351.495982 25.71811 
L 353.931187 25.47695 
L 356.366391 25.71811 
L 358.801595 25.632486 
L 361.2368 25.47695 
L 363.672004 25.251503 
L 366.107209 25.47695 
L 368.542413 25.47695 
L 370.977617 25.47695 
L 373.412822 25.47695 
L 375.848026 25.632486 
L 378.283231 25.47695 
L 380.718435 25.251503 
L 383.153639 24.784896 
L 385.588844 25.251503 
L 388.024048 25.251503 
L 390.459253 25.251503 
L 392.894457 25.251503 
L 395.329661 24.784896 
L 397.764866 25.251503 
L 400.20007 24.784896 
L 402.635275 25.251503 
L 405.070479 25.251503 
L 407.505683 24.784896 
L 409.940888 24.784896 
L 412.376092 24.784896 
L 414.811297 24.784896 
L 417.246501 24.784896 
L 419.681705 24.784896 
L 422.11691 24.784896 
L 424.552114 24.784896 
L 426.987318 24.784896 
L 429.422523 24.784896 
L 431.857727 24.784896 
L 431.857727 24.784896 
L 431.857727 24.784896 
L 429.422523 24.784896 
L 426.987318 24.784896 
L 424.552114 24.784896 
L 422.11691 24.784896 
L 419.681705 24.784896 
L 417.246501 24.784896 
L 414.811297 24.784896 
L 412.376092 24.784896 
L 409.940888 24.784896 
L 407.505683 24.784896 
L 405.070479 24.629361 
L 402.635275 24.629361 
L 400.20007 24.784896 
L 397.764866 24.629361 
L 395.329661 24.784896 
L 392.894457 24.629361 
L 390.459253 24.629361 
L 388.024048 24.629361 
L 385.588844 24.629361 
L 383.153639 24.784896 
L 380.718435 24.629361 
L 378.283231 24.714985 
L 375.848026 24.87052 
L 373.412822 24.714985 
L 370.977617 24.714985 
L 368.542413 24.714985 
L 366.107209 24.714985 
L 363.672004 24.629361 
L 361.2368 24.714985 
L 358.801595 24.87052 
L 356.366391 25.095968 
L 353.931187 24.714985 
L 351.495982 25.095968 
L 349.060778 24.754844 
L 346.625574 24.836742 
L 344.190369 24.714985 
L 341.755165 24.998286 
L 339.31996 24.714985 
L 336.884756 24.87052 
L 334.449552 24.545346 
L 332.014347 24.836742 
L 329.579143 25.018436 
L 327.143938 24.575162 
L 324.708734 25.095968 
L 322.27353 24.714985 
L 319.838325 24.629361 
L 317.403121 24.87052 
L 314.967916 25.112331 
L 312.532712 24.995663 
L 310.097508 24.527833 
L 307.662303 25.303348 
L 305.227099 24.308991 
L 302.791894 24.752299 
L 300.35669 25.3234 
L 297.921486 25.629543 
L 295.486281 25.562574 
L 293.051077 24.754844 
L 290.615872 24.423421 
L 288.180668 24.836742 
L 285.745464 25.629543 
L 283.310259 25.481 
L 280.875055 25.890673 
L 278.439851 26.331641 
L 276.004646 26.09217 
L 273.569442 25.032547 
L 271.134237 25.303348 
L 268.699033 24.183327 
L 266.263829 25.303348 
L 263.828624 25.407039 
L 261.39342 25.345895 
L 258.958215 25.629543 
L 256.523011 26.147995 
L 254.087807 25.780198 
L 251.652602 25.618352 
L 249.217398 24.786552 
L 246.782193 24.967583 
L 244.346989 25.34526 
L 241.911785 25.629543 
L 239.47658 27.291828 
L 237.041376 26.984385 
L 234.606171 28.995553 
L 232.170967 27.887014 
L 229.735763 27.516761 
L 227.300558 26.917764 
L 224.865354 25.832043 
L 222.430149 28.420068 
L 219.994945 27.893253 
L 217.559741 27.598201 
L 215.124536 27.854301 
L 212.689332 28.982002 
L 210.254128 26.201683 
L 207.818923 28.038314 
L 205.383719 25.961848 
L 202.948514 25.948823 
L 200.51331 27.814656 
L 198.078106 28.979185 
L 195.642901 29.910772 
L 193.207697 25.890673 
L 190.772492 28.555303 
L 188.337288 27.710188 
L 185.902084 28.24859 
L 183.466879 27.747707 
L 181.031675 28.122236 
L 178.59647 28.170107 
L 176.161266 29.400155 
L 173.726062 28.690047 
L 171.290857 28.551767 
L 168.855653 28.979185 
L 166.420448 27.625547 
L 163.985244 28.293581 
L 161.55004 29.080094 
L 159.114835 30.152726 
L 156.679631 29.309302 
L 154.244426 30.430532 
L 151.809222 31.03065 
L 149.374018 27.877779 
L 146.938813 28.742481 
L 144.503609 30.390949 
L 142.068405 30.144508 
L 139.6332 29.370011 
L 137.197996 28.970502 
L 134.762791 29.851068 
L 132.327587 30.887141 
L 129.892383 31.091943 
L 127.457178 30.700052 
L 125.021974 33.010291 
L 122.586769 28.666809 
L 120.151565 32.315167 
L 117.716361 31.674863 
L 115.281156 33.081935 
L 112.845952 31.384825 
L 110.410747 32.964881 
L 107.975543 30.971235 
L 105.540339 33.449872 
L 103.105134 33.291832 
L 100.66993 36.962043 
L 98.234725 38.609981 
L 95.799521 38.710856 
L 93.364317 39.043978 
L 90.929112 38.748723 
L 88.493908 41.098731 
L 86.058703 46.641965 
L 83.623499 48.781966 
L 81.188295 50.947298 
L 78.75309 60.891487 
L 76.317886 70.917315 
L 73.882682 79.909521 
L 71.447477 101.413642 
L 69.012273 138.201975 
z
" style="fill:#ff7f0e;fill-opacity:0.25;"/>
   </g>
   <g id="PolyCollection_3">
    <path clip-path="url(#p693e8513e4)" d="M 69.012273 142.889418 
L 69.012273 154.18929 
L 71.447477 110.963127 
L 73.882682 94.844641 
L 76.317886 77.25412 
L 78.75309 72.343548 
L 81.188295 62.877574 
L 83.623499 57.887129 
L 86.058703 54.474142 
L 88.493908 49.580184 
L 90.929112 50.327133 
L 93.364317 42.562605 
L 95.799521 42.634936 
L 98.234725 43.709623 
L 100.66993 43.099867 
L 103.105134 37.543275 
L 105.540339 35.936786 
L 107.975543 34.757001 
L 110.410747 38.641006 
L 112.845952 35.581029 
L 115.281156 40.090548 
L 117.716361 38.979343 
L 120.151565 35.570282 
L 122.586769 35.510172 
L 125.021974 36.375973 
L 127.457178 34.502252 
L 129.892383 33.53037 
L 132.327587 35.180594 
L 134.762791 36.021542 
L 137.197996 32.250603 
L 139.6332 34.150711 
L 142.068405 33.982257 
L 144.503609 35.510172 
L 146.938813 33.007708 
L 149.374018 31.291097 
L 151.809222 35.521703 
L 154.244426 32.521703 
L 156.679631 30.533703 
L 159.114835 31.968405 
L 161.55004 31.369235 
L 163.985244 31.366641 
L 166.420448 30.2771 
L 168.855653 32.722754 
L 171.290857 30.867571 
L 173.726062 34.110664 
L 176.161266 30.960628 
L 178.59647 33.736263 
L 181.031675 31.52333 
L 183.466879 33.012415 
L 185.902084 31.717505 
L 188.337288 30.598584 
L 190.772492 30.246469 
L 193.207697 29.088047 
L 195.642901 31.521385 
L 198.078106 30.405772 
L 200.51331 31.31739 
L 202.948514 30.225758 
L 205.383719 29.818733 
L 207.818923 30.330891 
L 210.254128 30.585909 
L 212.689332 30.269638 
L 215.124536 29.520798 
L 217.559741 28.567433 
L 219.994945 31.864664 
L 222.430149 30.7355 
L 224.865354 29.198442 
L 227.300558 30.213995 
L 229.735763 29.403431 
L 232.170967 29.171686 
L 234.606171 30.582896 
L 237.041376 30.346988 
L 239.47658 29.149121 
L 241.911785 28.567433 
L 244.346989 28.739316 
L 246.782193 28.567433 
L 249.217398 28.743416 
L 251.652602 28.909672 
L 254.087807 29.112628 
L 256.523011 27.678448 
L 258.958215 27.956752 
L 261.39342 28.30556 
L 263.828624 28.087864 
L 266.263829 27.199827 
L 268.699033 27.850467 
L 271.134237 26.975223 
L 273.569442 28.567433 
L 276.004646 29.621986 
L 278.439851 27.37377 
L 280.875055 28.061077 
L 283.310259 27.045135 
L 285.745464 30.405772 
L 288.180668 27.781442 
L 290.615872 26.715997 
L 293.051077 26.738651 
L 295.486281 27.569413 
L 297.921486 28.09734 
L 300.35669 26.165041 
L 302.791894 26.340252 
L 305.227099 29.264936 
L 307.662303 27.610171 
L 310.097508 26.738651 
L 312.532712 26.703168 
L 314.967916 26.334243 
L 317.403121 27.046033 
L 319.838325 26.703168 
L 322.27353 26.165041 
L 324.708734 26.165041 
L 327.143938 25.47695 
L 329.579143 25.47695 
L 332.014347 26.919848 
L 334.449552 27.334609 
L 336.884756 27.37377 
L 339.31996 25.47695 
L 341.755165 25.47695 
L 344.190369 25.632486 
L 346.625574 27.046033 
L 349.060778 27.691679 
L 351.495982 26.269159 
L 353.931187 26.806859 
L 356.366391 24.784896 
L 358.801595 26.165041 
L 361.2368 25.251503 
L 363.672004 25.47695 
L 366.107209 26.165041 
L 368.542413 26.269159 
L 370.977617 25.251503 
L 373.412822 27.334609 
L 375.848026 25.251503 
L 378.283231 26.165041 
L 380.718435 25.251503 
L 383.153639 26.029181 
L 385.588844 26.165041 
L 388.024048 26.165041 
L 390.459253 26.165041 
L 392.894457 26.029181 
L 395.329661 26.029181 
L 397.764866 25.251503 
L 400.20007 25.251503 
L 402.635275 25.251503 
L 405.070479 25.251503 
L 407.505683 24.784896 
L 409.940888 24.784896 
L 412.376092 25.251503 
L 414.811297 24.784896 
L 417.246501 24.784896 
L 419.681705 24.784896 
L 422.11691 25.251503 
L 424.552114 25.251503 
L 426.987318 24.784896 
L 429.422523 24.784896 
L 431.857727 24.784896 
L 431.857727 24.784896 
L 431.857727 24.784896 
L 429.422523 24.784896 
L 426.987318 24.784896 
L 424.552114 24.629361 
L 422.11691 24.629361 
L 419.681705 24.784896 
L 417.246501 24.784896 
L 414.811297 24.784896 
L 412.376092 24.629361 
L 409.940888 24.784896 
L 407.505683 24.784896 
L 405.070479 24.629361 
L 402.635275 24.629361 
L 400.20007 24.629361 
L 397.764866 24.629361 
L 395.329661 24.370135 
L 392.894457 24.370135 
L 390.459253 24.545346 
L 388.024048 24.545346 
L 385.588844 24.545346 
L 383.153639 24.370135 
L 380.718435 24.629361 
L 378.283231 24.545346 
L 375.848026 24.629361 
L 373.412822 24.723753 
L 370.977617 24.629361 
L 368.542413 24.752299 
L 366.107209 24.545346 
L 363.672004 24.714985 
L 361.2368 24.629361 
L 358.801595 24.545346 
L 356.366391 24.784896 
L 353.931187 24.110909 
L 351.495982 24.752299 
L 349.060778 24.574063 
L 346.625574 25.3234 
L 344.190369 24.87052 
L 341.755165 24.714985 
L 339.31996 24.714985 
L 336.884756 24.995663 
L 334.449552 24.723753 
L 332.014347 24.308991 
L 329.579143 24.714985 
L 327.143938 24.714985 
L 324.708734 24.545346 
L 322.27353 24.545346 
L 319.838325 24.836742 
L 317.403121 25.3234 
L 314.967916 24.998286 
L 312.532712 24.836742 
L 310.097508 25.112331 
L 307.662303 25.277714 
L 305.227099 25.593066 
L 302.791894 25.303348 
L 300.35669 24.545346 
L 297.921486 25.723759 
L 295.486281 25.629543 
L 293.051077 25.112331 
L 290.615872 25.446055 
L 288.180668 26.765488 
L 285.745464 27.770322 
L 283.310259 25.013227 
L 280.875055 25.34526 
L 278.439851 24.995663 
L 276.004646 25.961848 
L 273.569442 26.083188 
L 271.134237 25.705281 
L 268.699033 25.037418 
L 266.263829 24.754844 
L 263.828624 26.147995 
L 261.39342 25.515538 
L 258.958215 25.345895 
L 256.523011 26.03896 
L 254.087807 24.60478 
L 251.652602 25.637259 
L 249.217398 27.25518 
L 246.782193 26.083188 
L 244.346989 27.777731 
L 241.911785 26.083188 
L 239.47658 26.227333 
L 237.041376 26.481131 
L 234.606171 26.867365 
L 232.170967 27.449052 
L 229.735763 26.906236 
L 227.300558 26.925195 
L 224.865354 26.385393 
L 222.430149 28.892259 
L 219.994945 28.385238 
L 217.559741 26.083188 
L 215.124536 27.411011 
L 212.689332 27.802766 
L 210.254128 28.212327 
L 207.818923 26.600919 
L 205.383719 26.490934 
L 202.948514 27.431884 
L 200.51331 25.71811 
L 198.078106 27.770322 
L 195.642901 29.143278 
L 193.207697 26.806859 
L 190.772492 27.514863 
L 188.337288 29.443937 
L 185.902084 28.428706 
L 183.466879 28.792841 
L 181.031675 27.793358 
L 178.59647 28.483755 
L 176.161266 28.770821 
L 173.726062 28.627806 
L 171.290857 28.449117 
L 168.855653 29.808335 
L 166.420448 27.898994 
L 163.985244 27.224214 
L 161.55004 27.843762 
L 159.114835 26.726141 
L 156.679631 29.197746 
L 154.244426 28.661412 
L 151.809222 32.193905 
L 149.374018 29.477256 
L 146.938813 29.108619 
L 144.503609 31.894365 
L 142.068405 29.689426 
L 139.6332 30.765256 
L 137.197996 30.591557 
L 134.762791 30.760852 
L 132.327587 28.802161 
L 129.892383 31.90405 
L 127.457178 31.346929 
L 125.021974 32.169158 
L 122.586769 31.894365 
L 120.151565 30.48628 
L 117.716361 33.920783 
L 115.281156 33.431721 
L 112.845952 33.171483 
L 110.410747 33.429598 
L 107.975543 32.025394 
L 105.540339 33.334178 
L 103.105134 34.527329 
L 100.66993 35.192159 
L 98.234725 39.352159 
L 95.799521 37.523516 
L 93.364317 37.906919 
L 90.929112 42.792616 
L 88.493908 41.880519 
L 86.058703 47.044526 
L 83.623499 51.304627 
L 81.188295 55.542625 
L 78.75309 62.459729 
L 76.317886 72.999023 
L 73.882682 87.034065 
L 71.447477 96.734481 
L 69.012273 142.889418 
z
" style="fill:#2ca02c;fill-opacity:0.25;"/>
   </g>
   <g id="PolyCollection_4">
    <path clip-path="url(#p693e8513e4)" d="M 69.012273 147.279719 
L 69.012273 238.350565 
L 71.447477 133.330442 
L 73.882682 104.595172 
L 76.317886 95.509277 
L 78.75309 75.303549 
L 81.188295 71.113322 
L 83.623499 70.279327 
L 86.058703 62.105498 
L 88.493908 52.938387 
L 90.929112 50.871389 
L 93.364317 46.08379 
L 95.799521 47.069661 
L 98.234725 49.228769 
L 100.66993 45.395668 
L 103.105134 41.253978 
L 105.540339 40.709733 
L 107.975543 38.787805 
L 110.410747 37.438574 
L 112.845952 37.771973 
L 115.281156 38.450716 
L 117.716361 35.659342 
L 120.151565 35.017925 
L 122.586769 35.281364 
L 125.021974 40.317778 
L 127.457178 36.144621 
L 129.892383 37.742488 
L 132.327587 37.071279 
L 134.762791 34.060604 
L 137.197996 35.209099 
L 139.6332 34.302312 
L 142.068405 32.944645 
L 144.503609 37.990251 
L 146.938813 33.206543 
L 149.374018 32.787879 
L 151.809222 35.483443 
L 154.244426 33.350428 
L 156.679631 33.231954 
L 159.114835 31.963659 
L 161.55004 31.979136 
L 163.985244 32.222558 
L 166.420448 34.394393 
L 168.855653 32.204847 
L 171.290857 31.157046 
L 173.726062 31.180216 
L 176.161266 32.848786 
L 178.59647 29.963406 
L 181.031675 31.827991 
L 183.466879 31.703507 
L 185.902084 32.339551 
L 188.337288 30.850783 
L 190.772492 29.250381 
L 193.207697 29.185244 
L 195.642901 32.289419 
L 198.078106 30.27601 
L 200.51331 33.432267 
L 202.948514 31.468993 
L 205.383719 29.327183 
L 207.818923 28.766127 
L 210.254128 29.137009 
L 212.689332 30.032983 
L 215.124536 32.60762 
L 217.559741 31.140976 
L 219.994945 29.72612 
L 222.430149 28.743416 
L 224.865354 29.721765 
L 227.300558 28.668699 
L 229.735763 31.490915 
L 232.170967 28.843486 
L 234.606171 30.095832 
L 237.041376 30.246469 
L 239.47658 27.636382 
L 241.911785 29.8172 
L 244.346989 28.573771 
L 246.782193 30.663823 
L 249.217398 28.271353 
L 251.652602 27.377156 
L 254.087807 28.411176 
L 256.523011 27.569413 
L 258.958215 27.94226 
L 261.39342 28.60049 
L 263.828624 28.061077 
L 266.263829 28.567433 
L 268.699033 27.334609 
L 271.134237 29.088047 
L 273.569442 26.715997 
L 276.004646 28.837432 
L 278.439851 29.648479 
L 280.875055 28.327949 
L 283.310259 27.11793 
L 285.745464 28.383567 
L 288.180668 26.975223 
L 290.615872 25.632486 
L 293.051077 25.47695 
L 295.486281 27.956752 
L 297.921486 28.539345 
L 300.35669 26.703168 
L 302.791894 27.046033 
L 305.227099 28.575684 
L 307.662303 26.334243 
L 310.097508 27.37377 
L 312.532712 28.132718 
L 314.967916 27.11793 
L 317.403121 26.269159 
L 319.838325 26.165041 
L 322.27353 26.334243 
L 324.708734 26.269159 
L 327.143938 25.47695 
L 329.579143 26.340252 
L 332.014347 26.715997 
L 334.449552 25.251503 
L 336.884756 26.340252 
L 339.31996 25.251503 
L 341.755165 24.784896 
L 344.190369 26.269159 
L 346.625574 26.703168 
L 349.060778 25.632486 
L 351.495982 26.269159 
L 353.931187 25.47695 
L 356.366391 25.632486 
L 358.801595 26.269159 
L 361.2368 25.251503 
L 363.672004 26.334243 
L 366.107209 25.251503 
L 368.542413 26.029181 
L 370.977617 26.165041 
L 373.412822 26.165041 
L 375.848026 25.47695 
L 378.283231 25.632486 
L 380.718435 25.251503 
L 383.153639 25.47695 
L 385.588844 25.251503 
L 388.024048 24.784896 
L 390.459253 25.251503 
L 392.894457 25.251503 
L 395.329661 24.784896 
L 397.764866 24.784896 
L 400.20007 24.784896 
L 402.635275 24.784896 
L 405.070479 24.784896 
L 407.505683 24.784896 
L 409.940888 24.784896 
L 412.376092 24.784896 
L 414.811297 24.784896 
L 417.246501 24.784896 
L 419.681705 24.784896 
L 422.11691 24.784896 
L 424.552114 24.784896 
L 426.987318 24.784896 
L 429.422523 24.784896 
L 431.857727 24.784896 
L 431.857727 24.784896 
L 431.857727 24.784896 
L 429.422523 24.784896 
L 426.987318 24.784896 
L 424.552114 24.784896 
L 422.11691 24.784896 
L 419.681705 24.784896 
L 417.246501 24.784896 
L 414.811297 24.784896 
L 412.376092 24.784896 
L 409.940888 24.784896 
L 407.505683 24.784896 
L 405.070479 24.784896 
L 402.635275 24.784896 
L 400.20007 24.784896 
L 397.764866 24.784896 
L 395.329661 24.784896 
L 392.894457 24.629361 
L 390.459253 24.629361 
L 388.024048 24.784896 
L 385.588844 24.629361 
L 383.153639 24.714985 
L 380.718435 24.629361 
L 378.283231 24.87052 
L 375.848026 24.714985 
L 373.412822 24.545346 
L 370.977617 24.545346 
L 368.542413 24.370135 
L 366.107209 24.629361 
L 363.672004 24.998286 
L 361.2368 24.629361 
L 358.801595 24.752299 
L 356.366391 24.87052 
L 353.931187 24.714985 
L 351.495982 24.752299 
L 349.060778 24.87052 
L 346.625574 24.836742 
L 344.190369 24.752299 
L 341.755165 24.784896 
L 339.31996 24.629361 
L 336.884756 25.303348 
L 334.449552 24.629361 
L 332.014347 25.446055 
L 329.579143 25.303348 
L 327.143938 24.714985 
L 324.708734 24.752299 
L 322.27353 24.998286 
L 319.838325 24.545346 
L 317.403121 24.752299 
L 314.967916 26.081026 
L 312.532712 25.481 
L 310.097508 24.995663 
L 307.662303 24.998286 
L 305.227099 25.038034 
L 302.791894 25.3234 
L 300.35669 24.836742 
L 297.921486 25.903895 
L 295.486281 25.345895 
L 293.051077 24.714985 
L 290.615872 24.87052 
L 288.180668 25.705281 
L 285.745464 24.711698 
L 283.310259 25.044122 
L 280.875055 26.322672 
L 278.439851 26.661188 
L 276.004646 26.331641 
L 273.569442 25.446055 
L 271.134237 26.806859 
L 268.699033 24.723753 
L 266.263829 26.083188 
L 263.828624 25.34526 
L 261.39342 26.568583 
L 258.958215 24.841935 
L 256.523011 25.629543 
L 254.087807 25.617303 
L 251.652602 25.303348 
L 249.217398 27.00141 
L 246.782193 27.615961 
L 244.346989 25.351018 
L 241.911785 25.766634 
L 239.47658 26.599478 
L 237.041376 27.514863 
L 234.606171 26.524906 
L 232.170967 27.362491 
L 229.735763 29.381128 
L 227.300558 26.915136 
L 224.865354 26.691592 
L 222.430149 27.25518 
L 219.994945 27.516761 
L 217.559741 28.072021 
L 215.124536 28.057042 
L 212.689332 27.728349 
L 210.254128 26.343135 
L 207.818923 26.299255 
L 205.383719 26.671413 
L 202.948514 28.055075 
L 200.51331 29.202513 
L 198.078106 27.277941 
L 195.642901 29.826909 
L 193.207697 25.880139 
L 190.772492 27.266667 
L 188.337288 27.325311 
L 185.902084 29.984158 
L 183.466879 27.509491 
L 181.031675 27.385007 
L 178.59647 28.627449 
L 176.161266 27.712186 
L 173.726062 28.965995 
L 171.290857 28.367023 
L 168.855653 28.667196 
L 166.420448 27.410864 
L 163.985244 29.375318 
L 161.55004 28.478146 
L 159.114835 28.597313 
L 156.679631 30.336039 
L 154.244426 29.699113 
L 151.809222 31.091571 
L 149.374018 28.913687 
L 146.938813 29.635618 
L 144.503609 33.043449 
L 142.068405 29.171683 
L 139.6332 28.85092 
L 137.197996 31.158534 
L 134.762791 30.544293 
L 132.327587 31.266471 
L 129.892383 30.491572 
L 127.457178 31.363606 
L 125.021974 30.19747 
L 122.586769 30.049365 
L 120.151565 31.557089 
L 117.716361 33.611621 
L 115.281156 33.930958 
L 112.845952 33.054346 
L 110.410747 34.320958 
L 107.975543 34.216012 
L 105.540339 33.95313 
L 103.105134 36.104835 
L 100.66993 38.703019 
L 98.234725 43.89098 
L 95.799521 43.97628 
L 93.364317 39.570252 
L 90.929112 44.114786 
L 88.493908 42.56624 
L 86.058703 49.574827 
L 83.623499 53.532771 
L 81.188295 57.675914 
L 78.75309 58.359134 
L 76.317886 82.325504 
L 73.882682 94.496135 
L 71.447477 103.193089 
L 69.012273 147.279719 
z
" style="fill:#d62728;fill-opacity:0.25;"/>
   </g>
   <g id="PolyCollection_5">
    <path clip-path="url(#p693e8513e4)" d="M 69.012273 174.2995 
L 69.012273 199.19901 
L 71.447477 122.621367 
L 73.882682 102.760563 
L 76.317886 88.818581 
L 78.75309 76.371556 
L 81.188295 71.902665 
L 83.623499 61.211978 
L 86.058703 61.856023 
L 88.493908 53.134557 
L 90.929112 55.03126 
L 93.364317 46.911296 
L 95.799521 46.832035 
L 98.234725 49.527982 
L 100.66993 43.684808 
L 103.105134 42.625269 
L 105.540339 40.469656 
L 107.975543 43.350184 
L 110.410747 40.764458 
L 112.845952 38.541383 
L 115.281156 37.495589 
L 117.716361 36.583353 
L 120.151565 38.206454 
L 122.586769 38.033865 
L 125.021974 36.467601 
L 127.457178 35.605894 
L 129.892383 32.827605 
L 132.327587 38.577912 
L 134.762791 33.190865 
L 137.197996 35.211461 
L 139.6332 39.072271 
L 142.068405 36.760709 
L 144.503609 37.940942 
L 146.938813 36.487211 
L 149.374018 31.149262 
L 151.809222 37.588101 
L 154.244426 33.186323 
L 156.679631 35.301182 
L 159.114835 31.57062 
L 161.55004 34.060604 
L 163.985244 32.641841 
L 166.420448 30.017874 
L 168.855653 33.978282 
L 171.290857 33.589913 
L 173.726062 31.49494 
L 176.161266 32.347948 
L 178.59647 32.558791 
L 181.031675 31.117057 
L 183.466879 30.2771 
L 185.902084 33.783328 
L 188.337288 30.924217 
L 190.772492 31.535716 
L 193.207697 28.916602 
L 195.642901 30.598584 
L 198.078106 33.21062 
L 200.51331 31.891572 
L 202.948514 30.179843 
L 205.383719 29.93556 
L 207.818923 29.165482 
L 210.254128 29.198442 
L 212.689332 33.11259 
L 215.124536 33.475506 
L 217.559741 30.607045 
L 219.994945 30.39651 
L 222.430149 31.027398 
L 224.865354 27.37377 
L 227.300558 30.332331 
L 229.735763 30.777988 
L 232.170967 29.302454 
L 234.606171 29.142246 
L 237.041376 31.013023 
L 239.47658 30.1656 
L 241.911785 29.142246 
L 244.346989 29.448801 
L 246.782193 28.241496 
L 249.217398 29.639096 
L 251.652602 26.975223 
L 254.087807 27.678448 
L 256.523011 28.017997 
L 258.958215 27.569413 
L 261.39342 28.499114 
L 263.828624 28.411701 
L 266.263829 27.785728 
L 268.699033 27.610171 
L 271.134237 28.916602 
L 273.569442 27.678448 
L 276.004646 28.732722 
L 278.439851 26.715997 
L 280.875055 26.334243 
L 283.310259 25.71811 
L 285.745464 27.75686 
L 288.180668 26.975223 
L 290.615872 27.37377 
L 293.051077 26.165041 
L 295.486281 26.334243 
L 297.921486 28.970888 
L 300.35669 28.131994 
L 302.791894 26.269159 
L 305.227099 25.632486 
L 307.662303 26.738651 
L 310.097508 27.37377 
L 312.532712 26.919848 
L 314.967916 25.47695 
L 317.403121 25.71811 
L 319.838325 27.268657 
L 322.27353 25.251503 
L 324.708734 25.47695 
L 327.143938 26.165041 
L 329.579143 25.47695 
L 332.014347 25.632486 
L 334.449552 26.919848 
L 336.884756 26.334243 
L 339.31996 26.165041 
L 341.755165 26.703168 
L 344.190369 25.251503 
L 346.625574 25.71811 
L 349.060778 25.71811 
L 351.495982 26.738651 
L 353.931187 26.767348 
L 356.366391 25.47695 
L 358.801595 26.703168 
L 361.2368 26.165041 
L 363.672004 26.165041 
L 366.107209 26.269159 
L 368.542413 25.632486 
L 370.977617 26.029181 
L 373.412822 26.738651 
L 375.848026 25.71811 
L 378.283231 26.269159 
L 380.718435 25.47695 
L 383.153639 25.562574 
L 385.588844 25.47695 
L 388.024048 25.251503 
L 390.459253 25.251503 
L 392.894457 25.251503 
L 395.329661 26.029181 
L 397.764866 25.47695 
L 400.20007 25.47695 
L 402.635275 25.47695 
L 405.070479 25.251503 
L 407.505683 25.632486 
L 409.940888 25.47695 
L 412.376092 25.47695 
L 414.811297 25.47695 
L 417.246501 25.47695 
L 419.681705 25.47695 
L 422.11691 25.47695 
L 424.552114 25.47695 
L 426.987318 25.47695 
L 429.422523 25.47695 
L 431.857727 25.47695 
L 431.857727 24.714985 
L 431.857727 24.714985 
L 429.422523 24.714985 
L 426.987318 24.714985 
L 424.552114 24.714985 
L 422.11691 24.714985 
L 419.681705 24.714985 
L 417.246501 24.714985 
L 414.811297 24.714985 
L 412.376092 24.714985 
L 409.940888 24.714985 
L 407.505683 24.87052 
L 405.070479 24.629361 
L 402.635275 24.714985 
L 400.20007 24.714985 
L 397.764866 24.714985 
L 395.329661 24.370135 
L 392.894457 24.629361 
L 390.459253 24.629361 
L 388.024048 24.629361 
L 385.588844 24.714985 
L 383.153639 25.562574 
L 380.718435 24.714985 
L 378.283231 24.752299 
L 375.848026 25.095968 
L 373.412822 25.112331 
L 370.977617 24.370135 
L 368.542413 24.87052 
L 366.107209 24.752299 
L 363.672004 24.545346 
L 361.2368 24.545346 
L 358.801595 24.836742 
L 356.366391 24.714985 
L 353.931187 24.357801 
L 351.495982 25.112331 
L 349.060778 25.095968 
L 346.625574 25.095968 
L 344.190369 24.629361 
L 341.755165 24.836742 
L 339.31996 24.545346 
L 336.884756 24.998286 
L 334.449552 24.308991 
L 332.014347 24.87052 
L 329.579143 24.714985 
L 327.143938 24.545346 
L 324.708734 24.714985 
L 322.27353 24.629361 
L 319.838325 24.478634 
L 317.403121 25.095968 
L 314.967916 24.714985 
L 312.532712 24.308991 
L 310.097508 24.995663 
L 307.662303 25.112331 
L 305.227099 24.87052 
L 302.791894 24.752299 
L 300.35669 24.859581 
L 297.921486 25.990804 
L 295.486281 24.998286 
L 293.051077 24.545346 
L 290.615872 24.995663 
L 288.180668 25.705281 
L 285.745464 25.338406 
L 283.310259 25.095968 
L 280.875055 24.998286 
L 278.439851 25.446055 
L 276.004646 26.954803 
L 273.569442 26.03896 
L 271.134237 25.215567 
L 268.699033 25.277714 
L 266.263829 25.620609 
L 263.828624 24.994635 
L 261.39342 25.633055 
L 258.958215 25.629543 
L 256.523011 25.69941 
L 254.087807 26.03896 
L 251.652602 25.705281 
L 249.217398 28.122236 
L 246.782193 25.890673 
L 244.346989 26.964556 
L 241.911785 26.85635 
L 239.47658 28.736327 
L 237.041376 28.199974 
L 234.606171 26.85635 
L 232.170967 28.147807 
L 229.735763 28.74608 
L 227.300558 28.880666 
L 224.865354 24.995663 
L 222.430149 27.563457 
L 219.994945 27.986964 
L 217.559741 26.946907 
L 215.124536 28.640821 
L 212.689332 28.277905 
L 210.254128 26.385393 
L 207.818923 27.144185 
L 205.383719 27.825773 
L 202.948514 26.648276 
L 200.51331 27.736187 
L 198.078106 27.868804 
L 195.642901 29.443937 
L 193.207697 25.215567 
L 190.772492 26.121926 
L 188.337288 29.533065 
L 185.902084 30.717879 
L 183.466879 27.898994 
L 181.031675 28.821773 
L 178.59647 29.764918 
L 176.161266 27.694572 
L 173.726062 27.199605 
L 171.290857 30.496532 
L 168.855653 31.559828 
L 166.420448 27.639768 
L 163.985244 28.437583 
L 161.55004 30.544293 
L 159.114835 28.886662 
L 156.679631 30.444309 
L 154.244426 29.966908 
L 151.809222 30.231198 
L 149.374018 27.960045 
L 146.938813 31.746849 
L 144.503609 30.293118 
L 142.068405 30.436447 
L 139.6332 29.887621 
L 137.197996 30.948791 
L 134.762791 30.89558 
L 132.327587 32.455788 
L 129.892383 30.014556 
L 127.457178 32.317094 
L 125.021974 30.625865 
L 122.586769 34.036739 
L 120.151565 33.553078 
L 117.716361 32.376539 
L 115.281156 33.43442 
L 112.845952 32.077555 
L 110.410747 35.972212 
L 107.975543 34.216009 
L 105.540339 37.511299 
L 103.105134 37.844254 
L 100.66993 39.376975 
L 98.234725 43.695457 
L 95.799521 40.584744 
L 93.364317 40.609173 
L 90.929112 46.79848 
L 88.493908 44.236497 
L 86.058703 50.031683 
L 83.623499 51.194179 
L 81.188295 67.67037 
L 78.75309 64.860524 
L 76.317886 81.654184 
L 73.882682 92.183129 
L 71.447477 113.280022 
L 69.012273 174.2995 
z
" style="fill:#9467bd;fill-opacity:0.25;"/>
   </g>
   <g id="matplotlib.axis_1">
    <g id="xtick_1">
     <g id="line2d_1">
      <defs>
       <path d="M 0 0 
L 0 3.5 
" id="m332c7460c2" style="stroke:#000000;stroke-width:0.8;"/>
      </defs>
      <g>
       <use style="stroke:#000000;stroke-width:0.8;" x="69.012273" xlink:href="#m332c7460c2" y="303.64"/>
      </g>
     </g>
     <g id="text_1">
      <!-- 0 -->
      <g transform="translate(65.831023 318.238437)scale(0.1 -0.1)">
       <defs>
        <path d="M 31.78125 66.40625 
Q 24.171875 66.40625 20.328125 58.90625 
Q 16.5 51.421875 16.5 36.375 
Q 16.5 21.390625 20.328125 13.890625 
Q 24.171875 6.390625 31.78125 6.390625 
Q 39.453125 6.390625 43.28125 13.890625 
Q 47.125 21.390625 47.125 36.375 
Q 47.125 51.421875 43.28125 58.90625 
Q 39.453125 66.40625 31.78125 66.40625 
z
M 31.78125 74.21875 
Q 44.046875 74.21875 50.515625 64.515625 
Q 56.984375 54.828125 56.984375 36.375 
Q 56.984375 17.96875 50.515625 8.265625 
Q 44.046875 -1.421875 31.78125 -1.421875 
Q 19.53125 -1.421875 13.0625 8.265625 
Q 6.59375 17.96875 6.59375 36.375 
Q 6.59375 54.828125 13.0625 64.515625 
Q 19.53125 74.21875 31.78125 74.21875 
z
" id="DejaVuSans-48"/>
       </defs>
       <use xlink:href="#DejaVuSans-48"/>
      </g>
     </g>
    </g>
    <g id="xtick_2">
     <g id="line2d_2">
      <g>
       <use style="stroke:#000000;stroke-width:0.8;" x="117.716361" xlink:href="#m332c7460c2" y="303.64"/>
      </g>
     </g>
     <g id="text_2">
      <!-- 20 -->
      <g transform="translate(111.353861 318.238437)scale(0.1 -0.1)">
       <defs>
        <path d="M 19.1875 8.296875 
L 53.609375 8.296875 
L 53.609375 0 
L 7.328125 0 
L 7.328125 8.296875 
Q 12.9375 14.109375 22.625 23.890625 
Q 32.328125 33.6875 34.8125 36.53125 
Q 39.546875 41.84375 41.421875 45.53125 
Q 43.3125 49.21875 43.3125 52.78125 
Q 43.3125 58.59375 39.234375 62.25 
Q 35.15625 65.921875 28.609375 65.921875 
Q 23.96875 65.921875 18.8125 64.3125 
Q 13.671875 62.703125 7.8125 59.421875 
L 7.8125 69.390625 
Q 13.765625 71.78125 18.9375 73 
Q 24.125 74.21875 28.421875 74.21875 
Q 39.75 74.21875 46.484375 68.546875 
Q 53.21875 62.890625 53.21875 53.421875 
Q 53.21875 48.921875 51.53125 44.890625 
Q 49.859375 40.875 45.40625 35.40625 
Q 44.1875 33.984375 37.640625 27.21875 
Q 31.109375 20.453125 19.1875 8.296875 
z
" id="DejaVuSans-50"/>
       </defs>
       <use xlink:href="#DejaVuSans-50"/>
       <use x="63.623047" xlink:href="#DejaVuSans-48"/>
      </g>
     </g>
    </g>
    <g id="xtick_3">
     <g id="line2d_3">
      <g>
       <use style="stroke:#000000;stroke-width:0.8;" x="166.420448" xlink:href="#m332c7460c2" y="303.64"/>
      </g>
     </g>
     <g id="text_3">
      <!-- 40 -->
      <g transform="translate(160.057948 318.238437)scale(0.1 -0.1)">
       <defs>
        <path d="M 37.796875 64.3125 
L 12.890625 25.390625 
L 37.796875 25.390625 
z
M 35.203125 72.90625 
L 47.609375 72.90625 
L 47.609375 25.390625 
L 58.015625 25.390625 
L 58.015625 17.1875 
L 47.609375 17.1875 
L 47.609375 0 
L 37.796875 0 
L 37.796875 17.1875 
L 4.890625 17.1875 
L 4.890625 26.703125 
z
" id="DejaVuSans-52"/>
       </defs>
       <use xlink:href="#DejaVuSans-52"/>
       <use x="63.623047" xlink:href="#DejaVuSans-48"/>
      </g>
     </g>
    </g>
    <g id="xtick_4">
     <g id="line2d_4">
      <g>
       <use style="stroke:#000000;stroke-width:0.8;" x="215.124536" xlink:href="#m332c7460c2" y="303.64"/>
      </g>
     </g>
     <g id="text_4">
      <!-- 60 -->
      <g transform="translate(208.762036 318.238437)scale(0.1 -0.1)">
       <defs>
        <path d="M 33.015625 40.375 
Q 26.375 40.375 22.484375 35.828125 
Q 18.609375 31.296875 18.609375 23.390625 
Q 18.609375 15.53125 22.484375 10.953125 
Q 26.375 6.390625 33.015625 6.390625 
Q 39.65625 6.390625 43.53125 10.953125 
Q 47.40625 15.53125 47.40625 23.390625 
Q 47.40625 31.296875 43.53125 35.828125 
Q 39.65625 40.375 33.015625 40.375 
z
M 52.59375 71.296875 
L 52.59375 62.3125 
Q 48.875 64.0625 45.09375 64.984375 
Q 41.3125 65.921875 37.59375 65.921875 
Q 27.828125 65.921875 22.671875 59.328125 
Q 17.53125 52.734375 16.796875 39.40625 
Q 19.671875 43.65625 24.015625 45.921875 
Q 28.375 48.1875 33.59375 48.1875 
Q 44.578125 48.1875 50.953125 41.515625 
Q 57.328125 34.859375 57.328125 23.390625 
Q 57.328125 12.15625 50.6875 5.359375 
Q 44.046875 -1.421875 33.015625 -1.421875 
Q 20.359375 -1.421875 13.671875 8.265625 
Q 6.984375 17.96875 6.984375 36.375 
Q 6.984375 53.65625 15.1875 63.9375 
Q 23.390625 74.21875 37.203125 74.21875 
Q 40.921875 74.21875 44.703125 73.484375 
Q 48.484375 72.75 52.59375 71.296875 
z
" id="DejaVuSans-54"/>
       </defs>
       <use xlink:href="#DejaVuSans-54"/>
       <use x="63.623047" xlink:href="#DejaVuSans-48"/>
      </g>
     </g>
    </g>
    <g id="xtick_5">
     <g id="line2d_5">
      <g>
       <use style="stroke:#000000;stroke-width:0.8;" x="263.828624" xlink:href="#m332c7460c2" y="303.64"/>
      </g>
     </g>
     <g id="text_5">
      <!-- 80 -->
      <g transform="translate(257.466124 318.238437)scale(0.1 -0.1)">
       <defs>
        <path d="M 31.78125 34.625 
Q 24.75 34.625 20.71875 30.859375 
Q 16.703125 27.09375 16.703125 20.515625 
Q 16.703125 13.921875 20.71875 10.15625 
Q 24.75 6.390625 31.78125 6.390625 
Q 38.8125 6.390625 42.859375 10.171875 
Q 46.921875 13.96875 46.921875 20.515625 
Q 46.921875 27.09375 42.890625 30.859375 
Q 38.875 34.625 31.78125 34.625 
z
M 21.921875 38.8125 
Q 15.578125 40.375 12.03125 44.71875 
Q 8.5 49.078125 8.5 55.328125 
Q 8.5 64.0625 14.71875 69.140625 
Q 20.953125 74.21875 31.78125 74.21875 
Q 42.671875 74.21875 48.875 69.140625 
Q 55.078125 64.0625 55.078125 55.328125 
Q 55.078125 49.078125 51.53125 44.71875 
Q 48 40.375 41.703125 38.8125 
Q 48.828125 37.15625 52.796875 32.3125 
Q 56.78125 27.484375 56.78125 20.515625 
Q 56.78125 9.90625 50.3125 4.234375 
Q 43.84375 -1.421875 31.78125 -1.421875 
Q 19.734375 -1.421875 13.25 4.234375 
Q 6.78125 9.90625 6.78125 20.515625 
Q 6.78125 27.484375 10.78125 32.3125 
Q 14.796875 37.15625 21.921875 38.8125 
z
M 18.3125 54.390625 
Q 18.3125 48.734375 21.84375 45.5625 
Q 25.390625 42.390625 31.78125 42.390625 
Q 38.140625 42.390625 41.71875 45.5625 
Q 45.3125 48.734375 45.3125 54.390625 
Q 45.3125 60.0625 41.71875 63.234375 
Q 38.140625 66.40625 31.78125 66.40625 
Q 25.390625 66.40625 21.84375 63.234375 
Q 18.3125 60.0625 18.3125 54.390625 
z
" id="DejaVuSans-56"/>
       </defs>
       <use xlink:href="#DejaVuSans-56"/>
       <use x="63.623047" xlink:href="#DejaVuSans-48"/>
      </g>
     </g>
    </g>
    <g id="xtick_6">
     <g id="line2d_6">
      <g>
       <use style="stroke:#000000;stroke-width:0.8;" x="312.532712" xlink:href="#m332c7460c2" y="303.64"/>
      </g>
     </g>
     <g id="text_6">
      <!-- 100 -->
      <g transform="translate(302.988962 318.238437)scale(0.1 -0.1)">
       <defs>
        <path d="M 12.40625 8.296875 
L 28.515625 8.296875 
L 28.515625 63.921875 
L 10.984375 60.40625 
L 10.984375 69.390625 
L 28.421875 72.90625 
L 38.28125 72.90625 
L 38.28125 8.296875 
L 54.390625 8.296875 
L 54.390625 0 
L 12.40625 0 
z
" id="DejaVuSans-49"/>
       </defs>
       <use xlink:href="#DejaVuSans-49"/>
       <use x="63.623047" xlink:href="#DejaVuSans-48"/>
       <use x="127.246094" xlink:href="#DejaVuSans-48"/>
      </g>
     </g>
    </g>
    <g id="xtick_7">
     <g id="line2d_7">
      <g>
       <use style="stroke:#000000;stroke-width:0.8;" x="361.2368" xlink:href="#m332c7460c2" y="303.64"/>
      </g>
     </g>
     <g id="text_7">
      <!-- 120 -->
      <g transform="translate(351.69305 318.238437)scale(0.1 -0.1)">
       <use xlink:href="#DejaVuSans-49"/>
       <use x="63.623047" xlink:href="#DejaVuSans-50"/>
       <use x="127.246094" xlink:href="#DejaVuSans-48"/>
      </g>
     </g>
    </g>
    <g id="xtick_8">
     <g id="line2d_8">
      <g>
       <use style="stroke:#000000;stroke-width:0.8;" x="409.940888" xlink:href="#m332c7460c2" y="303.64"/>
      </g>
     </g>
     <g id="text_8">
      <!-- 140 -->
      <g transform="translate(400.397138 318.238437)scale(0.1 -0.1)">
       <use xlink:href="#DejaVuSans-49"/>
       <use x="63.623047" xlink:href="#DejaVuSans-52"/>
       <use x="127.246094" xlink:href="#DejaVuSans-48"/>
      </g>
     </g>
    </g>
    <g id="text_9">
     <!-- Epochs -->
     <g transform="translate(232.519375 331.916562)scale(0.1 -0.1)">
      <defs>
       <path d="M 9.8125 72.90625 
L 55.90625 72.90625 
L 55.90625 64.59375 
L 19.671875 64.59375 
L 19.671875 43.015625 
L 54.390625 43.015625 
L 54.390625 34.71875 
L 19.671875 34.71875 
L 19.671875 8.296875 
L 56.78125 8.296875 
L 56.78125 0 
L 9.8125 0 
z
" id="DejaVuSans-69"/>
       <path d="M 18.109375 8.203125 
L 18.109375 -20.796875 
L 9.078125 -20.796875 
L 9.078125 54.6875 
L 18.109375 54.6875 
L 18.109375 46.390625 
Q 20.953125 51.265625 25.265625 53.625 
Q 29.59375 56 35.59375 56 
Q 45.5625 56 51.78125 48.09375 
Q 58.015625 40.1875 58.015625 27.296875 
Q 58.015625 14.40625 51.78125 6.484375 
Q 45.5625 -1.421875 35.59375 -1.421875 
Q 29.59375 -1.421875 25.265625 0.953125 
Q 20.953125 3.328125 18.109375 8.203125 
z
M 48.6875 27.296875 
Q 48.6875 37.203125 44.609375 42.84375 
Q 40.53125 48.484375 33.40625 48.484375 
Q 26.265625 48.484375 22.1875 42.84375 
Q 18.109375 37.203125 18.109375 27.296875 
Q 18.109375 17.390625 22.1875 11.75 
Q 26.265625 6.109375 33.40625 6.109375 
Q 40.53125 6.109375 44.609375 11.75 
Q 48.6875 17.390625 48.6875 27.296875 
z
" id="DejaVuSans-112"/>
       <path d="M 30.609375 48.390625 
Q 23.390625 48.390625 19.1875 42.75 
Q 14.984375 37.109375 14.984375 27.296875 
Q 14.984375 17.484375 19.15625 11.84375 
Q 23.34375 6.203125 30.609375 6.203125 
Q 37.796875 6.203125 41.984375 11.859375 
Q 46.1875 17.53125 46.1875 27.296875 
Q 46.1875 37.015625 41.984375 42.703125 
Q 37.796875 48.390625 30.609375 48.390625 
z
M 30.609375 56 
Q 42.328125 56 49.015625 48.375 
Q 55.71875 40.765625 55.71875 27.296875 
Q 55.71875 13.875 49.015625 6.21875 
Q 42.328125 -1.421875 30.609375 -1.421875 
Q 18.84375 -1.421875 12.171875 6.21875 
Q 5.515625 13.875 5.515625 27.296875 
Q 5.515625 40.765625 12.171875 48.375 
Q 18.84375 56 30.609375 56 
z
" id="DejaVuSans-111"/>
       <path d="M 48.78125 52.59375 
L 48.78125 44.1875 
Q 44.96875 46.296875 41.140625 47.34375 
Q 37.3125 48.390625 33.40625 48.390625 
Q 24.65625 48.390625 19.8125 42.84375 
Q 14.984375 37.3125 14.984375 27.296875 
Q 14.984375 17.28125 19.8125 11.734375 
Q 24.65625 6.203125 33.40625 6.203125 
Q 37.3125 6.203125 41.140625 7.25 
Q 44.96875 8.296875 48.78125 10.40625 
L 48.78125 2.09375 
Q 45.015625 0.34375 40.984375 -0.53125 
Q 36.96875 -1.421875 32.421875 -1.421875 
Q 20.0625 -1.421875 12.78125 6.34375 
Q 5.515625 14.109375 5.515625 27.296875 
Q 5.515625 40.671875 12.859375 48.328125 
Q 20.21875 56 33.015625 56 
Q 37.15625 56 41.109375 55.140625 
Q 45.0625 54.296875 48.78125 52.59375 
z
" id="DejaVuSans-99"/>
       <path d="M 54.890625 33.015625 
L 54.890625 0 
L 45.90625 0 
L 45.90625 32.71875 
Q 45.90625 40.484375 42.875 44.328125 
Q 39.84375 48.1875 33.796875 48.1875 
Q 26.515625 48.1875 22.3125 43.546875 
Q 18.109375 38.921875 18.109375 30.90625 
L 18.109375 0 
L 9.078125 0 
L 9.078125 75.984375 
L 18.109375 75.984375 
L 18.109375 46.1875 
Q 21.34375 51.125 25.703125 53.5625 
Q 30.078125 56 35.796875 56 
Q 45.21875 56 50.046875 50.171875 
Q 54.890625 44.34375 54.890625 33.015625 
z
" id="DejaVuSans-104"/>
       <path d="M 44.28125 53.078125 
L 44.28125 44.578125 
Q 40.484375 46.53125 36.375 47.5 
Q 32.28125 48.484375 27.875 48.484375 
Q 21.1875 48.484375 17.84375 46.4375 
Q 14.5 44.390625 14.5 40.28125 
Q 14.5 37.15625 16.890625 35.375 
Q 19.28125 33.59375 26.515625 31.984375 
L 29.59375 31.296875 
Q 39.15625 29.25 43.1875 25.515625 
Q 47.21875 21.78125 47.21875 15.09375 
Q 47.21875 7.46875 41.1875 3.015625 
Q 35.15625 -1.421875 24.609375 -1.421875 
Q 20.21875 -1.421875 15.453125 -0.5625 
Q 10.6875 0.296875 5.421875 2 
L 5.421875 11.28125 
Q 10.40625 8.6875 15.234375 7.390625 
Q 20.0625 6.109375 24.8125 6.109375 
Q 31.15625 6.109375 34.5625 8.28125 
Q 37.984375 10.453125 37.984375 14.40625 
Q 37.984375 18.0625 35.515625 20.015625 
Q 33.0625 21.96875 24.703125 23.78125 
L 21.578125 24.515625 
Q 13.234375 26.265625 9.515625 29.90625 
Q 5.8125 33.546875 5.8125 39.890625 
Q 5.8125 47.609375 11.28125 51.796875 
Q 16.75 56 26.8125 56 
Q 31.78125 56 36.171875 55.265625 
Q 40.578125 54.546875 44.28125 53.078125 
z
" id="DejaVuSans-115"/>
      </defs>
      <use xlink:href="#DejaVuSans-69"/>
      <use x="63.183594" xlink:href="#DejaVuSans-112"/>
      <use x="126.660156" xlink:href="#DejaVuSans-111"/>
      <use x="187.841797" xlink:href="#DejaVuSans-99"/>
      <use x="242.822266" xlink:href="#DejaVuSans-104"/>
      <use x="306.201172" xlink:href="#DejaVuSans-115"/>
     </g>
    </g>
   </g>
   <g id="matplotlib.axis_2">
    <g id="ytick_1">
     <g id="line2d_9">
      <defs>
       <path d="M 0 0 
L -3.5 0 
" id="m8a38d07ef1" style="stroke:#000000;stroke-width:0.8;"/>
      </defs>
      <g>
       <use style="stroke:#000000;stroke-width:0.8;" x="50.87" xlink:href="#m8a38d07ef1" y="290.232245"/>
      </g>
     </g>
     <g id="text_10">
      <!-- 50 -->
      <g transform="translate(31.145 294.031464)scale(0.1 -0.1)">
       <defs>
        <path d="M 10.796875 72.90625 
L 49.515625 72.90625 
L 49.515625 64.59375 
L 19.828125 64.59375 
L 19.828125 46.734375 
Q 21.96875 47.46875 24.109375 47.828125 
Q 26.265625 48.1875 28.421875 48.1875 
Q 40.625 48.1875 47.75 41.5 
Q 54.890625 34.8125 54.890625 23.390625 
Q 54.890625 11.625 47.5625 5.09375 
Q 40.234375 -1.421875 26.90625 -1.421875 
Q 22.3125 -1.421875 17.546875 -0.640625 
Q 12.796875 0.140625 7.71875 1.703125 
L 7.71875 11.625 
Q 12.109375 9.234375 16.796875 8.0625 
Q 21.484375 6.890625 26.703125 6.890625 
Q 35.15625 6.890625 40.078125 11.328125 
Q 45.015625 15.765625 45.015625 23.390625 
Q 45.015625 31 40.078125 35.4375 
Q 35.15625 39.890625 26.703125 39.890625 
Q 22.75 39.890625 18.8125 39.015625 
Q 14.890625 38.140625 10.796875 36.28125 
z
" id="DejaVuSans-53"/>
       </defs>
       <use xlink:href="#DejaVuSans-53"/>
       <use x="63.623047" xlink:href="#DejaVuSans-48"/>
      </g>
     </g>
    </g>
    <g id="ytick_2">
     <g id="line2d_10">
      <g>
       <use style="stroke:#000000;stroke-width:0.8;" x="50.87" xlink:href="#m8a38d07ef1" y="237.142775"/>
      </g>
     </g>
     <g id="text_11">
      <!-- 60 -->
      <g transform="translate(31.145 240.941994)scale(0.1 -0.1)">
       <use xlink:href="#DejaVuSans-54"/>
       <use x="63.623047" xlink:href="#DejaVuSans-48"/>
      </g>
     </g>
    </g>
    <g id="ytick_3">
     <g id="line2d_11">
      <g>
       <use style="stroke:#000000;stroke-width:0.8;" x="50.87" xlink:href="#m8a38d07ef1" y="184.053306"/>
      </g>
     </g>
     <g id="text_12">
      <!-- 70 -->
      <g transform="translate(31.145 187.852524)scale(0.1 -0.1)">
       <defs>
        <path d="M 8.203125 72.90625 
L 55.078125 72.90625 
L 55.078125 68.703125 
L 28.609375 0 
L 18.3125 0 
L 43.21875 64.59375 
L 8.203125 64.59375 
z
" id="DejaVuSans-55"/>
       </defs>
       <use xlink:href="#DejaVuSans-55"/>
       <use x="63.623047" xlink:href="#DejaVuSans-48"/>
      </g>
     </g>
    </g>
    <g id="ytick_4">
     <g id="line2d_12">
      <g>
       <use style="stroke:#000000;stroke-width:0.8;" x="50.87" xlink:href="#m8a38d07ef1" y="130.963836"/>
      </g>
     </g>
     <g id="text_13">
      <!-- 80 -->
      <g transform="translate(31.145 134.763055)scale(0.1 -0.1)">
       <use xlink:href="#DejaVuSans-56"/>
       <use x="63.623047" xlink:href="#DejaVuSans-48"/>
      </g>
     </g>
    </g>
    <g id="ytick_5">
     <g id="line2d_13">
      <g>
       <use style="stroke:#000000;stroke-width:0.8;" x="50.87" xlink:href="#m8a38d07ef1" y="77.874366"/>
      </g>
     </g>
     <g id="text_14">
      <!-- 90 -->
      <g transform="translate(31.145 81.673585)scale(0.1 -0.1)">
       <defs>
        <path d="M 10.984375 1.515625 
L 10.984375 10.5 
Q 14.703125 8.734375 18.5 7.8125 
Q 22.3125 6.890625 25.984375 6.890625 
Q 35.75 6.890625 40.890625 13.453125 
Q 46.046875 20.015625 46.78125 33.40625 
Q 43.953125 29.203125 39.59375 26.953125 
Q 35.25 24.703125 29.984375 24.703125 
Q 19.046875 24.703125 12.671875 31.3125 
Q 6.296875 37.9375 6.296875 49.421875 
Q 6.296875 60.640625 12.9375 67.421875 
Q 19.578125 74.21875 30.609375 74.21875 
Q 43.265625 74.21875 49.921875 64.515625 
Q 56.59375 54.828125 56.59375 36.375 
Q 56.59375 19.140625 48.40625 8.859375 
Q 40.234375 -1.421875 26.421875 -1.421875 
Q 22.703125 -1.421875 18.890625 -0.6875 
Q 15.09375 0.046875 10.984375 1.515625 
z
M 30.609375 32.421875 
Q 37.25 32.421875 41.125 36.953125 
Q 45.015625 41.5 45.015625 49.421875 
Q 45.015625 57.28125 41.125 61.84375 
Q 37.25 66.40625 30.609375 66.40625 
Q 23.96875 66.40625 20.09375 61.84375 
Q 16.21875 57.28125 16.21875 49.421875 
Q 16.21875 41.5 20.09375 36.953125 
Q 23.96875 32.421875 30.609375 32.421875 
z
" id="DejaVuSans-57"/>
       </defs>
       <use xlink:href="#DejaVuSans-57"/>
       <use x="63.623047" xlink:href="#DejaVuSans-48"/>
      </g>
     </g>
    </g>
    <g id="ytick_6">
     <g id="line2d_14">
      <g>
       <use style="stroke:#000000;stroke-width:0.8;" x="50.87" xlink:href="#m8a38d07ef1" y="24.784896"/>
      </g>
     </g>
     <g id="text_15">
      <!-- 100 -->
      <g transform="translate(24.7825 28.584115)scale(0.1 -0.1)">
       <use xlink:href="#DejaVuSans-49"/>
       <use x="63.623047" xlink:href="#DejaVuSans-48"/>
       <use x="127.246094" xlink:href="#DejaVuSans-48"/>
      </g>
     </g>
    </g>
    <g id="text_16">
     <!-- Test Accuracy (%) -->
     <g transform="translate(18.702813 201.723906)rotate(-90)scale(0.1 -0.1)">
      <defs>
       <path d="M -0.296875 72.90625 
L 61.375 72.90625 
L 61.375 64.59375 
L 35.5 64.59375 
L 35.5 0 
L 25.59375 0 
L 25.59375 64.59375 
L -0.296875 64.59375 
z
" id="DejaVuSans-84"/>
       <path d="M 56.203125 29.59375 
L 56.203125 25.203125 
L 14.890625 25.203125 
Q 15.484375 15.921875 20.484375 11.0625 
Q 25.484375 6.203125 34.421875 6.203125 
Q 39.59375 6.203125 44.453125 7.46875 
Q 49.3125 8.734375 54.109375 11.28125 
L 54.109375 2.78125 
Q 49.265625 0.734375 44.1875 -0.34375 
Q 39.109375 -1.421875 33.890625 -1.421875 
Q 20.796875 -1.421875 13.15625 6.1875 
Q 5.515625 13.8125 5.515625 26.8125 
Q 5.515625 40.234375 12.765625 48.109375 
Q 20.015625 56 32.328125 56 
Q 43.359375 56 49.78125 48.890625 
Q 56.203125 41.796875 56.203125 29.59375 
z
M 47.21875 32.234375 
Q 47.125 39.59375 43.09375 43.984375 
Q 39.0625 48.390625 32.421875 48.390625 
Q 24.90625 48.390625 20.390625 44.140625 
Q 15.875 39.890625 15.1875 32.171875 
z
" id="DejaVuSans-101"/>
       <path d="M 18.3125 70.21875 
L 18.3125 54.6875 
L 36.8125 54.6875 
L 36.8125 47.703125 
L 18.3125 47.703125 
L 18.3125 18.015625 
Q 18.3125 11.328125 20.140625 9.421875 
Q 21.96875 7.515625 27.59375 7.515625 
L 36.8125 7.515625 
L 36.8125 0 
L 27.59375 0 
Q 17.1875 0 13.234375 3.875 
Q 9.28125 7.765625 9.28125 18.015625 
L 9.28125 47.703125 
L 2.6875 47.703125 
L 2.6875 54.6875 
L 9.28125 54.6875 
L 9.28125 70.21875 
z
" id="DejaVuSans-116"/>
       <path id="DejaVuSans-32"/>
       <path d="M 34.1875 63.1875 
L 20.796875 26.90625 
L 47.609375 26.90625 
z
M 28.609375 72.90625 
L 39.796875 72.90625 
L 67.578125 0 
L 57.328125 0 
L 50.6875 18.703125 
L 17.828125 18.703125 
L 11.1875 0 
L 0.78125 0 
z
" id="DejaVuSans-65"/>
       <path d="M 8.5 21.578125 
L 8.5 54.6875 
L 17.484375 54.6875 
L 17.484375 21.921875 
Q 17.484375 14.15625 20.5 10.265625 
Q 23.53125 6.390625 29.59375 6.390625 
Q 36.859375 6.390625 41.078125 11.03125 
Q 45.3125 15.671875 45.3125 23.6875 
L 45.3125 54.6875 
L 54.296875 54.6875 
L 54.296875 0 
L 45.3125 0 
L 45.3125 8.40625 
Q 42.046875 3.421875 37.71875 1 
Q 33.40625 -1.421875 27.6875 -1.421875 
Q 18.265625 -1.421875 13.375 4.4375 
Q 8.5 10.296875 8.5 21.578125 
z
M 31.109375 56 
z
" id="DejaVuSans-117"/>
       <path d="M 41.109375 46.296875 
Q 39.59375 47.171875 37.8125 47.578125 
Q 36.03125 48 33.890625 48 
Q 26.265625 48 22.1875 43.046875 
Q 18.109375 38.09375 18.109375 28.8125 
L 18.109375 0 
L 9.078125 0 
L 9.078125 54.6875 
L 18.109375 54.6875 
L 18.109375 46.1875 
Q 20.953125 51.171875 25.484375 53.578125 
Q 30.03125 56 36.53125 56 
Q 37.453125 56 38.578125 55.875 
Q 39.703125 55.765625 41.0625 55.515625 
z
" id="DejaVuSans-114"/>
       <path d="M 34.28125 27.484375 
Q 23.390625 27.484375 19.1875 25 
Q 14.984375 22.515625 14.984375 16.5 
Q 14.984375 11.71875 18.140625 8.90625 
Q 21.296875 6.109375 26.703125 6.109375 
Q 34.1875 6.109375 38.703125 11.40625 
Q 43.21875 16.703125 43.21875 25.484375 
L 43.21875 27.484375 
z
M 52.203125 31.203125 
L 52.203125 0 
L 43.21875 0 
L 43.21875 8.296875 
Q 40.140625 3.328125 35.546875 0.953125 
Q 30.953125 -1.421875 24.3125 -1.421875 
Q 15.921875 -1.421875 10.953125 3.296875 
Q 6 8.015625 6 15.921875 
Q 6 25.140625 12.171875 29.828125 
Q 18.359375 34.515625 30.609375 34.515625 
L 43.21875 34.515625 
L 43.21875 35.40625 
Q 43.21875 41.609375 39.140625 45 
Q 35.0625 48.390625 27.6875 48.390625 
Q 23 48.390625 18.546875 47.265625 
Q 14.109375 46.140625 10.015625 43.890625 
L 10.015625 52.203125 
Q 14.9375 54.109375 19.578125 55.046875 
Q 24.21875 56 28.609375 56 
Q 40.484375 56 46.34375 49.84375 
Q 52.203125 43.703125 52.203125 31.203125 
z
" id="DejaVuSans-97"/>
       <path d="M 32.171875 -5.078125 
Q 28.375 -14.84375 24.75 -17.8125 
Q 21.140625 -20.796875 15.09375 -20.796875 
L 7.90625 -20.796875 
L 7.90625 -13.28125 
L 13.1875 -13.28125 
Q 16.890625 -13.28125 18.9375 -11.515625 
Q 21 -9.765625 23.484375 -3.21875 
L 25.09375 0.875 
L 2.984375 54.6875 
L 12.5 54.6875 
L 29.59375 11.921875 
L 46.6875 54.6875 
L 56.203125 54.6875 
z
" id="DejaVuSans-121"/>
       <path d="M 31 75.875 
Q 24.46875 64.65625 21.28125 53.65625 
Q 18.109375 42.671875 18.109375 31.390625 
Q 18.109375 20.125 21.3125 9.0625 
Q 24.515625 -2 31 -13.1875 
L 23.1875 -13.1875 
Q 15.875 -1.703125 12.234375 9.375 
Q 8.59375 20.453125 8.59375 31.390625 
Q 8.59375 42.28125 12.203125 53.3125 
Q 15.828125 64.359375 23.1875 75.875 
z
" id="DejaVuSans-40"/>
       <path d="M 72.703125 32.078125 
Q 68.453125 32.078125 66.03125 28.46875 
Q 63.625 24.859375 63.625 18.40625 
Q 63.625 12.0625 66.03125 8.421875 
Q 68.453125 4.78125 72.703125 4.78125 
Q 76.859375 4.78125 79.265625 8.421875 
Q 81.6875 12.0625 81.6875 18.40625 
Q 81.6875 24.8125 79.265625 28.4375 
Q 76.859375 32.078125 72.703125 32.078125 
z
M 72.703125 38.28125 
Q 80.421875 38.28125 84.953125 32.90625 
Q 89.5 27.546875 89.5 18.40625 
Q 89.5 9.28125 84.9375 3.921875 
Q 80.375 -1.421875 72.703125 -1.421875 
Q 64.890625 -1.421875 60.34375 3.921875 
Q 55.8125 9.28125 55.8125 18.40625 
Q 55.8125 27.59375 60.375 32.9375 
Q 64.9375 38.28125 72.703125 38.28125 
z
M 22.3125 68.015625 
Q 18.109375 68.015625 15.6875 64.375 
Q 13.28125 60.75 13.28125 54.390625 
Q 13.28125 47.953125 15.671875 44.328125 
Q 18.0625 40.71875 22.3125 40.71875 
Q 26.5625 40.71875 28.96875 44.328125 
Q 31.390625 47.953125 31.390625 54.390625 
Q 31.390625 60.6875 28.953125 64.34375 
Q 26.515625 68.015625 22.3125 68.015625 
z
M 66.40625 74.21875 
L 74.21875 74.21875 
L 28.609375 -1.421875 
L 20.796875 -1.421875 
z
M 22.3125 74.21875 
Q 30.03125 74.21875 34.609375 68.875 
Q 39.203125 63.53125 39.203125 54.390625 
Q 39.203125 45.171875 34.640625 39.84375 
Q 30.078125 34.515625 22.3125 34.515625 
Q 14.546875 34.515625 10.03125 39.859375 
Q 5.515625 45.21875 5.515625 54.390625 
Q 5.515625 63.484375 10.046875 68.84375 
Q 14.59375 74.21875 22.3125 74.21875 
z
" id="DejaVuSans-37"/>
       <path d="M 8.015625 75.875 
L 15.828125 75.875 
Q 23.140625 64.359375 26.78125 53.3125 
Q 30.421875 42.28125 30.421875 31.390625 
Q 30.421875 20.453125 26.78125 9.375 
Q 23.140625 -1.703125 15.828125 -13.1875 
L 8.015625 -13.1875 
Q 14.5 -2 17.703125 9.0625 
Q 20.90625 20.125 20.90625 31.390625 
Q 20.90625 42.671875 17.703125 53.65625 
Q 14.5 64.65625 8.015625 75.875 
z
" id="DejaVuSans-41"/>
      </defs>
      <use xlink:href="#DejaVuSans-84"/>
      <use x="44.083984" xlink:href="#DejaVuSans-101"/>
      <use x="105.607422" xlink:href="#DejaVuSans-115"/>
      <use x="157.707031" xlink:href="#DejaVuSans-116"/>
      <use x="196.916016" xlink:href="#DejaVuSans-32"/>
      <use x="228.703125" xlink:href="#DejaVuSans-65"/>
      <use x="295.361328" xlink:href="#DejaVuSans-99"/>
      <use x="350.341797" xlink:href="#DejaVuSans-99"/>
      <use x="405.322266" xlink:href="#DejaVuSans-117"/>
      <use x="468.701172" xlink:href="#DejaVuSans-114"/>
      <use x="509.814453" xlink:href="#DejaVuSans-97"/>
      <use x="571.09375" xlink:href="#DejaVuSans-99"/>
      <use x="626.074219" xlink:href="#DejaVuSans-121"/>
      <use x="685.253906" xlink:href="#DejaVuSans-32"/>
      <use x="717.041016" xlink:href="#DejaVuSans-40"/>
      <use x="756.054688" xlink:href="#DejaVuSans-37"/>
      <use x="851.074219" xlink:href="#DejaVuSans-41"/>
     </g>
    </g>
   </g>
   <g id="line2d_15">
    <path clip-path="url(#p693e8513e4)" d="M 69.012273 232.99516 
L 71.447477 168.966357 
L 73.882682 117.898849 
L 76.317886 96.849704 
L 78.75309 82.384897 
L 81.188295 67.194258 
L 83.623499 61.024681 
L 86.058703 56.51415 
L 88.493908 47.441242 
L 90.929112 49.61874 
L 93.364317 41.012439 
L 95.799521 42.930711 
L 98.234725 41.738272 
L 100.66993 35.983457 
L 103.105134 37.538812 
L 105.540339 33.235662 
L 107.975543 31.835842 
L 110.410747 34.428101 
L 115.281156 33.131971 
L 117.716361 31.472925 
L 120.151565 31.939532 
L 122.586769 30.539712 
L 125.021974 30.384177 
L 127.457178 29.295428 
L 129.892383 32.665365 
L 132.327587 29.399118 
L 134.762791 28.673285 
L 137.197996 28.776976 
L 139.6332 29.243582 
L 142.068405 29.243582 
L 144.503609 28.932511 
L 146.938813 30.02126 
L 149.374018 28.414059 
L 151.809222 30.228641 
L 154.244426 30.798938 
L 156.679631 28.828821 
L 159.114835 27.532691 
L 161.55004 29.139892 
L 163.985244 28.154834 
L 166.420448 27.895608 
L 168.855653 27.947453 
L 171.290857 27.791917 
L 173.726062 26.910549 
L 176.161266 28.051143 
L 178.59647 27.066085 
L 181.031675 26.547633 
L 183.466879 27.843762 
L 185.902084 26.599478 
L 188.337288 28.465905 
L 190.772492 27.325311 
L 193.207697 27.11793 
L 195.642901 27.843762 
L 198.078106 29.865725 
L 200.51331 25.407039 
L 202.948514 27.843762 
L 205.383719 27.377156 
L 207.818923 26.340252 
L 210.254128 26.858704 
L 212.689332 26.599478 
L 215.124536 26.547633 
L 217.559741 25.8218 
L 219.994945 27.014239 
L 222.430149 26.599478 
L 224.865354 28.569595 
L 227.300558 26.910549 
L 229.735763 25.925491 
L 232.170967 26.081026 
L 234.606171 26.599478 
L 237.041376 26.547633 
L 239.47658 27.11793 
L 241.911785 27.169775 
L 244.346989 26.703168 
L 246.782193 26.392097 
L 249.217398 26.340252 
L 251.652602 27.584537 
L 254.087807 26.858704 
L 256.523011 27.532691 
L 258.958215 28.414059 
L 261.39342 26.443942 
L 263.828624 26.029181 
L 266.263829 26.547633 
L 268.699033 26.703168 
L 271.134237 26.547633 
L 273.569442 27.066085 
L 276.004646 26.599478 
L 278.439851 26.288407 
L 280.875055 26.340252 
L 283.310259 27.169775 
L 285.745464 25.925491 
L 288.180668 26.858704 
L 290.615872 26.755014 
L 293.051077 26.288407 
L 295.486281 26.547633 
L 297.921486 25.407039 
L 300.35669 26.132871 
L 302.791894 25.251503 
L 305.227099 25.614419 
L 307.662303 24.940432 
L 312.532712 25.562574 
L 314.967916 25.407039 
L 317.403121 25.925491 
L 319.838325 25.666265 
L 322.27353 25.095968 
L 324.708734 24.784896 
L 327.143938 25.355194 
L 329.579143 25.407039 
L 332.014347 25.769955 
L 334.449552 25.199658 
L 336.884756 25.769955 
L 339.31996 25.407039 
L 341.755165 25.925491 
L 344.190369 25.355194 
L 346.625574 26.029181 
L 349.060778 25.355194 
L 351.495982 25.769955 
L 353.931187 25.095968 
L 358.801595 25.355194 
L 361.2368 25.095968 
L 366.107209 25.095968 
L 368.542413 24.784896 
L 370.977617 25.095968 
L 373.412822 24.940432 
L 378.283231 24.940432 
L 380.718435 24.784896 
L 383.153639 25.199658 
L 385.588844 24.784896 
L 388.024048 24.784896 
L 390.459253 24.940432 
L 392.894457 24.784896 
L 395.329661 25.095968 
L 397.764866 24.940432 
L 431.857727 24.940432 
L 431.857727 24.940432 
" style="fill:none;stroke:#1f77b4;stroke-linecap:square;stroke-width:1.5;"/>
   </g>
   <g id="line2d_16">
    <path clip-path="url(#p693e8513e4)" d="M 69.012273 154.190479 
L 71.447477 105.715231 
L 73.882682 88.969236 
L 76.317886 74.763655 
L 78.75309 66.053664 
L 81.188295 58.432422 
L 83.623499 52.677606 
L 86.058703 50.448263 
L 88.493908 43.656544 
L 90.929112 41.893808 
L 93.364317 41.479046 
L 95.799521 41.686427 
L 98.234725 39.612619 
L 100.66993 39.457084 
L 103.105134 35.153934 
L 105.540339 36.398218 
L 107.975543 32.406139 
L 110.410747 35.413159 
L 112.845952 34.739172 
L 115.281156 35.309469 
L 117.716361 37.849883 
L 120.151565 34.739172 
L 122.586769 33.235662 
L 125.021974 34.065185 
L 127.457178 33.494888 
L 129.892383 31.472925 
L 132.327587 32.71721 
L 134.762791 31.783997 
L 137.197996 31.887687 
L 139.6332 30.954474 
L 142.068405 31.783997 
L 144.503609 32.769055 
L 146.938813 30.902628 
L 149.374018 29.243582 
L 151.809222 32.509829 
L 154.244426 32.146913 
L 156.679631 33.080126 
L 161.55004 30.436022 
L 163.985244 29.502808 
L 166.420448 29.243582 
L 168.855653 30.02126 
L 171.290857 29.91757 
L 173.726062 30.124951 
L 176.161266 30.695248 
L 178.59647 29.658344 
L 181.031675 28.880666 
L 183.466879 30.384177 
L 185.902084 29.606499 
L 188.337288 28.984357 
L 190.772492 29.502808 
L 193.207697 27.066085 
L 195.642901 30.902628 
L 198.078106 30.02126 
L 200.51331 29.399118 
L 202.948514 27.895608 
L 205.383719 27.791917 
L 207.818923 28.673285 
L 210.254128 28.569595 
L 212.689332 30.124951 
L 215.124536 29.762034 
L 217.559741 28.673285 
L 219.994945 29.036202 
L 222.430149 29.088047 
L 224.865354 27.532691 
L 227.300558 28.776976 
L 229.735763 28.62144 
L 232.170967 28.673285 
L 234.606171 29.710189 
L 237.041376 27.584537 
L 239.47658 28.673285 
L 241.911785 26.599478 
L 244.346989 26.703168 
L 246.782193 27.429001 
L 249.217398 27.22162 
L 254.087807 27.480846 
L 256.523011 27.11793 
L 258.958215 26.599478 
L 261.39342 26.651323 
L 263.828624 27.066085 
L 266.263829 25.8218 
L 271.134237 26.340252 
L 273.569442 26.547633 
L 276.004646 27.895608 
L 278.439851 27.584537 
L 280.875055 27.066085 
L 285.745464 26.599478 
L 288.180668 25.769955 
L 290.615872 26.288407 
L 295.486281 25.562574 
L 297.921486 26.599478 
L 300.35669 26.184717 
L 302.791894 25.510729 
L 310.097508 25.769955 
L 312.532712 26.184717 
L 314.967916 25.925491 
L 317.403121 25.251503 
L 319.838325 24.940432 
L 322.27353 25.095968 
L 327.143938 25.71811 
L 329.579143 26.443942 
L 332.014347 26.288407 
L 334.449552 25.355194 
L 339.31996 25.095968 
L 341.755165 25.666265 
L 344.190369 25.095968 
L 346.625574 25.769955 
L 349.060778 25.977336 
L 351.495982 25.407039 
L 353.931187 25.095968 
L 356.366391 25.407039 
L 363.672004 24.940432 
L 366.107209 25.095968 
L 373.412822 25.095968 
L 375.848026 25.251503 
L 383.153639 24.784896 
L 385.588844 24.940432 
L 392.894457 24.940432 
L 395.329661 24.784896 
L 397.764866 24.940432 
L 400.20007 24.784896 
L 402.635275 24.940432 
L 405.070479 24.940432 
L 407.505683 24.784896 
L 431.857727 24.784896 
L 431.857727 24.784896 
" style="fill:none;stroke:#ff7f0e;stroke-linecap:square;stroke-width:1.5;"/>
   </g>
   <g id="line2d_17">
    <path clip-path="url(#p693e8513e4)" d="M 69.012273 148.539354 
L 71.447477 103.848804 
L 73.882682 90.939353 
L 76.317886 75.126571 
L 78.75309 67.401639 
L 81.188295 59.210099 
L 83.623499 54.595878 
L 86.058703 50.759334 
L 88.493908 45.730351 
L 90.929112 46.559874 
L 93.364317 40.234762 
L 95.799521 40.079226 
L 98.234725 41.530891 
L 100.66993 39.146013 
L 103.105134 36.035302 
L 105.540339 34.635482 
L 107.975543 33.391197 
L 110.410747 36.035302 
L 112.845952 34.376256 
L 115.281156 36.761134 
L 117.716361 36.450063 
L 120.151565 33.028281 
L 125.021974 34.272565 
L 127.457178 32.924591 
L 129.892383 32.71721 
L 132.327587 31.991377 
L 134.762791 33.391197 
L 137.197996 31.42108 
L 139.6332 32.457984 
L 142.068405 31.835842 
L 144.503609 33.702268 
L 146.938813 31.058164 
L 149.374018 30.384177 
L 151.809222 33.857804 
L 154.244426 30.591557 
L 156.679631 29.865725 
L 159.114835 29.347273 
L 161.55004 29.606499 
L 166.420448 29.088047 
L 168.855653 31.265545 
L 171.290857 29.658344 
L 173.726062 31.369235 
L 176.161266 29.865725 
L 178.59647 31.110009 
L 181.031675 29.658344 
L 183.466879 30.902628 
L 185.902084 30.073105 
L 188.337288 30.02126 
L 190.772492 28.880666 
L 193.207697 27.947453 
L 195.642901 30.332331 
L 198.078106 29.088047 
L 200.51331 28.51775 
L 202.948514 28.828821 
L 205.383719 28.154834 
L 207.818923 28.465905 
L 210.254128 29.399118 
L 212.689332 29.036202 
L 215.124536 28.465905 
L 217.559741 27.325311 
L 219.994945 30.124951 
L 222.430149 29.813879 
L 224.865354 27.791917 
L 227.300558 28.569595 
L 229.735763 28.154834 
L 232.170967 28.310369 
L 234.606171 28.725131 
L 237.041376 28.414059 
L 239.47658 27.688227 
L 241.911785 27.325311 
L 244.346989 28.258524 
L 246.782193 27.325311 
L 249.217398 27.999298 
L 251.652602 27.273465 
L 254.087807 26.858704 
L 256.523011 26.858704 
L 258.958215 26.651323 
L 263.828624 27.11793 
L 266.263829 25.977336 
L 268.699033 26.443942 
L 271.134237 26.340252 
L 273.569442 27.325311 
L 276.004646 27.791917 
L 278.439851 26.184717 
L 280.875055 26.703168 
L 283.310259 26.029181 
L 285.745464 29.088047 
L 288.180668 27.273465 
L 290.615872 26.081026 
L 293.051077 25.925491 
L 295.486281 26.599478 
L 297.921486 26.910549 
L 300.35669 25.355194 
L 302.791894 25.8218 
L 305.227099 27.429001 
L 307.662303 26.443942 
L 310.097508 25.925491 
L 314.967916 25.666265 
L 317.403121 26.184717 
L 322.27353 25.355194 
L 324.708734 25.355194 
L 327.143938 25.095968 
L 329.579143 25.095968 
L 334.449552 26.029181 
L 336.884756 26.184717 
L 339.31996 25.095968 
L 341.755165 25.095968 
L 344.190369 25.251503 
L 346.625574 26.184717 
L 349.060778 26.132871 
L 351.495982 25.510729 
L 353.931187 25.458884 
L 356.366391 24.784896 
L 358.801595 25.355194 
L 361.2368 24.940432 
L 368.542413 25.510729 
L 370.977617 24.940432 
L 373.412822 26.029181 
L 375.848026 24.940432 
L 378.283231 25.355194 
L 380.718435 24.940432 
L 385.588844 25.355194 
L 390.459253 25.355194 
L 392.894457 25.199658 
L 395.329661 25.199658 
L 397.764866 24.940432 
L 405.070479 24.940432 
L 407.505683 24.784896 
L 409.940888 24.784896 
L 412.376092 24.940432 
L 414.811297 24.784896 
L 419.681705 24.784896 
L 422.11691 24.940432 
L 424.552114 24.940432 
L 426.987318 24.784896 
L 431.857727 24.784896 
L 431.857727 24.784896 
" style="fill:none;stroke:#2ca02c;stroke-linecap:square;stroke-width:1.5;"/>
   </g>
   <g id="line2d_18">
    <path clip-path="url(#p693e8513e4)" d="M 69.012273 192.815142 
L 71.447477 118.261765 
L 73.882682 99.545654 
L 76.317886 88.917391 
L 78.75309 66.831342 
L 83.623499 61.906049 
L 86.058703 55.840162 
L 88.493908 47.752314 
L 90.929112 47.493088 
L 93.364317 42.827021 
L 95.799521 45.522971 
L 98.234725 46.559874 
L 100.66993 42.049343 
L 103.105134 38.679406 
L 105.540339 37.331431 
L 107.975543 36.501908 
L 110.410747 35.879766 
L 112.845952 35.413159 
L 115.281156 36.190837 
L 117.716361 34.635482 
L 120.151565 33.287507 
L 122.586769 32.665365 
L 125.021974 35.257624 
L 127.457178 33.754114 
L 129.892383 34.11703 
L 132.327587 34.168875 
L 134.762791 32.302448 
L 137.197996 33.183817 
L 139.6332 31.576616 
L 142.068405 31.058164 
L 144.503609 35.51685 
L 146.938813 31.42108 
L 149.374018 30.850783 
L 151.809222 33.287507 
L 154.244426 31.524771 
L 156.679631 31.783997 
L 159.114835 30.280486 
L 161.55004 30.228641 
L 163.985244 30.798938 
L 166.420448 30.902628 
L 168.855653 30.436022 
L 171.290857 29.762034 
L 176.161266 30.280486 
L 178.59647 29.295428 
L 181.031675 29.606499 
L 183.466879 29.606499 
L 185.902084 31.161854 
L 188.337288 29.088047 
L 193.207697 27.532691 
L 195.642901 31.058164 
L 198.078106 28.776976 
L 200.51331 31.31739 
L 202.948514 29.762034 
L 205.383719 27.999298 
L 207.818923 27.532691 
L 210.254128 27.740072 
L 212.689332 28.880666 
L 215.124536 30.332331 
L 217.559741 29.606499 
L 219.994945 28.62144 
L 222.430149 27.999298 
L 224.865354 28.206679 
L 227.300558 27.791917 
L 229.735763 30.436022 
L 232.170967 28.102988 
L 234.606171 28.310369 
L 237.041376 28.880666 
L 239.47658 27.11793 
L 241.911785 27.791917 
L 244.346989 26.962394 
L 246.782193 29.139892 
L 249.217398 27.636382 
L 251.652602 26.340252 
L 254.087807 27.014239 
L 256.523011 26.599478 
L 258.958215 26.392097 
L 261.39342 27.584537 
L 263.828624 26.703168 
L 266.263829 27.325311 
L 268.699033 26.029181 
L 271.134237 27.947453 
L 273.569442 26.081026 
L 276.004646 27.584537 
L 278.439851 28.154834 
L 280.875055 27.325311 
L 283.310259 26.081026 
L 285.745464 26.547633 
L 288.180668 26.340252 
L 290.615872 25.251503 
L 293.051077 25.095968 
L 295.486281 26.651323 
L 297.921486 27.22162 
L 300.35669 25.769955 
L 302.791894 26.184717 
L 305.227099 26.806859 
L 307.662303 25.666265 
L 312.532712 26.806859 
L 314.967916 26.599478 
L 317.403121 25.510729 
L 319.838325 25.355194 
L 322.27353 25.666265 
L 324.708734 25.510729 
L 327.143938 25.095968 
L 329.579143 25.8218 
L 332.014347 26.081026 
L 334.449552 24.940432 
L 336.884756 25.8218 
L 339.31996 24.940432 
L 341.755165 24.784896 
L 344.190369 25.510729 
L 346.625574 25.769955 
L 349.060778 25.251503 
L 351.495982 25.510729 
L 353.931187 25.095968 
L 358.801595 25.510729 
L 361.2368 24.940432 
L 363.672004 25.666265 
L 366.107209 24.940432 
L 370.977617 25.355194 
L 373.412822 25.355194 
L 375.848026 25.095968 
L 378.283231 25.251503 
L 380.718435 24.940432 
L 383.153639 25.095968 
L 388.024048 24.784896 
L 390.459253 24.940432 
L 392.894457 24.940432 
L 395.329661 24.784896 
L 431.857727 24.784896 
L 431.857727 24.784896 
" style="fill:none;stroke:#d62728;stroke-linecap:square;stroke-width:1.5;"/>
   </g>
   <g id="line2d_19">
    <path clip-path="url(#p693e8513e4)" d="M 69.012273 186.749255 
L 71.447477 117.950694 
L 73.882682 97.471846 
L 76.317886 85.236382 
L 78.75309 70.61604 
L 81.188295 69.786517 
L 83.623499 56.203079 
L 86.058703 55.943853 
L 88.493908 48.685527 
L 90.929112 50.91487 
L 93.364317 43.760234 
L 95.799521 43.708389 
L 98.234725 46.611719 
L 100.66993 41.530891 
L 105.540339 38.990477 
L 107.975543 38.783097 
L 110.410747 38.368335 
L 112.845952 35.309469 
L 115.281156 35.465005 
L 117.716361 34.479946 
L 120.151565 35.879766 
L 122.586769 36.035302 
L 125.021974 33.546733 
L 127.457178 33.961494 
L 129.892383 31.42108 
L 132.327587 35.51685 
L 134.762791 32.043222 
L 137.197996 33.080126 
L 139.6332 34.479946 
L 142.068405 33.598578 
L 144.503609 34.11703 
L 146.938813 34.11703 
L 149.374018 29.554654 
L 151.809222 33.909649 
L 154.244426 31.576616 
L 156.679631 32.872745 
L 159.114835 30.228641 
L 161.55004 32.302448 
L 166.420448 28.828821 
L 168.855653 32.769055 
L 171.290857 32.043222 
L 173.726062 29.347273 
L 176.161266 30.02126 
L 178.59647 31.161854 
L 181.031675 29.969415 
L 183.466879 29.088047 
L 185.902084 32.250603 
L 188.337288 30.228641 
L 190.772492 28.828821 
L 193.207697 27.066085 
L 195.642901 30.02126 
L 198.078106 30.539712 
L 200.51331 29.813879 
L 202.948514 28.414059 
L 205.383719 28.880666 
L 207.818923 28.154834 
L 210.254128 27.791917 
L 212.689332 30.695248 
L 215.124536 31.058164 
L 217.559741 28.776976 
L 219.994945 29.191737 
L 222.430149 29.295428 
L 224.865354 26.184717 
L 227.300558 29.606499 
L 229.735763 29.762034 
L 232.170967 28.725131 
L 234.606171 27.999298 
L 237.041376 29.606499 
L 239.47658 29.450963 
L 241.911785 27.999298 
L 244.346989 28.206679 
L 246.782193 27.066085 
L 249.217398 28.880666 
L 251.652602 26.340252 
L 254.087807 26.858704 
L 256.523011 26.858704 
L 258.958215 26.599478 
L 261.39342 27.066085 
L 263.828624 26.703168 
L 266.263829 26.703168 
L 268.699033 26.443942 
L 271.134237 27.066085 
L 273.569442 26.858704 
L 276.004646 27.843762 
L 278.439851 26.081026 
L 280.875055 25.666265 
L 283.310259 25.407039 
L 285.745464 26.547633 
L 290.615872 26.184717 
L 293.051077 25.355194 
L 295.486281 25.666265 
L 297.921486 27.480846 
L 302.791894 25.510729 
L 305.227099 25.251503 
L 307.662303 25.925491 
L 310.097508 26.184717 
L 314.967916 25.095968 
L 317.403121 25.407039 
L 319.838325 25.873645 
L 322.27353 24.940432 
L 327.143938 25.355194 
L 329.579143 25.095968 
L 332.014347 25.251503 
L 334.449552 25.614419 
L 336.884756 25.666265 
L 339.31996 25.355194 
L 341.755165 25.769955 
L 344.190369 24.940432 
L 346.625574 25.407039 
L 349.060778 25.407039 
L 351.495982 25.925491 
L 356.366391 25.095968 
L 358.801595 25.769955 
L 361.2368 25.355194 
L 363.672004 25.355194 
L 366.107209 25.510729 
L 368.542413 25.251503 
L 370.977617 25.199658 
L 373.412822 25.925491 
L 375.848026 25.407039 
L 378.283231 25.510729 
L 380.718435 25.095968 
L 383.153639 25.562574 
L 385.588844 25.095968 
L 388.024048 24.940432 
L 392.894457 24.940432 
L 395.329661 25.199658 
L 400.20007 25.095968 
L 402.635275 25.095968 
L 405.070479 24.940432 
L 407.505683 25.251503 
L 409.940888 25.095968 
L 431.857727 25.095968 
L 431.857727 25.095968 
" style="fill:none;stroke:#9467bd;stroke-linecap:square;stroke-width:1.5;"/>
   </g>
   <g id="patch_3">
    <path d="M 50.87 303.64 
L 50.87 10.8 
" style="fill:none;stroke:#000000;stroke-linecap:square;stroke-linejoin:miter;stroke-width:0.8;"/>
   </g>
   <g id="patch_4">
    <path d="M 450 303.64 
L 450 10.8 
" style="fill:none;stroke:#000000;stroke-linecap:square;stroke-linejoin:miter;stroke-width:0.8;"/>
   </g>
   <g id="patch_5">
    <path d="M 50.87 303.64 
L 450 303.64 
" style="fill:none;stroke:#000000;stroke-linecap:square;stroke-linejoin:miter;stroke-width:0.8;"/>
   </g>
   <g id="patch_6">
    <path d="M 50.87 10.8 
L 450 10.8 
" style="fill:none;stroke:#000000;stroke-linecap:square;stroke-linejoin:miter;stroke-width:0.8;"/>
   </g>
   <g id="legend_1">
    <g id="patch_7">
     <path d="M 282.65625 298.64 
L 443 298.64 
Q 445 298.64 445 296.64 
L 445 224.249375 
Q 445 222.249375 443 222.249375 
L 282.65625 222.249375 
Q 280.65625 222.249375 280.65625 224.249375 
L 280.65625 296.64 
Q 280.65625 298.64 282.65625 298.64 
z
" style="fill:#ffffff;opacity:0.8;stroke:#cccccc;stroke-linejoin:miter;"/>
    </g>
    <g id="line2d_20">
     <path d="M 284.65625 230.347812 
L 304.65625 230.347812 
" style="fill:none;stroke:#1f77b4;stroke-linecap:square;stroke-width:1.5;"/>
    </g>
    <g id="line2d_21"/>
    <g id="text_17">
     <!-- AllReduce SGD -->
     <g transform="translate(312.65625 233.847812)scale(0.1 -0.1)">
      <defs>
       <path d="M 9.421875 75.984375 
L 18.40625 75.984375 
L 18.40625 0 
L 9.421875 0 
z
" id="DejaVuSans-108"/>
       <path d="M 44.390625 34.1875 
Q 47.5625 33.109375 50.5625 29.59375 
Q 53.5625 26.078125 56.59375 19.921875 
L 66.609375 0 
L 56 0 
L 46.6875 18.703125 
Q 43.0625 26.03125 39.671875 28.421875 
Q 36.28125 30.8125 30.421875 30.8125 
L 19.671875 30.8125 
L 19.671875 0 
L 9.8125 0 
L 9.8125 72.90625 
L 32.078125 72.90625 
Q 44.578125 72.90625 50.734375 67.671875 
Q 56.890625 62.453125 56.890625 51.90625 
Q 56.890625 45.015625 53.6875 40.46875 
Q 50.484375 35.9375 44.390625 34.1875 
z
M 19.671875 64.796875 
L 19.671875 38.921875 
L 32.078125 38.921875 
Q 39.203125 38.921875 42.84375 42.21875 
Q 46.484375 45.515625 46.484375 51.90625 
Q 46.484375 58.296875 42.84375 61.546875 
Q 39.203125 64.796875 32.078125 64.796875 
z
" id="DejaVuSans-82"/>
       <path d="M 45.40625 46.390625 
L 45.40625 75.984375 
L 54.390625 75.984375 
L 54.390625 0 
L 45.40625 0 
L 45.40625 8.203125 
Q 42.578125 3.328125 38.25 0.953125 
Q 33.9375 -1.421875 27.875 -1.421875 
Q 17.96875 -1.421875 11.734375 6.484375 
Q 5.515625 14.40625 5.515625 27.296875 
Q 5.515625 40.1875 11.734375 48.09375 
Q 17.96875 56 27.875 56 
Q 33.9375 56 38.25 53.625 
Q 42.578125 51.265625 45.40625 46.390625 
z
M 14.796875 27.296875 
Q 14.796875 17.390625 18.875 11.75 
Q 22.953125 6.109375 30.078125 6.109375 
Q 37.203125 6.109375 41.296875 11.75 
Q 45.40625 17.390625 45.40625 27.296875 
Q 45.40625 37.203125 41.296875 42.84375 
Q 37.203125 48.484375 30.078125 48.484375 
Q 22.953125 48.484375 18.875 42.84375 
Q 14.796875 37.203125 14.796875 27.296875 
z
" id="DejaVuSans-100"/>
       <path d="M 53.515625 70.515625 
L 53.515625 60.890625 
Q 47.90625 63.578125 42.921875 64.890625 
Q 37.9375 66.21875 33.296875 66.21875 
Q 25.25 66.21875 20.875 63.09375 
Q 16.5 59.96875 16.5 54.203125 
Q 16.5 49.359375 19.40625 46.890625 
Q 22.3125 44.4375 30.421875 42.921875 
L 36.375 41.703125 
Q 47.40625 39.59375 52.65625 34.296875 
Q 57.90625 29 57.90625 20.125 
Q 57.90625 9.515625 50.796875 4.046875 
Q 43.703125 -1.421875 29.984375 -1.421875 
Q 24.8125 -1.421875 18.96875 -0.25 
Q 13.140625 0.921875 6.890625 3.21875 
L 6.890625 13.375 
Q 12.890625 10.015625 18.65625 8.296875 
Q 24.421875 6.59375 29.984375 6.59375 
Q 38.421875 6.59375 43.015625 9.90625 
Q 47.609375 13.234375 47.609375 19.390625 
Q 47.609375 24.75 44.3125 27.78125 
Q 41.015625 30.8125 33.5 32.328125 
L 27.484375 33.5 
Q 16.453125 35.6875 11.515625 40.375 
Q 6.59375 45.0625 6.59375 53.421875 
Q 6.59375 63.09375 13.40625 68.65625 
Q 20.21875 74.21875 32.171875 74.21875 
Q 37.3125 74.21875 42.625 73.28125 
Q 47.953125 72.359375 53.515625 70.515625 
z
" id="DejaVuSans-83"/>
       <path d="M 59.515625 10.40625 
L 59.515625 29.984375 
L 43.40625 29.984375 
L 43.40625 38.09375 
L 69.28125 38.09375 
L 69.28125 6.78125 
Q 63.578125 2.734375 56.6875 0.65625 
Q 49.8125 -1.421875 42 -1.421875 
Q 24.90625 -1.421875 15.25 8.5625 
Q 5.609375 18.5625 5.609375 36.375 
Q 5.609375 54.25 15.25 64.234375 
Q 24.90625 74.21875 42 74.21875 
Q 49.125 74.21875 55.546875 72.453125 
Q 61.96875 70.703125 67.390625 67.28125 
L 67.390625 56.78125 
Q 61.921875 61.421875 55.765625 63.765625 
Q 49.609375 66.109375 42.828125 66.109375 
Q 29.4375 66.109375 22.71875 58.640625 
Q 16.015625 51.171875 16.015625 36.375 
Q 16.015625 21.625 22.71875 14.15625 
Q 29.4375 6.6875 42.828125 6.6875 
Q 48.046875 6.6875 52.140625 7.59375 
Q 56.25 8.5 59.515625 10.40625 
z
" id="DejaVuSans-71"/>
       <path d="M 19.671875 64.796875 
L 19.671875 8.109375 
L 31.59375 8.109375 
Q 46.6875 8.109375 53.6875 14.9375 
Q 60.6875 21.78125 60.6875 36.53125 
Q 60.6875 51.171875 53.6875 57.984375 
Q 46.6875 64.796875 31.59375 64.796875 
z
M 9.8125 72.90625 
L 30.078125 72.90625 
Q 51.265625 72.90625 61.171875 64.09375 
Q 71.09375 55.28125 71.09375 36.53125 
Q 71.09375 17.671875 61.125 8.828125 
Q 51.171875 0 30.078125 0 
L 9.8125 0 
z
" id="DejaVuSans-68"/>
      </defs>
      <use xlink:href="#DejaVuSans-65"/>
      <use x="68.408203" xlink:href="#DejaVuSans-108"/>
      <use x="96.191406" xlink:href="#DejaVuSans-108"/>
      <use x="123.974609" xlink:href="#DejaVuSans-82"/>
      <use x="188.957031" xlink:href="#DejaVuSans-101"/>
      <use x="250.480469" xlink:href="#DejaVuSans-100"/>
      <use x="313.957031" xlink:href="#DejaVuSans-117"/>
      <use x="377.335938" xlink:href="#DejaVuSans-99"/>
      <use x="432.316406" xlink:href="#DejaVuSans-101"/>
      <use x="493.839844" xlink:href="#DejaVuSans-32"/>
      <use x="525.626953" xlink:href="#DejaVuSans-83"/>
      <use x="589.103516" xlink:href="#DejaVuSans-71"/>
      <use x="666.59375" xlink:href="#DejaVuSans-68"/>
     </g>
    </g>
    <g id="line2d_22">
     <path d="M 284.65625 245.025937 
L 304.65625 245.025937 
" style="fill:none;stroke:#ff7f0e;stroke-linecap:square;stroke-width:1.5;"/>
    </g>
    <g id="line2d_23"/>
    <g id="text_18">
     <!-- GRandK-MN-TS (8,12) bits -->
     <g transform="translate(312.65625 248.525937)scale(0.1 -0.1)">
      <defs>
       <path d="M 54.890625 33.015625 
L 54.890625 0 
L 45.90625 0 
L 45.90625 32.71875 
Q 45.90625 40.484375 42.875 44.328125 
Q 39.84375 48.1875 33.796875 48.1875 
Q 26.515625 48.1875 22.3125 43.546875 
Q 18.109375 38.921875 18.109375 30.90625 
L 18.109375 0 
L 9.078125 0 
L 9.078125 54.6875 
L 18.109375 54.6875 
L 18.109375 46.1875 
Q 21.34375 51.125 25.703125 53.5625 
Q 30.078125 56 35.796875 56 
Q 45.21875 56 50.046875 50.171875 
Q 54.890625 44.34375 54.890625 33.015625 
z
" id="DejaVuSans-110"/>
       <path d="M 9.8125 72.90625 
L 19.671875 72.90625 
L 19.671875 42.09375 
L 52.390625 72.90625 
L 65.09375 72.90625 
L 28.90625 38.921875 
L 67.671875 0 
L 54.6875 0 
L 19.671875 35.109375 
L 19.671875 0 
L 9.8125 0 
z
" id="DejaVuSans-75"/>
       <path d="M 4.890625 31.390625 
L 31.203125 31.390625 
L 31.203125 23.390625 
L 4.890625 23.390625 
z
" id="DejaVuSans-45"/>
       <path d="M 9.8125 72.90625 
L 24.515625 72.90625 
L 43.109375 23.296875 
L 61.8125 72.90625 
L 76.515625 72.90625 
L 76.515625 0 
L 66.890625 0 
L 66.890625 64.015625 
L 48.09375 14.015625 
L 38.1875 14.015625 
L 19.390625 64.015625 
L 19.390625 0 
L 9.8125 0 
z
" id="DejaVuSans-77"/>
       <path d="M 9.8125 72.90625 
L 23.09375 72.90625 
L 55.421875 11.921875 
L 55.421875 72.90625 
L 64.984375 72.90625 
L 64.984375 0 
L 51.703125 0 
L 19.390625 60.984375 
L 19.390625 0 
L 9.8125 0 
z
" id="DejaVuSans-78"/>
       <path d="M 11.71875 12.40625 
L 22.015625 12.40625 
L 22.015625 4 
L 14.015625 -11.625 
L 7.71875 -11.625 
L 11.71875 4 
z
" id="DejaVuSans-44"/>
       <path d="M 48.6875 27.296875 
Q 48.6875 37.203125 44.609375 42.84375 
Q 40.53125 48.484375 33.40625 48.484375 
Q 26.265625 48.484375 22.1875 42.84375 
Q 18.109375 37.203125 18.109375 27.296875 
Q 18.109375 17.390625 22.1875 11.75 
Q 26.265625 6.109375 33.40625 6.109375 
Q 40.53125 6.109375 44.609375 11.75 
Q 48.6875 17.390625 48.6875 27.296875 
z
M 18.109375 46.390625 
Q 20.953125 51.265625 25.265625 53.625 
Q 29.59375 56 35.59375 56 
Q 45.5625 56 51.78125 48.09375 
Q 58.015625 40.1875 58.015625 27.296875 
Q 58.015625 14.40625 51.78125 6.484375 
Q 45.5625 -1.421875 35.59375 -1.421875 
Q 29.59375 -1.421875 25.265625 0.953125 
Q 20.953125 3.328125 18.109375 8.203125 
L 18.109375 0 
L 9.078125 0 
L 9.078125 75.984375 
L 18.109375 75.984375 
z
" id="DejaVuSans-98"/>
       <path d="M 9.421875 54.6875 
L 18.40625 54.6875 
L 18.40625 0 
L 9.421875 0 
z
M 9.421875 75.984375 
L 18.40625 75.984375 
L 18.40625 64.59375 
L 9.421875 64.59375 
z
" id="DejaVuSans-105"/>
      </defs>
      <use xlink:href="#DejaVuSans-71"/>
      <use x="77.490234" xlink:href="#DejaVuSans-82"/>
      <use x="144.722656" xlink:href="#DejaVuSans-97"/>
      <use x="206.001953" xlink:href="#DejaVuSans-110"/>
      <use x="269.380859" xlink:href="#DejaVuSans-100"/>
      <use x="332.857422" xlink:href="#DejaVuSans-75"/>
      <use x="387.933594" xlink:href="#DejaVuSans-45"/>
      <use x="424.017578" xlink:href="#DejaVuSans-77"/>
      <use x="510.296875" xlink:href="#DejaVuSans-78"/>
      <use x="585.101562" xlink:href="#DejaVuSans-45"/>
      <use x="612.060547" xlink:href="#DejaVuSans-84"/>
      <use x="673.144531" xlink:href="#DejaVuSans-83"/>
      <use x="736.621094" xlink:href="#DejaVuSans-32"/>
      <use x="768.408203" xlink:href="#DejaVuSans-40"/>
      <use x="807.421875" xlink:href="#DejaVuSans-56"/>
      <use x="871.044922" xlink:href="#DejaVuSans-44"/>
      <use x="902.832031" xlink:href="#DejaVuSans-49"/>
      <use x="966.455078" xlink:href="#DejaVuSans-50"/>
      <use x="1030.078125" xlink:href="#DejaVuSans-41"/>
      <use x="1069.091797" xlink:href="#DejaVuSans-32"/>
      <use x="1100.878906" xlink:href="#DejaVuSans-98"/>
      <use x="1164.355469" xlink:href="#DejaVuSans-105"/>
      <use x="1192.138672" xlink:href="#DejaVuSans-116"/>
      <use x="1231.347656" xlink:href="#DejaVuSans-115"/>
     </g>
    </g>
    <g id="line2d_24">
     <path d="M 284.65625 259.704062 
L 304.65625 259.704062 
" style="fill:none;stroke:#2ca02c;stroke-linecap:square;stroke-width:1.5;"/>
    </g>
    <g id="line2d_25"/>
    <g id="text_19">
     <!-- GRandK-MN-TS (6,10) bits -->
     <g transform="translate(312.65625 263.204062)scale(0.1 -0.1)">
      <use xlink:href="#DejaVuSans-71"/>
      <use x="77.490234" xlink:href="#DejaVuSans-82"/>
      <use x="144.722656" xlink:href="#DejaVuSans-97"/>
      <use x="206.001953" xlink:href="#DejaVuSans-110"/>
      <use x="269.380859" xlink:href="#DejaVuSans-100"/>
      <use x="332.857422" xlink:href="#DejaVuSans-75"/>
      <use x="387.933594" xlink:href="#DejaVuSans-45"/>
      <use x="424.017578" xlink:href="#DejaVuSans-77"/>
      <use x="510.296875" xlink:href="#DejaVuSans-78"/>
      <use x="585.101562" xlink:href="#DejaVuSans-45"/>
      <use x="612.060547" xlink:href="#DejaVuSans-84"/>
      <use x="673.144531" xlink:href="#DejaVuSans-83"/>
      <use x="736.621094" xlink:href="#DejaVuSans-32"/>
      <use x="768.408203" xlink:href="#DejaVuSans-40"/>
      <use x="807.421875" xlink:href="#DejaVuSans-54"/>
      <use x="871.044922" xlink:href="#DejaVuSans-44"/>
      <use x="902.832031" xlink:href="#DejaVuSans-49"/>
      <use x="966.455078" xlink:href="#DejaVuSans-48"/>
      <use x="1030.078125" xlink:href="#DejaVuSans-41"/>
      <use x="1069.091797" xlink:href="#DejaVuSans-32"/>
      <use x="1100.878906" xlink:href="#DejaVuSans-98"/>
      <use x="1164.355469" xlink:href="#DejaVuSans-105"/>
      <use x="1192.138672" xlink:href="#DejaVuSans-116"/>
      <use x="1231.347656" xlink:href="#DejaVuSans-115"/>
     </g>
    </g>
    <g id="line2d_26">
     <path d="M 284.65625 274.382187 
L 304.65625 274.382187 
" style="fill:none;stroke:#d62728;stroke-linecap:square;stroke-width:1.5;"/>
    </g>
    <g id="line2d_27"/>
    <g id="text_20">
     <!-- GRandK-MN-TS (4,8) bits -->
     <g transform="translate(312.65625 277.882187)scale(0.1 -0.1)">
      <use xlink:href="#DejaVuSans-71"/>
      <use x="77.490234" xlink:href="#DejaVuSans-82"/>
      <use x="144.722656" xlink:href="#DejaVuSans-97"/>
      <use x="206.001953" xlink:href="#DejaVuSans-110"/>
      <use x="269.380859" xlink:href="#DejaVuSans-100"/>
      <use x="332.857422" xlink:href="#DejaVuSans-75"/>
      <use x="387.933594" xlink:href="#DejaVuSans-45"/>
      <use x="424.017578" xlink:href="#DejaVuSans-77"/>
      <use x="510.296875" xlink:href="#DejaVuSans-78"/>
      <use x="585.101562" xlink:href="#DejaVuSans-45"/>
      <use x="612.060547" xlink:href="#DejaVuSans-84"/>
      <use x="673.144531" xlink:href="#DejaVuSans-83"/>
      <use x="736.621094" xlink:href="#DejaVuSans-32"/>
      <use x="768.408203" xlink:href="#DejaVuSans-40"/>
      <use x="807.421875" xlink:href="#DejaVuSans-52"/>
      <use x="871.044922" xlink:href="#DejaVuSans-44"/>
      <use x="902.832031" xlink:href="#DejaVuSans-56"/>
      <use x="966.455078" xlink:href="#DejaVuSans-41"/>
      <use x="1005.46875" xlink:href="#DejaVuSans-32"/>
      <use x="1037.255859" xlink:href="#DejaVuSans-98"/>
      <use x="1100.732422" xlink:href="#DejaVuSans-105"/>
      <use x="1128.515625" xlink:href="#DejaVuSans-116"/>
      <use x="1167.724609" xlink:href="#DejaVuSans-115"/>
     </g>
    </g>
    <g id="line2d_28">
     <path d="M 284.65625 289.060312 
L 304.65625 289.060312 
" style="fill:none;stroke:#9467bd;stroke-linecap:square;stroke-width:1.5;"/>
    </g>
    <g id="line2d_29"/>
    <g id="text_21">
     <!-- GRandK-MN-TS (2,6) bits -->
     <g transform="translate(312.65625 292.560312)scale(0.1 -0.1)">
      <use xlink:href="#DejaVuSans-71"/>
      <use x="77.490234" xlink:href="#DejaVuSans-82"/>
      <use x="144.722656" xlink:href="#DejaVuSans-97"/>
      <use x="206.001953" xlink:href="#DejaVuSans-110"/>
      <use x="269.380859" xlink:href="#DejaVuSans-100"/>
      <use x="332.857422" xlink:href="#DejaVuSans-75"/>
      <use x="387.933594" xlink:href="#DejaVuSans-45"/>
      <use x="424.017578" xlink:href="#DejaVuSans-77"/>
      <use x="510.296875" xlink:href="#DejaVuSans-78"/>
      <use x="585.101562" xlink:href="#DejaVuSans-45"/>
      <use x="612.060547" xlink:href="#DejaVuSans-84"/>
      <use x="673.144531" xlink:href="#DejaVuSans-83"/>
      <use x="736.621094" xlink:href="#DejaVuSans-32"/>
      <use x="768.408203" xlink:href="#DejaVuSans-40"/>
      <use x="807.421875" xlink:href="#DejaVuSans-50"/>
      <use x="871.044922" xlink:href="#DejaVuSans-44"/>
      <use x="902.832031" xlink:href="#DejaVuSans-54"/>
      <use x="966.455078" xlink:href="#DejaVuSans-41"/>
      <use x="1005.46875" xlink:href="#DejaVuSans-32"/>
      <use x="1037.255859" xlink:href="#DejaVuSans-98"/>
      <use x="1100.732422" xlink:href="#DejaVuSans-105"/>
      <use x="1128.515625" xlink:href="#DejaVuSans-116"/>
      <use x="1167.724609" xlink:href="#DejaVuSans-115"/>
     </g>
    </g>
   </g>
  </g>
 </g>
 <defs>
  <clipPath id="p693e8513e4">
   <rect height="292.84" width="399.13" x="50.87" y="10.8"/>
  </clipPath>
 </defs>
</svg>
