<?xml version="1.0" encoding="utf-8" standalone="no"?>
<!DOCTYPE svg PUBLIC "-//W3C//DTD SVG 1.1//EN"
  "http://www.w3.org/Graphics/SVG/1.1/DTD/svg11.dtd">
<!-- Created with matplotlib (https://matplotlib.org/) -->
<svg height="345.6pt" version="1.1" viewBox="0 0 460.8 345.6" width="460.8pt" xmlns="http://www.w3.org/2000/svg" xmlns:xlink="http://www.w3.org/1999/xlink">
 <metadata>
  <rdf:RDF xmlns:cc="http://creativecommons.org/ns#" xmlns:dc="http://purl.org/dc/elements/1.1/" xmlns:rdf="http://www.w3.org/1999/02/22-rdf-syntax-ns#">
   <cc:Work>
    <dc:type rdf:resource="http://purl.org/dc/dcmitype/StillImage"/>
    <dc:date>2021-06-10T08:56:52.112334</dc:date>
    <dc:format>image/svg+xml</dc:format>
    <dc:creator>
     <cc:Agent>
      <dc:title>Matplotlib v3.3.1, https://matplotlib.org/</dc:title>
     </cc:Agent>
    </dc:creator>
   </cc:Work>
  </rdf:RDF>
 </metadata>
 <defs>
  <style type="text/css">*{stroke-linecap:butt;stroke-linejoin:round;}</style>
 </defs>
 <g id="figure_1">
  <g id="patch_1">
   <path d="M 0 345.6 
L 460.8 345.6 
L 460.8 0 
L 0 0 
z
" style="fill:#ffffff;"/>
  </g>
  <g id="axes_1">
   <g id="patch_2">
    <path d="M 50.87 303.64 
L 450 303.64 
L 450 10.8 
L 50.87 10.8 
z
" style="fill:#ffffff;"/>
   </g>
   <g id="PolyCollection_1">
    <path clip-path="url(#p5eb75ffc73)" d="M 69.012273 193.382907 
L 69.012273 235.941409 
L 71.447477 155.751287 
L 73.882682 102.244497 
L 76.317886 98.248799 
L 78.75309 76.04516 
L 81.188295 59.341639 
L 83.623499 50.626322 
L 86.058703 58.11343 
L 88.493908 45.496308 
L 90.929112 39.987931 
L 93.364317 38.265957 
L 95.799521 41.945671 
L 98.234725 39.445482 
L 100.66993 36.548048 
L 103.105134 33.267869 
L 105.540339 33.438942 
L 107.975543 37.448348 
L 110.410747 35.470302 
L 112.845952 32.753737 
L 115.281156 35.267622 
L 117.716361 34.499115 
L 120.151565 31.996176 
L 122.586769 30.351964 
L 125.021974 30.832257 
L 127.457178 32.896489 
L 129.892383 35.448817 
L 132.327587 32.946063 
L 134.762791 28.75503 
L 137.197996 31.585376 
L 139.6332 30.179608 
L 142.068405 33.916561 
L 144.503609 32.83166 
L 146.938813 29.868187 
L 149.374018 31.626048 
L 151.809222 31.574155 
L 154.244426 32.403118 
L 156.679631 30.052218 
L 159.114835 34.56264 
L 161.55004 31.356496 
L 163.985244 33.635484 
L 166.420448 30.981416 
L 168.855653 30.793441 
L 171.290857 33.314629 
L 173.726062 32.57002 
L 176.161266 32.185182 
L 178.59647 30.896015 
L 181.031675 29.897532 
L 183.466879 31.086607 
L 185.902084 30.697481 
L 188.337288 30.272712 
L 190.772492 30.509745 
L 193.207697 30.996096 
L 195.642901 32.759583 
L 198.078106 31.697017 
L 200.51331 28.013655 
L 202.948514 27.799358 
L 205.383719 29.116562 
L 207.818923 33.046305 
L 210.254128 29.779597 
L 212.689332 28.185859 
L 215.124536 30.977408 
L 217.559741 29.544847 
L 219.994945 29.703271 
L 222.430149 26.667653 
L 224.865354 28.583539 
L 227.300558 30.281869 
L 229.735763 28.880031 
L 232.170967 28.182039 
L 234.606171 29.206254 
L 237.041376 27.504978 
L 239.47658 31.406446 
L 241.911785 28.24716 
L 244.346989 28.013655 
L 246.782193 30.112914 
L 249.217398 28.484182 
L 251.652602 25.604569 
L 254.087807 27.504978 
L 256.523011 29.059189 
L 258.958215 28.469039 
L 261.39342 29.525517 
L 263.828624 26.689879 
L 266.263829 28.484182 
L 268.699033 27.545019 
L 271.134237 26.127084 
L 273.569442 27.870796 
L 276.004646 28.732675 
L 278.439851 27.177765 
L 280.875055 29.086667 
L 283.310259 27.912518 
L 285.745464 28.4904 
L 288.180668 28.492278 
L 290.615872 27.570685 
L 293.051077 27.062007 
L 295.486281 25.604569 
L 297.921486 26.293096 
L 300.35669 26.229239 
L 302.791894 30.275139 
L 305.227099 27.717215 
L 307.662303 27.988984 
L 310.097508 27.544968 
L 312.532712 27.024928 
L 314.967916 27.889949 
L 317.403121 27.313024 
L 319.838325 27.504978 
L 322.27353 27.142361 
L 324.708734 27.374662 
L 327.143938 25.535976 
L 329.579143 27.177765 
L 332.014347 26.689879 
L 334.449552 25.451966 
L 336.884756 26.293096 
L 339.31996 26.655066 
L 341.755165 26.958151 
L 344.190369 25.451966 
L 346.625574 27.556315 
L 349.060778 25.688579 
L 351.495982 26.127084 
L 353.931187 26.756801 
L 356.366391 27.46972 
L 358.801595 27.71532 
L 361.2368 27.46972 
L 363.672004 28.972759 
L 366.107209 25.230769 
L 368.542413 25.230769 
L 370.977617 26.229239 
L 373.412822 26.604198 
L 375.848026 25.604569 
L 378.283231 25.230769 
L 380.718435 25.451966 
L 383.153639 26.127084 
L 385.588844 25.451966 
L 388.024048 26.229239 
L 390.459253 25.230769 
L 392.894457 25.230769 
L 395.329661 25.230769 
L 397.764866 25.451966 
L 400.20007 25.451966 
L 402.635275 25.230769 
L 405.070479 24.77296 
L 407.505683 25.604569 
L 409.940888 25.604569 
L 412.376092 25.451966 
L 414.811297 25.451966 
L 417.246501 25.451966 
L 419.681705 25.604569 
L 422.11691 25.604569 
L 424.552114 25.451966 
L 426.987318 25.451966 
L 429.422523 25.451966 
L 431.857727 25.451966 
L 431.857727 24.704366 
L 431.857727 24.704366 
L 429.422523 24.704366 
L 426.987318 24.704366 
L 424.552114 24.704366 
L 422.11691 24.85697 
L 419.681705 24.85697 
L 417.246501 24.704366 
L 414.811297 24.704366 
L 412.376092 24.704366 
L 409.940888 24.85697 
L 407.505683 24.85697 
L 405.070479 24.77296 
L 402.635275 24.620357 
L 400.20007 24.704366 
L 397.764866 24.704366 
L 395.329661 24.620357 
L 392.894457 24.620357 
L 390.459253 24.620357 
L 388.024048 24.740977 
L 385.588844 24.704366 
L 383.153639 24.537926 
L 380.718435 24.704366 
L 378.283231 24.620357 
L 375.848026 24.85697 
L 373.412822 24.162547 
L 370.977617 24.740977 
L 368.542413 24.620357 
L 366.107209 24.620357 
L 363.672004 24.337372 
L 361.2368 24.110909 
L 358.801595 24.475721 
L 356.366391 24.110909 
L 353.931187 24.11168 
L 351.495982 24.537926 
L 349.060778 25.078166 
L 346.625574 24.32952 
L 344.190369 24.704366 
L 341.755165 24.520743 
L 339.31996 24.823828 
L 336.884756 24.982327 
L 334.449552 24.704366 
L 332.014347 25.094221 
L 329.579143 25.318482 
L 327.143938 25.535976 
L 324.708734 25.630263 
L 322.27353 24.743474 
L 319.838325 25.601682 
L 317.403121 24.979753 
L 314.967916 25.114976 
L 312.532712 24.759172 
L 310.097508 25.256486 
L 307.662303 25.015941 
L 305.227099 25.592916 
L 302.791894 24.764495 
L 300.35669 24.740977 
L 297.921486 24.982327 
L 295.486281 24.85697 
L 293.051077 26.044653 
L 290.615872 26.55333 
L 288.180668 25.021324 
L 285.745464 25.328408 
L 283.310259 26.109761 
L 280.875055 25.749496 
L 278.439851 25.318482 
L 276.004646 25.493076 
L 273.569442 24.828923 
L 271.134237 24.537926 
L 268.699033 24.747757 
L 266.263829 26.046774 
L 263.828624 25.094221 
L 261.39342 25.00544 
L 258.958215 24.739356 
L 256.523011 25.166562 
L 254.087807 25.601682 
L 251.652602 24.85697 
L 249.217398 26.046774 
L 246.782193 25.638868 
L 244.346989 26.110359 
L 241.911785 24.656029 
L 239.47658 28.007812 
L 237.041376 25.601682 
L 234.606171 26.545527 
L 232.170967 25.433299 
L 229.735763 25.956132 
L 227.300558 26.690738 
L 224.865354 26.863037 
L 222.430149 25.421653 
L 219.994945 26.353717 
L 217.559741 26.613877 
L 215.124536 27.31776 
L 212.689332 24.920801 
L 210.254128 25.565244 
L 207.818923 27.487043 
L 205.383719 26.228278 
L 202.948514 25.002096 
L 200.51331 26.110359 
L 198.078106 27.412034 
L 195.642901 26.145997 
L 193.207697 26.485188 
L 190.772492 26.157656 
L 188.337288 28.124191 
L 185.902084 26.987274 
L 183.466879 24.665175 
L 181.031675 25.752515 
L 178.59647 28.416507 
L 176.161266 29.874197 
L 173.726062 26.945973 
L 171.290857 30.169046 
L 168.855653 26.484372 
L 166.420448 25.991191 
L 163.985244 26.897863 
L 161.55004 27.142143 
L 159.114835 27.70021 
L 156.679631 28.649892 
L 154.244426 29.351055 
L 151.809222 27.127955 
L 149.374018 26.66912 
L 146.938813 26.799214 
L 144.503609 28.617307 
L 142.068405 25.090755 
L 139.6332 26.284322 
L 137.197996 28.235823 
L 134.762791 27.301958 
L 132.327587 28.909845 
L 129.892383 28.136593 
L 127.457178 27.84033 
L 125.021974 28.683736 
L 122.586769 27.536262 
L 120.151565 29.147584 
L 117.716361 26.542909 
L 115.281156 30.861174 
L 112.845952 27.067463 
L 110.410747 26.385606 
L 107.975543 29.392597 
L 105.540339 29.637792 
L 103.105134 29.808864 
L 100.66993 29.173807 
L 98.234725 33.70306 
L 95.799521 35.67923 
L 93.364317 34.882585 
L 90.929112 35.297055 
L 88.493908 36.503217 
L 86.058703 45.454009 
L 83.623499 41.343277 
L 81.188295 51.855957 
L 78.75309 63.434889 
L 76.317886 77.957743 
L 73.882682 87.798065 
L 71.447477 101.029724 
L 69.012273 193.382907 
z
" style="fill:#1f77b4;fill-opacity:0.25;"/>
   </g>
   <g id="PolyCollection_2">
    <path clip-path="url(#p5eb75ffc73)" d="M 69.012273 282.238724 
L 69.012273 290.329091 
L 71.447477 264.175018 
L 73.882682 222.861776 
L 76.317886 182.537769 
L 78.75309 141.053125 
L 81.188295 125.871545 
L 83.623499 99.201101 
L 86.058703 91.767398 
L 88.493908 80.373462 
L 90.929112 66.911314 
L 93.364317 60.082218 
L 95.799521 55.446744 
L 98.234725 47.324523 
L 100.66993 50.497606 
L 103.105134 50.125398 
L 105.540339 54.542158 
L 107.975543 63.579881 
L 110.410747 42.780133 
L 112.845952 40.117251 
L 115.281156 42.332255 
L 117.716361 41.497399 
L 120.151565 42.339443 
L 122.586769 41.482352 
L 125.021974 39.024187 
L 127.457178 41.418605 
L 129.892383 38.185676 
L 132.327587 45.914235 
L 134.762791 35.680665 
L 137.197996 36.426749 
L 139.6332 36.187268 
L 142.068405 34.289073 
L 144.503609 37.610276 
L 146.938813 32.914105 
L 149.374018 38.314356 
L 151.809222 34.829655 
L 154.244426 36.088289 
L 156.679631 39.016742 
L 159.114835 43.133261 
L 161.55004 42.457722 
L 163.985244 36.425519 
L 166.420448 34.728568 
L 168.855653 33.309816 
L 171.290857 40.798411 
L 173.726062 37.667273 
L 176.161266 33.58236 
L 178.59647 38.696117 
L 181.031675 34.516604 
L 183.466879 33.470775 
L 185.902084 35.430397 
L 188.337288 31.460718 
L 190.772492 34.725908 
L 193.207697 33.601739 
L 195.642901 32.086987 
L 198.078106 34.614885 
L 200.51331 33.140579 
L 202.948514 35.23836 
L 205.383719 30.374987 
L 207.818923 31.422166 
L 210.254128 33.0834 
L 212.689332 29.059189 
L 215.124536 30.306557 
L 217.559741 32.160429 
L 219.994945 28.108653 
L 222.430149 34.189963 
L 224.865354 33.267869 
L 227.300558 30.796533 
L 229.735763 28.707827 
L 232.170967 32.032336 
L 234.606171 31.260487 
L 237.041376 28.583539 
L 239.47658 33.650138 
L 241.911785 28.057663 
L 244.346989 30.59348 
L 246.782193 29.054903 
L 249.217398 30.168372 
L 251.652602 29.388516 
L 254.087807 27.544968 
L 256.523011 30.016147 
L 258.958215 29.437181 
L 261.39342 28.66959 
L 263.828624 28.303783 
L 266.263829 30.854776 
L 268.699033 29.561104 
L 271.134237 30.635425 
L 273.569442 28.227247 
L 276.004646 28.358926 
L 278.439851 29.726288 
L 280.875055 26.921991 
L 283.310259 30.545099 
L 285.745464 29.920464 
L 288.180668 27.600998 
L 290.615872 27.570685 
L 293.051077 27.945106 
L 295.486281 29.517716 
L 297.921486 26.921991 
L 300.35669 27.912518 
L 302.791894 27.717215 
L 305.227099 26.293096 
L 307.662303 27.313024 
L 310.097508 26.991466 
L 312.532712 29.168534 
L 314.967916 27.024928 
L 317.403121 26.689879 
L 319.838325 28.564166 
L 322.27353 28.087165 
L 324.708734 26.229239 
L 327.143938 28.227247 
L 329.579143 28.843716 
L 332.014347 25.604569 
L 334.449552 27.80535 
L 336.884756 27.316346 
L 339.31996 27.177765 
L 341.755165 27.274602 
L 344.190369 26.127084 
L 346.625574 27.374662 
L 349.060778 26.229239 
L 351.495982 27.67242 
L 353.931187 26.655066 
L 356.366391 27.313024 
L 358.801595 26.655066 
L 361.2368 26.229239 
L 363.672004 25.451966 
L 366.107209 26.293096 
L 368.542413 25.688579 
L 370.977617 25.451966 
L 373.412822 25.604569 
L 375.848026 25.230769 
L 378.283231 25.451966 
L 380.718435 25.451966 
L 383.153639 26.127084 
L 385.588844 26.229239 
L 388.024048 26.229239 
L 390.459253 25.993785 
L 392.894457 25.604569 
L 395.329661 26.229239 
L 397.764866 26.229239 
L 400.20007 25.604569 
L 402.635275 25.451966 
L 405.070479 26.229239 
L 407.505683 26.293096 
L 409.940888 26.229239 
L 412.376092 26.127084 
L 414.811297 25.604569 
L 417.246501 25.604569 
L 419.681705 26.229239 
L 422.11691 26.127084 
L 424.552114 26.229239 
L 426.987318 26.229239 
L 429.422523 26.229239 
L 431.857727 26.229239 
L 431.857727 24.740977 
L 431.857727 24.740977 
L 429.422523 24.740977 
L 426.987318 24.740977 
L 424.552114 24.740977 
L 422.11691 24.537926 
L 419.681705 24.740977 
L 417.246501 24.85697 
L 414.811297 24.85697 
L 412.376092 24.537926 
L 409.940888 24.740977 
L 407.505683 24.982327 
L 405.070479 24.740977 
L 402.635275 24.704366 
L 400.20007 24.85697 
L 397.764866 24.740977 
L 395.329661 24.740977 
L 392.894457 24.85697 
L 390.459253 24.366018 
L 388.024048 24.740977 
L 385.588844 24.740977 
L 383.153639 24.537926 
L 380.718435 24.704366 
L 378.283231 24.704366 
L 375.848026 24.620357 
L 373.412822 24.85697 
L 370.977617 24.704366 
L 368.542413 25.078166 
L 366.107209 24.982327 
L 363.672004 24.704366 
L 361.2368 24.740977 
L 358.801595 24.823828 
L 356.366391 24.979753 
L 353.931187 24.823828 
L 351.495982 24.823828 
L 349.060778 24.740977 
L 346.625574 25.630263 
L 344.190369 24.537926 
L 341.755165 24.712969 
L 339.31996 25.318482 
L 336.884756 25.281637 
L 334.449552 26.115194 
L 332.014347 24.85697 
L 329.579143 24.975093 
L 327.143938 25.489826 
L 324.708734 24.740977 
L 322.27353 25.426438 
L 319.838325 25.661584 
L 317.403121 25.094221 
L 314.967916 24.759172 
L 312.532712 25.565893 
L 310.097508 25.30131 
L 307.662303 24.979753 
L 305.227099 24.982327 
L 302.791894 25.592916 
L 300.35669 26.109761 
L 297.921486 25.675992 
L 295.486281 26.742743 
L 293.051077 25.670232 
L 290.615872 26.55333 
L 288.180668 25.607398 
L 285.745464 26.238259 
L 283.310259 26.224037 
L 280.875055 25.675992 
L 278.439851 26.330701 
L 276.004646 25.256412 
L 273.569442 25.489826 
L 271.134237 26.540653 
L 268.699033 26.801091 
L 266.263829 27.745598 
L 263.828624 24.701142 
L 261.39342 24.844012 
L 258.958215 25.805924 
L 256.523011 25.939106 
L 254.087807 25.256486 
L 251.652602 27.278885 
L 249.217398 26.397293 
L 246.782193 26.188201 
L 244.346989 26.379127 
L 241.911785 25.455939 
L 239.47658 27.697093 
L 237.041376 26.863037 
L 234.606171 28.865919 
L 232.170967 28.704483 
L 229.735763 25.823129 
L 227.300558 29.431609 
L 224.865354 29.808864 
L 222.430149 28.988506 
L 219.994945 26.93098 
L 217.559741 28.372918 
L 215.124536 28.90423 
L 212.689332 25.166562 
L 210.254128 28.162096 
L 207.818923 29.111181 
L 205.383719 27.614974 
L 202.948514 28.855728 
L 200.51331 27.79971 
L 198.078106 28.665319 
L 195.642901 27.123799 
L 193.207697 30.594084 
L 190.772492 27.943884 
L 188.337288 27.139656 
L 185.902084 28.46022 
L 183.466879 28.893811 
L 181.031675 30.594838 
L 178.59647 29.670859 
L 176.161266 29.392638 
L 173.726062 28.76673 
L 171.290857 31.027571 
L 168.855653 29.258241 
L 166.420448 32.417583 
L 163.985244 29.703277 
L 161.55004 34.353296 
L 159.114835 33.474286 
L 156.679631 32.707504 
L 154.244426 32.075216 
L 151.809222 29.366168 
L 149.374018 30.96824 
L 146.938813 30.671306 
L 144.503609 30.654964 
L 142.068405 30.924105 
L 139.6332 31.365824 
L 137.197996 31.838492 
L 134.762791 30.956809 
L 132.327587 37.00091 
L 129.892383 31.402126 
L 127.457178 34.883736 
L 125.021974 30.563614 
L 122.586769 32.581809 
L 120.151565 33.555956 
L 117.716361 35.415355 
L 115.281156 37.632562 
L 112.845952 35.472942 
L 110.410747 35.862123 
L 107.975543 46.498625 
L 105.540339 38.444795 
L 103.105134 37.876518 
L 100.66993 45.846616 
L 98.234725 40.372187 
L 95.799521 41.30442 
L 93.364317 49.08067 
L 90.929112 59.343127 
L 88.493908 67.95757 
L 86.058703 76.096838 
L 83.623499 81.27833 
L 81.188295 89.299671 
L 78.75309 113.998383 
L 76.317886 142.100779 
L 73.882682 184.487686 
L 71.447477 255.795575 
L 69.012273 282.238724 
z
" style="fill:#ff7f0e;fill-opacity:0.25;"/>
   </g>
   <g id="PolyCollection_3">
    <path clip-path="url(#p5eb75ffc73)" d="M 69.012273 276.302242 
L 69.012273 286.804178 
L 71.447477 259.18681 
L 73.882682 205.187538 
L 76.317886 162.648784 
L 78.75309 141.216696 
L 81.188295 120.368009 
L 83.623499 93.091092 
L 86.058703 87.240102 
L 88.493908 93.462652 
L 90.929112 59.449251 
L 93.364317 54.065939 
L 95.799521 54.143639 
L 98.234725 48.439457 
L 100.66993 47.986338 
L 103.105134 44.714716 
L 105.540339 52.960166 
L 107.975543 66.229215 
L 110.410747 39.804192 
L 112.845952 42.257294 
L 115.281156 37.55399 
L 117.716361 40.955174 
L 120.151565 40.066438 
L 122.586769 41.803161 
L 125.021974 38.990345 
L 127.457178 43.211057 
L 129.892383 45.874836 
L 132.327587 36.668961 
L 134.762791 37.590093 
L 137.197996 34.847868 
L 139.6332 38.742886 
L 142.068405 33.420472 
L 144.503609 37.927947 
L 146.938813 34.549885 
L 149.374018 34.439687 
L 151.809222 37.033897 
L 154.244426 38.950825 
L 156.679631 42.892663 
L 159.114835 48.119548 
L 161.55004 40.162104 
L 163.985244 37.498163 
L 166.420448 35.021459 
L 168.855653 31.661403 
L 171.290857 35.024588 
L 173.726062 35.791324 
L 176.161266 36.649783 
L 178.59647 34.758433 
L 181.031675 34.963401 
L 183.466879 32.042326 
L 185.902084 32.68777 
L 188.337288 30.672795 
L 190.772492 34.208772 
L 193.207697 31.316362 
L 195.642901 33.418409 
L 198.078106 34.17499 
L 200.51331 31.813779 
L 202.948514 34.692817 
L 205.383719 32.405429 
L 207.818923 33.502979 
L 210.254128 30.864329 
L 212.689332 30.278775 
L 215.124536 30.306557 
L 217.559741 31.15127 
L 219.994945 30.068277 
L 222.430149 34.398162 
L 224.865354 31.423225 
L 227.300558 32.197872 
L 229.735763 31.156495 
L 232.170967 32.354743 
L 234.606171 31.268054 
L 237.041376 32.507008 
L 239.47658 30.832797 
L 241.911785 29.348933 
L 244.346989 29.113964 
L 246.782193 29.826515 
L 249.217398 29.417435 
L 251.652602 29.054903 
L 254.087807 31.8024 
L 256.523011 28.484182 
L 258.958215 29.71381 
L 261.39342 29.225298 
L 263.828624 28.484182 
L 266.263829 29.43048 
L 268.699033 29.726288 
L 271.134237 29.41502 
L 273.569442 29.590408 
L 276.004646 27.544968 
L 278.439851 28.748618 
L 280.875055 28.28693 
L 283.310259 27.945106 
L 285.745464 28.725657 
L 288.180668 29.437181 
L 290.615872 27.544968 
L 293.051077 26.991466 
L 295.486281 27.177765 
L 297.921486 28.358926 
L 300.35669 27.024928 
L 302.791894 28.951715 
L 305.227099 26.689879 
L 307.662303 27.316346 
L 310.097508 28.77213 
L 312.532712 27.840654 
L 314.967916 28.119586 
L 317.403121 28.013655 
L 319.838325 27.544968 
L 322.27353 29.002582 
L 324.708734 25.688579 
L 327.143938 28.164391 
L 329.579143 26.991466 
L 332.014347 26.689879 
L 334.449552 26.991466 
L 336.884756 27.504978 
L 339.31996 26.921991 
L 341.755165 28.3337 
L 344.190369 27.717215 
L 346.625574 26.293096 
L 349.060778 27.179373 
L 351.495982 26.718035 
L 353.931187 25.688579 
L 356.366391 26.667653 
L 358.801595 26.293096 
L 361.2368 26.958151 
L 363.672004 26.229239 
L 366.107209 25.993785 
L 368.542413 25.451966 
L 370.977617 25.451966 
L 373.412822 26.293096 
L 375.848026 25.230769 
L 378.283231 24.77296 
L 380.718435 25.230769 
L 383.153639 26.127084 
L 385.588844 24.77296 
L 388.024048 25.451966 
L 390.459253 25.451966 
L 392.894457 26.229239 
L 395.329661 25.451966 
L 397.764866 25.604569 
L 400.20007 25.230769 
L 402.635275 25.230769 
L 405.070479 25.230769 
L 407.505683 25.230769 
L 409.940888 25.230769 
L 412.376092 25.230769 
L 414.811297 25.230769 
L 417.246501 25.230769 
L 419.681705 25.230769 
L 422.11691 25.451966 
L 424.552114 25.230769 
L 426.987318 25.230769 
L 429.422523 25.230769 
L 431.857727 25.230769 
L 431.857727 24.620357 
L 431.857727 24.620357 
L 429.422523 24.620357 
L 426.987318 24.620357 
L 424.552114 24.620357 
L 422.11691 24.704366 
L 419.681705 24.620357 
L 417.246501 24.620357 
L 414.811297 24.620357 
L 412.376092 24.620357 
L 409.940888 24.620357 
L 407.505683 24.620357 
L 405.070479 24.620357 
L 402.635275 24.620357 
L 400.20007 24.620357 
L 397.764866 24.85697 
L 395.329661 24.704366 
L 392.894457 24.740977 
L 390.459253 24.704366 
L 388.024048 24.704366 
L 385.588844 24.77296 
L 383.153639 24.537926 
L 380.718435 24.620357 
L 378.283231 24.77296 
L 375.848026 24.620357 
L 373.412822 24.982327 
L 370.977617 24.704366 
L 368.542413 24.704366 
L 366.107209 24.366018 
L 363.672004 24.740977 
L 361.2368 24.520743 
L 358.801595 24.982327 
L 356.366391 25.421653 
L 353.931187 25.078166 
L 351.495982 24.353917 
L 349.060778 25.011668 
L 346.625574 24.982327 
L 344.190369 25.592916 
L 341.755165 26.298992 
L 339.31996 25.675992 
L 336.884756 25.601682 
L 334.449552 25.30131 
L 332.014347 25.094221 
L 329.579143 25.30131 
L 327.143938 25.857889 
L 324.708734 25.078166 
L 322.27353 26.95267 
L 319.838325 25.256486 
L 317.403121 26.110359 
L 314.967916 25.699223 
L 312.532712 25.672949 
L 310.097508 25.45362 
L 307.662303 25.281637 
L 305.227099 25.094221 
L 302.791894 26.901802 
L 300.35669 24.759172 
L 297.921486 25.256412 
L 295.486281 25.318482 
L 293.051077 25.30131 
L 290.615872 25.256486 
L 288.180668 25.805924 
L 285.745464 25.8053 
L 283.310259 25.670232 
L 280.875055 25.124937 
L 278.439851 25.171926 
L 276.004646 25.256486 
L 273.569442 26.670051 
L 271.134237 26.438497 
L 268.699033 26.330701 
L 266.263829 26.321301 
L 263.828624 26.046774 
L 261.39342 26.017807 
L 258.958215 25.834501 
L 256.523011 26.046774 
L 254.087807 26.187562 
L 251.652602 26.188201 
L 249.217398 26.232612 
L 246.782193 27.756505 
L 244.346989 27.146495 
L 241.911785 26.911526 
L 239.47658 28.072784 
L 237.041376 26.500308 
L 234.606171 28.044469 
L 232.170967 27.161251 
L 229.735763 29.376852 
L 227.300558 27.826798 
L 224.865354 29.313594 
L 222.430149 27.457746 
L 219.994945 28.02342 
L 217.559741 28.262987 
L 215.124536 28.90423 
L 212.689332 27.914657 
L 210.254128 26.820426 
L 207.818923 26.928633 
L 205.383719 26.805358 
L 202.948514 26.756149 
L 200.51331 28.109156 
L 198.078106 30.52951 
L 195.642901 29.658324 
L 193.207697 28.403102 
L 190.772492 29.885315 
L 188.337288 27.520638 
L 185.902084 30.69417 
L 183.466879 29.304905 
L 181.031675 30.046305 
L 178.59647 29.030448 
L 176.161266 29.275543 
L 173.726062 29.320118 
L 171.290857 29.578177 
L 168.855653 27.752855 
L 166.420448 30.700396 
L 163.985244 28.732369 
L 161.55004 34.308999 
L 159.114835 31.336592 
L 156.679631 34.732238 
L 154.244426 31.145654 
L 151.809222 31.33308 
L 149.374018 30.264814 
L 146.938813 31.782382 
L 144.503609 31.659855 
L 142.068405 31.385764 
L 139.6332 31.150122 
L 137.197996 30.670516 
L 134.762791 29.149116 
L 132.327587 31.901486 
L 129.892383 32.360478 
L 127.457178 35.634669 
L 125.021974 34.463404 
L 122.586769 33.176619 
L 120.151565 32.776897 
L 117.716361 32.295103 
L 115.281156 32.847695 
L 112.845952 35.876284 
L 110.410747 36.192942 
L 107.975543 33.065335 
L 105.540339 43.384056 
L 103.105134 36.674397 
L 100.66993 42.558964 
L 98.234725 40.071137 
L 95.799521 37.825959 
L 93.364317 41.566135 
L 90.929112 49.611902 
L 88.493908 60.870771 
L 86.058703 65.974231 
L 83.623499 79.147768 
L 81.188295 91.649408 
L 78.75309 108.544569 
L 76.317886 139.201027 
L 73.882682 176.829799 
L 71.447477 245.726938 
L 69.012273 276.302242 
z
" style="fill:#2ca02c;fill-opacity:0.25;"/>
   </g>
   <g id="PolyCollection_4">
    <path clip-path="url(#p5eb75ffc73)" d="M 69.012273 280.407925 
L 69.012273 286.36097 
L 71.447477 265.818448 
L 73.882682 199.355009 
L 76.317886 150.971423 
L 78.75309 127.40293 
L 81.188295 120.404671 
L 83.623499 83.967618 
L 86.058703 88.017969 
L 88.493908 77.817946 
L 90.929112 66.836731 
L 93.364317 56.201873 
L 95.799521 61.368391 
L 98.234725 59.532414 
L 100.66993 52.179747 
L 103.105134 43.023851 
L 105.540339 51.597099 
L 107.975543 59.972466 
L 110.410747 43.154744 
L 112.845952 42.87391 
L 115.281156 43.578495 
L 117.716361 38.695876 
L 120.151565 43.467469 
L 122.586769 41.698298 
L 125.021974 39.387641 
L 127.457178 47.301102 
L 129.892383 36.710057 
L 132.327587 39.66009 
L 134.762791 37.175416 
L 137.197996 37.762589 
L 139.6332 31.859418 
L 142.068405 38.057538 
L 144.503609 36.25174 
L 146.938813 33.984154 
L 149.374018 39.765782 
L 151.809222 40.003323 
L 154.244426 36.376323 
L 156.679631 42.660707 
L 159.114835 42.836321 
L 161.55004 36.992072 
L 163.985244 39.649637 
L 166.420448 37.238908 
L 168.855653 35.225866 
L 171.290857 34.725624 
L 173.726062 36.554734 
L 176.161266 34.854463 
L 178.59647 44.136375 
L 181.031675 33.135205 
L 183.466879 32.341326 
L 185.902084 31.423225 
L 188.337288 32.231997 
L 190.772492 33.186505 
L 193.207697 31.966259 
L 195.642901 30.91198 
L 198.078106 38.629401 
L 200.51331 32.947781 
L 202.948514 30.677523 
L 205.383719 30.896015 
L 207.818923 30.091761 
L 210.254128 31.723822 
L 212.689332 32.320311 
L 215.124536 29.612287 
L 217.559741 31.965154 
L 219.994945 32.453986 
L 222.430149 32.738391 
L 224.865354 29.689113 
L 227.300558 29.943451 
L 229.735763 28.417151 
L 232.170967 29.853836 
L 234.606171 32.721703 
L 237.041376 29.735104 
L 239.47658 30.305531 
L 241.911785 29.41502 
L 244.346989 31.452143 
L 246.782193 30.501301 
L 249.217398 30.40947 
L 251.652602 32.032336 
L 254.087807 28.871863 
L 256.523011 26.667653 
L 258.958215 29.348933 
L 261.39342 28.679131 
L 263.828624 29.002582 
L 266.263829 29.889218 
L 268.699033 32.191495 
L 271.134237 28.403218 
L 273.569442 28.75503 
L 276.004646 29.079029 
L 278.439851 29.61047 
L 280.875055 29.113964 
L 283.310259 28.649766 
L 285.745464 28.330871 
L 288.180668 28.013655 
L 290.615872 28.809562 
L 293.051077 29.842681 
L 295.486281 29.116562 
L 297.921486 26.991466 
L 300.35669 29.154254 
L 302.791894 29.37628 
L 305.227099 26.667653 
L 307.662303 26.293096 
L 310.097508 28.880031 
L 312.532712 29.364336 
L 314.967916 28.164391 
L 317.403121 28.583539 
L 319.838325 28.164391 
L 322.27353 28.89147 
L 324.708734 27.504978 
L 327.143938 25.535976 
L 329.579143 29.829244 
L 332.014347 27.504978 
L 334.449552 27.316346 
L 336.884756 26.655066 
L 339.31996 26.809979 
L 341.755165 26.229239 
L 344.190369 26.229239 
L 346.625574 26.991466 
L 349.060778 27.504978 
L 351.495982 26.667653 
L 353.931187 26.958151 
L 356.366391 25.604569 
L 358.801595 25.688579 
L 361.2368 27.544968 
L 363.672004 25.604569 
L 366.107209 26.229239 
L 368.542413 26.667653 
L 370.977617 25.688579 
L 373.412822 25.535976 
L 375.848026 25.451966 
L 378.283231 25.604569 
L 380.718435 26.655066 
L 383.153639 25.451966 
L 385.588844 24.77296 
L 388.024048 25.230769 
L 390.459253 25.451966 
L 392.894457 25.451966 
L 395.329661 26.127084 
L 397.764866 25.604569 
L 400.20007 25.604569 
L 402.635275 25.451966 
L 405.070479 25.451966 
L 407.505683 25.451966 
L 409.940888 25.604569 
L 412.376092 26.229239 
L 414.811297 26.229239 
L 417.246501 25.604569 
L 419.681705 26.229239 
L 422.11691 26.229239 
L 424.552114 26.229239 
L 426.987318 25.604569 
L 429.422523 26.229239 
L 431.857727 25.604569 
L 431.857727 24.85697 
L 431.857727 24.85697 
L 429.422523 24.740977 
L 426.987318 24.85697 
L 424.552114 24.740977 
L 422.11691 24.740977 
L 419.681705 24.740977 
L 417.246501 24.85697 
L 414.811297 24.740977 
L 412.376092 24.740977 
L 409.940888 24.85697 
L 407.505683 24.704366 
L 405.070479 24.704366 
L 402.635275 24.704366 
L 400.20007 24.85697 
L 397.764866 24.85697 
L 395.329661 24.537926 
L 392.894457 24.704366 
L 390.459253 24.704366 
L 388.024048 24.620357 
L 385.588844 24.77296 
L 383.153639 24.704366 
L 380.718435 24.823828 
L 378.283231 24.85697 
L 375.848026 24.704366 
L 373.412822 25.535976 
L 370.977617 25.078166 
L 368.542413 25.421653 
L 366.107209 24.740977 
L 363.672004 24.85697 
L 361.2368 25.256486 
L 358.801595 25.078166 
L 356.366391 24.85697 
L 353.931187 24.520743 
L 351.495982 25.421653 
L 349.060778 25.601682 
L 346.625574 25.30131 
L 344.190369 24.740977 
L 341.755165 24.740977 
L 339.31996 24.567179 
L 336.884756 24.823828 
L 334.449552 25.281637 
L 332.014347 25.601682 
L 329.579143 26.634686 
L 327.143938 25.535976 
L 324.708734 25.601682 
L 322.27353 24.520397 
L 319.838325 25.857889 
L 317.403121 26.863037 
L 314.967916 25.857889 
L 312.532712 25.064885 
L 310.097508 25.956132 
L 307.662303 24.982327 
L 305.227099 25.421653 
L 302.791894 26.273766 
L 300.35669 27.20794 
L 297.921486 25.30131 
L 295.486281 26.228278 
L 293.051077 26.82472 
L 290.615872 25.924865 
L 288.180668 26.110359 
L 285.745464 25.589672 
L 283.310259 25.779456 
L 280.875055 27.146495 
L 278.439851 27.056931 
L 276.004646 25.146721 
L 273.569442 27.301958 
L 271.134237 26.026003 
L 268.699033 27.121027 
L 266.263829 27.490331 
L 263.828624 26.95267 
L 261.39342 26.258768 
L 258.958215 26.911526 
L 256.523011 25.421653 
L 254.087807 26.472977 
L 251.652602 28.704483 
L 249.217398 26.461401 
L 246.782193 27.895602 
L 244.346989 28.26732 
L 241.911785 26.438497 
L 239.47658 26.870547 
L 237.041376 25.914942 
L 234.606171 27.099497 
L 232.170967 28.543067 
L 229.735763 25.605128 
L 227.300558 27.232627 
L 224.865354 26.978288 
L 222.430149 28.405369 
L 219.994945 26.960272 
L 217.559741 29.076871 
L 215.124536 28.47941 
L 212.689332 29.840803 
L 210.254128 29.012997 
L 207.818923 26.982582 
L 205.383719 28.416507 
L 202.948514 28.024587 
L 200.51331 28.094244 
L 198.078106 30.246253 
L 195.642901 27.688395 
L 193.207697 28.363618 
L 190.772492 28.974609 
L 188.337288 27.080525 
L 185.902084 29.313594 
L 183.466879 27.378138 
L 181.031675 28.313761 
L 178.59647 31.657288 
L 176.161266 29.239625 
L 173.726062 28.760179 
L 171.290857 30.284083 
L 168.855653 33.649787 
L 166.420448 31.840216 
L 163.985244 29.632958 
L 161.55004 34.121762 
L 159.114835 34.076433 
L 156.679631 34.048575 
L 154.244426 31.685447 
L 151.809222 30.703568 
L 149.374018 30.534167 
L 146.938813 29.601257 
L 144.503609 33.132591 
L 142.068405 33.259766 
L 139.6332 26.944427 
L 137.197996 31.825213 
L 134.762791 32.717592 
L 132.327587 32.267626 
L 129.892383 32.572538 
L 127.457178 34.901894 
L 125.021974 31.929663 
L 122.586769 34.298837 
L 120.151565 36.192141 
L 117.716361 36.792581 
L 115.281156 34.758554 
L 112.845952 36.378758 
L 110.410747 34.063215 
L 107.975543 46.443565 
L 105.540339 40.677706 
L 103.105134 38.161791 
L 100.66993 43.655798 
L 98.234725 40.881225 
L 95.799521 43.92855 
L 93.364317 50.214157 
L 90.929112 51.991024 
L 88.493908 62.374251 
L 86.058703 64.382481 
L 83.623499 72.197043 
L 81.188295 107.38174 
L 78.75309 107.30149 
L 76.317886 131.345183 
L 73.882682 171.776635 
L 71.447477 237.060591 
L 69.012273 280.407925 
z
" style="fill:#d62728;fill-opacity:0.25;"/>
   </g>
   <g id="PolyCollection_5">
    <path clip-path="url(#p5eb75ffc73)" d="M 69.012273 285.225795 
L 69.012273 287.647227 
L 71.447477 262.294184 
L 73.882682 216.488417 
L 76.317886 187.325811 
L 78.75309 188.404036 
L 81.188295 132.037531 
L 83.623499 104.544137 
L 86.058703 105.346853 
L 88.493908 80.12389 
L 90.929112 68.665846 
L 93.364317 61.64923 
L 95.799521 44.744958 
L 98.234725 59.249502 
L 100.66993 49.691404 
L 103.105134 45.506929 
L 105.540339 44.7228 
L 107.975543 45.337003 
L 110.410747 41.288258 
L 112.845952 41.493602 
L 115.281156 46.681781 
L 117.716361 44.468699 
L 120.151565 40.134103 
L 122.586769 42.814682 
L 125.021974 38.565577 
L 127.457178 41.269342 
L 129.892383 38.273277 
L 132.327587 41.64426 
L 134.762791 38.811011 
L 137.197996 37.080548 
L 139.6332 34.130126 
L 142.068405 38.506474 
L 144.503609 37.536451 
L 146.938813 35.646379 
L 149.374018 37.846294 
L 151.809222 36.551682 
L 154.244426 35.572604 
L 156.679631 45.46272 
L 159.114835 34.856212 
L 161.55004 38.615909 
L 163.985244 35.886767 
L 166.420448 34.032136 
L 168.855653 31.796517 
L 171.290857 32.422409 
L 173.726062 35.491037 
L 176.161266 41.023758 
L 178.59647 36.394707 
L 181.031675 37.782686 
L 183.466879 31.420186 
L 185.902084 33.318737 
L 188.337288 30.477039 
L 190.772492 30.484167 
L 193.207697 29.907278 
L 195.642901 29.611972 
L 198.078106 36.316514 
L 200.51331 30.168372 
L 202.948514 29.872405 
L 205.383719 31.128103 
L 207.818923 32.469096 
L 210.254128 32.702099 
L 212.689332 30.521783 
L 215.124536 32.568107 
L 217.559741 30.164938 
L 219.994945 30.48534 
L 222.430149 32.044923 
L 224.865354 34.02749 
L 227.300558 31.697017 
L 229.735763 28.707715 
L 232.170967 29.712645 
L 234.606171 34.930877 
L 237.041376 31.024971 
L 239.47658 31.037138 
L 241.911785 31.939521 
L 244.346989 31.958541 
L 246.782193 30.036453 
L 249.217398 30.588351 
L 251.652602 32.8453 
L 254.087807 29.103294 
L 256.523011 28.181097 
L 258.958215 28.656848 
L 261.39342 28.267336 
L 263.828624 31.162303 
L 266.263829 30.764084 
L 268.699033 28.446066 
L 271.134237 27.374662 
L 273.569442 29.726288 
L 276.004646 28.8768 
L 278.439851 30.40947 
L 280.875055 29.568356 
L 283.310259 29.544847 
L 285.745464 27.539002 
L 288.180668 30.996096 
L 290.615872 27.611958 
L 293.051077 28.255872 
L 295.486281 29.304419 
L 297.921486 27.912518 
L 300.35669 27.274602 
L 302.791894 28.013655 
L 305.227099 27.840654 
L 307.662303 27.945106 
L 310.097508 26.807669 
L 312.532712 29.225298 
L 314.967916 28.308007 
L 317.403121 27.945106 
L 319.838325 28.013655 
L 322.27353 28.255872 
L 324.708734 27.313024 
L 327.143938 27.313024 
L 329.579143 27.79933 
L 332.014347 26.689879 
L 334.449552 26.689879 
L 336.884756 27.316346 
L 339.31996 27.840654 
L 341.755165 26.991466 
L 344.190369 27.799358 
L 346.625574 27.987373 
L 349.060778 26.958151 
L 351.495982 26.655066 
L 353.931187 25.451966 
L 356.366391 26.229239 
L 358.801595 25.604569 
L 361.2368 26.293096 
L 363.672004 26.229239 
L 366.107209 25.604569 
L 368.542413 26.991466 
L 370.977617 26.991466 
L 373.412822 26.293096 
L 375.848026 26.127084 
L 378.283231 26.229239 
L 380.718435 25.604569 
L 383.153639 25.688579 
L 385.588844 25.230769 
L 388.024048 25.604569 
L 390.459253 25.993785 
L 392.894457 25.993785 
L 395.329661 25.230769 
L 397.764866 25.604569 
L 400.20007 25.451966 
L 402.635275 24.77296 
L 405.070479 25.230769 
L 407.505683 25.451966 
L 409.940888 25.604569 
L 412.376092 25.993785 
L 414.811297 25.993785 
L 417.246501 25.230769 
L 419.681705 25.230769 
L 422.11691 24.77296 
L 424.552114 25.230769 
L 426.987318 25.451966 
L 429.422523 25.230769 
L 431.857727 25.451966 
L 431.857727 24.704366 
L 431.857727 24.704366 
L 429.422523 24.620357 
L 426.987318 24.704366 
L 424.552114 24.620357 
L 422.11691 24.77296 
L 419.681705 24.620357 
L 417.246501 24.620357 
L 414.811297 24.366018 
L 412.376092 24.366018 
L 409.940888 24.85697 
L 407.505683 24.704366 
L 405.070479 24.620357 
L 402.635275 24.77296 
L 400.20007 24.704366 
L 397.764866 24.85697 
L 395.329661 24.620357 
L 392.894457 24.366018 
L 390.459253 24.366018 
L 388.024048 24.85697 
L 385.588844 24.620357 
L 383.153639 25.078166 
L 380.718435 24.85697 
L 378.283231 24.740977 
L 375.848026 24.537926 
L 373.412822 24.982327 
L 370.977617 25.30131 
L 368.542413 25.30131 
L 366.107209 24.85697 
L 363.672004 24.740977 
L 361.2368 24.982327 
L 358.801595 24.85697 
L 356.366391 24.740977 
L 353.931187 24.704366 
L 351.495982 24.823828 
L 349.060778 24.520743 
L 346.625574 25.322759 
L 344.190369 25.002096 
L 341.755165 25.30131 
L 339.31996 25.672949 
L 336.884756 25.281637 
L 334.449552 25.094221 
L 332.014347 25.094221 
L 329.579143 25.307331 
L 327.143938 24.979753 
L 324.708734 24.979753 
L 322.27353 24.443846 
L 319.838325 26.110359 
L 317.403121 25.670232 
L 314.967916 25.816008 
L 312.532712 26.017807 
L 310.097508 26.807669 
L 307.662303 25.670232 
L 305.227099 25.672949 
L 302.791894 26.110359 
L 300.35669 24.712969 
L 297.921486 26.109761 
L 295.486281 26.854305 
L 293.051077 24.443846 
L 290.615872 26.00338 
L 288.180668 26.485188 
L 285.745464 24.957246 
L 283.310259 26.613877 
L 280.875055 25.064336 
L 278.439851 26.461401 
L 276.004646 26.061098 
L 273.569442 26.330701 
L 271.134237 25.630263 
L 268.699033 25.271007 
L 266.263829 26.411994 
L 263.828624 26.522453 
L 261.39342 27.280975 
L 258.958215 27.196669 
L 256.523011 26.349859 
L 254.087807 26.343281 
L 251.652602 26.568957 
L 249.217398 28.215494 
L 246.782193 25.613593 
L 244.346989 27.252246 
L 241.911785 27.474737 
L 239.47658 29.292739 
L 237.041376 28.287551 
L 234.606171 28.654534 
L 232.170967 27.361698 
L 229.735763 27.247537 
L 227.300558 27.412034 
L 224.865354 30.982217 
L 222.430149 29.607515 
L 219.994945 26.894209 
L 217.559741 28.740642 
L 215.124536 28.168711 
L 212.689332 27.162972 
L 210.254128 28.136455 
L 207.818923 30.912843 
L 205.383719 28.794832 
L 202.948514 26.184583 
L 200.51331 26.397293 
L 198.078106 29.507076 
L 195.642901 26.851958 
L 193.207697 27.574007 
L 190.772492 28.624884 
L 188.337288 29.344161 
L 185.902084 30.063203 
L 183.466879 28.604484 
L 181.031675 29.872142 
L 178.59647 32.582682 
L 176.161266 29.784869 
L 173.726062 28.094374 
L 171.290857 28.110938 
L 168.855653 27.719476 
L 166.420448 27.823773 
L 163.985244 28.512527 
L 161.55004 31.887511 
L 159.114835 33.714235 
L 156.679631 33.891684 
L 154.244426 31.268341 
L 151.809222 33.137855 
L 149.374018 30.012005 
L 146.938813 30.177212 
L 144.503609 30.932261 
L 142.068405 31.793476 
L 139.6332 28.946608 
L 137.197996 31.69337 
L 134.762791 33.421912 
L 132.327587 33.33552 
L 129.892383 34.061381 
L 127.457178 29.539285 
L 125.021974 35.091643 
L 122.586769 33.792865 
L 120.151565 34.438735 
L 117.716361 39.769006 
L 115.281156 38.166336 
L 112.845952 37.148653 
L 110.410747 35.421024 
L 107.975543 38.798967 
L 105.540339 39.107963 
L 103.105134 37.916892 
L 100.66993 42.786872 
L 98.234725 42.995375 
L 95.799521 40.001424 
L 93.364317 43.342504 
L 90.929112 59.114627 
L 88.493908 63.12037 
L 86.058703 82.864471 
L 83.623499 82.548097 
L 81.188295 114.4682 
L 78.75309 137.557074 
L 76.317886 175.158321 
L 73.882682 187.910717 
L 71.447477 249.232368 
L 69.012273 285.225795 
z
" style="fill:#9467bd;fill-opacity:0.25;"/>
   </g>
   <g id="matplotlib.axis_1">
    <g id="xtick_1">
     <g id="line2d_1">
      <defs>
       <path d="M 0 0 
L 0 3.5 
" id="mb0a924e85a" style="stroke:#000000;stroke-width:0.8;"/>
      </defs>
      <g>
       <use style="stroke:#000000;stroke-width:0.8;" x="69.012273" xlink:href="#mb0a924e85a" y="303.64"/>
      </g>
     </g>
     <g id="text_1">
      <!-- 0 -->
      <g transform="translate(65.831023 318.238437)scale(0.1 -0.1)">
       <defs>
        <path d="M 31.78125 66.40625 
Q 24.171875 66.40625 20.328125 58.90625 
Q 16.5 51.421875 16.5 36.375 
Q 16.5 21.390625 20.328125 13.890625 
Q 24.171875 6.390625 31.78125 6.390625 
Q 39.453125 6.390625 43.28125 13.890625 
Q 47.125 21.390625 47.125 36.375 
Q 47.125 51.421875 43.28125 58.90625 
Q 39.453125 66.40625 31.78125 66.40625 
z
M 31.78125 74.21875 
Q 44.046875 74.21875 50.515625 64.515625 
Q 56.984375 54.828125 56.984375 36.375 
Q 56.984375 17.96875 50.515625 8.265625 
Q 44.046875 -1.421875 31.78125 -1.421875 
Q 19.53125 -1.421875 13.0625 8.265625 
Q 6.59375 17.96875 6.59375 36.375 
Q 6.59375 54.828125 13.0625 64.515625 
Q 19.53125 74.21875 31.78125 74.21875 
z
" id="DejaVuSans-48"/>
       </defs>
       <use xlink:href="#DejaVuSans-48"/>
      </g>
     </g>
    </g>
    <g id="xtick_2">
     <g id="line2d_2">
      <g>
       <use style="stroke:#000000;stroke-width:0.8;" x="117.716361" xlink:href="#mb0a924e85a" y="303.64"/>
      </g>
     </g>
     <g id="text_2">
      <!-- 20 -->
      <g transform="translate(111.353861 318.238437)scale(0.1 -0.1)">
       <defs>
        <path d="M 19.1875 8.296875 
L 53.609375 8.296875 
L 53.609375 0 
L 7.328125 0 
L 7.328125 8.296875 
Q 12.9375 14.109375 22.625 23.890625 
Q 32.328125 33.6875 34.8125 36.53125 
Q 39.546875 41.84375 41.421875 45.53125 
Q 43.3125 49.21875 43.3125 52.78125 
Q 43.3125 58.59375 39.234375 62.25 
Q 35.15625 65.921875 28.609375 65.921875 
Q 23.96875 65.921875 18.8125 64.3125 
Q 13.671875 62.703125 7.8125 59.421875 
L 7.8125 69.390625 
Q 13.765625 71.78125 18.9375 73 
Q 24.125 74.21875 28.421875 74.21875 
Q 39.75 74.21875 46.484375 68.546875 
Q 53.21875 62.890625 53.21875 53.421875 
Q 53.21875 48.921875 51.53125 44.890625 
Q 49.859375 40.875 45.40625 35.40625 
Q 44.1875 33.984375 37.640625 27.21875 
Q 31.109375 20.453125 19.1875 8.296875 
z
" id="DejaVuSans-50"/>
       </defs>
       <use xlink:href="#DejaVuSans-50"/>
       <use x="63.623047" xlink:href="#DejaVuSans-48"/>
      </g>
     </g>
    </g>
    <g id="xtick_3">
     <g id="line2d_3">
      <g>
       <use style="stroke:#000000;stroke-width:0.8;" x="166.420448" xlink:href="#mb0a924e85a" y="303.64"/>
      </g>
     </g>
     <g id="text_3">
      <!-- 40 -->
      <g transform="translate(160.057948 318.238437)scale(0.1 -0.1)">
       <defs>
        <path d="M 37.796875 64.3125 
L 12.890625 25.390625 
L 37.796875 25.390625 
z
M 35.203125 72.90625 
L 47.609375 72.90625 
L 47.609375 25.390625 
L 58.015625 25.390625 
L 58.015625 17.1875 
L 47.609375 17.1875 
L 47.609375 0 
L 37.796875 0 
L 37.796875 17.1875 
L 4.890625 17.1875 
L 4.890625 26.703125 
z
" id="DejaVuSans-52"/>
       </defs>
       <use xlink:href="#DejaVuSans-52"/>
       <use x="63.623047" xlink:href="#DejaVuSans-48"/>
      </g>
     </g>
    </g>
    <g id="xtick_4">
     <g id="line2d_4">
      <g>
       <use style="stroke:#000000;stroke-width:0.8;" x="215.124536" xlink:href="#mb0a924e85a" y="303.64"/>
      </g>
     </g>
     <g id="text_4">
      <!-- 60 -->
      <g transform="translate(208.762036 318.238437)scale(0.1 -0.1)">
       <defs>
        <path d="M 33.015625 40.375 
Q 26.375 40.375 22.484375 35.828125 
Q 18.609375 31.296875 18.609375 23.390625 
Q 18.609375 15.53125 22.484375 10.953125 
Q 26.375 6.390625 33.015625 6.390625 
Q 39.65625 6.390625 43.53125 10.953125 
Q 47.40625 15.53125 47.40625 23.390625 
Q 47.40625 31.296875 43.53125 35.828125 
Q 39.65625 40.375 33.015625 40.375 
z
M 52.59375 71.296875 
L 52.59375 62.3125 
Q 48.875 64.0625 45.09375 64.984375 
Q 41.3125 65.921875 37.59375 65.921875 
Q 27.828125 65.921875 22.671875 59.328125 
Q 17.53125 52.734375 16.796875 39.40625 
Q 19.671875 43.65625 24.015625 45.921875 
Q 28.375 48.1875 33.59375 48.1875 
Q 44.578125 48.1875 50.953125 41.515625 
Q 57.328125 34.859375 57.328125 23.390625 
Q 57.328125 12.15625 50.6875 5.359375 
Q 44.046875 -1.421875 33.015625 -1.421875 
Q 20.359375 -1.421875 13.671875 8.265625 
Q 6.984375 17.96875 6.984375 36.375 
Q 6.984375 53.65625 15.1875 63.9375 
Q 23.390625 74.21875 37.203125 74.21875 
Q 40.921875 74.21875 44.703125 73.484375 
Q 48.484375 72.75 52.59375 71.296875 
z
" id="DejaVuSans-54"/>
       </defs>
       <use xlink:href="#DejaVuSans-54"/>
       <use x="63.623047" xlink:href="#DejaVuSans-48"/>
      </g>
     </g>
    </g>
    <g id="xtick_5">
     <g id="line2d_5">
      <g>
       <use style="stroke:#000000;stroke-width:0.8;" x="263.828624" xlink:href="#mb0a924e85a" y="303.64"/>
      </g>
     </g>
     <g id="text_5">
      <!-- 80 -->
      <g transform="translate(257.466124 318.238437)scale(0.1 -0.1)">
       <defs>
        <path d="M 31.78125 34.625 
Q 24.75 34.625 20.71875 30.859375 
Q 16.703125 27.09375 16.703125 20.515625 
Q 16.703125 13.921875 20.71875 10.15625 
Q 24.75 6.390625 31.78125 6.390625 
Q 38.8125 6.390625 42.859375 10.171875 
Q 46.921875 13.96875 46.921875 20.515625 
Q 46.921875 27.09375 42.890625 30.859375 
Q 38.875 34.625 31.78125 34.625 
z
M 21.921875 38.8125 
Q 15.578125 40.375 12.03125 44.71875 
Q 8.5 49.078125 8.5 55.328125 
Q 8.5 64.0625 14.71875 69.140625 
Q 20.953125 74.21875 31.78125 74.21875 
Q 42.671875 74.21875 48.875 69.140625 
Q 55.078125 64.0625 55.078125 55.328125 
Q 55.078125 49.078125 51.53125 44.71875 
Q 48 40.375 41.703125 38.8125 
Q 48.828125 37.15625 52.796875 32.3125 
Q 56.78125 27.484375 56.78125 20.515625 
Q 56.78125 9.90625 50.3125 4.234375 
Q 43.84375 -1.421875 31.78125 -1.421875 
Q 19.734375 -1.421875 13.25 4.234375 
Q 6.78125 9.90625 6.78125 20.515625 
Q 6.78125 27.484375 10.78125 32.3125 
Q 14.796875 37.15625 21.921875 38.8125 
z
M 18.3125 54.390625 
Q 18.3125 48.734375 21.84375 45.5625 
Q 25.390625 42.390625 31.78125 42.390625 
Q 38.140625 42.390625 41.71875 45.5625 
Q 45.3125 48.734375 45.3125 54.390625 
Q 45.3125 60.0625 41.71875 63.234375 
Q 38.140625 66.40625 31.78125 66.40625 
Q 25.390625 66.40625 21.84375 63.234375 
Q 18.3125 60.0625 18.3125 54.390625 
z
" id="DejaVuSans-56"/>
       </defs>
       <use xlink:href="#DejaVuSans-56"/>
       <use x="63.623047" xlink:href="#DejaVuSans-48"/>
      </g>
     </g>
    </g>
    <g id="xtick_6">
     <g id="line2d_6">
      <g>
       <use style="stroke:#000000;stroke-width:0.8;" x="312.532712" xlink:href="#mb0a924e85a" y="303.64"/>
      </g>
     </g>
     <g id="text_6">
      <!-- 100 -->
      <g transform="translate(302.988962 318.238437)scale(0.1 -0.1)">
       <defs>
        <path d="M 12.40625 8.296875 
L 28.515625 8.296875 
L 28.515625 63.921875 
L 10.984375 60.40625 
L 10.984375 69.390625 
L 28.421875 72.90625 
L 38.28125 72.90625 
L 38.28125 8.296875 
L 54.390625 8.296875 
L 54.390625 0 
L 12.40625 0 
z
" id="DejaVuSans-49"/>
       </defs>
       <use xlink:href="#DejaVuSans-49"/>
       <use x="63.623047" xlink:href="#DejaVuSans-48"/>
       <use x="127.246094" xlink:href="#DejaVuSans-48"/>
      </g>
     </g>
    </g>
    <g id="xtick_7">
     <g id="line2d_7">
      <g>
       <use style="stroke:#000000;stroke-width:0.8;" x="361.2368" xlink:href="#mb0a924e85a" y="303.64"/>
      </g>
     </g>
     <g id="text_7">
      <!-- 120 -->
      <g transform="translate(351.69305 318.238437)scale(0.1 -0.1)">
       <use xlink:href="#DejaVuSans-49"/>
       <use x="63.623047" xlink:href="#DejaVuSans-50"/>
       <use x="127.246094" xlink:href="#DejaVuSans-48"/>
      </g>
     </g>
    </g>
    <g id="xtick_8">
     <g id="line2d_8">
      <g>
       <use style="stroke:#000000;stroke-width:0.8;" x="409.940888" xlink:href="#mb0a924e85a" y="303.64"/>
      </g>
     </g>
     <g id="text_8">
      <!-- 140 -->
      <g transform="translate(400.397138 318.238437)scale(0.1 -0.1)">
       <use xlink:href="#DejaVuSans-49"/>
       <use x="63.623047" xlink:href="#DejaVuSans-52"/>
       <use x="127.246094" xlink:href="#DejaVuSans-48"/>
      </g>
     </g>
    </g>
    <g id="text_9">
     <!-- Epochs -->
     <g transform="translate(232.519375 331.916562)scale(0.1 -0.1)">
      <defs>
       <path d="M 9.8125 72.90625 
L 55.90625 72.90625 
L 55.90625 64.59375 
L 19.671875 64.59375 
L 19.671875 43.015625 
L 54.390625 43.015625 
L 54.390625 34.71875 
L 19.671875 34.71875 
L 19.671875 8.296875 
L 56.78125 8.296875 
L 56.78125 0 
L 9.8125 0 
z
" id="DejaVuSans-69"/>
       <path d="M 18.109375 8.203125 
L 18.109375 -20.796875 
L 9.078125 -20.796875 
L 9.078125 54.6875 
L 18.109375 54.6875 
L 18.109375 46.390625 
Q 20.953125 51.265625 25.265625 53.625 
Q 29.59375 56 35.59375 56 
Q 45.5625 56 51.78125 48.09375 
Q 58.015625 40.1875 58.015625 27.296875 
Q 58.015625 14.40625 51.78125 6.484375 
Q 45.5625 -1.421875 35.59375 -1.421875 
Q 29.59375 -1.421875 25.265625 0.953125 
Q 20.953125 3.328125 18.109375 8.203125 
z
M 48.6875 27.296875 
Q 48.6875 37.203125 44.609375 42.84375 
Q 40.53125 48.484375 33.40625 48.484375 
Q 26.265625 48.484375 22.1875 42.84375 
Q 18.109375 37.203125 18.109375 27.296875 
Q 18.109375 17.390625 22.1875 11.75 
Q 26.265625 6.109375 33.40625 6.109375 
Q 40.53125 6.109375 44.609375 11.75 
Q 48.6875 17.390625 48.6875 27.296875 
z
" id="DejaVuSans-112"/>
       <path d="M 30.609375 48.390625 
Q 23.390625 48.390625 19.1875 42.75 
Q 14.984375 37.109375 14.984375 27.296875 
Q 14.984375 17.484375 19.15625 11.84375 
Q 23.34375 6.203125 30.609375 6.203125 
Q 37.796875 6.203125 41.984375 11.859375 
Q 46.1875 17.53125 46.1875 27.296875 
Q 46.1875 37.015625 41.984375 42.703125 
Q 37.796875 48.390625 30.609375 48.390625 
z
M 30.609375 56 
Q 42.328125 56 49.015625 48.375 
Q 55.71875 40.765625 55.71875 27.296875 
Q 55.71875 13.875 49.015625 6.21875 
Q 42.328125 -1.421875 30.609375 -1.421875 
Q 18.84375 -1.421875 12.171875 6.21875 
Q 5.515625 13.875 5.515625 27.296875 
Q 5.515625 40.765625 12.171875 48.375 
Q 18.84375 56 30.609375 56 
z
" id="DejaVuSans-111"/>
       <path d="M 48.78125 52.59375 
L 48.78125 44.1875 
Q 44.96875 46.296875 41.140625 47.34375 
Q 37.3125 48.390625 33.40625 48.390625 
Q 24.65625 48.390625 19.8125 42.84375 
Q 14.984375 37.3125 14.984375 27.296875 
Q 14.984375 17.28125 19.8125 11.734375 
Q 24.65625 6.203125 33.40625 6.203125 
Q 37.3125 6.203125 41.140625 7.25 
Q 44.96875 8.296875 48.78125 10.40625 
L 48.78125 2.09375 
Q 45.015625 0.34375 40.984375 -0.53125 
Q 36.96875 -1.421875 32.421875 -1.421875 
Q 20.0625 -1.421875 12.78125 6.34375 
Q 5.515625 14.109375 5.515625 27.296875 
Q 5.515625 40.671875 12.859375 48.328125 
Q 20.21875 56 33.015625 56 
Q 37.15625 56 41.109375 55.140625 
Q 45.0625 54.296875 48.78125 52.59375 
z
" id="DejaVuSans-99"/>
       <path d="M 54.890625 33.015625 
L 54.890625 0 
L 45.90625 0 
L 45.90625 32.71875 
Q 45.90625 40.484375 42.875 44.328125 
Q 39.84375 48.1875 33.796875 48.1875 
Q 26.515625 48.1875 22.3125 43.546875 
Q 18.109375 38.921875 18.109375 30.90625 
L 18.109375 0 
L 9.078125 0 
L 9.078125 75.984375 
L 18.109375 75.984375 
L 18.109375 46.1875 
Q 21.34375 51.125 25.703125 53.5625 
Q 30.078125 56 35.796875 56 
Q 45.21875 56 50.046875 50.171875 
Q 54.890625 44.34375 54.890625 33.015625 
z
" id="DejaVuSans-104"/>
       <path d="M 44.28125 53.078125 
L 44.28125 44.578125 
Q 40.484375 46.53125 36.375 47.5 
Q 32.28125 48.484375 27.875 48.484375 
Q 21.1875 48.484375 17.84375 46.4375 
Q 14.5 44.390625 14.5 40.28125 
Q 14.5 37.15625 16.890625 35.375 
Q 19.28125 33.59375 26.515625 31.984375 
L 29.59375 31.296875 
Q 39.15625 29.25 43.1875 25.515625 
Q 47.21875 21.78125 47.21875 15.09375 
Q 47.21875 7.46875 41.1875 3.015625 
Q 35.15625 -1.421875 24.609375 -1.421875 
Q 20.21875 -1.421875 15.453125 -0.5625 
Q 10.6875 0.296875 5.421875 2 
L 5.421875 11.28125 
Q 10.40625 8.6875 15.234375 7.390625 
Q 20.0625 6.109375 24.8125 6.109375 
Q 31.15625 6.109375 34.5625 8.28125 
Q 37.984375 10.453125 37.984375 14.40625 
Q 37.984375 18.0625 35.515625 20.015625 
Q 33.0625 21.96875 24.703125 23.78125 
L 21.578125 24.515625 
Q 13.234375 26.265625 9.515625 29.90625 
Q 5.8125 33.546875 5.8125 39.890625 
Q 5.8125 47.609375 11.28125 51.796875 
Q 16.75 56 26.8125 56 
Q 31.78125 56 36.171875 55.265625 
Q 40.578125 54.546875 44.28125 53.078125 
z
" id="DejaVuSans-115"/>
      </defs>
      <use xlink:href="#DejaVuSans-69"/>
      <use x="63.183594" xlink:href="#DejaVuSans-112"/>
      <use x="126.660156" xlink:href="#DejaVuSans-111"/>
      <use x="187.841797" xlink:href="#DejaVuSans-99"/>
      <use x="242.822266" xlink:href="#DejaVuSans-104"/>
      <use x="306.201172" xlink:href="#DejaVuSans-115"/>
     </g>
    </g>
   </g>
   <g id="matplotlib.axis_2">
    <g id="ytick_1">
     <g id="line2d_9">
      <defs>
       <path d="M 0 0 
L -3.5 0 
" id="m99f5c1de87" style="stroke:#000000;stroke-width:0.8;"/>
      </defs>
      <g>
       <use style="stroke:#000000;stroke-width:0.8;" x="50.87" xlink:href="#m99f5c1de87" y="285.215686"/>
      </g>
     </g>
     <g id="text_10">
      <!-- 50 -->
      <g transform="translate(31.145 289.014904)scale(0.1 -0.1)">
       <defs>
        <path d="M 10.796875 72.90625 
L 49.515625 72.90625 
L 49.515625 64.59375 
L 19.828125 64.59375 
L 19.828125 46.734375 
Q 21.96875 47.46875 24.109375 47.828125 
Q 26.265625 48.1875 28.421875 48.1875 
Q 40.625 48.1875 47.75 41.5 
Q 54.890625 34.8125 54.890625 23.390625 
Q 54.890625 11.625 47.5625 5.09375 
Q 40.234375 -1.421875 26.90625 -1.421875 
Q 22.3125 -1.421875 17.546875 -0.640625 
Q 12.796875 0.140625 7.71875 1.703125 
L 7.71875 11.625 
Q 12.109375 9.234375 16.796875 8.0625 
Q 21.484375 6.890625 26.703125 6.890625 
Q 35.15625 6.890625 40.078125 11.328125 
Q 45.015625 15.765625 45.015625 23.390625 
Q 45.015625 31 40.078125 35.4375 
Q 35.15625 39.890625 26.703125 39.890625 
Q 22.75 39.890625 18.8125 39.015625 
Q 14.890625 38.140625 10.796875 36.28125 
z
" id="DejaVuSans-53"/>
       </defs>
       <use xlink:href="#DejaVuSans-53"/>
       <use x="63.623047" xlink:href="#DejaVuSans-48"/>
      </g>
     </g>
    </g>
    <g id="ytick_2">
     <g id="line2d_10">
      <g>
       <use style="stroke:#000000;stroke-width:0.8;" x="50.87" xlink:href="#m99f5c1de87" y="233.12714"/>
      </g>
     </g>
     <g id="text_11">
      <!-- 60 -->
      <g transform="translate(31.145 236.926359)scale(0.1 -0.1)">
       <use xlink:href="#DejaVuSans-54"/>
       <use x="63.623047" xlink:href="#DejaVuSans-48"/>
      </g>
     </g>
    </g>
    <g id="ytick_3">
     <g id="line2d_11">
      <g>
       <use style="stroke:#000000;stroke-width:0.8;" x="50.87" xlink:href="#m99f5c1de87" y="181.038595"/>
      </g>
     </g>
     <g id="text_12">
      <!-- 70 -->
      <g transform="translate(31.145 184.837814)scale(0.1 -0.1)">
       <defs>
        <path d="M 8.203125 72.90625 
L 55.078125 72.90625 
L 55.078125 68.703125 
L 28.609375 0 
L 18.3125 0 
L 43.21875 64.59375 
L 8.203125 64.59375 
z
" id="DejaVuSans-55"/>
       </defs>
       <use xlink:href="#DejaVuSans-55"/>
       <use x="63.623047" xlink:href="#DejaVuSans-48"/>
      </g>
     </g>
    </g>
    <g id="ytick_4">
     <g id="line2d_12">
      <g>
       <use style="stroke:#000000;stroke-width:0.8;" x="50.87" xlink:href="#m99f5c1de87" y="128.95005"/>
      </g>
     </g>
     <g id="text_13">
      <!-- 80 -->
      <g transform="translate(31.145 132.749269)scale(0.1 -0.1)">
       <use xlink:href="#DejaVuSans-56"/>
       <use x="63.623047" xlink:href="#DejaVuSans-48"/>
      </g>
     </g>
    </g>
    <g id="ytick_5">
     <g id="line2d_13">
      <g>
       <use style="stroke:#000000;stroke-width:0.8;" x="50.87" xlink:href="#m99f5c1de87" y="76.861505"/>
      </g>
     </g>
     <g id="text_14">
      <!-- 90 -->
      <g transform="translate(31.145 80.660724)scale(0.1 -0.1)">
       <defs>
        <path d="M 10.984375 1.515625 
L 10.984375 10.5 
Q 14.703125 8.734375 18.5 7.8125 
Q 22.3125 6.890625 25.984375 6.890625 
Q 35.75 6.890625 40.890625 13.453125 
Q 46.046875 20.015625 46.78125 33.40625 
Q 43.953125 29.203125 39.59375 26.953125 
Q 35.25 24.703125 29.984375 24.703125 
Q 19.046875 24.703125 12.671875 31.3125 
Q 6.296875 37.9375 6.296875 49.421875 
Q 6.296875 60.640625 12.9375 67.421875 
Q 19.578125 74.21875 30.609375 74.21875 
Q 43.265625 74.21875 49.921875 64.515625 
Q 56.59375 54.828125 56.59375 36.375 
Q 56.59375 19.140625 48.40625 8.859375 
Q 40.234375 -1.421875 26.421875 -1.421875 
Q 22.703125 -1.421875 18.890625 -0.6875 
Q 15.09375 0.046875 10.984375 1.515625 
z
M 30.609375 32.421875 
Q 37.25 32.421875 41.125 36.953125 
Q 45.015625 41.5 45.015625 49.421875 
Q 45.015625 57.28125 41.125 61.84375 
Q 37.25 66.40625 30.609375 66.40625 
Q 23.96875 66.40625 20.09375 61.84375 
Q 16.21875 57.28125 16.21875 49.421875 
Q 16.21875 41.5 20.09375 36.953125 
Q 23.96875 32.421875 30.609375 32.421875 
z
" id="DejaVuSans-57"/>
       </defs>
       <use xlink:href="#DejaVuSans-57"/>
       <use x="63.623047" xlink:href="#DejaVuSans-48"/>
      </g>
     </g>
    </g>
    <g id="ytick_6">
     <g id="line2d_14">
      <g>
       <use style="stroke:#000000;stroke-width:0.8;" x="50.87" xlink:href="#m99f5c1de87" y="24.77296"/>
      </g>
     </g>
     <g id="text_15">
      <!-- 100 -->
      <g transform="translate(24.7825 28.572179)scale(0.1 -0.1)">
       <use xlink:href="#DejaVuSans-49"/>
       <use x="63.623047" xlink:href="#DejaVuSans-48"/>
       <use x="127.246094" xlink:href="#DejaVuSans-48"/>
      </g>
     </g>
    </g>
    <g id="text_16">
     <!-- Test Accuracy (%) -->
     <g transform="translate(18.702813 201.723906)rotate(-90)scale(0.1 -0.1)">
      <defs>
       <path d="M -0.296875 72.90625 
L 61.375 72.90625 
L 61.375 64.59375 
L 35.5 64.59375 
L 35.5 0 
L 25.59375 0 
L 25.59375 64.59375 
L -0.296875 64.59375 
z
" id="DejaVuSans-84"/>
       <path d="M 56.203125 29.59375 
L 56.203125 25.203125 
L 14.890625 25.203125 
Q 15.484375 15.921875 20.484375 11.0625 
Q 25.484375 6.203125 34.421875 6.203125 
Q 39.59375 6.203125 44.453125 7.46875 
Q 49.3125 8.734375 54.109375 11.28125 
L 54.109375 2.78125 
Q 49.265625 0.734375 44.1875 -0.34375 
Q 39.109375 -1.421875 33.890625 -1.421875 
Q 20.796875 -1.421875 13.15625 6.1875 
Q 5.515625 13.8125 5.515625 26.8125 
Q 5.515625 40.234375 12.765625 48.109375 
Q 20.015625 56 32.328125 56 
Q 43.359375 56 49.78125 48.890625 
Q 56.203125 41.796875 56.203125 29.59375 
z
M 47.21875 32.234375 
Q 47.125 39.59375 43.09375 43.984375 
Q 39.0625 48.390625 32.421875 48.390625 
Q 24.90625 48.390625 20.390625 44.140625 
Q 15.875 39.890625 15.1875 32.171875 
z
" id="DejaVuSans-101"/>
       <path d="M 18.3125 70.21875 
L 18.3125 54.6875 
L 36.8125 54.6875 
L 36.8125 47.703125 
L 18.3125 47.703125 
L 18.3125 18.015625 
Q 18.3125 11.328125 20.140625 9.421875 
Q 21.96875 7.515625 27.59375 7.515625 
L 36.8125 7.515625 
L 36.8125 0 
L 27.59375 0 
Q 17.1875 0 13.234375 3.875 
Q 9.28125 7.765625 9.28125 18.015625 
L 9.28125 47.703125 
L 2.6875 47.703125 
L 2.6875 54.6875 
L 9.28125 54.6875 
L 9.28125 70.21875 
z
" id="DejaVuSans-116"/>
       <path id="DejaVuSans-32"/>
       <path d="M 34.1875 63.1875 
L 20.796875 26.90625 
L 47.609375 26.90625 
z
M 28.609375 72.90625 
L 39.796875 72.90625 
L 67.578125 0 
L 57.328125 0 
L 50.6875 18.703125 
L 17.828125 18.703125 
L 11.1875 0 
L 0.78125 0 
z
" id="DejaVuSans-65"/>
       <path d="M 8.5 21.578125 
L 8.5 54.6875 
L 17.484375 54.6875 
L 17.484375 21.921875 
Q 17.484375 14.15625 20.5 10.265625 
Q 23.53125 6.390625 29.59375 6.390625 
Q 36.859375 6.390625 41.078125 11.03125 
Q 45.3125 15.671875 45.3125 23.6875 
L 45.3125 54.6875 
L 54.296875 54.6875 
L 54.296875 0 
L 45.3125 0 
L 45.3125 8.40625 
Q 42.046875 3.421875 37.71875 1 
Q 33.40625 -1.421875 27.6875 -1.421875 
Q 18.265625 -1.421875 13.375 4.4375 
Q 8.5 10.296875 8.5 21.578125 
z
M 31.109375 56 
z
" id="DejaVuSans-117"/>
       <path d="M 41.109375 46.296875 
Q 39.59375 47.171875 37.8125 47.578125 
Q 36.03125 48 33.890625 48 
Q 26.265625 48 22.1875 43.046875 
Q 18.109375 38.09375 18.109375 28.8125 
L 18.109375 0 
L 9.078125 0 
L 9.078125 54.6875 
L 18.109375 54.6875 
L 18.109375 46.1875 
Q 20.953125 51.171875 25.484375 53.578125 
Q 30.03125 56 36.53125 56 
Q 37.453125 56 38.578125 55.875 
Q 39.703125 55.765625 41.0625 55.515625 
z
" id="DejaVuSans-114"/>
       <path d="M 34.28125 27.484375 
Q 23.390625 27.484375 19.1875 25 
Q 14.984375 22.515625 14.984375 16.5 
Q 14.984375 11.71875 18.140625 8.90625 
Q 21.296875 6.109375 26.703125 6.109375 
Q 34.1875 6.109375 38.703125 11.40625 
Q 43.21875 16.703125 43.21875 25.484375 
L 43.21875 27.484375 
z
M 52.203125 31.203125 
L 52.203125 0 
L 43.21875 0 
L 43.21875 8.296875 
Q 40.140625 3.328125 35.546875 0.953125 
Q 30.953125 -1.421875 24.3125 -1.421875 
Q 15.921875 -1.421875 10.953125 3.296875 
Q 6 8.015625 6 15.921875 
Q 6 25.140625 12.171875 29.828125 
Q 18.359375 34.515625 30.609375 34.515625 
L 43.21875 34.515625 
L 43.21875 35.40625 
Q 43.21875 41.609375 39.140625 45 
Q 35.0625 48.390625 27.6875 48.390625 
Q 23 48.390625 18.546875 47.265625 
Q 14.109375 46.140625 10.015625 43.890625 
L 10.015625 52.203125 
Q 14.9375 54.109375 19.578125 55.046875 
Q 24.21875 56 28.609375 56 
Q 40.484375 56 46.34375 49.84375 
Q 52.203125 43.703125 52.203125 31.203125 
z
" id="DejaVuSans-97"/>
       <path d="M 32.171875 -5.078125 
Q 28.375 -14.84375 24.75 -17.8125 
Q 21.140625 -20.796875 15.09375 -20.796875 
L 7.90625 -20.796875 
L 7.90625 -13.28125 
L 13.1875 -13.28125 
Q 16.890625 -13.28125 18.9375 -11.515625 
Q 21 -9.765625 23.484375 -3.21875 
L 25.09375 0.875 
L 2.984375 54.6875 
L 12.5 54.6875 
L 29.59375 11.921875 
L 46.6875 54.6875 
L 56.203125 54.6875 
z
" id="DejaVuSans-121"/>
       <path d="M 31 75.875 
Q 24.46875 64.65625 21.28125 53.65625 
Q 18.109375 42.671875 18.109375 31.390625 
Q 18.109375 20.125 21.3125 9.0625 
Q 24.515625 -2 31 -13.1875 
L 23.1875 -13.1875 
Q 15.875 -1.703125 12.234375 9.375 
Q 8.59375 20.453125 8.59375 31.390625 
Q 8.59375 42.28125 12.203125 53.3125 
Q 15.828125 64.359375 23.1875 75.875 
z
" id="DejaVuSans-40"/>
       <path d="M 72.703125 32.078125 
Q 68.453125 32.078125 66.03125 28.46875 
Q 63.625 24.859375 63.625 18.40625 
Q 63.625 12.0625 66.03125 8.421875 
Q 68.453125 4.78125 72.703125 4.78125 
Q 76.859375 4.78125 79.265625 8.421875 
Q 81.6875 12.0625 81.6875 18.40625 
Q 81.6875 24.8125 79.265625 28.4375 
Q 76.859375 32.078125 72.703125 32.078125 
z
M 72.703125 38.28125 
Q 80.421875 38.28125 84.953125 32.90625 
Q 89.5 27.546875 89.5 18.40625 
Q 89.5 9.28125 84.9375 3.921875 
Q 80.375 -1.421875 72.703125 -1.421875 
Q 64.890625 -1.421875 60.34375 3.921875 
Q 55.8125 9.28125 55.8125 18.40625 
Q 55.8125 27.59375 60.375 32.9375 
Q 64.9375 38.28125 72.703125 38.28125 
z
M 22.3125 68.015625 
Q 18.109375 68.015625 15.6875 64.375 
Q 13.28125 60.75 13.28125 54.390625 
Q 13.28125 47.953125 15.671875 44.328125 
Q 18.0625 40.71875 22.3125 40.71875 
Q 26.5625 40.71875 28.96875 44.328125 
Q 31.390625 47.953125 31.390625 54.390625 
Q 31.390625 60.6875 28.953125 64.34375 
Q 26.515625 68.015625 22.3125 68.015625 
z
M 66.40625 74.21875 
L 74.21875 74.21875 
L 28.609375 -1.421875 
L 20.796875 -1.421875 
z
M 22.3125 74.21875 
Q 30.03125 74.21875 34.609375 68.875 
Q 39.203125 63.53125 39.203125 54.390625 
Q 39.203125 45.171875 34.640625 39.84375 
Q 30.078125 34.515625 22.3125 34.515625 
Q 14.546875 34.515625 10.03125 39.859375 
Q 5.515625 45.21875 5.515625 54.390625 
Q 5.515625 63.484375 10.046875 68.84375 
Q 14.59375 74.21875 22.3125 74.21875 
z
" id="DejaVuSans-37"/>
       <path d="M 8.015625 75.875 
L 15.828125 75.875 
Q 23.140625 64.359375 26.78125 53.3125 
Q 30.421875 42.28125 30.421875 31.390625 
Q 30.421875 20.453125 26.78125 9.375 
Q 23.140625 -1.703125 15.828125 -13.1875 
L 8.015625 -13.1875 
Q 14.5 -2 17.703125 9.0625 
Q 20.90625 20.125 20.90625 31.390625 
Q 20.90625 42.671875 17.703125 53.65625 
Q 14.5 64.65625 8.015625 75.875 
z
" id="DejaVuSans-41"/>
      </defs>
      <use xlink:href="#DejaVuSans-84"/>
      <use x="44.083984" xlink:href="#DejaVuSans-101"/>
      <use x="105.607422" xlink:href="#DejaVuSans-115"/>
      <use x="157.707031" xlink:href="#DejaVuSans-116"/>
      <use x="196.916016" xlink:href="#DejaVuSans-32"/>
      <use x="228.703125" xlink:href="#DejaVuSans-65"/>
      <use x="295.361328" xlink:href="#DejaVuSans-99"/>
      <use x="350.341797" xlink:href="#DejaVuSans-99"/>
      <use x="405.322266" xlink:href="#DejaVuSans-117"/>
      <use x="468.701172" xlink:href="#DejaVuSans-114"/>
      <use x="509.814453" xlink:href="#DejaVuSans-97"/>
      <use x="571.09375" xlink:href="#DejaVuSans-99"/>
      <use x="626.074219" xlink:href="#DejaVuSans-121"/>
      <use x="685.253906" xlink:href="#DejaVuSans-32"/>
      <use x="717.041016" xlink:href="#DejaVuSans-40"/>
      <use x="756.054688" xlink:href="#DejaVuSans-37"/>
      <use x="851.074219" xlink:href="#DejaVuSans-41"/>
     </g>
    </g>
   </g>
   <g id="line2d_15">
    <path clip-path="url(#p5eb75ffc73)" d="M 69.012273 214.662158 
L 71.447477 128.390505 
L 73.882682 95.021281 
L 76.317886 88.103271 
L 78.75309 69.740024 
L 81.188295 55.598798 
L 83.623499 45.984799 
L 86.058703 51.783719 
L 88.493908 40.999763 
L 90.929112 37.642493 
L 93.364317 36.574271 
L 95.799521 38.812451 
L 98.234725 36.574271 
L 100.66993 32.860927 
L 103.105134 31.538367 
L 105.540339 31.538367 
L 107.975543 33.420472 
L 110.410747 30.927954 
L 112.845952 29.9106 
L 115.281156 33.064398 
L 117.716361 30.521012 
L 120.151565 30.57188 
L 122.586769 28.944113 
L 125.021974 29.757997 
L 127.457178 30.368409 
L 129.892383 31.792705 
L 132.327587 30.927954 
L 134.762791 28.028494 
L 137.197996 29.9106 
L 139.6332 28.231965 
L 144.503609 30.724483 
L 146.938813 28.3337 
L 149.374018 29.147584 
L 151.809222 29.351055 
L 154.244426 30.877086 
L 156.679631 29.351055 
L 159.114835 31.131425 
L 161.55004 29.249319 
L 163.985244 30.266674 
L 166.420448 28.486304 
L 168.855653 28.638907 
L 171.290857 31.741838 
L 173.726062 29.757997 
L 176.161266 31.02969 
L 178.59647 29.656261 
L 181.031675 27.825023 
L 183.466879 27.875891 
L 185.902084 28.842378 
L 188.337288 29.198452 
L 190.772492 28.3337 
L 193.207697 28.740642 
L 195.642901 29.45279 
L 198.078106 29.554526 
L 200.51331 27.062007 
L 202.948514 26.400727 
L 205.383719 27.67242 
L 207.818923 30.266674 
L 210.254128 27.67242 
L 212.689332 26.55333 
L 215.124536 29.147584 
L 217.559741 28.079362 
L 219.994945 28.028494 
L 222.430149 26.044653 
L 224.865354 27.723288 
L 227.300558 28.486304 
L 229.735763 27.418081 
L 232.170967 26.807669 
L 234.606171 27.875891 
L 237.041376 26.55333 
L 239.47658 29.707129 
L 241.911785 26.451595 
L 244.346989 27.062007 
L 246.782193 27.875891 
L 249.217398 27.265478 
L 251.652602 25.230769 
L 254.087807 26.55333 
L 256.523011 27.112875 
L 258.958215 26.604198 
L 261.39342 27.265478 
L 263.828624 25.89205 
L 266.263829 27.265478 
L 268.699033 26.146388 
L 271.134237 25.332505 
L 273.569442 26.349859 
L 276.004646 27.112875 
L 278.439851 26.248124 
L 280.875055 27.418081 
L 283.310259 27.01114 
L 288.180668 26.756801 
L 290.615872 27.062007 
L 293.051077 26.55333 
L 295.486281 25.230769 
L 297.921486 25.637711 
L 300.35669 25.485108 
L 302.791894 27.519817 
L 305.227099 26.655066 
L 310.097508 26.400727 
L 312.532712 25.89205 
L 314.967916 26.502462 
L 317.403121 26.146388 
L 319.838325 26.55333 
L 322.27353 25.942918 
L 324.708734 26.502462 
L 327.143938 25.535976 
L 329.579143 26.248124 
L 332.014347 25.89205 
L 334.449552 25.078166 
L 336.884756 25.637711 
L 341.755165 25.739447 
L 344.190369 25.078166 
L 346.625574 25.942918 
L 349.060778 25.383373 
L 351.495982 25.332505 
L 353.931187 25.43424 
L 358.801595 26.095521 
L 361.2368 25.790314 
L 363.672004 26.655066 
L 366.107209 24.925563 
L 368.542413 24.925563 
L 370.977617 25.485108 
L 375.848026 25.230769 
L 378.283231 24.925563 
L 383.153639 25.332505 
L 385.588844 25.078166 
L 388.024048 25.485108 
L 390.459253 24.925563 
L 395.329661 24.925563 
L 397.764866 25.078166 
L 400.20007 25.078166 
L 405.070479 24.77296 
L 407.505683 25.230769 
L 409.940888 25.230769 
L 412.376092 25.078166 
L 417.246501 25.078166 
L 419.681705 25.230769 
L 422.11691 25.230769 
L 424.552114 25.078166 
L 431.857727 25.078166 
L 431.857727 25.078166 
" style="fill:none;stroke:#1f77b4;stroke-linecap:square;stroke-width:1.5;"/>
   </g>
   <g id="line2d_16">
    <path clip-path="url(#p5eb75ffc73)" d="M 69.012273 286.283908 
L 71.447477 259.985296 
L 73.882682 203.674731 
L 76.317886 162.319274 
L 78.75309 127.525754 
L 81.188295 107.585608 
L 83.623499 90.239715 
L 86.058703 83.932118 
L 88.493908 74.165516 
L 90.929112 63.127221 
L 93.364317 54.581444 
L 95.799521 48.375582 
L 98.234725 43.848355 
L 100.66993 48.172111 
L 103.105134 44.000958 
L 105.540339 46.493476 
L 107.975543 55.039253 
L 110.410747 39.321128 
L 112.845952 37.795096 
L 115.281156 39.982408 
L 117.716361 38.456377 
L 120.151565 37.947699 
L 122.586769 37.03208 
L 125.021974 34.793901 
L 127.457178 38.15117 
L 129.892383 34.793901 
L 132.327587 41.457572 
L 134.762791 33.318737 
L 137.197996 34.13262 
L 139.6332 33.776546 
L 142.068405 32.606589 
L 144.503609 34.13262 
L 146.938813 31.792705 
L 149.374018 34.641298 
L 151.809222 32.097912 
L 154.244426 34.081753 
L 156.679631 35.862123 
L 159.114835 38.303773 
L 161.55004 38.405509 
L 163.985244 33.064398 
L 166.420448 33.573076 
L 168.855653 31.284028 
L 171.290857 35.912991 
L 173.726062 33.217001 
L 176.161266 31.487499 
L 178.59647 34.183488 
L 181.031675 32.555721 
L 183.466879 31.182293 
L 185.902084 31.945308 
L 188.337288 29.300187 
L 190.772492 31.334896 
L 193.207697 32.097912 
L 195.642901 29.605393 
L 198.078106 31.640102 
L 200.51331 30.470145 
L 202.948514 32.047044 
L 205.383719 28.994981 
L 207.818923 30.266674 
L 210.254128 30.622748 
L 212.689332 27.112875 
L 215.124536 29.605393 
L 217.559741 30.266674 
L 219.994945 27.519817 
L 222.430149 31.589234 
L 224.865354 31.538367 
L 227.300558 30.114071 
L 229.735763 27.265478 
L 232.170967 30.368409 
L 234.606171 30.063203 
L 237.041376 27.723288 
L 239.47658 30.673615 
L 241.911785 26.756801 
L 244.346989 28.486304 
L 246.782193 27.621552 
L 249.217398 28.282833 
L 251.652602 28.3337 
L 254.087807 26.400727 
L 256.523011 27.977626 
L 258.958215 27.621552 
L 261.39342 26.756801 
L 263.828624 26.502462 
L 266.263829 29.300187 
L 268.699033 28.181097 
L 271.134237 28.588039 
L 273.569442 26.858537 
L 276.004646 26.807669 
L 278.439851 28.028494 
L 280.875055 26.298992 
L 283.310259 28.384568 
L 285.745464 28.079362 
L 288.180668 26.604198 
L 290.615872 27.062007 
L 293.051077 26.807669 
L 295.486281 28.13023 
L 297.921486 26.298992 
L 300.35669 27.01114 
L 302.791894 26.655066 
L 305.227099 25.637711 
L 307.662303 26.146388 
L 310.097508 26.146388 
L 312.532712 27.367214 
L 314.967916 25.89205 
L 317.403121 25.89205 
L 319.838325 27.112875 
L 322.27353 26.756801 
L 324.708734 25.485108 
L 327.143938 26.858537 
L 329.579143 26.909404 
L 332.014347 25.230769 
L 334.449552 26.960272 
L 336.884756 26.298992 
L 339.31996 26.248124 
L 341.755165 25.993785 
L 344.190369 25.332505 
L 346.625574 26.502462 
L 349.060778 25.485108 
L 351.495982 26.248124 
L 353.931187 25.739447 
L 356.366391 26.146388 
L 358.801595 25.739447 
L 361.2368 25.485108 
L 363.672004 25.078166 
L 366.107209 25.637711 
L 370.977617 25.078166 
L 373.412822 25.230769 
L 375.848026 24.925563 
L 378.283231 25.078166 
L 380.718435 25.078166 
L 385.588844 25.485108 
L 388.024048 25.485108 
L 390.459253 25.179902 
L 392.894457 25.230769 
L 395.329661 25.485108 
L 397.764866 25.485108 
L 402.635275 25.078166 
L 405.070479 25.485108 
L 407.505683 25.637711 
L 414.811297 25.230769 
L 417.246501 25.230769 
L 419.681705 25.485108 
L 422.11691 25.332505 
L 424.552114 25.485108 
L 431.857727 25.485108 
L 431.857727 25.485108 
" style="fill:none;stroke:#ff7f0e;stroke-linecap:square;stroke-width:1.5;"/>
   </g>
   <g id="line2d_17">
    <path clip-path="url(#p5eb75ffc73)" d="M 69.012273 281.55321 
L 71.447477 252.456874 
L 73.882682 191.008668 
L 76.317886 150.924905 
L 78.75309 124.880633 
L 81.188295 106.008709 
L 83.623499 86.11943 
L 86.058703 76.607167 
L 88.493908 77.166711 
L 90.929112 54.530576 
L 93.364317 47.816037 
L 98.234725 44.255297 
L 100.66993 45.272651 
L 103.105134 40.694556 
L 105.540339 48.172111 
L 107.975543 49.647275 
L 110.410747 37.998567 
L 112.845952 39.066789 
L 115.281156 35.200843 
L 117.716361 36.625139 
L 120.151565 36.421668 
L 122.586769 37.48989 
L 125.021974 36.726874 
L 127.457178 39.422863 
L 129.892383 39.117657 
L 132.327587 34.285224 
L 134.762791 33.369605 
L 137.197996 32.759192 
L 139.6332 34.946504 
L 142.068405 32.403118 
L 144.503609 34.793901 
L 146.938813 33.166134 
L 149.374018 32.35225 
L 151.809222 34.183488 
L 154.244426 35.048239 
L 156.679631 38.812451 
L 159.114835 39.72807 
L 161.55004 37.235551 
L 163.985244 33.115266 
L 166.420448 32.860927 
L 168.855653 29.707129 
L 171.290857 32.301383 
L 173.726062 32.555721 
L 176.161266 32.962663 
L 178.59647 31.894441 
L 181.031675 32.504853 
L 183.466879 30.673615 
L 185.902084 31.69097 
L 188.337288 29.096716 
L 190.772492 32.047044 
L 193.207697 29.859732 
L 195.642901 31.538367 
L 198.078106 32.35225 
L 200.51331 29.961467 
L 202.948514 30.724483 
L 205.383719 29.605393 
L 207.818923 30.215806 
L 210.254128 28.842378 
L 212.689332 29.096716 
L 215.124536 29.605393 
L 217.559741 29.707129 
L 219.994945 29.045848 
L 222.430149 30.927954 
L 224.865354 30.368409 
L 227.300558 30.012335 
L 229.735763 30.266674 
L 232.170967 29.757997 
L 239.47658 29.45279 
L 241.911785 28.13023 
L 244.346989 28.13023 
L 246.782193 28.79151 
L 249.217398 27.825023 
L 251.652602 27.621552 
L 254.087807 28.994981 
L 256.523011 27.265478 
L 258.958215 27.774155 
L 261.39342 27.621552 
L 263.828624 27.265478 
L 266.263829 27.875891 
L 268.699033 28.028494 
L 271.134237 27.926759 
L 273.569442 28.13023 
L 276.004646 26.400727 
L 278.439851 26.960272 
L 280.875055 26.705933 
L 283.310259 26.807669 
L 288.180668 27.621552 
L 290.615872 26.400727 
L 293.051077 26.146388 
L 295.486281 26.248124 
L 297.921486 26.807669 
L 300.35669 25.89205 
L 302.791894 27.926759 
L 305.227099 25.89205 
L 307.662303 26.298992 
L 310.097508 27.112875 
L 312.532712 26.756801 
L 317.403121 27.062007 
L 319.838325 26.400727 
L 322.27353 27.977626 
L 324.708734 25.383373 
L 327.143938 27.01114 
L 329.579143 26.146388 
L 332.014347 25.89205 
L 334.449552 26.146388 
L 336.884756 26.55333 
L 339.31996 26.298992 
L 341.755165 27.316346 
L 344.190369 26.655066 
L 346.625574 25.637711 
L 349.060778 26.095521 
L 351.495982 25.535976 
L 353.931187 25.383373 
L 356.366391 26.044653 
L 358.801595 25.637711 
L 361.2368 25.739447 
L 368.542413 25.078166 
L 370.977617 25.078166 
L 373.412822 25.637711 
L 375.848026 24.925563 
L 378.283231 24.77296 
L 380.718435 24.925563 
L 383.153639 25.332505 
L 385.588844 24.77296 
L 388.024048 25.078166 
L 390.459253 25.078166 
L 392.894457 25.485108 
L 395.329661 25.078166 
L 397.764866 25.230769 
L 400.20007 24.925563 
L 419.681705 24.925563 
L 422.11691 25.078166 
L 424.552114 24.925563 
L 431.857727 24.925563 
L 431.857727 24.925563 
" style="fill:none;stroke:#2ca02c;stroke-linecap:square;stroke-width:1.5;"/>
   </g>
   <g id="line2d_18">
    <path clip-path="url(#p5eb75ffc73)" d="M 69.012273 283.384448 
L 71.447477 251.43952 
L 73.882682 185.565822 
L 76.317886 141.158303 
L 78.75309 117.35221 
L 81.188295 113.893205 
L 83.623499 78.08233 
L 86.058703 76.200225 
L 88.493908 70.096098 
L 90.929112 59.413877 
L 93.364317 53.208015 
L 95.799521 52.64847 
L 100.66993 47.917773 
L 103.105134 40.592821 
L 105.540339 46.137402 
L 107.975543 53.208015 
L 110.410747 38.60898 
L 112.845952 39.626334 
L 115.281156 39.168525 
L 117.716361 37.744229 
L 120.151565 39.829805 
L 122.586769 37.998567 
L 125.021974 35.658652 
L 127.457178 41.101498 
L 129.892383 34.641298 
L 132.327587 35.963858 
L 134.762791 34.946504 
L 137.197996 34.793901 
L 139.6332 29.401922 
L 142.068405 35.658652 
L 144.503609 34.692165 
L 146.938813 31.792705 
L 149.374018 35.149975 
L 151.809222 35.353446 
L 154.244426 34.030885 
L 156.679631 38.354641 
L 159.114835 38.456377 
L 161.55004 35.556917 
L 163.985244 34.641298 
L 168.855653 34.437827 
L 171.290857 32.504853 
L 173.726062 32.657457 
L 176.161266 32.047044 
L 178.59647 37.896832 
L 181.031675 30.724483 
L 183.466879 29.859732 
L 185.902084 30.368409 
L 188.337288 29.656261 
L 190.772492 31.080557 
L 195.642901 29.300187 
L 198.078106 34.437827 
L 200.51331 30.521012 
L 202.948514 29.351055 
L 205.383719 29.656261 
L 207.818923 28.537171 
L 210.254128 30.368409 
L 212.689332 31.080557 
L 215.124536 29.045848 
L 217.559741 30.521012 
L 219.994945 29.707129 
L 222.430149 30.57188 
L 224.865354 28.3337 
L 227.300558 28.588039 
L 229.735763 27.01114 
L 232.170967 29.198452 
L 234.606171 29.9106 
L 237.041376 27.825023 
L 239.47658 28.588039 
L 241.911785 27.926759 
L 244.346989 29.859732 
L 249.217398 28.435436 
L 251.652602 30.368409 
L 254.087807 27.67242 
L 256.523011 26.044653 
L 258.958215 28.13023 
L 261.39342 27.468949 
L 263.828624 27.977626 
L 266.263829 28.689774 
L 268.699033 29.656261 
L 271.134237 27.214611 
L 273.569442 28.028494 
L 276.004646 27.112875 
L 278.439851 28.3337 
L 280.875055 28.13023 
L 283.310259 27.214611 
L 285.745464 26.960272 
L 288.180668 27.062007 
L 290.615872 27.367214 
L 293.051077 28.3337 
L 295.486281 27.67242 
L 297.921486 26.146388 
L 300.35669 28.181097 
L 302.791894 27.825023 
L 305.227099 26.044653 
L 307.662303 25.637711 
L 310.097508 27.418081 
L 314.967916 27.01114 
L 317.403121 27.723288 
L 319.838325 27.01114 
L 322.27353 26.705933 
L 324.708734 26.55333 
L 327.143938 25.535976 
L 329.579143 28.231965 
L 332.014347 26.55333 
L 334.449552 26.298992 
L 336.884756 25.739447 
L 339.31996 25.688579 
L 341.755165 25.485108 
L 344.190369 25.485108 
L 346.625574 26.146388 
L 349.060778 26.55333 
L 351.495982 26.044653 
L 353.931187 25.739447 
L 356.366391 25.230769 
L 358.801595 25.383373 
L 361.2368 26.400727 
L 363.672004 25.230769 
L 366.107209 25.485108 
L 368.542413 26.044653 
L 370.977617 25.383373 
L 373.412822 25.535976 
L 375.848026 25.078166 
L 378.283231 25.230769 
L 380.718435 25.739447 
L 383.153639 25.078166 
L 385.588844 24.77296 
L 390.459253 25.078166 
L 392.894457 25.078166 
L 395.329661 25.332505 
L 402.635275 25.078166 
L 407.505683 25.078166 
L 414.811297 25.485108 
L 417.246501 25.230769 
L 419.681705 25.485108 
L 424.552114 25.485108 
L 426.987318 25.230769 
L 429.422523 25.485108 
L 431.857727 25.230769 
L 431.857727 25.230769 
" style="fill:none;stroke:#d62728;stroke-linecap:square;stroke-width:1.5;"/>
   </g>
   <g id="line2d_19">
    <path clip-path="url(#p5eb75ffc73)" d="M 69.012273 286.436511 
L 71.447477 255.763276 
L 73.882682 202.199567 
L 76.317886 181.242066 
L 78.75309 162.980555 
L 81.188295 123.252866 
L 83.623499 93.546117 
L 86.058703 94.105662 
L 88.493908 71.62213 
L 90.929112 63.890237 
L 93.364317 52.495867 
L 95.799521 42.373191 
L 98.234725 51.122439 
L 100.66993 46.239138 
L 103.105134 41.711911 
L 107.975543 42.067985 
L 110.410747 38.354641 
L 112.845952 39.321128 
L 115.281156 42.424059 
L 117.716361 42.118852 
L 120.151565 37.286419 
L 122.586769 38.303773 
L 127.457178 35.404313 
L 129.892383 36.167329 
L 132.327587 37.48989 
L 134.762791 36.116462 
L 137.197996 34.386959 
L 139.6332 31.538367 
L 142.068405 35.149975 
L 144.503609 34.234356 
L 146.938813 32.911795 
L 151.809222 34.844769 
L 154.244426 33.420472 
L 156.679631 39.677202 
L 159.114835 34.285224 
L 161.55004 35.25171 
L 163.985244 32.199647 
L 168.855653 29.757997 
L 171.290857 30.266674 
L 173.726062 31.792705 
L 176.161266 35.404313 
L 178.59647 34.488694 
L 181.031675 33.827414 
L 183.466879 30.012335 
L 185.902084 31.69097 
L 188.337288 29.9106 
L 190.772492 29.554526 
L 193.207697 28.740642 
L 195.642901 28.231965 
L 198.078106 32.911795 
L 200.51331 28.282833 
L 202.948514 28.028494 
L 205.383719 29.961467 
L 207.818923 31.69097 
L 210.254128 30.419277 
L 212.689332 28.842378 
L 215.124536 30.368409 
L 217.559741 29.45279 
L 219.994945 28.689774 
L 222.430149 30.826219 
L 224.865354 32.504853 
L 227.300558 29.554526 
L 229.735763 27.977626 
L 232.170967 28.537171 
L 234.606171 31.792705 
L 237.041376 29.656261 
L 239.47658 30.164938 
L 241.911785 29.707129 
L 244.346989 29.605393 
L 246.782193 27.825023 
L 249.217398 29.401922 
L 251.652602 29.707129 
L 254.087807 27.723288 
L 256.523011 27.265478 
L 258.958215 27.926759 
L 261.39342 27.774155 
L 263.828624 28.842378 
L 266.263829 28.588039 
L 268.699033 26.858537 
L 271.134237 26.502462 
L 273.569442 28.028494 
L 276.004646 27.468949 
L 278.439851 28.435436 
L 280.875055 27.316346 
L 283.310259 28.079362 
L 285.745464 26.248124 
L 288.180668 28.740642 
L 290.615872 26.807669 
L 293.051077 26.349859 
L 295.486281 28.079362 
L 300.35669 25.993785 
L 302.791894 27.062007 
L 305.227099 26.756801 
L 310.097508 26.807669 
L 312.532712 27.621552 
L 314.967916 27.062007 
L 317.403121 26.807669 
L 319.838325 27.062007 
L 322.27353 26.349859 
L 324.708734 26.146388 
L 327.143938 26.146388 
L 329.579143 26.55333 
L 332.014347 25.89205 
L 334.449552 25.89205 
L 339.31996 26.756801 
L 341.755165 26.146388 
L 346.625574 26.655066 
L 349.060778 25.739447 
L 351.495982 25.739447 
L 353.931187 25.078166 
L 356.366391 25.485108 
L 358.801595 25.230769 
L 361.2368 25.637711 
L 366.107209 25.230769 
L 368.542413 26.146388 
L 370.977617 26.146388 
L 373.412822 25.637711 
L 375.848026 25.332505 
L 378.283231 25.485108 
L 380.718435 25.230769 
L 383.153639 25.383373 
L 385.588844 24.925563 
L 388.024048 25.230769 
L 392.894457 25.179902 
L 395.329661 24.925563 
L 397.764866 25.230769 
L 400.20007 25.078166 
L 402.635275 24.77296 
L 409.940888 25.230769 
L 414.811297 25.179902 
L 417.246501 24.925563 
L 419.681705 24.925563 
L 422.11691 24.77296 
L 426.987318 25.078166 
L 429.422523 24.925563 
L 431.857727 25.078166 
L 431.857727 25.078166 
" style="fill:none;stroke:#9467bd;stroke-linecap:square;stroke-width:1.5;"/>
   </g>
   <g id="patch_3">
    <path d="M 50.87 303.64 
L 50.87 10.8 
" style="fill:none;stroke:#000000;stroke-linecap:square;stroke-linejoin:miter;stroke-width:0.8;"/>
   </g>
   <g id="patch_4">
    <path d="M 450 303.64 
L 450 10.8 
" style="fill:none;stroke:#000000;stroke-linecap:square;stroke-linejoin:miter;stroke-width:0.8;"/>
   </g>
   <g id="patch_5">
    <path d="M 50.87 303.64 
L 450 303.64 
" style="fill:none;stroke:#000000;stroke-linecap:square;stroke-linejoin:miter;stroke-width:0.8;"/>
   </g>
   <g id="patch_6">
    <path d="M 50.87 10.8 
L 450 10.8 
" style="fill:none;stroke:#000000;stroke-linecap:square;stroke-linejoin:miter;stroke-width:0.8;"/>
   </g>
   <g id="legend_1">
    <g id="patch_7">
     <path d="M 282.65625 298.64 
L 443 298.64 
Q 445 298.64 445 296.64 
L 445 224.249375 
Q 445 222.249375 443 222.249375 
L 282.65625 222.249375 
Q 280.65625 222.249375 280.65625 224.249375 
L 280.65625 296.64 
Q 280.65625 298.64 282.65625 298.64 
z
" style="fill:#ffffff;opacity:0.8;stroke:#cccccc;stroke-linejoin:miter;"/>
    </g>
    <g id="line2d_20">
     <path d="M 284.65625 230.347812 
L 304.65625 230.347812 
" style="fill:none;stroke:#1f77b4;stroke-linecap:square;stroke-width:1.5;"/>
    </g>
    <g id="line2d_21"/>
    <g id="text_17">
     <!-- AllReduce SGD -->
     <g transform="translate(312.65625 233.847812)scale(0.1 -0.1)">
      <defs>
       <path d="M 9.421875 75.984375 
L 18.40625 75.984375 
L 18.40625 0 
L 9.421875 0 
z
" id="DejaVuSans-108"/>
       <path d="M 44.390625 34.1875 
Q 47.5625 33.109375 50.5625 29.59375 
Q 53.5625 26.078125 56.59375 19.921875 
L 66.609375 0 
L 56 0 
L 46.6875 18.703125 
Q 43.0625 26.03125 39.671875 28.421875 
Q 36.28125 30.8125 30.421875 30.8125 
L 19.671875 30.8125 
L 19.671875 0 
L 9.8125 0 
L 9.8125 72.90625 
L 32.078125 72.90625 
Q 44.578125 72.90625 50.734375 67.671875 
Q 56.890625 62.453125 56.890625 51.90625 
Q 56.890625 45.015625 53.6875 40.46875 
Q 50.484375 35.9375 44.390625 34.1875 
z
M 19.671875 64.796875 
L 19.671875 38.921875 
L 32.078125 38.921875 
Q 39.203125 38.921875 42.84375 42.21875 
Q 46.484375 45.515625 46.484375 51.90625 
Q 46.484375 58.296875 42.84375 61.546875 
Q 39.203125 64.796875 32.078125 64.796875 
z
" id="DejaVuSans-82"/>
       <path d="M 45.40625 46.390625 
L 45.40625 75.984375 
L 54.390625 75.984375 
L 54.390625 0 
L 45.40625 0 
L 45.40625 8.203125 
Q 42.578125 3.328125 38.25 0.953125 
Q 33.9375 -1.421875 27.875 -1.421875 
Q 17.96875 -1.421875 11.734375 6.484375 
Q 5.515625 14.40625 5.515625 27.296875 
Q 5.515625 40.1875 11.734375 48.09375 
Q 17.96875 56 27.875 56 
Q 33.9375 56 38.25 53.625 
Q 42.578125 51.265625 45.40625 46.390625 
z
M 14.796875 27.296875 
Q 14.796875 17.390625 18.875 11.75 
Q 22.953125 6.109375 30.078125 6.109375 
Q 37.203125 6.109375 41.296875 11.75 
Q 45.40625 17.390625 45.40625 27.296875 
Q 45.40625 37.203125 41.296875 42.84375 
Q 37.203125 48.484375 30.078125 48.484375 
Q 22.953125 48.484375 18.875 42.84375 
Q 14.796875 37.203125 14.796875 27.296875 
z
" id="DejaVuSans-100"/>
       <path d="M 53.515625 70.515625 
L 53.515625 60.890625 
Q 47.90625 63.578125 42.921875 64.890625 
Q 37.9375 66.21875 33.296875 66.21875 
Q 25.25 66.21875 20.875 63.09375 
Q 16.5 59.96875 16.5 54.203125 
Q 16.5 49.359375 19.40625 46.890625 
Q 22.3125 44.4375 30.421875 42.921875 
L 36.375 41.703125 
Q 47.40625 39.59375 52.65625 34.296875 
Q 57.90625 29 57.90625 20.125 
Q 57.90625 9.515625 50.796875 4.046875 
Q 43.703125 -1.421875 29.984375 -1.421875 
Q 24.8125 -1.421875 18.96875 -0.25 
Q 13.140625 0.921875 6.890625 3.21875 
L 6.890625 13.375 
Q 12.890625 10.015625 18.65625 8.296875 
Q 24.421875 6.59375 29.984375 6.59375 
Q 38.421875 6.59375 43.015625 9.90625 
Q 47.609375 13.234375 47.609375 19.390625 
Q 47.609375 24.75 44.3125 27.78125 
Q 41.015625 30.8125 33.5 32.328125 
L 27.484375 33.5 
Q 16.453125 35.6875 11.515625 40.375 
Q 6.59375 45.0625 6.59375 53.421875 
Q 6.59375 63.09375 13.40625 68.65625 
Q 20.21875 74.21875 32.171875 74.21875 
Q 37.3125 74.21875 42.625 73.28125 
Q 47.953125 72.359375 53.515625 70.515625 
z
" id="DejaVuSans-83"/>
       <path d="M 59.515625 10.40625 
L 59.515625 29.984375 
L 43.40625 29.984375 
L 43.40625 38.09375 
L 69.28125 38.09375 
L 69.28125 6.78125 
Q 63.578125 2.734375 56.6875 0.65625 
Q 49.8125 -1.421875 42 -1.421875 
Q 24.90625 -1.421875 15.25 8.5625 
Q 5.609375 18.5625 5.609375 36.375 
Q 5.609375 54.25 15.25 64.234375 
Q 24.90625 74.21875 42 74.21875 
Q 49.125 74.21875 55.546875 72.453125 
Q 61.96875 70.703125 67.390625 67.28125 
L 67.390625 56.78125 
Q 61.921875 61.421875 55.765625 63.765625 
Q 49.609375 66.109375 42.828125 66.109375 
Q 29.4375 66.109375 22.71875 58.640625 
Q 16.015625 51.171875 16.015625 36.375 
Q 16.015625 21.625 22.71875 14.15625 
Q 29.4375 6.6875 42.828125 6.6875 
Q 48.046875 6.6875 52.140625 7.59375 
Q 56.25 8.5 59.515625 10.40625 
z
" id="DejaVuSans-71"/>
       <path d="M 19.671875 64.796875 
L 19.671875 8.109375 
L 31.59375 8.109375 
Q 46.6875 8.109375 53.6875 14.9375 
Q 60.6875 21.78125 60.6875 36.53125 
Q 60.6875 51.171875 53.6875 57.984375 
Q 46.6875 64.796875 31.59375 64.796875 
z
M 9.8125 72.90625 
L 30.078125 72.90625 
Q 51.265625 72.90625 61.171875 64.09375 
Q 71.09375 55.28125 71.09375 36.53125 
Q 71.09375 17.671875 61.125 8.828125 
Q 51.171875 0 30.078125 0 
L 9.8125 0 
z
" id="DejaVuSans-68"/>
      </defs>
      <use xlink:href="#DejaVuSans-65"/>
      <use x="68.408203" xlink:href="#DejaVuSans-108"/>
      <use x="96.191406" xlink:href="#DejaVuSans-108"/>
      <use x="123.974609" xlink:href="#DejaVuSans-82"/>
      <use x="188.957031" xlink:href="#DejaVuSans-101"/>
      <use x="250.480469" xlink:href="#DejaVuSans-100"/>
      <use x="313.957031" xlink:href="#DejaVuSans-117"/>
      <use x="377.335938" xlink:href="#DejaVuSans-99"/>
      <use x="432.316406" xlink:href="#DejaVuSans-101"/>
      <use x="493.839844" xlink:href="#DejaVuSans-32"/>
      <use x="525.626953" xlink:href="#DejaVuSans-83"/>
      <use x="589.103516" xlink:href="#DejaVuSans-71"/>
      <use x="666.59375" xlink:href="#DejaVuSans-68"/>
     </g>
    </g>
    <g id="line2d_22">
     <path d="M 284.65625 245.025937 
L 304.65625 245.025937 
" style="fill:none;stroke:#ff7f0e;stroke-linecap:square;stroke-width:1.5;"/>
    </g>
    <g id="line2d_23"/>
    <g id="text_18">
     <!-- GRandK-MN-TS (8,12) bits -->
     <g transform="translate(312.65625 248.525937)scale(0.1 -0.1)">
      <defs>
       <path d="M 54.890625 33.015625 
L 54.890625 0 
L 45.90625 0 
L 45.90625 32.71875 
Q 45.90625 40.484375 42.875 44.328125 
Q 39.84375 48.1875 33.796875 48.1875 
Q 26.515625 48.1875 22.3125 43.546875 
Q 18.109375 38.921875 18.109375 30.90625 
L 18.109375 0 
L 9.078125 0 
L 9.078125 54.6875 
L 18.109375 54.6875 
L 18.109375 46.1875 
Q 21.34375 51.125 25.703125 53.5625 
Q 30.078125 56 35.796875 56 
Q 45.21875 56 50.046875 50.171875 
Q 54.890625 44.34375 54.890625 33.015625 
z
" id="DejaVuSans-110"/>
       <path d="M 9.8125 72.90625 
L 19.671875 72.90625 
L 19.671875 42.09375 
L 52.390625 72.90625 
L 65.09375 72.90625 
L 28.90625 38.921875 
L 67.671875 0 
L 54.6875 0 
L 19.671875 35.109375 
L 19.671875 0 
L 9.8125 0 
z
" id="DejaVuSans-75"/>
       <path d="M 4.890625 31.390625 
L 31.203125 31.390625 
L 31.203125 23.390625 
L 4.890625 23.390625 
z
" id="DejaVuSans-45"/>
       <path d="M 9.8125 72.90625 
L 24.515625 72.90625 
L 43.109375 23.296875 
L 61.8125 72.90625 
L 76.515625 72.90625 
L 76.515625 0 
L 66.890625 0 
L 66.890625 64.015625 
L 48.09375 14.015625 
L 38.1875 14.015625 
L 19.390625 64.015625 
L 19.390625 0 
L 9.8125 0 
z
" id="DejaVuSans-77"/>
       <path d="M 9.8125 72.90625 
L 23.09375 72.90625 
L 55.421875 11.921875 
L 55.421875 72.90625 
L 64.984375 72.90625 
L 64.984375 0 
L 51.703125 0 
L 19.390625 60.984375 
L 19.390625 0 
L 9.8125 0 
z
" id="DejaVuSans-78"/>
       <path d="M 11.71875 12.40625 
L 22.015625 12.40625 
L 22.015625 4 
L 14.015625 -11.625 
L 7.71875 -11.625 
L 11.71875 4 
z
" id="DejaVuSans-44"/>
       <path d="M 48.6875 27.296875 
Q 48.6875 37.203125 44.609375 42.84375 
Q 40.53125 48.484375 33.40625 48.484375 
Q 26.265625 48.484375 22.1875 42.84375 
Q 18.109375 37.203125 18.109375 27.296875 
Q 18.109375 17.390625 22.1875 11.75 
Q 26.265625 6.109375 33.40625 6.109375 
Q 40.53125 6.109375 44.609375 11.75 
Q 48.6875 17.390625 48.6875 27.296875 
z
M 18.109375 46.390625 
Q 20.953125 51.265625 25.265625 53.625 
Q 29.59375 56 35.59375 56 
Q 45.5625 56 51.78125 48.09375 
Q 58.015625 40.1875 58.015625 27.296875 
Q 58.015625 14.40625 51.78125 6.484375 
Q 45.5625 -1.421875 35.59375 -1.421875 
Q 29.59375 -1.421875 25.265625 0.953125 
Q 20.953125 3.328125 18.109375 8.203125 
L 18.109375 0 
L 9.078125 0 
L 9.078125 75.984375 
L 18.109375 75.984375 
z
" id="DejaVuSans-98"/>
       <path d="M 9.421875 54.6875 
L 18.40625 54.6875 
L 18.40625 0 
L 9.421875 0 
z
M 9.421875 75.984375 
L 18.40625 75.984375 
L 18.40625 64.59375 
L 9.421875 64.59375 
z
" id="DejaVuSans-105"/>
      </defs>
      <use xlink:href="#DejaVuSans-71"/>
      <use x="77.490234" xlink:href="#DejaVuSans-82"/>
      <use x="144.722656" xlink:href="#DejaVuSans-97"/>
      <use x="206.001953" xlink:href="#DejaVuSans-110"/>
      <use x="269.380859" xlink:href="#DejaVuSans-100"/>
      <use x="332.857422" xlink:href="#DejaVuSans-75"/>
      <use x="387.933594" xlink:href="#DejaVuSans-45"/>
      <use x="424.017578" xlink:href="#DejaVuSans-77"/>
      <use x="510.296875" xlink:href="#DejaVuSans-78"/>
      <use x="585.101562" xlink:href="#DejaVuSans-45"/>
      <use x="612.060547" xlink:href="#DejaVuSans-84"/>
      <use x="673.144531" xlink:href="#DejaVuSans-83"/>
      <use x="736.621094" xlink:href="#DejaVuSans-32"/>
      <use x="768.408203" xlink:href="#DejaVuSans-40"/>
      <use x="807.421875" xlink:href="#DejaVuSans-56"/>
      <use x="871.044922" xlink:href="#DejaVuSans-44"/>
      <use x="902.832031" xlink:href="#DejaVuSans-49"/>
      <use x="966.455078" xlink:href="#DejaVuSans-50"/>
      <use x="1030.078125" xlink:href="#DejaVuSans-41"/>
      <use x="1069.091797" xlink:href="#DejaVuSans-32"/>
      <use x="1100.878906" xlink:href="#DejaVuSans-98"/>
      <use x="1164.355469" xlink:href="#DejaVuSans-105"/>
      <use x="1192.138672" xlink:href="#DejaVuSans-116"/>
      <use x="1231.347656" xlink:href="#DejaVuSans-115"/>
     </g>
    </g>
    <g id="line2d_24">
     <path d="M 284.65625 259.704062 
L 304.65625 259.704062 
" style="fill:none;stroke:#2ca02c;stroke-linecap:square;stroke-width:1.5;"/>
    </g>
    <g id="line2d_25"/>
    <g id="text_19">
     <!-- GRandK-MN-TS (6,10) bits -->
     <g transform="translate(312.65625 263.204062)scale(0.1 -0.1)">
      <use xlink:href="#DejaVuSans-71"/>
      <use x="77.490234" xlink:href="#DejaVuSans-82"/>
      <use x="144.722656" xlink:href="#DejaVuSans-97"/>
      <use x="206.001953" xlink:href="#DejaVuSans-110"/>
      <use x="269.380859" xlink:href="#DejaVuSans-100"/>
      <use x="332.857422" xlink:href="#DejaVuSans-75"/>
      <use x="387.933594" xlink:href="#DejaVuSans-45"/>
      <use x="424.017578" xlink:href="#DejaVuSans-77"/>
      <use x="510.296875" xlink:href="#DejaVuSans-78"/>
      <use x="585.101562" xlink:href="#DejaVuSans-45"/>
      <use x="612.060547" xlink:href="#DejaVuSans-84"/>
      <use x="673.144531" xlink:href="#DejaVuSans-83"/>
      <use x="736.621094" xlink:href="#DejaVuSans-32"/>
      <use x="768.408203" xlink:href="#DejaVuSans-40"/>
      <use x="807.421875" xlink:href="#DejaVuSans-54"/>
      <use x="871.044922" xlink:href="#DejaVuSans-44"/>
      <use x="902.832031" xlink:href="#DejaVuSans-49"/>
      <use x="966.455078" xlink:href="#DejaVuSans-48"/>
      <use x="1030.078125" xlink:href="#DejaVuSans-41"/>
      <use x="1069.091797" xlink:href="#DejaVuSans-32"/>
      <use x="1100.878906" xlink:href="#DejaVuSans-98"/>
      <use x="1164.355469" xlink:href="#DejaVuSans-105"/>
      <use x="1192.138672" xlink:href="#DejaVuSans-116"/>
      <use x="1231.347656" xlink:href="#DejaVuSans-115"/>
     </g>
    </g>
    <g id="line2d_26">
     <path d="M 284.65625 274.382187 
L 304.65625 274.382187 
" style="fill:none;stroke:#d62728;stroke-linecap:square;stroke-width:1.5;"/>
    </g>
    <g id="line2d_27"/>
    <g id="text_20">
     <!-- GRandK-MN-TS (4,8) bits -->
     <g transform="translate(312.65625 277.882187)scale(0.1 -0.1)">
      <use xlink:href="#DejaVuSans-71"/>
      <use x="77.490234" xlink:href="#DejaVuSans-82"/>
      <use x="144.722656" xlink:href="#DejaVuSans-97"/>
      <use x="206.001953" xlink:href="#DejaVuSans-110"/>
      <use x="269.380859" xlink:href="#DejaVuSans-100"/>
      <use x="332.857422" xlink:href="#DejaVuSans-75"/>
      <use x="387.933594" xlink:href="#DejaVuSans-45"/>
      <use x="424.017578" xlink:href="#DejaVuSans-77"/>
      <use x="510.296875" xlink:href="#DejaVuSans-78"/>
      <use x="585.101562" xlink:href="#DejaVuSans-45"/>
      <use x="612.060547" xlink:href="#DejaVuSans-84"/>
      <use x="673.144531" xlink:href="#DejaVuSans-83"/>
      <use x="736.621094" xlink:href="#DejaVuSans-32"/>
      <use x="768.408203" xlink:href="#DejaVuSans-40"/>
      <use x="807.421875" xlink:href="#DejaVuSans-52"/>
      <use x="871.044922" xlink:href="#DejaVuSans-44"/>
      <use x="902.832031" xlink:href="#DejaVuSans-56"/>
      <use x="966.455078" xlink:href="#DejaVuSans-41"/>
      <use x="1005.46875" xlink:href="#DejaVuSans-32"/>
      <use x="1037.255859" xlink:href="#DejaVuSans-98"/>
      <use x="1100.732422" xlink:href="#DejaVuSans-105"/>
      <use x="1128.515625" xlink:href="#DejaVuSans-116"/>
      <use x="1167.724609" xlink:href="#DejaVuSans-115"/>
     </g>
    </g>
    <g id="line2d_28">
     <path d="M 284.65625 289.060312 
L 304.65625 289.060312 
" style="fill:none;stroke:#9467bd;stroke-linecap:square;stroke-width:1.5;"/>
    </g>
    <g id="line2d_29"/>
    <g id="text_21">
     <!-- GRandK-MN-TS (2,6) bits -->
     <g transform="translate(312.65625 292.560312)scale(0.1 -0.1)">
      <use xlink:href="#DejaVuSans-71"/>
      <use x="77.490234" xlink:href="#DejaVuSans-82"/>
      <use x="144.722656" xlink:href="#DejaVuSans-97"/>
      <use x="206.001953" xlink:href="#DejaVuSans-110"/>
      <use x="269.380859" xlink:href="#DejaVuSans-100"/>
      <use x="332.857422" xlink:href="#DejaVuSans-75"/>
      <use x="387.933594" xlink:href="#DejaVuSans-45"/>
      <use x="424.017578" xlink:href="#DejaVuSans-77"/>
      <use x="510.296875" xlink:href="#DejaVuSans-78"/>
      <use x="585.101562" xlink:href="#DejaVuSans-45"/>
      <use x="612.060547" xlink:href="#DejaVuSans-84"/>
      <use x="673.144531" xlink:href="#DejaVuSans-83"/>
      <use x="736.621094" xlink:href="#DejaVuSans-32"/>
      <use x="768.408203" xlink:href="#DejaVuSans-40"/>
      <use x="807.421875" xlink:href="#DejaVuSans-50"/>
      <use x="871.044922" xlink:href="#DejaVuSans-44"/>
      <use x="902.832031" xlink:href="#DejaVuSans-54"/>
      <use x="966.455078" xlink:href="#DejaVuSans-41"/>
      <use x="1005.46875" xlink:href="#DejaVuSans-32"/>
      <use x="1037.255859" xlink:href="#DejaVuSans-98"/>
      <use x="1100.732422" xlink:href="#DejaVuSans-105"/>
      <use x="1128.515625" xlink:href="#DejaVuSans-116"/>
      <use x="1167.724609" xlink:href="#DejaVuSans-115"/>
     </g>
    </g>
   </g>
  </g>
 </g>
 <defs>
  <clipPath id="p5eb75ffc73">
   <rect height="292.84" width="399.13" x="50.87" y="10.8"/>
  </clipPath>
 </defs>
</svg>
